<svg xmlns="http://www.w3.org/2000/svg">
<defs>
<font id="PTSans-NarrowBold" horiz-adv-x="478" >
  <font-face 
    font-family="PT Sans Narrow"
    font-weight="700"
    font-stretch="condensed"
    units-per-em="1000"
    panose-1="0 0 0 0 0 0 0 0 0 0"
    ascent="750"
    descent="-250"
    x-height="500"
    cap-height="700"
    bbox="-421 -272 1018 1016"
    underline-thickness="50"
    underline-position="-99"
    stemv="119"
    unicode-range="U+0020-FB02"
  />
<missing-glyph horiz-adv-x="750" 
d="M700 0h-650v700h650v-700zM422 350l198 220l-50 50l-195 -217l-195 217l-50 -50l197 -220l-197 -220l50 -50l195 217l195 -217l50 50zM140 63h-11v-36h8v12h4c8 0 16 3 16 12c0 11 -9 12 -17 12zM137 46v11h4c5 0 8 -2 8 -5c0 -7 -4 -6 -9 -6h-3zM177 57h12v6h-31v-6h12
v-30h7v30zM222 37c0 -3 -2 -4 -7 -4s-8 1 -9 2l-3 -7c3 0 6 -2 13 -2c9 0 14 4 14 12c0 12 -18 9 -18 16c0 2 2 3 6 3c3 0 6 -1 9 -2l2 7c-4 1 -8 2 -11 2c-9 0 -14 -4 -14 -11c0 -12 18 -11 18 -16zM235 52l2 -5c3 1 6 2 9 2s5 -1 5 -4v-2c-1 0 -2 1 -5 1
c-8 0 -12 -3 -12 -10c0 -5 3 -8 8 -8c4 0 7 2 9 5l2 -4h6c-1 1 -1 4 -1 7v11c0 7 -3 10 -10 10c-5 0 -10 -2 -13 -3zM245 32c-3 0 -4 1 -4 4s2 4 5 4s4 -1 5 -1v-3c-1 -3 -3 -4 -6 -4zM284 42v-15h8v16c0 8 -3 12 -9 12c-5 0 -8 -2 -10 -5l-2 4h-5v-27h7v17c1 3 3 4 6 4
s5 -2 5 -6zM299 34l-2 -6c3 -1 6 -2 10 -2c7 0 11 3 11 9c0 7 -4 6 -8 9c-3 1 -5 2 -5 3s1 2 3 2c3 0 5 -1 8 -2l2 6c-3 1 -6 2 -10 2c-7 0 -10 -3 -10 -9c0 -7 5 -8 8 -9c3 0 5 -1 5 -3c0 -1 -1 -2 -3 -2c-3 0 -6 1 -9 2zM338 42c0 -14 7 -21 20 -21s20 7 20 21
c0 13 -7 20 -20 20c-11 0 -20 -8 -20 -20zM344 42c0 10 5 15 14 15s14 -5 14 -15s-5 -15 -14 -15s-14 5 -14 15zM365 33l-1 5c-1 -1 -3 -1 -4 -1c-3 0 -4 2 -4 5s1 4 4 4h3l2 4c-3 1 -5 2 -7 2c-6 0 -9 -3 -9 -10s3 -11 9 -11c3 0 6 1 7 2zM410 63h-11v-36h8v12h4
c8 0 16 3 16 12c0 11 -9 12 -17 12zM407 46v11h4c5 0 8 -2 8 -5c0 -7 -4 -6 -9 -6h-3zM430 52l2 -5c3 1 6 2 9 2s5 -1 5 -4v-2c-1 0 -2 1 -5 1c-9 0 -13 -3 -13 -10c0 -5 3 -8 9 -8c4 0 7 2 9 5l2 -4h6c-1 1 -1 4 -1 7v11c0 7 -3 10 -10 10c-5 0 -10 -2 -13 -3zM440 32

<glyph glyph-name=".notdef" horiz-adv-x="750" 
d="M700 0h-650v700h650v-700zM422 350l198 220l-50 50l-195 -217l-195 217l-50 -50l197 -220l-197 -220l50 -50l195 217l195 -217l50 50zM140 63h-11v-36h8v12h4c8 0 16 3 16 12c0 11 -9 12 -17 12zM137 46v11h4c5 0 8 -2 8 -5c0 -7 -4 -6 -9 -6h-3zM177 57h12v6h-31v-6h12
v-30h7v30zM222 37c0 -3 -2 -4 -7 -4s-8 1 -9 2l-3 -7c3 0 6 -2 13 -2c9 0 14 4 14 12c0 12 -18 9 -18 16c0 2 2 3 6 3c3 0 6 -1 9 -2l2 7c-4 1 -8 2 -11 2c-9 0 -14 -4 -14 -11c0 -12 18 -11 18 -16zM235 52l2 -5c3 1 6 2 9 2s5 -1 5 -4v-2c-1 0 -2 1 -5 1
c-8 0 -12 -3 -12 -10c0 -5 3 -8 8 -8c4 0 7 2 9 5l2 -4h6c-1 1 -1 4 -1 7v11c0 7 -3 10 -10 10c-5 0 -10 -2 -13 -3zM245 32c-3 0 -4 1 -4 4s2 4 5 4s4 -1 5 -1v-3c-1 -3 -3 -4 -6 -4zM284 42v-15h8v16c0 8 -3 12 -9 12c-5 0 -8 -2 -10 -5l-2 4h-5v-27h7v17c1 3 3 4 6 4
s5 -2 5 -6zM299 34l-2 -6c3 -1 6 -2 10 -2c7 0 11 3 11 9c0 7 -4 6 -8 9c-3 1 -5 2 -5 3s1 2 3 2c3 0 5 -1 8 -2l2 6c-3 1 -6 2 -10 2c-7 0 -10 -3 -10 -9c0 -7 5 -8 8 -9c3 0 5 -1 5 -3c0 -1 -1 -2 -3 -2c-3 0 -6 1 -9 2zM338 42c0 -14 7 -21 20 -21s20 7 20 21
c0 13 -7 20 -20 20c-11 0 -20 -8 -20 -20zM344 42c0 10 5 15 14 15s14 -5 14 -15s-5 -15 -14 -15s-14 5 -14 15zM365 33l-1 5c-1 -1 -3 -1 -4 -1c-3 0 -4 2 -4 5s1 4 4 4h3l2 4c-3 1 -5 2 -7 2c-6 0 -9 -3 -9 -10s3 -11 9 -11c3 0 6 1 7 2zM410 63h-11v-36h8v12h4
c8 0 16 3 16 12c0 11 -9 12 -17 12zM407 46v11h4c5 0 8 -2 8 -5c0 -7 -4 -6 -9 -6h-3zM430 52l2 -5c3 1 6 2 9 2s5 -1 5 -4v-2c-1 0 -2 1 -5 1c-9 0 -13 -3 -13 -10c0 -5 3 -8 9 -8c4 0 7 2 9 5l2 -4h6c-1 1 -1 4 -1 7v11c0 7 -3 10 -10 10c-5 0 -10 -2 -13 -3zM440 32
c-3 0 -4 1 -4 4s2 4 5 4s4 -1 5 -1v-3c-1 -3 -3 -4 -6 -4zM477 47l1 7c-1 1 -2 1 -4 1c-3 0 -5 -2 -6 -5h-1l-1 4h-6v-27h8v17c0 3 2 4 6 4h1c1 0 1 -1 2 -1zM482 52l1 -5c4 1 7 2 9 2c3 0 5 -1 5 -4v-2c-1 0 -2 1 -5 1c-9 0 -13 -3 -13 -10c0 -5 3 -8 9 -8c5 0 8 2 9 5h1
l1 -4h6c-1 1 -1 4 -1 7v11c0 7 -3 10 -10 10c-5 0 -9 -2 -12 -3zM491 32c-3 0 -4 1 -4 4s2 4 5 4s4 -1 5 -1v-3c-1 -3 -3 -4 -6 -4zM521 57h12v6h-31v-6h11v-30h8v30zM548 34l-1 5l-6 15h-8l12 -27c-1 -3 -2 -5 -5 -5l-1 1l-2 -6c1 -1 3 -1 5 -1c3 0 6 4 10 13l10 25h-8
l-5 -15v-5h-1zM570 54h-5v-38h8v12c1 -1 2 -2 5 -2c9 0 14 5 14 15c0 9 -4 14 -11 14c-3 0 -6 -1 -9 -4h-1zM579 49c3 0 5 -3 5 -8c0 -6 -2 -9 -7 -9c-1 0 -3 1 -4 2v10c0 3 2 5 6 5zM621 29l-3 5c-1 -1 -4 -2 -7 -2c-5 0 -7 2 -8 6h19v6c0 8 -5 11 -12 11
c-9 0 -14 -5 -14 -15c0 -9 5 -14 14 -14c4 0 8 2 11 3zM610 49c4 0 6 -2 5 -6h-11c0 4 2 6 6 6z" />
    <glyph glyph-name="space" unicode=" " horiz-adv-x="205" 
 />
    <glyph glyph-name="exclam" unicode="!" horiz-adv-x="251" 
d="M107 208l-24 163v329h123v-329l-24 -163h-75zM72 65c0 49 28 75 71 75c47 0 73 -26 73 -75c0 -48 -28 -75 -73 -75c-44 0 -71 27 -71 75z" />
    <glyph glyph-name="quotedbl" unicode="&#x22;" horiz-adv-x="351" 
d="M145 484h-72v216h103zM279 484h-72v216h103z" />
    <glyph glyph-name="numbersign" unicode="#" 
d="M310 51h-98l30 154h-69l-30 -154h-97l30 154h-61l21 95h58l22 110h-60l21 95h57l29 144h98l-29 -144h69l29 144h97l-29 -144h59l-22 -95h-55l-22 -110h58l-22 -95h-54zM282 410h-69l-21 -110h69z" />
    <glyph glyph-name="dollar" unicode="$" 
d="M289 -99h-95v87c-64 3 -109 16 -136 33l33 107c20 -15 56 -28 103 -33v220c-69 40 -140 91 -140 210c0 104 55 164 140 183v92h95v-88c47 -3 81 -13 113 -29l-33 -104c-20 11 -47 20 -80 24v-197c68 -42 144 -96 144 -210c0 -115 -56 -181 -144 -201v-94zM248 281v-185
c43 8 64 42 64 87s-27 73 -64 98zM236 440v165c-48 -5 -63 -39 -63 -72c0 -41 27 -68 63 -93z" />
    <glyph glyph-name="percent" unicode="%" horiz-adv-x="720" 
d="M152 -13l-71 58l494 669l70 -58zM389 172c0 122 62 170 150 170c87 0 151 -42 151 -170s-64 -170 -151 -170c-88 0 -150 42 -150 170zM495 172c0 -64 13 -87 44 -87c32 0 45 17 45 87c0 68 -14 87 -45 87s-44 -19 -44 -87zM41 542c0 122 62 170 150 170
c87 0 151 -42 151 -170s-64 -170 -151 -170c-88 0 -150 42 -150 170zM147 542c0 -64 13 -87 44 -87c32 0 45 17 45 87c0 68 -14 87 -45 87s-44 -19 -44 -87z" />
    <glyph glyph-name="ampersand" unicode="&#x26;" horiz-adv-x="671" 
d="M70 194c0 101 61 183 139 237c-28 44 -48 90 -48 141c0 68 41 142 150 142c105 0 146 -60 146 -127c0 -56 -31 -117 -107 -173c33 -63 70 -127 117 -186c25 33 41 82 56 131l89 -41c-13 -49 -51 -127 -77 -164c33 -39 61 -60 89 -77l-61 -90c-36 16 -70 45 -102 82
c-40 -45 -95 -82 -182 -82c-121 0 -209 73 -209 207zM392 148c-53 71 -97 138 -128 202c-47 -47 -75 -87 -75 -147c0 -68 42 -108 103 -108c43 0 81 26 100 53zM280 566c0 -29 10 -59 29 -90c39 33 55 63 55 90c0 31 -14 52 -43 52c-27 0 -41 -21 -41 -52z" />
    <glyph glyph-name="quoteright" unicode="&#x2019;" horiz-adv-x="188" 
d="M29 644c0 39 26 65 61 65c43 0 69 -32 69 -85c0 -102 -67 -144 -99 -157l-30 50c23 11 42 32 45 63c-23 1 -46 21 -46 64z" />
    <glyph glyph-name="parenleft" unicode="(" horiz-adv-x="278" 
d="M269 -171l-83 -48c-101 127 -138 313 -138 462c0 146 37 334 140 469l80 -45c-72 -125 -101 -287 -101 -424c0 -128 30 -302 102 -414z" />
    <glyph glyph-name="parenright" unicode=")" horiz-adv-x="278" 
d="M9 666l83 46c101 -127 138 -314 138 -463c0 -146 -37 -333 -140 -468l-81 46c79 132 102 286 102 422c0 129 -33 303 -102 417z" />
    <glyph glyph-name="asterisk" unicode="*" horiz-adv-x="323" 
d="M88 642l-25 47l60 35l24 -43l13 -56l11 52l26 47l59 -34l-27 -49l-42 -40l55 15h52v-70h-50l-52 16l45 -45l22 -40l-60 -35l-24 43l-16 61l-10 -55l-26 -47l-60 35l27 48l39 34l-47 -15h-53v71h54l50 -16z" />
    <glyph glyph-name="plus" unicode="+" horiz-adv-x="444" 
d="M167 286h-133v106h133v146h110v-146h133v-106h-133v-147h-110v147z" />
    <glyph glyph-name="comma" unicode="," horiz-adv-x="196" 
d="M33 65c0 45 30 73 70 73c51 0 79 -38 79 -102c0 -117 -76 -166 -117 -182l-37 48c31 16 58 56 61 92c-28 -1 -56 20 -56 71z" />
    <glyph glyph-name="hyphen" unicode="-" horiz-adv-x="298" 
d="M253 230h-208v114h208v-114z" />
    <glyph glyph-name="period" unicode="." horiz-adv-x="192" 
d="M34 65c0 49 28 75 71 75c47 0 73 -26 73 -75c0 -48 -28 -75 -73 -75c-44 0 -71 27 -71 75z" />
    <glyph glyph-name="slash" unicode="/" horiz-adv-x="349" 
d="M74 -139l-91 35l293 816l91 -35z" />
    <glyph glyph-name="zero" unicode="0" 
d="M35 351c0 261 73 363 204 363c139 0 205 -102 205 -363c0 -264 -75 -364 -205 -364c-139 0 -204 105 -204 364zM154 351c0 -179 25 -259 86 -259c60 0 85 71 85 259c0 177 -23 257 -86 257c-60 0 -85 -72 -85 -257z" />
    <glyph glyph-name="one" unicode="1" 
d="M427 0h-340v106h114v393l13 68l-41 -59l-66 -51l-55 67l193 188h70v-606h112v-106z" />
    <glyph glyph-name="two" unicode="2" 
d="M402 532c0 -137 -88 -300 -160 -395l-44 -41v-5l60 15h155v-106h-351v69c84 104 221 305 221 442c0 56 -26 94 -82 94c-35 0 -72 -18 -96 -39l-45 87c43 37 97 61 173 61c96 0 169 -62 169 -182z" />
    <glyph glyph-name="three" unicode="3" 
d="M200 92c65 0 100 49 100 117c0 75 -37 113 -112 113h-59v68l99 168l48 45l-66 -9h-137v106h320v-71l-116 -189l-37 -27v-5l37 6c76 -5 142 -67 142 -197c0 -156 -94 -230 -211 -230c-49 0 -111 11 -143 30l32 100c28 -15 60 -25 103 -25z" />
    <glyph glyph-name="four" unicode="4" 
d="M377 297h88v-102h-88v-195h-113v195h-247v74l256 436h104v-408zM173 297h91v155l11 90h-4l-30 -81l-79 -134l-40 -38z" />
    <glyph glyph-name="five" unicode="5" 
d="M183 95c72 0 110 52 110 125c0 84 -45 124 -128 119l-65 -4v365h291v-116h-189v-143l33 4c108 -4 177 -83 177 -220c0 -158 -95 -238 -223 -238c-48 0 -101 11 -132 26l31 101c25 -13 56 -19 95 -19z" />
    <glyph glyph-name="six" unicode="6" 
d="M438 217c0 -142 -81 -230 -193 -230c-117 0 -202 79 -202 264c0 273 142 429 298 463l30 -97c-105 -27 -183 -120 -207 -239c23 32 56 54 107 54c96 0 167 -70 167 -215zM323 210c0 81 -27 116 -83 116c-40 0 -69 -26 -81 -57c-1 -15 -1 -30 -1 -45
c0 -68 26 -132 84 -132c48 0 81 42 81 118z" />
    <glyph glyph-name="seven" unicode="7" 
d="M431 662l-227 -662h-116l189 547l36 49l-50 -10h-211v114h379v-38z" />
    <glyph glyph-name="eight" unicode="8" 
d="M50 168c0 96 47 150 99 189c-52 41 -84 92 -84 172c0 113 67 185 178 185c101 0 170 -61 170 -169c0 -79 -30 -129 -85 -176c67 -47 100 -101 100 -190c0 -121 -82 -192 -191 -192c-111 0 -187 66 -187 181zM313 179c0 68 -49 101 -92 134c-47 -36 -62 -79 -62 -122
c0 -56 29 -99 80 -99c45 0 74 28 74 87zM179 527c0 -60 37 -92 80 -119c31 36 46 69 46 114c0 55 -28 86 -63 86c-44 0 -63 -38 -63 -81z" />
    <glyph glyph-name="nine" unicode="9" 
d="M37 481c0 141 69 233 196 233c124 0 204 -88 204 -264c0 -310 -145 -445 -303 -463l-28 99c120 24 185 110 204 225c-25 -33 -51 -45 -98 -45c-84 0 -175 66 -175 215zM152 488c0 -76 36 -116 87 -116c39 0 65 15 80 40c3 15 3 31 3 46c0 83 -26 150 -90 150
c-51 0 -80 -45 -80 -120z" />
    <glyph glyph-name="colon" unicode=":" horiz-adv-x="251" 
d="M77 65c0 49 28 75 71 75c47 0 73 -26 73 -75c0 -48 -28 -75 -73 -75c-44 0 -71 27 -71 75zM77 427c0 49 28 75 71 75c47 0 73 -26 73 -75c0 -48 -28 -75 -73 -75c-44 0 -71 27 -71 75z" />
    <glyph glyph-name="semicolon" unicode=";" horiz-adv-x="251" 
d="M73 427c0 49 28 75 71 75c47 0 73 -26 73 -75c0 -48 -28 -75 -73 -75c-44 0 -71 27 -71 75zM72 65c0 45 30 73 70 73c51 0 79 -38 79 -102c0 -117 -76 -166 -117 -182l-37 48c31 16 58 56 61 92c-28 -1 -56 20 -56 71z" />
    <glyph glyph-name="less" unicode="&#x3c;" horiz-adv-x="444" 
d="M410 154l-60 -81l-315 212v70l311 222l60 -81l-186 -139l-75 -35l74 -31z" />
    <glyph glyph-name="equal" unicode="=" horiz-adv-x="444" 
d="M406 193h-368v106h368v-106zM406 383h-368v106h368v-106z" />
    <glyph glyph-name="greater" unicode="&#x3e;" horiz-adv-x="444" 
d="M34 497l62 79l313 -211v-70l-309 -220l-62 80l187 138l74 36l-74 30z" />
    <glyph glyph-name="question" unicode="?" horiz-adv-x="382" 
d="M214 208h-101c-16 186 129 210 129 324c0 47 -20 76 -71 76c-35 0 -77 -15 -105 -39l-47 90c41 31 95 55 175 55c107 0 171 -61 171 -166c0 -188 -151 -181 -151 -340zM97 65c0 49 28 75 71 75c47 0 73 -26 73 -75c0 -48 -28 -75 -73 -75c-44 0 -71 27 -71 75z" />
    <glyph glyph-name="at" unicode="@" horiz-adv-x="881" 
d="M533 453l25 31h66l-39 -273c-9 -61 2 -91 29 -91c53 0 109 62 109 206c0 184 -110 261 -262 261c-171 0 -303 -142 -303 -349c0 -204 106 -312 289 -312c35 0 81 10 114 27l29 -87c-43 -23 -92 -34 -156 -34c-210 0 -377 125 -377 404c0 281 193 445 405 445
c204 0 362 -120 362 -355c0 -177 -111 -306 -244 -306c-55 0 -99 25 -96 94h-3c-31 -51 -72 -94 -135 -94c-57 0 -103 53 -103 144c0 178 94 326 205 326c37 0 62 -14 85 -37zM482 199l23 170c-12 14 -28 21 -47 21c-60 0 -105 -96 -105 -197c0 -47 15 -73 47 -73
c29 0 62 39 82 79z" />
    <glyph glyph-name="A" unicode="A" horiz-adv-x="501" 
d="M503 0h-132l-43 158h-165l-41 -158h-124l202 705h99zM246 535l-17 -111l-39 -162h116l-40 163l-16 110h-4z" />
    <glyph glyph-name="B" unicode="B" horiz-adv-x="490" 
d="M445 538c0 -69 -28 -141 -101 -165v-6c64 -16 118 -62 118 -170c0 -145 -106 -206 -231 -206c-37 0 -124 -1 -186 14v690c44 8 114 15 178 15c118 0 222 -31 222 -172zM234 99c56 0 96 37 96 106c0 88 -52 99 -108 99h-51v-199c11 -4 42 -6 63 -6zM171 597v-194h29
c15 0 37 2 49 5c39 15 70 48 70 101c0 70 -39 92 -90 92c-27 0 -47 -1 -58 -4z" />
    <glyph glyph-name="C" unicode="C" horiz-adv-x="457" 
d="M417 134l25 -106c-35 -28 -99 -41 -156 -41c-143 0 -257 91 -257 364c0 283 131 363 260 363c65 0 114 -13 145 -26l-25 -111c-25 13 -58 21 -105 21c-92 0 -143 -77 -143 -248c0 -147 44 -248 151 -248c47 0 78 15 105 32z" />
    <glyph glyph-name="D" unicode="D" horiz-adv-x="535" 
d="M45 0v700c47 8 126 10 171 10c221 0 289 -142 289 -354c0 -195 -63 -366 -299 -366c-34 0 -129 5 -161 10zM229 594c-21 0 -46 0 -58 -3v-482c7 -2 46 -4 53 -4c120 0 149 121 149 253c0 124 -23 236 -144 236z" />
    <glyph glyph-name="E" unicode="E" horiz-adv-x="430" 
d="M399 0h-354v700h350v-116h-224v-172h203v-116h-203v-180h228v-116z" />
    <glyph glyph-name="F" unicode="F" horiz-adv-x="419" 
d="M171 0h-126v700h350v-116h-224v-182h206v-116h-206v-286z" />
    <glyph glyph-name="G" unicode="G" horiz-adv-x="502" 
d="M372 270l-115 16v76h216v-310c-49 -47 -120 -65 -185 -65c-157 0 -259 108 -259 363c0 266 125 364 268 364c64 0 118 -13 153 -28l-26 -109c-27 12 -60 21 -111 21c-94 0 -152 -72 -152 -249c0 -169 56 -247 140 -247c27 0 52 8 71 25v143z" />
    <glyph glyph-name="H" unicode="H" horiz-adv-x="533" 
d="M488 0h-126v296h-191v-296h-126v700h126v-288h191v288h126v-700z" />
    <glyph glyph-name="I" unicode="I" horiz-adv-x="238" 
d="M182 0h-126v700h126v-700z" />
    <glyph glyph-name="J" unicode="J" horiz-adv-x="289" 
d="M113 218v482h126v-509c0 -123 -36 -202 -147 -202c-39 0 -78 8 -108 22l28 106c14 -9 30 -13 49 -13c47 0 52 41 52 114z" />
    <glyph glyph-name="K" unicode="K" horiz-adv-x="519" 
d="M511 0h-154l-159 300h-27v-300h-126v700h126v-311l25 12l147 299h142l-160 -295l-47 -37l48 -38z" />
    <glyph glyph-name="L" unicode="L" horiz-adv-x="424" 
d="M171 116h246v-116h-372v700h126v-584z" />
    <glyph glyph-name="M" unicode="M" horiz-adv-x="664" 
d="M619 0h-126v361l14 134h-5l-37 -120l-114 -246h-42l-121 247l-37 121h-6l19 -135v-362h-119v700h121l146 -303l24 -87h4l23 89l137 301h119v-700z" />
    <glyph glyph-name="N" unicode="N" horiz-adv-x="540" 
d="M495 -4h-97l-199 348l-46 123h-5l16 -121v-346h-119v705h97l201 -352l43 -121h6l-16 119v349h119v-704z" />
    <glyph glyph-name="O" unicode="O" horiz-adv-x="553" 
d="M29 350c0 237 80 364 247 364c173 0 248 -142 248 -364c0 -237 -84 -363 -248 -363c-175 0 -247 141 -247 363zM161 350c0 -141 31 -248 115 -248c77 0 116 75 116 248c0 137 -29 248 -116 248c-77 0 -115 -83 -115 -248z" />
    <glyph glyph-name="P" unicode="P" horiz-adv-x="477" 
d="M171 0h-126v693c48 11 108 17 165 17c122 0 249 -35 249 -231c0 -176 -107 -242 -223 -242c-11 0 -53 1 -65 4v-241zM171 593v-239c8 -3 37 -5 45 -5c59 0 111 27 111 131c0 89 -49 118 -105 118c-21 0 -38 -2 -51 -5z" />
    <glyph glyph-name="Q" unicode="Q" horiz-adv-x="553" 
d="M579 -82v-113c-27 -9 -54 -13 -81 -13c-112 0 -212 65 -295 65c-13 0 -26 -1 -38 -5v112c16 4 32 6 48 6c91 0 181 -63 290 -63c24 0 49 3 76 11zM29 350c0 237 80 364 247 364c173 0 248 -142 248 -364c0 -237 -84 -363 -248 -363c-175 0 -247 141 -247 363zM161 350
c0 -141 31 -248 115 -248c77 0 116 75 116 248c0 137 -29 248 -116 248c-77 0 -115 -83 -115 -248z" />
    <glyph glyph-name="R" unicode="R" horiz-adv-x="503" 
d="M171 0h-126v693c55 12 124 17 169 17c115 0 227 -40 227 -198c0 -113 -45 -185 -118 -212l40 -32l129 -268h-145l-122 276l-54 13v-289zM171 589v-214h43c63 0 95 37 95 117c0 60 -26 102 -83 102c-21 0 -43 -1 -55 -5z" />
    <glyph glyph-name="S" unicode="S" horiz-adv-x="439" 
d="M290 180c0 126 -257 127 -257 346c0 135 88 188 201 188c68 0 129 -14 168 -37l-39 -111c-23 16 -71 32 -123 32s-81 -22 -81 -63c0 -113 257 -127 257 -341c0 -140 -86 -207 -217 -207c-83 0 -147 18 -180 38l41 113c27 -16 77 -36 130 -36c67 0 100 26 100 78z" />
    <glyph glyph-name="T" unicode="T" horiz-adv-x="473" 
d="M8 700h457v-116h-165v-584h-126v584h-166v116z" />
    <glyph glyph-name="U" unicode="U" horiz-adv-x="515" 
d="M354 251v449h119v-454c0 -181 -78 -257 -209 -257c-153 0 -222 77 -222 240v471h126v-449c0 -109 27 -147 95 -147c65 0 91 43 91 147z" />
    <glyph glyph-name="V" unicode="V" horiz-adv-x="503" 
d="M-9 700h148l104 -411l14 -120h4l16 121l102 410h133l-212 -704h-96z" />
    <glyph glyph-name="W" unicode="W" horiz-adv-x="717" 
d="M-1 700h138l68 -385l10 -126h4l11 128l94 383h88l91 -385l11 -126h4l11 128l62 383h128l-157 -704h-89l-98 385l-13 109h-5l-12 -110l-98 -384h-93z" />
    <glyph glyph-name="X" unicode="X" horiz-adv-x="528" 
d="M145 0h-139l171 356l-155 344h152l81 -200l19 -76l18 76l85 200h136l-160 -337l168 -363h-147l-94 215l-21 78l-20 -78z" />
    <glyph glyph-name="Y" unicode="Y" horiz-adv-x="495" 
d="M310 0h-126v260l-187 440h149l97 -265l10 -76h5l11 78l95 263h135l-189 -439v-261z" />
    <glyph glyph-name="Z" unicode="Z" horiz-adv-x="445" 
d="M424 0h-403v116l234 427l42 41h-276v116h403v-116l-235 -430l-41 -38h276v-116z" />
    <glyph glyph-name="bracketleft" unicode="[" horiz-adv-x="276" 
d="M253 -229h-208v929h208v-103h-93v-723h93v-103z" />
    <glyph glyph-name="backslash" unicode="\" horiz-adv-x="362" 
d="M-17 676l93 35l297 -813l-93 -37z" />
    <glyph glyph-name="bracketright" unicode="]" horiz-adv-x="275" 
d="M23 700h207v-929h-207v103h92v723h-92v103z" />
    <glyph glyph-name="asciicircum" unicode="^" horiz-adv-x="428" 
d="M132 413h-114l163 292h68l155 -292h-119l-56 122l-17 73l-21 -74z" />
    <glyph glyph-name="underscore" unicode="_" horiz-adv-x="374" 
d="M374 -223h-374v102h374v-102z" />
    <glyph glyph-name="quoteleft" unicode="&#x2018;" horiz-adv-x="190" 
d="M159 618c0 -39 -26 -64 -61 -64c-43 0 -69 34 -69 85c0 104 68 147 99 160l32 -51c-23 -12 -43 -38 -46 -66c23 -3 45 -25 45 -64z" />
    <glyph glyph-name="a" unicode="a" horiz-adv-x="413" 
d="M74 381l-30 89c40 24 101 40 177 40c113 0 152 -61 152 -169c0 -124 -20 -246 9 -341h-97l-19 60h-4c-21 -39 -59 -66 -118 -66c-79 0 -127 56 -127 144c0 120 92 168 237 160c7 77 -6 110 -61 110c-40 0 -86 -10 -119 -27zM187 95c36 0 58 22 69 43v83
c-61 8 -116 -8 -116 -63c0 -41 18 -63 47 -63z" />
    <glyph glyph-name="b" unicode="b" horiz-adv-x="443" 
d="M43 20v680h119v-232h3c24 29 58 44 103 44c95 0 150 -74 150 -249c0 -189 -80 -274 -209 -274c-71 0 -134 15 -166 31zM162 351v-243c14 -7 32 -11 55 -11c51 0 78 44 78 159c0 101 -21 147 -66 147c-33 0 -56 -17 -67 -52z" />
    <glyph glyph-name="c" unicode="c" horiz-adv-x="350" 
d="M313 119l25 -92c-33 -27 -83 -39 -130 -39c-135 0 -183 102 -183 262c0 175 64 263 185 263c60 0 95 -12 124 -28l-28 -99c-24 12 -43 18 -74 18c-56 0 -84 -46 -84 -154c0 -91 27 -154 90 -154c33 0 55 10 75 23z" />
    <glyph glyph-name="d" unicode="d" horiz-adv-x="445" 
d="M283 700h119v-524c0 -56 0 -109 9 -176h-84l-16 57h-4c-23 -47 -62 -69 -119 -69c-101 0 -163 74 -163 254c0 176 63 269 187 269c32 0 51 -4 71 -13v202zM216 96c36 0 56 18 67 53v236c-13 12 -28 17 -55 17c-53 0 -80 -41 -80 -164c0 -92 21 -142 68 -142z" />
    <glyph glyph-name="e" unicode="e" horiz-adv-x="428" 
d="M344 120l37 -83c-33 -29 -95 -49 -158 -49c-139 0 -198 98 -198 262c0 180 75 264 202 264c84 0 168 -45 168 -196c0 -29 -3 -62 -10 -101h-243c3 -83 32 -128 103 -128c43 0 80 16 99 31zM225 412c-51 0 -75 -43 -79 -116h138c4 76 -16 116 -59 116z" />
    <glyph glyph-name="f" unicode="f" horiz-adv-x="267" 
d="M62 394h-54v106h54v28c0 127 49 180 137 180c44 0 81 -6 110 -18l-22 -101c-24 9 -41 10 -61 10c-39 0 -45 -27 -45 -99h85v-106h-85v-394h-119v394z" />
    <glyph glyph-name="g" unicode="g" horiz-adv-x="443" 
d="M401 482v-482c0 -144 -70 -211 -189 -211c-83 0 -126 15 -151 30l25 101c29 -12 61 -25 108 -25c68 0 90 36 90 110v27h-3c-19 -27 -49 -39 -98 -39c-105 0 -158 75 -158 247c0 185 75 271 210 271c72 0 131 -13 166 -29zM216 94c36 0 55 18 66 50v250
c-15 7 -32 11 -56 11c-49 0 -78 -43 -78 -160c0 -101 23 -151 68 -151z" />
    <glyph glyph-name="h" unicode="h" horiz-adv-x="449" 
d="M410 328v-328h-119v302c0 72 -14 102 -58 102c-32 0 -62 -25 -71 -60v-344h-119v700h119v-245h3c27 35 63 58 120 58c82 0 125 -42 125 -185z" />
    <glyph glyph-name="i" unicode="i" horiz-adv-x="225" 
d="M172 0h-119v500h119v-500zM40 641c0 40 26 69 73 69s77 -28 77 -69s-30 -67 -77 -67s-73 27 -73 67z" />
    <glyph glyph-name="j" unicode="j" horiz-adv-x="225" 
d="M40 641c0 40 26 69 73 69s77 -28 77 -69s-30 -67 -77 -67s-73 27 -73 67zM54 14v486h119v-520c0 -121 -40 -187 -132 -187c-19 0 -38 2 -56 7v106c56 -5 69 34 69 108z" />
    <glyph glyph-name="k" unicode="k" horiz-adv-x="412" 
d="M412 0h-134l-88 207h-28v-207h-119v700h119v-413l24 14l83 199h129l-92 -198l-43 -34l47 -34z" />
    <glyph glyph-name="l" unicode="l" horiz-adv-x="243" 
d="M45 700h119v-538c0 -47 9 -65 30 -65c12 0 24 2 40 9l11 -96c-16 -10 -60 -21 -100 -21c-67 0 -100 29 -100 109v602z" />
    <glyph glyph-name="m" unicode="m" horiz-adv-x="663" 
d="M393 349v-349h-119v291c0 84 -10 112 -49 112c-32 0 -52 -24 -63 -53v-350h-119v500h92l15 -60h3c25 41 60 72 123 72c52 0 83 -20 102 -77c25 48 67 77 123 77c88 0 123 -39 123 -188v-324h-119v304c0 68 -8 99 -49 99c-33 0 -54 -21 -63 -54z" />
    <glyph glyph-name="n" unicode="n" horiz-adv-x="449" 
d="M410 333v-333h-119v304c0 73 -16 99 -57 99c-35 0 -61 -24 -72 -56v-347h-119v500h95l14 -58h3c24 39 63 70 130 70c81 0 125 -43 125 -179z" />
    <glyph glyph-name="o" unicode="o" horiz-adv-x="445" 
d="M25 250c0 177 73 263 197 263c133 0 198 -88 198 -263c0 -179 -73 -262 -198 -262c-131 0 -197 87 -197 262zM148 250c0 -100 21 -157 74 -157c51 0 75 42 75 157c0 103 -20 157 -75 157c-47 0 -74 -42 -74 -157z" />
    <glyph glyph-name="p" unicode="p" horiz-adv-x="447" 
d="M162 -199h-119v699h89l12 -57h3c31 48 66 69 122 69c101 0 153 -70 153 -249s-66 -276 -187 -276c-32 0 -53 5 -73 16v-202zM162 347v-235c13 -13 28 -20 55 -20c53 0 82 47 82 174c0 95 -20 140 -69 140c-33 0 -56 -20 -68 -59z" />
    <glyph glyph-name="q" unicode="q" horiz-adv-x="443" 
d="M401 482v-681h-119v234h-4c-19 -29 -46 -48 -97 -48c-99 0 -156 82 -156 253c0 179 79 271 219 271c60 0 124 -14 157 -29zM282 144v249c-14 8 -33 12 -56 12c-52 0 -78 -47 -78 -160c0 -102 23 -153 68 -153c36 0 55 19 66 52z" />
    <glyph glyph-name="r" unicode="r" horiz-adv-x="293" 
d="M293 500l-14 -118c-16 6 -31 9 -44 9c-36 0 -64 -21 -73 -57v-334h-119v500h91l14 -60h4c17 44 51 70 94 70c16 0 32 -3 47 -10z" />
    <glyph glyph-name="s" unicode="s" horiz-adv-x="350" 
d="M211 133c0 85 -185 71 -185 234c0 93 51 146 150 146c59 0 114 -14 145 -33l-28 -92c-25 11 -64 23 -99 23c-33 0 -49 -14 -49 -41c0 -74 185 -65 185 -230c0 -92 -56 -152 -167 -152c-55 0 -112 14 -144 35l33 96c28 -16 66 -30 106 -30c31 0 53 13 53 44z" />
    <glyph glyph-name="t" unicode="t" horiz-adv-x="291" 
d="M59 394h-55v106h55v94l119 37v-131h97v-106h-97v-218c0 -57 10 -79 39 -79c20 0 34 4 53 12l15 -95c-29 -14 -69 -25 -112 -25c-76 0 -114 39 -114 143v262z" />
    <glyph glyph-name="u" unicode="u" horiz-adv-x="446" 
d="M39 175v325h119v-299c0 -79 12 -105 51 -105c37 0 63 31 74 70v334h119v-348c0 -55 3 -109 14 -152h-90l-21 68h-3c-25 -47 -68 -80 -132 -80c-82 0 -131 38 -131 187z" />
    <glyph glyph-name="v" unicode="v" horiz-adv-x="399" 
d="M-12 500h138l69 -261l12 -79h4l11 80l62 260h128l-168 -504h-80z" />
    <glyph glyph-name="w" unicode="w" horiz-adv-x="596" 
d="M202 250l61 250h89l70 -256l12 -83h4l10 84l47 255h108l-123 -504h-94l-75 278l-8 64h-6l-7 -66l-72 -276h-97l-127 504h128l54 -251l9 -89h4z" />
    <glyph glyph-name="x" unicode="x" horiz-adv-x="439" 
d="M132 0h-128l129 256l-119 244h140l51 -118l19 -64l21 64l52 118h129l-120 -240l128 -260h-135l-61 130l-22 71l-23 -71z" />
    <glyph glyph-name="y" unicode="y" horiz-adv-x="400" 
d="M-9 500h142l70 -281l13 -78h5l9 79l58 280h122l-125 -451c-44 -156 -74 -253 -154 -253c-28 0 -55 4 -74 15l20 102c37 -14 71 0 87 87z" />
    <glyph glyph-name="z" unicode="z" horiz-adv-x="381" 
d="M355 0h-331v106l162 245l44 43h-206v106h331v-106l-160 -249l-43 -39h203v-106z" />
    <glyph glyph-name="braceleft" unicode="{" horiz-adv-x="313" 
d="M98 -111v209c0 68 -23 89 -66 89v96c43 0 66 26 66 85v214c0 71 24 119 91 119h107v-102h-41c-31 0 -43 -17 -43 -60v-203c0 -59 -26 -87 -57 -94v-10c31 -5 57 -42 57 -98v-201c0 -41 11 -60 44 -60h40v-102h-107c-61 0 -91 39 -91 118z" />
    <glyph glyph-name="bar" unicode="|" horiz-adv-x="188" 
d="M143 -129h-98v829h98v-829z" />
    <glyph glyph-name="braceright" unicode="}" horiz-adv-x="313" 
d="M215 584v-211c0 -68 23 -89 66 -89v-96c-43 0 -66 -26 -66 -85v-214c0 -72 -26 -118 -94 -118h-104v102h41c31 0 43 17 43 60v202c0 59 26 87 57 94v10c-31 5 -57 42 -57 98v202c0 41 -11 60 -44 60h-40v102h107c61 0 91 -39 91 -117z" />
    <glyph glyph-name="asciitilde" unicode="~" horiz-adv-x="444" 
d="M64 278l-41 100c52 51 94 67 130 67c65 0 108 -52 161 -52c20 0 40 8 63 28l44 -103c-40 -36 -73 -48 -102 -48c-61 0 -107 56 -163 56c-27 0 -56 -12 -92 -48z" />
    <glyph glyph-name="exclamdown" unicode="&#xa1;" horiz-adv-x="250" 
d="M143 291l24 -162v-328h-123v328l23 162h76zM34 434c0 49 28 75 71 75c47 0 73 -26 73 -75c0 -48 -28 -76 -73 -76c-44 0 -71 28 -71 76z" />
    <glyph glyph-name="cent" unicode="&#xa2;" 
d="M390 118l24 -90c-19 -15 -46 -26 -75 -32v-95h-112v90c-115 18 -157 118 -157 259c0 147 56 238 157 259v91h112v-91c29 -5 52 -13 70 -24l-25 -96c-16 7 -36 11 -55 14v-307c27 4 46 13 61 22zM252 100v301c-43 -15 -65 -62 -65 -151c0 -77 20 -131 65 -150z" />
    <glyph glyph-name="sterling" unicode="&#xa3;" 
d="M145 292h-101v100h60c-16 35 -30 75 -30 136c0 128 78 186 186 186c68 0 123 -14 166 -37l-38 -103c-23 13 -59 27 -110 27s-81 -30 -81 -94c0 -47 16 -79 35 -115h117v-100h-83c3 -13 4 -25 4 -40c0 -39 -12 -90 -35 -118l-45 -35v-6l66 16h183v-109h-395v109h2
c68 0 105 63 105 130c0 19 -2 37 -6 53z" />
    <glyph glyph-name="fraction" unicode="&#x2044;" horiz-adv-x="154" 
d="M-51 -13l-83 40l343 688l81 -39z" />
    <glyph glyph-name="yen" unicode="&#xa5;" 
d="M176 257h-110v79h77l-154 364h149l97 -265l10 -76h5l11 78l95 263h135l-157 -364h78v-79h-110v-58h110v-79h-110v-120h-126v120h-110v79h110v58z" />
    <glyph glyph-name="florin" unicode="&#x192;" 
d="M404 500v-106h-115l-58 -427c-13 -98 -46 -174 -147 -174c-37 0 -104 9 -132 23l22 100c23 -11 48 -17 75 -17c37 0 60 37 69 109l48 386h-62v106h79l9 67c13 99 41 147 140 147c35 0 101 -12 134 -28l-29 -94c-24 11 -49 16 -76 16c-33 0 -46 -22 -52 -75l-4 -33h99z
" />
    <glyph glyph-name="section" unicode="&#xa7;" horiz-adv-x="444" 
d="M86 467l35 14c-31 23 -53 51 -53 107c0 72 47 126 151 126c64 0 131 -15 160 -31l-30 -99c-28 13 -72 24 -107 24c-40 0 -55 -18 -55 -38c0 -76 219 -35 219 -223c0 -41 -18 -84 -47 -115l-37 -14c31 -21 53 -51 53 -106c0 -81 -58 -125 -155 -125c-75 0 -126 16 -161 37
l31 96c27 -15 64 -28 109 -28c40 0 57 13 57 41c0 73 -218 40 -218 220c0 41 17 83 48 114zM248 269c23 16 39 45 39 76c0 45 -35 61 -92 84c-23 -16 -38 -41 -38 -74c0 -44 35 -65 91 -86z" />
    <glyph glyph-name="currency" unicode="&#xa4;" 
d="M55 464l-68 70l68 73l71 -70l17 -33c24 19 58 27 94 27c35 0 72 -10 96 -26l17 32l70 70l71 -73l-70 -70l-34 -15c17 -25 25 -56 25 -93c0 -36 -9 -68 -25 -91l34 -14l70 -71l-71 -72l-70 69l-16 33c-23 -16 -62 -26 -97 -26c-36 0 -70 9 -94 26l-17 -33l-71 -69l-68 72
l68 71l33 16c-15 24 -23 53 -23 89s9 66 25 93zM164 357c0 -44 30 -77 74 -77s74 33 74 77c0 43 -30 78 -74 78s-74 -35 -74 -78z" />
    <glyph glyph-name="quotesingle" unicode="'" horiz-adv-x="217" 
d="M145 484h-72v216h103z" />
    <glyph glyph-name="quotedblleft" unicode="&#x201c;" horiz-adv-x="343" 
d="M159 618c0 -39 -26 -64 -61 -64c-43 0 -69 34 -69 85c0 104 68 147 99 160l32 -51c-23 -12 -43 -38 -46 -66c23 -3 45 -25 45 -64zM312 618c0 -39 -26 -64 -61 -64c-43 0 -69 34 -69 85c0 104 68 147 99 160l32 -51c-23 -12 -43 -38 -46 -66c23 -3 45 -25 45 -64z" />
    <glyph glyph-name="guillemotleft" unicode="&#xab;" horiz-adv-x="405" 
d="M382 94l-68 -46l-130 213l125 216l68 -45l-69 -133l-38 -39l38 -35zM233 89l-75 -51l-136 221l131 230l76 -51l-76 -137l-39 -41l39 -36z" />
    <glyph glyph-name="guilsinglleft" unicode="&#x2039;" horiz-adv-x="256" 
d="M233 89l-75 -51l-136 221l131 230l73 -47l-73 -141l-39 -41l39 -36z" />
    <glyph glyph-name="guilsinglright" unicode="&#x203a;" horiz-adv-x="257" 
d="M23 439l76 50l136 -221l-131 -230l-74 48l73 140l40 41l-40 36z" />
    <glyph glyph-name="fi" unicode="&#xfb01;" horiz-adv-x="460" 
d="M182 500h231v-500h-119v394h-112v-394h-119v394h-54v106h54v28c0 127 56 182 163 182c77 0 140 -14 179 -34l-31 -98c-32 16 -73 26 -120 26c-61 0 -72 -39 -72 -104z" />
    <glyph glyph-name="fl" unicode="&#xfb02;" horiz-adv-x="492" 
d="M292 97v503c-12 3 -36 7 -56 7c-47 0 -54 -34 -54 -107h57v-106h-57v-394h-119v394h-54v106h54v28c0 126 46 185 172 185c53 0 144 -10 176 -18v-534c0 -44 10 -66 30 -66c12 0 23 2 40 10l13 -95c-19 -10 -59 -23 -103 -23c-65 0 -99 30 -99 110z" />
    <glyph glyph-name="endash" unicode="&#x2013;" horiz-adv-x="543" 
d="M455 234h-368v109h368v-109z" />
    <glyph glyph-name="dagger" unicode="&#x2020;" horiz-adv-x="424" 
d="M125 405h-92v104h92l44 -15l-14 53v153h114v-153l-14 -53l44 15h92v-104h-93l-43 15l14 -49v-371l-14 -199h-86l-14 200v370l14 49z" />
    <glyph glyph-name="daggerdbl" unicode="&#x2021;" horiz-adv-x="424" 
d="M169 238l-14 45v92l14 45l-44 -15h-92v104h92l44 -15l-14 50v156h114v-156l-14 -50l44 15h92v-104h-93l-43 15l14 -45v-92l-14 -45l43 15h93v-104h-92l-44 15l14 -50v-114l-15 -199h-84l-15 200v113l14 50l-44 -15h-92v104h92z" />
    <glyph glyph-name="periodcentered" unicode="&#xb7;" horiz-adv-x="212" 
d="M34 315c0 49 28 75 71 75c47 0 73 -26 73 -75c0 -48 -28 -75 -73 -75c-44 0 -71 27 -71 75z" />
    <glyph glyph-name="paragraph" unicode="&#xb6;" horiz-adv-x="448" 
d="M403 -129h-97v829h97v-829zM244 -129h-97v423c-76 0 -126 87 -126 203s62 203 156 203h67v-829z" />
    <glyph glyph-name="bullet" unicode="&#x2022;" horiz-adv-x="372" 
d="M57 311c0 92 53 153 128 153c76 0 130 -54 130 -153c0 -97 -54 -152 -130 -152c-75 0 -128 55 -128 152z" />
    <glyph glyph-name="quotesinglbase" unicode="&#x201a;" horiz-adv-x="188" 
d="M29 63c0 39 26 65 61 65c43 0 69 -32 69 -85c0 -102 -67 -144 -99 -157l-30 50c23 11 42 32 45 63c-23 1 -46 21 -46 64z" />
    <glyph glyph-name="quotedblbase" unicode="&#x201e;" horiz-adv-x="341" 
d="M29 63c0 39 26 65 61 65c43 0 69 -32 69 -85c0 -102 -67 -144 -99 -157l-30 50c23 11 42 32 45 63c-23 1 -46 21 -46 64zM182 63c0 39 26 65 61 65c43 0 69 -32 69 -85c0 -102 -67 -144 -99 -157l-30 50c23 11 42 32 45 63c-23 1 -46 21 -46 64z" />
    <glyph glyph-name="quotedblright" unicode="&#x201d;" horiz-adv-x="341" 
d="M29 644c0 39 26 65 61 65c43 0 69 -32 69 -85c0 -102 -67 -144 -99 -157l-30 50c23 11 42 32 45 63c-23 1 -46 21 -46 64zM182 644c0 39 26 65 61 65c43 0 69 -32 69 -85c0 -102 -67 -144 -99 -157l-30 50c23 11 42 32 45 63c-23 1 -46 21 -46 64z" />
    <glyph glyph-name="guillemotright" unicode="&#xbb;" horiz-adv-x="404" 
d="M23 434l67 45l130 -213l-125 -216l-68 43l70 135l37 39l-37 35zM171 438l75 51l137 -221l-131 -230l-76 49l74 139l40 41l-40 36z" />
    <glyph glyph-name="ellipsis" unicode="&#x2026;" horiz-adv-x="721" 
d="M538 65c0 49 28 75 71 75c47 0 73 -26 73 -75c0 -48 -28 -75 -73 -75c-44 0 -71 27 -71 75zM292 65c0 49 28 75 71 75c47 0 73 -26 73 -75c0 -48 -28 -75 -73 -75c-44 0 -71 27 -71 75zM45 65c0 49 28 75 71 75c47 0 73 -26 73 -75c0 -48 -28 -75 -73 -75
c-44 0 -71 27 -71 75z" />
    <glyph glyph-name="perthousand" unicode="&#x2030;" horiz-adv-x="1054" 
d="M152 -13l-71 58l494 669l70 -58zM717 172c0 122 62 170 150 170c87 0 151 -42 151 -170s-64 -170 -151 -170c-88 0 -150 42 -150 170zM823 172c0 -64 13 -87 44 -87c32 0 45 17 45 87c0 68 -14 87 -45 87s-44 -19 -44 -87zM387 172c0 122 62 170 150 170
c87 0 151 -42 151 -170s-64 -170 -151 -170c-88 0 -150 42 -150 170zM493 172c0 -64 13 -87 44 -87c32 0 45 17 45 87c0 68 -14 87 -45 87s-44 -19 -44 -87zM41 542c0 122 62 170 150 170c87 0 151 -42 151 -170s-64 -170 -151 -170c-88 0 -150 42 -150 170zM147 542
c0 -64 13 -87 44 -87c32 0 45 17 45 87c0 68 -14 87 -45 87s-44 -19 -44 -87z" />
    <glyph glyph-name="questiondown" unicode="&#xbf;" horiz-adv-x="383" 
d="M168 293h103c16 -201 -130 -215 -130 -322c0 -44 20 -77 71 -77c35 0 79 15 107 38l45 -91c-41 -31 -95 -52 -174 -52c-107 0 -172 64 -172 167c0 188 150 172 150 337zM145 434c0 49 28 75 71 75c47 0 73 -26 73 -75c0 -48 -28 -76 -73 -76c-44 0 -71 28 -71 76z" />
    <glyph glyph-name="grave" unicode="`" horiz-adv-x="290" 
d="M60 720h121l49 -154h-66l-104 124v30z" />
    <glyph glyph-name="acute" unicode="&#xb4;" horiz-adv-x="281" 
d="M127 566h-67l42 154h119v-30z" />
    <glyph glyph-name="circumflex" unicode="&#x2c6;" horiz-adv-x="397" 
d="M149 550h-89l101 182h85l91 -182h-93l-32 66l-13 49l-13 -49z" />
    <glyph glyph-name="tilde" unicode="&#x2dc;" horiz-adv-x="415" 
d="M84 598l-24 58c39 49 72 64 100 64c47 0 83 -43 124 -43c15 0 30 6 49 23l22 -61c-36 -43 -67 -56 -94 -56c-47 0 -83 40 -124 40c-17 0 -34 -6 -53 -25z" />
    <glyph glyph-name="macron" unicode="&#xaf;" horiz-adv-x="392" 
d="M332 567h-272v91h272v-91z" />
    <glyph glyph-name="breve" unicode="&#x2d8;" horiz-adv-x="410" 
d="M60 689l56 30c19 -40 54 -60 93 -60s71 20 86 60l55 -26c-5 -68 -63 -129 -142 -129c-76 0 -133 46 -148 125z" />
    <glyph glyph-name="dotaccent" unicode="&#x2d9;" horiz-adv-x="270" 
d="M60 641c0 40 26 69 73 69s77 -28 77 -69s-30 -67 -77 -67s-73 27 -73 67z" />
    <glyph glyph-name="dieresis" unicode="&#xa8;" horiz-adv-x="432" 
d="M60 651c0 43 25 68 64 68c37 0 62 -25 62 -68c0 -40 -25 -65 -62 -65c-39 0 -64 25 -64 65zM246 651c0 43 24 68 63 68s63 -25 63 -68c0 -40 -24 -65 -63 -65s-63 25 -63 65z" />
    <glyph glyph-name="ring" unicode="&#x2da;" horiz-adv-x="315" 
d="M60 647c0 60 33 95 97 95c61 0 98 -31 98 -95c0 -56 -35 -93 -98 -93s-97 36 -97 93zM127 647c0 -23 13 -34 30 -34c21 0 31 11 31 34c0 25 -12 36 -31 36c-17 0 -30 -9 -30 -36z" />
    <glyph glyph-name="cedilla" unicode="&#xb8;" horiz-adv-x="305" 
d="M115 0h76l-20 -42c45 -5 74 -27 74 -75c0 -76 -95 -107 -185 -86l7 56c48 -8 69 -2 69 21c0 19 -23 29 -70 32z" />
    <glyph glyph-name="hungarumlaut" unicode="&#x2dd;" horiz-adv-x="417" 
d="M133 571h-73l29 129h108v-16zM258 571h-75l60 129h114v-16z" />
    <glyph glyph-name="ogonek" unicode="&#x2db;" horiz-adv-x="321" 
d="M149 10h89c-41 -14 -62 -40 -62 -78c0 -33 24 -55 67 -35l18 -58c-15 -15 -57 -35 -98 -35c-68 0 -103 37 -103 90c0 56 37 94 89 116z" />
    <glyph glyph-name="caron" unicode="&#x2c7;" horiz-adv-x="404" 
d="M253 732h91l-101 -182h-88l-95 182h98l32 -66l13 -49l13 49z" />
    <glyph glyph-name="emdash" unicode="&#x2014;" horiz-adv-x="676" 
d="M587 234h-499v109h499v-109z" />
    <glyph glyph-name="AE" unicode="&#xc6;" horiz-adv-x="717" 
d="M331 277v245h-5l-26 -97l-65 -148h96zM685 0h-354v173h-144l-79 -173h-131l349 700h355v-116h-224v-172h203v-116h-203v-180h228v-116z" />
    <glyph glyph-name="ordfeminine" unicode="&#xaa;" horiz-adv-x="347" 
d="M67 613l-22 62c29 19 85 33 153 33c88 0 115 -36 115 -112c0 -45 -2 -89 -2 -129c0 -32 1 -60 6 -87h-88l-13 44h-3c-13 -23 -39 -48 -86 -48c-61 0 -98 40 -98 99c0 88 84 115 181 110c3 35 -4 50 -41 50c-43 0 -78 -11 -102 -22zM210 481v45c-44 5 -78 -2 -78 -38
c0 -21 13 -35 30 -35c31 0 41 15 48 28z" />
    <glyph glyph-name="Lslash" unicode="&#x141;" horiz-adv-x="434" 
d="M55 236l-52 -39v123l52 40v340h126v-243l84 65v-126l-84 -64v-216h246v-116h-372v236z" />
    <glyph glyph-name="Oslash" unicode="&#xd8;" horiz-adv-x="553" 
d="M139 -13l-79 42l28 54c-41 64 -59 154 -59 267c0 237 80 364 247 364c48 0 90 -11 125 -33l18 34l79 -41l-32 -61c40 -64 58 -152 58 -263c0 -237 -84 -363 -248 -363c-48 0 -88 11 -121 29zM169 237l173 330c-17 21 -39 31 -66 31c-77 0 -115 -83 -115 -248
c0 -41 3 -78 8 -113zM384 457l-171 -328c17 -18 38 -27 63 -27c77 0 116 75 116 248c0 39 -3 74 -8 107z" />
    <glyph glyph-name="OE" unicode="&#x152;" horiz-adv-x="753" 
d="M368 121v452c-21 15 -52 25 -91 25c-76 0 -116 -79 -116 -248c0 -141 32 -248 122 -248c31 0 56 4 85 19zM721 116v-116h-353c-21 -7 -63 -13 -96 -13c-171 0 -243 143 -243 363c0 236 82 364 243 364c40 0 73 -7 96 -14h349v-116h-223v-172h202v-116h-202v-180h227z" />
    <glyph glyph-name="ordmasculine" unicode="&#xba;" horiz-adv-x="350" 
d="M25 542c0 122 62 170 150 170c87 0 151 -42 151 -170s-64 -170 -151 -170c-88 0 -150 42 -150 170zM131 542c0 -64 13 -87 44 -87c32 0 45 17 45 87c0 68 -14 87 -45 87s-44 -19 -44 -87z" />
    <glyph glyph-name="ae" unicode="&#xe6;" horiz-adv-x="653" 
d="M257 143v80c-61 5 -117 -6 -117 -65c0 -37 16 -60 47 -60c37 0 59 21 70 45zM292 68h-5c-28 -45 -68 -75 -141 -75c-80 0 -129 59 -129 146c0 121 91 169 236 161c1 12 1 21 1 32c0 52 -15 74 -60 74c-41 0 -87 -13 -120 -32l-31 90c43 28 107 46 174 46
c56 0 89 -17 112 -54c27 39 71 58 124 58c86 0 168 -46 168 -198c0 -29 -3 -63 -10 -100h-241c3 -88 31 -127 100 -127c41 0 79 15 98 30l39 -83c-33 -27 -92 -48 -160 -48c-73 0 -124 26 -155 80zM373 295h137c4 72 -16 117 -60 117c-51 0 -73 -41 -77 -117z" />
    <glyph glyph-name="dotlessi" unicode="&#x131;" horiz-adv-x="225" 
d="M172 0h-119v500h119v-500z" />
    <glyph glyph-name="lslash" unicode="&#x142;" horiz-adv-x="267" 
d="M64 234l-63 -48v123l63 48v343h119v-251l80 62v-126l-80 -61v-162c0 -47 9 -65 30 -65c12 0 24 2 40 9l11 -96c-16 -10 -60 -21 -100 -21c-67 0 -100 29 -100 109v136z" />
    <glyph glyph-name="oslash" unicode="&#xf8;" horiz-adv-x="448" 
d="M113 -23l-81 50l30 51c-23 43 -34 100 -34 172c0 179 73 264 198 264c33 0 62 -6 87 -18l18 30l79 -49l-27 -46c27 -43 40 -104 40 -181c0 -179 -72 -263 -197 -263c-37 0 -67 8 -94 20zM298 317l-119 -203c12 -15 28 -22 47 -22c51 0 76 41 76 158c0 25 -1 47 -4 67z
M152 190l117 200c-11 12 -26 18 -43 18c-49 0 -77 -43 -77 -158c0 -22 1 -42 3 -60z" />
    <glyph glyph-name="oe" unicode="&#x153;" horiz-adv-x="697" 
d="M148 250c0 -96 22 -158 74 -158c51 0 74 46 74 158c0 100 -19 158 -74 158c-47 0 -74 -43 -74 -158zM355 55c-27 -43 -68 -68 -135 -68c-132 0 -195 92 -195 263c0 173 72 264 197 264c75 0 114 -33 138 -68c25 35 64 68 136 68c86 0 168 -46 168 -196
c0 -31 -3 -62 -10 -101h-242c3 -85 32 -131 100 -131c45 0 82 20 101 36l39 -83c-33 -31 -98 -52 -162 -52c-60 0 -108 25 -135 68zM494 414c-53 0 -75 -50 -79 -118h138c5 72 -14 118 -59 118z" />
    <glyph glyph-name="germandbls" unicode="&#xdf;" horiz-adv-x="535" 
d="M182 0h-119v394h-54v106h54v11c0 145 79 197 187 197c112 0 197 -52 197 -153c0 -92 -97 -119 -97 -175c0 -75 165 -69 165 -225c0 -88 -54 -167 -163 -167c-51 0 -100 13 -132 33l31 94c27 -15 50 -26 87 -26c35 0 58 27 58 62c0 91 -165 79 -165 220
c0 95 96 114 96 173c0 35 -35 59 -70 59c-48 0 -75 -24 -75 -108v-495z" />
    <glyph glyph-name="onesuperior" unicode="&#xb9;" horiz-adv-x="353" 
d="M320 381h-254v95h78v167l9 46l-26 -32l-46 -31l-44 69l131 112h82v-331h70v-95z" />
    <glyph glyph-name="logicalnot" unicode="&#xac;" horiz-adv-x="444" 
d="M296 303h-256v106h368v-223h-112v117z" />
    <glyph glyph-name="mu" unicode="&#xb5;" horiz-adv-x="476" 
d="M40 -199v699h119v-287c0 -80 21 -119 72 -119c47 0 72 25 85 65v341h119v-337c0 -55 2 -111 13 -163h-89l-28 64h-4c-16 -43 -48 -75 -103 -75c-40 0 -59 18 -78 45h-4l17 -100v-133h-119z" />
    <glyph glyph-name="trademark" unicode="&#x2122;" horiz-adv-x="801" 
d="M25 700h305v-106h-93v-254h-119v254h-93v106zM772 340h-102v144l15 103h-5l-29 -85l-51 -117h-75l-52 114l-32 88h-5l21 -101v-146h-100v360h120l72 -143l18 -63h1l19 65l66 141h119v-360z" />
    <glyph glyph-name="Eth" unicode="&#xd0;" horiz-adv-x="555" 
d="M65 322h-67v79h67v299c47 8 126 10 171 10c221 0 289 -142 289 -354c0 -195 -63 -366 -299 -366c-34 0 -129 5 -161 10v322zM191 591v-190h108v-79h-108v-213c7 -2 46 -4 53 -4c120 0 149 121 149 253c0 124 -23 236 -144 236c-21 0 -46 0 -58 -3z" />
    <glyph glyph-name="onehalf" unicode="&#xbd;" horiz-adv-x="770" 
d="M244 280h-105v264l9 46l-26 -33l-45 -31l-45 70l131 111h81v-427zM721 304c0 -80 -43 -140 -88 -191l-39 -24v-4l49 11h89v-95h-265v67c62 48 150 139 150 212c0 34 -15 51 -46 51c-29 0 -55 -10 -74 -22l-30 83c39 27 87 35 126 35c80 0 128 -43 128 -123zM243 -13
l-83 40l343 688l81 -39z" />
    <glyph glyph-name="plusminus" unicode="&#xb1;" horiz-adv-x="444" 
d="M167 394h-129v106h129v143h110v-143h129v-106h-129v-94h-110v94zM406 146h-368v106h368v-106z" />
    <glyph glyph-name="Thorn" unicode="&#xde;" horiz-adv-x="477" 
d="M171 0h-126v700h126v-73c13 1 26 1 39 1c122 0 249 -35 249 -231c0 -173 -107 -242 -223 -242h-13c-17 0 -44 2 -52 4v-159zM222 516c-21 0 -38 -2 -51 -5v-238c8 -3 37 -5 45 -5c59 0 110 26 110 130c0 90 -48 118 -104 118z" />
    <glyph glyph-name="onequarter" unicode="&#xbc;" horiz-adv-x="749" 
d="M245 280h-105v264l9 46l-26 -33l-45 -31l-45 70l131 111h81v-427zM243 -13l-83 40l343 688l81 -39zM651 166h61v-85h-61v-80h-95v80h-171v63l177 281h89v-259zM514 166h42v84l7 55h-5l-18 -51l-38 -65l-31 -30z" />
    <glyph glyph-name="divide" unicode="&#xf7;" horiz-adv-x="444" 
d="M406 286h-368v107h368v-107zM151 523c0 49 28 75 71 75c47 0 73 -26 73 -75c0 -48 -28 -76 -73 -76c-44 0 -71 28 -71 76zM151 157c0 49 28 75 71 75c47 0 73 -26 73 -75c0 -48 -28 -76 -73 -76c-44 0 -71 28 -71 76z" />
    <glyph glyph-name="brokenbar" unicode="&#xa6;" horiz-adv-x="188" 
d="M143 -129h-98v342h98v-342zM45 700h98v-343h-98v343z" />
    <glyph glyph-name="degree" unicode="&#xb0;" horiz-adv-x="364" 
d="M44 548c0 100 58 166 141 166c85 0 143 -59 143 -166c0 -104 -58 -164 -143 -164c-84 0 -141 60 -141 164zM134 548c0 -44 20 -78 52 -78c31 0 52 34 52 78c0 45 -21 80 -52 80c-32 0 -52 -33 -52 -80z" />
    <glyph glyph-name="thorn" unicode="&#xfe;" horiz-adv-x="446" 
d="M162 -199h-119v899h119v-237h3c23 31 53 51 104 51c101 0 152 -75 152 -251c0 -172 -64 -276 -187 -276c-32 0 -53 5 -72 15v-201zM230 408c-35 0 -56 -21 -68 -57v-240c13 -12 28 -19 56 -19c53 0 80 47 80 174c0 93 -19 142 -68 142z" />
    <glyph glyph-name="threequarters" unicode="&#xbe;" horiz-adv-x="766" 
d="M668 166h61v-85h-61v-80h-95v80h-171v63l177 281h89v-259zM531 166h42v84l7 55h-5l-18 -51l-38 -65l-31 -30zM134 365c48 0 65 21 65 53c0 31 -18 50 -71 50h-39v38l60 81l38 28l-50 -6h-93v91h240v-60l-70 -94l-30 -19v-4l27 3c56 -3 91 -43 91 -115
c0 -95 -72 -137 -151 -137c-44 0 -84 9 -112 24l21 85c25 -12 49 -18 74 -18zM261 -13l-83 40l343 688l81 -39z" />
    <glyph glyph-name="twosuperior" unicode="&#xb2;" horiz-adv-x="353" 
d="M301 684c0 -80 -43 -140 -88 -191l-39 -24v-4l49 11h89v-95h-265v67c62 48 150 139 150 212c0 34 -15 51 -46 51c-29 0 -55 -10 -74 -22l-30 83c39 27 87 35 126 35c80 0 128 -43 128 -123z" />
    <glyph glyph-name="registered" unicode="&#xae;" horiz-adv-x="595" 
d="M54 483c0 156 112 243 244 243c135 0 243 -87 243 -243s-111 -243 -243 -243c-136 0 -244 87 -244 243zM136 483c0 -112 75 -165 162 -165c92 0 161 52 161 165c0 111 -74 166 -161 166c-97 0 -162 -62 -162 -166zM254 372h-45v223c19 5 57 9 86 9c48 0 88 -18 88 -67
c0 -36 -26 -56 -61 -59l24 -12l56 -94h-53l-54 90l-41 13v-103zM286 565c-13 0 -25 0 -32 -4v-60h29c35 0 52 9 52 34c0 20 -16 30 -49 30z" />
    <glyph glyph-name="minus" unicode="&#x2212;" horiz-adv-x="444" 
d="M406 287h-368v106h368v-106z" />
    <glyph glyph-name="eth" unicode="&#xf0;" horiz-adv-x="458" 
d="M142 244c0 -108 36 -152 89 -152c50 0 86 50 86 188c0 17 -2 61 -5 78c-17 24 -50 35 -81 35c-59 0 -89 -54 -89 -149zM248 576l-58 -45l-41 49l48 37c-20 12 -41 22 -62 29l48 68c14 -5 30 -11 47 -19c13 -6 27 -13 40 -22l47 36l40 -50l-37 -29l18 -20
c53 -59 93 -158 93 -302c0 -229 -80 -321 -208 -321c-129 0 -196 93 -196 258c0 162 79 254 188 254c39 0 75 -12 96 -37c-12 47 -33 85 -63 114z" />
    <glyph glyph-name="multiply" unicode="&#xd7;" horiz-adv-x="444" 
d="M152 339l-116 129l76 73l111 -124l111 124l76 -73l-115 -129l115 -131l-76 -73l-111 124l-112 -125l-77 72z" />
    <glyph glyph-name="threesuperior" unicode="&#xb3;" horiz-adv-x="353" 
d="M146 465c48 0 65 21 65 53c0 31 -18 50 -71 50h-39v38l60 81l38 28l-50 -6h-93v91h240v-60l-70 -94l-30 -19v-4l27 3c56 -3 91 -43 91 -115c0 -95 -72 -137 -151 -137c-44 0 -84 9 -112 24l21 85c25 -12 49 -18 74 -18z" />
    <glyph glyph-name="copyright" unicode="&#xa9;" horiz-adv-x="725" 
d="M51 298c0 192 136 311 312 311c174 0 311 -119 311 -311s-137 -310 -311 -310c-193 0 -312 118 -312 310zM137 298c0 -143 93 -231 226 -231c132 0 225 88 225 231s-93 231 -225 231c-133 0 -226 -88 -226 -231zM445 239l26 -78c-25 -16 -66 -27 -110 -27
c-92 0 -143 64 -143 164c0 104 56 164 143 164c43 0 73 -11 104 -28l-28 -77c-20 11 -37 13 -52 13c-33 0 -52 -21 -52 -72c0 -48 19 -72 58 -72c19 0 37 4 54 13z" />
    <glyph glyph-name="Aacute" unicode="&#xc1;" horiz-adv-x="501" 
d="M260 752h-93l82 118h143v-30zM503 0h-132l-43 158h-165l-41 -158h-124l202 705h99zM246 535l-17 -111l-39 -162h116l-40 163l-16 110h-4z" />
    <glyph glyph-name="Acircumflex" unicode="&#xc2;" horiz-adv-x="501" 
d="M100 738v40l109 92h87l104 -93v-39h-85l-47 41l-17 34l-18 -33l-50 -42h-83zM503 0h-132l-43 158h-165l-41 -158h-124l202 705h99zM246 535l-17 -111l-39 -162h116l-40 163l-16 110h-4z" />
    <glyph glyph-name="Adieresis" unicode="&#xc4;" horiz-adv-x="501" 
d="M94 798c0 35 18 58 69 58c47 0 66 -23 66 -58s-19 -57 -66 -57c-51 0 -69 22 -69 57zM276 798c0 35 19 58 67 58c49 0 68 -23 68 -58s-19 -57 -68 -57c-48 0 -67 22 -67 57zM503 0h-132l-43 158h-165l-41 -158h-124l202 705h99zM246 535l-17 -111l-39 -162h116l-40 163
l-16 110h-4z" />
    <glyph glyph-name="Agrave" unicode="&#xc0;" horiz-adv-x="501" 
d="M110 870h142l82 -118h-94l-130 88v30zM503 0h-132l-43 158h-165l-41 -158h-124l202 705h99zM246 535l-17 -111l-39 -162h116l-40 163l-16 110h-4z" />
    <glyph glyph-name="Aring" unicode="&#xc5;" horiz-adv-x="501" 
d="M163 158l-41 -158h-124l198 691c-41 13 -57 41 -57 80c0 49 24 90 111 90c81 0 112 -34 112 -90c0 -36 -16 -68 -59 -81l200 -690h-132l-43 158h-165zM246 535l-17 -111l-39 -162h116l-40 163l-16 110h-4zM214 771c0 -21 12 -31 36 -31c28 0 37 10 37 31
c0 23 -10 34 -37 34c-24 0 -36 -11 -36 -34z" />
    <glyph glyph-name="Atilde" unicode="&#xc3;" horiz-adv-x="501" 
d="M108 738l-26 58c39 49 74 64 109 64c52 0 101 -34 142 -34c19 0 36 6 52 25l27 -63c-35 -39 -65 -50 -96 -50c-51 0 -97 34 -142 34c-23 0 -43 -7 -66 -34zM503 0h-132l-43 158h-165l-41 -158h-124l202 705h99zM246 535l-17 -111l-39 -162h116l-40 163l-16 110h-4z" />
    <glyph glyph-name="Ccedilla" unicode="&#xc7;" horiz-adv-x="457" 
d="M417 134l25 -106c-29 -24 -76 -35 -123 -39l-14 -31c45 -5 74 -27 74 -75c0 -60 -61 -92 -131 -92c-18 0 -36 2 -54 6l7 48c56 -5 69 10 69 29s-23 29 -70 32l43 84c-122 15 -214 116 -214 361c0 283 131 363 260 363c65 0 114 -13 145 -26l-25 -111
c-25 13 -58 21 -105 21c-92 0 -143 -77 -143 -248c0 -147 44 -248 151 -248c47 0 78 15 105 32z" />
    <glyph glyph-name="Eacute" unicode="&#xc9;" horiz-adv-x="430" 
d="M245 752h-93l82 118h143v-30zM399 0h-354v700h350v-116h-224v-172h203v-116h-203v-180h228v-116z" />
    <glyph glyph-name="Ecircumflex" unicode="&#xca;" horiz-adv-x="430" 
d="M67 738v40l109 92h87l104 -93v-39h-85l-47 41l-17 34l-18 -33l-50 -42h-83zM399 0h-354v700h350v-116h-224v-172h203v-116h-203v-180h228v-116z" />
    <glyph glyph-name="Edieresis" unicode="&#xcb;" horiz-adv-x="430" 
d="M60 798c0 35 18 58 69 58c47 0 66 -23 66 -58s-19 -57 -66 -57c-51 0 -69 22 -69 57zM242 798c0 35 19 58 67 58c49 0 68 -23 68 -58s-19 -57 -68 -57c-48 0 -67 22 -67 57zM399 0h-354v700h350v-116h-224v-172h203v-116h-203v-180h228v-116z" />
    <glyph glyph-name="Egrave" unicode="&#xc8;" horiz-adv-x="430" 
d="M73 870h142l82 -118h-94l-130 88v30zM399 0h-354v700h350v-116h-224v-172h203v-116h-203v-180h228v-116z" />
    <glyph glyph-name="Iacute" unicode="&#xcd;" horiz-adv-x="238" 
d="M131 752h-93l82 118h143v-30zM182 0h-126v700h126v-700z" />
    <glyph glyph-name="Icircumflex" unicode="&#xce;" horiz-adv-x="238" 
d="M-29 738v40l109 92h87l104 -93v-39h-85l-47 41l-17 34l-18 -33l-50 -42h-83zM182 0h-126v700h126v-700z" />
    <glyph glyph-name="Idieresis" unicode="&#xcf;" horiz-adv-x="238" 
d="M-37 798c0 35 18 58 69 58c47 0 66 -23 66 -58s-19 -57 -66 -57c-51 0 -69 22 -69 57zM145 798c0 35 19 58 67 58c49 0 68 -23 68 -58s-19 -57 -68 -57c-48 0 -67 22 -67 57zM182 0h-126v700h126v-700z" />
    <glyph glyph-name="Igrave" unicode="&#xcc;" horiz-adv-x="238" 
d="M-20 870h142l82 -118h-94l-130 88v30zM182 0h-126v700h126v-700z" />
    <glyph glyph-name="Ntilde" unicode="&#xd1;" horiz-adv-x="540" 
d="M130 738l-26 58c39 49 74 64 109 64c52 0 101 -34 142 -34c19 0 36 6 52 25l27 -63c-35 -39 -65 -50 -96 -50c-51 0 -97 34 -142 34c-23 0 -43 -7 -66 -34zM495 -4h-97l-199 348l-46 123h-5l16 -121v-346h-119v705h97l201 -352l43 -121h6l-16 119v349h119v-704z" />
    <glyph glyph-name="Oacute" unicode="&#xd3;" horiz-adv-x="553" 
d="M312 752h-93l82 118h143v-30zM29 350c0 237 80 364 247 364c173 0 248 -142 248 -364c0 -237 -84 -363 -248 -363c-175 0 -247 141 -247 363zM161 350c0 -141 31 -248 115 -248c77 0 116 75 116 248c0 137 -29 248 -116 248c-77 0 -115 -83 -115 -248z" />
    <glyph glyph-name="Ocircumflex" unicode="&#xd4;" horiz-adv-x="553" 
d="M125 738v40l109 92h87l104 -93v-39h-85l-47 41l-17 34l-18 -33l-50 -42h-83zM29 350c0 237 80 364 247 364c173 0 248 -142 248 -364c0 -237 -84 -363 -248 -363c-175 0 -247 141 -247 363zM161 350c0 -141 31 -248 115 -248c77 0 116 75 116 248c0 137 -29 248 -116 248
c-77 0 -115 -83 -115 -248z" />
    <glyph glyph-name="Odieresis" unicode="&#xd6;" horiz-adv-x="553" 
d="M117 798c0 35 18 58 69 58c47 0 66 -23 66 -58s-19 -57 -66 -57c-51 0 -69 22 -69 57zM299 798c0 35 19 58 67 58c49 0 68 -23 68 -58s-19 -57 -68 -57c-48 0 -67 22 -67 57zM29 350c0 237 80 364 247 364c173 0 248 -142 248 -364c0 -237 -84 -363 -248 -363
c-175 0 -247 141 -247 363zM161 350c0 -141 31 -248 115 -248c77 0 116 75 116 248c0 137 -29 248 -116 248c-77 0 -115 -83 -115 -248z" />
    <glyph glyph-name="Ograve" unicode="&#xd2;" horiz-adv-x="553" 
d="M120 870h142l82 -118h-94l-130 88v30zM29 350c0 237 80 364 247 364c173 0 248 -142 248 -364c0 -237 -84 -363 -248 -363c-175 0 -247 141 -247 363zM161 350c0 -141 31 -248 115 -248c77 0 116 75 116 248c0 137 -29 248 -116 248c-77 0 -115 -83 -115 -248z" />
    <glyph glyph-name="Otilde" unicode="&#xd5;" horiz-adv-x="553" 
d="M136 738l-26 58c39 49 74 64 109 64c52 0 101 -34 142 -34c19 0 36 6 52 25l27 -63c-35 -39 -65 -50 -96 -50c-51 0 -97 34 -142 34c-23 0 -43 -7 -66 -34zM29 350c0 237 80 364 247 364c173 0 248 -142 248 -364c0 -237 -84 -363 -248 -363c-175 0 -247 141 -247 363z
M161 350c0 -141 31 -248 115 -248c77 0 116 75 116 248c0 137 -29 248 -116 248c-77 0 -115 -83 -115 -248z" />
    <glyph glyph-name="Scaron" unicode="&#x160;" horiz-adv-x="439" 
d="M384 870v-40l-109 -93h-87l-104 94v39h91l42 -45l17 -30l17 29l45 46h88zM290 180c0 126 -257 127 -257 346c0 135 88 188 201 188c68 0 129 -14 168 -37l-39 -111c-23 16 -71 32 -123 32s-81 -22 -81 -63c0 -113 257 -127 257 -341c0 -140 -86 -207 -217 -207
c-83 0 -147 18 -180 38l41 113c27 -16 77 -36 130 -36c67 0 100 26 100 78z" />
    <glyph glyph-name="Uacute" unicode="&#xda;" horiz-adv-x="515" 
d="M307 752h-93l82 118h143v-30zM354 251v449h119v-454c0 -181 -78 -257 -209 -257c-153 0 -222 77 -222 240v471h126v-449c0 -109 27 -147 95 -147c65 0 91 43 91 147z" />
    <glyph glyph-name="Ucircumflex" unicode="&#xdb;" horiz-adv-x="515" 
d="M111 738v40l109 92h87l104 -93v-39h-85l-47 41l-17 34l-18 -33l-50 -42h-83zM354 251v449h119v-454c0 -181 -78 -257 -209 -257c-153 0 -222 77 -222 240v471h126v-449c0 -109 27 -147 95 -147c65 0 91 43 91 147z" />
    <glyph glyph-name="Udieresis" unicode="&#xdc;" horiz-adv-x="515" 
d="M101 798c0 35 18 58 69 58c47 0 66 -23 66 -58s-19 -57 -66 -57c-51 0 -69 22 -69 57zM283 798c0 35 19 58 67 58c49 0 68 -23 68 -58s-19 -57 -68 -57c-48 0 -67 22 -67 57zM354 251v449h119v-454c0 -181 -78 -257 -209 -257c-153 0 -222 77 -222 240v471h126v-449
c0 -109 27 -147 95 -147c65 0 91 43 91 147z" />
    <glyph glyph-name="Ugrave" unicode="&#xd9;" horiz-adv-x="515" 
d="M102 870h142l82 -118h-94l-130 88v30zM354 251v449h119v-454c0 -181 -78 -257 -209 -257c-153 0 -222 77 -222 240v471h126v-449c0 -109 27 -147 95 -147c65 0 91 43 91 147z" />
    <glyph glyph-name="Yacute" unicode="&#xdd;" horiz-adv-x="495" 
d="M276 752h-93l82 118h143v-30zM310 0h-126v260l-187 440h149l97 -265l10 -76h5l11 78l95 263h135l-189 -439v-261z" />
    <glyph glyph-name="Ydieresis" unicode="&#x178;" horiz-adv-x="495" 
d="M93 798c0 35 18 58 69 58c47 0 66 -23 66 -58s-19 -57 -66 -57c-51 0 -69 22 -69 57zM275 798c0 35 19 58 67 58c49 0 68 -23 68 -58s-19 -57 -68 -57c-48 0 -67 22 -67 57zM310 0h-126v260l-187 440h149l97 -265l10 -76h5l11 78l95 263h135l-189 -439v-261z" />
    <glyph glyph-name="Zcaron" unicode="&#x17d;" horiz-adv-x="445" 
d="M370 870v-40l-109 -93h-87l-104 94v39h91l42 -45l17 -30l17 29l45 46h88zM424 0h-403v116l234 427l42 41h-276v116h403v-116l-235 -430l-41 -38h276v-116z" />
    <glyph glyph-name="aacute" unicode="&#xe1;" horiz-adv-x="413" 
d="M221 566h-67l42 154h119v-30zM74 381l-30 89c40 24 101 40 177 40c113 0 152 -61 152 -169c0 -124 -20 -246 9 -341h-97l-19 60h-4c-21 -39 -59 -66 -118 -66c-79 0 -127 56 -127 144c0 120 92 168 237 160c7 77 -6 110 -61 110c-40 0 -86 -10 -119 -27zM187 95
c36 0 58 22 69 43v83c-61 8 -116 -8 -116 -63c0 -41 18 -63 47 -63z" />
    <glyph glyph-name="acircumflex" unicode="&#xe2;" horiz-adv-x="413" 
d="M74 381l-30 89c40 24 101 40 177 40c113 0 152 -61 152 -169c0 -124 -20 -246 9 -341h-97l-19 60h-4c-21 -39 -59 -66 -118 -66c-79 0 -127 56 -127 144c0 120 92 168 237 160c7 77 -6 110 -61 110c-40 0 -86 -10 -119 -27zM187 95c36 0 58 22 69 43v83
c-61 8 -116 -8 -116 -63c0 -41 18 -63 47 -63zM162 550h-89l101 182h85l91 -182h-93l-32 66l-13 49l-13 -49z" />
    <glyph glyph-name="adieresis" unicode="&#xe4;" horiz-adv-x="413" 
d="M74 381l-30 89c40 24 101 40 177 40c113 0 152 -61 152 -169c0 -124 -20 -246 9 -341h-97l-19 60h-4c-21 -39 -59 -66 -118 -66c-79 0 -127 56 -127 144c0 120 92 168 237 160c7 77 -6 110 -61 110c-40 0 -86 -10 -119 -27zM187 95c36 0 58 22 69 43v83
c-61 8 -116 -8 -116 -63c0 -41 18 -63 47 -63zM57 651c0 43 25 68 64 68c37 0 62 -25 62 -68c0 -40 -25 -65 -62 -65c-39 0 -64 25 -64 65zM243 651c0 43 24 68 63 68s63 -25 63 -68c0 -40 -24 -65 -63 -65s-63 25 -63 65z" />
    <glyph glyph-name="agrave" unicode="&#xe0;" horiz-adv-x="413" 
d="M74 381l-30 89c40 24 101 40 177 40c113 0 152 -61 152 -169c0 -124 -20 -246 9 -341h-97l-19 60h-4c-21 -39 -59 -66 -118 -66c-79 0 -127 56 -127 144c0 120 92 168 237 160c7 77 -6 110 -61 110c-40 0 -86 -10 -119 -27zM187 95c36 0 58 22 69 43v83
c-61 8 -116 -8 -116 -63c0 -41 18 -63 47 -63zM89 720h121l49 -154h-66l-104 124v30z" />
    <glyph glyph-name="aring" unicode="&#xe5;" horiz-adv-x="413" 
d="M114 647c0 60 33 95 97 95c61 0 98 -31 98 -95c0 -56 -35 -93 -98 -93s-97 36 -97 93zM181 647c0 -23 13 -34 30 -34c21 0 31 11 31 34c0 25 -12 36 -31 36c-17 0 -30 -9 -30 -36zM74 381l-30 89c40 24 101 40 177 40c113 0 152 -61 152 -169c0 -124 -20 -246 9 -341h-97
l-19 60h-4c-21 -39 -59 -66 -118 -66c-79 0 -127 56 -127 144c0 120 92 168 237 160c7 77 -6 110 -61 110c-40 0 -86 -10 -119 -27zM187 95c36 0 58 22 69 43v83c-61 8 -116 -8 -116 -63c0 -41 18 -63 47 -63z" />
    <glyph glyph-name="atilde" unicode="&#xe3;" horiz-adv-x="413" 
d="M84 598l-24 58c39 49 72 64 100 64c47 0 83 -43 124 -43c15 0 30 6 49 23l22 -61c-36 -43 -67 -56 -94 -56c-47 0 -83 40 -124 40c-17 0 -34 -6 -53 -25zM74 381l-30 89c40 24 101 40 177 40c113 0 152 -61 152 -169c0 -124 -20 -246 9 -341h-97l-19 60h-4
c-21 -39 -59 -66 -118 -66c-79 0 -127 56 -127 144c0 120 92 168 237 160c7 77 -6 110 -61 110c-40 0 -86 -10 -119 -27zM187 95c36 0 58 22 69 43v83c-61 8 -116 -8 -116 -63c0 -41 18 -63 47 -63z" />
    <glyph glyph-name="ccedilla" unicode="&#xe7;" horiz-adv-x="350" 
d="M313 119l25 -92c-24 -20 -55 -29 -90 -36l-15 -33c45 -5 74 -27 74 -75c0 -60 -61 -92 -131 -92c-18 0 -36 2 -54 6l7 48c56 -5 69 10 69 29s-23 29 -70 32l43 85c-107 16 -146 114 -146 259c0 175 64 263 185 263c60 0 95 -12 124 -28l-28 -99c-24 12 -43 18 -74 18
c-56 0 -84 -46 -84 -154c0 -91 27 -154 90 -154c33 0 55 10 75 23z" />
    <glyph glyph-name="eacute" unicode="&#xe9;" horiz-adv-x="428" 
d="M248 566h-67l42 154h119v-30zM344 120l37 -83c-33 -29 -95 -49 -158 -49c-139 0 -198 98 -198 262c0 180 75 264 202 264c84 0 168 -45 168 -196c0 -29 -3 -62 -10 -101h-243c3 -83 32 -128 103 -128c43 0 80 16 99 31zM225 412c-51 0 -75 -43 -79 -116h138
c4 76 -16 116 -59 116z" />
    <glyph glyph-name="ecircumflex" unicode="&#xea;" horiz-adv-x="428" 
d="M344 120l37 -83c-33 -29 -95 -49 -158 -49c-139 0 -198 98 -198 262c0 180 75 264 202 264c84 0 168 -45 168 -196c0 -29 -3 -62 -10 -101h-243c3 -83 32 -128 103 -128c43 0 80 16 99 31zM225 412c-51 0 -75 -43 -79 -116h138c4 76 -16 116 -59 116zM167 550h-89
l101 182h85l91 -182h-93l-32 66l-13 49l-13 -49z" />
    <glyph glyph-name="edieresis" unicode="&#xeb;" horiz-adv-x="428" 
d="M65 651c0 43 25 68 64 68c37 0 62 -25 62 -68c0 -40 -25 -65 -62 -65c-39 0 -64 25 -64 65zM251 651c0 43 24 68 63 68s63 -25 63 -68c0 -40 -24 -65 -63 -65s-63 25 -63 65zM344 120l37 -83c-33 -29 -95 -49 -158 -49c-139 0 -198 98 -198 262c0 180 75 264 202 264
c84 0 168 -45 168 -196c0 -29 -3 -62 -10 -101h-243c3 -83 32 -128 103 -128c43 0 80 16 99 31zM225 412c-51 0 -75 -43 -79 -116h138c4 76 -16 116 -59 116z" />
    <glyph glyph-name="egrave" unicode="&#xe8;" horiz-adv-x="428" 
d="M344 120l37 -83c-33 -29 -95 -49 -158 -49c-139 0 -198 98 -198 262c0 180 75 264 202 264c84 0 168 -45 168 -196c0 -29 -3 -62 -10 -101h-243c3 -83 32 -128 103 -128c43 0 80 16 99 31zM225 412c-51 0 -75 -43 -79 -116h138c4 76 -16 116 -59 116zM101 720h121
l49 -154h-66l-104 124v30z" />
    <glyph glyph-name="iacute" unicode="&#xed;" horiz-adv-x="225" 
d="M127 566h-67l42 154h119v-30zM172 0h-119v500h119v-500z" />
    <glyph glyph-name="icircumflex" unicode="&#xee;" horiz-adv-x="225" 
d="M172 0h-119v500h119v-500zM63 550h-89l101 182h85l91 -182h-93l-32 66l-13 49l-13 -49z" />
    <glyph glyph-name="idieresis" unicode="&#xef;" horiz-adv-x="225" 
d="M-42 651c0 43 25 68 64 68c37 0 62 -25 62 -68c0 -40 -25 -65 -62 -65c-39 0 -64 25 -64 65zM144 651c0 43 24 68 63 68s63 -25 63 -68c0 -40 -24 -65 -63 -65s-63 25 -63 65zM172 0h-119v500h119v-500z" />
    <glyph glyph-name="igrave" unicode="&#xec;" horiz-adv-x="225" 
d="M172 0h-119v500h119v-500zM-4 720h121l49 -154h-66l-104 124v30z" />
    <glyph glyph-name="ntilde" unicode="&#xf1;" horiz-adv-x="449" 
d="M410 333v-333h-119v304c0 73 -16 99 -57 99c-35 0 -61 -24 -72 -56v-347h-119v500h95l14 -58h3c24 39 63 70 130 70c81 0 125 -43 125 -179zM101 598l-24 58c39 49 72 64 100 64c47 0 83 -43 124 -43c15 0 30 6 49 23l22 -61c-36 -43 -67 -56 -94 -56
c-47 0 -83 40 -124 40c-17 0 -34 -6 -53 -25z" />
    <glyph glyph-name="oacute" unicode="&#xf3;" horiz-adv-x="445" 
d="M249 566h-67l42 154h119v-30zM25 250c0 177 73 263 197 263c133 0 198 -88 198 -263c0 -179 -73 -262 -198 -262c-131 0 -197 87 -197 262zM148 250c0 -100 21 -157 74 -157c51 0 75 42 75 157c0 103 -20 157 -75 157c-47 0 -74 -42 -74 -157z" />
    <glyph glyph-name="ocircumflex" unicode="&#xf4;" horiz-adv-x="445" 
d="M25 250c0 177 73 263 197 263c133 0 198 -88 198 -263c0 -179 -73 -262 -198 -262c-131 0 -197 87 -197 262zM148 250c0 -100 21 -157 74 -157c51 0 75 42 75 157c0 103 -20 157 -75 157c-47 0 -74 -42 -74 -157zM174 550h-89l101 182h85l91 -182h-93l-32 66l-13 49
l-13 -49z" />
    <glyph glyph-name="odieresis" unicode="&#xf6;" horiz-adv-x="445" 
d="M25 250c0 177 73 263 197 263c133 0 198 -88 198 -263c0 -179 -73 -262 -198 -262c-131 0 -197 87 -197 262zM148 250c0 -100 21 -157 74 -157c51 0 75 42 75 157c0 103 -20 157 -75 157c-47 0 -74 -42 -74 -157zM64 651c0 43 25 68 64 68c37 0 62 -25 62 -68
c0 -40 -25 -65 -62 -65c-39 0 -64 25 -64 65zM250 651c0 43 24 68 63 68s63 -25 63 -68c0 -40 -24 -65 -63 -65s-63 25 -63 65z" />
    <glyph glyph-name="ograve" unicode="&#xf2;" horiz-adv-x="445" 
d="M25 250c0 177 73 263 197 263c133 0 198 -88 198 -263c0 -179 -73 -262 -198 -262c-131 0 -197 87 -197 262zM148 250c0 -100 21 -157 74 -157c51 0 75 42 75 157c0 103 -20 157 -75 157c-47 0 -74 -42 -74 -157zM101 720h121l49 -154h-66l-104 124v30z" />
    <glyph glyph-name="otilde" unicode="&#xf5;" horiz-adv-x="445" 
d="M97 598l-24 58c39 49 72 64 100 64c47 0 83 -43 124 -43c15 0 30 6 49 23l22 -61c-36 -43 -67 -56 -94 -56c-47 0 -83 40 -124 40c-17 0 -34 -6 -53 -25zM25 250c0 177 73 263 197 263c133 0 198 -88 198 -263c0 -179 -73 -262 -198 -262c-131 0 -197 87 -197 262z
M148 250c0 -100 21 -157 74 -157c51 0 75 42 75 157c0 103 -20 157 -75 157c-47 0 -74 -42 -74 -157z" />
    <glyph glyph-name="scaron" unicode="&#x161;" horiz-adv-x="350" 
d="M211 133c0 85 -185 71 -185 234c0 93 51 146 150 146c59 0 114 -14 145 -33l-28 -92c-25 11 -64 23 -99 23c-33 0 -49 -14 -49 -41c0 -74 185 -65 185 -230c0 -92 -56 -152 -167 -152c-55 0 -112 14 -144 35l33 96c28 -16 66 -30 106 -30c31 0 53 13 53 44zM229 732h91
l-101 -182h-88l-95 182h98l32 -66l13 -49l13 49z" />
    <glyph glyph-name="uacute" unicode="&#xfa;" horiz-adv-x="446" 
d="M237 566h-67l42 154h119v-30zM39 175v325h119v-299c0 -79 12 -105 51 -105c37 0 63 31 74 70v334h119v-348c0 -55 3 -109 14 -152h-90l-21 68h-3c-25 -47 -68 -80 -132 -80c-82 0 -131 38 -131 187z" />
    <glyph glyph-name="ucircumflex" unicode="&#xfb;" horiz-adv-x="446" 
d="M39 175v325h119v-299c0 -79 12 -105 51 -105c37 0 63 31 74 70v334h119v-348c0 -55 3 -109 14 -152h-90l-21 68h-3c-25 -47 -68 -80 -132 -80c-82 0 -131 38 -131 187zM172 550h-89l101 182h85l91 -182h-93l-32 66l-13 49l-13 -49z" />
    <glyph glyph-name="udieresis" unicode="&#xfc;" horiz-adv-x="446" 
d="M63 651c0 43 25 68 64 68c37 0 62 -25 62 -68c0 -40 -25 -65 -62 -65c-39 0 -64 25 -64 65zM249 651c0 43 24 68 63 68s63 -25 63 -68c0 -40 -24 -65 -63 -65s-63 25 -63 65zM39 175v325h119v-299c0 -79 12 -105 51 -105c37 0 63 31 74 70v334h119v-348
c0 -55 3 -109 14 -152h-90l-21 68h-3c-25 -47 -68 -80 -132 -80c-82 0 -131 38 -131 187z" />
    <glyph glyph-name="ugrave" unicode="&#xf9;" horiz-adv-x="446" 
d="M39 175v325h119v-299c0 -79 12 -105 51 -105c37 0 63 31 74 70v334h119v-348c0 -55 3 -109 14 -152h-90l-21 68h-3c-25 -47 -68 -80 -132 -80c-82 0 -131 38 -131 187zM95 720h121l49 -154h-66l-104 124v30z" />
    <glyph glyph-name="yacute" unicode="&#xfd;" horiz-adv-x="400" 
d="M-9 500h142l70 -281l13 -78h5l9 79l58 280h122l-125 -451c-44 -156 -74 -253 -154 -253c-28 0 -55 4 -74 15l20 102c37 -14 71 0 87 87zM230 566h-67l42 154h119v-30z" />
    <glyph glyph-name="ydieresis" unicode="&#xff;" horiz-adv-x="400" 
d="M49 651c0 43 25 68 64 68c37 0 62 -25 62 -68c0 -40 -25 -65 -62 -65c-39 0 -64 25 -64 65zM235 651c0 43 24 68 63 68s63 -25 63 -68c0 -40 -24 -65 -63 -65s-63 25 -63 65zM-9 500h142l70 -281l13 -78h5l9 79l58 280h122l-125 -451c-44 -156 -74 -253 -154 -253
c-28 0 -55 4 -74 15l20 102c37 -14 71 0 87 87z" />
    <glyph glyph-name="zcaron" unicode="&#x17e;" horiz-adv-x="381" 
d="M355 0h-331v106l162 245l44 43h-206v106h331v-106l-160 -249l-43 -39h203v-106zM244 732h91l-101 -182h-88l-95 182h98l32 -66l13 -49l13 49z" />
    <glyph glyph-name="Euro" unicode="&#x20ac;" 
d="M441 120l24 -96c-35 -24 -95 -36 -144 -36c-111 0 -193 61 -231 198c-4 15 -7 31 -10 48h-77l29 91h40v25v33h-69l29 91h50c3 15 7 30 11 44c43 141 133 196 233 196c56 0 99 -11 130 -23l-32 -100c-23 11 -55 16 -95 16c-44 0 -79 -20 -105 -61c-12 -19 -21 -43 -28 -72
h208l-23 -91h-196v-33v-25h179l-23 -91h-146c6 -29 15 -54 27 -75c25 -43 63 -65 116 -65c42 0 76 9 103 26z" />
    <glyph glyph-name="uni00A0" unicode="&#xa0;" horiz-adv-x="205" 
 />
    <glyph glyph-name="uni00AD" unicode="&#xad;" horiz-adv-x="298" 
d="M253 230h-208v114h208v-114z" />
    <glyph glyph-name=".null" horiz-adv-x="0" 
 />
    <glyph glyph-name="CR" horiz-adv-x="205" 
 />
    <glyph glyph-name="Amacron" unicode="&#x100;" horiz-adv-x="501" 
d="M394 767h-289v89h289v-89zM503 0h-132l-43 158h-165l-41 -158h-124l202 705h99zM246 535l-17 -111l-39 -162h116l-40 163l-16 110h-4z" />
    <glyph glyph-name="amacron" unicode="&#x101;" horiz-adv-x="413" 
d="M74 381l-30 89c40 24 101 40 177 40c113 0 152 -61 152 -169c0 -124 -20 -246 9 -341h-97l-19 60h-4c-21 -39 -59 -66 -118 -66c-79 0 -127 56 -127 144c0 120 92 168 237 160c7 77 -6 110 -61 110c-40 0 -86 -10 -119 -27zM187 95c36 0 58 22 69 43v83
c-61 8 -116 -8 -116 -63c0 -41 18 -63 47 -63zM344 567h-272v91h272v-91z" />
    <glyph glyph-name="Abreve" unicode="&#x102;" horiz-adv-x="501" 
d="M89 840l46 35c23 -35 68 -55 119 -55c53 0 91 22 114 55l44 -31c-29 -80 -95 -114 -159 -114c-58 0 -132 30 -164 110zM503 0h-132l-43 158h-165l-41 -158h-124l202 705h99zM246 535l-17 -111l-39 -162h116l-40 163l-16 110h-4z" />
    <glyph glyph-name="abreve" unicode="&#x103;" horiz-adv-x="413" 
d="M74 381l-30 89c40 24 101 40 177 40c113 0 152 -61 152 -169c0 -124 -20 -246 9 -341h-97l-19 60h-4c-21 -39 -59 -66 -118 -66c-79 0 -127 56 -127 144c0 120 92 168 237 160c7 77 -6 110 -61 110c-40 0 -86 -10 -119 -27zM187 95c36 0 58 22 69 43v83
c-61 8 -116 -8 -116 -63c0 -41 18 -63 47 -63zM62 689l56 30c19 -40 54 -60 93 -60s71 20 86 60l55 -26c-5 -68 -63 -129 -142 -129c-76 0 -133 46 -148 125z" />
    <glyph glyph-name="Aogonek" unicode="&#x104;" horiz-adv-x="501" 
d="M246 535l-17 -111l-39 -162h116l-40 163l-16 110h-4zM397 0h-26l-43 158h-165l-41 -158h-124l202 705h99l204 -705h-19c-31 -14 -47 -39 -47 -72s24 -55 67 -35l18 -58c-15 -15 -57 -35 -98 -35c-68 0 -103 37 -103 90c0 28 8 52 25 71c13 16 30 29 51 39z" />
    <glyph glyph-name="aogonek" unicode="&#x105;" horiz-adv-x="413" 
d="M74 381l-30 89c40 24 101 40 177 40c113 0 152 -61 152 -169c0 -124 -20 -246 9 -341h-20c-30 -16 -45 -40 -45 -72c0 -33 24 -55 67 -35l18 -58c-15 -15 -57 -35 -98 -35c-68 0 -103 37 -103 90s34 91 82 113l-17 57h-4c-21 -39 -59 -66 -118 -66
c-79 0 -127 56 -127 144c0 120 92 168 237 160c7 77 -6 110 -61 110c-40 0 -86 -10 -119 -27zM187 95c36 0 58 22 69 43v83c-61 8 -116 -8 -116 -63c0 -41 18 -63 47 -63z" />
    <glyph glyph-name="Cacute" unicode="&#x106;" horiz-adv-x="457" 
d="M316 752h-93l82 118h143v-30zM417 134l25 -106c-35 -28 -99 -41 -156 -41c-143 0 -257 91 -257 364c0 283 131 363 260 363c65 0 114 -13 145 -26l-25 -111c-25 13 -58 21 -105 21c-92 0 -143 -77 -143 -248c0 -147 44 -248 151 -248c47 0 78 15 105 32z" />
    <glyph glyph-name="cacute" unicode="&#x107;" horiz-adv-x="350" 
d="M313 119l25 -92c-33 -27 -83 -39 -130 -39c-135 0 -183 102 -183 262c0 175 64 263 185 263c60 0 95 -12 124 -28l-28 -99c-24 12 -43 18 -74 18c-56 0 -84 -46 -84 -154c0 -91 27 -154 90 -154c33 0 55 10 75 23zM229 566h-67l42 154h119v-30z" />
    <glyph glyph-name="Ccircumflex" unicode="&#x108;" horiz-adv-x="457" 
d="M131 738v40l109 92h87l104 -93v-39h-85l-47 41l-17 34l-18 -33l-50 -42h-83zM417 134l25 -106c-35 -28 -99 -41 -156 -41c-143 0 -257 91 -257 364c0 283 131 363 260 363c65 0 114 -13 145 -26l-25 -111c-25 13 -58 21 -105 21c-92 0 -143 -77 -143 -248
c0 -147 44 -248 151 -248c47 0 78 15 105 32z" />
    <glyph glyph-name="ccircumflex" unicode="&#x109;" horiz-adv-x="350" 
d="M313 119l25 -92c-33 -27 -83 -39 -130 -39c-135 0 -183 102 -183 262c0 175 64 263 185 263c60 0 95 -12 124 -28l-28 -99c-24 12 -43 18 -74 18c-56 0 -84 -46 -84 -154c0 -91 27 -154 90 -154c33 0 55 10 75 23zM128 550h-89l101 182h85l91 -182h-93l-32 66l-13 49
l-13 -49z" />
    <glyph glyph-name="Ccaron" unicode="&#x10c;" horiz-adv-x="457" 
d="M431 870v-40l-109 -93h-87l-104 94v39h91l42 -45l17 -30l17 29l45 46h88zM417 134l25 -106c-35 -28 -99 -41 -156 -41c-143 0 -257 91 -257 364c0 283 131 363 260 363c65 0 114 -13 145 -26l-25 -111c-25 13 -58 21 -105 21c-92 0 -143 -77 -143 -248
c0 -147 44 -248 151 -248c47 0 78 15 105 32z" />
    <glyph glyph-name="ccaron" unicode="&#x10d;" horiz-adv-x="350" 
d="M313 119l25 -92c-33 -27 -83 -39 -130 -39c-135 0 -183 102 -183 262c0 175 64 263 185 263c60 0 95 -12 124 -28l-28 -99c-24 12 -43 18 -74 18c-56 0 -84 -46 -84 -154c0 -91 27 -154 90 -154c33 0 55 10 75 23zM253 732h91l-101 -182h-88l-95 182h98l32 -66l13 -49
l13 49z" />
    <glyph glyph-name="Dcaron" unicode="&#x10e;" horiz-adv-x="535" 
d="M379 870v-40l-109 -93h-87l-104 94v39h91l42 -45l17 -30l17 29l45 46h88zM45 0v700c47 8 126 10 171 10c221 0 289 -142 289 -354c0 -195 -63 -366 -299 -366c-34 0 -129 5 -161 10zM229 594c-21 0 -46 0 -58 -3v-482c7 -2 46 -4 53 -4c120 0 149 121 149 253
c0 124 -23 236 -144 236z" />
    <glyph glyph-name="dcaron" unicode="&#x10f;" horiz-adv-x="445" 
d="M452 700h104c-5 -78 -52 -174 -80 -202l-53 26c19 48 29 115 29 176zM283 700h119v-524c0 -56 0 -109 9 -176h-84l-16 57h-4c-23 -47 -62 -69 -119 -69c-101 0 -163 74 -163 254c0 176 63 269 187 269c32 0 51 -4 71 -13v202zM216 96c36 0 56 18 67 53v236
c-13 12 -28 17 -55 17c-53 0 -80 -41 -80 -164c0 -92 21 -142 68 -142z" />
    <glyph glyph-name="Dcroat" unicode="&#x110;" horiz-adv-x="555" 
d="M65 322h-67v79h67v299c47 8 126 10 171 10c221 0 289 -142 289 -354c0 -195 -63 -366 -299 -366c-34 0 -129 5 -161 10v322zM191 591v-190h108v-79h-108v-213c7 -2 46 -4 53 -4c120 0 149 121 149 253c0 124 -23 236 -144 236c-21 0 -46 0 -58 -3z" />
    <glyph glyph-name="dcroat" unicode="&#x111;" horiz-adv-x="452" 
d="M283 700h119v-59h61v-79h-61v-386c0 -56 0 -109 9 -176h-84l-16 57h-4c-23 -47 -62 -69 -119 -69c-101 0 -163 74 -163 254c0 176 63 269 187 269c32 0 51 -4 71 -13v64h-120v79h120v59zM216 96c36 0 56 18 67 53v236c-13 12 -28 17 -55 17c-53 0 -80 -41 -80 -164
c0 -92 21 -142 68 -142z" />
    <glyph glyph-name="Emacron" unicode="&#x112;" horiz-adv-x="430" 
d="M363 767h-289v89h289v-89zM399 0h-354v700h350v-116h-224v-172h203v-116h-203v-180h228v-116z" />
    <glyph glyph-name="emacron" unicode="&#x113;" horiz-adv-x="428" 
d="M344 120l37 -83c-33 -29 -95 -49 -158 -49c-139 0 -198 98 -198 262c0 180 75 264 202 264c84 0 168 -45 168 -196c0 -29 -3 -62 -10 -101h-243c3 -83 32 -128 103 -128c43 0 80 16 99 31zM225 412c-51 0 -75 -43 -79 -116h138c4 76 -16 116 -59 116zM351 567h-272v91
h272v-91z" />
    <glyph glyph-name="Edotaccent" unicode="&#x116;" horiz-adv-x="430" 
d="M149 799c0 33 26 61 77 61c52 0 79 -28 79 -61c0 -35 -27 -62 -79 -62c-51 0 -77 27 -77 62zM399 0h-354v700h350v-116h-224v-172h203v-116h-203v-180h228v-116z" />
    <glyph glyph-name="edotaccent" unicode="&#x117;" horiz-adv-x="428" 
d="M344 120l37 -83c-33 -29 -95 -49 -158 -49c-139 0 -198 98 -198 262c0 180 75 264 202 264c84 0 168 -45 168 -196c0 -29 -3 -62 -10 -101h-243c3 -83 32 -128 103 -128c43 0 80 16 99 31zM225 412c-51 0 -75 -43 -79 -116h138c4 76 -16 116 -59 116zM146 641
c0 40 26 69 73 69s77 -28 77 -69s-30 -67 -77 -67s-73 27 -73 67z" />
    <glyph glyph-name="Eogonek" unicode="&#x118;" horiz-adv-x="430" 
d="M288 0h-243v700h350v-116h-224v-172h203v-116h-203v-180h228v-116h-24c-31 -14 -47 -38 -47 -72c0 -33 24 -55 67 -35l18 -58c-15 -15 -57 -35 -98 -35c-68 0 -103 37 -103 90c0 51 31 88 76 110z" />
    <glyph glyph-name="eogonek" unicode="&#x119;" horiz-adv-x="421" 
d="M225 412c-51 0 -75 -43 -79 -116h138c4 76 -16 116 -59 116zM344 120l37 -83c-14 -13 -32 -23 -54 -31c-9 -6 -17 -14 -24 -23c-12 -16 -17 -33 -17 -51c1 -35 28 -59 71 -35l18 -62c-16 -16 -58 -36 -101 -36c-64 0 -99 42 -99 94c0 31 8 59 29 80l15 15
c-33 1 -62 7 -86 17c-74 36 -108 121 -108 245c0 180 75 264 202 264c84 0 168 -45 168 -196c0 -29 -3 -62 -10 -101h-243c3 -83 32 -128 103 -128c43 0 80 16 99 31z" />
    <glyph glyph-name="Ecaron" unicode="&#x11a;" horiz-adv-x="430" 
d="M369 870v-40l-109 -93h-87l-104 94v39h91l42 -45l17 -30l17 29l45 46h88zM399 0h-354v700h350v-116h-224v-172h203v-116h-203v-180h228v-116z" />
    <glyph glyph-name="ecaron" unicode="&#x11b;" horiz-adv-x="428" 
d="M344 120l37 -83c-33 -29 -95 -49 -158 -49c-139 0 -198 98 -198 262c0 180 75 264 202 264c84 0 168 -45 168 -196c0 -29 -3 -62 -10 -101h-243c3 -83 32 -128 103 -128c43 0 80 16 99 31zM225 412c-51 0 -75 -43 -79 -116h138c4 76 -16 116 -59 116zM270 732h91
l-101 -182h-88l-95 182h98l32 -66l13 -49l13 49z" />
    <glyph glyph-name="Gcircumflex" unicode="&#x11c;" horiz-adv-x="502" 
d="M115 738v40l109 92h87l104 -93v-39h-85l-47 41l-17 34l-18 -33l-50 -42h-83zM372 270l-115 16v76h216v-310c-49 -47 -120 -65 -185 -65c-157 0 -259 108 -259 363c0 266 125 364 268 364c64 0 118 -13 153 -28l-26 -109c-27 12 -60 21 -111 21c-94 0 -152 -72 -152 -249
c0 -169 56 -247 140 -247c27 0 52 8 71 25v143z" />
    <glyph glyph-name="gcircumflex" unicode="&#x11d;" horiz-adv-x="443" 
d="M401 482v-482c0 -144 -70 -211 -189 -211c-83 0 -126 15 -151 30l25 101c29 -12 61 -25 108 -25c68 0 90 36 90 110v27h-3c-19 -27 -49 -39 -98 -39c-105 0 -158 75 -158 247c0 185 75 271 210 271c72 0 131 -13 166 -29zM216 94c36 0 55 18 66 50v250
c-15 7 -32 11 -56 11c-49 0 -78 -43 -78 -160c0 -101 23 -151 68 -151zM172 550h-89l101 182h85l91 -182h-93l-32 66l-13 49l-13 -49z" />
    <glyph glyph-name="Gbreve" unicode="&#x11e;" horiz-adv-x="502" 
d="M115 840l46 35c23 -35 68 -55 119 -55c53 0 91 22 114 55l44 -31c-29 -80 -95 -114 -159 -114c-58 0 -132 30 -164 110zM372 270l-115 16v76h216v-310c-49 -47 -120 -65 -185 -65c-157 0 -259 108 -259 363c0 266 125 364 268 364c64 0 118 -13 153 -28l-26 -109
c-27 12 -60 21 -111 21c-94 0 -152 -72 -152 -249c0 -169 56 -247 140 -247c27 0 52 8 71 25v143z" />
    <glyph glyph-name="gbreve" unicode="&#x11f;" horiz-adv-x="443" 
d="M401 482v-482c0 -144 -70 -211 -189 -211c-83 0 -126 15 -151 30l25 101c29 -12 61 -25 108 -25c68 0 90 36 90 110v27h-3c-19 -27 -49 -39 -98 -39c-105 0 -158 75 -158 247c0 185 75 271 210 271c72 0 131 -13 166 -29zM216 94c36 0 55 18 66 50v250
c-15 7 -32 11 -56 11c-49 0 -78 -43 -78 -160c0 -101 23 -151 68 -151zM78 689l56 30c19 -40 54 -60 93 -60s71 20 86 60l55 -26c-5 -68 -63 -129 -142 -129c-76 0 -133 46 -148 125z" />
    <glyph glyph-name="Gcommaaccent" unicode="&#x122;" horiz-adv-x="502" 
d="M237 -105c0 39 27 64 62 64c41 0 70 -29 70 -89c0 -88 -61 -132 -92 -142l-33 46c17 11 36 32 39 61c-20 1 -46 19 -46 60zM372 270l-115 16v76h216v-310c-49 -47 -120 -65 -185 -65c-157 0 -259 108 -259 363c0 266 125 364 268 364c64 0 118 -13 153 -28l-26 -109
c-27 12 -60 21 -111 21c-94 0 -152 -72 -152 -249c0 -169 56 -247 140 -247c27 0 52 8 71 25v143z" />
    <glyph glyph-name="gcommaaccent" unicode="&#x123;" horiz-adv-x="443" 
d="M303 614c0 -39 -27 -64 -62 -64c-41 0 -70 29 -70 89c0 88 61 132 92 142l33 -46c-17 -11 -36 -32 -39 -61c20 -1 46 -19 46 -60zM401 482v-482c0 -144 -70 -211 -189 -211c-83 0 -126 15 -151 30l25 101c29 -12 61 -25 108 -25c68 0 90 36 90 110v27h-3
c-19 -27 -49 -39 -98 -39c-105 0 -158 75 -158 247c0 185 75 271 210 271c72 0 131 -13 166 -29zM216 94c36 0 55 18 66 50v250c-15 7 -32 11 -56 11c-49 0 -78 -43 -78 -160c0 -101 23 -151 68 -151z" />
    <glyph glyph-name="Hcircumflex" unicode="&#x124;" horiz-adv-x="533" 
d="M123 738v40l109 92h87l104 -93v-39h-85l-47 41l-17 34l-18 -33l-50 -42h-83zM488 0h-126v296h-191v-296h-126v700h126v-288h191v288h126v-700z" />
    <glyph glyph-name="hcircumflex" unicode="&#x125;" horiz-adv-x="449" 
d="M76 738v40l109 92h87l104 -93v-39h-85l-47 41l-17 34l-18 -33l-50 -42h-83zM410 328v-328h-119v302c0 72 -14 102 -58 102c-32 0 -62 -25 -71 -60v-344h-119v700h119v-245h3c27 35 63 58 120 58c82 0 125 -42 125 -185z" />
    <glyph glyph-name="Hbar" unicode="&#x126;" horiz-adv-x="567" 
d="M63 518h-61v78h61v104h126v-104h191v104h126v-104h59v-78h-59v-518h-126v296h-191v-296h-126v518zM189 518v-106h191v106h-191z" />
    <glyph glyph-name="hbar" unicode="&#x127;" horiz-adv-x="456" 
d="M50 562h-58v79h58v59h119v-59h133v-79h-133v-107h3c27 35 63 58 120 58c82 0 125 -42 125 -185v-328h-119v302c0 72 -14 102 -58 102c-32 0 -62 -25 -71 -60v-344h-119v562z" />
    <glyph glyph-name="Imacron" unicode="&#x12a;" horiz-adv-x="238" 
d="M268 767h-289v89h289v-89zM182 0h-126v700h126v-700z" />
    <glyph glyph-name="imacron" unicode="&#x12b;" horiz-adv-x="225" 
d="M172 0h-119v500h119v-500zM249 567h-272v91h272v-91z" />
    <glyph glyph-name="Iogonek" unicode="&#x12e;" horiz-adv-x="238" 
d="M89 0h-33v700h126v-700h-12c-23 -15 -38 -37 -38 -72s24 -56 67 -35l18 -59c-16 -15 -57 -35 -100 -35c-65 0 -101 36 -101 91c0 51 28 88 73 110z" />
    <glyph glyph-name="iogonek" unicode="&#x12f;" horiz-adv-x="223" 
d="M83 0h-30v500h119v-500h-11c-24 -18 -39 -41 -39 -72c1 -35 30 -58 71 -31l18 -62c-16 -16 -58 -36 -101 -36c-65 0 -99 37 -99 92c0 51 27 87 72 109zM37 641c0 40 26 69 73 69s77 -28 77 -69s-30 -67 -77 -67s-73 27 -73 67z" />
    <glyph glyph-name="Idotaccent" unicode="&#x130;" horiz-adv-x="238" 
d="M43 799c0 33 26 61 77 61c52 0 79 -28 79 -61c0 -35 -27 -62 -79 -62c-51 0 -77 27 -77 62zM182 0h-126v700h126v-700z" />
    <glyph glyph-name="Jcircumflex" unicode="&#x134;" horiz-adv-x="289" 
d="M23 738v40l109 92h87l104 -93v-39h-85l-47 41l-17 34l-18 -33l-50 -42h-83zM113 218v482h126v-509c0 -123 -36 -202 -147 -202c-39 0 -78 8 -108 22l28 106c14 -9 30 -13 49 -13c47 0 52 41 52 114z" />
    <glyph glyph-name="jcircumflex" unicode="&#x135;" horiz-adv-x="225" 
d="M65 550h-89l101 182h85l91 -182h-93l-32 66l-13 49l-13 -49zM54 14v486h119v-520c0 -121 -40 -187 -132 -187c-19 0 -38 2 -56 7v106c56 -5 69 34 69 108z" />
    <glyph glyph-name="Kcommaaccent" unicode="&#x136;" horiz-adv-x="519" 
d="M186 -105c0 39 27 64 62 64c41 0 70 -29 70 -89c0 -88 -61 -132 -92 -142l-33 46c17 11 36 32 39 61c-20 1 -46 19 -46 60zM511 0h-154l-159 300h-27v-300h-126v700h126v-311l25 12l147 299h142l-160 -295l-47 -37l48 -38z" />
    <glyph glyph-name="kcommaaccent" unicode="&#x137;" horiz-adv-x="412" 
d="M144 -105c0 39 27 64 62 64c41 0 70 -29 70 -89c0 -88 -61 -132 -92 -142l-33 46c17 11 36 32 39 61c-20 1 -46 19 -46 60zM412 0h-134l-88 207h-28v-207h-119v700h119v-413l24 14l83 199h129l-92 -198l-43 -34l47 -34z" />
    <glyph glyph-name="Lacute" unicode="&#x139;" horiz-adv-x="424" 
d="M168 752h-93l82 118h143v-30zM171 116h246v-116h-372v700h126v-584z" />
    <glyph glyph-name="lacute" unicode="&#x13a;" horiz-adv-x="243" 
d="M149 752h-93l82 118h143v-30zM45 700h119v-538c0 -47 9 -65 30 -65c12 0 24 2 40 9l11 -96c-16 -10 -60 -21 -100 -21c-67 0 -100 29 -100 109v602z" />
    <glyph glyph-name="Lcommaaccent" unicode="&#x13b;" horiz-adv-x="424" 
d="M150 -105c0 39 27 64 62 64c41 0 70 -29 70 -89c0 -88 -61 -132 -92 -142l-33 46c17 11 36 32 39 61c-20 1 -46 19 -46 60zM171 116h246v-116h-372v700h126v-584z" />
    <glyph glyph-name="lcommaaccent" unicode="&#x13c;" horiz-adv-x="243" 
d="M76 -105c0 39 27 64 62 64c41 0 70 -29 70 -89c0 -88 -61 -132 -92 -142l-33 46c17 11 36 32 39 61c-20 1 -46 19 -46 60zM45 700h119v-538c0 -47 9 -65 30 -65c12 0 24 2 40 9l11 -96c-16 -10 -60 -21 -100 -21c-67 0 -100 29 -100 109v602z" />
    <glyph glyph-name="Lcaron" unicode="&#x13d;" horiz-adv-x="424" 
d="M293 700h104c-5 -78 -52 -174 -80 -202l-53 26c19 48 29 115 29 176zM171 116h246v-116h-372v700h126v-584z" />
    <glyph glyph-name="lcaron" unicode="&#x13e;" horiz-adv-x="243" 
d="M215 700h104c-5 -78 -52 -174 -80 -202l-53 26c19 48 29 115 29 176zM45 700h119v-538c0 -47 9 -65 30 -65c12 0 24 2 40 9l11 -96c-16 -10 -60 -21 -100 -21c-67 0 -100 29 -100 109v602z" />
    <glyph glyph-name="Nacute" unicode="&#x143;" horiz-adv-x="540" 
d="M314 752h-93l82 118h143v-30zM495 -4h-97l-199 348l-46 123h-5l16 -121v-346h-119v705h97l201 -352l43 -121h6l-16 119v349h119v-704z" />
    <glyph glyph-name="nacute" unicode="&#x144;" horiz-adv-x="449" 
d="M410 333v-333h-119v304c0 73 -16 99 -57 99c-35 0 -61 -24 -72 -56v-347h-119v500h95l14 -58h3c24 39 63 70 130 70c81 0 125 -43 125 -179zM251 566h-67l42 154h119v-30z" />
    <glyph glyph-name="Ncommaaccent" unicode="&#x145;" horiz-adv-x="540" 
d="M214 -105c0 39 27 64 62 64c41 0 70 -29 70 -89c0 -88 -61 -132 -92 -142l-33 46c17 11 36 32 39 61c-20 1 -46 19 -46 60zM495 -4h-97l-199 348l-46 123h-5l16 -121v-346h-119v705h97l201 -352l43 -121h6l-16 119v349h119v-704z" />
    <glyph glyph-name="ncommaaccent" unicode="&#x146;" horiz-adv-x="449" 
d="M159 -105c0 39 27 64 62 64c41 0 70 -29 70 -89c0 -88 -61 -132 -92 -142l-33 46c17 11 36 32 39 61c-20 1 -46 19 -46 60zM410 333v-333h-119v304c0 73 -16 99 -57 99c-35 0 -61 -24 -72 -56v-347h-119v500h95l14 -58h3c24 39 63 70 130 70c81 0 125 -43 125 -179z" />
    <glyph glyph-name="Ncaron" unicode="&#x147;" horiz-adv-x="540" 
d="M425 870v-40l-109 -93h-87l-104 94v39h91l42 -45l17 -30l17 29l45 46h88zM495 -4h-97l-199 348l-46 123h-5l16 -121v-346h-119v705h97l201 -352l43 -121h6l-16 119v349h119v-704z" />
    <glyph glyph-name="ncaron" unicode="&#x148;" horiz-adv-x="449" 
d="M410 333v-333h-119v304c0 73 -16 99 -57 99c-35 0 -61 -24 -72 -56v-347h-119v500h95l14 -58h3c24 39 63 70 130 70c81 0 125 -43 125 -179zM278 732h91l-101 -182h-88l-95 182h98l32 -66l13 -49l13 49z" />
    <glyph glyph-name="Omacron" unicode="&#x14c;" horiz-adv-x="553" 
d="M423 767h-289v89h289v-89zM29 350c0 237 80 364 247 364c173 0 248 -142 248 -364c0 -237 -84 -363 -248 -363c-175 0 -247 141 -247 363zM161 350c0 -141 31 -248 115 -248c77 0 116 75 116 248c0 137 -29 248 -116 248c-77 0 -115 -83 -115 -248z" />
    <glyph glyph-name="omacron" unicode="&#x14d;" horiz-adv-x="445" 
d="M25 250c0 177 73 263 197 263c133 0 198 -88 198 -263c0 -179 -73 -262 -198 -262c-131 0 -197 87 -197 262zM148 250c0 -100 21 -157 74 -157c51 0 75 42 75 157c0 103 -20 157 -75 157c-47 0 -74 -42 -74 -157zM357 567h-272v91h272v-91z" />
    <glyph glyph-name="Ohungarumlaut" unicode="&#x150;" horiz-adv-x="553" 
d="M235 741h-86l48 109h120v-16zM376 741h-86l79 109h125v-16zM29 350c0 237 80 364 247 364c173 0 248 -142 248 -364c0 -237 -84 -363 -248 -363c-175 0 -247 141 -247 363zM161 350c0 -141 31 -248 115 -248c77 0 116 75 116 248c0 137 -29 248 -116 248
c-77 0 -115 -83 -115 -248z" />
    <glyph glyph-name="ohungarumlaut" unicode="&#x151;" horiz-adv-x="445" 
d="M25 250c0 177 73 263 197 263c133 0 198 -88 198 -263c0 -179 -73 -262 -198 -262c-131 0 -197 87 -197 262zM148 250c0 -100 21 -157 74 -157c51 0 75 42 75 157c0 103 -20 157 -75 157c-47 0 -74 -42 -74 -157zM185 571h-73l29 129h108v-16zM310 571h-75l60 129h114
v-16z" />
    <glyph glyph-name="Racute" unicode="&#x154;" horiz-adv-x="503" 
d="M248 752h-93l82 118h143v-30zM171 0h-126v693c55 12 124 17 169 17c115 0 227 -40 227 -198c0 -113 -45 -185 -118 -212l40 -32l129 -268h-145l-122 276l-54 13v-289zM171 589v-214h43c63 0 95 37 95 117c0 60 -26 102 -83 102c-21 0 -43 -1 -55 -5z" />
    <glyph glyph-name="racute" unicode="&#x155;" horiz-adv-x="293" 
d="M293 500l-14 -118c-16 6 -31 9 -44 9c-36 0 -64 -21 -73 -57v-334h-119v500h91l14 -60h4c17 44 51 70 94 70c16 0 32 -3 47 -10zM171 566h-67l42 154h119v-30z" />
    <glyph glyph-name="Rcommaaccent" unicode="&#x156;" horiz-adv-x="503" 
d="M192 -105c0 39 27 64 62 64c41 0 70 -29 70 -89c0 -88 -61 -132 -92 -142l-33 46c17 11 36 32 39 61c-20 1 -46 19 -46 60zM171 0h-126v693c55 12 124 17 169 17c115 0 227 -40 227 -198c0 -113 -45 -185 -118 -212l40 -32l129 -268h-145l-122 276l-54 13v-289zM171 589
v-214h43c63 0 95 37 95 117c0 60 -26 102 -83 102c-21 0 -43 -1 -55 -5z" />
    <glyph glyph-name="rcommaaccent" unicode="&#x157;" horiz-adv-x="293" 
d="M61 -105c0 39 27 64 62 64c41 0 70 -29 70 -89c0 -88 -61 -132 -92 -142l-33 46c17 11 36 32 39 61c-20 1 -46 19 -46 60zM293 500l-14 -118c-16 6 -31 9 -44 9c-36 0 -64 -21 -73 -57v-334h-119v500h91l14 -60h4c17 44 51 70 94 70c16 0 32 -3 47 -10z" />
    <glyph glyph-name="Rcaron" unicode="&#x158;" horiz-adv-x="503" 
d="M367 870v-40l-109 -93h-87l-104 94v39h91l42 -45l17 -30l17 29l45 46h88zM172 0h-126v693c55 12 124 17 169 17c115 0 227 -40 227 -198c0 -113 -45 -185 -118 -212l40 -32l129 -268h-145l-122 276l-54 13v-289zM172 589v-214h43c63 0 95 37 95 117c0 60 -26 102 -83 102
c-21 0 -43 -1 -55 -5z" />
    <glyph glyph-name="rcaron" unicode="&#x159;" horiz-adv-x="293" 
d="M214 732h91l-101 -182h-88l-95 182h98l32 -66l13 -49l13 49zM293 500l-14 -118c-16 6 -31 9 -44 9c-36 0 -64 -21 -73 -57v-334h-119v500h91l14 -60h4c17 44 51 70 94 70c16 0 32 -3 47 -10z" />
    <glyph glyph-name="Sacute" unicode="&#x15a;" horiz-adv-x="439" 
d="M259 752h-93l82 118h143v-30zM290 180c0 126 -257 127 -257 346c0 135 88 188 201 188c68 0 129 -14 168 -37l-39 -111c-23 16 -71 32 -123 32s-81 -22 -81 -63c0 -113 257 -127 257 -341c0 -140 -86 -207 -217 -207c-83 0 -147 18 -180 38l41 113c27 -16 77 -36 130 -36
c67 0 100 26 100 78z" />
    <glyph glyph-name="sacute" unicode="&#x15b;" horiz-adv-x="350" 
d="M211 133c0 85 -185 71 -185 234c0 93 51 146 150 146c59 0 114 -14 145 -33l-28 -92c-25 11 -64 23 -99 23c-33 0 -49 -14 -49 -41c0 -74 185 -65 185 -230c0 -92 -56 -152 -167 -152c-55 0 -112 14 -144 35l33 96c28 -16 66 -30 106 -30c31 0 53 13 53 44zM199 566h-67
l42 154h119v-30z" />
    <glyph glyph-name="Scircumflex" unicode="&#x15c;" horiz-adv-x="439" 
d="M84 738v40l109 92h87l104 -93v-39h-85l-47 41l-17 34l-18 -33l-50 -42h-83zM290 180c0 126 -257 127 -257 346c0 135 88 188 201 188c68 0 129 -14 168 -37l-39 -111c-23 16 -71 32 -123 32s-81 -22 -81 -63c0 -113 257 -127 257 -341c0 -140 -86 -207 -217 -207
c-83 0 -147 18 -180 38l41 113c27 -16 77 -36 130 -36c67 0 100 26 100 78z" />
    <glyph glyph-name="scircumflex" unicode="&#x15d;" horiz-adv-x="350" 
d="M211 133c0 85 -185 71 -185 234c0 93 51 146 150 146c59 0 114 -14 145 -33l-28 -92c-25 11 -64 23 -99 23c-33 0 -49 -14 -49 -41c0 -74 185 -65 185 -230c0 -92 -56 -152 -167 -152c-55 0 -112 14 -144 35l33 96c28 -16 66 -30 106 -30c31 0 53 13 53 44zM128 550h-89
l101 182h85l91 -182h-93l-32 66l-13 49l-13 -49z" />
    <glyph glyph-name="Scedilla" unicode="&#x15e;" horiz-adv-x="439" 
d="M290 180c0 126 -257 127 -257 346c0 135 88 188 201 188c68 0 129 -14 168 -37l-39 -111c-23 16 -71 32 -123 32s-81 -22 -81 -63c0 -113 257 -127 257 -341c0 -123 -64 -189 -167 -203l-15 -33c45 -5 74 -27 74 -75c0 -60 -61 -92 -131 -92c-18 0 -36 2 -54 6l7 48
c56 -5 69 10 69 29s-23 29 -70 32l42 82c-69 3 -123 18 -152 37l41 114c27 -16 77 -36 130 -36c67 0 100 26 100 77z" />
    <glyph glyph-name="scedilla" unicode="&#x15f;" horiz-adv-x="350" 
d="M19 23l33 96c28 -16 66 -30 106 -30c31 0 53 13 53 44c0 85 -185 71 -185 234c0 93 51 146 150 146c59 0 114 -14 145 -33l-28 -92c-25 11 -64 23 -99 23c-33 0 -49 -14 -49 -41c0 -74 185 -65 185 -230c0 -79 -40 -133 -119 -147l-16 -35c45 -5 74 -27 74 -75
c0 -60 -61 -92 -131 -92c-18 0 -36 2 -54 6l7 48c56 -5 69 10 69 29s-23 29 -70 32l43 84c-45 4 -87 16 -114 33z" />
    <glyph glyph-name="Tcommaaccent" unicode="&#x162;" horiz-adv-x="473" 
d="M169 -105c0 39 27 64 62 64c41 0 70 -29 70 -89c0 -88 -61 -132 -92 -142l-33 46c17 11 36 32 39 61c-20 1 -46 19 -46 60zM8 700h457v-116h-165v-584h-126v584h-166v116z" />
    <glyph glyph-name="tcommaaccent" unicode="&#x163;" horiz-adv-x="291" 
d="M89 -105c0 39 27 64 62 64c41 0 70 -29 70 -89c0 -88 -61 -132 -92 -142l-33 46c17 11 36 32 39 61c-20 1 -46 19 -46 60zM59 394h-55v106h55v94l119 37v-131h97v-106h-97v-218c0 -57 10 -79 39 -79c20 0 34 4 53 12l15 -95c-29 -14 -69 -25 -112 -25
c-76 0 -114 39 -114 143v262z" />
    <glyph glyph-name="Tcaron" unicode="&#x164;" horiz-adv-x="473" 
d="M386 870v-40l-109 -93h-87l-104 94v39h91l42 -45l17 -30l17 29l45 46h88zM8 700h457v-116h-165v-584h-126v584h-166v116z" />
    <glyph glyph-name="tcaron" unicode="&#x165;" horiz-adv-x="297" 
d="M229 723h104c-5 -78 -52 -174 -80 -202l-53 26c19 48 29 115 29 176zM59 394h-55v106h55v94l119 37v-131h97v-106h-97v-218c0 -57 10 -79 39 -79c20 0 34 4 53 12l15 -95c-29 -14 -69 -25 -112 -25c-76 0 -114 39 -114 143v262z" />
    <glyph glyph-name="Umacron" unicode="&#x16a;" horiz-adv-x="515" 
d="M404 767h-289v89h289v-89zM354 251v449h119v-454c0 -181 -78 -257 -209 -257c-153 0 -222 77 -222 240v471h126v-449c0 -109 27 -147 95 -147c65 0 91 43 91 147z" />
    <glyph glyph-name="umacron" unicode="&#x16b;" horiz-adv-x="446" 
d="M39 175v325h119v-299c0 -79 12 -105 51 -105c37 0 63 31 74 70v334h119v-348c0 -55 3 -109 14 -152h-90l-21 68h-3c-25 -47 -68 -80 -132 -80c-82 0 -131 38 -131 187zM358 567h-272v91h272v-91z" />
    <glyph glyph-name="Ubreve" unicode="&#x16c;" horiz-adv-x="515" 
d="M96 840l46 35c23 -35 68 -55 119 -55c53 0 91 22 114 55l44 -31c-29 -80 -95 -114 -159 -114c-58 0 -132 30 -164 110zM354 251v449h119v-454c0 -181 -78 -257 -209 -257c-153 0 -222 77 -222 240v471h126v-449c0 -109 27 -147 95 -147c65 0 91 43 91 147z" />
    <glyph glyph-name="ubreve" unicode="&#x16d;" horiz-adv-x="446" 
d="M39 175v325h119v-299c0 -79 12 -105 51 -105c37 0 63 31 74 70v334h119v-348c0 -55 3 -109 14 -152h-90l-21 68h-3c-25 -47 -68 -80 -132 -80c-82 0 -131 38 -131 187zM78 689l56 30c19 -40 54 -60 93 -60s71 20 86 60l55 -26c-5 -68 -63 -129 -142 -129
c-76 0 -133 46 -148 125z" />
    <glyph glyph-name="Uring" unicode="&#x16e;" horiz-adv-x="515" 
d="M151 772c0 49 24 90 111 90c81 0 112 -34 112 -90c0 -48 -27 -87 -112 -87c-83 0 -111 36 -111 87zM226 772c0 -21 12 -31 36 -31c28 0 37 10 37 31c0 23 -10 34 -37 34c-24 0 -36 -11 -36 -34zM354 251v449h119v-454c0 -181 -78 -257 -209 -257c-153 0 -222 77 -222 240
v471h126v-449c0 -109 27 -147 95 -147c65 0 91 43 91 147z" />
    <glyph glyph-name="uring" unicode="&#x16f;" horiz-adv-x="446" 
d="M39 175v325h119v-299c0 -79 12 -105 51 -105c37 0 63 31 74 70v334h119v-348c0 -55 3 -109 14 -152h-90l-21 68h-3c-25 -47 -68 -80 -132 -80c-82 0 -131 38 -131 187zM122 647c0 60 33 95 97 95c61 0 98 -31 98 -95c0 -56 -35 -93 -98 -93s-97 36 -97 93zM189 647
c0 -23 13 -34 30 -34c21 0 31 11 31 34c0 25 -12 36 -31 36c-17 0 -30 -9 -30 -36z" />
    <glyph glyph-name="Uhungarumlaut" unicode="&#x170;" horiz-adv-x="515" 
d="M215 741h-86l48 109h120v-16zM356 741h-86l79 109h125v-16zM354 251v449h119v-454c0 -181 -78 -257 -209 -257c-153 0 -222 77 -222 240v471h126v-449c0 -109 27 -147 95 -147c65 0 91 43 91 147z" />
    <glyph glyph-name="uhungarumlaut" unicode="&#x171;" horiz-adv-x="446" 
d="M39 175v325h119v-299c0 -79 12 -105 51 -105c37 0 63 31 74 70v334h119v-348c0 -55 3 -109 14 -152h-90l-21 68h-3c-25 -47 -68 -80 -132 -80c-82 0 -131 38 -131 187zM179 571h-73l29 129h108v-16zM304 571h-75l60 129h114v-16z" />
    <glyph glyph-name="Uogonek" unicode="&#x172;" horiz-adv-x="515" 
d="M354 251v449h119v-454c0 -91 -19 -156 -56 -197c-15 -17 -34 -31 -55 -41c-28 -20 -42 -46 -42 -76c0 -33 26 -60 68 -39l18 -59c-17 -15 -58 -35 -101 -35c-67 0 -101 42 -101 95c0 27 9 52 26 74l21 21c-70 2 -122 21 -156 58c-35 40 -53 101 -53 182v471h126v-449
c0 -109 27 -147 95 -147c65 0 91 43 91 147z" />
    <glyph glyph-name="uogonek" unicode="&#x173;" horiz-adv-x="446" 
d="M39 175v325h119v-299c0 -79 12 -105 51 -105c37 0 63 31 74 70v334h119v-348c0 -55 3 -109 14 -152h-16c-33 -13 -50 -38 -50 -73s28 -56 72 -31l18 -62c-17 -16 -58 -36 -101 -36c-65 0 -100 37 -100 92s33 93 85 115l-19 63h-3c-25 -47 -68 -80 -132 -80
c-82 0 -131 38 -131 187z" />
    <glyph glyph-name="Zacute" unicode="&#x179;" horiz-adv-x="445" 
d="M253 752h-93l82 118h143v-30zM424 0h-403v116l234 427l42 41h-276v116h403v-116l-235 -430l-41 -38h276v-116z" />
    <glyph glyph-name="zacute" unicode="&#x17a;" horiz-adv-x="381" 
d="M355 0h-331v106l162 245l44 43h-206v106h331v-106l-160 -249l-43 -39h203v-106zM210 566h-67l42 154h119v-30z" />
    <glyph glyph-name="Zdotaccent" unicode="&#x17b;" horiz-adv-x="445" 
d="M148 799c0 33 26 61 77 61c52 0 79 -28 79 -61c0 -35 -27 -62 -79 -62c-51 0 -77 27 -77 62zM424 0h-403v116l234 427l42 41h-276v116h403v-116l-235 -430l-41 -38h276v-116z" />
    <glyph glyph-name="zdotaccent" unicode="&#x17c;" horiz-adv-x="381" 
d="M355 0h-331v106l162 245l44 43h-206v106h331v-106l-160 -249l-43 -39h203v-106zM118 641c0 40 26 69 73 69s77 -28 77 -69s-30 -67 -77 -67s-73 27 -73 67z" />
    <glyph glyph-name="longs" unicode="&#x17f;" horiz-adv-x="219" 
d="M63 394h-54v106h54v28c0 127 49 180 132 180c53 0 86 -8 117 -23l-24 -95c-24 9 -39 12 -60 12c-40 0 -46 -28 -46 -100v-502h-119v394z" />
    <glyph glyph-name="uni01F4" unicode="&#x1f4;" horiz-adv-x="502" 
d="M329 752h-93l82 118h143v-30zM372 270l-115 16v76h216v-310c-49 -47 -120 -65 -185 -65c-157 0 -259 108 -259 363c0 266 125 364 268 364c64 0 118 -13 153 -28l-26 -109c-27 12 -60 21 -111 21c-94 0 -152 -72 -152 -249c0 -169 56 -247 140 -247c27 0 52 8 71 25v143z
" />
    <glyph glyph-name="uni01F5" unicode="&#x1f5;" horiz-adv-x="443" 
d="M401 482v-482c0 -144 -70 -211 -189 -211c-83 0 -126 15 -151 30l25 101c29 -12 61 -25 108 -25c68 0 90 36 90 110v27h-3c-19 -27 -49 -39 -98 -39c-105 0 -158 75 -158 247c0 185 75 271 210 271c72 0 131 -13 166 -29zM216 94c36 0 55 18 66 50v250
c-15 7 -32 11 -56 11c-49 0 -78 -43 -78 -160c0 -101 23 -151 68 -151zM259 566h-67l42 154h119v-30z" />
    <glyph glyph-name="Scommaaccent" unicode="&#x218;" horiz-adv-x="439" 
d="M149 -105c0 39 27 64 62 64c41 0 70 -29 70 -89c0 -88 -61 -132 -92 -142l-33 46c17 11 36 32 39 61c-20 1 -46 19 -46 60zM290 180c0 126 -257 127 -257 346c0 135 88 188 201 188c68 0 129 -14 168 -37l-39 -111c-23 16 -71 32 -123 32s-81 -22 -81 -63
c0 -113 257 -127 257 -341c0 -140 -86 -207 -217 -207c-83 0 -147 18 -180 38l41 113c27 -16 77 -36 130 -36c67 0 100 26 100 78z" />
    <glyph glyph-name="scommaaccent" unicode="&#x219;" horiz-adv-x="350" 
d="M109 -105c0 39 27 64 62 64c41 0 70 -29 70 -89c0 -88 -61 -132 -92 -142l-33 46c17 11 36 32 39 61c-20 1 -46 19 -46 60zM211 133c0 85 -185 71 -185 234c0 93 51 146 150 146c59 0 114 -14 145 -33l-28 -92c-25 11 -64 23 -99 23c-33 0 -49 -14 -49 -41
c0 -74 185 -65 185 -230c0 -92 -56 -152 -167 -152c-55 0 -112 14 -144 35l33 96c28 -16 66 -30 106 -30c31 0 53 13 53 44z" />
    <glyph glyph-name="uni0237" unicode="&#x237;" horiz-adv-x="225" 
d="M54 14v486h119v-520c0 -121 -40 -187 -132 -187c-19 0 -38 2 -56 7v106c56 -5 69 34 69 108z" />
    <glyph glyph-name="afii57929" unicode="&#x2bc;" horiz-adv-x="188" 
d="M29 644c0 39 26 65 61 65c43 0 69 -32 69 -85c0 -102 -67 -144 -99 -157l-30 50c23 11 42 32 45 63c-23 1 -46 21 -46 64z" />
    <glyph glyph-name="acutecomb" unicode="&#x301;" horiz-adv-x="2" 
d="M-278 566h-67l42 154h119v-30z" />
    <glyph glyph-name="uni0394" unicode="&#x394;" horiz-adv-x="486" 
d="M478 71v-71h-468v71l195 634h76zM239 518l-18 -113l-81 -297h207l-86 298l-17 112h-5z" />
    <glyph glyph-name="uni03A9" unicode="&#x3a9;" horiz-adv-x="633" 
d="M292 0h-249v106h84l70 -12v23l-39 11c-63 37 -114 130 -114 269c0 206 109 317 272 317c171 0 273 -121 273 -321c0 -139 -53 -226 -112 -264l-41 -12v-23l70 12h84v-106h-250v188c52 13 117 80 117 204c0 110 -37 209 -141 209c-89 0 -140 -67 -140 -212
c0 -120 59 -190 116 -201v-188z" />
    <glyph glyph-name="pi" unicode="&#x3c0;" horiz-adv-x="578" 
d="M543 394h-68v-242c0 -37 10 -52 26 -52c11 0 25 3 36 6l18 -88c-24 -11 -59 -23 -111 -23c-67 0 -88 42 -88 111v288h-104v-394h-119v394h-11c-22 0 -39 -12 -50 -37l-61 59c23 56 69 84 129 84h403v-106z" />
    <glyph glyph-name="afii10023" unicode="&#x401;" horiz-adv-x="430" 
d="M60 798c0 35 18 58 69 58c47 0 66 -23 66 -58s-19 -57 -66 -57c-51 0 -69 22 -69 57zM242 798c0 35 19 58 67 58c49 0 68 -23 68 -58s-19 -57 -68 -57c-48 0 -67 22 -67 57zM399 0h-354v700h350v-116h-224v-172h203v-116h-203v-180h228v-116z" />
    <glyph glyph-name="afii10051" unicode="&#x402;" horiz-adv-x="615" 
d="M299 321v-321h-126v584h-165v116h456v-116h-165v-150c19 9 58 23 115 23c86 0 171 -45 171 -225c0 -155 -51 -238 -197 -238c-27 0 -45 1 -52 4v109c9 -1 26 -2 42 -2c51 0 75 36 75 120c0 95 -35 116 -87 116c-25 0 -54 -12 -67 -20z" />
    <glyph glyph-name="afii10052" unicode="&#x403;" horiz-adv-x="381" 
d="M248 752h-93l82 118h143v-30zM45 700h343v-116h-217v-584h-126v700z" />
    <glyph glyph-name="afii10053" unicode="&#x404;" horiz-adv-x="475" 
d="M421 134l25 -106c-35 -28 -103 -41 -160 -41c-143 0 -257 91 -257 364c0 283 131 363 260 363c65 0 118 -13 149 -26l-25 -111c-25 13 -62 21 -109 21c-80 0 -130 -58 -142 -186h223v-104h-224c8 -123 57 -206 152 -206c47 0 81 15 108 32z" />
    <glyph glyph-name="afii10054" unicode="&#x405;" horiz-adv-x="439" 
d="M290 180c0 126 -257 127 -257 346c0 135 88 188 201 188c68 0 129 -14 168 -37l-39 -111c-23 16 -71 32 -123 32s-81 -22 -81 -63c0 -113 257 -127 257 -341c0 -140 -86 -207 -217 -207c-83 0 -147 18 -180 38l41 113c27 -16 77 -36 130 -36c67 0 100 26 100 78z" />
    <glyph glyph-name="afii10055" unicode="&#x406;" horiz-adv-x="238" 
d="M182 0h-126v700h126v-700z" />
    <glyph glyph-name="afii10056" unicode="&#x407;" horiz-adv-x="245" 
d="M8 792c0 43 18 64 53 64s53 -21 53 -64c0 -41 -18 -62 -53 -62s-53 21 -53 62zM132 792c0 43 17 64 52 64s53 -21 53 -64c0 -41 -18 -62 -53 -62s-52 21 -52 62zM185 0h-126v700h126v-700z" />
    <glyph glyph-name="afii10057" unicode="&#x408;" horiz-adv-x="289" 
d="M113 218v482h126v-509c0 -123 -36 -202 -147 -202c-39 0 -78 8 -108 22l28 106c14 -9 30 -13 49 -13c47 0 52 41 52 114z" />
    <glyph glyph-name="afii10058" unicode="&#x409;" horiz-adv-x="775" 
d="M345 6v578h-106c-9 -253 -20 -423 -65 -512c-32 -64 -84 -78 -119 -78c-28 0 -48 5 -66 13l13 114c24 -9 48 -2 66 32c31 60 47 222 52 547h351v-252c16 3 54 9 80 9c112 0 206 -45 206 -224c0 -160 -74 -242 -241 -242c-30 0 -115 3 -171 15zM471 332v-220
c12 -4 33 -6 52 -6c63 0 102 32 102 121c0 94 -44 114 -102 114c-15 0 -44 -5 -52 -9z" />
    <glyph glyph-name="afii10059" unicode="&#x40a;" horiz-adv-x="791" 
d="M45 0v700h126v-276h191v276h126v-269c10 3 54 8 78 8c111 0 208 -37 208 -214c0 -161 -78 -234 -241 -234c-29 0 -118 2 -171 12v305h-191v-308h-126zM488 315v-204c11 -3 33 -5 52 -5c65 0 102 30 102 113c0 84 -40 104 -101 104c-16 0 -46 -5 -53 -8z" />
    <glyph glyph-name="afii10060" unicode="&#x40b;" horiz-adv-x="631" 
d="M299 296v-296h-126v584h-165v116h456v-116h-165v-182c28 19 76 40 143 40c95 0 156 -54 156 -193v-249h-126v211c0 83 -22 118 -78 118c-39 0 -75 -13 -95 -33z" />
    <glyph glyph-name="afii10061" unicode="&#x40c;" horiz-adv-x="519" 
d="M274 752h-93l82 118h143v-30zM511 0h-154l-159 300h-27v-300h-126v700h126v-311l25 12l147 299h142l-160 -295l-47 -37l48 -38z" />
    <glyph glyph-name="afii10062" unicode="&#x40e;" horiz-adv-x="475" 
d="M86 856l114 18c4 -41 23 -61 56 -61s52 20 56 60l102 -15c-11 -87 -67 -123 -159 -123s-158 29 -169 121zM-9 700h148l107 -305l15 -93h5l13 96l79 302h130l-156 -484c-49 -151 -80 -222 -169 -222c-36 0 -59 5 -87 23l31 106c19 -11 32 -14 48 -14c25 -1 42 25 51 76z
" />
    <glyph glyph-name="afii10145" unicode="&#x40f;" horiz-adv-x="524" 
d="M222 -174l-16 174h-161v700h126v-584h182v584h126v-700h-163l-12 -174h-82z" />
    <glyph glyph-name="afii10017" unicode="&#x410;" horiz-adv-x="501" 
d="M503 0h-132l-43 158h-165l-41 -158h-124l202 705h99zM246 535l-17 -111l-39 -162h116l-40 163l-16 110h-4z" />
    <glyph glyph-name="afii10018" unicode="&#x411;" horiz-adv-x="476" 
d="M45 6v694h367v-116h-241v-152c20 4 50 9 77 9c127 0 207 -58 207 -215s-79 -235 -234 -235c-37 0 -126 3 -176 15zM230 102c56 0 93 31 93 114c0 98 -44 113 -102 113c-15 0 -42 -4 -50 -7v-215c12 -3 38 -5 59 -5z" />
    <glyph glyph-name="afii10019" unicode="&#x412;" horiz-adv-x="490" 
d="M445 538c0 -69 -28 -141 -101 -165v-6c64 -16 118 -62 118 -170c0 -145 -106 -206 -231 -206c-37 0 -124 -1 -186 14v690c44 8 114 15 178 15c118 0 222 -31 222 -172zM234 99c56 0 96 37 96 106c0 88 -52 99 -108 99h-51v-199c11 -4 42 -6 63 -6zM171 597v-194h29
c15 0 37 2 49 5c39 15 70 48 70 101c0 70 -39 92 -90 92c-27 0 -47 -1 -58 -4z" />
    <glyph glyph-name="afii10020" unicode="&#x413;" horiz-adv-x="381" 
d="M45 700h343v-116h-217v-584h-126v700z" />
    <glyph glyph-name="afii10021" unicode="&#x414;" horiz-adv-x="576" 
d="M490 116h72v-240h-89l-12 124h-360l-12 -124h-89v240h61c16 30 76 202 73 584h356v-584zM192 116h172v468h-111c-7 -236 -36 -400 -61 -468z" />
    <glyph glyph-name="afii10022" unicode="&#x415;" horiz-adv-x="430" 
d="M399 0h-354v700h350v-116h-224v-172h203v-116h-203v-180h228v-116z" />
    <glyph glyph-name="afii10024" unicode="&#x416;" horiz-adv-x="701" 
d="M256 399h31v301h119v-313l29 14l105 299h141l-125 -308l-40 -33l49 -41l141 -318h-152l-117 305h-31v-305h-119v317l-28 -14l-118 -303h-145l139 308l46 38l-45 36l-130 318h146z" />
    <glyph glyph-name="afii10025" unicode="&#x417;" horiz-adv-x="435" 
d="M121 313h-23v102h24c20 0 55 0 72 7c36 11 65 40 65 87c0 65 -33 87 -89 87c-45 0 -87 -17 -110 -32l-32 109c28 17 99 39 168 39c102 0 195 -34 195 -175c0 -68 -27 -132 -91 -160v-6c69 -19 109 -74 109 -170c0 -153 -108 -214 -226 -214c-72 0 -135 13 -171 34l33 112
c25 -15 71 -31 131 -31c55 0 101 34 101 110c0 65 -32 97 -124 100c-15 0 -15 1 -32 1z" />
    <glyph glyph-name="afii10026" unicode="&#x418;" horiz-adv-x="547" 
d="M502 0h-126v373l10 99h-5l-38 -106l-199 -366h-99v700h126v-366l-11 -102h5l40 109l199 359h98v-700z" />
    <glyph glyph-name="afii10027" unicode="&#x419;" horiz-adv-x="547" 
d="M118 856l114 18c4 -41 23 -61 56 -61s52 20 56 60l102 -15c-11 -87 -67 -123 -159 -123s-158 29 -169 121zM502 0h-126v373l10 99h-5l-38 -106l-199 -366h-99v700h126v-366l-11 -102h5l40 109l199 359h98v-700z" />
    <glyph glyph-name="afii10028" unicode="&#x41a;" horiz-adv-x="519" 
d="M511 0h-154l-159 300h-27v-300h-126v700h126v-311l25 12l147 299h142l-160 -295l-47 -37l48 -38z" />
    <glyph glyph-name="afii10029" unicode="&#x41b;" horiz-adv-x="517" 
d="M471 0h-126v584h-106c-9 -253 -20 -423 -65 -512c-32 -64 -84 -78 -119 -78c-28 0 -48 5 -66 13l13 114c24 -9 48 -2 66 32c31 60 47 222 52 547h351v-700z" />
    <glyph glyph-name="afii10030" unicode="&#x41c;" horiz-adv-x="664" 
d="M619 0h-126v361l14 134h-5l-37 -120l-114 -246h-42l-121 247l-37 121h-6l19 -135v-362h-119v700h121l146 -303l24 -87h4l23 89l137 301h119v-700z" />
    <glyph glyph-name="afii10031" unicode="&#x41d;" horiz-adv-x="533" 
d="M488 0h-126v296h-191v-296h-126v700h126v-288h191v288h126v-700z" />
    <glyph glyph-name="afii10032" unicode="&#x41e;" horiz-adv-x="553" 
d="M29 350c0 237 80 364 247 364c173 0 248 -142 248 -364c0 -237 -84 -363 -248 -363c-175 0 -247 141 -247 363zM161 350c0 -141 31 -248 115 -248c77 0 116 75 116 248c0 137 -29 248 -116 248c-77 0 -115 -83 -115 -248z" />
    <glyph glyph-name="afii10033" unicode="&#x41f;" horiz-adv-x="524" 
d="M479 0h-126v584h-182v-584h-126v700h434v-700z" />
    <glyph glyph-name="afii10034" unicode="&#x420;" horiz-adv-x="477" 
d="M171 0h-126v693c48 11 108 17 165 17c122 0 249 -35 249 -231c0 -176 -107 -242 -223 -242c-11 0 -53 1 -65 4v-241zM171 593v-239c8 -3 37 -5 45 -5c59 0 111 27 111 131c0 89 -49 118 -105 118c-21 0 -38 -2 -51 -5z" />
    <glyph glyph-name="afii10035" unicode="&#x421;" horiz-adv-x="457" 
d="M417 134l25 -106c-35 -28 -99 -41 -156 -41c-143 0 -257 91 -257 364c0 283 131 363 260 363c65 0 114 -13 145 -26l-25 -111c-25 13 -58 21 -105 21c-92 0 -143 -77 -143 -248c0 -147 44 -248 151 -248c47 0 78 15 105 32z" />
    <glyph glyph-name="afii10036" unicode="&#x422;" horiz-adv-x="473" 
d="M8 700h457v-116h-165v-584h-126v584h-166v116z" />
    <glyph glyph-name="afii10037" unicode="&#x423;" horiz-adv-x="475" 
d="M-9 700h148l107 -305l15 -93h5l13 96l79 302h130l-156 -484c-49 -151 -80 -222 -169 -222c-36 0 -59 5 -87 23l31 106c19 -11 32 -14 48 -14c25 -1 42 25 51 76z" />
    <glyph glyph-name="afii10038" unicode="&#x424;" horiz-adv-x="670" 
d="M398 -19h-126v95c-21 -4 -42 -5 -69 -5c-106 0 -184 83 -184 279c0 187 77 290 200 290c13 0 40 -1 53 -5v85h126v-88c20 7 53 8 70 8c107 0 183 -90 183 -280c0 -194 -87 -289 -195 -289c-20 0 -42 2 -58 7v-97zM436 531c-11 0 -33 -1 -44 -5v-344c8 -3 23 -2 36 -2
c57 0 97 54 97 179c0 108 -30 172 -89 172zM237 180c9 0 29 0 41 4v345c-11 1 -25 2 -37 2c-57 0 -96 -53 -96 -180c0 -111 33 -171 92 -171z" />
    <glyph glyph-name="afii10039" unicode="&#x425;" horiz-adv-x="528" 
d="M145 0h-139l171 356l-155 344h152l81 -200l19 -76l18 76l85 200h136l-160 -337l168 -363h-147l-94 215l-21 78l-20 -78z" />
    <glyph glyph-name="afii10040" unicode="&#x426;" horiz-adv-x="563" 
d="M477 116h73v-240h-89l-13 124h-403v700h126v-584h180v584h126v-584z" />
    <glyph glyph-name="afii10041" unicode="&#x427;" horiz-adv-x="503" 
d="M34 429v271h126v-230c0 -83 22 -115 77 -115c39 0 75 12 95 35v310h126v-700h-126v282c-27 -19 -75 -39 -139 -39c-88 0 -159 46 -159 186z" />
    <glyph glyph-name="afii10042" unicode="&#x428;" horiz-adv-x="706" 
d="M661 700v-700h-616v700h126v-584h119v584h126v-584h119v584h126z" />
    <glyph glyph-name="afii10043" unicode="&#x429;" horiz-adv-x="752" 
d="M650 -124l-13 124h-592v700h126v-584h120v584h126v-584h120v584h126v-584h76v-240h-89z" />
    <glyph glyph-name="afii10044" unicode="&#x42a;" horiz-adv-x="556" 
d="M127 6v578h-130v116h256v-252c15 4 53 9 80 9c111 0 206 -45 206 -224c0 -161 -76 -242 -241 -242c-33 0 -115 3 -171 15zM253 332v-220c11 -4 32 -6 51 -6c61 0 103 30 103 121c0 94 -46 114 -102 114c-15 0 -44 -5 -52 -9z" />
    <glyph glyph-name="afii10045" unicode="&#x42b;" horiz-adv-x="668" 
d="M623 0h-126v700h126v-700zM45 6v694h126v-251c12 3 44 8 71 8c111 0 201 -43 201 -223c0 -164 -71 -243 -236 -243c-32 0 -108 2 -162 15zM171 332v-220c11 -4 28 -6 45 -6c60 0 95 33 95 122c0 92 -38 113 -94 113c-13 0 -38 -5 -46 -9z" />
    <glyph glyph-name="afii10046" unicode="&#x42c;" horiz-adv-x="475" 
d="M45 6v694h126v-252c16 3 54 9 80 9c112 0 206 -45 206 -224c0 -160 -74 -242 -241 -242c-30 0 -115 3 -171 15zM171 332v-220c12 -4 33 -6 52 -6c63 0 102 32 102 121c0 94 -44 114 -102 114c-15 0 -44 -5 -52 -9z" />
    <glyph glyph-name="afii10047" unicode="&#x42d;" horiz-adv-x="477" 
d="M317 303h-212v104h211c-5 112 -45 191 -141 191c-57 0 -100 -16 -131 -35l-29 109c43 25 110 42 167 42c161 0 266 -98 266 -363c0 -284 -127 -364 -279 -364c-65 0 -124 15 -155 31l33 112c27 -13 72 -28 127 -28c88 0 136 62 143 201z" />
    <glyph glyph-name="afii10048" unicode="&#x42e;" horiz-adv-x="743" 
d="M45 700h126v-288h71c11 191 83 302 234 302c174 0 238 -145 238 -364c0 -233 -75 -363 -239 -363c-152 0 -222 119 -233 309h-71v-296h-126v700zM368 350c0 -144 24 -248 107 -248c77 0 107 73 107 248c0 140 -20 248 -107 248c-76 0 -107 -79 -107 -248z" />
    <glyph glyph-name="afii10049" unicode="&#x42f;" horiz-adv-x="486" 
d="M441 693v-693h-126v279l-54 -19l-111 -260h-145l114 238l50 40c-71 20 -123 86 -123 207c0 170 101 225 249 225c37 0 106 -6 146 -17zM277 361h38v228c-12 4 -23 5 -40 5c-54 0 -97 -27 -97 -115c0 -84 40 -118 99 -118z" />
    <glyph glyph-name="afii10065" unicode="&#x430;" horiz-adv-x="413" 
d="M74 381l-30 89c40 24 101 40 177 40c113 0 152 -61 152 -169c0 -124 -20 -246 9 -341h-97l-19 60h-4c-21 -39 -59 -66 -118 -66c-79 0 -127 56 -127 144c0 120 92 168 237 160c7 77 -6 110 -61 110c-40 0 -86 -10 -119 -27zM187 95c36 0 58 22 69 43v83
c-61 8 -116 -8 -116 -63c0 -41 18 -63 47 -63z" />
    <glyph glyph-name="afii10066" unicode="&#x431;" horiz-adv-x="445" 
d="M120 410h3c31 57 73 81 133 81c99 0 164 -69 164 -230c0 -187 -70 -274 -195 -274c-129 0 -200 91 -200 316c0 345 106 371 236 387c57 7 104 14 124 37l2 -112c-21 -23 -62 -30 -130 -36c-83 -7 -124 -38 -137 -169zM148 244c0 -96 23 -152 74 -152c53 0 75 45 75 152
c0 92 -19 141 -70 141c-55 0 -79 -49 -79 -141z" />
    <glyph glyph-name="afii10067" unicode="&#x432;" horiz-adv-x="418" 
d="M43 1v498c37 4 99 8 162 8c125 0 172 -41 172 -125c0 -48 -22 -96 -69 -116v-4c57 -15 85 -55 85 -120c0 -100 -60 -148 -204 -148c-47 0 -109 3 -146 7zM208 217h-49v-121c13 -3 24 -3 41 -3c52 0 74 20 74 64c0 36 -18 60 -66 60zM159 405v-109h49c32 0 55 22 55 55
c0 39 -14 56 -59 56c-23 0 -34 -1 -45 -2z" />
    <glyph glyph-name="afii10068" unicode="&#x433;" horiz-adv-x="309" 
d="M43 500h271v-109h-152v-391h-119v500z" />
    <glyph glyph-name="afii10069" unicode="&#x434;" horiz-adv-x="476" 
d="M406 109h60v-222h-88l-13 113h-267l-13 -113h-86v222h47c16 29 59 142 59 391h301v-391zM165 103h122v291h-76c-5 -97 -19 -232 -46 -291z" />
    <glyph glyph-name="afii10070" unicode="&#x435;" horiz-adv-x="428" 
d="M344 120l37 -83c-33 -29 -95 -49 -158 -49c-139 0 -198 98 -198 262c0 180 75 264 202 264c84 0 168 -45 168 -196c0 -29 -3 -62 -10 -101h-243c3 -83 32 -128 103 -128c43 0 80 16 99 31zM225 412c-51 0 -75 -43 -79 -116h138c4 76 -16 116 -59 116z" />
    <glyph glyph-name="afii10072" unicode="&#x436;" horiz-adv-x="582" 
d="M232 0v217l-31 -14l-73 -203h-131l99 229l29 30l-42 38l-78 203h126l67 -203h34v203h113v-213l30 14l67 199h126l-83 -203l-33 -32l42 -40l92 -225h-135l-73 207h-33v-207h-113z" />
    <glyph glyph-name="afii10073" unicode="&#x437;" horiz-adv-x="354" 
d="M123 208h-38v89h48c36 0 61 24 61 55c0 33 -21 50 -62 50c-40 0 -71 -13 -90 -25l-27 95c35 20 95 36 155 36c95 0 143 -41 143 -124c0 -49 -21 -97 -64 -116v-4c56 -16 80 -55 80 -123c0 -84 -55 -150 -178 -150c-60 0 -106 13 -137 32l24 97c25 -15 60 -24 99 -24
c49 0 73 20 73 59c0 33 -20 53 -87 53z" />
    <glyph glyph-name="afii10074" unicode="&#x438;" horiz-adv-x="450" 
d="M407 0h-119v218l9 81h-3l-37 -85l-134 -214h-80v500h119v-227l-9 -78h3l36 83l135 222h80v-500z" />
    <glyph glyph-name="afii10075" unicode="&#x439;" horiz-adv-x="450" 
d="M85 682l101 22c4 -51 22 -72 49 -72c28 0 44 20 51 71l90 -22c-15 -91 -72 -131 -144 -131c-70 0 -136 34 -147 132zM407 0h-119v218l9 81h-3l-37 -85l-134 -214h-80v500h119v-227l-9 -78h3l36 83l135 222h80v-500z" />
    <glyph glyph-name="afii10076" unicode="&#x43a;" horiz-adv-x="409" 
d="M412 0h-134l-89 207h-27v-207h-119v500h119v-213l24 14l84 199h128l-91 -192l-44 -39l48 -39z" />
    <glyph glyph-name="afii10077" unicode="&#x43b;" horiz-adv-x="433" 
d="M390 0h-119v391h-72c-11 -232 -31 -396 -140 -396c-33 0 -57 4 -73 14l14 104c62 -21 86 26 94 387h296v-500z" />
    <glyph glyph-name="afii10078" unicode="&#x43c;" horiz-adv-x="555" 
d="M512 0h-113v230l7 103h-5l-30 -93l-73 -150h-45l-80 150l-31 93h-6l13 -103v-230h-106v500h125l91 -184l20 -67h4l21 69l84 182h124v-500z" />
    <glyph glyph-name="afii10079" unicode="&#x43d;" horiz-adv-x="444" 
d="M401 0h-119v199h-120v-199h-119v500h119v-192h120v192h119v-500z" />
    <glyph glyph-name="afii10080" unicode="&#x43e;" horiz-adv-x="445" 
d="M25 250c0 177 73 263 197 263c133 0 198 -88 198 -263c0 -179 -73 -262 -198 -262c-131 0 -197 87 -197 262zM148 250c0 -100 21 -157 74 -157c51 0 75 42 75 157c0 103 -20 157 -75 157c-47 0 -74 -42 -74 -157z" />
    <glyph glyph-name="afii10081" unicode="&#x43f;" horiz-adv-x="440" 
d="M397 0h-119v391h-116v-391h-119v500h354v-500z" />
    <glyph glyph-name="afii10082" unicode="&#x440;" horiz-adv-x="447" 
d="M162 -199h-119v699h89l12 -57h3c31 48 66 69 122 69c101 0 153 -70 153 -249s-66 -276 -187 -276c-32 0 -53 5 -73 16v-202zM162 347v-235c13 -13 28 -20 55 -20c53 0 82 47 82 174c0 95 -20 140 -69 140c-33 0 -56 -20 -68 -59z" />
    <glyph glyph-name="afii10083" unicode="&#x441;" horiz-adv-x="350" 
d="M313 119l25 -92c-33 -27 -83 -39 -130 -39c-135 0 -183 102 -183 262c0 175 64 263 185 263c60 0 95 -12 124 -28l-28 -99c-24 12 -43 18 -74 18c-56 0 -84 -46 -84 -154c0 -91 27 -154 90 -154c33 0 55 10 75 23z" />
    <glyph glyph-name="afii10084" unicode="&#x442;" horiz-adv-x="344" 
d="M1 500h342v-109h-109v-391h-119v391h-114v109z" />
    <glyph glyph-name="afii10085" unicode="&#x443;" horiz-adv-x="400" 
d="M-9 500h142l70 -281l13 -78h5l9 79l58 280h122l-125 -451c-44 -156 -74 -253 -154 -253c-28 0 -55 4 -74 15l20 102c37 -14 71 0 87 87z" />
    <glyph glyph-name="afii10086" unicode="&#x444;" horiz-adv-x="585" 
d="M352 -199h-119v194c-19 -8 -41 -8 -57 -8c-100 0 -155 82 -155 263c0 175 60 260 172 260c15 0 28 -1 40 -4v194h119v-195c20 4 33 5 48 5c108 0 164 -69 164 -250c0 -175 -59 -273 -167 -273c-11 0 -34 2 -45 7v-193zM373 410c-11 0 -16 -2 -27 -5v-316
c8 -2 18 -3 31 -3c46 0 68 42 68 174c0 113 -21 150 -72 150zM208 86c11 0 19 2 30 5v315c-9 3 -18 4 -28 4c-45 0 -70 -36 -70 -160c0 -113 21 -164 68 -164z" />
    <glyph glyph-name="afii10087" unicode="&#x445;" horiz-adv-x="439" 
d="M132 0h-128l129 256l-119 244h140l51 -118l19 -64l21 64l52 118h129l-120 -240l128 -260h-135l-61 130l-22 71l-23 -71z" />
    <glyph glyph-name="afii10088" unicode="&#x446;" horiz-adv-x="464" 
d="M394 109h60v-222h-87l-13 113h-311v500h119v-391h113v391h119v-391z" />
    <glyph glyph-name="afii10089" unicode="&#x447;" horiz-adv-x="419" 
d="M24 322v178h119v-134c0 -71 8 -100 51 -100c29 0 50 10 63 21v213h119v-500h-119v194c-16 -13 -48 -34 -104 -34c-80 0 -129 37 -129 162z" />
    <glyph glyph-name="afii10090" unicode="&#x448;" horiz-adv-x="627" 
d="M584 500v-500h-541v500h119v-391h92v391h119v-391h92v391h119z" />
    <glyph glyph-name="afii10091" unicode="&#x449;" horiz-adv-x="653" 
d="M584 109h59v-238h-88l-12 129h-500v500h119v-391h92v391h119v-391h92v391h119v-391z" />
    <glyph glyph-name="afii10092" unicode="&#x44a;" horiz-adv-x="454" 
d="M204 233v-128c14 -4 28 -6 43 -6c48 0 68 19 68 70c0 47 -22 70 -66 70c-16 0 -31 -2 -45 -6zM-4 500h208v-178c27 5 54 7 77 7c113 0 157 -64 157 -155c0 -120 -51 -180 -206 -180c-63 0 -108 3 -147 6v391h-89v109z" />
    <glyph glyph-name="afii10093" unicode="&#x44b;" horiz-adv-x="591" 
d="M162 233v-128c14 -4 28 -6 43 -6c43 0 59 20 59 71c0 47 -15 69 -58 69c-15 0 -30 -2 -44 -6zM43 500h119v-178c27 5 56 7 79 7c109 0 146 -66 146 -155c0 -120 -49 -180 -195 -180c-64 0 -112 3 -149 6v500zM549 0h-119v500h119v-500z" />
    <glyph glyph-name="afii10094" unicode="&#x44c;" horiz-adv-x="411" 
d="M162 232v-127c14 -4 29 -6 44 -6c47 0 66 19 66 70c0 45 -19 70 -64 70c-17 0 -33 -2 -46 -7zM43 500h119v-178c27 5 56 7 79 7c113 0 154 -66 154 -155c0 -120 -51 -180 -198 -180c-69 0 -117 3 -154 6v500z" />
    <glyph glyph-name="afii10095" unicode="&#x44d;" horiz-adv-x="377" 
d="M229 208h-144v90h144c-4 72 -27 110 -86 110c-41 0 -71 -9 -94 -24l-32 90c36 27 86 40 149 40c123 0 186 -85 186 -264s-72 -262 -197 -262c-49 0 -108 10 -140 28l28 99c27 -15 59 -22 94 -22c65 0 89 35 92 115z" />
    <glyph glyph-name="afii10096" unicode="&#x44e;" horiz-adv-x="611" 
d="M400 -11c-124 0 -172 76 -181 215h-57v-204h-119v500h119v-190h58c12 133 65 202 182 202c128 0 184 -95 184 -262c0 -175 -62 -261 -186 -261zM332 250c0 -103 17 -156 68 -156c44 0 63 33 63 156c0 109 -16 156 -65 156c-45 0 -66 -40 -66 -156z" />
    <glyph glyph-name="afii10097" unicode="&#x44f;" horiz-adv-x="421" 
d="M381 0h-119v189l-45 -12l-71 -177h-139l76 161l39 32c-53 13 -90 67 -90 144c0 121 64 177 209 176c56 0 107 -6 140 -14v-499zM234 254l28 2v144c-10 5 -22 7 -37 7c-47 0 -70 -26 -70 -77c0 -49 26 -75 79 -76z" />
    <glyph glyph-name="afii10071" unicode="&#x451;" horiz-adv-x="428" 
d="M344 120l37 -83c-33 -29 -95 -49 -158 -49c-139 0 -198 98 -198 262c0 180 75 264 202 264c84 0 168 -45 168 -196c0 -29 -3 -62 -10 -101h-243c3 -83 32 -128 103 -128c43 0 80 16 99 31zM225 412c-51 0 -75 -43 -79 -116h138c4 76 -16 116 -59 116zM64 633
c0 43 25 68 64 68c37 0 62 -25 62 -68c0 -40 -25 -65 -62 -65c-39 0 -64 25 -64 65zM250 633c0 43 24 68 63 68s63 -25 63 -68c0 -40 -24 -65 -63 -65s-63 25 -63 65z" />
    <glyph glyph-name="afii10099" unicode="&#x452;" horiz-adv-x="457" 
d="M-7 500h58v200h119v-200h133v-79h-133v-124h4c24 39 61 63 121 63c80 0 123 -44 123 -177v-213c0 -112 -39 -175 -131 -175c-17 0 -37 2 -58 7v102c57 -5 70 32 70 99v150c0 73 -14 98 -57 98c-32 0 -61 -23 -72 -56v-195h-119v421h-58v79z" />
    <glyph glyph-name="afii10100" unicode="&#x453;" horiz-adv-x="309" 
d="M197 566h-67l42 154h119v-30zM43 500h271v-109h-152v-391h-119v500z" />
    <glyph glyph-name="afii10101" unicode="&#x454;" horiz-adv-x="371" 
d="M331 119l25 -94c-31 -24 -87 -36 -135 -36c-133 0 -194 103 -194 261c0 169 76 262 199 262c60 0 97 -10 126 -26l-29 -101c-25 13 -50 18 -79 18c-47 0 -82 -32 -93 -107h151v-86h-152c8 -68 40 -113 100 -113c33 0 60 9 81 22z" />
    <glyph glyph-name="afii10102" unicode="&#x455;" horiz-adv-x="350" 
d="M211 133c0 85 -185 71 -185 234c0 93 51 146 150 146c59 0 114 -14 145 -33l-28 -92c-25 11 -64 23 -99 23c-33 0 -49 -14 -49 -41c0 -74 185 -65 185 -230c0 -92 -56 -152 -167 -152c-55 0 -112 14 -144 35l33 96c28 -16 66 -30 106 -30c31 0 53 13 53 44z" />
    <glyph glyph-name="afii10103" unicode="&#x456;" horiz-adv-x="225" 
d="M172 0h-119v500h119v-500zM39 641c0 40 26 69 73 69s77 -28 77 -69s-30 -67 -77 -67s-73 27 -73 67z" />
    <glyph glyph-name="afii10104" unicode="&#x457;" horiz-adv-x="274" 
d="M16 629c0 43 17 68 56 68s55 -25 55 -68c0 -39 -16 -66 -55 -66s-56 27 -56 66zM147 629c0 43 16 68 55 68c40 0 57 -25 57 -68c0 -39 -17 -66 -57 -66c-39 0 -55 27 -55 66zM194 0h-119v500h119v-500z" />
    <glyph glyph-name="afii10105" unicode="&#x458;" horiz-adv-x="225" 
d="M39 641c0 40 26 69 73 69s77 -28 77 -69s-30 -67 -77 -67s-73 27 -73 67zM54 14v486h119v-520c0 -121 -40 -187 -132 -187c-19 0 -38 2 -56 7v106c56 -5 69 34 69 108z" />
    <glyph glyph-name="afii10106" unicode="&#x459;" horiz-adv-x="651" 
d="M106 500h296v-178c27 5 56 7 79 7c113 0 154 -66 154 -155c0 -120 -51 -180 -198 -180c-69 0 -117 3 -154 6v391h-71c-11 -232 -32 -396 -141 -396c-33 0 -57 4 -73 14l13 104c63 -21 87 26 95 387zM402 232v-127c14 -4 29 -6 44 -6c47 0 66 19 66 70c0 45 -19 70 -64 70
c-17 0 -33 -2 -46 -7z" />
    <glyph glyph-name="afii10107" unicode="&#x45a;" horiz-adv-x="651" 
d="M401 229v-124c14 -4 29 -6 44 -6c47 0 67 20 67 71c0 47 -20 65 -65 65c-17 0 -32 -2 -46 -6zM282 500h119v-180c27 4 56 6 79 6c112 0 155 -64 155 -152c0 -120 -52 -180 -199 -180c-69 0 -117 3 -154 6v203h-120v-203h-119v500h119v-188h120v188z" />
    <glyph glyph-name="afii10108" unicode="&#x45b;" horiz-adv-x="457" 
d="M51 421h-58v79h58v200h119v-200h133v-79h-133v-122h4c24 36 61 61 121 61c80 0 123 -45 123 -178v-182h-119v155c0 68 -14 96 -57 96c-32 0 -61 -23 -72 -58v-193h-119v421z" />
    <glyph glyph-name="afii10109" unicode="&#x45c;" horiz-adv-x="409" 
d="M226 566h-67l42 154h119v-30zM412 0h-134l-89 207h-27v-207h-119v500h119v-213l24 14l84 199h128l-91 -192l-44 -39l48 -39z" />
    <glyph glyph-name="afii10110" unicode="&#x45e;" horiz-adv-x="400" 
d="M62 682l101 22c4 -51 22 -72 49 -72c28 0 44 20 51 71l90 -22c-15 -91 -72 -131 -144 -131c-70 0 -136 34 -147 132zM-9 500h142l70 -281l13 -78h5l9 79l58 280h122l-125 -451c-44 -156 -74 -253 -154 -253c-28 0 -55 4 -74 15l20 102c37 -14 71 0 87 87z" />
    <glyph glyph-name="afii10193" unicode="&#x45f;" horiz-adv-x="438" 
d="M180 -174l-16 174h-121v500h119v-391h115v391h119v-500h-122l-12 -174h-82z" />
    <glyph glyph-name="afii10146" unicode="&#x462;" horiz-adv-x="545" 
d="M115 536h-115v109h115v80h126v-80h163v-109h-163v-95c12 3 52 8 78 8c113 0 208 -42 208 -217c0 -160 -74 -241 -241 -241c-30 0 -115 3 -171 15v530zM241 332v-220c12 -4 33 -6 52 -6c61 0 102 32 102 121c0 93 -45 113 -101 113c-15 0 -44 -4 -53 -8z" />
    <glyph glyph-name="afii10194" unicode="&#x463;" horiz-adv-x="454" 
d="M85 409h-89v91h89v200h119v-200h132v-91h-132v-87c27 5 56 7 79 7c112 0 155 -66 155 -155c0 -120 -52 -180 -205 -180c-64 0 -109 3 -148 6v409zM204 232v-127c14 -4 28 -6 43 -6c48 0 68 24 68 72c0 43 -20 67 -65 67c-17 0 -32 -2 -46 -6z" />
    <glyph glyph-name="afii10147" unicode="&#x472;" horiz-adv-x="552" 
d="M29 350c0 237 80 364 247 364c174 0 247 -142 247 -364c0 -237 -83 -363 -247 -363c-175 0 -247 141 -247 363zM276 102c69 0 109 60 116 197h-231c8 -116 39 -197 115 -197zM161 405h230c-8 111 -40 193 -115 193c-69 0 -107 -64 -115 -193z" />
    <glyph glyph-name="afii10195" unicode="&#x473;" horiz-adv-x="445" 
d="M25 250c0 172 72 264 197 264c133 0 198 -102 198 -264c0 -173 -73 -263 -198 -263c-133 0 -197 101 -197 263zM148 289h149c-7 88 -33 119 -74 119c-39 0 -70 -28 -75 -119zM297 208h-149c4 -81 35 -116 74 -116s70 27 75 116z" />
    <glyph glyph-name="afii10148" unicode="&#x474;" horiz-adv-x="528" 
d="M444 508l-147 -512h-96l-212 704h147l104 -411l14 -120h4l13 121l55 229c36 148 71 190 152 190c43 0 68 -9 92 -22l-26 -112c-19 11 -31 13 -46 13c-27 0 -40 -29 -54 -80z" />
    <glyph glyph-name="afii10196" unicode="&#x475;" horiz-adv-x="436" 
d="M170 -4l-178 504h138l68 -255l13 -84h4l10 85l18 71c35 138 63 192 135 192c28 0 55 -6 74 -17l-17 -103c-11 5 -19 7 -26 7c-19 0 -36 -15 -53 -67l-110 -333h-76z" />
    <glyph glyph-name="uni048A" unicode="&#x48a;" horiz-adv-x="589" 
d="M463 0h-87v373l10 99h-5l-38 -106l-199 -366h-99v700h126v-366l-11 -102h5l40 109l199 359h98v-591h92v-31l-80 -207h-88zM107 856l114 18c4 -41 23 -61 56 -61s52 20 56 60l102 -15c-11 -87 -67 -123 -159 -123s-158 29 -169 121z" />
    <glyph glyph-name="uni048B" unicode="&#x48b;" horiz-adv-x="491" 
d="M362 0h-74v218l9 81h-3l-37 -85l-134 -214h-80v500h119v-227l-9 -78h3l36 83l135 222h80v-391h86v-31l-80 -207h-88zM87 682l101 22c4 -51 22 -72 49 -72c28 0 44 20 51 71l90 -22c-15 -91 -72 -131 -144 -131c-70 0 -136 34 -147 132z" />
    <glyph glyph-name="uni048C" unicode="&#x48c;" horiz-adv-x="507" 
d="M77 6v606h-77v85h77v83h126v-83h109v-85h-109v-164c13 4 50 9 77 9c115 0 209 -46 209 -225c0 -160 -74 -241 -241 -241c-30 0 -115 3 -171 15zM203 335v-223c11 -4 32 -6 52 -6c60 0 102 31 102 122c0 93 -45 116 -102 116c-15 0 -44 -5 -52 -9z" />
    <glyph glyph-name="uni048D" unicode="&#x48d;" horiz-adv-x="454" 
d="M85 409h-89v91h89v200h119v-200h132v-91h-132v-87c27 5 56 7 79 7c112 0 155 -66 155 -155c0 -120 -52 -180 -205 -180c-64 0 -109 3 -148 6v409zM204 232v-127c14 -4 28 -6 43 -6c48 0 68 24 68 72c0 43 -20 67 -65 67c-17 0 -32 -2 -46 -6z" />
    <glyph glyph-name="uni048E" unicode="&#x48e;" horiz-adv-x="477" 
d="M171 0h-126v693c48 11 108 17 165 17c122 0 249 -35 249 -231c0 -87 -26 -145 -66 -184l51 -75l-75 -63l-65 89c-22 -6 -45 -9 -68 -9c-11 0 -53 1 -65 4v-241zM260 355l-49 72l36 54l60 -88c12 20 20 48 20 87c0 89 -49 118 -105 118c-21 0 -38 -2 -51 -5v-239
c8 -3 37 -5 45 -5c15 0 30 2 44 6z" />
    <glyph glyph-name="uni048F" unicode="&#x48f;" horiz-adv-x="447" 
d="M162 -199h-119v699h89l12 -57h3c31 48 66 69 122 69c101 0 153 -70 153 -249c0 -91 -17 -161 -50 -208l39 -52l-71 -64l-47 57c-17 -6 -37 -9 -58 -9c-32 0 -53 5 -73 16v-202zM248 98l-42 54l32 41l44 -54c11 28 17 68 17 127c0 95 -20 140 -69 140
c-33 0 -56 -20 -68 -59v-235c13 -13 28 -20 55 -20c11 0 22 2 31 6z" />
    <glyph glyph-name="afii10050" unicode="&#x490;" horiz-adv-x="381" 
d="M307 852h81v-268h-217v-584h-126v700h245z" />
    <glyph glyph-name="afii10098" unicode="&#x491;" horiz-adv-x="309" 
d="M233 652h81v-261h-152v-391h-119v500h173z" />
    <glyph glyph-name="uni0492" unicode="&#x492;" horiz-adv-x="424" 
d="M80 700h343v-116h-217v-200h181v-87h-181v-297h-126v297h-79v87h79v316z" />
    <glyph glyph-name="uni0493" unicode="&#x493;" horiz-adv-x="338" 
d="M63 500h271v-109h-152v-117h134v-79h-134v-195h-119v195h-63v79h63v226z" />
    <glyph glyph-name="uni0494" unicode="&#x494;" horiz-adv-x="485" 
d="M171 262v-262h-126v700h343v-116h-217v-209c19 8 59 22 108 22c95 0 178 -50 178 -254c0 -178 -51 -269 -198 -269c-27 0 -44 1 -51 4v111c8 -3 26 -2 43 -2c51 0 74 43 74 151c0 114 -34 143 -87 143c-24 0 -52 -11 -67 -19z" />
    <glyph glyph-name="uni0495" unicode="&#x495;" horiz-adv-x="443" 
d="M162 156v-156h-119v500h268v-109h-149v-132c19 8 51 21 102 21c83 0 154 -44 154 -238c0 -167 -46 -252 -187 -252c-29 0 -44 2 -52 5v106c7 -1 25 -2 42 -2c49 0 71 39 71 142c0 101 -27 130 -71 130c-24 0 -48 -8 -59 -15z" />
    <glyph glyph-name="uni0496" unicode="&#x496;" horiz-adv-x="726" 
d="M256 399h31v301h119v-313l29 14l105 299h141l-125 -308l-40 -33l49 -41l89 -202h69v-240h-89l-13 124h-67l-117 305h-31v-305h-119v317l-28 -14l-118 -303h-145l139 308l46 38l-45 36l-130 318h146z" />
    <glyph glyph-name="uni0497" unicode="&#x497;" horiz-adv-x="612" 
d="M508 0h-57l-73 207h-33v-207h-113v217l-31 -14l-73 -203h-131l99 229l29 30l-42 38l-78 203h126l67 -203h34v203h113v-213l30 14l67 199h126l-83 -203l-33 -32l42 -40l47 -116h68v-222h-88z" />
    <glyph glyph-name="uni0498" unicode="&#x498;" horiz-adv-x="435" 
d="M121 313h-23v102h24c20 0 55 0 72 7c36 11 65 40 65 87c0 65 -33 87 -89 87c-45 0 -87 -17 -110 -32l-32 109c28 17 99 39 168 39c102 0 195 -34 195 -175c0 -68 -27 -132 -91 -160v-6c69 -19 109 -74 109 -170c0 -131 -80 -195 -176 -210l-11 -165h-82l-15 164
c-47 7 -86 16 -113 31l33 112c25 -15 71 -31 131 -31c55 0 101 34 101 110c0 65 -32 97 -124 100c-15 0 -15 1 -32 1z" />
    <glyph glyph-name="uni0499" unicode="&#x499;" horiz-adv-x="354" 
d="M123 208h-38v89h48c36 0 61 24 61 55c0 33 -21 50 -62 50c-40 0 -71 -13 -90 -25l-27 95c35 20 95 36 155 36c95 0 143 -41 143 -124c0 -49 -21 -97 -64 -116v-4c56 -16 80 -55 80 -123s-35 -125 -115 -143l-12 -172h-82l-16 168c-39 5 -67 14 -90 29l24 97
c25 -15 60 -24 99 -24c49 0 73 20 73 59c0 33 -20 53 -87 53z" />
    <glyph glyph-name="uni049A" unicode="&#x49a;" horiz-adv-x="534" 
d="M428 0h-71l-159 300h-27v-300h-126v700h126v-311l25 12l147 299h142l-160 -295l-47 -37l48 -38l120 -214h83v-240h-89z" />
    <glyph glyph-name="uni049B" unicode="&#x49b;" horiz-adv-x="440" 
d="M333 0h-55l-89 207h-27v-207h-119v500h119v-213l24 14l84 199h128l-91 -192l-44 -39l48 -39l53 -121h70v-222h-88z" />
    <glyph glyph-name="uni049C" unicode="&#x49c;" horiz-adv-x="604" 
d="M171 390l45 4v133h83v-125l19 2l120 296h135l-130 -294l-47 -38l47 -39l153 -329h-145l-130 299h-22v-127h-83v127h-45v-299h-126v700h126v-310z" />
    <glyph glyph-name="uni049D" unicode="&#x49d;" horiz-adv-x="491" 
d="M162 287l33 4v120h65v-112l18 2l65 199h125l-72 -193l-45 -38l47 -38l83 -231h-130l-69 207h-22v-118h-65v118h-33v-207h-119v500h119v-213z" />
    <glyph glyph-name="uni049E" unicode="&#x49e;" horiz-adv-x="579" 
d="M106 544h-105v96h105v60h126v-60h73v-85h-73v-166l44 14l132 297h138l-144 -294l-58 -38l53 -39l174 -329h-153l-148 300h-38v-300h-126v544z" />
    <glyph glyph-name="uni049F" unicode="&#x49f;" horiz-adv-x="419" 
d="M51 547h-65v79h65v74h119v-74h126v-79h-126v-260l24 14l83 199h129l-92 -198l-43 -34l47 -34l102 -234h-134l-88 207h-28v-207h-119v547z" />
    <glyph glyph-name="uni04A0" unicode="&#x4a0;" horiz-adv-x="604" 
d="M131 0v563v21h-131v116h257v-311l25 12l147 299h142l-160 -295l-47 -37l47 -38l185 -330h-153l-159 300h-27v-300h-126z" />
    <glyph glyph-name="uni04A1" unicode="&#x4a1;" horiz-adv-x="453" 
d="M-4 500h208v-213l25 13l84 200h127l-90 -190l-45 -38l47 -39l102 -233h-134l-88 207h-28v-207h-119v391h-89v109z" />
    <glyph glyph-name="uni04A2" unicode="&#x4a2;" horiz-adv-x="575" 
d="M460 0h-98v296h-191v-296h-126v700h126v-288h191v288h126v-584h73v-240h-89z" />
    <glyph glyph-name="uni04A3" unicode="&#x4a3;" horiz-adv-x="472" 
d="M364 0h-82v199h-120v-199h-119v500h119v-192h120v192h119v-391h64v-222h-88z" />
    <glyph glyph-name="uni04A4" unicode="&#x4a4;" horiz-adv-x="697" 
d="M362 700h343v-116h-217v-584h-126v296h-191v-296h-126v700h126v-288h191v288z" />
    <glyph glyph-name="uni04A5" unicode="&#x4a5;" horiz-adv-x="546" 
d="M282 500h269v-109h-150v-391h-119v199h-120v-199h-119v500h119v-192h120v192z" />
    <glyph glyph-name="uni04A6" unicode="&#x4a6;" horiz-adv-x="791" 
d="M479 262v-29v-233h-126v584h-182v-584h-126v700h434v-325c19 8 58 22 107 22c95 0 179 -50 179 -254c0 -171 -49 -269 -198 -269c-27 0 -45 1 -52 4v111c8 -3 26 -2 43 -2c51 0 75 46 75 151c0 109 -34 143 -88 143c-23 0 -54 -11 -66 -19z" />
    <glyph glyph-name="uni04A7" unicode="&#x4a7;" horiz-adv-x="677" 
d="M397 156v-156h-119v391h-116v-391h-119v500h354v-240c19 8 51 20 102 20c80 0 153 -46 153 -235c0 -171 -46 -255 -189 -255c-28 0 -41 2 -50 5v106c8 -1 26 -2 43 -2c49 0 73 42 73 141c0 100 -29 131 -73 131c-23 0 -47 -8 -59 -15z" />
    <glyph glyph-name="uni04A8" unicode="&#x4a8;" horiz-adv-x="742" 
d="M295 714v-116c-85 0 -134 -75 -134 -242c0 -163 76 -254 154 -254c13 0 30 1 38 5c-47 41 -86 136 -86 260c0 208 80 313 216 313c147 0 206 -118 206 -282c0 -151 -63 -260 -111 -295c7 -1 15 -1 22 -1c29 0 61 11 81 28l39 -101c-29 -29 -71 -42 -126 -42
c-45 0 -100 14 -131 47c-39 -31 -83 -47 -148 -47c-187 0 -286 132 -286 364c0 241 85 363 266 363zM399 371c0 -83 25 -177 78 -224c45 43 80 136 80 245c0 97 -16 172 -76 172c-51 0 -82 -62 -82 -193z" />
    <glyph glyph-name="uni04A9" unicode="&#x4a9;" horiz-adv-x="598" 
d="M226 514v-106c-56 -5 -79 -55 -79 -155s40 -160 100 -160c11 0 24 1 31 8c-27 27 -52 92 -52 169c0 112 41 230 172 230c126 0 166 -97 166 -208c0 -91 -41 -172 -78 -201c23 -11 56 -3 75 16l25 -86c-21 -21 -54 -33 -101 -33c-48 0 -83 15 -106 40
c-36 -30 -83 -40 -134 -40c-147 0 -221 101 -221 262c0 154 53 259 202 264zM341 268c0 -60 17 -114 48 -146c32 28 52 91 52 163c0 68 -15 109 -47 109c-43 0 -53 -49 -53 -126z" />
    <glyph glyph-name="uni04AA" unicode="&#x4aa;" horiz-adv-x="457" 
d="M417 134l25 -106c-24 -20 -63 -32 -103 -37l-11 -165h-82l-15 166c-117 20 -202 123 -202 359c0 283 131 363 260 363c65 0 114 -13 145 -26l-25 -111c-25 13 -58 21 -105 21c-92 0 -143 -77 -143 -248c0 -147 44 -248 151 -248c47 0 78 15 105 32z" />
    <glyph glyph-name="uni04AB" unicode="&#x4ab;" horiz-adv-x="350" 
d="M313 119l25 -92c-20 -16 -44 -27 -73 -32l-11 -169h-82l-16 168c-95 23 -131 117 -131 256c0 175 64 263 185 263c60 0 95 -12 124 -28l-28 -99c-24 12 -43 18 -74 18c-56 0 -84 -46 -84 -154c0 -91 27 -154 90 -154c33 0 55 10 75 23z" />
    <glyph glyph-name="uni04AC" unicode="&#x4ac;" horiz-adv-x="473" 
d="M272 0h-98v584h-166v116h457v-116h-165v-468h73v-240h-89z" />
    <glyph glyph-name="uni04AD" unicode="&#x4ad;" horiz-adv-x="347" 
d="M203 0h-88v391h-114v109h342v-109h-109v-282h70v-222h-88z" />
    <glyph glyph-name="uni04AE" unicode="&#x4ae;" horiz-adv-x="495" 
d="M310 0h-126v260l-187 440h149l97 -265l10 -76h5l11 78l95 263h135l-189 -439v-261z" />
    <glyph glyph-name="uni04AF" unicode="&#x4af;" horiz-adv-x="408" 
d="M150 -199v199l-158 500h138l69 -290l13 -100h4l10 101l62 289h129l-148 -500v-199h-119z" />
    <glyph glyph-name="uni04B0" unicode="&#x4b0;" horiz-adv-x="495" 
d="M184 206h-128v86h114l-173 408h149l97 -265l10 -76h5l11 78l95 263h135l-176 -408h115v-86h-128v-206h-126v206z" />
    <glyph glyph-name="uni04B1" unicode="&#x4b1;" horiz-adv-x="408" 
d="M150 -78h-97v78h96l-157 500h138l69 -290l13 -100h4l10 101l62 289h129l-148 -500h95v-78h-95v-121h-119v121z" />
    <glyph glyph-name="uni04B2" unicode="&#x4b2;" horiz-adv-x="558" 
d="M145 0h-139l171 356l-155 344h152l81 -200l19 -76l18 76l85 200h136l-160 -337l114 -247h86v-240h-89l-12 124h-78l-94 215l-21 78l-20 -78z" />
    <glyph glyph-name="uni04B3" unicode="&#x4b3;" horiz-adv-x="455" 
d="M132 0h-128l129 256l-119 244h140l51 -118l19 -64l21 64l52 118h129l-120 -240l74 -151h70v-222h-88l-13 113h-50l-61 130l-22 71l-23 -71z" />
    <glyph glyph-name="uni04B4" unicode="&#x4b4;" horiz-adv-x="691" 
d="M605 116h73v-240h-89l-13 124h-403v584h-165v116h398v-116h-107v-468h180v584h126v-584z" />
    <glyph glyph-name="uni04B5" unicode="&#x4b5;" horiz-adv-x="540" 
d="M469 109h60v-222h-88l-12 113h-314v391h-114v109h308v-109h-75v-282h116v391h119v-391z" />
    <glyph glyph-name="uni04B6" unicode="&#x4b6;" horiz-adv-x="545" 
d="M34 429v271h126v-230c0 -83 22 -115 77 -115c39 0 75 12 95 35v310h126v-584h73v-240h-89l-12 124h-98v282c-27 -19 -75 -39 -139 -39c-88 0 -159 46 -159 186z" />
    <glyph glyph-name="uni04B7" unicode="&#x4b7;" horiz-adv-x="453" 
d="M24 322v178h119v-134c0 -71 8 -100 51 -100c29 0 50 10 63 21v213h119v-391h68v-222h-88l-13 113h-86v194c-16 -13 -48 -34 -104 -34c-80 0 -129 37 -129 162z" />
    <glyph glyph-name="uni04B8" unicode="&#x4b8;" horiz-adv-x="543" 
d="M310 122h-84v122c-9 -1 -17 -1 -25 -1c-103 0 -167 52 -167 187v270h126v-229c0 -75 17 -108 66 -115v121h84v-114c26 6 47 15 62 26v311h126v-700h-126v283c-15 -9 -35 -19 -62 -26v-135z" />
    <glyph glyph-name="uni04B9" unicode="&#x4b9;" horiz-adv-x="456" 
d="M255 59h-66v100c-11 -1 -18 -1 -29 -1c-88 0 -137 39 -137 172v170h119v-126c0 -68 11 -102 47 -110v122h66v-117c18 4 31 10 39 18v213h119v-500h-119v194c-8 -6 -21 -13 -39 -20v-115z" />
    <glyph glyph-name="uni04BA" unicode="&#x4ba;" horiz-adv-x="506" 
d="M470 266v-266h-126v227c0 80 -20 119 -77 119c-39 0 -75 -13 -96 -34v-312h-126v700h126v-282c28 19 76 40 143 40c94 0 156 -51 156 -192z" />
    <glyph glyph-name="uni04BB" unicode="&#x4bb;" horiz-adv-x="449" 
d="M410 328v-328h-119v302c0 72 -14 102 -58 102c-32 0 -62 -25 -71 -60v-344h-119v700h119v-245h3c27 35 63 58 120 58c82 0 125 -42 125 -185z" />
    <glyph glyph-name="uni04BC" unicode="&#x4bc;" horiz-adv-x="667" 
d="M623 296h-323c5 -121 47 -194 146 -194c48 0 88 19 127 48l32 -109c-53 -37 -114 -54 -183 -54c-153 0 -241 105 -248 309h-25c-113 0 -149 65 -149 144c0 32 10 63 22 82h103c-13 -21 -18 -46 -18 -66c0 -24 9 -54 67 -49c8 188 88 307 235 307c152 0 223 -101 223 -293
c0 -39 -3 -80 -9 -125zM299 405h210c1 15 2 26 2 41c0 84 -28 159 -99 159c-75 0 -109 -77 -113 -200z" />
    <glyph glyph-name="uni04BD" unicode="&#x4bd;" horiz-adv-x="543" 
d="M466 120l37 -83c-33 -29 -95 -49 -158 -49c-127 0 -188 88 -197 229h-8c-88 0 -139 38 -137 127c1 39 12 62 28 83h99c-17 -16 -30 -46 -30 -81c0 -25 11 -47 50 -46c15 141 86 214 199 214c84 0 168 -45 168 -196c0 -29 -3 -62 -10 -101h-243c3 -83 32 -128 103 -128
c43 0 80 16 99 31zM347 412c-51 0 -75 -43 -79 -116h138c4 76 -16 116 -59 116z" />
    <glyph glyph-name="uni04BE" unicode="&#x4be;" horiz-adv-x="661" 
d="M623 296h-323c5 -121 47 -194 146 -194c48 0 88 19 127 48l32 -109c-39 -27 -82 -43 -130 -50l-11 -165h-82l-15 166c-120 22 -186 125 -193 304h-25c-113 0 -149 65 -149 144c0 32 10 63 22 82h103c-13 -21 -18 -46 -18 -66c0 -24 9 -54 67 -49c8 188 88 307 235 307
c152 0 223 -101 223 -293c0 -39 -3 -80 -9 -125zM299 405h210c1 15 2 26 2 41c0 84 -28 159 -99 159c-75 0 -109 -77 -113 -200z" />
    <glyph glyph-name="uni04BF" unicode="&#x4bf;" horiz-adv-x="543" 
d="M466 120l37 -83c-23 -20 -60 -37 -103 -43l-11 -168h-82l-16 168c-92 22 -136 102 -143 223h-8c-88 0 -139 38 -137 127c1 39 12 62 28 83h99c-17 -16 -30 -46 -30 -81c0 -25 11 -47 50 -46c15 141 86 214 199 214c84 0 168 -45 168 -196c0 -29 -3 -62 -10 -101h-243
c3 -83 32 -128 103 -128c43 0 80 16 99 31zM347 412c-51 0 -75 -43 -79 -116h138c4 76 -16 116 -59 116z" />
    <glyph glyph-name="uni04C0" unicode="&#x4c0;" horiz-adv-x="238" 
d="M182 0h-126v700h126v-700z" />
    <glyph glyph-name="uni04C3" unicode="&#x4c3;" horiz-adv-x="512" 
d="M340 77c0 141 -30 223 -139 223h-30v-300h-126v700h126v-311l25 12l147 299h142l-154 -280l-51 -40h39c104 -32 147 -106 147 -285v-27c0 -187 -68 -273 -181 -273c-16 0 -33 1 -52 5v107c80 -7 107 44 107 170z" />
    <glyph glyph-name="uni04C4" unicode="&#x4c4;" horiz-adv-x="418" 
d="M274 32c0 113 -26 165 -85 172h-27v-204h-119v500h119v-217l24 12l84 205h128l-92 -199l-40 -32l33 -3c80 -27 94 -122 94 -221v-17c0 -162 -53 -234 -150 -234c-19 0 -39 2 -58 7v105c60 -11 89 30 89 126z" />
    <glyph glyph-name="uni04C5" unicode="&#x4c5;" horiz-adv-x="547" 
d="M421 0h-76v584h-106c-9 -253 -20 -423 -65 -512c-32 -64 -84 -78 -119 -78c-28 0 -48 5 -66 13l13 114c24 -9 48 -2 66 32c31 60 47 222 52 547h351v-591h81v-31l-80 -207h-88z" />
    <glyph glyph-name="uni04C6" unicode="&#x4c6;" horiz-adv-x="466" 
d="M337 0h-66v391h-72c-11 -232 -31 -396 -140 -396c-33 0 -57 4 -73 14l14 104c62 -21 86 26 94 387h296v-391h78v-31l-80 -207h-88z" />
    <glyph glyph-name="uni04C7" unicode="&#x4c7;" horiz-adv-x="533" 
d="M362 700h126v-700v-29c0 -118 -45 -177 -134 -177c-17 0 -35 2 -55 6v106c56 -5 63 31 63 94v296h-191v-296h-126v700h126v-288h191v288z" />
    <glyph glyph-name="uni04C8" unicode="&#x4c8;" horiz-adv-x="444" 
d="M282 0v199h-120v-199h-119v500h119v-192h120v192h119v-530c0 -112 -39 -175 -131 -175c-17 0 -37 2 -58 7v103c57 -5 70 28 70 95z" />
    <glyph glyph-name="uni04C9" unicode="&#x4c9;" horiz-adv-x="567" 
d="M441 0h-79v296h-191v-296h-126v700h126v-288h191v288h126v-591h84v-31l-80 -207h-88z" />
    <glyph glyph-name="uni04CA" unicode="&#x4ca;" horiz-adv-x="482" 
d="M353 0h-71v199h-120v-199h-119v500h119v-192h120v192h119v-391h83v-31l-80 -207h-88z" />
    <glyph glyph-name="uni04CB" unicode="&#x4cb;" horiz-adv-x="503" 
d="M34 429v271h126v-230c0 -83 22 -115 77 -115c39 0 75 12 95 35v310h126v-700h-97l-12 -124h-89v240h72v166c-27 -19 -75 -39 -139 -39c-88 0 -159 46 -159 186z" />
    <glyph glyph-name="uni04CC" unicode="&#x4cc;" horiz-adv-x="420" 
d="M177 94h81v114c-17 -15 -48 -32 -105 -32c-80 0 -129 45 -129 165v159h119v-110c0 -76 9 -108 52 -108c28 0 50 8 63 19v199h119v-500h-100l-12 -113h-88v207z" />
    <glyph glyph-name="uni04CD" unicode="&#x4cd;" horiz-adv-x="705" 
d="M580 0h-87v361l14 134h-5l-37 -120l-114 -246h-42l-121 247l-37 121h-6l19 -135v-362h-119v700h121l146 -303l24 -87h4l23 89l137 301h119v-591h92v-31l-80 -207h-88z" />
    <glyph glyph-name="uni04CE" unicode="&#x4ce;" horiz-adv-x="593" 
d="M464 0h-65v230l7 103h-5l-30 -93l-73 -150h-45l-80 150l-31 93h-6l13 -103v-230h-106v500h125l91 -184l20 -67h4l21 69l84 182h124v-391h83v-31l-80 -207h-88z" />
    <glyph glyph-name="uni04CF" unicode="&#x4cf;" horiz-adv-x="217" 
d="M168 0h-119v700h119v-700z" />
    <glyph glyph-name="uni04D0" unicode="&#x4d0;" horiz-adv-x="501" 
d="M83 856l114 18c4 -41 23 -61 56 -61s52 20 56 60l102 -15c-11 -87 -67 -123 -159 -123s-158 29 -169 121zM503 0h-132l-43 158h-165l-41 -158h-124l202 705h99zM246 535l-17 -111l-39 -162h116l-40 163l-16 110h-4z" />
    <glyph glyph-name="uni04D1" unicode="&#x4d1;" horiz-adv-x="413" 
d="M62 682l101 22c4 -51 22 -72 49 -72c28 0 44 20 51 71l90 -22c-15 -91 -72 -131 -144 -131c-70 0 -136 34 -147 132zM74 381l-30 89c40 24 101 40 177 40c113 0 152 -61 152 -169c0 -124 -20 -246 9 -341h-97l-19 60h-4c-21 -39 -59 -66 -118 -66c-79 0 -127 56 -127 144
c0 120 92 168 237 160c7 77 -6 110 -61 110c-40 0 -86 -10 -119 -27zM187 95c36 0 58 22 69 43v83c-61 8 -116 -8 -116 -63c0 -41 18 -63 47 -63z" />
    <glyph glyph-name="uni04D2" unicode="&#x4d2;" horiz-adv-x="501" 
d="M91 798c0 35 18 58 69 58c47 0 66 -23 66 -58s-19 -57 -66 -57c-51 0 -69 22 -69 57zM273 798c0 35 19 58 67 58c49 0 68 -23 68 -58s-19 -57 -68 -57c-48 0 -67 22 -67 57zM503 0h-132l-43 158h-165l-41 -158h-124l202 705h99zM246 535l-17 -111l-39 -162h116l-40 163
l-16 110h-4z" />
    <glyph glyph-name="uni04D3" unicode="&#x4d3;" horiz-adv-x="413" 
d="M74 381l-30 89c40 24 101 40 177 40c113 0 152 -61 152 -169c0 -124 -20 -246 9 -341h-97l-19 60h-4c-21 -39 -59 -66 -118 -66c-79 0 -127 56 -127 144c0 120 92 168 237 160c7 77 -6 110 -61 110c-40 0 -86 -10 -119 -27zM187 95c36 0 58 22 69 43v83
c-61 8 -116 -8 -116 -63c0 -41 18 -63 47 -63zM53 633c0 43 25 68 64 68c37 0 62 -25 62 -68c0 -40 -25 -65 -62 -65c-39 0 -64 25 -64 65zM239 633c0 43 24 68 63 68s63 -25 63 -68c0 -40 -24 -65 -63 -65s-63 25 -63 65z" />
    <glyph glyph-name="uni04D4" unicode="&#x4d4;" horiz-adv-x="717" 
d="M331 277v245h-5l-26 -97l-65 -148h96zM685 0h-354v173h-144l-79 -173h-131l349 700h355v-116h-224v-172h203v-116h-203v-180h228v-116z" />
    <glyph glyph-name="uni04D5" unicode="&#x4d5;" horiz-adv-x="653" 
d="M257 143v80c-61 5 -117 -6 -117 -65c0 -37 16 -60 47 -60c37 0 59 21 70 45zM292 68h-5c-28 -45 -68 -75 -141 -75c-80 0 -129 59 -129 146c0 121 91 169 236 161c1 12 1 21 1 32c0 52 -15 74 -60 74c-41 0 -87 -13 -120 -32l-31 90c43 28 107 46 174 46
c56 0 89 -17 112 -54c27 39 71 58 124 58c86 0 168 -46 168 -198c0 -29 -3 -63 -10 -100h-241c3 -88 31 -127 100 -127c41 0 79 15 98 30l39 -83c-33 -27 -92 -48 -160 -48c-73 0 -124 26 -155 80zM373 295h137c4 72 -16 117 -60 117c-51 0 -73 -41 -77 -117z" />
    <glyph glyph-name="uni04D6" unicode="&#x4d6;" horiz-adv-x="430" 
d="M57 856l114 18c4 -41 23 -61 56 -61s52 20 56 60l102 -15c-11 -87 -67 -123 -159 -123s-158 29 -169 121zM399 0h-354v700h350v-116h-224v-172h203v-116h-203v-180h228v-116z" />
    <glyph glyph-name="uni04D7" unicode="&#x4d7;" horiz-adv-x="428" 
d="M70 682l101 22c4 -51 22 -72 49 -72c28 0 44 20 51 71l90 -22c-15 -91 -72 -131 -144 -131c-70 0 -136 34 -147 132zM344 120l37 -83c-33 -29 -95 -49 -158 -49c-139 0 -198 98 -198 262c0 180 75 264 202 264c84 0 168 -45 168 -196c0 -29 -3 -62 -10 -101h-243
c3 -83 32 -128 103 -128c43 0 80 16 99 31zM225 412c-51 0 -75 -43 -79 -116h138c4 76 -16 116 -59 116z" />
    <glyph glyph-name="uni04D8" unicode="&#x4d8;" horiz-adv-x="521" 
d="M359 301h-199c-3 -16 -2 -33 -2 -48c0 -87 29 -158 97 -158c73 0 104 66 104 206zM38 407h321c-5 117 -38 191 -136 191c-56 0 -100 -25 -127 -42l-28 110c37 24 108 48 176 48c162 0 247 -107 247 -364c0 -227 -66 -363 -241 -363c-154 0 -221 115 -221 295
c0 39 3 81 9 125z" />
    <glyph glyph-name="afii10846" unicode="&#x4d9;" horiz-adv-x="420" 
d="M80 378l-41 87c35 28 97 48 162 48c133 0 194 -98 194 -263c0 -177 -75 -262 -195 -262c-89 0 -174 50 -174 204c0 29 3 63 10 100h240c-5 84 -31 119 -100 119c-43 0 -77 -18 -96 -33zM200 89c49 0 77 47 76 124h-140c-5 -73 19 -124 64 -124z" />
    <glyph glyph-name="uni04DA" unicode="&#x4da;" horiz-adv-x="521" 
d="M94 798c0 35 18 58 69 58c47 0 66 -23 66 -58s-19 -57 -66 -57c-51 0 -69 22 -69 57zM276 798c0 35 19 58 67 58c49 0 68 -23 68 -58s-19 -57 -68 -57c-48 0 -67 22 -67 57zM359 301h-199c-3 -16 -2 -33 -2 -48c0 -87 29 -158 97 -158c73 0 104 66 104 206zM38 407h321
c-5 117 -38 191 -136 191c-56 0 -100 -25 -127 -42l-28 110c37 24 108 48 176 48c162 0 247 -107 247 -364c0 -227 -66 -363 -241 -363c-154 0 -221 115 -221 295c0 39 3 81 9 125z" />
    <glyph glyph-name="uni04DB" unicode="&#x4db;" horiz-adv-x="420" 
d="M50 633c0 43 25 68 64 68c37 0 62 -25 62 -68c0 -40 -25 -65 -62 -65c-39 0 -64 25 -64 65zM236 633c0 43 24 68 63 68s63 -25 63 -68c0 -40 -24 -65 -63 -65s-63 25 -63 65zM80 378l-41 87c35 28 97 48 162 48c133 0 194 -98 194 -263c0 -177 -75 -262 -195 -262
c-89 0 -174 50 -174 204c0 29 3 63 10 100h240c-5 84 -31 119 -100 119c-43 0 -77 -18 -96 -33zM200 89c49 0 77 47 76 124h-140c-5 -73 19 -124 64 -124z" />
    <glyph glyph-name="uni04DC" unicode="&#x4dc;" horiz-adv-x="701" 
d="M191 798c0 35 18 58 69 58c47 0 66 -23 66 -58s-19 -57 -66 -57c-51 0 -69 22 -69 57zM373 798c0 35 19 58 67 58c49 0 68 -23 68 -58s-19 -57 -68 -57c-48 0 -67 22 -67 57zM256 399h31v301h119v-313l29 14l105 299h141l-125 -308l-40 -33l49 -41l141 -318h-152
l-117 305h-31v-305h-119v317l-28 -14l-118 -303h-145l139 308l46 38l-45 36l-130 318h146z" />
    <glyph glyph-name="uni04DD" unicode="&#x4dd;" horiz-adv-x="582" 
d="M134 633c0 43 25 68 64 68c37 0 62 -25 62 -68c0 -40 -25 -65 -62 -65c-39 0 -64 25 -64 65zM320 633c0 43 24 68 63 68s63 -25 63 -68c0 -40 -24 -65 -63 -65s-63 25 -63 65zM232 0v217l-31 -14l-73 -203h-131l99 229l29 30l-42 38l-78 203h126l67 -203h34v203h113v-213
l30 14l67 199h126l-83 -203l-33 -32l42 -40l92 -225h-135l-73 207h-33v-207h-113z" />
    <glyph glyph-name="uni04DE" unicode="&#x4de;" horiz-adv-x="435" 
d="M43 798c0 35 18 58 69 58c47 0 66 -23 66 -58s-19 -57 -66 -57c-51 0 -69 22 -69 57zM225 798c0 35 19 58 67 58c49 0 68 -23 68 -58s-19 -57 -68 -57c-48 0 -67 22 -67 57zM121 313h-23v102h24c20 0 55 0 72 7c36 11 65 40 65 87c0 65 -33 87 -89 87
c-45 0 -87 -17 -110 -32l-32 109c28 17 99 39 168 39c102 0 195 -34 195 -175c0 -68 -27 -132 -91 -160v-6c69 -19 109 -74 109 -170c0 -153 -108 -214 -226 -214c-72 0 -135 13 -171 34l33 112c25 -15 71 -31 131 -31c55 0 101 34 101 110c0 65 -32 97 -124 100
c-15 0 -15 1 -32 1z" />
    <glyph glyph-name="uni04DF" unicode="&#x4df;" horiz-adv-x="354" 
d="M7 633c0 43 25 68 64 68c37 0 62 -25 62 -68c0 -40 -25 -65 -62 -65c-39 0 -64 25 -64 65zM193 633c0 43 24 68 63 68s63 -25 63 -68c0 -40 -24 -65 -63 -65s-63 25 -63 65zM123 208h-38v89h48c36 0 61 24 61 55c0 33 -21 50 -62 50c-40 0 -71 -13 -90 -25l-27 95
c35 20 95 36 155 36c95 0 143 -41 143 -124c0 -49 -21 -97 -64 -116v-4c56 -16 80 -55 80 -123c0 -84 -55 -150 -178 -150c-60 0 -106 13 -137 32l24 97c25 -15 60 -24 99 -24c49 0 73 20 73 59c0 33 -20 53 -87 53z" />
    <glyph glyph-name="uni04E0" unicode="&#x4e0;" horiz-adv-x="452" 
d="M180 102c68 0 109 43 109 115c0 75 -42 104 -134 104h-66v56l125 181l39 43l-50 -12h-165v111h358v-72l-135 -194l-40 -32v-5l40 12c90 -3 160 -62 160 -192c0 -145 -84 -230 -229 -230c-51 0 -124 10 -167 36l30 112c32 -19 80 -33 125 -33z" />
    <glyph glyph-name="uni04E1" unicode="&#x4e1;" horiz-adv-x="403" 
d="M152 -104c65 0 110 43 110 111c0 77 -44 115 -132 115h-50v51l96 180l46 48l-62 -7h-140v106h335v-67l-111 -188l-39 -29v-2l30 3c71 -5 146 -70 146 -194c0 -146 -91 -233 -231 -233c-47 0 -102 9 -142 36l40 99c28 -17 61 -29 104 -29z" />
    <glyph glyph-name="uni04E2" unicode="&#x4e2;" horiz-adv-x="547" 
d="M422 767h-289v89h289v-89zM502 0h-126v373l10 99h-5l-38 -106l-199 -366h-99v700h126v-366l-11 -102h5l40 109l199 359h98v-700z" />
    <glyph glyph-name="uni04E3" unicode="&#x4e3;" horiz-adv-x="450" 
d="M363 567h-272v91h272v-91zM407 0h-119v218l9 81h-3l-37 -85l-134 -214h-80v500h119v-227l-9 -78h3l36 83l135 222h80v-500z" />
    <glyph glyph-name="uni04E4" unicode="&#x4e4;" horiz-adv-x="547" 
d="M117 798c0 35 18 58 69 58c47 0 66 -23 66 -58s-19 -57 -66 -57c-51 0 -69 22 -69 57zM299 798c0 35 19 58 67 58c49 0 68 -23 68 -58s-19 -57 -68 -57c-48 0 -67 22 -67 57zM502 0h-126v373l10 99h-5l-38 -106l-199 -366h-99v700h126v-366l-11 -102h5l40 109l199 359h98
v-700z" />
    <glyph glyph-name="uni04E5" unicode="&#x4e5;" horiz-adv-x="450" 
d="M75 633c0 43 25 68 64 68c37 0 62 -25 62 -68c0 -40 -25 -65 -62 -65c-39 0 -64 25 -64 65zM261 633c0 43 24 68 63 68s63 -25 63 -68c0 -40 -24 -65 -63 -65s-63 25 -63 65zM407 0h-119v218l9 81h-3l-37 -85l-134 -214h-80v500h119v-227l-9 -78h3l36 83l135 222h80v-500
z" />
    <glyph glyph-name="uni04E6" unicode="&#x4e6;" horiz-adv-x="553" 
d="M118 798c0 35 18 58 69 58c47 0 66 -23 66 -58s-19 -57 -66 -57c-51 0 -69 22 -69 57zM300 798c0 35 19 58 67 58c49 0 68 -23 68 -58s-19 -57 -68 -57c-48 0 -67 22 -67 57zM29 350c0 237 80 364 247 364c173 0 248 -142 248 -364c0 -237 -84 -363 -248 -363
c-175 0 -247 141 -247 363zM161 350c0 -141 31 -248 115 -248c77 0 116 75 116 248c0 137 -29 248 -116 248c-77 0 -115 -83 -115 -248z" />
    <glyph glyph-name="uni04E7" unicode="&#x4e7;" horiz-adv-x="445" 
d="M25 250c0 177 73 263 197 263c133 0 198 -88 198 -263c0 -179 -73 -262 -198 -262c-131 0 -197 87 -197 262zM148 250c0 -100 21 -157 74 -157c51 0 75 42 75 157c0 103 -20 157 -75 157c-47 0 -74 -42 -74 -157zM67 633c0 43 25 68 64 68c37 0 62 -25 62 -68
c0 -40 -25 -65 -62 -65c-39 0 -64 25 -64 65zM253 633c0 43 24 68 63 68s63 -25 63 -68c0 -40 -24 -65 -63 -65s-63 25 -63 65z" />
    <glyph glyph-name="uni04E8" unicode="&#x4e8;" horiz-adv-x="552" 
d="M29 350c0 237 80 364 247 364c174 0 247 -142 247 -364c0 -237 -83 -363 -247 -363c-175 0 -247 141 -247 363zM276 102c69 0 109 60 116 197h-231c8 -116 39 -197 115 -197zM161 405h230c-8 111 -40 193 -115 193c-69 0 -107 -64 -115 -193z" />
    <glyph glyph-name="uni04E9" unicode="&#x4e9;" horiz-adv-x="445" 
d="M25 250c0 172 72 264 197 264c133 0 198 -102 198 -264c0 -173 -73 -263 -198 -263c-133 0 -197 101 -197 263zM148 289h149c-7 88 -33 119 -74 119c-39 0 -70 -28 -75 -119zM297 208h-149c4 -81 35 -116 74 -116s70 27 75 116z" />
    <glyph glyph-name="uni04EA" unicode="&#x4ea;" horiz-adv-x="552" 
d="M118 798c0 35 18 58 69 58c47 0 66 -23 66 -58s-19 -57 -66 -57c-51 0 -69 22 -69 57zM300 798c0 35 19 58 67 58c49 0 68 -23 68 -58s-19 -57 -68 -57c-48 0 -67 22 -67 57zM29 350c0 237 80 364 247 364c174 0 247 -142 247 -364c0 -237 -83 -363 -247 -363
c-175 0 -247 141 -247 363zM276 102c69 0 109 60 116 197h-231c8 -116 39 -197 115 -197zM161 405h230c-8 111 -40 193 -115 193c-69 0 -107 -64 -115 -193z" />
    <glyph glyph-name="uni04EB" unicode="&#x4eb;" horiz-adv-x="445" 
d="M66 633c0 43 25 68 64 68c37 0 62 -25 62 -68c0 -40 -25 -65 -62 -65c-39 0 -64 25 -64 65zM252 633c0 43 24 68 63 68s63 -25 63 -68c0 -40 -24 -65 -63 -65s-63 25 -63 65zM25 250c0 172 72 264 197 264c133 0 198 -102 198 -264c0 -173 -73 -263 -198 -263
c-133 0 -197 101 -197 263zM148 289h149c-7 88 -33 119 -74 119c-39 0 -70 -28 -75 -119zM297 208h-149c4 -81 35 -116 74 -116s70 27 75 116z" />
    <glyph glyph-name="uni04EC" unicode="&#x4ec;" horiz-adv-x="477" 
d="M37 798c0 35 18 58 69 58c47 0 66 -23 66 -58s-19 -57 -66 -57c-51 0 -69 22 -69 57zM219 798c0 35 19 58 67 58c49 0 68 -23 68 -58s-19 -57 -68 -57c-48 0 -67 22 -67 57zM317 303h-212v104h211c-5 112 -45 191 -141 191c-57 0 -100 -16 -131 -35l-29 109
c43 25 110 42 167 42c161 0 266 -98 266 -363c0 -284 -127 -364 -279 -364c-65 0 -124 15 -155 31l33 112c27 -13 72 -28 127 -28c88 0 136 62 143 201z" />
    <glyph glyph-name="uni04ED" unicode="&#x4ed;" horiz-adv-x="377" 
d="M9 633c0 43 25 68 64 68c37 0 62 -25 62 -68c0 -40 -25 -65 -62 -65c-39 0 -64 25 -64 65zM195 633c0 43 24 68 63 68s63 -25 63 -68c0 -40 -24 -65 -63 -65s-63 25 -63 65zM229 208h-144v90h144c-4 72 -27 110 -86 110c-41 0 -71 -9 -94 -24l-32 90c36 27 86 40 149 40
c123 0 186 -85 186 -264s-72 -262 -197 -262c-49 0 -108 10 -140 28l28 99c27 -15 59 -22 94 -22c65 0 89 35 92 115z" />
    <glyph glyph-name="uni04EE" unicode="&#x4ee;" horiz-adv-x="475" 
d="M394 767h-289v89h289v-89zM-9 700h148l107 -305l15 -93h5l13 96l79 302h130l-156 -484c-49 -151 -80 -222 -169 -222c-36 0 -59 5 -87 23l31 106c19 -11 32 -14 48 -14c25 -1 42 25 51 76z" />
    <glyph glyph-name="uni04EF" unicode="&#x4ef;" horiz-adv-x="400" 
d="M-9 500h142l70 -281l13 -78h5l9 79l58 280h122l-125 -451c-44 -156 -74 -253 -154 -253c-28 0 -55 4 -74 15l20 102c37 -14 71 0 87 87zM340 567h-272v91h272v-91z" />
    <glyph glyph-name="uni04F0" unicode="&#x4f0;" horiz-adv-x="475" 
d="M96 798c0 35 18 58 69 58c47 0 66 -23 66 -58s-19 -57 -66 -57c-51 0 -69 22 -69 57zM278 798c0 35 19 58 67 58c49 0 68 -23 68 -58s-19 -57 -68 -57c-48 0 -67 22 -67 57zM-9 700h148l107 -305l15 -93h5l13 96l79 302h130l-156 -484c-49 -151 -80 -222 -169 -222
c-36 0 -59 5 -87 23l31 106c19 -11 32 -14 48 -14c25 -1 42 25 51 76z" />
    <glyph glyph-name="uni04F1" unicode="&#x4f1;" horiz-adv-x="400" 
d="M-9 500h142l70 -281l13 -78h5l9 79l58 280h122l-125 -451c-44 -156 -74 -253 -154 -253c-28 0 -55 4 -74 15l20 102c37 -14 71 0 87 87zM54 633c0 43 25 68 64 68c37 0 62 -25 62 -68c0 -40 -25 -65 -62 -65c-39 0 -64 25 -64 65zM240 633c0 43 24 68 63 68
s63 -25 63 -68c0 -40 -24 -65 -63 -65s-63 25 -63 65z" />
    <glyph glyph-name="uni04F2" unicode="&#x4f2;" horiz-adv-x="475" 
d="M200 741h-86l48 109h120v-16zM341 741h-86l79 109h125v-16zM-9 700h148l107 -305l15 -93h5l13 96l79 302h130l-156 -484c-49 -151 -80 -222 -169 -222c-36 0 -59 5 -87 23l31 106c19 -11 32 -14 48 -14c25 -1 42 25 51 76z" />
    <glyph glyph-name="uni04F3" unicode="&#x4f3;" horiz-adv-x="400" 
d="M-9 500h142l70 -281l13 -78h5l9 79l58 280h122l-125 -451c-44 -156 -74 -253 -154 -253c-28 0 -55 4 -74 15l20 102c37 -14 71 0 87 87zM173 571h-73l29 129h108v-16zM298 571h-75l60 129h114v-16z" />
    <glyph glyph-name="uni04F4" unicode="&#x4f4;" horiz-adv-x="503" 
d="M92 798c0 35 18 58 69 58c47 0 66 -23 66 -58s-19 -57 -66 -57c-51 0 -69 22 -69 57zM274 798c0 35 19 58 67 58c49 0 68 -23 68 -58s-19 -57 -68 -57c-48 0 -67 22 -67 57zM34 429v271h126v-230c0 -83 22 -115 77 -115c39 0 75 12 95 35v310h126v-700h-126v282
c-27 -19 -75 -39 -139 -39c-88 0 -159 46 -159 186z" />
    <glyph glyph-name="uni04F5" unicode="&#x4f5;" horiz-adv-x="419" 
d="M47 633c0 43 25 68 64 68c37 0 62 -25 62 -68c0 -40 -25 -65 -62 -65c-39 0 -64 25 -64 65zM233 633c0 43 24 68 63 68s63 -25 63 -68c0 -40 -24 -65 -63 -65s-63 25 -63 65zM24 322v178h119v-134c0 -71 8 -100 51 -100c29 0 50 10 63 21v213h119v-500h-119v194
c-16 -13 -48 -34 -104 -34c-80 0 -129 37 -129 162z" />
    <glyph glyph-name="uni04F6" unicode="&#x4f6;" horiz-adv-x="381" 
d="M45 700h343v-116h-217v-468h76v-240h-89l-12 124h-101v700z" />
    <glyph glyph-name="uni04F7" unicode="&#x4f7;" horiz-adv-x="310" 
d="M136 0h-93v500h271v-109h-152v-282h75v-222h-88z" />
    <glyph glyph-name="uni04F8" unicode="&#x4f8;" horiz-adv-x="668" 
d="M173 798c0 35 18 58 69 58c47 0 66 -23 66 -58s-19 -57 -66 -57c-51 0 -69 22 -69 57zM355 798c0 35 19 58 67 58c49 0 68 -23 68 -58s-19 -57 -68 -57c-48 0 -67 22 -67 57zM623 0h-126v700h126v-700zM45 6v694h126v-251c12 3 44 8 71 8c111 0 201 -43 201 -223
c0 -164 -71 -243 -236 -243c-32 0 -108 2 -162 15zM171 332v-220c11 -4 28 -6 45 -6c60 0 95 33 95 122c0 92 -38 113 -94 113c-13 0 -38 -5 -46 -9z" />
    <glyph glyph-name="uni04F9" unicode="&#x4f9;" horiz-adv-x="591" 
d="M132 633c0 43 25 68 64 68c37 0 62 -25 62 -68c0 -40 -25 -65 -62 -65c-39 0 -64 25 -64 65zM318 633c0 43 24 68 63 68s63 -25 63 -68c0 -40 -24 -65 -63 -65s-63 25 -63 65zM162 233v-128c14 -4 28 -6 43 -6c43 0 59 20 59 71c0 47 -15 69 -58 69c-15 0 -30 -2 -44 -6z
M43 500h119v-178c27 5 56 7 79 7c109 0 146 -66 146 -155c0 -120 -49 -180 -195 -180c-64 0 -112 3 -149 6v500zM549 0h-119v500h119v-500z" />
    <glyph glyph-name="uni04FC" unicode="&#x4fc;" horiz-adv-x="525" 
d="M368 -21c0 44 -20 90 -34 121l-53 115l-23 78l-19 -78l-94 -215h-139l171 356l-154 344h151l81 -200l19 -76l18 76l85 200h136l-160 -337l102 -213c25 -53 43 -116 43 -172c0 -120 -47 -184 -143 -184c-19 0 -39 2 -58 7v106c59 -5 71 29 71 72z" />
    <glyph glyph-name="uni04FD" unicode="&#x4fd;" horiz-adv-x="438" 
d="M428 500l-120 -240l69 -132c23 -43 41 -104 41 -152c0 -117 -43 -181 -136 -181c-19 0 -39 2 -58 7v102c57 -7 75 21 75 65c0 35 -16 73 -30 100l-27 51l-25 76l-24 -75l-59 -121h-130l129 256l-119 244h142l48 -107l21 -77l22 77l51 107h130z" />
    <glyph glyph-name="uni0510" unicode="&#x510;" horiz-adv-x="442" 
d="M340 414v-101h-22c-17 0 -19 -1 -32 -1c-93 -4 -125 -41 -125 -105c0 -69 43 -105 104 -105c52 0 100 20 124 33l34 -102c-32 -23 -100 -46 -176 -46c-136 0 -218 64 -218 209c0 97 40 154 108 173v6c-61 28 -90 93 -90 162c0 131 94 175 201 175c69 0 134 -22 162 -39
l-32 -105c-27 15 -69 28 -109 28c-59 0 -90 -23 -90 -82c0 -53 33 -82 69 -91c17 -7 50 -9 70 -9h22z" />
    <glyph glyph-name="uni0511" unicode="&#x511;" horiz-adv-x="355" 
d="M269 297v-87h-39c-67 0 -86 -20 -86 -55s24 -60 71 -60c41 0 76 10 99 25l24 -97c-28 -19 -74 -33 -137 -33c-122 0 -176 62 -176 150c0 68 25 104 80 123v4c-44 19 -65 66 -65 113c0 85 56 129 144 129c69 0 119 -14 154 -34l-26 -96c-23 12 -53 24 -92 24
c-40 0 -60 -18 -60 -53c0 -31 25 -53 61 -53h48z" />
    <glyph glyph-name="uni0512" unicode="&#x512;" horiz-adv-x="523" 
d="M127 700h351v-729c0 -118 -45 -177 -134 -177c-17 0 -35 2 -55 6v106c56 -5 63 27 63 94v584h-108c-8 -253 -20 -421 -66 -512c-32 -64 -82 -78 -117 -78c-28 0 -54 6 -72 14l17 113c23 -8 48 -7 69 32c32 59 47 222 52 547z" />
    <glyph glyph-name="uni0513" unicode="&#x513;" horiz-adv-x="433" 
d="M271 0v391h-72c-11 -232 -31 -396 -140 -396c-33 0 -57 4 -73 14l14 104c62 -21 86 26 94 387h296v-500v-30c0 -112 -39 -175 -131 -175c-17 0 -37 2 -58 7v103c29 -3 47 4 56 21c9 15 14 40 14 74z" />
    <glyph glyph-name="uni051C" unicode="&#x51c;" horiz-adv-x="717" 
d="M-1 700h138l68 -385l10 -126h4l11 128l94 383h88l91 -385l11 -126h4l11 128l62 383h128l-157 -704h-89l-98 385l-13 109h-5l-12 -110l-98 -384h-93z" />
    <glyph glyph-name="uni051D" unicode="&#x51d;" horiz-adv-x="596" 
d="M202 250l61 250h89l70 -256l12 -83h4l10 84l47 255h108l-123 -504h-94l-75 278l-8 64h-6l-7 -66l-72 -276h-97l-127 504h128l54 -251l9 -89h4z" />
    <glyph glyph-name="uni0524" unicode="&#x524;" horiz-adv-x="566" 
d="M451 0h-98v584h-182v-584h-126v700h434v-584h73v-240h-89z" />
    <glyph glyph-name="uni0525" unicode="&#x525;" horiz-adv-x="475" 
d="M363 0h-85v391h-116v-391h-119v500h354v-391h67v-222h-88z" />
    <glyph glyph-name="uni0526" unicode="&#x526;" horiz-adv-x="554" 
d="M442 0h-98v227c0 80 -20 119 -77 119c-39 0 -75 -13 -96 -34v-312h-126v700h126v-282c28 19 76 40 143 40c94 0 156 -51 156 -192v-150h73v-240h-89z" />
    <glyph glyph-name="uni0527" unicode="&#x527;" horiz-adv-x="486" 
d="M373 0h-82v302c0 72 -14 102 -58 102c-32 0 -62 -25 -71 -60v-344h-119v700h119v-245h3c27 35 63 58 120 58c82 0 125 -42 125 -185v-219h64v-222h-88z" />
    <glyph glyph-name="uni1E30" unicode="&#x1e30;" horiz-adv-x="519" 
d="M271 752h-93l82 118h143v-30zM511 0h-154l-159 300h-27v-300h-126v700h126v-311l25 12l147 299h142l-160 -295l-47 -37l48 -38z" />
    <glyph glyph-name="uni1E31" unicode="&#x1e31;" horiz-adv-x="412" 
d="M412 0h-134l-88 207h-28v-207h-119v700h119v-413l24 14l83 199h129l-92 -198l-43 -34l47 -34zM277 566h-67l42 154h119v-30z" />
    <glyph glyph-name="uni1E3E" unicode="&#x1e3e;" horiz-adv-x="664" 
d="M358 752h-93l82 118h143v-30zM619 0h-126v361l14 134h-5l-37 -120l-114 -246h-42l-121 247l-37 121h-6l19 -135v-362h-119v700h121l146 -303l24 -87h4l23 89l137 301h119v-700z" />
    <glyph glyph-name="uni1E3F" unicode="&#x1e3f;" horiz-adv-x="663" 
d="M393 349v-349h-119v291c0 84 -10 112 -49 112c-32 0 -52 -24 -63 -53v-350h-119v500h92l15 -60h3c25 41 60 72 123 72c52 0 83 -20 102 -77c25 48 67 77 123 77c88 0 123 -39 123 -188v-324h-119v304c0 68 -8 99 -49 99c-33 0 -54 -21 -63 -54zM354 566h-67l42 154h119
v-30z" />
    <glyph glyph-name="uni1E54" unicode="&#x1e54;" horiz-adv-x="477" 
d="M249 752h-93l82 118h143v-30zM171 0h-126v693c48 11 108 17 165 17c122 0 249 -35 249 -231c0 -176 -107 -242 -223 -242c-11 0 -53 1 -65 4v-241zM171 593v-239c8 -3 37 -5 45 -5c59 0 111 27 111 131c0 89 -49 118 -105 118c-21 0 -38 -2 -51 -5z" />
    <glyph glyph-name="uni1E55" unicode="&#x1e55;" horiz-adv-x="447" 
d="M162 -199h-119v699h89l12 -57h3c31 48 66 69 122 69c101 0 153 -70 153 -249s-66 -276 -187 -276c-32 0 -53 5 -73 16v-202zM162 347v-235c13 -13 28 -20 55 -20c53 0 82 47 82 174c0 95 -20 140 -69 140c-33 0 -56 -20 -68 -59zM237 566h-67l42 154h119v-30z" />
    <glyph glyph-name="uni1E9E" unicode="&#x1e9e;" horiz-adv-x="564" 
d="M242 323v77l104 179c-20 19 -54 29 -91 29c-72 0 -84 -56 -84 -149v-459h-126v496c0 147 63 217 210 217c112 0 182 -37 242 -89l-106 -187l-30 -29v-5l30 7c85 -7 142 -70 142 -193c0 -144 -68 -230 -203 -230c-33 0 -101 13 -121 26l23 107c21 -12 60 -19 85 -19
c55 0 84 42 84 111c0 76 -37 111 -121 111h-38z" />
    <glyph glyph-name="uni2011" unicode="&#x2011;" horiz-adv-x="298" 
d="M253 230h-208v114h208v-114z" />
    <glyph glyph-name="uni2081" unicode="&#x2081;" horiz-adv-x="357" 
d="M320 -99h-254v95h78v167l9 46l-26 -32l-46 -31l-44 69l131 112h82v-331h70v-95z" />
    <glyph glyph-name="uni2082" unicode="&#x2082;" horiz-adv-x="357" 
d="M301 204c0 -80 -43 -140 -88 -191l-39 -24v-4l49 11h89v-95h-265v67c62 48 150 139 150 212c0 34 -15 51 -46 51c-29 0 -55 -10 -74 -22l-30 83c39 27 87 35 126 35c80 0 128 -43 128 -123z" />
    <glyph glyph-name="uni2083" unicode="&#x2083;" horiz-adv-x="357" 
d="M146 -15c48 0 65 21 65 53c0 31 -18 50 -71 50h-39v38l60 81l38 28l-50 -6h-93v91h240v-60l-70 -94l-30 -19v-4l27 3c56 -3 91 -43 91 -115c0 -95 -72 -137 -151 -137c-44 0 -84 9 -112 24l21 85c25 -12 49 -18 74 -18z" />
    <glyph glyph-name="uni2084" unicode="&#x2084;" horiz-adv-x="357" 
d="M286 66h61v-85h-61v-80h-95v80h-171v63l177 281h89v-259zM149 66h42v84l7 55h-5l-18 -51l-38 -65l-31 -30z" />
    <glyph glyph-name="uni20B4" unicode="&#x20b4;" 
d="M41 230v91h380v-91h-203c-16 -21 -30 -55 -30 -83c0 -35 21 -59 77 -59c57 0 87 12 111 27l27 -92c-27 -19 -74 -35 -166 -35c-104 0 -164 47 -164 140c0 45 20 86 29 102h-61zM421 470v-91h-380v91h204c16 21 30 53 30 84c0 37 -19 59 -63 59c-39 0 -69 -10 -96 -26
l-35 92c40 21 70 35 158 35c97 0 151 -43 151 -134c0 -43 -19 -85 -35 -110h66z" />
    <glyph glyph-name="uni20B6" unicode="&#x20b6;" 
d="M87 125h-67v91h67v57h-67v90h67v330c47 11 96 17 153 17c119 0 221 -40 221 -216c0 -163 -101 -221 -209 -221h-51v-57h131v-91h-131v-125h-114v125zM253 604c-23 0 -41 -1 -52 -5v-234h39c56 0 101 30 101 123c0 83 -37 116 -88 116z" />
    <glyph glyph-name="uni20B7" unicode="&#x20b7;" 
d="M87 125h-67v91h67v57h-67v90h67v330c47 11 96 17 153 17c119 0 221 -40 221 -216c0 -163 -101 -221 -209 -221h-51v-57h131v-91h-131v-125h-114v125zM253 604c-23 0 -41 -1 -52 -5v-234h39c56 0 101 30 101 123c0 83 -37 116 -88 116z" />
    <glyph glyph-name="uni20B9" unicode="&#x20b9;" 
d="M87 125h-67v91h67v57h-67v90h67v330c47 11 96 17 153 17c119 0 221 -40 221 -216c0 -163 -101 -221 -209 -221h-51v-57h131v-91h-131v-125h-114v125zM253 604c-23 0 -41 -1 -52 -5v-234h39c56 0 101 30 101 123c0 83 -37 116 -88 116z" />
    <glyph glyph-name="uni20BA" unicode="&#x20ba;" 
d="M87 125h-67v91h67v57h-67v90h67v330c47 11 96 17 153 17c119 0 221 -40 221 -216c0 -163 -101 -221 -209 -221h-51v-57h131v-91h-131v-125h-114v125zM253 604c-23 0 -41 -1 -52 -5v-234h39c56 0 101 30 101 123c0 83 -37 116 -88 116z" />
    <glyph glyph-name="uni20BB" unicode="&#x20bb;" 
d="M87 125h-67v91h67v57h-67v90h67v330c47 11 96 17 153 17c119 0 221 -40 221 -216c0 -163 -101 -221 -209 -221h-51v-57h131v-91h-131v-125h-114v125zM253 604c-23 0 -41 -1 -52 -5v-234h39c56 0 101 30 101 123c0 83 -37 116 -88 116z" />
    <glyph glyph-name="uni20BC" unicode="&#x20bc;" 
d="M87 125h-67v91h67v57h-67v90h67v330c47 11 96 17 153 17c119 0 221 -40 221 -216c0 -163 -101 -221 -209 -221h-51v-57h131v-91h-131v-125h-114v125zM253 604c-23 0 -41 -1 -52 -5v-234h39c56 0 101 30 101 123c0 83 -37 116 -88 116z" />
    <glyph glyph-name="uni20BD" unicode="&#x20bd;" 
d="M87 125h-67v91h67v57h-67v90h67v330c47 11 96 17 153 17c119 0 221 -40 221 -216c0 -163 -101 -221 -209 -221h-51v-57h131v-91h-131v-125h-114v125zM253 604c-23 0 -41 -1 -52 -5v-234h39c56 0 101 30 101 123c0 83 -37 116 -88 116z" />
    <glyph glyph-name="uni20BE" unicode="&#x20be;" 
d="M87 125h-67v91h67v57h-67v90h67v330c47 11 96 17 153 17c119 0 221 -40 221 -216c0 -163 -101 -221 -209 -221h-51v-57h131v-91h-131v-125h-114v125zM253 604c-23 0 -41 -1 -52 -5v-234h39c56 0 101 30 101 123c0 83 -37 116 -88 116z" />
    <glyph glyph-name="uni20BF" unicode="&#x20bf;" 
d="M87 125h-67v91h67v57h-67v90h67v330c47 11 96 17 153 17c119 0 221 -40 221 -216c0 -163 -101 -221 -209 -221h-51v-57h131v-91h-131v-125h-114v125zM253 604c-23 0 -41 -1 -52 -5v-234h39c56 0 101 30 101 123c0 83 -37 116 -88 116z" />
    <glyph glyph-name="uni20C0" unicode="&#x20c0;" 
d="M87 125h-67v91h67v57h-67v90h67v330c47 11 96 17 153 17c119 0 221 -40 221 -216c0 -163 -101 -221 -209 -221h-51v-57h131v-91h-131v-125h-114v125zM253 604c-23 0 -41 -1 -52 -5v-234h39c56 0 101 30 101 123c0 83 -37 116 -88 116z" />
    <glyph glyph-name="uni20C1" unicode="&#x20c1;" 
d="M87 125h-67v91h67v57h-67v90h67v330c47 11 96 17 153 17c119 0 221 -40 221 -216c0 -163 -101 -221 -209 -221h-51v-57h131v-91h-131v-125h-114v125zM253 604c-23 0 -41 -1 -52 -5v-234h39c56 0 101 30 101 123c0 83 -37 116 -88 116z" />
    <glyph glyph-name="uni20C2" unicode="&#x20c2;" 
d="M87 125h-67v91h67v57h-67v90h67v330c47 11 96 17 153 17c119 0 221 -40 221 -216c0 -163 -101 -221 -209 -221h-51v-57h131v-91h-131v-125h-114v125zM253 604c-23 0 -41 -1 -52 -5v-234h39c56 0 101 30 101 123c0 83 -37 116 -88 116z" />
    <glyph glyph-name="uni20C3" unicode="&#x20c3;" 
d="M87 125h-67v91h67v57h-67v90h67v330c47 11 96 17 153 17c119 0 221 -40 221 -216c0 -163 -101 -221 -209 -221h-51v-57h131v-91h-131v-125h-114v125zM253 604c-23 0 -41 -1 -52 -5v-234h39c56 0 101 30 101 123c0 83 -37 116 -88 116z" />
    <glyph glyph-name="uni20C4" unicode="&#x20c4;" 
d="M87 125h-67v91h67v57h-67v90h67v330c47 11 96 17 153 17c119 0 221 -40 221 -216c0 -163 -101 -221 -209 -221h-51v-57h131v-91h-131v-125h-114v125zM253 604c-23 0 -41 -1 -52 -5v-234h39c56 0 101 30 101 123c0 83 -37 116 -88 116z" />
    <glyph glyph-name="uni20C5" unicode="&#x20c5;" 
d="M87 125h-67v91h67v57h-67v90h67v330c47 11 96 17 153 17c119 0 221 -40 221 -216c0 -163 -101 -221 -209 -221h-51v-57h131v-91h-131v-125h-114v125zM253 604c-23 0 -41 -1 -52 -5v-234h39c56 0 101 30 101 123c0 83 -37 116 -88 116z" />
    <glyph glyph-name="uni20C6" unicode="&#x20c6;" 
d="M87 125h-67v91h67v57h-67v90h67v330c47 11 96 17 153 17c119 0 221 -40 221 -216c0 -163 -101 -221 -209 -221h-51v-57h131v-91h-131v-125h-114v125zM253 604c-23 0 -41 -1 -52 -5v-234h39c56 0 101 30 101 123c0 83 -37 116 -88 116z" />
    <glyph glyph-name="uni20C7" unicode="&#x20c7;" 
d="M87 125h-67v91h67v57h-67v90h67v330c47 11 96 17 153 17c119 0 221 -40 221 -216c0 -163 -101 -221 -209 -221h-51v-57h131v-91h-131v-125h-114v125zM253 604c-23 0 -41 -1 -52 -5v-234h39c56 0 101 30 101 123c0 83 -37 116 -88 116z" />
    <glyph glyph-name="uni20C8" unicode="&#x20c8;" 
d="M87 125h-67v91h67v57h-67v90h67v330c47 11 96 17 153 17c119 0 221 -40 221 -216c0 -163 -101 -221 -209 -221h-51v-57h131v-91h-131v-125h-114v125zM253 604c-23 0 -41 -1 -52 -5v-234h39c56 0 101 30 101 123c0 83 -37 116 -88 116z" />
    <glyph glyph-name="uni20C9" unicode="&#x20c9;" 
d="M87 125h-67v91h67v57h-67v90h67v330c47 11 96 17 153 17c119 0 221 -40 221 -216c0 -163 -101 -221 -209 -221h-51v-57h131v-91h-131v-125h-114v125zM253 604c-23 0 -41 -1 -52 -5v-234h39c56 0 101 30 101 123c0 83 -37 116 -88 116z" />
    <glyph glyph-name="uni20CA" unicode="&#x20ca;" 
d="M87 125h-67v91h67v57h-67v90h67v330c47 11 96 17 153 17c119 0 221 -40 221 -216c0 -163 -101 -221 -209 -221h-51v-57h131v-91h-131v-125h-114v125zM253 604c-23 0 -41 -1 -52 -5v-234h39c56 0 101 30 101 123c0 83 -37 116 -88 116z" />
    <glyph glyph-name="uni20CB" unicode="&#x20cb;" 
d="M87 125h-67v91h67v57h-67v90h67v330c47 11 96 17 153 17c119 0 221 -40 221 -216c0 -163 -101 -221 -209 -221h-51v-57h131v-91h-131v-125h-114v125zM253 604c-23 0 -41 -1 -52 -5v-234h39c56 0 101 30 101 123c0 83 -37 116 -88 116z" />
    <glyph glyph-name="uni20CC" unicode="&#x20cc;" 
d="M87 125h-67v91h67v57h-67v90h67v330c47 11 96 17 153 17c119 0 221 -40 221 -216c0 -163 -101 -221 -209 -221h-51v-57h131v-91h-131v-125h-114v125zM253 604c-23 0 -41 -1 -52 -5v-234h39c56 0 101 30 101 123c0 83 -37 116 -88 116z" />
    <glyph glyph-name="uni20CD" unicode="&#x20cd;" 
d="M87 125h-67v91h67v57h-67v90h67v330c47 11 96 17 153 17c119 0 221 -40 221 -216c0 -163 -101 -221 -209 -221h-51v-57h131v-91h-131v-125h-114v125zM253 604c-23 0 -41 -1 -52 -5v-234h39c56 0 101 30 101 123c0 83 -37 116 -88 116z" />
    <glyph glyph-name="uni20CE" unicode="&#x20ce;" 
d="M87 125h-67v91h67v57h-67v90h67v330c47 11 96 17 153 17c119 0 221 -40 221 -216c0 -163 -101 -221 -209 -221h-51v-57h131v-91h-131v-125h-114v125zM253 604c-23 0 -41 -1 -52 -5v-234h39c56 0 101 30 101 123c0 83 -37 116 -88 116z" />
    <glyph glyph-name="uni20CF" unicode="&#x20cf;" 
d="M87 125h-67v91h67v57h-67v90h67v330c47 11 96 17 153 17c119 0 221 -40 221 -216c0 -163 -101 -221 -209 -221h-51v-57h131v-91h-131v-125h-114v125zM253 604c-23 0 -41 -1 -52 -5v-234h39c56 0 101 30 101 123c0 83 -37 116 -88 116z" />
    <glyph glyph-name="afii61289" unicode="&#x2113;" horiz-adv-x="500" 
d="M389 80l17 -50c-29 -19 -81 -41 -128 -41c-84 0 -120 38 -120 125v104l-50 -44l-35 44l85 74v254c0 117 57 166 129 166c64 0 110 -39 110 -119c0 -99 -50 -211 -171 -328v-140c0 -59 26 -77 58 -77c33 0 78 17 105 32zM333 588c0 45 -22 64 -46 64
c-32 0 -61 -15 -61 -95v-212c75 87 107 167 107 243z" />
    <glyph glyph-name="afii61352" unicode="&#x2116;" horiz-adv-x="857" 
d="M810 217h-271v106h271v-106zM483 -4h-98l-187 349l-45 132h-5l16 -130v-347h-119v705h98l189 -358l42 -124h6l-16 122v355h119v-704zM523 542c0 122 62 170 150 170c87 0 151 -42 151 -170s-64 -170 -151 -170c-88 0 -150 42 -150 170zM628 542c0 -64 14 -87 45 -87
c32 0 45 17 45 87c0 68 -14 87 -45 87s-45 -19 -45 -87z" />
    <glyph glyph-name="estimated" unicode="&#x212e;" horiz-adv-x="600" 
d="M561 259h-404v-181c41 -39 90 -59 145 -59c83 0 147 40 193 120l35 -21c-57 -88 -131 -134 -228 -134c-158 0 -258 120 -258 275c0 157 103 276 258 276c166 0 254 -125 259 -276zM157 440v-145h291v145c-42 40 -91 60 -147 60c-57 0 -105 -20 -144 -60z" />
    <glyph glyph-name="partialdiff" unicode="&#x2202;" horiz-adv-x="451" 
d="M226 503c44 0 63 -9 80 -24h5c-13 115 -109 144 -193 136l20 99c167 8 295 -56 295 -315c0 -291 -96 -411 -236 -411c-117 0 -182 77 -182 210c0 159 66 305 211 305zM237 397c-56 0 -99 -66 -99 -195c0 -67 23 -109 68 -109c80 0 104 133 104 274c-19 20 -38 30 -73 30z
" />
    <glyph glyph-name="product" unicode="&#x220f;" horiz-adv-x="532" 
d="M488 -199h-123v786h-198v-786h-123v899h444v-899z" />
    <glyph glyph-name="summation" unicode="&#x2211;" horiz-adv-x="444" 
d="M178 546l136 -290l-151 -303l-36 -39h296v-113h-403v113l149 300l32 34l-36 37l-145 302v113h403v-113h-284z" />
    <glyph glyph-name="uni2215" unicode="&#x2215;" horiz-adv-x="444" 
d="M93 -13l-83 40l343 688l81 -39z" />
    <glyph glyph-name="radical" unicode="&#x221a;" horiz-adv-x="444" 
d="M-2 369v106h161l61 -170l18 -131h4l13 133l98 393h110l-190 -704h-64l-124 373h-87z" />
    <glyph glyph-name="infinity" unicode="&#x221e;" horiz-adv-x="714" 
d="M347 264c-40 -76 -97 -113 -166 -113c-83 0 -154 73 -154 197c0 131 70 204 163 204c83 0 135 -44 176 -104c49 73 104 104 172 104c84 0 149 -71 149 -196c0 -133 -71 -205 -171 -205c-80 0 -130 48 -169 113zM515 255c39 0 61 42 61 98c0 48 -15 95 -63 95
c-33 0 -68 -31 -99 -82c24 -56 60 -111 101 -111zM200 448c-39 0 -62 -46 -62 -99c0 -52 27 -94 66 -94c35 0 72 41 96 85c-23 60 -56 108 -100 108z" />
    <glyph glyph-name="integral" unicode="&#x222b;" horiz-adv-x="307" 
d="M211 513v-546c0 -128 -49 -174 -136 -174c-51 0 -103 10 -130 22l26 98c23 -9 44 -14 66 -14c43 0 55 28 55 101v538c0 128 39 176 134 176c43 0 96 -10 125 -22l-19 -98c-24 11 -44 14 -72 14c-37 0 -49 -23 -49 -95z" />
    <glyph glyph-name="approxequal" unicode="&#x2248;" horiz-adv-x="444" 
d="M64 181l-41 100c52 51 94 67 130 67c65 0 108 -52 161 -52c20 0 40 8 63 28l44 -103c-40 -36 -73 -48 -102 -48c-61 0 -107 56 -163 56c-27 0 -56 -12 -92 -48zM64 373l-41 100c52 51 94 67 130 67c65 0 108 -52 161 -52c20 0 40 8 63 28l44 -103
c-40 -36 -73 -48 -102 -48c-61 0 -107 56 -163 56c-27 0 -56 -12 -92 -48z" />
    <glyph glyph-name="notequal" unicode="&#x2260;" horiz-adv-x="428" 
d="M178 383h-148v106h187l42 114h103l-42 -114h78v-106h-117l-32 -86h149v-106h-188l-49 -134h-102l49 134h-78v106h117z" />
    <glyph glyph-name="lessequal" unicode="&#x2264;" horiz-adv-x="444" 
d="M44 202l60 85l308 -207l-60 -84zM412 282l-60 -81l-315 212v70l311 222l60 -81l-186 -139l-75 -35l74 -31z" />
    <glyph glyph-name="greaterequal" unicode="&#x2265;" horiz-adv-x="444" 
d="M39 79l306 211l61 -85l-307 -209zM32 624l60 81l315 -212v-70l-311 -222l-60 81l186 139l75 35l-74 31z" />
    <glyph glyph-name="lozenge" unicode="&#x25ca;" horiz-adv-x="444" 
d="M256 705l165 -358l-165 -351h-72l-161 346l161 363h72zM225 115h4l20 88l62 131l-71 156l-21 85h-4l-22 -86l-60 -134l71 -154z" />
    <glyph glyph-name="uni2C67" unicode="&#x2c67;" horiz-adv-x="575" 
d="M460 0h-98v296h-191v-296h-126v700h126v-288h191v288h126v-584h73v-240h-89z" />
    <glyph glyph-name="uni2C68" unicode="&#x2c68;" horiz-adv-x="486" 
d="M373 0h-82v302c0 72 -14 102 -58 102c-32 0 -62 -25 -71 -60v-344h-119v700h119v-245h3c27 35 63 58 120 58c82 0 125 -42 125 -185v-219h64v-222h-88z" />
    <glyph glyph-name="uniF401" unicode="&#xf401;" horiz-adv-x="2" 
d="M-328 752h-93l82 118h143v-30z" />
    <glyph glyph-name="uniF406" unicode="&#xf406;" horiz-adv-x="443" 
d="M60 840l46 35c23 -35 68 -55 119 -55c53 0 91 22 114 55l44 -31c-29 -80 -95 -114 -159 -114c-58 0 -132 30 -164 110z" />
    <glyph glyph-name="uniF407" unicode="&#xf407;" horiz-adv-x="305" 
d="M115 0h76l-20 -42c45 -5 74 -27 74 -75c0 -76 -95 -107 -185 -86l7 56c48 -8 69 -2 69 21c0 19 -23 29 -70 32z" />
    <glyph glyph-name="uniF408" unicode="&#xf408;" horiz-adv-x="420" 
d="M60 738v40l109 92h87l104 -93v-39h-85l-47 41l-17 34l-18 -33l-50 -42h-83z" />
    <glyph glyph-name="uniF409" unicode="&#xf409;" horiz-adv-x="253" 
d="M61 -105c0 39 27 64 62 64c41 0 70 -29 70 -89c0 -88 -61 -132 -92 -142l-33 46c17 11 36 32 39 61c-20 1 -46 19 -46 60z" />
    <glyph glyph-name="uniF40A" unicode="&#xf40a;" horiz-adv-x="188" 
d="M29 644c0 39 26 65 61 65c43 0 69 -32 69 -85c0 -102 -67 -144 -99 -157l-30 50c23 11 42 32 45 63c-23 1 -46 21 -46 64z" />
    <glyph glyph-name="uniF40B" unicode="&#xf40b;" horiz-adv-x="276" 
d="M60 799c0 33 26 61 77 61c52 0 79 -28 79 -61c0 -35 -27 -62 -79 -62c-51 0 -77 27 -77 62z" />
    <glyph glyph-name="uniF40C" unicode="&#xf40c;" horiz-adv-x="343" 
d="M60 772c0 49 24 90 111 90c81 0 112 -34 112 -90c0 -48 -27 -87 -112 -87c-83 0 -111 36 -111 87zM135 772c0 -21 12 -31 36 -31c28 0 37 10 37 31c0 23 -10 34 -37 34c-24 0 -36 -11 -36 -34z" />
    <glyph glyph-name="uniF40D" unicode="&#xf40d;" horiz-adv-x="450" 
d="M86 738l-26 58c39 49 74 64 109 64c52 0 101 -34 142 -34c19 0 36 6 52 25l27 -63c-35 -39 -65 -50 -96 -50c-51 0 -97 34 -142 34c-23 0 -43 -7 -66 -34z" />
    <glyph glyph-name="uniF40E" unicode="&#xf40e;" horiz-adv-x="321" 
d="M149 10h89c-41 -14 -62 -40 -62 -78c0 -33 24 -55 67 -35l18 -58c-15 -15 -57 -35 -98 -35c-68 0 -103 37 -103 90c0 56 37 94 89 116z" />
    <glyph glyph-name="uniF486" unicode="&#xf486;" horiz-adv-x="490" 
d="M244 752h-93l82 118h143v-30zM445 538c0 -69 -28 -141 -101 -165v-6c64 -16 118 -62 118 -170c0 -145 -106 -206 -231 -206c-37 0 -124 -1 -186 14v690c44 8 114 15 178 15c118 0 222 -31 222 -172zM234 99c56 0 96 37 96 106c0 88 -52 99 -108 99h-51v-199
c11 -4 42 -6 63 -6zM171 597v-194h29c15 0 37 2 49 5c39 15 70 48 70 101c0 70 -39 92 -90 92c-27 0 -47 -1 -58 -4z" />
    <glyph glyph-name="uniF487" unicode="&#xf487;" horiz-adv-x="443" 
d="M43 20v680h119v-232h3c24 29 58 44 103 44c95 0 150 -74 150 -249c0 -189 -80 -274 -209 -274c-71 0 -134 15 -166 31zM162 351v-243c14 -7 32 -11 55 -11c51 0 78 44 78 159c0 101 -21 147 -66 147c-33 0 -56 -17 -67 -52zM284 566h-67l42 154h119v-30z" />
    <glyph glyph-name="uniF488" unicode="&#xf488;" horiz-adv-x="419" 
d="M240 752h-93l82 118h143v-30zM171 0h-126v700h350v-116h-224v-182h206v-116h-206v-286z" />
    <glyph glyph-name="uniF489" unicode="&#xf489;" horiz-adv-x="267" 
d="M222 752h-93l82 118h143v-30zM62 394h-54v106h54v28c0 127 49 180 137 180c44 0 81 -6 110 -18l-22 -101c-24 9 -41 10 -61 10c-39 0 -45 -27 -45 -99h85v-106h-85v-394h-119v394z" />
    <glyph glyph-name="uniF49E" unicode="&#xf49e;" horiz-adv-x="507" 
d="M48 515h-59v91h59v94h126v-94h183v-91h-183v-97c28 19 76 40 143 40c94 0 156 -51 156 -192v-266h-126v227c0 80 -20 119 -77 119c-39 0 -75 -13 -96 -34v-312h-126v515z" />
    <glyph glyph-name="uniF49F" unicode="&#xf49f;" horiz-adv-x="456" 
d="M50 562h-58v79h58v59h119v-59h133v-79h-133v-107h3c27 35 63 58 120 58c82 0 125 -42 125 -185v-328h-119v302c0 72 -14 102 -58 102c-32 0 -62 -25 -71 -60v-344h-119v562z" />
    <glyph glyph-name="uniF4C6" unicode="&#xf4c6;" horiz-adv-x="504" 
d="M34 429v271h126v-230c0 -83 22 -115 77 -115c39 0 75 12 95 35v310h126v-728c0 -121 -48 -178 -139 -178c-17 0 -35 2 -55 6v106c57 -7 68 32 68 95v281c-27 -19 -75 -39 -139 -39c-88 0 -159 46 -159 186z" />
    <glyph glyph-name="uniF4C7" unicode="&#xf4c7;" horiz-adv-x="419" 
d="M24 322v178h119v-134c0 -71 8 -100 51 -100c29 0 50 10 63 21v213h119v-530c0 -112 -39 -175 -131 -175c-17 0 -37 2 -58 7v103c57 -5 70 28 70 95v194c-16 -13 -48 -34 -104 -34c-80 0 -129 37 -129 162z" />
    <glyph glyph-name="uniF4CC" unicode="&#xf4cc;" horiz-adv-x="475" 
d="M256 752h-93l82 118h143v-30zM-9 700h148l107 -305l15 -93h5l13 96l79 302h130l-156 -484c-49 -151 -80 -222 -169 -222c-36 0 -59 5 -87 23l31 106c19 -11 32 -14 48 -14c25 -1 42 25 51 76z" />
    <glyph glyph-name="uniF4CD" unicode="&#xf4cd;" horiz-adv-x="400" 
d="M-9 500h142l70 -281l13 -78h5l9 79l58 280h122l-125 -451c-44 -156 -74 -253 -154 -253c-28 0 -55 4 -74 15l20 102c37 -14 71 0 87 87zM230 566h-67l42 154h119v-30z" />
    <glyph glyph-name="uniF4D6" unicode="&#xf4d6;" horiz-adv-x="477" 
d="M116 799c0 33 26 61 77 61c52 0 79 -28 79 -61c0 -35 -27 -62 -79 -62c-51 0 -77 27 -77 62zM317 303h-212v104h211c-5 112 -45 191 -141 191c-57 0 -100 -16 -131 -35l-29 109c43 25 110 42 167 42c161 0 266 -98 266 -363c0 -284 -127 -364 -279 -364
c-65 0 -124 15 -155 31l33 112c27 -13 72 -28 127 -28c88 0 136 62 143 201z" />
    <glyph glyph-name="uniF4D7" unicode="&#xf4d7;" horiz-adv-x="377" 
d="M83 641c0 40 26 69 73 69s77 -28 77 -69s-30 -67 -77 -67s-73 27 -73 67zM229 208h-144v90h144c-4 72 -27 110 -86 110c-41 0 -71 -9 -94 -24l-32 90c36 27 86 40 149 40c123 0 186 -85 186 -264s-72 -262 -197 -262c-49 0 -108 10 -140 28l28 99c27 -15 59 -22 94 -22
c65 0 89 35 92 115z" />
    <glyph glyph-name="uni0498.alt" unicode="&#xf50a;" horiz-adv-x="435" 
d="M121 313h-23v102h24c20 0 55 0 72 7c36 11 65 40 65 87c0 65 -33 87 -89 87c-45 0 -87 -17 -110 -32l-32 109c28 17 99 39 168 39c102 0 195 -34 195 -175c0 -68 -27 -132 -91 -160v-6c69 -19 109 -74 109 -170c0 -131 -80 -195 -176 -210l-11 -165h-82l-15 164
c-47 7 -86 16 -113 31l33 112c25 -15 71 -31 131 -31c55 0 101 34 101 110c0 65 -32 97 -124 100c-15 0 -15 1 -32 1z" />
    <glyph glyph-name="uni0499.alt" unicode="&#xf50b;" horiz-adv-x="354" 
d="M123 208h-38v89h48c36 0 61 24 61 55c0 33 -21 50 -62 50c-40 0 -71 -13 -90 -25l-27 95c35 20 95 36 155 36c95 0 143 -41 143 -124c0 -49 -21 -97 -64 -116v-4c56 -16 80 -55 80 -123s-35 -125 -115 -143l-12 -172h-82l-16 168c-39 5 -67 14 -90 29l24 97
c25 -15 60 -24 99 -24c49 0 73 20 73 59c0 33 -20 53 -87 53z" />
    <glyph glyph-name="uni04AA.alt02" unicode="&#xf50c;" horiz-adv-x="457" 
d="M417 149l25 -106c-29 -24 -76 -35 -123 -39l-14 -31c45 -5 74 -27 74 -75c0 -60 -61 -92 -131 -92c-18 0 -36 2 -54 6l7 48c56 -5 69 10 69 29s-23 29 -70 32l43 84c-122 15 -214 116 -214 361c0 283 131 363 260 363c65 0 114 -13 145 -26l-25 -111
c-25 13 -58 21 -105 21c-92 0 -143 -77 -143 -248c0 -147 44 -248 151 -248c47 0 78 15 105 32z" />
    <glyph glyph-name="uni04AB.alt02" unicode="&#xf50d;" horiz-adv-x="350" 
d="M313 119l25 -92c-24 -20 -55 -29 -90 -36l-15 -33c45 -5 74 -27 74 -75c0 -60 -61 -92 -131 -92c-18 0 -36 2 -54 6l7 48c56 -5 69 10 69 29s-23 29 -70 32l43 85c-107 16 -146 114 -146 259c0 175 64 263 185 263c60 0 95 -12 124 -28l-28 -99c-24 12 -43 18 -74 18
c-56 0 -84 -46 -84 -154c0 -91 27 -154 90 -154c33 0 55 10 75 23z" />
    <glyph glyph-name="uniF50E" unicode="&#xf50e;" horiz-adv-x="501" 
d="M397 767h-289v89h289v-89zM503 0h-132l-43 158h-165l-41 -158h-124l202 705h99zM246 535l-17 -111l-39 -162h116l-40 163l-16 110h-4z" />
    <glyph glyph-name="uniF50F" unicode="&#xf50f;" horiz-adv-x="413" 
d="M74 381l-30 89c40 24 101 40 177 40c113 0 152 -61 152 -169c0 -124 -20 -246 9 -341h-97l-19 60h-4c-21 -39 -59 -66 -118 -66c-79 0 -127 56 -127 144c0 120 92 168 237 160c7 77 -6 110 -61 110c-40 0 -86 -10 -119 -27zM187 95c36 0 58 22 69 43v83
c-61 8 -116 -8 -116 -63c0 -41 18 -63 47 -63zM344 567h-272v91h272v-91z" />
    <glyph glyph-name="uniF510" unicode="&#xf510;" horiz-adv-x="430" 
d="M365 767h-289v89h289v-89zM399 0h-354v700h350v-116h-224v-172h203v-116h-203v-180h228v-116z" />
    <glyph glyph-name="uniF511" unicode="&#xf511;" horiz-adv-x="428" 
d="M344 120l37 -83c-33 -29 -95 -49 -158 -49c-139 0 -198 98 -198 262c0 180 75 264 202 264c84 0 168 -45 168 -196c0 -29 -3 -62 -10 -101h-243c3 -83 32 -128 103 -128c43 0 80 16 99 31zM225 412c-51 0 -75 -43 -79 -116h138c4 76 -16 116 -59 116zM352 567h-272v91
h272v-91z" />
    <glyph glyph-name="uniF512" unicode="&#xf512;" horiz-adv-x="430" 
d="M361 903h-289v89h289v-89zM60 798c0 35 18 58 69 58c47 0 66 -23 66 -58s-19 -57 -66 -57c-51 0 -69 22 -69 57zM242 798c0 35 19 58 67 58c49 0 68 -23 68 -58s-19 -57 -68 -57c-48 0 -67 22 -67 57zM399 0h-354v700h350v-116h-224v-172h203v-116h-203v-180h228v-116z
" />
    <glyph glyph-name="uniF513" unicode="&#xf513;" horiz-adv-x="428" 
d="M362 751h-289v89h289v-89zM62 618c0 43 25 68 64 68c37 0 62 -25 62 -68c0 -40 -25 -65 -62 -65c-39 0 -64 25 -64 65zM248 618c0 43 24 68 63 68s63 -25 63 -68c0 -40 -24 -65 -63 -65s-63 25 -63 65zM344 120l37 -83c-33 -29 -95 -49 -158 -49c-139 0 -198 98 -198 262
c0 180 75 264 202 264c84 0 168 -45 168 -196c0 -29 -3 -62 -10 -101h-243c3 -83 32 -128 103 -128c43 0 80 16 99 31zM225 412c-51 0 -75 -43 -79 -116h138c4 76 -16 116 -59 116z" />
    <glyph glyph-name="uniF514" unicode="&#xf514;" horiz-adv-x="430" 
d="M56 998l114 18c4 -41 23 -61 56 -61s52 20 56 60l102 -15c-11 -87 -67 -123 -159 -123s-158 29 -169 121zM60 798c0 35 18 58 69 58c47 0 66 -23 66 -58s-19 -57 -66 -57c-51 0 -69 22 -69 57zM242 798c0 35 19 58 67 58c49 0 68 -23 68 -58s-19 -57 -68 -57
c-48 0 -67 22 -67 57zM399 0h-354v700h350v-116h-224v-172h203v-116h-203v-180h228v-116z" />
    <glyph glyph-name="uniF515" unicode="&#xf515;" horiz-adv-x="428" 
d="M56 840l114 18c4 -41 23 -61 56 -61s52 20 56 60l102 -15c-11 -87 -67 -123 -159 -123s-158 29 -169 121zM62 618c0 43 25 68 64 68c37 0 62 -25 62 -68c0 -40 -25 -65 -62 -65c-39 0 -64 25 -64 65zM248 618c0 43 24 68 63 68s63 -25 63 -68c0 -40 -24 -65 -63 -65
s-63 25 -63 65zM344 120l37 -83c-33 -29 -95 -49 -158 -49c-139 0 -198 98 -198 262c0 180 75 264 202 264c84 0 168 -45 168 -196c0 -29 -3 -62 -10 -101h-243c3 -83 32 -128 103 -128c43 0 80 16 99 31zM225 412c-51 0 -75 -43 -79 -116h138c4 76 -16 116 -59 116z" />
    <glyph glyph-name="uniF516" unicode="&#xf516;" horiz-adv-x="435" 
d="M356 870v-40l-109 -93h-87l-104 94v39h91l42 -45l17 -30l17 29l45 46h88zM121 313h-23v102h24c20 0 55 0 72 7c36 11 65 40 65 87c0 65 -33 87 -89 87c-45 0 -87 -17 -110 -32l-32 109c28 17 99 39 168 39c102 0 195 -34 195 -175c0 -68 -27 -132 -91 -160v-6
c69 -19 109 -74 109 -170c0 -153 -108 -214 -226 -214c-72 0 -135 13 -171 34l33 112c25 -15 71 -31 131 -31c55 0 101 34 101 110c0 65 -32 97 -124 100c-15 0 -15 1 -32 1z" />
    <glyph glyph-name="uniF517" unicode="&#xf517;" horiz-adv-x="354" 
d="M231 732h91l-101 -182h-88l-95 182h98l32 -66l13 -49l13 49zM123 208h-38v89h48c36 0 61 24 61 55c0 33 -21 50 -62 50c-40 0 -71 -13 -90 -25l-27 95c35 20 95 36 155 36c95 0 143 -41 143 -124c0 -49 -21 -97 -64 -116v-4c56 -16 80 -55 80 -123
c0 -84 -55 -150 -178 -150c-60 0 -106 13 -137 32l24 97c25 -15 60 -24 99 -24c49 0 73 20 73 59c0 33 -20 53 -87 53z" />
    <glyph glyph-name="uniF518" unicode="&#xf518;" horiz-adv-x="553" 
d="M423 767h-289v89h289v-89zM29 350c0 237 80 364 247 364c173 0 248 -142 248 -364c0 -237 -84 -363 -248 -363c-175 0 -247 141 -247 363zM161 350c0 -141 31 -248 115 -248c77 0 116 75 116 248c0 137 -29 248 -116 248c-77 0 -115 -83 -115 -248z" />
    <glyph glyph-name="uniF519" unicode="&#xf519;" horiz-adv-x="445" 
d="M25 250c0 177 73 263 197 263c133 0 198 -88 198 -263c0 -179 -73 -262 -198 -262c-131 0 -197 87 -197 262zM148 250c0 -100 21 -157 74 -157c51 0 75 42 75 157c0 103 -20 157 -75 157c-47 0 -74 -42 -74 -157zM359 567h-272v91h272v-91z" />
    <glyph glyph-name="uniF51A" unicode="&#xf51a;" horiz-adv-x="553" 
d="M111 856l114 18c4 -41 23 -61 56 -61s52 20 56 60l102 -15c-11 -87 -67 -123 -159 -123s-158 29 -169 121zM29 350c0 237 80 364 247 364c173 0 248 -142 248 -364c0 -237 -84 -363 -248 -363c-175 0 -247 141 -247 363zM161 350c0 -141 31 -248 115 -248
c77 0 116 75 116 248c0 137 -29 248 -116 248c-77 0 -115 -83 -115 -248z" />
    <glyph glyph-name="uniF51B" unicode="&#xf51b;" horiz-adv-x="445" 
d="M76 682l101 22c4 -51 22 -72 49 -72c28 0 44 20 51 71l90 -22c-15 -91 -72 -131 -144 -131c-70 0 -136 34 -147 132zM25 250c0 177 73 263 197 263c133 0 198 -88 198 -263c0 -179 -73 -262 -198 -262c-131 0 -197 87 -197 262zM148 250c0 -100 21 -157 74 -157
c51 0 75 42 75 157c0 103 -20 157 -75 157c-47 0 -74 -42 -74 -157z" />
    <glyph glyph-name="uniF51C" unicode="&#xf51c;" horiz-adv-x="552" 
d="M112 856l114 18c4 -41 23 -61 56 -61s52 20 56 60l102 -15c-11 -87 -67 -123 -159 -123s-158 29 -169 121zM29 350c0 237 80 364 247 364c174 0 247 -142 247 -364c0 -237 -83 -363 -247 -363c-175 0 -247 141 -247 363zM276 102c69 0 109 60 116 197h-231
c8 -116 39 -197 115 -197zM161 405h230c-8 111 -40 193 -115 193c-69 0 -107 -64 -115 -193z" />
    <glyph glyph-name="uniF51D" unicode="&#xf51d;" horiz-adv-x="445" 
d="M76 682l101 22c4 -51 22 -72 49 -72c28 0 44 20 51 71l90 -22c-15 -91 -72 -131 -144 -131c-70 0 -136 34 -147 132zM25 250c0 172 72 264 197 264c133 0 198 -102 198 -264c0 -173 -73 -263 -198 -263c-133 0 -197 101 -197 263zM148 289h149c-7 88 -33 119 -74 119
c-39 0 -70 -28 -75 -119zM297 208h-149c4 -81 35 -116 74 -116s70 27 75 116z" />
    <glyph glyph-name="uniF51E" unicode="&#xf51e;" horiz-adv-x="552" 
d="M112 998l114 18c4 -41 23 -61 56 -61s52 20 56 60l102 -15c-11 -87 -67 -123 -159 -123s-158 29 -169 121zM118 798c0 35 18 58 69 58c47 0 66 -23 66 -58s-19 -57 -66 -57c-51 0 -69 22 -69 57zM300 798c0 35 19 58 67 58c49 0 68 -23 68 -58s-19 -57 -68 -57
c-48 0 -67 22 -67 57zM29 350c0 237 80 364 247 364c174 0 247 -142 247 -364c0 -237 -83 -363 -247 -363c-175 0 -247 141 -247 363zM276 102c69 0 109 60 116 197h-231c8 -116 39 -197 115 -197zM161 405h230c-8 111 -40 193 -115 193c-69 0 -107 -64 -115 -193z" />
    <glyph glyph-name="uniF51F" unicode="&#xf51f;" horiz-adv-x="445" 
d="M60 836l114 18c4 -41 23 -61 56 -61s52 20 56 60l102 -15c-11 -87 -67 -123 -159 -123s-158 29 -169 121zM66 613c0 43 25 68 64 68c37 0 62 -25 62 -68c0 -40 -25 -65 -62 -65c-39 0 -64 25 -64 65zM252 613c0 43 24 68 63 68s63 -25 63 -68c0 -40 -24 -65 -63 -65
s-63 25 -63 65zM25 250c0 172 72 264 197 264c133 0 198 -102 198 -264c0 -173 -73 -263 -198 -263c-133 0 -197 101 -197 263zM148 289h149c-7 88 -33 119 -74 119c-39 0 -70 -28 -75 -119zM297 208h-149c4 -81 35 -116 74 -116s70 27 75 116z" />
    <glyph glyph-name="uniF520" unicode="&#xf520;" horiz-adv-x="668" 
d="M476 767h-289v89h289v-89zM623 0h-126v700h126v-700zM45 6v694h126v-251c12 3 44 8 71 8c111 0 201 -43 201 -223c0 -164 -71 -243 -236 -243c-32 0 -108 2 -162 15zM171 332v-220c11 -4 28 -6 45 -6c60 0 95 33 95 122c0 92 -38 113 -94 113c-13 0 -38 -5 -46 -9z" />
    <glyph glyph-name="uniF521" unicode="&#xf521;" horiz-adv-x="591" 
d="M424 567h-272v91h272v-91zM162 233v-128c14 -4 28 -6 43 -6c43 0 59 20 59 71c0 47 -15 69 -58 69c-15 0 -30 -2 -44 -6zM43 500h119v-178c27 5 56 7 79 7c109 0 146 -66 146 -155c0 -120 -49 -180 -195 -180c-64 0 -112 3 -149 6v500zM549 0h-119v500h119v-500z" />
    <glyph glyph-name="uniF522" unicode="&#xf522;" horiz-adv-x="477" 
d="M343 767h-289v89h289v-89zM317 303h-212v104h211c-5 112 -45 191 -141 191c-57 0 -100 -16 -131 -35l-29 109c43 25 110 42 167 42c161 0 266 -98 266 -363c0 -284 -127 -364 -279 -364c-65 0 -124 15 -155 31l33 112c27 -13 72 -28 127 -28c88 0 136 62 143 201z" />
    <glyph glyph-name="uniF523" unicode="&#xf523;" horiz-adv-x="377" 
d="M306 567h-272v91h272v-91zM229 208h-144v90h144c-4 72 -27 110 -86 110c-41 0 -71 -9 -94 -24l-32 90c36 27 86 40 149 40c123 0 186 -85 186 -264s-72 -262 -197 -262c-49 0 -108 10 -140 28l28 99c27 -15 59 -22 94 -22c65 0 89 35 92 115z" />
    <glyph glyph-name="uniF524" unicode="&#xf524;" horiz-adv-x="477" 
d="M32 856l114 18c4 -41 23 -61 56 -61s52 20 56 60l102 -15c-11 -87 -67 -123 -159 -123s-158 29 -169 121zM317 303h-212v104h211c-5 112 -45 191 -141 191c-57 0 -100 -16 -131 -35l-29 109c43 25 110 42 167 42c161 0 266 -98 266 -363c0 -284 -127 -364 -279 -364
c-65 0 -124 15 -155 31l33 112c27 -13 72 -28 127 -28c88 0 136 62 143 201z" />
    <glyph glyph-name="uniF525" unicode="&#xf525;" horiz-adv-x="377" 
d="M23 682l101 22c4 -51 22 -72 49 -72c28 0 44 20 51 71l90 -22c-15 -91 -72 -131 -144 -131c-70 0 -136 34 -147 132zM229 208h-144v90h144c-4 72 -27 110 -86 110c-41 0 -71 -9 -94 -24l-32 90c36 27 86 40 149 40c123 0 186 -85 186 -264s-72 -262 -197 -262
c-49 0 -108 10 -140 28l28 99c27 -15 59 -22 94 -22c65 0 89 35 92 115z" />
    <glyph glyph-name="uniF526" unicode="&#xf526;" horiz-adv-x="475" 
d="M123 798c0 35 18 58 69 58c47 0 66 -23 66 -58s-19 -57 -66 -57c-51 0 -69 22 -69 57zM305 798c0 35 19 58 67 58c49 0 68 -23 68 -58s-19 -57 -68 -57c-48 0 -67 22 -67 57zM421 134l25 -106c-35 -28 -103 -41 -160 -41c-143 0 -257 91 -257 364c0 283 131 363 260 363
c65 0 118 -13 149 -26l-25 -111c-25 13 -62 21 -109 21c-80 0 -130 -58 -142 -186h223v-104h-224c8 -123 57 -206 152 -206c47 0 81 15 108 32z" />
    <glyph glyph-name="uniF527" unicode="&#xf527;" horiz-adv-x="371" 
d="M58 633c0 43 25 68 64 68c37 0 62 -25 62 -68c0 -40 -25 -65 -62 -65c-39 0 -64 25 -64 65zM244 633c0 43 24 68 63 68s63 -25 63 -68c0 -40 -24 -65 -63 -65s-63 25 -63 65zM331 119l25 -94c-31 -24 -87 -36 -135 -36c-133 0 -194 103 -194 261c0 169 76 262 199 262
c60 0 97 -10 126 -26l-29 -101c-25 13 -50 18 -79 18c-47 0 -82 -32 -93 -107h151v-86h-152c8 -68 40 -113 100 -113c33 0 60 9 81 22z" />
    <glyph glyph-name="uniF528" unicode="&#xf528;" horiz-adv-x="486" 
d="M415 767h-289v89h289v-89zM441 693v-693h-126v279l-54 -19l-111 -260h-145l114 238l50 40c-71 20 -123 86 -123 207c0 170 101 225 249 225c37 0 106 -6 146 -17zM277 361h38v228c-12 4 -23 5 -40 5c-54 0 -97 -27 -97 -115c0 -84 40 -118 99 -118z" />
    <glyph glyph-name="uniF529" unicode="&#xf529;" horiz-adv-x="421" 
d="M352 567h-272v91h272v-91zM381 0h-119v189l-45 -12l-71 -177h-139l76 161l39 32c-53 13 -90 67 -90 144c0 121 64 177 209 176c56 0 107 -6 140 -14v-499zM234 254l28 2v144c-10 5 -22 7 -37 7c-47 0 -70 -26 -70 -77c0 -49 26 -75 79 -76z" />
    <glyph glyph-name="uniF52A" unicode="&#xf52a;" horiz-adv-x="486" 
d="M102 856l114 18c4 -41 23 -61 56 -61s52 20 56 60l102 -15c-11 -87 -67 -123 -159 -123s-158 29 -169 121zM441 693v-693h-126v279l-54 -19l-111 -260h-145l114 238l50 40c-71 20 -123 86 -123 207c0 170 101 225 249 225c37 0 106 -6 146 -17zM277 361h38v228
c-12 4 -23 5 -40 5c-54 0 -97 -27 -97 -115c0 -84 40 -118 99 -118z" />
    <glyph glyph-name="uniF52B" unicode="&#xf52b;" horiz-adv-x="421" 
d="M77 682l101 22c4 -51 22 -72 49 -72c28 0 44 20 51 71l90 -22c-15 -91 -72 -131 -144 -131c-70 0 -136 34 -147 132zM381 0h-119v189l-45 -12l-71 -177h-139l76 161l39 32c-53 13 -90 67 -90 144c0 121 64 177 209 176c56 0 107 -6 140 -14v-499zM234 254l28 2v144
c-10 5 -22 7 -37 7c-47 0 -70 -26 -70 -77c0 -49 26 -75 79 -76z" />
    <glyph glyph-name="uniF52C" unicode="&#xf52c;" horiz-adv-x="743" 
d="M533 767h-289v89h289v-89zM45 700h126v-288h71c11 191 83 302 234 302c174 0 238 -145 238 -364c0 -233 -75 -363 -239 -363c-152 0 -222 119 -233 309h-71v-296h-126v700zM368 350c0 -144 24 -248 107 -248c77 0 107 73 107 248c0 140 -20 248 -107 248
c-76 0 -107 -79 -107 -248z" />
    <glyph glyph-name="uniF52D" unicode="&#xf52d;" horiz-adv-x="611" 
d="M432 567h-272v91h272v-91zM400 -11c-124 0 -172 76 -181 215h-57v-204h-119v500h119v-190h58c12 133 65 202 182 202c128 0 184 -95 184 -262c0 -175 -62 -261 -186 -261zM332 250c0 -103 17 -156 68 -156c44 0 63 33 63 156c0 109 -16 156 -65 156
c-45 0 -66 -40 -66 -156z" />
    <glyph glyph-name="uniF52E" unicode="&#xf52e;" horiz-adv-x="743" 
d="M202 856l114 18c4 -41 23 -61 56 -61s52 20 56 60l102 -15c-11 -87 -67 -123 -159 -123s-158 29 -169 121zM45 700h126v-288h71c11 191 83 302 234 302c174 0 238 -145 238 -364c0 -233 -75 -363 -239 -363c-152 0 -222 119 -233 309h-71v-296h-126v700zM368 350
c0 -144 24 -248 107 -248c77 0 107 73 107 248c0 140 -20 248 -107 248c-76 0 -107 -79 -107 -248z" />
    <glyph glyph-name="uniF52F" unicode="&#xf52f;" horiz-adv-x="611" 
d="M156 682l101 22c4 -51 22 -72 49 -72c28 0 44 20 51 71l90 -22c-15 -91 -72 -131 -144 -131c-70 0 -136 34 -147 132zM400 -11c-124 0 -172 76 -181 215h-57v-204h-119v500h119v-190h58c12 133 65 202 182 202c128 0 184 -95 184 -262c0 -175 -62 -261 -186 -261z
M332 250c0 -103 17 -156 68 -156c44 0 63 33 63 156c0 109 -16 156 -65 156c-45 0 -66 -40 -66 -156z" />
    <glyph glyph-name="uniF530" unicode="&#xf530;" horiz-adv-x="558" 
d="M444 0h-99v584h-106c-9 -253 -20 -423 -65 -512c-32 -64 -84 -78 -119 -78c-28 0 -48 5 -66 13l13 114c24 -9 48 -2 66 32c31 60 47 222 52 547h351v-584h74v-240h-89z" />
    <glyph glyph-name="uniF531" unicode="&#xf531;" horiz-adv-x="472" 
d="M360 0h-89v391h-72c-11 -232 -31 -396 -140 -396c-33 0 -57 4 -73 14l14 104c62 -21 86 26 94 387h296v-391h71v-222h-88z" />
    <glyph glyph-name="uniF532" unicode="&#xf532;" horiz-adv-x="547" 
d="M45 0v700h126v-366l-11 -102h5l40 109l199 359h98v-729c0 -111 -34 -178 -133 -178c-19 0 -40 2 -61 7v106c57 -5 68 31 68 94v373l10 99h-5l-38 -106l-199 -366h-99zM116 856l114 18c4 -41 23 -61 56 -61s52 20 56 60l102 -15c-11 -87 -67 -123 -159 -123
s-158 29 -169 121z" />
    <glyph glyph-name="uniF533" unicode="&#xf533;" horiz-adv-x="450" 
d="M86 682l101 22c4 -51 22 -72 49 -72c28 0 44 20 51 71l90 -22c-15 -91 -72 -131 -144 -131c-70 0 -136 34 -147 132zM288 10v208l9 81h-3l-37 -85l-134 -214h-80v500h119v-227l-9 -78h3l36 83l135 222h80v-530c0 -112 -39 -175 -131 -175c-17 0 -37 2 -58 7v103
c57 -5 70 25 70 105z" />
    <glyph glyph-name="uniF534" unicode="&#xf534;" horiz-adv-x="553" 
d="M199 799c0 33 26 61 77 61c52 0 79 -28 79 -61c0 -35 -27 -62 -79 -62c-51 0 -77 27 -77 62zM29 350c0 237 80 364 247 364c173 0 248 -142 248 -364c0 -237 -84 -363 -248 -363c-175 0 -247 141 -247 363zM161 350c0 -141 31 -248 115 -248c77 0 116 75 116 248
c0 137 -29 248 -116 248c-77 0 -115 -83 -115 -248z" />
    <glyph glyph-name="uniF535" unicode="&#xf535;" horiz-adv-x="445" 
d="M25 250c0 177 73 263 197 263c133 0 198 -88 198 -263c0 -179 -73 -262 -198 -262c-131 0 -197 87 -197 262zM148 250c0 -100 21 -157 74 -157c51 0 75 42 75 157c0 103 -20 157 -75 157c-47 0 -74 -42 -74 -157zM148 641c0 40 26 69 73 69s77 -28 77 -69
s-30 -67 -77 -67s-73 27 -73 67z" />
    <glyph glyph-name="uniF536" unicode="&#xf536;" horiz-adv-x="668" 
d="M171 856l114 18c4 -41 23 -61 56 -61s52 20 56 60l102 -15c-11 -87 -67 -123 -159 -123s-158 29 -169 121zM623 0h-126v700h126v-700zM45 6v694h126v-251c12 3 44 8 71 8c111 0 201 -43 201 -223c0 -164 -71 -243 -236 -243c-32 0 -108 2 -162 15zM171 332v-220
c11 -4 28 -6 45 -6c60 0 95 33 95 122c0 92 -38 113 -94 113c-13 0 -38 -5 -46 -9z" />
    <glyph glyph-name="uniF537" unicode="&#xf537;" horiz-adv-x="591" 
d="M149 682l101 22c4 -51 22 -72 49 -72c28 0 44 20 51 71l90 -22c-15 -91 -72 -131 -144 -131c-70 0 -136 34 -147 132zM162 233v-128c14 -4 28 -6 43 -6c43 0 59 20 59 71c0 47 -15 69 -58 69c-15 0 -30 -2 -44 -6zM43 500h119v-178c27 5 56 7 79 7
c109 0 146 -66 146 -155c0 -120 -49 -180 -195 -180c-64 0 -112 3 -149 6v500zM549 0h-119v500h119v-500z" />
    <glyph glyph-name="uniF538" unicode="&#xf538;" horiz-adv-x="442" 
d="M81 798c0 35 18 58 69 58c47 0 66 -23 66 -58s-19 -57 -66 -57c-51 0 -69 22 -69 57zM263 798c0 35 19 58 67 58c49 0 68 -23 68 -58s-19 -57 -68 -57c-48 0 -67 22 -67 57zM340 414v-101h-22c-17 0 -19 -1 -32 -1c-93 -4 -125 -41 -125 -105c0 -69 43 -105 104 -105
c52 0 100 20 124 33l34 -102c-32 -23 -100 -46 -176 -46c-136 0 -218 64 -218 209c0 97 40 154 108 173v6c-61 28 -90 93 -90 162c0 131 94 175 201 175c69 0 134 -22 162 -39l-32 -105c-27 15 -69 28 -109 28c-59 0 -90 -23 -90 -82c0 -53 33 -82 69 -91c17 -7 50 -9 70 -9
h22z" />
    <glyph glyph-name="uniF539" unicode="&#xf539;" horiz-adv-x="355" 
d="M40 633c0 43 25 68 64 68c37 0 62 -25 62 -68c0 -40 -25 -65 -62 -65c-39 0 -64 25 -64 65zM226 633c0 43 24 68 63 68s63 -25 63 -68c0 -40 -24 -65 -63 -65s-63 25 -63 65zM269 297v-87h-39c-67 0 -86 -20 -86 -55s24 -60 71 -60c41 0 76 10 99 25l24 -97
c-28 -19 -74 -33 -137 -33c-122 0 -176 62 -176 150c0 68 25 104 80 123v4c-44 19 -65 66 -65 113c0 85 56 129 144 129c69 0 119 -14 154 -34l-26 -96c-23 12 -53 24 -92 24c-40 0 -60 -18 -60 -53c0 -31 25 -53 61 -53h48z" />
    <glyph glyph-name="afii10055.alt" unicode="&#xf53a;" horiz-adv-x="238" 
d="M43 799c0 33 26 61 77 61c52 0 79 -28 79 -61c0 -35 -27 -62 -79 -62c-51 0 -77 27 -77 62zM182 0h-126v700h126v-700z" />
    <glyph glyph-name="afii10103.alt" unicode="&#xf53b;" horiz-adv-x="225" 
d="M172 0h-119v500h119v-500z" />
    <glyph glyph-name="uni0492.alt" unicode="&#xf53c;" horiz-adv-x="419" 
d="M171 0h-126v700h350v-116h-224v-182h206v-116h-206v-286z" />
    <glyph glyph-name="uni0493.alt" unicode="&#xf53d;" horiz-adv-x="334" 
d="M43 500h271v-109h-152v-116h138v-98h-138v-177h-119v500z" />
    <glyph glyph-name="uni04AA.alt" unicode="&#xf53e;" horiz-adv-x="457" 
d="M417 134l25 -106c-24 -20 -63 -32 -103 -37l-11 -165h-82l-15 166c-117 20 -202 123 -202 359c0 283 131 363 260 363c65 0 114 -13 145 -26l-25 -111c-25 13 -58 21 -105 21c-92 0 -143 -77 -143 -248c0 -147 44 -248 151 -248c47 0 78 15 105 32z" />
    <glyph glyph-name="uni04AB.alt" unicode="&#xf53f;" horiz-adv-x="350" 
d="M313 120l25 -92c-20 -16 -44 -27 -73 -32l-11 -169h-82l-16 168c-95 23 -131 117 -131 256c0 175 64 263 185 263c60 0 95 -12 124 -28l-28 -99c-24 12 -43 18 -74 18c-56 0 -84 -46 -84 -154c0 -91 27 -154 90 -154c33 0 55 10 75 23z" />
    <glyph glyph-name="uniF540" unicode="&#xf540;" horiz-adv-x="535" 
d="M258 752h-93l82 118h143v-30zM45 0v700c47 8 126 10 171 10c221 0 289 -142 289 -354c0 -195 -63 -366 -299 -366c-34 0 -129 5 -161 10zM229 594c-21 0 -46 0 -58 -3v-482c7 -2 46 -4 53 -4c120 0 149 121 149 253c0 124 -23 236 -144 236z" />
    <glyph glyph-name="uniF541" unicode="&#xf541;" horiz-adv-x="445" 
d="M283 700h119v-524c0 -56 0 -109 9 -176h-84l-16 57h-4c-23 -47 -62 -69 -119 -69c-101 0 -163 74 -163 254c0 176 63 269 187 269c32 0 51 -4 71 -13v202zM216 96c36 0 56 18 67 53v236c-13 12 -28 17 -55 17c-53 0 -80 -41 -80 -164c0 -92 21 -142 68 -142zM489 548h-67
l42 154h119v-30z" />
    <glyph glyph-name="uniF542" unicode="&#xf542;" horiz-adv-x="533" 
d="M298 752h-93l82 118h143v-30zM488 0h-126v296h-191v-296h-126v700h126v-288h191v288h126v-700z" />
    <glyph glyph-name="uniF543" unicode="&#xf543;" horiz-adv-x="449" 
d="M410 328v-328h-119v302c0 72 -14 102 -58 102c-32 0 -62 -25 -71 -60v-344h-119v700h119v-245h3c27 35 63 58 120 58c82 0 125 -42 125 -185zM291 566h-67l42 154h119v-30z" />
    <glyph glyph-name="uniF544" unicode="&#xf544;" horiz-adv-x="424" 
d="M281 548h-67l42 154h119v-30zM171 116h246v-116h-372v700h126v-584z" />
    <glyph glyph-name="uniF545" unicode="&#xf545;" horiz-adv-x="243" 
d="M45 700h119v-538c0 -47 9 -65 30 -65c12 0 24 2 40 9l11 -96c-16 -10 -60 -21 -100 -21c-67 0 -100 29 -100 109v602zM255 548h-67l42 154h119v-30z" />
    <glyph glyph-name="uniF546" unicode="&#xf546;" horiz-adv-x="473" 
d="M275 752h-93l82 118h143v-30zM8 700h457v-116h-165v-584h-126v584h-166v116z" />
    <glyph glyph-name="uniF547" unicode="&#xf547;" horiz-adv-x="291" 
d="M59 394h-55v106h55v94l119 37v-131h97v-106h-97v-218c0 -57 10 -79 39 -79c20 0 34 4 53 12l15 -95c-29 -14 -69 -25 -112 -25c-76 0 -114 39 -114 143v262zM282 548h-67l42 154h119v-30z" />
    <glyph glyph-name="uniF548" unicode="&#xf548;" horiz-adv-x="503" 
d="M288 752h-93l82 118h143v-30zM-9 700h148l104 -411l14 -120h4l16 121l102 410h133l-212 -704h-96z" />
    <glyph glyph-name="uniF549" unicode="&#xf549;" horiz-adv-x="399" 
d="M-12 500h138l69 -261l12 -79h4l11 80l62 260h128l-168 -504h-80zM221 566h-67l42 154h119v-30z" />
    <glyph glyph-name="uniF54A" unicode="&#xf54a;" horiz-adv-x="435" 
d="M121 313h-23v102h24c20 0 55 0 72 7c36 11 65 40 65 87c0 65 -33 87 -89 87c-45 0 -87 -17 -110 -32l-32 109c28 17 99 39 168 39c102 0 195 -34 195 -175c0 -68 -27 -132 -91 -160v-6c69 -19 109 -74 109 -170c0 -153 -108 -214 -226 -214c-72 0 -135 13 -171 34l33 112
c25 -15 71 -31 131 -31c55 0 101 34 101 110c0 65 -32 97 -124 100c-15 0 -15 1 -32 1z" />
    <glyph glyph-name="uniF54B" unicode="&#xf54b;" horiz-adv-x="364" 
d="M113 137h-32v87h45c36 0 74 48 74 98c0 55 -26 82 -77 82c-39 0 -62 -11 -82 -24l-24 94c36 23 90 35 146 35c105 0 157 -62 157 -151c0 -65 -36 -133 -81 -157v-4c57 -16 105 -70 105 -179c0 -158 -95 -228 -206 -228c-52 0 -101 14 -130 33l33 96c25 -15 54 -24 81 -24
c51 0 102 29 102 121c0 80 -43 121 -111 121z" />
    <glyph glyph-name="uniF54C" unicode="&#xf54c;" horiz-adv-x="435" 
d="M354 870v-40l-109 -93h-87l-104 94v39h91l42 -45l17 -30l17 29l45 46h88zM121 313h-23v102h24c20 0 55 0 72 7c36 11 65 40 65 87c0 65 -33 87 -89 87c-45 0 -87 -17 -110 -32l-32 109c28 17 99 39 168 39c102 0 195 -34 195 -175c0 -68 -27 -132 -91 -160v-6
c69 -19 109 -74 109 -170c0 -153 -108 -214 -226 -214c-72 0 -135 13 -171 34l33 112c25 -15 71 -31 131 -31c55 0 101 34 101 110c0 65 -32 97 -124 100c-15 0 -15 1 -32 1z" />
    <glyph glyph-name="uniF54D" unicode="&#xf54d;" horiz-adv-x="364" 
d="M215 732h91l-101 -182h-88l-95 182h98l32 -66l13 -49l13 49zM113 137h-32v87h45c36 0 74 48 74 98c0 55 -26 82 -77 82c-39 0 -62 -11 -82 -24l-24 94c36 23 90 35 146 35c105 0 157 -62 157 -151c0 -65 -36 -133 -81 -157v-4c57 -16 105 -70 105 -179
c0 -158 -95 -228 -206 -228c-52 0 -101 14 -130 33l33 96c25 -15 54 -24 81 -24c51 0 102 29 102 121c0 80 -43 121 -111 121z" />
    <glyph glyph-name="uniF62C" unicode="&#xf62c;" horiz-adv-x="190" 
d="M159 445c0 -39 -26 -64 -61 -64c-43 0 -69 34 -69 85c0 104 68 147 99 160l32 -51c-23 -12 -43 -38 -46 -66c23 -3 45 -25 45 -64z" />
    <glyph glyph-name="uniF62D" unicode="&#xf62d;" horiz-adv-x="188" 
d="M29 471c0 39 26 65 61 65c43 0 69 -32 69 -85c0 -102 -67 -144 -99 -157l-30 50c23 11 42 32 45 63c-23 1 -46 21 -46 64z" />
    <glyph glyph-name="uniF62E" unicode="&#xf62e;" horiz-adv-x="343" 
d="M312 445c0 -39 -26 -64 -61 -64c-43 0 -69 34 -69 85c0 104 68 147 99 160l32 -51c-23 -12 -43 -38 -46 -66c23 -3 45 -25 45 -64zM159 445c0 -39 -26 -64 -61 -64c-43 0 -69 34 -69 85c0 104 68 147 99 160l32 -51c-23 -12 -43 -38 -46 -66c23 -3 45 -25 45 -64z" />
    <glyph glyph-name="uniF62F" unicode="&#xf62f;" horiz-adv-x="341" 
d="M182 471c0 39 26 65 61 65c43 0 69 -32 69 -85c0 -102 -67 -144 -99 -157l-30 50c23 11 42 32 45 63c-23 1 -46 21 -46 64zM29 471c0 39 26 65 61 65c43 0 69 -32 69 -85c0 -102 -67 -144 -99 -157l-30 50c23 11 42 32 45 63c-23 1 -46 21 -46 64z" />
    <glyph glyph-name="uniF634" unicode="&#xf634;" horiz-adv-x="217" 
d="M145 311h-72v216h103z" />
    <glyph glyph-name="uniF635" unicode="&#xf635;" horiz-adv-x="351" 
d="M279 311h-72v216h103zM145 311h-72v216h103z" />
    <glyph glyph-name="one.numerator" unicode="&#xf662;" horiz-adv-x="357" 
d="M253 280h-105v264l9 46l-26 -33l-45 -31l-45 70l131 111h81v-427z" />
    <glyph glyph-name="uniF6C3" unicode="&#xf6c3;" horiz-adv-x="253" 
d="M61 -105c0 39 27 64 62 64c41 0 70 -29 70 -89c0 -88 -61 -132 -92 -142l-33 46c17 11 36 32 39 61c-20 1 -46 19 -46 60z" />
    <glyph glyph-name="uniF6C9" unicode="&#xf6c9;" horiz-adv-x="345" 
d="M153 752h-93l82 118h143v-30z" />
    <glyph glyph-name="uniF6CA" unicode="&#xf6ca;" horiz-adv-x="420" 
d="M360 870v-40l-109 -93h-87l-104 94v39h91l42 -45l17 -30l17 29l45 46h88z" />
    <glyph glyph-name="uniF6CB" unicode="&#xf6cb;" horiz-adv-x="437" 
d="M60 798c0 35 18 58 69 58c47 0 66 -23 66 -58s-19 -57 -66 -57c-51 0 -69 22 -69 57zM242 798c0 35 19 58 67 58c49 0 68 -23 68 -58s-19 -57 -68 -57c-48 0 -67 22 -67 57z" />
    <glyph glyph-name="uniF6CE" unicode="&#xf6ce;" horiz-adv-x="344" 
d="M60 870h142l82 -118h-94l-130 88v30z" />
    <glyph glyph-name="uniF6CF" unicode="&#xf6cf;" horiz-adv-x="465" 
d="M146 741h-86l48 109h120v-16zM287 741h-86l79 109h125v-16z" />
    <glyph glyph-name="uniF6D0" unicode="&#xf6d0;" horiz-adv-x="409" 
d="M349 767h-289v89h289v-89z" />
    <glyph glyph-name="uniF6D1" unicode="&#xf6d1;" horiz-adv-x="448" 
d="M60 856l114 18c4 -41 23 -61 56 -61s52 20 56 60l102 -15c-11 -87 -67 -123 -159 -123s-158 29 -169 121z" />
    <glyph glyph-name="uniF6D4" unicode="&#xf6d4;" horiz-adv-x="411" 
d="M60 682l101 22c4 -51 22 -72 49 -72c28 0 44 20 51 71l90 -22c-15 -91 -72 -131 -144 -131c-70 0 -136 34 -147 132z" />
    <glyph glyph-name="caron.l" horiz-adv-x="155" 
d="M196 700h104c-5 -78 -52 -174 -80 -202l-53 26c19 48 29 115 29 176z" />
    <glyph glyph-name="l.var" horiz-adv-x="217" 
d="M168 0h-119v700h119v-700z" />
    <glyph glyph-name="fraction.alt" horiz-adv-x="151" 
d="M-137 -13l-71 58l494 669l70 -58z" />
    <glyph glyph-name="uni03BC" unicode="&#x3bc;" horiz-adv-x="476" 
d="M40 -199v699h119v-287c0 -80 21 -119 72 -119c47 0 72 25 85 65v341h119v-337c0 -55 2 -111 13 -163h-89l-28 64h-4c-16 -43 -48 -75 -103 -75c-40 0 -59 18 -78 45h-4l17 -100v-133h-119z" />
    <glyph glyph-name="uni021A" unicode="&#x21a;" horiz-adv-x="473" 
d="M169 -105c0 39 27 64 62 64c41 0 70 -29 70 -89c0 -88 -61 -132 -92 -142l-33 46c17 11 36 32 39 61c-20 1 -46 19 -46 60zM8 700h457v-116h-165v-584h-126v584h-166v116z" />
    <glyph glyph-name="uni021B" unicode="&#x21b;" horiz-adv-x="291" 
d="M89 -105c0 39 27 64 62 64c41 0 70 -29 70 -89c0 -88 -61 -132 -92 -142l-33 46c17 11 36 32 39 61c-20 1 -46 19 -46 60zM59 394h-55v106h55v94l119 37v-131h97v-106h-97v-218c0 -57 10 -79 39 -79c20 0 34 4 53 12l15 -95c-29 -14 -69 -25 -112 -25
c-76 0 -114 39 -114 143v262z" />
    <glyph glyph-name="Delta" unicode="&#x2206;" horiz-adv-x="486" 
d="M478 71v-71h-468v71l195 634h76zM239 518l-18 -113l-81 -297h207l-86 298l-17 112h-5z" />
    <glyph glyph-name="Omega" unicode="&#x2126;" horiz-adv-x="633" 
d="M292 0h-249v106h84l70 -12v23l-39 11c-63 37 -114 130 -114 269c0 206 109 317 272 317c171 0 273 -121 273 -321c0 -139 -53 -226 -112 -264l-41 -12v-23l70 12h84v-106h-250v188c52 13 117 80 117 204c0 110 -37 209 -141 209c-89 0 -140 -67 -140 -212
c0 -120 59 -190 116 -201v-188z" />
    </font>
</defs>
</svg>
