<?xml version="1.0" standalone="no"?>
<!DOCTYPE svg PUBLIC "-//W3C//DTD SVG 1.1//EN" "http://www.w3.org/Graphics/SVG/1.1/DTD/svg11.dtd" >
<svg xmlns="http://www.w3.org/2000/svg" xmlns:xlink="http://www.w3.org/1999/xlink" version="1.1">
<metadata>
Created by FontForge 20161116 at Sun Sep 10 22:24:28 2017
 By Jimmy Wärting
PT Serif is a trademark of the ParaType Ltd.
</metadata>
<defs>
<font id="PTSerif-BoldItalic" horiz-adv-x="560" >
  <font-face 
    font-family="PT Serif"
    font-weight="700"
    font-style="italic"
    font-stretch="normal"
    units-per-em="1000"
    panose-1="0 0 0 0 0 0 0 0 0 0"
    ascent="778"
    descent="-222"
    x-height="509"
    cap-height="700"
    bbox="-197 -256 1168 898.288"
    underline-thickness="50"
    underline-position="-99"
    slope="-15"
    stemv="140"
    unicode-range="U+000D-F6D4"
  />
<missing-glyph horiz-adv-x="364" 
d="M298 666v-666h-265v666h265zM265 633h-199v-600h199v600z" />
    <glyph glyph-name=".notdef" horiz-adv-x="364" 
d="M298 666v-666h-265v666h265zM265 633h-199v-600h199v600z" />
    <glyph glyph-name="space" unicode=" " horiz-adv-x="270" 
 />
    <glyph glyph-name="exclam" unicode="!" horiz-adv-x="347" 
d="M290 412l-88 -194h-44l-12 194l54 278c15 7 46 11 77 11s60 -4 73 -11zM72 71c0 48 33 80 84 80s86 -32 86 -80s-35 -78 -86 -78s-84 30 -84 78z" />
    <glyph glyph-name="quotedbl" unicode="&#x22;" horiz-adv-x="394" 
d="M124 486h-38l-14 184c11 17 40 30 71 30c28 0 56 -10 59 -30zM280 486h-38l-14 184c11 17 40 30 71 30c28 0 56 -10 59 -30z" />
    <glyph glyph-name="numbersign" unicode="#" 
d="M298 58h-70l72 162h-124l-72 -162h-71l72 162h-81l33 64h77l59 132h-77l32 64h74l74 162h70l-73 -162h124l74 162h70l-74 -162h79l-35 -64h-73l-59 -132h76l-36 -64h-69zM388 416h-124l-59 -132h124z" />
    <glyph glyph-name="dollar" unicode="$" 
d="M256 -69h-70l12 58c-72 3 -161 29 -185 50c16 61 38 105 59 136h41l30 -97c11 -11 34 -22 69 -25l52 244c-71 47 -154 94 -154 205c0 116 94 200 241 208l11 50h70l-11 -49c64 -3 114 -14 157 -34c-12 -55 -33 -86 -52 -113h-42l-40 72c-11 3 -23 6 -36 8l-48 -225
c71 -45 154 -94 154 -212c0 -115 -89 -201 -245 -216zM255 548c0 -43 21 -69 52 -93l41 189c-56 -8 -93 -41 -93 -96zM364 155c0 44 -20 74 -49 101l-42 -199c49 11 91 42 91 98z" />
    <glyph glyph-name="percent" unicode="%" horiz-adv-x="827" 
d="M373 122c0 116 102 208 233 208c101 0 161 -51 161 -131c0 -132 -117 -209 -233 -209c-89 0 -161 51 -161 132zM492 110c0 -36 15 -69 55 -69c48 0 102 57 102 176c0 31 -13 62 -54 62c-48 0 -103 -68 -103 -169zM55 504c0 116 102 208 233 208c101 0 161 -51 161 -131
c0 -132 -117 -209 -233 -209c-89 0 -161 51 -161 132zM174 492c0 -36 15 -69 55 -69c48 0 102 57 102 176c0 31 -13 62 -54 62c-48 0 -103 -68 -103 -169zM106 -12l-47 42l663 685l48 -42z" />
    <glyph glyph-name="ampersand" unicode="&#x26;" horiz-adv-x="898" 
d="M477 116c-70 72 -139 196 -163 261c-56 -49 -91 -111 -91 -182c-1 -72 45 -132 128 -132c40 0 89 16 126 53zM369 563c0 -41 16 -79 39 -115c52 35 94 87 94 144c0 35 -12 65 -51 65c-47 0 -82 -41 -82 -94zM782 39l-8 -39h-174c-24 16 -58 36 -85 71
c-51 -43 -137 -82 -222 -82c-171 0 -228 90 -228 175c0 127 134 228 219 270c-24 36 -36 78 -36 117c0 96 88 161 197 161c100 0 143 -45 143 -114c0 -80 -87 -154 -160 -195c33 -64 82 -131 145 -202c27 30 91 147 88 236c-20 4 -32 12 -47 24l8 39h228l-9 -39
c-20 -11 -44 -19 -71 -24c-37 -114 -106 -232 -155 -275c39 -41 80 -72 121 -99z" />
    <glyph glyph-name="quoteright" unicode="&#x2019;" horiz-adv-x="303" 
d="M135 415l-14 43c49 15 85 54 92 90c-11 20 -39 32 -62 40c-3 48 49 103 85 111c47 -3 88 -28 88 -85c0 -95 -104 -180 -189 -199z" />
    <glyph glyph-name="parenleft" unicode="(" horiz-adv-x="374" 
d="M289 -176l-40 -33c-112 77 -194 178 -194 337c0 301 217 488 391 574l23 -31c-132 -111 -280 -294 -280 -540c0 -121 26 -211 100 -307z" />
    <glyph glyph-name="parenright" unicode=")" horiz-adv-x="374" 
d="M-54 -209l-25 33c120 97 277 290 277 551c0 113 -19 190 -99 296l37 31c133 -88 196 -199 196 -347c0 -280 -201 -479 -386 -564z" />
    <glyph glyph-name="asterisk" unicode="*" horiz-adv-x="463" 
d="M258 569l-136 28c-16 22 26 97 58 100l90 -106c0 -10 -4 -17 -12 -22zM270 535l-88 -106c-29 0 -73 77 -60 101l135 26c9 -5 13 -12 13 -21zM312 524l44 -129c-7 -11 -31 -17 -56 -17c-27 -1 -51 4 -58 15l43 131c9 5 18 5 27 0zM339 554l130 -24
c16 -30 -22 -100 -55 -100l-87 103c0 9 4 16 12 21zM325 590l92 106c31 3 65 -65 54 -98l-134 -30c-8 6 -12 13 -12 22zM284 600l-43 131c7 13 31 19 56 19s49 -6 56 -19l-42 -131c-9 -5 -18 -5 -27 0z" />
    <glyph glyph-name="plus" unicode="+" 
d="M240 304h-185v80h185v196h80v-196h185v-80h-185v-202h-80v202z" />
    <glyph glyph-name="comma" unicode="," horiz-adv-x="306" 
d="M-8 -174l-13 44c55 16 100 67 108 110c-12 23 -38 37 -65 46c-3 55 49 119 91 127c56 -3 89 -32 89 -97c0 -109 -113 -209 -210 -230z" />
    <glyph glyph-name="hyphen" unicode="-" horiz-adv-x="414" 
d="M350 237h-287l20 90h287z" />
    <glyph glyph-name="period" unicode="." horiz-adv-x="289" 
d="M24 71c0 48 33 80 84 80s86 -32 86 -80s-35 -78 -86 -78s-84 30 -84 78z" />
    <glyph glyph-name="slash" unicode="/" horiz-adv-x="344" 
d="M16 -132l-58 26l363 822l60 -25z" />
    <glyph glyph-name="zero" unicode="0" 
d="M11 220c0 245 117 492 343 492c164 0 212 -117 212 -234c0 -253 -124 -489 -343 -489c-165 0 -212 115 -212 231zM161 194c0 -79 16 -151 75 -151c109 0 180 242 180 462c0 84 -18 152 -75 152c-113 0 -180 -259 -180 -463z" />
    <glyph glyph-name="one" unicode="1" 
d="M435 43l-9 -43h-346l9 43c35 15 71 26 109 34l98 459l19 59c-39 -11 -83 -15 -126 -14l3 37c76 19 171 51 251 94h34l-135 -635c31 -7 62 -18 93 -34z" />
    <glyph glyph-name="two" unicode="2" 
d="M265 633l-70 -155h-34c-8 40 -21 112 -21 160c52 35 120 74 226 74c147 0 193 -74 193 -153c0 -168 -210 -321 -356 -408l-59 -35v-4l61 6h172l73 112h34c-3 -65 -18 -182 -29 -230h-457l13 64c140 104 413 311 413 492c0 49 -29 86 -93 86c-22 0 -44 -3 -66 -9z" />
    <glyph glyph-name="three" unicode="3" 
d="M222 53c96 0 153 84 153 173c0 80 -49 98 -114 98h-55l5 39l188 197l46 35v4l-55 -6h-147l-61 -102h-34c0 57 3 161 14 209h433l-7 -49l-211 -211l-58 -44v-2l35 7c111 -7 161 -69 161 -161c0 -137 -90 -251 -311 -251c-81 0 -160 24 -192 59l59 104h29
c13 -19 45 -66 61 -91c15 -5 35 -8 61 -8z" />
    <glyph glyph-name="four" unicode="4" 
d="M470 43l-9 -43h-309l9 43c34 11 66 19 97 24l24 113h-295l9 45l486 487h54l-99 -467h123l-14 -65h-123l-24 -113c25 -5 48 -13 71 -24zM155 245h141l45 213l28 70h-3l-54 -70l-183 -187l-47 -33z" />
    <glyph glyph-name="five" unicode="5" 
d="M252 700h261l59 55h34c-8 -41 -38 -137 -57 -170h-273l-49 -143h66c141 0 213 -74 213 -175c0 -156 -102 -278 -321 -278c-83 0 -147 28 -178 59l62 99h29c16 -19 39 -62 52 -86c12 -5 30 -8 49 -8c120 0 172 84 172 175c0 79 -57 109 -149 108l-88 -1z" />
    <glyph glyph-name="six" unicode="6" 
d="M542 267c0 -142 -97 -278 -297 -278c-125 0 -211 65 -211 205c0 230 196 457 521 524l6 -43c-167 -51 -283 -157 -339 -326c31 41 90 72 161 72c111 0 159 -62 159 -154zM392 259c0 64 -20 92 -79 92c-41 0 -83 -27 -106 -58c-8 -18 -23 -81 -23 -120
c0 -68 16 -125 77 -125c89 0 131 126 131 211z" />
    <glyph glyph-name="seven" unicode="7" 
d="M401 583h-212l-61 -102h-34c0 58 8 170 16 219h468v-44c-198 -219 -291 -403 -371 -656h-142c85 191 188 363 335 540l51 48z" />
    <glyph glyph-name="eight" unicode="8" 
d="M8 137c0 97 80 174 204 208c-63 47 -95 90 -95 161c0 112 89 206 252 206c128 0 193 -53 193 -141c0 -83 -71 -156 -179 -188c96 -61 123 -111 123 -187c0 -111 -104 -207 -281 -207c-136 0 -217 49 -217 148zM365 170c0 60 -51 97 -120 148c-72 -45 -97 -122 -97 -173
c0 -64 43 -97 94 -97c91 0 123 67 123 122zM253 535c0 -48 40 -96 95 -129c59 52 83 109 83 165c0 47 -22 81 -77 81c-65 0 -101 -54 -101 -117z" />
    <glyph glyph-name="nine" unicode="9" 
d="M48 438c0 141 97 280 297 280c125 0 211 -67 211 -207c0 -229 -196 -459 -521 -522l-6 42c167 51 283 157 339 326c-31 -41 -90 -72 -161 -72c-111 0 -159 61 -159 153zM198 447c0 -64 20 -92 79 -92c41 0 83 26 106 57c8 19 23 83 23 121c0 68 -16 125 -77 125
c-89 0 -131 -126 -131 -211z" />
    <glyph glyph-name="colon" unicode=":" horiz-adv-x="341" 
d="M106 429c0 48 33 80 84 80s86 -32 86 -80s-35 -79 -86 -79s-84 31 -84 79zM56 71c0 48 33 80 84 80s86 -32 86 -80s-35 -78 -86 -78s-84 30 -84 78z" />
    <glyph glyph-name="semicolon" unicode=";" horiz-adv-x="334" 
d="M102 429c0 48 33 80 84 80s86 -32 86 -80s-35 -79 -86 -79s-84 31 -84 79zM7 -174l-12 44c55 16 100 67 108 110c-12 23 -38 37 -65 46c-3 55 49 119 91 127c56 -3 89 -32 89 -97c0 -109 -113 -209 -211 -230z" />
    <glyph glyph-name="less" unicode="&#x3c;" 
d="M501 195l-56 -92l-384 221v31l385 235l36 -65l-213 -128l-82 -34l81 -31z" />
    <glyph glyph-name="equal" unicode="=" 
d="M505 389h-450v80h450v-80zM505 219h-450v80h450v-80z" />
    <glyph glyph-name="greater" unicode="&#x3e;" 
d="M59 497l56 93l384 -221v-31l-385 -235l-35 65l213 128l81 34l-80 31z" />
    <glyph glyph-name="question" unicode="?" horiz-adv-x="505" 
d="M255 633l-51 -132h-34c-8 36 -26 106 -21 160c57 31 120 51 208 51c117 0 189 -50 189 -138c0 -199 -275 -199 -303 -371h-33c-20 191 190 237 190 366c0 53 -30 78 -77 78c-32 0 -55 -6 -68 -14zM142 71c0 48 33 80 84 80s86 -32 86 -80s-35 -78 -86 -78s-84 30 -84 78z
" />
    <glyph glyph-name="at" unicode="@" horiz-adv-x="1027" 
d="M642 465c32 15 80 21 125 20l-49 -278c-15 -85 -18 -127 19 -127c61 0 170 80 170 246c0 204 -156 321 -362 321c-232 0 -394 -172 -394 -405c0 -236 166 -356 390 -356c39 0 93 9 133 28l16 -57c-47 -27 -102 -36 -170 -36c-237 0 -444 139 -444 415
c0 291 214 476 474 476c253 0 432 -144 432 -386c0 -187 -149 -313 -290 -313c-79 0 -121 37 -105 152h-4c-24 -73 -96 -152 -171 -152c-91 0 -137 65 -137 156c0 157 109 323 261 323c47 0 74 -8 106 -27zM594 251l28 164c-15 11 -29 15 -52 15c-91 0 -158 -156 -158 -264
c0 -45 14 -73 53 -73c46 0 94 82 129 158z" />
    <glyph glyph-name="A" unicode="A" horiz-adv-x="724" 
d="M212 38l-7 -38h-248l7 38c24 13 50 24 77 29l396 645h73l113 -645c25 -5 52 -17 69 -29l-8 -38h-308l7 38c28 13 61 24 89 29l-24 159h-221l-95 -159c28 -4 57 -14 80 -29zM410 568l-38 -88l-111 -189h179l-28 191v86h-2z" />
    <glyph glyph-name="B" unicode="B" horiz-adv-x="644" 
d="M95 0h-118l7 37c28 15 60 26 88 29l120 566c-27 5 -55 16 -76 29l8 38h159c51 0 94 6 153 6c128 0 217 -37 217 -133c0 -112 -82 -177 -191 -198v-4c72 -5 151 -41 151 -133c0 -143 -115 -243 -336 -243c-55 0 -138 6 -182 6zM290 58c99 0 168 74 168 173
c0 73 -50 91 -135 91h-53l-54 -257c17 -4 33 -7 74 -7zM337 636l-53 -249h32c23 0 47 2 67 5c80 31 120 90 120 166c0 52 -29 82 -98 82c-28 0 -49 -1 -68 -4z" />
    <glyph glyph-name="C" unicode="C" horiz-adv-x="652" 
d="M483 70l78 140h42c0 -42 -8 -128 -21 -182c-56 -28 -142 -39 -190 -39c-244 0 -333 145 -333 280c0 264 159 443 432 443c88 0 160 -14 204 -35c-8 -42 -40 -144 -64 -192h-42l-23 151c-12 7 -44 11 -72 11c-155 0 -265 -155 -265 -392c0 -149 96 -202 173 -202
c39 0 68 9 81 17z" />
    <glyph glyph-name="D" unicode="D" horiz-adv-x="734" 
d="M89 0h-112l7 38c24 13 56 24 88 29l120 566c-31 7 -57 17 -76 29l8 38h116c45 0 145 8 192 8c224 0 307 -101 307 -248c0 -226 -115 -468 -470 -468c-34 0 -130 8 -180 8zM409 643c-24 0 -45 -1 -64 -4l-123 -579c20 -3 49 -4 64 -4c216 0 288 228 288 417
c0 110 -39 170 -165 170z" />
    <glyph glyph-name="E" unicode="E" horiz-adv-x="602" 
d="M116 662l8 38h526c-13 -60 -34 -127 -58 -183h-42l-21 118h-187l-52 -245h123l60 77h31c-7 -65 -25 -152 -46 -221h-32l-27 79h-123l-54 -260h194l80 127h42c0 -48 -8 -133 -21 -192h-540l7 38c26 12 56 24 88 29l120 566c-27 5 -55 16 -76 29z" />
    <glyph glyph-name="F" unicode="F" horiz-adv-x="572" 
d="M401 307h-138l-51 -240c30 -4 57 -14 80 -29l-7 -38h-308l7 38c23 12 49 22 78 29l120 566c-28 8 -50 18 -66 29l8 38h523c-11 -53 -34 -130 -58 -183h-42l-21 118h-194l-56 -263h138l61 77h31c-5 -66 -28 -161 -47 -221h-31z" />
    <glyph glyph-name="G" unicode="G" horiz-adv-x="709" 
d="M650 268l-47 -224c-67 -35 -177 -55 -235 -55c-182 0 -309 89 -309 281c0 263 161 442 434 442c87 0 180 -14 220 -35c-8 -39 -39 -134 -65 -192h-41l-23 152c-19 7 -58 10 -87 10c-180 0 -268 -187 -268 -398c0 -139 68 -196 152 -196c39 0 86 12 110 27l40 188
c-33 3 -63 14 -86 29l8 38h273l-8 -38c-15 -12 -36 -22 -68 -29z" />
    <glyph glyph-name="H" unicode="H" horiz-adv-x="766" 
d="M286 38l-7 -38h-302l7 38c26 13 59 24 88 29l120 566c-31 5 -59 17 -76 29l8 38h303l-8 -38c-20 -15 -50 -24 -77 -29l-52 -242h265l52 242c-29 7 -50 17 -65 29l8 38h303l-8 -38c-25 -15 -59 -25 -88 -29l-120 -566c29 -5 56 -17 75 -29l-7 -38h-303l7 38
c23 12 50 24 78 29l54 259h-265l-54 -259c23 -5 44 -14 64 -29z" />
    <glyph glyph-name="I" unicode="I" horiz-adv-x="369" 
d="M305 38l-7 -38h-311l7 38c30 15 60 24 87 29l120 566c-27 4 -54 14 -75 29l8 38h312l-8 -38c-27 -15 -60 -25 -87 -29l-120 -566c25 -5 54 -14 74 -29z" />
    <glyph glyph-name="J" unicode="J" horiz-adv-x="361" 
d="M121 662l8 38h309l-8 -38c-23 -15 -57 -25 -84 -29l-108 -512c-46 -217 -208 -269 -268 -280l-12 26c49 34 96 94 129 248l109 518c-28 5 -56 16 -75 29z" />
    <glyph glyph-name="K" unicode="K" horiz-adv-x="705" 
d="M491 662l8 38h272l-8 -38c-24 -15 -58 -25 -85 -29l-242 -243c43 -88 123 -221 195 -327l42 -29l-7 -34h-168l-35 28c-48 80 -104 200 -138 300h-48l-55 -261c27 -7 49 -18 64 -29l-7 -38h-302l7 38c28 15 59 24 88 29l120 566c-31 4 -59 16 -76 29l8 38h303l-8 -38
c-19 -11 -48 -22 -77 -29l-54 -254l59 14l211 240c-27 7 -51 17 -67 29z" />
    <glyph glyph-name="L" unicode="L" horiz-adv-x="577" 
d="M116 662l8 38h328l-8 -38c-29 -15 -69 -25 -102 -29l-120 -568h193l104 179h42c0 -60 -17 -177 -36 -244h-548l7 38c34 16 63 25 88 29l120 566c-29 5 -57 14 -76 29z" />
    <glyph glyph-name="M" unicode="M" horiz-adv-x="926" 
d="M872 38l-8 -38h-299l8 38c29 13 56 22 87 29l88 418l30 117h-8l-55 -107l-299 -495h-45l-89 491l-12 117h-9l-26 -127l-86 -410c24 -5 55 -18 78 -33l-8 -38h-242l7 38c22 12 60 29 91 34l118 561c-27 5 -56 14 -76 29l8 38h271l63 -407l8 -96h1l47 98l246 405h252
l-8 -38c-24 -15 -54 -24 -82 -29l-120 -567c27 -5 52 -17 69 -28z" />
    <glyph glyph-name="N" unicode="N" horiz-adv-x="755" 
d="M587 662l8 38h247l-8 -38c-31 -23 -63 -36 -94 -44l-134 -629h-81l-248 509l-24 77h-3l-9 -80l-89 -417c24 -7 58 -24 77 -40l-7 -38h-245l7 38c29 19 60 32 92 40l116 546c-23 9 -52 26 -67 39l7 37h212l201 -416l30 -86h4l15 86l70 334c-29 11 -58 27 -77 44z" />
    <glyph glyph-name="O" unicode="O" horiz-adv-x="751" 
d="M59 271c0 245 156 441 417 441c179 0 280 -108 280 -281c0 -219 -133 -442 -408 -442c-185 0 -289 121 -289 282zM229 252c0 -133 54 -199 139 -199c152 0 218 217 218 401c0 119 -38 193 -131 193c-155 0 -226 -227 -226 -395z" />
    <glyph glyph-name="P" unicode="P" horiz-adv-x="634" 
d="M264 267l-42 -200c35 -5 69 -16 94 -29l-7 -38h-332l7 38c28 14 58 24 88 29l120 566c-29 5 -55 16 -76 29l8 38h126c53 0 131 8 188 8c140 0 240 -44 240 -167c0 -156 -121 -277 -327 -277c-13 0 -69 0 -87 3zM401 643c-27 0 -43 -3 -58 -6l-65 -304c12 -3 41 -4 56 -4
c114 0 178 88 178 212c0 62 -26 102 -111 102z" />
    <glyph glyph-name="Q" unicode="Q" horiz-adv-x="761" 
d="M750 -86l5 -25c-58 -50 -130 -98 -202 -98c-123 0 -221 103 -389 124l34 44c201 36 334 -113 552 -45zM59 271c0 245 156 441 417 441c179 0 280 -108 280 -281c0 -219 -133 -442 -408 -442c-185 0 -289 121 -289 282zM229 252c0 -133 54 -199 139 -199
c152 0 218 217 218 401c0 119 -38 193 -131 193c-155 0 -226 -227 -226 -395z" />
    <glyph glyph-name="R" unicode="R" horiz-adv-x="692" 
d="M348 303h-76l-50 -236c28 -8 50 -18 69 -29l-7 -38h-307l7 38c32 16 60 24 88 29l120 566c-33 7 -58 17 -76 29l8 38h106c53 0 141 8 211 8c148 0 218 -60 218 -165c0 -98 -64 -189 -186 -223c35 -84 91 -173 140 -254l42 -32l-7 -34h-159l-37 33
c-45 73 -87 177 -104 270zM395 643c-21 0 -38 -3 -53 -6l-59 -279h58c109 0 161 90 162 190c0 68 -33 95 -108 95z" />
    <glyph glyph-name="S" unicode="S" horiz-adv-x="556" 
d="M89 230h41l10 -147c13 -13 52 -30 91 -30c84 0 146 27 146 102c0 145 -255 140 -255 343c0 141 117 214 279 214c81 0 149 -11 200 -35c-14 -55 -47 -143 -66 -183h-41l-17 137c-19 11 -53 16 -86 16c-68 0 -124 -28 -124 -95c0 -141 260 -148 260 -345
c0 -141 -108 -218 -303 -218c-84 0 -183 23 -209 46c16 63 50 148 74 195z" />
    <glyph glyph-name="T" unicode="T" horiz-adv-x="662" 
d="M469 38l-8 -38h-344l8 38c29 12 67 24 103 29l121 568h-116l-101 -171h-41c0 54 12 174 28 236h637c-13 -64 -48 -180 -72 -236h-42l-27 171h-116l-121 -568c33 -7 67 -16 91 -29z" />
    <glyph glyph-name="U" unicode="U" horiz-adv-x="715" 
d="M104 662l8 38h308l-8 -38c-24 -14 -51 -24 -82 -29l-79 -373c-28 -131 25 -186 125 -186c93 0 157 48 185 179l79 375c-31 7 -64 19 -81 34l8 38h248l-8 -38c-24 -17 -59 -27 -90 -34l-80 -376c-37 -172 -126 -260 -303 -260c-191 0 -266 106 -230 279l76 362
c-27 5 -59 14 -76 29z" />
    <glyph glyph-name="V" unicode="V" horiz-adv-x="729" 
d="M400 145l42 96l210 392c-31 7 -59 16 -78 29l8 38h254l-8 -38c-19 -11 -47 -22 -78 -29l-364 -633l-100 -11l-121 644c-28 7 -54 17 -69 29l8 38h330l-8 -38c-24 -12 -56 -22 -88 -29l57 -394l3 -94h2z" />
    <glyph glyph-name="W" unicode="W" horiz-adv-x="1029" 
d="M749 159l52 132l154 342c-27 4 -56 14 -79 29l8 38h252l-8 -38c-24 -15 -54 -24 -79 -29l-311 -633l-107 -11l-52 483l-251 -472l-107 -11l-58 644c-27 6 -50 16 -67 29l8 38h321l-8 -38c-25 -13 -57 -22 -88 -29l17 -354l-5 -130h2l62 135l222 416h60l52 -411l8 -130h2z
" />
    <glyph glyph-name="X" unicode="X" horiz-adv-x="723" 
d="M531 662l8 38h248l-8 -38c-21 -13 -46 -22 -74 -29l-235 -262l140 -304c29 -7 51 -16 70 -29l-7 -38h-323l7 38c24 12 49 22 78 29l-93 219l-182 -220c27 -7 48 -13 68 -28l-8 -38h-255l8 38c23 15 46 22 73 29l263 286l-126 280c-24 7 -43 16 -62 29l8 38h316l-8 -38
c-19 -11 -43 -21 -78 -29l77 -200l165 200c-25 7 -51 17 -70 29z" />
    <glyph glyph-name="Y" unicode="Y" horiz-adv-x="695" 
d="M546 662l8 38h249l-8 -38c-23 -13 -50 -24 -77 -29l-267 -340l-48 -226c25 -4 50 -16 70 -29l-8 -38h-308l8 38c25 12 57 24 88 29l48 225l-130 341c-29 5 -56 16 -75 29l8 38h325l-8 -38c-19 -11 -45 -22 -80 -29l87 -269l191 269c-28 7 -54 17 -73 29z" />
    <glyph glyph-name="Z" unicode="Z" horiz-adv-x="631" 
d="M182 65h264l93 146h41c0 -57 -11 -147 -24 -211h-551v65l491 570h-230l-89 -143h-42c0 59 10 155 23 208h516v-65z" />
    <glyph glyph-name="bracketleft" unicode="[" horiz-adv-x="324" 
d="M216 -229h-233l196 929h234l-12 -55h-104l-174 -819h104z" />
    <glyph glyph-name="backslash" unicode="\" horiz-adv-x="382" 
d="M-55 686l57 29l414 -818l-57 -30z" />
    <glyph glyph-name="bracketright" unicode="]" horiz-adv-x="324" 
d="M125 700h234l-197 -929h-232l11 55h102l174 819h-104z" />
    <glyph glyph-name="asciicircum" unicode="^" horiz-adv-x="508" 
d="M167 434h-70l186 277h46l170 -277h-120l-79 135l-18 53l-26 -54z" />
    <glyph glyph-name="underscore" unicode="_" horiz-adv-x="410" 
d="M367 -195h-409v80h409v-80z" />
    <glyph glyph-name="quoteleft" unicode="&#x2018;" horiz-adv-x="303" 
d="M331 837l14 -43c-49 -15 -85 -54 -92 -90c11 -21 39 -33 62 -41c3 -48 -49 -103 -85 -111c-47 3 -88 28 -88 85c0 96 104 181 189 200z" />
    <glyph glyph-name="a" unicode="a" horiz-adv-x="563" 
d="M215 68c53 0 109 102 139 172l37 198c-16 11 -27 15 -50 15c-108 0 -171 -156 -171 -297c0 -61 14 -88 45 -88zM343 159h-4c-34 -85 -105 -170 -197 -170c-69 0 -114 50 -114 150c0 208 119 371 303 371c35 0 56 -9 84 -21c35 13 72 20 128 20l-84 -440h70v-34
c-27 -21 -93 -43 -141 -43c-47 0 -65 24 -65 45c0 24 7 62 20 122z" />
    <glyph glyph-name="b" unicode="b" horiz-adv-x="565" 
d="M24 41l121 628l-66 13v32c51 19 158 35 201 38l21 -11l-77 -379h5c43 80 107 150 185 150c69 0 123 -49 123 -161c0 -196 -108 -362 -312 -362c-86 0 -166 22 -201 52zM341 432c-56 0 -106 -104 -127 -152l-43 -215c15 -13 39 -20 62 -20c91 0 162 144 162 296
c0 56 -17 91 -54 91z" />
    <glyph glyph-name="c" unicode="c" horiz-adv-x="445" 
d="M389 134l23 -25c-35 -57 -114 -120 -213 -120c-105 0 -172 65 -172 177c0 188 119 346 300 346c60 0 108 -15 123 -32c3 -29 -27 -95 -64 -112l-61 87c-72 0 -154 -102 -154 -264c0 -81 36 -118 92 -118c53 0 100 38 126 61z" />
    <glyph glyph-name="d" unicode="d" horiz-adv-x="570" 
d="M215 68c56 0 112 105 141 172l36 197c-17 11 -31 15 -52 15c-102 0 -169 -148 -169 -297c0 -58 15 -87 44 -87zM344 159h-4c-40 -93 -110 -170 -195 -170c-68 0 -116 51 -116 156c0 188 106 364 293 364c44 0 58 -5 81 -16l34 176l-69 13v34c39 16 152 33 201 36l20 -11
l-129 -672h72v-34c-27 -21 -93 -43 -142 -43c-47 0 -65 25 -65 48s7 68 19 119z" />
    <glyph glyph-name="e" unicode="e" horiz-adv-x="472" 
d="M405 134l24 -25c-29 -53 -115 -120 -214 -120c-119 0 -188 66 -188 185c0 183 124 338 297 338c80 0 138 -39 138 -103c0 -91 -85 -152 -286 -167c-4 -19 -6 -39 -6 -56c0 -76 43 -118 103 -118c51 0 103 37 132 66zM301 455c-45 0 -90 -45 -118 -162
c99 3 165 47 165 114c0 27 -12 48 -47 48z" />
    <glyph glyph-name="f" unicode="f" horiz-adv-x="316" 
d="M50 24l63 413h-71v39c27 15 58 26 85 33l7 35c33 166 120 208 238 208c43 0 91 -7 118 -22c5 -38 -21 -92 -52 -107l-72 76c-37 -8 -74 -24 -97 -149l-9 -50h110c3 -15 2 -46 -13 -63h-110l-62 -394c-30 -189 -183 -241 -246 -254l-11 34c33 16 102 68 122 201z" />
    <glyph glyph-name="g" unicode="g" horiz-adv-x="520" 
d="M294 512c76 0 124 -21 147 -40c27 25 96 51 138 64c14 -25 8 -84 -13 -107l-99 11c7 -11 12 -29 12 -50c0 -96 -95 -178 -247 -178c-23 0 -34 0 -51 4c-13 -10 -40 -23 -40 -44c0 -61 336 -15 336 -181c0 -122 -172 -202 -334 -202c-134 0 -201 56 -201 117
c0 69 66 114 158 145c-35 15 -57 34 -57 66c0 40 53 89 97 110c-40 8 -93 49 -93 106c0 104 93 179 247 179zM190 -154c71 0 143 34 143 102c0 64 -117 70 -202 91c-37 -28 -56 -68 -56 -107c0 -53 44 -86 115 -86zM282 457c-64 0 -96 -57 -96 -126c0 -47 28 -64 55 -64
c64 0 96 56 96 122c0 40 -19 68 -55 68z" />
    <glyph glyph-name="h" unicode="h" horiz-adv-x="581" 
d="M21 0l135 669l-66 13v32c39 16 132 38 201 38l21 -9l-84 -389h5c51 86 125 158 206 158c61 0 96 -40 96 -92c0 -36 -7 -79 -17 -118l-57 -233h74v-34c-27 -21 -81 -43 -146 -43c-44 0 -63 20 -63 45c0 24 7 48 14 81l37 167c9 41 18 74 18 105c0 24 -10 42 -30 42
c-60 0 -128 -101 -147 -146l-59 -286h-138z" />
    <glyph glyph-name="i" unicode="i" horiz-adv-x="304" 
d="M143 667c0 45 34 72 81 72c51 0 83 -27 83 -72c0 -43 -32 -70 -83 -70c-47 0 -81 27 -81 70zM53 118l68 310l-62 14v34c40 16 142 36 197 36l18 -12l-90 -431h70v-34c-35 -24 -97 -43 -145 -43c-51 0 -67 22 -67 45c0 27 4 50 11 81z" />
    <glyph glyph-name="j" unicode="j" horiz-adv-x="299" 
d="M143 667c0 45 34 72 81 72c51 0 83 -27 83 -72c0 -43 -32 -70 -83 -70c-47 0 -81 27 -81 70zM37 24l82 405l-59 13v34c40 19 129 36 192 36l20 -12l-92 -457c-38 -187 -171 -243 -244 -254l-16 31c32 16 89 65 117 204z" />
    <glyph glyph-name="k" unicode="k" horiz-adv-x="539" 
d="M315 45c-36 64 -56 128 -76 184l-33 10l-45 -239h-140l133 669l-67 13v34c38 16 127 36 201 36l21 -11l-93 -458h32c46 35 98 99 117 132c3 19 2 69 -1 85c23 8 60 13 96 13s70 -5 85 -13c-34 -87 -149 -176 -198 -211c19 -51 83 -164 129 -220h54v-34
c-27 -22 -86 -43 -133 -43c-32 0 -58 10 -82 53z" />
    <glyph glyph-name="l" unicode="l" horiz-adv-x="299" 
d="M44 118l109 551l-68 13v34c37 16 136 36 202 36l20 -11l-131 -672h71v-34c-27 -21 -96 -43 -149 -43c-45 0 -65 22 -65 45c0 27 5 50 11 81z" />
    <glyph glyph-name="m" unicode="m" horiz-adv-x="849" 
d="M602 118l43 182c7 31 17 71 17 91c0 25 -7 41 -30 41c-45 0 -98 -73 -130 -145l-65 -287h-134l61 281c9 41 17 81 17 114c0 25 -9 37 -28 37c-36 0 -103 -75 -127 -146l-58 -286h-140l89 429l-57 13v34c44 22 130 36 192 36l21 -12l-39 -146h4c40 73 118 158 206 158
c32 0 75 -18 75 -93c0 -19 -4 -45 -9 -65c46 84 123 158 207 158c51 0 86 -34 86 -90c0 -43 -8 -79 -19 -122l-57 -231h70v-34c-27 -22 -98 -43 -145 -43c-48 0 -64 22 -64 46c0 19 6 46 14 80z" />
    <glyph glyph-name="n" unicode="n" horiz-adv-x="588" 
d="M349 125l35 160c9 41 18 70 18 105c0 23 -9 42 -34 42c-50 0 -115 -86 -142 -146l-60 -286h-138l86 429l-59 13l2 34c37 19 123 36 190 36l20 -12l-31 -146h5c48 88 129 158 211 158c56 0 90 -39 90 -99c0 -31 -8 -72 -17 -111l-55 -233h72v-34c-27 -21 -92 -43 -143 -43
c-45 0 -65 19 -65 42c0 28 9 62 15 91z" />
    <glyph glyph-name="o" unicode="o" horiz-adv-x="549" 
d="M29 192c0 143 95 320 299 320c120 0 192 -66 192 -195c0 -176 -109 -328 -295 -328c-113 0 -196 65 -196 203zM311 455c-106 0 -140 -181 -140 -302c0 -68 28 -108 73 -108c77 0 134 142 134 297c0 73 -24 113 -67 113z" />
    <glyph glyph-name="p" unicode="p" horiz-adv-x="572" 
d="M165 8l-30 -140c23 -4 50 -17 67 -29v-38h-205l-13 13l131 614l-58 14v34c43 19 140 36 192 36l20 -12l-33 -138h4c43 84 108 150 190 150c68 0 118 -56 118 -152c0 -217 -129 -371 -297 -371c-39 0 -59 5 -86 19zM353 432c-55 0 -107 -93 -131 -153l-44 -217
c17 -12 30 -17 62 -17c92 0 164 159 164 301c0 56 -18 86 -51 86z" />
    <glyph glyph-name="q" unicode="q" horiz-adv-x="546" 
d="M538 476l-130 -607c21 -4 47 -15 66 -30v-38h-206l-9 8l77 343h-4c-34 -76 -99 -163 -192 -163c-69 0 -114 55 -114 159c0 192 104 362 325 362c81 0 161 -21 187 -34zM218 68c51 0 103 99 132 168l40 206c-12 7 -30 11 -53 11c-108 0 -169 -156 -169 -297
c0 -59 17 -88 50 -88z" />
    <glyph glyph-name="r" unicode="r" horiz-adv-x="435" 
d="M402 346l-88 59c-25 -11 -61 -50 -82 -107l-64 -298h-140l89 429l-57 13v34c46 21 124 33 192 36l20 -12l-26 -124h4c40 77 91 136 160 136c19 0 38 -3 54 -12c5 -56 -32 -138 -62 -154z" />
    <glyph glyph-name="s" unicode="s" horiz-adv-x="432" 
d="M229 110c0 88 -163 115 -163 251c0 101 78 151 203 151c43 0 108 -8 147 -31c3 -29 -13 -102 -53 -115l-80 89c-43 0 -75 -15 -75 -59c0 -89 166 -115 166 -252c0 -101 -95 -155 -223 -155c-68 0 -125 17 -151 36c-1 43 15 88 47 111l97 -91c44 0 85 21 85 65z" />
    <glyph glyph-name="t" unicode="t" horiz-adv-x="367" 
d="M117 437h-72v39c25 16 58 27 87 34l16 76c18 16 86 31 125 36l21 -12l-24 -110h117c3 -16 -2 -47 -13 -63h-117l-58 -259c-6 -25 -8 -44 -8 -60c0 -35 19 -50 48 -50c33 0 62 8 89 23l13 -26c-32 -35 -110 -76 -190 -76c-69 0 -104 33 -104 89c0 31 7 69 12 93z" />
    <glyph glyph-name="u" unicode="u" horiz-adv-x="585" 
d="M555 500l-79 -431h70v-34c-27 -22 -91 -43 -146 -43c-48 0 -63 23 -63 44c0 24 4 68 20 124h-4c-35 -65 -106 -171 -219 -171c-55 0 -92 33 -92 93s40 231 64 347l-59 13v34c43 16 133 33 192 36l22 -12c-21 -100 -43 -185 -63 -285c-6 -32 -16 -72 -16 -111
c0 -24 14 -36 33 -36c67 0 134 120 153 171l52 261h135z" />
    <glyph glyph-name="v" unicode="v" horiz-adv-x="481" 
d="M255 106h2l32 69c31 67 66 131 87 206c0 28 -13 103 -18 119c38 16 115 16 145 0c-40 -165 -151 -357 -265 -500l-92 -11l-74 440l-64 8v34c31 18 96 41 151 41c36 0 48 -22 52 -51l38 -288z" />
    <glyph glyph-name="w" unicode="w" horiz-adv-x="762" 
d="M550 106h2l27 68c36 69 61 131 81 200c0 28 -16 110 -21 126c19 8 49 12 77 12c27 0 53 -4 68 -12c-40 -164 -136 -355 -239 -500l-103 -11l-45 254l-3 77h-3l-33 -78c-34 -81 -86 -167 -131 -242l-107 -11l-48 440l-64 8v34c32 18 97 41 146 41c36 0 57 -20 59 -49
l23 -286l-2 -72h2l28 73l139 302l79 20c27 -100 55 -214 63 -323z" />
    <glyph glyph-name="x" unicode="x" horiz-adv-x="506" 
d="M251 39l-50 163c-27 -31 -62 -69 -79 -102c-3 -21 1 -77 6 -93c-23 -8 -55 -12 -84 -12s-55 4 -70 12c24 79 148 202 210 250l-61 166l-69 8v34c37 21 109 44 155 44c35 0 52 -20 60 -49l45 -158c25 27 57 68 72 99c3 19 -6 76 -9 93c25 9 52 13 81 13c27 0 54 -5 69 -13
c-24 -81 -146 -201 -198 -242l66 -175l69 -8v-34c-26 -18 -102 -43 -150 -43c-35 0 -54 18 -63 47z" />
    <glyph glyph-name="y" unicode="y" horiz-adv-x="487" 
d="M210 0l-138 429l-64 8v34c13 10 87 41 144 41c36 0 54 -18 62 -49l77 -303l5 -60h2l21 59c23 65 54 143 69 207c0 28 -20 116 -25 132c19 8 49 12 77 12s53 -4 68 -12c-35 -159 -110 -334 -203 -498c-77 -136 -148 -208 -248 -208c-28 0 -51 8 -69 20
c-8 36 28 110 65 123l75 -53c20 15 58 49 82 118z" />
    <glyph glyph-name="z" unicode="z" horiz-adv-x="468" 
d="M-20 36l142 147v1l191 199c-52 -1 -114 5 -178 16l-46 -72l-34 6l14 141c3 26 23 39 57 39c53 0 164 -21 289 -29l26 28c19 -1 43 -20 46 -43l-322 -336c68 -15 133 -36 189 -67l67 66l33 -14l-44 -140c-6 -20 -27 -35 -54 -35c-55 0 -162 80 -284 96l-47 -47
c-19 0 -48 21 -45 44z" />
    <glyph glyph-name="braceleft" unicode="{" horiz-adv-x="356" 
d="M50 -124l48 226c3 15 5 28 5 39c0 44 -22 70 -62 70l10 48c51 0 90 46 103 105l49 230c14 64 54 106 118 106h121l-11 -55h-35c-36 0 -56 -17 -65 -60l-47 -220c-19 -88 -88 -120 -136 -125l-2 -6c39 -5 86 -34 86 -98c0 -10 -1 -20 -3 -31l-47 -219c-2 -9 -3 -17 -3 -23
c0 -25 14 -37 43 -37h34l-11 -55h-121c-49 0 -78 24 -78 72c0 11 2 22 4 33z" />
    <glyph glyph-name="bar" unicode="|" horiz-adv-x="235" 
d="M184 -129h-70v829h70v-829z" />
    <glyph glyph-name="braceright" unicode="}" horiz-adv-x="356" 
d="M325 595l-48 -226c-3 -15 -5 -28 -5 -39c0 -47 21 -70 62 -70l-11 -48c-51 0 -90 -46 -102 -105l-49 -230c-14 -64 -54 -106 -118 -106h-120l11 55h35c35 0 55 17 64 60l47 220c19 88 79 120 127 125l1 6c-38 3 -77 32 -77 93c0 13 2 25 4 36l47 219c3 8 2 15 2 22
c1 25 -14 38 -43 38h-34l12 55h122c49 0 77 -25 77 -72c0 -11 -2 -22 -4 -33z" />
    <glyph glyph-name="asciitilde" unicode="~" 
d="M107 285l-26 27c35 77 94 119 143 119c68 0 124 -68 191 -68c24 0 50 9 77 34l23 -30c-31 -64 -76 -95 -123 -95c-69 0 -130 68 -195 68c-29 0 -59 -14 -90 -55z" />
    <glyph glyph-name="cent" unicode="&#xa2;" 
d="M451 134l24 -25c-35 -55 -91 -97 -163 -111l-34 -167h-77l34 159c-113 7 -188 70 -188 185c0 173 121 314 298 333l33 152h77l-32 -151c11 -1 18 0 29 -3c41 -4 88 -11 107 -26c3 -29 -27 -96 -65 -112l-61 87c-10 0 -20 -1 -30 -3l-81 -378c64 7 104 37 129 60zM191 184
c0 -60 28 -95 69 -107l77 357c-88 -40 -146 -132 -146 -250z" />
    <glyph glyph-name="sterling" unicode="&#xa3;" 
d="M166 314h-112l14 61h77c-16 43 -26 87 -26 126c0 129 82 211 270 211c84 0 159 -15 207 -38c-14 -43 -48 -135 -72 -180h-34l-11 137c-24 11 -51 16 -86 16c-63 0 -106 -21 -117 -72c-7 -32 -3 -65 1 -88c8 -45 15 -61 23 -112h125l-14 -61h-107c-4 -41 -17 -59 -38 -91
c-8 -27 -27 -62 -64 -84l-39 -23v-4l51 6h177l73 112h34c-5 -61 -18 -182 -29 -230h-477l10 54c69 25 105 54 139 100c21 28 34 71 34 95c0 29 -2 46 -9 65z" />
    <glyph glyph-name="fraction" unicode="&#x2044;" horiz-adv-x="317" 
d="M-150 -12l-47 42l663 685l48 -42z" />
    <glyph glyph-name="yen" unicode="&#xa5;" 
d="M464 662l8 38h241l-8 -38c-23 -13 -55 -25 -82 -29l-213 -291h117l-14 -65h-142l-13 -57h143l-14 -65h-142l-19 -88c25 -4 50 -16 70 -29l-8 -38h-308l8 38c25 12 57 24 88 29l19 88h-143l14 65h142l13 57h-143l14 65h114l-100 291c-29 5 -56 17 -75 29l8 38h327l-8 -38
c-19 -10 -45 -20 -80 -29l72 -282l188 282c-29 7 -55 17 -74 29z" />
    <glyph glyph-name="quotesingle" unicode="'" horiz-adv-x="238" 
d="M124 486h-38l-14 184c11 17 40 30 71 30c28 0 56 -10 59 -30z" />
    <glyph glyph-name="quotedblleft" unicode="&#x201c;" horiz-adv-x="508" 
d="M331 837l14 -43c-49 -15 -85 -54 -92 -90c11 -21 39 -33 62 -41c3 -48 -49 -103 -85 -111c-47 3 -88 28 -88 85c0 96 104 181 189 200zM536 837l14 -43c-49 -15 -85 -54 -92 -90c11 -21 39 -33 62 -41c3 -48 -49 -103 -85 -111c-47 3 -88 28 -88 85c0 96 104 181 189 200
z" />
    <glyph glyph-name="guillemotleft" unicode="&#xab;" horiz-adv-x="500" 
d="M442 77l-50 -36l-138 218l225 222l35 -36l-150 -189zM284 76l-47 -37l-199 220l287 223l31 -36l-188 -191z" />
    <glyph glyph-name="guilsinglleft" unicode="&#x2039;" horiz-adv-x="309" 
d="M247 77l-44 -33l-165 215l251 223l30 -37l-147 -190z" />
    <glyph glyph-name="guilsinglright" unicode="&#x203a;" horiz-adv-x="309" 
d="M148 482l161 -216l-254 -222l-29 38l150 192l-72 176z" />
    <glyph glyph-name="endash" unicode="&#x2013;" horiz-adv-x="621" 
d="M549 237h-482l20 90h482z" />
    <glyph glyph-name="quotesinglbase" unicode="&#x201a;" horiz-adv-x="308" 
d="M18 -148l-14 43c49 15 85 54 92 90c-11 20 -39 32 -62 40c-3 48 49 103 85 111c47 -3 88 -28 88 -85c0 -95 -104 -180 -189 -199z" />
    <glyph glyph-name="quotedblbase" unicode="&#x201e;" horiz-adv-x="513" 
d="M18 -148l-14 43c49 15 85 54 92 90c-11 20 -39 32 -62 40c-3 48 49 103 85 111c47 -3 88 -28 88 -85c0 -95 -104 -180 -189 -199zM223 -148l-14 43c49 15 85 54 92 90c-11 20 -39 32 -62 40c-3 48 49 103 85 111c47 -3 88 -28 88 -85c0 -95 -104 -180 -189 -199z" />
    <glyph glyph-name="quotedblright" unicode="&#x201d;" horiz-adv-x="508" 
d="M135 415l-14 43c49 15 85 54 92 90c-11 20 -39 32 -62 40c-3 48 49 103 85 111c47 -3 88 -28 88 -85c0 -95 -104 -180 -189 -199zM340 415l-14 43c49 15 85 54 92 90c-11 20 -39 32 -62 40c-3 48 49 103 85 111c47 -3 88 -28 88 -85c0 -95 -104 -180 -189 -199z" />
    <glyph glyph-name="guillemotright" unicode="&#xbb;" horiz-adv-x="500" 
d="M98 444l50 36l138 -218l-225 -222l-35 36l150 189zM256 445l47 37l199 -220l-287 -223l-31 36l188 191z" />
    <glyph glyph-name="ellipsis" unicode="&#x2026;" horiz-adv-x="939" 
d="M24 71c0 48 33 80 84 80s86 -32 86 -80s-35 -78 -86 -78s-84 30 -84 78zM349 71c0 48 33 80 84 80s86 -32 86 -80s-35 -78 -86 -78s-84 30 -84 78zM674 71c0 48 33 80 84 80s86 -32 86 -80s-35 -78 -86 -78s-84 30 -84 78z" />
    <glyph glyph-name="grave" unicode="`" horiz-adv-x="337" 
d="M284 763l73 -174l-45 -22l-166 145v29c18 18 119 27 138 22z" />
    <glyph glyph-name="acute" unicode="&#xb4;" horiz-adv-x="532" 
d="M279 562l-40 22l118 179c23 6 109 -5 123 -22v-24z" />
    <glyph glyph-name="circumflex" unicode="&#x2c6;" horiz-adv-x="450" 
d="M414 577l-75 98l-118 -98l-42 25l160 186c4 4 15 6 26 6s20 -2 26 -6l64 -185z" />
    <glyph glyph-name="tilde" unicode="&#x2dc;" horiz-adv-x="437" 
d="M415 709l22 -42c-40 -45 -86 -65 -117 -65c-48 0 -84 34 -124 34c-17 0 -35 -5 -56 -20l-28 42c49 51 96 68 127 68c48 0 80 -32 121 -32c17 0 34 2 55 15z" />
    <glyph glyph-name="dotaccent" unicode="&#x2d9;" horiz-adv-x="321" 
d="M191 667c0 45 34 72 81 72c51 0 83 -27 83 -72c0 -43 -32 -70 -83 -70c-47 0 -81 27 -81 70z" />
    <glyph glyph-name="dieresis" unicode="&#xa8;" horiz-adv-x="520" 
d="M175 659c0 43 29 70 73 70c43 0 73 -27 73 -70c0 -40 -30 -68 -73 -68c-44 0 -73 28 -73 68zM394 659c0 43 29 70 72 70c44 0 74 -27 74 -70c0 -40 -30 -68 -74 -68c-43 0 -72 28 -72 68z" />
    <glyph glyph-name="ring" unicode="&#x2da;" horiz-adv-x="472" 
d="M218 664c0 64 50 116 137 116c59 0 93 -34 93 -81c0 -62 -49 -115 -132 -115c-63 0 -98 31 -98 80zM293 666c0 -20 13 -32 30 -32c24 0 50 23 50 62c0 23 -9 34 -28 34c-33 0 -52 -29 -52 -64z" />
    <glyph glyph-name="cedilla" unicode="&#xb8;" horiz-adv-x="445" 
d="M168 1h62l-43 -68c72 -4 98 -27 98 -71c1 -82 -120 -118 -215 -118v39c46 8 91 26 90 61c0 23 -10 39 -53 43z" />
    <glyph glyph-name="hungarumlaut" unicode="&#x2dd;" horiz-adv-x="645" 
d="M290 585l-41 20l68 163c16 5 103 -6 111 -21v-24zM417 585l-37 22l133 161c19 5 96 -7 112 -28v-22z" />
    <glyph glyph-name="emdash" unicode="&#x2014;" horiz-adv-x="881" 
d="M809 237h-742l20 90h742z" />
    <glyph glyph-name="AE" unicode="&#xc6;" horiz-adv-x="953" 
d="M455 662l8 38h538c-13 -60 -35 -127 -58 -183h-42l-21 118h-187l-52 -245h123l60 77h31c-5 -65 -25 -154 -46 -221h-32l-27 79h-123l-55 -260h195l80 127h42c0 -51 -7 -132 -21 -192h-536l7 38c24 11 53 22 84 29l38 177h-182l-138 -177c25 -6 49 -16 70 -29l-7 -38h-247
l7 38c24 13 51 24 76 29l468 571c-19 7 -38 13 -53 24zM538 594l-54 -90l-155 -195h147l64 285h-2z" />
    <glyph glyph-name="ordmasculine" unicode="&#xba;" horiz-adv-x="446" 
d="M26 504c0 116 102 208 233 208c101 0 161 -51 161 -131c0 -132 -117 -209 -233 -209c-89 0 -161 51 -161 132zM145 492c0 -36 15 -69 55 -69c48 0 102 57 102 176c0 31 -13 62 -54 62c-48 0 -103 -68 -103 -169z" />
    <glyph glyph-name="dotlessi" unicode="&#x131;" horiz-adv-x="304" 
d="M53 118l68 310l-62 14v34c40 16 142 36 197 36l18 -12l-90 -431h70v-34c-35 -24 -97 -43 -145 -43c-51 0 -67 22 -67 45c0 27 4 50 11 81z" />
    <glyph glyph-name="trademark" unicode="&#x2122;" horiz-adv-x="1111" 
d="M461 362v-37h-238v37c16 8 40 14 57 18v269h-51l-29 -113h-42c-13 42 -26 127 -26 164h422c0 -35 -11 -123 -27 -164h-41l-30 113h-51v-269c24 -7 47 -11 56 -18zM727 362v-37h-166v37c17 8 35 14 51 18l18 257c-21 8 -33 17 -46 26v37h206l56 -172l15 -57h2l16 58
l61 171h213v-37c-13 -8 -28 -15 -51 -18l15 -265c19 -3 36 -9 51 -18v-37h-219v37c11 5 24 11 47 18l-16 244h-6l-104 -299h-64l-107 299h-7l-11 -244c18 -6 33 -12 46 -18z" />
    <glyph glyph-name="registered" unicode="&#xae;" horiz-adv-x="700" 
d="M115 451c0 176 133 280 282 280c153 0 282 -104 282 -280s-133 -280 -282 -280c-153 0 -282 104 -282 280zM177 451c0 -139 100 -225 220 -225c126 0 220 85 220 225c0 138 -100 225 -220 225c-127 0 -220 -87 -220 -225zM399 439h-33v-88c17 -1 25 -5 34 -9v-33h-138v33
c11 4 23 7 35 9v215c-15 1 -24 4 -35 11v31h52c24 0 63 4 84 4c72 0 122 -24 122 -84c0 -41 -29 -67 -66 -79c24 -40 37 -63 75 -98l23 -12v-30h-64l-28 11c-33 40 -46 80 -61 119zM393 571c-15 0 -19 0 -27 -3v-91h29c32 0 50 15 49 51c-1 31 -20 43 -51 43z" />
    <glyph glyph-name="copyright" unicode="&#xa9;" horiz-adv-x="813" 
d="M65 290c0 221 171 352 354 352s354 -131 354 -352s-171 -351 -354 -351c-193 0 -354 130 -354 351zM132 290c0 -179 131 -291 287 -291c163 0 287 112 287 291c0 183 -138 292 -287 292c-167 0 -287 -113 -287 -292zM497 146l28 74h34c5 -21 13 -72 10 -105
c-23 -19 -76 -33 -129 -33c-130 0 -222 73 -222 209c0 138 108 209 209 209c64 0 111 -13 139 -30c3 -23 -5 -87 -13 -114h-34l-30 83c-9 7 -27 6 -44 6c-60 0 -92 -50 -92 -154c0 -89 28 -154 100 -154c21 0 39 4 44 9z" />
    <glyph glyph-name="figuredash" unicode="&#x2012;" horiz-adv-x="414" 
d="M350 237h-287l20 90h287z" />
    <glyph glyph-name="glyph1" horiz-adv-x="1000" 
 />
    <glyph glyph-name="glyph1" horiz-adv-x="1000" 
 />
    <glyph glyph-name="uni000D" unicode="&#xd;" horiz-adv-x="270" 
 />
    <glyph glyph-name="Euro" unicode="&#x20ac;" 
d="M478 448l-32 -67h-225c-4 -20 -5 -42 -8 -63h204l-32 -67h-175c0 -146 63 -198 135 -198c39 0 65 9 78 17l78 140h42c0 -42 -8 -128 -21 -182c-56 -28 -139 -39 -188 -39c-214 0 -271 132 -276 262h-94l31 67h65c1 21 4 42 8 63h-77l31 67h63c51 158 176 264 347 264
c88 0 159 -14 203 -35c-8 -42 -40 -144 -64 -192h-42l-23 151c-12 7 -42 11 -69 11c-88 0 -163 -72 -200 -199h241z" />
    <glyph glyph-name="uni00A0" unicode="&#xa0;" horiz-adv-x="270" 
 />
    <glyph glyph-name="uni00AD" unicode="&#xad;" horiz-adv-x="414" 
d="M350 237h-287l20 90h287z" />
    <glyph glyph-name="overscore" unicode="&#xaf;" horiz-adv-x="491" 
d="M503 689l-15 -70h-294l15 70h294z" />
    <glyph glyph-name="uni0237" unicode="&#x237;" horiz-adv-x="299" 
d="M37 24l82 405l-59 13v34c40 19 129 36 192 36l20 -12l-92 -457c-38 -187 -171 -243 -244 -254l-16 31c32 16 89 65 117 204z" />
    <glyph glyph-name="afii10023" unicode="&#x401;" horiz-adv-x="602" 
d="M212 793c0 43 34 64 81 64s81 -21 81 -64c0 -37 -34 -59 -81 -59s-81 22 -81 59zM457 793c0 43 35 64 82 64s81 -21 81 -64c0 -37 -34 -59 -81 -59s-82 22 -82 59zM116 662l8 38h526c-13 -60 -34 -127 -58 -183h-42l-21 118h-187l-52 -245h123l60 77h31
c-7 -65 -25 -152 -46 -221h-32l-27 79h-123l-54 -260h194l80 127h42c0 -48 -8 -133 -21 -192h-540l7 38c26 12 56 24 88 29l120 566c-27 5 -55 16 -76 29z" />
    <glyph glyph-name="afii10051" unicode="&#x402;" horiz-adv-x="801" 
d="M786 279c0 -201 -151 -286 -306 -281l3 44c99 23 153 105 153 226c0 57 -16 93 -85 93c-44 0 -86 -14 -123 -34l-55 -260c20 -7 38 -18 53 -29l-7 -38h-307l7 38c29 12 67 24 104 29l120 568h-116l-100 -171h-42c3 54 15 174 28 236h637c-13 -67 -41 -150 -65 -206h-42
l-34 141h-116l-53 -248c51 27 110 44 185 44c108 0 161 -56 161 -152z" />
    <glyph glyph-name="afii10052" unicode="&#x403;" horiz-adv-x="537" 
d="M369 745l-28 24l142 129c43 3 117 -18 133 -37v-20zM501 635h-159l-120 -568c31 -5 62 -17 89 -29l-7 -38h-327l7 38c30 15 59 24 88 29l120 566c-27 5 -53 14 -76 29l8 38h512c-11 -63 -40 -174 -69 -240h-41z" />
    <glyph glyph-name="afii10053" unicode="&#x404;" horiz-adv-x="657" 
d="M483 70l78 140h42c0 -42 -8 -128 -21 -182c-56 -28 -142 -39 -190 -39c-244 0 -333 145 -333 280c0 264 159 443 432 443c88 0 160 -14 204 -35c-8 -42 -40 -144 -64 -192h-42l-23 151c-12 7 -44 11 -72 11c-126 0 -221 -99 -253 -266l266 16c5 -31 -6 -77 -17 -104
c-76 11 -175 17 -259 20c-1 -19 -2 -38 -2 -58c0 -149 96 -202 173 -202c39 0 68 9 81 17z" />
    <glyph glyph-name="afii10054" unicode="&#x405;" horiz-adv-x="556" 
d="M89 230h41l10 -147c13 -13 52 -30 91 -30c84 0 146 27 146 102c0 145 -255 140 -255 343c0 141 117 214 279 214c81 0 149 -11 200 -35c-14 -55 -47 -143 -66 -183h-41l-17 137c-19 11 -53 16 -86 16c-68 0 -124 -28 -124 -95c0 -141 260 -148 260 -345
c0 -141 -108 -218 -303 -218c-84 0 -183 23 -209 46c16 63 50 148 74 195z" />
    <glyph glyph-name="afii10055" unicode="&#x406;" horiz-adv-x="369" 
d="M305 38l-7 -38h-311l7 38c30 15 60 24 87 29l120 566c-27 4 -54 14 -75 29l8 38h312l-8 -38c-27 -15 -60 -25 -87 -29l-120 -566c25 -5 54 -14 74 -29z" />
    <glyph glyph-name="afii10056" unicode="&#x407;" horiz-adv-x="369" 
d="M305 38l-7 -38h-311l7 38c30 15 60 24 87 29l120 566c-27 4 -54 16 -75 29l8 38h312l-8 -38c-27 -15 -60 -25 -87 -29l-120 -566c25 -5 54 -14 74 -29zM134 793c0 43 28 64 73 64c44 0 74 -21 74 -64c0 -37 -30 -59 -74 -59c-45 0 -73 22 -73 59zM339 793
c0 43 30 64 74 64c45 0 73 -21 73 -64c0 -37 -28 -59 -73 -59c-44 0 -74 22 -74 59z" />
    <glyph glyph-name="afii10057" unicode="&#x408;" horiz-adv-x="361" 
d="M121 662l8 38h309l-8 -38c-23 -15 -57 -25 -84 -29l-108 -512c-46 -217 -208 -269 -268 -280l-12 26c49 34 96 94 129 248l109 518c-28 5 -56 16 -75 29z" />
    <glyph glyph-name="afii10058" unicode="&#x409;" horiz-adv-x="963" 
d="M480 0h-154l7 38c27 13 55 24 83 29l120 568h-163c-96 -407 -169 -517 -242 -592c-33 -35 -80 -54 -116 -54c-23 11 -40 61 -42 105c-1 11 0 22 1 33l34 38l114 -29c51 75 111 204 173 487c-40 7 -75 23 -98 39l8 38h583l-8 -38c-28 -13 -61 -24 -94 -29l-46 -214
c25 4 63 7 90 7c137 0 218 -59 218 -162c0 -202 -183 -266 -335 -266c-13 0 -93 2 -133 2zM680 361c-21 0 -39 -2 -53 -6l-61 -289c9 -3 39 -4 51 -4c92 0 166 76 166 205c0 60 -24 94 -103 94z" />
    <glyph glyph-name="afii10059" unicode="&#x40a;" horiz-adv-x="1033" 
d="M551 0h-149l8 38c27 15 48 24 77 29l58 272h-265l-58 -272c23 -5 45 -14 65 -29l-8 -38h-302l8 38c26 13 59 24 87 29l120 566c-31 5 -59 17 -76 29l8 38h303l-8 -38c-23 -13 -50 -25 -77 -29l-48 -229h265l48 229c-27 5 -41 13 -65 29l8 38h309l-8 -38
c-27 -13 -59 -24 -94 -29l-48 -230c25 4 62 7 89 7c137 0 220 -57 220 -158c0 -198 -181 -254 -334 -254c-13 0 -93 2 -133 2zM749 345c-22 0 -40 -2 -54 -6l-58 -273c9 -3 40 -4 52 -4c90 0 164 64 164 192c0 53 -25 91 -104 91z" />
    <glyph glyph-name="afii10060" unicode="&#x40b;" horiz-adv-x="838" 
d="M644 496l-34 139h-116l-53 -250c41 23 107 45 182 45c85 0 149 -41 152 -136c1 -23 -1 -47 -7 -74l-32 -153c23 -4 48 -16 65 -29l-7 -38h-222l43 207c16 79 20 153 -68 153c-44 0 -82 -14 -119 -35l-55 -258c20 -7 41 -18 56 -29l-8 -38h-309l8 38c29 11 67 24 103 29
l120 568h-115l-101 -171h-41c0 54 14 174 28 236h637c-13 -64 -41 -149 -65 -204h-42z" />
    <glyph glyph-name="afii10061" unicode="&#x40c;" horiz-adv-x="705" 
d="M410 745l-28 24l142 129c43 3 117 -18 133 -37v-20zM491 662l8 38h272l-8 -38c-24 -15 -58 -25 -85 -29l-242 -243c43 -88 123 -221 195 -327l42 -29l-7 -34h-168l-35 28c-48 80 -104 200 -138 300h-48l-55 -261c27 -7 49 -18 64 -29l-7 -38h-302l7 38c28 15 59 24 88 29
l120 566c-31 4 -59 16 -76 29l8 38h303l-8 -38c-19 -11 -48 -22 -77 -29l-54 -254l59 14l211 240c-27 7 -51 17 -67 29z" />
    <glyph glyph-name="afii10062" unicode="&#x40e;" horiz-adv-x="679" 
d="M483 741c-114 0 -164 62 -164 112c21 21 80 37 117 37l34 -13v-60c13 -7 24 -12 45 -12c56 0 122 25 143 77c16 -1 37 -10 45 -21c-21 -52 -87 -120 -220 -120zM426 298l34 66l148 269c-31 7 -52 17 -71 29l8 38h242l-8 -38c-17 -11 -44 -22 -77 -29l-282 -447
c-88 -140 -176 -207 -257 -190c-30 23 -39 101 -33 134l35 30l130 -37c15 12 28 30 41 51l-178 459c-24 7 -47 16 -63 29l8 38h311l-8 -38c-21 -12 -51 -22 -82 -29l93 -271l7 -64h2z" />
    <glyph glyph-name="afii10145" unicode="&#x40f;" horiz-adv-x="755" 
d="M534 662l8 38h300l-8 -38c-23 -12 -51 -24 -88 -29l-120 -566c27 -5 53 -14 76 -29l-8 -38h-285c-19 -55 -55 -135 -94 -199h-44c-8 67 -14 136 -9 199h-285l8 38c26 16 58 24 87 29l120 566c-25 3 -51 12 -76 29l8 38h300l-8 -38c-15 -11 -39 -22 -74 -29l-120 -568h254
l120 568c-25 7 -43 16 -62 29z" />
    <glyph glyph-name="afii10017" unicode="&#x410;" horiz-adv-x="724" 
d="M212 38l-7 -38h-248l7 38c24 13 50 24 77 29l396 645h73l113 -645c25 -5 52 -17 69 -29l-8 -38h-308l7 38c28 13 61 24 89 29l-24 159h-221l-95 -159c28 -4 57 -14 80 -29zM410 568l-38 -88l-111 -189h179l-28 191v86h-2z" />
    <glyph glyph-name="afii10018" unicode="&#x411;" horiz-adv-x="636" 
d="M72 67l120 566c-31 5 -56 15 -76 29l8 38h537c-13 -64 -42 -152 -66 -208h-41l-32 143h-180l-48 -228c32 5 73 7 100 7c135 0 216 -48 216 -157c0 -165 -140 -259 -334 -259c-14 0 -118 2 -159 2h-140l7 38c27 14 57 24 88 29zM343 349c-21 0 -46 -2 -63 -6l-58 -277
c11 -3 45 -4 58 -4c105 0 165 89 165 191c0 61 -22 96 -102 96z" />
    <glyph glyph-name="afii10019" unicode="&#x412;" horiz-adv-x="644" 
d="M95 0h-118l7 37c28 15 60 26 88 29l120 566c-27 5 -55 16 -76 29l8 38h159c51 0 94 6 153 6c128 0 217 -37 217 -133c0 -112 -82 -177 -191 -198v-4c72 -5 151 -41 151 -133c0 -143 -115 -243 -336 -243c-55 0 -138 6 -182 6zM290 58c99 0 168 74 168 173
c0 73 -50 91 -135 91h-53l-54 -257c17 -4 33 -7 74 -7zM337 636l-53 -249h32c23 0 47 2 67 5c80 31 120 90 120 166c0 52 -29 82 -98 82c-28 0 -49 -1 -68 -4z" />
    <glyph glyph-name="afii10020" unicode="&#x413;" horiz-adv-x="537" 
d="M501 635h-159l-120 -568c31 -5 62 -17 89 -29l-7 -38h-327l7 38c30 15 59 24 88 29l120 566c-27 5 -53 14 -76 29l8 38h512c-11 -63 -40 -174 -69 -240h-41z" />
    <glyph glyph-name="afii10021" unicode="&#x414;" horiz-adv-x="723" 
d="M692 633l-120 -568h118c-13 -62 -45 -162 -75 -227h-39l-15 162h-478l-92 -162h-38c-3 66 10 174 21 227h86c102 112 199 340 244 558c-33 7 -74 20 -98 39l8 38h574l-8 -38c-21 -13 -53 -22 -88 -29zM144 65h278l120 570h-159c-80 -309 -167 -485 -239 -570z" />
    <glyph glyph-name="afii10022" unicode="&#x415;" horiz-adv-x="602" 
d="M116 662l8 38h526c-13 -60 -34 -127 -58 -183h-42l-21 118h-187l-52 -245h123l60 77h31c-7 -65 -25 -152 -46 -221h-32l-27 79h-123l-54 -260h194l80 127h42c0 -48 -8 -133 -21 -192h-540l7 38c26 12 56 24 88 29l120 566c-27 5 -55 16 -76 29z" />
    <glyph glyph-name="afii10024" unicode="&#x416;" horiz-adv-x="1021" 
d="M408 386h70l53 247c-25 8 -45 18 -58 29l8 38h259l-8 -38c-15 -11 -37 -20 -64 -29l-55 -256l66 16l194 240c-24 7 -45 17 -64 29l8 38h269l-8 -38c-21 -12 -50 -22 -78 -29l-238 -252c48 -88 109 -217 184 -323l37 -24l-7 -34h-162l-36 34c-59 92 -86 191 -119 295h-57
l-54 -262c21 -7 40 -16 57 -29l-8 -38h-269l7 38c23 12 47 22 76 29l57 271l-66 -16c-64 -97 -127 -200 -211 -288l-50 -34h-177l7 34l45 24c120 106 223 238 300 324l-119 251c-25 7 -46 18 -61 29l8 38h257l-8 -38c-19 -12 -49 -22 -77 -29z" />
    <glyph glyph-name="afii10025" unicode="&#x417;" horiz-adv-x="585" 
d="M211 -11c-89 0 -166 21 -205 48c11 43 40 120 69 170h41l11 -138c15 -9 51 -16 79 -16c113 0 181 71 181 180c0 61 -36 91 -108 91l-79 -13c-3 24 4 59 17 84l31 -1c23 -1 57 0 80 3c65 28 111 91 111 159c0 60 -26 92 -97 91c-31 0 -55 -8 -74 -19l-76 -127h-42
c-1 47 -1 105 12 168c63 34 150 43 206 43c129 0 226 -39 226 -146c0 -68 -41 -157 -174 -192v-4c59 -5 127 -46 127 -136c0 -152 -131 -245 -336 -245z" />
    <glyph glyph-name="afii10026" unicode="&#x418;" horiz-adv-x="776" 
d="M285 38l-8 -38h-300l7 38c28 13 59 25 88 29l120 566c-27 5 -55 14 -76 29l8 38h301l-8 -38c-23 -12 -49 -22 -80 -29l-81 -380l-27 -78l63 83l330 351l5 24c-29 7 -54 16 -73 29l8 38h301l-8 -38c-25 -15 -57 -24 -88 -29l-120 -566c29 -5 55 -16 76 -29l-8 -38h-301
l7 38c20 9 50 22 81 29l81 379l28 79l-59 -80l-336 -356l-4 -22c29 -7 54 -18 73 -29z" />
    <glyph glyph-name="afii10027" unicode="&#x419;" horiz-adv-x="776" 
d="M490 741c-114 0 -164 62 -164 112c21 21 80 37 117 37l34 -13v-60c13 -7 24 -12 45 -12c56 0 122 25 143 77c16 -1 37 -10 45 -21c-21 -52 -87 -120 -220 -120zM285 38l-8 -38h-300l7 38c28 13 59 25 88 29l120 566c-27 5 -55 14 -76 29l8 38h301l-8 -38
c-23 -12 -49 -22 -80 -29l-81 -380l-27 -78l63 83l330 351l5 24c-29 7 -54 16 -73 29l8 38h301l-8 -38c-25 -15 -57 -24 -88 -29l-120 -566c29 -5 55 -16 76 -29l-8 -38h-301l7 38c20 9 50 22 81 29l81 379l28 79l-59 -80l-336 -356l-4 -22c29 -7 54 -18 73 -29z" />
    <glyph glyph-name="afii10028" unicode="&#x41a;" horiz-adv-x="705" 
d="M491 662l8 38h272l-8 -38c-24 -15 -58 -25 -85 -29l-242 -243c43 -88 123 -221 195 -327l42 -29l-7 -34h-168l-35 28c-48 80 -104 200 -138 300h-48l-55 -261c27 -7 49 -18 64 -29l-7 -38h-302l7 38c28 15 59 24 88 29l120 566c-31 4 -59 16 -76 29l8 38h303l-8 -38
c-19 -11 -48 -22 -77 -29l-54 -254l59 14l211 240c-27 7 -51 17 -67 29z" />
    <glyph glyph-name="afii10029" unicode="&#x41b;" horiz-adv-x="696" 
d="M296 623c-40 7 -75 23 -98 39l8 38h577l-8 -38c-23 -12 -55 -24 -88 -29l-120 -566c28 -5 55 -17 75 -29l-7 -38h-308l7 38c27 12 55 22 83 29l120 568h-163c-96 -407 -169 -518 -242 -593c-33 -35 -80 -53 -116 -53c-30 12 -46 89 -41 138l34 38l114 -29
c51 75 111 204 173 487z" />
    <glyph glyph-name="afii10030" unicode="&#x41c;" horiz-adv-x="926" 
d="M872 38l-8 -38h-299l8 38c29 13 56 22 87 29l88 418l30 117h-8l-55 -107l-299 -495h-45l-89 491l-12 117h-9l-26 -127l-86 -410c24 -5 55 -18 78 -33l-8 -38h-242l7 38c22 12 60 29 91 34l118 561c-27 5 -56 14 -76 29l8 38h271l63 -407l8 -96h1l47 98l246 405h252
l-8 -38c-24 -15 -54 -24 -82 -29l-120 -567c27 -5 52 -17 69 -28z" />
    <glyph glyph-name="afii10031" unicode="&#x41d;" horiz-adv-x="766" 
d="M286 38l-7 -38h-302l7 38c26 13 59 24 88 29l120 566c-31 5 -59 17 -76 29l8 38h303l-8 -38c-20 -15 -50 -24 -77 -29l-52 -242h265l52 242c-29 7 -50 17 -65 29l8 38h303l-8 -38c-25 -15 -59 -25 -88 -29l-120 -566c29 -5 56 -17 75 -29l-7 -38h-303l7 38
c23 12 50 24 78 29l54 259h-265l-54 -259c23 -5 44 -14 64 -29z" />
    <glyph glyph-name="afii10032" unicode="&#x41e;" horiz-adv-x="751" 
d="M59 271c0 245 156 441 417 441c179 0 280 -108 280 -281c0 -219 -133 -442 -408 -442c-185 0 -289 121 -289 282zM229 252c0 -133 54 -199 139 -199c152 0 218 217 218 401c0 119 -38 193 -131 193c-155 0 -226 -227 -226 -395z" />
    <glyph glyph-name="afii10033" unicode="&#x41f;" horiz-adv-x="755" 
d="M283 38l-7 -38h-299l7 38c22 11 51 24 88 29l120 566c-27 5 -53 14 -76 29l8 38h718l-8 -38c-27 -16 -59 -24 -88 -29l-120 -566c25 -3 50 -12 75 -29l-7 -38h-300l7 38c16 11 39 22 75 29l120 568h-254l-120 -568c23 -7 44 -16 61 -29z" />
    <glyph glyph-name="afii10034" unicode="&#x420;" horiz-adv-x="634" 
d="M264 267l-42 -200c35 -5 69 -16 94 -29l-7 -38h-332l7 38c28 14 58 24 88 29l120 566c-29 5 -55 16 -76 29l8 38h126c53 0 131 8 188 8c140 0 240 -44 240 -167c0 -156 -121 -277 -327 -277c-13 0 -69 0 -87 3zM401 643c-27 0 -43 -3 -58 -6l-65 -304c12 -3 41 -4 56 -4
c114 0 178 88 178 212c0 62 -26 102 -111 102z" />
    <glyph glyph-name="afii10035" unicode="&#x421;" horiz-adv-x="652" 
d="M483 70l78 140h42c0 -42 -8 -128 -21 -182c-56 -28 -142 -39 -190 -39c-244 0 -333 145 -333 280c0 264 159 443 432 443c88 0 160 -14 204 -35c-8 -42 -40 -144 -64 -192h-42l-23 151c-12 7 -44 11 -72 11c-155 0 -265 -155 -265 -392c0 -149 96 -202 173 -202
c39 0 68 9 81 17z" />
    <glyph glyph-name="afii10036" unicode="&#x422;" horiz-adv-x="662" 
d="M469 38l-8 -38h-344l8 38c29 12 67 24 103 29l121 568h-116l-101 -171h-41c0 54 12 174 28 236h637c-13 -64 -48 -180 -72 -236h-42l-27 171h-116l-121 -568c33 -7 67 -16 91 -29z" />
    <glyph glyph-name="afii10037" unicode="&#x423;" horiz-adv-x="679" 
d="M426 298l34 66l148 269c-31 7 -52 17 -71 29l8 38h242l-8 -38c-17 -11 -44 -22 -77 -29l-282 -447c-88 -140 -176 -207 -257 -190c-30 23 -39 101 -33 134l35 30l130 -37c15 12 28 30 41 51l-178 459c-24 7 -47 16 -63 29l8 38h311l-8 -38c-21 -12 -51 -22 -82 -29
l93 -271l7 -64h2z" />
    <glyph glyph-name="afii10038" unicode="&#x424;" horiz-adv-x="841" 
d="M381 662l8 37h273l-7 -37c-15 -11 -40 -22 -73 -29l-9 -42c31 5 73 6 94 6c139 0 192 -91 192 -179c0 -171 -109 -305 -306 -305c-14 0 -57 1 -80 6l-11 -54c24 -7 46 -18 59 -29l-7 -36h-273l7 36c20 12 49 23 77 28l11 53c-31 -4 -63 -4 -86 -4
c-112 0 -199 67 -199 180c0 163 104 304 309 304c17 0 55 -2 78 -3l8 39c-29 8 -53 18 -65 29zM607 535c-16 0 -29 -1 -48 -5l-75 -354c12 -3 33 -3 44 -3c109 0 173 118 173 248c0 91 -47 114 -94 114zM309 174c15 0 29 2 41 5l76 355c-16 3 -28 2 -44 2
c-104 0 -174 -105 -174 -245c0 -84 50 -117 101 -117z" />
    <glyph glyph-name="afii10039" unicode="&#x425;" horiz-adv-x="723" 
d="M531 662l8 38h248l-8 -38c-21 -13 -46 -22 -74 -29l-235 -262l140 -304c29 -7 51 -16 70 -29l-7 -38h-323l7 38c24 12 49 22 78 29l-93 219l-182 -220c27 -7 48 -13 68 -28l-8 -38h-255l8 38c23 15 46 22 73 29l263 286l-126 280c-24 7 -43 16 -62 29l8 38h316l-8 -38
c-19 -11 -43 -21 -78 -29l77 -200l165 200c-25 7 -51 17 -70 29z" />
    <glyph glyph-name="afii10040" unicode="&#x426;" horiz-adv-x="773" 
d="M625 -162l-15 162h-633l7 38c20 11 51 22 88 29l120 566c-27 4 -53 14 -76 29l8 38h298l-8 -38c-19 -11 -41 -21 -72 -29l-120 -568h249l121 568c-23 5 -44 17 -61 29l8 38h299l-8 -38c-29 -16 -59 -24 -88 -29l-121 -568h118c-16 -68 -48 -167 -75 -227h-39z" />
    <glyph glyph-name="afii10041" unicode="&#x427;" horiz-adv-x="683" 
d="M629 38l-7 -38h-308l7 38c35 15 68 26 99 29l50 236c-43 -23 -112 -45 -192 -45c-107 0 -178 62 -146 211l35 164c-24 4 -50 16 -66 29l8 38h283l-8 -38c-16 -11 -40 -22 -67 -29l-31 -146c-21 -99 -14 -159 72 -159c44 0 86 14 125 35l57 270c-23 7 -41 16 -56 29l8 38
h278l-8 -38c-19 -12 -45 -24 -72 -29l-120 -566c24 -5 46 -18 59 -29z" />
    <glyph glyph-name="afii10042" unicode="&#x428;" horiz-adv-x="1003" 
d="M470 662l8 38h259l-8 -38c-15 -11 -37 -22 -60 -29l-121 -568h187l121 568c-20 5 -37 15 -51 29l8 38h277l-8 -38c-23 -14 -48 -24 -76 -29l-120 -566c24 -7 46 -17 63 -29l-7 -38h-965l7 38c23 12 53 24 78 29l120 566c-24 5 -51 16 -66 29l8 38h276l-8 -38
c-13 -9 -35 -22 -60 -29l-121 -568h187l121 568c-20 7 -38 16 -49 29z" />
    <glyph glyph-name="afii10043" unicode="&#x429;" horiz-adv-x="1031" 
d="M889 -162l-15 162h-897l7 38c22 11 49 24 78 29l120 566c-24 4 -51 16 -66 29l8 38h276l-8 -38c-15 -11 -37 -22 -60 -29l-121 -568h187l121 568c-21 7 -37 17 -49 29l8 38h259l-8 -38c-15 -11 -36 -22 -60 -29l-121 -568h187l121 568c-20 7 -38 16 -51 29l8 38h283
l-8 -38c-21 -13 -53 -24 -82 -29l-121 -568h118c-14 -65 -46 -164 -75 -227h-39z" />
    <glyph glyph-name="afii10044" unicode="&#x42a;" horiz-adv-x="766" 
d="M118 700h464l-8 -38c-25 -13 -63 -24 -98 -29l-46 -214c25 5 68 7 95 7c131 0 226 -47 226 -160c0 -186 -146 -268 -350 -268c-12 0 -97 2 -137 2h-154l7 38c27 13 57 24 89 29l120 568h-104l-90 -171h-41c0 67 14 178 27 236zM475 361c-24 0 -43 -2 -58 -6l-61 -289
c12 -3 42 -4 56 -4c107 0 174 76 174 204c0 57 -27 95 -111 95z" />
    <glyph glyph-name="afii10045" unicode="&#x42b;" horiz-adv-x="927" 
d="M874 38l-8 -38h-303l8 38c23 12 51 22 79 29l120 566c-24 5 -51 14 -72 29l8 38h308l-8 -38c-24 -14 -53 -24 -86 -29l-120 -566c32 -5 55 -18 74 -29zM130 0h-153l7 38c26 13 59 25 88 29l120 566c-27 5 -55 14 -76 29l8 38h320l-8 -38c-24 -13 -59 -25 -94 -29
l-46 -214c25 5 68 7 95 7c159 0 210 -79 210 -160c0 -179 -130 -268 -331 -268c-12 0 -100 2 -140 2zM341 361c-24 0 -43 -2 -58 -6l-61 -289c11 -3 38 -4 53 -4c104 0 161 94 161 208c0 51 -18 91 -95 91z" />
    <glyph glyph-name="afii10046" unicode="&#x42c;" horiz-adv-x="632" 
d="M130 0h-153l7 38c26 13 59 25 88 29l120 566c-27 5 -55 14 -76 29l8 38h324l-8 -38c-24 -13 -63 -25 -98 -29l-46 -214c25 5 68 7 95 7c159 0 226 -67 226 -160c0 -186 -146 -268 -347 -268c-12 0 -100 2 -140 2zM341 361c-24 0 -43 -2 -58 -6l-61 -289
c12 -3 42 -4 56 -4c107 0 174 76 174 204c0 57 -27 95 -111 95z" />
    <glyph glyph-name="afii10047" unicode="&#x42d;" horiz-adv-x="648" 
d="M478 334l-264 -30c-1 27 2 70 21 102l254 -4c17 155 -44 245 -161 245c-31 0 -68 -8 -87 -19l-80 -130h-41c0 30 6 118 22 171c56 32 150 43 207 43c213 0 304 -112 304 -284c0 -253 -158 -439 -443 -439c-92 0 -157 20 -194 49c8 52 37 128 61 181h42l21 -150
c15 -11 44 -16 75 -16c120 0 234 94 263 281z" />
    <glyph glyph-name="afii10048" unicode="&#x42e;" horiz-adv-x="1026" 
d="M291 38l-7 -38h-307l7 38c27 13 56 24 88 29l120 566c-27 4 -53 14 -76 29l8 38h308l-8 -38c-19 -11 -43 -22 -82 -29l-52 -242h108c48 184 172 321 370 321c203 0 263 -128 263 -260c0 -217 -133 -463 -397 -463c-206 0 -273 160 -249 337h-109l-54 -259
c31 -7 53 -18 69 -29zM537 253c-1 -133 29 -200 113 -200c141 0 217 224 217 434c0 81 -20 160 -118 160c-139 0 -210 -248 -212 -394z" />
    <glyph glyph-name="afii10049" unicode="&#x42f;" horiz-adv-x="687" 
d="M610 700h158l-8 -38c-19 -11 -53 -22 -88 -29l-120 -566c32 -7 57 -18 76 -29l-8 -38h-310l8 38c24 12 53 22 84 29l47 220h-80c-61 -91 -114 -178 -189 -255l-47 -32h-177l7 34l48 24c105 92 169 170 229 238c-48 16 -109 69 -109 157c0 161 116 247 347 250
c26 0 91 -3 132 -3zM387 346c19 0 64 3 76 5l59 282c-11 3 -38 5 -54 5c-125 0 -176 -91 -176 -189c0 -70 51 -103 95 -103z" />
    <glyph glyph-name="afii10065" unicode="&#x430;" horiz-adv-x="563" 
d="M215 68c53 0 109 102 139 172l37 198c-16 11 -27 15 -50 15c-108 0 -171 -156 -171 -297c0 -61 14 -88 45 -88zM343 159h-4c-34 -85 -105 -170 -197 -170c-69 0 -114 50 -114 150c0 208 119 371 303 371c35 0 56 -9 84 -21c35 13 72 20 128 20l-84 -440h70v-34
c-27 -21 -93 -43 -141 -43c-47 0 -65 24 -65 45c0 24 7 62 20 122z" />
    <glyph glyph-name="afii10066" unicode="&#x431;" horiz-adv-x="545" 
d="M31 211c0 184 66 355 187 436c75 51 179 58 274 63l60 52h34c0 -43 -24 -108 -53 -142c-19 -23 -48 -24 -92 -27c-195 -16 -287 -54 -327 -258h5c61 104 157 167 250 167c95 0 151 -65 151 -173c0 -172 -120 -340 -295 -340c-112 0 -194 66 -194 222zM200 332
c-16 -33 -27 -92 -27 -165c0 -84 26 -122 66 -122c69 0 136 125 136 277c0 72 -22 100 -63 100c-55 0 -96 -57 -112 -90z" />
    <glyph glyph-name="afii10067" unicode="&#x432;" horiz-adv-x="519" 
d="M492 411c0 -59 -55 -107 -138 -134c90 -5 119 -57 119 -99c0 -87 -96 -189 -259 -189c-119 0 -187 72 -187 176c0 130 57 233 125 287c50 39 108 60 204 60c76 0 136 -33 136 -101zM328 161c0 55 -22 71 -70 80c-21 -4 -55 -7 -80 -8c-3 -15 -7 -41 -7 -85
c0 -59 22 -103 69 -103c39 0 88 48 88 116zM319 455c-51 0 -102 -48 -135 -175c100 -5 169 61 169 128c0 24 -9 47 -34 47z" />
    <glyph glyph-name="afii10068" unicode="&#x433;" horiz-adv-x="422" 
d="M17 103c0 155 235 184 235 281c0 27 -11 48 -43 48c-46 0 -93 -38 -120 -62l-25 27c35 48 115 115 207 115c85 0 127 -49 127 -106c0 -157 -235 -191 -235 -290c0 -29 19 -48 58 -48c52 0 101 35 133 62l23 -24c-35 -49 -119 -117 -227 -117c-73 0 -133 44 -133 114z" />
    <glyph glyph-name="afii10069" unicode="&#x434;" horiz-adv-x="530" 
d="M21 171c0 192 135 335 291 335c27 0 56 -5 71 -16c0 83 -26 197 -121 197c-47 0 -81 -11 -112 -30l-16 26c39 40 117 71 197 71c102 0 189 -81 189 -292c0 -267 -131 -473 -329 -473c-100 0 -170 66 -170 182zM315 449c-109 0 -152 -167 -152 -295c0 -60 13 -109 61 -109
c80 0 149 174 154 386c-20 13 -42 18 -63 18z" />
    <glyph glyph-name="afii10070" unicode="&#x435;" horiz-adv-x="472" 
d="M405 134l24 -25c-29 -53 -115 -120 -214 -120c-119 0 -188 66 -188 185c0 183 124 338 297 338c80 0 138 -39 138 -103c0 -91 -85 -152 -286 -167c-4 -19 -6 -39 -6 -56c0 -76 43 -118 103 -118c51 0 103 37 132 66zM301 455c-45 0 -90 -45 -118 -162
c99 3 165 47 165 114c0 27 -12 48 -47 48z" />
    <glyph glyph-name="afii10072" unicode="&#x436;" horiz-adv-x="886" 
d="M76 387l-19 20c36 52 93 99 173 99c61 0 96 -61 96 -129c0 -35 -3 -67 -8 -98h74l45 221h127l-46 -221h73c38 132 122 227 233 227c41 0 60 -6 85 -22c3 -28 -14 -84 -54 -105l-54 63c-40 -16 -99 -102 -99 -278c0 -55 19 -90 60 -90c23 0 49 17 68 36l17 -23
c-29 -43 -97 -92 -162 -92c-83 0 -113 59 -113 134c0 35 2 66 7 98h-72l-46 -227h-126l46 227h-75c-38 -137 -122 -232 -234 -232c-41 0 -68 11 -88 26c-5 34 16 92 53 108l52 -69c57 19 107 126 107 276c0 65 -15 90 -46 90c-29 0 -55 -20 -74 -39z" />
    <glyph glyph-name="afii10073" unicode="&#x437;" horiz-adv-x="463" 
d="M-14 41c0 40 36 96 70 109l63 -100c11 -3 27 -5 38 -5c58 0 119 41 119 116c0 44 -22 69 -79 76l-65 -18c-11 17 -11 50 0 67h66c72 23 95 70 95 109c0 40 -23 60 -68 60c-11 0 -28 -2 -41 -5c-20 -21 -47 -64 -67 -91c-26 10 -56 69 -40 108c25 19 94 45 190 45
c100 0 169 -32 169 -100c0 -60 -39 -109 -134 -142c83 0 119 -50 119 -99c0 -101 -99 -182 -256 -182c-74 0 -149 21 -179 52z" />
    <glyph glyph-name="afii10074" unicode="&#x438;" horiz-adv-x="585" 
d="M555 500l-79 -431h70v-34c-27 -22 -91 -43 -146 -43c-48 0 -63 23 -63 44c0 24 4 68 20 124h-4c-35 -65 -106 -171 -219 -171c-55 0 -92 33 -92 93s40 231 64 347l-59 13v34c43 16 133 33 192 36l22 -12c-21 -100 -43 -185 -63 -285c-6 -32 -16 -72 -16 -111
c0 -24 14 -36 33 -36c67 0 134 120 153 171l52 261h135z" />
    <glyph glyph-name="afii10075" unicode="&#x439;" horiz-adv-x="585" 
d="M358 556c-116 0 -153 64 -153 127c19 16 60 34 97 37l34 -13v-78c13 -7 24 -12 45 -12c49 0 101 32 124 89c15 -1 37 -9 44 -20c-16 -56 -76 -130 -191 -130zM555 500l-79 -431h70v-34c-27 -22 -91 -43 -146 -43c-48 0 -63 23 -63 44c0 24 4 68 20 124h-4
c-35 -65 -106 -171 -219 -171c-55 0 -92 33 -92 93s40 231 64 347l-59 13v34c43 16 133 33 192 36l22 -12c-21 -100 -43 -185 -63 -285c-6 -32 -16 -72 -16 -111c0 -24 14 -36 33 -36c67 0 134 120 153 171l52 261h135z" />
    <glyph glyph-name="afii10076" unicode="&#x43a;" horiz-adv-x="557" 
d="M324 46c-36 64 -58 127 -78 183l-32 10l-46 -239h-140l84 429l-67 13v34c38 16 127 36 201 36l21 -11l-44 -218h32c47 34 106 100 122 132c3 19 2 69 -1 85c23 8 61 13 97 13c35 0 69 -5 84 -13c-34 -85 -155 -176 -203 -211c18 -50 86 -167 129 -220h54v-34
c-27 -22 -86 -43 -133 -43c-32 0 -56 11 -80 54z" />
    <glyph glyph-name="afii10077" unicode="&#x43b;" horiz-adv-x="568" 
d="M324 131l62 312h-99c-35 -153 -79 -314 -152 -400c-37 -43 -79 -61 -141 -54c-13 12 -19 41 -15 72c3 24 11 49 25 65l88 -28c50 64 102 224 121 329c-27 7 -59 21 -74 34v39h395l-82 -431h73v-34c-27 -21 -89 -43 -158 -43c-39 0 -57 21 -57 44c0 29 8 64 14 95z" />
    <glyph glyph-name="afii10078" unicode="&#x43c;" horiz-adv-x="784" 
d="M264 330l-5 72h-4c-29 -119 -62 -280 -135 -366c-32 -38 -86 -52 -128 -47c-12 14 -17 46 -13 77c3 21 10 41 22 56l81 -24c48 61 88 206 115 334c-23 8 -51 21 -62 34v34h225l36 -261l4 -71h3l40 74l162 258h145l-85 -431h74v-34c-27 -22 -93 -43 -152 -43
c-41 0 -61 19 -61 40c0 32 11 77 18 108l40 171c5 23 18 67 26 89h-3l-246 -400h-63z" />
    <glyph glyph-name="afii10079" unicode="&#x43d;" horiz-adv-x="592" 
d="M382 281l42 219h138l-86 -431h71v-34c-27 -22 -98 -43 -153 -43c-44 0 -60 22 -60 42c0 25 12 64 18 95l19 95h-158l-47 -224h-138l85 429l-58 13v34c37 18 138 36 194 36l20 -12l-45 -219h158z" />
    <glyph glyph-name="afii10080" unicode="&#x43e;" horiz-adv-x="549" 
d="M29 192c0 143 95 320 299 320c120 0 192 -66 192 -195c0 -176 -109 -328 -295 -328c-113 0 -196 65 -196 203zM311 455c-106 0 -140 -181 -140 -302c0 -68 28 -108 73 -108c77 0 134 142 134 297c0 73 -24 113 -67 113z" />
    <glyph glyph-name="afii10081" unicode="&#x43f;" horiz-adv-x="588" 
d="M349 125l35 160c9 41 18 70 18 105c0 23 -9 42 -34 42c-50 0 -115 -86 -142 -146l-60 -286h-138l86 429l-59 13l2 34c37 19 123 36 190 36l20 -12l-31 -146h5c48 88 129 158 211 158c56 0 90 -39 90 -99c0 -31 -8 -72 -17 -111l-55 -233h72v-34c-27 -21 -92 -43 -143 -43
c-45 0 -65 19 -65 42c0 28 9 62 15 91z" />
    <glyph glyph-name="afii10082" unicode="&#x440;" horiz-adv-x="572" 
d="M165 8l-30 -140c23 -4 50 -17 67 -29v-38h-205l-13 13l131 614l-58 14v34c43 19 140 36 192 36l20 -12l-33 -138h4c43 84 108 150 190 150c68 0 118 -56 118 -152c0 -217 -129 -371 -297 -371c-39 0 -59 5 -86 19zM353 432c-55 0 -107 -93 -131 -153l-44 -217
c17 -12 30 -17 62 -17c92 0 164 159 164 301c0 56 -18 86 -51 86z" />
    <glyph glyph-name="afii10083" unicode="&#x441;" horiz-adv-x="445" 
d="M389 134l23 -25c-35 -57 -114 -120 -213 -120c-105 0 -172 65 -172 177c0 188 119 346 300 346c60 0 108 -15 123 -32c3 -29 -27 -95 -64 -112l-61 87c-72 0 -154 -102 -154 -264c0 -81 36 -118 92 -118c53 0 100 38 126 61z" />
    <glyph glyph-name="afii10084" unicode="&#x442;" horiz-adv-x="849" 
d="M602 118l43 182c7 31 17 71 17 91c0 25 -7 41 -30 41c-45 0 -98 -73 -130 -145l-65 -287h-134l61 281c9 41 17 81 17 114c0 25 -9 37 -28 37c-36 0 -103 -75 -127 -146l-58 -286h-140l89 429l-57 13v34c44 22 130 36 192 36l21 -12l-39 -146h4c40 73 118 158 206 158
c32 0 75 -18 75 -93c0 -19 -4 -45 -9 -65c46 84 123 158 207 158c51 0 86 -34 86 -90c0 -43 -8 -79 -19 -122l-57 -231h70v-34c-27 -22 -98 -43 -145 -43c-48 0 -64 22 -64 46c0 19 6 46 14 80z" />
    <glyph glyph-name="afii10085" unicode="&#x443;" horiz-adv-x="487" 
d="M210 0l-138 429l-64 8v34c13 10 87 41 144 41c36 0 54 -18 62 -49l77 -303l5 -60h2l21 59c23 65 54 143 69 207c0 28 -20 116 -25 132c19 8 49 12 77 12s53 -4 68 -12c-35 -159 -110 -334 -203 -498c-77 -136 -148 -208 -248 -208c-28 0 -51 8 -69 20
c-8 36 28 110 65 123l75 -53c20 15 58 49 82 118z" />
    <glyph glyph-name="afii10086" unicode="&#x444;" horiz-adv-x="756" 
d="M395 17l-30 -148c23 -4 48 -18 67 -30v-38h-196l-8 10l52 243c-31 -39 -67 -67 -130 -67c-59 0 -123 36 -123 152c0 220 110 371 256 371c32 0 61 -8 78 -23l31 181l-67 14v34c41 16 123 31 187 36l20 -11l-56 -291c24 29 75 62 139 62c62 0 114 -38 114 -150
c0 -223 -110 -373 -263 -373c-31 0 -58 12 -71 28zM545 444c-35 0 -58 -18 -79 -41l-61 -343c11 -10 28 -15 51 -15c73 0 133 152 133 328c0 47 -17 71 -44 71zM210 54c25 0 57 22 78 50l62 333c-13 11 -30 16 -52 16c-72 0 -131 -142 -131 -320c0 -53 14 -79 43 -79z" />
    <glyph glyph-name="afii10087" unicode="&#x445;" horiz-adv-x="506" 
d="M251 39l-50 163c-27 -31 -62 -69 -79 -102c-3 -21 1 -77 6 -93c-23 -8 -55 -12 -84 -12s-55 4 -70 12c24 79 148 202 210 250l-61 166l-69 8v34c37 21 109 44 155 44c35 0 52 -20 60 -49l45 -158c25 27 57 68 72 99c3 19 -6 76 -9 93c25 9 52 13 81 13c27 0 54 -5 69 -13
c-24 -81 -146 -201 -198 -242l66 -175l69 -8v-34c-26 -18 -102 -43 -150 -43c-35 0 -54 18 -63 47z" />
    <glyph glyph-name="afii10088" unicode="&#x446;" horiz-adv-x="595" 
d="M395 -8c-43 0 -58 23 -58 44c0 24 4 68 20 124h-4c-35 -65 -106 -171 -219 -171c-55 0 -92 33 -92 93s40 231 64 347l-59 13v34c43 16 133 33 192 36l22 -12c-21 -100 -43 -185 -63 -285c-6 -32 -16 -72 -16 -111c0 -24 14 -36 33 -36c67 0 134 120 153 171l52 261h135
l-79 -431h77v-40c-35 -34 -20 -80 -21 -129c-2 -71 -78 -99 -149 -104l-6 29c39 11 45 41 45 76c-1 52 24 79 72 118l-3 4c-20 -13 -61 -31 -96 -31z" />
    <glyph glyph-name="afii10089" unicode="&#x447;" horiz-adv-x="542" 
d="M514 500l-91 -431h70v-34c-27 -22 -91 -43 -146 -43c-48 0 -63 23 -63 46c0 13 1 30 6 49l39 155h-4c-40 -53 -108 -97 -183 -97c-56 0 -94 30 -94 89c0 53 14 99 35 195l-59 13v34c43 16 133 33 192 36l22 -12c-27 -108 -50 -189 -50 -233c0 -28 14 -42 41 -42
c37 0 82 29 105 62l44 213h136z" />
    <glyph glyph-name="afii10090" unicode="&#x448;" horiz-adv-x="839" 
d="M321 64c0 28 4 56 16 96h-4c-35 -65 -87 -171 -199 -171c-55 0 -92 33 -92 93s40 231 64 347l-59 13v34c43 16 133 33 192 36l22 -12c-21 -100 -43 -185 -63 -285c-6 -32 -16 -72 -16 -111c0 -24 14 -36 33 -36c63 0 113 120 132 171l53 261h135
c-21 -100 -43 -185 -63 -285c-6 -32 -16 -72 -16 -111c0 -24 14 -36 33 -36c63 0 114 120 133 171l52 261h135l-79 -431h70v-34c-27 -22 -91 -43 -146 -43c-48 0 -63 23 -63 44c0 24 4 68 20 124h-4c-35 -65 -89 -171 -209 -171c-51 0 -77 30 -77 75z" />
    <glyph glyph-name="afii10091" unicode="&#x449;" horiz-adv-x="849" 
d="M809 500l-79 -431h77v-40c-32 -33 -20 -80 -20 -129c0 -71 -78 -99 -149 -104l-7 29c39 11 46 41 46 76c0 52 24 79 72 118l-3 4c-20 -13 -62 -31 -97 -31c-44 0 -58 23 -58 44c0 24 4 68 20 124h-4c-35 -65 -89 -171 -209 -171c-51 0 -77 30 -77 75c0 28 4 56 16 96h-4
c-35 -65 -87 -171 -199 -171c-55 0 -92 33 -92 93s40 231 64 347l-59 13v34c43 16 133 33 192 36l22 -12c-21 -100 -43 -185 -63 -285c-6 -32 -16 -72 -16 -111c0 -24 14 -36 33 -36c63 0 113 120 132 171l53 261h135c-21 -100 -43 -185 -63 -285c-6 -32 -16 -72 -16 -111
c0 -24 14 -36 33 -36c63 0 114 120 133 171l52 261h135z" />
    <glyph glyph-name="afii10092" unicode="&#x44a;" horiz-adv-x="514" 
d="M232 261h4c48 40 98 65 162 65c52 0 101 -33 101 -109c0 -127 -133 -228 -272 -228c-74 0 -165 34 -165 143c0 89 80 203 181 272c-41 -7 -101 -2 -148 5l-46 -72l-34 6l24 131c5 26 23 39 57 39c51 0 122 -20 240 -28l52 27c17 -7 32 -30 29 -53
c-71 -33 -145 -102 -185 -198zM220 210c-12 -36 -18 -68 -18 -97c0 -39 17 -68 52 -68c56 0 104 63 104 143c0 40 -26 58 -51 58c-33 0 -68 -13 -87 -36z" />
    <glyph glyph-name="afii10093" unicode="&#x44b;" horiz-adv-x="740" 
d="M202 210c-12 -36 -19 -69 -19 -108c0 -37 10 -57 41 -57c50 0 95 79 95 158c0 35 -21 53 -44 53c-31 0 -54 -23 -73 -46zM211 261h4c35 39 80 75 148 75c47 0 96 -31 96 -99c0 -120 -118 -248 -279 -248c-76 0 -137 34 -137 122c0 84 46 208 86 318l-55 13v34
c41 19 137 33 202 36l22 -12c-32 -85 -58 -143 -87 -239zM488 118l83 382h139l-91 -431h70v-34c-35 -24 -97 -43 -145 -43c-51 0 -67 22 -67 45c0 27 4 50 11 81z" />
    <glyph glyph-name="afii10094" unicode="&#x44c;" horiz-adv-x="489" 
d="M202 210c-12 -36 -19 -70 -19 -105c0 -37 15 -60 46 -60c57 0 105 79 105 158c0 35 -22 53 -46 53c-35 0 -67 -23 -86 -46zM211 261h4c35 37 95 75 163 75c47 0 96 -31 96 -99c0 -127 -128 -248 -289 -248c-83 0 -142 34 -142 122c0 84 46 208 86 318l-55 13v34
c41 19 137 33 202 36l22 -12c-32 -85 -58 -143 -87 -239z" />
    <glyph glyph-name="afii10095" unicode="&#x44d;" horiz-adv-x="484" 
d="M154 45c67 0 135 71 156 190l-163 -23c-11 16 -11 61 0 77h168c0 7 1 13 1 20c0 92 -37 146 -89 146c-11 0 -23 -2 -38 -5c-21 -21 -51 -67 -72 -93c-26 10 -53 74 -40 114c32 21 98 41 189 41c112 0 194 -68 194 -184c0 -196 -124 -339 -295 -339c-74 0 -149 21 -179 52
c0 40 36 96 70 109l63 -100c11 -3 24 -5 35 -5z" />
    <glyph glyph-name="afii10096" unicode="&#x44e;" horiz-adv-x="790" 
d="M287 192c0 11 1 21 2 32h-76l-47 -224h-138l85 429l-58 13v34c37 18 138 36 194 36l20 -12l-45 -219h74c29 117 114 231 271 231c120 0 192 -66 192 -195c0 -176 -111 -328 -286 -328c-107 0 -188 65 -188 203zM556 455c-91 0 -133 -181 -133 -302c0 -68 23 -108 60 -108
c77 0 136 142 136 297c0 73 -20 113 -63 113z" />
    <glyph glyph-name="afii10097" unicode="&#x44f;" horiz-adv-x="554" 
d="M314 243h21l43 203c-13 3 -34 6 -47 6c-60 0 -107 -61 -107 -133c0 -43 26 -76 90 -76zM165 213c-51 15 -85 56 -85 120c0 104 108 176 269 176c58 0 128 -7 172 -21l-82 -419h71v-34c-27 -21 -98 -43 -156 -43c-43 0 -57 21 -57 40c0 24 7 55 13 86l16 81l-55 -8
c-27 -47 -56 -104 -99 -155c-29 -35 -57 -44 -90 -44c-51 0 -89 23 -105 42v35h45c45 29 112 100 143 144z" />
    <glyph glyph-name="afii10071" unicode="&#x451;" horiz-adv-x="472" 
d="M152 659c0 43 29 70 73 70c43 0 73 -27 73 -70c0 -40 -30 -68 -73 -68c-44 0 -73 28 -73 68zM371 659c0 43 29 70 72 70c44 0 74 -27 74 -70c0 -40 -30 -68 -74 -68c-43 0 -72 28 -72 68zM405 134l24 -25c-29 -53 -115 -120 -214 -120c-119 0 -188 66 -188 185
c0 183 124 338 297 338c80 0 138 -39 138 -103c0 -91 -85 -152 -286 -167c-4 -19 -6 -39 -6 -56c0 -76 43 -118 103 -118c51 0 103 37 132 66zM301 455c-45 0 -90 -45 -118 -162c99 3 165 47 165 114c0 27 -12 48 -47 48z" />
    <glyph glyph-name="afii10099" unicode="&#x452;" horiz-adv-x="561" 
d="M130 539h-78l14 61h76l14 69l-66 13v32c39 16 132 38 201 38l21 -9l-31 -143h152l-14 -61h-151l-40 -185h5c51 85 114 128 191 128c61 0 104 -39 104 -96c0 -29 -2 -45 -10 -84l-63 -302c-31 -146 -162 -200 -236 -211l-16 31c33 17 90 72 113 180l61 285
c7 32 11 51 11 72c0 28 -18 45 -38 45c-55 0 -114 -71 -132 -116l-59 -286h-138z" />
    <glyph glyph-name="afii10100" unicode="&#x453;" horiz-adv-x="422" 
d="M290 562l-40 22l118 179c23 6 109 -5 123 -22v-24zM17 103c0 155 235 184 235 281c0 27 -11 48 -43 48c-46 0 -93 -38 -120 -62l-25 27c35 48 115 115 207 115c85 0 127 -49 127 -106c0 -157 -235 -191 -235 -290c0 -29 19 -48 58 -48c52 0 101 35 133 62l23 -24
c-35 -49 -119 -117 -227 -117c-73 0 -133 44 -133 114z" />
    <glyph glyph-name="afii10101" unicode="&#x454;" horiz-adv-x="460" 
d="M404 134l23 -25c-35 -57 -114 -120 -213 -120c-105 0 -187 67 -187 183c0 193 120 325 291 338c20 1 38 1 57 -1c46 -5 76 -14 90 -29c3 -29 -27 -95 -64 -112l-61 87c-59 0 -133 -55 -160 -171l160 13c5 -17 -3 -57 -16 -74l-152 2c0 -9 -1 -19 -1 -28
c0 -88 51 -124 107 -124c53 0 100 38 126 61z" />
    <glyph glyph-name="afii10102" unicode="&#x455;" horiz-adv-x="432" 
d="M229 110c0 88 -163 115 -163 251c0 101 78 151 203 151c43 0 108 -8 147 -31c3 -29 -13 -102 -53 -115l-80 89c-43 0 -75 -15 -75 -59c0 -89 166 -115 166 -252c0 -101 -95 -155 -223 -155c-68 0 -125 17 -151 36c-1 43 15 88 47 111l97 -91c44 0 85 21 85 65z" />
    <glyph glyph-name="afii10103" unicode="&#x456;" horiz-adv-x="304" 
d="M143 667c0 45 34 72 81 72c51 0 83 -27 83 -72c0 -43 -32 -70 -83 -70c-47 0 -81 27 -81 70zM53 118l68 310l-62 14v34c40 16 142 36 197 36l18 -12l-90 -431h70v-34c-35 -24 -97 -43 -145 -43c-51 0 -67 22 -67 45c0 27 4 50 11 81z" />
    <glyph glyph-name="afii10104" unicode="&#x457;" horiz-adv-x="352" 
d="M67 668c0 44 29 70 69 70c43 0 67 -26 67 -70c0 -40 -27 -67 -67 -67c-44 0 -69 27 -69 67zM246 668c0 44 29 70 68 70c44 0 68 -26 68 -70c0 -40 -27 -67 -68 -67c-43 0 -68 27 -68 67zM68 118l68 310l-62 14v34c40 16 142 36 197 36l18 -12l-90 -431h70v-34
c-35 -24 -97 -43 -145 -43c-51 0 -67 22 -67 45c0 27 4 50 11 81z" />
    <glyph glyph-name="afii10105" unicode="&#x458;" horiz-adv-x="299" 
d="M143 667c0 45 34 72 81 72c51 0 83 -27 83 -72c0 -43 -32 -70 -83 -70c-47 0 -81 27 -81 70zM37 24l82 405l-59 13v34c40 19 129 36 192 36l20 -12l-92 -457c-38 -187 -171 -243 -244 -254l-16 31c32 16 89 65 117 204z" />
    <glyph glyph-name="afii10106" unicode="&#x459;" horiz-adv-x="771" 
d="M139 461v39h415c-24 -79 -42 -143 -61 -239h4c35 37 95 75 163 75c47 0 96 -31 96 -99c0 -127 -128 -248 -289 -248c-83 0 -142 38 -142 122s40 224 70 332h-108c-35 -153 -79 -314 -152 -400c-37 -43 -79 -61 -141 -54c-13 12 -19 41 -15 72c3 24 11 49 25 65l88 -28
c50 64 102 224 121 329c-27 7 -59 21 -74 34zM484 210c-12 -36 -19 -70 -19 -105c0 -37 15 -60 46 -60c57 0 105 79 105 158c0 35 -22 53 -46 53c-35 0 -67 -23 -86 -46z" />
    <glyph glyph-name="afii10107" unicode="&#x45a;" horiz-adv-x="797" 
d="M382 281l46 219h146c-18 -74 -32 -143 -56 -239h4c35 39 95 75 164 75c46 0 96 -31 96 -99c0 -127 -129 -248 -289 -248c-84 0 -143 34 -143 114c0 25 17 97 22 121h-159l-47 -224h-138l85 429l-58 13v34c37 18 138 36 194 36l20 -12l-45 -219h158zM510 210
c-12 -36 -20 -70 -20 -105c0 -37 17 -60 46 -60c57 0 105 79 105 158c0 35 -21 53 -46 53c-33 0 -68 -23 -85 -46z" />
    <glyph glyph-name="afii10108" unicode="&#x45b;" horiz-adv-x="581" 
d="M130 539h-78l14 61h76l14 69l-66 13v32c39 16 132 38 201 38l21 -9l-31 -143h152l-14 -61h-151l-40 -185h5c51 87 113 128 193 128c61 0 101 -40 101 -96c0 -27 -1 -53 -9 -84l-57 -233h74v-34c-27 -21 -81 -43 -146 -43c-44 0 -63 20 -63 45c0 24 7 48 14 81l37 167
c7 31 10 56 10 75c0 24 -15 42 -35 42c-60 0 -116 -71 -134 -116l-59 -286h-138z" />
    <glyph glyph-name="afii10109" unicode="&#x45c;" horiz-adv-x="557" 
d="M309 562l-40 22l118 179c23 6 109 -5 123 -22v-24zM324 46c-36 64 -58 127 -78 183l-32 10l-46 -239h-140l84 429l-67 13v34c38 16 127 36 201 36l21 -11l-44 -218h32c47 34 106 100 122 132c3 19 2 69 -1 85c23 8 61 13 97 13c35 0 69 -5 84 -13
c-34 -85 -155 -176 -203 -211c18 -50 86 -167 129 -220h54v-34c-27 -22 -86 -43 -133 -43c-32 0 -56 11 -80 54z" />
    <glyph glyph-name="afii10110" unicode="&#x45e;" horiz-adv-x="487" 
d="M292 556c-116 0 -153 64 -153 127c19 16 60 34 97 37l34 -13v-78c13 -7 24 -12 45 -12c49 0 101 32 124 89c15 -1 37 -9 44 -20c-16 -56 -76 -130 -191 -130zM210 0l-138 429l-64 8v34c13 10 87 41 144 41c36 0 54 -18 62 -49l77 -303l5 -60h2l21 59c23 65 54 143 69 207
c0 28 -20 116 -25 132c19 8 49 12 77 12s53 -4 68 -12c-35 -159 -110 -334 -203 -498c-77 -136 -148 -208 -248 -208c-28 0 -51 8 -69 20c-8 36 28 110 65 123l75 -53c20 15 58 49 82 118z" />
    <glyph glyph-name="afii10193" unicode="&#x45f;" horiz-adv-x="585" 
d="M555 500l-79 -431h70v-34c-27 -22 -91 -43 -146 -43c-48 0 -63 23 -63 44c0 24 4 68 20 124h-4c-35 -65 -106 -171 -219 -171c-55 0 -92 33 -92 93s40 231 64 347l-59 13v34c43 16 133 33 192 36l22 -12c-21 -100 -43 -185 -63 -285c-6 -32 -16 -72 -16 -111
c0 -24 14 -36 33 -36c67 0 134 120 153 171l52 261h135zM282 8l23 -13c-35 -40 17 -79 17 -135c0 -53 -61 -90 -118 -98l-12 25c49 24 7 76 7 121c0 47 26 72 83 100z" />
    <glyph glyph-name="afii10146" unicode="&#x462;" horiz-adv-x="775" 
d="M629 440l-32 118h-127l-33 -156c25 4 67 6 94 6c153 0 229 -50 229 -161c0 -157 -121 -249 -346 -249c-12 0 -100 2 -140 2h-154l7 38c27 13 60 25 89 29l104 491h-93l-100 -166h-41c0 54 13 166 26 227h221l9 42c-27 5 -55 14 -76 29l7 34h324l-7 -34
c-24 -13 -63 -24 -98 -29l-9 -42h248c-13 -59 -41 -133 -60 -179h-42zM480 343c-25 0 -41 -2 -57 -5l-57 -272c12 -3 42 -4 56 -4c89 0 173 51 173 185c0 63 -31 96 -115 96z" />
    <glyph glyph-name="afii10194" unicode="&#x463;" horiz-adv-x="752" 
d="M468 261h4c35 37 101 75 169 75c47 0 96 -31 96 -99c0 -127 -128 -248 -289 -248c-83 0 -142 34 -142 113c0 77 65 245 65 295c0 23 -9 35 -28 35c-32 0 -93 -75 -117 -146l-58 -286h-140l89 429l-57 13v34c44 22 130 36 192 36l21 -12l-39 -146h4c40 73 108 158 196 158
c32 0 75 -19 75 -87c0 -37 -28 -108 -41 -164zM465 210c-12 -36 -24 -69 -24 -112c0 -31 20 -53 51 -53c56 0 105 79 105 158c0 35 -22 53 -46 53c-35 0 -67 -23 -86 -46z" />
    <glyph glyph-name="afii10147" unicode="&#x472;" horiz-adv-x="751" 
d="M59 271c0 245 156 441 417 441c179 0 280 -108 280 -281c0 -219 -133 -442 -408 -442c-185 0 -289 121 -289 282zM224 252c0 -133 59 -199 144 -199c116 0 184 123 208 262c-33 -33 -75 -47 -104 -47c-63 0 -105 66 -159 66c-23 0 -57 -4 -86 -27c-2 -19 -3 -38 -3 -55z
M517 369c17 0 47 1 70 13c3 25 4 49 4 72c0 119 -43 193 -136 193c-124 0 -193 -135 -217 -272c33 31 70 49 99 56c15 2 29 2 40 -1c54 -8 90 -61 140 -61z" />
    <glyph glyph-name="afii10195" unicode="&#x473;" horiz-adv-x="549" 
d="M29 192c0 143 95 320 299 320c120 0 192 -66 192 -195c0 -176 -109 -328 -295 -328c-113 0 -196 65 -196 203zM311 455c-72 0 -112 -84 -128 -173c29 23 56 32 75 32c40 0 55 -40 86 -40c8 0 18 3 30 9c3 19 4 39 4 59c0 73 -24 113 -67 113zM210 234
c-10 0 -22 -5 -36 -15c-2 -23 -3 -45 -3 -66c0 -68 28 -108 73 -108c57 0 102 76 120 176c-24 -19 -46 -29 -67 -29c-42 0 -55 42 -87 42z" />
    <glyph glyph-name="afii10148" unicode="&#x474;" horiz-adv-x="756" 
d="M794 712c31 -8 54 -66 56 -113c1 -11 0 -21 -1 -30l-39 -35l-101 28c-97 -107 -250 -362 -338 -573h-84l-122 644c-24 5 -52 16 -69 29l8 38h333l-8 -38c-26 -13 -55 -23 -88 -29l48 -374l2 -94h2l38 95c86 216 219 363 285 419c28 24 55 32 78 33z" />
    <glyph glyph-name="afii10196" unicode="&#x475;" horiz-adv-x="531" 
d="M593 392l-37 -39l-88 25c-77 -96 -161 -282 -209 -378l-113 -11l-74 440l-64 8v34c31 18 96 41 151 41c36 0 48 -22 52 -51l38 -288l6 -67h2l27 71c36 95 92 217 161 288c31 32 69 46 94 46c4 0 9 0 12 -1c27 -16 43 -59 43 -97c0 -7 0 -14 -1 -21z" />
    <glyph glyph-name="uni048A" unicode="&#x48a;" horiz-adv-x="798" 
d="M285 38l-8 -38h-300l7 38c28 13 59 25 88 29l120 566c-27 5 -55 14 -76 29l8 38h301l-8 -38c-23 -12 -49 -22 -80 -29l-81 -380l-27 -78l63 83l330 351l5 24c-29 7 -54 16 -73 29l8 38h301l-8 -38c-25 -15 -57 -24 -88 -29l-120 -568h109l9 -13
c-10 -49 -94 -171 -175 -214h-54l84 162h-206l7 38c20 9 50 22 81 29l81 379l28 79l-59 -80l-336 -356l-4 -22c29 -7 54 -18 73 -29zM488 741c-114 0 -164 62 -164 112c21 21 80 37 117 37l34 -13v-60c13 -7 24 -12 45 -12c57 0 123 25 144 77c15 -1 37 -10 44 -21
c-18 -52 -87 -120 -220 -120z" />
    <glyph glyph-name="uni048B" unicode="&#x48b;" horiz-adv-x="595" 
d="M555 500l-79 -431h77v-40c-35 -34 -20 -80 -21 -129c-2 -71 -78 -99 -149 -104l-6 29c39 11 45 41 45 76c-1 52 24 79 72 118l-3 4c-20 -13 -61 -31 -96 -31c-43 0 -58 23 -58 44c0 24 4 68 20 124h-4c-35 -65 -106 -171 -219 -171c-55 0 -92 33 -92 93s40 231 64 347
l-59 13v34c43 16 133 33 192 36l22 -12c-21 -100 -43 -185 -63 -285c-6 -32 -16 -72 -16 -111c0 -24 14 -36 33 -36c67 0 134 120 153 171l52 261h135zM359 556c-116 0 -153 64 -153 127c19 16 58 34 97 37l34 -13v-78c13 -7 24 -12 45 -12c49 0 100 32 123 89
c16 -1 37 -9 45 -20c-16 -56 -76 -130 -191 -130z" />
    <glyph glyph-name="uni048C" unicode="&#x48c;" horiz-adv-x="679" 
d="M210 501h-131l13 64h132l14 68c-27 5 -53 14 -76 29l8 38h324l-8 -38c-24 -13 -63 -25 -98 -29l-14 -68h197l-13 -64h-198l-17 -82c25 5 67 7 94 7c159 0 227 -67 227 -160c0 -186 -146 -268 -348 -268c-13 0 -98 2 -139 2h-155l8 38c27 13 59 25 88 29zM387 361
c-25 0 -42 -2 -58 -6l-61 -289c11 -3 43 -4 57 -4c105 0 174 76 174 204c0 57 -28 95 -112 95z" />
    <glyph glyph-name="uni048D" unicode="&#x48d;" horiz-adv-x="493" 
d="M110 440h-80l14 61h81c17 68 33 131 44 178l-60 13v34c41 19 134 33 200 36l20 -12c-13 -43 -37 -147 -61 -249h155l-14 -61h-155l-40 -179h4c35 39 95 75 164 75c46 0 96 -31 96 -99c0 -127 -129 -248 -289 -248c-84 0 -143 34 -143 122c0 51 32 195 64 329zM206 210
c-12 -36 -20 -70 -20 -105c0 -37 17 -60 46 -60c57 0 105 79 105 158c0 35 -21 53 -46 53c-33 0 -68 -23 -85 -46z" />
    <glyph glyph-name="uni048E" unicode="&#x48e;" horiz-adv-x="634" 
d="M264 267l-42 -200c35 -5 69 -16 94 -29l-7 -38h-332l7 38c28 14 58 24 88 29l120 566c-29 5 -55 16 -76 29l8 38h126c53 0 131 8 188 8c140 0 240 -44 240 -167c0 -119 -69 -217 -194 -257l26 -64l-93 -35l-31 82c-17 -3 -37 -3 -58 -3c-15 0 -48 0 -64 3zM401 643
c-27 0 -43 -3 -58 -6l-65 -304c12 -3 41 -4 56 -4c17 0 33 1 46 4l-39 101l55 21l37 -96c51 35 79 101 79 182c0 62 -26 102 -111 102z" />
    <glyph glyph-name="uni048F" unicode="&#x48f;" horiz-adv-x="572" 
d="M165 8l-30 -140c23 -4 50 -17 67 -29v-38h-205l-13 13l131 614l-58 14v34c43 19 140 36 192 36l20 -12l-33 -138h4c43 84 108 150 190 150c68 0 118 -56 118 -152c0 -137 -52 -250 -132 -314l56 -75l-70 -48l-63 84c-29 -12 -59 -18 -88 -18c-39 0 -59 5 -86 19zM353 432
c-55 0 -107 -93 -131 -153l-44 -217c17 -12 30 -17 62 -17c22 0 44 9 66 28l-58 79l47 36l48 -67c37 60 61 145 61 225c0 56 -18 86 -51 86z" />
    <glyph glyph-name="afii10050" unicode="&#x490;" horiz-adv-x="533" 
d="M618 635h-276l-120 -568c31 -4 62 -16 89 -29l-7 -38h-327l7 38c31 15 61 25 88 29l120 566c-27 5 -55 14 -76 29l8 38h390l93 150h41c-3 -64 -19 -164 -30 -215z" />
    <glyph glyph-name="afii10098" unicode="&#x491;" horiz-adv-x="444" 
d="M66 461l1 39h307l83 138h41c-3 -60 -14 -152 -25 -201h-201l-94 -437h-144l93 433c-23 4 -46 16 -61 28z" />
    <glyph glyph-name="uni0492" unicode="&#x492;" horiz-adv-x="542" 
d="M496 635h-159l-54 -251h136l-15 -70h-135l-52 -247c31 -5 62 -17 89 -29l-7 -38h-327l7 38c30 15 59 24 88 29l52 247h-82l15 70h81l54 249c-27 5 -53 14 -76 29l8 38h512c-11 -63 -40 -174 -69 -240h-41z" />
    <glyph glyph-name="uni0493" unicode="&#x493;" horiz-adv-x="500" 
d="M92 196h-74l14 61h73l37 172c-23 4 -50 20 -61 32v39h431c-11 -48 -34 -117 -59 -170h-41l-25 113h-104l-40 -186h141l-14 -61h-139l-42 -196h-138z" />
    <glyph glyph-name="uni0494" unicode="&#x494;" horiz-adv-x="653" 
d="M501 635h-159l-59 -277c43 23 99 45 175 45c113 0 169 -54 169 -161c0 -190 -124 -343 -329 -346l4 45c124 38 177 169 176 296c0 72 -26 96 -85 96c-43 0 -85 -15 -122 -35l-49 -231c25 -7 48 -18 67 -29l-7 -38h-305l7 38c30 15 59 24 88 29l120 566
c-27 5 -53 14 -76 29l8 38h512c-13 -64 -38 -156 -65 -223h-41z" />
    <glyph glyph-name="uni0495" unicode="&#x495;" horiz-adv-x="528" 
d="M60 461v39h435c-9 -48 -29 -117 -54 -170h-41l-30 113h-104l-56 -258c40 45 88 92 163 92c67 0 115 -39 115 -100c0 -161 -105 -376 -289 -388l-16 31c89 24 165 238 165 325c0 32 -16 52 -45 52c-40 0 -78 -24 -101 -53l-30 -144h-144l91 428c-23 4 -51 21 -59 33z" />
    <glyph glyph-name="uni0496" unicode="&#x496;" horiz-adv-x="1037" 
d="M408 386h70l53 247c-25 8 -45 18 -58 29l8 38h259l-8 -38c-15 -11 -37 -20 -64 -29l-55 -256l66 16l194 240c-24 7 -45 17 -64 29l8 38h269l-8 -38c-21 -12 -50 -22 -78 -29l-238 -252c45 -85 107 -212 179 -316h82c-16 -68 -48 -167 -75 -227h-39l-15 162h-80l-36 34
c-59 92 -86 191 -119 295h-57l-54 -262c21 -7 40 -16 57 -29l-8 -38h-269l7 38c23 12 47 22 76 29l57 271l-66 -16c-64 -97 -127 -200 -211 -288l-50 -34h-177l7 34l45 24c120 106 223 238 300 324l-119 251c-25 7 -46 18 -61 29l8 38h257l-8 -38c-19 -12 -49 -22 -77 -29z
" />
    <glyph glyph-name="uni0497" unicode="&#x497;" horiz-adv-x="886" 
d="M76 387l-19 20c36 52 93 99 173 99c61 0 96 -61 96 -129c0 -35 -3 -67 -8 -98h74l45 221h127l-46 -221h73c38 132 122 227 233 227c41 0 60 -6 85 -22c3 -28 -14 -84 -54 -105l-54 63c-40 -16 -99 -102 -99 -278c0 -55 19 -90 60 -90c23 0 49 17 68 36l17 -23
c-4 -7 -8 -11 -13 -18c-29 -52 -14 -125 -14 -169c0 -71 -78 -99 -149 -104l-7 29c39 11 46 41 46 76c0 54 18 76 67 118l-2 3c-28 -17 -59 -27 -90 -27c-83 0 -113 59 -113 134c0 35 2 66 7 98h-72l-46 -227h-126l46 227h-75c-38 -137 -122 -232 -234 -232
c-41 0 -68 11 -88 26c-5 34 16 92 53 108l52 -69c57 19 107 126 107 276c0 65 -15 90 -46 90c-29 0 -55 -20 -74 -39z" />
    <glyph glyph-name="uni0498" unicode="&#x498;" horiz-adv-x="585" 
d="M201 -199h-44c-8 64 -14 132 -10 192c-61 7 -112 24 -141 44c11 43 40 120 69 170h41l11 -138c15 -9 51 -16 79 -16c113 0 181 71 181 180c0 61 -36 91 -108 91l-79 -13c-3 24 4 59 17 84l31 -1c23 -1 57 0 80 3c65 28 111 91 111 159c0 60 -26 92 -97 91
c-31 0 -55 -8 -74 -19l-76 -127h-42c-1 47 -1 105 12 168c63 34 150 43 206 43c129 0 226 -39 226 -146c0 -68 -41 -157 -174 -192v-4c59 -5 127 -46 127 -136c0 -132 -96 -219 -253 -239c-19 -53 -53 -135 -93 -194z" />
    <glyph glyph-name="uni0499" unicode="&#x499;" horiz-adv-x="463" 
d="M-14 41c0 40 36 96 70 109l63 -100c11 -3 27 -5 38 -5c58 0 119 41 119 116c0 44 -22 69 -79 76l-65 -18c-11 17 -11 50 0 67h66c72 23 95 70 95 109c0 40 -23 60 -68 60c-11 0 -28 -2 -41 -5c-20 -21 -47 -64 -67 -91c-26 10 -56 69 -40 108c25 19 94 45 190 45
c100 0 169 -32 169 -100c0 -60 -39 -109 -134 -142c83 0 119 -50 119 -99c0 -91 -77 -164 -205 -179c-30 -40 20 -77 20 -132c0 -53 -61 -90 -118 -98l-12 25c49 24 7 76 7 121c0 35 15 58 47 81c-72 0 -144 21 -174 52z" />
    <glyph glyph-name="uni049A" unicode="&#x49a;" horiz-adv-x="729" 
d="M599 -162l-15 162h-86l-35 28c-48 80 -104 200 -138 300h-48l-55 -261c27 -7 49 -18 64 -29l-7 -38h-302l7 38c28 15 59 24 88 29l120 566c-31 4 -59 16 -76 29l8 38h303l-8 -38c-19 -11 -48 -22 -77 -29l-54 -254l59 14l211 240c-27 7 -51 17 -67 29l8 38h272l-8 -38
c-24 -15 -58 -25 -85 -29l-242 -243c43 -88 123 -218 193 -325h84c-16 -68 -48 -167 -75 -227h-39z" />
    <glyph glyph-name="uni049B" unicode="&#x49b;" horiz-adv-x="581" 
d="M403 -8h-3c-29 0 -52 11 -76 54c-36 64 -58 127 -78 183l-32 10l-46 -239h-140l84 429l-67 13v34c38 16 127 36 201 36l21 -11l-44 -218h32c47 34 106 100 122 132c3 19 2 69 -1 85c23 8 61 13 97 13c35 0 69 -5 84 -13c-34 -85 -155 -176 -203 -211
c18 -50 87 -167 130 -220h67v-40c-35 -34 -20 -80 -21 -129c-2 -71 -78 -99 -149 -104l-6 29c39 11 45 41 45 76c-1 53 27 81 62 111l-3 3c-20 -13 -49 -23 -76 -23z" />
    <glyph glyph-name="uni049C" unicode="&#x49c;" horiz-adv-x="785" 
d="M576 662l8 38h268l-8 -38c-27 -15 -60 -25 -85 -29l-235 -239c40 -88 118 -223 188 -331l42 -29l-7 -34h-167l-35 28c-48 80 -103 202 -135 301h-22l-31 -145h-65l31 145h-48l-55 -262c27 -7 49 -17 64 -29l-7 -38h-300l7 38c28 13 59 24 88 29l120 566
c-31 4 -57 16 -76 29l8 38h301l-8 -38c-19 -11 -48 -22 -77 -29l-54 -255l49 5l31 148h65l-30 -143l33 5l209 240c-27 7 -52 18 -67 29z" />
    <glyph glyph-name="uni049D" unicode="&#x49d;" horiz-adv-x="636" 
d="M297 406h59l-27 -123h21c47 34 86 100 102 132c3 19 2 69 -1 85c23 8 61 13 97 13c35 0 69 -5 84 -13c-34 -85 -138 -177 -186 -212c18 -50 70 -167 112 -219h54v-34c-27 -22 -86 -43 -133 -43c-32 0 -56 12 -80 54c-36 64 -48 139 -58 183l-23 1l-25 -118h-59l26 123
l-46 4l-46 -239h-140l84 429l-67 13v34c38 16 127 36 201 36l21 -11l-44 -218h47z" />
    <glyph glyph-name="uni049E" unicode="&#x49e;" horiz-adv-x="720" 
d="M189 511h-112l14 63h112l12 59c-31 4 -57 16 -76 29l8 38h303l-8 -38c-19 -11 -46 -22 -77 -29l-12 -59h91l-14 -63h-91l-28 -134l67 14l206 242c-27 7 -51 18 -67 29l8 38h262l-8 -38c-27 -15 -60 -25 -85 -29l-226 -235c40 -82 114 -228 184 -335l42 -29l-7 -34h-167
l-35 28c-47 78 -99 202 -133 300h-51l-56 -261c28 -5 50 -18 65 -29l-8 -38h-302l7 38c29 14 59 24 88 29z" />
    <glyph glyph-name="uni049F" unicode="&#x49f;" horiz-adv-x="539" 
d="M129 549h-77l14 61h76l12 59l-67 13v34c38 16 127 36 201 36l21 -11l-27 -131h151l-14 -61h-150l-53 -266h32c46 35 98 99 117 132c3 19 2 69 -1 85c23 8 60 13 96 13s70 -5 85 -13c-34 -87 -149 -176 -198 -211c19 -51 83 -164 129 -220h54v-34
c-27 -22 -86 -43 -133 -43c-32 0 -58 10 -82 53c-36 64 -56 128 -76 184l-33 10l-45 -239h-140z" />
    <glyph glyph-name="uni04A0" unicode="&#x4a0;" horiz-adv-x="826" 
d="M620 662l8 38h264l-8 -38c-25 -15 -59 -25 -84 -29l-229 -235c45 -86 112 -228 182 -335l42 -29l-7 -34h-167l-36 28c-48 80 -96 200 -130 300h-48l-55 -261c27 -7 49 -18 64 -29l-7 -38h-303l7 38c29 14 59 24 89 29l120 568h-104l-85 -151h-42c0 67 12 162 23 216h443
l-8 -38c-19 -11 -48 -22 -77 -29l-54 -254l59 14l209 240c-27 5 -51 18 -66 29z" />
    <glyph glyph-name="uni04A1" unicode="&#x4a1;" horiz-adv-x="624" 
d="M235 0h-140l88 443h-62l-76 -128h-34c0 50 5 135 15 185h308l-44 -217h32c47 34 106 100 122 132c3 19 2 69 -1 85c23 8 61 13 97 13c35 0 69 -5 84 -13c-34 -85 -155 -176 -203 -211c18 -50 86 -167 129 -220h54v-34c-27 -22 -86 -43 -133 -43c-32 0 -56 11 -80 54
c-36 64 -58 127 -78 183l-32 10z" />
    <glyph glyph-name="uni04A2" unicode="&#x4a2;" horiz-adv-x="782" 
d="M286 38l-7 -38h-302l7 38c26 13 59 24 88 29l120 566c-31 5 -59 17 -76 29l8 38h303l-8 -38c-20 -15 -50 -24 -77 -29l-52 -242h265l52 242c-29 7 -50 17 -65 29l8 38h303l-8 -38c-25 -15 -59 -25 -88 -29l-120 -568h109c-16 -68 -48 -167 -75 -227h-39l-15 162h-215
l7 38c23 12 50 24 78 29l54 259h-265l-54 -259c23 -5 44 -14 64 -29z" />
    <glyph glyph-name="uni04A3" unicode="&#x4a3;" horiz-adv-x="600" 
d="M389 -8c-39 0 -55 22 -55 42c0 25 12 64 18 95l19 95h-158l-47 -224h-138l85 429l-58 13v34c37 18 138 36 194 36l20 -12l-45 -219h158l42 219h138l-86 -431h77v-40c-35 -34 -20 -80 -21 -129c-2 -71 -78 -99 -149 -104l-6 29c39 11 45 41 45 76c-1 52 24 79 72 118l-3 4
c-21 -13 -66 -31 -102 -31z" />
    <glyph glyph-name="uni04A4" unicode="&#x4a4;" horiz-adv-x="952" 
d="M916 635h-159l-120 -568c31 -5 62 -17 89 -29l-7 -38h-317l7 38c26 15 52 24 78 29l55 259h-266l-54 -259c25 -6 46 -16 64 -29l-7 -38h-302l7 38c26 12 59 24 88 29l120 566c-31 5 -59 17 -76 29l8 38h303l-8 -38c-21 -13 -50 -25 -77 -29l-52 -242h265l52 242
c-24 5 -52 17 -65 29l8 38h501c-11 -64 -42 -173 -69 -240h-41z" />
    <glyph glyph-name="uni04A5" unicode="&#x4a5;" horiz-adv-x="747" 
d="M382 281l42 219h341c-13 -50 -45 -142 -69 -195h-42l-15 138h-89l-74 -374h71v-34c-27 -22 -98 -43 -153 -43c-44 0 -60 22 -60 42c0 25 12 64 18 95l19 95h-158l-47 -224h-138l85 429l-58 13v34c37 18 138 36 194 36l20 -12l-45 -219h158z" />
    <glyph glyph-name="uni04A6" unicode="&#x4a6;" horiz-adv-x="1056" 
d="M1030 241c0 -190 -124 -343 -329 -346l4 45c124 38 177 169 176 296c0 72 -26 96 -85 96c-43 0 -85 -15 -122 -35l-49 -231c24 -7 41 -16 60 -29l-7 -37h-285l7 37c16 11 39 21 75 29l120 568h-254l-120 -568c24 -7 42 -16 61 -29l-7 -37h-299l7 37c22 11 51 24 88 29
l120 566c-27 5 -53 14 -76 29l8 38h718l-8 -38c-28 -16 -59 -24 -88 -29l-59 -275c43 23 99 45 175 45c113 0 169 -54 169 -161z" />
    <glyph glyph-name="uni04A7" unicode="&#x4a7;" horiz-adv-x="790" 
d="M489 144l-30 -144h-136l61 285c9 41 18 70 18 105c0 23 -9 42 -34 42c-50 0 -115 -86 -142 -146l-60 -286h-138l86 429l-59 13l2 34c37 19 123 36 190 36l20 -12l-31 -146h5c48 88 129 158 211 158c56 0 90 -39 90 -99c0 -31 -8 -72 -17 -111l-28 -117
c40 45 88 92 163 92c67 0 115 -39 115 -100c0 -161 -105 -376 -289 -388l-16 31c89 24 165 238 165 325c0 32 -16 52 -45 52c-40 0 -78 -24 -101 -53z" />
    <glyph glyph-name="uni04A8" unicode="&#x4a8;" horiz-adv-x="912" 
d="M807 93l14 -22c-24 -47 -84 -82 -164 -82c-61 0 -107 19 -131 42c-40 -26 -111 -42 -173 -42c-152 0 -294 89 -294 287c0 298 209 437 373 436c53 0 99 -19 116 -50l-14 -23c-15 7 -43 8 -54 8c-151 0 -256 -150 -256 -379c0 -154 86 -215 178 -215c25 0 54 3 75 12
c-57 38 -113 128 -113 243c0 221 155 349 316 349c132 0 237 -75 237 -215c0 -162 -117 -327 -284 -375c12 -9 37 -14 58 -14c40 0 81 11 116 40zM514 303c0 -82 29 -167 53 -202c100 73 185 216 185 385c0 71 -32 106 -81 106c-93 0 -157 -136 -157 -289z" />
    <glyph glyph-name="uni04A9" unicode="&#x4a9;" horiz-adv-x="712" 
d="M635 72l6 -15c-16 -49 -64 -68 -104 -68c-45 0 -94 11 -114 28c-37 -16 -101 -28 -145 -28c-165 0 -251 91 -251 209c0 189 151 314 303 314c64 0 90 -23 83 -56l-7 -7c-14 4 -28 6 -42 6c-89 -3 -195 -97 -195 -255c0 -76 44 -155 151 -155c17 0 47 2 58 6
c-60 19 -112 76 -112 159c0 150 145 242 261 242c101 0 158 -56 158 -151c0 -129 -119 -232 -199 -251c17 -7 44 -8 67 -7c31 1 59 12 82 29zM378 192c0 -55 17 -95 52 -122c42 27 118 118 118 252c0 49 -19 73 -56 73c-49 0 -114 -82 -114 -203z" />
    <glyph glyph-name="uni04AA" unicode="&#x4aa;" horiz-adv-x="652" 
d="M483 70l78 140h42c0 -42 -8 -128 -21 -182c-39 -21 -94 -31 -141 -35c-19 -55 -53 -132 -92 -192h-44c-8 64 -14 134 -9 197c-172 31 -237 155 -237 271c0 264 159 443 432 443c88 0 160 -14 204 -35c-8 -42 -40 -144 -64 -192h-42l-23 151c-12 7 -44 11 -72 11
c-155 0 -265 -155 -265 -392c0 -149 96 -202 173 -202c39 0 68 9 81 17z" />
    <glyph glyph-name="uni04AB" unicode="&#x4ab;" horiz-adv-x="445" 
d="M389 134l23 -25c-32 -53 -101 -108 -187 -118c-29 -39 21 -78 21 -131s-61 -90 -118 -98l-12 25c49 24 7 76 7 121c0 36 14 59 49 82c-89 10 -145 73 -145 176c0 188 119 346 300 346c60 0 108 -15 123 -32c3 -29 -27 -95 -64 -112l-61 87c-72 0 -154 -102 -154 -264
c0 -81 36 -118 92 -118c53 0 100 38 126 61z" />
    <glyph glyph-name="uni04AC" unicode="&#x4ac;" horiz-adv-x="662" 
d="M379 -162l-15 162h-247l8 38c29 12 67 24 103 29l121 568h-116l-101 -171h-41c0 54 12 174 28 236h637c-13 -64 -48 -180 -72 -236h-42l-27 171h-116l-121 -570h33h82c-16 -68 -48 -167 -75 -227h-39z" />
    <glyph glyph-name="uni04AD" unicode="&#x4ad;" horiz-adv-x="856" 
d="M784 300l-57 -231h78v-40c-35 -34 -20 -80 -21 -129c-2 -71 -78 -99 -149 -104l-6 29c39 11 45 41 45 76c-1 52 24 79 72 118l-3 4c-20 -13 -56 -31 -93 -31c-47 0 -62 22 -62 46c0 19 6 46 14 80l43 182c7 31 17 71 17 91c0 25 -7 41 -30 41c-45 0 -98 -73 -130 -145
l-65 -287h-134l61 281c9 41 17 81 17 114c0 25 -9 37 -28 37c-36 0 -103 -75 -127 -146l-58 -286h-140l89 429l-57 13v34c44 22 130 36 192 36l21 -12l-39 -146h4c40 73 118 158 206 158c32 0 75 -18 75 -93c0 -19 -4 -45 -9 -65c46 84 123 158 207 158c51 0 86 -34 86 -90
c0 -43 -8 -79 -19 -122z" />
    <glyph glyph-name="uni04AE" unicode="&#x4ae;" horiz-adv-x="695" 
d="M546 662l8 38h249l-8 -38c-23 -13 -50 -24 -77 -29l-267 -340l-48 -226c25 -4 50 -16 70 -29l-8 -38h-308l8 38c25 12 57 24 88 29l48 225l-130 341c-29 5 -56 16 -75 29l8 38h325l-8 -38c-19 -11 -45 -22 -80 -29l87 -269l191 269c-28 7 -54 17 -73 29z" />
    <glyph glyph-name="uni04AF" unicode="&#x4af;" horiz-adv-x="481" 
d="M99 -186l44 186l-71 429l-64 8v34c31 18 96 41 151 41c36 0 48 -22 52 -51l43 -320l6 -67h2l32 69c30 65 63 162 82 238c0 28 -13 103 -18 119c19 8 49 12 77 12c27 0 53 -4 68 -12c-40 -163 -118 -360 -224 -500l-28 -132c23 -4 50 -17 67 -29v-38h-206z" />
    <glyph glyph-name="uni04B0" unicode="&#x4b0;" horiz-adv-x="695" 
d="M546 662l8 38h249l-8 -38c-23 -13 -50 -24 -77 -29l-266 -339h139l-14 -67h-140l-34 -160c25 -4 50 -16 70 -29l-8 -38h-308l8 38c25 12 57 24 88 29l34 160h-142l15 67h140l-129 339c-29 5 -56 16 -75 29l8 38h325l-8 -38c-19 -11 -45 -22 -80 -29l87 -269l191 269
c-28 7 -54 17 -73 29z" />
    <glyph glyph-name="uni04B1" unicode="&#x4b1;" horiz-adv-x="481" 
d="M143 0h-115l14 61h91l-61 368l-64 8v34c31 18 96 41 151 41c36 0 48 -22 52 -51l43 -320l6 -67h2l32 69c30 65 63 162 82 238c0 28 -13 103 -18 119c19 8 49 12 77 12c27 0 53 -4 68 -12c-38 -142 -97 -304 -181 -439h87l-14 -61h-116l-28 -132c23 -4 50 -17 67 -29v-38
h-206l-13 13z" />
    <glyph glyph-name="uni04B2" unicode="&#x4b2;" horiz-adv-x="739" 
d="M531 662l8 38h248l-8 -38c-21 -13 -46 -22 -74 -29l-235 -262l141 -306h106c-16 -68 -48 -167 -75 -227h-39l-15 162h-238l7 38c24 12 49 22 78 29l-93 219l-182 -220c27 -7 48 -13 68 -28l-8 -38h-255l8 38c23 15 46 22 73 29l263 286l-126 280c-24 7 -43 16 -62 29
l8 38h316l-8 -38c-19 -11 -43 -21 -78 -29l77 -200l165 200c-25 7 -51 17 -70 29z" />
    <glyph glyph-name="uni04B3" unicode="&#x4b3;" horiz-adv-x="511" 
d="M329 252l66 -175l73 -8v-40c-35 -34 -20 -80 -21 -129c-2 -71 -78 -99 -149 -104l-6 29c39 11 45 41 45 76c-1 52 24 79 72 118l-3 4c-21 -13 -60 -31 -92 -31c-35 0 -54 18 -63 47l-50 163c-27 -31 -62 -69 -79 -102c-3 -21 1 -77 6 -93c-23 -8 -55 -12 -84 -12
s-55 4 -70 12c24 79 148 202 210 250l-61 166l-69 8v34c37 21 109 44 155 44c35 0 52 -20 60 -49l45 -158c25 27 57 68 72 99c3 19 -6 76 -9 93c25 9 52 13 81 13c27 0 54 -5 69 -13c-24 -81 -146 -201 -198 -242z" />
    <glyph glyph-name="uni04B4" unicode="&#x4b4;" horiz-adv-x="952" 
d="M804 -162l-19 162h-668l8 38c29 11 67 24 103 29l122 573h-118l-100 -176h-41c0 54 15 174 28 236h578c-13 -64 -48 -181 -72 -236h-41l-21 176h-66l-121 -575h277l120 568c-20 7 -36 16 -47 29l8 38h283l-8 -38c-29 -16 -59 -25 -88 -29l-121 -568h118
c-13 -68 -49 -169 -75 -227h-39z" />
    <glyph glyph-name="uni04B5" unicode="&#x4b5;" horiz-adv-x="595" 
d="M512 689l-15 -70h-294l15 70h294zM395 -8c-43 0 -58 23 -58 44c0 24 4 68 20 124h-4c-35 -65 -106 -171 -219 -171c-55 0 -92 33 -92 93s40 231 64 347l-59 13v34c43 16 133 33 192 36l22 -12c-21 -100 -43 -185 -63 -285c-6 -32 -16 -72 -16 -111c0 -24 14 -36 33 -36
c67 0 134 120 153 171l52 261h135l-79 -431h77v-40c-35 -34 -20 -80 -21 -129c-2 -71 -78 -99 -149 -104l-6 29c39 11 45 41 45 76c-1 52 24 79 72 118l-3 4c-20 -13 -61 -31 -96 -31z" />
    <glyph glyph-name="uni04B6" unicode="&#x4b6;" horiz-adv-x="705" 
d="M570 -162l-15 162h-241l7 38c35 15 68 26 99 29l50 236c-43 -23 -112 -45 -192 -45c-107 0 -178 62 -146 211l35 164c-24 4 -50 16 -66 29l8 38h283l-8 -38c-16 -11 -40 -22 -67 -29l-31 -146c-21 -99 -14 -159 72 -159c44 0 86 14 125 35l57 270c-23 7 -41 16 -56 29
l8 38h278l-8 -38c-19 -12 -45 -24 -72 -29l-120 -568h114c-16 -68 -48 -167 -75 -227h-39z" />
    <glyph glyph-name="uni04B7" unicode="&#x4b7;" horiz-adv-x="552" 
d="M512 500l-79 -431h77v-40c-33 -34 -20 -79 -20 -129c0 -71 -78 -99 -149 -104l-7 29c39 11 46 41 46 76c0 52 24 79 72 118l-3 4c-20 -13 -61 -31 -97 -31c-44 0 -58 23 -58 46c0 13 2 30 6 49l30 155h-4c-40 -53 -109 -97 -184 -97c-56 0 -94 30 -94 89
c0 53 14 99 35 195l-59 13v34c43 16 133 33 192 36l22 -12c-27 -108 -50 -189 -50 -233c0 -28 14 -42 41 -42c37 0 82 29 105 62l43 213h135z" />
    <glyph glyph-name="uni04B8" unicode="&#x4b8;" horiz-adv-x="726" 
d="M382 133h-65l28 128l-68 -3c-87 -4 -149 42 -153 137c-1 21 2 46 8 74l35 164c-24 4 -47 16 -66 29l8 38h288l-8 -38c-17 -11 -45 -22 -72 -29l-32 -152c-19 -90 -13 -153 74 -153l31 147h65l-31 -143c39 7 75 18 102 31l57 270c-21 6 -40 16 -56 29l8 38h278l-8 -38
c-19 -12 -45 -22 -72 -29l-120 -566c25 -7 45 -18 60 -29l-8 -38h-308l8 38c33 15 67 25 98 29l50 236c-23 -11 -59 -23 -102 -32z" />
    <glyph glyph-name="uni04B9" unicode="&#x4b9;" horiz-adv-x="602" 
d="M290 371h59l-28 -132c31 11 54 29 73 48l43 213h135l-79 -431h70v-34c-27 -22 -91 -43 -146 -43c-48 0 -63 23 -63 46c0 13 2 30 6 49l30 155h-4c-17 -21 -43 -42 -78 -61l-22 -104h-59l17 81c-31 -8 -66 -13 -102 -13c-56 0 -94 30 -94 89c0 53 14 99 35 195l-59 13v34
c43 16 133 33 192 36l22 -12c-27 -108 -50 -189 -50 -233c0 -28 14 -42 41 -42c11 0 19 0 30 1z" />
    <glyph glyph-name="uni04BA" unicode="&#x4ba;" horiz-adv-x="683" 
d="M117 662l7 38h308l-7 -38c-35 -15 -68 -26 -99 -29l-50 -236c43 23 112 45 192 45c107 0 178 -62 146 -211l-35 -164c24 -4 50 -16 66 -29l-8 -38h-283l8 38c16 11 40 22 67 29l31 146c21 99 14 159 -72 159c-44 0 -86 -14 -125 -35l-57 -270c23 -7 41 -16 56 -29l-8 -38
h-278l8 38c19 12 45 24 72 29l120 566c-24 5 -46 18 -59 29z" />
    <glyph glyph-name="uni04BB" unicode="&#x4bb;" horiz-adv-x="581" 
d="M21 0l135 669l-66 13v32c39 16 132 38 201 38l21 -9l-84 -389h5c51 86 125 158 206 158c61 0 96 -40 96 -92c0 -36 -7 -79 -17 -118l-57 -233h74v-34c-27 -21 -81 -43 -146 -43c-44 0 -63 20 -63 45c0 24 7 48 14 81l37 167c9 41 18 74 18 105c0 24 -10 42 -30 42
c-60 0 -128 -101 -147 -146l-59 -286h-138z" />
    <glyph glyph-name="uni04BC" unicode="&#x4bc;" horiz-adv-x="847" 
d="M592 712c158 0 268 -76 268 -217c0 -80 -24 -143 -33 -164h-467c-32 -269 186 -309 373 -197l9 -33c-69 -77 -183 -112 -261 -112c-189 0 -312 114 -283 342c-79 3 -150 39 -150 135c0 57 29 108 64 133c31 -3 73 -23 98 -48l2 -29l-89 -71c7 -35 42 -54 85 -55
c56 231 206 316 384 316zM585 647c-105 0 -182 -86 -213 -251h307c12 43 17 97 17 130c0 72 -31 121 -111 121z" />
    <glyph glyph-name="uni04BD" unicode="&#x4bd;" horiz-adv-x="580" 
d="M513 134l24 -25c-29 -53 -115 -120 -214 -120c-119 0 -188 66 -188 185c0 23 2 44 5 67c-80 7 -115 44 -120 96c-1 9 -1 18 0 28c3 47 34 90 69 117c31 3 73 -33 78 -62l-1 -17l-86 -62c3 -32 33 -47 73 -48c40 125 145 219 279 219c80 0 138 -39 138 -103
c0 -91 -83 -152 -286 -167c-3 -19 -5 -39 -5 -56c0 -76 43 -118 103 -118c51 0 102 37 131 66zM409 455c-44 0 -89 -45 -118 -162c100 3 166 47 166 114c0 27 -13 48 -48 48z" />
    <glyph glyph-name="uni04BE" unicode="&#x4be;" horiz-adv-x="847" 
d="M592 712c158 0 268 -76 268 -217c0 -80 -24 -143 -33 -164h-467c-32 -269 186 -309 373 -197l9 -33c-47 -53 -116 -87 -181 -101h1c-19 -56 -55 -137 -95 -199h-44c-8 64 -14 134 -9 194h1c-149 20 -244 134 -217 336c-79 3 -150 39 -150 135c0 57 29 108 64 133
c31 -3 73 -23 98 -48l2 -29l-89 -71c7 -35 42 -54 85 -55c56 231 206 316 384 316zM585 647c-105 0 -182 -86 -213 -251h307c9 33 16 75 17 115c1 18 -1 33 -3 44c-12 59 -41 92 -108 92z" />
    <glyph glyph-name="uni04BF" unicode="&#x4bf;" horiz-adv-x="580" 
d="M513 134l24 -25c-27 -51 -104 -111 -192 -119c-29 -37 21 -78 21 -130s-62 -90 -118 -98l-12 25c47 24 8 77 7 121c0 36 14 60 49 83c-100 10 -157 75 -157 183c0 23 2 44 5 67c-80 7 -115 44 -120 96c-1 9 -1 18 0 28c3 47 34 90 69 117c31 3 73 -33 78 -62l-1 -17
l-86 -62c3 -32 33 -47 73 -48c40 125 145 219 279 219c80 0 138 -39 138 -103c0 -91 -83 -152 -286 -167c-3 -19 -5 -39 -5 -56c0 -76 43 -118 103 -118c51 0 102 37 131 66zM409 455c-44 0 -89 -45 -118 -162c100 3 166 47 166 114c0 27 -13 48 -48 48z" />
    <glyph glyph-name="uni04C0" unicode="&#x4c0;" horiz-adv-x="369" 
d="M305 38l-7 -38h-311l7 38c30 15 60 24 87 29l120 566c-27 4 -54 14 -75 29l8 38h312l-8 -38c-27 -15 -60 -25 -87 -29l-120 -566c25 -5 54 -14 74 -29z" />
    <glyph glyph-name="uni04C3" unicode="&#x4c3;" horiz-adv-x="705" 
d="M470 40c0 144 -78 235 -142 288h-51l-55 -261c27 -5 49 -17 64 -29l-7 -38h-302l7 38c28 13 59 24 88 29l120 566c-31 4 -57 16 -76 29l8 38h303l-8 -38c-19 -11 -48 -22 -77 -29l-54 -254l60 14l205 240c-27 7 -46 18 -62 29l8 38h262l-8 -38c-24 -15 -60 -25 -85 -29
l-226 -238c76 -49 184 -177 183 -331c-2 -156 -116 -271 -330 -274l3 45c107 16 172 99 172 205z" />
    <glyph glyph-name="uni04C4" unicode="&#x4c4;" horiz-adv-x="557" 
d="M250 233l-36 6l-46 -239h-140l84 429l-67 13v34c38 16 127 36 201 36l21 -11l-44 -218h32c47 34 106 100 122 132c3 19 2 69 -1 85c23 8 61 13 97 13c35 0 69 -5 84 -13c-35 -86 -158 -176 -211 -216c61 -35 158 -141 158 -248c0 -155 -124 -247 -297 -247l5 46
c83 21 141 103 141 183c0 89 -63 175 -103 215z" />
    <glyph glyph-name="uni04C5" unicode="&#x4c5;" horiz-adv-x="718" 
d="M296 623c-40 7 -75 23 -98 39l8 38h577l-8 -38c-23 -12 -55 -24 -88 -29l-120 -568h102l9 -13c-10 -49 -94 -171 -175 -214h-54l84 162h-206l7 38c27 12 55 22 83 29l120 568h-163c-96 -407 -169 -518 -242 -593c-33 -35 -80 -53 -116 -53c-30 12 -46 89 -41 138l34 38
l114 -29c51 75 111 204 173 487z" />
    <glyph glyph-name="uni04C6" unicode="&#x4c6;" horiz-adv-x="592" 
d="M376 -8h-9c-39 0 -57 21 -57 44c0 29 8 64 14 95l62 312h-99c-35 -153 -79 -314 -152 -400c-37 -43 -79 -61 -141 -54c-13 12 -19 41 -15 72c3 24 11 49 25 65l88 -28c50 64 102 224 121 329c-27 7 -59 21 -74 34v39h395l-82 -431h112l13 -18
c-40 -136 -157 -235 -280 -254l-12 25c73 32 129 104 156 182c-11 -6 -38 -12 -65 -12z" />
    <glyph glyph-name="uni04C7" unicode="&#x4c7;" horiz-adv-x="771" 
d="M286 38l-7 -38h-302l7 38c26 12 59 24 88 29l120 566c-31 5 -59 17 -76 29l8 38h303l-8 -38c-23 -13 -50 -25 -77 -29l-52 -242h265l52 242c-28 5 -49 17 -65 29l8 38h303l-8 -38c-25 -15 -59 -24 -88 -29l-134 -633c-38 -180 -129 -210 -293 -210l3 45
c78 16 115 47 140 165l68 326h-265l-54 -259c23 -5 44 -14 64 -29z" />
    <glyph glyph-name="uni04C8" unicode="&#x4c8;" horiz-adv-x="589" 
d="M328 0l43 224h-158l-47 -224h-138l85 429l-58 13v34c37 18 138 36 194 36l20 -12l-45 -219h158l42 219h138l-94 -491c-29 -148 -162 -209 -237 -220l-17 31c34 17 93 71 114 180z" />
    <glyph glyph-name="uni04C9" unicode="&#x4c9;" horiz-adv-x="788" 
d="M286 38l-7 -38h-302l7 38c26 13 59 24 88 29l120 566c-31 5 -59 17 -76 29l8 38h303l-8 -38c-20 -15 -50 -24 -77 -29l-52 -242h265l52 242c-29 7 -50 17 -65 29l8 38h303l-8 -38c-25 -15 -59 -25 -88 -29l-120 -568h107l9 -13c-10 -49 -94 -171 -175 -214h-54l84 162
h-206l7 38c23 12 50 24 78 29l54 259h-265l-54 -259c23 -5 44 -14 64 -29z" />
    <glyph glyph-name="uni04CA" unicode="&#x4ca;" horiz-adv-x="616" 
d="M400 -8h-6c-44 0 -60 22 -60 42c0 25 12 64 18 95l19 95h-158l-47 -224h-138l85 429l-58 13v34c37 18 138 36 194 36l20 -12l-45 -219h158l42 219h138l-86 -431h112l13 -18c-40 -136 -157 -235 -280 -254l-12 25c73 32 129 104 156 182c-11 -6 -38 -12 -65 -12z" />
    <glyph glyph-name="uni04CB" unicode="&#x4cb;" horiz-adv-x="683" 
d="M629 38l-7 -38h-216l-85 -162h-39c0 60 9 160 22 227h115h1l50 238c-43 -23 -112 -45 -192 -45c-107 0 -178 62 -146 211l35 164c-24 4 -50 16 -66 29l8 38h283l-8 -38c-16 -11 -40 -22 -67 -29l-31 -146c-21 -99 -14 -159 72 -159c44 0 86 14 125 35l57 270
c-23 7 -41 16 -56 29l8 38h278l-8 -38c-19 -12 -45 -24 -72 -29l-120 -566c24 -5 46 -18 59 -29z" />
    <glyph glyph-name="uni04CC" unicode="&#x4cc;" horiz-adv-x="542" 
d="M514 500l-91 -431h70v-34c-27 -22 -91 -43 -146 -43c-48 0 -63 23 -63 46c0 13 1 30 6 49l39 155h-4c-40 -53 -108 -97 -183 -97c-56 0 -94 30 -94 89c0 53 14 99 35 195l-59 13v34c43 16 133 33 192 36l22 -12c-27 -108 -50 -189 -50 -233c0 -28 14 -42 41 -42
c37 0 82 29 105 62l44 213h136zM272 8l23 -13c-35 -40 17 -79 17 -135c0 -53 -61 -90 -118 -98l-12 25c49 24 7 76 7 121c0 47 26 72 83 100z" />
    <glyph glyph-name="uni04CD" unicode="&#x4cd;" horiz-adv-x="948" 
d="M923 633l-120 -568h104l10 -13c-10 -49 -95 -171 -175 -214h-54l84 162h-207l8 38c29 13 56 22 87 29l88 418l30 117h-8l-55 -107l-299 -495h-45l-89 491l-12 117h-9l-26 -127l-86 -410c24 -5 55 -18 78 -33l-8 -38h-242l7 38c22 12 60 29 91 34l118 561
c-27 5 -56 14 -76 29l8 38h271l63 -407l8 -96h1l47 98l246 405h252l-8 -38c-24 -15 -54 -24 -82 -29z" />
    <glyph glyph-name="uni04CE" unicode="&#x4ce;" horiz-adv-x="805" 
d="M589 -8h-2c-41 0 -61 19 -61 40c0 32 11 77 18 108l40 171c5 23 18 67 26 89h-3l-246 -400h-63l-34 330l-5 72h-4c-29 -119 -62 -280 -135 -366c-32 -38 -86 -52 -128 -47c-12 14 -17 46 -13 77c3 21 10 41 22 56l81 -24c48 61 88 206 115 334c-23 8 -51 21 -62 34v34
h225l36 -261l4 -71h3l40 74l162 258h145l-85 -431h112l13 -18c-40 -136 -157 -235 -280 -254l-12 25c73 32 129 104 156 182c-11 -6 -38 -12 -65 -12z" />
    <glyph glyph-name="uni04CF" unicode="&#x4cf;" horiz-adv-x="299" 
d="M37 0l-13 13l129 656l-68 13v34c37 16 136 36 202 36l20 -11l-131 -675c23 -4 50 -16 67 -28v-38h-206z" />
    <glyph glyph-name="uni04D0" unicode="&#x4d0;" horiz-adv-x="724" 
d="M481 741c-114 0 -164 62 -164 112c21 21 80 37 117 37l34 -13v-60c13 -7 24 -12 45 -12c56 0 122 25 143 77c16 -1 37 -10 45 -21c-21 -52 -87 -120 -220 -120zM212 38l-7 -38h-248l7 38c24 13 50 24 77 29l396 645h73l113 -645c25 -5 52 -17 69 -29l-8 -38h-308l7 38
c28 13 61 24 89 29l-24 159h-221l-95 -159c28 -4 57 -14 80 -29zM410 568l-38 -88l-111 -189h179l-28 191v86h-2z" />
    <glyph glyph-name="uni04D1" unicode="&#x4d1;" horiz-adv-x="563" 
d="M355 556c-116 0 -153 64 -153 127c19 16 60 34 97 37l34 -13v-78c13 -7 24 -12 45 -12c49 0 101 32 124 89c15 -1 37 -9 44 -20c-16 -56 -76 -130 -191 -130zM215 68c53 0 109 102 139 172l37 198c-16 11 -27 15 -50 15c-108 0 -171 -156 -171 -297c0 -61 14 -88 45 -88z
M343 159h-4c-34 -85 -105 -170 -197 -170c-69 0 -114 50 -114 150c0 208 119 371 303 371c35 0 56 -9 84 -21c35 13 72 20 128 20l-84 -440h70v-34c-27 -21 -93 -43 -141 -43c-47 0 -65 24 -65 45c0 24 7 62 20 122z" />
    <glyph glyph-name="uni04D2" unicode="&#x4d2;" horiz-adv-x="724" 
d="M273 793c0 43 34 64 81 64s81 -21 81 -64c0 -37 -34 -59 -81 -59s-81 22 -81 59zM518 793c0 43 35 64 82 64s81 -21 81 -64c0 -37 -34 -59 -81 -59s-82 22 -82 59zM212 38l-7 -38h-248l7 38c24 13 50 24 77 29l396 645h73l113 -645c25 -5 52 -17 69 -29l-8 -38h-308l7 38
c28 13 61 24 89 29l-24 159h-221l-95 -159c28 -4 57 -14 80 -29zM410 568l-38 -88l-111 -189h179l-28 191v86h-2z" />
    <glyph glyph-name="uni04D3" unicode="&#x4d3;" horiz-adv-x="563" 
d="M181 659c0 43 29 70 73 70c43 0 73 -27 73 -70c0 -40 -30 -68 -73 -68c-44 0 -73 28 -73 68zM400 659c0 43 29 70 72 70c44 0 74 -27 74 -70c0 -40 -30 -68 -74 -68c-43 0 -72 28 -72 68zM215 68c53 0 109 102 139 172l37 198c-16 11 -27 15 -50 15
c-108 0 -171 -156 -171 -297c0 -61 14 -88 45 -88zM343 159h-4c-34 -85 -105 -170 -197 -170c-69 0 -114 50 -114 150c0 208 119 371 303 371c35 0 56 -9 84 -21c35 13 72 20 128 20l-84 -440h70v-34c-27 -21 -93 -43 -141 -43c-47 0 -65 24 -65 45c0 24 7 62 20 122z" />
    <glyph glyph-name="uni04D4" unicode="&#x4d4;" horiz-adv-x="953" 
d="M455 662l8 38h538c-13 -60 -35 -127 -58 -183h-42l-21 118h-187l-52 -245h123l60 77h31c-5 -65 -25 -154 -46 -221h-32l-27 79h-123l-55 -260h195l80 127h42c0 -51 -7 -132 -21 -192h-536l7 38c24 11 53 22 84 29l38 177h-182l-138 -177c25 -6 49 -16 70 -29l-7 -38h-247
l7 38c24 13 51 24 76 29l468 571c-19 7 -38 13 -53 24zM538 594l-54 -90l-155 -195h147l64 285h-2z" />
    <glyph glyph-name="uni04D5" unicode="&#x4d5;" horiz-adv-x="781" 
d="M226 68c48 0 87 46 103 89c-1 25 0 55 3 78c-108 13 -167 -29 -167 -100c0 -45 26 -67 61 -67zM340 98h-1c-32 -63 -98 -109 -177 -109c-89 0 -143 52 -143 127c0 120 113 179 324 164c35 113 29 175 -38 175c-18 0 -36 -3 -54 -10l-57 -105h-44c-17 29 -35 73 -35 116
c59 35 142 56 221 56c76 0 121 -23 132 -51c39 31 92 51 157 51c80 0 138 -39 138 -103c0 -91 -83 -152 -286 -167c-3 -19 -5 -39 -5 -56c0 -76 43 -118 103 -118c51 0 102 37 131 66l24 -25c-29 -53 -115 -120 -214 -120c-91 0 -149 36 -176 109zM602 455
c-44 0 -89 -45 -118 -162c100 3 166 47 166 114c0 27 -13 48 -48 48z" />
    <glyph glyph-name="uni04D6" unicode="&#x4d6;" horiz-adv-x="602" 
d="M418 741c-114 0 -164 62 -164 112c21 21 80 37 117 37l34 -13v-60c13 -7 24 -12 45 -12c56 0 122 25 143 77c16 -1 37 -10 45 -21c-21 -52 -87 -120 -220 -120zM116 662l8 38h526c-13 -60 -34 -127 -58 -183h-42l-21 118h-187l-52 -245h123l60 77h31
c-7 -65 -25 -152 -46 -221h-32l-27 79h-123l-54 -260h194l80 127h42c0 -48 -8 -133 -21 -192h-540l7 38c26 12 56 24 88 29l120 566c-27 5 -55 16 -76 29z" />
    <glyph glyph-name="uni04D7" unicode="&#x4d7;" horiz-adv-x="472" 
d="M316 556c-116 0 -153 64 -153 127c19 16 60 34 97 37l34 -13v-78c13 -7 24 -12 45 -12c49 0 101 32 124 89c15 -1 37 -9 44 -20c-16 -56 -76 -130 -191 -130zM405 134l24 -25c-29 -53 -115 -120 -214 -120c-119 0 -188 66 -188 185c0 183 124 338 297 338
c80 0 138 -39 138 -103c0 -91 -85 -152 -286 -167c-4 -19 -6 -39 -6 -56c0 -76 43 -118 103 -118c51 0 103 37 132 66zM301 455c-45 0 -90 -45 -118 -162c99 3 165 47 165 114c0 27 -12 48 -47 48z" />
    <glyph glyph-name="uni04D8" unicode="&#x4d8;" horiz-adv-x="720" 
d="M324 -11c-155 0 -265 74 -265 249c0 39 9 98 22 140h480c28 189 -19 269 -154 269c-28 0 -78 -5 -96 -15l-89 -154h-41c-3 60 8 149 18 188c59 27 156 46 235 46c227 0 291 -120 291 -255c0 -233 -105 -468 -401 -468zM346 53c120 0 180 124 204 260h-309
c-8 -27 -16 -80 -16 -109c0 -113 41 -151 121 -151z" />
    <glyph glyph-name="afii10846" unicode="&#x4d9;" horiz-adv-x="506" 
d="M102 352l-27 23c25 57 104 137 221 137c109 0 181 -63 181 -186c0 -183 -113 -337 -292 -337c-89 0 -161 38 -161 130c0 85 83 188 307 169c3 7 2 19 2 26c0 75 -30 118 -93 118c-62 0 -109 -45 -138 -80zM208 45c44 0 92 60 116 192c-116 19 -169 -50 -169 -132
c0 -40 18 -60 53 -60z" />
    <glyph glyph-name="uni04DA" unicode="&#x4da;" horiz-adv-x="720" 
d="M242 793c0 43 34 64 81 64s81 -21 81 -64c0 -37 -34 -59 -81 -59s-81 22 -81 59zM487 793c0 43 35 64 82 64s81 -21 81 -64c0 -37 -34 -59 -81 -59s-82 22 -82 59zM324 -11c-155 0 -265 74 -265 249c0 39 9 98 22 140h480c28 189 -19 269 -154 269c-28 0 -78 -5 -96 -15
l-89 -154h-41c-3 60 8 149 18 188c59 27 156 46 235 46c227 0 291 -120 291 -255c0 -233 -105 -468 -401 -468zM346 53c120 0 180 124 204 260h-309c-8 -27 -16 -80 -16 -109c0 -113 41 -151 121 -151z" />
    <glyph glyph-name="uni04DB" unicode="&#x4db;" horiz-adv-x="506" 
d="M124 659c0 43 29 70 73 70c43 0 73 -27 73 -70c0 -40 -30 -68 -73 -68c-44 0 -73 28 -73 68zM343 659c0 43 29 70 72 70c44 0 74 -27 74 -70c0 -40 -30 -68 -74 -68c-43 0 -72 28 -72 68zM102 352l-27 23c25 57 104 137 221 137c109 0 181 -63 181 -186
c0 -183 -113 -337 -292 -337c-89 0 -161 38 -161 130c0 85 83 188 307 169c3 7 2 19 2 26c0 75 -30 118 -93 118c-62 0 -109 -45 -138 -80zM208 45c44 0 92 60 116 192c-116 19 -169 -50 -169 -132c0 -40 18 -60 53 -60z" />
    <glyph glyph-name="uni04DC" unicode="&#x4dc;" horiz-adv-x="1021" 
d="M421 793c0 43 34 64 81 64s81 -21 81 -64c0 -37 -34 -59 -81 -59s-81 22 -81 59zM666 793c0 43 35 64 82 64s81 -21 81 -64c0 -37 -34 -59 -81 -59s-82 22 -82 59zM408 386h70l53 247c-25 8 -45 18 -58 29l8 38h259l-8 -38c-15 -11 -37 -20 -64 -29l-55 -256l66 16
l194 240c-24 7 -45 17 -64 29l8 38h269l-8 -38c-21 -12 -50 -22 -78 -29l-238 -252c48 -88 109 -217 184 -323l37 -24l-7 -34h-162l-36 34c-59 92 -86 191 -119 295h-57l-54 -262c21 -7 40 -16 57 -29l-8 -38h-269l7 38c23 12 47 22 76 29l57 271l-66 -16
c-64 -97 -127 -200 -211 -288l-50 -34h-177l7 34l45 24c120 106 223 238 300 324l-119 251c-25 7 -46 18 -61 29l8 38h257l-8 -38c-19 -12 -49 -22 -77 -29z" />
    <glyph glyph-name="uni04DD" unicode="&#x4dd;" horiz-adv-x="886" 
d="M337 659c0 43 29 70 73 70c43 0 73 -27 73 -70c0 -40 -30 -68 -73 -68c-44 0 -73 28 -73 68zM556 659c0 43 29 70 72 70c44 0 74 -27 74 -70c0 -40 -30 -68 -74 -68c-43 0 -72 28 -72 68zM76 387l-19 20c36 52 93 99 173 99c61 0 96 -61 96 -129c0 -35 -3 -67 -8 -98h74
l45 221h127l-46 -221h73c38 132 122 227 233 227c41 0 60 -6 85 -22c3 -28 -14 -84 -54 -105l-54 63c-40 -16 -99 -102 -99 -278c0 -55 19 -90 60 -90c23 0 49 17 68 36l17 -23c-29 -43 -97 -92 -162 -92c-83 0 -113 59 -113 134c0 35 2 66 7 98h-72l-46 -227h-126l46 227
h-75c-38 -137 -122 -232 -234 -232c-41 0 -68 11 -88 26c-5 34 16 92 53 108l52 -69c57 19 107 126 107 276c0 65 -15 90 -46 90c-29 0 -55 -20 -74 -39z" />
    <glyph glyph-name="uni04DE" unicode="&#x4de;" horiz-adv-x="585" 
d="M182 793c0 43 34 64 81 64s81 -21 81 -64c0 -37 -34 -59 -81 -59s-81 22 -81 59zM427 793c0 43 35 64 82 64s81 -21 81 -64c0 -37 -34 -59 -81 -59s-82 22 -82 59zM211 -11c-89 0 -166 21 -205 48c11 43 40 120 69 170h41l11 -138c15 -9 51 -16 79 -16
c113 0 181 71 181 180c0 61 -36 91 -108 91l-79 -13c-3 24 4 59 17 84l31 -1c23 -1 57 0 80 3c65 28 111 91 111 159c0 60 -26 92 -97 91c-31 0 -55 -8 -74 -19l-76 -127h-42c-1 47 -1 105 12 168c63 34 150 43 206 43c129 0 226 -39 226 -146c0 -68 -41 -157 -174 -192v-4
c59 -5 127 -46 127 -136c0 -152 -131 -245 -336 -245z" />
    <glyph glyph-name="uni04DF" unicode="&#x4df;" horiz-adv-x="463" 
d="M95 659c0 43 29 70 73 70c43 0 73 -27 73 -70c0 -40 -30 -68 -73 -68c-44 0 -73 28 -73 68zM314 659c0 43 29 70 72 70c44 0 74 -27 74 -70c0 -40 -30 -68 -74 -68c-43 0 -72 28 -72 68zM-14 41c0 40 36 96 70 109l63 -100c11 -3 27 -5 38 -5c58 0 119 41 119 116
c0 44 -22 69 -79 76l-65 -18c-11 17 -11 50 0 67h66c72 23 95 70 95 109c0 40 -23 60 -68 60c-11 0 -28 -2 -41 -5c-20 -21 -47 -64 -67 -91c-26 10 -56 69 -40 108c25 19 94 45 190 45c100 0 169 -32 169 -100c0 -60 -39 -109 -134 -142c83 0 119 -50 119 -99
c0 -101 -99 -182 -256 -182c-74 0 -149 21 -179 52z" />
    <glyph glyph-name="uni04E0" unicode="&#x4e0;" horiz-adv-x="595" 
d="M619 651l-200 -208l-58 -47c138 0 200 -71 200 -153c0 -172 -145 -254 -341 -254c-75 0 -164 16 -206 38c8 42 48 132 75 180h41l11 -142c13 -8 45 -12 80 -12c145 0 180 105 180 182c0 69 -42 97 -122 97l-69 -14c-3 24 0 52 15 80l58 1l159 174l45 35v4l-71 -8h-170
l-64 -110h-34c-3 59 4 159 14 206h467z" />
    <glyph glyph-name="uni04E1" unicode="&#x4e1;" horiz-adv-x="465" 
d="M459 451l-172 -214l-47 -47c115 -3 165 -57 165 -148c0 -146 -136 -253 -305 -253c-81 0 -145 25 -176 60l47 94h29c18 -19 39 -57 51 -81c12 -5 22 -8 45 -8c83 0 160 86 160 185c0 60 -32 94 -89 97l-71 -13c-3 17 2 51 14 70h57l129 170l35 38l1 4l-55 -6h-136
l-51 -101h-34c-5 56 -8 154 3 202h400v-49z" />
    <glyph glyph-name="uni04E2" unicode="&#x4e2;" horiz-adv-x="776" 
d="M683 849l-15 -70h-324l15 70h324zM285 38l-8 -38h-300l7 38c28 13 59 25 88 29l120 566c-27 5 -55 14 -76 29l8 38h301l-8 -38c-23 -12 -49 -22 -80 -29l-81 -380l-27 -78l63 83l330 351l5 24c-29 7 -54 16 -73 29l8 38h301l-8 -38c-25 -15 -57 -24 -88 -29l-120 -566
c29 -5 55 -16 76 -29l-8 -38h-301l7 38c20 9 50 22 81 29l81 379l28 79l-59 -80l-336 -356l-4 -22c29 -7 54 -18 73 -29z" />
    <glyph glyph-name="uni04E3" unicode="&#x4e3;" horiz-adv-x="585" 
d="M500 689l-15 -70h-294l15 70h294zM555 500l-79 -431h70v-34c-27 -22 -91 -43 -146 -43c-48 0 -63 23 -63 44c0 24 4 68 20 124h-4c-35 -65 -106 -171 -219 -171c-55 0 -92 33 -92 93s40 231 64 347l-59 13v34c43 16 133 33 192 36l22 -12c-21 -100 -43 -185 -63 -285
c-6 -32 -16 -72 -16 -111c0 -24 14 -36 33 -36c67 0 134 120 153 171l52 261h135z" />
    <glyph glyph-name="uni04E4" unicode="&#x4e4;" horiz-adv-x="776" 
d="M301 793c0 43 34 64 81 64s81 -21 81 -64c0 -37 -34 -59 -81 -59s-81 22 -81 59zM546 793c0 43 35 64 82 64s81 -21 81 -64c0 -37 -34 -59 -81 -59s-82 22 -82 59zM285 38l-8 -38h-300l7 38c28 13 59 25 88 29l120 566c-27 5 -55 14 -76 29l8 38h301l-8 -38
c-23 -12 -49 -22 -80 -29l-81 -380l-27 -78l63 83l330 351l5 24c-29 7 -54 16 -73 29l8 38h301l-8 -38c-25 -15 -57 -24 -88 -29l-120 -566c29 -5 55 -16 76 -29l-8 -38h-301l7 38c20 9 50 22 81 29l81 379l28 79l-59 -80l-336 -356l-4 -22c29 -7 54 -18 73 -29z" />
    <glyph glyph-name="uni04E5" unicode="&#x4e5;" horiz-adv-x="585" 
d="M167 659c0 43 29 70 73 70c43 0 73 -27 73 -70c0 -40 -30 -68 -73 -68c-44 0 -73 28 -73 68zM386 659c0 43 29 70 72 70c44 0 74 -27 74 -70c0 -40 -30 -68 -74 -68c-43 0 -72 28 -72 68zM555 500l-79 -431h70v-34c-27 -22 -91 -43 -146 -43c-48 0 -63 23 -63 44
c0 24 4 68 20 124h-4c-35 -65 -106 -171 -219 -171c-55 0 -92 33 -92 93s40 231 64 347l-59 13v34c43 16 133 33 192 36l22 -12c-21 -100 -43 -185 -63 -285c-6 -32 -16 -72 -16 -111c0 -24 14 -36 33 -36c67 0 134 120 153 171l52 261h135z" />
    <glyph glyph-name="uni04E6" unicode="&#x4e6;" horiz-adv-x="751" 
d="M276 793c0 43 34 64 81 64s81 -21 81 -64c0 -37 -34 -59 -81 -59s-81 22 -81 59zM521 793c0 43 35 64 82 64s81 -21 81 -64c0 -37 -34 -59 -81 -59s-82 22 -82 59zM59 271c0 245 156 441 417 441c179 0 280 -108 280 -281c0 -219 -133 -442 -408 -442
c-185 0 -289 121 -289 282zM229 252c0 -133 54 -199 139 -199c152 0 218 217 218 401c0 119 -38 193 -131 193c-155 0 -226 -227 -226 -395z" />
    <glyph glyph-name="uni04E7" unicode="&#x4e7;" horiz-adv-x="549" 
d="M156 659c0 43 29 70 73 70c43 0 73 -27 73 -70c0 -40 -30 -68 -73 -68c-44 0 -73 28 -73 68zM375 659c0 43 29 70 72 70c44 0 74 -27 74 -70c0 -40 -30 -68 -74 -68c-43 0 -72 28 -72 68zM29 192c0 143 95 320 299 320c120 0 192 -66 192 -195
c0 -176 -109 -328 -295 -328c-113 0 -196 65 -196 203zM311 455c-106 0 -140 -181 -140 -302c0 -68 28 -108 73 -108c77 0 134 142 134 297c0 73 -24 113 -67 113z" />
    <glyph glyph-name="uni04E8" unicode="&#x4e8;" horiz-adv-x="751" 
d="M59 271c0 245 156 441 417 441c176 0 280 -108 280 -281c0 -219 -133 -442 -408 -442c-185 0 -289 121 -289 282zM229 252c0 -133 54 -199 139 -199c118 0 181 124 205 264h-341c-2 -22 -3 -44 -3 -65zM455 647c-116 0 -185 -123 -211 -253h339c1 13 2 26 2 41
c1 20 -1 38 -3 57c-12 97 -46 155 -127 155z" />
    <glyph glyph-name="uni04E9" unicode="&#x4e9;" horiz-adv-x="549" 
d="M29 192c0 143 95 320 299 320c120 0 192 -66 192 -195c0 -176 -109 -328 -295 -328c-113 0 -196 65 -196 203zM311 455c-74 0 -112 -85 -128 -177h192c2 21 3 42 3 64c0 73 -24 113 -67 113zM244 45c57 0 100 73 121 172h-191c-2 -22 -3 -43 -3 -64
c0 -68 28 -108 73 -108z" />
    <glyph glyph-name="uni04EA" unicode="&#x4ea;" horiz-adv-x="751" 
d="M280 793c0 43 34 64 81 64s81 -21 81 -64c0 -37 -34 -59 -81 -59s-81 22 -81 59zM525 793c0 43 35 64 82 64s81 -21 81 -64c0 -37 -34 -59 -81 -59s-82 22 -82 59zM59 271c0 245 156 441 417 441c176 0 280 -108 280 -281c0 -219 -133 -442 -408 -442
c-185 0 -289 121 -289 282zM229 252c0 -133 54 -199 139 -199c118 0 181 124 205 264h-341c-2 -22 -3 -44 -3 -65zM455 647c-116 0 -185 -123 -211 -253h339c1 13 2 26 2 41c1 20 -1 38 -3 57c-12 97 -46 155 -127 155z" />
    <glyph glyph-name="uni04EB" unicode="&#x4eb;" horiz-adv-x="549" 
d="M157 659c0 43 29 70 73 70c43 0 73 -27 73 -70c0 -40 -30 -68 -73 -68c-44 0 -73 28 -73 68zM376 659c0 43 29 70 72 70c44 0 74 -27 74 -70c0 -40 -30 -68 -74 -68c-43 0 -72 28 -72 68zM29 192c0 143 95 320 299 320c120 0 192 -66 192 -195
c0 -176 -109 -328 -295 -328c-113 0 -196 65 -196 203zM311 455c-74 0 -112 -85 -128 -177h192c2 21 3 42 3 64c0 73 -24 113 -67 113zM244 45c57 0 100 73 121 172h-191c-2 -22 -3 -43 -3 -64c0 -68 28 -108 73 -108z" />
    <glyph glyph-name="uni04EC" unicode="&#x4ec;" horiz-adv-x="648" 
d="M172 793c0 43 34 64 81 64s81 -21 81 -64c0 -37 -34 -59 -81 -59s-81 22 -81 59zM417 793c0 43 35 64 82 64s81 -21 81 -64c0 -37 -34 -59 -81 -59s-82 22 -82 59zM478 334l-264 -30c-1 27 2 70 21 102l254 -4c17 155 -44 245 -161 245c-31 0 -68 -8 -87 -19l-80 -130
h-41c0 30 6 118 22 171c56 32 150 43 207 43c213 0 304 -112 304 -284c0 -253 -158 -439 -443 -439c-92 0 -157 20 -194 49c8 52 37 128 61 181h42l21 -150c15 -11 44 -16 75 -16c120 0 234 94 263 281z" />
    <glyph glyph-name="uni04ED" unicode="&#x4ed;" horiz-adv-x="484" 
d="M101 659c0 43 29 70 73 70c43 0 73 -27 73 -70c0 -40 -30 -68 -73 -68c-44 0 -73 28 -73 68zM320 659c0 43 29 70 72 70c44 0 74 -27 74 -70c0 -40 -30 -68 -74 -68c-43 0 -72 28 -72 68zM154 45c67 0 135 71 156 190l-163 -23c-11 16 -11 61 0 77h168c0 7 1 13 1 20
c0 92 -37 146 -89 146c-11 0 -23 -2 -38 -5c-21 -21 -51 -67 -72 -93c-26 10 -53 74 -40 114c32 21 98 41 189 41c112 0 194 -68 194 -184c0 -196 -124 -339 -295 -339c-74 0 -149 21 -179 52c0 40 36 96 70 109l63 -100c11 -3 24 -5 35 -5z" />
    <glyph glyph-name="uni04EE" unicode="&#x4ee;" horiz-adv-x="679" 
d="M650 849l-15 -70h-324l15 70h324zM426 298l34 66l148 269c-31 7 -52 17 -71 29l8 38h242l-8 -38c-17 -11 -44 -22 -77 -29l-282 -447c-88 -140 -176 -207 -257 -190c-30 23 -39 101 -33 134l35 30l130 -37c15 12 28 30 41 51l-178 459c-24 7 -47 16 -63 29l8 38h311
l-8 -38c-21 -12 -51 -22 -82 -29l93 -271l7 -64h2z" />
    <glyph glyph-name="uni04EF" unicode="&#x4ef;" horiz-adv-x="487" 
d="M463 689l-15 -70h-294l15 70h294zM210 0l-138 429l-64 8v34c13 10 87 41 144 41c36 0 54 -18 62 -49l77 -303l5 -60h2l21 59c23 65 54 143 69 207c0 28 -20 116 -25 132c19 8 49 12 77 12s53 -4 68 -12c-35 -159 -110 -334 -203 -498c-77 -136 -148 -208 -248 -208
c-28 0 -51 8 -69 20c-8 36 28 110 65 123l75 -53c20 15 58 49 82 118z" />
    <glyph glyph-name="uni04F0" unicode="&#x4f0;" horiz-adv-x="679" 
d="M273 793c0 43 34 64 81 64s81 -21 81 -64c0 -37 -34 -59 -81 -59s-81 22 -81 59zM518 793c0 43 35 64 82 64s81 -21 81 -64c0 -37 -34 -59 -81 -59s-82 22 -82 59zM426 298l34 66l148 269c-31 7 -52 17 -71 29l8 38h242l-8 -38c-17 -11 -44 -22 -77 -29l-282 -447
c-88 -140 -176 -207 -257 -190c-30 23 -39 101 -33 134l35 30l130 -37c15 12 28 30 41 51l-178 459c-24 7 -47 16 -63 29l8 38h311l-8 -38c-21 -12 -51 -22 -82 -29l93 -271l7 -64h2z" />
    <glyph glyph-name="uni04F1" unicode="&#x4f1;" horiz-adv-x="487" 
d="M122 659c0 43 29 70 73 70c43 0 73 -27 73 -70c0 -40 -30 -68 -73 -68c-44 0 -73 28 -73 68zM341 659c0 43 29 70 72 70c44 0 74 -27 74 -70c0 -40 -30 -68 -74 -68c-43 0 -72 28 -72 68zM210 0l-138 429l-64 8v34c13 10 87 41 144 41c36 0 54 -18 62 -49l77 -303l5 -60
h2l21 59c23 65 54 143 69 207c0 28 -20 116 -25 132c19 8 49 12 77 12s53 -4 68 -12c-35 -159 -110 -334 -203 -498c-77 -136 -148 -208 -248 -208c-28 0 -51 8 -69 20c-8 36 28 110 65 123l75 -53c20 15 58 49 82 118z" />
    <glyph glyph-name="uni04F2" unicode="&#x4f2;" horiz-adv-x="679" 
d="M360 749l-37 23l70 116c16 3 94 -15 102 -28v-14zM513 747l-39 23l115 118c18 3 94 -15 107 -31l-1 -10zM426 298l34 66l148 269c-31 7 -52 17 -71 29l8 38h242l-8 -38c-17 -11 -44 -22 -77 -29l-282 -447c-88 -140 -176 -207 -257 -190c-30 23 -39 101 -33 134l35 30
l130 -37c15 12 28 30 41 51l-178 459c-24 7 -47 16 -63 29l8 38h311l-8 -38c-21 -12 -51 -22 -82 -29l93 -271l7 -64h2z" />
    <glyph glyph-name="uni04F3" unicode="&#x4f3;" horiz-adv-x="487" 
d="M227 585l-41 20l68 163c16 5 103 -6 111 -21v-24zM354 585l-37 22l133 161c19 5 96 -7 112 -28v-22zM210 0l-138 429l-64 8v34c13 10 87 41 144 41c36 0 54 -18 62 -49l77 -303l5 -60h2l21 59c23 65 54 143 69 207c0 28 -20 116 -25 132c19 8 49 12 77 12s53 -4 68 -12
c-35 -159 -110 -334 -203 -498c-77 -136 -148 -208 -248 -208c-28 0 -51 8 -69 20c-8 36 28 110 65 123l75 -53c20 15 58 49 82 118z" />
    <glyph glyph-name="uni04F4" unicode="&#x4f4;" horiz-adv-x="683" 
d="M249 793c0 43 34 64 81 64s81 -21 81 -64c0 -37 -34 -59 -81 -59s-81 22 -81 59zM494 793c0 43 35 64 82 64s81 -21 81 -64c0 -37 -34 -59 -81 -59s-82 22 -82 59zM629 38l-7 -38h-308l7 38c35 15 68 26 99 29l50 236c-43 -23 -112 -45 -192 -45c-107 0 -178 62 -146 211
l35 164c-24 4 -50 16 -66 29l8 38h283l-8 -38c-16 -11 -40 -22 -67 -29l-31 -146c-21 -99 -14 -159 72 -159c44 0 86 14 125 35l57 270c-23 7 -41 16 -56 29l8 38h278l-8 -38c-19 -12 -45 -24 -72 -29l-120 -566c24 -5 46 -18 59 -29z" />
    <glyph glyph-name="uni04F5" unicode="&#x4f5;" horiz-adv-x="542" 
d="M141 659c0 43 29 70 73 70c43 0 73 -27 73 -70c0 -40 -30 -68 -73 -68c-44 0 -73 28 -73 68zM360 659c0 43 29 70 72 70c44 0 74 -27 74 -70c0 -40 -30 -68 -74 -68c-43 0 -72 28 -72 68zM514 500l-91 -431h70v-34c-27 -22 -91 -43 -146 -43c-48 0 -63 23 -63 46
c0 13 1 30 6 49l39 155h-4c-40 -53 -108 -97 -183 -97c-56 0 -94 30 -94 89c0 53 14 99 35 195l-59 13v34c43 16 133 33 192 36l22 -12c-27 -108 -50 -189 -50 -233c0 -28 14 -42 41 -42c37 0 82 29 105 62l44 213h136z" />
    <glyph glyph-name="uni04F6" unicode="&#x4f6;" horiz-adv-x="537" 
d="M501 635h-159l-121 -570h110c-16 -68 -48 -167 -75 -227h-39l-15 162h-225l7 38c30 15 59 24 88 29l120 566c-27 5 -53 14 -76 29l8 38h512c-11 -63 -40 -174 -69 -240h-41z" />
    <glyph glyph-name="uni04F7" unicode="&#x4f7;" horiz-adv-x="422" 
d="M150 -11c-73 0 -133 44 -133 114c0 155 235 184 235 281c0 27 -11 48 -43 48c-46 0 -93 -38 -120 -62l-25 27c35 48 115 115 207 115c85 0 127 -49 127 -106c0 -157 -235 -191 -235 -290c0 -29 19 -48 58 -48c52 0 101 35 133 62l26 -39c-67 -67 -41 -130 -41 -191
c0 -71 -78 -99 -149 -104l-6 29c39 11 45 41 45 76c-1 53 15 82 62 122l-3 4c-20 -13 -78 -38 -138 -38z" />
    <glyph glyph-name="uni04F8" unicode="&#x4f8;" horiz-adv-x="927" 
d="M376 793c0 43 34 64 81 64s81 -21 81 -64c0 -37 -34 -59 -81 -59s-81 22 -81 59zM621 793c0 43 35 64 82 64s81 -21 81 -64c0 -37 -34 -59 -81 -59s-82 22 -82 59zM874 38l-8 -38h-303l8 38c23 12 51 22 79 29l120 566c-24 5 -51 14 -72 29l8 38h308l-8 -38
c-24 -14 -53 -24 -86 -29l-120 -566c32 -5 55 -18 74 -29zM130 0h-153l7 38c26 13 59 25 88 29l120 566c-27 5 -55 14 -76 29l8 38h320l-8 -38c-24 -13 -59 -25 -94 -29l-46 -214c25 5 68 7 95 7c159 0 210 -79 210 -160c0 -179 -130 -268 -331 -268c-12 0 -100 2 -140 2z
M341 361c-24 0 -43 -2 -58 -6l-61 -289c11 -3 38 -4 53 -4c104 0 161 94 161 208c0 51 -18 91 -95 91z" />
    <glyph glyph-name="uni04F9" unicode="&#x4f9;" horiz-adv-x="740" 
d="M260 659c0 43 29 70 73 70c43 0 73 -27 73 -70c0 -40 -30 -68 -73 -68c-44 0 -73 28 -73 68zM479 659c0 43 29 70 72 70c44 0 74 -27 74 -70c0 -40 -30 -68 -74 -68c-43 0 -72 28 -72 68zM202 210c-12 -36 -19 -69 -19 -108c0 -37 10 -57 41 -57c50 0 95 79 95 158
c0 35 -21 53 -44 53c-31 0 -54 -23 -73 -46zM211 261h4c35 39 80 75 148 75c47 0 96 -31 96 -99c0 -120 -118 -248 -279 -248c-76 0 -137 34 -137 122c0 84 46 208 86 318l-55 13v34c41 19 137 33 202 36l22 -12c-32 -85 -58 -143 -87 -239zM488 118l83 382h139l-91 -431h70
v-34c-35 -24 -97 -43 -145 -43c-51 0 -67 22 -67 45c0 27 4 50 11 81z" />
    <glyph glyph-name="uni04FC" unicode="&#x4fc;" horiz-adv-x="723" 
d="M713 633l-230 -256c112 -228 131 -278 131 -361c0 -148 -136 -229 -283 -226l3 45c77 21 130 80 130 160c0 59 -10 103 -109 298l-190 -227c27 -4 53 -15 73 -28l-8 -38h-252l7 38c26 15 53 22 78 29l263 282l-130 284c-25 7 -45 17 -62 29l8 38h317l-8 -38
c-19 -9 -43 -20 -78 -29l81 -199l162 199c-24 5 -56 18 -75 29l8 38h251l-8 -38c-21 -11 -51 -22 -79 -29z" />
    <glyph glyph-name="uni04FD" unicode="&#x4fd;" horiz-adv-x="506" 
d="M201 202c-27 -31 -62 -69 -79 -102c-3 -21 1 -77 6 -93c-23 -8 -55 -12 -84 -12s-55 4 -70 12c24 79 148 202 210 250l-61 166l-69 8v34c37 21 109 44 155 44c35 0 52 -20 60 -49l45 -158c25 27 57 68 72 99c3 19 -6 76 -9 93c25 9 52 13 81 13c27 0 54 -5 69 -13
c-24 -80 -146 -201 -197 -247c24 -64 81 -191 81 -266c0 -127 -120 -177 -229 -188l-11 35c68 19 98 70 98 129c0 76 -44 184 -68 245z" />
    <glyph glyph-name="uni2000" unicode="&#x2000;" horiz-adv-x="449" 
 />
    <glyph glyph-name="uni2001" unicode="&#x2001;" horiz-adv-x="898" 
 />
    <glyph glyph-name="uni2002" unicode="&#x2002;" horiz-adv-x="449" 
 />
    <glyph glyph-name="uni2003" unicode="&#x2003;" horiz-adv-x="898" 
 />
    <glyph glyph-name="uni2004" unicode="&#x2004;" horiz-adv-x="299" 
 />
    <glyph glyph-name="uni2005" unicode="&#x2005;" horiz-adv-x="224" 
 />
    <glyph glyph-name="uni2006" unicode="&#x2006;" horiz-adv-x="149" 
 />
    <glyph glyph-name="uni2007" unicode="&#x2007;" horiz-adv-x="149" 
 />
    <glyph glyph-name="uni2008" unicode="&#x2008;" horiz-adv-x="112" 
 />
    <glyph glyph-name="uni2009" unicode="&#x2009;" horiz-adv-x="179" 
 />
    <glyph glyph-name="uni200A" unicode="&#x200a;" horiz-adv-x="49" 
 />
    <glyph glyph-name="uni2010" unicode="&#x2010;" horiz-adv-x="414" 
d="M350 237h-287l20 90h287z" />
    <glyph glyph-name="uni2011" unicode="&#x2011;" horiz-adv-x="414" 
d="M350 237h-287l20 90h287z" />
    <glyph glyph-name="uni202F" unicode="&#x202f;" horiz-adv-x="179" 
 />
    <glyph glyph-name="uni205F" unicode="&#x205f;" horiz-adv-x="224" 
 />
    <glyph glyph-name="uni2C67" unicode="&#x2c67;" horiz-adv-x="782" 
d="M286 38l-7 -38h-302l7 38c26 13 59 24 88 29l120 566c-31 5 -59 17 -76 29l8 38h303l-8 -38c-20 -15 -50 -24 -77 -29l-52 -242h265l52 242c-29 7 -50 17 -65 29l8 38h303l-8 -38c-25 -15 -59 -25 -88 -29l-120 -568h109c-16 -68 -48 -167 -75 -227h-39l-15 162h-215
l7 38c23 12 50 24 78 29l54 259h-265l-54 -259c23 -5 44 -14 64 -29z" />
    <glyph glyph-name="uniE000" unicode="&#xe000;" horiz-adv-x="510" 
d="M510 0h-510v510h510v-510z" />
    <glyph glyph-name="uniF6C9" unicode="&#xf6c9;" horiz-adv-x="675" 
d="M383 745l-28 24l142 129c43 3 117 -18 133 -37v-20z" />
    <glyph glyph-name="uniF6CB" unicode="&#xf6cb;" horiz-adv-x="623" 
d="M215 793c0 43 34 64 81 64s81 -21 81 -64c0 -37 -34 -59 -81 -59s-81 22 -81 59zM460 793c0 43 35 64 82 64s81 -21 81 -64c0 -37 -34 -59 -81 -59s-82 22 -82 59z" />
    <glyph glyph-name="uniF6CF" unicode="&#xf6cf;" horiz-adv-x="629" 
d="M319 749l-37 23l70 116c16 3 94 -15 102 -28v-14zM472 747l-39 23l115 118c18 3 94 -15 107 -31l-1 -10z" />
    <glyph glyph-name="uniF6D0" unicode="&#xf6d0;" horiz-adv-x="633" 
d="M611 849l-15 -70h-324l15 70h324z" />
    <glyph glyph-name="uniF6D1" unicode="&#xf6d1;" horiz-adv-x="697" 
d="M477 741c-114 0 -164 62 -164 112c21 21 80 37 117 37l34 -13v-60c13 -7 24 -12 45 -12c56 0 122 25 143 77c16 -1 37 -10 45 -21c-21 -52 -87 -120 -220 -120z" />
    <glyph glyph-name="uniF6D4" unicode="&#xf6d4;" horiz-adv-x="549" 
d="M353 556c-116 0 -153 64 -153 127c19 16 60 34 97 37l34 -13v-78c13 -7 24 -12 45 -12c49 0 101 32 124 89c15 -1 37 -9 44 -20c-16 -56 -76 -130 -191 -130z" />
    <glyph glyph-name="glyph350" horiz-adv-x="459" 
 />
    </font>
</defs>
</svg>
