<?xml version="1.0" standalone="no"?>
<!DOCTYPE svg PUBLIC "-//W3C//DTD SVG 1.1//EN" "http://www.w3.org/Graphics/SVG/1.1/DTD/svg11.dtd" >
<svg xmlns="http://www.w3.org/2000/svg" xmlns:xlink="http://www.w3.org/1999/xlink" version="1.1">
<metadata>
Created by FontForge 20161116 at Wed Oct 18 03:37:07 1995
 By Jimmy Wärting
(c) 1995 MapInfo Corporation. All rights reserved.
</metadata>
<defs>
<font id="MapInfoWeather" horiz-adv-x="2048" >
  <font-face 
    font-family="MapInfo Weather"
    font-weight="400"
    font-stretch="normal"
    units-per-em="2048"
    panose-1="5 5 1 2 1 6 7 2 6 7"
    ascent="1638"
    descent="-410"
    bbox="102 -473 1884 1849"
    underline-thickness="123"
    underline-position="-266"
    unicode-range="U+0008-00A5"
  />
<missing-glyph horiz-adv-x="1024" 
d="M102 -362v1806h1024v-1806h-1024zM217 -248h795v1577h-795v-1577z" />
    <glyph glyph-name=".notdef" unicode="&#xa5;" horiz-adv-x="1024" 
d="M102 -362v1806h1024v-1806h-1024zM217 -248h795v1577h-795v-1577z" />
    <glyph glyph-name=".notdef" unicode="&#xe01e;" horiz-adv-x="1024" 
d="M102 -362v1806h1024v-1806h-1024zM217 -248h795v1577h-795v-1577z" />
    <glyph glyph-name=".notdef" unicode="&#x25ca;" horiz-adv-x="1024" 
d="M102 -362v1806h1024v-1806h-1024zM217 -248h795v1577h-795v-1577z" />
    <glyph glyph-name=".notdef" unicode="&#x2260;" horiz-adv-x="1024" 
d="M102 -362v1806h1024v-1806h-1024zM217 -248h795v1577h-795v-1577z" />
    <glyph glyph-name=".notdef" unicode="&#x2248;" horiz-adv-x="1024" 
d="M102 -362v1806h1024v-1806h-1024zM217 -248h795v1577h-795v-1577z" />
    <glyph glyph-name=".notdef" unicode="&#x222b;" horiz-adv-x="1024" 
d="M102 -362v1806h1024v-1806h-1024zM217 -248h795v1577h-795v-1577z" />
    <glyph glyph-name=".notdef" unicode="&#x221e;" horiz-adv-x="1024" 
d="M102 -362v1806h1024v-1806h-1024zM217 -248h795v1577h-795v-1577z" />
    <glyph glyph-name=".notdef" unicode="&#x221a;" horiz-adv-x="1024" 
d="M102 -362v1806h1024v-1806h-1024zM217 -248h795v1577h-795v-1577z" />
    <glyph glyph-name=".notdef" unicode="&#x2211;" horiz-adv-x="1024" 
d="M102 -362v1806h1024v-1806h-1024zM217 -248h795v1577h-795v-1577z" />
    <glyph glyph-name=".notdef" unicode="&#x220f;" horiz-adv-x="1024" 
d="M102 -362v1806h1024v-1806h-1024zM217 -248h795v1577h-795v-1577z" />
    <glyph glyph-name=".notdef" unicode="&#x2202;" horiz-adv-x="1024" 
d="M102 -362v1806h1024v-1806h-1024zM217 -248h795v1577h-795v-1577z" />
    <glyph glyph-name=".notdef" unicode="&#x2122;" horiz-adv-x="1024" 
d="M102 -362v1806h1024v-1806h-1024zM217 -248h795v1577h-795v-1577z" />
    <glyph glyph-name=".notdef" unicode="&#x20ac;" horiz-adv-x="1024" 
d="M102 -362v1806h1024v-1806h-1024zM217 -248h795v1577h-795v-1577z" />
    <glyph glyph-name=".notdef" unicode="&#x2044;" horiz-adv-x="1024" 
d="M102 -362v1806h1024v-1806h-1024zM217 -248h795v1577h-795v-1577z" />
    <glyph glyph-name=".notdef" unicode="&#x2030;" horiz-adv-x="1024" 
d="M102 -362v1806h1024v-1806h-1024zM217 -248h795v1577h-795v-1577z" />
    <glyph glyph-name=".notdef" unicode="&#x2026;" horiz-adv-x="1024" 
d="M102 -362v1806h1024v-1806h-1024zM217 -248h795v1577h-795v-1577z" />
    <glyph glyph-name=".notdef" unicode="&#x3c0;" horiz-adv-x="1024" 
d="M102 -362v1806h1024v-1806h-1024zM217 -248h795v1577h-795v-1577z" />
    <glyph glyph-name=".notdef" unicode="&#x3a9;" horiz-adv-x="1024" 
d="M102 -362v1806h1024v-1806h-1024zM217 -248h795v1577h-795v-1577z" />
    <glyph glyph-name=".notdef" unicode="&#x394;" horiz-adv-x="1024" 
d="M102 -362v1806h1024v-1806h-1024zM217 -248h795v1577h-795v-1577z" />
    <glyph glyph-name=".notdef" unicode="&#x192;" horiz-adv-x="1024" 
d="M102 -362v1806h1024v-1806h-1024zM217 -248h795v1577h-795v-1577z" />
    <glyph glyph-name=".notdef" unicode="&#x178;" horiz-adv-x="1024" 
d="M102 -362v1806h1024v-1806h-1024zM217 -248h795v1577h-795v-1577z" />
    <glyph glyph-name=".notdef" unicode="&#x131;" horiz-adv-x="1024" 
d="M102 -362v1806h1024v-1806h-1024zM217 -248h795v1577h-795v-1577z" />
    <glyph glyph-name=".notdef" unicode="&#xff;" horiz-adv-x="1024" 
d="M102 -362v1806h1024v-1806h-1024zM217 -248h795v1577h-795v-1577z" />
    <glyph glyph-name="uni001D" horiz-adv-x="0" 
 />
    <glyph glyph-name="uni001D" horiz-adv-x="0" 
 />
    <glyph glyph-name="uni001D" horiz-adv-x="0" 
 />
    <glyph glyph-name="space" unicode="&#x9;" horiz-adv-x="512" 
 />
    <glyph glyph-name="space" unicode=" " horiz-adv-x="512" 
 />
    <glyph glyph-name="uni000D" unicode="&#xd;" horiz-adv-x="512" 
 />
    <glyph glyph-name="exclam" unicode="!" 
d="M1679 961h-86.0029c-2 30 -9.5 52.833 -22.5 68.5s-31.167 23.5 -54.5 23.5c-35.333 0 -65.666 -38 -90.999 -114c-6 -18.667 -10.667 -32.667 -14 -42c-11.333 -31.333 -28.833 -54.833 -52.5 -70.5s-53.167 -23.5 -88.5 -23.5c-39.333 0 -72.333 11 -99 33
s-45.667 54 -57 96c-1.33301 4.66699 -3 11 -5 19c-18 68 -46.333 102 -85 102s-69.667 -41.667 -93 -125l-3 -12c-9.33301 -33.333 -28 -60.5 -56 -81.5s-59.333 -31.5 -94 -31.5c-40.667 0 -73 9.66699 -97 29s-42.667 51 -56 95c-2 6.66699 -4.66699 15.334 -8 26.001
c-19.333 66.667 -47.666 100 -84.999 100c-24 0 -43.167 -7.83301 -57.5 -23.5s-21.5 -36.5 -21.5 -62.5v-834h-86v825c0 56.667 14.667 101 44 133s69.666 48 120.999 48c40 0 71.5 -9.16699 94.5 -27.5s42.833 -50.833 59.5 -97.5c2.66699 -8 6.33398 -19.333 11.001 -34
c19.333 -60.667 46.333 -91 81 -91c39.333 0 67 32 83 96c4.66699 18.667 8.33398 33 11.001 43c10.667 36 29 63.5 55 82.5s58.333 28.5 97 28.5c40 0 72.333 -9 97 -27s42 -45 52 -81c1.33301 -4 2.66602 -9 3.99902 -15c23.333 -84.667 54.333 -127 93 -127
c33.333 0 60.333 30 81 90c4.66699 13.333 8.33398 23.666 11.001 30.999c18 48 38.5 81.5 61.5 100.5s53.833 28.5 92.5 28.5c48 0 86.667 -16 116 -48s45 -75.333 47 -130z" />
    <glyph glyph-name="quotedbl" unicode="&#x22;" 
d="M1004 618c-37.333 82.667 -85.832 146.498 -145.499 191.498s-126.167 67.5 -199.5 67.5c-78.667 0 -144.334 -24.833 -197.001 -74.5s-79 -111.167 -79 -184.5c0 -71.333 27.667 -132.166 83 -182.499s123.333 -75.5 204 -75.5c76.667 0 144.5 22.833 203.5 68.5
s102.5 108.834 130.5 189.501zM1090 617.998c26 -78.667 69.333 -141.333 130 -188s129 -70 205 -70c82.667 0 150.834 24.5 204.501 73.5s80.5 110.5 80.5 184.5c0 74.667 -26.833 136.5 -80.5 185.5s-122.5 73.5 -206.5 73.5c-72 0 -135.333 -21.167 -190 -63.5
s-102.334 -107.5 -143.001 -195.5zM1047 704.999c41.333 83.333 93.999 146.334 157.999 189.001s137.333 64 220 64c110 0 199.667 -31.667 269 -95s104 -145 104 -245c0 -96 -36.5 -176.5 -109.5 -241.5s-164.167 -97.5 -273.5 -97.5c-77.333 0 -147.833 20.333 -211.5 61
s-115.834 98.667 -156.501 174c-40 -74.667 -92.167 -132.5 -156.5 -173.5s-135.166 -61.5 -212.499 -61.5c-112.667 0 -204.667 31.667 -276 95s-107 144.666 -107 243.999c0 96.667 35.333 177.5 106 242.5s159 97.5 265 97.5c80 0 152.833 -21.833 218.5 -65.5
s119.834 -106.167 162.501 -187.5z" />
    <glyph glyph-name="numbersign" unicode="#" 
d="M1638 365h-1228v86h1228v-86zM1638 778h-1228v86h1228v-86z" />
    <glyph glyph-name="dollar" unicode="$" 
d="M1638 160h-1228v86h1228v-86zM1638 571h-1228v86h1228v-86zM1638 987h-1228v88h1228v-88z" />
    <glyph glyph-name="percent" unicode="%" 
d="M1307 543c0 83.333 -26.832 151.833 -80.499 205.5s-121.834 80.5 -204.501 80.5c-84 0 -153.5 -26.833 -208.5 -80.5s-82.5 -122.167 -82.5 -205.5c0 -84.667 27.333 -154 82 -208s124.334 -81 209.001 -81c83.333 0 151.666 27 204.999 81s80 123.333 80 208z
M997.001 1346l63.999 -59.998c-65.333 -64 -122 -134.333 -170 -211s-89 -162 -123 -256c34.667 32.667 72.834 56.834 114.501 72.501s88.167 23.5 139.5 23.5c116 0 207.833 -37.833 275.5 -113.5s101.5 -179.834 101.5 -312.501c0 -130 -30.833 -260.833 -92.5 -392.5
s-150.5 -255.834 -266.5 -372.501l-63 59c68.667 68.667 127.5 142.5 176.5 221.5s88.5 163.5 118.5 253.5c-38 -30.667 -77.333 -53.334 -118 -68.001s-84.667 -22 -132 -22c-117.333 0 -210.5 38.5 -279.5 115.5s-103.5 181.167 -103.5 312.5c0 122.667 31 249 93 379
s150.333 253.667 265 371z" />
    <glyph glyph-name="ampersand" unicode="&#x26;" 
d="M997 1346l64.002 -60c-68 -67.333 -125.833 -138.833 -173.5 -214.5s-88.167 -159.834 -121.5 -252.501c34 32.667 71.667 56.834 113 72.501s88.333 23.5 141 23.5c117.333 0 209.5 -37.667 276.5 -113s100.5 -179.666 100.5 -312.999
c0 -130 -30.833 -260.5 -92.5 -391.5s-150.5 -255.5 -266.5 -373.5l-63 59c68.667 70 127.667 144.667 177 224s88.666 163 117.999 251c-37.333 -30 -76.333 -52.167 -117 -66.5s-85 -21.5 -133 -21.5c-118 0 -211.333 38.167 -280 114.5s-103 180.166 -103 311.499
c0 122 31.167 248 93.5 378s151.166 254 266.499 372z" />
    <glyph glyph-name="quotesingle" unicode="'" 
d="M1370 1327v-113.001c-58 -28.667 -98.833 -62.167 -122.5 -100.5s-35.5 -92.166 -35.5 -161.499v-12v-780c0 -77.333 11.5 -134.833 34.5 -172.5s64.167 -71.834 123.5 -102.501v-112c-92 48 -156.667 99.833 -194 155.5s-56 128.5 -56 218.5v805
c0 90 18.667 162.833 56 218.5s102 107.834 194 156.501zM676 1327c92 -49.333 156.667 -101.833 194 -157.5s56 -128.167 56 -217.5v-805c0 -88.667 -18.667 -161 -56 -217s-102 -108.333 -194 -157v112c59.333 30.667 100.5 65.167 123.5 103.5s34.5 95.5 34.5 171.5v780
c0 74 -11.667 130.833 -35 170.5s-64.333 74.167 -123 103.5v113z" />
    <glyph glyph-name="parenleft" unicode="(" 
d="M1503 1317l-479 -201l-483 203l483 -1364zM1673 1495l-649 -1790l-653 1790l653 -276z" />
    <glyph glyph-name="parenright" unicode=")" 
d="M1053 589c-11.333 -5.33301 -23 -9.66797 -35 -13.001s-24.333 -5 -37 -5c-52 0 -95.333 17.333 -130 52s-52 77.667 -52 129c0 63.333 20.167 114.333 60.5 153s93.833 58 160.5 58c69.333 0 124.833 -27 166.5 -81s62.5 -126.667 62.5 -218
c0 -97.333 -19.667 -189.166 -59 -275.499s-96 -162.5 -170 -228.5l-70 47c34.667 50.667 60.5 106.667 77.5 168s25.5 129 25.5 203v11z" />
    <glyph glyph-name="asterisk" unicode="*" horiz-adv-x="2177" 
d="M815 575c0 77.333 26.833 142.833 80.5 196.5s119.167 80.5 196.5 80.5c76.667 0 141.834 -26.833 195.501 -80.5s80.5 -119.167 80.5 -196.5c0 -76.667 -26.833 -141.5 -80.5 -194.5s-118.834 -79.5 -195.501 -79.5c-77.333 0 -142.833 26.5 -196.5 79.5
s-80.5 117.833 -80.5 194.5z" />
    <glyph glyph-name="plus" unicode="+" horiz-adv-x="2177" 
d="M1331 575c0 77.333 26.833 142.833 80.5 196.5s119.167 80.5 196.5 80.5c76.667 0 141.834 -26.833 195.501 -80.5s80.5 -119.167 80.5 -196.5c0 -76.667 -26.833 -141.5 -80.5 -194.5s-118.834 -79.5 -195.501 -79.5c-77.333 0 -142.833 26.5 -196.5 79.5
s-80.5 117.833 -80.5 194.5zM301 575c0 77.333 26.833 142.833 80.5 196.5s119.167 80.5 196.5 80.5c76.667 0 141.834 -26.833 195.501 -80.5s80.5 -119.167 80.5 -196.5c0 -76.667 -26.833 -141.5 -80.5 -194.5s-118.834 -79.5 -195.501 -79.5
c-77.333 0 -142.833 26.5 -196.5 79.5s-80.5 117.833 -80.5 194.5z" />
    <glyph glyph-name="comma" unicode="," horiz-adv-x="2177" 
d="M815 59c0 77.333 26.833 142.833 80.5 196.5s119.167 80.5 196.5 80.5c76.667 0 141.834 -26.833 195.501 -80.5s80.5 -119.167 80.5 -196.5c0 -76.667 -26.833 -141.834 -80.5 -195.501s-118.834 -80.5 -195.501 -80.5c-77.333 0 -142.833 26.833 -196.5 80.5
s-80.5 118.834 -80.5 195.501zM815 1094c0 76.667 26.833 141.834 80.5 195.501s119.167 80.5 196.5 80.5c76.667 0 141.834 -26.833 195.501 -80.5s80.5 -118.834 80.5 -195.501c0 -77.333 -26.833 -142.833 -80.5 -196.5s-118.834 -80.5 -195.501 -80.5
c-77.333 0 -142.833 26.833 -196.5 80.5s-80.5 119.167 -80.5 196.5z" />
    <glyph glyph-name="hyphen" unicode="-" 
d="M1251 129c0 75.333 24.333 137.499 73 186.499s111 73.5 187 73.5s139.167 -24.667 189.5 -74s75.5 -111.333 75.5 -186c0 -76 -25.333 -139 -76 -189s-113.667 -75 -189 -75c-74.667 0 -136.667 24.833 -186 74.5s-74 112.834 -74 189.501zM766 955.999
c0 75.333 24.667 137.668 74 187.001s112 74 188 74c74 0 135.833 -24.833 185.5 -74.5s74.5 -111.834 74.5 -186.501c0 -76 -24.667 -138.667 -74 -188s-111.333 -74 -186 -74c-76 0 -138.667 24.667 -188 74s-74 112 -74 188zM281 129.001
c0 75.333 24.667 137.501 74 186.501s112 73.5 188 73.5c74.667 0 137 -24.667 187 -74s75 -111.333 75 -186c0 -76.667 -25 -139.834 -75 -189.501s-112.333 -74.5 -187 -74.5c-75.333 0 -137.833 25 -187.5 75s-74.5 113 -74.5 189z" />
    <glyph glyph-name="period" unicode="." horiz-adv-x="2177" 
d="M815 575c0 77.333 26.833 142.833 80.5 196.5s119.167 80.5 196.5 80.5c76.667 0 141.834 -26.833 195.501 -80.5s80.5 -119.167 80.5 -196.5c0 -76.667 -26.833 -141.5 -80.5 -194.5s-118.834 -79.5 -195.501 -79.5c-77.333 0 -142.833 26.5 -196.5 79.5
s-80.5 117.833 -80.5 194.5zM815 -168c0 76.667 26.833 142 80.5 196s119.167 81 196.5 81c76.667 0 141.834 -27 195.501 -81s80.5 -119.333 80.5 -196s-26.833 -141.834 -80.5 -195.501s-118.834 -80.5 -195.501 -80.5c-77.333 0 -142.833 26.833 -196.5 80.5
s-80.5 118.834 -80.5 195.501zM815 1321c0 76.667 26.833 141.834 80.5 195.501s119.167 80.5 196.5 80.5c76.667 0 141.834 -26.833 195.501 -80.5s80.5 -118.834 80.5 -195.501s-26.833 -142 -80.5 -196s-118.834 -81 -195.501 -81c-77.333 0 -142.833 27 -196.5 81
s-80.5 119.333 -80.5 196z" />
    <glyph glyph-name="slash" unicode="/" horiz-adv-x="2177" 
d="M301 575c0 77.333 26.833 142.833 80.5 196.5s119.167 80.5 196.5 80.5c76.667 0 141.834 -26.833 195.501 -80.5s80.5 -119.167 80.5 -196.5c0 -76.667 -26.833 -141.5 -80.5 -194.5s-118.834 -79.5 -195.501 -79.5c-77.333 0 -142.833 26.5 -196.5 79.5
s-80.5 117.833 -80.5 194.5zM1331 575c0 77.333 26.833 142.833 80.5 196.5s119.167 80.5 196.5 80.5c76.667 0 141.834 -26.833 195.501 -80.5s80.5 -119.167 80.5 -196.5c0 -76.667 -26.833 -141.5 -80.5 -194.5s-118.834 -79.5 -195.501 -79.5
c-77.333 0 -142.833 26.5 -196.5 79.5s-80.5 117.833 -80.5 194.5zM815 1321c0 76.667 26.833 141.834 80.5 195.501s119.167 80.5 196.5 80.5c76.667 0 141.834 -26.833 195.501 -80.5s80.5 -118.834 80.5 -195.501s-26.833 -142 -80.5 -196s-118.834 -81 -195.501 -81
c-77.333 0 -142.833 27 -196.5 81s-80.5 119.333 -80.5 196zM815 -168c0 76.667 26.833 142 80.5 196s119.167 81 196.5 81c76.667 0 141.834 -27 195.501 -81s80.5 -119.333 80.5 -196s-26.833 -141.834 -80.5 -195.501s-118.834 -80.5 -195.501 -80.5
c-77.333 0 -142.833 26.833 -196.5 80.5s-80.5 118.834 -80.5 195.501z" />
    <glyph glyph-name="zero" unicode="0" 
d="M1532 1393h-1014l506 -1438zM1673 1495l-649 -1790l-653 1790h1302z" />
    <glyph glyph-name="one" unicode="1" 
d="M1733 -143l-707 1427l-711 -1427h1418zM1806 -186h-1562l782 1564z" />
    <glyph glyph-name="two" unicode="2" 
d="M911 1321c0 30.667 10.833 56.834 32.5 78.501s47.834 32.5 78.501 32.5s56.834 -10.833 78.501 -32.5s32.5 -47.834 32.5 -78.501s-10.833 -57.167 -32.5 -79.5s-47.834 -33.5 -78.501 -33.5s-56.834 11.167 -78.501 33.5s-32.5 48.833 -32.5 79.5zM1270 649h-490
l244 -694zM1376 952h-702l71 -207h558zM1509 1049l-485 -1344l-489 1344h974z" />
    <glyph glyph-name="three" unicode="3" 
d="M911 1143c0 30.667 10.833 56.667 32.5 78s47.834 32 78.501 32s56.834 -10.667 78.501 -32s32.5 -47.333 32.5 -78c0 -31.333 -10.833 -58 -32.5 -80s-47.834 -33 -78.501 -33s-56.834 11 -78.501 33s-32.5 48.667 -32.5 80zM911 1552
c0 30.667 10.833 56.834 32.5 78.501s47.834 32.5 78.501 32.5s56.834 -10.833 78.501 -32.5s32.5 -47.834 32.5 -78.501s-10.833 -57 -32.5 -79s-47.834 -33 -78.501 -33s-56.834 11 -78.501 33s-32.5 48.333 -32.5 79zM1376 774h-702l350 -997zM1509 870l-485 -1343
l-489 1343h974z" />
    <glyph glyph-name="four" unicode="4" 
d="M1376 774h-702l350 -997zM1335 1073l-311 567l-330 -567h641zM1509 872l-485 -1345l-489 1345h974zM1509 975h-974l489 874z" />
    <glyph glyph-name="five" unicode="5" 
d="M1376 774h-702l350 -997zM1509 872l-485 -1345l-489 1345h974zM1509 975h-974l489 874z" />
    <glyph glyph-name="six" unicode="6" 
d="M1665 408l-98 -498l-490 76v67l367 -33l-479 586l508 707l71 -51l-467 -654l436 -536l86 356z" />
    <glyph glyph-name="seven" unicode="7" 
d="M1665 408l-98 -498l-490 76v67l367 -33l-479 586l442 617h-770v-1307h-86v1307h-80v86h1106l-500 -701l436 -536l86 356z" />
    <glyph glyph-name="eight" unicode="8" 
d="M879 518c0 40.667 13.667 74.833 41 102.5s61.333 41.5 102 41.5c40 0 73.833 -14 101.5 -42s41.5 -62 41.5 -102c0 -41.333 -13.667 -75.833 -41 -103.5s-61.333 -41.5 -102 -41.5c-41.333 0 -75.5 13.667 -102.5 41s-40.5 62 -40.5 104zM379 97.999h1284l-641 1288z
M1753 46.999h-1462l733 1454z" />
    <glyph glyph-name="nine" unicode="9" 
d="M545 1290l477 -686l477 686l62 -45l-463 -670h780v-79h-780l463 -670l-62 -43l-477 684l-477 -684l-62 43l463 670h-778v79h778l-463 670z" />
    <glyph glyph-name="colon" unicode=":" 
d="M276 539c0 -102 18.668 -198.33 56.001 -288.997s91.333 -171.334 162 -242.001c70.667 -71.333 151.667 -125.666 243 -162.999s187.666 -56 288.999 -56c102 0 198.5 18.667 289.5 56s172.167 91.666 243.5 162.999c70.667 72 124.5 153.167 161.5 243.5
s55.5 186.166 55.5 287.499c0 100.667 -18.667 196.667 -56 288s-91 172.666 -161 243.999c-70.667 70.667 -151.5 124.5 -242.5 161.5s-187.833 55.5 -290.5 55.5s-199.5 -18.5 -290.5 -55.5s-171.5 -90.833 -241.5 -161.5c-70.667 -70 -124.667 -150.833 -162 -242.5
s-56 -188.167 -56 -289.5zM238.001 539.003c0 106.667 19.667 207.834 59 303.501s96 180.834 170 255.501c75.333 74.667 160.333 131.5 255 170.5s196 58.5 304 58.5s209.5 -19.5 304.5 -58.5s179.833 -95.833 254.5 -170.5s131.667 -159.834 171 -255.501
s59 -196.834 59 -303.501s-19.667 -208 -59 -304s-96.333 -181 -171 -255c-74.667 -75.333 -159.5 -132.5 -254.5 -171.5s-196.5 -58.5 -304.5 -58.5s-209.333 19.5 -304 58.5s-179.667 96.167 -255 171.5c-74 74 -130.667 159 -170 255s-59 197.333 -59 304z" />
    <glyph glyph-name="semicolon" unicode=";" 
d="M1636 606l-612 0.000976562v614c-66 -0.666992 -127.333 -9.5 -184 -26.5s-109.334 -42.167 -158.001 -75.5c-86.667 -58.667 -153.667 -132.5 -201 -221.5s-71 -185.167 -71 -288.5c0 -82.667 15.333 -161 46 -235s75.334 -140.333 134.001 -199
s125 -103.334 199 -134.001s152.333 -46 235 -46c169.333 0 311 56.5 425 169.5s176.333 260.5 187 442.5zM1724 608.001c0 -94 -17.499 -183.502 -52.499 -268.502s-85.5 -160.5 -151.5 -226.5c-66.667 -66.667 -142.5 -117.5 -227.5 -152.5s-174.5 -52.5 -268.5 -52.5
s-183.5 17.5 -268.5 52.5s-160.833 85.833 -227.5 152.5s-117.334 142 -152.001 226s-52 173 -52 267c0 94.667 17.5 184.334 52.5 269.001s85.5 160.334 151.5 227.001c66.667 66.667 142.5 117.5 227.5 152.5s174.5 52.5 268.5 52.5s183.5 -17.5 268.5 -52.5
s160.833 -85.833 227.5 -152.5c66 -66.667 116.5 -142.167 151.5 -226.5s52.5 -173.5 52.5 -267.5z" />
    <glyph glyph-name="less" unicode="&#x3c;" 
d="M1024 -6l-0.000976562 1227h-20c-56.667 0 -111.5 -8.33301 -164.5 -25s-104.167 -41.334 -153.5 -74.001c-85.333 -56.667 -152.666 -131 -201.999 -223s-74 -189 -74 -291c0 -84 16.167 -165.167 48.5 -243.5s76.166 -141.833 131.499 -190.5
c70.667 -63.333 139.834 -109.166 207.501 -137.499s140.5 -42.5 218.5 -42.5h8zM1724 608c0 -94 -17.499 -183.502 -52.499 -268.502s-85.5 -160.5 -151.5 -226.5c-66.667 -66.667 -142.5 -117.5 -227.5 -152.5s-174.5 -52.5 -268.5 -52.5s-183.5 17.5 -268.5 52.5
s-160.833 85.833 -227.5 152.5s-117.334 142 -152.001 226s-52 173 -52 267c0 94.667 17.5 184.334 52.5 269.001s85.5 160.334 151.5 227.001c66.667 66.667 142.5 117.5 227.5 152.5s174.5 52.5 268.5 52.5s183.5 -17.5 268.5 -52.5s160.833 -85.833 227.5 -152.5
c66 -66.667 116.5 -142.167 151.5 -226.5s52.5 -173.5 52.5 -267.5z" />
    <glyph glyph-name="equal" unicode="=" 
d="M1024 608v611.999c-180.667 -6 -326 -63.667 -436 -173s-169.333 -255.666 -178 -438.999h614zM1724 607.999c0 -94 -17.499 -183.502 -52.499 -268.502s-85.5 -160.5 -151.5 -226.5c-66.667 -66.667 -142.5 -117.5 -227.5 -152.5s-174.5 -52.5 -268.5 -52.5
s-183.5 17.5 -268.5 52.5s-160.833 85.833 -227.5 152.5s-117.334 142 -152.001 226s-52 173 -52 267c0 94.667 17.5 184.334 52.5 269.001s85.5 160.334 151.5 227.001c66.667 66.667 142.5 117.5 227.5 152.5s174.5 52.5 268.5 52.5s183.5 -17.5 268.5 -52.5
s160.833 -85.833 227.5 -152.5c66 -66.667 116.5 -142.167 151.5 -226.5s52.5 -173.5 52.5 -267.5z" />
    <glyph glyph-name="greater" unicode="&#x3e;" 
d="M238 535c0 107.333 19.333 208.833 58 304.5s95 180.5 169 254.5c75.333 74.667 160.333 131.5 255 170.5s196 58.5 304 58.5c108.667 0 210.667 -19.5 306 -58.5s180.333 -95.833 255 -170.5c74 -74 130.333 -158.833 169 -254.5s58 -197.167 58 -304.5
c0 -108 -19.333 -209.833 -58 -305.5s-95 -180.5 -169 -254.5c-74.667 -74.667 -159.667 -131.5 -255 -170.5s-197.333 -58.5 -306 -58.5c-108 0 -209.333 19.5 -304 58.5s-179.667 95.833 -255 170.5c-74 74 -130.333 158.833 -169 254.5s-58 197.5 -58 305.5z" />
    <glyph glyph-name="question" unicode="?" 
d="M909 614l-370.001 369.002c-43.333 -56.667 -75.666 -115.834 -96.999 -177.501s-32 -126.167 -32 -193.5c0 -68.667 10.333 -133.834 31 -195.501s52 -121.167 94 -178.5zM1401 123.002l-370.999 368.999l-375 -375c64.667 -42 127.667 -73 189 -93
s122.666 -30 183.999 -30c62 0 124 10.833 186 32.5s124.333 53.834 187 96.501zM1393 1098c-52 41.333 -108 72.167 -168 92.5s-125.667 30.5 -197 30.5c-73.333 0 -140.833 -10 -202.5 -30s-115.5 -49 -161.5 -87l366 -369zM1520 246.002
c40 58.667 69.667 118.001 89 178.001s29 122 29 186c0 64.667 -10.333 127.667 -31 189s-52 120.666 -94 177.999l-360 -363zM1724 608.003c0 -94 -17.499 -183.502 -52.499 -268.502s-85.5 -160.5 -151.5 -226.5c-66.667 -66.667 -142.5 -117.5 -227.5 -152.5
s-174.5 -52.5 -268.5 -52.5s-183.5 17.5 -268.5 52.5s-160.833 85.833 -227.5 152.5s-117.334 142 -152.001 226s-52 173 -52 267c0 94.667 17.5 184.334 52.5 269.001s85.5 160.334 151.5 227.001c66.667 66.667 142.5 117.5 227.5 152.5s174.5 52.5 268.5 52.5
s183.5 -17.5 268.5 -52.5s160.833 -85.833 227.5 -152.5c66 -66.667 116.5 -142.167 151.5 -226.5s52.5 -173.5 52.5 -267.5z" />
    <glyph glyph-name="at" unicode="@" 
d="M1837 180l-43 -76l-291 168l-4 -276l-86 49l2 279l-348 200v-403l242 -135v-105l-242 139v-335h-86v333l-242 -135l-2 101l244 137v403l-348 -200l2 -279l-86 -49l-4 276l-291 -168l-43 76l291 168l-240 141l90 52l238 -142l360 207l-360 209l-238 -141l-90 51l240 141
l-291 168l43 76l291 -168l4 277l86 -50l-2 -278l348 -201v404l-244 137l2 100l242 -135v334h86v-336l242 139v-104l-242 -135v-404l348 201l-2 278l86 50l4 -277l291 168l43 -76l-291 -168l242 -141l-90 -51l-240 141l-360 -209l360 -207l240 142l90 -52l-242 -141z" />
    <glyph glyph-name="uni00A0" unicode="&#xa0;" horiz-adv-x="1024" 
 />
    <glyph glyph-name="glyph36" horiz-adv-x="1024" 
d="M102 -362v1806h1024v-1806h-1024zM217 -248h795v1577h-795v-1577z" />
  </font>
</defs>
</svg>
