<?xml version="1.0" standalone="no"?>
<!DOCTYPE svg PUBLIC "-//W3C//DTD SVG 1.1//EN" "http://www.w3.org/Graphics/SVG/1.1/DTD/svg11.dtd" >
<svg xmlns="http://www.w3.org/2000/svg" xmlns:xlink="http://www.w3.org/1999/xlink" version="1.1">
<metadata>
Created by FontForge 20161116 at Thu Nov 12 15:46:37 1998
 By Jimmy Wärting
Typeface (c) The Monotype Corporation plc. Data (c) The Monotype Corporation plc / Type Solutions Inc. 19-1991 All Rights Reserved.
</metadata>
<defs>
<font id="ArialNarrow-Italic" horiz-adv-x="934" >
  <font-face 
    font-family="Arial Narrow"
    font-weight="400"
    font-style="italic"
    font-stretch="condensed"
    units-per-em="2048"
    panose-1="2 11 5 6 2 2 2 10 2 4"
    ascent="1638"
    descent="-410"
    x-height="1062"
    cap-height="1466"
    bbox="-439 -628 2047 2146"
    underline-thickness="150"
    underline-position="-292"
    slope="-9.7"
    unicode-range="U+0020-F010"
  />
<missing-glyph horiz-adv-x="467" 
d="M44 0v1280h390v-1280h-390zM91 53h296v1184h-296v-1184z" />
    <glyph glyph-name=".notdef" horiz-adv-x="467" 
d="M44 0v1280h390v-1280h-390zM91 53h296v1184h-296v-1184z" />
    <glyph glyph-name="space" unicode=" " horiz-adv-x="467" 
 />
    <glyph glyph-name="space" unicode="&#xa0;" horiz-adv-x="467" 
 />
    <glyph glyph-name="exclam" unicode="!" horiz-adv-x="467" 
d="M188 370l91 796l52 300h180l-56 -325l-174 -771h-93zM95 0l35 205h168l-36 -205h-167z" />
    <glyph glyph-name="quotedbl" unicode="&#x22;" horiz-adv-x="596" 
d="M219 947l8 279l41 240h169l-42 -240l-86 -279h-90zM490 947l9 279l42 240h168l-42 -240l-88 -279h-89z" />
    <glyph glyph-name="numbersign" unicode="#" 
d="M82 -25l71 426h-138v149h163l61 363h-224v149h248l72 429h123l-72 -429h259l71 429h124l-72 -429h143v-149h-167l-61 -363h228v-149h-253l-71 -426h-124l71 426h-258l-71 -426h-123zM301 550h258l61 363h-258z" />
    <glyph glyph-name="dollar" unicode="$" 
d="M372 -13c-77.333 19.333 -142.997 67.8301 -196.997 145.497s-83.667 174.834 -89 291.501l149 11c4.66699 -80 22 -145.167 52 -195.5s67 -84.833 111 -103.5l94 553c-68.667 36.667 -119.834 72.834 -153.501 108.501s-60.5 79 -80.5 130s-30 104.167 -30 159.5
c0 110.667 36.667 205 110 283s159.666 117 258.999 117l32 -1l13 78h82l-16 -91c150.667 -44.667 235 -165 253 -361l-141 -9c-8 63.333 -23.167 111.833 -45.5 145.5s-52.833 58.834 -91.5 75.501l-86 -503c105.333 -52.667 179.833 -111.167 223.5 -175.5
s65.5 -138.833 65.5 -223.5c0 -116.667 -35.833 -220.5 -107.5 -311.5s-172.834 -136.5 -303.501 -136.5l-23 1l-29 -171h-82zM522.003 860.997l82 480c-66 2.66699 -120.833 -18.5 -164.5 -63.5s-65.5 -104.5 -65.5 -178.5c0 -53.333 10.667 -98 32 -134
s60 -70.667 116 -104zM568.003 649.997l-91 -531l13 -1c65.333 0 123 27.667 173 83s75 122.333 75 201c0 54.667 -12 101 -36 139s-68.667 74.333 -134 109z" />
    <glyph glyph-name="percent" unicode="%" horiz-adv-x="1493" 
d="M235 -54l993 1545h134l-989 -1545h-138zM163 1015c0 57.333 11.999 127.833 35.999 211.5s58.667 146.5 104 188.5s99 63 161 63c74.667 0 132.334 -23 173.001 -69s61 -116.667 61 -212s-15.833 -184.333 -47.5 -267s-69.667 -140.5 -114 -173.5
s-94.5 -49.5 -150.5 -49.5c-71.333 0 -126.333 24.167 -165 72.5s-58 126.833 -58 235.5zM288.999 982c0 -56.667 8.83105 -96.501 26.498 -119.501s41.167 -34.5 70.5 -34.5c28.667 0 53.334 9.66699 74.001 29c29.333 26.667 54.833 74.834 76.5 144.501
s32.5 142.167 32.5 217.5c0 45.333 -9.5 79.666 -28.5 102.999s-43.167 35 -72.5 35c-26 0 -49.667 -9.66699 -71 -29c-29.333 -26.667 -54.666 -73.667 -75.999 -141s-32 -135.666 -32 -204.999zM895.997 253.999c0 56.667 11.999 126.833 35.999 210.5
s58.667 146.667 104 189s99 63.5 161 63.5c74.667 0 132.334 -23 173.001 -69s61 -116.667 61 -212s-15.833 -184.333 -47.5 -267s-69.667 -140.5 -114 -173.5s-94.5 -49.5 -150.5 -49.5c-71.333 0 -126.333 24 -165 72s-58 126.667 -58 236zM1022 219.998
c0 -56 8.83105 -95.666 26.498 -118.999s40.834 -35 69.501 -35s53.667 9.66699 75 29c28.667 26.667 54 74.667 76 144s33 140.666 33 213.999c0 48.667 -9.5 84.667 -28.5 108s-42.833 35 -71.5 35c-26.667 0 -50.667 -9.66699 -72 -29
c-29.333 -27.333 -54.666 -74.5 -75.999 -141.5s-32 -135.5 -32 -205.5z" />
    <glyph glyph-name="ampersand" unicode="&#x26;" horiz-adv-x="1120" 
d="M833 143c-70.667 -70 -130.333 -116.662 -179 -139.995s-101.334 -35 -158.001 -35c-104.667 0 -191.5 37.833 -260.5 113.5s-103.5 175.167 -103.5 298.5c0 113.333 26.333 207.666 79 282.999s131.667 141.666 237 198.999c-28.667 76.667 -46 128.667 -52 156
c-8 38 -12 77.333 -12 118c0 90.667 28 172.5 84 245.5s128.667 109.5 218 109.5c73.333 0 134.5 -26.333 183.5 -79s73.5 -120.334 73.5 -203.001c0 -70.667 -21.667 -138 -65 -202s-121.333 -130.667 -234 -200c70.667 -157.333 139.334 -287 206.001 -389
c40.667 60 79 129.667 115 209l129 -81c-36.667 -92.667 -86.667 -183.334 -150 -272.001c38 -58.667 84.333 -125.334 139 -200.001l-112 -109c-56 58.667 -102 118 -138 178zM589.001 942.005c139.333 86 209.001 174 209.001 264c0 40.667 -11.333 74.167 -34 100.5
s-49.334 39.5 -80.001 39.5c-37.333 0 -70.833 -18.333 -100.5 -55s-44.5 -82 -44.5 -136c0 -63.333 16.667 -134.333 50 -213zM747.002 282.005c-101.333 160.667 -180.668 307 -238.001 439c-76.667 -43.333 -130.667 -85.333 -162 -126
c-42.667 -56.667 -64 -121 -64 -193c0 -79.333 21.833 -144.333 65.5 -195s94.834 -76 153.501 -76c82 0 163.667 50.333 245 151z" />
    <glyph glyph-name="quotesingle" unicode="'" horiz-adv-x="322" 
d="M214 947l10 274l43 245h168l-43 -245l-86 -274h-92z" />
    <glyph glyph-name="parenleft" unicode="(" horiz-adv-x="559" 
d="M271 -431c-86 230.667 -129 465.333 -129 704c0 167.333 18 321.333 54 462s90.333 279.334 163 416.001c44.667 84 117.667 197.333 219 340h116c-69.333 -90.667 -139 -212.334 -209 -365.001s-120.5 -300 -151.5 -442s-46.5 -286.333 -46.5 -433
c0 -218.667 31.667 -446 95 -682h-111z" />
    <glyph glyph-name="parenright" unicode=")" horiz-adv-x="559" 
d="M332 1491c86.667 -228 130 -462.666 130 -703.999c0 -166 -18 -319.333 -54 -460s-90.667 -280 -164 -418c-46.667 -88 -119.667 -201.333 -219 -340h-115c68.667 90 138.167 211.5 208.5 364.5s120.833 300.5 151.5 442.5s46 285.333 46 430
c0 221.333 -31.333 449.666 -94 684.999h110z" />
    <glyph glyph-name="asterisk" unicode="*" horiz-adv-x="653" 
d="M190 1195l36.9971 142.003c86.667 -36.667 150 -68.667 190 -96c-11.333 116.667 -17 199.667 -17 249h119c-1.33301 -68.667 -7.66602 -151.334 -18.999 -248.001c54.667 34 119.334 66.333 194.001 97l38 -142c-69.333 -28 -137.333 -46.667 -204 -56
c34 -36.667 81.333 -99.667 142 -189l-98 -85c-32 51.333 -70 122.666 -114 213.999c-41.333 -96.667 -76.666 -168.334 -105.999 -215.001l-96 84c60 92.667 105 156 135 190c-73.333 16.667 -140.333 35 -201 55z" />
    <glyph glyph-name="plus" unicode="+" horiz-adv-x="981" 
d="M420 237v402h-327v168h327v399h140v-399h327v-168h-327v-402h-140z" />
    <glyph glyph-name="comma" unicode="," horiz-adv-x="467" 
d="M92 0l35 205h169l-30 -179c-34 -198 -109 -305.333 -225 -322l14 79c64.667 22 107.667 94.333 129 217h-92z" />
    <glyph glyph-name="hyphen" unicode="-" horiz-adv-x="559" 
d="M77 440l31 181h453l-31 -181h-453z" />
    <glyph glyph-name="hyphen" unicode="&#xad;" horiz-adv-x="559" 
d="M77 440l31 181h453l-31 -181h-453z" />
    <glyph glyph-name="period" unicode="." horiz-adv-x="467" 
d="M97 0l35 205h168l-35 -205h-168z" />
    <glyph glyph-name="slash" unicode="/" horiz-adv-x="467" 
d="M-86 -24l646 1515h129l-646 -1515h-129z" />
    <glyph glyph-name="zero" unicode="0" 
d="M119 481c0 184.667 29.668 363.167 89.001 535.5s131 295.833 215 370.5c63.333 56.667 131.333 85 204 85c90 0 166.333 -40.833 229 -122.5s94 -202.167 94 -361.5c0 -157.333 -20 -313 -60 -467c-50.667 -195.333 -122 -341.333 -214 -438
c-68.667 -72 -147.334 -108 -236.001 -108c-88 0 -163.5 42.5 -226.5 127.5s-94.5 211.167 -94.5 378.5zM263.001 435c0 -109.333 17.5 -189.333 52.5 -240s79.167 -76 132.5 -76c55.333 0 105 28.333 149 85c73.333 93.333 127 228 161 404s51 316.667 51 422
c0 106 -16.833 182 -50.5 228s-77.5 69 -131.5 69c-58.667 0 -110.667 -28 -156 -84c-64 -80 -114.667 -210.167 -152 -390.5s-56 -319.5 -56 -417.5z" />
    <glyph glyph-name="one" unicode="1" 
d="M405 0l190 1107c-81.333 -78.667 -196.666 -141.667 -345.999 -189l28 164c95.333 46.667 190.666 113 285.999 199c72.667 64.667 124.667 128.334 156 191.001h87l-252 -1472h-149z" />
    <glyph glyph-name="two" unicode="2" 
d="M99 0c21.333 125.333 59.998 229.997 115.998 313.997c42 63.333 146.667 176.666 314 339.999c102 98.667 172.167 178.834 210.5 240.501s57.5 125.167 57.5 190.5c0 70 -20.167 127.833 -60.5 173.5s-87.833 68.5 -142.5 68.5c-56 0 -105 -23.667 -147 -71
s-72 -124 -90 -230l-145 26c14.667 134.667 56.834 238.334 126.501 311.001s153.834 109 252.501 109c108.667 0 194.667 -37.667 258 -113s95 -168.666 95 -279.999c0 -99.333 -29 -193.666 -87 -282.999c-36 -56 -138 -165.333 -306 -328
c-126 -121.333 -207.667 -222 -245 -302h538l-29 -166h-716z" />
    <glyph glyph-name="three" unicode="3" 
d="M92 384l144.998 22c10.667 -104.667 35 -178.667 73 -222s86.667 -65 146 -65c70 0 132.5 31 187.5 93s82.5 135.667 82.5 221c0 76.667 -20.667 137.667 -62 183s-94.333 68 -159 68c-8 0 -23.667 -1.33301 -47 -4l25 151c14 -2.66699 27.667 -4 41 -4
c80 0 144 24.167 192 72.5s72 111.5 72 189.5c0 69.333 -19.333 126.333 -58 171s-83 67 -133 67c-53.333 0 -101.5 -23.167 -144.5 -69.5s-70.5 -113.166 -82.5 -200.499l-146 36c24.667 124 71.834 218.167 141.501 282.5s149.5 96.5 239.5 96.5
c94 0 172.667 -35 236 -105s95 -161 95 -273c0 -76.667 -16.5 -143.834 -49.5 -201.501s-82.833 -105.5 -149.5 -143.5c46.667 -34 81.667 -75.5 105 -124.5s35 -105.167 35 -168.5c0 -134 -41.333 -247.667 -124 -341s-178 -140 -286 -140
c-103.333 0 -189.666 35.667 -258.999 107s-108 172 -116 302z" />
    <glyph glyph-name="four" unicode="4" 
d="M503 0l64 374h-490l31 179l673 913h122l-160 -932h169l-27 -160h-170l-64 -374h-148zM595 534l104 612l-447 -612h343z" />
    <glyph glyph-name="five" unicode="5" 
d="M118 419l150.999 18.002l-2 -47c0 -48.667 10.167 -95.334 30.5 -140.001s45.666 -77.667 75.999 -99s62.5 -32 96.5 -32c42 0 86 17.667 132 53s85.333 90 118 164s49 150.667 49 230c0 84.667 -20.333 151 -61 199s-92 72 -154 72
c-86.667 0 -163.667 -50.667 -231 -152l-129 11l180 750h587l-28 -166h-457l-90 -373c67.333 60 139 90 215 90c88.667 0 163.334 -36.167 224.001 -108.5s91 -174.5 91 -306.5c0 -182 -48.667 -333 -146 -453c-83.333 -102.667 -187 -154 -311 -154
c-63.333 0 -120.166 16.167 -170.499 48.5s-91.5 81.666 -123.5 147.999s-48 138.5 -48 216.5z" />
    <glyph glyph-name="six" unicode="6" 
d="M338 850c42 42 83.499 73.498 124.499 94.498s81.5 31.5 121.5 31.5c89.333 0 164.333 -37.167 225 -111.5s91 -177.5 91 -309.5c0 -170.667 -46 -315 -138 -433c-76.667 -98 -167.667 -147 -273 -147c-96.667 0 -179 43.5 -247 130.5s-102 214.833 -102 383.5
c0 150.667 23.5 310.834 70.5 480.501s114.167 299.834 201.5 390.501c72.667 74.667 156.667 112 252 112c80 0 146.333 -30.333 199 -91s83 -150.667 91 -270l-138 -16c-15.333 150 -69.666 225 -162.999 225c-40.667 0 -78.667 -15.333 -114 -46
c-53.333 -45.333 -97 -110 -131 -194s-57.333 -160.667 -70 -230zM285.999 411.998c0 -84.667 21.333 -154.667 64 -210s90 -83 142 -83c60 0 116.333 36.667 169 110c65.333 89.333 98 192.333 98 309c0 89.333 -20.333 160.5 -61 213.5s-88.667 79.5 -144 79.5
c-65.333 0 -126.333 -38.5 -183 -115.5s-85 -178.167 -85 -303.5z" />
    <glyph glyph-name="seven" unicode="7" 
d="M244 0c17.333 127.333 54.668 275.666 112.001 444.999s125.166 326 203.499 470s159.833 265.667 244.5 365h-600l29 166h768l-29 -166c-126 -135.333 -235.667 -305.666 -329 -510.999c-118.667 -262.667 -200 -519 -244 -769h-155z" />
    <glyph glyph-name="eight" unicode="8" 
d="M378 806c-44.667 30 -78.168 67.1689 -100.501 111.502s-33.5 96.166 -33.5 155.499c0 94 31.833 184 95.5 270s153.167 129 268.5 129c100 0 181.5 -33 244.5 -99s94.5 -152 94.5 -258c0 -74 -16.833 -139.167 -50.5 -195.5s-84.5 -101.166 -152.5 -134.499
c50.667 -38.667 87.334 -82.167 110.001 -130.5s34 -104.833 34 -169.5c0 -150.667 -41 -273.5 -123 -368.5s-180.667 -142.5 -296 -142.5c-97.333 0 -179 36.833 -245 110.5s-99 169.5 -99 287.5c0 71.333 11.5 138.666 34.5 201.999s51.833 113.166 86.5 149.499
s78.667 63.833 132 82.5zM389.999 1065c0 -65.333 17.001 -116.502 51.001 -153.502s79 -55.5 135 -55.5c64.667 0 119 24.333 163 73s66 111.334 66 188.001c0 64.667 -17.333 115.834 -52 153.501s-79.334 56.5 -134.001 56.5c-41.333 0 -79.333 -10.833 -114 -32.5
s-62.5 -53.5 -83.5 -95.5s-31.5 -86.667 -31.5 -134zM274 358c0 -72 19.833 -129.833 59.5 -173.5s89.834 -65.5 150.501 -65.5c76 0 137.333 39.5 184 118.5s70 162.5 70 250.5c0 72 -18.667 129 -56 171s-84.333 63 -141 63c-72.667 0 -135.334 -33.167 -188.001 -99.5
s-79 -154.5 -79 -264.5z" />
    <glyph glyph-name="nine" unicode="9" 
d="M113 336l139 17.001c18 -151.333 71.667 -227 161 -227c58.667 0 112.334 31 161.001 93c70.667 89.333 122.334 214.666 155.001 375.999c-52.667 -48 -98.334 -81 -137.001 -99s-76.334 -27 -113.001 -27c-83.333 0 -156 37.833 -218 113.5s-93 180.167 -93 313.5
c0 147.333 38 280.166 114 398.499s175.333 177.5 298 177.5c97.333 0 179.333 -44 246 -132s100 -215.333 100 -382c0 -195.333 -29.167 -376.166 -87.5 -542.499s-124.833 -281.333 -199.5 -345s-152.667 -95.5 -234 -95.5c-80 0 -147 30.667 -201 92s-84.333 151 -91 269
zM311 916.001c0 -94 20.333 -167.833 61 -221.5s88 -80.5 142 -80.5c74.667 0 139.667 46.667 195 140c50 84.667 75 176 75 274c0 58.667 -10.333 111.667 -31 159s-47 82.5 -79 105.5s-64.667 34.5 -98 34.5c-38 0 -77.167 -16 -117.5 -48s-75 -82.5 -104 -151.5
s-43.5 -139.5 -43.5 -211.5z" />
    <glyph glyph-name="colon" unicode=":" horiz-adv-x="467" 
d="M243 857l35 205h168l-35 -205h-168zM96 0l35 205h168l-35 -205h-168z" />
    <glyph glyph-name="semicolon" unicode=";" horiz-adv-x="467" 
d="M239 857l35 205h167l-35 -205h-167zM92 0l35 205h169l-30 -179c-34 -198 -109 -305.333 -225 -322l14 79c64.667 22 107.667 94.333 129 217h-92z" />
    <glyph glyph-name="semicolon" unicode="&#x37e;" horiz-adv-x="467" 
d="M239 857l35 205h167l-35 -205h-167zM92 0l35 205h169l-30 -179c-34 -198 -109 -305.333 -225 -322l14 79c64.667 22 107.667 94.333 129 217h-92z" />
    <glyph glyph-name="less" unicode="&#x3c;" horiz-adv-x="981" 
d="M91 641v168l796 410v-179l-631 -316l631 -319v-179z" />
    <glyph glyph-name="equal" unicode="=" horiz-adv-x="981" 
d="M887 862h-794v168h794v-168zM887 417h-794v168h794v-168z" />
    <glyph glyph-name="greater" unicode="&#x3e;" horiz-adv-x="981" 
d="M887 641l-796 -415v179l631 319l-631 316v179l796 -410v-168z" />
    <glyph glyph-name="question" unicode="?" 
d="M352 367c6 60 16.998 112.501 32.998 157.501s37.667 87.333 65 127s78.333 96.167 153 169.5c78.667 78.667 130.334 141.5 155.001 188.5s37 91.833 37 134.5c0 56.667 -19 104.5 -57 143.5s-83.667 58.5 -137 58.5c-62 0 -113.667 -23.5 -155 -70.5
s-69.333 -127.167 -84 -240.5l-148 30c23.333 144.667 69.333 251.834 138 321.501s150 104.5 244 104.5c98.667 0 181 -33.833 247 -101.5s99 -153.834 99 -258.501c0 -76.667 -21.667 -149.334 -65 -218.001c-30.667 -49.333 -96.667 -123.333 -198 -222
c-70 -69.333 -116.167 -124 -138.5 -164s-38.166 -93.333 -47.499 -160h-141zM279.998 0.000976562l35 205h168l-36 -205h-167z" />
    <glyph glyph-name="at" unicode="@" horiz-adv-x="1704" 
d="M953 163c-39.333 -55.333 -84.0039 -98.668 -134.004 -130.001c-38 -24 -77.333 -36 -118 -36c-47.333 0 -93.666 16.833 -138.999 50.5s-83 86 -113 157s-45 150.167 -45 237.5c0 113.333 23.5 223.166 70.5 329.499s102.833 185 167.5 236s127.334 76.5 188.001 76.5
c52 0 98.667 -15.333 140 -46s77.333 -76.667 108 -138l27 155h148l-119 -671c-16 -93.333 -24 -145 -24 -155c0 -19.333 5.83301 -35.166 17.5 -47.499s25.167 -18.5 40.5 -18.5c28.667 0 70 23.333 124 70s99.333 114.5 136 203.5s55 183.167 55 282.5
c0 118.667 -25.667 226.167 -77 322.5s-122.166 171.333 -212.499 225s-189.5 80.5 -297.5 80.5c-124 0 -236.833 -33.833 -338.5 -101.5s-184.5 -168.667 -248.5 -303s-96 -286.5 -96 -456.5c0 -165.333 28.5 -305.166 85.5 -419.499s138.833 -201.166 245.5 -260.499
s233.334 -89 380.001 -89c131.333 0 246.666 27.5 345.999 82.5s175 128.167 227 219.5h148c-32.667 -80.667 -86.5 -157.834 -161.5 -231.501s-157.833 -128.5 -248.5 -164.5s-195.334 -54 -314.001 -54c-172 0 -318.5 34.833 -439.5 104.5s-216.167 172 -285.5 307
s-104 298.833 -104 491.5c0 199.333 38.5 381 115.5 545s173.833 284.333 290.5 361s252 115 406 115c132.667 0 251.334 -32 356.001 -96s188.334 -157.333 251.001 -280s94 -259 94 -409c0 -195.333 -58.333 -369 -175 -521c-98 -127.333 -203.667 -191 -317 -191
c-56 0 -95.5 13.5 -118.5 40.5s-36.833 69.167 -41.5 126.5zM555.996 433.998c0 -92.667 18.166 -164 54.499 -214s77.833 -75 124.5 -75c37.333 0 79.333 19.5 126 58.5s86.667 99.667 120 182s50 168.833 50 259.5c0 95.333 -18.667 167.5 -56 216.5
s-82.666 73.5 -135.999 73.5c-40 0 -80.5 -17.333 -121.5 -52s-78.167 -96.667 -111.5 -186s-50 -177 -50 -263z" />
    <glyph glyph-name="A" unicode="A" horiz-adv-x="1120" 
d="M-33 0l681 1466h190l198 -1466h-156l-58 422h-486l-193 -422h-176zM405 573h397.001l-46 368c-18 145.333 -29.333 267 -34 365c-26.667 -84 -66.334 -183.667 -119.001 -299z" />
    <glyph glyph-name="B" unicode="B" horiz-adv-x="1120" 
d="M73 0l251 1466h373c90.667 0 158 -8 202 -24c64 -22.667 113.5 -61.834 148.5 -117.501s52.5 -125.167 52.5 -208.5c0 -82 -18.667 -153.167 -56 -213.5s-92.666 -106.166 -165.999 -137.499c63.333 -25.333 111.666 -63.666 144.999 -114.999s50 -113.333 50 -186
c0 -84 -20.167 -163.333 -60.5 -238s-91.5 -131 -153.5 -169s-130 -57 -204 -57h-582zM378 839.999l244.001 0.000976562c117.333 0 198.666 20.333 243.999 61c55.333 52 83 120.667 83 206c0 43.333 -8.66699 80.166 -26 110.499s-39.333 51.5 -66 63.5s-75 18 -145 18
h-256zM262.001 166h274c72 0 120 2.66699 144 8c43.333 9.33301 81.5 25 114.5 47s60.167 54.833 81.5 98.5s32 91.167 32 142.5c0 73.333 -18.667 126.833 -56 160.5s-103 50.5 -197 50.5h-306z" />
    <glyph glyph-name="C" unicode="C" horiz-adv-x="1212" 
d="M1012 516l159.001 -27.001c-50.667 -172 -124.834 -300.667 -222.501 -386s-204.5 -128 -320.5 -128c-142 0 -256.833 53 -344.5 159s-131.5 262.667 -131.5 470c0 242 55 446.667 165 614c119.333 182 273.666 273 462.999 273c121.333 0 222.833 -40.333 304.5 -121
s128.834 -194 141.501 -340l-150 -17c-31.333 210.667 -128 316 -290 316c-141.333 0 -255.666 -72.167 -342.999 -216.5s-131 -315.166 -131 -512.499c0 -153.333 31 -268.833 93 -346.5s140.333 -116.5 235 -116.5c81.333 0 152.666 29.333 213.999 88
c75.333 72 128 169 158 291z" />
    <glyph glyph-name="D" unicode="D" horiz-adv-x="1212" 
d="M74 0l250.999 1466h363c81.333 0 143.333 -6.33301 186 -19c62.667 -18 118.5 -51.667 167.5 -101s86.833 -115 113.5 -197s40 -176.333 40 -283c0 -142 -21.833 -270.833 -65.5 -386.5s-97.667 -211.167 -162 -286.5s-139.5 -128 -225.5 -158
c-65.333 -23.333 -143.666 -35 -234.999 -35h-433zM262.999 166l191.004 -0.000976562c89.333 0 165.166 9.5 227.499 28.5s118.166 56 167.499 111s92.166 132.167 128.499 231.5s54.5 212.333 54.5 339c0 111.333 -15.833 199.833 -47.5 265.5
s-74.834 109.834 -129.501 132.501c-39.333 16.667 -101 25 -185 25h-213z" />
    <glyph glyph-name="E" unicode="E" horiz-adv-x="1120" 
d="M76 0l251 1466h868l-28 -167h-708l-78 -456h688l-28 -167h-688l-88 -510h757l-29 -166h-917z" />
    <glyph glyph-name="F" unicode="F" horiz-adv-x="1026" 
d="M76 0l251 1466h781l-28 -167h-621l-80 -467h632l-28 -167h-632l-114 -665h-161z" />
    <glyph glyph-name="G" unicode="G" horiz-adv-x="1307" 
d="M688 578l27.9971 165.998h527l-102 -597c-69.333 -53.333 -146.5 -95.333 -231.5 -126s-166.833 -46 -245.5 -46c-170 0 -296 57.833 -378 173.5s-123 261.834 -123 438.501c0 178 32.333 339.167 97 483.5s145.334 250.5 242.001 318.5s203.667 102 321 102
c139.333 0 252.333 -48.333 339 -145c61.333 -68.667 103 -171.667 125 -309l-158 -21c-17.333 104 -53.166 182 -107.499 234s-122.5 78 -204.5 78c-84 0 -163.167 -27.667 -237.5 -83s-135.166 -140.666 -182.499 -255.999s-71 -250.333 -71 -405
c0 -152 30.667 -264.5 92 -337.5s143 -109.5 245 -109.5c104 0 216.333 42 337 126l54 315h-366z" />
    <glyph glyph-name="H" unicode="H" horiz-adv-x="1212" 
d="M70 0l251 1466h161l-104 -609h623l104 609h161l-251 -1466h-161l118 691h-623l-118 -691h-161z" />
    <glyph glyph-name="I" unicode="I" horiz-adv-x="467" 
d="M96 0l251 1466h161l-251 -1466h-161z" />
    <glyph glyph-name="J" unicode="J" horiz-adv-x="840" 
d="M68 427l149 13.001c-9.33301 -56.667 -14 -99 -14 -127c0 -55.333 14.5 -98.5 43.5 -129.5s66.833 -46.5 113.5 -46.5c32.667 0 62.167 8.66699 88.5 26s47.833 43.833 64.5 79.5s32.334 97.167 47.001 184.5l178 1039h161l-183 -1071
c-26 -152.667 -69.333 -260.834 -130 -324.501s-137.334 -95.5 -230.001 -95.5c-94 0 -167.667 26.833 -221 80.5s-80 133.5 -80 239.5c0 44.667 4.33301 88.667 13 132z" />
    <glyph glyph-name="K" unicode="K" horiz-adv-x="1120" 
d="M75 0l251 1466h161l-121 -706l653 706h226l-558 -597l409 -869h-179l-348 743l-252 -267l-81 -476h-161z" />
    <glyph glyph-name="L" unicode="L" 
d="M67 0l251 1466h161l-223 -1300h624l-28 -166h-785z" />
    <glyph glyph-name="M" unicode="M" horiz-adv-x="1399" 
d="M74 0l251 1466h197l122 -950c16 -126 26.333 -245.667 31 -359c34 99.333 89.667 233 167 401l422 908h201l-251 -1466h-158l125 713c29.333 165.333 71 350 125 554c-34.667 -95.333 -77.667 -198 -129 -308l-447 -959h-155l-121 940
c-10.667 82.667 -18.667 183 -24 301c-12.667 -124.667 -25.667 -226.667 -39 -306l-161 -935h-156z" />
    <glyph glyph-name="N" unicode="N" horiz-adv-x="1212" 
d="M81 0l251 1466h157l202 -550c60 -162 107 -297.667 141 -407c24 -75.333 50 -171 78 -287c15.333 126 34 253.333 56 382l148 862h156l-251 -1466h-159l-299 847c-52.667 150.667 -94 282.334 -124 395.001c-7.33301 -95.333 -23 -212.333 -47 -351l-153 -891h-156z" />
    <glyph glyph-name="O" unicode="O" horiz-adv-x="1307" 
d="M154 614c0 268.667 67.001 486.667 201.001 654c119.333 148.667 264.666 223 435.999 223c144 0 264.5 -58 361.5 -174s145.5 -277.333 145.5 -484c0 -166 -31.667 -316.5 -95 -451.5s-143.333 -236.5 -240 -304.5s-198.334 -102 -305.001 -102
c-92.667 0 -176.167 24.667 -250.5 74s-135.166 124 -182.499 224s-71 213.667 -71 341zM312.001 604c0 -142 35.332 -255.333 105.999 -340s154.334 -127 251.001 -127c73.333 0 145.5 27 216.5 81s130.833 138.833 179.5 254.5s73 241.834 73 378.501
c0 148 -34.5 264.5 -103.5 349.5s-152.5 127.5 -250.5 127.5c-113.333 0 -215.333 -55.667 -306 -167c-110.667 -136.667 -166 -322.334 -166 -557.001z" />
    <glyph glyph-name="P" unicode="P" horiz-adv-x="1120" 
d="M73 0l251 1466h503c86.667 0 151.167 -11.833 193.5 -35.5s78.333 -64.5 108 -122.5s44.5 -125.333 44.5 -202c0 -99.333 -23.833 -193.166 -71.5 -281.499s-110 -148.666 -187 -180.999s-169.833 -48.5 -278.5 -48.5h-300l-102 -595h-161zM364 760.998
l265.002 -0.000976562c96 0 168 11.833 216 35.5s88.167 63.5 120.5 119.5s48.5 117.333 48.5 184c0 51.333 -8.33301 92.333 -25 123s-39.334 52.334 -68.001 65.001s-80.334 19 -155.001 19h-308z" />
    <glyph glyph-name="Q" unicode="Q" horiz-adv-x="1307" 
d="M1016 118c38.667 -57.333 93.332 -113.999 163.999 -169.999l-71 -116c-74.667 59.333 -140 129.666 -196 210.999c-74.667 -46 -158.334 -69 -251.001 -69c-143.333 0 -263.5 58.5 -360.5 175.5s-145.5 279.833 -145.5 488.5c0 165.333 31.167 315.833 93.5 451.5
s140.833 236.5 235.5 302.5s197.334 99 308.001 99c144.667 0 265.334 -58 362.001 -174s145 -277.333 145 -484c0 -150 -26 -287.667 -78 -413s-120.667 -226 -206 -302zM916.998 244.001c63.333 58.667 116.332 142.834 158.999 252.501s64 224.834 64 345.501
c0 153.333 -34.333 272.666 -103 357.999s-152 128 -250 128c-74 0 -147.833 -27.667 -221.5 -83s-134 -138.333 -181 -249s-70.5 -236 -70.5 -376c0 -152 35.333 -270.333 106 -355s156.667 -127 258 -127c44.667 0 89.334 11 134.001 33
c-50.667 56 -101.667 100.333 -153 133l58 122c67.333 -34.667 134 -95.334 200 -182.001z" />
    <glyph glyph-name="R" unicode="R" horiz-adv-x="1212" 
d="M79 0l251.001 1466h505c109.333 0 188.166 -11.667 236.499 -35s84.166 -57.666 107.499 -102.999c32 -61.333 48 -134.333 48 -219c0 -127.333 -33.833 -228.5 -101.5 -303.5s-169.167 -123.833 -304.5 -146.5c44.667 -40 79.334 -81.667 104.001 -125
c48 -84.667 86.667 -170.667 116 -258l92 -276h-180l-86 273c-32.667 104.667 -69.334 192.334 -110.001 263.001c-26 46 -53.167 76.667 -81.5 92s-74.166 23 -137.499 23h-186l-112 -651h-161zM379.001 809.998h221.001c122.667 0 206 4.5 250 13.5s82.5 26.667 115.5 53
s59.167 59.833 78.5 100.5s29 85.667 29 135c0 44.667 -8.16699 82.167 -24.5 112.5s-36.833 51.333 -61.5 63s-68.334 17.5 -131.001 17.5h-393z" />
    <glyph glyph-name="S" unicode="S" horiz-adv-x="1120" 
d="M119 474l157 18.002l-1 -49c0 -65.333 13.333 -123.333 40 -174c20 -38.667 53.833 -70.167 101.5 -94.5s104.5 -36.5 170.5 -36.5c91.333 0 163.666 24.167 216.999 72.5s80 108.5 80 180.5c0 50.667 -15 94.667 -45 132c-30.667 36.667 -103.667 85.334 -219 146.001
c-89.333 47.333 -150 83 -182 107c-58 43.333 -100.833 91.166 -128.5 143.499s-41.5 112.166 -41.5 179.499c0 117.333 37.5 212 112.5 284s177.833 108 308.5 108c90 0 167 -17 231 -51s114.833 -83.667 152.5 -149s56.5 -135.333 56.5 -210l-1 -31l-156 -15l1 33
c0 47.333 -11.833 91.333 -35.5 132s-57.5 72.167 -101.5 94.5s-94.667 33.5 -152 33.5c-82 0 -145.833 -20 -191.5 -60s-68.5 -92.667 -68.5 -158c0 -59.333 17.333 -105 52 -137s120 -84.667 256 -158c99.333 -54 166.833 -97.833 202.5 -131.5s63.334 -74 83.001 -121
s29.5 -99.833 29.5 -158.5c0 -122.667 -43 -224.834 -129 -306.501s-198.667 -122.5 -338 -122.5c-150.667 0 -265 40.167 -343 120.5s-117.333 206.5 -118 378.5z" />
    <glyph glyph-name="T" unicode="T" horiz-adv-x="1026" 
d="M381 0l223 1299h-395l29 167h946l-28 -167h-392l-222 -1299h-161z" />
    <glyph glyph-name="U" unicode="U" horiz-adv-x="1212" 
d="M333 1466h161l-155 -901c-12.667 -74.667 -19 -130.334 -19 -167.001c0 -75.333 25 -137.666 75 -186.999s114.333 -74 193 -74c104 0 188.667 42.667 254 128c50 65.333 92 196.666 126 393.999l138 807h160l-147 -860c-28 -166 -66 -291.667 -114 -377
s-106.833 -149.166 -176.5 -191.499s-147.834 -63.5 -234.501 -63.5c-133.333 0 -238.666 38.5 -315.999 115.5s-116 180.5 -116 310.5c0 52 11.333 140.667 34 266z" />
    <glyph glyph-name="V" unicode="V" horiz-adv-x="1120" 
d="M439 0l-231 1466h155l139 -874c26 -158.667 42.667 -286.667 50 -384c51.333 127.333 93 226.666 125 297.999l428 960h166l-660 -1466h-172z" />
    <glyph glyph-name="W" unicode="W" horiz-adv-x="1585" 
d="M284 0l-73.999 1466h163l28 -725c6.66699 -158.667 10 -283.667 10 -375l-1 -96l144 352l366 844h166l40 -857c4.66699 -104.667 7.66699 -222.667 9 -354c10 33.333 26.667 82.333 50 147c40.667 110.667 71 190 91 238l343 826h163l-611 -1466h-172l-41 888
c-3.33301 77.333 -6.33301 170.666 -9 279.999c-34.667 -96 -62.334 -168 -83.001 -216l-416 -952h-166z" />
    <glyph glyph-name="X" unicode="X" horiz-adv-x="1120" 
d="M-53 0l574 741l-340 725h177l155 -332c53.333 -114 92.333 -204 117 -270c41.333 67.333 104 155 188 263l264 339h209l-580 -757l329 -709h-175l-195 429c-18 39.333 -40 93.333 -66 162c-29.333 -48 -65.333 -99.667 -108 -155l-336 -436h-213z" />
    <glyph glyph-name="Y" unicode="Y" horiz-adv-x="1120" 
d="M470 0l97 567l-370 899h172l178 -428c37.333 -90.667 75 -190.667 113 -300c40 90.667 95 189.667 165 297l282 431h192l-574 -914l-94 -552h-161z" />
    <glyph glyph-name="Z" unicode="Z" horiz-adv-x="1026" 
d="M41 0l15 147l728 1063c25.333 37.333 49.333 71 72 101c-50.667 -8 -90.667 -12 -120 -12h-525l29 167h829l-14 -153l-645 -935l-151 -217c26 4 53 6 81 6h621l-29 -167h-891z" />
    <glyph glyph-name="bracketleft" unicode="[" horiz-adv-x="467" 
d="M11 -401l316 1867h330l-23 -139h-181l-272 -1589h181l-23 -139h-328z" />
    <glyph glyph-name="backslash" unicode="\" horiz-adv-x="467" 
d="M344 -24l-201 1515h115l201 -1515h-115z" />
    <glyph glyph-name="bracketright" unicode="]" horiz-adv-x="467" 
d="M230 -401h-328l24 139h181l272 1589h-180l24 139h330z" />
    <glyph glyph-name="asciicircum" unicode="^" horiz-adv-x="788" 
d="M196 690h-151l290 801h119l290 -801h-148l-203 597z" />
    <glyph glyph-name="underscore" unicode="_" 
d="M-12 -154h955v-102h-955v102z" />
    <glyph glyph-name="grave" unicode="`" horiz-adv-x="559" 
d="M405 1191l-160 275h180l96 -275h-116z" />
    <glyph glyph-name="a" unicode="a" 
d="M643 132c-54.667 -57.333 -106.001 -97.667 -154.001 -121s-96.667 -35 -146 -35c-77.333 0 -141.5 27.667 -192.5 83s-76.5 130.666 -76.5 225.999c0 68 14.667 127.333 44 178s70.5 89.5 123.5 116.5s128.833 42.833 227.5 47.5c83.333 4.66699 140.5 9.66699 171.5 15
s57.5 13.333 79.5 24c12 50.667 18 92 18 124c0 44.667 -16.167 80.5 -48.5 107.5s-79.166 40.5 -140.499 40.5c-123.333 0 -203.333 -64.667 -240 -194l-150 16c63.333 217.333 196.333 326 399 326c100 0 179.333 -26.167 238 -78.5s88 -118.166 88 -197.499
c0 -56 -6.66699 -121.667 -20 -197l-48 -264c-15.333 -84 -23 -152 -23 -204c0 -36.667 5.66699 -85 17 -145h-149c-8.66699 33.333 -14.667 77.333 -18 132zM697.999 537.999c-36.667 -17.333 -98.6689 -30.666 -186.002 -39.999
c-89.333 -9.33301 -150.666 -21.333 -183.999 -36s-59.333 -37 -78 -67s-28 -64.667 -28 -104c0 -54 15 -96.667 45 -128s70 -47 120 -47c47.333 0 93 14.667 137 44s79.833 71.666 107.5 126.999s49.834 139 66.501 251z" />
    <glyph glyph-name="b" unicode="b" 
d="M56 0l250.999 1466h149l-90 -524c48 54 91.167 91.5 129.5 112.5s77.166 31.5 116.499 31.5c80.667 0 148.667 -36.167 204 -108.5s83 -180.5 83 -324.5c0 -132.667 -22.333 -252.834 -67 -360.501s-99.667 -187.334 -165 -239.001s-129.666 -77.5 -192.999 -77.5
c-119.333 0 -203.666 75 -252.999 225l-35 -201h-130zM275.999 436.002l-1 -38c0 -90 18.167 -158.167 54.5 -204.5s81.166 -69.5 134.499 -69.5c42.667 0 84.667 17.5 126 52.5s78.833 99.667 112.5 194s50.5 186.833 50.5 277.5c0 96.667 -17.833 169.5 -53.5 218.5
s-80.5 73.5 -134.5 73.5c-48 0 -94.667 -23.667 -140 -71s-83.666 -125.333 -114.999 -234c-22.667 -80 -34 -146.333 -34 -199z" />
    <glyph glyph-name="c" unicode="c" horiz-adv-x="840" 
d="M656 387l148.995 -19.001c-37.333 -132.667 -90.666 -231.167 -159.999 -295.5s-146.666 -96.5 -231.999 -96.5c-92 0 -168.167 36.333 -228.5 109s-90.5 178 -90.5 316c0 135.333 22.167 258.333 66.5 369s100.333 191 168 241s142.834 75 225.501 75
c89.333 0 162.333 -31.333 219 -94s84.667 -148.667 84 -258l-146 -12c0 69.333 -16.167 122.5 -48.5 159.5s-72.166 55.5 -119.499 55.5c-52.667 0 -100.167 -17.5 -142.5 -52.5s-79 -99.667 -110 -194s-46.5 -198.833 -46.5 -313.5
c0 -85.333 16.833 -150.166 50.5 -194.499s73.834 -66.5 120.501 -66.5c48 0 94 22.333 138 67s78.333 112.667 103 204z" />
    <glyph glyph-name="d" unicode="d" 
d="M642 154c-84 -118.667 -172.667 -177.999 -266 -177.999c-80 0 -148 36.333 -204 109s-84 181.667 -84 327c0 130 22.333 249.167 67 357.5s99.667 188.166 165 239.499s130.333 77 195 77c107.333 0 188.333 -63.667 243 -191l98 571h148l-251 -1466h-137zM236 445.001
l-1 -43c0 -88 20.333 -160 61 -216c31.333 -43.333 72.666 -65 123.999 -65c66.667 0 127.667 42.667 183 128c72.667 114 109 254 109 420c0 85.333 -18.667 151.333 -56 198s-81.666 70 -132.999 70c-50 0 -97 -22.333 -141 -67s-79.333 -111.667 -106 -201
s-40 -164 -40 -224z" />
    <glyph glyph-name="e" unicode="e" 
d="M695 361l144.999 -18c-24 -103.333 -79.667 -193.333 -167 -270c-72.667 -64.667 -153.667 -97 -243 -97c-63.333 0 -121 17.167 -173 51.5s-93.333 85.666 -124 153.999s-46 149.833 -46 244.5c0 124.667 23.5 241 70.5 349s104.5 186.833 172.5 236.5
s141.667 74.5 221 74.5c100.667 0 182.834 -38.333 246.501 -115s95.5 -185 95.5 -325c0 -52 -3.66699 -105.333 -11 -160h-642c-2 -21.333 -3 -40.333 -3 -57c0 -100 19 -175.833 57 -227.5s83.667 -77.5 137 -77.5c50.667 0 100.5 20.333 149.5 61
s87.167 99.334 114.5 176.001zM263.999 624l489 -0.000976562v37c0 94.667 -18.667 165.667 -56 213s-85 71 -143 71c-62.667 0 -120.167 -26.667 -172.5 -80s-91.5 -133.666 -117.5 -240.999z" />
    <glyph glyph-name="f" unicode="f" horiz-adv-x="467" 
d="M77 0l158.001 922h-133l24 140h133l26 151c18 104.667 40 173.667 66 207c37.333 47.333 94.666 71 171.999 71c36.667 0 91 -9.66699 163 -29l-27 -158c-50.667 16 -92.667 24 -126 24c-29.333 0 -51.5 -9 -66.5 -27s-28.167 -59.667 -39.5 -125l-20 -114h166l-24 -140
h-166l-157 -922h-149z" />
    <glyph glyph-name="g" unicode="g" 
d="M48 -96l149.999 -17v-24c0 -46 13 -80.667 39 -104s66.667 -35 122 -35c86 0 149 26.333 189 79c28 38.667 53.333 123.334 76 254.001l15 86c-77.333 -95.333 -159.333 -143 -246 -143c-86 0 -159.167 38.833 -219.5 116.5s-90.5 190.167 -90.5 337.5
c0 116 23.167 225.167 69.5 327.5s102.333 178.666 168 228.999s131.834 75.5 198.501 75.5c114 0 202 -66 264 -198l30 174h135l-175 -1025c-26.667 -154.667 -67 -266 -121 -334c-68 -85.333 -160.333 -128 -277 -128c-110.667 0 -193.5 24.5 -248.5 73.5
s-82.5 116.167 -82.5 201.5c0 16 1.33301 34 4 54zM232.999 470c0 -79.333 8.5 -141.333 25.5 -186s40.333 -78.5 70 -101.5s61.167 -34.5 94.5 -34.5c44.667 0 90 18.5 136 55.5s85.667 98.667 119 185s50 174.833 50 265.5c0 89.333 -20.167 159.333 -60.5 210
s-88.833 76 -145.5 76c-46 0 -91.5 -20.5 -136.5 -61.5s-81.667 -103.667 -110 -188s-42.5 -157.833 -42.5 -220.5z" />
    <glyph glyph-name="h" unicode="h" 
d="M56 0l250.998 1466h149l-97 -563c58 68.667 110.833 116.334 158.5 143.001s95.5 40 143.5 40c68.667 0 123.667 -22.333 165 -67s62 -106 62 -184c0 -38.667 -8.66699 -108 -26 -208l-107 -627h-149l111 643c16 92.667 24 151.334 24 176.001
c0 36 -10.5 64.667 -31.5 86s-48.833 32 -83.5 32c-51.333 0 -100.666 -15.667 -147.999 -47s-85.666 -76.833 -114.999 -136.5s-56 -158.834 -80 -297.501l-79 -456h-148z" />
    <glyph glyph-name="i" unicode="i" horiz-adv-x="373" 
d="M266 1261l35 205h148l-35 -205h-148zM50 0l182 1062h148l-182 -1062h-148z" />
    <glyph glyph-name="j" unicode="j" horiz-adv-x="373" 
d="M266 1261l35 205h147l-36 -205h-146zM-204 -399l26 153.999c34 -11.333 64.333 -17 91 -17c32 0 57.333 13.333 76 40s38 97.334 58 212.001l183 1072h149l-190 -1105c-24 -140 -51.667 -235 -83 -285c-40.667 -64.667 -97 -97 -169 -97
c-38.667 0 -85.667 8.66699 -141 26z" />
    <glyph glyph-name="k" unicode="k" horiz-adv-x="840" 
d="M57 0l251 1466h149l-156 -909l432 505h197l-372 -396l224 -666h-162l-173 545l-181 -190l-61 -355h-148z" />
    <glyph glyph-name="l" unicode="l" horiz-adv-x="373" 
d="M44 0l251 1466h149l-251 -1466h-149z" />
    <glyph glyph-name="m" unicode="m" horiz-adv-x="1399" 
d="M54 0l181.999 1062h148l-30 -175c57.333 78.667 107.666 131.5 150.999 158.5s89.333 40.5 138 40.5c53.333 0 98.333 -17 135 -51s61 -83.333 73 -148c44 66.667 90.667 116.5 140 149.5s101 49.5 155 49.5c68.667 0 122.167 -20.333 160.5 -61s57.5 -99.667 57.5 -177
c0 -34 -6.66699 -88.667 -20 -164l-117 -684h-148l120 702c10 57.333 15 98.666 15 123.999c0 36 -9.33301 63.5 -28 82.5s-43.667 28.5 -75 28.5c-41.333 0 -84.666 -15.167 -129.999 -45.5s-81.5 -72 -108.5 -125s-50.5 -136.833 -70.5 -251.5l-88 -515h-149l123 717
c8.66699 48.667 13 83.667 13 105c0 35.333 -9.16699 63.333 -27.5 84s-41.166 31 -68.499 31c-66 0 -128.5 -33.5 -187.5 -100.5s-101.833 -178.5 -128.5 -334.5l-87 -502h-148z" />
    <glyph glyph-name="n" unicode="n" 
d="M56 0l182.001 1062h134l-31 -185c62.667 78.667 119.667 133.167 171 163.5s101 45.5 149 45.5c67.333 0 121.833 -22.667 163.5 -68s62.5 -109.666 62.5 -192.999c0 -37.333 -7.33301 -98 -22 -182l-110 -643h-149l116 673c11.333 66 17 114.667 17 146
c0 36.667 -10.5 65.5 -31.5 86.5s-49.5 31.5 -85.5 31.5c-74.667 0 -141.834 -33 -201.501 -99s-103.5 -180.667 -131.5 -344l-85 -494h-148z" />
    <glyph glyph-name="o" unicode="o" 
d="M82 403c0 191.333 43 352.999 129 484.999s201.333 198 346 198c101.333 0 185 -38.833 251 -116.5s99 -188.167 99 -331.5c0 -131.333 -22.5 -248.666 -67.5 -351.999s-103.333 -180.833 -175 -232.5s-146.834 -77.5 -225.501 -77.5
c-103.333 0 -188.666 38.167 -255.999 114.5s-101 180.5 -101 312.5zM231 420.999c0 -100.667 20.001 -176.665 60.001 -227.998s90 -77 150 -77c47.333 0 94.666 19.167 141.999 57.5s88.666 101.833 123.999 190.5s53 179.667 53 273c0 101.333 -20 178.166 -60 230.499
s-89.333 78.5 -148 78.5c-51.333 0 -101.166 -19 -149.499 -57s-89 -100.833 -122 -188.5s-49.5 -180.834 -49.5 -279.501z" />
    <glyph glyph-name="p" unicode="p" 
d="M-17 -407l251.999 1469h137l-26 -148c52.667 66.667 99 112 139 136s82 36 126 36c80.667 0 148.834 -36.333 204.501 -109s83.5 -179 83.5 -319c0 -132 -22.5 -252.333 -67.5 -361s-104.5 -192.667 -178.5 -252c-57.333 -46 -117.333 -69 -180 -69
c-104.667 0 -185.667 64.667 -243 194l-99 -577h-148zM274.999 399c0 -89.333 18.167 -157.5 54.5 -204.5s81.833 -70.5 136.5 -70.5c43.333 0 81.333 14.333 114 43c46.667 41.333 87 109.5 121 204.5s51 190.833 51 287.5c0 90.667 -18.167 160.167 -54.5 208.5
s-80.5 72.5 -132.5 72.5c-41.333 0 -83.333 -18.5 -126 -55.5s-80.667 -102.167 -114 -195.5s-50 -190 -50 -290z" />
    <glyph glyph-name="q" unicode="q" 
d="M619 120c-84.667 -96 -164.333 -143.998 -239 -143.998c-81.333 0 -150.5 36.667 -207.5 110s-85.5 181.333 -85.5 324c0 133.333 22 253.666 66 360.999s98.667 186.666 164 237.999s132 77 200 77c52 0 100 -18 144 -54s79.333 -91 106 -165l33 195h129l-252 -1469
h-148zM234.001 432.002c0 -106 18 -183.835 54 -233.502s80 -74.5 132 -74.5c40 0 78.333 16.333 115 49c51.333 44.667 93.666 112.834 126.999 204.501s50 185.834 50 282.501c0 87.333 -18.667 155.333 -56 204s-81.333 73 -132 73c-45.333 0 -85 -14.333 -119 -43
c-45.333 -38.667 -85.166 -103.667 -119.499 -195s-51.5 -180.333 -51.5 -267z" />
    <glyph glyph-name="r" unicode="r" horiz-adv-x="559" 
d="M56 0l182 1062h131l-37 -217c87.333 160.667 175 241 263 241c30 0 66.667 -13 110 -39l-61 -168c-26 22.667 -53.333 34 -82 34c-54.667 0 -109.167 -35.833 -163.5 -107.5s-96.833 -198.167 -127.5 -379.5l-74 -426h-141z" />
    <glyph glyph-name="s" unicode="s" horiz-adv-x="840" 
d="M64 363l148.998 11.002c-0.666992 -86.667 18.333 -151.334 57 -194.001s91.334 -64 158.001 -64c60.667 0 108.667 15.167 144 45.5s53 69.166 53 116.499c0 34 -11 64.667 -33 92c-22.667 27.333 -71.667 60.666 -147 99.999
c-86.667 45.333 -143.834 80.166 -171.501 104.499s-49.167 54 -64.5 89s-23 74.167 -23 117.5c0 88.667 28.667 161.667 86 219s132.666 86 225.999 86c103.333 0 185 -29.5 245 -88.5s91.333 -141.5 94 -247.5l-146 -12c-2 66.667 -21.167 118 -57.5 154
s-85.166 54 -146.499 54c-48 0 -87 -13.5 -117 -40.5s-45 -58.167 -45 -93.5c0 -30.667 9 -57 27 -79c18 -22.667 63.667 -53 137 -91c112.667 -59.333 184.334 -106.666 215.001 -141.999c46.667 -55.333 70 -122.666 70 -201.999c0 -88 -31.167 -163.667 -93.5 -227
s-148.833 -95 -259.5 -95c-111.333 0 -198.666 32 -261.999 96s-95 154.333 -95 271v20z" />
    <glyph glyph-name="t" unicode="t" horiz-adv-x="467" 
d="M403 147l-26.002 -148c-35.333 -11.333 -69.666 -17 -102.999 -17c-55.333 0 -99.166 14.667 -131.499 44s-48.5 68.666 -48.5 117.999c0 23.333 7.33301 77 22 161l105 617h-117l24 140h117l45 261l170 125l-66 -386h145l-24 -140h-145l-101 -587
c-12.667 -75.333 -19 -119.666 -19 -132.999c0 -23.333 5.33301 -40.333 16 -51s27 -16 49 -16c32.667 0 62 4 88 12z" />
    <glyph glyph-name="u" unicode="u" 
d="M650 192c-104.667 -144 -211.666 -215.998 -320.999 -215.998c-63.333 0 -116.5 22.667 -159.5 68s-64.5 103.666 -64.5 174.999c0 45.333 9.33301 122 28 230l105 613h148l-116 -679c-10 -56.667 -15 -100.334 -15 -131.001c0 -42 10.333 -73.833 31 -95.5
s49.667 -32.5 87 -32.5c52.667 0 105.167 21.167 157.5 63.5s90.666 95.333 114.999 159s45.5 149.167 63.5 256.5l79 459h148l-182 -1062h-137z" />
    <glyph glyph-name="v" unicode="v" horiz-adv-x="840" 
d="M275 0l-143.001 1062h144l75 -585c8 -66.667 18 -171 30 -313c28.667 76 65.334 162.333 110.001 259l290 639h157l-498 -1062h-165z" />
    <glyph glyph-name="w" unicode="w" horiz-adv-x="1212" 
d="M221 0l-90.9971 1062h142l40 -477c9.33301 -115.333 16 -245 20 -389c26.667 106 59 210 97 312l207 554h162l29 -531c4 -75.333 6.66699 -183 8 -323c27.333 90 71.666 214 132.999 372l187 482h149l-426 -1062h-154l-32 623
c-2.66699 43.333 -4.33398 118.666 -5.00098 225.999c-22.667 -72 -49.334 -149 -80.001 -231l-230 -618h-156z" />
    <glyph glyph-name="x" unicode="x" horiz-adv-x="840" 
d="M-3 0l378.999 539l-217 523h164l73 -189c28 -71.333 52.667 -139 74 -203l251 392h182l-366 -537l219 -525h-164l-86 216c-19.333 48.667 -40.666 105.667 -63.999 171l-259 -387h-186z" />
    <glyph glyph-name="y" unicode="y" horiz-adv-x="840" 
d="M0 -410l9 169.999c30.667 -10.667 60.334 -16 89.001 -16c30 0 54 8 72 24c25.333 22.667 52 64.334 80 125.001l47 104l-145 1065h146l66 -537c13.333 -107.333 24.666 -213.333 33.999 -318l389 855h155l-555 -1203c-55.333 -121.333 -104.166 -200 -146.499 -236
s-88.833 -54 -139.5 -54c-34.667 0 -68.334 7 -101.001 21z" />
    <glyph glyph-name="z" unicode="z" horiz-adv-x="840" 
d="M33 0l24.002 140l468 643c33.333 45.333 70.666 92.333 111.999 141c-70.667 -8.66699 -121.667 -13 -153 -13h-323l26 151h673l-19 -114l-473 -647c-26.667 -36.667 -66.334 -87 -119.001 -151c82 6 138.333 9 169 9h343l-27 -159h-701z" />
    <glyph glyph-name="braceleft" unicode="{" horiz-adv-x="561" 
d="M142 612c37.333 0.666992 71.1689 12.333 101.502 35s55.166 56.167 74.499 100.5s40 128.166 62 251.499c22 121.333 38.667 202 50 242c18.667 64.667 44.667 118.334 78 161.001c24.667 32 54.167 54.833 88.5 68.5s77.5 20.5 129.5 20.5h46l-28 -157h-26
c-44.667 0 -76.834 -6.16699 -96.501 -18.5s-35.5 -32.5 -47.5 -60.5s-27.333 -94.667 -46 -200c-24.667 -142 -47.334 -241.333 -68.001 -298s-45.667 -101.834 -75 -135.501s-69.666 -64.167 -120.999 -91.5c77.333 -43.333 116 -119.333 116 -228
c0 -60.667 -16.667 -183.667 -50 -369c-8.66699 -48.667 -13 -87.667 -13 -117c0 -32.667 8.16699 -55.834 24.5 -69.501s47.5 -20.5 93.5 -20.5h25l-27 -157h-46c-56 0 -97 6.83301 -123 20.5s-47 35.834 -63 66.501s-24 68.334 -24 113.001c0 50 12.333 147.333 37 292
c19.333 109.333 29 183.333 29 222c0 52 -13 94.333 -39 127c-20 24.667 -50.333 37.667 -91 39z" />
    <glyph glyph-name="bar" unicode="|" horiz-adv-x="436" 
d="M155 -431v1922h129v-1922h-129z" />
    <glyph glyph-name="braceright" unicode="}" horiz-adv-x="561" 
d="M519 612l-29 -163.001c-37.333 -1.33301 -71.333 -13.333 -102 -36s-55.5 -56.167 -74.5 -100.5s-39.5 -128.166 -61.5 -251.499c-22 -120 -39 -201 -51 -243c-18.667 -64.667 -44.667 -118.334 -78 -161.001c-24.667 -31.333 -54 -53.833 -88 -67.5
s-77 -20.5 -129 -20.5h-46l28 157h25c44.667 0 77 6.16699 97 18.5s36 32.5 48 60.5s27 95 45 201c25.333 142 48.5 241.667 69.5 299s47.5 103.833 79.5 139.5s70.667 64.167 116 85.5c-42 27.333 -71.833 58.333 -89.5 93s-26.5 80 -26.5 136c0 59.333 12 158 36 296
c17.333 97.333 26 160.333 26 189c0 32.667 -8.16699 55.834 -24.5 69.501s-47.166 20.5 -92.499 20.5h-26l28 157h46c56 0 97 -6.66699 123 -20s46.833 -35.333 62.5 -66s23.5 -68.667 23.5 -114c0 -51.333 -12.333 -148.666 -37 -291.999
c-18.667 -108 -28 -181.667 -28 -221c0 -52.667 13 -95.334 39 -128.001c19.333 -24 49.666 -36.667 90.999 -38z" />
    <glyph glyph-name="asciitilde" unicode="~" horiz-adv-x="981" 
d="M72 557l-0.00292969 204.999c58 80 134 120 228 120c30.667 0 64.167 -5.66699 100.5 -17s88.5 -34.666 156.5 -69.999c60.667 -31.333 108 -47 142 -47c32.667 0 64.334 9.33301 95.001 28c43.333 27.333 82.333 63.666 117 108.999v-212
c-68 -76 -143.667 -114 -227 -114c-32 0 -62.667 4.33301 -92 13s-73.666 29.334 -132.999 62.001c-72 39.333 -129.667 59 -173 59c-33.333 0 -65.666 -9 -96.999 -27s-70.333 -54.333 -117 -109z" />
    <glyph glyph-name="exclamdown" unicode="&#xa1;" horiz-adv-x="559" 
d="M467 1062l-35 -205h-168l35 205h168zM373 692l-91 -796l-51 -300h-180l56 325l173 771h93z" />
    <glyph glyph-name="cent" unicode="&#xa2;" 
d="M278 27c-100.667 71.333 -151.004 195.998 -151.004 373.998c0 135.333 22.167 258.333 66.5 369s100.333 191 168 241s142.834 75 225.501 75c16 0 32.333 -1.33301 49 -4l138 404l87 -45l-132 -389c108.667 -58 162.334 -164 161.001 -318l-146 -12
c0 44.667 -5.5 80.334 -16.5 107.001s-27.833 50.334 -50.5 71.001l-264 -780c12.667 -2.66699 24.334 -4 35.001 -4c48 0 94 22.333 138 67s78.333 112.667 103 204l149 -19c-37.333 -132.667 -90.666 -231.167 -159.999 -295.5s-147 -96.5 -233 -96.5
c-26 0 -51.667 3.33301 -77 10l-133 -393l-89 47zM329.996 179.998l257.001 757h-13c-52 0 -98.833 -17.5 -140.5 -52.5s-75.834 -92.833 -102.501 -173.5c-36 -108 -54 -216 -54 -324c0 -92.667 17.667 -161.667 53 -207z" />
    <glyph glyph-name="sterling" unicode="&#xa3;" 
d="M70 -25l-16.998 177.001c56 44 103.333 91.5 142 142.5s67 103.5 85 157.5s27 104.667 27 152c0 10.667 -1 26.334 -3 47.001h-182l26 151h142c-10 90.667 -15 166.334 -15 227.001c0 135.333 39.167 246.166 117.5 332.499s171.833 129.5 280.5 129.5
c89.333 0 166.666 -32 231.999 -96s104 -161.667 116 -293l-136 -17c-8.66699 87.333 -32.5 152.666 -71.5 195.999s-86.833 65 -143.5 65c-64.667 0 -121.334 -30.5 -170.001 -91.5s-73 -147.167 -73 -258.5c0 -46 5.33301 -110.667 16 -194h238l-26 -151h-206l1 -44
c0 -76.667 -14.333 -148.167 -43 -214.5s-72.334 -126.5 -131.001 -180.5c29.333 4.66699 50.666 7 63.999 7c44 0 78.5 -2.5 103.5 -7.5s58.5 -16.167 100.5 -33.5c48 -19.333 87.333 -29 118 -29c61.333 0 121.333 21 180 63l45 -163
c-83.333 -49.333 -156.333 -74 -219 -74c-41.333 0 -92 15 -152 45c-71.333 36 -134.666 54 -189.999 54c-45.333 0 -86.666 -6.83301 -123.999 -20.5s-81.333 -39.834 -132 -78.501z" />
    <glyph glyph-name="currency" unicode="&#xa4;" 
d="M172 961l-114 136l94 119l114 -139c28.667 24 59.167 42 91.5 54s66.833 18 103.5 18s71.167 -6 103.5 -18s62.5 -30 90.5 -54l114 139l95 -119l-114 -136c38.667 -73.333 58 -151.666 58 -234.999s-19.333 -162 -58 -236l114 -136l-95 -119l-114 140
c-28 -24 -58.167 -42.167 -90.5 -54.5s-66.833 -18.5 -103.5 -18.5s-71.167 6.16699 -103.5 18.5s-62.833 30.5 -91.5 54.5l-114 -140l-94 119l114 136c-38.667 74 -58 152.667 -58 236s19.333 161.666 58 234.999zM247 726c0 -74.667 21.333 -136.667 64 -186
s92.334 -74 149.001 -74s106.334 24.667 149.001 74s64 111.333 64 186c0 74 -21.333 135.667 -64 185s-92.334 74 -149.001 74s-106.334 -24.667 -149.001 -74s-64 -111 -64 -185z" />
    <glyph glyph-name="yen" unicode="&#xa5;" 
d="M341 0l56 327h-336l24 138h335l26 147h-336l23 138h282l-224 716h149l96 -315c60.667 -202.667 96.667 -329 108 -379c22 62 57.333 133.333 106 214l286 480h184l-444 -716h274l-23 -138h-333l-25 -147h333l-24 -138h-333l-56 -327h-148z" />
    <glyph glyph-name="brokenbar" unicode="&#xa6;" horiz-adv-x="436" 
d="M284 1491v-790h-129v790h129zM284 360v-791h-129v791h129z" />
    <glyph glyph-name="section" unicode="&#xa7;" 
d="M51 -90l135.996 42.0049c14 -82 42 -143.833 84 -185.5s89.667 -62.5 143 -62.5c51.333 0 95 18.5 131 55.5s54 81.833 54 134.5c0 38 -11.167 74.667 -33.5 110s-105.166 122.666 -248.499 261.999c-71.333 70 -121 129 -149 177s-42 103.333 -42 166
c0 70.667 17.167 133.5 51.5 188.5s94.833 109.167 181.5 162.5c-42.667 64 -64 131 -64 201c0 99.333 29.333 179.166 88 239.499s136.334 90.5 233.001 90.5c91.333 0 163 -25.833 215 -77.5s85.667 -138.834 101 -261.501l-148 -21
c-0.666992 70.667 -17.5 124.167 -50.5 160.5s-75.833 54.5 -128.5 54.5c-48 0 -88.333 -17 -121 -51s-49 -77 -49 -129c0 -36.667 11.5 -75.834 34.5 -117.501s72.5 -100.167 148.5 -175.5c126 -124 202.5 -209.333 229.5 -256s40.5 -97.667 40.5 -153
c0 -64.667 -19.167 -126.834 -57.5 -186.501s-95.166 -111.5 -170.499 -155.5c54.667 -74 82 -150 82 -228c0 -92 -31 -169.167 -93 -231.5s-140.333 -93.5 -235 -93.5c-92 0 -170.667 29.667 -236 89s-107.666 143.333 -126.999 252zM585.996 217.005
c55.333 31.333 96.5 67.001 123.5 107.001s40.5 79 40.5 117c0 32 -6.66699 59.667 -20 83s-52.333 67.666 -117 132.999c-92 93.333 -156.667 165.333 -194 216c-106 -73.333 -159 -155 -159 -245c0 -30.667 8.16699 -61.5 24.5 -92.5s57.5 -78.5 123.5 -142.5z" />
    <glyph glyph-name="dieresis" unicode="&#xa8;" horiz-adv-x="559" 
d="M195 1227l35 205h155l-35 -205h-155zM497 1227l36 205h154l-35 -205h-155z" />
    <glyph glyph-name="copyright" unicode="&#xa9;" horiz-adv-x="1237" 
d="M2 736c0 138.667 30.833 269.5 92.5 392.5s137.667 214.167 228 273.5s189.833 89 298.5 89c108 0 207.333 -29.667 298 -89s166.834 -150.5 228.501 -273.5s92.5 -253.833 92.5 -392.5c0 -138 -30.833 -268.5 -92.5 -391.5s-137.834 -214.167 -228.501 -273.5
s-190 -89 -298 -89c-108.667 0 -208.167 29.667 -298.5 89s-166.333 150.5 -228 273.5s-92.5 253.5 -92.5 391.5zM106 736c0 -115.333 25.667 -224.333 77 -327s114.666 -178.834 189.999 -228.501s158 -74.5 248 -74.5s172.667 24.833 248 74.5
s138.666 125.834 189.999 228.501s77 211.667 77 327c0 116 -25.667 225.333 -77 328s-114.666 178.834 -189.999 228.501s-158 74.5 -248 74.5s-172.667 -24.833 -248 -74.5s-138.666 -125.834 -189.999 -228.501s-77 -212 -77 -328zM819 614l100.998 -36
c-16.667 -86.667 -52.167 -154 -106.5 -202s-118.166 -72 -191.499 -72c-93.333 0 -170.833 37.167 -232.5 111.5s-92.5 180.166 -92.5 317.499c0 138.667 30.5 244.5 91.5 317.5s140.167 109.5 237.5 109.5c70.667 0 130.667 -20.5 180 -61.5s83.333 -99.167 102 -174.5
l-98 -29c-16.667 50.667 -41.167 88.834 -73.5 114.501s-69.5 38.5 -111.5 38.5c-61.333 0 -112.666 -27 -153.999 -81s-62 -133.333 -62 -238c0 -102 19.667 -178.833 59 -230.5s88 -77.5 146 -77.5c49.333 0 92.833 16.833 130.5 50.5s62.5 81.167 74.5 142.5z" />
    <glyph glyph-name="ordfeminine" unicode="&#xaa;" horiz-adv-x="621" 
d="M512 823c-22 -24 -51.001 -44.499 -87.001 -61.499s-70.333 -25.5 -103 -25.5c-54.667 0 -99.167 18.833 -133.5 56.5s-51.5 86.834 -51.5 147.501c0 73.333 21 129.666 63 168.999s114.333 62.666 217 69.999c57.333 4 105 11.333 143 22c7.33301 30 11 52 11 66
c0 30 -10.333 54.667 -31 74s-47.667 29 -81 29c-71.333 0 -121.666 -40 -150.999 -120l-115 23c53.333 145.333 142.666 218 267.999 218c70.667 0 126.167 -18.5 166.5 -55.5s60.5 -84.833 60.5 -143.5c0 -52 -15 -144 -45 -276c-16 -70.667 -24 -124.667 -24 -162
c0 -38.667 5.33301 -71 16 -97h-113c-3.33301 14.667 -6.66602 36.667 -9.99902 66zM536.999 1087c-30.667 -10.667 -67.667 -18.6689 -111 -24.002c-70 -7.33301 -116 -19.666 -138 -36.999c-22.667 -18 -34 -43.333 -34 -76c0 -27.333 8.83301 -49.833 26.5 -67.5
s38.5 -26.5 62.5 -26.5c44 0 83.667 18.333 119 55s60.333 95.334 75 176.001z" />
    <glyph glyph-name="guillemotleft" unicode="&#xab;" 
d="M287 527l130 -455h-112l-173 477l329 431h117zM611 527l128 -455h-120l-162 479l318 429h127z" />
    <glyph glyph-name="logicalnot" unicode="&#xac;" horiz-adv-x="981" 
d="M887 424h-140v438h-654v168h794v-606z" />
    <glyph glyph-name="registered" unicode="&#xae;" horiz-adv-x="1237" 
d="M2 736c0 138.667 30.833 269.5 92.5 392.5s137.667 214.167 228 273.5s189.833 89 298.5 89c108 0 207.333 -29.667 298 -89s166.834 -150.5 228.501 -273.5s92.5 -253.833 92.5 -392.5c0 -138 -30.833 -268.5 -92.5 -391.5s-137.834 -214.167 -228.501 -273.5
s-190 -89 -298 -89c-108.667 0 -208.167 29.667 -298.5 89s-166.333 150.5 -228 273.5s-92.5 253.5 -92.5 391.5zM106 736c0 -115.333 25.667 -224.333 77 -327s114.666 -178.834 189.999 -228.501s158 -74.5 248 -74.5s172.667 24.833 248 74.5
s138.666 125.834 189.999 228.501s77 211.667 77 327c0 116 -25.667 225.333 -77 328s-114.666 178.834 -189.999 228.501s-158 74.5 -248 74.5s-172.667 -24.833 -248 -74.5s-138.666 -125.834 -189.999 -228.501s-77 -212 -77 -328zM349 319l-0.000976562 812.002h230
c78.667 0 134.667 -7.33301 168 -22s61 -40.167 83 -76.5s33 -77.5 33 -123.5c0 -61.333 -18 -113.333 -54 -156s-81.333 -66.334 -136 -71.001c24.667 -12.667 44.334 -28 59.001 -46c27.333 -34.667 59.333 -87.334 96 -158.001l80 -159h-130l-60 128
c-45.333 98 -82 160.333 -110 187c-20 20 -49 30 -87 30h-64v-345h-108zM456.999 776.002h131c58.667 0 100.167 10.5 124.5 31.5s36.5 51.5 36.5 91.5c0 26.667 -6 49.667 -18 69s-27.833 33 -47.5 41s-54.5 12 -104.5 12h-122v-245z" />
    <glyph glyph-name="overscore" unicode="&#xaf;" horiz-adv-x="1024" 
d="M181 1722h1048v-103h-1048v103z" />
    <glyph glyph-name="degree" unicode="&#xb0;" horiz-adv-x="819" 
d="M273 1214c0 76.667 27.167 142 81.5 196s119.5 81 195.5 81c77.333 0 143 -27 197 -81s81 -119.333 81 -196s-27.167 -142.167 -81.5 -196.5s-119.833 -81.5 -196.5 -81.5c-76 0 -141.167 27 -195.5 81s-81.5 119.667 -81.5 197zM382 1214
c0 -46.667 16.5 -86.5 49.5 -119.5s72.833 -49.5 119.5 -49.5c46 0 85.5 16.5 118.5 49.5s49.5 72.833 49.5 119.5s-16.5 86.5 -49.5 119.5s-72.5 49.5 -118.5 49.5c-46.667 0 -86.5 -16.5 -119.5 -49.5s-49.5 -72.833 -49.5 -119.5z" />
    <glyph glyph-name="plusminus" unicode="&#xb1;" horiz-adv-x="1124" 
d="M477 260v403h-399v167h399v399h170v-399h399v-167h-399v-403h-170zM1046 0h-968v168h968v-168z" />
    <glyph glyph-name="twosuperior" unicode="&#xb2;" horiz-adv-x="559" 
d="M125 733c18 72.667 48.498 137.67 91.498 195.003s110.5 117.666 202.5 180.999c54 37.333 87 63.666 99 78.999c21.333 26 32 53.667 32 83c0 26.667 -9.16699 48.667 -27.5 66s-43.166 26 -74.499 26c-38 0 -67.833 -8.83301 -89.5 -26.5
s-38.167 -46.834 -49.5 -87.501l-125 15c33.333 146.667 121 220 263 220c71.333 0 127 -19.167 167 -57.5s60 -89.5 60 -153.5c0 -54 -16.667 -103.333 -50 -148c-24 -32.667 -77 -79 -159 -139c-75.333 -54.667 -123.666 -98.667 -144.999 -132h311l-21 -121h-485z" />
    <glyph glyph-name="threesuperior" unicode="&#xb3;" horiz-adv-x="559" 
d="M138 930l117.001 16.001c24.667 -74 69.334 -111 134.001 -111c38 0 68.167 11.5 90.5 34.5s33.5 52.833 33.5 89.5c0 33.333 -9.33301 58.833 -28 76.5s-47.334 26.5 -86.001 26.5h-34l19 107l27 -1c36 0 67.5 9.66699 94.5 29s40.5 47.333 40.5 84
c0 28 -9.16699 50.833 -27.5 68.5s-42.833 26.5 -73.5 26.5c-60 0 -101 -34 -123 -102l-121 19c14.667 59.333 43.167 106 85.5 140s94.833 51 157.5 51c71.333 0 127 -18.167 167 -54.5s60 -83.833 60 -142.5c0 -90.667 -46 -149.334 -138 -176.001
c40 -19.333 68.167 -42.5 84.5 -69.5s24.5 -60.167 24.5 -99.5c0 -62.667 -23.333 -116.167 -70 -160.5s-106.334 -66.5 -179.001 -66.5c-64 0 -119 19.5 -165 58.5s-76 91.167 -90 156.5z" />
    <glyph glyph-name="acute" unicode="&#xb4;" horiz-adv-x="559" 
d="M283 1191l154 275h187l-218 -275h-123z" />
    <glyph glyph-name="mu1" unicode="&#xb5;" horiz-adv-x="1180" 
d="M323 1062l179.002 0.000976562l-106 -499c-26 -121.333 -39 -206.333 -39 -255c0 -53.333 17.667 -96.833 53 -130.5s83.666 -50.5 144.999 -50.5c82 0 151.667 29.667 209 89c42.667 45.333 78.667 136.666 108 273.999l120 572h179l-226 -1062h-161l18 84
c-90.667 -72.667 -179.334 -109 -266.001 -109c-49.333 0 -92.5 10 -129.5 30s-73.167 51.667 -108.5 95l-108 -510h-178z" />
    <glyph glyph-name="paragraph" unicode="&#xb6;" horiz-adv-x="901" 
d="M337 -407v1045c-98.667 6 -178.667 45 -240 117s-92 168.333 -92 289c0 88.667 16 165.334 48 230.001s76.167 112.834 132.5 144.501s125.5 47.5 207.5 47.5h518v-173h-117v-1700h-140v1700h-182v-1700h-135z" />
    <glyph glyph-name="middot" unicode="&#xb7;" horiz-adv-x="559" 
d="M435 630l35 205h168l-35 -205h-168z" />
    <glyph glyph-name="cedilla" unicode="&#xb8;" horiz-adv-x="559" 
d="M207 -149l33 161.001h115l-20 -90c46 -8 82.167 -27.5 108.5 -58.5s39.5 -68.167 39.5 -111.5c0 -52.667 -22.333 -95.334 -67 -128.001s-115.667 -49 -213 -49c-53.333 0 -100 4 -140 12l18 112c33.333 -2 73 -3 119 -3c52 0 88.333 6.66699 109 20s31 30.666 31 51.999
c0 23.333 -10.833 42.833 -32.5 58.5s-55.167 23.834 -100.5 24.501z" />
    <glyph glyph-name="onesuperior" unicode="&#xb9;" horiz-adv-x="559" 
d="M343 733l91.001 532c-56 -48 -124.667 -82 -206 -102l22 127c44 16 94 44.667 150 86c41.333 30.667 75.666 66.667 102.999 108h91l-128 -751h-123z" />
    <glyph glyph-name="ordmasculine" unicode="&#xba;" horiz-adv-x="612" 
d="M117 1068c0 98.667 28.499 193.832 85.499 285.499s133.833 137.5 230.5 137.5c74 0 135.5 -28.333 184.5 -85s73.5 -132.667 73.5 -228c0 -104 -27.667 -203.333 -83 -298s-130.666 -142 -225.999 -142c-85.333 0 -150.833 28.333 -196.5 85
s-68.5 138.334 -68.5 245.001zM237.999 1073c0 -64.667 10.002 -112.334 30.002 -143.001c26 -40.667 60 -61 102 -61c29.333 0 59.166 11.667 89.499 35s56.333 61 78 113s32.5 106.333 32.5 163c0 54.667 -13.333 98.334 -40 131.001s-59 49 -97 49
c-28.667 0 -57.334 -11.333 -86.001 -34s-54 -59 -76 -109s-33 -98 -33 -144z" />
    <glyph glyph-name="guillemotright" unicode="&#xbb;" 
d="M370 521l-121 459h118l157 -483l-321 -425h-134zM690 513l-122 467h112l169 -485l-334 -423h-118z" />
    <glyph glyph-name="onequarter" unicode="&#xbc;" horiz-adv-x="1401" 
d="M344 733l91.001 532c-56 -48 -124.667 -82 -206 -102l22 127c44 16 94 44.667 150 86c41.333 30.667 75.666 66.667 102.999 108h91l-128 -751h-123zM140.001 -61l1145 1552h143l-1155 -1552h-133zM1116 -35l26 153h-317l21 120l419 478h96l-81 -484h82l-21 -114h-82
l-26 -153h-117zM1163 232l52 265l-234 -265h182z" />
    <glyph glyph-name="onehalf" unicode="&#xbd;" horiz-adv-x="1401" 
d="M343 733l91.001 532c-56 -48 -124.667 -82 -206 -102l22 127c44 16 94 44.667 150 86c41.333 30.667 75.666 66.667 102.999 108h91l-128 -751h-123zM100.001 -61l1145 1552h143l-1155 -1552h-133zM835.001 -35c18 72.667 48.498 137.67 91.498 195.003
s110.5 117.666 202.5 180.999c54 37.333 87 63.666 99 78.999c21.333 26 32 53.667 32 83c0 26.667 -9.16699 48.667 -27.5 66s-43.166 26 -74.499 26c-38 0 -67.833 -8.83301 -89.5 -26.5s-38.167 -46.834 -49.5 -87.501l-125 15c33.333 146.667 121 220 263 220
c71.333 0 127 -19.167 167 -57.5s60 -89.5 60 -153.5c0 -54 -16.667 -103.333 -50 -148c-24 -32.667 -77 -79 -159 -139c-75.333 -54.667 -123.666 -98.667 -144.999 -132h311l-21 -121h-485z" />
    <glyph glyph-name="threequarters" unicode="&#xbe;" horiz-adv-x="1401" 
d="M138 930l117.001 16.001c24.667 -74 69.334 -111 134.001 -111c38 0 68.167 11.5 90.5 34.5s33.5 52.833 33.5 89.5c0 33.333 -9.33301 58.833 -28 76.5s-47.334 26.5 -86.001 26.5h-34l19 107l27 -1c36 0 67.5 9.66699 94.5 29s40.5 47.333 40.5 84
c0 28 -9.16699 50.833 -27.5 68.5s-42.833 26.5 -73.5 26.5c-60 0 -101 -34 -123 -102l-121 19c14.667 59.333 43.167 106 85.5 140s94.833 51 157.5 51c71.333 0 127 -18.167 167 -54.5s60 -83.833 60 -142.5c0 -90.667 -46 -149.334 -138 -176.001
c40 -19.333 68.167 -42.5 84.5 -69.5s24.5 -60.167 24.5 -99.5c0 -62.667 -23.333 -116.167 -70 -160.5s-106.334 -66.5 -179.001 -66.5c-64 0 -119 19.5 -165 58.5s-76 91.167 -90 156.5zM164.001 -60.999l1145 1552h143l-1155 -1552h-133zM1115 -34.999l26 153h-317
l21 120l419 478h96l-81 -484h82l-21 -114h-82l-26 -153h-117zM1162 232.001l52 265l-234 -265h182z" />
    <glyph glyph-name="questiondown" unicode="&#xbf;" horiz-adv-x="1026" 
d="M757 1062l-35 -205h-168l36 205h167zM684 695c-5.33301 -62.667 -17.166 -118.5 -35.499 -167.5s-46.5 -98.5 -84.5 -148.5c-18 -24.667 -61.333 -71 -130 -139c-79.333 -78 -131.166 -140.5 -155.499 -187.5s-36.5 -92.167 -36.5 -135.5c0 -56.667 19 -104.5 57 -143.5
s83.667 -58.5 137 -58.5c62 0 113.833 23.833 155.5 71.5s69.5 127.834 83.5 240.501l148 -30c-23.333 -144.667 -69.333 -251.834 -138 -321.501s-150 -104.5 -244 -104.5c-98.667 0 -181 33.833 -247 101.5s-99 153.5 -99 257.5c0 76.667 21.333 149.334 64 218.001
c31.333 49.333 97.666 123.666 198.999 222.999c70 68.667 116.167 123.167 138.5 163.5s38.166 93.833 47.499 160.5h140z" />
    <glyph glyph-name="Agrave" unicode="&#xc0;" horiz-adv-x="1120" 
d="M-33 0l681 1466h190l198 -1466h-156l-58 422h-486l-193 -422h-176zM405 573h397.001l-46 368c-18 145.333 -29.333 267 -34 365c-26.667 -84 -66.334 -183.667 -119.001 -299zM746.001 1562l-160 275h180l96 -275h-116z" />
    <glyph glyph-name="Aacute" unicode="&#xc1;" horiz-adv-x="1120" 
d="M-33 0l681 1466h190l198 -1466h-156l-58 422h-486l-193 -422h-176zM405 573h397.001l-46 368c-18 145.333 -29.333 267 -34 365c-26.667 -84 -66.334 -183.667 -119.001 -299zM625.001 1562l154 275h187l-218 -275h-123z" />
    <glyph glyph-name="Acircumflex" unicode="&#xc2;" horiz-adv-x="1120" 
d="M-33 0l681 1466h190l198 -1466h-156l-58 422h-486l-193 -422h-176zM405 573h397.001l-46 368c-18 145.333 -29.333 267 -34 365c-26.667 -84 -66.334 -183.667 -119.001 -299zM509.001 1562l217 275h164l102 -275h-130l-65 178l-136 -178h-152z" />
    <glyph glyph-name="Atilde" unicode="&#xc3;" horiz-adv-x="1120" 
d="M-33 0l681 1466h190l198 -1466h-156l-58 422h-486l-193 -422h-176zM405 573h397.001l-46 368c-18 145.333 -29.333 267 -34 365c-26.667 -84 -66.334 -183.667 -119.001 -299zM499.001 1594c18 88 40.167 147.332 66.5 177.999s59.5 46 99.5 46
c18 0 35.5 -2.66699 52.5 -8s45.833 -18.666 86.5 -39.999c45.333 -24.667 75.666 -37 90.999 -37c28.667 0 48.334 26.333 59.001 79h99c-6 -70 -24.5 -124 -55.5 -162s-66.167 -57 -105.5 -57c-22 0 -49.667 8.66699 -83 26c-75.333 40 -122 60 -140 60
c-36 0 -58.333 -28.333 -67 -85h-103z" />
    <glyph glyph-name="Adieresis" unicode="&#xc4;" horiz-adv-x="1120" 
d="M-33 0l681 1466h190l198 -1466h-156l-58 422h-486l-193 -422h-176zM405 573h397.001l-46 368c-18 145.333 -29.333 267 -34 365c-26.667 -84 -66.334 -183.667 -119.001 -299zM536.001 1598l35 205h155l-35 -205h-155zM838.001 1598l36 205h154l-35 -205h-155z" />
    <glyph glyph-name="Aring" unicode="&#xc5;" horiz-adv-x="1120" 
d="M-33 0l681 1466h190l198 -1466h-156l-58 422h-486l-193 -422h-176zM405 573h397.001l-46 368c-18 145.333 -29.333 267 -34 365c-26.667 -84 -66.334 -183.667 -119.001 -299zM610.001 1691c0 52 14.999 95.333 44.999 130s64.667 52 104 52c40 0 75 -17.333 105 -52
s45 -78 45 -130c0 -52.667 -15.167 -96.167 -45.5 -130.5s-65.166 -51.5 -104.499 -51.5s-74 17.167 -104 51.5s-45 77.833 -45 130.5zM671 1691c0 -30.667 8.83301 -56.332 26.5 -76.999s38.167 -31 61.5 -31s43.833 10.167 61.5 30.5s26.5 46.166 26.5 77.499
c0 30.667 -8.66699 56.167 -26 76.5s-38 30.5 -62 30.5c-23.333 0 -43.833 -10.167 -61.5 -30.5s-26.5 -45.833 -26.5 -76.5z" />
    <glyph glyph-name="AE" unicode="&#xc6;" horiz-adv-x="1679" 
d="M-68 0l740 1466h1080l-28 -167h-620l-78 -456h627l-28 -166h-628l-87 -511h692l-29 -166h-861l72 418h-464l-205 -418h-183zM403 584h409l123 715h-173z" />
    <glyph glyph-name="Ccedilla" unicode="&#xc7;" horiz-adv-x="1212" 
d="M1012 516l159.001 -27.001c-50.667 -172 -124.834 -300.667 -222.501 -386s-204.5 -128 -320.5 -128c-142 0 -256.833 53 -344.5 159s-131.5 262.667 -131.5 470c0 242 55 446.667 165 614c119.333 182 273.666 273 462.999 273c121.333 0 222.833 -40.333 304.5 -121
s128.834 -194 141.501 -340l-150 -17c-31.333 210.667 -128 316 -290 316c-141.333 0 -255.666 -72.167 -342.999 -216.5s-131 -315.166 -131 -512.499c0 -153.333 31 -268.833 93 -346.5s140.333 -116.5 235 -116.5c81.333 0 152.666 29.333 213.999 88
c75.333 72 128 169 158 291zM513.001 -155.001l33 161.001h115l-20 -90c46 -8 82.167 -27.5 108.5 -58.5s39.5 -68.167 39.5 -111.5c0 -52.667 -22.333 -95.334 -67 -128.001s-115.667 -49 -213 -49c-53.333 0 -100 4 -140 12l18 112c33.333 -2 73 -3 119 -3
c52 0 88.333 6.66699 109 20s31 30.666 31 51.999c0 23.333 -10.833 42.833 -32.5 58.5s-55.167 23.834 -100.5 24.501z" />
    <glyph glyph-name="Egrave" unicode="&#xc8;" horiz-adv-x="1120" 
d="M76 0l251 1466h868l-28 -167h-708l-78 -456h688l-28 -167h-688l-88 -510h757l-29 -166h-917zM746 1562l-160 275h180l96 -275h-116z" />
    <glyph glyph-name="Eacute" unicode="&#xc9;" horiz-adv-x="1120" 
d="M76 0l251 1466h868l-28 -167h-708l-78 -456h688l-28 -167h-688l-88 -510h757l-29 -166h-917zM625 1562l154 275h187l-218 -275h-123z" />
    <glyph glyph-name="Ecircumflex" unicode="&#xca;" horiz-adv-x="1120" 
d="M76 0l251 1466h868l-28 -167h-708l-78 -456h688l-28 -167h-688l-88 -510h757l-29 -166h-917zM509 1562l217 275h164l102 -275h-130l-65 178l-136 -178h-152z" />
    <glyph glyph-name="Edieresis" unicode="&#xcb;" horiz-adv-x="1120" 
d="M76 0l251 1466h868l-28 -167h-708l-78 -456h688l-28 -167h-688l-88 -510h757l-29 -166h-917zM536 1598l35 205h155l-35 -205h-155zM838 1598l36 205h154l-35 -205h-155z" />
    <glyph glyph-name="Igrave" unicode="&#xcc;" horiz-adv-x="467" 
d="M96 0l251 1466h161l-251 -1466h-161zM422 1562l-160 275h180l96 -275h-116z" />
    <glyph glyph-name="Iacute" unicode="&#xcd;" horiz-adv-x="467" 
d="M96 0l251 1466h161l-251 -1466h-161zM300 1562l154 275h187l-218 -275h-123z" />
    <glyph glyph-name="Icircumflex" unicode="&#xce;" horiz-adv-x="467" 
d="M96 0l251 1466h161l-251 -1466h-161zM185 1562l217 275h164l102 -275h-130l-65 178l-136 -178h-152z" />
    <glyph glyph-name="Idieresis" unicode="&#xcf;" horiz-adv-x="467" 
d="M96 0l251 1466h161l-251 -1466h-161zM212 1598l35 205h155l-35 -205h-155zM514 1598l36 205h154l-35 -205h-155z" />
    <glyph glyph-name="Eth" unicode="&#xd0;" horiz-adv-x="1212" 
d="M75 0l116 666.001h-130l23 134h130l116 666h358c85.333 0 147.333 -5.66699 186 -17c60 -16.667 115 -49.834 165 -99.501s88.667 -115.5 116 -197.5s41 -177.333 41 -286c0 -142 -21.833 -270.833 -65.5 -386.5s-97.667 -211.167 -162 -286.5s-139.833 -128 -226.5 -158
c-64.667 -23.333 -143 -35 -235 -35h-432zM264 166.001h190c90 0 166.333 9.5 229 28.5s118.5 56.167 167.5 111.5s91.5 132.666 127.5 231.999s54 212 54 338c0 111.333 -15.833 199.833 -47.5 265.5s-74.5 109.834 -128.5 132.501c-39.333 16.667 -101 25 -185 25h-210
l-86 -499h331l-23 -134h-332z" />
    <glyph glyph-name="Ntilde" unicode="&#xd1;" horiz-adv-x="1212" 
d="M81 0l251 1466h157l202 -550c60 -162 107 -297.667 141 -407c24 -75.333 50 -171 78 -287c15.333 126 34 253.333 56 382l148 862h156l-251 -1466h-159l-299 847c-52.667 150.667 -94 282.334 -124 395.001c-7.33301 -95.333 -23 -212.333 -47 -351l-153 -891h-156z
M541 1594c18 88 40.167 147.332 66.5 177.999s59.5 46 99.5 46c18 0 35.5 -2.66699 52.5 -8s45.833 -18.666 86.5 -39.999c45.333 -24.667 75.666 -37 90.999 -37c28.667 0 48.334 26.333 59.001 79h99c-6 -70 -24.5 -124 -55.5 -162s-66.167 -57 -105.5 -57
c-22 0 -49.667 8.66699 -83 26c-75.333 40 -122 60 -140 60c-36 0 -58.333 -28.333 -67 -85h-103z" />
    <glyph glyph-name="Ograve" unicode="&#xd2;" horiz-adv-x="1307" 
d="M154 614c0 268.667 67.001 486.667 201.001 654c119.333 148.667 264.666 223 435.999 223c144 0 264.5 -58 361.5 -174s145.5 -277.333 145.5 -484c0 -166 -31.667 -316.5 -95 -451.5s-143.333 -236.5 -240 -304.5s-198.334 -102 -305.001 -102
c-92.667 0 -176.167 24.667 -250.5 74s-135.166 124 -182.499 224s-71 213.667 -71 341zM312.001 604c0 -142 35.332 -255.333 105.999 -340s154.334 -127 251.001 -127c73.333 0 145.5 27 216.5 81s130.833 138.833 179.5 254.5s73 241.834 73 378.501
c0 148 -34.5 264.5 -103.5 349.5s-152.5 127.5 -250.5 127.5c-113.333 0 -215.333 -55.667 -306 -167c-110.667 -136.667 -166 -322.334 -166 -557.001zM842 1562l-160 275h180l96 -275h-116z" />
    <glyph glyph-name="Oacute" unicode="&#xd3;" horiz-adv-x="1307" 
d="M154 614c0 268.667 67.001 486.667 201.001 654c119.333 148.667 264.666 223 435.999 223c144 0 264.5 -58 361.5 -174s145.5 -277.333 145.5 -484c0 -166 -31.667 -316.5 -95 -451.5s-143.333 -236.5 -240 -304.5s-198.334 -102 -305.001 -102
c-92.667 0 -176.167 24.667 -250.5 74s-135.166 124 -182.499 224s-71 213.667 -71 341zM312.001 604c0 -142 35.332 -255.333 105.999 -340s154.334 -127 251.001 -127c73.333 0 145.5 27 216.5 81s130.833 138.833 179.5 254.5s73 241.834 73 378.501
c0 148 -34.5 264.5 -103.5 349.5s-152.5 127.5 -250.5 127.5c-113.333 0 -215.333 -55.667 -306 -167c-110.667 -136.667 -166 -322.334 -166 -557.001zM721 1562l154 275h187l-218 -275h-123z" />
    <glyph glyph-name="Ocircumflex" unicode="&#xd4;" horiz-adv-x="1307" 
d="M154 614c0 268.667 67.001 486.667 201.001 654c119.333 148.667 264.666 223 435.999 223c144 0 264.5 -58 361.5 -174s145.5 -277.333 145.5 -484c0 -166 -31.667 -316.5 -95 -451.5s-143.333 -236.5 -240 -304.5s-198.334 -102 -305.001 -102
c-92.667 0 -176.167 24.667 -250.5 74s-135.166 124 -182.499 224s-71 213.667 -71 341zM312.001 604c0 -142 35.332 -255.333 105.999 -340s154.334 -127 251.001 -127c73.333 0 145.5 27 216.5 81s130.833 138.833 179.5 254.5s73 241.834 73 378.501
c0 148 -34.5 264.5 -103.5 349.5s-152.5 127.5 -250.5 127.5c-113.333 0 -215.333 -55.667 -306 -167c-110.667 -136.667 -166 -322.334 -166 -557.001zM605 1562l217 275h164l102 -275h-130l-65 178l-136 -178h-152z" />
    <glyph glyph-name="Otilde" unicode="&#xd5;" horiz-adv-x="1307" 
d="M154 614c0 268.667 67.001 486.667 201.001 654c119.333 148.667 264.666 223 435.999 223c144 0 264.5 -58 361.5 -174s145.5 -277.333 145.5 -484c0 -166 -31.667 -316.5 -95 -451.5s-143.333 -236.5 -240 -304.5s-198.334 -102 -305.001 -102
c-92.667 0 -176.167 24.667 -250.5 74s-135.166 124 -182.499 224s-71 213.667 -71 341zM312.001 604c0 -142 35.332 -255.333 105.999 -340s154.334 -127 251.001 -127c73.333 0 145.5 27 216.5 81s130.833 138.833 179.5 254.5s73 241.834 73 378.501
c0 148 -34.5 264.5 -103.5 349.5s-152.5 127.5 -250.5 127.5c-113.333 0 -215.333 -55.667 -306 -167c-110.667 -136.667 -166 -322.334 -166 -557.001zM595 1594c18 88 40.167 147.332 66.5 177.999s59.5 46 99.5 46c18 0 35.5 -2.66699 52.5 -8
s45.833 -18.666 86.5 -39.999c45.333 -24.667 75.666 -37 90.999 -37c28.667 0 48.334 26.333 59.001 79h99c-6 -70 -24.5 -124 -55.5 -162s-66.167 -57 -105.5 -57c-22 0 -49.667 8.66699 -83 26c-75.333 40 -122 60 -140 60c-36 0 -58.333 -28.333 -67 -85h-103z" />
    <glyph glyph-name="Odieresis" unicode="&#xd6;" horiz-adv-x="1307" 
d="M154 614c0 268.667 67.001 486.667 201.001 654c119.333 148.667 264.666 223 435.999 223c144 0 264.5 -58 361.5 -174s145.5 -277.333 145.5 -484c0 -166 -31.667 -316.5 -95 -451.5s-143.333 -236.5 -240 -304.5s-198.334 -102 -305.001 -102
c-92.667 0 -176.167 24.667 -250.5 74s-135.166 124 -182.499 224s-71 213.667 -71 341zM312.001 604c0 -142 35.332 -255.333 105.999 -340s154.334 -127 251.001 -127c73.333 0 145.5 27 216.5 81s130.833 138.833 179.5 254.5s73 241.834 73 378.501
c0 148 -34.5 264.5 -103.5 349.5s-152.5 127.5 -250.5 127.5c-113.333 0 -215.333 -55.667 -306 -167c-110.667 -136.667 -166 -322.334 -166 -557.001zM632 1598l35 205h155l-35 -205h-155zM934 1598l36 205h154l-35 -205h-155z" />
    <glyph glyph-name="multiply" unicode="&#xd7;" horiz-adv-x="981" 
d="M130 409l259 315l-258 314l100 122l258 -314l256 313l99 -121l-257 -313l258 -314l-100 -122l-258 314l-258 -315z" />
    <glyph glyph-name="Oslash" unicode="&#xd8;" horiz-adv-x="1307" 
d="M280 175c-84.667 122.667 -127.002 277 -127.002 463c0 164.667 31.167 314.667 93.5 450s140.833 236.333 235.5 303s196.334 100 305.001 100c122.667 0 227 -39 313 -117l131 192l73 -79l-133 -195c84.667 -118 127 -273 127 -465c0 -162 -31.833 -310.667 -95.5 -446
s-143.667 -236.833 -240 -304.5s-198.166 -101.5 -305.499 -101.5c-116 0 -217.333 39 -304 117l-132 -195l-78 79zM378.998 320l625.001 914c-62.667 62.667 -134.334 94 -215.001 94c-76.667 0 -151.667 -27.333 -225 -82s-133.833 -137.5 -181.5 -248.5
s-71.5 -235.167 -71.5 -372.5c0 -121.333 22.667 -223 68 -305zM1071 1145l-623.001 -914.001c66.667 -62.667 140.334 -94 221.001 -94c73.333 0 145.333 27 216 81s130.5 138.833 179.5 254.5s73.5 241.834 73.5 378.501c0 111.333 -22.333 209.333 -67 294z" />
    <glyph glyph-name="Ugrave" unicode="&#xd9;" horiz-adv-x="1212" 
d="M333 1466h161l-155 -901c-12.667 -74.667 -19 -130.334 -19 -167.001c0 -75.333 25 -137.666 75 -186.999s114.333 -74 193 -74c104 0 188.667 42.667 254 128c50 65.333 92 196.666 126 393.999l138 807h160l-147 -860c-28 -166 -66 -291.667 -114 -377
s-106.833 -149.166 -176.5 -191.499s-147.834 -63.5 -234.501 -63.5c-133.333 0 -238.666 38.5 -315.999 115.5s-116 180.5 -116 310.5c0 52 11.333 140.667 34 266zM788 1562l-160 275h180l96 -275h-116z" />
    <glyph glyph-name="Uacute" unicode="&#xda;" horiz-adv-x="1212" 
d="M333 1466h161l-155 -901c-12.667 -74.667 -19 -130.334 -19 -167.001c0 -75.333 25 -137.666 75 -186.999s114.333 -74 193 -74c104 0 188.667 42.667 254 128c50 65.333 92 196.666 126 393.999l138 807h160l-147 -860c-28 -166 -66 -291.667 -114 -377
s-106.833 -149.166 -176.5 -191.499s-147.834 -63.5 -234.501 -63.5c-133.333 0 -238.666 38.5 -315.999 115.5s-116 180.5 -116 310.5c0 52 11.333 140.667 34 266zM667 1562l154 275h187l-218 -275h-123z" />
    <glyph glyph-name="Ucircumflex" unicode="&#xdb;" horiz-adv-x="1212" 
d="M333 1466h161l-155 -901c-12.667 -74.667 -19 -130.334 -19 -167.001c0 -75.333 25 -137.666 75 -186.999s114.333 -74 193 -74c104 0 188.667 42.667 254 128c50 65.333 92 196.666 126 393.999l138 807h160l-147 -860c-28 -166 -66 -291.667 -114 -377
s-106.833 -149.166 -176.5 -191.499s-147.834 -63.5 -234.501 -63.5c-133.333 0 -238.666 38.5 -315.999 115.5s-116 180.5 -116 310.5c0 52 11.333 140.667 34 266zM551 1562l217 275h164l102 -275h-130l-65 178l-136 -178h-152z" />
    <glyph glyph-name="Udieresis" unicode="&#xdc;" horiz-adv-x="1212" 
d="M333 1466h161l-155 -901c-12.667 -74.667 -19 -130.334 -19 -167.001c0 -75.333 25 -137.666 75 -186.999s114.333 -74 193 -74c104 0 188.667 42.667 254 128c50 65.333 92 196.666 126 393.999l138 807h160l-147 -860c-28 -166 -66 -291.667 -114 -377
s-106.833 -149.166 -176.5 -191.499s-147.834 -63.5 -234.501 -63.5c-133.333 0 -238.666 38.5 -315.999 115.5s-116 180.5 -116 310.5c0 52 11.333 140.667 34 266zM578 1598l35 205h155l-35 -205h-155zM880 1598l36 205h154l-35 -205h-155z" />
    <glyph glyph-name="Yacute" unicode="&#xdd;" horiz-adv-x="1120" 
d="M470 0l97 567l-370 899h172l178 -428c37.333 -90.667 75 -190.667 113 -300c40 90.667 95 189.667 165 297l282 431h192l-574 -914l-94 -552h-161zM625 1562l154 275h187l-218 -275h-123z" />
    <glyph glyph-name="Thorn" unicode="&#xde;" horiz-adv-x="1120" 
d="M73 0l255.999 1466l160 -1l-51 -296h337c86.667 0 151.167 -11.833 193.5 -35.5s78.333 -64.5 108 -122.5s44.5 -125.333 44.5 -202c0 -99.333 -23.667 -193.166 -71 -281.499s-109.666 -148.666 -186.999 -180.999s-170 -48.5 -278 -48.5h-299l-52 -298h-161z
M314.999 463.998h262.002c96.667 0 169 11.833 217 35.5s88 63.5 120 119.5s48 118.333 48 187c0 50 -8.33301 90.167 -25 120.5s-39.334 51.833 -68.001 64.5s-80.334 19 -155.001 19h-304z" />
    <glyph glyph-name="germandbls" unicode="&#xdf;" horiz-adv-x="1026" 
d="M61 0l177.001 1033c20.667 120.667 48.167 209.834 82.5 267.501s82 103.834 143 138.501s125.167 52 192.5 52c75.333 0 138.666 -23.833 189.999 -71.5s77 -102.167 77 -163.5c0 -33.333 -7.33301 -70 -22 -110s-44 -94.667 -88 -164
c-41.333 -64.667 -67.166 -109.667 -77.499 -135s-15.5 -48.666 -15.5 -69.999c0 -20.667 4.16699 -39.667 12.5 -57s34.5 -53.333 78.5 -108c63.333 -78.667 102.833 -135.667 118.5 -171s23.5 -74.666 23.5 -117.999c0 -94 -32.833 -175.5 -98.5 -244.5
s-141.167 -103.5 -226.5 -103.5c-116 0 -212.667 78.333 -290 235l124 82c28.667 -65.333 56.167 -109.833 82.5 -133.5s53.5 -35.5 81.5 -35.5c42.667 0 82.834 21 120.501 63s56.5 89.333 56.5 142c0 24 -5.16699 46.167 -15.5 66.5s-40.5 60.166 -90.5 119.499
c-59.333 71.333 -96 121.833 -110 151.5s-21 60.167 -21 91.5c0 30.667 8.5 67.167 25.5 109.5s52.833 105.166 107.5 188.499c50.667 77.333 76 137.666 76 180.999c0 32.667 -11.833 60.167 -35.5 82.5s-54.167 33.5 -91.5 33.5c-42.667 0 -85.334 -15.167 -128.001 -45.5
s-74.667 -70.833 -96 -121.5c-12.667 -30.667 -26.334 -88.334 -41.001 -173.001l-174 -1012h-148z" />
    <glyph glyph-name="agrave" unicode="&#xe0;" 
d="M643 132c-54.667 -57.333 -106.001 -97.667 -154.001 -121s-96.667 -35 -146 -35c-77.333 0 -141.5 27.667 -192.5 83s-76.5 130.666 -76.5 225.999c0 68 14.667 127.333 44 178s70.5 89.5 123.5 116.5s128.833 42.833 227.5 47.5c83.333 4.66699 140.5 9.66699 171.5 15
s57.5 13.333 79.5 24c12 50.667 18 92 18 124c0 44.667 -16.167 80.5 -48.5 107.5s-79.166 40.5 -140.499 40.5c-123.333 0 -203.333 -64.667 -240 -194l-150 16c63.333 217.333 196.333 326 399 326c100 0 179.333 -26.167 238 -78.5s88 -118.166 88 -197.499
c0 -56 -6.66699 -121.667 -20 -197l-48 -264c-15.333 -84 -23 -152 -23 -204c0 -36.667 5.66699 -85 17 -145h-149c-8.66699 33.333 -14.667 77.333 -18 132zM697.999 537.999c-36.667 -17.333 -98.6689 -30.666 -186.002 -39.999
c-89.333 -9.33301 -150.666 -21.333 -183.999 -36s-59.333 -37 -78 -67s-28 -64.667 -28 -104c0 -54 15 -96.667 45 -128s70 -47 120 -47c47.333 0 93 14.667 137 44s79.833 71.666 107.5 126.999s49.834 139 66.501 251zM627.997 1191l-160 275h180l96 -275h-116z" />
    <glyph glyph-name="aacute" unicode="&#xe1;" 
d="M643 132c-54.667 -57.333 -106.001 -97.667 -154.001 -121s-96.667 -35 -146 -35c-77.333 0 -141.5 27.667 -192.5 83s-76.5 130.666 -76.5 225.999c0 68 14.667 127.333 44 178s70.5 89.5 123.5 116.5s128.833 42.833 227.5 47.5c83.333 4.66699 140.5 9.66699 171.5 15
s57.5 13.333 79.5 24c12 50.667 18 92 18 124c0 44.667 -16.167 80.5 -48.5 107.5s-79.166 40.5 -140.499 40.5c-123.333 0 -203.333 -64.667 -240 -194l-150 16c63.333 217.333 196.333 326 399 326c100 0 179.333 -26.167 238 -78.5s88 -118.166 88 -197.499
c0 -56 -6.66699 -121.667 -20 -197l-48 -264c-15.333 -84 -23 -152 -23 -204c0 -36.667 5.66699 -85 17 -145h-149c-8.66699 33.333 -14.667 77.333 -18 132zM697.999 537.999c-36.667 -17.333 -98.6689 -30.666 -186.002 -39.999
c-89.333 -9.33301 -150.666 -21.333 -183.999 -36s-59.333 -37 -78 -67s-28 -64.667 -28 -104c0 -54 15 -96.667 45 -128s70 -47 120 -47c47.333 0 93 14.667 137 44s79.833 71.666 107.5 126.999s49.834 139 66.501 251zM454.997 1191l154 275h187l-218 -275h-123z" />
    <glyph glyph-name="acircumflex" unicode="&#xe2;" 
d="M643 132c-54.667 -57.333 -106.001 -97.667 -154.001 -121s-96.667 -35 -146 -35c-77.333 0 -141.5 27.667 -192.5 83s-76.5 130.666 -76.5 225.999c0 68 14.667 127.333 44 178s70.5 89.5 123.5 116.5s128.833 42.833 227.5 47.5c83.333 4.66699 140.5 9.66699 171.5 15
s57.5 13.333 79.5 24c12 50.667 18 92 18 124c0 44.667 -16.167 80.5 -48.5 107.5s-79.166 40.5 -140.499 40.5c-123.333 0 -203.333 -64.667 -240 -194l-150 16c63.333 217.333 196.333 326 399 326c100 0 179.333 -26.167 238 -78.5s88 -118.166 88 -197.499
c0 -56 -6.66699 -121.667 -20 -197l-48 -264c-15.333 -84 -23 -152 -23 -204c0 -36.667 5.66699 -85 17 -145h-149c-8.66699 33.333 -14.667 77.333 -18 132zM697.999 537.999c-36.667 -17.333 -98.6689 -30.666 -186.002 -39.999
c-89.333 -9.33301 -150.666 -21.333 -183.999 -36s-59.333 -37 -78 -67s-28 -64.667 -28 -104c0 -54 15 -96.667 45 -128s70 -47 120 -47c47.333 0 93 14.667 137 44s79.833 71.666 107.5 126.999s49.834 139 66.501 251zM354.997 1191l217 275h164l102 -275h-130l-65 178
l-136 -178h-152z" />
    <glyph glyph-name="atilde" unicode="&#xe3;" 
d="M643 132c-54.667 -57.333 -106.001 -97.667 -154.001 -121s-96.667 -35 -146 -35c-77.333 0 -141.5 27.667 -192.5 83s-76.5 130.666 -76.5 225.999c0 68 14.667 127.333 44 178s70.5 89.5 123.5 116.5s128.833 42.833 227.5 47.5c83.333 4.66699 140.5 9.66699 171.5 15
s57.5 13.333 79.5 24c12 50.667 18 92 18 124c0 44.667 -16.167 80.5 -48.5 107.5s-79.166 40.5 -140.499 40.5c-123.333 0 -203.333 -64.667 -240 -194l-150 16c63.333 217.333 196.333 326 399 326c100 0 179.333 -26.167 238 -78.5s88 -118.166 88 -197.499
c0 -56 -6.66699 -121.667 -20 -197l-48 -264c-15.333 -84 -23 -152 -23 -204c0 -36.667 5.66699 -85 17 -145h-149c-8.66699 33.333 -14.667 77.333 -18 132zM697.999 537.999c-36.667 -17.333 -98.6689 -30.666 -186.002 -39.999
c-89.333 -9.33301 -150.666 -21.333 -183.999 -36s-59.333 -37 -78 -67s-28 -64.667 -28 -104c0 -54 15 -96.667 45 -128s70 -47 120 -47c47.333 0 93 14.667 137 44s79.833 71.666 107.5 126.999s49.834 139 66.501 251zM353.997 1222c18 88 40.167 147.332 66.5 177.999
s59.5 46 99.5 46c18 0 35.5 -2.66699 52.5 -8s45.833 -18.666 86.5 -39.999c45.333 -24.667 75.666 -37 90.999 -37c28.667 0 48.334 26.333 59.001 79h99c-6 -70 -24.5 -124 -55.5 -162s-66.167 -57 -105.5 -57c-22 0 -49.667 8.66699 -83 26c-75.333 40 -122 60 -140 60
c-36 0 -58.333 -28.333 -67 -85h-103z" />
    <glyph glyph-name="adieresis" unicode="&#xe4;" 
d="M643 132c-54.667 -57.333 -106.001 -97.667 -154.001 -121s-96.667 -35 -146 -35c-77.333 0 -141.5 27.667 -192.5 83s-76.5 130.666 -76.5 225.999c0 68 14.667 127.333 44 178s70.5 89.5 123.5 116.5s128.833 42.833 227.5 47.5c83.333 4.66699 140.5 9.66699 171.5 15
s57.5 13.333 79.5 24c12 50.667 18 92 18 124c0 44.667 -16.167 80.5 -48.5 107.5s-79.166 40.5 -140.499 40.5c-123.333 0 -203.333 -64.667 -240 -194l-150 16c63.333 217.333 196.333 326 399 326c100 0 179.333 -26.167 238 -78.5s88 -118.166 88 -197.499
c0 -56 -6.66699 -121.667 -20 -197l-48 -264c-15.333 -84 -23 -152 -23 -204c0 -36.667 5.66699 -85 17 -145h-149c-8.66699 33.333 -14.667 77.333 -18 132zM697.999 537.999c-36.667 -17.333 -98.6689 -30.666 -186.002 -39.999
c-89.333 -9.33301 -150.666 -21.333 -183.999 -36s-59.333 -37 -78 -67s-28 -64.667 -28 -104c0 -54 15 -96.667 45 -128s70 -47 120 -47c47.333 0 93 14.667 137 44s79.833 71.666 107.5 126.999s49.834 139 66.501 251zM365.997 1227l35 205h155l-35 -205h-155z
M667.997 1227l36 205h154l-35 -205h-155z" />
    <glyph glyph-name="aring" unicode="&#xe5;" 
d="M643 132c-54.667 -57.333 -106.001 -97.667 -154.001 -121s-96.667 -35 -146 -35c-77.333 0 -141.5 27.667 -192.5 83s-76.5 130.666 -76.5 225.999c0 68 14.667 127.333 44 178s70.5 89.5 123.5 116.5s128.833 42.833 227.5 47.5c83.333 4.66699 140.5 9.66699 171.5 15
s57.5 13.333 79.5 24c12 50.667 18 92 18 124c0 44.667 -16.167 80.5 -48.5 107.5s-79.166 40.5 -140.499 40.5c-123.333 0 -203.333 -64.667 -240 -194l-150 16c63.333 217.333 196.333 326 399 326c100 0 179.333 -26.167 238 -78.5s88 -118.166 88 -197.499
c0 -56 -6.66699 -121.667 -20 -197l-48 -264c-15.333 -84 -23 -152 -23 -204c0 -36.667 5.66699 -85 17 -145h-149c-8.66699 33.333 -14.667 77.333 -18 132zM697.999 537.999c-36.667 -17.333 -98.6689 -30.666 -186.002 -39.999
c-89.333 -9.33301 -150.666 -21.333 -183.999 -36s-59.333 -37 -78 -67s-28 -64.667 -28 -104c0 -54 15 -96.667 45 -128s70 -47 120 -47c47.333 0 93 14.667 137 44s79.833 71.666 107.5 126.999s49.834 139 66.501 251zM467.997 1320c0 52 14.999 95.333 44.999 130
s64.667 52 104 52c40 0 75 -17.333 105 -52s45 -78 45 -130c0 -52.667 -15.167 -96.167 -45.5 -130.5s-65.166 -51.5 -104.499 -51.5s-74 17.167 -104 51.5s-45 77.833 -45 130.5zM528.996 1320c0 -30.667 8.83301 -56.332 26.5 -76.999s38.167 -31 61.5 -31
s43.833 10.167 61.5 30.5s26.5 46.166 26.5 77.499c0 30.667 -8.66699 56.167 -26 76.5s-38 30.5 -62 30.5c-23.333 0 -43.833 -10.167 -61.5 -30.5s-26.5 -45.833 -26.5 -76.5z" />
    <glyph glyph-name="ae" unicode="&#xe6;" horiz-adv-x="1493" 
d="M1254 359l150.002 -17c-50.667 -130 -111.167 -223.5 -181.5 -280.5s-146.833 -85.5 -229.5 -85.5c-65.333 0 -125.333 19.5 -180 58.5s-99.334 98.167 -134.001 177.5c-42 -80 -92.167 -139.5 -150.5 -178.5s-118.833 -58.5 -181.5 -58.5c-84 0 -151 27.333 -201 82
s-75 130.667 -75 228c0 78.667 19.333 147 58 205c29.333 43.333 69.5 74 120.5 92s130.833 32.333 239.5 43c92 9.33301 157.667 21.333 197 36c12.667 47.333 19 88.333 19 123c0 52 -13.667 92 -41 120s-66 42 -116 42c-120.667 0 -202.334 -66.667 -245.001 -200
l-147 15c29.333 106.667 78.166 187.667 146.499 243s151.5 83 249.5 83c59.333 0 111.666 -12.167 156.999 -36.5s83.666 -60.833 114.999 -109.5c76 96.667 171.333 145 286 145c104.667 0 187.834 -41.333 249.501 -124s92.5 -188.667 92.5 -318
c0 -38.667 -4 -91.667 -12 -159h-633c-2 -20.667 -3 -40.667 -3 -60c0 -101.333 18.167 -176.833 54.5 -226.5s81.833 -74.5 136.5 -74.5c48.667 0 95.834 19.167 141.501 57.5s84.834 97.5 117.501 177.5zM835.002 624h478.002l1 44c0 58 -8.83301 108.333 -26.5 151
s-41.834 74.5 -72.501 95.5s-63.667 31.5 -99 31.5c-54.667 0 -109.334 -28.333 -164.001 -85s-93.667 -135.667 -117 -237zM663.004 525c-58.667 -16.667 -129.332 -29.6689 -211.999 -39.002c-68 -7.33301 -115.667 -18 -143 -32s-48.5 -34.167 -63.5 -60.5
s-22.5 -60.166 -22.5 -101.499c0 -53.333 14.667 -95.833 44 -127.5s68 -47.5 116 -47.5c65.333 0 120.666 28.333 165.999 85c58 72.667 96.333 180.334 115 323.001z" />
    <glyph glyph-name="ccedilla" unicode="&#xe7;" horiz-adv-x="840" 
d="M656 387l148.995 -19.001c-37.333 -132.667 -90.666 -231.167 -159.999 -295.5s-146.666 -96.5 -231.999 -96.5c-92 0 -168.167 36.333 -228.5 109s-90.5 178 -90.5 316c0 135.333 22.167 258.333 66.5 369s100.333 191 168 241s142.834 75 225.501 75
c89.333 0 162.333 -31.333 219 -94s84.667 -148.667 84 -258l-146 -12c0 69.333 -16.167 122.5 -48.5 159.5s-72.166 55.5 -119.499 55.5c-52.667 0 -100.167 -17.5 -142.5 -52.5s-79 -99.667 -110 -194s-46.5 -198.833 -46.5 -313.5
c0 -85.333 16.833 -150.166 50.5 -194.499s73.834 -66.5 120.501 -66.5c48 0 94 22.333 138 67s78.333 112.667 103 204zM312.995 -149.001l33 161.001h115l-20 -90c46 -8 82.167 -27.5 108.5 -58.5s39.5 -68.167 39.5 -111.5c0 -52.667 -22.333 -95.334 -67 -128.001
s-115.667 -49 -213 -49c-53.333 0 -100 4 -140 12l18 112c33.333 -2 73 -3 119 -3c52 0 88.333 6.66699 109 20s31 30.666 31 51.999c0 23.333 -10.833 42.833 -32.5 58.5s-55.167 23.834 -100.5 24.501z" />
    <glyph glyph-name="egrave" unicode="&#xe8;" 
d="M695 361l144.999 -18c-24 -103.333 -79.667 -193.333 -167 -270c-72.667 -64.667 -153.667 -97 -243 -97c-63.333 0 -121 17.167 -173 51.5s-93.333 85.666 -124 153.999s-46 149.833 -46 244.5c0 124.667 23.5 241 70.5 349s104.5 186.833 172.5 236.5
s141.667 74.5 221 74.5c100.667 0 182.834 -38.333 246.501 -115s95.5 -185 95.5 -325c0 -52 -3.66699 -105.333 -11 -160h-642c-2 -21.333 -3 -40.333 -3 -57c0 -100 19 -175.833 57 -227.5s83.667 -77.5 137 -77.5c50.667 0 100.5 20.333 149.5 61
s87.167 99.334 114.5 176.001zM263.999 624l489 -0.000976562v37c0 94.667 -18.667 165.667 -56 213s-85 71 -143 71c-62.667 0 -120.167 -26.667 -172.5 -80s-91.5 -133.666 -117.5 -240.999zM627.999 1191l-160 275h180l96 -275h-116z" />
    <glyph glyph-name="eacute" unicode="&#xe9;" 
d="M695 361l144.999 -18c-24 -103.333 -79.667 -193.333 -167 -270c-72.667 -64.667 -153.667 -97 -243 -97c-63.333 0 -121 17.167 -173 51.5s-93.333 85.666 -124 153.999s-46 149.833 -46 244.5c0 124.667 23.5 241 70.5 349s104.5 186.833 172.5 236.5
s141.667 74.5 221 74.5c100.667 0 182.834 -38.333 246.501 -115s95.5 -185 95.5 -325c0 -52 -3.66699 -105.333 -11 -160h-642c-2 -21.333 -3 -40.333 -3 -57c0 -100 19 -175.833 57 -227.5s83.667 -77.5 137 -77.5c50.667 0 100.5 20.333 149.5 61
s87.167 99.334 114.5 176.001zM263.999 624l489 -0.000976562v37c0 94.667 -18.667 165.667 -56 213s-85 71 -143 71c-62.667 0 -120.167 -26.667 -172.5 -80s-91.5 -133.666 -117.5 -240.999zM435.999 1191l154 275h187l-218 -275h-123z" />
    <glyph glyph-name="ecircumflex" unicode="&#xea;" 
d="M695 361l144.999 -18c-24 -103.333 -79.667 -193.333 -167 -270c-72.667 -64.667 -153.667 -97 -243 -97c-63.333 0 -121 17.167 -173 51.5s-93.333 85.666 -124 153.999s-46 149.833 -46 244.5c0 124.667 23.5 241 70.5 349s104.5 186.833 172.5 236.5
s141.667 74.5 221 74.5c100.667 0 182.834 -38.333 246.501 -115s95.5 -185 95.5 -325c0 -52 -3.66699 -105.333 -11 -160h-642c-2 -21.333 -3 -40.333 -3 -57c0 -100 19 -175.833 57 -227.5s83.667 -77.5 137 -77.5c50.667 0 100.5 20.333 149.5 61
s87.167 99.334 114.5 176.001zM263.999 624l489 -0.000976562v37c0 94.667 -18.667 165.667 -56 213s-85 71 -143 71c-62.667 0 -120.167 -26.667 -172.5 -80s-91.5 -133.666 -117.5 -240.999zM364.999 1191l217 275h164l102 -275h-130l-65 178l-136 -178h-152z" />
    <glyph glyph-name="edieresis" unicode="&#xeb;" 
d="M695 361l144.999 -18c-24 -103.333 -79.667 -193.333 -167 -270c-72.667 -64.667 -153.667 -97 -243 -97c-63.333 0 -121 17.167 -173 51.5s-93.333 85.666 -124 153.999s-46 149.833 -46 244.5c0 124.667 23.5 241 70.5 349s104.5 186.833 172.5 236.5
s141.667 74.5 221 74.5c100.667 0 182.834 -38.333 246.501 -115s95.5 -185 95.5 -325c0 -52 -3.66699 -105.333 -11 -160h-642c-2 -21.333 -3 -40.333 -3 -57c0 -100 19 -175.833 57 -227.5s83.667 -77.5 137 -77.5c50.667 0 100.5 20.333 149.5 61
s87.167 99.334 114.5 176.001zM263.999 624l489 -0.000976562v37c0 94.667 -18.667 165.667 -56 213s-85 71 -143 71c-62.667 0 -120.167 -26.667 -172.5 -80s-91.5 -133.666 -117.5 -240.999zM366.999 1227l35 205h155l-35 -205h-155zM668.999 1227l36 205h154l-35 -205
h-155z" />
    <glyph glyph-name="igrave" unicode="&#xec;" horiz-adv-x="467" 
d="M103 0l182 1062h148l-182 -1062h-148zM405 1191l-160 275h180l96 -275h-116z" />
    <glyph glyph-name="iacute" unicode="&#xed;" horiz-adv-x="467" 
d="M103 0l182 1062h148l-182 -1062h-148zM213 1191l154 275h187l-218 -275h-123z" />
    <glyph glyph-name="icircumflex" unicode="&#xee;" horiz-adv-x="467" 
d="M103 0l182 1062h148l-182 -1062h-148zM142 1191l217 275h164l102 -275h-130l-65 178l-136 -178h-152z" />
    <glyph glyph-name="idieresis" unicode="&#xef;" horiz-adv-x="467" 
d="M103 0l182 1062h148l-182 -1062h-148zM143 1227l35 205h155l-35 -205h-155zM445 1227l36 205h154l-35 -205h-155z" />
    <glyph glyph-name="eth" unicode="&#xf0;" 
d="M514 1466l154.002 -0.00195312c20 -23.333 40 -48.333 60 -75l145 75l38 -98l-128 -70c47.333 -94.667 81.5 -188.167 102.5 -280.5s31.5 -197.166 31.5 -314.499c0 -192.667 -42.333 -362 -127 -508s-200.667 -219 -348 -219c-107.333 0 -194.166 38.333 -260.499 115
s-99.5 184 -99.5 322c0 122 22.5 235.667 67.5 341s101.167 183 168.5 233s135 75 203 75c41.333 0 80.666 -8.66699 117.999 -26s75.666 -47.666 114.999 -90.999c-14.667 95.333 -43.334 190.666 -86.001 285.999l-188 -100l-39 100l173 95
c-38.667 60.667 -72 107.334 -100 140.001zM758.002 638.998c0 88.667 -19.834 157.333 -59.501 206s-90.5 73 -152.5 73c-50 0 -98.167 -18.167 -144.5 -54.5s-86 -96 -119 -179s-49.5 -173.167 -49.5 -270.5c0 -98.667 19.333 -172.167 58 -220.5s89 -72.5 151 -72.5
c58 0 112.333 24.5 163 73.5s90.334 122.5 119.001 220.5c22.667 79.333 34 154 34 224z" />
    <glyph glyph-name="ntilde" unicode="&#xf1;" 
d="M56 0l182.001 1062h134l-31 -185c62.667 78.667 119.667 133.167 171 163.5s101 45.5 149 45.5c67.333 0 121.833 -22.667 163.5 -68s62.5 -109.666 62.5 -192.999c0 -37.333 -7.33301 -98 -22 -182l-110 -643h-149l116 673c11.333 66 17 114.667 17 146
c0 36.667 -10.5 65.5 -31.5 86.5s-49.5 31.5 -85.5 31.5c-74.667 0 -141.834 -33 -201.501 -99s-103.5 -180.667 -131.5 -344l-85 -494h-148zM340.001 1222c18 88 40.167 147.332 66.5 177.999s59.5 46 99.5 46c18 0 35.5 -2.66699 52.5 -8s45.833 -18.666 86.5 -39.999
c45.333 -24.667 75.666 -37 90.999 -37c28.667 0 48.334 26.333 59.001 79h99c-6 -70 -24.5 -124 -55.5 -162s-66.167 -57 -105.5 -57c-22 0 -49.667 8.66699 -83 26c-75.333 40 -122 60 -140 60c-36 0 -58.333 -28.333 -67 -85h-103z" />
    <glyph glyph-name="ograve" unicode="&#xf2;" 
d="M82 403c0 191.333 43 352.999 129 484.999s201.333 198 346 198c101.333 0 185 -38.833 251 -116.5s99 -188.167 99 -331.5c0 -131.333 -22.5 -248.666 -67.5 -351.999s-103.333 -180.833 -175 -232.5s-146.834 -77.5 -225.501 -77.5
c-103.333 0 -188.666 38.167 -255.999 114.5s-101 180.5 -101 312.5zM231 420.999c0 -100.667 20.001 -176.665 60.001 -227.998s90 -77 150 -77c47.333 0 94.666 19.167 141.999 57.5s88.666 101.833 123.999 190.5s53 179.667 53 273c0 101.333 -20 178.166 -60 230.499
s-89.333 78.5 -148 78.5c-51.333 0 -101.166 -19 -149.499 -57s-89 -100.833 -122 -188.5s-49.5 -180.834 -49.5 -279.501zM622.001 1191l-160 275h180l96 -275h-116z" />
    <glyph glyph-name="oacute" unicode="&#xf3;" 
d="M82 403c0 191.333 43 352.999 129 484.999s201.333 198 346 198c101.333 0 185 -38.833 251 -116.5s99 -188.167 99 -331.5c0 -131.333 -22.5 -248.666 -67.5 -351.999s-103.333 -180.833 -175 -232.5s-146.834 -77.5 -225.501 -77.5
c-103.333 0 -188.666 38.167 -255.999 114.5s-101 180.5 -101 312.5zM231 420.999c0 -100.667 20.001 -176.665 60.001 -227.998s90 -77 150 -77c47.333 0 94.666 19.167 141.999 57.5s88.666 101.833 123.999 190.5s53 179.667 53 273c0 101.333 -20 178.166 -60 230.499
s-89.333 78.5 -148 78.5c-51.333 0 -101.166 -19 -149.499 -57s-89 -100.833 -122 -188.5s-49.5 -180.834 -49.5 -279.501zM439.001 1191l154 275h187l-218 -275h-123z" />
    <glyph glyph-name="ocircumflex" unicode="&#xf4;" 
d="M82 403c0 191.333 43 352.999 129 484.999s201.333 198 346 198c101.333 0 185 -38.833 251 -116.5s99 -188.167 99 -331.5c0 -131.333 -22.5 -248.666 -67.5 -351.999s-103.333 -180.833 -175 -232.5s-146.834 -77.5 -225.501 -77.5
c-103.333 0 -188.666 38.167 -255.999 114.5s-101 180.5 -101 312.5zM231 420.999c0 -100.667 20.001 -176.665 60.001 -227.998s90 -77 150 -77c47.333 0 94.666 19.167 141.999 57.5s88.666 101.833 123.999 190.5s53 179.667 53 273c0 101.333 -20 178.166 -60 230.499
s-89.333 78.5 -148 78.5c-51.333 0 -101.166 -19 -149.499 -57s-89 -100.833 -122 -188.5s-49.5 -180.834 -49.5 -279.501zM338.001 1191l217 275h164l102 -275h-130l-65 178l-136 -178h-152z" />
    <glyph glyph-name="otilde" unicode="&#xf5;" 
d="M82 403c0 191.333 43 352.999 129 484.999s201.333 198 346 198c101.333 0 185 -38.833 251 -116.5s99 -188.167 99 -331.5c0 -131.333 -22.5 -248.666 -67.5 -351.999s-103.333 -180.833 -175 -232.5s-146.834 -77.5 -225.501 -77.5
c-103.333 0 -188.666 38.167 -255.999 114.5s-101 180.5 -101 312.5zM231 420.999c0 -100.667 20.001 -176.665 60.001 -227.998s90 -77 150 -77c47.333 0 94.666 19.167 141.999 57.5s88.666 101.833 123.999 190.5s53 179.667 53 273c0 101.333 -20 178.166 -60 230.499
s-89.333 78.5 -148 78.5c-51.333 0 -101.166 -19 -149.499 -57s-89 -100.833 -122 -188.5s-49.5 -180.834 -49.5 -279.501zM318.001 1222c18 88 40.167 147.332 66.5 177.999s59.5 46 99.5 46c18 0 35.5 -2.66699 52.5 -8s45.833 -18.666 86.5 -39.999
c45.333 -24.667 75.666 -37 90.999 -37c28.667 0 48.334 26.333 59.001 79h99c-6 -70 -24.5 -124 -55.5 -162s-66.167 -57 -105.5 -57c-22 0 -49.667 8.66699 -83 26c-75.333 40 -122 60 -140 60c-36 0 -58.333 -28.333 -67 -85h-103z" />
    <glyph glyph-name="odieresis" unicode="&#xf6;" 
d="M82 403c0 191.333 43 352.999 129 484.999s201.333 198 346 198c101.333 0 185 -38.833 251 -116.5s99 -188.167 99 -331.5c0 -131.333 -22.5 -248.666 -67.5 -351.999s-103.333 -180.833 -175 -232.5s-146.834 -77.5 -225.501 -77.5
c-103.333 0 -188.666 38.167 -255.999 114.5s-101 180.5 -101 312.5zM231 420.999c0 -100.667 20.001 -176.665 60.001 -227.998s90 -77 150 -77c47.333 0 94.666 19.167 141.999 57.5s88.666 101.833 123.999 190.5s53 179.667 53 273c0 101.333 -20 178.166 -60 230.499
s-89.333 78.5 -148 78.5c-51.333 0 -101.166 -19 -149.499 -57s-89 -100.833 -122 -188.5s-49.5 -180.834 -49.5 -279.501zM350.001 1227l35 205h155l-35 -205h-155zM652.001 1227l36 205h154l-35 -205h-155z" />
    <glyph glyph-name="divide" unicode="&#xf7;" horiz-adv-x="1124" 
d="M459 922v205h205v-205h-205zM1046 639h-968v168h968v-168zM459 319v205h205v-205h-205z" />
    <glyph glyph-name="oslash" unicode="&#xf8;" horiz-adv-x="1026" 
d="M808 1018l93.002 140.999l74 -72l-96 -147c51.333 -79.333 77 -180 77 -302c0 -132 -22.5 -249.667 -67.5 -353s-103.333 -180.666 -175 -231.999s-147.167 -77 -226.5 -77c-72.667 0 -139.334 21 -200.001 63l-93 -141l-74 69l95 144c-56 78 -84 177.667 -84 299
c0 183.333 42.5 341.833 127.5 475.5s200.833 200.5 347.5 200.5c77.333 0 144.666 -22.667 201.999 -68zM727.002 893.999c-35.333 34.667 -77.334 52 -126.001 52c-51.333 0 -101.166 -19 -149.499 -57s-89 -101 -122 -189s-49.5 -182 -49.5 -282
c0 -66.667 9 -122 27 -166zM368.001 161.999c36 -30.667 76.333 -46 121 -46c48.667 0 96.667 19.167 144 57.5s88.5 102 123.5 191s52.5 182.5 52.5 280.5c0 55.333 -8 106 -24 152z" />
    <glyph glyph-name="ugrave" unicode="&#xf9;" 
d="M650 192c-104.667 -144 -211.666 -215.998 -320.999 -215.998c-63.333 0 -116.5 22.667 -159.5 68s-64.5 103.666 -64.5 174.999c0 45.333 9.33301 122 28 230l105 613h148l-116 -679c-10 -56.667 -15 -100.334 -15 -131.001c0 -42 10.333 -73.833 31 -95.5
s49.667 -32.5 87 -32.5c52.667 0 105.167 21.167 157.5 63.5s90.666 95.333 114.999 159s45.5 149.167 63.5 256.5l79 459h148l-182 -1062h-137zM605.001 1191l-160 275h180l96 -275h-116z" />
    <glyph glyph-name="uacute" unicode="&#xfa;" 
d="M650 192c-104.667 -144 -211.666 -215.998 -320.999 -215.998c-63.333 0 -116.5 22.667 -159.5 68s-64.5 103.666 -64.5 174.999c0 45.333 9.33301 122 28 230l105 613h148l-116 -679c-10 -56.667 -15 -100.334 -15 -131.001c0 -42 10.333 -73.833 31 -95.5
s49.667 -32.5 87 -32.5c52.667 0 105.167 21.167 157.5 63.5s90.666 95.333 114.999 159s45.5 149.167 63.5 256.5l79 459h148l-182 -1062h-137zM480.001 1191l154 275h187l-218 -275h-123z" />
    <glyph glyph-name="ucircumflex" unicode="&#xfb;" 
d="M650 192c-104.667 -144 -211.666 -215.998 -320.999 -215.998c-63.333 0 -116.5 22.667 -159.5 68s-64.5 103.666 -64.5 174.999c0 45.333 9.33301 122 28 230l105 613h148l-116 -679c-10 -56.667 -15 -100.334 -15 -131.001c0 -42 10.333 -73.833 31 -95.5
s49.667 -32.5 87 -32.5c52.667 0 105.167 21.167 157.5 63.5s90.666 95.333 114.999 159s45.5 149.167 63.5 256.5l79 459h148l-182 -1062h-137zM350.001 1191l217 275h164l102 -275h-130l-65 178l-136 -178h-152z" />
    <glyph glyph-name="udieresis" unicode="&#xfc;" 
d="M650 192c-104.667 -144 -211.666 -215.998 -320.999 -215.998c-63.333 0 -116.5 22.667 -159.5 68s-64.5 103.666 -64.5 174.999c0 45.333 9.33301 122 28 230l105 613h148l-116 -679c-10 -56.667 -15 -100.334 -15 -131.001c0 -42 10.333 -73.833 31 -95.5
s49.667 -32.5 87 -32.5c52.667 0 105.167 21.167 157.5 63.5s90.666 95.333 114.999 159s45.5 149.167 63.5 256.5l79 459h148l-182 -1062h-137zM371.001 1227l35 205h155l-35 -205h-155zM673.001 1227l36 205h154l-35 -205h-155z" />
    <glyph glyph-name="yacute" unicode="&#xfd;" horiz-adv-x="840" 
d="M0 -410l9 169.999c30.667 -10.667 60.334 -16 89.001 -16c30 0 54 8 72 24c25.333 22.667 52 64.334 80 125.001l47 104l-145 1065h146l66 -537c13.333 -107.333 24.666 -213.333 33.999 -318l389 855h155l-555 -1203c-55.333 -121.333 -104.166 -200 -146.499 -236
s-88.833 -54 -139.5 -54c-34.667 0 -68.334 7 -101.001 21zM429 1191l154 275h187l-218 -275h-123z" />
    <glyph glyph-name="thorn" unicode="&#xfe;" 
d="M-17 -407l321.999 1873h148l-91 -531c45.333 55.333 87.833 94.333 127.5 117s80.167 34 121.5 34c80.667 0 148.834 -36.333 204.501 -109s83.5 -179 83.5 -319c0 -132 -22.5 -252.333 -67.5 -361s-104.5 -192.667 -178.5 -252c-57.333 -46 -117.333 -69 -180 -69
c-104.667 0 -185.667 64.667 -243 194l-99 -577h-148zM274.999 399c0 -89.333 18.166 -157.5 54.499 -204.5s81.833 -70.5 136.5 -70.5c43.333 0 81.333 14.333 114 43c46.667 41.333 86.834 109.333 120.501 204s50.5 190.667 50.5 288c0 90.667 -18 160.167 -54 208.5
s-80 72.5 -132 72.5c-41.333 0 -83.333 -18.5 -126 -55.5s-80.667 -102.167 -114 -195.5s-50 -190 -50 -290z" />
    <glyph glyph-name="ydieresis" unicode="&#xff;" horiz-adv-x="840" 
d="M0 -410l9 169.999c30.667 -10.667 60.334 -16 89.001 -16c30 0 54 8 72 24c25.333 22.667 52 64.334 80 125.001l47 104l-145 1065h146l66 -537c13.333 -107.333 24.666 -213.333 33.999 -318l389 855h155l-555 -1203c-55.333 -121.333 -104.166 -200 -146.499 -236
s-88.833 -54 -139.5 -54c-34.667 0 -68.334 7 -101.001 21zM335 1227l35 205h155l-35 -205h-155zM637 1227l36 205h154l-35 -205h-155z" />
    <glyph glyph-name="Amacron" unicode="&#x100;" horiz-adv-x="1120" 
d="M-33 0l681 1466h190l198 -1466h-156l-58 422h-486l-193 -422h-176zM405 573h397.001l-46 368c-18 145.333 -29.333 267 -34 365c-26.667 -84 -66.334 -183.667 -119.001 -299zM482.001 1565l24 139h509l-24 -139h-509z" />
    <glyph glyph-name="amacron" unicode="&#x101;" 
d="M643 132c-54.667 -57.333 -106.001 -97.667 -154.001 -121s-96.667 -35 -146 -35c-77.333 0 -141.5 27.667 -192.5 83s-76.5 130.666 -76.5 225.999c0 68 14.667 127.333 44 178s70.5 89.5 123.5 116.5s128.833 42.833 227.5 47.5c83.333 4.66699 140.5 9.66699 171.5 15
s57.5 13.333 79.5 24c12 50.667 18 92 18 124c0 44.667 -16.167 80.5 -48.5 107.5s-79.166 40.5 -140.499 40.5c-123.333 0 -203.333 -64.667 -240 -194l-150 16c63.333 217.333 196.333 326 399 326c100 0 179.333 -26.167 238 -78.5s88 -118.166 88 -197.499
c0 -56 -6.66699 -121.667 -20 -197l-48 -264c-15.333 -84 -23 -152 -23 -204c0 -36.667 5.66699 -85 17 -145h-149c-8.66699 33.333 -14.667 77.333 -18 132zM697.999 537.999c-36.667 -17.333 -98.6689 -30.666 -186.002 -39.999
c-89.333 -9.33301 -150.666 -21.333 -183.999 -36s-59.333 -37 -78 -67s-28 -64.667 -28 -104c0 -54 15 -96.667 45 -128s70 -47 120 -47c47.333 0 93 14.667 137 44s79.833 71.666 107.5 126.999s49.834 139 66.501 251zM336.997 1190l24 139h509l-24 -139h-509z" />
    <glyph glyph-name="Abreve" unicode="&#x102;" horiz-adv-x="1120" 
d="M-33 0l681 1466h190l198 -1466h-156l-58 422h-486l-193 -422h-176zM405 573h397.001l-46 368c-18 145.333 -29.333 267 -34 365c-26.667 -84 -66.334 -183.667 -119.001 -299zM540.001 1794h96.999c10.667 -93.333 53.334 -140 128.001 -140c38 0 71.667 12.167 101 36.5
s51.666 58.833 66.999 103.5h98c-19.333 -81.333 -53.666 -145 -102.999 -191s-105.333 -69 -168 -69c-62 0 -113.333 22.833 -154 68.5s-62.667 109.5 -66 191.5z" />
    <glyph glyph-name="abreve" unicode="&#x103;" 
d="M643 132c-54.667 -57.333 -106.001 -97.667 -154.001 -121s-96.667 -35 -146 -35c-77.333 0 -141.5 27.667 -192.5 83s-76.5 130.666 -76.5 225.999c0 68 14.667 127.333 44 178s70.5 89.5 123.5 116.5s128.833 42.833 227.5 47.5c83.333 4.66699 140.5 9.66699 171.5 15
s57.5 13.333 79.5 24c12 50.667 18 92 18 124c0 44.667 -16.167 80.5 -48.5 107.5s-79.166 40.5 -140.499 40.5c-123.333 0 -203.333 -64.667 -240 -194l-150 16c63.333 217.333 196.333 326 399 326c100 0 179.333 -26.167 238 -78.5s88 -118.166 88 -197.499
c0 -56 -6.66699 -121.667 -20 -197l-48 -264c-15.333 -84 -23 -152 -23 -204c0 -36.667 5.66699 -85 17 -145h-149c-8.66699 33.333 -14.667 77.333 -18 132zM697.999 537.999c-36.667 -17.333 -98.6689 -30.666 -186.002 -39.999
c-89.333 -9.33301 -150.666 -21.333 -183.999 -36s-59.333 -37 -78 -67s-28 -64.667 -28 -104c0 -54 15 -96.667 45 -128s70 -47 120 -47c47.333 0 93 14.667 137 44s79.833 71.666 107.5 126.999s49.834 139 66.501 251zM378.997 1422h96.999
c10.667 -93.333 53.334 -140 128.001 -140c38 0 71.667 12.167 101 36.5s51.666 58.833 66.999 103.5h98c-19.333 -81.333 -53.666 -145 -102.999 -191s-105.333 -69 -168 -69c-62 0 -113.333 22.833 -154 68.5s-62.667 109.5 -66 191.5z" />
    <glyph glyph-name="Aogonek" unicode="&#x104;" horiz-adv-x="1120" 
d="M-33 0l681 1466h190l198 -1466h-156l-58 422h-486l-193 -422h-176zM405 573h397.001l-46 368c-18 145.333 -29.333 267 -34 365c-26.667 -84 -66.334 -183.667 -119.001 -299zM932.001 27l91.998 -0.000976562c-32 -86.667 -48 -154 -48 -202c0 -38 9 -67 27 -87
s40.667 -30 68 -30c36.667 0 84.334 14.333 143.001 43l-20 -120c-62 -37.333 -120.333 -56 -175 -56c-45.333 0 -81.166 15.333 -107.499 46s-39.5 76.334 -39.5 137.001c0 77.333 20 167 60 269z" />
    <glyph glyph-name="aogonek" unicode="&#x105;" 
d="M643 132c-54.667 -57.333 -106.001 -97.667 -154.001 -121s-96.667 -35 -146 -35c-77.333 0 -141.5 27.667 -192.5 83s-76.5 130.666 -76.5 225.999c0 68 14.667 127.333 44 178s70.5 89.5 123.5 116.5s128.833 42.833 227.5 47.5c83.333 4.66699 140.5 9.66699 171.5 15
s57.5 13.333 79.5 24c12 50.667 18 92 18 124c0 44.667 -16.167 80.5 -48.5 107.5s-79.166 40.5 -140.499 40.5c-123.333 0 -203.333 -64.667 -240 -194l-150 16c63.333 217.333 196.333 326 399 326c100 0 179.333 -26.167 238 -78.5s88 -118.166 88 -197.499
c0 -56 -6.66699 -121.667 -20 -197l-48 -264c-15.333 -84 -23 -152 -23 -204c0 -36.667 5.66699 -85 17 -145h-149c-8.66699 33.333 -14.667 77.333 -18 132zM697.999 537.999c-36.667 -17.333 -98.6689 -30.666 -186.002 -39.999
c-89.333 -9.33301 -150.666 -21.333 -183.999 -36s-59.333 -37 -78 -67s-28 -64.667 -28 -104c0 -54 15 -96.667 45 -128s70 -47 120 -47c47.333 0 93 14.667 137 44s79.833 71.666 107.5 126.999s49.834 139 66.501 251zM681.997 26.999l91.998 -0.000976562
c-32 -86.667 -48 -154 -48 -202c0 -38 9 -67 27 -87s40.667 -30 68 -30c36.667 0 84.334 14.333 143.001 43l-20 -120c-62 -37.333 -120.333 -56 -175 -56c-45.333 0 -81.166 15.333 -107.499 46s-39.5 76.334 -39.5 137.001c0 77.333 20 167 60 269z" />
    <glyph glyph-name="Cacute" unicode="&#x106;" horiz-adv-x="1212" 
d="M1012 516l159.001 -27.001c-50.667 -172 -124.834 -300.667 -222.501 -386s-204.5 -128 -320.5 -128c-142 0 -256.833 53 -344.5 159s-131.5 262.667 -131.5 470c0 242 55 446.667 165 614c119.333 182 273.666 273 462.999 273c121.333 0 222.833 -40.333 304.5 -121
s128.834 -194 141.501 -340l-150 -17c-31.333 210.667 -128 316 -290 316c-141.333 0 -255.666 -72.167 -342.999 -216.5s-131 -315.166 -131 -512.499c0 -153.333 31 -268.833 93 -346.5s140.333 -116.5 235 -116.5c81.333 0 152.666 29.333 213.999 88
c75.333 72 128 169 158 291zM703.001 1562l154 275h187l-218 -275h-123z" />
    <glyph glyph-name="cacute" unicode="&#x107;" horiz-adv-x="840" 
d="M656 387l148.995 -19.001c-37.333 -132.667 -90.666 -231.167 -159.999 -295.5s-146.666 -96.5 -231.999 -96.5c-92 0 -168.167 36.333 -228.5 109s-90.5 178 -90.5 316c0 135.333 22.167 258.333 66.5 369s100.333 191 168 241s142.834 75 225.501 75
c89.333 0 162.333 -31.333 219 -94s84.667 -148.667 84 -258l-146 -12c0 69.333 -16.167 122.5 -48.5 159.5s-72.166 55.5 -119.499 55.5c-52.667 0 -100.167 -17.5 -142.5 -52.5s-79 -99.667 -110 -194s-46.5 -198.833 -46.5 -313.5
c0 -85.333 16.833 -150.166 50.5 -194.499s73.834 -66.5 120.501 -66.5c48 0 94 22.333 138 67s78.333 112.667 103 204zM495.995 1191l154 275h187l-218 -275h-123z" />
    <glyph glyph-name="Ccircumflex" unicode="&#x108;" horiz-adv-x="1212" 
d="M1012 516l159.001 -27.001c-50.667 -172 -124.834 -300.667 -222.501 -386s-204.5 -128 -320.5 -128c-142 0 -256.833 53 -344.5 159s-131.5 262.667 -131.5 470c0 242 55 446.667 165 614c119.333 182 273.666 273 462.999 273c121.333 0 222.833 -40.333 304.5 -121
s128.834 -194 141.501 -340l-150 -17c-31.333 210.667 -128 316 -290 316c-141.333 0 -255.666 -72.167 -342.999 -216.5s-131 -315.166 -131 -512.499c0 -153.333 31 -268.833 93 -346.5s140.333 -116.5 235 -116.5c81.333 0 152.666 29.333 213.999 88
c75.333 72 128 169 158 291zM570.001 1564l217 275h164l102 -275h-130l-65 178l-136 -178h-152z" />
    <glyph glyph-name="ccircumflex" unicode="&#x109;" horiz-adv-x="840" 
d="M656 387l148.995 -19.001c-37.333 -132.667 -90.666 -231.167 -159.999 -295.5s-146.666 -96.5 -231.999 -96.5c-92 0 -168.167 36.333 -228.5 109s-90.5 178 -90.5 316c0 135.333 22.167 258.333 66.5 369s100.333 191 168 241s142.834 75 225.501 75
c89.333 0 162.333 -31.333 219 -94s84.667 -148.667 84 -258l-146 -12c0 69.333 -16.167 122.5 -48.5 159.5s-72.166 55.5 -119.499 55.5c-52.667 0 -100.167 -17.5 -142.5 -52.5s-79 -99.667 -110 -194s-46.5 -198.833 -46.5 -313.5
c0 -85.333 16.833 -150.166 50.5 -194.499s73.834 -66.5 120.501 -66.5c48 0 94 22.333 138 67s78.333 112.667 103 204zM332.995 1191l217 275h164l102 -275h-130l-65 178l-136 -178h-152z" />
    <glyph glyph-name="Cdot" unicode="&#x10a;" horiz-adv-x="1212" 
d="M1012 516l159.001 -27.001c-50.667 -172 -124.834 -300.667 -222.501 -386s-204.5 -128 -320.5 -128c-142 0 -256.833 53 -344.5 159s-131.5 262.667 -131.5 470c0 242 55 446.667 165 614c119.333 182 273.666 273 462.999 273c121.333 0 222.833 -40.333 304.5 -121
s128.834 -194 141.501 -340l-150 -17c-31.333 210.667 -128 316 -290 316c-141.333 0 -255.666 -72.167 -342.999 -216.5s-131 -315.166 -131 -512.499c0 -153.333 31 -268.833 93 -346.5s140.333 -116.5 235 -116.5c81.333 0 152.666 29.333 213.999 88
c75.333 72 128 169 158 291zM668.001 1598l38 223h183l-39 -223h-182z" />
    <glyph glyph-name="cdot" unicode="&#x10b;" horiz-adv-x="840" 
d="M656 387l148.995 -19.001c-37.333 -132.667 -90.666 -231.167 -159.999 -295.5s-146.666 -96.5 -231.999 -96.5c-92 0 -168.167 36.333 -228.5 109s-90.5 178 -90.5 316c0 135.333 22.167 258.333 66.5 369s100.333 191 168 241s142.834 75 225.501 75
c89.333 0 162.333 -31.333 219 -94s84.667 -148.667 84 -258l-146 -12c0 69.333 -16.167 122.5 -48.5 159.5s-72.166 55.5 -119.499 55.5c-52.667 0 -100.167 -17.5 -142.5 -52.5s-79 -99.667 -110 -194s-46.5 -198.833 -46.5 -313.5
c0 -85.333 16.833 -150.166 50.5 -194.499s73.834 -66.5 120.501 -66.5c48 0 94 22.333 138 67s78.333 112.667 103 204zM439.995 1227l38 223h183l-39 -223h-182z" />
    <glyph glyph-name="Ccaron" unicode="&#x10c;" horiz-adv-x="1212" 
d="M1012 516l159.001 -27.001c-50.667 -172 -124.834 -300.667 -222.501 -386s-204.5 -128 -320.5 -128c-142 0 -256.833 53 -344.5 159s-131.5 262.667 -131.5 470c0 242 55 446.667 165 614c119.333 182 273.666 273 462.999 273c121.333 0 222.833 -40.333 304.5 -121
s128.834 -194 141.501 -340l-150 -17c-31.333 210.667 -128 316 -290 316c-141.333 0 -255.666 -72.167 -342.999 -216.5s-131 -315.166 -131 -512.499c0 -153.333 31 -268.833 93 -346.5s140.333 -116.5 235 -116.5c81.333 0 152.666 29.333 213.999 88
c75.333 72 128 169 158 291zM1118 1837l-217 -275h-164l-101 275h129l63 -178l136 178h154z" />
    <glyph glyph-name="ccaron" unicode="&#x10d;" horiz-adv-x="840" 
d="M656 387l148.995 -19.001c-37.333 -132.667 -90.666 -231.167 -159.999 -295.5s-146.666 -96.5 -231.999 -96.5c-92 0 -168.167 36.333 -228.5 109s-90.5 178 -90.5 316c0 135.333 22.167 258.333 66.5 369s100.333 191 168 241s142.834 75 225.501 75
c89.333 0 162.333 -31.333 219 -94s84.667 -148.667 84 -258l-146 -12c0 69.333 -16.167 122.5 -48.5 159.5s-72.166 55.5 -119.499 55.5c-52.667 0 -100.167 -17.5 -142.5 -52.5s-79 -99.667 -110 -194s-46.5 -198.833 -46.5 -313.5
c0 -85.333 16.833 -150.166 50.5 -194.499s73.834 -66.5 120.501 -66.5c48 0 94 22.333 138 67s78.333 112.667 103 204zM885.995 1466l-217 -275h-164l-101 275h129l63 -178l136 178h154z" />
    <glyph glyph-name="Dcaron" unicode="&#x10e;" horiz-adv-x="1212" 
d="M74 0l250.999 1466h363c81.333 0 143.333 -6.33301 186 -19c62.667 -18 118.5 -51.667 167.5 -101s86.833 -115 113.5 -197s40 -176.333 40 -283c0 -142 -21.833 -270.833 -65.5 -386.5s-97.667 -211.167 -162 -286.5s-139.5 -128 -225.5 -158
c-65.333 -23.333 -143.666 -35 -234.999 -35h-433zM262.999 166l191.004 -0.000976562c89.333 0 165.166 9.5 227.499 28.5s118.166 56 167.499 111s92.166 132.167 128.499 231.5s54.5 212.333 54.5 339c0 111.333 -15.833 199.833 -47.5 265.5
s-74.834 109.834 -129.501 132.501c-39.333 16.667 -101 25 -185 25h-213zM998.003 1837l-217 -275h-164l-101 275h129l63 -178l136 178h154z" />
    <glyph glyph-name="dcaron" unicode="&#x10f;" horiz-adv-x="1049" 
d="M642 154c-84 -118.667 -172.667 -177.999 -266 -177.999c-80 0 -148 36.333 -204 109s-84 181.667 -84 327c0 130 22.333 249.167 67 357.5s99.667 188.166 165 239.499s130.333 77 195 77c107.333 0 188.333 -63.667 243 -191l98 571h148l-251 -1466h-137zM236 445.001
l-1 -43c0 -88 20.333 -160 61 -216c31.333 -43.333 72.666 -65 123.999 -65c66.667 0 127.667 42.667 183 128c72.667 114 109 254 109 420c0 85.333 -18.667 151.333 -56 198s-81.666 70 -132.999 70c-50 0 -97 -22.333 -141 -67s-79.333 -111.667 -106 -201
s-40 -164 -40 -224zM1063 1282l32 184h152l-27 -161c-12 -70 -36 -125.667 -72 -167s-75.667 -64.333 -119 -69l12 71c54.667 18 89.667 65.333 105 142h-83z" />
    <glyph glyph-name="Dslash" unicode="&#x110;" horiz-adv-x="1212" 
d="M75 0l116 666.001h-130l23 134h130l116 666h358c85.333 0 147.333 -5.66699 186 -17c60 -16.667 115 -49.834 165 -99.501s88.667 -115.5 116 -197.5s41 -177.333 41 -286c0 -142 -21.833 -270.833 -65.5 -386.5s-97.667 -211.167 -162 -286.5s-139.833 -128 -226.5 -158
c-64.667 -23.333 -143 -35 -235 -35h-432zM264 166.001h190c90 0 166.333 9.5 229 28.5s118.5 56.167 167.5 111.5s91.5 132.666 127.5 231.999s54 212 54 338c0 111.333 -15.833 199.833 -47.5 265.5s-74.5 109.834 -128.5 132.501c-39.333 16.667 -101 25 -185 25h-210
l-86 -499h331l-23 -134h-332z" />
    <glyph glyph-name="dmacron" unicode="&#x111;" horiz-adv-x="928" 
d="M816 1234l-267 0.000976562l19 104h266l22 128h148l-21 -128h110l-18 -104h-110l-212 -1234h-137l26 154c-84 -118.667 -172.667 -178 -266 -178c-80 0 -148 36.333 -204 109s-84 181.667 -84 327c0 130 22.333 249.167 67 357.5s99.667 188.166 165 239.499
s130.333 77 195 77c107.333 0 188.333 -63.667 243 -191zM236 445.001l-1 -43c0 -88 20.333 -160 61 -216c31.333 -43.333 72.666 -65 123.999 -65c66.667 0 127.667 42.667 183 128c72.667 114 109 254 109 420c0 85.333 -18.667 151.333 -56 198s-81.666 70 -132.999 70
c-50 0 -97 -22.333 -141 -67s-79.333 -111.667 -106 -201s-40 -164 -40 -224z" />
    <glyph glyph-name="Emacron" unicode="&#x112;" horiz-adv-x="1120" 
d="M76 0l251 1466h868l-28 -167h-708l-78 -456h688l-28 -167h-688l-88 -510h757l-29 -166h-917zM525 1562l24 139h509l-24 -139h-509z" />
    <glyph glyph-name="emacron" unicode="&#x113;" 
d="M695 361l144.999 -18c-24 -103.333 -79.667 -193.333 -167 -270c-72.667 -64.667 -153.667 -97 -243 -97c-63.333 0 -121 17.167 -173 51.5s-93.333 85.666 -124 153.999s-46 149.833 -46 244.5c0 124.667 23.5 241 70.5 349s104.5 186.833 172.5 236.5
s141.667 74.5 221 74.5c100.667 0 182.834 -38.333 246.501 -115s95.5 -185 95.5 -325c0 -52 -3.66699 -105.333 -11 -160h-642c-2 -21.333 -3 -40.333 -3 -57c0 -100 19 -175.833 57 -227.5s83.667 -77.5 137 -77.5c50.667 0 100.5 20.333 149.5 61
s87.167 99.334 114.5 176.001zM263.999 624l489 -0.000976562v37c0 94.667 -18.667 165.667 -56 213s-85 71 -143 71c-62.667 0 -120.167 -26.667 -172.5 -80s-91.5 -133.666 -117.5 -240.999zM315.999 1190l24 139h509l-24 -139h-509z" />
    <glyph glyph-name="Ebreve" unicode="&#x114;" horiz-adv-x="1120" 
d="M76 0l251 1466h868l-28 -167h-708l-78 -456h688l-28 -167h-688l-88 -510h757l-29 -166h-917zM580 1823h96.999c10.667 -93.333 53.334 -140 128.001 -140c38 0 71.667 12.167 101 36.5s51.666 58.833 66.999 103.5h98c-19.333 -81.333 -53.666 -145 -102.999 -191
s-105.333 -69 -168 -69c-62 0 -113.333 22.833 -154 68.5s-62.667 109.5 -66 191.5z" />
    <glyph glyph-name="ebreve" unicode="&#x115;" 
d="M695 361l144.999 -18c-24 -103.333 -79.667 -193.333 -167 -270c-72.667 -64.667 -153.667 -97 -243 -97c-63.333 0 -121 17.167 -173 51.5s-93.333 85.666 -124 153.999s-46 149.833 -46 244.5c0 124.667 23.5 241 70.5 349s104.5 186.833 172.5 236.5
s141.667 74.5 221 74.5c100.667 0 182.834 -38.333 246.501 -115s95.5 -185 95.5 -325c0 -52 -3.66699 -105.333 -11 -160h-642c-2 -21.333 -3 -40.333 -3 -57c0 -100 19 -175.833 57 -227.5s83.667 -77.5 137 -77.5c50.667 0 100.5 20.333 149.5 61
s87.167 99.334 114.5 176.001zM263.999 624l489 -0.000976562v37c0 94.667 -18.667 165.667 -56 213s-85 71 -143 71c-62.667 0 -120.167 -26.667 -172.5 -80s-91.5 -133.666 -117.5 -240.999zM341.999 1450h96.999c10.667 -93.333 53.334 -140 128.001 -140
c38 0 71.667 12.167 101 36.5s51.666 58.833 66.999 103.5h98c-19.333 -81.333 -53.666 -145 -102.999 -191s-105.333 -69 -168 -69c-62 0 -113.333 22.833 -154 68.5s-62.667 109.5 -66 191.5z" />
    <glyph glyph-name="Edot" unicode="&#x116;" horiz-adv-x="1120" 
d="M76 0l251 1466h868l-28 -167h-708l-78 -456h688l-28 -167h-688l-88 -510h757l-29 -166h-917zM702 1598l38 223h183l-39 -223h-182z" />
    <glyph glyph-name="edot" unicode="&#x117;" 
d="M695 361l144.999 -18c-24 -103.333 -79.667 -193.333 -167 -270c-72.667 -64.667 -153.667 -97 -243 -97c-63.333 0 -121 17.167 -173 51.5s-93.333 85.666 -124 153.999s-46 149.833 -46 244.5c0 124.667 23.5 241 70.5 349s104.5 186.833 172.5 236.5
s141.667 74.5 221 74.5c100.667 0 182.834 -38.333 246.501 -115s95.5 -185 95.5 -325c0 -52 -3.66699 -105.333 -11 -160h-642c-2 -21.333 -3 -40.333 -3 -57c0 -100 19 -175.833 57 -227.5s83.667 -77.5 137 -77.5c50.667 0 100.5 20.333 149.5 61
s87.167 99.334 114.5 176.001zM263.999 624l489 -0.000976562v37c0 94.667 -18.667 165.667 -56 213s-85 71 -143 71c-62.667 0 -120.167 -26.667 -172.5 -80s-91.5 -133.666 -117.5 -240.999zM483.999 1229l38 223h183l-39 -223h-182z" />
    <glyph glyph-name="Eogonek" unicode="&#x118;" horiz-adv-x="1120" 
d="M76 0l251 1466h868l-28 -167h-708l-78 -456h688l-28 -167h-688l-88 -510h757l-29 -166h-917zM715 27l91.998 -0.000976562c-32 -86.667 -48 -154 -48 -202c0 -38 9 -67 27 -87s40.667 -30 68 -30c36.667 0 84.334 14.333 143.001 43l-20 -120
c-62 -37.333 -120.333 -56 -175 -56c-45.333 0 -81.166 15.333 -107.499 46s-39.5 76.334 -39.5 137.001c0 77.333 20 167 60 269z" />
    <glyph glyph-name="eogonek" unicode="&#x119;" 
d="M695 361l144.999 -18c-24 -103.333 -79.667 -193.333 -167 -270c-72.667 -64.667 -153.667 -97 -243 -97c-63.333 0 -121 17.167 -173 51.5s-93.333 85.666 -124 153.999s-46 149.833 -46 244.5c0 124.667 23.5 241 70.5 349s104.5 186.833 172.5 236.5
s141.667 74.5 221 74.5c100.667 0 182.834 -38.333 246.501 -115s95.5 -185 95.5 -325c0 -52 -3.66699 -105.333 -11 -160h-642c-2 -21.333 -3 -40.333 -3 -57c0 -100 19 -175.833 57 -227.5s83.667 -77.5 137 -77.5c50.667 0 100.5 20.333 149.5 61
s87.167 99.334 114.5 176.001zM263.999 624l489 -0.000976562v37c0 94.667 -18.667 165.667 -56 213s-85 71 -143 71c-62.667 0 -120.167 -26.667 -172.5 -80s-91.5 -133.666 -117.5 -240.999zM378.999 26.999l91.998 -0.000976562c-32 -86.667 -48 -154 -48 -202
c0 -38 9 -67 27 -87s40.667 -30 68 -30c36.667 0 84.334 14.333 143.001 43l-20 -120c-62 -37.333 -120.333 -56 -175 -56c-45.333 0 -81.166 15.333 -107.499 46s-39.5 76.334 -39.5 137.001c0 77.333 20 167 60 269z" />
    <glyph glyph-name="Ecaron" unicode="&#x11a;" horiz-adv-x="1120" 
d="M76 0l251 1466h868l-28 -167h-708l-78 -456h688l-28 -167h-688l-88 -510h757l-29 -166h-917zM1048 1837l-217 -275h-164l-101 275h129l63 -178l136 178h154z" />
    <glyph glyph-name="ecaron" unicode="&#x11b;" 
d="M695 361l144.999 -18c-24 -103.333 -79.667 -193.333 -167 -270c-72.667 -64.667 -153.667 -97 -243 -97c-63.333 0 -121 17.167 -173 51.5s-93.333 85.666 -124 153.999s-46 149.833 -46 244.5c0 124.667 23.5 241 70.5 349s104.5 186.833 172.5 236.5
s141.667 74.5 221 74.5c100.667 0 182.834 -38.333 246.501 -115s95.5 -185 95.5 -325c0 -52 -3.66699 -105.333 -11 -160h-642c-2 -21.333 -3 -40.333 -3 -57c0 -100 19 -175.833 57 -227.5s83.667 -77.5 137 -77.5c50.667 0 100.5 20.333 149.5 61
s87.167 99.334 114.5 176.001zM263.999 624l489 -0.000976562v37c0 94.667 -18.667 165.667 -56 213s-85 71 -143 71c-62.667 0 -120.167 -26.667 -172.5 -80s-91.5 -133.666 -117.5 -240.999zM868.999 1466l-217 -275h-164l-101 275h129l63 -178l136 178h154z" />
    <glyph glyph-name="Gcircumflex" unicode="&#x11c;" horiz-adv-x="1307" 
d="M688 578l27.9971 165.998h527l-102 -597c-69.333 -53.333 -146.5 -95.333 -231.5 -126s-166.833 -46 -245.5 -46c-170 0 -296 57.833 -378 173.5s-123 261.834 -123 438.501c0 178 32.333 339.167 97 483.5s145.334 250.5 242.001 318.5s203.667 102 321 102
c139.333 0 252.333 -48.333 339 -145c61.333 -68.667 103 -171.667 125 -309l-158 -21c-17.333 104 -53.166 182 -107.499 234s-122.5 78 -204.5 78c-84 0 -163.167 -27.667 -237.5 -83s-135.166 -140.666 -182.499 -255.999s-71 -250.333 -71 -405
c0 -152 30.667 -264.5 92 -337.5s143 -109.5 245 -109.5c104 0 216.333 42 337 126l54 315h-366zM583.997 1564l217 275h164l102 -275h-130l-65 178l-136 -178h-152z" />
    <glyph glyph-name="gcircumflex" unicode="&#x11d;" 
d="M48 -96l149.999 -17v-24c0 -46 13 -80.667 39 -104s66.667 -35 122 -35c86 0 149 26.333 189 79c28 38.667 53.333 123.334 76 254.001l15 86c-77.333 -95.333 -159.333 -143 -246 -143c-86 0 -159.167 38.833 -219.5 116.5s-90.5 190.167 -90.5 337.5
c0 116 23.167 225.167 69.5 327.5s102.333 178.666 168 228.999s131.834 75.5 198.501 75.5c114 0 202 -66 264 -198l30 174h135l-175 -1025c-26.667 -154.667 -67 -266 -121 -334c-68 -85.333 -160.333 -128 -277 -128c-110.667 0 -193.5 24.5 -248.5 73.5
s-82.5 116.167 -82.5 201.5c0 16 1.33301 34 4 54zM232.999 470c0 -79.333 8.5 -141.333 25.5 -186s40.333 -78.5 70 -101.5s61.167 -34.5 94.5 -34.5c44.667 0 90 18.5 136 55.5s85.667 98.667 119 185s50 174.833 50 265.5c0 89.333 -20.167 159.333 -60.5 210
s-88.833 76 -145.5 76c-46 0 -91.5 -20.5 -136.5 -61.5s-81.667 -103.667 -110 -188s-42.5 -157.833 -42.5 -220.5zM315.999 1191l217 275h164l102 -275h-130l-65 178l-136 -178h-152z" />
    <glyph glyph-name="Gbreve" unicode="&#x11e;" horiz-adv-x="1307" 
d="M688 578l27.9971 165.998h527l-102 -597c-69.333 -53.333 -146.5 -95.333 -231.5 -126s-166.833 -46 -245.5 -46c-170 0 -296 57.833 -378 173.5s-123 261.834 -123 438.501c0 178 32.333 339.167 97 483.5s145.334 250.5 242.001 318.5s203.667 102 321 102
c139.333 0 252.333 -48.333 339 -145c61.333 -68.667 103 -171.667 125 -309l-158 -21c-17.333 104 -53.166 182 -107.499 234s-122.5 78 -204.5 78c-84 0 -163.167 -27.667 -237.5 -83s-135.166 -140.666 -182.499 -255.999s-71 -250.333 -71 -405
c0 -152 30.667 -264.5 92 -337.5s143 -109.5 245 -109.5c104 0 216.333 42 337 126l54 315h-366zM651.997 1793h96.999c10.667 -93.333 53.334 -140 128.001 -140c38 0 71.667 12.167 101 36.5s51.666 58.833 66.999 103.5h98c-19.333 -81.333 -53.666 -145 -102.999 -191
s-105.333 -69 -168 -69c-62 0 -113.333 22.833 -154 68.5s-62.667 109.5 -66 191.5z" />
    <glyph glyph-name="gbreve" unicode="&#x11f;" 
d="M48 -96l149.999 -17v-24c0 -46 13 -80.667 39 -104s66.667 -35 122 -35c86 0 149 26.333 189 79c28 38.667 53.333 123.334 76 254.001l15 86c-77.333 -95.333 -159.333 -143 -246 -143c-86 0 -159.167 38.833 -219.5 116.5s-90.5 190.167 -90.5 337.5
c0 116 23.167 225.167 69.5 327.5s102.333 178.666 168 228.999s131.834 75.5 198.501 75.5c114 0 202 -66 264 -198l30 174h135l-175 -1025c-26.667 -154.667 -67 -266 -121 -334c-68 -85.333 -160.333 -128 -277 -128c-110.667 0 -193.5 24.5 -248.5 73.5
s-82.5 116.167 -82.5 201.5c0 16 1.33301 34 4 54zM232.999 470c0 -79.333 8.5 -141.333 25.5 -186s40.333 -78.5 70 -101.5s61.167 -34.5 94.5 -34.5c44.667 0 90 18.5 136 55.5s85.667 98.667 119 185s50 174.833 50 265.5c0 89.333 -20.167 159.333 -60.5 210
s-88.833 76 -145.5 76c-46 0 -91.5 -20.5 -136.5 -61.5s-81.667 -103.667 -110 -188s-42.5 -157.833 -42.5 -220.5zM387.999 1422h96.999c10.667 -93.333 53.334 -140 128.001 -140c38 0 71.667 12.167 101 36.5s51.666 58.833 66.999 103.5h98
c-19.333 -81.333 -53.666 -145 -102.999 -191s-105.333 -69 -168 -69c-62 0 -113.333 22.833 -154 68.5s-62.667 109.5 -66 191.5z" />
    <glyph glyph-name="Gdot" unicode="&#x120;" horiz-adv-x="1307" 
d="M688 578l27.9971 165.998h527l-102 -597c-69.333 -53.333 -146.5 -95.333 -231.5 -126s-166.833 -46 -245.5 -46c-170 0 -296 57.833 -378 173.5s-123 261.834 -123 438.501c0 178 32.333 339.167 97 483.5s145.334 250.5 242.001 318.5s203.667 102 321 102
c139.333 0 252.333 -48.333 339 -145c61.333 -68.667 103 -171.667 125 -309l-158 -21c-17.333 104 -53.166 182 -107.499 234s-122.5 78 -204.5 78c-84 0 -163.167 -27.667 -237.5 -83s-135.166 -140.666 -182.499 -255.999s-71 -250.333 -71 -405
c0 -152 30.667 -264.5 92 -337.5s143 -109.5 245 -109.5c104 0 216.333 42 337 126l54 315h-366zM743.997 1598l38 223h183l-39 -223h-182z" />
    <glyph glyph-name="gdot" unicode="&#x121;" 
d="M48 -96l149.999 -17v-24c0 -46 13 -80.667 39 -104s66.667 -35 122 -35c86 0 149 26.333 189 79c28 38.667 53.333 123.334 76 254.001l15 86c-77.333 -95.333 -159.333 -143 -246 -143c-86 0 -159.167 38.833 -219.5 116.5s-90.5 190.167 -90.5 337.5
c0 116 23.167 225.167 69.5 327.5s102.333 178.666 168 228.999s131.834 75.5 198.501 75.5c114 0 202 -66 264 -198l30 174h135l-175 -1025c-26.667 -154.667 -67 -266 -121 -334c-68 -85.333 -160.333 -128 -277 -128c-110.667 0 -193.5 24.5 -248.5 73.5
s-82.5 116.167 -82.5 201.5c0 16 1.33301 34 4 54zM232.999 470c0 -79.333 8.5 -141.333 25.5 -186s40.333 -78.5 70 -101.5s61.167 -34.5 94.5 -34.5c44.667 0 90 18.5 136 55.5s85.667 98.667 119 185s50 174.833 50 265.5c0 89.333 -20.167 159.333 -60.5 210
s-88.833 76 -145.5 76c-46 0 -91.5 -20.5 -136.5 -61.5s-81.667 -103.667 -110 -188s-42.5 -157.833 -42.5 -220.5zM486.999 1229l38 223h183l-39 -223h-182z" />
    <glyph glyph-name="Gcedilla" unicode="&#x122;" horiz-adv-x="1307" 
d="M688 578l27.9971 165.998h527l-102 -597c-69.333 -53.333 -146.5 -95.333 -231.5 -126s-166.833 -46 -245.5 -46c-170 0 -296 57.833 -378 173.5s-123 261.834 -123 438.501c0 178 32.333 339.167 97 483.5s145.334 250.5 242.001 318.5s203.667 102 321 102
c139.333 0 252.333 -48.333 339 -145c61.333 -68.667 103 -171.667 125 -309l-158 -21c-17.333 104 -53.166 182 -107.499 234s-122.5 78 -204.5 78c-84 0 -163.167 -27.667 -237.5 -83s-135.166 -140.666 -182.499 -255.999s-71 -250.333 -71 -405
c0 -152 30.667 -264.5 92 -337.5s143 -109.5 245 -109.5c104 0 216.333 42 337 126l54 315h-366zM558.997 -149.002l33 161.001h115l-20 -90c46 -8 82.167 -27.5 108.5 -58.5s39.5 -68.167 39.5 -111.5c0 -52.667 -22.333 -95.334 -67 -128.001s-115.667 -49 -213 -49
c-53.333 0 -100 4 -140 12l18 112c33.333 -2 73 -3 119 -3c52 0 88.333 6.66699 109 20s31 30.666 31 51.999c0 23.333 -10.833 42.833 -32.5 58.5s-55.167 23.834 -100.5 24.501z" />
    <glyph glyph-name="gcedilla" unicode="&#x123;" 
d="M48 -96l149.999 -17v-24c0 -46 13 -80.667 39 -104s66.667 -35 122 -35c86 0 149 26.333 189 79c28 38.667 53.333 123.334 76 254.001l15 86c-77.333 -95.333 -159.333 -143 -246 -143c-86 0 -159.167 38.833 -219.5 116.5s-90.5 190.167 -90.5 337.5
c0 116 23.167 225.167 69.5 327.5s102.333 178.666 168 228.999s131.834 75.5 198.501 75.5c114 0 202 -66 264 -198l30 174h135l-175 -1025c-26.667 -154.667 -67 -266 -121 -334c-68 -85.333 -160.333 -128 -277 -128c-110.667 0 -193.5 24.5 -248.5 73.5
s-82.5 116.167 -82.5 201.5c0 16 1.33301 34 4 54zM232.999 470c0 -79.333 8.5 -141.333 25.5 -186s40.333 -78.5 70 -101.5s61.167 -34.5 94.5 -34.5c44.667 0 90 18.5 136 55.5s85.667 98.667 119 185s50 174.833 50 265.5c0 89.333 -20.167 159.333 -60.5 210
s-88.833 76 -145.5 76c-46 0 -91.5 -20.5 -136.5 -61.5s-81.667 -103.667 -110 -188s-42.5 -157.833 -42.5 -220.5zM691.999 1335l-32 -184h-152l27 161c12 70 36 125.667 72 167s75.667 64.333 119 69l-12 -71c-54.667 -18 -89.667 -65.333 -105 -142h83z" />
    <glyph glyph-name="Hcircumflex" unicode="&#x124;" horiz-adv-x="1212" 
d="M70 0l251 1466h161l-104 -609h623l104 609h161l-251 -1466h-161l118 691h-623l-118 -691h-161zM578 1564l217 275h164l102 -275h-130l-65 178l-136 -178h-152z" />
    <glyph glyph-name="hcircumflex" unicode="&#x125;" 
d="M56 0l250.998 1466h149l-97 -563c58 68.667 110.833 116.334 158.5 143.001s95.5 40 143.5 40c68.667 0 123.667 -22.333 165 -67s62 -106 62 -184c0 -38.667 -8.66699 -108 -26 -208l-107 -627h-149l111 643c16 92.667 24 151.334 24 176.001
c0 36 -10.5 64.667 -31.5 86s-48.833 32 -83.5 32c-51.333 0 -100.666 -15.667 -147.999 -47s-85.666 -76.833 -114.999 -136.5s-56 -158.834 -80 -297.501l-79 -456h-148zM444.998 1564l217 275h164l102 -275h-130l-65 178l-136 -178h-152z" />
    <glyph glyph-name="Hbar" unicode="&#x126;" horiz-adv-x="1212" 
d="M1208 1114l-190 -1114h-160l119 692h-625l-116 -692h-162l190 1114h-110l24 139h111l37 213h159l-36 -213h622l37 213h162l-37 -213h121l-23 -139h-123zM424 1114l-43 -256h625l43 256h-625z" />
    <glyph glyph-name="hbar" unicode="&#x127;" 
d="M147 1352l111 -0.000976562l21 114h147l-18 -114h307l-27 -152h-307l-51 -297c100 121.333 201 182 303 182c68.667 0 123.667 -22.667 165 -68s62 -103.666 62 -174.999c0 -41.333 -8.66699 -113 -26 -215l-109 -627h-147l110 643c15.333 81.333 23 140 23 176
c0 79.333 -38.333 119 -115 119c-59.333 0 -114.333 -20.667 -165 -62s-88.167 -94.333 -112.5 -159s-45.833 -152 -64.5 -262l-78 -455h-149l206 1200h-114z" />
    <glyph glyph-name="Itilde" unicode="&#x128;" horiz-adv-x="467" 
d="M96 0l251 1466h161l-251 -1466h-161zM214 1563c18 88 40.167 147.332 66.5 177.999s59.5 46 99.5 46c18 0 35.5 -2.66699 52.5 -8s45.833 -18.666 86.5 -39.999c45.333 -24.667 75.666 -37 90.999 -37c28.667 0 48.334 26.333 59.001 79h99c-6 -70 -24.5 -124 -55.5 -162
s-66.167 -57 -105.5 -57c-22 0 -49.667 8.66699 -83 26c-75.333 40 -122 60 -140 60c-36 0 -58.333 -28.333 -67 -85h-103z" />
    <glyph glyph-name="itilde" unicode="&#x129;" horiz-adv-x="467" 
d="M103 0l182 1062h148l-182 -1062h-148zM125 1226c18 88 40.167 147.332 66.5 177.999s59.5 46 99.5 46c18 0 35.5 -2.66699 52.5 -8s45.833 -18.666 86.5 -39.999c45.333 -24.667 75.666 -37 90.999 -37c28.667 0 48.334 26.333 59.001 79h99
c-6 -70 -24.5 -124 -55.5 -162s-66.167 -57 -105.5 -57c-22 0 -49.667 8.66699 -83 26c-75.333 40 -122 60 -140 60c-36 0 -58.333 -28.333 -67 -85h-103z" />
    <glyph glyph-name="Imacron" unicode="&#x12a;" horiz-adv-x="467" 
d="M96 0l251 1466h161l-251 -1466h-161zM189 1598l24 139h509l-24 -139h-509z" />
    <glyph glyph-name="imacron" unicode="&#x12b;" horiz-adv-x="467" 
d="M103 0l182 1062h148l-182 -1062h-148zM126 1229l24 139h509l-24 -139h-509z" />
    <glyph glyph-name="Ibreve" unicode="&#x12c;" horiz-adv-x="467" 
d="M96 0l251 1466h161l-251 -1466h-161zM233 1823h96.999c10.667 -93.333 53.334 -140 128.001 -140c38 0 71.667 12.167 101 36.5s51.666 58.833 66.999 103.5h98c-19.333 -81.333 -53.666 -145 -102.999 -191s-105.333 -69 -168 -69c-62 0 -113.333 22.833 -154 68.5
s-62.667 109.5 -66 191.5z" />
    <glyph glyph-name="ibreve" unicode="&#x12d;" horiz-adv-x="467" 
d="M103 0l182 1062h148l-182 -1062h-148zM155 1450h96.999c10.667 -93.333 53.334 -140 128.001 -140c38 0 71.667 12.167 101 36.5s51.666 58.833 66.999 103.5h98c-19.333 -81.333 -53.666 -145 -102.999 -191s-105.333 -69 -168 -69c-62 0 -113.333 22.833 -154 68.5
s-62.667 109.5 -66 191.5z" />
    <glyph glyph-name="Iogonek" unicode="&#x12e;" horiz-adv-x="467" 
d="M96 0l251 1466h161l-251 -1466h-161zM121 27l91.998 -0.000976562c-32 -86.667 -48 -154 -48 -202c0 -38 9 -67 27 -87s40.667 -30 68 -30c36.667 0 84.334 14.333 143.001 43l-20 -120c-62 -37.333 -120.333 -56 -175 -56c-45.333 0 -81.166 15.333 -107.499 46
s-39.5 76.334 -39.5 137.001c0 77.333 20 167 60 269z" />
    <glyph glyph-name="iogonek" unicode="&#x12f;" horiz-adv-x="373" 
d="M266 1261l35 205h148l-35 -205h-148zM50 0l182 1062h148l-182 -1062h-148zM80 27l91.998 -0.000976562c-32 -86.667 -48 -154 -48 -202c0 -38 9 -67 27 -87s40.667 -30 68 -30c36.667 0 84.334 14.333 143.001 43l-20 -120c-62 -37.333 -120.333 -56 -175 -56
c-45.333 0 -81.166 15.333 -107.499 46s-39.5 76.334 -39.5 137.001c0 77.333 20 167 60 269z" />
    <glyph glyph-name="Idot" unicode="&#x130;" horiz-adv-x="467" 
d="M96 0l251 1466h161l-251 -1466h-161zM355 1580l38 223h183l-39 -223h-182z" />
    <glyph glyph-name="dotlessi" unicode="&#x131;" horiz-adv-x="467" 
d="M103 0l182 1062h148l-182 -1062h-148z" />
    <glyph glyph-name="IJ" unicode="&#x132;" horiz-adv-x="1307" 
d="M96 0l251 1466h161l-251 -1466h-161zM536 427l149 13.001c-9.33301 -56.667 -14 -99 -14 -127c0 -55.333 14.5 -98.5 43.5 -129.5s66.833 -46.5 113.5 -46.5c32.667 0 62.167 8.66699 88.5 26s47.833 43.833 64.5 79.5s32.334 97.167 47.001 184.5l178 1039h161
l-183 -1071c-26 -152.667 -69.333 -260.834 -130 -324.501s-137.334 -95.5 -230.001 -95.5c-94 0 -167.667 26.833 -221 80.5s-80 133.5 -80 239.5c0 44.667 4.33301 88.667 13 132z" />
    <glyph glyph-name="ij" unicode="&#x133;" horiz-adv-x="746" 
d="M266 1261l35 205h148l-35 -205h-148zM50 0l182 1062h148l-182 -1062h-148zM638 1261l35 205h147l-36 -205h-146zM168 -399l26 153.999c34 -11.333 64.333 -17 91 -17c32 0 57.333 13.333 76 40s38 97.334 58 212.001l183 1072h149l-190 -1105
c-24 -140 -51.667 -235 -83 -285c-40.667 -64.667 -97 -97 -169 -97c-38.667 0 -85.667 8.66699 -141 26z" />
    <glyph glyph-name="Jcircumflex" unicode="&#x134;" horiz-adv-x="840" 
d="M68 427l149 13.001c-9.33301 -56.667 -14 -99 -14 -127c0 -55.333 14.5 -98.5 43.5 -129.5s66.833 -46.5 113.5 -46.5c32.667 0 62.167 8.66699 88.5 26s47.833 43.833 64.5 79.5s32.334 97.167 47.001 184.5l178 1039h161l-183 -1071
c-26 -152.667 -69.333 -260.834 -130 -324.501s-137.334 -95.5 -230.001 -95.5c-94 0 -167.667 26.833 -221 80.5s-80 133.5 -80 239.5c0 44.667 4.33301 88.667 13 132zM578 1564l217 275h164l102 -275h-130l-65 178l-136 -178h-152z" />
    <glyph glyph-name="jcircumflex" unicode="&#x135;" horiz-adv-x="373" 
d="M-204 -399l26 153.999c34 -11.333 64.333 -17 91 -17c32 0 57.333 13.333 76 40s38 97.334 58 212.001l183 1072h149l-190 -1105c-24 -140 -51.667 -235 -83 -285c-40.667 -64.667 -97 -97 -169 -97c-38.667 0 -85.667 8.66699 -141 26zM74 1191l217 275h164l102 -275
h-130l-65 178l-136 -178h-152z" />
    <glyph glyph-name="Kcedilla" unicode="&#x136;" horiz-adv-x="1120" 
d="M75 0l251 1466h161l-121 -706l653 706h226l-558 -597l409 -869h-179l-348 743l-252 -267l-81 -476h-161zM474 -149l16 87.001c39.333 0 80.333 -4 123 -12c38.667 -10.667 71.167 -31.5 97.5 -62.5s39.5 -68.167 39.5 -111.5c0 -52.667 -22.333 -95.334 -67 -128.001
s-115.667 -49 -213 -49c-53.333 0 -100 4 -140 12l18 112c33.333 -2 73 -3 119 -3c52 0 88.333 6.66699 109 20s31 30.666 31 51.999c0 23.333 -10.833 42.833 -32.5 58.5s-55.167 23.834 -100.5 24.501z" />
    <glyph glyph-name="kcedilla" unicode="&#x137;" horiz-adv-x="840" 
d="M57 0l251 1466h149l-156 -909l432 505h197l-372 -396l224 -666h-162l-173 545l-181 -190l-61 -355h-148zM321 -149l16 87.001c39.333 0 80.333 -4 123 -12c38.667 -10.667 71.167 -31.5 97.5 -62.5s39.5 -68.167 39.5 -111.5c0 -52.667 -22.333 -95.334 -67 -128.001
s-115.667 -49 -213 -49c-53.333 0 -100 4 -140 12l18 112c33.333 -2 73 -3 119 -3c52 0 88.333 6.66699 109 20s31 30.666 31 51.999c0 23.333 -10.833 42.833 -32.5 58.5s-55.167 23.834 -100.5 24.501z" />
    <glyph glyph-name="kgreenlandic" unicode="&#x138;" horiz-adv-x="840" 
d="M50 0l189 1061h147l-82 -467l424 467h197l-432 -440l297 -621h-170l-236 510l-116 -121l-68 -389h-150z" />
    <glyph glyph-name="Lacute" unicode="&#x139;" 
d="M67 0l251 1466h161l-223 -1300h624l-28 -166h-785zM431 1562l154 275h187l-218 -275h-123z" />
    <glyph glyph-name="lacute" unicode="&#x13a;" horiz-adv-x="373" 
d="M44 0l251 1466h149l-251 -1466h-149zM247 1541l154 275h187l-218 -275h-123z" />
    <glyph glyph-name="Lcedilla" unicode="&#x13b;" 
d="M67 0l251 1466h161l-223 -1300h624l-28 -166h-785zM372 -149l16 87.001c39.333 0 80.333 -4 123 -12c38.667 -10.667 71.167 -31.5 97.5 -62.5s39.5 -68.167 39.5 -111.5c0 -52.667 -22.333 -95.334 -67 -128.001s-115.667 -49 -213 -49c-53.333 0 -100 4 -140 12l18 112
c33.333 -2 73 -3 119 -3c52 0 88.333 6.66699 109 20s31 30.666 31 51.999c0 23.333 -10.833 42.833 -32.5 58.5s-55.167 23.834 -100.5 24.501z" />
    <glyph glyph-name="lcedilla" unicode="&#x13c;" horiz-adv-x="373" 
d="M44 0l251 1466h149l-251 -1466h-149zM15 -149l16 87.001c39.333 0 80.333 -4 123 -12c38.667 -10.667 71.167 -31.5 97.5 -62.5s39.5 -68.167 39.5 -111.5c0 -52.667 -22.333 -95.334 -67 -128.001s-115.667 -49 -213 -49c-53.333 0 -100 4 -140 12l18 112
c33.333 -2 73 -3 119 -3c52 0 88.333 6.66699 109 20s31 30.666 31 51.999c0 23.333 -10.833 42.833 -32.5 58.5s-55.167 23.834 -100.5 24.501z" />
    <glyph glyph-name="Lcaron" unicode="&#x13d;" 
d="M67 0l251 1466h161l-223 -1300h624l-28 -166h-785zM794 1280l32 184h152l-27 -161c-12 -70 -36 -125.667 -72 -167s-75.667 -64.333 -119 -69l12 71c54.667 18 89.667 65.333 105 142h-83z" />
    <glyph glyph-name="lcaron" unicode="&#x13e;" horiz-adv-x="473" 
d="M44 0l251 1466h149l-251 -1466h-149zM486 1282l32 184h152l-27 -161c-12 -70 -36 -125.667 -72 -167s-75.667 -64.333 -119 -69l12 71c54.667 18 89.667 65.333 105 142h-83z" />
    <glyph glyph-name="Ldot" unicode="&#x13f;" 
d="M67 0l251 1466h161l-223 -1300h624l-28 -166h-785zM610 621l38 223h183l-39 -223h-182z" />
    <glyph glyph-name="ldot" unicode="&#x140;" horiz-adv-x="551" 
d="M44 0l251 1466h149l-251 -1466h-149zM413 719l38 223h183l-39 -223h-182z" />
    <glyph glyph-name="Lslash" unicode="&#x141;" 
d="M173 602l-153 -104l29 169l153 104l119 695h161l-98 -572l206 143l-29 -167l-206 -144l-96 -560h621l-28 -166h-782z" />
    <glyph glyph-name="lslash" unicode="&#x142;" horiz-adv-x="373" 
d="M156 623l-125 -81l27 156l124 80l118 688h149l-100 -580l130 84l-27 -155l-129 -84l-126 -731h-148z" />
    <glyph glyph-name="Nacute" unicode="&#x143;" horiz-adv-x="1212" 
d="M81 0l251 1466h157l202 -550c60 -162 107 -297.667 141 -407c24 -75.333 50 -171 78 -287c15.333 126 34 253.333 56 382l148 862h156l-251 -1466h-159l-299 847c-52.667 150.667 -94 282.334 -124 395.001c-7.33301 -95.333 -23 -212.333 -47 -351l-153 -891h-156z
M741 1562l154 275h187l-218 -275h-123z" />
    <glyph glyph-name="nacute" unicode="&#x144;" 
d="M56 0l182.001 1062h134l-31 -185c62.667 78.667 119.667 133.167 171 163.5s101 45.5 149 45.5c67.333 0 121.833 -22.667 163.5 -68s62.5 -109.666 62.5 -192.999c0 -37.333 -7.33301 -98 -22 -182l-110 -643h-149l116 673c11.333 66 17 114.667 17 146
c0 36.667 -10.5 65.5 -31.5 86.5s-49.5 31.5 -85.5 31.5c-74.667 0 -141.834 -33 -201.501 -99s-103.5 -180.667 -131.5 -344l-85 -494h-148zM475.001 1191l154 275h187l-218 -275h-123z" />
    <glyph glyph-name="Ncedilla" unicode="&#x145;" horiz-adv-x="1212" 
d="M81 0l251 1466h157l202 -550c60 -162 107 -297.667 141 -407c24 -75.333 50 -171 78 -287c15.333 126 34 253.333 56 382l148 862h156l-251 -1466h-159l-299 847c-52.667 150.667 -94 282.334 -124 395.001c-7.33301 -95.333 -23 -212.333 -47 -351l-153 -891h-156z
M445 -149.001l16 87.001c39.333 0 80.333 -4 123 -12c38.667 -10.667 71.167 -31.5 97.5 -62.5s39.5 -68.167 39.5 -111.5c0 -52.667 -22.333 -95.334 -67 -128.001s-115.667 -49 -213 -49c-53.333 0 -100 4 -140 12l18 112c33.333 -2 73 -3 119 -3
c52 0 88.333 6.66699 109 20s31 30.666 31 51.999c0 23.333 -10.833 42.833 -32.5 58.5s-55.167 23.834 -100.5 24.501z" />
    <glyph glyph-name="ncedilla" unicode="&#x146;" 
d="M56 0l182.001 1062h134l-31 -185c62.667 78.667 119.667 133.167 171 163.5s101 45.5 149 45.5c67.333 0 121.833 -22.667 163.5 -68s62.5 -109.666 62.5 -192.999c0 -37.333 -7.33301 -98 -22 -182l-110 -643h-149l116 673c11.333 66 17 114.667 17 146
c0 36.667 -10.5 65.5 -31.5 86.5s-49.5 31.5 -85.5 31.5c-74.667 0 -141.834 -33 -201.501 -99s-103.5 -180.667 -131.5 -344l-85 -494h-148zM280.001 -149.001l16 87.001c39.333 0 80.333 -4 123 -12c38.667 -10.667 71.167 -31.5 97.5 -62.5s39.5 -68.167 39.5 -111.5
c0 -52.667 -22.333 -95.334 -67 -128.001s-115.667 -49 -213 -49c-53.333 0 -100 4 -140 12l18 112c33.333 -2 73 -3 119 -3c52 0 88.333 6.66699 109 20s31 30.666 31 51.999c0 23.333 -10.833 42.833 -32.5 58.5s-55.167 23.834 -100.5 24.501z" />
    <glyph glyph-name="Ncaron" unicode="&#x147;" horiz-adv-x="1212" 
d="M81 0l251 1466h157l202 -550c60 -162 107 -297.667 141 -407c24 -75.333 50 -171 78 -287c15.333 126 34 253.333 56 382l148 862h156l-251 -1466h-159l-299 847c-52.667 150.667 -94 282.334 -124 395.001c-7.33301 -95.333 -23 -212.333 -47 -351l-153 -891h-156z
M1095 1837l-217 -275h-164l-101 275h129l63 -178l136 178h154z" />
    <glyph glyph-name="ncaron" unicode="&#x148;" 
d="M56 0l182.001 1062h134l-31 -185c62.667 78.667 119.667 133.167 171 163.5s101 45.5 149 45.5c67.333 0 121.833 -22.667 163.5 -68s62.5 -109.666 62.5 -192.999c0 -37.333 -7.33301 -98 -22 -182l-110 -643h-149l116 673c11.333 66 17 114.667 17 146
c0 36.667 -10.5 65.5 -31.5 86.5s-49.5 31.5 -85.5 31.5c-74.667 0 -141.834 -33 -201.501 -99s-103.5 -180.667 -131.5 -344l-85 -494h-148zM890.001 1466l-217 -275h-164l-101 275h129l63 -178l136 178h154z" />
    <glyph glyph-name="napostrophe" unicode="&#x149;" horiz-adv-x="1174" 
d="M302 0l182.001 1062h134l-31 -185c62.667 78.667 119.667 133.167 171 163.5s101 45.5 149 45.5c67.333 0 121.833 -22.667 163.5 -68s62.5 -109.666 62.5 -192.999c0 -37.333 -7.33301 -98 -22 -182l-110 -643h-149l116 673c11.333 66 17 114.667 17 146
c0 36.667 -10.5 65.5 -31.5 86.5s-49.5 31.5 -85.5 31.5c-74.667 0 -141.834 -33 -201.501 -99s-103.5 -180.667 -131.5 -344l-85 -494h-148zM201.001 1261l35 204.999h169l-31 -180c-33.333 -197.333 -108 -304.666 -224 -321.999l14 79c64 22 107 94.667 129 218h-92z" />
    <glyph glyph-name="Eng" unicode="&#x14a;" horiz-adv-x="1214" 
d="M328 1466l161 0.000976562l-30 -178c98 135.333 216 203 354 203c118.667 0 212.834 -50.5 282.501 -151.5s104.5 -239.5 104.5 -415.5c0 -210.667 -38.333 -421.834 -115 -633.501s-196 -317.5 -358 -317.5c-98.667 0 -175.667 24.667 -231 74l77 137
c42.667 -28.667 86.667 -43 132 -43c106 0 186.667 82.667 242 248s83 347.666 83 546.999c0 130 -23.333 227 -70 291s-107.334 96 -182.001 96c-84.667 0 -164.5 -38.167 -239.5 -114.5s-126.833 -199.166 -155.5 -368.499l-141 -840h-162z" />
    <glyph glyph-name="eng" unicode="&#x14b;" 
d="M870 643l-118.001 -685.999c-22.667 -138.667 -52 -237.167 -88 -295.5s-89.333 -87.5 -160 -87.5c-42 0 -94.667 11.667 -158 35l53 149c26 -13.333 52 -20 78 -20c36 0 62.667 15.333 80 46s35 99.334 53 206.001l115 684c10.667 58 16 105 16 141
c0 82 -38.667 123 -116 123c-72 0 -138.333 -32.833 -199 -98.5s-105 -180.834 -133 -345.501l-84 -494h-148l181 1063h135l-33 -186c108.667 138.667 217.334 208 326.001 208c65.333 0 118.5 -23 159.5 -69s61.5 -104.667 61.5 -176c0 -52.667 -7 -118.334 -21 -197.001z
" />
    <glyph glyph-name="Omacron" unicode="&#x14c;" horiz-adv-x="1307" 
d="M154 614c0 268.667 67.001 486.667 201.001 654c119.333 148.667 264.666 223 435.999 223c144 0 264.5 -58 361.5 -174s145.5 -277.333 145.5 -484c0 -166 -31.667 -316.5 -95 -451.5s-143.333 -236.5 -240 -304.5s-198.334 -102 -305.001 -102
c-92.667 0 -176.167 24.667 -250.5 74s-135.166 124 -182.499 224s-71 213.667 -71 341zM312.001 604c0 -142 35.332 -255.333 105.999 -340s154.334 -127 251.001 -127c73.333 0 145.5 27 216.5 81s130.833 138.833 179.5 254.5s73 241.834 73 378.501
c0 148 -34.5 264.5 -103.5 349.5s-152.5 127.5 -250.5 127.5c-113.333 0 -215.333 -55.667 -306 -167c-110.667 -136.667 -166 -322.334 -166 -557.001zM523 1598l24 139h509l-24 -139h-509z" />
    <glyph glyph-name="omacron" unicode="&#x14d;" 
d="M82 403c0 191.333 43 352.999 129 484.999s201.333 198 346 198c101.333 0 185 -38.833 251 -116.5s99 -188.167 99 -331.5c0 -131.333 -22.5 -248.666 -67.5 -351.999s-103.333 -180.833 -175 -232.5s-146.834 -77.5 -225.501 -77.5
c-103.333 0 -188.666 38.167 -255.999 114.5s-101 180.5 -101 312.5zM231 420.999c0 -100.667 20.001 -176.665 60.001 -227.998s90 -77 150 -77c47.333 0 94.666 19.167 141.999 57.5s88.666 101.833 123.999 190.5s53 179.667 53 273c0 101.333 -20 178.166 -60 230.499
s-89.333 78.5 -148 78.5c-51.333 0 -101.166 -19 -149.499 -57s-89 -100.833 -122 -188.5s-49.5 -180.834 -49.5 -279.501zM304.001 1229l24 139h509l-24 -139h-509z" />
    <glyph glyph-name="Obreve" unicode="&#x14e;" horiz-adv-x="1307" 
d="M154 614c0 268.667 67.001 486.667 201.001 654c119.333 148.667 264.666 223 435.999 223c144 0 264.5 -58 361.5 -174s145.5 -277.333 145.5 -484c0 -166 -31.667 -316.5 -95 -451.5s-143.333 -236.5 -240 -304.5s-198.334 -102 -305.001 -102
c-92.667 0 -176.167 24.667 -250.5 74s-135.166 124 -182.499 224s-71 213.667 -71 341zM312.001 604c0 -142 35.332 -255.333 105.999 -340s154.334 -127 251.001 -127c73.333 0 145.5 27 216.5 81s130.833 138.833 179.5 254.5s73 241.834 73 378.501
c0 148 -34.5 264.5 -103.5 349.5s-152.5 127.5 -250.5 127.5c-113.333 0 -215.333 -55.667 -306 -167c-110.667 -136.667 -166 -322.334 -166 -557.001zM595 1823h96.999c10.667 -93.333 53.334 -140 128.001 -140c38 0 71.667 12.167 101 36.5s51.666 58.833 66.999 103.5
h98c-19.333 -81.333 -53.666 -145 -102.999 -191s-105.333 -69 -168 -69c-62 0 -113.333 22.833 -154 68.5s-62.667 109.5 -66 191.5z" />
    <glyph glyph-name="obreve" unicode="&#x14f;" 
d="M82 403c0 191.333 43 352.999 129 484.999s201.333 198 346 198c101.333 0 185 -38.833 251 -116.5s99 -188.167 99 -331.5c0 -131.333 -22.5 -248.666 -67.5 -351.999s-103.333 -180.833 -175 -232.5s-146.834 -77.5 -225.501 -77.5
c-103.333 0 -188.666 38.167 -255.999 114.5s-101 180.5 -101 312.5zM231 420.999c0 -100.667 20.001 -176.665 60.001 -227.998s90 -77 150 -77c47.333 0 94.666 19.167 141.999 57.5s88.666 101.833 123.999 190.5s53 179.667 53 273c0 101.333 -20 178.166 -60 230.499
s-89.333 78.5 -148 78.5c-51.333 0 -101.166 -19 -149.499 -57s-89 -100.833 -122 -188.5s-49.5 -180.834 -49.5 -279.501zM385.001 1450h96.999c10.667 -93.333 53.334 -140 128.001 -140c38 0 71.667 12.167 101 36.5s51.666 58.833 66.999 103.5h98
c-19.333 -81.333 -53.666 -145 -102.999 -191s-105.333 -69 -168 -69c-62 0 -113.333 22.833 -154 68.5s-62.667 109.5 -66 191.5z" />
    <glyph glyph-name="Odblacute" unicode="&#x150;" horiz-adv-x="1307" 
d="M154 614c0 268.667 67.001 486.667 201.001 654c119.333 148.667 264.666 223 435.999 223c144 0 264.5 -58 361.5 -174s145.5 -277.333 145.5 -484c0 -166 -31.667 -316.5 -95 -451.5s-143.333 -236.5 -240 -304.5s-198.334 -102 -305.001 -102
c-92.667 0 -176.167 24.667 -250.5 74s-135.166 124 -182.499 224s-71 213.667 -71 341zM312.001 604c0 -142 35.332 -255.333 105.999 -340s154.334 -127 251.001 -127c73.333 0 145.5 27 216.5 81s130.833 138.833 179.5 254.5s73 241.834 73 378.501
c0 148 -34.5 264.5 -103.5 349.5s-152.5 127.5 -250.5 127.5c-113.333 0 -215.333 -55.667 -306 -167c-110.667 -136.667 -166 -322.334 -166 -557.001zM582 1562l153 275h189l-220 -275h-122zM859 1562l150 275h190l-223 -275h-117z" />
    <glyph glyph-name="odblacute" unicode="&#x151;" 
d="M82 403c0 191.333 43 352.999 129 484.999s201.333 198 346 198c101.333 0 185 -38.833 251 -116.5s99 -188.167 99 -331.5c0 -131.333 -22.5 -248.666 -67.5 -351.999s-103.333 -180.833 -175 -232.5s-146.834 -77.5 -225.501 -77.5
c-103.333 0 -188.666 38.167 -255.999 114.5s-101 180.5 -101 312.5zM231 420.999c0 -100.667 20.001 -176.665 60.001 -227.998s90 -77 150 -77c47.333 0 94.666 19.167 141.999 57.5s88.666 101.833 123.999 190.5s53 179.667 53 273c0 101.333 -20 178.166 -60 230.499
s-89.333 78.5 -148 78.5c-51.333 0 -101.166 -19 -149.499 -57s-89 -100.833 -122 -188.5s-49.5 -180.834 -49.5 -279.501zM300.001 1191l153 275h189l-220 -275h-122zM577.001 1191l150 275h190l-223 -275h-117z" />
    <glyph glyph-name="OE" unicode="&#x152;" horiz-adv-x="1679" 
d="M840 108c-42 -48 -84.998 -82.334 -128.998 -103.001s-93.667 -31 -149 -31c-124 0 -224 49 -300 147c-84.667 108.667 -127 265.334 -127 470.001c0 178.667 29.667 339 89 481s134.666 247.333 225.999 316s185.666 103 282.999 103
c128.667 0 231.667 -66.333 309 -199l30 174h682l-29 -167h-521l-79 -463h526l-28 -167h-526l-87 -503h582l-29 -166h-742zM293.002 614.999c0 -128 11.1699 -223.168 33.5029 -285.501s56.166 -110 101.499 -143s94.666 -49.5 147.999 -49.5c76 0 145.5 34.833 208.5 104.5
s111.667 195.667 146 378s51.5 310.5 51.5 384.5c0 96 -25.833 174 -77.5 234s-111.834 90 -180.501 90c-72.667 0 -144 -33.333 -214 -100s-123.667 -161.167 -161 -283.5s-56 -232.166 -56 -329.499z" />
    <glyph glyph-name="oe" unicode="&#x153;" horiz-adv-x="1585" 
d="M790 183c-52.667 -74.667 -106.834 -127.834 -162.501 -159.501s-115.5 -47.5 -179.5 -47.5c-101.333 0 -183.833 37.667 -247.5 113s-95.5 185.333 -95.5 330c0 131.333 21.833 249.833 65.5 355.5s100.334 184 170.001 235s144.834 76.5 225.501 76.5
c66.667 0 126.5 -17.333 179.5 -52s94.5 -84 124.5 -148c54.667 70 101 117.333 139 142c59.333 38.667 123.666 58 192.999 58c104 0 186.667 -40.667 248 -122s92 -186.333 92 -315c0 -56.667 -4.66699 -111.667 -14 -165h-631c-2 -24 -3 -46.667 -3 -68
c0 -92.667 21 -167.334 63 -224.001c34 -45.333 78 -68 132 -68c45.333 0 88.333 18 129 54c52.667 46.667 92.667 107.334 120 182.001l153 -17c-42 -117.333 -100.333 -207.833 -175 -271.5s-151.667 -95.5 -231 -95.5c-68 0 -126.667 17.333 -176 52
s-89 86.334 -119 155.001zM250 428c0 -108 18.833 -186.998 56.5 -236.998s85.834 -75 144.501 -75c46 0 93.167 19.667 141.5 59s89.5 104.666 123.5 195.999s51 188.666 51 291.999c0 76 -17.167 142.333 -51.5 199s-84.5 85 -150.5 85
c-57.333 0 -111.833 -24.833 -163.5 -74.5s-89.834 -120 -114.501 -211s-37 -168.833 -37 -233.5zM921 623.002l477 -0.000976562l2 49c0 90.667 -18.5 159.167 -55.5 205.5s-83.833 69.5 -140.5 69.5c-54 0 -106.833 -26.167 -158.5 -78.5
s-93.167 -134.166 -124.5 -245.499z" />
    <glyph glyph-name="Racute" unicode="&#x154;" horiz-adv-x="1212" 
d="M79 0l251.001 1466h505c109.333 0 188.166 -11.667 236.499 -35s84.166 -57.666 107.499 -102.999c32 -61.333 48 -134.333 48 -219c0 -127.333 -33.833 -228.5 -101.5 -303.5s-169.167 -123.833 -304.5 -146.5c44.667 -40 79.334 -81.667 104.001 -125
c48 -84.667 86.667 -170.667 116 -258l92 -276h-180l-86 273c-32.667 104.667 -69.334 192.334 -110.001 263.001c-26 46 -53.167 76.667 -81.5 92s-74.166 23 -137.499 23h-186l-112 -651h-161zM379.001 809.998h221.001c122.667 0 206 4.5 250 13.5s82.5 26.667 115.5 53
s59.167 59.833 78.5 100.5s29 85.667 29 135c0 44.667 -8.16699 82.167 -24.5 112.5s-36.833 51.333 -61.5 63s-68.334 17.5 -131.001 17.5h-393zM607.002 1562l154 275h187l-218 -275h-123z" />
    <glyph glyph-name="racute" unicode="&#x155;" horiz-adv-x="559" 
d="M56 0l182 1062h131l-37 -217c87.333 160.667 175 241 263 241c30 0 66.667 -13 110 -39l-61 -168c-26 22.667 -53.333 34 -82 34c-54.667 0 -109.167 -35.833 -163.5 -107.5s-96.833 -198.167 -127.5 -379.5l-74 -426h-141zM345 1191l154 275h187l-218 -275h-123z" />
    <glyph glyph-name="Rcedilla" unicode="&#x156;" horiz-adv-x="1212" 
d="M79 0l251.001 1466h505c109.333 0 188.166 -11.667 236.499 -35s84.166 -57.666 107.499 -102.999c32 -61.333 48 -134.333 48 -219c0 -127.333 -33.833 -228.5 -101.5 -303.5s-169.167 -123.833 -304.5 -146.5c44.667 -40 79.334 -81.667 104.001 -125
c48 -84.667 86.667 -170.667 116 -258l92 -276h-180l-86 273c-32.667 104.667 -69.334 192.334 -110.001 263.001c-26 46 -53.167 76.667 -81.5 92s-74.166 23 -137.499 23h-186l-112 -651h-161zM379.001 809.998h221.001c122.667 0 206 4.5 250 13.5s82.5 26.667 115.5 53
s59.167 59.833 78.5 100.5s29 85.667 29 135c0 44.667 -8.16699 82.167 -24.5 112.5s-36.833 51.333 -61.5 63s-68.334 17.5 -131.001 17.5h-393zM492.002 -149.002l16 87.001c39.333 0 80.333 -4 123 -12c38.667 -10.667 71.167 -31.5 97.5 -62.5s39.5 -68.167 39.5 -111.5
c0 -52.667 -22.333 -95.334 -67 -128.001s-115.667 -49 -213 -49c-53.333 0 -100 4 -140 12l18 112c33.333 -2 73 -3 119 -3c52 0 88.333 6.66699 109 20s31 30.666 31 51.999c0 23.333 -10.833 42.833 -32.5 58.5s-55.167 23.834 -100.5 24.501z" />
    <glyph glyph-name="rcedilla" unicode="&#x157;" horiz-adv-x="559" 
d="M56 0l182 1062h131l-37 -217c87.333 160.667 175 241 263 241c30 0 66.667 -13 110 -39l-61 -168c-26 22.667 -53.333 34 -82 34c-54.667 0 -109.167 -35.833 -163.5 -107.5s-96.833 -198.167 -127.5 -379.5l-74 -426h-141zM201 -149l16 87.001
c39.333 0 80.333 -4 123 -12c38.667 -10.667 71.167 -31.5 97.5 -62.5s39.5 -68.167 39.5 -111.5c0 -52.667 -22.333 -95.334 -67 -128.001s-115.667 -49 -213 -49c-53.333 0 -100 4 -140 12l18 112c33.333 -2 73 -3 119 -3c52 0 88.333 6.66699 109 20s31 30.666 31 51.999
c0 23.333 -10.833 42.833 -32.5 58.5s-55.167 23.834 -100.5 24.501z" />
    <glyph glyph-name="Rcaron" unicode="&#x158;" horiz-adv-x="1212" 
d="M79 0l251.001 1466h505c109.333 0 188.166 -11.667 236.499 -35s84.166 -57.666 107.499 -102.999c32 -61.333 48 -134.333 48 -219c0 -127.333 -33.833 -228.5 -101.5 -303.5s-169.167 -123.833 -304.5 -146.5c44.667 -40 79.334 -81.667 104.001 -125
c48 -84.667 86.667 -170.667 116 -258l92 -276h-180l-86 273c-32.667 104.667 -69.334 192.334 -110.001 263.001c-26 46 -53.167 76.667 -81.5 92s-74.166 23 -137.499 23h-186l-112 -651h-161zM379.001 809.998h221.001c122.667 0 206 4.5 250 13.5s82.5 26.667 115.5 53
s59.167 59.833 78.5 100.5s29 85.667 29 135c0 44.667 -8.16699 82.167 -24.5 112.5s-36.833 51.333 -61.5 63s-68.334 17.5 -131.001 17.5h-393zM1035 1837l-217 -275h-164l-101 275h129l63 -178l136 178h154z" />
    <glyph glyph-name="rcaron" unicode="&#x159;" horiz-adv-x="559" 
d="M56 0l182 1062h131l-37 -217c87.333 160.667 175 241 263 241c30 0 66.667 -13 110 -39l-61 -168c-26 22.667 -53.333 34 -82 34c-54.667 0 -109.167 -35.833 -163.5 -107.5s-96.833 -198.167 -127.5 -379.5l-74 -426h-141zM759 1466l-217 -275h-164l-101 275h129
l63 -178l136 178h154z" />
    <glyph glyph-name="Sacute" unicode="&#x15a;" horiz-adv-x="1120" 
d="M119 474l157 18.002l-1 -49c0 -65.333 13.333 -123.333 40 -174c20 -38.667 53.833 -70.167 101.5 -94.5s104.5 -36.5 170.5 -36.5c91.333 0 163.666 24.167 216.999 72.5s80 108.5 80 180.5c0 50.667 -15 94.667 -45 132c-30.667 36.667 -103.667 85.334 -219 146.001
c-89.333 47.333 -150 83 -182 107c-58 43.333 -100.833 91.166 -128.5 143.499s-41.5 112.166 -41.5 179.499c0 117.333 37.5 212 112.5 284s177.833 108 308.5 108c90 0 167 -17 231 -51s114.833 -83.667 152.5 -149s56.5 -135.333 56.5 -210l-1 -31l-156 -15l1 33
c0 47.333 -11.833 91.333 -35.5 132s-57.5 72.167 -101.5 94.5s-94.667 33.5 -152 33.5c-82 0 -145.833 -20 -191.5 -60s-68.5 -92.667 -68.5 -158c0 -59.333 17.333 -105 52 -137s120 -84.667 256 -158c99.333 -54 166.833 -97.833 202.5 -131.5s63.334 -74 83.001 -121
s29.5 -99.833 29.5 -158.5c0 -122.667 -43 -224.834 -129 -306.501s-198.667 -122.5 -338 -122.5c-150.667 0 -265 40.167 -343 120.5s-117.333 206.5 -118 378.5zM649 1562l154 275h187l-218 -275h-123z" />
    <glyph glyph-name="sacute" unicode="&#x15b;" horiz-adv-x="840" 
d="M64 363l148.998 11.002c-0.666992 -86.667 18.333 -151.334 57 -194.001s91.334 -64 158.001 -64c60.667 0 108.667 15.167 144 45.5s53 69.166 53 116.499c0 34 -11 64.667 -33 92c-22.667 27.333 -71.667 60.666 -147 99.999
c-86.667 45.333 -143.834 80.166 -171.501 104.499s-49.167 54 -64.5 89s-23 74.167 -23 117.5c0 88.667 28.667 161.667 86 219s132.666 86 225.999 86c103.333 0 185 -29.5 245 -88.5s91.333 -141.5 94 -247.5l-146 -12c-2 66.667 -21.167 118 -57.5 154
s-85.166 54 -146.499 54c-48 0 -87 -13.5 -117 -40.5s-45 -58.167 -45 -93.5c0 -30.667 9 -57 27 -79c18 -22.667 63.667 -53 137 -91c112.667 -59.333 184.334 -106.666 215.001 -141.999c46.667 -55.333 70 -122.666 70 -201.999c0 -88 -31.167 -163.667 -93.5 -227
s-148.833 -95 -259.5 -95c-111.333 0 -198.666 32 -261.999 96s-95 154.333 -95 271v20zM404.998 1191l154 275h187l-218 -275h-123z" />
    <glyph glyph-name="Scircumflex" unicode="&#x15c;" horiz-adv-x="1120" 
d="M119 474l157 18.002l-1 -49c0 -65.333 13.333 -123.333 40 -174c20 -38.667 53.833 -70.167 101.5 -94.5s104.5 -36.5 170.5 -36.5c91.333 0 163.666 24.167 216.999 72.5s80 108.5 80 180.5c0 50.667 -15 94.667 -45 132c-30.667 36.667 -103.667 85.334 -219 146.001
c-89.333 47.333 -150 83 -182 107c-58 43.333 -100.833 91.166 -128.5 143.499s-41.5 112.166 -41.5 179.499c0 117.333 37.5 212 112.5 284s177.833 108 308.5 108c90 0 167 -17 231 -51s114.833 -83.667 152.5 -149s56.5 -135.333 56.5 -210l-1 -31l-156 -15l1 33
c0 47.333 -11.833 91.333 -35.5 132s-57.5 72.167 -101.5 94.5s-94.667 33.5 -152 33.5c-82 0 -145.833 -20 -191.5 -60s-68.5 -92.667 -68.5 -158c0 -59.333 17.333 -105 52 -137s120 -84.667 256 -158c99.333 -54 166.833 -97.833 202.5 -131.5s63.334 -74 83.001 -121
s29.5 -99.833 29.5 -158.5c0 -122.667 -43 -224.834 -129 -306.501s-198.667 -122.5 -338 -122.5c-150.667 0 -265 40.167 -343 120.5s-117.333 206.5 -118 378.5zM506 1564l217 275h164l102 -275h-130l-65 178l-136 -178h-152z" />
    <glyph glyph-name="scircumflex" unicode="&#x15d;" horiz-adv-x="840" 
d="M64 363l148.998 11.002c-0.666992 -86.667 18.333 -151.334 57 -194.001s91.334 -64 158.001 -64c60.667 0 108.667 15.167 144 45.5s53 69.166 53 116.499c0 34 -11 64.667 -33 92c-22.667 27.333 -71.667 60.666 -147 99.999
c-86.667 45.333 -143.834 80.166 -171.501 104.499s-49.167 54 -64.5 89s-23 74.167 -23 117.5c0 88.667 28.667 161.667 86 219s132.666 86 225.999 86c103.333 0 185 -29.5 245 -88.5s91.333 -141.5 94 -247.5l-146 -12c-2 66.667 -21.167 118 -57.5 154
s-85.166 54 -146.499 54c-48 0 -87 -13.5 -117 -40.5s-45 -58.167 -45 -93.5c0 -30.667 9 -57 27 -79c18 -22.667 63.667 -53 137 -91c112.667 -59.333 184.334 -106.666 215.001 -141.999c46.667 -55.333 70 -122.666 70 -201.999c0 -88 -31.167 -163.667 -93.5 -227
s-148.833 -95 -259.5 -95c-111.333 0 -198.666 32 -261.999 96s-95 154.333 -95 271v20zM334.998 1191l217 275h164l102 -275h-130l-65 178l-136 -178h-152z" />
    <glyph glyph-name="Scedilla" unicode="&#x15e;" horiz-adv-x="1120" 
d="M119 474l157 18.002l-1 -49c0 -65.333 13.333 -123.333 40 -174c20 -38.667 53.833 -70.167 101.5 -94.5s104.5 -36.5 170.5 -36.5c91.333 0 163.666 24.167 216.999 72.5s80 108.5 80 180.5c0 50.667 -15 94.667 -45 132c-30.667 36.667 -103.667 85.334 -219 146.001
c-89.333 47.333 -150 83 -182 107c-58 43.333 -100.833 91.166 -128.5 143.499s-41.5 112.166 -41.5 179.499c0 117.333 37.5 212 112.5 284s177.833 108 308.5 108c90 0 167 -17 231 -51s114.833 -83.667 152.5 -149s56.5 -135.333 56.5 -210l-1 -31l-156 -15l1 33
c0 47.333 -11.833 91.333 -35.5 132s-57.5 72.167 -101.5 94.5s-94.667 33.5 -152 33.5c-82 0 -145.833 -20 -191.5 -60s-68.5 -92.667 -68.5 -158c0 -59.333 17.333 -105 52 -137s120 -84.667 256 -158c99.333 -54 166.833 -97.833 202.5 -131.5s63.334 -74 83.001 -121
s29.5 -99.833 29.5 -158.5c0 -122.667 -43 -224.834 -129 -306.501s-198.667 -122.5 -338 -122.5c-150.667 0 -265 40.167 -343 120.5s-117.333 206.5 -118 378.5zM488 -148.998l33 161.001h115l-20 -90c46 -8 82.167 -27.5 108.5 -58.5s39.5 -68.167 39.5 -111.5
c0 -52.667 -22.333 -95.334 -67 -128.001s-115.667 -49 -213 -49c-53.333 0 -100 4 -140 12l18 112c33.333 -2 73 -3 119 -3c52 0 88.333 6.66699 109 20s31 30.666 31 51.999c0 23.333 -10.833 42.833 -32.5 58.5s-55.167 23.834 -100.5 24.501z" />
    <glyph glyph-name="scedilla" unicode="&#x15f;" horiz-adv-x="840" 
d="M64 363l148.998 11.002c-0.666992 -86.667 18.333 -151.334 57 -194.001s91.334 -64 158.001 -64c60.667 0 108.667 15.167 144 45.5s53 69.166 53 116.499c0 34 -11 64.667 -33 92c-22.667 27.333 -71.667 60.666 -147 99.999
c-86.667 45.333 -143.834 80.166 -171.501 104.499s-49.167 54 -64.5 89s-23 74.167 -23 117.5c0 88.667 28.667 161.667 86 219s132.666 86 225.999 86c103.333 0 185 -29.5 245 -88.5s91.333 -141.5 94 -247.5l-146 -12c-2 66.667 -21.167 118 -57.5 154
s-85.166 54 -146.499 54c-48 0 -87 -13.5 -117 -40.5s-45 -58.167 -45 -93.5c0 -30.667 9 -57 27 -79c18 -22.667 63.667 -53 137 -91c112.667 -59.333 184.334 -106.666 215.001 -141.999c46.667 -55.333 70 -122.666 70 -201.999c0 -88 -31.167 -163.667 -93.5 -227
s-148.833 -95 -259.5 -95c-111.333 0 -198.666 32 -261.999 96s-95 154.333 -95 271v20zM310.998 -148.998l33 161.001h115l-20 -90c46 -8 82.167 -27.5 108.5 -58.5s39.5 -68.167 39.5 -111.5c0 -52.667 -22.333 -95.334 -67 -128.001s-115.667 -49 -213 -49
c-53.333 0 -100 4 -140 12l18 112c33.333 -2 73 -3 119 -3c52 0 88.333 6.66699 109 20s31 30.666 31 51.999c0 23.333 -10.833 42.833 -32.5 58.5s-55.167 23.834 -100.5 24.501z" />
    <glyph glyph-name="Scaron" unicode="&#x160;" horiz-adv-x="1120" 
d="M119 474l157 18.002l-1 -49c0 -65.333 13.333 -123.333 40 -174c20 -38.667 53.833 -70.167 101.5 -94.5s104.5 -36.5 170.5 -36.5c91.333 0 163.666 24.167 216.999 72.5s80 108.5 80 180.5c0 50.667 -15 94.667 -45 132c-30.667 36.667 -103.667 85.334 -219 146.001
c-89.333 47.333 -150 83 -182 107c-58 43.333 -100.833 91.166 -128.5 143.499s-41.5 112.166 -41.5 179.499c0 117.333 37.5 212 112.5 284s177.833 108 308.5 108c90 0 167 -17 231 -51s114.833 -83.667 152.5 -149s56.5 -135.333 56.5 -210l-1 -31l-156 -15l1 33
c0 47.333 -11.833 91.333 -35.5 132s-57.5 72.167 -101.5 94.5s-94.667 33.5 -152 33.5c-82 0 -145.833 -20 -191.5 -60s-68.5 -92.667 -68.5 -158c0 -59.333 17.333 -105 52 -137s120 -84.667 256 -158c99.333 -54 166.833 -97.833 202.5 -131.5s63.334 -74 83.001 -121
s29.5 -99.833 29.5 -158.5c0 -122.667 -43 -224.834 -129 -306.501s-198.667 -122.5 -338 -122.5c-150.667 0 -265 40.167 -343 120.5s-117.333 206.5 -118 378.5zM1039 1837l-217 -275h-164l-101 275h129l63 -178l136 178h154z" />
    <glyph glyph-name="scaron" unicode="&#x161;" horiz-adv-x="840" 
d="M64 363l148.998 11.002c-0.666992 -86.667 18.333 -151.334 57 -194.001s91.334 -64 158.001 -64c60.667 0 108.667 15.167 144 45.5s53 69.166 53 116.499c0 34 -11 64.667 -33 92c-22.667 27.333 -71.667 60.666 -147 99.999
c-86.667 45.333 -143.834 80.166 -171.501 104.499s-49.167 54 -64.5 89s-23 74.167 -23 117.5c0 88.667 28.667 161.667 86 219s132.666 86 225.999 86c103.333 0 185 -29.5 245 -88.5s91.333 -141.5 94 -247.5l-146 -12c-2 66.667 -21.167 118 -57.5 154
s-85.166 54 -146.499 54c-48 0 -87 -13.5 -117 -40.5s-45 -58.167 -45 -93.5c0 -30.667 9 -57 27 -79c18 -22.667 63.667 -53 137 -91c112.667 -59.333 184.334 -106.666 215.001 -141.999c46.667 -55.333 70 -122.666 70 -201.999c0 -88 -31.167 -163.667 -93.5 -227
s-148.833 -95 -259.5 -95c-111.333 0 -198.666 32 -261.999 96s-95 154.333 -95 271v20zM839.998 1466l-217 -275h-164l-101 275h129l63 -178l136 178h154z" />
    <glyph glyph-name="Tcedilla" unicode="&#x162;" horiz-adv-x="1026" 
d="M381 0l223 1299h-395l29 167h946l-28 -167h-392l-222 -1299h-161zM335 -305l32 184h152l-27 -161c-12 -70 -36 -125.667 -72 -167s-75.667 -64.333 -119 -69l12 71c54.667 18 89.667 65.333 105 142h-83z" />
    <glyph glyph-name="tcedilla" unicode="&#x163;" horiz-adv-x="467" 
d="M403 147l-26.002 -148c-35.333 -11.333 -69.666 -17 -102.999 -17c-55.333 0 -99.166 14.667 -131.499 44s-48.5 68.666 -48.5 117.999c0 23.333 7.33301 77 22 161l105 617h-117l24 140h117l45 261l170 125l-66 -386h145l-24 -140h-145l-101 -587
c-12.667 -75.333 -19 -119.666 -19 -132.999c0 -23.333 5.33301 -40.333 16 -51s27 -16 49 -16c32.667 0 62 4 88 12zM74.998 -305l32 184h152l-27 -161c-12 -70 -36 -125.667 -72 -167s-75.667 -64.333 -119 -69l12 71c54.667 18 89.667 65.333 105 142h-83z" />
    <glyph glyph-name="Tcaron" unicode="&#x164;" horiz-adv-x="1026" 
d="M381 0l223 1299h-395l29 167h946l-28 -167h-392l-222 -1299h-161zM1008 1837l-217 -275h-164l-101 275h129l63 -178l136 178h154z" />
    <glyph glyph-name="tcaron" unicode="&#x165;" horiz-adv-x="594" 
d="M403 147l-26.002 -148c-35.333 -11.333 -69.666 -17 -102.999 -17c-55.333 0 -99.166 14.667 -131.499 44s-48.5 68.666 -48.5 117.999c0 23.333 7.33301 77 22 161l105 617h-117l24 140h117l45 261l170 125l-66 -386h145l-24 -140h-145l-101 -587
c-12.667 -75.333 -19 -119.666 -19 -132.999c0 -23.333 5.33301 -40.333 16 -51s27 -16 49 -16c32.667 0 62 4 88 12zM616.998 1282l32 184h152l-27 -161c-12 -70 -36 -125.667 -72 -167s-75.667 -64.333 -119 -69l12 71c54.667 18 89.667 65.333 105 142h-83z" />
    <glyph glyph-name="Tbar" unicode="&#x166;" horiz-adv-x="1026" 
d="M678 825l-139 -825h-162l141 825h-172l25 140h172l57 335h-395l28 166h947l-29 -166h-391l-58 -335h177l-23 -140h-178z" />
    <glyph glyph-name="tbar" unicode="&#x167;" horiz-adv-x="467" 
d="M305 565l-38.999 -229c-13.333 -73.333 -20 -118.333 -20 -135c0 -44 21.667 -66 65 -66c31.333 0 60.666 4 87.999 12l-26 -149c-34 -10.667 -69 -16 -105 -16c-53.333 0 -96.333 14.667 -129 44s-49 69 -49 119c0 20 7.66699 73.333 23 160l45 260h-174l24 140h174
l37 217h-119l23 139h119l45 262l170 125l-68 -387h146l-23 -139h-145l-37 -217h186l-22 -140h-189z" />
    <glyph glyph-name="Utilde" unicode="&#x168;" horiz-adv-x="1212" 
d="M333 1466h161l-155 -901c-12.667 -74.667 -19 -130.334 -19 -167.001c0 -75.333 25 -137.666 75 -186.999s114.333 -74 193 -74c104 0 188.667 42.667 254 128c50 65.333 92 196.666 126 393.999l138 807h160l-147 -860c-28 -166 -66 -291.667 -114 -377
s-106.833 -149.166 -176.5 -191.499s-147.834 -63.5 -234.501 -63.5c-133.333 0 -238.666 38.5 -315.999 115.5s-116 180.5 -116 310.5c0 52 11.333 140.667 34 266zM570 1599c18 88 40.167 147.332 66.5 177.999s59.5 46 99.5 46c18 0 35.5 -2.66699 52.5 -8
s45.833 -18.666 86.5 -39.999c45.333 -24.667 75.666 -37 90.999 -37c28.667 0 48.334 26.333 59.001 79h99c-6 -70 -24.5 -124 -55.5 -162s-66.167 -57 -105.5 -57c-22 0 -49.667 8.66699 -83 26c-75.333 40 -122 60 -140 60c-36 0 -58.333 -28.333 -67 -85h-103z" />
    <glyph glyph-name="utilde" unicode="&#x169;" 
d="M650 192c-104.667 -144 -211.666 -215.998 -320.999 -215.998c-63.333 0 -116.5 22.667 -159.5 68s-64.5 103.666 -64.5 174.999c0 45.333 9.33301 122 28 230l105 613h148l-116 -679c-10 -56.667 -15 -100.334 -15 -131.001c0 -42 10.333 -73.833 31 -95.5
s49.667 -32.5 87 -32.5c52.667 0 105.167 21.167 157.5 63.5s90.666 95.333 114.999 159s45.5 149.167 63.5 256.5l79 459h148l-182 -1062h-137zM362.001 1226c18 88 40.167 147.332 66.5 177.999s59.5 46 99.5 46c18 0 35.5 -2.66699 52.5 -8s45.833 -18.666 86.5 -39.999
c45.333 -24.667 75.666 -37 90.999 -37c28.667 0 48.334 26.333 59.001 79h99c-6 -70 -24.5 -124 -55.5 -162s-66.167 -57 -105.5 -57c-22 0 -49.667 8.66699 -83 26c-75.333 40 -122 60 -140 60c-36 0 -58.333 -28.333 -67 -85h-103z" />
    <glyph glyph-name="Umacron" unicode="&#x16a;" horiz-adv-x="1212" 
d="M333 1466h161l-155 -901c-12.667 -74.667 -19 -130.334 -19 -167.001c0 -75.333 25 -137.666 75 -186.999s114.333 -74 193 -74c104 0 188.667 42.667 254 128c50 65.333 92 196.666 126 393.999l138 807h160l-147 -860c-28 -166 -66 -291.667 -114 -377
s-106.833 -149.166 -176.5 -191.499s-147.834 -63.5 -234.501 -63.5c-133.333 0 -238.666 38.5 -315.999 115.5s-116 180.5 -116 310.5c0 52 11.333 140.667 34 266zM553 1598l24 139h509l-24 -139h-509z" />
    <glyph glyph-name="umacron" unicode="&#x16b;" 
d="M650 192c-104.667 -144 -211.666 -215.998 -320.999 -215.998c-63.333 0 -116.5 22.667 -159.5 68s-64.5 103.666 -64.5 174.999c0 45.333 9.33301 122 28 230l105 613h148l-116 -679c-10 -56.667 -15 -100.334 -15 -131.001c0 -42 10.333 -73.833 31 -95.5
s49.667 -32.5 87 -32.5c52.667 0 105.167 21.167 157.5 63.5s90.666 95.333 114.999 159s45.5 149.167 63.5 256.5l79 459h148l-182 -1062h-137zM348.001 1229l24 139h509l-24 -139h-509z" />
    <glyph glyph-name="Ubreve" unicode="&#x16c;" horiz-adv-x="1212" 
d="M333 1466h161l-155 -901c-12.667 -74.667 -19 -130.334 -19 -167.001c0 -75.333 25 -137.666 75 -186.999s114.333 -74 193 -74c104 0 188.667 42.667 254 128c50 65.333 92 196.666 126 393.999l138 807h160l-147 -860c-28 -166 -66 -291.667 -114 -377
s-106.833 -149.166 -176.5 -191.499s-147.834 -63.5 -234.501 -63.5c-133.333 0 -238.666 38.5 -315.999 115.5s-116 180.5 -116 310.5c0 52 11.333 140.667 34 266zM574 1823h96.999c10.667 -93.333 53.334 -140 128.001 -140c38 0 71.667 12.167 101 36.5
s51.666 58.833 66.999 103.5h98c-19.333 -81.333 -53.666 -145 -102.999 -191s-105.333 -69 -168 -69c-62 0 -113.333 22.833 -154 68.5s-62.667 109.5 -66 191.5z" />
    <glyph glyph-name="ubreve" unicode="&#x16d;" 
d="M650 192c-104.667 -144 -211.666 -215.998 -320.999 -215.998c-63.333 0 -116.5 22.667 -159.5 68s-64.5 103.666 -64.5 174.999c0 45.333 9.33301 122 28 230l105 613h148l-116 -679c-10 -56.667 -15 -100.334 -15 -131.001c0 -42 10.333 -73.833 31 -95.5
s49.667 -32.5 87 -32.5c52.667 0 105.167 21.167 157.5 63.5s90.666 95.333 114.999 159s45.5 149.167 63.5 256.5l79 459h148l-182 -1062h-137zM371.001 1422h96.999c10.667 -93.333 53.334 -140 128.001 -140c38 0 71.667 12.167 101 36.5s51.666 58.833 66.999 103.5h98
c-19.333 -81.333 -53.666 -145 -102.999 -191s-105.333 -69 -168 -69c-62 0 -113.333 22.833 -154 68.5s-62.667 109.5 -66 191.5z" />
    <glyph glyph-name="Uring" unicode="&#x16e;" horiz-adv-x="1212" 
d="M333 1466h161l-155 -901c-12.667 -74.667 -19 -130.334 -19 -167.001c0 -75.333 25 -137.666 75 -186.999s114.333 -74 193 -74c104 0 188.667 42.667 254 128c50 65.333 92 196.666 126 393.999l138 807h160l-147 -860c-28 -166 -66 -291.667 -114 -377
s-106.833 -149.166 -176.5 -191.499s-147.834 -63.5 -234.501 -63.5c-133.333 0 -238.666 38.5 -315.999 115.5s-116 180.5 -116 310.5c0 52 11.333 140.667 34 266zM661 1757c0 52 14.999 95.333 44.999 130s64.667 52 104 52c40 0 75 -17.333 105 -52s45 -78 45 -130
c0 -52.667 -15.167 -96.167 -45.5 -130.5s-65.166 -51.5 -104.499 -51.5s-74 17.167 -104 51.5s-45 77.833 -45 130.5zM721.999 1757c0 -30.667 8.83301 -56.332 26.5 -76.999s38.167 -31 61.5 -31s43.833 10.167 61.5 30.5s26.5 46.166 26.5 77.499
c0 30.667 -8.66699 56.167 -26 76.5s-38 30.5 -62 30.5c-23.333 0 -43.833 -10.167 -61.5 -30.5s-26.5 -45.833 -26.5 -76.5z" />
    <glyph glyph-name="uring" unicode="&#x16f;" 
d="M650 192c-104.667 -144 -211.666 -215.998 -320.999 -215.998c-63.333 0 -116.5 22.667 -159.5 68s-64.5 103.666 -64.5 174.999c0 45.333 9.33301 122 28 230l105 613h148l-116 -679c-10 -56.667 -15 -100.334 -15 -131.001c0 -42 10.333 -73.833 31 -95.5
s49.667 -32.5 87 -32.5c52.667 0 105.167 21.167 157.5 63.5s90.666 95.333 114.999 159s45.5 149.167 63.5 256.5l79 459h148l-182 -1062h-137zM445.001 1320c0 52 14.999 95.333 44.999 130s64.667 52 104 52c40 0 75 -17.333 105 -52s45 -78 45 -130
c0 -52.667 -15.167 -96.167 -45.5 -130.5s-65.166 -51.5 -104.499 -51.5s-74 17.167 -104 51.5s-45 77.833 -45 130.5zM506 1320c0 -30.667 8.83301 -56.332 26.5 -76.999s38.167 -31 61.5 -31s43.833 10.167 61.5 30.5s26.5 46.166 26.5 77.499
c0 30.667 -8.66699 56.167 -26 76.5s-38 30.5 -62 30.5c-23.333 0 -43.833 -10.167 -61.5 -30.5s-26.5 -45.833 -26.5 -76.5z" />
    <glyph glyph-name="Udblacute" unicode="&#x170;" horiz-adv-x="1212" 
d="M333 1466h161l-155 -901c-12.667 -74.667 -19 -130.334 -19 -167.001c0 -75.333 25 -137.666 75 -186.999s114.333 -74 193 -74c104 0 188.667 42.667 254 128c50 65.333 92 196.666 126 393.999l138 807h160l-147 -860c-28 -166 -66 -291.667 -114 -377
s-106.833 -149.166 -176.5 -191.499s-147.834 -63.5 -234.501 -63.5c-133.333 0 -238.666 38.5 -315.999 115.5s-116 180.5 -116 310.5c0 52 11.333 140.667 34 266zM536 1562l153 275h189l-220 -275h-122zM813 1562l150 275h190l-223 -275h-117z" />
    <glyph glyph-name="udblacute" unicode="&#x171;" 
d="M650 192c-104.667 -144 -211.666 -215.998 -320.999 -215.998c-63.333 0 -116.5 22.667 -159.5 68s-64.5 103.666 -64.5 174.999c0 45.333 9.33301 122 28 230l105 613h148l-116 -679c-10 -56.667 -15 -100.334 -15 -131.001c0 -42 10.333 -73.833 31 -95.5
s49.667 -32.5 87 -32.5c52.667 0 105.167 21.167 157.5 63.5s90.666 95.333 114.999 159s45.5 149.167 63.5 256.5l79 459h148l-182 -1062h-137zM340.001 1191l153 275h189l-220 -275h-122zM617.001 1191l150 275h190l-223 -275h-117z" />
    <glyph glyph-name="Uogonek" unicode="&#x172;" horiz-adv-x="1212" 
d="M333 1466h161l-155 -901c-12.667 -74.667 -19 -130.334 -19 -167.001c0 -75.333 25 -137.666 75 -186.999s114.333 -74 193 -74c104 0 188.667 42.667 254 128c50 65.333 92 196.666 126 393.999l138 807h160l-147 -860c-28 -166 -66 -291.667 -114 -377
s-106.833 -149.166 -176.5 -191.499s-147.834 -63.5 -234.501 -63.5c-133.333 0 -238.666 38.5 -315.999 115.5s-116 180.5 -116 310.5c0 52 11.333 140.667 34 266zM529 27l91.998 -0.000976562c-32 -86.667 -48 -154 -48 -202c0 -38 9 -67 27 -87s40.667 -30 68 -30
c36.667 0 84.334 14.333 143.001 43l-20 -120c-62 -37.333 -120.333 -56 -175 -56c-45.333 0 -81.166 15.333 -107.499 46s-39.5 76.334 -39.5 137.001c0 77.333 20 167 60 269z" />
    <glyph glyph-name="uogonek" unicode="&#x173;" 
d="M650 192c-104.667 -144 -211.666 -215.998 -320.999 -215.998c-63.333 0 -116.5 22.667 -159.5 68s-64.5 103.666 -64.5 174.999c0 45.333 9.33301 122 28 230l105 613h148l-116 -679c-10 -56.667 -15 -100.334 -15 -131.001c0 -42 10.333 -73.833 31 -95.5
s49.667 -32.5 87 -32.5c52.667 0 105.167 21.167 157.5 63.5s90.666 95.333 114.999 159s45.5 149.167 63.5 256.5l79 459h148l-182 -1062h-137zM638.001 27.002l91.998 -0.000976562c-32 -86.667 -48 -154 -48 -202c0 -38 9 -67 27 -87s40.667 -30 68 -30
c36.667 0 84.334 14.333 143.001 43l-20 -120c-62 -37.333 -120.333 -56 -175 -56c-45.333 0 -81.166 15.333 -107.499 46s-39.5 76.334 -39.5 137.001c0 77.333 20 167 60 269z" />
    <glyph glyph-name="Wcircumflex" unicode="&#x174;" horiz-adv-x="1585" 
d="M284 0l-73.999 1466h163l28 -725c6.66699 -158.667 10 -283.667 10 -375l-1 -96l144 352l366 844h166l40 -857c4.66699 -104.667 7.66699 -222.667 9 -354c10 33.333 26.667 82.333 50 147c40.667 110.667 71 190 91 238l343 826h163l-611 -1466h-172l-41 888
c-3.33301 77.333 -6.33301 170.666 -9 279.999c-34.667 -96 -62.334 -168 -83.001 -216l-416 -952h-166zM747.001 1564l217 275h164l102 -275h-130l-65 178l-136 -178h-152z" />
    <glyph glyph-name="wcircumflex" unicode="&#x175;" horiz-adv-x="1212" 
d="M221 0l-90.9971 1062h142l40 -477c9.33301 -115.333 16 -245 20 -389c26.667 106 59 210 97 312l207 554h162l29 -531c4 -75.333 6.66699 -183 8 -323c27.333 90 71.666 214 132.999 372l187 482h149l-426 -1062h-154l-32 623
c-2.66699 43.333 -4.33398 118.666 -5.00098 225.999c-22.667 -72 -49.334 -149 -80.001 -231l-230 -618h-156zM482.003 1191l217 275h164l102 -275h-130l-65 178l-136 -178h-152z" />
    <glyph glyph-name="Ycircumflex" unicode="&#x176;" horiz-adv-x="1120" 
d="M470 0l97 567l-370 899h172l178 -428c37.333 -90.667 75 -190.667 113 -300c40 90.667 95 189.667 165 297l282 431h192l-574 -914l-94 -552h-161zM534 1564l217 275h164l102 -275h-130l-65 178l-136 -178h-152z" />
    <glyph glyph-name="ycircumflex" unicode="&#x177;" horiz-adv-x="840" 
d="M0 -410l9 169.999c30.667 -10.667 60.334 -16 89.001 -16c30 0 54 8 72 24c25.333 22.667 52 64.334 80 125.001l47 104l-145 1065h146l66 -537c13.333 -107.333 24.666 -213.333 33.999 -318l389 855h155l-555 -1203c-55.333 -121.333 -104.166 -200 -146.499 -236
s-88.833 -54 -139.5 -54c-34.667 0 -68.334 7 -101.001 21zM345 1191l217 275h164l102 -275h-130l-65 178l-136 -178h-152z" />
    <glyph glyph-name="Ydieresis" unicode="&#x178;" horiz-adv-x="1120" 
d="M470 0l97 567l-370 899h172l178 -428c37.333 -90.667 75 -190.667 113 -300c40 90.667 95 189.667 165 297l282 431h192l-574 -914l-94 -552h-161zM536 1598l35 205h155l-35 -205h-155zM838 1598l36 205h154l-35 -205h-155z" />
    <glyph glyph-name="Zacute" unicode="&#x179;" horiz-adv-x="1026" 
d="M41 0l15 147l728 1063c25.333 37.333 49.333 71 72 101c-50.667 -8 -90.667 -12 -120 -12h-525l29 167h829l-14 -153l-645 -935l-151 -217c26 4 53 6 81 6h621l-29 -167h-891zM520 1562l154 275h187l-218 -275h-123z" />
    <glyph glyph-name="zacute" unicode="&#x17a;" horiz-adv-x="840" 
d="M33 0l24.002 140l468 643c33.333 45.333 70.666 92.333 111.999 141c-70.667 -8.66699 -121.667 -13 -153 -13h-323l26 151h673l-19 -114l-473 -647c-26.667 -36.667 -66.334 -87 -119.001 -151c82 6 138.333 9 169 9h343l-27 -159h-701zM401.002 1191l154 275h187
l-218 -275h-123z" />
    <glyph glyph-name="Zdot" unicode="&#x17b;" horiz-adv-x="1026" 
d="M41 0l15 147l728 1063c25.333 37.333 49.333 71 72 101c-50.667 -8 -90.667 -12 -120 -12h-525l29 167h829l-14 -153l-645 -935l-151 -217c26 4 53 6 81 6h621l-29 -167h-891zM543 1546l38 223h183l-39 -223h-182z" />
    <glyph glyph-name="zdot" unicode="&#x17c;" horiz-adv-x="840" 
d="M33 0l24.002 140l468 643c33.333 45.333 70.666 92.333 111.999 141c-70.667 -8.66699 -121.667 -13 -153 -13h-323l26 151h673l-19 -114l-473 -647c-26.667 -36.667 -66.334 -87 -119.001 -151c82 6 138.333 9 169 9h343l-27 -159h-701zM424.002 1209l38 223h183
l-39 -223h-182z" />
    <glyph glyph-name="Zcaron" unicode="&#x17d;" horiz-adv-x="1026" 
d="M41 0l15 147l728 1063c25.333 37.333 49.333 71 72 101c-50.667 -8 -90.667 -12 -120 -12h-525l29 167h829l-14 -153l-645 -935l-151 -217c26 4 53 6 81 6h621l-29 -167h-891zM995 1837l-217 -275h-164l-101 275h129l63 -178l136 178h154z" />
    <glyph glyph-name="zcaron" unicode="&#x17e;" horiz-adv-x="840" 
d="M33 0l24.002 140l468 643c33.333 45.333 70.666 92.333 111.999 141c-70.667 -8.66699 -121.667 -13 -153 -13h-323l26 151h673l-19 -114l-473 -647c-26.667 -36.667 -66.334 -87 -119.001 -151c82 6 138.333 9 169 9h343l-27 -159h-701zM816.002 1466l-217 -275h-164
l-101 275h129l63 -178l136 178h154z" />
    <glyph glyph-name="longs" unicode="&#x17f;" horiz-adv-x="373" 
d="M54 0l207.997 1213c12.667 73.333 26 127.5 40 162.5s37.333 63 70 84s71.334 31.5 116.001 31.5c46 0 104.333 -9.66699 175 -29l-27 -158c-49.333 16 -91.666 24 -126.999 24c-33.333 0 -56.666 -11 -69.999 -33s-25 -61.667 -35 -119l-201 -1176h-149z" />
    <glyph glyph-name="florin" unicode="&#x192;" 
d="M38 -405l28.002 155c55.333 -14.667 97 -22 125 -22c29.333 0 52 9.33301 68 28s28.333 60 37 124l145 1042h-164l19 140h165l20 133c13.333 90 29.166 152.833 47.499 188.5s43 62.667 74 81s69.833 27.5 116.5 27.5c40.667 0 97.667 -12.667 171 -38l-29 -153
c-56 16 -97.667 24 -125 24c-31.333 0 -54.666 -9.33301 -69.999 -28s-28 -62.667 -38 -132l-16 -103h167l-20 -140h-168l-156 -1092c-14.667 -100 -38.834 -168.5 -72.501 -205.5s-80.834 -55.5 -141.501 -55.5c-51.333 0 -112.333 8.66699 -183 26z" />
    <glyph glyph-name="Aringacute" unicode="&#x1fa;" horiz-adv-x="1120" 
d="M-33 0l681 1466h190l198 -1466h-156l-58 422h-486l-193 -422h-176zM405 573h397.001l-46 368c-18 145.333 -29.333 267 -34 365c-26.667 -84 -66.334 -183.667 -119.001 -299zM625.001 1671c0 52 14.999 95.333 44.999 130s64.667 52 104 52c40 0 75 -17.333 105 -52
s45 -78 45 -130c0 -52.667 -15.167 -96.167 -45.5 -130.5s-65.166 -51.5 -104.499 -51.5s-74 17.167 -104 51.5s-45 77.833 -45 130.5zM686 1671c0 -30.667 8.83301 -56.332 26.5 -76.999s38.167 -31 61.5 -31s43.833 10.167 61.5 30.5s26.5 46.166 26.5 77.499
c0 30.667 -8.66699 56.167 -26 76.5s-38 30.5 -62 30.5c-23.333 0 -43.833 -10.167 -61.5 -30.5s-26.5 -45.833 -26.5 -76.5zM715 1871l154 275h187l-218 -275h-123z" />
    <glyph glyph-name="aringacute" unicode="&#x1fb;" 
d="M643 132c-54.667 -57.333 -106.001 -97.667 -154.001 -121s-96.667 -35 -146 -35c-77.333 0 -141.5 27.667 -192.5 83s-76.5 130.666 -76.5 225.999c0 68 14.667 127.333 44 178s70.5 89.5 123.5 116.5s128.833 42.833 227.5 47.5c83.333 4.66699 140.5 9.66699 171.5 15
s57.5 13.333 79.5 24c12 50.667 18 92 18 124c0 44.667 -16.167 80.5 -48.5 107.5s-79.166 40.5 -140.499 40.5c-123.333 0 -203.333 -64.667 -240 -194l-150 16c63.333 217.333 196.333 326 399 326c100 0 179.333 -26.167 238 -78.5s88 -118.166 88 -197.499
c0 -56 -6.66699 -121.667 -20 -197l-48 -264c-15.333 -84 -23 -152 -23 -204c0 -36.667 5.66699 -85 17 -145h-149c-8.66699 33.333 -14.667 77.333 -18 132zM697.999 537.999c-36.667 -17.333 -98.6689 -30.666 -186.002 -39.999
c-89.333 -9.33301 -150.666 -21.333 -183.999 -36s-59.333 -37 -78 -67s-28 -64.667 -28 -104c0 -54 15 -96.667 45 -128s70 -47 120 -47c47.333 0 93 14.667 137 44s79.833 71.666 107.5 126.999s49.834 139 66.501 251zM467.997 1320c0 52 14.999 95.333 44.999 130
s64.667 52 104 52c40 0 75 -17.333 105 -52s45 -78 45 -130c0 -52.667 -15.167 -96.167 -45.5 -130.5s-65.166 -51.5 -104.499 -51.5s-74 17.167 -104 51.5s-45 77.833 -45 130.5zM528.996 1320c0 -30.667 8.83301 -56.332 26.5 -76.999s38.167 -31 61.5 -31
s43.833 10.167 61.5 30.5s26.5 46.166 26.5 77.499c0 30.667 -8.66699 56.167 -26 76.5s-38 30.5 -62 30.5c-23.333 0 -43.833 -10.167 -61.5 -30.5s-26.5 -45.833 -26.5 -76.5zM566.996 1525l154 275h187l-218 -275h-123z" />
    <glyph glyph-name="AEacute" unicode="&#x1fc;" horiz-adv-x="1679" 
d="M-68 0l740 1466h1080l-28 -167h-620l-78 -456h627l-28 -166h-628l-87 -511h692l-29 -166h-861l72 418h-464l-205 -418h-183zM403 584h409l123 715h-173zM1063 1564l154 275h187l-218 -275h-123z" />
    <glyph glyph-name="aeacute" unicode="&#x1fd;" horiz-adv-x="1493" 
d="M1254 359l150.002 -17c-50.667 -130 -111.167 -223.5 -181.5 -280.5s-146.833 -85.5 -229.5 -85.5c-65.333 0 -125.333 19.5 -180 58.5s-99.334 98.167 -134.001 177.5c-42 -80 -92.167 -139.5 -150.5 -178.5s-118.833 -58.5 -181.5 -58.5c-84 0 -151 27.333 -201 82
s-75 130.667 -75 228c0 78.667 19.333 147 58 205c29.333 43.333 69.5 74 120.5 92s130.833 32.333 239.5 43c92 9.33301 157.667 21.333 197 36c12.667 47.333 19 88.333 19 123c0 52 -13.667 92 -41 120s-66 42 -116 42c-120.667 0 -202.334 -66.667 -245.001 -200
l-147 15c29.333 106.667 78.166 187.667 146.499 243s151.5 83 249.5 83c59.333 0 111.666 -12.167 156.999 -36.5s83.666 -60.833 114.999 -109.5c76 96.667 171.333 145 286 145c104.667 0 187.834 -41.333 249.501 -124s92.5 -188.667 92.5 -318
c0 -38.667 -4 -91.667 -12 -159h-633c-2 -20.667 -3 -40.667 -3 -60c0 -101.333 18.167 -176.833 54.5 -226.5s81.833 -74.5 136.5 -74.5c48.667 0 95.834 19.167 141.501 57.5s84.834 97.5 117.501 177.5zM835.002 624h478.002l1 44c0 58 -8.83301 108.333 -26.5 151
s-41.834 74.5 -72.501 95.5s-63.667 31.5 -99 31.5c-54.667 0 -109.334 -28.333 -164.001 -85s-93.667 -135.667 -117 -237zM663.004 525c-58.667 -16.667 -129.332 -29.6689 -211.999 -39.002c-68 -7.33301 -115.667 -18 -143 -32s-48.5 -34.167 -63.5 -60.5
s-22.5 -60.166 -22.5 -101.499c0 -53.333 14.667 -95.833 44 -127.5s68 -47.5 116 -47.5c65.333 0 120.666 28.333 165.999 85c58 72.667 96.333 180.334 115 323.001zM717.006 1191l154 275h187l-218 -275h-123z" />
    <glyph glyph-name="Oslashacute" unicode="&#x1fe;" horiz-adv-x="1307" 
d="M280 175c-84.667 122.667 -127.002 277 -127.002 463c0 164.667 31.167 314.667 93.5 450s140.833 236.333 235.5 303s196.334 100 305.001 100c122.667 0 227 -39 313 -117l131 192l73 -79l-133 -195c84.667 -118 127 -273 127 -465c0 -162 -31.833 -310.667 -95.5 -446
s-143.667 -236.833 -240 -304.5s-198.166 -101.5 -305.499 -101.5c-116 0 -217.333 39 -304 117l-132 -195l-78 79zM378.998 320l625.001 914c-62.667 62.667 -134.334 94 -215.001 94c-76.667 0 -151.667 -27.333 -225 -82s-133.833 -137.5 -181.5 -248.5
s-71.5 -235.167 -71.5 -372.5c0 -121.333 22.667 -223 68 -305zM1071 1145l-623.001 -914.001c66.667 -62.667 140.334 -94 221.001 -94c73.333 0 145.333 27 216 81s130.5 138.833 179.5 254.5s73.5 241.834 73.5 378.501c0 111.333 -22.333 209.333 -67 294zM697.998 1564
l154 275h187l-218 -275h-123z" />
    <glyph glyph-name="oslashacute" unicode="&#x1ff;" horiz-adv-x="1026" 
d="M808 1018l93.002 140.999l74 -72l-96 -147c51.333 -79.333 77 -180 77 -302c0 -132 -22.5 -249.667 -67.5 -353s-103.333 -180.666 -175 -231.999s-147.167 -77 -226.5 -77c-72.667 0 -139.334 21 -200.001 63l-93 -141l-74 69l95 144c-56 78 -84 177.667 -84 299
c0 183.333 42.5 341.833 127.5 475.5s200.833 200.5 347.5 200.5c77.333 0 144.666 -22.667 201.999 -68zM727.002 893.999c-35.333 34.667 -77.334 52 -126.001 52c-51.333 0 -101.166 -19 -149.499 -57s-89 -101 -122 -189s-49.5 -182 -49.5 -282
c0 -66.667 9 -122 27 -166zM368.001 161.999c36 -30.667 76.333 -46 121 -46c48.667 0 96.667 19.167 144 57.5s88.5 102 123.5 191s52.5 182.5 52.5 280.5c0 55.333 -8 106 -24 152zM514.001 1191l154 275h187l-218 -275h-123z" />
    <glyph glyph-name="circumflex" unicode="&#x2c6;" horiz-adv-x="559" 
d="M168 1191l217 275h164l102 -275h-130l-65 178l-136 -178h-152z" />
    <glyph glyph-name="caron" unicode="&#x2c7;" horiz-adv-x="559" 
d="M698 1466l-217 -275h-164l-101 275h129l63 -178l136 178h154z" />
    <glyph glyph-name="macron" unicode="&#x2c9;" horiz-adv-x="559" 
d="M165 1229l24 139h509l-24 -139h-509z" />
    <glyph glyph-name="breve" unicode="&#x2d8;" horiz-adv-x="559" 
d="M180 1422h96.999c10.667 -93.333 53.334 -140 128.001 -140c38 0 71.667 12.167 101 36.5s51.666 58.833 66.999 103.5h98c-19.333 -81.333 -53.666 -145 -102.999 -191s-105.333 -69 -168 -69c-62 0 -113.333 22.833 -154 68.5s-62.667 109.5 -66 191.5z" />
    <glyph glyph-name="dotaccent" unicode="&#x2d9;" horiz-adv-x="559" 
d="M326 1209l38 223h183l-39 -223h-182z" />
    <glyph glyph-name="ring" unicode="&#x2da;" horiz-adv-x="559" 
d="M269 1320c0 52 14.999 95.333 44.999 130s64.667 52 104 52c40 0 75 -17.333 105 -52s45 -78 45 -130c0 -52.667 -15.167 -96.167 -45.5 -130.5s-65.166 -51.5 -104.499 -51.5s-74 17.167 -104 51.5s-45 77.833 -45 130.5zM329.999 1320
c0 -30.667 8.83301 -56.332 26.5 -76.999s38.167 -31 61.5 -31s43.833 10.167 61.5 30.5s26.5 46.166 26.5 77.499c0 30.667 -8.66699 56.167 -26 76.5s-38 30.5 -62 30.5c-23.333 0 -43.833 -10.167 -61.5 -30.5s-26.5 -45.833 -26.5 -76.5z" />
    <glyph glyph-name="ogonek" unicode="&#x2db;" horiz-adv-x="559" 
d="M162 27l91.998 -0.000976562c-32 -86.667 -48 -154 -48 -202c0 -38 9 -67 27 -87s40.667 -30 68 -30c36.667 0 84.334 14.333 143.001 43l-20 -120c-62 -37.333 -120.333 -56 -175 -56c-45.333 0 -81.166 15.333 -107.499 46s-39.5 76.334 -39.5 137.001
c0 77.333 20 167 60 269z" />
    <glyph glyph-name="tilde" unicode="&#x2dc;" horiz-adv-x="559" 
d="M157 1222c18 88 40.167 147.332 66.5 177.999s59.5 46 99.5 46c18 0 35.5 -2.66699 52.5 -8s45.833 -18.666 86.5 -39.999c45.333 -24.667 75.666 -37 90.999 -37c28.667 0 48.334 26.333 59.001 79h99c-6 -70 -24.5 -124 -55.5 -162s-66.167 -57 -105.5 -57
c-22 0 -49.667 8.66699 -83 26c-75.333 40 -122 60 -140 60c-36 0 -58.333 -28.333 -67 -85h-103z" />
    <glyph glyph-name="hungarumlaut" unicode="&#x2dd;" horiz-adv-x="559" 
d="M144 1191l153 275h189l-220 -275h-122zM421 1191l150 275h190l-223 -275h-117z" />
    <glyph glyph-name="tonos" unicode="&#x384;" horiz-adv-x="559" 
d="M316 1191l154 275h187l-218 -275h-123z" />
    <glyph glyph-name="dieresistonos" unicode="&#x385;" horiz-adv-x="559" 
d="M290 1190l146 276h149l-195 -276h-100zM81 1190l33 194h145l-32 -194h-146zM577 1190l35 194h143l-33 -194h-145z" />
    <glyph glyph-name="Alphatonos" unicode="&#x386;" horiz-adv-x="1120" 
d="M-33 0l681 1466h190l198 -1466h-156l-58 422h-486l-193 -422h-176zM405 573h397.001l-46 368c-18 145.333 -29.333 267 -34 365c-26.667 -84 -66.334 -183.667 -119.001 -299zM232.001 1191l154 275h187l-218 -275h-123z" />
    <glyph glyph-name="anoteleia" unicode="&#x387;" horiz-adv-x="559" 
d="M284 857l35 205h168l-35 -205h-168z" />
    <glyph glyph-name="Epsilontonos" unicode="&#x388;" horiz-adv-x="1325" 
d="M280 0l251 1466h868l-28 -167h-708l-78 -456h688l-28 -167h-688l-88 -510h757l-29 -166h-917zM116 1191l154 275h187l-218 -275h-123z" />
    <glyph glyph-name="Etatonos" unicode="&#x389;" horiz-adv-x="1421" 
d="M286 0l251 1466h161l-104 -609h623l104 609h161l-251 -1466h-161l118 691h-623l-118 -691h-161zM120 1191l154 275h187l-218 -275h-123z" />
    <glyph glyph-name="Iotatonos" unicode="&#x38a;" horiz-adv-x="655" 
d="M280 0l251 1466h161l-251 -1466h-161zM116 1191l154 275h187l-218 -275h-123z" />
    <glyph glyph-name="Omicrontonos" unicode="&#x38c;" horiz-adv-x="1333" 
d="M174 614c0 268.667 67.001 486.667 201.001 654c119.333 148.667 264.666 223 435.999 223c144 0 264.5 -58 361.5 -174s145.5 -277.333 145.5 -484c0 -166 -31.667 -316.5 -95 -451.5s-143.333 -236.5 -240 -304.5s-198.334 -102 -305.001 -102
c-92.667 0 -176.167 24.667 -250.5 74s-135.166 124 -182.499 224s-71 213.667 -71 341zM332.001 604c0 -142 35.332 -255.333 105.999 -340s154.334 -127 251.001 -127c73.333 0 145.5 27 216.5 81s130.833 138.833 179.5 254.5s73 241.834 73 378.501
c0 148 -34.5 264.5 -103.5 349.5s-152.5 127.5 -250.5 127.5c-113.333 0 -215.333 -55.667 -306 -167c-110.667 -136.667 -166 -322.334 -166 -557.001zM84 1191l154 275h187l-218 -275h-123z" />
    <glyph glyph-name="Upsilontonos" unicode="&#x38e;" horiz-adv-x="1454" 
d="M806 0l97 567l-370 899h172l178 -428c37.333 -90.667 75 -190.667 113 -300c40 90.667 95 189.667 165 297l282 431h192l-574 -914l-94 -552h-161zM116 1191l154 275h187l-218 -275h-123z" />
    <glyph glyph-name="Omegatonos" unicode="&#x38f;" horiz-adv-x="1303" 
d="M529 0h-505.999l31 166h299c-117.333 138 -176 304 -176 498c0 220.667 61.333 413.667 184 579s271 248 445 248c139.333 0 254.666 -60.5 345.999 -181.5s137 -279.5 137 -475.5c0 -284.667 -95 -507.334 -285 -668.001h262l-30 -166h-500l29 154
c117.333 50 207.666 135.167 270.999 255.5s95 262.5 95 426.5c0 148.667 -32.333 268 -97 358s-145.667 135 -243 135c-121.333 0 -227.666 -67.667 -318.999 -203s-137 -299 -137 -491c0 -227.333 74.333 -387.666 223 -480.999zM80.001 1191l154 275h187l-218 -275h-123z
" />
    <glyph glyph-name="iotadieresistonos" unicode="&#x390;" horiz-adv-x="467" 
d="M103 0l182 1062h148l-182 -1062h-148zM250 1190l146 276h149l-195 -276h-100zM41 1190l33 194h145l-32 -194h-146zM537 1190l35 194h143l-33 -194h-145z" />
    <glyph glyph-name="Alpha" unicode="&#x391;" horiz-adv-x="1120" 
d="M-33 0l681 1466h190l198 -1466h-156l-58 422h-486l-193 -422h-176zM405 573h397.001l-46 368c-18 145.333 -29.333 267 -34 365c-26.667 -84 -66.334 -183.667 -119.001 -299z" />
    <glyph glyph-name="Beta" unicode="&#x392;" horiz-adv-x="1120" 
d="M73 0l251 1466h373c90.667 0 158 -8 202 -24c64 -22.667 113.5 -61.834 148.5 -117.501s52.5 -125.167 52.5 -208.5c0 -82 -18.667 -153.167 -56 -213.5s-92.666 -106.166 -165.999 -137.499c63.333 -25.333 111.666 -63.666 144.999 -114.999s50 -113.333 50 -186
c0 -84 -20.167 -163.333 -60.5 -238s-91.5 -131 -153.5 -169s-130 -57 -204 -57h-582zM378 839.999l244.001 0.000976562c117.333 0 198.666 20.333 243.999 61c55.333 52 83 120.667 83 206c0 43.333 -8.66699 80.166 -26 110.499s-39.333 51.5 -66 63.5s-75 18 -145 18
h-256zM262.001 166h274c72 0 120 2.66699 144 8c43.333 9.33301 81.5 25 114.5 47s60.167 54.833 81.5 98.5s32 91.167 32 142.5c0 73.333 -18.667 126.833 -56 160.5s-103 50.5 -197 50.5h-306z" />
    <glyph glyph-name="Gamma" unicode="&#x393;" horiz-adv-x="958" 
d="M235 0h-162l252 1466h784l-28 -166h-625z" />
    <glyph glyph-name="Delta" unicode="&#x394;" horiz-adv-x="1126" 
d="M1044 0h-1069l682 1466h188zM610 1008l-383.001 -841.999h639l-103 776c-16 128 -26.667 249.667 -32 365c-23.333 -72.667 -63.666 -172.334 -120.999 -299.001z" />
    <glyph glyph-name="Epsilon" unicode="&#x395;" horiz-adv-x="1120" 
d="M76 0l251 1466h868l-28 -167h-708l-78 -456h688l-28 -167h-688l-88 -510h757l-29 -166h-917z" />
    <glyph glyph-name="Zeta" unicode="&#x396;" horiz-adv-x="1026" 
d="M41 0l15 147l728 1063c25.333 37.333 49.333 71 72 101c-50.667 -8 -90.667 -12 -120 -12h-525l29 167h829l-14 -153l-645 -935l-151 -217c26 4 53 6 81 6h621l-29 -167h-891z" />
    <glyph glyph-name="Eta" unicode="&#x397;" horiz-adv-x="1212" 
d="M70 0l251 1466h161l-104 -609h623l104 609h161l-251 -1466h-161l118 691h-623l-118 -691h-161z" />
    <glyph glyph-name="Theta" unicode="&#x398;" horiz-adv-x="1307" 
d="M660 -25c-148 0 -269.332 60.3311 -363.999 180.998s-142 281.667 -142 483c0 240.667 61.333 442.834 184 606.501s273.667 245.5 453 245.5c150.667 0 273 -59.667 367 -179s141 -278.666 141 -477.999c0 -241.333 -63.333 -444.833 -190 -610.5
s-276.334 -248.5 -449.001 -248.5zM789.001 1329c-129.333 0 -241.333 -67.168 -336 -201.501s-142 -301.833 -142 -502.5c0 -149.333 34.167 -268 102.5 -356s153.833 -132 256.5 -132c126 0 236 69.5 330 208.5s141 305.833 141 500.5
c0 144.667 -33.667 261.334 -101 350.001s-151 133 -251 133zM934.001 650.997h-446l28 166h447z" />
    <glyph glyph-name="Iota" unicode="&#x399;" horiz-adv-x="467" 
d="M96 0l251 1466h161l-251 -1466h-161z" />
    <glyph glyph-name="Kappa" unicode="&#x39a;" horiz-adv-x="1120" 
d="M75 0l251 1466h161l-121 -706l653 706h226l-558 -597l409 -869h-179l-348 743l-252 -267l-81 -476h-161z" />
    <glyph glyph-name="Lambda" unicode="&#x39b;" horiz-adv-x="1120" 
d="M644 1466h172.001l232 -1466h-156l-139 872c-22 134 -38.333 262.333 -49 385c-42.667 -106 -84.334 -204.667 -125.001 -296l-428 -961h-166z" />
    <glyph glyph-name="Mu" unicode="&#x39c;" horiz-adv-x="1399" 
d="M74 0l251 1466h197l122 -950c16 -126 26.333 -245.667 31 -359c34 99.333 89.667 233 167 401l422 908h201l-251 -1466h-158l125 713c29.333 165.333 71 350 125 554c-34.667 -95.333 -77.667 -198 -129 -308l-447 -959h-155l-121 940
c-10.667 82.667 -18.667 183 -24 301c-12.667 -124.667 -25.667 -226.667 -39 -306l-161 -935h-156z" />
    <glyph glyph-name="Nu" unicode="&#x39d;" horiz-adv-x="1212" 
d="M81 0l251 1466h157l202 -550c60 -162 107 -297.667 141 -407c24 -75.333 50 -171 78 -287c15.333 126 34 253.333 56 382l148 862h156l-251 -1466h-159l-299 847c-52.667 150.667 -94 282.334 -124 395.001c-7.33301 -95.333 -23 -212.333 -47 -351l-153 -891h-156z" />
    <glyph glyph-name="Xi" unicode="&#x39e;" horiz-adv-x="1090" 
d="M288 1300l29 166h846l-29 -166h-846zM196 674l29 166h811l-29 -166h-811zM7 0l29 166h952l-28 -166h-953z" />
    <glyph glyph-name="Omicron" unicode="&#x39f;" horiz-adv-x="1307" 
d="M154 614c0 268.667 67.001 486.667 201.001 654c119.333 148.667 264.666 223 435.999 223c144 0 264.5 -58 361.5 -174s145.5 -277.333 145.5 -484c0 -166 -31.667 -316.5 -95 -451.5s-143.333 -236.5 -240 -304.5s-198.334 -102 -305.001 -102
c-92.667 0 -176.167 24.667 -250.5 74s-135.166 124 -182.499 224s-71 213.667 -71 341zM312.001 604c0 -142 35.332 -255.333 105.999 -340s154.334 -127 251.001 -127c73.333 0 145.5 27 216.5 81s130.833 138.833 179.5 254.5s73 241.834 73 378.501
c0 148 -34.5 264.5 -103.5 349.5s-152.5 127.5 -250.5 127.5c-113.333 0 -215.333 -55.667 -306 -167c-110.667 -136.667 -166 -322.334 -166 -557.001z" />
    <glyph glyph-name="Pi" unicode="&#x3a0;" horiz-adv-x="1212" 
d="M232 0h-162l252 1466h944l-252 -1466h-160l228 1300h-623z" />
    <glyph glyph-name="Rho" unicode="&#x3a1;" horiz-adv-x="1120" 
d="M73 0l251 1466h503c86.667 0 151.167 -11.833 193.5 -35.5s78.333 -64.5 108 -122.5s44.5 -125.333 44.5 -202c0 -99.333 -23.833 -193.166 -71.5 -281.499s-110 -148.666 -187 -180.999s-169.833 -48.5 -278.5 -48.5h-300l-102 -595h-161zM364 760.998
l265.002 -0.000976562c96 0 168 11.833 216 35.5s88.167 63.5 120.5 119.5s48.5 117.333 48.5 184c0 51.333 -8.33301 92.333 -25 123s-39.334 52.334 -68.001 65.001s-80.334 19 -155.001 19h-308z" />
    <glyph glyph-name="Sigma" unicode="&#x3a3;" horiz-adv-x="1008" 
d="M257 1268l33 198h830l-29 -166h-660l367 -569l-518 -565h614l-28 -166h-828l31 184l522 570z" />
    <glyph glyph-name="Tau" unicode="&#x3a4;" horiz-adv-x="1026" 
d="M381 0l223 1299h-395l29 167h946l-28 -167h-392l-222 -1299h-161z" />
    <glyph glyph-name="Upsilon" unicode="&#x3a5;" horiz-adv-x="1120" 
d="M470 0l97 567l-370 899h172l178 -428c37.333 -90.667 75 -190.667 113 -300c40 90.667 95 189.667 165 297l282 431h192l-574 -914l-94 -552h-161z" />
    <glyph glyph-name="Phi" unicode="&#x3a6;" horiz-adv-x="1409" 
d="M793 1325l33.001 182.003h161l-32 -190c141.333 -16 250 -67.833 326 -155.5s114 -199.834 114 -336.501c0 -158.667 -51.667 -301.334 -155 -428.001s-265.333 -198.334 -486 -215.001l-43 -239h-162l43 250c-142 16.667 -250.5 67.667 -325.5 153
s-112.5 196 -112.5 332c0 170 55.167 318.667 165.5 446s268.166 194.333 473.499 201zM621.001 354.003l143 799.001c-146.667 -16 -258.667 -66.5 -336 -151.5s-116 -192.167 -116 -321.5c0 -200.667 103 -309.334 309 -326.001zM926.001 1151l-143 -797.001
c149.333 12.667 262.333 63.834 339 153.501s115 199.167 115 328.5c0 192 -103.667 297 -311 315z" />
    <glyph glyph-name="Chi" unicode="&#x3a7;" horiz-adv-x="1120" 
d="M-53 0l574 741l-340 725h177l155 -332c53.333 -114 92.333 -204 117 -270c41.333 67.333 104 155 188 263l264 339h209l-580 -757l329 -709h-175l-195 429c-18 39.333 -40 93.333 -66 162c-29.333 -48 -65.333 -99.667 -108 -155l-336 -436h-213z" />
    <glyph glyph-name="Psi" unicode="&#x3a8;" horiz-adv-x="1395" 
d="M239 1178l50.999 288.001h160l-47 -278c-26 -144.667 -39 -248.334 -39 -311.001c0 -156.667 99 -243.667 297 -261l147 850h160l-145 -850c130 7.33301 227.833 42.5 293.5 105.5s117.167 202.167 154.5 417.5l57 327h160l-65 -376
c-27.333 -154 -62.666 -274.667 -105.999 -362s-110 -154.5 -200 -201.5s-197.667 -72.167 -323 -75.5l-80 -451h-162l80 455c-284 33.333 -426 179.333 -426 438c0 66.667 11 161.667 33 285z" />
    <glyph glyph-name="Ohm" unicode="&#x3a9;" horiz-adv-x="1278" 
d="M501 0h-505.999l31 166h299c-117.333 138 -176 304 -176 498c0 220.667 61.333 413.667 184 579s271 248 445 248c139.333 0 254.666 -60.5 345.999 -181.5s137 -279.5 137 -475.5c0 -284.667 -95 -507.334 -285 -668.001h262l-30 -166h-500l29 154
c117.333 50 207.666 135.167 270.999 255.5s95 262.5 95 426.5c0 148.667 -32.333 268 -97 358s-145.667 135 -243 135c-121.333 0 -227.666 -67.667 -318.999 -203s-137 -299 -137 -491c0 -227.333 74.333 -387.666 223 -480.999z" />
    <glyph glyph-name="Iotadieresis" unicode="&#x3aa;" horiz-adv-x="467" 
d="M96 0l251 1466h161l-251 -1466h-161zM227 1599l35 205h155l-35 -205h-155zM529 1599l36 205h154l-35 -205h-155z" />
    <glyph glyph-name="Upsilondieresis" unicode="&#x3ab;" horiz-adv-x="1120" 
d="M470 0l97 567l-370 899h172l178 -428c37.333 -90.667 75 -190.667 113 -300c40 90.667 95 189.667 165 297l282 431h192l-574 -914l-94 -552h-161zM516 1599l35 205h155l-35 -205h-155zM818 1599l36 205h154l-35 -205h-155z" />
    <glyph glyph-name="alphatonos" unicode="&#x3ac;" horiz-adv-x="954" 
d="M671 0l-16.001 158.001c-82 -120.667 -174.333 -181 -277 -181c-91.333 0 -163.666 38.333 -216.999 115s-80 182.667 -80 318c0 190 43.5 350 130.5 480s186.833 195 299.5 195c116 0 202.667 -72.333 260 -217l74 193h158l-195 -514v-215
c0 -102.667 4.33301 -213.334 13 -332.001h-150zM529.999 938.001c-82 0 -152.667 -54.8311 -212 -164.498s-89 -235.834 -89 -378.501c0 -84.667 16 -150.834 48 -198.501s72.667 -71.5 122 -71.5c82.667 0 154.5 54.167 215.5 162.5s91.5 231.5 91.5 369.5
c0 86 -16.5 154.333 -49.5 205s-75.167 76 -126.5 76zM464.999 1191l154 275h187l-218 -275h-123z" />
    <glyph glyph-name="epsilontonos" unicode="&#x3ad;" horiz-adv-x="737" 
d="M261 563c-57.333 62.667 -85.998 133.664 -85.998 212.997c0 86.667 30 159.834 90 219.501s132 89.5 216 89.5c115.333 0 211.333 -50.333 288 -151l-114 -92c-50 64 -106 96 -168 96c-48 0 -87.333 -16.667 -118 -50s-46 -72.666 -46 -117.999
c0 -94.667 64.667 -148.667 194 -162l-22 -135l-37 2c-74.667 0 -134.334 -20.167 -179.001 -60.5s-67 -90.5 -67 -150.5c0 -45.333 12.5 -81.166 37.5 -107.499s58.167 -39.5 99.5 -39.5c86 0 166 43 240 129l90 -117c-92.667 -101.333 -200.334 -152 -323.001 -152
c-92.667 0 -166 26.5 -220 79.5s-81 122.167 -81 207.5c0 132 68.667 231.667 206 299zM389.002 1191l154 275h187l-218 -275h-123z" />
    <glyph glyph-name="etatonos" unicode="&#x3ae;" 
d="M374 1061l-33 -184.001c109.333 138.667 217.333 208 324 208c66 0 119.667 -22.833 161 -68.5s62 -107.5 62 -185.5c0 -36 -7.33301 -98.667 -22 -188l-177 -1051h-147l180 1082c12.667 80 19 125 19 135c0 86 -39.667 129 -119 129c-66 0 -130.333 -30.167 -193 -90.5
s-109 -178.166 -139 -353.499l-84 -494h-149l182 1061h135zM491 1191l154 275h187l-218 -275h-123z" />
    <glyph glyph-name="iotatonos" unicode="&#x3af;" horiz-adv-x="467" 
d="M103 0l182 1062h148l-182 -1062h-148zM262 1191l154 275h187l-218 -275h-123z" />
    <glyph glyph-name="upsilondieresistonos" unicode="&#x3b0;" horiz-adv-x="924" 
d="M163 662l68 399.001h149l-98 -569c-15.333 -90.667 -23 -152.334 -23 -185.001c0 -54.667 16 -98.667 48 -132s72.667 -50 122 -50c63.333 0 115.333 25.5 156 76.5s74 151.833 100 302.5l97 557h147l-84 -498c-37.333 -222.667 -88.5 -376 -153.5 -460
s-151.5 -126 -259.5 -126c-94 0 -169.5 30.667 -226.5 92s-85.5 144 -85.5 248c0 60 14.333 175 43 345zM485 1190l146 276h149l-195 -276h-100zM276 1190l33 194h145l-32 -194h-146zM772 1190l35 194h143l-33 -194h-145z" />
    <glyph glyph-name="alpha" unicode="&#x3b1;" horiz-adv-x="954" 
d="M671 0l-16.001 158.001c-82 -120.667 -174.333 -181 -277 -181c-91.333 0 -163.666 38.333 -216.999 115s-80 182.667 -80 318c0 190 43.5 350 130.5 480s186.833 195 299.5 195c116 0 202.667 -72.333 260 -217l74 193h158l-195 -514v-215
c0 -102.667 4.33301 -213.334 13 -332.001h-150zM529.999 938.001c-82 0 -152.667 -54.8311 -212 -164.498s-89 -235.834 -89 -378.501c0 -84.667 16 -150.834 48 -198.501s72.667 -71.5 122 -71.5c82.667 0 154.5 54.167 215.5 162.5s91.5 231.5 91.5 369.5
c0 86 -16.5 154.333 -49.5 205s-75.167 76 -126.5 76z" />
    <glyph glyph-name="beta" unicode="&#x3b2;" horiz-adv-x="958" 
d="M698 801c134.667 -74.667 201.999 -194.332 201.999 -358.999c0 -126.667 -35.167 -235.834 -105.5 -327.501s-162.833 -137.5 -277.5 -137.5c-123.333 0 -218.666 60.333 -285.999 181l-103 -566h-145l215 1246c28 163.333 56.5 286.166 85.5 368.499
s76 150.333 141 204s136.167 80.5 213.5 80.5c82.667 0 153.167 -31.667 211.5 -95s87.5 -144.333 87.5 -243c0 -175.333 -79.667 -292.666 -239 -351.999zM357.999 893.002l-52 -299.001c-14.667 -87.333 -22 -155.666 -22 -204.999
c0 -87.333 22.833 -157.666 68.5 -210.999s98.5 -80 158.5 -80c68 0 126.667 33.667 176 101s74 150.666 74 249.999c0 188 -100.333 284 -301 288l23 121c102.667 4.66699 180.834 33 234.501 85s80.5 122 80.5 210c0 55.333 -15.333 100.833 -46 136.5
s-67.334 53.5 -110.001 53.5c-138 0 -232.667 -150 -284 -450z" />
    <glyph glyph-name="gamma" unicode="&#x3b3;" horiz-adv-x="840" 
d="M928 1061l-506 -1061l-69 -408h-148l70 408l-152 1061h146l73 -584c10 -70.667 20.333 -175 31 -313c30.667 81.333 67 168 109 260l291 637h155z" />
    <glyph glyph-name="delta" unicode="&#x3b4;" horiz-adv-x="936" 
d="M311 1348l22.001 118h662l-27 -151h-487c46.667 -66.667 112.334 -146 197.001 -238s143.5 -167.167 176.5 -225.5s49.5 -134.5 49.5 -228.5c0 -165.333 -40.833 -314.333 -122.5 -447s-196.834 -199 -345.501 -199c-108.667 0 -194.334 40 -257.001 120
s-94 187.667 -94 323c0 162.667 40.833 307 122.5 433s187.834 193.333 318.501 202c-92.667 105.333 -164.334 203 -215.001 293zM554.001 913c-84.667 0 -159.333 -47.498 -224 -142.498s-97 -213.833 -97 -356.5c0 -92.667 19.167 -165.334 57.5 -218.001
s89.5 -79 153.5 -79c84 0 157.167 51.333 219.5 154s93.5 220.667 93.5 354c0 89.333 -18.333 159.666 -55 210.999s-86 77 -148 77z" />
    <glyph glyph-name="epsilon" unicode="&#x3b5;" horiz-adv-x="737" 
d="M261 563c-57.333 62.667 -85.998 133.664 -85.998 212.997c0 86.667 30 159.834 90 219.501s132 89.5 216 89.5c115.333 0 211.333 -50.333 288 -151l-114 -92c-50 64 -106 96 -168 96c-48 0 -87.333 -16.667 -118 -50s-46 -72.666 -46 -117.999
c0 -94.667 64.667 -148.667 194 -162l-22 -135l-37 2c-74.667 0 -134.334 -20.167 -179.001 -60.5s-67 -90.5 -67 -150.5c0 -45.333 12.5 -81.166 37.5 -107.499s58.167 -39.5 99.5 -39.5c86 0 166 43 240 129l90 -117c-92.667 -101.333 -200.334 -152 -323.001 -152
c-92.667 0 -166 26.5 -220 79.5s-81 122.167 -81 207.5c0 132 68.667 231.667 206 299z" />
    <glyph glyph-name="zeta" unicode="&#x3b6;" horiz-adv-x="778" 
d="M360 1315l25.999 151h545l-22 -123c-224.667 -150 -396.334 -314.333 -515.001 -493s-178 -342.667 -178 -492c0 -84.667 16.5 -138.667 49.5 -162s80.167 -37 141.5 -41s105.833 -14.667 133.5 -32s51.834 -48 72.501 -92s31 -90.667 31 -140
c0 -206.667 -126 -311.667 -378 -315l63 148c117.333 9.33301 176 60.333 176 153c0 33.333 -9 60.833 -27 82.5s-62 35.167 -132 40.5c-104.667 8 -177 47 -217 117s-60 146.333 -60 229c0 168.667 59.333 342.667 178 522s261.334 328.333 428.001 447h-315z" />
    <glyph glyph-name="eta" unicode="&#x3b7;" 
d="M374 1061l-33 -184.001c109.333 138.667 217.333 208 324 208c66 0 119.667 -22.833 161 -68.5s62 -107.5 62 -185.5c0 -36 -7.33301 -98.667 -22 -188l-177 -1051h-147l180 1082c12.667 80 19 125 19 135c0 86 -39.667 129 -119 129c-66 0 -130.333 -30.167 -193 -90.5
s-109 -178.166 -139 -353.499l-84 -494h-149l182 1061h135z" />
    <glyph glyph-name="theta" unicode="&#x3b8;" horiz-adv-x="911" 
d="M424 -23c-96 0 -173.833 45.667 -233.5 137s-89.5 216.333 -89.5 375c0 232 47.167 457 141.5 675s216.5 327 366.5 327c95.333 0 173 -44 233 -132s90 -209.333 90 -364c0 -276 -49.333 -514.667 -148 -716s-218.667 -302 -360 -302zM287 801h484
c14.667 108 22 187.667 22 239c0 94 -17.667 168 -53 222s-79 81 -131 81c-144.667 0 -252 -180.667 -322 -542zM746 649h-483c-10 -78.667 -15 -147.667 -15 -207c0 -98 17 -175.333 51 -232s78 -85 132 -85c142 0 247 174.667 315 524z" />
    <glyph glyph-name="iota" unicode="&#x3b9;" horiz-adv-x="467" 
d="M103 0l182 1062h148l-182 -1062h-148z" />
    <glyph glyph-name="kappa" unicode="&#x3ba;" horiz-adv-x="840" 
d="M50 0l189 1061h147l-82 -467l424 467h197l-432 -440l297 -621h-170l-236 510l-116 -121l-68 -389h-150z" />
    <glyph glyph-name="lambda" unicode="&#x3bb;" horiz-adv-x="827" 
d="M419 1466h148l186 -1466h-148l-102 834l-393 -834h-150l512 1061z" />
    <glyph glyph-name="mu" unicode="&#x3bc;" horiz-adv-x="1180" 
d="M323 1062l179.002 0.000976562l-106 -499c-26 -121.333 -39 -206.333 -39 -255c0 -53.333 17.667 -96.833 53 -130.5s83.666 -50.5 144.999 -50.5c82 0 151.667 29.667 209 89c42.667 45.333 78.667 136.666 108 273.999l120 572h179l-226 -1062h-161l18 84
c-90.667 -72.667 -179.334 -109 -266.001 -109c-49.333 0 -92.5 10 -129.5 30s-73.167 51.667 -108.5 95l-108 -510h-178z" />
    <glyph glyph-name="nu" unicode="&#x3bd;" horiz-adv-x="840" 
d="M275 0l-143.001 1062h144l75 -585c8 -66.667 18 -171 30 -313c28.667 76 65.334 162.333 110.001 259l290 639h157l-498 -1062h-165z" />
    <glyph glyph-name="xi" unicode="&#x3be;" horiz-adv-x="750" 
d="M745 1493h104.001l-26 -152h-111c-90 0 -160.333 -19.667 -211 -59s-76 -89 -76 -149c0 -50 18 -87.833 54 -113.5s126 -38.5 270 -38.5l-25 -147h-30c-112.667 0 -214.334 -46 -305.001 -138s-136 -199.667 -136 -323c0 -113.333 51.667 -182.666 155 -207.999
c112.667 -28 184 -64.833 214 -110.5s45 -98.5 45 -158.5c0 -90.667 -31 -166.334 -93 -227.001s-162.667 -91.667 -302 -93l63 148c128.667 8 193 55 193 141c0 31.333 -9 58.166 -27 80.499s-60.5 39.5 -127.5 51.5s-118.667 33.167 -155 63.5s-65.833 73.333 -88.5 129
s-34 115.5 -34 179.5c0 115.333 29.5 219.333 88.5 312s142.833 161.334 251.5 206.001c-105.333 47.333 -158 132 -158 254c0 92 32.5 173.667 97.5 245s188.167 107 369.5 107z" />
    <glyph glyph-name="omicron" unicode="&#x3bf;" 
d="M82 403c0 191.333 43 352.999 129 484.999s201.333 198 346 198c101.333 0 185 -38.833 251 -116.5s99 -188.167 99 -331.5c0 -131.333 -22.5 -248.666 -67.5 -351.999s-103.333 -180.833 -175 -232.5s-146.834 -77.5 -225.501 -77.5
c-103.333 0 -188.666 38.167 -255.999 114.5s-101 180.5 -101 312.5zM231 420.999c0 -100.667 20.001 -176.665 60.001 -227.998s90 -77 150 -77c47.333 0 94.666 19.167 141.999 57.5s88.666 101.833 123.999 190.5s53 179.667 53 273c0 101.333 -20 178.166 -60 230.499
s-89.333 78.5 -148 78.5c-51.333 0 -101.166 -19 -149.499 -57s-89 -100.833 -122 -188.5s-49.5 -180.834 -49.5 -279.501z" />
    <glyph glyph-name="pi" unicode="&#x3c0;" horiz-adv-x="1124" 
d="M140 909l26 152h1030l-26 -152h-191l-155 -909h-150l158 909h-354l-156 -909h-147l155 909h-190z" />
    <glyph glyph-name="rho" unicode="&#x3c1;" horiz-adv-x="961" 
d="M223 127l-95.001 -534.999h-149l147 832c44.667 256 107.334 430.167 188.001 522.5s175 138.5 283 138.5c99.333 0 181.5 -40.167 246.5 -120.5s97.5 -185.5 97.5 -315.5c0 -184.667 -45 -342.834 -135 -474.501s-195.667 -197.5 -317 -197.5
c-115.333 0 -204 50 -266 150zM592.999 938.001c-85.333 0 -158.501 -55.167 -219.501 -165.5s-91.5 -236.833 -91.5 -379.5c0 -84 18 -149.667 54 -197s82.667 -71 140 -71c84 0 158 53 222 159s96 227 96 363c0 88 -18.667 158.5 -56 211.5s-85.666 79.5 -144.999 79.5z
" />
    <glyph glyph-name="sigma1" unicode="&#x3c2;" horiz-adv-x="817" 
d="M171 -422l55.999 147.998l79 -2c139.333 0 209 43.667 209 131c0 22 -7.66699 44.333 -23 67s-69 64.834 -161 126.501s-155 127.667 -189 198s-51 143.833 -51 220.5c0 160.667 56.5 303.834 169.5 429.501s250.5 188.5 412.5 188.5c81.333 0 157 -19 227 -57l-53 -135
c-55.333 30 -112.666 45 -171.999 45c-118 0 -220.167 -49.167 -306.5 -147.5s-129.5 -206.833 -129.5 -325.5c0 -74 13.5 -130 40.5 -168s78.333 -85 154 -141s130 -102.833 163 -140.5s49.5 -91.167 49.5 -160.5c0 -68 -24.333 -131.5 -73 -190.5
s-139.667 -88.5 -273 -88.5c-60 0 -103 0.666992 -129 2z" />
    <glyph glyph-name="sigma" unicode="&#x3c3;" horiz-adv-x="1014" 
d="M669 1061h414l-27 -152h-217c42 -79.333 63 -167.333 63 -264c0 -196 -43.5 -356.333 -130.5 -481s-198.833 -187 -335.5 -187c-106.667 0 -192.5 38.5 -257.5 115.5s-97.5 179.167 -97.5 306.5c0 202 44.333 366.833 133 494.5s200 191.5 334 191.5
c26.667 0 54 -4 82 -12zM552 946c-91.333 0 -168 -52.168 -230 -156.501s-93 -228.166 -93 -371.499c0 -94 19 -167.667 57 -221s88.667 -80 152 -80c88 0 162.833 53.167 224.5 159.5s92.5 227.833 92.5 364.5c0 96 -18.167 170.833 -54.5 224.5s-85.833 80.5 -148.5 80.5z
" />
    <glyph glyph-name="tau" unicode="&#x3c4;" horiz-adv-x="629" 
d="M145 909l26 152h527l-27 -152h-188l-158 -909h-148l156 909h-188z" />
    <glyph glyph-name="upsilon" unicode="&#x3c5;" horiz-adv-x="924" 
d="M163 662l68 399.001h149l-98 -569c-15.333 -90.667 -23 -152.334 -23 -185.001c0 -54.667 16 -98.667 48 -132s72.667 -50 122 -50c63.333 0 115.333 25.5 156 76.5s74 151.833 100 302.5l97 557h147l-84 -498c-37.333 -222.667 -88.5 -376 -153.5 -460
s-151.5 -126 -259.5 -126c-94 0 -169.5 30.667 -226.5 92s-85.5 144 -85.5 248c0 60 14.333 175 43 345z" />
    </font>
</defs>
</svg>
