<svg xmlns="http://www.w3.org/2000/svg">
<defs>
<font id="PTSans-Caption" horiz-adv-x="594" >
  <font-face 
    font-family="PT Sans Caption"
    font-weight="400"
    font-variant="small-caps"
    font-stretch="normal"
    units-per-em="1000"
    panose-1="0 0 0 0 0 0 0 0 0 0"
    ascent="750"
    descent="-250"
    x-height="525"
    cap-height="700"
    bbox="-342 -250 1208 999"
    underline-thickness="50"
    underline-position="-99"
    stemv="92"
    unicode-range="U+0020-FB02"
  />
<missing-glyph horiz-adv-x="750" 
d="M700 0h-650v700h650v-700zM422 350l198 220l-50 50l-195 -217l-195 217l-50 -50l197 -220l-197 -220l50 -50l195 217l195 -217l50 50zM140 63h-11v-36h8v12h4c8 0 16 3 16 12c0 11 -9 12 -17 12zM137 46v11h4c5 0 8 -2 8 -5c0 -7 -4 -6 -9 -6h-3zM177 57h12v6h-31v-6h12
v-30h7v30zM222 37c0 -3 -2 -4 -7 -4s-8 1 -9 2l-3 -7c3 0 6 -2 13 -2c9 0 14 4 14 12c0 12 -18 9 -18 16c0 2 2 3 6 3c3 0 6 -1 9 -2l2 7c-4 1 -8 2 -11 2c-9 0 -14 -4 -14 -11c0 -12 18 -11 18 -16zM235 52l2 -5c3 1 6 2 9 2s5 -1 5 -4v-2c-1 0 -2 1 -5 1
c-8 0 -12 -3 -12 -10c0 -5 3 -8 8 -8c4 0 7 2 9 5l2 -4h6c-1 1 -1 4 -1 7v11c0 7 -3 10 -10 10c-5 0 -10 -2 -13 -3zM245 32c-3 0 -4 1 -4 4s2 4 5 4s4 -1 5 -1v-3c-1 -3 -3 -4 -6 -4zM284 42v-15h8v16c0 8 -3 12 -9 12c-5 0 -8 -2 -10 -5l-2 4h-5v-27h7v17c1 3 3 4 6 4
s5 -2 5 -6zM299 34l-2 -6c3 -1 6 -2 10 -2c7 0 11 3 11 9c0 7 -4 6 -8 9c-3 1 -5 2 -5 3s1 2 3 2c3 0 5 -1 8 -2l2 6c-3 1 -6 2 -10 2c-7 0 -10 -3 -10 -9c0 -7 5 -8 8 -9c3 0 5 -1 5 -3c0 -1 -1 -2 -3 -2c-3 0 -6 1 -9 2zM338 42c0 -14 7 -21 20 -21s20 7 20 21
c0 13 -7 20 -20 20c-11 0 -20 -8 -20 -20zM344 42c0 10 5 15 14 15s14 -5 14 -15s-5 -15 -14 -15s-14 5 -14 15zM365 33l-1 5c-1 -1 -3 -1 -4 -1c-3 0 -4 2 -4 5s1 4 4 4h3l2 4c-3 1 -5 2 -7 2c-6 0 -9 -3 -9 -10s3 -11 9 -11c3 0 6 1 7 2zM410 63h-11v-36h8v12h4
c8 0 16 3 16 12c0 11 -9 12 -17 12zM407 46v11h4c5 0 8 -2 8 -5c0 -7 -4 -6 -9 -6h-3zM430 52l2 -5c3 1 6 2 9 2s5 -1 5 -4v-2c-1 0 -2 1 -5 1c-9 0 -13 -3 -13 -10c0 -5 3 -8 9 -8c4 0 7 2 9 5l2 -4h6c-1 1 -1 4 -1 7v11c0 7 -3 10 -10 10c-5 0 -10 -2 -13 -3zM440 32

<glyph glyph-name=".notdef" horiz-adv-x="750" 
d="M700 0h-650v700h650v-700zM422 350l198 220l-50 50l-195 -217l-195 217l-50 -50l197 -220l-197 -220l50 -50l195 217l195 -217l50 50zM140 63h-11v-36h8v12h4c8 0 16 3 16 12c0 11 -9 12 -17 12zM137 46v11h4c5 0 8 -2 8 -5c0 -7 -4 -6 -9 -6h-3zM177 57h12v6h-31v-6h12
v-30h7v30zM222 37c0 -3 -2 -4 -7 -4s-8 1 -9 2l-3 -7c3 0 6 -2 13 -2c9 0 14 4 14 12c0 12 -18 9 -18 16c0 2 2 3 6 3c3 0 6 -1 9 -2l2 7c-4 1 -8 2 -11 2c-9 0 -14 -4 -14 -11c0 -12 18 -11 18 -16zM235 52l2 -5c3 1 6 2 9 2s5 -1 5 -4v-2c-1 0 -2 1 -5 1
c-8 0 -12 -3 -12 -10c0 -5 3 -8 8 -8c4 0 7 2 9 5l2 -4h6c-1 1 -1 4 -1 7v11c0 7 -3 10 -10 10c-5 0 -10 -2 -13 -3zM245 32c-3 0 -4 1 -4 4s2 4 5 4s4 -1 5 -1v-3c-1 -3 -3 -4 -6 -4zM284 42v-15h8v16c0 8 -3 12 -9 12c-5 0 -8 -2 -10 -5l-2 4h-5v-27h7v17c1 3 3 4 6 4
s5 -2 5 -6zM299 34l-2 -6c3 -1 6 -2 10 -2c7 0 11 3 11 9c0 7 -4 6 -8 9c-3 1 -5 2 -5 3s1 2 3 2c3 0 5 -1 8 -2l2 6c-3 1 -6 2 -10 2c-7 0 -10 -3 -10 -9c0 -7 5 -8 8 -9c3 0 5 -1 5 -3c0 -1 -1 -2 -3 -2c-3 0 -6 1 -9 2zM338 42c0 -14 7 -21 20 -21s20 7 20 21
c0 13 -7 20 -20 20c-11 0 -20 -8 -20 -20zM344 42c0 10 5 15 14 15s14 -5 14 -15s-5 -15 -14 -15s-14 5 -14 15zM365 33l-1 5c-1 -1 -3 -1 -4 -1c-3 0 -4 2 -4 5s1 4 4 4h3l2 4c-3 1 -5 2 -7 2c-6 0 -9 -3 -9 -10s3 -11 9 -11c3 0 6 1 7 2zM410 63h-11v-36h8v12h4
c8 0 16 3 16 12c0 11 -9 12 -17 12zM407 46v11h4c5 0 8 -2 8 -5c0 -7 -4 -6 -9 -6h-3zM430 52l2 -5c3 1 6 2 9 2s5 -1 5 -4v-2c-1 0 -2 1 -5 1c-9 0 -13 -3 -13 -10c0 -5 3 -8 9 -8c4 0 7 2 9 5l2 -4h6c-1 1 -1 4 -1 7v11c0 7 -3 10 -10 10c-5 0 -10 -2 -13 -3zM440 32
c-3 0 -4 1 -4 4s2 4 5 4s4 -1 5 -1v-3c-1 -3 -3 -4 -6 -4zM477 47l1 7c-1 1 -2 1 -4 1c-3 0 -5 -2 -6 -5h-1l-1 4h-6v-27h8v17c0 3 2 4 6 4h1c1 0 1 -1 2 -1zM482 52l1 -5c4 1 7 2 9 2c3 0 5 -1 5 -4v-2c-1 0 -2 1 -5 1c-9 0 -13 -3 -13 -10c0 -5 3 -8 9 -8c5 0 8 2 9 5h1
l1 -4h6c-1 1 -1 4 -1 7v11c0 7 -3 10 -10 10c-5 0 -9 -2 -12 -3zM491 32c-3 0 -4 1 -4 4s2 4 5 4s4 -1 5 -1v-3c-1 -3 -3 -4 -6 -4zM521 57h12v6h-31v-6h11v-30h8v30zM548 34l-1 5l-6 15h-8l12 -27c-1 -3 -2 -5 -5 -5l-1 1l-2 -6c1 -1 3 -1 5 -1c3 0 6 4 10 13l10 25h-8
l-5 -15v-5h-1zM570 54h-5v-38h8v12c1 -1 2 -2 5 -2c9 0 14 5 14 15c0 9 -4 14 -11 14c-3 0 -6 -1 -9 -4h-1zM579 49c3 0 5 -3 5 -8c0 -6 -2 -9 -7 -9c-1 0 -3 1 -4 2v10c0 3 2 5 6 5zM621 29l-3 5c-1 -1 -4 -2 -7 -2c-5 0 -7 2 -8 6h19v6c0 8 -5 11 -12 11
c-9 0 -14 -5 -14 -15c0 -9 5 -14 14 -14c4 0 8 2 11 3zM610 49c4 0 6 -2 5 -6h-11c0 4 2 6 6 6z" />
    <glyph glyph-name="space" unicode=" " horiz-adv-x="291" 
 />
    <glyph glyph-name="exclam" unicode="!" horiz-adv-x="331" 
d="M154 184l-20 173v343h98v-343l-20 -173h-58zM115 51c0 39 27 63 67 63s67 -24 67 -63c0 -36 -27 -62 -67 -62s-67 26 -67 62z" />
    <glyph glyph-name="quotedbl" unicode="&#x22;" horiz-adv-x="375" 
d="M155 502h-57v198h92zM285 502h-57v198h92z" />
    <glyph glyph-name="numbersign" unicode="#" 
d="M343 57h-80l42 164h-113l-42 -164h-81l42 164h-85l17 72h87l32 124h-81l17 72h83l40 154h81l-40 -154h113l40 154h81l-40 -154h83l-19 -72h-83l-32 -124h79l-19 -72h-79zM356 417h-113l-32 -124h113z" />
    <glyph glyph-name="dollar" unicode="$" 
d="M342 -99h-79v87c-81 3 -146 15 -183 34l31 84c31 -16 80 -32 152 -35v250c-89 38 -180 82 -180 205c0 104 60 169 180 184v90h79v-88c73 -3 117 -14 156 -31l-29 -82c-27 13 -67 25 -127 29v-229c92 -40 189 -88 189 -207c0 -111 -66 -181 -189 -199v-92zM320 297v-224
c68 8 113 42 113 109c0 59 -52 88 -113 115zM285 424v204c-77 -7 -104 -46 -104 -95c0 -53 45 -82 104 -109z" />
    <glyph glyph-name="percent" unicode="%" horiz-adv-x="854" 
d="M74 542c0 117 73 170 172 170s173 -47 173 -170s-74 -170 -173 -170s-172 47 -172 170zM162 542c0 -72 29 -105 84 -105c53 0 85 26 85 105c0 80 -30 105 -85 105c-53 0 -84 -25 -84 -105zM473 170c0 117 73 170 172 170s173 -47 173 -170s-74 -170 -173 -170
s-172 47 -172 170zM561 170c0 -72 29 -105 84 -105c53 0 85 26 85 105c0 80 -30 105 -85 105c-53 0 -84 -25 -84 -105zM190 -12l-57 48l571 677l58 -48z" />
    <glyph glyph-name="ampersand" unicode="&#x26;" horiz-adv-x="891" 
d="M125 189c0 106 86 193 185 246c-35 47 -63 92 -63 147c0 64 46 131 163 131c124 0 163 -64 163 -123c0 -55 -43 -118 -146 -170c51 -77 122 -157 193 -224c32 32 68 101 86 153l72 -37c-16 -46 -68 -129 -102 -168c58 -50 91 -70 131 -89l-56 -67c-37 18 -83 48 -130 91
c-52 -47 -125 -91 -241 -91c-138 0 -255 73 -255 201zM563 136c-81 76 -164 181 -209 242c-79 -53 -134 -108 -134 -185c0 -78 80 -126 173 -126c70 0 138 34 170 69zM342 580c0 -37 18 -73 46 -112c75 43 101 77 101 104c0 43 -19 69 -75 69c-51 0 -72 -24 -72 -61z" />
    <glyph glyph-name="quoteright" unicode="&#x2019;" horiz-adv-x="217" 
d="M44 655c0 32 24 53 59 53c43 0 71 -26 71 -75c0 -93 -67 -131 -99 -142l-28 41c32 15 55 37 54 72c-35 -7 -57 16 -57 51z" />
    <glyph glyph-name="parenleft" unicode="(" horiz-adv-x="314" 
d="M311 -174l-62 -45c-135 127 -183 313 -183 462c0 147 47 333 186 469l58 -43c-115 -133 -150 -289 -150 -426c0 -127 44 -302 151 -417z" />
    <glyph glyph-name="parenright" unicode=")" horiz-adv-x="313" 
d="M4 666l61 46c134 -129 182 -313 182 -463c0 -147 -47 -332 -186 -468l-58 44c117 136 150 287 150 424c0 128 -43 300 -149 417z" />
    <glyph glyph-name="asterisk" unicode="*" horiz-adv-x="387" 
d="M118 645l-29 48l55 31l28 -44l19 -59l21 58l27 45l54 -30l-29 -47l-50 -49l74 14h53v-63h-51l-69 14l50 -50l25 -41l-53 -31l-28 45l-25 63l-19 -60l-27 -45l-57 31l30 45l46 43l-63 -14h-55v63h55l68 -14z" />
    <glyph glyph-name="plus" unicode="+" horiz-adv-x="554" 
d="M234 295h-191v84h191v190h86v-190h191v-84h-191v-191h-86v191z" />
    <glyph glyph-name="comma" unicode="," horiz-adv-x="219" 
d="M53 47c0 35 29 59 65 59c47 0 79 -33 79 -89c0 -103 -68 -150 -123 -166l-28 46c51 17 77 60 76 99c-36 -11 -69 8 -69 51z" />
    <glyph glyph-name="hyphen" unicode="-" horiz-adv-x="394" 
d="M330 246h-266v86h266v-86z" />
    <glyph glyph-name="period" unicode="." horiz-adv-x="238" 
d="M52 51c0 39 27 63 67 63s67 -24 67 -63c0 -36 -27 -62 -67 -62s-67 26 -67 62z" />
    <glyph glyph-name="slash" unicode="/" horiz-adv-x="396" 
d="M35 -139l-72 36l397 815l74 -34z" />
    <glyph glyph-name="zero" unicode="0" 
d="M44 350c0 233 86 363 253 363c176 0 254 -127 254 -363c0 -232 -88 -362 -255 -362c-175 0 -252 143 -252 362zM142 350c0 -162 46 -283 155 -283c108 0 156 92 156 283c0 162 -40 283 -156 283c-108 0 -155 -95 -155 -283z" />
    <glyph glyph-name="one" unicode="1" 
d="M507 0h-394v84h152v465l12 61l-44 -50l-119 -80l-42 59l241 173h44v-628h150v-84z" />
    <glyph glyph-name="two" unicode="2" 
d="M489 536c0 -136 -123 -289 -234 -416l-54 -43v-4l72 11h233v-84h-441v36c96 92 326 323 326 484c0 63 -38 109 -118 109c-56 0 -111 -24 -148 -55l-41 67c55 44 124 72 208 72c124 0 197 -70 197 -177z" />
    <glyph glyph-name="three" unicode="3" 
d="M255 69c99 0 168 56 168 136c0 88 -61 130 -169 130h-81v38l153 208l52 44l-74 -9h-210v84h395v-39l-169 -227l-40 -29v-3l38 7c115 -3 200 -78 200 -195c0 -148 -119 -226 -265 -226c-65 0 -121 11 -161 27l25 82c35 -16 81 -28 138 -28z" />
    <glyph glyph-name="four" unicode="4" 
d="M448 289h128v-78h-128v-211h-92v211h-337v42l362 457h67v-421zM199 289h157v203l9 80h-3l-37 -65l-148 -179l-53 -47z" />
    <glyph glyph-name="five" unicode="5" 
d="M80 10l26 80c33 -12 67 -19 126 -19c100 0 171 49 171 144c0 92 -68 143 -183 138l-91 -4v351h347v-88h-259v-181l47 2c143 6 234 -80 234 -213c0 -152 -120 -232 -269 -232c-64 0 -109 8 -149 22z" />
    <glyph glyph-name="six" unicode="6" 
d="M540 212c0 -117 -87 -224 -236 -224c-144 0 -242 91 -242 251c0 256 158 450 370 474l19 -76c-159 -21 -269 -156 -290 -289c24 35 78 71 157 71c137 0 222 -80 222 -207zM445 205c0 88 -49 134 -146 134c-71 0 -123 -36 -143 -75c-3 -17 -2 -25 -2 -38
c0 -77 49 -159 151 -159c82 0 140 63 140 138z" />
    <glyph glyph-name="seven" unicode="7" 
d="M526 671l-315 -671h-96l270 573l48 49l-65 -10h-306v88h464v-29z" />
    <glyph glyph-name="eight" unicode="8" 
d="M217 360c-72 40 -129 86 -129 175c0 101 83 178 216 178c123 0 203 -69 203 -162c0 -76 -34 -130 -121 -183c78 -43 138 -91 138 -183c0 -114 -85 -197 -233 -197c-140 0 -220 81 -220 182c0 84 47 141 146 190zM279 329c-85 -43 -118 -99 -118 -146
c0 -61 48 -116 135 -116c73 0 136 39 136 114c0 73 -76 111 -153 148zM324 395c61 44 92 86 92 137c0 63 -54 101 -115 101c-76 0 -120 -49 -120 -96c0 -73 68 -107 143 -142z" />
    <glyph glyph-name="nine" unicode="9" 
d="M53 487c0 126 83 226 240 226c149 0 240 -99 240 -255c0 -301 -163 -452 -371 -470l-20 74c168 19 266 131 290 274c-41 -43 -79 -56 -157 -56c-118 0 -222 75 -222 207zM149 494c0 -89 60 -136 147 -136c71 0 120 26 143 58c3 16 2 26 2 41c0 88 -46 178 -153 178
c-88 0 -139 -53 -139 -141z" />
    <glyph glyph-name="colon" unicode=":" horiz-adv-x="273" 
d="M99 445c0 39 27 63 67 63s67 -24 67 -63c0 -36 -27 -63 -67 -63s-67 27 -67 63zM99 51c0 39 27 63 67 63s67 -24 67 -63c0 -36 -27 -62 -67 -62s-67 26 -67 62z" />
    <glyph glyph-name="semicolon" unicode=";" horiz-adv-x="277" 
d="M93 47c0 35 29 59 65 59c47 0 79 -33 79 -89c0 -103 -68 -150 -123 -166l-28 46c51 17 77 60 76 99c-36 -11 -69 8 -69 51zM98 445c0 39 27 63 67 63s67 -24 67 -63c0 -36 -27 -63 -67 -63s-67 27 -67 63z" />
    <glyph glyph-name="less" unicode="&#x3c;" horiz-adv-x="554" 
d="M510 146l-41 -70l-425 224v38l419 236l42 -72l-256 -144l-100 -37l99 -32z" />
    <glyph glyph-name="equal" unicode="=" horiz-adv-x="554" 
d="M511 381h-468v84h468v-84zM511 209h-468v84h468v-84z" />
    <glyph glyph-name="greater" unicode="&#x3e;" horiz-adv-x="554" 
d="M44 503l40 71l426 -226v-38l-420 -235l-41 72l256 144l100 37l-99 32z" />
    <glyph glyph-name="question" unicode="?" horiz-adv-x="479" 
d="M240 184h-80c-16 200 180 216 180 349c0 59 -31 100 -119 100c-53 0 -113 -24 -152 -47l-32 72c56 35 113 55 205 55c131 0 198 -74 198 -167c0 -189 -200 -192 -200 -362zM138 51c0 39 27 63 67 63s67 -24 67 -63c0 -36 -27 -62 -67 -62s-67 26 -67 62z" />
    <glyph glyph-name="at" unicode="@" horiz-adv-x="1163" 
d="M733 457l37 33h42l-56 -282c-17 -84 -16 -123 32 -123c96 0 197 94 197 241c0 211 -163 324 -383 324c-236 0 -423 -174 -423 -408c0 -233 161 -379 418 -379c43 0 100 10 144 29l23 -75c-64 -27 -115 -34 -182 -34c-276 0 -489 166 -489 453c0 298 235 494 514 494
c261 0 463 -157 463 -404c0 -165 -138 -319 -303 -319c-75 0 -118 31 -99 135h-4c-43 -64 -112 -135 -200 -135c-69 0 -127 62 -127 153c0 160 130 336 283 336c53 0 82 -18 113 -39zM676 247l30 136c-24 25 -45 35 -82 35c-111 0 -195 -136 -195 -242c0 -48 18 -91 78 -91
c56 0 126 82 169 162z" />
    <glyph glyph-name="A" unicode="A" horiz-adv-x="645" 
d="M637 0h-104l-76 183h-277l-74 -183h-98l288 710h52zM318 573l-27 -109l-81 -197h218l-81 199l-27 107h-2z" />
    <glyph glyph-name="B" unicode="B" horiz-adv-x="641" 
d="M559 538c0 -68 -44 -143 -143 -164v-4c85 -11 166 -63 166 -171c0 -145 -147 -207 -287 -207c-47 0 -147 1 -206 13v689c55 9 130 15 214 15c115 0 256 -33 256 -171zM281 316h-94v-234c19 -5 80 -7 115 -7c91 0 174 37 174 122c0 107 -103 119 -195 119zM187 620v-226
h55c25 0 63 2 86 5c67 19 124 54 124 121c0 90 -79 105 -156 105c-47 0 -89 -2 -109 -5z" />
    <glyph glyph-name="C" unicode="C" horiz-adv-x="624" 
d="M560 107l24 -77c-44 -31 -116 -42 -192 -42c-179 0 -334 111 -334 362c0 261 177 363 335 363c88 0 140 -10 179 -25l-22 -86c-33 15 -82 23 -149 23c-120 0 -237 -72 -237 -275c0 -181 107 -275 250 -275c65 0 113 13 146 32z" />
    <glyph glyph-name="D" unicode="D" horiz-adv-x="715" 
d="M89 0v700c53 8 148 9 208 9c244 0 360 -149 360 -354c0 -186 -105 -364 -372 -364c-45 0 -167 4 -196 9zM300 621c-36 0 -92 -2 -111 -5v-534c14 -3 86 -4 100 -4c201 0 262 137 262 277c0 119 -57 266 -251 266z" />
    <glyph glyph-name="E" unicode="E" horiz-adv-x="585" 
d="M517 0h-428v700h423v-86h-323v-213h295v-86h-295v-229h328v-86z" />
    <glyph glyph-name="F" unicode="F" horiz-adv-x="565" 
d="M189 0h-100v700h423v-86h-323v-223h300v-86h-300v-305z" />
    <glyph glyph-name="G" unicode="G" horiz-adv-x="668" 
d="M527 277l-179 18v58h262v-309c-47 -37 -138 -56 -214 -56c-191 0 -338 113 -338 362c0 260 185 363 347 363c88 0 143 -11 182 -26l-24 -85c-35 15 -85 23 -150 23c-120 0 -249 -70 -249 -275c0 -190 105 -275 246 -275c44 0 86 9 117 25v177z" />
    <glyph glyph-name="H" unicode="H" horiz-adv-x="733" 
d="M644 0h-100v313h-355v-313h-100v700h100v-299h355v299h100v-700z" />
    <glyph glyph-name="I" unicode="I" horiz-adv-x="398" 
d="M69 66h80v568h-80v66h260v-66h-80v-568h80v-66h-260v66z" />
    <glyph glyph-name="J" unicode="J" horiz-adv-x="325" 
d="M125 187v513h100v-540c0 -104 -55 -169 -160 -169c-27 0 -75 6 -99 16l19 83c18 -8 40 -12 66 -12c60 0 74 41 74 109z" />
    <glyph glyph-name="K" unicode="K" horiz-adv-x="669" 
d="M635 0h-126l-271 318h-49v-318h-100v700h100v-322l46 14l252 308h114l-252 -300l-47 -34l55 -40z" />
    <glyph glyph-name="L" unicode="L" horiz-adv-x="566" 
d="M189 88h358v-88h-458v700h100v-612z" />
    <glyph glyph-name="M" unicode="M" horiz-adv-x="868" 
d="M779 0h-100v451l11 112h-4l-43 -97l-195 -310h-30l-205 311l-41 95h-5l16 -110v-452h-94v700h75l237 -357l37 -76h2l35 78l225 355h79v-700z" />
    <glyph glyph-name="N" unicode="N" horiz-adv-x="735" 
d="M646 -9h-56l-355 454l-60 98h-4l12 -98v-445h-94v710h56l357 -454l57 -93h5l-12 93v444h94v-709z" />
    <glyph glyph-name="O" unicode="O" horiz-adv-x="747" 
d="M58 350c0 229 118 363 315 363c212 0 316 -147 316 -363c0 -229 -119 -362 -316 -362c-212 0 -315 146 -315 362zM164 350c0 -151 65 -277 209 -277c129 0 210 86 210 277c0 148 -64 277 -210 277c-128 0 -209 -89 -209 -277z" />
    <glyph glyph-name="P" unicode="P" horiz-adv-x="614" 
d="M189 0h-100v693c56 12 125 16 189 16c135 0 297 -39 297 -218c0 -168 -145 -234 -297 -234c-16 0 -73 2 -89 5v-262zM281 623c-36 0 -73 -1 -92 -6v-269c13 -5 67 -5 82 -5c95 0 198 23 198 147c0 108 -100 133 -188 133z" />
    <glyph glyph-name="Q" unicode="Q" horiz-adv-x="747" 
d="M771 -94v-86c-35 -9 -69 -12 -104 -12c-147 0 -280 67 -387 67c-17 0 -33 -2 -49 -6v86c20 4 40 6 60 6c121 0 238 -66 382 -66c31 0 63 3 98 11zM58 350c0 229 118 363 315 363c212 0 316 -147 316 -363c0 -229 -119 -362 -316 -362c-212 0 -315 146 -315 362zM164 350
c0 -151 65 -277 209 -277c129 0 210 86 210 277c0 148 -64 277 -210 277c-128 0 -209 -89 -209 -277z" />
    <glyph glyph-name="R" unicode="R" horiz-adv-x="653" 
d="M189 0h-100v693c57 11 138 16 199 16c133 0 257 -50 257 -194c0 -112 -73 -182 -172 -206l52 -35l188 -274h-115l-208 295l-101 14v-309zM291 623c-36 0 -83 0 -102 -6v-242h82c95 0 168 37 168 132c0 72 -52 116 -148 116z" />
    <glyph glyph-name="S" unicode="S" horiz-adv-x="581" 
d="M433 184c0 164 -366 94 -366 340c0 113 86 189 241 189c89 0 168 -15 211 -36l-31 -84c-33 17 -105 34 -185 34c-91 0 -136 -45 -136 -96c0 -155 366 -109 366 -338c0 -125 -99 -205 -261 -205c-109 0 -185 19 -224 38l33 87c33 -17 106 -40 187 -40c93 0 165 34 165 111
z" />
    <glyph glyph-name="T" unicode="T" horiz-adv-x="610" 
d="M19 700h572v-88h-236v-612h-100v612h-236v88z" />
    <glyph glyph-name="U" unicode="U" horiz-adv-x="710" 
d="M527 264v436h94v-457c0 -172 -104 -251 -255 -251c-180 0 -277 78 -277 231v477h100v-439c0 -136 60 -182 176 -182c112 0 162 56 162 185z" />
    <glyph glyph-name="V" unicode="V" horiz-adv-x="628" 
d="M-2 700h109l189 -466l26 -109h2l27 111l180 464h100l-290 -709h-50z" />
    <glyph glyph-name="W" unicode="W" horiz-adv-x="913" 
d="M8 700h105l134 -454l16 -117h2l18 119l155 452h50l156 -454l18 -117h2l19 119l124 452h98l-213 -709h-57l-153 454l-21 106h-5l-20 -107l-153 -453h-58z" />
    <glyph glyph-name="X" unicode="X" horiz-adv-x="678" 
d="M137 0h-110l253 356l-231 344h119l151 -230l27 -58l26 58l158 230h110l-238 -337l249 -363h-117l-167 244l-31 61l-28 -61z" />
    <glyph glyph-name="Y" unicode="Y" horiz-adv-x="617" 
d="M361 0h-100v274l-254 426h117l175 -297l17 -64h2l19 66l167 295h106l-249 -425v-275z" />
    <glyph glyph-name="Z" unicode="Z" horiz-adv-x="596" 
d="M557 0h-518v88l377 484l49 40h-426v88h518v-88l-380 -487l-47 -37h427v-88z" />
    <glyph glyph-name="bracketleft" unicode="[" horiz-adv-x="336" 
d="M295 -229h-206v929h206v-80h-114v-769h114v-80z" />
    <glyph glyph-name="backslash" unicode="\" horiz-adv-x="421" 
d="M-35 676l75 36l402 -814l-76 -37z" />
    <glyph glyph-name="bracketright" unicode="]" horiz-adv-x="336" 
d="M41 700h206v-929h-206v80h114v769h-114v80z" />
    <glyph glyph-name="asciicircum" unicode="^" horiz-adv-x="554" 
d="M151 430h-90l205 280h38l188 -280h-98l-85 132l-26 69l-32 -70z" />
    <glyph glyph-name="underscore" unicode="_" horiz-adv-x="452" 
d="M452 -208h-452v78h452v-78z" />
    <glyph glyph-name="quoteleft" unicode="&#x2018;" horiz-adv-x="217" 
d="M174 619c0 -32 -25 -52 -60 -52c-43 0 -70 26 -70 75c0 91 63 130 98 141l27 -40c-32 -15 -55 -38 -52 -73c35 7 57 -16 57 -51z" />
    <glyph glyph-name="a" unicode="a" horiz-adv-x="582" 
d="M107 415l-25 77c60 29 134 43 223 43c160 0 186 -91 186 -167c0 -73 -8 -144 -8 -231c0 -51 4 -99 15 -138h-67l-25 79h-10c-30 -40 -83 -85 -181 -85s-170 56 -170 147c0 121 114 173 219 173c83 0 109 -6 131 -9c3 20 4 31 4 54c0 75 -29 99 -118 99
c-52 0 -125 -17 -174 -42zM395 158v80c-21 3 -45 9 -117 9c-83 0 -135 -26 -135 -97c0 -53 42 -80 102 -80c89 0 134 49 150 88z" />
    <glyph glyph-name="b" unicode="b" horiz-adv-x="629" 
d="M88 28v672h92v-240h10c31 53 93 79 157 79c145 0 222 -88 222 -267c0 -183 -103 -280 -282 -280c-88 0 -164 16 -199 36zM334 461c-84 0 -132 -59 -154 -124v-249c33 -13 72 -19 119 -19c105 0 172 61 172 204c0 107 -42 188 -137 188z" />
    <glyph glyph-name="c" unicode="c" horiz-adv-x="529" 
d="M454 103l30 -67c-47 -33 -112 -49 -181 -49c-177 0 -243 110 -243 275c0 177 89 278 250 278c71 0 121 -14 162 -33l-24 -75c-36 19 -78 30 -127 30c-109 0 -163 -67 -163 -200c0 -100 45 -198 170 -198c56 0 98 18 126 39z" />
    <glyph glyph-name="d" unicode="d" horiz-adv-x="629" 
d="M446 700h92v-519c0 -68 0 -126 11 -182h-61l-23 79h-10c-31 -53 -92 -91 -171 -91c-151 0 -224 87 -224 272c0 179 96 277 261 277c56 0 84 -8 125 -19v183zM446 185v243c-31 23 -61 30 -120 30c-108 0 -170 -59 -170 -200c0 -112 39 -194 147 -194c81 0 124 41 143 121z
" />
    <glyph glyph-name="e" unicode="e" horiz-adv-x="598" 
d="M480 113l35 -70c-47 -35 -119 -56 -200 -56c-177 0 -255 107 -255 275c0 180 92 278 256 278c104 0 218 -37 218 -212c0 -21 -1 -51 -5 -78h-375c3 -123 52 -186 187 -186c56 0 111 22 139 49zM158 316h288c3 107 -46 146 -129 146c-93 0 -150 -39 -159 -146z" />
    <glyph glyph-name="f" unicode="f" horiz-adv-x="364" 
d="M113 447h-89v78h89v14c0 131 45 175 165 175c51 0 85 -5 126 -20l-20 -75c-35 15 -64 17 -92 17c-75 0 -87 -23 -87 -111h154v-78h-154v-447h-92v447z" />
    <glyph glyph-name="g" unicode="g" horiz-adv-x="627" 
d="M537 510v-512c0 -137 -82 -204 -238 -204c-91 0 -142 11 -182 30l22 83c35 -16 94 -35 142 -35c132 0 165 44 165 147v37h-11c-21 -35 -77 -57 -153 -57c-152 0 -222 76 -222 259c0 180 94 281 278 281c88 0 148 -12 199 -29zM302 76c81 0 126 45 143 112v258
c-31 9 -70 15 -121 15c-104 0 -166 -65 -166 -201c0 -117 39 -184 144 -184z" />
    <glyph glyph-name="h" unicode="h" horiz-adv-x="641" 
d="M553 310v-310h-92v290c0 115 -26 168 -126 168c-70 0 -137 -49 -155 -123v-335h-92v700h92v-240h11c40 48 93 80 176 80c128 0 186 -50 186 -230z" />
    <glyph glyph-name="i" unicode="i" horiz-adv-x="317" 
d="M206 0h-92v525h92v-525zM95 650c0 31 26 60 65 60s67 -29 67 -60s-28 -58 -67 -58s-65 27 -65 58z" />
    <glyph glyph-name="j" unicode="j" horiz-adv-x="312" 
d="M91 650c0 31 26 60 65 60s67 -29 67 -60s-28 -58 -67 -58s-65 27 -65 58zM112 15v510h92v-542c0 -129 -46 -192 -154 -192c-11 0 -23 -1 -38 2v76c87 -3 100 48 100 146z" />
    <glyph glyph-name="k" unicode="k" horiz-adv-x="557" 
d="M541 0h-116l-188 236h-57v-236h-92v700h92v-414l52 17l174 222h108l-167 -203h1l-55 -40l63 -45z" />
    <glyph glyph-name="l" unicode="l" horiz-adv-x="336" 
d="M100 700h92v-561c0 -55 22 -75 57 -75c21 0 39 2 67 10l12 -68c-27 -10 -78 -19 -110 -19c-72 0 -118 33 -118 118v595z" />
    <glyph glyph-name="m" unicode="m" horiz-adv-x="948" 
d="M520 338v-338h-92v288c0 113 -17 170 -109 170c-71 0 -119 -44 -139 -105v-353h-92v525h63l18 -70h10c43 48 94 85 179 85c72 0 121 -28 146 -100c40 61 103 100 179 100c127 0 177 -51 177 -238v-302h-92v302c0 106 -19 156 -111 156c-76 0 -118 -40 -137 -120z" />
    <glyph glyph-name="n" unicode="n" horiz-adv-x="641" 
d="M553 309v-309h-92v290c0 112 -31 168 -123 168c-81 0 -137 -47 -158 -112v-346h-92v525h64l18 -70h9c39 48 100 85 187 85c123 0 187 -50 187 -231z" />
    <glyph glyph-name="o" unicode="o" horiz-adv-x="631" 
d="M60 262c0 173 93 278 256 278c172 0 255 -119 255 -278c0 -171 -95 -275 -255 -275c-175 0 -256 118 -256 275zM158 262c0 -99 43 -198 159 -198c104 0 156 66 156 198c0 103 -43 200 -156 200c-104 0 -159 -65 -159 -200z" />
    <glyph glyph-name="p" unicode="p" horiz-adv-x="630" 
d="M180 -199h-92v724h62l18 -67h9c36 52 95 82 167 82c152 0 226 -81 226 -266c0 -177 -102 -287 -266 -287c-54 0 -83 9 -124 24v-210zM323 462c-80 0 -123 -39 -143 -122v-242c31 -21 63 -34 119 -34c108 0 173 71 173 211c0 113 -41 187 -149 187z" />
    <glyph glyph-name="q" unicode="q" horiz-adv-x="625" 
d="M537 504v-703h-91l-1 256h-11c-31 -45 -75 -70 -151 -70c-149 0 -223 90 -223 271c0 183 97 278 282 278c80 0 159 -17 195 -32zM445 184v254c-31 13 -71 20 -120 20c-108 0 -167 -65 -167 -198c0 -116 38 -196 145 -196c80 0 122 40 142 120z" />
    <glyph glyph-name="r" unicode="r" horiz-adv-x="380" 
d="M380 526l-18 -88c-23 7 -44 13 -63 13c-71 0 -110 -40 -119 -95v-356h-92v525h64l18 -70h9c31 52 69 82 130 82c19 0 46 -3 71 -11z" />
    <glyph glyph-name="s" unicode="s" horiz-adv-x="499" 
d="M353 147c0 53 -55 69 -116 87c-77 22 -165 44 -165 152c0 104 65 154 177 154c84 0 138 -19 181 -38l-22 -78c-36 17 -87 38 -147 38c-65 0 -97 -18 -97 -74c0 -44 51 -60 110 -76c79 -21 171 -50 171 -159c0 -99 -67 -166 -200 -166c-85 0 -148 19 -191 42l26 80
c37 -20 101 -45 161 -45c65 0 112 19 112 83z" />
    <glyph glyph-name="t" unicode="t" horiz-adv-x="405" 
d="M113 447h-89v78h89v106l92 24v-130h158v-78h-158v-268c0 -84 19 -115 71 -115c33 0 57 8 92 20l21 -65c-43 -19 -91 -32 -147 -32c-93 0 -129 46 -129 161v299z" />
    <glyph glyph-name="u" unicode="u" horiz-adv-x="644" 
d="M88 215v310h92v-289c0 -111 23 -172 116 -172c80 0 129 51 156 118v343h92v-376c0 -51 4 -106 12 -149h-62l-24 87h-10c-35 -60 -95 -100 -187 -100c-123 0 -185 52 -185 228z" />
    <glyph glyph-name="v" unicode="v" horiz-adv-x="535" 
d="M0 525h108l134 -302l35 -108l33 110l125 300h100l-245 -535h-40z" />
    <glyph glyph-name="w" unicode="w" horiz-adv-x="840" 
d="M276 230l121 295h71l86 -199l43 -101l27 -101h7l23 104l98 297h88l-191 -535h-50l-147 338v-1l-26 97l-30 -98v1l-141 -337h-48l-199 535h101l111 -297l19 -105h9z" />
    <glyph glyph-name="x" unicode="x" horiz-adv-x="592" 
d="M136 0h-106l203 269l-189 256h117l102 -134l35 -71l41 71l106 134h104l-191 -252c67 -89 137 -182 204 -273h-114l-115 149l-40 75l-41 -75z" />
    <glyph glyph-name="y" unicode="y" horiz-adv-x="531" 
d="M8 525h109l134 -332l31 -101h13l25 102l109 331h94l-172 -475c-48 -131 -100 -254 -199 -254c-27 0 -49 3 -68 9l15 78c10 -3 20 -5 30 -5c53 0 87 21 114 120z" />
    <glyph glyph-name="z" unicode="z" horiz-adv-x="515" 
d="M461 0h-413v79l259 316l70 52h-329v78h413v-79l-262 -319l-70 -49h332v-78z" />
    <glyph glyph-name="braceleft" unicode="{" horiz-adv-x="383" 
d="M146 -120v228c0 68 -31 89 -87 89v76c56 0 87 26 87 85v233c0 64 34 110 105 110h100v-80h-56c-38 0 -57 -21 -57 -62v-224c0 -59 -37 -87 -77 -94v-8c39 -5 77 -42 77 -98v-222c0 -41 17 -62 58 -62h55v-80h-100c-65 0 -105 38 -105 109z" />
    <glyph glyph-name="bar" unicode="|" horiz-adv-x="258" 
d="M169 -129h-80v829h80v-829z" />
    <glyph glyph-name="braceright" unicode="}" horiz-adv-x="383" 
d="M263 592v-229c0 -68 32 -89 88 -89v-76c-56 0 -88 -26 -88 -85v-232c0 -64 -35 -110 -107 -110h-97v80h55c38 0 57 21 57 62v223c0 59 37 87 76 94v8c-39 5 -76 42 -76 98v223c0 41 -19 62 -58 62h-54v80h98c65 0 106 -38 106 -109z" />
    <glyph glyph-name="asciitilde" unicode="~" horiz-adv-x="554" 
d="M70 295l-36 70c64 45 113 60 156 60c82 0 137 -54 203 -54c27 0 55 8 90 35l37 -71c-55 -35 -96 -47 -132 -47c-77 0 -127 56 -198 56c-33 0 -71 -13 -120 -49z" />
    <glyph glyph-name="exclamdown" unicode="&#xa1;" horiz-adv-x="329" 
d="M175 316l20 -173v-342h-100v342l20 173h60zM76 463c0 39 27 63 67 63s67 -24 67 -63c0 -36 -27 -63 -67 -63s-67 27 -67 63z" />
    <glyph glyph-name="cent" unicode="&#xa2;" 
d="M491 100l26 -66c-36 -21 -84 -36 -135 -43v-97h-79v95c-155 11 -215 119 -215 272c0 163 75 259 215 275v94h79v-93c51 -3 90 -13 125 -28l-27 -76c-32 16 -70 23 -106 26v-396c45 3 86 20 117 37zM314 66v391c-91 -12 -136 -77 -136 -196c0 -87 36 -177 136 -195z" />
    <glyph glyph-name="sterling" unicode="&#xa3;" 
d="M157 305h-113v80h72c-17 35 -31 71 -31 126c0 130 91 202 231 202c89 0 157 -17 200 -36l-30 -85c-31 16 -88 35 -169 35c-84 0 -132 -46 -132 -113c0 -52 19 -90 39 -129h171v-80h-133c8 -25 14 -53 14 -85c0 -40 -14 -85 -41 -113l-40 -32v-5l64 14h277v-84h-492v84h2
c92 0 131 63 131 127c0 37 -9 67 -20 94z" />
    <glyph glyph-name="fraction" unicode="&#x2044;" horiz-adv-x="201" 
d="M-130 -12l-60 44l523 682l60 -43z" />
    <glyph glyph-name="yen" unicode="&#xa5;" 
d="M250 265h-136v66h102l-219 369h116l175 -297l17 -64h2l19 66l167 295h106l-216 -369h103v-66h-136v-73h136v-66h-136v-126h-100v126h-136v66h136v73z" />
    <glyph glyph-name="florin" unicode="&#x192;" 
d="M496 525v-80h-145l-88 -478c-18 -98 -61 -174 -174 -174c-40 0 -93 13 -128 25l21 76c34 -13 60 -21 97 -21c55 0 80 37 97 135l76 437h-91v80h105l9 42c21 98 57 146 164 146c48 0 100 -14 137 -29l-26 -73c-35 13 -68 22 -103 22c-52 0 -66 -25 -78 -94l-4 -14h131z
" />
    <glyph glyph-name="section" unicode="&#xa7;" horiz-adv-x="554" 
d="M64 353c0 41 24 81 60 112l44 14c-37 20 -63 52 -63 105c0 76 63 129 172 129c83 0 138 -15 178 -34l-24 -77c-32 15 -85 31 -140 31c-64 0 -92 -21 -92 -56c0 -95 291 -41 291 -230c0 -41 -23 -79 -59 -110l-50 -14c40 -21 68 -52 68 -107c0 -85 -75 -128 -172 -128
c-88 0 -139 18 -179 37l24 75c35 -15 81 -33 141 -33c57 0 92 15 92 56c0 99 -291 43 -291 230zM395 345c0 65 -80 76 -162 102c-40 -17 -74 -48 -74 -92c0 -64 76 -76 157 -100c37 16 79 50 79 90z" />
    <glyph glyph-name="currency" unicode="&#xa4;" 
d="M117 468l-77 78l54 56l78 -77l21 -35c28 21 64 31 104 31c41 0 75 -10 103 -31l22 35l78 77l54 -56l-77 -78l-35 -21c21 -29 31 -63 31 -102c0 -40 -10 -75 -31 -102l35 -20l77 -78l-54 -56l-78 77l-21 34c-27 -19 -65 -31 -104 -31c-41 0 -75 10 -104 31l-21 -34
l-78 -77l-54 56l77 78l34 20c-20 29 -30 63 -30 102s11 72 30 103zM199 345c0 -59 39 -102 98 -102c57 0 98 43 98 102c0 57 -41 102 -98 102c-59 0 -98 -45 -98 -102z" />
    <glyph glyph-name="quotesingle" unicode="'" horiz-adv-x="244" 
d="M155 502h-57v198h92z" />
    <glyph glyph-name="quotedblleft" unicode="&#x201c;" horiz-adv-x="379" 
d="M336 619c0 -32 -25 -52 -60 -52c-43 0 -70 26 -70 75c0 91 63 130 98 141l27 -40c-32 -15 -55 -38 -52 -73c35 7 57 -16 57 -51zM174 619c0 -32 -25 -52 -60 -52c-43 0 -70 26 -70 75c0 91 63 130 98 141l27 -40c-32 -15 -55 -38 -52 -73c35 7 57 -16 57 -51z" />
    <glyph glyph-name="guillemotleft" unicode="&#xab;" horiz-adv-x="524" 
d="M480 92l-58 -50l-180 218l174 225l58 -51l-101 -134l-52 -40l52 -36zM283 91l-61 -53l-182 221l176 230l60 -52l-102 -136l-53 -41l53 -36z" />
    <glyph glyph-name="guilsinglleft" unicode="&#x2039;" horiz-adv-x="326" 
d="M282 92l-60 -54l-182 221l176 230l59 -53l-101 -135l-53 -41l53 -36z" />
    <glyph glyph-name="guilsinglright" unicode="&#x203a;" horiz-adv-x="326" 
d="M44 436l60 53l182 -221l-176 -230l-60 52l102 136l53 41l-53 36z" />
    <glyph glyph-name="fi" unicode="&#xfb01;" horiz-adv-x="643" 
d="M208 525h327v-525h-92v447h-235v-447h-92v447h-92v78h92v33c0 108 71 155 207 155c88 0 163 -19 208 -44l-28 -72c-43 23 -103 38 -166 38c-112 0 -129 -31 -129 -110z" />
    <glyph glyph-name="fl" unicode="&#xfb02;" horiz-adv-x="673" 
d="M438 105v520c-36 7 -84 10 -119 10c-101 0 -113 -38 -113 -110h115v-78h-115v-447h-92v447h-90v78h90v33c0 109 58 155 205 155c52 0 156 -10 211 -18v-553c0 -56 21 -78 56 -78c19 0 41 1 68 9l11 -68c-28 -11 -76 -18 -109 -18c-72 0 -118 33 -118 118z" />
    <glyph glyph-name="endash" unicode="&#x2013;" horiz-adv-x="724" 
d="M596 245h-468v86h468v-86z" />
    <glyph glyph-name="dagger" unicode="&#x2020;" horiz-adv-x="535" 
d="M185 422h-141v84h141l49 -12l-12 48v158h92v-158l-13 -48l49 12h141v-84h-143l-47 12l13 -44v-390l-16 -199h-60l-16 200v389l12 44z" />
    <glyph glyph-name="daggerdbl" unicode="&#x2021;" horiz-adv-x="535" 
d="M234 238l-12 42v112l12 42l-49 -12h-141v84h141l49 -12l-12 47v159h92v-159l-13 -47l49 12h141v-84h-143l-47 12l13 -42v-112l-13 -42l47 12h143v-84h-141l-49 12l13 -47v-131l-17 -199h-58l-17 200v130l12 47l-49 -12h-141v84h141z" />
    <glyph glyph-name="periodcentered" unicode="&#xb7;" horiz-adv-x="290" 
d="M78 301c0 39 27 63 67 63s67 -24 67 -63c0 -36 -27 -63 -67 -63s-67 27 -67 63z" />
    <glyph glyph-name="paragraph" unicode="&#xb6;" horiz-adv-x="546" 
d="M456 -129h-80v829h80v-829zM282 -129h-80v436c-93 0 -162 100 -162 197s72 196 189 196h53v-829z" />
    <glyph glyph-name="bullet" unicode="&#x2022;" horiz-adv-x="495" 
d="M93 311c0 83 71 142 154 142c84 0 155 -54 155 -142s-71 -142 -154 -142c-84 0 -155 54 -155 142z" />
    <glyph glyph-name="quotesinglbase" unicode="&#x201a;" horiz-adv-x="217" 
d="M44 51c0 32 24 53 59 53c43 0 71 -26 71 -75c0 -92 -67 -130 -99 -141l-28 41c32 15 55 37 54 71c-35 -6 -57 16 -57 51z" />
    <glyph glyph-name="quotedblbase" unicode="&#x201e;" horiz-adv-x="379" 
d="M44 51c0 32 24 53 59 53c43 0 71 -26 71 -75c0 -92 -67 -130 -99 -141l-28 41c32 15 55 37 54 71c-35 -6 -57 16 -57 51zM206 51c0 32 24 53 59 53c43 0 71 -26 71 -75c0 -92 -67 -130 -99 -141l-28 41c32 15 55 37 54 71c-35 -6 -57 16 -57 51z" />
    <glyph glyph-name="quotedblright" unicode="&#x201d;" horiz-adv-x="379" 
d="M206 654c0 32 24 53 59 53c43 0 71 -26 71 -75c0 -93 -67 -131 -99 -142l-28 41c32 15 55 37 54 72c-35 -7 -57 16 -57 51zM44 654c0 32 24 53 59 53c43 0 71 -26 71 -75c0 -93 -67 -131 -99 -142l-28 41c32 15 55 37 54 72c-35 -7 -57 16 -57 51z" />
    <glyph glyph-name="guillemotright" unicode="&#xbb;" horiz-adv-x="523" 
d="M44 434l57 51l180 -218l-173 -225l-58 51l100 134l52 40l-52 36zM241 436l60 53l182 -221l-175 -230l-61 53l103 135l52 41l-52 36z" />
    <glyph glyph-name="ellipsis" unicode="&#x2026;" horiz-adv-x="820" 
d="M618 51c0 39 27 63 67 63s67 -24 67 -63c0 -36 -27 -62 -67 -62s-67 26 -67 62zM345 51c0 39 27 63 67 63s67 -24 67 -63c0 -36 -27 -62 -67 -62s-67 26 -67 62zM72 51c0 39 27 63 67 63s67 -24 67 -63c0 -36 -27 -62 -67 -62s-67 26 -67 62z" />
    <glyph glyph-name="perthousand" unicode="&#x2030;" horiz-adv-x="1263" 
d="M74 542c0 117 73 170 172 170s173 -47 173 -170s-74 -170 -173 -170s-172 47 -172 170zM162 542c0 -72 29 -105 84 -105c53 0 85 26 85 105c0 80 -30 105 -85 105c-53 0 -84 -25 -84 -105zM469 170c0 117 73 170 172 170s173 -47 173 -170s-74 -170 -173 -170
s-172 47 -172 170zM557 170c0 -72 29 -105 84 -105c53 0 85 26 85 105c0 80 -30 105 -85 105c-53 0 -84 -25 -84 -105zM863 170c0 117 73 170 172 170s173 -47 173 -170s-74 -170 -173 -170s-172 47 -172 170zM951 170c0 -72 29 -105 84 -105c53 0 85 26 85 105
c0 80 -30 105 -85 105c-53 0 -84 -25 -84 -105zM188 -12l-57 48l571 677l58 -48z" />
    <glyph glyph-name="questiondown" unicode="&#xbf;" horiz-adv-x="478" 
d="M239 317h79c16 -194 -180 -214 -180 -347c0 -60 31 -99 119 -99c52 0 112 24 151 47l34 -71c-56 -35 -114 -56 -207 -56c-129 0 -197 70 -197 165c0 189 201 193 201 361zM206 463c0 39 27 63 67 63s67 -24 67 -63c0 -36 -27 -63 -67 -63s-67 27 -67 63z" />
    <glyph glyph-name="grave" unicode="`" horiz-adv-x="301" 
d="M60 720h110l71 -150h-54l-127 127v23z" />
    <glyph glyph-name="acute" unicode="&#xb4;" horiz-adv-x="288" 
d="M116 570h-56l64 150h104v-23z" />
    <glyph glyph-name="circumflex" unicode="&#x2c6;" horiz-adv-x="441" 
d="M145 586h-76l140 187h41c41 -64 85 -124 125 -187h-80l-45 69l-26 71l-31 -71z" />
    <glyph glyph-name="tilde" unicode="&#x2dc;" horiz-adv-x="450" 
d="M87 652l-20 44c43 47 76 60 107 60c48 0 86 -43 136 -43c17 0 35 8 54 24l22 -48c-36 -37 -67 -51 -94 -51c-51 0 -88 44 -139 44c-21 0 -41 -6 -66 -30z" />
    <glyph glyph-name="macron" unicode="&#xaf;" horiz-adv-x="448" 
d="M388 597h-328v69h328v-69z" />
    <glyph glyph-name="breve" unicode="&#x2d8;" horiz-adv-x="483" 
d="M67 735l50 24c28 -49 79 -75 132 -75c52 0 99 24 126 75l45 -19c-11 -64 -82 -130 -172 -130c-87 0 -158 49 -181 125z" />
    <glyph glyph-name="dotaccent" unicode="&#x2d9;" horiz-adv-x="252" 
d="M60 650c0 31 26 60 65 60s67 -29 67 -60s-28 -58 -67 -58s-65 27 -65 58z" />
    <glyph glyph-name="dieresis" unicode="&#xa8;" horiz-adv-x="449" 
d="M60 653c0 32 23 56 58 56c33 0 56 -24 56 -56c0 -31 -23 -55 -56 -55c-35 0 -58 24 -58 55zM275 653c0 32 22 56 57 56s57 -24 57 -56c0 -31 -22 -55 -57 -55s-57 24 -57 55z" />
    <glyph glyph-name="ring" unicode="&#x2da;" horiz-adv-x="353" 
d="M67 683c0 56 41 95 109 95c64 0 113 -31 113 -95c0 -52 -48 -94 -113 -94c-64 0 -109 34 -109 94zM124 683c0 -27 27 -45 52 -45c31 0 56 14 56 45s-27 46 -56 46c-27 0 -52 -14 -52 -46z" />
    <glyph glyph-name="cedilla" unicode="&#xb8;" horiz-adv-x="325" 
d="M131 -7h61l-27 -45c65 -11 96 -33 96 -77c0 -56 -53 -93 -126 -93c-31 0 -49 7 -68 11l10 53c71 -19 99 -3 99 20s-35 34 -99 41z" />
    <glyph glyph-name="hungarumlaut" unicode="&#x2dd;" horiz-adv-x="445" 
d="M116 610h-49l39 129h90v-12zM250 610h-51l82 129h101v-11z" />
    <glyph glyph-name="ogonek" unicode="&#x2db;" horiz-adv-x="345" 
d="M183 0h52c-45 -22 -74 -51 -73 -91c1 -31 21 -55 60 -55c13 0 30 3 47 10l12 -46c-23 -16 -68 -25 -104 -25c-68 0 -110 35 -110 92c0 53 45 93 116 115z" />
    <glyph glyph-name="caron" unicode="&#x2c7;" horiz-adv-x="450" 
d="M306 773h78l-137 -187h-49l-129 187h87l44 -68l28 -71l29 70z" />
    <glyph glyph-name="emdash" unicode="&#x2014;" horiz-adv-x="899" 
d="M771 245h-643v86h643v-86z" />
    <glyph glyph-name="AE" unicode="&#xc6;" horiz-adv-x="929" 
d="M433 273v318h-4l-38 -106l-136 -212h178zM861 0h-428v189h-230l-120 -189h-107l455 700h425v-86h-323v-213h295v-86h-295v-229h328v-86z" />
    <glyph glyph-name="ordfeminine" unicode="&#xaa;" horiz-adv-x="437" 
d="M94 620l-16 55c36 19 101 33 176 33c93 0 122 -36 122 -104c0 -51 -3 -96 -3 -139c0 -31 1 -60 8 -85h-69l-14 48h-4c-20 -22 -50 -52 -114 -52c-75 0 -124 37 -124 96c0 82 92 111 208 111c11 0 19 -1 30 -1c5 48 -5 65 -62 65c-60 0 -111 -14 -138 -27zM294 493v34
c-16 1 -32 2 -48 2c-57 0 -106 -10 -106 -50c0 -25 21 -40 56 -40c62 0 87 30 98 54z" />
    <glyph glyph-name="Lslash" unicode="&#x141;" horiz-adv-x="570" 
d="M93 261l-78 -53v85l78 55v352h100v-282l114 80v-89l-114 -79v-242h358v-88h-458v261z" />
    <glyph glyph-name="Oslash" unicode="&#xd8;" horiz-adv-x="747" 
d="M147 -12l-61 44l46 60c-51 64 -74 153 -74 258c0 229 118 363 315 363c79 0 141 -20 190 -56l44 57l61 -43l-51 -67c48 -64 72 -150 72 -254c0 -229 -119 -362 -316 -362c-75 0 -137 16 -186 51zM199 181l304 397c-32 31 -75 49 -130 49c-128 0 -209 -89 -209 -277
c0 -64 11 -122 35 -169zM549 515l-302 -397c32 -28 74 -45 126 -45c129 0 210 86 210 277c0 61 -11 118 -34 165z" />
    <glyph glyph-name="OE" unicode="&#x152;" horiz-adv-x="1019" 
d="M522 91v514c-39 15 -93 22 -149 22c-129 0 -209 -89 -209 -277c0 -151 64 -277 217 -277c43 0 84 1 141 18zM951 86v-86h-429c-35 -7 -87 -12 -148 -12c-216 0 -316 145 -316 362c0 232 116 363 316 363c65 0 105 -6 148 -13h423v-86h-323v-213h296v-86h-296v-229h329z
" />
    <glyph glyph-name="ordmasculine" unicode="&#xba;" horiz-adv-x="445" 
d="M50 542c0 117 73 170 172 170s173 -47 173 -170s-74 -170 -173 -170s-172 47 -172 170zM138 542c0 -72 29 -105 84 -105c53 0 85 26 85 105c0 80 -30 105 -85 105c-53 0 -84 -25 -84 -105z" />
    <glyph glyph-name="ae" unicode="&#xe6;" horiz-adv-x="930" 
d="M397 151v85c-23 3 -48 1 -71 1c-96 0 -183 -19 -183 -88c0 -48 42 -81 102 -81c87 0 134 46 152 83zM432 92h-11c-40 -48 -104 -99 -206 -99c-98 0 -170 54 -170 146c0 120 115 161 284 161c20 0 46 -2 69 1v3c2 16 3 34 3 53c0 75 -32 100 -120 100
c-48 0 -124 -15 -173 -34l-25 66c56 28 136 46 223 46c76 0 130 -27 159 -70c43 51 118 75 183 75c107 0 218 -36 218 -213c0 -19 0 -40 -4 -75h-376c3 -120 54 -191 188 -191c51 0 106 18 139 43l33 -61c-45 -33 -123 -56 -198 -56c-93 0 -177 38 -216 105zM490 318h287
c3 107 -48 144 -128 144c-92 0 -146 -40 -159 -144z" />
    <glyph glyph-name="dotlessi" unicode="&#x131;" horiz-adv-x="317" 
d="M206 0h-92v525h92v-525z" />
    <glyph glyph-name="lslash" unicode="&#x142;" horiz-adv-x="336" 
d="M100 268l-93 -64v85l93 65v346h92v-281l107 75v-89l-107 -74v-192c0 -55 22 -75 57 -75c21 0 39 2 67 10l12 -68c-27 -10 -78 -19 -110 -19c-72 0 -118 33 -118 118v163z" />
    <glyph glyph-name="oslash" unicode="&#xf8;" horiz-adv-x="613" 
d="M129 -15l-57 43l36 45c-37 48 -55 112 -55 188c0 175 92 278 256 278c57 0 104 -12 141 -35l30 37l54 -44l-31 -39c40 -49 60 -117 60 -197c0 -175 -93 -274 -254 -274c-61 0 -110 13 -149 38zM439 383l-226 -288c25 -21 57 -31 96 -31c104 0 156 66 156 197
c0 44 -7 87 -26 122zM174 148l225 284c-23 19 -53 29 -90 29c-105 0 -158 -67 -158 -200c0 -40 7 -80 23 -113z" />
    <glyph glyph-name="oe" unicode="&#x153;" horiz-adv-x="1004" 
d="M156 261c0 -103 43 -197 158 -197c104 0 158 60 158 197c0 108 -43 200 -158 200c-104 0 -158 -63 -158 -200zM517 82h-7c-40 -59 -108 -95 -196 -95c-174 0 -254 115 -254 274c0 177 90 278 254 278c108 0 157 -29 203 -99c45 59 113 99 205 99c104 0 218 -38 218 -211
c0 -20 1 -47 -6 -78h-374c3 -123 53 -188 186 -188c52 0 104 17 139 42l33 -62c-47 -35 -119 -55 -196 -55c-93 0 -162 34 -205 95zM565 316h285c3 105 -47 147 -127 147c-92 0 -147 -42 -158 -147z" />
    <glyph glyph-name="germandbls" unicode="&#xdf;" horiz-adv-x="677" 
d="M24 525h90v24c0 103 78 163 206 163c153 0 212 -69 212 -146c0 -125 -135 -132 -135 -201c0 -89 232 -38 232 -211c0 -83 -73 -167 -206 -167c-69 0 -105 10 -145 33l26 73c35 -19 65 -29 123 -29c52 0 108 31 108 79c0 122 -232 55 -232 214c0 119 136 121 136 204
c0 37 -27 72 -116 72c-85 0 -116 -28 -116 -112v-521h-93v445h-90v80z" />
    <glyph glyph-name="onesuperior" unicode="&#xb9;" horiz-adv-x="436" 
d="M381 381h-301v72h115v231l8 38l-30 -29l-83 -48l-32 59l168 103h53v-354h102v-72z" />
    <glyph glyph-name="logicalnot" unicode="&#xac;" horiz-adv-x="554" 
d="M426 314h-381v84h467v-201h-86v117z" />
    <glyph glyph-name="mu" unicode="&#xb5;" horiz-adv-x="636" 
d="M79 -200v725h92v-286c0 -117 33 -177 129 -177c88 0 150 56 173 139v324h92v-356c0 -56 2 -116 15 -169h-60l-33 86h-12c-32 -51 -96 -98 -185 -98c-71 0 -104 22 -132 55h-14l27 -119v-124h-92z" />
    <glyph glyph-name="trademark" unicode="&#x2122;" horiz-adv-x="975" 
d="M38 700h387v-80h-146v-280h-95v280h-146v80zM935 340h-89v162l12 103h-5l-42 -85l-93 -135h-43l-94 134l-40 86h-5l16 -102v-163h-85v360h93l113 -165l30 -59h1l32 61l105 163h94v-360z" />
    <glyph glyph-name="Eth" unicode="&#xd0;" horiz-adv-x="723" 
d="M97 328h-97v66h97v306c53 8 148 9 208 9c244 0 360 -149 360 -354c0 -186 -105 -364 -372 -364c-45 0 -167 4 -196 9v328zM197 616v-222h160v-66h-160v-246c14 -3 86 -4 100 -4c201 0 262 137 262 277c0 119 -57 266 -251 266c-36 0 -92 -2 -111 -5z" />
    <glyph glyph-name="onehalf" unicode="&#xbd;" horiz-adv-x="935" 
d="M261 280h-83v303l8 39l-30 -28l-83 -49l-33 58l169 104h52v-427zM853 305c0 -80 -60 -143 -136 -212l-50 -30v-2l63 13h144v-73h-321v42c67 48 216 168 216 250c0 40 -30 59 -73 59c-40 0 -78 -17 -105 -33l-27 66c40 27 94 42 147 42c92 0 142 -46 142 -122zM222 -12
l-60 44l523 682l60 -43z" />
    <glyph glyph-name="plusminus" unicode="&#xb1;" horiz-adv-x="554" 
d="M234 428h-191v84h191v187h86v-187h191v-84h-191v-125h-86v125zM511 168h-468v84h468v-84z" />
    <glyph glyph-name="Thorn" unicode="&#xde;" horiz-adv-x="614" 
d="M189 0h-100v700h100v-74c29 2 58 3 89 3c135 0 297 -39 297 -218c0 -168 -145 -234 -297 -234c-16 0 -73 2 -89 5v-182zM189 537v-269c13 -5 67 -5 82 -5c95 0 198 23 198 147c0 108 -100 133 -188 133c-36 0 -73 -1 -92 -6z" />
    <glyph glyph-name="onequarter" unicode="&#xbc;" horiz-adv-x="922" 
d="M261 280h-83v303l8 39l-30 -28l-83 -49l-33 58l169 104h52v-427zM771 159h90v-66h-90v-92h-78v92h-224v44l247 299h55v-277zM612 159h81v120l7 48h-3l-24 -45l-80 -97l-37 -32zM222 -12l-60 44l523 682l60 -43z" />
    <glyph glyph-name="divide" unicode="&#xf7;" horiz-adv-x="554" 
d="M511 295h-468v84h468v-84zM210 525c0 39 27 63 67 63s67 -24 67 -63c0 -36 -27 -63 -67 -63s-67 27 -67 63zM210 149c0 39 27 63 67 63s67 -24 67 -63c0 -36 -27 -63 -67 -63s-67 27 -67 63z" />
    <glyph glyph-name="brokenbar" unicode="&#xa6;" horiz-adv-x="258" 
d="M169 -129h-80v337h80v-337zM89 700h80v-338h-80v338z" />
    <glyph glyph-name="degree" unicode="&#xb0;" horiz-adv-x="467" 
d="M90 566c0 85 74 147 158 147c85 0 159 -55 159 -147c0 -91 -74 -146 -159 -146c-84 0 -158 55 -158 146zM165 566c0 -48 40 -75 83 -75s84 27 84 75s-41 76 -84 76s-83 -28 -83 -76z" />
    <glyph glyph-name="thorn" unicode="&#xfe;" horiz-adv-x="630" 
d="M180 -199h-92v900h92v-235h8c35 45 83 73 155 73c152 0 227 -80 227 -265c0 -177 -104 -287 -266 -287c-52 0 -78 9 -124 24v-210zM322 461c-74 0 -121 -41 -142 -124v-237c28 -21 66 -36 118 -36c108 0 174 71 174 211c0 112 -41 186 -150 186z" />
    <glyph glyph-name="threequarters" unicode="&#xbe;" horiz-adv-x="962" 
d="M175 343c71 0 107 23 107 68c0 40 -30 67 -106 67h-57v26l101 107l38 26l-55 -6h-139v69h285v-40l-110 -115l-29 -18v-3l26 3c81 -1 129 -46 129 -118c0 -84 -73 -135 -181 -135c-53 0 -91 10 -122 21l18 68c25 -11 56 -20 95 -20zM811 159h90v-66h-90v-92h-78v92h-224
v44l247 299h55v-277zM652 159h81v120l7 48h-3l-24 -45l-80 -97l-37 -32zM262 -12l-60 44l523 682l60 -43z" />
    <glyph glyph-name="twosuperior" unicode="&#xb2;" horiz-adv-x="436" 
d="M355 685c0 -80 -60 -143 -136 -212l-50 -30v-2l63 13h144v-73h-321v42c67 48 216 168 216 250c0 40 -30 59 -73 59c-40 0 -78 -17 -105 -33l-27 66c40 27 94 42 147 42c92 0 142 -46 142 -122z" />
    <glyph glyph-name="registered" unicode="&#xae;" horiz-adv-x="751" 
d="M86 432c0 187 132 289 289 289c162 0 289 -102 289 -289c0 -186 -132 -288 -289 -288c-161 0 -289 102 -289 288zM160 432c0 -147 99 -218 215 -218c123 0 215 69 215 218c0 147 -98 219 -215 219c-125 0 -215 -75 -215 -219zM320 294h-55v278c23 7 71 11 107 11
c59 0 110 -23 110 -84c0 -45 -34 -70 -77 -73l31 -15l77 -117h-66l-75 112l-52 16v-128zM360 535c-15 0 -31 0 -40 -5v-76h37c43 0 66 12 66 43c0 24 -23 38 -63 38z" />
    <glyph glyph-name="minus" unicode="&#x2212;" horiz-adv-x="554" 
d="M511 295h-468v84h468v-84z" />
    <glyph glyph-name="eth" unicode="&#xf0;" horiz-adv-x="645" 
d="M452 752l35 -44l-53 -39c92 -80 151 -200 151 -352c0 -228 -117 -330 -262 -330c-184 0 -263 131 -263 274c0 138 95 271 260 271c67 0 110 -19 137 -44l7 3c-27 53 -57 95 -96 130l-66 -49l-38 40l60 44c-39 27 -78 44 -121 57l82 38c36 -11 70 -27 103 -47zM158 259
c0 -127 70 -195 171 -195c93 0 164 73 164 238c0 27 0 64 -7 83c-27 48 -96 69 -154 69c-123 0 -174 -90 -174 -195z" />
    <glyph glyph-name="multiply" unicode="&#xd7;" horiz-adv-x="554" 
d="M217 339l-135 124l58 63l138 -130l139 130l58 -63l-136 -124l136 -126l-58 -62l-139 130l-139 -131l-59 61z" />
    <glyph glyph-name="threesuperior" unicode="&#xb3;" horiz-adv-x="436" 
d="M185 443c71 0 107 23 107 68c0 40 -30 67 -106 67h-57v26l101 107l38 26l-55 -6h-139v69h285v-40l-110 -115l-29 -18v-3l26 3c81 -1 129 -46 129 -118c0 -84 -73 -135 -181 -135c-53 0 -91 10 -122 21l18 68c25 -11 56 -20 95 -20z" />
    <glyph glyph-name="copyright" unicode="&#xa9;" horiz-adv-x="868" 
d="M53 288c0 238 170 381 381 381c210 0 381 -143 381 -381s-171 -380 -381 -380c-231 0 -381 142 -381 380zM135 288c0 -195 131 -302 299 -302s299 107 299 302s-131 303 -299 303s-299 -108 -299 -303zM536 181l24 -67c-32 -19 -74 -30 -129 -30c-116 0 -178 79 -178 204
c0 131 70 204 178 204c53 0 80 -11 122 -30l-29 -69c-31 15 -58 21 -79 21c-56 0 -97 -30 -97 -126c0 -79 36 -126 105 -126c35 0 60 7 83 19z" />
    <glyph glyph-name="Aacute" unicode="&#xc1;" horiz-adv-x="645" 
d="M346 752h-81l127 118h132v-23zM637 0h-104l-76 183h-277l-74 -183h-98l288 710h52zM318 573l-27 -109l-81 -197h218l-81 199l-27 107h-2z" />
    <glyph glyph-name="Acircumflex" unicode="&#xc2;" horiz-adv-x="645" 
d="M143 745v26l146 99h73l139 -100v-25h-92l-65 47l-20 35l-21 -34l-70 -48h-90zM637 0h-104l-76 183h-277l-74 -183h-98l288 710h52zM318 573l-27 -109l-81 -197h218l-81 199l-27 107h-2z" />
    <glyph glyph-name="Adieresis" unicode="&#xc4;" horiz-adv-x="645" 
d="M152 795c0 31 23 49 62 49c37 0 62 -18 62 -49c0 -29 -25 -49 -62 -49c-39 0 -62 20 -62 49zM366 795c0 31 24 49 61 49c39 0 63 -18 63 -49c0 -29 -24 -49 -63 -49c-37 0 -61 20 -61 49zM637 0h-104l-76 183h-277l-74 -183h-98l288 710h52zM318 573l-27 -109l-81 -197
h218l-81 199l-27 107h-2z" />
    <glyph glyph-name="Agrave" unicode="&#xc0;" horiz-adv-x="645" 
d="M120 870h132l127 -118h-86l-173 95v23zM637 0h-104l-76 183h-277l-74 -183h-98l288 710h52zM318 573l-27 -109l-81 -197h218l-81 199l-27 107h-2z" />
    <glyph glyph-name="Aring" unicode="&#xc5;" horiz-adv-x="645" 
d="M205 769c0 49 33 86 118 86c77 0 119 -30 119 -86c0 -41 -25 -61 -44 -69c-11 -6 -25 -10 -41 -13l280 -687h-104l-76 183h-277l-74 -183h-98l279 687c-15 3 -29 7 -43 13c-13 7 -39 26 -39 69zM318 573l-27 -109l-81 -197h218l-81 199l-27 107h-2zM275 769
c0 -20 13 -37 48 -37c33 0 49 12 49 37c0 24 -16 39 -49 39s-48 -15 -48 -39z" />
    <glyph glyph-name="Atilde" unicode="&#xc3;" horiz-adv-x="645" 
d="M171 742l-24 49c43 43 81 55 116 55c57 0 107 -35 154 -35c19 0 38 6 57 22l25 -51c-39 -32 -72 -42 -104 -42c-56 0 -106 33 -153 33c-23 0 -47 -7 -71 -31zM637 0h-104l-76 183h-277l-74 -183h-98l288 710h52zM318 573l-27 -109l-81 -197h218l-81 199l-27 107h-2z" />
    <glyph glyph-name="Ccedilla" unicode="&#xc7;" horiz-adv-x="624" 
d="M560 107l24 -77c-37 -27 -92 -37 -153 -41l-24 -41c65 -11 96 -33 96 -77c0 -56 -52 -93 -140 -93c-17 0 -35 1 -54 5l9 36c93 -5 100 21 100 43c0 23 -35 34 -99 41l51 86c-170 8 -312 121 -312 361c0 261 177 363 335 363c88 0 140 -10 179 -25l-22 -86
c-33 15 -82 23 -149 23c-120 0 -237 -72 -237 -275c0 -180 107 -274 250 -274c65 0 113 12 146 31z" />
    <glyph glyph-name="Eacute" unicode="&#xc9;" horiz-adv-x="585" 
d="M310 752h-81l127 118h132v-23zM517 0h-428v700h423v-86h-323v-213h295v-86h-295v-229h328v-86z" />
    <glyph glyph-name="Ecircumflex" unicode="&#xca;" horiz-adv-x="585" 
d="M115 745v26l146 99h73l139 -100v-25h-92l-65 47l-20 35l-21 -34l-70 -48h-90zM517 0h-428v700h423v-86h-323v-213h295v-86h-295v-229h328v-86z" />
    <glyph glyph-name="Edieresis" unicode="&#xcb;" horiz-adv-x="585" 
d="M125 795c0 31 23 49 62 49c37 0 62 -18 62 -49c0 -29 -25 -49 -62 -49c-39 0 -62 20 -62 49zM339 795c0 31 24 49 61 49c39 0 63 -18 63 -49c0 -29 -24 -49 -63 -49c-37 0 -61 20 -61 49zM517 0h-428v700h423v-86h-323v-213h295v-86h-295v-229h328v-86z" />
    <glyph glyph-name="Egrave" unicode="&#xc8;" horiz-adv-x="585" 
d="M102 870h132l127 -118h-86l-173 95v23zM517 0h-428v700h423v-86h-323v-213h295v-86h-295v-229h328v-86z" />
    <glyph glyph-name="Iacute" unicode="&#xcd;" horiz-adv-x="398" 
d="M207 752h-81l127 118h132v-23zM69 66h80v568h-80v66h260v-66h-80v-568h80v-66h-260v66z" />
    <glyph glyph-name="Icircumflex" unicode="&#xce;" horiz-adv-x="398" 
d="M21 745v26l146 99h73l139 -100v-25h-92l-65 47l-20 35l-21 -34l-70 -48h-90zM69 66h80v568h-80v66h260v-66h-80v-568h80v-66h-260v66z" />
    <glyph glyph-name="Idieresis" unicode="&#xcf;" horiz-adv-x="398" 
d="M32 795c0 31 23 49 62 49c37 0 62 -18 62 -49c0 -29 -25 -49 -62 -49c-39 0 -62 20 -62 49zM246 795c0 31 24 49 61 49c39 0 63 -18 63 -49c0 -29 -24 -49 -63 -49c-37 0 -61 20 -61 49zM69 66h80v568h-80v66h260v-66h-80v-568h80v-66h-260v66z" />
    <glyph glyph-name="Igrave" unicode="&#xcc;" horiz-adv-x="398" 
d="M28 870h132l127 -118h-86l-173 95v23zM69 66h80v568h-80v66h260v-66h-80v-568h80v-66h-260v66z" />
    <glyph glyph-name="Ntilde" unicode="&#xd1;" horiz-adv-x="735" 
d="M214 742l-24 49c43 43 81 55 116 55c57 0 107 -35 154 -35c19 0 38 6 57 22l25 -51c-39 -32 -72 -42 -104 -42c-56 0 -106 33 -153 33c-23 0 -47 -7 -71 -31zM646 -9h-56l-355 454l-60 98h-4l12 -98v-445h-94v710h56l357 -454l57 -93h5l-12 93v444h94v-709z" />
    <glyph glyph-name="Oacute" unicode="&#xd3;" horiz-adv-x="747" 
d="M398 752h-81l127 118h132v-23zM58 350c0 229 118 363 315 363c212 0 316 -147 316 -363c0 -229 -119 -362 -316 -362c-212 0 -315 146 -315 362zM164 350c0 -151 65 -277 209 -277c129 0 210 86 210 277c0 148 -64 277 -210 277c-128 0 -209 -89 -209 -277z" />
    <glyph glyph-name="Ocircumflex" unicode="&#xd4;" horiz-adv-x="747" 
d="M192 745v26l146 99h73l139 -100v-25h-92l-65 47l-20 35l-21 -34l-70 -48h-90zM58 350c0 229 118 363 315 363c212 0 316 -147 316 -363c0 -229 -119 -362 -316 -362c-212 0 -315 146 -315 362zM164 350c0 -151 65 -277 209 -277c129 0 210 86 210 277
c0 148 -64 277 -210 277c-128 0 -209 -89 -209 -277z" />
    <glyph glyph-name="Odieresis" unicode="&#xd6;" horiz-adv-x="747" 
d="M203 795c0 31 23 49 62 49c37 0 62 -18 62 -49c0 -29 -25 -49 -62 -49c-39 0 -62 20 -62 49zM417 795c0 31 24 49 61 49c39 0 63 -18 63 -49c0 -29 -24 -49 -63 -49c-37 0 -61 20 -61 49zM58 350c0 229 118 363 315 363c212 0 316 -147 316 -363
c0 -229 -119 -362 -316 -362c-212 0 -315 146 -315 362zM164 350c0 -151 65 -277 209 -277c129 0 210 86 210 277c0 148 -64 277 -210 277c-128 0 -209 -89 -209 -277z" />
    <glyph glyph-name="Ograve" unicode="&#xd2;" horiz-adv-x="747" 
d="M190 870h132l127 -118h-86l-173 95v23zM58 350c0 229 118 363 315 363c212 0 316 -147 316 -363c0 -229 -119 -362 -316 -362c-212 0 -315 146 -315 362zM164 350c0 -151 65 -277 209 -277c129 0 210 86 210 277c0 148 -64 277 -210 277c-128 0 -209 -89 -209 -277z" />
    <glyph glyph-name="Otilde" unicode="&#xd5;" horiz-adv-x="747" 
d="M219 742l-24 49c43 43 81 55 116 55c57 0 107 -35 154 -35c19 0 38 6 57 22l25 -51c-39 -32 -72 -42 -104 -42c-56 0 -106 33 -153 33c-23 0 -47 -7 -71 -31zM58 350c0 229 118 363 315 363c212 0 316 -147 316 -363c0 -229 -119 -362 -316 -362
c-212 0 -315 146 -315 362zM164 350c0 -151 65 -277 209 -277c129 0 210 86 210 277c0 148 -64 277 -210 277c-128 0 -209 -89 -209 -277z" />
    <glyph glyph-name="Scaron" unicode="&#x160;" horiz-adv-x="581" 
d="M500 870v-26l-146 -100h-69l-139 101v25h93l64 -49l19 -33l21 32l68 50h89zM433 184c0 164 -366 94 -366 340c0 113 86 189 241 189c89 0 168 -15 211 -36l-31 -84c-33 17 -105 34 -185 34c-91 0 -136 -45 -136 -96c0 -155 366 -109 366 -338c0 -125 -99 -205 -261 -205
c-109 0 -185 19 -224 38l33 87c33 -17 106 -40 187 -40c93 0 165 34 165 111z" />
    <glyph glyph-name="Uacute" unicode="&#xda;" horiz-adv-x="710" 
d="M378 752h-81l127 118h132v-23zM527 264v436h94v-457c0 -172 -104 -251 -255 -251c-180 0 -277 78 -277 231v477h100v-439c0 -136 60 -182 176 -182c112 0 162 56 162 185z" />
    <glyph glyph-name="Ucircumflex" unicode="&#xdb;" horiz-adv-x="710" 
d="M180 745v26l146 99h73l139 -100v-25h-92l-65 47l-20 35l-21 -34l-70 -48h-90zM527 264v436h94v-457c0 -172 -104 -251 -255 -251c-180 0 -277 78 -277 231v477h100v-439c0 -136 60 -182 176 -182c112 0 162 56 162 185z" />
    <glyph glyph-name="Udieresis" unicode="&#xdc;" horiz-adv-x="710" 
d="M189 795c0 31 23 49 62 49c37 0 62 -18 62 -49c0 -29 -25 -49 -62 -49c-39 0 -62 20 -62 49zM403 795c0 31 24 49 61 49c39 0 63 -18 63 -49c0 -29 -24 -49 -63 -49c-37 0 -61 20 -61 49zM527 264v436h94v-457c0 -172 -104 -251 -255 -251c-180 0 -277 78 -277 231v477
h100v-439c0 -136 60 -182 176 -182c112 0 162 56 162 185z" />
    <glyph glyph-name="Ugrave" unicode="&#xd9;" horiz-adv-x="710" 
d="M187 870h132l127 -118h-86l-173 95v23zM527 264v436h94v-457c0 -172 -104 -251 -255 -251c-180 0 -277 78 -277 231v477h100v-439c0 -136 60 -182 176 -182c112 0 162 56 162 185z" />
    <glyph glyph-name="Yacute" unicode="&#xdd;" horiz-adv-x="617" 
d="M338 752h-81l127 118h132v-23zM361 0h-100v274l-254 426h117l175 -297l17 -64h2l19 66l167 295h106l-249 -425v-275z" />
    <glyph glyph-name="Ydieresis" unicode="&#x178;" horiz-adv-x="617" 
d="M142 795c0 31 23 49 62 49c37 0 62 -18 62 -49c0 -29 -25 -49 -62 -49c-39 0 -62 20 -62 49zM356 795c0 31 24 49 61 49c39 0 63 -18 63 -49c0 -29 -24 -49 -63 -49c-37 0 -61 20 -61 49zM361 0h-100v274l-254 426h117l175 -297l17 -64h2l19 66l167 295h106l-249 -425
v-275z" />
    <glyph glyph-name="Zcaron" unicode="&#x17d;" horiz-adv-x="596" 
d="M462 870v-26l-146 -100h-69l-139 101v25h93l64 -49l19 -33l21 32l68 50h89zM557 0h-518v88l377 484l49 40h-426v88h518v-88l-380 -487l-47 -37h427v-88z" />
    <glyph glyph-name="aacute" unicode="&#xe1;" horiz-adv-x="582" 
d="M259 570h-56l64 150h104v-23zM107 415l-25 77c60 29 134 43 223 43c160 0 186 -91 186 -167c0 -73 -8 -144 -8 -231c0 -51 4 -99 15 -138h-67l-25 79h-10c-30 -40 -83 -85 -181 -85s-170 56 -170 147c0 121 114 173 219 173c83 0 109 -6 131 -9c3 20 4 31 4 54
c0 75 -29 99 -118 99c-52 0 -125 -17 -174 -42zM395 158v80c-21 3 -45 9 -117 9c-83 0 -135 -26 -135 -97c0 -53 42 -80 102 -80c89 0 134 49 150 88z" />
    <glyph glyph-name="acircumflex" unicode="&#xe2;" horiz-adv-x="582" 
d="M107 415l-25 77c60 29 134 43 223 43c160 0 186 -91 186 -167c0 -73 -8 -144 -8 -231c0 -51 4 -99 15 -138h-67l-25 79h-10c-30 -40 -83 -85 -181 -85s-170 56 -170 147c0 121 114 173 219 173c83 0 109 -6 131 -9c3 20 4 31 4 54c0 75 -29 99 -118 99
c-52 0 -125 -17 -174 -42zM395 158v80c-21 3 -45 9 -117 9c-83 0 -135 -26 -135 -97c0 -53 42 -80 102 -80c89 0 134 49 150 88zM211 586h-76l140 187h41c41 -64 85 -124 125 -187h-80l-45 69l-26 71l-31 -71z" />
    <glyph glyph-name="adieresis" unicode="&#xe4;" horiz-adv-x="582" 
d="M107 415l-25 77c60 29 134 43 223 43c160 0 186 -91 186 -167c0 -73 -8 -144 -8 -231c0 -51 4 -99 15 -138h-67l-25 79h-10c-30 -40 -83 -85 -181 -85s-170 56 -170 147c0 121 114 173 219 173c83 0 109 -6 131 -9c3 20 4 31 4 54c0 75 -29 99 -118 99
c-52 0 -125 -17 -174 -42zM395 158v80c-21 3 -45 9 -117 9c-83 0 -135 -26 -135 -97c0 -53 42 -80 102 -80c89 0 134 49 150 88zM111 653c0 32 23 56 58 56c33 0 56 -24 56 -56c0 -31 -23 -55 -56 -55c-35 0 -58 24 -58 55zM326 653c0 32 22 56 57 56s57 -24 57 -56
c0 -31 -22 -55 -57 -55s-57 24 -57 55z" />
    <glyph glyph-name="agrave" unicode="&#xe0;" horiz-adv-x="582" 
d="M107 415l-25 77c60 29 134 43 223 43c160 0 186 -91 186 -167c0 -73 -8 -144 -8 -231c0 -51 4 -99 15 -138h-67l-25 79h-10c-30 -40 -83 -85 -181 -85s-170 56 -170 147c0 121 114 173 219 173c83 0 109 -6 131 -9c3 20 4 31 4 54c0 75 -29 99 -118 99
c-52 0 -125 -17 -174 -42zM395 158v80c-21 3 -45 9 -117 9c-83 0 -135 -26 -135 -97c0 -53 42 -80 102 -80c89 0 134 49 150 88zM161 720h110l71 -150h-54l-127 127v23z" />
    <glyph glyph-name="aring" unicode="&#xe5;" horiz-adv-x="582" 
d="M179 683c0 56 41 95 109 95c64 0 113 -31 113 -95c0 -52 -48 -94 -113 -94c-64 0 -109 34 -109 94zM236 683c0 -27 27 -45 52 -45c31 0 56 14 56 45s-27 46 -56 46c-27 0 -52 -14 -52 -46zM107 415l-25 77c60 29 134 43 223 43c160 0 186 -91 186 -167
c0 -73 -8 -144 -8 -231c0 -51 4 -99 15 -138h-67l-25 79h-10c-30 -40 -83 -85 -181 -85s-170 56 -170 147c0 121 114 173 219 173c83 0 109 -6 131 -9c3 20 4 31 4 54c0 75 -29 99 -118 99c-52 0 -125 -17 -174 -42zM395 158v80c-21 3 -45 9 -117 9c-83 0 -135 -26 -135 -97
c0 -53 42 -80 102 -80c89 0 134 49 150 88z" />
    <glyph glyph-name="atilde" unicode="&#xe3;" horiz-adv-x="582" 
d="M149 652l-20 44c43 47 76 60 107 60c48 0 86 -43 136 -43c17 0 35 8 54 24l22 -48c-36 -37 -67 -51 -94 -51c-51 0 -88 44 -139 44c-21 0 -41 -6 -66 -30zM107 415l-25 77c60 29 134 43 223 43c160 0 186 -91 186 -167c0 -73 -8 -144 -8 -231c0 -51 4 -99 15 -138h-67
l-25 79h-10c-30 -40 -83 -85 -181 -85s-170 56 -170 147c0 121 114 173 219 173c83 0 109 -6 131 -9c3 20 4 31 4 54c0 75 -29 99 -118 99c-52 0 -125 -17 -174 -42zM395 158v80c-21 3 -45 9 -117 9c-83 0 -135 -26 -135 -97c0 -53 42 -80 102 -80c89 0 134 49 150 88z" />
    <glyph glyph-name="ccedilla" unicode="&#xe7;" horiz-adv-x="529" 
d="M454 104l30 -68c-43 -31 -100 -45 -163 -48l-23 -40c65 -11 96 -33 96 -77c0 -56 -52 -93 -140 -93c-17 0 -35 1 -54 5l9 36c93 -5 100 21 100 43c0 23 -35 34 -99 41l52 87c-147 15 -202 120 -202 272c0 177 89 278 250 278c71 0 121 -14 162 -33l-24 -75
c-36 19 -78 30 -127 30c-109 0 -163 -67 -163 -200c0 -100 45 -197 170 -197c56 0 98 18 126 39z" />
    <glyph glyph-name="eacute" unicode="&#xe9;" horiz-adv-x="598" 
d="M321 570h-56l64 150h104v-23zM480 113l35 -70c-47 -35 -119 -56 -200 -56c-177 0 -255 107 -255 275c0 180 92 278 256 278c104 0 218 -37 218 -212c0 -21 -1 -51 -5 -78h-375c3 -123 52 -186 187 -186c56 0 111 22 139 49zM158 316h288c3 107 -46 146 -129 146
c-93 0 -150 -39 -159 -146z" />
    <glyph glyph-name="ecircumflex" unicode="&#xea;" horiz-adv-x="598" 
d="M480 113l35 -70c-47 -35 -119 -56 -200 -56c-177 0 -255 107 -255 275c0 180 92 278 256 278c104 0 218 -37 218 -212c0 -21 -1 -51 -5 -78h-375c3 -123 52 -186 187 -186c56 0 111 22 139 49zM158 316h288c3 107 -46 146 -129 146c-93 0 -150 -39 -159 -146zM220 586
h-76l140 187h41c41 -64 85 -124 125 -187h-80l-45 69l-26 71l-31 -71z" />
    <glyph glyph-name="edieresis" unicode="&#xeb;" horiz-adv-x="598" 
d="M158 653c0 32 23 56 58 56c33 0 56 -24 56 -56c0 -31 -23 -55 -56 -55c-35 0 -58 24 -58 55zM373 653c0 32 22 56 57 56s57 -24 57 -56c0 -31 -22 -55 -57 -55s-57 24 -57 55zM480 113l35 -70c-47 -35 -119 -56 -200 -56c-177 0 -255 107 -255 275c0 180 92 278 256 278
c104 0 218 -37 218 -212c0 -21 -1 -51 -5 -78h-375c3 -123 52 -186 187 -186c56 0 111 22 139 49zM158 316h288c3 107 -46 146 -129 146c-93 0 -150 -39 -159 -146z" />
    <glyph glyph-name="egrave" unicode="&#xe8;" horiz-adv-x="598" 
d="M480 113l35 -70c-47 -35 -119 -56 -200 -56c-177 0 -255 107 -255 275c0 180 92 278 256 278c104 0 218 -37 218 -212c0 -21 -1 -51 -5 -78h-375c3 -123 52 -186 187 -186c56 0 111 22 139 49zM158 316h288c3 107 -46 146 -129 146c-93 0 -150 -39 -159 -146zM192 720
h110l71 -150h-54l-127 127v23z" />
    <glyph glyph-name="iacute" unicode="&#xed;" horiz-adv-x="317" 
d="M167 570h-56l64 150h104v-23zM206 0h-92v525h92v-525z" />
    <glyph glyph-name="icircumflex" unicode="&#xee;" horiz-adv-x="317" 
d="M206 0h-92v525h92v-525zM76 586h-76l140 187h41c41 -64 85 -124 125 -187h-80l-45 69l-26 71l-31 -71z" />
    <glyph glyph-name="idieresis" unicode="&#xef;" horiz-adv-x="317" 
d="M-3 653c0 32 23 56 58 56c33 0 56 -24 56 -56c0 -31 -23 -55 -56 -55c-35 0 -58 24 -58 55zM212 653c0 32 22 56 57 56s57 -24 57 -56c0 -31 -22 -55 -57 -55s-57 24 -57 55zM206 0h-92v525h92v-525z" />
    <glyph glyph-name="igrave" unicode="&#xec;" horiz-adv-x="317" 
d="M206 0h-92v525h92v-525zM11 720h110l71 -150h-54l-127 127v23z" />
    <glyph glyph-name="ntilde" unicode="&#xf1;" horiz-adv-x="641" 
d="M553 309v-309h-92v290c0 112 -31 168 -123 168c-81 0 -137 -47 -158 -112v-346h-92v525h64l18 -70h9c39 48 100 85 187 85c123 0 187 -50 187 -231zM175 652l-20 44c43 47 76 60 107 60c48 0 86 -43 136 -43c17 0 35 8 54 24l22 -48c-36 -37 -67 -51 -94 -51
c-51 0 -88 44 -139 44c-21 0 -41 -6 -66 -30z" />
    <glyph glyph-name="oacute" unicode="&#xf3;" horiz-adv-x="631" 
d="M317 570h-56l64 150h104v-23zM60 262c0 173 93 278 256 278c172 0 255 -119 255 -278c0 -171 -95 -275 -255 -275c-175 0 -256 118 -256 275zM158 262c0 -99 43 -198 159 -198c104 0 156 66 156 198c0 103 -43 200 -156 200c-104 0 -159 -65 -159 -200z" />
    <glyph glyph-name="ocircumflex" unicode="&#xf4;" horiz-adv-x="631" 
d="M60 262c0 173 93 278 256 278c172 0 255 -119 255 -278c0 -171 -95 -275 -255 -275c-175 0 -256 118 -256 275zM158 262c0 -99 43 -198 159 -198c104 0 156 66 156 198c0 103 -43 200 -156 200c-104 0 -159 -65 -159 -200zM235 586h-76l140 187h41
c41 -64 85 -124 125 -187h-80l-45 69l-26 71l-31 -71z" />
    <glyph glyph-name="odieresis" unicode="&#xf6;" horiz-adv-x="631" 
d="M60 262c0 173 93 278 256 278c172 0 255 -119 255 -278c0 -171 -95 -275 -255 -275c-175 0 -256 118 -256 275zM158 262c0 -99 43 -198 159 -198c104 0 156 66 156 198c0 103 -43 200 -156 200c-104 0 -159 -65 -159 -200zM137 653c0 32 23 56 58 56c33 0 56 -24 56 -56
c0 -31 -23 -55 -56 -55c-35 0 -58 24 -58 55zM352 653c0 32 22 56 57 56s57 -24 57 -56c0 -31 -22 -55 -57 -55s-57 24 -57 55z" />
    <glyph glyph-name="ograve" unicode="&#xf2;" horiz-adv-x="631" 
d="M60 262c0 173 93 278 256 278c172 0 255 -119 255 -278c0 -171 -95 -275 -255 -275c-175 0 -256 118 -256 275zM158 262c0 -99 43 -198 159 -198c104 0 156 66 156 198c0 103 -43 200 -156 200c-104 0 -159 -65 -159 -200zM179 720h110l71 -150h-54l-127 127v23z" />
    <glyph glyph-name="otilde" unicode="&#xf5;" horiz-adv-x="631" 
d="M175 652l-20 44c43 47 76 60 107 60c48 0 86 -43 136 -43c17 0 35 8 54 24l22 -48c-36 -37 -67 -51 -94 -51c-51 0 -88 44 -139 44c-21 0 -41 -6 -66 -30zM60 262c0 173 93 278 256 278c172 0 255 -119 255 -278c0 -171 -95 -275 -255 -275c-175 0 -256 118 -256 275z
M158 262c0 -99 43 -198 159 -198c104 0 156 66 156 198c0 103 -43 200 -156 200c-104 0 -159 -65 -159 -200z" />
    <glyph glyph-name="scaron" unicode="&#x161;" horiz-adv-x="499" 
d="M353 147c0 53 -55 69 -116 87c-77 22 -165 44 -165 152c0 104 65 154 177 154c84 0 138 -19 181 -38l-22 -78c-36 17 -87 38 -147 38c-65 0 -97 -18 -97 -74c0 -44 51 -60 110 -76c79 -21 171 -50 171 -159c0 -99 -67 -166 -200 -166c-85 0 -148 19 -191 42l26 80
c37 -20 101 -45 161 -45c65 0 112 19 112 83zM331 773h78l-137 -187h-49l-129 187h87l44 -68l28 -71l29 70z" />
    <glyph glyph-name="uacute" unicode="&#xfa;" horiz-adv-x="644" 
d="M318 570h-56l64 150h104v-23zM88 215v310h92v-289c0 -111 23 -172 116 -172c80 0 129 51 156 118v343h92v-376c0 -51 4 -106 12 -149h-62l-24 87h-10c-35 -60 -95 -100 -187 -100c-123 0 -185 52 -185 228z" />
    <glyph glyph-name="ucircumflex" unicode="&#xfb;" horiz-adv-x="644" 
d="M88 215v310h92v-289c0 -111 23 -172 116 -172c80 0 129 51 156 118v343h92v-376c0 -51 4 -106 12 -149h-62l-24 87h-10c-35 -60 -95 -100 -187 -100c-123 0 -185 52 -185 228zM244 586h-76l140 187h41c41 -64 85 -124 125 -187h-80l-45 69l-26 71l-31 -71z" />
    <glyph glyph-name="udieresis" unicode="&#xfc;" horiz-adv-x="644" 
d="M144 653c0 32 23 56 58 56c33 0 56 -24 56 -56c0 -31 -23 -55 -56 -55c-35 0 -58 24 -58 55zM359 653c0 32 22 56 57 56s57 -24 57 -56c0 -31 -22 -55 -57 -55s-57 24 -57 55zM88 215v310h92v-289c0 -111 23 -172 116 -172c80 0 129 51 156 118v343h92v-376
c0 -51 4 -106 12 -149h-62l-24 87h-10c-35 -60 -95 -100 -187 -100c-123 0 -185 52 -185 228z" />
    <glyph glyph-name="ugrave" unicode="&#xf9;" horiz-adv-x="644" 
d="M88 215v310h92v-289c0 -111 23 -172 116 -172c80 0 129 51 156 118v343h92v-376c0 -51 4 -106 12 -149h-62l-24 87h-10c-35 -60 -95 -100 -187 -100c-123 0 -185 52 -185 228zM172 720h110l71 -150h-54l-127 127v23z" />
    <glyph glyph-name="yacute" unicode="&#xfd;" horiz-adv-x="531" 
d="M8 525h109l134 -332l31 -101h13l25 102l109 331h94l-172 -475c-48 -131 -100 -254 -199 -254c-27 0 -49 3 -68 9l15 78c10 -3 20 -5 30 -5c53 0 87 21 114 120zM295 570h-56l64 150h104v-23z" />
    <glyph glyph-name="ydieresis" unicode="&#xff;" horiz-adv-x="531" 
d="M89 653c0 32 23 56 58 56c33 0 56 -24 56 -56c0 -31 -23 -55 -56 -55c-35 0 -58 24 -58 55zM304 653c0 32 22 56 57 56s57 -24 57 -56c0 -31 -22 -55 -57 -55s-57 24 -57 55zM8 525h109l134 -332l31 -101h13l25 102l109 331h94l-172 -475c-48 -131 -100 -254 -199 -254
c-27 0 -49 3 -68 9l15 78c10 -3 20 -5 30 -5c53 0 87 21 114 120z" />
    <glyph glyph-name="zcaron" unicode="&#x17e;" horiz-adv-x="515" 
d="M461 0h-413v79l259 316l70 52h-329v78h413v-79l-262 -319l-70 -49h332v-78zM333 773h78l-137 -187h-49l-129 187h87l44 -68l28 -71l29 70z" />
    <glyph glyph-name="Euro" unicode="&#x20ac;" 
d="M88 389h-81l21 73h69c35 176 159 251 305 251c76 0 129 -12 169 -27l-27 -80c-33 15 -76 23 -140 23c-96 0 -179 -47 -208 -167h305l-20 -73l-295 -1c-1 -13 -1 -26 -1 -39c0 -12 0 -24 1 -35l273 1l-20 -75h-244c28 -113 103 -169 224 -169c59 0 104 15 139 34l23 -74
c-44 -32 -117 -43 -181 -43c-163 0 -273 79 -304 252h-89l21 75h60c-1 11 -1 23 -1 35c0 13 0 26 1 39z" />
    <glyph glyph-name="uni00A0" unicode="&#xa0;" horiz-adv-x="291" 
 />
    <glyph glyph-name="uni00AD" unicode="&#xad;" horiz-adv-x="394" 
d="M330 246h-266v86h266v-86z" />
    <glyph glyph-name=".null" horiz-adv-x="0" 
 />
    <glyph glyph-name="CR" horiz-adv-x="291" 
 />
    <glyph glyph-name="Amacron" unicode="&#x100;" horiz-adv-x="645" 
d="M495 758h-350v68h350v-68zM637 0h-104l-76 183h-277l-74 -183h-98l288 710h52zM318 573l-27 -109l-81 -197h218l-81 199l-27 107h-2z" />
    <glyph glyph-name="amacron" unicode="&#x101;" horiz-adv-x="582" 
d="M107 415l-25 77c60 29 134 43 223 43c160 0 186 -91 186 -167c0 -73 -8 -144 -8 -231c0 -51 4 -99 15 -138h-67l-25 79h-10c-30 -40 -83 -85 -181 -85s-170 56 -170 147c0 121 114 173 219 173c83 0 109 -6 131 -9c3 20 4 31 4 54c0 75 -29 99 -118 99
c-52 0 -125 -17 -174 -42zM395 158v80c-21 3 -45 9 -117 9c-83 0 -135 -26 -135 -97c0 -53 42 -80 102 -80c89 0 134 49 150 88zM442 597h-328v69h328v-69z" />
    <glyph glyph-name="Abreve" unicode="&#x102;" horiz-adv-x="645" 
d="M132 843l48 29c25 -43 80 -66 148 -66c71 0 120 30 143 66l44 -23c-27 -74 -103 -119 -188 -119c-76 0 -161 34 -195 113zM637 0h-104l-76 183h-277l-74 -183h-98l288 710h52zM318 573l-27 -109l-81 -197h218l-81 199l-27 107h-2z" />
    <glyph glyph-name="abreve" unicode="&#x103;" horiz-adv-x="582" 
d="M107 415l-25 77c60 29 134 43 223 43c160 0 186 -91 186 -167c0 -73 -8 -144 -8 -231c0 -51 4 -99 15 -138h-67l-25 79h-10c-30 -40 -83 -85 -181 -85s-170 56 -170 147c0 121 114 173 219 173c83 0 109 -6 131 -9c3 20 4 31 4 54c0 75 -29 99 -118 99
c-52 0 -125 -17 -174 -42zM395 158v80c-21 3 -45 9 -117 9c-83 0 -135 -26 -135 -97c0 -53 42 -80 102 -80c89 0 134 49 150 88zM112 735l50 24c28 -49 79 -75 132 -75c52 0 99 24 126 75l45 -19c-11 -64 -82 -130 -172 -130c-87 0 -158 49 -181 125z" />
    <glyph glyph-name="Aogonek" unicode="&#x104;" horiz-adv-x="645" 
d="M578 0h-45l-76 183h-277l-74 -183h-98l288 710h52l289 -710h-7c-45 -22 -74 -51 -73 -91c1 -31 21 -55 60 -55c13 0 30 3 47 10l12 -46c-23 -16 -68 -25 -104 -25c-68 0 -110 35 -110 92c0 53 45 93 116 115zM318 573l-27 -109l-81 -197h218l-81 199l-27 107h-2z" />
    <glyph glyph-name="aogonek" unicode="&#x105;" horiz-adv-x="582" 
d="M107 415l-25 77c60 29 134 43 223 43c160 0 186 -91 186 -167c0 -73 -8 -144 -8 -231c0 -51 4 -99 15 -138h-11c-41 -21 -67 -50 -66 -89c1 -31 21 -55 60 -55c13 0 30 3 47 10l12 -46c-23 -16 -68 -25 -104 -25c-68 0 -110 35 -110 92c0 51 42 90 107 113h-2l-25 79h-10
c-30 -40 -83 -85 -181 -85s-170 56 -170 147c0 121 114 173 219 173c83 0 109 -6 131 -9c3 20 4 31 4 54c0 75 -29 99 -118 99c-52 0 -125 -17 -174 -42zM395 158v80c-21 3 -45 9 -117 9c-83 0 -135 -26 -135 -97c0 -53 42 -80 102 -80c89 0 134 49 150 88z" />
    <glyph glyph-name="Cacute" unicode="&#x106;" horiz-adv-x="624" 
d="M403 752h-81l127 118h132v-23zM560 107l24 -77c-44 -31 -116 -42 -192 -42c-179 0 -334 111 -334 362c0 261 177 363 335 363c88 0 140 -10 179 -25l-22 -86c-33 15 -82 23 -149 23c-120 0 -237 -72 -237 -275c0 -181 107 -275 250 -275c65 0 113 13 146 32z" />
    <glyph glyph-name="cacute" unicode="&#x107;" horiz-adv-x="529" 
d="M454 103l30 -67c-47 -33 -112 -49 -181 -49c-177 0 -243 110 -243 275c0 177 89 278 250 278c71 0 121 -14 162 -33l-24 -75c-36 19 -78 30 -127 30c-109 0 -163 -67 -163 -200c0 -100 45 -198 170 -198c56 0 98 18 126 39zM313 570h-56l64 150h104v-23z" />
    <glyph glyph-name="Ccircumflex" unicode="&#x108;" horiz-adv-x="624" 
d="M199 745v26l146 99h73l139 -100v-25h-92l-65 47l-20 35l-21 -34l-70 -48h-90zM560 107l24 -77c-44 -31 -116 -42 -192 -42c-179 0 -334 111 -334 362c0 261 177 363 335 363c88 0 140 -10 179 -25l-22 -86c-33 15 -82 23 -149 23c-120 0 -237 -72 -237 -275
c0 -181 107 -275 250 -275c65 0 113 13 146 32z" />
    <glyph glyph-name="ccircumflex" unicode="&#x109;" horiz-adv-x="529" 
d="M454 103l30 -67c-47 -33 -112 -49 -181 -49c-177 0 -243 110 -243 275c0 177 89 278 250 278c71 0 121 -14 162 -33l-24 -75c-36 19 -78 30 -127 30c-109 0 -163 -67 -163 -200c0 -100 45 -198 170 -198c56 0 98 18 126 39zM211 586h-76l140 187h41
c41 -64 85 -124 125 -187h-80l-45 69l-26 71l-31 -71z" />
    <glyph glyph-name="Ccaron" unicode="&#x10c;" horiz-adv-x="624" 
d="M565 870v-26l-146 -100h-69l-139 101v25h93l64 -49l19 -33l21 32l68 50h89zM560 107l24 -77c-44 -31 -116 -42 -192 -42c-179 0 -334 111 -334 362c0 261 177 363 335 363c88 0 140 -10 179 -25l-22 -86c-33 15 -82 23 -149 23c-120 0 -237 -72 -237 -275
c0 -181 107 -275 250 -275c65 0 113 13 146 32z" />
    <glyph glyph-name="ccaron" unicode="&#x10d;" horiz-adv-x="529" 
d="M454 103l30 -67c-47 -33 -112 -49 -181 -49c-177 0 -243 110 -243 275c0 177 89 278 250 278c71 0 121 -14 162 -33l-24 -75c-36 19 -78 30 -127 30c-109 0 -163 -67 -163 -200c0 -100 45 -198 170 -198c56 0 98 18 126 39zM374 773h78l-137 -187h-49l-129 187h87l44 -68
l28 -71l29 70z" />
    <glyph glyph-name="Dcaron" unicode="&#x10e;" horiz-adv-x="715" 
d="M487 870v-26l-146 -100h-69l-139 101v25h93l64 -49l19 -33l21 32l68 50h89zM89 0v700c53 8 148 9 208 9c244 0 360 -149 360 -354c0 -186 -105 -364 -372 -364c-45 0 -167 4 -196 9zM300 621c-36 0 -92 -2 -111 -5v-534c14 -3 86 -4 100 -4c201 0 262 137 262 277
c0 119 -57 266 -251 266z" />
    <glyph glyph-name="dcaron" unicode="&#x10f;" horiz-adv-x="648" 
d="M604 700h92c-5 -76 -63 -171 -90 -195l-40 23c25 48 38 111 38 172zM446 700h92v-519c0 -68 0 -126 11 -182h-61l-23 79h-10c-31 -53 -92 -91 -171 -91c-151 0 -224 87 -224 272c0 179 96 277 261 277c56 0 84 -8 125 -19v183zM446 185v243c-31 23 -61 30 -120 30
c-108 0 -170 -59 -170 -200c0 -112 39 -194 147 -194c81 0 124 41 143 121z" />
    <glyph glyph-name="Dcroat" unicode="&#x110;" horiz-adv-x="723" 
d="M97 328h-97v66h97v306c53 8 148 9 208 9c244 0 360 -149 360 -354c0 -186 -105 -364 -372 -364c-45 0 -167 4 -196 9v328zM197 616v-222h160v-66h-160v-246c14 -3 86 -4 100 -4c201 0 262 137 262 277c0 119 -57 266 -251 266c-36 0 -92 -2 -111 -5z" />
    <glyph glyph-name="dcroat" unicode="&#x111;" horiz-adv-x="630" 
d="M446 701h92v-52h92v-61h-92v-406c0 -68 0 -126 11 -182h-61l-23 79h-10c-31 -53 -92 -91 -171 -91c-151 0 -224 87 -224 272c0 179 96 277 261 277c56 0 84 -8 125 -19v70h-185v61h185v52zM446 186v243c-31 23 -61 30 -120 30c-108 0 -170 -59 -170 -200
c0 -112 39 -194 147 -194c81 0 124 41 143 121z" />
    <glyph glyph-name="Emacron" unicode="&#x112;" horiz-adv-x="585" 
d="M468 758h-350v68h350v-68zM517 0h-428v700h423v-86h-323v-213h295v-86h-295v-229h328v-86z" />
    <glyph glyph-name="emacron" unicode="&#x113;" horiz-adv-x="598" 
d="M480 113l35 -70c-47 -35 -119 -56 -200 -56c-177 0 -255 107 -255 275c0 180 92 278 256 278c104 0 218 -37 218 -212c0 -21 -1 -51 -5 -78h-375c3 -123 52 -186 187 -186c56 0 111 22 139 49zM158 316h288c3 107 -46 146 -129 146c-93 0 -150 -39 -159 -146zM469 597
h-328v69h328v-69z" />
    <glyph glyph-name="Edotaccent" unicode="&#x116;" horiz-adv-x="585" 
d="M229 798c0 29 27 54 72 54s73 -25 73 -54c0 -32 -28 -55 -73 -55s-72 23 -72 55zM517 0h-428v700h423v-86h-323v-213h295v-86h-295v-229h328v-86z" />
    <glyph glyph-name="edotaccent" unicode="&#x117;" horiz-adv-x="598" 
d="M480 113l35 -70c-47 -35 -119 -56 -200 -56c-177 0 -255 107 -255 275c0 180 92 278 256 278c104 0 218 -37 218 -212c0 -21 -1 -51 -5 -78h-375c3 -123 52 -186 187 -186c56 0 111 22 139 49zM158 316h288c3 107 -46 146 -129 146c-93 0 -150 -39 -159 -146zM244 650
c0 31 26 60 65 60s67 -29 67 -60s-28 -58 -67 -58s-65 27 -65 58z" />
    <glyph glyph-name="Eogonek" unicode="&#x118;" horiz-adv-x="585" 
d="M444 0h-355v700h423v-86h-323v-213h295v-86h-295v-229h328v-86h-21c-45 -22 -74 -51 -73 -91c1 -31 21 -55 60 -55c13 0 30 3 47 10l12 -46c-23 -16 -68 -25 -104 -25c-68 0 -110 35 -110 92c0 53 45 93 116 115z" />
    <glyph glyph-name="eogonek" unicode="&#x119;" horiz-adv-x="598" 
d="M480 113l35 -70c-22 -17 -47 -29 -76 -38h1c-44 -22 -70 -57 -69 -98c1 -31 23 -57 62 -57c13 0 28 3 44 9l12 -41c-24 -16 -67 -25 -100 -25c-69 0 -113 34 -113 90c0 43 29 81 76 106c-12 -1 -25 -2 -37 -2c-177 0 -255 107 -255 275c0 180 92 278 256 278
c104 0 218 -37 218 -212c0 -21 -1 -51 -5 -78h-375c3 -123 52 -186 187 -186c56 0 111 22 139 49zM158 316h288c3 107 -46 146 -129 146c-93 0 -150 -39 -159 -146z" />
    <glyph glyph-name="Ecaron" unicode="&#x11a;" horiz-adv-x="585" 
d="M469 870v-26l-146 -100h-69l-139 101v25h93l64 -49l19 -33l21 32l68 50h89zM517 0h-428v700h423v-86h-323v-213h295v-86h-295v-229h328v-86z" />
    <glyph glyph-name="ecaron" unicode="&#x11b;" horiz-adv-x="598" 
d="M480 113l35 -70c-47 -35 -119 -56 -200 -56c-177 0 -255 107 -255 275c0 180 92 278 256 278c104 0 218 -37 218 -212c0 -21 -1 -51 -5 -78h-375c3 -123 52 -186 187 -186c56 0 111 22 139 49zM158 316h288c3 107 -46 146 -129 146c-93 0 -150 -39 -159 -146zM387 773h78
l-137 -187h-49l-129 187h87l44 -68l28 -71l29 70z" />
    <glyph glyph-name="Gcircumflex" unicode="&#x11c;" horiz-adv-x="668" 
d="M210 745v26l146 99h73l139 -100v-25h-92l-65 47l-20 35l-21 -34l-70 -48h-90zM527 277l-179 18v58h262v-309c-47 -37 -138 -56 -214 -56c-191 0 -338 113 -338 362c0 260 185 363 347 363c88 0 143 -11 182 -26l-24 -85c-35 15 -85 23 -150 23c-120 0 -249 -70 -249 -275
c0 -190 105 -275 246 -275c44 0 86 9 117 25v177z" />
    <glyph glyph-name="gcircumflex" unicode="&#x11d;" horiz-adv-x="627" 
d="M537 510v-512c0 -137 -82 -204 -238 -204c-91 0 -142 11 -182 30l22 83c35 -16 94 -35 142 -35c132 0 165 44 165 147v37h-11c-21 -35 -77 -57 -153 -57c-152 0 -222 76 -222 259c0 180 94 281 278 281c88 0 148 -12 199 -29zM302 76c81 0 126 45 143 112v258
c-31 9 -70 15 -121 15c-104 0 -166 -65 -166 -201c0 -117 39 -184 144 -184zM238 586h-76l140 187h41c41 -64 85 -124 125 -187h-80l-45 69l-26 71l-31 -71z" />
    <glyph glyph-name="Gbreve" unicode="&#x11e;" horiz-adv-x="668" 
d="M191 843l48 29c25 -43 80 -66 148 -66c71 0 120 30 143 66l44 -23c-27 -74 -103 -119 -188 -119c-76 0 -161 34 -195 113zM527 277l-179 18v58h262v-309c-47 -37 -138 -56 -214 -56c-191 0 -338 113 -338 362c0 260 185 363 347 363c88 0 143 -11 182 -26l-24 -85
c-35 15 -85 23 -150 23c-120 0 -249 -70 -249 -275c0 -190 105 -275 246 -275c44 0 86 9 117 25v177z" />
    <glyph glyph-name="gbreve" unicode="&#x11f;" horiz-adv-x="627" 
d="M537 510v-512c0 -137 -82 -204 -238 -204c-91 0 -142 11 -182 30l22 83c35 -16 94 -35 142 -35c132 0 165 44 165 147v37h-11c-21 -35 -77 -57 -153 -57c-152 0 -222 76 -222 259c0 180 94 281 278 281c88 0 148 -12 199 -29zM302 76c81 0 126 45 143 112v258
c-31 9 -70 15 -121 15c-104 0 -166 -65 -166 -201c0 -117 39 -184 144 -184zM135 735l50 24c28 -49 79 -75 132 -75c52 0 99 24 126 75l45 -19c-11 -64 -82 -130 -172 -130c-87 0 -158 49 -181 125z" />
    <glyph glyph-name="Gcommaaccent" unicode="&#x122;" horiz-adv-x="668" 
d="M317 -101c0 29 27 50 58 50c39 0 72 -25 72 -78c0 -73 -60 -111 -91 -121l-29 40c25 11 46 31 46 62c-31 -7 -56 15 -56 47zM527 277l-179 18v58h262v-309c-47 -37 -138 -56 -214 -56c-191 0 -338 113 -338 362c0 260 185 363 347 363c88 0 143 -11 182 -26l-24 -85
c-35 15 -85 23 -150 23c-120 0 -249 -70 -249 -275c0 -190 105 -275 246 -275c44 0 86 9 117 25v177z" />
    <glyph glyph-name="gcommaaccent" unicode="&#x123;" horiz-adv-x="627" 
d="M388 647c0 -29 -27 -50 -58 -50c-39 0 -72 25 -72 78c0 73 60 111 91 121l29 -40c-25 -11 -46 -31 -46 -62c31 7 56 -15 56 -47zM537 510v-512c0 -137 -82 -204 -238 -204c-91 0 -142 11 -182 30l22 83c35 -16 94 -35 142 -35c132 0 165 44 165 147v37h-11
c-21 -35 -77 -57 -153 -57c-152 0 -222 76 -222 259c0 180 94 281 278 281c88 0 148 -12 199 -29zM302 76c81 0 126 45 143 112v258c-31 9 -70 15 -121 15c-104 0 -166 -65 -166 -201c0 -117 39 -184 144 -184z" />
    <glyph glyph-name="Hcircumflex" unicode="&#x124;" horiz-adv-x="733" 
d="M185 745v26l146 99h73l139 -100v-25h-92l-65 47l-20 35l-21 -34l-70 -48h-90zM644 0h-100v313h-355v-313h-100v700h100v-299h355v299h100v-700z" />
    <glyph glyph-name="hcircumflex" unicode="&#x125;" horiz-adv-x="641" 
d="M142 745v26l146 99h73l139 -100v-25h-92l-65 47l-20 35l-21 -34l-70 -48h-90zM553 310v-310h-92v290c0 115 -26 168 -126 168c-70 0 -137 -49 -155 -123v-335h-92v700h92v-240h11c40 48 93 80 176 80c128 0 186 -50 186 -230z" />
    <glyph glyph-name="Hbar" unicode="&#x126;" horiz-adv-x="741" 
d="M94 520h-87v70h87v110h100v-110h355v110h100v-110h85v-70h-85v-520h-100v313h-355v-313h-100v520zM194 520v-119h355v119h-355z" />
    <glyph glyph-name="hbar" unicode="&#x127;" horiz-adv-x="647" 
d="M94 568h-94v66h94v66h92v-66h171v-66h-171v-108h11c40 48 93 80 176 80c128 0 186 -50 186 -230v-310h-92v290c0 115 -26 168 -126 168c-70 0 -137 -49 -155 -123v-335h-92v568z" />
    <glyph glyph-name="Imacron" unicode="&#x12a;" horiz-adv-x="398" 
d="M377 758h-350v68h350v-68zM69 66h80v568h-80v66h260v-66h-80v-568h80v-66h-260v66z" />
    <glyph glyph-name="imacron" unicode="&#x12b;" horiz-adv-x="317" 
d="M206 0h-92v525h92v-525zM325 597h-328v69h328v-69z" />
    <glyph glyph-name="Iogonek" unicode="&#x12e;" horiz-adv-x="398" 
d="M69 66h80v568h-80v66h260v-66h-80v-568h80v-66h-76c-43 -22 -69 -52 -68 -91c1 -31 21 -55 60 -55c13 0 30 3 47 10l12 -46c-23 -16 -68 -25 -104 -25c-68 0 -110 35 -110 92c0 52 42 93 109 115h-130v66z" />
    <glyph glyph-name="iogonek" unicode="&#x12f;" horiz-adv-x="310" 
d="M156 0h-43v525h92v-525h-12c-47 -24 -54 -51 -53 -90c1 -31 22 -58 62 -58c13 0 28 3 44 9l11 -42c-23 -15 -65 -25 -100 -25c-68 0 -112 36 -112 92c0 59 38 90 111 114zM93 645c0 31 26 60 65 60s67 -29 67 -60s-28 -58 -67 -58s-65 27 -65 58z" />
    <glyph glyph-name="Idotaccent" unicode="&#x130;" horiz-adv-x="398" 
d="M126 798c0 29 27 54 72 54s73 -25 73 -54c0 -32 -28 -55 -73 -55s-72 23 -72 55zM69 66h80v568h-80v66h260v-66h-80v-568h80v-66h-260v66z" />
    <glyph glyph-name="Jcircumflex" unicode="&#x134;" horiz-adv-x="325" 
d="M-5 745v26l146 99h73l139 -100v-25h-92l-65 47l-20 35l-21 -34l-70 -48h-90zM125 187v513h100v-540c0 -104 -55 -169 -160 -169c-27 0 -75 6 -99 16l19 83c18 -8 40 -12 66 -12c60 0 74 41 74 109z" />
    <glyph glyph-name="jcircumflex" unicode="&#x135;" horiz-adv-x="312" 
d="M81 586h-76l140 187h41c41 -64 85 -124 125 -187h-80l-45 69l-26 71l-31 -71zM112 15v510h92v-542c0 -129 -46 -192 -154 -192c-11 0 -23 -1 -38 2v76c87 -3 100 48 100 146z" />
    <glyph glyph-name="Kcommaaccent" unicode="&#x136;" horiz-adv-x="669" 
d="M250 -101c0 29 27 50 58 50c39 0 72 -25 72 -78c0 -73 -60 -111 -91 -121l-29 40c25 11 46 31 46 62c-31 -7 -56 15 -56 47zM635 0h-126l-271 318h-49v-318h-100v700h100v-322l46 14l252 308h114l-252 -300l-47 -34l55 -40z" />
    <glyph glyph-name="kcommaaccent" unicode="&#x137;" horiz-adv-x="557" 
d="M206 -101c0 29 27 50 58 50c39 0 72 -25 72 -78c0 -73 -60 -111 -91 -121l-29 40c25 11 46 31 46 62c-31 -7 -56 15 -56 47zM541 0h-116l-188 236h-57v-236h-92v700h92v-414l52 17l174 222h108l-167 -203h1l-55 -40l63 -45z" />
    <glyph glyph-name="Lacute" unicode="&#x139;" horiz-adv-x="566" 
d="M208 752h-81l127 118h132v-23zM189 88h358v-88h-458v700h100v-612z" />
    <glyph glyph-name="lacute" unicode="&#x13a;" horiz-adv-x="336" 
d="M178 752h-81l127 118h132v-23zM100 700h92v-561c0 -55 22 -75 57 -75c21 0 39 2 67 10l12 -68c-27 -10 -78 -19 -110 -19c-72 0 -118 33 -118 118v595z" />
    <glyph glyph-name="Lcommaaccent" unicode="&#x13b;" horiz-adv-x="566" 
d="M207 -101c0 29 27 50 58 50c39 0 72 -25 72 -78c0 -73 -60 -111 -91 -121l-29 40c25 11 46 31 46 62c-31 -7 -56 15 -56 47zM189 88h358v-88h-458v700h100v-612z" />
    <glyph glyph-name="lcommaaccent" unicode="&#x13c;" horiz-adv-x="336" 
d="M133 -101c0 29 27 50 58 50c39 0 72 -25 72 -78c0 -73 -60 -111 -91 -121l-29 40c25 11 46 31 46 62c-31 -7 -56 15 -56 47zM100 700h92v-561c0 -55 22 -75 57 -75c21 0 39 2 67 10l12 -68c-27 -10 -78 -19 -110 -19c-72 0 -118 33 -118 118v595z" />
    <glyph glyph-name="Lcaron" unicode="&#x13d;" horiz-adv-x="566" 
d="M381 700h92c-5 -76 -63 -171 -90 -195l-40 23c25 48 38 111 38 172zM189 88h358v-88h-458v700h100v-612z" />
    <glyph glyph-name="lcaron" unicode="&#x13e;" horiz-adv-x="336" 
d="M266 700h92c-5 -76 -63 -171 -90 -195l-40 23c25 48 38 111 38 172zM100 700h92v-561c0 -55 22 -75 57 -75c21 0 39 2 67 10l12 -68c-27 -10 -78 -19 -110 -19c-72 0 -118 33 -118 118v595z" />
    <glyph glyph-name="Nacute" unicode="&#x143;" horiz-adv-x="735" 
d="M389 752h-81l127 118h132v-23zM646 -9h-56l-355 454l-60 98h-4l12 -98v-445h-94v710h56l357 -454l57 -93h5l-12 93v444h94v-709z" />
    <glyph glyph-name="nacute" unicode="&#x144;" horiz-adv-x="641" 
d="M553 309v-309h-92v290c0 112 -31 168 -123 168c-81 0 -137 -47 -158 -112v-346h-92v525h64l18 -70h9c39 48 100 85 187 85c123 0 187 -50 187 -231zM324 570h-56l64 150h104v-23z" />
    <glyph glyph-name="Ncommaaccent" unicode="&#x145;" horiz-adv-x="735" 
d="M299 -101c0 29 27 50 58 50c39 0 72 -25 72 -78c0 -73 -60 -111 -91 -121l-29 40c25 11 46 31 46 62c-31 -7 -56 15 -56 47zM646 -9h-56l-355 454l-60 98h-4l12 -98v-445h-94v710h56l357 -454l57 -93h5l-12 93v444h94v-709z" />
    <glyph glyph-name="ncommaaccent" unicode="&#x146;" horiz-adv-x="641" 
d="M241 -101c0 29 27 50 58 50c39 0 72 -25 72 -78c0 -73 -60 -111 -91 -121l-29 40c25 11 46 31 46 62c-31 -7 -56 15 -56 47zM553 309v-309h-92v290c0 112 -31 168 -123 168c-81 0 -137 -47 -158 -112v-346h-92v525h64l18 -70h9c39 48 100 85 187 85
c123 0 187 -50 187 -231z" />
    <glyph glyph-name="Ncaron" unicode="&#x147;" horiz-adv-x="735" 
d="M546 870v-26l-146 -100h-69l-139 101v25h93l64 -49l19 -33l21 32l68 50h89zM646 -9h-56l-355 454l-60 98h-4l12 -98v-445h-94v710h56l357 -454l57 -93h5l-12 93v444h94v-709z" />
    <glyph glyph-name="ncaron" unicode="&#x148;" horiz-adv-x="641" 
d="M553 309v-309h-92v290c0 112 -31 168 -123 168c-81 0 -137 -47 -158 -112v-346h-92v525h64l18 -70h9c39 48 100 85 187 85c123 0 187 -50 187 -231zM395 773h78l-137 -187h-49l-129 187h87l44 -68l28 -71l29 70z" />
    <glyph glyph-name="Omacron" unicode="&#x14c;" horiz-adv-x="747" 
d="M555 758h-350v68h350v-68zM58 350c0 229 118 363 315 363c212 0 316 -147 316 -363c0 -229 -119 -362 -316 -362c-212 0 -315 146 -315 362zM164 350c0 -151 65 -277 209 -277c129 0 210 86 210 277c0 148 -64 277 -210 277c-128 0 -209 -89 -209 -277z" />
    <glyph glyph-name="omacron" unicode="&#x14d;" horiz-adv-x="631" 
d="M60 262c0 173 93 278 256 278c172 0 255 -119 255 -278c0 -171 -95 -275 -255 -275c-175 0 -256 118 -256 275zM158 262c0 -99 43 -198 159 -198c104 0 156 66 156 198c0 103 -43 200 -156 200c-104 0 -159 -65 -159 -200zM474 597h-328v69h328v-69z" />
    <glyph glyph-name="Ohungarumlaut" unicode="&#x150;" horiz-adv-x="747" 
d="M325 741h-68l69 109h108v-16zM467 741h-69l111 109h115v-16zM58 350c0 229 118 363 315 363c212 0 316 -147 316 -363c0 -229 -119 -362 -316 -362c-212 0 -315 146 -315 362zM164 350c0 -151 65 -277 209 -277c129 0 210 86 210 277c0 148 -64 277 -210 277
c-128 0 -209 -89 -209 -277z" />
    <glyph glyph-name="ohungarumlaut" unicode="&#x151;" horiz-adv-x="631" 
d="M60 262c0 173 93 278 256 278c172 0 255 -119 255 -278c0 -171 -95 -275 -255 -275c-175 0 -256 118 -256 275zM158 262c0 -99 43 -198 159 -198c104 0 156 66 156 198c0 103 -43 200 -156 200c-104 0 -159 -65 -159 -200zM254 610h-49l39 129h90v-12zM388 610h-51
l82 129h101v-11z" />
    <glyph glyph-name="Racute" unicode="&#x154;" horiz-adv-x="653" 
d="M299 752h-81l127 118h132v-23zM189 0h-100v693c57 11 138 16 199 16c133 0 257 -50 257 -194c0 -112 -73 -182 -172 -206l52 -35l188 -274h-115l-208 295l-101 14v-309zM291 623c-36 0 -83 0 -102 -6v-242h82c95 0 168 37 168 132c0 72 -52 116 -148 116z" />
    <glyph glyph-name="racute" unicode="&#x155;" horiz-adv-x="380" 
d="M380 526l-18 -88c-23 7 -44 13 -63 13c-71 0 -110 -40 -119 -95v-356h-92v525h64l18 -70h9c31 52 69 82 130 82c19 0 46 -3 71 -11zM202 570h-56l64 150h104v-23z" />
    <glyph glyph-name="Rcommaaccent" unicode="&#x156;" horiz-adv-x="653" 
d="M258 -101c0 29 27 50 58 50c39 0 72 -25 72 -78c0 -73 -60 -111 -91 -121l-29 40c25 11 46 31 46 62c-31 -7 -56 15 -56 47zM189 0h-100v693c57 11 138 16 199 16c133 0 257 -50 257 -194c0 -112 -73 -182 -172 -206l52 -35l188 -274h-115l-208 295l-101 14v-309z
M291 623c-36 0 -83 0 -102 -6v-242h82c95 0 168 37 168 132c0 72 -52 116 -148 116z" />
    <glyph glyph-name="rcommaaccent" unicode="&#x157;" horiz-adv-x="380" 
d="M96 -101c0 29 27 50 58 50c39 0 72 -25 72 -78c0 -73 -60 -111 -91 -121l-29 40c25 11 46 31 46 62c-31 -7 -56 15 -56 47zM380 526l-18 -88c-23 7 -44 13 -63 13c-71 0 -110 -40 -119 -95v-356h-92v525h64l18 -70h9c31 52 69 82 130 82c19 0 46 -3 71 -11z" />
    <glyph glyph-name="Rcaron" unicode="&#x158;" horiz-adv-x="653" 
d="M453 870v-26l-146 -100h-69l-139 101v25h93l64 -49l19 -33l21 32l68 50h89zM189 0h-100v693c57 11 138 16 199 16c133 0 257 -50 257 -194c0 -112 -73 -182 -172 -206l52 -35l188 -274h-115l-208 295l-101 14v-309zM291 623c-36 0 -83 0 -102 -6v-242h82
c95 0 168 37 168 132c0 72 -52 116 -148 116z" />
    <glyph glyph-name="rcaron" unicode="&#x159;" horiz-adv-x="380" 
d="M380 526l-18 -88c-23 7 -44 13 -63 13c-71 0 -110 -40 -119 -95v-356h-92v525h64l18 -70h9c31 52 69 82 130 82c19 0 46 -3 71 -11zM301 773h78l-137 -187h-49l-129 187h87l44 -68l28 -71l29 70z" />
    <glyph glyph-name="Sacute" unicode="&#x15a;" horiz-adv-x="581" 
d="M323 752h-81l127 118h132v-23zM433 184c0 164 -366 94 -366 340c0 113 86 189 241 189c89 0 168 -15 211 -36l-31 -84c-33 17 -105 34 -185 34c-91 0 -136 -45 -136 -96c0 -155 366 -109 366 -338c0 -125 -99 -205 -261 -205c-109 0 -185 19 -224 38l33 87
c33 -17 106 -40 187 -40c93 0 165 34 165 111z" />
    <glyph glyph-name="sacute" unicode="&#x15b;" horiz-adv-x="499" 
d="M353 147c0 53 -55 69 -116 87c-77 22 -165 44 -165 152c0 104 65 154 177 154c84 0 138 -19 181 -38l-22 -78c-36 17 -87 38 -147 38c-65 0 -97 -18 -97 -74c0 -44 51 -60 110 -76c79 -21 171 -50 171 -159c0 -99 -67 -166 -200 -166c-85 0 -148 19 -191 42l26 80
c37 -20 101 -45 161 -45c65 0 112 19 112 83zM257 570h-56l64 150h104v-23z" />
    <glyph glyph-name="Scircumflex" unicode="&#x15c;" horiz-adv-x="581" 
d="M125 745v26l146 99h73l139 -100v-25h-92l-65 47l-20 35l-21 -34l-70 -48h-90zM433 184c0 164 -366 94 -366 340c0 113 86 189 241 189c89 0 168 -15 211 -36l-31 -84c-33 17 -105 34 -185 34c-91 0 -136 -45 -136 -96c0 -155 366 -109 366 -338
c0 -125 -99 -205 -261 -205c-109 0 -185 19 -224 38l33 87c33 -17 106 -40 187 -40c93 0 165 34 165 111z" />
    <glyph glyph-name="scircumflex" unicode="&#x15d;" horiz-adv-x="499" 
d="M353 147c0 53 -55 69 -116 87c-77 22 -165 44 -165 152c0 104 65 154 177 154c84 0 138 -19 181 -38l-22 -78c-36 17 -87 38 -147 38c-65 0 -97 -18 -97 -74c0 -44 51 -60 110 -76c79 -21 171 -50 171 -159c0 -99 -67 -166 -200 -166c-85 0 -148 19 -191 42l26 80
c37 -20 101 -45 161 -45c65 0 112 19 112 83zM175 586h-76l140 187h41c41 -64 85 -124 125 -187h-80l-45 69l-26 71l-31 -71z" />
    <glyph glyph-name="Scedilla" unicode="&#x15e;" horiz-adv-x="581" 
d="M48 26l33 87c33 -17 106 -40 187 -40c93 0 165 34 165 111c0 164 -366 94 -366 340c0 113 86 189 241 189c89 0 168 -15 211 -36l-31 -84c-33 17 -105 34 -185 34c-91 0 -136 -45 -136 -96c0 -155 366 -109 366 -338c0 -115 -80 -190 -216 -202l-25 -43
c65 -11 96 -33 96 -77c0 -56 -52 -93 -140 -93c-17 0 -35 1 -54 5l9 36c93 -5 100 21 100 43c0 23 -35 34 -99 41l51 85c-100 3 -170 21 -207 38z" />
    <glyph glyph-name="scedilla" unicode="&#x15f;" horiz-adv-x="499" 
d="M54 29l26 81c37 -20 101 -45 161 -45c65 0 112 18 112 82c0 53 -55 69 -116 87c-77 22 -165 44 -165 152c0 104 65 154 177 154c84 0 138 -19 181 -38l-22 -78c-36 17 -87 38 -147 38c-65 0 -97 -18 -97 -74c0 -44 51 -60 110 -76c79 -21 171 -50 171 -159
c0 -89 -53 -153 -164 -164l-24 -41c65 -11 96 -33 96 -77c0 -56 -52 -93 -140 -93c-17 0 -35 1 -54 5l9 36c93 -5 100 21 100 43c0 23 -35 34 -99 41l50 85c-72 3 -126 20 -165 41z" />
    <glyph glyph-name="Tcommaaccent" unicode="&#x162;" horiz-adv-x="610" 
d="M236 -101c0 29 27 50 58 50c39 0 72 -25 72 -78c0 -73 -60 -111 -91 -121l-29 40c25 11 46 31 46 62c-31 -7 -56 15 -56 47zM19 700h572v-88h-236v-612h-100v612h-236v88z" />
    <glyph glyph-name="tcommaaccent" unicode="&#x163;" horiz-adv-x="405" 
d="M150 -101c0 29 27 50 58 50c39 0 72 -25 72 -78c0 -73 -60 -111 -91 -121l-29 40c25 11 46 31 46 62c-31 -7 -56 15 -56 47zM113 447h-89v78h89v106l92 24v-130h158v-78h-158v-268c0 -84 19 -115 71 -115c33 0 57 8 92 20l21 -65c-43 -19 -91 -32 -147 -32
c-93 0 -129 46 -129 161v299z" />
    <glyph glyph-name="Tcaron" unicode="&#x164;" horiz-adv-x="610" 
d="M482 870v-26l-146 -100h-69l-139 101v25h93l64 -49l19 -33l21 32l68 50h89zM19 700h572v-88h-236v-612h-100v612h-236v88z" />
    <glyph glyph-name="tcaron" unicode="&#x165;" horiz-adv-x="405" 
d="M274 747h92c-5 -76 -63 -171 -90 -195l-40 23c25 48 38 111 38 172zM113 447h-89v78h89v106l92 24v-130h158v-78h-158v-268c0 -84 19 -115 71 -115c33 0 57 8 92 20l21 -65c-43 -19 -91 -32 -147 -32c-93 0 -129 46 -129 161v299z" />
    <glyph glyph-name="Umacron" unicode="&#x16a;" horiz-adv-x="710" 
d="M534 758h-350v68h350v-68zM527 264v436h94v-457c0 -172 -104 -251 -255 -251c-180 0 -277 78 -277 231v477h100v-439c0 -136 60 -182 176 -182c112 0 162 56 162 185z" />
    <glyph glyph-name="umacron" unicode="&#x16b;" horiz-adv-x="644" 
d="M88 215v310h92v-289c0 -111 23 -172 116 -172c80 0 129 51 156 118v343h92v-376c0 -51 4 -106 12 -149h-62l-24 87h-10c-35 -60 -95 -100 -187 -100c-123 0 -185 52 -185 228zM472 597h-328v69h328v-69z" />
    <glyph glyph-name="Ubreve" unicode="&#x16c;" horiz-adv-x="710" 
d="M165 843l48 29c25 -43 80 -66 148 -66c71 0 120 30 143 66l44 -23c-27 -74 -103 -119 -188 -119c-76 0 -161 34 -195 113zM527 264v436h94v-457c0 -172 -104 -251 -255 -251c-180 0 -277 78 -277 231v477h100v-439c0 -136 60 -182 176 -182c112 0 162 56 162 185z" />
    <glyph glyph-name="ubreve" unicode="&#x16d;" horiz-adv-x="644" 
d="M88 215v310h92v-289c0 -111 23 -172 116 -172c80 0 129 51 156 118v343h92v-376c0 -51 4 -106 12 -149h-62l-24 87h-10c-35 -60 -95 -100 -187 -100c-123 0 -185 52 -185 228zM145 735l50 24c28 -49 79 -75 132 -75c52 0 99 24 126 75l45 -19c-11 -64 -82 -130 -172 -130
c-87 0 -158 49 -181 125z" />
    <glyph glyph-name="Uring" unicode="&#x16e;" horiz-adv-x="710" 
d="M243 769c0 49 33 86 118 86c77 0 119 -30 119 -86c0 -48 -38 -84 -119 -84c-80 0 -118 33 -118 84zM313 769c0 -20 13 -37 48 -37c33 0 49 12 49 37c0 24 -16 39 -49 39s-48 -15 -48 -39zM527 264v436h94v-457c0 -172 -104 -251 -255 -251c-180 0 -277 78 -277 231v477
h100v-439c0 -136 60 -182 176 -182c112 0 162 56 162 185z" />
    <glyph glyph-name="uring" unicode="&#x16f;" horiz-adv-x="644" 
d="M88 215v310h92v-289c0 -111 23 -172 116 -172c80 0 129 51 156 118v343h92v-376c0 -51 4 -106 12 -149h-62l-24 87h-10c-35 -60 -95 -100 -187 -100c-123 0 -185 52 -185 228zM209 683c0 56 41 95 109 95c64 0 113 -31 113 -95c0 -52 -48 -94 -113 -94
c-64 0 -109 34 -109 94zM266 683c0 -27 27 -45 52 -45c31 0 56 14 56 45s-27 46 -56 46c-27 0 -52 -14 -52 -46z" />
    <glyph glyph-name="Uhungarumlaut" unicode="&#x170;" horiz-adv-x="710" 
d="M295 741h-68l69 109h108v-16zM437 741h-69l111 109h115v-16zM527 264v436h94v-457c0 -172 -104 -251 -255 -251c-180 0 -277 78 -277 231v477h100v-439c0 -136 60 -182 176 -182c112 0 162 56 162 185z" />
    <glyph glyph-name="uhungarumlaut" unicode="&#x171;" horiz-adv-x="644" 
d="M88 215v310h92v-289c0 -111 23 -172 116 -172c80 0 129 51 156 118v343h92v-376c0 -51 4 -106 12 -149h-62l-24 87h-10c-35 -60 -95 -100 -187 -100c-123 0 -185 52 -185 228zM254 610h-49l39 129h90v-12zM388 610h-51l82 129h101v-11z" />
    <glyph glyph-name="Uogonek" unicode="&#x172;" horiz-adv-x="708" 
d="M526 264v436h94v-457c0 -124 -54 -195 -138 -232c-44 -18 -78 -47 -77 -102c1 -31 21 -55 60 -55c13 0 30 3 47 10l12 -46c-23 -16 -68 -25 -104 -25c-68 0 -110 37 -110 94c0 48 23 82 62 105h-7c-180 0 -277 78 -277 231v477h100v-439c0 -136 60 -182 176 -182
c112 0 162 56 162 185z" />
    <glyph glyph-name="uogonek" unicode="&#x173;" horiz-adv-x="644" 
d="M88 215v310h92v-289c0 -111 23 -172 116 -172c80 0 129 51 156 118v343h92v-376c0 -51 4 -106 12 -149h-23c-43 -22 -63 -49 -62 -92c1 -31 21 -57 61 -57c13 0 29 1 45 8l11 -42c-24 -15 -65 -24 -98 -24c-71 0 -114 35 -114 90c0 53 49 95 117 118l-23 86h-10
c-35 -60 -95 -100 -187 -100c-123 0 -185 52 -185 228z" />
    <glyph glyph-name="Zacute" unicode="&#x179;" horiz-adv-x="596" 
d="M307 752h-81l127 118h132v-23zM557 0h-518v88l377 484l49 40h-426v88h518v-88l-380 -487l-47 -37h427v-88z" />
    <glyph glyph-name="zacute" unicode="&#x17a;" horiz-adv-x="515" 
d="M461 0h-413v79l259 316l70 52h-329v78h413v-79l-262 -319l-70 -49h332v-78zM252 570h-56l64 150h104v-23z" />
    <glyph glyph-name="Zdotaccent" unicode="&#x17b;" horiz-adv-x="596" 
d="M227 798c0 29 27 54 72 54s73 -25 73 -54c0 -32 -28 -55 -73 -55s-72 23 -72 55zM557 0h-518v88l377 484l49 40h-426v88h518v-88l-380 -487l-47 -37h427v-88z" />
    <glyph glyph-name="zdotaccent" unicode="&#x17c;" horiz-adv-x="515" 
d="M461 0h-413v79l259 316l70 52h-329v78h413v-79l-262 -319l-70 -49h332v-78zM191 650c0 31 26 60 65 60s67 -29 67 -60s-28 -58 -67 -58s-65 27 -65 58z" />
    <glyph glyph-name="longs" unicode="&#x17f;" horiz-adv-x="331" 
d="M116 447h-90v78h90v33c0 91 45 154 166 154c51 0 78 -5 124 -21l-22 -75c-35 15 -66 18 -91 18c-61 0 -85 -18 -85 -105v-529h-92v447z" />
    <glyph glyph-name="uni01F4" unicode="&#x1f4;" horiz-adv-x="668" 
d="M416 752h-81l127 118h132v-23zM527 277l-179 18v58h262v-309c-47 -37 -138 -56 -214 -56c-191 0 -338 113 -338 362c0 260 185 363 347 363c88 0 143 -11 182 -26l-24 -85c-35 15 -85 23 -150 23c-120 0 -249 -70 -249 -275c0 -190 105 -275 246 -275c44 0 86 9 117 25
v177z" />
    <glyph glyph-name="uni01F5" unicode="&#x1f5;" horiz-adv-x="627" 
d="M537 510v-512c0 -137 -82 -204 -238 -204c-91 0 -142 11 -182 30l22 83c35 -16 94 -35 142 -35c132 0 165 44 165 147v37h-11c-21 -35 -77 -57 -153 -57c-152 0 -222 76 -222 259c0 180 94 281 278 281c88 0 148 -12 199 -29zM302 76c81 0 126 45 143 112v258
c-31 9 -70 15 -121 15c-104 0 -166 -65 -166 -201c0 -117 39 -184 144 -184zM331 570h-56l64 150h104v-23z" />
    <glyph glyph-name="Scommaaccent" unicode="&#x218;" horiz-adv-x="581" 
d="M221 -101c0 29 27 50 58 50c39 0 72 -25 72 -78c0 -73 -60 -111 -91 -121l-29 40c25 11 46 31 46 62c-31 -7 -56 15 -56 47zM433 184c0 164 -366 94 -366 340c0 113 86 189 241 189c89 0 168 -15 211 -36l-31 -84c-33 17 -105 34 -185 34c-91 0 -136 -45 -136 -96
c0 -155 366 -109 366 -338c0 -125 -99 -205 -261 -205c-109 0 -185 19 -224 38l33 87c33 -17 106 -40 187 -40c93 0 165 34 165 111z" />
    <glyph glyph-name="scommaaccent" unicode="&#x219;" horiz-adv-x="499" 
d="M181 -101c0 29 27 50 58 50c39 0 72 -25 72 -78c0 -73 -60 -111 -91 -121l-29 40c25 11 46 31 46 62c-31 -7 -56 15 -56 47zM353 147c0 53 -55 69 -116 87c-77 22 -165 44 -165 152c0 104 65 154 177 154c84 0 138 -19 181 -38l-22 -78c-36 17 -87 38 -147 38
c-65 0 -97 -18 -97 -74c0 -44 51 -60 110 -76c79 -21 171 -50 171 -159c0 -99 -67 -166 -200 -166c-85 0 -148 19 -191 42l26 80c37 -20 101 -45 161 -45c65 0 112 19 112 83z" />
    <glyph glyph-name="uni0237" unicode="&#x237;" horiz-adv-x="312" 
d="M112 15v510h92v-542c0 -129 -46 -192 -154 -192c-11 0 -23 -1 -38 2v76c87 -3 100 48 100 146z" />
    <glyph glyph-name="afii57929" unicode="&#x2bc;" horiz-adv-x="217" 
d="M44 655c0 32 24 53 59 53c43 0 71 -26 71 -75c0 -93 -67 -131 -99 -142l-28 41c32 15 55 37 54 72c-35 -7 -57 16 -57 51z" />
    <glyph glyph-name="acutecomb" unicode="&#x301;" horiz-adv-x="2" 
d="M-214 570h-56l64 150h104v-23z" />
    <glyph glyph-name="uni0394" unicode="&#x394;" horiz-adv-x="625" 
d="M614 45v-45h-598v45l276 665h43zM309 565l-30 -101l-153 -378h373l-161 379l-27 100h-2z" />
    <glyph glyph-name="uni03A9" unicode="&#x3a9;" horiz-adv-x="875" 
d="M396 0h-315v82h125l101 -11v27l-57 9c-92 40 -169 137 -169 273c0 203 139 333 356 333c228 0 357 -141 357 -336c0 -143 -89 -229 -166 -269l-62 -10v-27l103 11h126v-82h-317v148c84 13 210 71 210 233c0 119 -72 244 -252 244c-161 0 -249 -84 -249 -247
c0 -157 116 -219 209 -230v-148z" />
    <glyph glyph-name="pi" unicode="&#x3c0;" horiz-adv-x="770" 
d="M698 447h-97v-316c0 -43 15 -57 42 -57c15 0 32 1 51 5l7 -65c-23 -9 -58 -17 -99 -17c-71 0 -93 41 -93 110v340h-223v-447h-92v447h-22c-31 0 -47 -17 -70 -48l-58 31c29 60 66 95 145 95h509v-78z" />
    <glyph glyph-name="afii10023" unicode="&#x401;" horiz-adv-x="585" 
d="M125 795c0 31 23 49 62 49c37 0 62 -18 62 -49c0 -29 -25 -49 -62 -49c-39 0 -62 20 -62 49zM339 795c0 31 24 49 61 49c39 0 63 -18 63 -49c0 -29 -24 -49 -63 -49c-37 0 -61 20 -61 49zM517 0h-428v700h423v-86h-323v-213h295v-86h-295v-229h328v-86z" />
    <glyph glyph-name="afii10051" unicode="&#x402;" horiz-adv-x="799" 
d="M355 335v-335h-100v612h-236v88h572v-88h-236v-192c19 5 70 21 151 21c115 0 235 -46 235 -213c0 -160 -92 -235 -257 -235c-48 0 -65 1 -76 4v86c17 -3 38 -3 78 -3c96 0 149 45 149 141c0 107 -71 134 -162 134c-48 0 -102 -15 -118 -20z" />
    <glyph glyph-name="afii10052" unicode="&#x403;" horiz-adv-x="486" 
d="M295 752h-81l127 118h132v-23zM89 700h415v-88h-315v-612h-100v700z" />
    <glyph glyph-name="afii10053" unicode="&#x404;" horiz-adv-x="637" 
d="M559 105l23 -75c-44 -31 -114 -42 -190 -42c-179 0 -334 111 -334 362c0 261 177 363 335 363c88 0 139 -10 178 -25l-23 -84c-33 15 -82 23 -147 23c-108 0 -216 -62 -235 -223h329v-86h-331c11 -161 114 -245 249 -245c65 0 113 13 146 32z" />
    <glyph glyph-name="afii10054" unicode="&#x405;" horiz-adv-x="581" 
d="M433 184c0 164 -366 94 -366 340c0 113 86 189 241 189c89 0 168 -15 211 -36l-31 -84c-33 17 -105 34 -185 34c-91 0 -136 -45 -136 -96c0 -155 366 -109 366 -338c0 -125 -99 -205 -261 -205c-109 0 -185 19 -224 38l33 87c33 -17 106 -40 187 -40c93 0 165 34 165 111
z" />
    <glyph glyph-name="afii10055" unicode="&#x406;" horiz-adv-x="398" 
d="M69 66h80v568h-80v66h260v-66h-80v-568h80v-66h-260v66z" />
    <glyph glyph-name="afii10056" unicode="&#x407;" horiz-adv-x="398" 
d="M74 793c0 32 24 51 56 51c31 0 55 -19 55 -51c0 -31 -24 -51 -55 -51c-32 0 -56 20 -56 51zM214 793c0 32 24 51 56 51s56 -19 56 -51c0 -31 -24 -51 -56 -51s-56 20 -56 51zM69 66h80v568h-80v66h260v-66h-80v-568h80v-66h-260v66z" />
    <glyph glyph-name="afii10057" unicode="&#x408;" horiz-adv-x="325" 
d="M125 187v513h100v-540c0 -104 -55 -169 -160 -169c-27 0 -75 6 -99 16l19 83c18 -8 40 -12 66 -12c60 0 74 41 74 109z" />
    <glyph glyph-name="afii10058" unicode="&#x409;" horiz-adv-x="1014" 
d="M182 700h412v-267c14 3 72 8 106 8c138 0 280 -46 280 -214c0 -160 -132 -235 -302 -235c-40 0 -126 3 -184 15v605h-220c-13 -263 -32 -432 -85 -529c-35 -64 -82 -87 -131 -87c-28 0 -43 3 -61 9l12 84c31 -8 67 -4 96 46c40 70 69 228 77 565zM594 346v-263
c19 -5 59 -6 95 -6c99 0 185 45 185 145c0 108 -94 133 -188 133c-25 0 -78 -6 -92 -9z" />
    <glyph glyph-name="afii10059" unicode="&#x40a;" horiz-adv-x="1064" 
d="M89 0v700h100v-285h355v285h100v-284c16 3 73 8 107 8c139 0 279 -37 279 -205c0 -160 -130 -227 -302 -227c-40 0 -126 4 -184 14v321h-355v-327h-100zM644 329v-246c19 -4 60 -6 95 -6c103 0 185 35 185 135c0 108 -89 126 -188 126c-25 0 -78 -6 -92 -9z" />
    <glyph glyph-name="afii10060" unicode="&#x40b;" horiz-adv-x="821" 
d="M355 310v-310h-100v612h-236v88h572v-88h-236v-216c39 20 105 45 188 45c123 0 210 -49 210 -197v-244h-100v222c0 89 -44 133 -133 133c-68 0 -129 -17 -165 -45z" />
    <glyph glyph-name="afii10061" unicode="&#x40c;" horiz-adv-x="669" 
d="M321 752h-81l127 118h132v-23zM635 0h-126l-271 318h-49v-318h-100v700h100v-322l46 14l252 308h114l-252 -300l-47 -34l55 -40z" />
    <glyph glyph-name="afii10062" unicode="&#x40e;" horiz-adv-x="608" 
d="M129 850l93 21c7 -48 42 -73 98 -73s91 25 98 72l84 -18c-17 -73 -74 -117 -183 -117c-105 0 -177 34 -190 115zM5 700h115l191 -360l27 -89h6l21 92l142 357h102l-196 -462c-76 -179 -109 -243 -213 -243c-48 0 -72 6 -99 22l29 82c28 -16 53 -17 74 -17
c39 0 65 34 86 102z" />
    <glyph glyph-name="afii10145" unicode="&#x40f;" horiz-adv-x="719" 
d="M89 0v700h100v-612h341v612h100v-700h-220l-16 -177h-63l-22 177h-220z" />
    <glyph glyph-name="afii10017" unicode="&#x410;" horiz-adv-x="645" 
d="M637 0h-104l-76 183h-277l-74 -183h-98l288 710h52zM318 573l-27 -109l-81 -197h218l-81 199l-27 107h-2z" />
    <glyph glyph-name="afii10018" unicode="&#x411;" horiz-adv-x="606" 
d="M89 7v693h424v-88h-324v-190c24 4 62 9 97 9c148 0 280 -48 280 -208c0 -159 -134 -231 -286 -231c-49 0 -135 3 -191 15zM292 77c91 0 168 42 168 133c0 117 -87 135 -184 135c-26 0 -73 -6 -87 -9v-253c19 -5 66 -6 103 -6z" />
    <glyph glyph-name="afii10019" unicode="&#x412;" horiz-adv-x="641" 
d="M559 538c0 -68 -44 -143 -143 -164v-4c85 -11 166 -63 166 -171c0 -145 -147 -207 -287 -207c-47 0 -147 1 -206 13v689c55 9 130 15 214 15c115 0 256 -33 256 -171zM281 316h-94v-234c19 -5 80 -7 115 -7c91 0 174 37 174 122c0 107 -103 119 -195 119zM187 620v-226
h55c25 0 63 2 86 5c67 19 124 54 124 121c0 90 -79 105 -156 105c-47 0 -89 -2 -109 -5z" />
    <glyph glyph-name="afii10020" unicode="&#x413;" horiz-adv-x="486" 
d="M89 700h415v-88h-315v-612h-100v700z" />
    <glyph glyph-name="afii10021" unicode="&#x414;" horiz-adv-x="736" 
d="M608 88h100v-215h-69l-17 127h-532l-16 -127h-69v215h78c25 30 111 202 108 612h417v-612zM189 88h319v524h-225c-11 -283 -48 -441 -94 -524z" />
    <glyph glyph-name="afii10022" unicode="&#x415;" horiz-adv-x="585" 
d="M517 0h-428v700h423v-86h-323v-213h295v-86h-295v-229h328v-86z" />
    <glyph glyph-name="afii10024" unicode="&#x416;" horiz-adv-x="888" 
d="M343 390h49v310h94v-322l46 14l213 308h111l-216 -304l-45 -33l56 -41l239 -322h-121l-234 320h-49v-320h-94v332l-46 -14l-233 -318h-114l235 312l53 38l-51 36l-223 314h116z" />
    <glyph glyph-name="afii10025" unicode="&#x417;" horiz-adv-x="589" 
d="M203 327h-54v78h17c24 0 83 1 107 5c72 10 130 47 130 108c0 82 -67 108 -148 108c-77 0 -136 -14 -167 -29l-27 80c26 16 116 35 209 35c117 0 239 -41 239 -173c0 -67 -47 -133 -143 -160v-4c103 -15 166 -72 166 -168c0 -152 -145 -219 -288 -219
c-96 0 -160 12 -200 28l25 86c35 -15 95 -29 183 -29c83 0 174 41 174 131c0 80 -65 114 -176 121c-17 1 -28 2 -47 2z" />
    <glyph glyph-name="afii10026" unicode="&#x418;" horiz-adv-x="744" 
d="M655 0h-100v463l6 77h-4l-48 -79l-359 -461h-61v700h100v-466l-9 -76h5l50 79l358 463h62v-700z" />
    <glyph glyph-name="afii10027" unicode="&#x419;" horiz-adv-x="744" 
d="M190 850l93 21c7 -48 42 -73 98 -73s91 25 98 72l84 -18c-17 -73 -74 -117 -183 -117c-105 0 -177 34 -190 115zM655 0h-100v463l6 77h-4l-48 -79l-359 -461h-61v700h100v-466l-9 -76h5l50 79l358 463h62v-700z" />
    <glyph glyph-name="afii10028" unicode="&#x41a;" horiz-adv-x="669" 
d="M635 0h-126l-271 318h-49v-318h-100v700h100v-322l46 14l252 308h114l-252 -300l-47 -34l55 -40z" />
    <glyph glyph-name="afii10029" unicode="&#x41b;" horiz-adv-x="683" 
d="M594 0h-100v612h-220c-13 -263 -32 -432 -85 -529c-35 -64 -82 -87 -131 -87c-28 0 -43 3 -61 9l12 84c31 -8 67 -4 96 46c40 70 69 228 77 565h412v-700z" />
    <glyph glyph-name="afii10030" unicode="&#x41c;" horiz-adv-x="868" 
d="M779 0h-100v451l11 112h-4l-43 -97l-195 -310h-30l-205 311l-41 95h-5l16 -110v-452h-94v700h75l237 -357l37 -76h2l35 78l225 355h79v-700z" />
    <glyph glyph-name="afii10031" unicode="&#x41d;" horiz-adv-x="733" 
d="M644 0h-100v313h-355v-313h-100v700h100v-299h355v299h100v-700z" />
    <glyph glyph-name="afii10032" unicode="&#x41e;" horiz-adv-x="747" 
d="M58 350c0 229 118 363 315 363c212 0 316 -147 316 -363c0 -229 -119 -362 -316 -362c-212 0 -315 146 -315 362zM164 350c0 -151 65 -277 209 -277c129 0 210 86 210 277c0 148 -64 277 -210 277c-128 0 -209 -89 -209 -277z" />
    <glyph glyph-name="afii10033" unicode="&#x41f;" horiz-adv-x="719" 
d="M630 0h-100v612h-341v-612h-100v700h541v-700z" />
    <glyph glyph-name="afii10034" unicode="&#x420;" horiz-adv-x="614" 
d="M189 0h-100v693c56 12 125 16 189 16c135 0 297 -39 297 -218c0 -168 -145 -234 -297 -234c-16 0 -73 2 -89 5v-262zM281 623c-36 0 -73 -1 -92 -6v-269c13 -5 67 -5 82 -5c95 0 198 23 198 147c0 108 -100 133 -188 133z" />
    <glyph glyph-name="afii10035" unicode="&#x421;" horiz-adv-x="624" 
d="M560 107l24 -77c-44 -31 -116 -42 -192 -42c-179 0 -334 111 -334 362c0 261 177 363 335 363c88 0 140 -10 179 -25l-22 -86c-33 15 -82 23 -149 23c-120 0 -237 -72 -237 -275c0 -181 107 -275 250 -275c65 0 113 13 146 32z" />
    <glyph glyph-name="afii10036" unicode="&#x422;" horiz-adv-x="610" 
d="M19 700h572v-88h-236v-612h-100v612h-236v88z" />
    <glyph glyph-name="afii10037" unicode="&#x423;" horiz-adv-x="608" 
d="M5 700h115l191 -360l27 -89h6l21 92l142 357h102l-196 -462c-76 -179 -109 -243 -213 -243c-48 0 -72 6 -99 22l29 82c28 -16 53 -17 74 -17c39 0 65 34 86 102z" />
    <glyph glyph-name="afii10038" unicode="&#x424;" horiz-adv-x="857" 
d="M476 -19h-96v96c-27 -4 -60 -5 -89 -5c-138 0 -248 90 -248 278c0 179 109 289 269 289c19 0 52 -1 68 -5v86h96v-89c27 7 66 8 89 8c140 0 248 -98 248 -279c0 -188 -123 -288 -267 -288c-16 0 -53 2 -70 7v-98zM550 559c-20 0 -57 -1 -76 -6v-398c15 -3 40 -3 61 -3
c96 0 176 68 176 208c0 117 -64 199 -161 199zM310 152c15 0 52 -1 72 6v397c-17 3 -44 4 -65 4c-95 0 -172 -70 -172 -209c0 -120 68 -198 165 -198z" />
    <glyph glyph-name="afii10039" unicode="&#x425;" horiz-adv-x="678" 
d="M137 0h-110l253 356l-231 344h119l151 -230l27 -58l26 58l158 230h110l-238 -337l249 -363h-117l-167 244l-31 61l-28 -61z" />
    <glyph glyph-name="afii10040" unicode="&#x426;" horiz-adv-x="752" 
d="M622 88h101v-215h-69l-16 127h-549v700h100v-612h333v612h100v-612z" />
    <glyph glyph-name="afii10041" unicode="&#x427;" horiz-adv-x="663" 
d="M76 458v242h100v-221c0 -89 41 -140 133 -140c68 0 129 17 165 44v317h100v-700h-100v298c-39 -21 -105 -45 -189 -45c-125 0 -209 57 -209 205z" />
    <glyph glyph-name="afii10042" unicode="&#x428;" horiz-adv-x="959" 
d="M870 700v-700h-781v700h100v-612h241v612h100v-612h240v612h100z" />
    <glyph glyph-name="afii10043" unicode="&#x429;" horiz-adv-x="1000" 
d="M902 -127l-16 127h-797v700h100v-612h240v612h100v-612h240v612h100v-612h102v-215h-69z" />
    <glyph glyph-name="afii10044" unicode="&#x42a;" horiz-adv-x="694" 
d="M174 7v605h-175v88h275v-267c13 3 74 8 107 8c136 0 279 -46 279 -214c0 -158 -130 -235 -302 -235c-39 0 -128 3 -184 15zM369 77c99 0 185 47 185 145c0 108 -93 133 -188 133c-25 0 -78 -6 -92 -9v-263c20 -5 60 -6 95 -6z" />
    <glyph glyph-name="afii10045" unicode="&#x42b;" horiz-adv-x="846" 
d="M757 0h-100v700h100v-700zM89 7v693h100v-267c16 3 57 8 91 8c140 0 271 -48 271 -213c0 -161 -119 -236 -289 -236c-40 0 -117 3 -173 15zM270 77c99 0 175 48 175 144c0 107 -85 134 -180 134c-25 0 -61 -5 -76 -9v-263c19 -5 46 -6 81 -6z" />
    <glyph glyph-name="afii10046" unicode="&#x42c;" horiz-adv-x="609" 
d="M89 7v693h100v-267c14 3 72 8 106 8c138 0 280 -46 280 -214c0 -160 -132 -235 -302 -235c-40 0 -126 3 -184 15zM284 77c99 0 185 45 185 145c0 108 -94 133 -188 133c-25 0 -78 -6 -92 -9v-263c19 -5 59 -6 95 -6z" />
    <glyph glyph-name="afii10047" unicode="&#x42d;" horiz-adv-x="631" 
d="M467 313h-306v86h305c-13 155 -103 227 -236 228c-71 1 -127 -16 -159 -35l-24 80c44 25 117 41 193 41c186 0 333 -102 333 -363c0 -264 -173 -362 -357 -362c-73 0 -132 12 -171 27l26 86c33 -16 91 -28 152 -28c116 0 231 63 244 240z" />
    <glyph glyph-name="afii10048" unicode="&#x42e;" horiz-adv-x="978" 
d="M89 700h100v-299h130c15 200 119 312 302 312c212 0 299 -146 299 -363c0 -231 -102 -362 -299 -362s-292 129 -303 325h-129v-313h-100v700zM425 350c0 -150 52 -277 196 -277c129 0 193 86 193 277c0 148 -46 277 -193 277c-129 0 -196 -89 -196 -277z" />
    <glyph glyph-name="afii10049" unicode="&#x42f;" horiz-adv-x="624" 
d="M535 693v-693h-100v298l-107 -22l-187 -276h-116l169 244l66 44c-104 19 -181 82 -181 201c0 163 130 220 290 220c49 0 113 -4 166 -16zM363 623c-92 0 -178 -27 -178 -133c0 -99 80 -133 179 -133h71v260c-19 5 -37 6 -72 6z" />
    <glyph glyph-name="afii10065" unicode="&#x430;" horiz-adv-x="582" 
d="M107 415l-25 77c60 29 134 43 223 43c160 0 186 -91 186 -167c0 -73 -8 -144 -8 -231c0 -51 4 -99 15 -138h-67l-25 79h-10c-30 -40 -83 -85 -181 -85s-170 56 -170 147c0 121 114 173 219 173c83 0 109 -6 131 -9c3 20 4 31 4 54c0 75 -29 99 -118 99
c-52 0 -125 -17 -174 -42zM395 158v80c-21 3 -45 9 -117 9c-83 0 -135 -26 -135 -97c0 -53 42 -80 102 -80c89 0 134 49 150 88z" />
    <glyph glyph-name="afii10066" unicode="&#x431;" horiz-adv-x="635" 
d="M145 421l10 -2c49 67 107 92 198 92c140 0 222 -86 222 -247c0 -185 -97 -277 -254 -277c-171 0 -257 99 -257 322c0 362 127 373 309 389c77 7 121 12 150 32l10 -81c-31 -20 -77 -27 -169 -33c-127 -9 -203 -31 -219 -195zM162 250c0 -100 48 -186 158 -186
c105 0 157 64 157 191c0 101 -44 178 -144 178c-120 0 -171 -66 -171 -183z" />
    <glyph glyph-name="afii10067" unicode="&#x432;" horiz-adv-x="582" 
d="M88 1v524l38 2c43 2 91 7 158 7c155 0 217 -44 217 -129c0 -47 -31 -101 -102 -122v-11c88 -17 123 -58 123 -126c0 -105 -86 -153 -261 -153c-59 0 -110 4 -159 7c-5 0 -9 1 -14 1zM283 240h-103v-168c29 -4 54 -6 95 -6c105 0 149 25 149 88c0 51 -33 86 -141 86z
M180 454v-151h114c58 0 113 35 113 80c0 56 -34 75 -126 75c-31 0 -60 -3 -101 -4z" />
    <glyph glyph-name="afii10068" unicode="&#x433;" horiz-adv-x="426" 
d="M88 525h338v-78h-246v-447h-92v525z" />
    <glyph glyph-name="afii10069" unicode="&#x434;" horiz-adv-x="624" 
d="M515 78h85v-209h-63l-16 131h-442l-18 -131h-61v209h67c26 31 92 154 95 447h353v-447zM162 78h261v369h-178c-8 -120 -32 -281 -83 -369z" />
    <glyph glyph-name="afii10070" unicode="&#x435;" horiz-adv-x="598" 
d="M480 113l35 -70c-47 -35 -119 -56 -200 -56c-177 0 -255 107 -255 275c0 180 92 278 256 278c104 0 218 -37 218 -212c0 -21 -1 -51 -5 -78h-375c3 -123 52 -186 187 -186c56 0 111 22 139 49zM158 316h288c3 107 -46 146 -129 146c-93 0 -150 -39 -159 -146z" />
    <glyph glyph-name="afii10072" unicode="&#x436;" horiz-adv-x="774" 
d="M338 0v248l-60 -16l-164 -232h-108l175 237l45 35l-63 43l-144 210h100l153 -227h66v227h90v-238l60 16l154 222h99l-151 -209l-48 -38l62 -44l164 -234h-111l-164 236h-65v-236h-90z" />
    <glyph glyph-name="afii10073" unicode="&#x437;" horiz-adv-x="516" 
d="M210 233h-62v70h77c59 0 114 34 114 79c0 56 -41 74 -125 74c-59 0 -109 -16 -140 -29l-25 70c43 25 108 37 195 37c125 0 190 -45 190 -129c0 -44 -36 -101 -100 -120v-11c91 -16 122 -60 122 -129c0 -88 -80 -155 -241 -155c-79 0 -126 10 -167 30l24 73
c36 -19 88 -26 148 -26c92 0 138 29 138 87c0 52 -39 79 -148 79z" />
    <glyph glyph-name="afii10074" unicode="&#x438;" horiz-adv-x="631" 
d="M543 0h-92v300l14 104h-11l-49 -98l-246 -306h-71v525h92v-310l-7 -92h11l46 89l241 313h72v-525z" />
    <glyph glyph-name="afii10075" unicode="&#x439;" horiz-adv-x="631" 
d="M148 686l82 26c14 -60 48 -64 95 -64c46 0 82 8 95 63l72 -21c-15 -79 -82 -107 -169 -107c-83 0 -159 24 -175 103zM543 0h-92v300l14 104h-11l-49 -98l-246 -306h-71v525h92v-310l-7 -92h11l46 89l241 313h72v-525z" />
    <glyph glyph-name="afii10076" unicode="&#x43a;" horiz-adv-x="547" 
d="M541 0h-116l-188 236h-57v-236h-92v525h92v-239l55 18l179 221h101l-171 -204h1l-54 -39l65 -45z" />
    <glyph glyph-name="afii10077" unicode="&#x43b;" horiz-adv-x="584" 
d="M496 0h-92v447h-170l-2 -30c-18 -265 -42 -421 -170 -421c-29 0 -52 3 -67 9l13 84c9 -3 18 -4 29 -4c64 0 101 75 112 440h347v-525z" />
    <glyph glyph-name="afii10078" unicode="&#x43c;" horiz-adv-x="752" 
d="M664 0h-90v297l6 107h-12l-45 -82l-135 -199h-31l-142 199l-40 82h-11l9 -106v-298h-85v525h96l157 -231l38 -73l42 75l147 229h96v-525z" />
    <glyph glyph-name="afii10079" unicode="&#x43d;" horiz-adv-x="624" 
d="M536 0h-92v229h-264v-229h-92v525h92v-214h264v214h92v-525z" />
    <glyph glyph-name="afii10080" unicode="&#x43e;" horiz-adv-x="631" 
d="M60 262c0 173 93 278 256 278c172 0 255 -119 255 -278c0 -171 -95 -275 -255 -275c-175 0 -256 118 -256 275zM158 262c0 -99 43 -198 159 -198c104 0 156 66 156 198c0 103 -43 200 -156 200c-104 0 -159 -65 -159 -200z" />
    <glyph glyph-name="afii10081" unicode="&#x43f;" horiz-adv-x="618" 
d="M530 0h-92v447h-258v-447h-92v525h442v-525z" />
    <glyph glyph-name="afii10082" unicode="&#x440;" horiz-adv-x="630" 
d="M180 -199h-92v724h62l18 -67h9c36 52 95 82 167 82c152 0 226 -81 226 -266c0 -177 -102 -287 -266 -287c-54 0 -83 9 -124 24v-210zM323 462c-80 0 -123 -39 -143 -122v-242c31 -21 63 -34 119 -34c108 0 173 71 173 211c0 113 -41 187 -149 187z" />
    <glyph glyph-name="afii10083" unicode="&#x441;" horiz-adv-x="529" 
d="M454 103l30 -67c-47 -33 -112 -49 -181 -49c-177 0 -243 110 -243 275c0 177 89 278 250 278c71 0 121 -14 162 -33l-24 -75c-36 19 -78 30 -127 30c-109 0 -163 -67 -163 -200c0 -100 45 -198 170 -198c56 0 98 18 126 39z" />
    <glyph glyph-name="afii10084" unicode="&#x442;" horiz-adv-x="456" 
d="M0 525h456v-78h-182v-447h-92v447h-182v78z" />
    <glyph glyph-name="afii10085" unicode="&#x443;" horiz-adv-x="531" 
d="M8 525h109l134 -332l31 -101h13l25 102l109 331h94l-172 -475c-48 -131 -100 -254 -199 -254c-27 0 -49 3 -68 9l15 78c10 -3 20 -5 30 -5c53 0 87 21 114 120z" />
    <glyph glyph-name="afii10086" unicode="&#x444;" horiz-adv-x="800" 
d="M445 -199h-90v197c-32 -11 -61 -11 -84 -11c-139 0 -217 90 -217 275c0 175 85 273 242 273c19 0 38 -1 59 -6v171h90v-172c35 7 56 7 73 7c151 0 228 -78 228 -262c0 -171 -84 -286 -232 -286c-15 0 -48 3 -69 10v-196zM498 461c-21 0 -32 0 -55 -7v-390
c20 -4 38 -4 61 -4c99 0 148 76 148 213c0 116 -39 188 -154 188zM297 60c17 0 33 1 60 6v388c-24 5 -37 7 -58 7c-96 0 -151 -63 -151 -199c0 -115 45 -202 149 -202z" />
    <glyph glyph-name="afii10087" unicode="&#x445;" horiz-adv-x="592" 
d="M136 0h-106l203 269l-189 256h117l102 -134l35 -71l41 71l106 134h104l-191 -252c67 -89 137 -182 204 -273h-114l-115 149l-40 75l-41 -75z" />
    <glyph glyph-name="afii10088" unicode="&#x446;" horiz-adv-x="630" 
d="M525 78h85v-209h-62l-17 131h-443v525h92v-447h253v447h92v-447z" />
    <glyph glyph-name="afii10089" unicode="&#x447;" horiz-adv-x="574" 
d="M60 371v154h92v-129c0 -84 15 -137 104 -137c68 0 114 18 138 37v229h92v-525h-92v223c-25 -16 -75 -42 -162 -42c-113 0 -172 43 -172 190z" />
    <glyph glyph-name="afii10090" unicode="&#x448;" horiz-adv-x="856" 
d="M768 525v-525h-680v525h92v-447h202v447h92v-447h202v447h92z" />
    <glyph glyph-name="afii10091" unicode="&#x449;" horiz-adv-x="872" 
d="M768 78h84v-216h-61l-17 138h-686v525h92v-447h202v447h92v-447h202v447h92v-447z" />
    <glyph glyph-name="afii10092" unicode="&#x44a;" horiz-adv-x="583" 
d="M227 254v-176c29 -4 57 -6 86 -6c97 0 142 36 142 96c0 53 -43 94 -139 94c-27 0 -58 -1 -89 -8zM6 525h221v-201c43 7 81 8 109 8c158 0 217 -68 217 -156c0 -127 -82 -181 -259 -181c-56 0 -107 1 -159 5v447h-129v78z" />
    <glyph glyph-name="afii10093" unicode="&#x44b;" horiz-adv-x="771" 
d="M180 254v-176c28 -4 57 -6 86 -6c96 0 130 35 130 96c0 53 -34 94 -127 94c-25 0 -58 -1 -89 -8zM88 525h92v-201c43 7 80 8 109 8c156 0 205 -68 205 -156c0 -127 -72 -181 -247 -181c-56 0 -107 1 -159 5v525zM683 0h-92v525h92v-525z" />
    <glyph glyph-name="afii10094" unicode="&#x44c;" horiz-adv-x="535" 
d="M180 254v-176c28 -4 56 -6 85 -6c97 0 142 36 142 96c0 53 -43 94 -139 94c-25 0 -57 -1 -88 -8zM88 525h92v-201c43 7 79 8 107 8c160 0 218 -68 218 -156c0 -127 -81 -181 -260 -181c-56 0 -105 1 -157 5v525z" />
    <glyph glyph-name="afii10095" unicode="&#x44d;" horiz-adv-x="543" 
d="M385 226h-242v78h241c-8 96 -63 158 -167 158c-63 0 -108 -20 -139 -39l-30 68c47 31 106 49 189 49c169 0 246 -105 246 -278c0 -179 -96 -275 -255 -275c-72 0 -140 11 -180 33l25 76c36 -19 90 -32 141 -32c108 0 162 49 171 162z" />
    <glyph glyph-name="afii10096" unicode="&#x44e;" horiz-adv-x="841" 
d="M543 -13c-166 0 -230 98 -241 245h-122v-232h-92v525h92v-215h123c13 145 89 230 242 230c167 0 236 -115 236 -278c0 -173 -78 -275 -238 -275zM394 262c0 -109 33 -198 150 -198c100 0 139 62 139 198c0 108 -31 200 -140 200c-105 0 -149 -63 -149 -200z" />
    <glyph glyph-name="afii10097" unicode="&#x44f;" horiz-adv-x="578" 
d="M490 0h-92v207l-95 -13l-149 -194h-114l132 172v-1l56 38c-93 11 -151 71 -151 151c0 126 100 179 257 179c51 0 109 -7 156 -18v-521zM336 263l62 1v189c-21 7 -52 8 -72 8c-100 0 -151 -31 -151 -100c0 -67 65 -100 161 -98z" />
    <glyph glyph-name="afii10071" unicode="&#x451;" horiz-adv-x="598" 
d="M480 113l35 -70c-47 -35 -119 -56 -200 -56c-177 0 -255 107 -255 275c0 180 92 278 256 278c104 0 218 -37 218 -212c0 -21 -1 -51 -5 -78h-375c3 -123 52 -186 187 -186c56 0 111 22 139 49zM158 316h288c3 107 -46 146 -129 146c-93 0 -150 -39 -159 -146zM141 634
c0 32 23 56 58 56c33 0 56 -24 56 -56c0 -31 -23 -55 -56 -55c-35 0 -58 24 -58 55zM356 634c0 32 22 56 57 56s57 -24 57 -56c0 -31 -22 -55 -57 -55s-57 24 -57 55z" />
    <glyph glyph-name="afii10099" unicode="&#x452;" horiz-adv-x="636" 
d="M97 459h-97v66h97v175h92v-175h168v-66h-168v-162h11c41 48 94 78 177 78c129 0 187 -49 187 -232v-166c0 -124 -42 -182 -143 -182c-13 0 -27 1 -42 3v75c82 -3 93 40 93 128v125c0 111 -26 171 -127 171c-72 0 -140 -53 -156 -128v-169h-92v459z" />
    <glyph glyph-name="afii10100" unicode="&#x453;" horiz-adv-x="426" 
d="M258 570h-56l64 150h104v-23zM88 525h338v-78h-246v-447h-92v525z" />
    <glyph glyph-name="afii10101" unicode="&#x454;" horiz-adv-x="566" 
d="M480 103l26 -68c-47 -31 -116 -48 -185 -48c-176 0 -261 110 -261 275c0 177 109 277 267 277c75 0 128 -12 169 -31l-25 -78c-37 19 -82 31 -131 31c-104 0 -167 -48 -182 -156h265v-78h-265c11 -92 64 -163 191 -163c53 0 100 19 131 39z" />
    <glyph glyph-name="afii10102" unicode="&#x455;" horiz-adv-x="499" 
d="M353 147c0 53 -55 69 -116 87c-77 22 -165 44 -165 152c0 104 65 154 177 154c84 0 138 -19 181 -38l-22 -78c-36 17 -87 38 -147 38c-65 0 -97 -18 -97 -74c0 -44 51 -60 110 -76c79 -21 171 -50 171 -159c0 -99 -67 -166 -200 -166c-85 0 -148 19 -191 42l26 80
c37 -20 101 -45 161 -45c65 0 112 19 112 83z" />
    <glyph glyph-name="afii10103" unicode="&#x456;" horiz-adv-x="317" 
d="M206 0h-92v525h92v-525zM92 651c0 31 26 60 65 60s67 -29 67 -60s-28 -58 -67 -58s-65 27 -65 58z" />
    <glyph glyph-name="afii10104" unicode="&#x457;" horiz-adv-x="337" 
d="M40 629c0 32 20 55 53 55c35 0 53 -23 53 -55c0 -29 -18 -52 -53 -52c-33 0 -53 23 -53 52zM191 629c0 32 19 55 52 55c35 0 54 -23 54 -55c0 -29 -19 -52 -54 -52c-33 0 -52 23 -52 52zM217 0h-92v525h92v-525z" />
    <glyph glyph-name="afii10105" unicode="&#x458;" horiz-adv-x="312" 
d="M90 650c0 31 26 60 65 60s67 -29 67 -60s-28 -58 -67 -58s-65 27 -65 58zM112 15v510h92v-542c0 -129 -46 -192 -154 -192c-11 0 -23 -1 -38 2v76c87 -3 100 48 100 146z" />
    <glyph glyph-name="afii10106" unicode="&#x459;" horiz-adv-x="851" 
d="M149 525h347v-201c43 7 79 8 107 8c160 0 218 -68 218 -156c0 -127 -81 -181 -260 -181c-56 0 -105 1 -157 5v447h-170l-2 -30c-18 -265 -42 -421 -170 -421c-29 0 -52 3 -67 9l13 84c9 -3 18 -4 29 -4c64 0 101 75 112 440zM496 254v-176c28 -4 56 -6 85 -6
c97 0 142 36 142 96c0 53 -43 94 -139 94c-25 0 -57 -1 -88 -8z" />
    <glyph glyph-name="afii10107" unicode="&#x45a;" horiz-adv-x="916" 
d="M547 260v-181c37 -5 69 -7 96 -7c109 0 145 34 145 103c0 59 -34 95 -141 95c-27 0 -61 -2 -100 -10zM455 525h92v-189c49 9 93 12 121 12c164 0 218 -74 218 -165c0 -132 -76 -188 -264 -188c-56 0 -112 5 -167 8v227h-275v-230h-92v525h92v-213h275v213z" />
    <glyph glyph-name="afii10108" unicode="&#x45b;" horiz-adv-x="633" 
d="M94 459h-94v66h94v176h92v-176h171v-66h-171v-162h12c43 48 94 77 177 77c128 0 186 -47 186 -229v-145h-92v124c0 114 -26 172 -127 172c-72 0 -138 -54 -156 -125v-171h-92v459z" />
    <glyph glyph-name="afii10109" unicode="&#x45c;" horiz-adv-x="547" 
d="M297 570h-56l64 150h104v-23zM541 0h-116l-188 236h-57v-236h-92v525h92v-239l55 18l179 221h101l-171 -204h1l-54 -39l65 -45z" />
    <glyph glyph-name="afii10110" unicode="&#x45e;" horiz-adv-x="531" 
d="M111 686l82 26c14 -60 48 -64 95 -64c46 0 82 8 95 63l72 -21c-15 -79 -82 -107 -169 -107c-83 0 -159 24 -175 103zM8 525h109l134 -332l31 -101h13l25 102l109 331h94l-172 -475c-48 -131 -100 -254 -199 -254c-27 0 -49 3 -68 9l15 78c10 -3 20 -5 30 -5
c53 0 87 21 114 120z" />
    <glyph glyph-name="afii10193" unicode="&#x45f;" horiz-adv-x="618" 
d="M88 0v525h92v-447h258v447h92v-525h-169l-16 -177h-63l-22 177h-172z" />
    <glyph glyph-name="afii10146" unicode="&#x462;" horiz-adv-x="682" 
d="M162 545h-162v82h162v75h100v-75h225v-82h-225v-114c16 3 73 9 107 9c139 0 279 -47 279 -212c0 -161 -132 -236 -302 -236c-40 0 -126 3 -184 15v538zM358 77c99 0 184 45 184 144c0 108 -93 133 -188 133c-25 0 -78 -6 -92 -9v-262c19 -5 60 -6 96 -6z" />
    <glyph glyph-name="afii10194" unicode="&#x463;" horiz-adv-x="576" 
d="M129 453h-129v72h129v175h92v-175h185v-72h-185v-129c45 5 82 8 109 8c157 0 216 -68 216 -157c0 -125 -81 -180 -260 -180c-52 0 -106 0 -157 4v454zM221 254v-177c33 -4 61 -5 85 -5c100 0 142 32 142 96c0 57 -42 94 -137 94c-27 0 -58 -1 -90 -8z" />
    <glyph glyph-name="afii10147" unicode="&#x472;" horiz-adv-x="747" 
d="M58 350c0 229 118 363 315 363c212 0 316 -147 316 -363c0 -229 -119 -362 -316 -362c-212 0 -315 146 -315 362zM583 312h-419c11 -134 77 -239 209 -239c120 0 199 75 210 239zM165 396h418c-13 128 -79 231 -210 231c-117 0 -196 -74 -208 -231z" />
    <glyph glyph-name="afii10195" unicode="&#x473;" horiz-adv-x="630" 
d="M60 262c0 176 91 278 256 278c172 0 254 -115 254 -278c0 -175 -93 -275 -254 -275c-177 0 -256 114 -256 275zM157 295h315c-16 111 -71 167 -156 167c-79 0 -151 -43 -159 -167zM470 229h-312c11 -104 74 -165 158 -165c75 0 143 45 154 165z" />
    <glyph glyph-name="afii10148" unicode="&#x474;" horiz-adv-x="659" 
d="M531 518l-191 -527h-51l-293 709h109l189 -466l27 -109h2l18 111l82 251c58 177 96 221 197 221c51 0 76 -9 103 -24l-27 -82c-29 16 -53 18 -76 18c-39 0 -61 -23 -89 -102z" />
    <glyph glyph-name="afii10196" unicode="&#x475;" horiz-adv-x="582" 
d="M474 372l-176 -382h-40l-250 535h106l135 -301l32 -121l8 1l30 121l47 109c49 114 90 200 175 200c27 0 49 -5 69 -12l-15 -78c-15 5 -25 8 -37 8c-28 0 -56 -19 -84 -80z" />
    <glyph glyph-name="uni048A" unicode="&#x48a;" horiz-adv-x="760" 
d="M656 0h-101v463l6 77h-4l-48 -79l-359 -461h-61v700h100v-466l-9 -76h5l50 79l358 463h62v-612h117v-24l-100 -193h-66zM187 850l93 21c7 -48 42 -73 98 -73s91 25 98 72l84 -18c-17 -73 -74 -117 -183 -117c-105 0 -177 34 -190 115z" />
    <glyph glyph-name="uni048B" unicode="&#x48b;" horiz-adv-x="655" 
d="M527 0h-76v300l14 104h-11l-49 -98l-246 -306h-71v525h92v-310l-7 -92h11l46 89l241 313h72v-447h100v-24l-100 -183h-66zM141 686l82 26c14 -60 48 -64 95 -64c46 0 82 8 95 63l72 -21c-15 -79 -82 -107 -169 -107c-83 0 -159 24 -175 103z" />
    <glyph glyph-name="uni048C" unicode="&#x48c;" horiz-adv-x="620" 
d="M100 631h-100v70h100v79h100v-79h157v-70h-157v-198c13 3 74 8 107 8c139 0 279 -45 279 -213c0 -161 -132 -236 -302 -236c-40 0 -126 3 -184 15v624zM200 346v-263c19 -5 60 -6 95 -6c100 0 185 45 185 144c0 107 -93 134 -188 134c-25 0 -78 -6 -92 -9z" />
    <glyph glyph-name="uni048D" unicode="&#x48d;" horiz-adv-x="576" 
d="M129 453h-129v72h129v175h92v-175h185v-72h-185v-129c45 5 82 8 109 8c157 0 216 -68 216 -157c0 -125 -81 -180 -260 -180c-52 0 -106 0 -157 4v454zM221 254v-177c33 -4 61 -5 85 -5c100 0 142 32 142 96c0 57 -42 94 -137 94c-27 0 -58 -1 -90 -8z" />
    <glyph glyph-name="uni048E" unicode="&#x48e;" horiz-adv-x="614" 
d="M189 0h-100v693c56 12 125 16 189 16c135 0 297 -39 297 -218c0 -100 -50 -163 -122 -198l73 -102l-55 -39l-83 118c-35 -9 -73 -13 -110 -13c-16 0 -73 2 -89 5v-262zM339 348l-65 90l48 33l73 -106c43 20 74 57 74 125c0 108 -100 133 -188 133c-36 0 -73 -1 -92 -6
v-269c13 -5 67 -5 82 -5c23 0 45 1 68 5z" />
    <glyph glyph-name="uni048F" unicode="&#x48f;" horiz-adv-x="630" 
d="M180 -199h-92v724h62l18 -67h9c36 52 95 82 167 82c152 0 226 -81 226 -266c0 -88 -26 -158 -71 -209l67 -73l-58 -54l-72 78c-39 -18 -81 -29 -132 -29c-54 0 -83 9 -124 24v-210zM384 83l-64 68l52 43l60 -68c25 35 40 85 40 149c0 113 -41 187 -149 187
c-80 0 -123 -39 -143 -122v-242c31 -21 63 -34 119 -34c33 0 62 6 85 19z" />
    <glyph glyph-name="afii10050" unicode="&#x490;" horiz-adv-x="486" 
d="M89 0v700h331l18 138h66v-226h-315v-612h-100z" />
    <glyph glyph-name="afii10098" unicode="&#x491;" horiz-adv-x="426" 
d="M88 0v525h254l18 138h66v-216h-246v-447h-92z" />
    <glyph glyph-name="uni0492" unicode="&#x492;" horiz-adv-x="532" 
d="M114 700h415v-88h-315v-226h237v-74h-237v-312h-100v312h-105v74h105v314z" />
    <glyph glyph-name="uni0493" unicode="&#x493;" horiz-adv-x="448" 
d="M86 525h338v-78h-246v-159h219v-70h-219v-218h-92v218h-86v70h86v237z" />
    <glyph glyph-name="uni0494" unicode="&#x494;" horiz-adv-x="632" 
d="M189 274v-274h-100v700h415v-88h-315v-252c19 5 69 21 149 21c116 0 237 -52 237 -244c0 -179 -91 -264 -258 -264c-47 0 -64 1 -75 4v87c17 -3 37 -3 77 -3c97 0 150 53 150 169c0 129 -74 165 -162 165c-49 0 -104 -15 -118 -21z" />
    <glyph glyph-name="uni0495" unicode="&#x495;" horiz-adv-x="616" 
d="M180 180v-180h-92v525h335v-78h-243v-185c39 11 84 24 153 24c119 0 223 -62 223 -243c0 -179 -76 -267 -252 -267c-36 0 -63 4 -76 5v78c13 -1 51 -5 79 -5c108 0 155 70 155 178c0 117 -60 174 -161 174c-53 0 -100 -18 -121 -26z" />
    <glyph glyph-name="uni0496" unicode="&#x496;" horiz-adv-x="897" 
d="M343 390h49v310h94v-322l46 14l213 308h111l-216 -304l-45 -33l56 -41l173 -234h67v-215h-69l-16 127h-37l-234 320h-49v-320h-94v332l-46 -14l-233 -318h-114l235 312l53 38l-51 36l-223 314h116z" />
    <glyph glyph-name="uni0497" unicode="&#x497;" horiz-adv-x="800" 
d="M707 0h-50l-164 236h-65v-236h-90v248l-60 -16l-164 -232h-108l175 237l45 35l-63 43l-144 210h100l153 -227h66v227h90v-238l60 16l154 222h99l-151 -209l-48 -38l62 -44l106 -156h78v-201h-65z" />
    <glyph glyph-name="uni0498" unicode="&#x498;" horiz-adv-x="589" 
d="M203 327h-54v78h17c24 0 83 1 107 5c72 10 130 47 130 108c0 82 -67 108 -148 108c-77 0 -136 -14 -167 -29l-27 80c26 16 116 35 209 35c117 0 239 -41 239 -173c0 -67 -47 -133 -143 -160v-4c103 -15 166 -72 166 -168c0 -136 -116 -207 -243 -217l-15 -167h-63
l-21 167c-67 4 -114 13 -146 26l25 88c35 -15 95 -29 183 -29c83 0 174 38 174 129c0 80 -65 114 -176 121c-17 1 -28 2 -47 2z" />
    <glyph glyph-name="uni0499" unicode="&#x499;" horiz-adv-x="516" 
d="M210 233h-62v70h77c59 0 114 34 114 79c0 56 -41 74 -125 74c-59 0 -109 -16 -140 -29l-25 70c43 25 108 37 195 37c125 0 190 -45 190 -129c0 -44 -36 -101 -100 -120v-11c91 -16 122 -60 122 -129c0 -76 -61 -138 -185 -152l-15 -170h-63l-21 168c-55 4 -91 13 -124 29
l24 74c36 -19 88 -26 148 -26c92 0 138 29 138 86c0 52 -39 79 -148 79z" />
    <glyph glyph-name="uni049A" unicode="&#x49a;" horiz-adv-x="673" 
d="M579 0h-70l-271 318h-49v-318h-100v700h100v-322l46 14l252 308h114l-252 -300l-47 -34l55 -40l203 -238h104v-215h-69z" />
    <glyph glyph-name="uni049B" unicode="&#x49b;" horiz-adv-x="564" 
d="M88 0v525h92v-239l55 18l179 221h101l-171 -204h1l-54 -39l65 -45l121 -159h72v-201h-65l-16 123h-43l-188 236h-57v-236h-92z" />
    <glyph glyph-name="uni049C" unicode="&#x49c;" horiz-adv-x="753" 
d="M323 190h-76v128h-58v-318h-100v700h100v-322l58 4v128h76v-121l25 3l226 308h112l-229 -300l-48 -34l56 -39l254 -327h-122l-247 318h-27v-128z" />
    <glyph glyph-name="uni049D" unicode="&#x49d;" horiz-adv-x="650" 
d="M315 110h-63v123h-72v-233h-92v526h92v-249l72 6v139h63v-133l43 5l137 231h90l-118 -202l-66 -46l74 -52l159 -225h-105l-166 233h-48v-123z" />
    <glyph glyph-name="uni049E" unicode="&#x49e;" horiz-adv-x="732" 
d="M151 556h-151v82h151v62h100v-62h128v-78h-128v-182l55 14l246 308h112l-246 -300l-52 -34l58 -39l274 -327h-126l-268 318h-53v-318h-100v556z" />
    <glyph glyph-name="uni049F" unicode="&#x49f;" horiz-adv-x="566" 
d="M97 549h-97v66h97v85h92v-85h168v-66h-168v-263l52 17l174 222h108l-167 -203h1l-55 -40l63 -45l185 -237h-116l-188 236h-57v-236h-92v549z" />
    <glyph glyph-name="uni04A0" unicode="&#x4a0;" horiz-adv-x="756" 
d="M0 612v88h275v-322l46 14l252 308h114l-251 -300l-48 -34l56 -40l277 -326h-126l-271 318h-49v-318h-100v612h-175z" />
    <glyph glyph-name="uni04A1" unicode="&#x4a1;" horiz-adv-x="587" 
d="M0 525h221v-238l55 17l179 221h101l-171 -203l-54 -42l67 -44l183 -236h-115l-188 236h-57v-236h-92v447h-129v78z" />
    <glyph glyph-name="uni04A2" unicode="&#x4a2;" horiz-adv-x="770" 
d="M656 0h-112v313h-355v-313h-100v700h100v-299h355v299h100v-612h97v-215h-69z" />
    <glyph glyph-name="uni04A3" unicode="&#x4a3;" horiz-adv-x="629" 
d="M528 0h-84v229h-264v-229h-92v525h92v-214h264v214h92v-447h73v-201h-65z" />
    <glyph glyph-name="uni04A4" unicode="&#x4a4;" horiz-adv-x="941" 
d="M544 700h415v-88h-315v-612h-100v313h-355v-313h-100v700h100v-299h355v299z" />
    <glyph glyph-name="uni04A5" unicode="&#x4a5;" horiz-adv-x="777" 
d="M536 0h-92v229h-264v-229h-92v525h92v-214h264v214h333v-78h-241v-447z" />
    <glyph glyph-name="uni04A6" unicode="&#x4a6;" horiz-adv-x="1073" 
d="M630 274v-49v-225h-100v612h-341v-612h-100v700h541v-340c19 5 70 21 150 21c115 0 237 -52 237 -244c0 -179 -94 -264 -258 -264c-47 0 -64 1 -75 4v85c17 -3 37 -3 77 -3c97 0 150 54 150 171c0 130 -74 165 -162 165c-49 0 -103 -16 -119 -21z" />
    <glyph glyph-name="uni04A7" unicode="&#x4a7;" horiz-adv-x="960" 
d="M530 184v-184h-92v447h-256v-447h-94v525h442v-265c40 12 86 25 151 25c117 0 225 -62 225 -242s-77 -266 -249 -266c-39 0 -66 8 -78 9v77c12 0 44 -8 79 -8c108 0 154 66 154 178c0 118 -67 174 -160 174c-47 0 -90 -14 -122 -23z" />
    <glyph glyph-name="uni04A8" unicode="&#x4a8;" horiz-adv-x="899" 
d="M387 713v-86c-132 0 -223 -92 -223 -274c0 -159 108 -280 247 -280c15 0 36 1 51 6c-91 51 -145 163 -145 284c0 204 113 317 258 317c162 0 250 -110 250 -282c0 -160 -81 -277 -170 -323c7 -1 14 -2 22 -2c55 0 97 13 125 32l30 -79c-27 -23 -65 -38 -142 -38
c-48 0 -102 14 -134 33c-41 -22 -90 -33 -145 -33c-219 0 -353 143 -353 362c0 228 125 363 329 363zM423 358c0 -89 46 -200 142 -251c77 40 154 144 154 285c0 110 -39 202 -141 202c-83 0 -155 -71 -155 -236z" />
    <glyph glyph-name="uni04A9" unicode="&#x4a9;" horiz-adv-x="782" 
d="M312 541v-78c-103 -6 -154 -72 -154 -199c0 -105 61 -200 184 -200c16 0 41 1 66 16c-59 36 -102 106 -102 206c0 96 45 239 210 239c145 0 201 -100 201 -224c0 -102 -72 -192 -144 -232c21 -7 40 -9 55 -9c28 0 59 6 90 31c11 -25 18 -41 22 -58l2 -8
c-28 -23 -74 -38 -129 -38c-44 0 -91 17 -123 41c-49 -31 -109 -41 -160 -41c-172 0 -270 114 -270 274c0 171 83 272 252 280zM400 272c0 -79 40 -148 100 -185c64 35 119 113 119 212c0 72 -34 148 -105 148c-92 0 -114 -94 -114 -175z" />
    <glyph glyph-name="uni04AA" unicode="&#x4aa;" horiz-adv-x="624" 
d="M560 106l24 -76c-37 -27 -93 -38 -156 -41l-15 -166h-63l-21 170c-151 23 -271 137 -271 357c0 261 177 363 335 363c88 0 140 -10 179 -25l-22 -84c-33 15 -82 23 -149 23c-120 0 -237 -75 -237 -277c0 -181 107 -276 250 -276c65 0 113 13 146 32z" />
    <glyph glyph-name="uni04AB" unicode="&#x4ab;" horiz-adv-x="529" 
d="M454 105l30 -69c-39 -27 -87 -42 -142 -47l-15 -166h-63l-21 169c-133 23 -183 125 -183 270c0 177 89 278 250 278c71 0 121 -14 162 -33l-24 -75c-36 19 -78 30 -127 30c-109 0 -163 -67 -163 -200c0 -100 45 -196 170 -196c56 0 98 18 126 39z" />
    <glyph glyph-name="uni04AC" unicode="&#x4ac;" horiz-adv-x="610" 
d="M367 0h-112v612h-236v88h572v-88h-236v-524h97v-215h-69z" />
    <glyph glyph-name="uni04AD" unicode="&#x4ad;" horiz-adv-x="456" 
d="M270 0h-88v447h-182v78h456v-78h-182v-369h77v-201h-65z" />
    <glyph glyph-name="uni04AE" unicode="&#x4ae;" horiz-adv-x="617" 
d="M361 0h-100v274l-254 426h117l175 -297l17 -64h2l19 66l167 295h106l-249 -425v-275z" />
    <glyph glyph-name="uni04AF" unicode="&#x4af;" horiz-adv-x="551" 
d="M235 -200v199l-227 526h107l136 -336l31 -125h8l31 126l122 335h100l-216 -526v-199h-92z" />
    <glyph glyph-name="uni04B0" unicode="&#x4b0;" horiz-adv-x="617" 
d="M261 217h-166v70h158l-246 413h117l175 -297l17 -64h2l19 66l167 295h106l-242 -413h159v-70h-166v-217h-100v217z" />
    <glyph glyph-name="uni04B1" unicode="&#x4b1;" horiz-adv-x="551" 
d="M235 -64h-135v65h133l-225 524h107l136 -336l31 -125h8l31 126l122 335h100l-215 -524h134v-65h-135v-136h-92v136z" />
    <glyph glyph-name="uni04B2" unicode="&#x4b2;" horiz-adv-x="710" 
d="M136 0h-110l253 356l-231 344h119l151 -230l27 -58l26 58l158 230h110l-238 -337l188 -275h112v-215h-69l-16 127h-83l-167 244l-31 61l-28 -61z" />
    <glyph glyph-name="uni04B3" unicode="&#x4b3;" horiz-adv-x="591" 
d="M494 0h-46l-115 149l-40 75l-41 -75l-116 -149h-106l203 269l-189 256h117l102 -134l35 -71l41 71l106 134h104l-191 -252c47 -64 95 -131 143 -195h74v-201h-65z" />
    <glyph glyph-name="uni04B4" unicode="&#x4b4;" horiz-adv-x="918" 
d="M788 88h101v-215h-69l-16 127h-549v612h-236v88h529v-88h-193v-524h333v612h100v-612z" />
    <glyph glyph-name="uni04B5" unicode="&#x4b5;" horiz-adv-x="720" 
d="M615 78h85v-209h-61l-19 131h-440v447h-180v78h441v-78h-169v-369h251v447h92v-447z" />
    <glyph glyph-name="uni04B6" unicode="&#x4b6;" horiz-adv-x="700" 
d="M76 458v242h100v-221c0 -89 41 -140 133 -140c68 0 129 17 165 44v317h100v-612h97v-215h-69l-16 127h-112v298c-39 -21 -105 -45 -189 -45c-125 0 -209 57 -209 205z" />
    <glyph glyph-name="uni04B7" unicode="&#x4b7;" horiz-adv-x="577" 
d="M60 371v154h92v-129c0 -84 15 -137 104 -137c68 0 114 18 138 37v229h92v-447h71v-201h-65l-16 123h-82v223c-25 -16 -75 -42 -162 -42c-113 0 -172 43 -172 190z" />
    <glyph glyph-name="uni04B8" unicode="&#x4b8;" horiz-adv-x="675" 
d="M372 140h-76v113h-11c-123 0 -209 49 -209 201v246h100v-225c0 -87 40 -132 120 -136v121h76v-117c47 7 87 21 114 40v317h100v-700h-100v298c-25 -13 -66 -28 -114 -37v-121z" />
    <glyph glyph-name="uni04B9" unicode="&#x4b9;" horiz-adv-x="605" 
d="M323 74h-64v123h-23c-113 0 -176 43 -176 186v142h92v-109c0 -91 13 -144 107 -147v142h64v-138c47 8 82 23 102 39v213h92v-525h-92v243c-19 -13 -51 -29 -102 -38v-131z" />
    <glyph glyph-name="uni04BA" unicode="&#x4ba;" horiz-adv-x="662" 
d="M586 250v-250h-100v228c0 89 -44 133 -132 133c-68 0 -129 -17 -165 -45v-316h-100v700h100v-298c39 21 104 45 188 45c122 0 209 -51 209 -197z" />
    <glyph glyph-name="uni04BB" unicode="&#x4bb;" horiz-adv-x="641" 
d="M553 310v-310h-92v290c0 115 -26 168 -126 168c-70 0 -137 -49 -155 -123v-335h-92v700h92v-240h11c40 48 93 80 176 80c128 0 186 -50 186 -230z" />
    <glyph glyph-name="uni04BC" unicode="&#x4bc;" horiz-adv-x="862" 
d="M783 310h-473c12 -158 95 -237 248 -237c65 0 123 22 162 45l25 -79c-51 -28 -117 -51 -206 -51c-192 0 -318 98 -329 322h-39c-125 0 -171 62 -169 134c1 39 9 58 28 74h91c-23 -16 -29 -45 -29 -64c0 -26 11 -61 86 -61c11 0 20 1 32 2c11 203 116 318 303 318
c184 0 280 -107 280 -294c0 -35 -3 -70 -10 -109zM309 396h381c3 16 3 32 3 47c0 99 -53 184 -178 184c-131 0 -199 -79 -206 -231z" />
    <glyph glyph-name="uni04BD" unicode="&#x4bd;" horiz-adv-x="711" 
d="M593 113l35 -70c-47 -35 -119 -56 -200 -56c-173 0 -252 101 -255 263h-3c-104 0 -171 41 -169 140c1 39 21 66 40 86h75c-19 -20 -34 -48 -34 -83c0 -44 18 -75 94 -75c19 145 106 222 253 222c104 0 218 -37 218 -212c0 -21 -1 -51 -5 -78h-375
c3 -123 52 -186 187 -186c56 0 111 22 139 49zM271 316h288c3 107 -46 146 -129 146c-93 0 -150 -39 -159 -146z" />
    <glyph glyph-name="uni04BE" unicode="&#x4be;" horiz-adv-x="862" 
d="M783 310h-473c12 -157 95 -236 248 -236c65 0 123 21 162 44l25 -79c-45 -27 -105 -46 -181 -50l-15 -166h-63l-21 171c-152 22 -246 121 -255 316h-39c-125 0 -171 62 -169 134c1 39 9 58 28 74h91c-23 -16 -29 -45 -29 -64c0 -26 11 -61 86 -61c11 0 20 1 32 2
c11 203 116 318 303 318c184 0 280 -107 280 -294c0 -35 -3 -70 -10 -109zM309 396h381c3 16 3 32 3 47c0 99 -53 184 -178 184c-131 0 -199 -79 -206 -231z" />
    <glyph glyph-name="uni04BF" unicode="&#x4bf;" horiz-adv-x="711" 
d="M642 250h-375c3 -123 52 -184 187 -184c56 0 111 22 139 49l35 -72c-39 -31 -97 -49 -165 -54l-15 -175h-63l-22 178c-128 22 -187 116 -190 259h-3c-104 0 -171 40 -169 139c1 39 21 66 40 86h75c-19 -20 -34 -48 -34 -83c0 -44 18 -76 94 -76c19 145 106 223 253 223
c104 0 218 -37 218 -212c0 -21 -1 -51 -5 -78zM271 316h288c3 107 -46 146 -129 146c-93 0 -150 -39 -159 -146z" />
    <glyph glyph-name="uni04C0" unicode="&#x4c0;" horiz-adv-x="398" 
d="M69 66h80v568h-80v66h260v-66h-80v-568h80v-66h-260v66z" />
    <glyph glyph-name="uni04C3" unicode="&#x4c3;" horiz-adv-x="658" 
d="M480 72c0 168 -74 246 -243 246h-48v-318h-100v700h100v-322l46 14l252 308h114l-242 -284l-63 -39h68c153 -35 216 -115 216 -299v-19c0 -191 -86 -268 -215 -268c-12 0 -25 1 -38 2v86c113 -3 153 47 153 193z" />
    <glyph glyph-name="uni04C4" unicode="&#x4c4;" horiz-adv-x="559" 
d="M419 34c0 147 -64 182 -183 182h-56v-216h-92v525h92v-250l55 19l178 231h101l-171 -213l-52 -37c53 -5 55 -6 61 -6c126 -32 159 -129 159 -214v-19c0 -170 -84 -242 -199 -242c-11 0 -25 1 -43 3v75c95 -7 150 50 150 162z" />
    <glyph glyph-name="uni04C5" unicode="&#x4c5;" horiz-adv-x="684" 
d="M580 0h-86v612h-220c-13 -263 -32 -432 -85 -529c-35 -64 -82 -87 -131 -87c-28 0 -43 3 -61 9l12 84c31 -8 67 -4 96 46c40 70 69 228 77 565h412v-612h102v-24l-100 -193h-66z" />
    <glyph glyph-name="uni04C6" unicode="&#x4c6;" horiz-adv-x="596" 
d="M468 0h-64v447h-170l-2 -30c-18 -265 -42 -421 -170 -421c-29 0 -52 3 -67 9l13 84c9 -3 18 -4 29 -4c64 0 101 75 112 440h347v-447h88v-24l-100 -183h-66z" />
    <glyph glyph-name="uni04C7" unicode="&#x4c7;" horiz-adv-x="733" 
d="M544 700h100v-700v-23c0 -124 -44 -186 -147 -186c-13 0 -25 1 -40 4v84c83 -3 87 33 87 121v313h-355v-313h-100v700h100v-299h355v299z" />
    <glyph glyph-name="uni04C8" unicode="&#x4c8;" horiz-adv-x="624" 
d="M88 0v525h92v-214h264v214h92v-548c0 -124 -42 -182 -143 -182c-13 0 -27 1 -42 3v75c82 -3 93 39 93 127v229h-264v-229h-92z" />
    <glyph glyph-name="uni04C9" unicode="&#x4c9;" horiz-adv-x="745" 
d="M641 0h-97v313h-355v-313h-100v700h100v-299h355v299h100v-612h113v-24l-100 -193h-66z" />
    <glyph glyph-name="uni04CA" unicode="&#x4ca;" horiz-adv-x="638" 
d="M510 0h-66v229h-264v-229h-92v525h92v-214h264v214h92v-447h90v-24l-100 -183h-66z" />
    <glyph glyph-name="uni04CB" unicode="&#x4cb;" horiz-adv-x="663" 
d="M76 458v242h100v-221c0 -89 41 -140 133 -140c68 0 129 17 165 44v317h100v-700h-113l-16 -127h-69v215h98v210c-39 -21 -105 -45 -189 -45c-125 0 -209 57 -209 205z" />
    <glyph glyph-name="uni04CC" unicode="&#x4cc;" horiz-adv-x="572" 
d="M297 78h95v148c-33 -15 -88 -37 -161 -37c-113 0 -171 45 -171 177v159h92v-128c0 -80 13 -130 101 -130c68 0 112 17 139 36v222h92v-525h-109l-20 -133h-58v211z" />
    <glyph glyph-name="uni04CD" unicode="&#x4cd;" horiz-adv-x="884" 
d="M780 0h-101v451l11 112h-4l-43 -97l-195 -310h-30l-205 311l-41 95h-5l16 -110v-452h-94v700h75l237 -357l37 -76h2l35 78l225 355h79v-612h117v-24l-100 -193h-66z" />
    <glyph glyph-name="uni04CE" unicode="&#x4ce;" horiz-adv-x="768" 
d="M640 0h-66v297l6 107h-12l-45 -82l-135 -199h-31l-142 199l-40 82h-11l9 -106v-298h-85v525h96l157 -231l38 -73l42 75l147 229h96v-447h92v-24l-100 -183h-66z" />
    <glyph glyph-name="uni04CF" unicode="&#x4cf;" horiz-adv-x="279" 
d="M187 0h-95v700h95v-700z" />
    <glyph glyph-name="uni04D0" unicode="&#x4d0;" horiz-adv-x="645" 
d="M131 850l93 21c7 -48 42 -73 98 -73s91 25 98 72l84 -18c-17 -73 -74 -117 -183 -117c-105 0 -177 34 -190 115zM637 0h-104l-76 183h-277l-74 -183h-98l288 710h52zM318 573l-27 -109l-81 -197h218l-81 199l-27 107h-2z" />
    <glyph glyph-name="uni04D1" unicode="&#x4d1;" horiz-adv-x="582" 
d="M104 686l82 26c14 -60 48 -64 95 -64c46 0 82 8 95 63l72 -21c-15 -79 -82 -107 -169 -107c-83 0 -159 24 -175 103zM107 415l-25 77c60 29 134 43 223 43c160 0 186 -91 186 -167c0 -73 -8 -144 -8 -231c0 -51 4 -99 15 -138h-67l-25 79h-10c-30 -40 -83 -85 -181 -85
s-170 56 -170 147c0 121 114 173 219 173c83 0 109 -6 131 -9c3 20 4 31 4 54c0 75 -29 99 -118 99c-52 0 -125 -17 -174 -42zM395 158v80c-21 3 -45 9 -117 9c-83 0 -135 -26 -135 -97c0 -53 42 -80 102 -80c89 0 134 49 150 88z" />
    <glyph glyph-name="uni04D2" unicode="&#x4d2;" horiz-adv-x="645" 
d="M152 795c0 31 23 49 62 49c37 0 62 -18 62 -49c0 -29 -25 -49 -62 -49c-39 0 -62 20 -62 49zM366 795c0 31 24 49 61 49c39 0 63 -18 63 -49c0 -29 -24 -49 -63 -49c-37 0 -61 20 -61 49zM637 0h-104l-76 183h-277l-74 -183h-98l288 710h52zM318 573l-27 -109l-81 -197
h218l-81 199l-27 107h-2z" />
    <glyph glyph-name="uni04D3" unicode="&#x4d3;" horiz-adv-x="582" 
d="M107 415l-25 77c60 29 134 43 223 43c160 0 186 -91 186 -167c0 -73 -8 -144 -8 -231c0 -51 4 -99 15 -138h-67l-25 79h-10c-30 -40 -83 -85 -181 -85s-170 56 -170 147c0 121 114 173 219 173c83 0 109 -6 131 -9c3 20 4 31 4 54c0 75 -29 99 -118 99
c-52 0 -125 -17 -174 -42zM395 158v80c-21 3 -45 9 -117 9c-83 0 -135 -26 -135 -97c0 -53 42 -80 102 -80c89 0 134 49 150 88zM119 635c0 32 23 56 58 56c33 0 56 -24 56 -56c0 -31 -23 -55 -56 -55c-35 0 -58 24 -58 55zM334 635c0 32 22 56 57 56s57 -24 57 -56
c0 -31 -22 -55 -57 -55s-57 24 -57 55z" />
    <glyph glyph-name="uni04D4" unicode="&#x4d4;" horiz-adv-x="929" 
d="M433 273v318h-4l-38 -106l-136 -212h178zM861 0h-428v189h-230l-120 -189h-107l455 700h425v-86h-323v-213h295v-86h-295v-229h328v-86z" />
    <glyph glyph-name="uni04D5" unicode="&#x4d5;" horiz-adv-x="930" 
d="M397 151v85c-23 3 -48 1 -71 1c-96 0 -183 -19 -183 -88c0 -48 42 -81 102 -81c87 0 134 46 152 83zM432 92h-11c-40 -48 -104 -99 -206 -99c-98 0 -170 54 -170 146c0 120 115 161 284 161c20 0 46 -2 69 1v3c2 16 3 34 3 53c0 75 -32 100 -120 100
c-48 0 -124 -15 -173 -34l-25 66c56 28 136 46 223 46c76 0 130 -27 159 -70c43 51 118 75 183 75c107 0 218 -36 218 -213c0 -19 0 -40 -4 -75h-376c3 -120 54 -191 188 -191c51 0 106 18 139 43l33 -61c-45 -33 -123 -56 -198 -56c-93 0 -177 38 -216 105zM490 318h287
c3 107 -48 144 -128 144c-92 0 -146 -40 -159 -144z" />
    <glyph glyph-name="uni04D6" unicode="&#x4d6;" horiz-adv-x="585" 
d="M111 850l93 21c7 -48 42 -73 98 -73s91 25 98 72l84 -18c-17 -73 -74 -117 -183 -117c-105 0 -177 34 -190 115zM517 0h-428v700h423v-86h-323v-213h295v-86h-295v-229h328v-86z" />
    <glyph glyph-name="uni04D7" unicode="&#x4d7;" horiz-adv-x="598" 
d="M141 686l82 26c14 -60 48 -64 95 -64c46 0 82 8 95 63l72 -21c-15 -79 -82 -107 -169 -107c-83 0 -159 24 -175 103zM480 113l35 -70c-47 -35 -119 -56 -200 -56c-177 0 -255 107 -255 275c0 180 92 278 256 278c104 0 218 -37 218 -212c0 -21 -1 -51 -5 -78h-375
c3 -123 52 -186 187 -186c56 0 111 22 139 49zM158 316h288c3 107 -46 146 -129 146c-93 0 -150 -39 -159 -146z" />
    <glyph glyph-name="uni04D8" unicode="&#x4d8;" horiz-adv-x="698" 
d="M540 313h-377c-3 -16 -4 -32 -4 -48c0 -99 55 -192 178 -192c129 0 202 79 203 240zM66 397h474c-12 157 -83 230 -230 230c-68 0 -139 -26 -170 -44l-23 80c43 25 121 50 212 50c196 0 311 -106 311 -363c0 -231 -101 -362 -305 -362c-184 0 -280 115 -280 296
c0 35 4 73 11 113z" />
    <glyph glyph-name="afii10846" unicode="&#x4d9;" horiz-adv-x="599" 
d="M116 415l-32 66c48 35 119 58 198 58c179 0 257 -114 257 -277c0 -172 -92 -275 -247 -275c-115 0 -228 51 -228 231c0 19 1 46 5 74h375c-13 121 -52 169 -187 169c-52 0 -109 -22 -141 -46zM293 64c87 0 147 58 148 162h-283c-4 -112 51 -162 135 -162z" />
    <glyph glyph-name="uni04DA" unicode="&#x4da;" horiz-adv-x="698" 
d="M172 795c0 31 23 49 62 49c37 0 62 -18 62 -49c0 -29 -25 -49 -62 -49c-39 0 -62 20 -62 49zM386 795c0 31 24 49 61 49c39 0 63 -18 63 -49c0 -29 -24 -49 -63 -49c-37 0 -61 20 -61 49zM540 313h-377c-3 -16 -4 -32 -4 -48c0 -99 55 -192 178 -192
c129 0 202 79 203 240zM66 397h474c-12 157 -83 230 -230 230c-68 0 -139 -26 -170 -44l-23 80c43 25 121 50 212 50c196 0 311 -106 311 -363c0 -231 -101 -362 -305 -362c-184 0 -280 115 -280 296c0 35 4 73 11 113z" />
    <glyph glyph-name="uni04DB" unicode="&#x4db;" horiz-adv-x="599" 
d="M131 635c0 32 23 56 58 56c33 0 56 -24 56 -56c0 -31 -23 -55 -56 -55c-35 0 -58 24 -58 55zM346 635c0 32 22 56 57 56s57 -24 57 -56c0 -31 -22 -55 -57 -55s-57 24 -57 55zM116 415l-32 66c48 35 119 58 198 58c179 0 257 -114 257 -277c0 -172 -92 -275 -247 -275
c-115 0 -228 51 -228 231c0 19 1 46 5 74h375c-13 121 -52 169 -187 169c-52 0 -109 -22 -141 -46zM293 64c87 0 147 58 148 162h-283c-4 -112 51 -162 135 -162z" />
    <glyph glyph-name="uni04DC" unicode="&#x4dc;" horiz-adv-x="888" 
d="M271 795c0 31 23 49 62 49c37 0 62 -18 62 -49c0 -29 -25 -49 -62 -49c-39 0 -62 20 -62 49zM485 795c0 31 24 49 61 49c39 0 63 -18 63 -49c0 -29 -24 -49 -63 -49c-37 0 -61 20 -61 49zM343 390h49v310h94v-322l46 14l213 308h111l-216 -304l-45 -33l56 -41l239 -322
h-121l-234 320h-49v-320h-94v332l-46 -14l-233 -318h-114l235 312l53 38l-51 36l-223 314h116z" />
    <glyph glyph-name="uni04DD" unicode="&#x4dd;" horiz-adv-x="774" 
d="M218 635c0 32 23 56 58 56c33 0 56 -24 56 -56c0 -31 -23 -55 -56 -55c-35 0 -58 24 -58 55zM433 635c0 32 22 56 57 56s57 -24 57 -56c0 -31 -22 -55 -57 -55s-57 24 -57 55zM338 0v248l-60 -16l-164 -232h-108l175 237l45 35l-63 43l-144 210h100l153 -227h66v227h90
v-238l60 16l154 222h99l-151 -209l-48 -38l62 -44l164 -234h-111l-164 236h-65v-236h-90z" />
    <glyph glyph-name="uni04DE" unicode="&#x4de;" horiz-adv-x="589" 
d="M95 795c0 31 23 49 62 49c37 0 62 -18 62 -49c0 -29 -25 -49 -62 -49c-39 0 -62 20 -62 49zM309 795c0 31 24 49 61 49c39 0 63 -18 63 -49c0 -29 -24 -49 -63 -49c-37 0 -61 20 -61 49zM203 327h-54v78h17c24 0 83 1 107 5c72 10 130 47 130 108c0 82 -67 108 -148 108
c-77 0 -136 -14 -167 -29l-27 80c26 16 116 35 209 35c117 0 239 -41 239 -173c0 -67 -47 -133 -143 -160v-4c103 -15 166 -72 166 -168c0 -152 -145 -219 -288 -219c-96 0 -160 12 -200 28l25 86c35 -15 95 -29 183 -29c83 0 174 41 174 131c0 80 -65 114 -176 121
c-17 1 -28 2 -47 2z" />
    <glyph glyph-name="uni04DF" unicode="&#x4df;" horiz-adv-x="516" 
d="M68 635c0 32 23 56 58 56c33 0 56 -24 56 -56c0 -31 -23 -55 -56 -55c-35 0 -58 24 -58 55zM283 635c0 32 22 56 57 56s57 -24 57 -56c0 -31 -22 -55 -57 -55s-57 24 -57 55zM210 233h-62v70h77c59 0 114 34 114 79c0 56 -41 74 -125 74c-59 0 -109 -16 -140 -29l-25 70
c43 25 108 37 195 37c125 0 190 -45 190 -129c0 -44 -36 -101 -100 -120v-11c91 -16 122 -60 122 -129c0 -88 -80 -155 -241 -155c-79 0 -126 10 -167 30l24 73c36 -19 88 -26 148 -26c92 0 138 29 138 87c0 52 -39 79 -148 79z" />
    <glyph glyph-name="uni04E0" unicode="&#x4e0;" horiz-adv-x="614" 
d="M251 73c107 0 192 47 192 135c0 92 -77 128 -210 128h-95v34l197 209l48 43l-67 -10h-255v88h457v-41l-213 -225l-40 -30v-3l40 9c144 0 241 -74 241 -196c0 -144 -127 -226 -295 -226c-63 0 -155 16 -194 37l24 86c32 -18 115 -38 170 -38z" />
    <glyph glyph-name="uni04E1" unicode="&#x4e1;" horiz-adv-x="525" 
d="M198 -148c105 0 187 58 187 148c0 97 -72 142 -192 142h-80v30l161 227l63 55l-89 -7h-220v78h417v-37l-181 -238l-50 -42l49 7c116 0 214 -83 214 -202c0 -150 -124 -239 -284 -239c-65 0 -121 12 -169 33l25 74c40 -17 88 -29 149 -29z" />
    <glyph glyph-name="uni04E2" unicode="&#x4e2;" horiz-adv-x="744" 
d="M554 758h-350v68h350v-68zM655 0h-100v463l6 77h-4l-48 -79l-359 -461h-61v700h100v-466l-9 -76h5l50 79l358 463h62v-700z" />
    <glyph glyph-name="uni04E3" unicode="&#x4e3;" horiz-adv-x="631" 
d="M471 597h-328v69h328v-69zM543 0h-92v300l14 104h-11l-49 -98l-246 -306h-71v525h92v-310l-7 -92h11l46 89l241 313h72v-525z" />
    <glyph glyph-name="uni04E4" unicode="&#x4e4;" horiz-adv-x="744" 
d="M203 795c0 31 23 49 62 49c37 0 62 -18 62 -49c0 -29 -25 -49 -62 -49c-39 0 -62 20 -62 49zM417 795c0 31 24 49 61 49c39 0 63 -18 63 -49c0 -29 -24 -49 -63 -49c-37 0 -61 20 -61 49zM655 0h-100v463l6 77h-4l-48 -79l-359 -461h-61v700h100v-466l-9 -76h5l50 79
l358 463h62v-700z" />
    <glyph glyph-name="uni04E5" unicode="&#x4e5;" horiz-adv-x="631" 
d="M143 635c0 32 23 56 58 56c33 0 56 -24 56 -56c0 -31 -23 -55 -56 -55c-35 0 -58 24 -58 55zM358 635c0 32 22 56 57 56s57 -24 57 -56c0 -31 -22 -55 -57 -55s-57 24 -57 55zM543 0h-92v300l14 104h-11l-49 -98l-246 -306h-71v525h92v-310l-7 -92h11l46 89l241 313h72
v-525z" />
    <glyph glyph-name="uni04E6" unicode="&#x4e6;" horiz-adv-x="747" 
d="M204 795c0 31 23 49 62 49c37 0 62 -18 62 -49c0 -29 -25 -49 -62 -49c-39 0 -62 20 -62 49zM418 795c0 31 24 49 61 49c39 0 63 -18 63 -49c0 -29 -24 -49 -63 -49c-37 0 -61 20 -61 49zM58 350c0 229 118 363 315 363c212 0 316 -147 316 -363
c0 -229 -119 -362 -316 -362c-212 0 -315 146 -315 362zM164 350c0 -151 65 -277 209 -277c129 0 210 86 210 277c0 148 -64 277 -210 277c-128 0 -209 -89 -209 -277z" />
    <glyph glyph-name="uni04E7" unicode="&#x4e7;" horiz-adv-x="631" 
d="M60 262c0 173 93 278 256 278c172 0 255 -119 255 -278c0 -171 -95 -275 -255 -275c-175 0 -256 118 -256 275zM158 262c0 -99 43 -198 159 -198c104 0 156 66 156 198c0 103 -43 200 -156 200c-104 0 -159 -65 -159 -200zM149 635c0 32 23 56 58 56c33 0 56 -24 56 -56
c0 -31 -23 -55 -56 -55c-35 0 -58 24 -58 55zM364 635c0 32 22 56 57 56s57 -24 57 -56c0 -31 -22 -55 -57 -55s-57 24 -57 55z" />
    <glyph glyph-name="uni04E8" unicode="&#x4e8;" horiz-adv-x="747" 
d="M58 350c0 229 118 363 315 363c212 0 316 -147 316 -363c0 -229 -119 -362 -316 -362c-212 0 -315 146 -315 362zM583 312h-419c11 -134 77 -239 209 -239c120 0 199 75 210 239zM165 396h418c-13 128 -79 231 -210 231c-117 0 -196 -74 -208 -231z" />
    <glyph glyph-name="uni04E9" unicode="&#x4e9;" horiz-adv-x="630" 
d="M60 262c0 176 91 278 256 278c172 0 254 -115 254 -278c0 -175 -93 -275 -254 -275c-177 0 -256 114 -256 275zM157 295h315c-16 111 -71 167 -156 167c-79 0 -151 -43 -159 -167zM470 229h-312c11 -104 74 -165 158 -165c75 0 143 45 154 165z" />
    <glyph glyph-name="uni04EA" unicode="&#x4ea;" horiz-adv-x="747" 
d="M204 795c0 31 23 49 62 49c37 0 62 -18 62 -49c0 -29 -25 -49 -62 -49c-39 0 -62 20 -62 49zM418 795c0 31 24 49 61 49c39 0 63 -18 63 -49c0 -29 -24 -49 -63 -49c-37 0 -61 20 -61 49zM58 350c0 229 118 363 315 363c212 0 316 -147 316 -363
c0 -229 -119 -362 -316 -362c-212 0 -315 146 -315 362zM583 312h-419c11 -134 77 -239 209 -239c120 0 199 75 210 239zM165 396h418c-13 128 -79 231 -210 231c-117 0 -196 -74 -208 -231z" />
    <glyph glyph-name="uni04EB" unicode="&#x4eb;" horiz-adv-x="630" 
d="M152 635c0 32 23 56 58 56c33 0 56 -24 56 -56c0 -31 -23 -55 -56 -55c-35 0 -58 24 -58 55zM367 635c0 32 22 56 57 56s57 -24 57 -56c0 -31 -22 -55 -57 -55s-57 24 -57 55zM60 262c0 176 91 278 256 278c172 0 254 -115 254 -278c0 -175 -93 -275 -254 -275
c-177 0 -256 114 -256 275zM157 295h315c-16 111 -71 167 -156 167c-79 0 -151 -43 -159 -167zM470 229h-312c11 -104 74 -165 158 -165c75 0 143 45 154 165z" />
    <glyph glyph-name="uni04EC" unicode="&#x4ec;" horiz-adv-x="631" 
d="M79 795c0 31 23 49 62 49c37 0 62 -18 62 -49c0 -29 -25 -49 -62 -49c-39 0 -62 20 -62 49zM293 795c0 31 24 49 61 49c39 0 63 -18 63 -49c0 -29 -24 -49 -63 -49c-37 0 -61 20 -61 49zM467 313h-306v86h305c-13 155 -103 227 -236 228c-71 1 -127 -16 -159 -35l-24 80
c44 25 117 41 193 41c186 0 333 -102 333 -363c0 -264 -173 -362 -357 -362c-73 0 -132 12 -171 27l26 86c33 -16 91 -28 152 -28c116 0 231 63 244 240z" />
    <glyph glyph-name="uni04ED" unicode="&#x4ed;" horiz-adv-x="543" 
d="M61 635c0 32 23 56 58 56c33 0 56 -24 56 -56c0 -31 -23 -55 -56 -55c-35 0 -58 24 -58 55zM276 635c0 32 22 56 57 56s57 -24 57 -56c0 -31 -22 -55 -57 -55s-57 24 -57 55zM385 226h-242v78h241c-8 96 -63 158 -167 158c-63 0 -108 -20 -139 -39l-30 68
c47 31 106 49 189 49c169 0 246 -105 246 -278c0 -179 -96 -275 -255 -275c-72 0 -140 11 -180 33l25 76c36 -19 90 -32 141 -32c108 0 162 49 171 162z" />
    <glyph glyph-name="uni04EE" unicode="&#x4ee;" horiz-adv-x="608" 
d="M499 758h-350v68h350v-68zM5 700h115l191 -360l27 -89h6l21 92l142 357h102l-196 -462c-76 -179 -109 -243 -213 -243c-48 0 -72 6 -99 22l29 82c28 -16 53 -17 74 -17c39 0 65 34 86 102z" />
    <glyph glyph-name="uni04EF" unicode="&#x4ef;" horiz-adv-x="531" 
d="M8 525h109l134 -332l31 -101h13l25 102l109 331h94l-172 -475c-48 -131 -100 -254 -199 -254c-27 0 -49 3 -68 9l15 78c10 -3 20 -5 30 -5c53 0 87 21 114 120zM430 597h-328v69h328v-69z" />
    <glyph glyph-name="uni04F0" unicode="&#x4f0;" horiz-adv-x="608" 
d="M155 795c0 31 23 49 62 49c37 0 62 -18 62 -49c0 -29 -25 -49 -62 -49c-39 0 -62 20 -62 49zM369 795c0 31 24 49 61 49c39 0 63 -18 63 -49c0 -29 -24 -49 -63 -49c-37 0 -61 20 -61 49zM5 700h115l191 -360l27 -89h6l21 92l142 357h102l-196 -462
c-76 -179 -109 -243 -213 -243c-48 0 -72 6 -99 22l29 82c28 -16 53 -17 74 -17c39 0 65 34 86 102z" />
    <glyph glyph-name="uni04F1" unicode="&#x4f1;" horiz-adv-x="531" 
d="M8 525h109l134 -332l31 -101h13l25 102l109 331h94l-172 -475c-48 -131 -100 -254 -199 -254c-27 0 -49 3 -68 9l15 78c10 -3 20 -5 30 -5c53 0 87 21 114 120zM114 635c0 32 23 56 58 56c33 0 56 -24 56 -56c0 -31 -23 -55 -56 -55c-35 0 -58 24 -58 55zM329 635
c0 32 22 56 57 56s57 -24 57 -56c0 -31 -22 -55 -57 -55s-57 24 -57 55z" />
    <glyph glyph-name="uni04F2" unicode="&#x4f2;" horiz-adv-x="608" 
d="M255 741h-68l69 109h108v-16zM397 741h-69l111 109h115v-16zM5 700h115l191 -360l27 -89h6l21 92l142 357h102l-196 -462c-76 -179 -109 -243 -213 -243c-48 0 -72 6 -99 22l29 82c28 -16 53 -17 74 -17c39 0 65 34 86 102z" />
    <glyph glyph-name="uni04F3" unicode="&#x4f3;" horiz-adv-x="531" 
d="M8 525h109l134 -332l31 -101h13l25 102l109 331h94l-172 -475c-48 -131 -100 -254 -199 -254c-27 0 -49 3 -68 9l15 78c10 -3 20 -5 30 -5c53 0 87 21 114 120zM218 610h-49l39 129h90v-12zM352 610h-51l82 129h101v-11z" />
    <glyph glyph-name="uni04F4" unicode="&#x4f4;" horiz-adv-x="663" 
d="M167 795c0 31 23 49 62 49c37 0 62 -18 62 -49c0 -29 -25 -49 -62 -49c-39 0 -62 20 -62 49zM381 795c0 31 24 49 61 49c39 0 63 -18 63 -49c0 -29 -24 -49 -63 -49c-37 0 -61 20 -61 49zM76 458v242h100v-221c0 -89 41 -140 133 -140c68 0 129 17 165 44v317h100v-700
h-100v298c-39 -21 -105 -45 -189 -45c-125 0 -209 57 -209 205z" />
    <glyph glyph-name="uni04F5" unicode="&#x4f5;" horiz-adv-x="574" 
d="M107 635c0 32 23 56 58 56c33 0 56 -24 56 -56c0 -31 -23 -55 -56 -55c-35 0 -58 24 -58 55zM322 635c0 32 22 56 57 56s57 -24 57 -56c0 -31 -22 -55 -57 -55s-57 24 -57 55zM60 371v154h92v-129c0 -84 15 -137 104 -137c68 0 114 18 138 37v229h92v-525h-92v223
c-25 -16 -75 -42 -162 -42c-113 0 -172 43 -172 190z" />
    <glyph glyph-name="uni04F6" unicode="&#x4f6;" horiz-adv-x="486" 
d="M200 0h-111v700h415v-88h-315v-524h96v-215h-69z" />
    <glyph glyph-name="uni04F7" unicode="&#x4f7;" horiz-adv-x="426" 
d="M180 0h-92v525h338v-78h-246v-369h81v-201h-65z" />
    <glyph glyph-name="uni04F8" unicode="&#x4f8;" horiz-adv-x="846" 
d="M254 795c0 31 23 49 62 49c37 0 62 -18 62 -49c0 -29 -25 -49 -62 -49c-39 0 -62 20 -62 49zM468 795c0 31 24 49 61 49c39 0 63 -18 63 -49c0 -29 -24 -49 -63 -49c-37 0 -61 20 -61 49zM757 0h-100v700h100v-700zM89 7v693h100v-267c16 3 57 8 91 8
c140 0 271 -48 271 -213c0 -161 -119 -236 -289 -236c-40 0 -117 3 -173 15zM270 77c99 0 175 48 175 144c0 107 -85 134 -180 134c-25 0 -61 -5 -76 -9v-263c19 -5 46 -6 81 -6z" />
    <glyph glyph-name="uni04F9" unicode="&#x4f9;" horiz-adv-x="771" 
d="M213 635c0 32 23 56 58 56c33 0 56 -24 56 -56c0 -31 -23 -55 -56 -55c-35 0 -58 24 -58 55zM428 635c0 32 22 56 57 56s57 -24 57 -56c0 -31 -22 -55 -57 -55s-57 24 -57 55zM180 254v-176c28 -4 57 -6 86 -6c96 0 130 35 130 96c0 53 -34 94 -127 94
c-25 0 -58 -1 -89 -8zM88 525h92v-201c43 7 80 8 109 8c156 0 205 -68 205 -156c0 -127 -72 -181 -247 -181c-56 0 -107 1 -159 5v525zM683 0h-92v525h92v-525z" />
    <glyph glyph-name="uni04FC" unicode="&#x4fc;" horiz-adv-x="681" 
d="M521 -36c0 60 -29 106 -56 145l-96 135l-33 61l-28 -61l-171 -244h-110l253 356l-231 344h119l151 -230l27 -58l26 58l158 230h110l-238 -337l151 -215c44 -63 66 -113 66 -168c0 -124 -50 -189 -154 -189c-13 0 -26 1 -40 3v85c82 -3 96 37 96 85z" />
    <glyph glyph-name="uni04FD" unicode="&#x4fd;" horiz-adv-x="592" 
d="M547 525l-193 -252l114 -146c42 -54 69 -97 69 -149c0 -121 -57 -187 -166 -187h-7c-11 0 -19 1 -30 2v76c84 0 111 33 111 94c0 52 -31 85 -62 124l-51 65l-43 69l-39 -71l-115 -150h-105l203 268l-190 257h116l101 -136l39 -68l39 68l104 136h105z" />
    <glyph glyph-name="uni0510" unicode="&#x510;" horiz-adv-x="582" 
d="M450 405v-80h-55c-19 0 -30 0 -47 -1c-108 -7 -175 -44 -175 -120c0 -89 76 -131 184 -131c64 0 126 18 158 37l29 -75c-36 -23 -106 -47 -202 -47c-163 0 -275 65 -275 208c0 96 58 163 162 176v4c-93 27 -138 97 -138 163c0 121 114 173 252 173c79 0 162 -21 192 -40
l-28 -78c-39 16 -103 32 -156 32c-95 0 -155 -27 -155 -98c0 -68 73 -108 145 -119c24 -4 63 -4 90 -4h19z" />
    <glyph glyph-name="uni0511" unicode="&#x511;" horiz-adv-x="530" 
d="M366 302v-69h-63c-108 0 -151 -28 -151 -79c0 -52 49 -85 144 -85c57 0 105 12 146 35l24 -72c-39 -21 -93 -40 -166 -40c-161 0 -240 59 -240 152c0 69 36 107 121 130v10c-65 20 -99 66 -99 118c0 85 73 133 189 133c85 0 146 -21 193 -48l-25 -67
c-33 15 -84 37 -139 37c-84 0 -124 -20 -124 -76c0 -45 55 -79 114 -79h76z" />
    <glyph glyph-name="uni0512" unicode="&#x512;" horiz-adv-x="683" 
d="M182 700h412v-723c0 -123 -44 -186 -147 -186c-13 0 -26 1 -40 3v85c83 -3 87 26 87 121v612h-220c-15 -263 -34 -432 -86 -529c-35 -64 -81 -87 -130 -87c-28 0 -43 3 -61 9l11 85c31 -9 65 -6 96 45c40 67 70 229 78 565z" />
    <glyph glyph-name="uni0513" unicode="&#x513;" horiz-adv-x="584" 
d="M149 525h347v-548c0 -124 -42 -182 -143 -182c-13 0 -27 1 -42 3v75c82 -3 93 39 93 127v447h-170l-2 -30c-18 -265 -42 -421 -170 -421c-29 0 -52 3 -67 9l13 84c9 -3 18 -4 29 -4c64 0 101 75 112 440z" />
    <glyph glyph-name="uni051C" unicode="&#x51c;" horiz-adv-x="913" 
d="M8 700h105l134 -454l16 -117h2l18 119l155 452h50l156 -454l18 -117h2l19 119l124 452h98l-213 -709h-57l-153 454l-21 106h-5l-20 -107l-153 -453h-58z" />
    <glyph glyph-name="uni051D" unicode="&#x51d;" horiz-adv-x="840" 
d="M276 230l121 295h71l86 -199l43 -101l27 -101h7l23 104l98 297h88l-191 -535h-50l-147 338v-1l-26 97l-30 -98v1l-141 -337h-48l-199 535h101l111 -297l19 -105h9z" />
    <glyph glyph-name="uni0524" unicode="&#x524;" horiz-adv-x="757" 
d="M643 0h-113v612h-341v-612h-100v700h541v-612h98v-215h-69z" />
    <glyph glyph-name="uni0525" unicode="&#x525;" horiz-adv-x="620" 
d="M519 0h-81v447h-258v-447h-92v525h442v-447h70v-201h-65z" />
    <glyph glyph-name="uni0526" unicode="&#x526;" horiz-adv-x="702" 
d="M613 -127l-16 127h-111v228c0 89 -44 133 -132 133c-68 0 -129 -17 -165 -45v-316h-100v700h100v-298c39 21 104 45 188 45c122 0 209 -51 209 -197v-162h96v-215h-69z" />
    <glyph glyph-name="uni0527" unicode="&#x527;" horiz-adv-x="638" 
d="M88 0v700h92v-240h11c40 48 93 80 176 80c128 0 186 -50 186 -230v-232h65v-201h-65l-16 123h-76v290c0 115 -26 168 -126 168c-70 0 -137 -49 -155 -123v-335h-92z" />
    <glyph glyph-name="uni1E30" unicode="&#x1e30;" horiz-adv-x="669" 
d="M294 752h-81l127 118h132v-23zM635 0h-126l-271 318h-49v-318h-100v700h100v-322l46 14l252 308h114l-252 -300l-47 -34l55 -40z" />
    <glyph glyph-name="uni1E31" unicode="&#x1e31;" horiz-adv-x="557" 
d="M541 0h-116l-188 236h-57v-236h-92v700h92v-414l52 17l174 222h108l-167 -203h1l-55 -40l63 -45zM319 570h-56l64 150h104v-23z" />
    <glyph glyph-name="uni1E3E" unicode="&#x1e3e;" horiz-adv-x="868" 
d="M440 752h-81l127 118h132v-23zM779 0h-100v451l11 112h-4l-43 -97l-195 -310h-30l-205 311l-41 95h-5l16 -110v-452h-94v700h75l237 -357l37 -76h2l35 78l225 355h79v-700z" />
    <glyph glyph-name="uni1E3F" unicode="&#x1e3f;" horiz-adv-x="948" 
d="M520 338v-338h-92v288c0 113 -17 170 -109 170c-71 0 -119 -44 -139 -105v-353h-92v525h63l18 -70h10c43 48 94 85 179 85c72 0 121 -28 146 -100c40 61 103 100 179 100c127 0 177 -51 177 -238v-302h-92v302c0 106 -19 156 -111 156c-76 0 -118 -40 -137 -120zM488 570
h-56l64 150h104v-23z" />
    <glyph glyph-name="uni1E54" unicode="&#x1e54;" horiz-adv-x="614" 
d="M298 752h-81l127 118h132v-23zM189 0h-100v693c56 12 125 16 189 16c135 0 297 -39 297 -218c0 -168 -145 -234 -297 -234c-16 0 -73 2 -89 5v-262zM281 623c-36 0 -73 -1 -92 -6v-269c13 -5 67 -5 82 -5c95 0 198 23 198 147c0 108 -100 133 -188 133z" />
    <glyph glyph-name="uni1E55" unicode="&#x1e55;" horiz-adv-x="630" 
d="M180 -199h-92v724h62l18 -67h9c36 52 95 82 167 82c152 0 226 -81 226 -266c0 -177 -102 -287 -266 -287c-54 0 -83 9 -124 24v-210zM323 462c-80 0 -123 -39 -143 -122v-242c31 -21 63 -34 119 -34c108 0 173 71 173 211c0 113 -41 187 -149 187zM319 570h-56l64 150
h104v-23z" />
    <glyph glyph-name="uni1E9E" unicode="&#x1e9e;" horiz-adv-x="716" 
d="M289 334v65l180 194c-25 23 -89 37 -153 37c-126 0 -127 -96 -127 -200v-430h-100v467c0 135 44 245 232 245c128 0 195 -29 275 -90l-172 -190l-37 -28v-3l37 7c121 0 214 -65 214 -194c0 -143 -97 -226 -246 -226c-29 0 -105 8 -137 20l17 86c28 -14 89 -19 120 -19
c85 0 140 48 140 132c0 88 -44 127 -177 127h-66z" />
    <glyph glyph-name="uni2011" unicode="&#x2011;" horiz-adv-x="394" 
d="M330 246h-266v86h266v-86z" />
    <glyph glyph-name="uni2081" unicode="&#x2081;" horiz-adv-x="436" 
d="M381 -99h-301v72h115v231l8 38l-30 -29l-83 -48l-32 59l168 103h53v-354h102v-72z" />
    <glyph glyph-name="uni2082" unicode="&#x2082;" horiz-adv-x="436" 
d="M355 205c0 -80 -60 -143 -136 -212l-50 -30v-2l63 13h144v-73h-321v42c67 48 216 168 216 250c0 40 -30 59 -73 59c-40 0 -78 -17 -105 -33l-27 66c40 27 94 42 147 42c92 0 142 -46 142 -122z" />
    <glyph glyph-name="uni2083" unicode="&#x2083;" horiz-adv-x="436" 
d="M185 -37c71 0 107 23 107 68c0 40 -30 67 -106 67h-57v26l101 107l38 26l-55 -6h-139v69h285v-40l-110 -115l-29 -18v-3l26 3c81 -1 129 -46 129 -118c0 -84 -73 -135 -181 -135c-53 0 -91 10 -122 21l18 68c25 -11 56 -20 95 -20z" />
    <glyph glyph-name="uni2084" unicode="&#x2084;" horiz-adv-x="436" 
d="M329 59h90v-66h-90v-92h-78v92h-224v44l247 299h55v-277zM170 59h81v120l7 48h-3l-24 -45l-80 -97l-37 -32z" />
    <glyph glyph-name="uni20B4" unicode="&#x20b4;" 
d="M41 242v74h455v-74h-257c-29 -23 -60 -69 -60 -106c0 -45 38 -69 131 -69c69 0 113 16 146 33l26 -75c-33 -19 -87 -37 -191 -37c-139 0 -208 50 -208 139c0 11 2 23 6 35c8 24 15 40 48 80h-96zM496 463v-74h-455v74h263c35 25 55 68 55 107c0 45 -30 63 -110 63
c-60 0 -95 -16 -130 -31l-29 77c44 19 82 34 176 34c125 0 189 -42 189 -127c0 -49 -22 -98 -53 -123h94z" />
    <glyph glyph-name="uni20B6" unicode="&#x20b6;" 
d="M111 274h-79v70h79v349c56 12 121 16 185 16c139 0 272 -43 272 -214c0 -164 -140 -221 -276 -221h-85v-73h182v-70h-182v-131h-96v131h-79v70h79v73zM300 627c-36 0 -73 -3 -93 -6v-277h80c85 0 179 31 179 149c0 103 -74 134 -166 134z" />
    <glyph glyph-name="uni20B7" unicode="&#x20b7;" 
d="M111 274h-79v70h79v349c56 12 121 16 185 16c139 0 272 -43 272 -214c0 -164 -140 -221 -276 -221h-85v-73h182v-70h-182v-131h-96v131h-79v70h79v73zM300 627c-36 0 -73 -3 -93 -6v-277h80c85 0 179 31 179 149c0 103 -74 134 -166 134z" />
    <glyph glyph-name="uni20B9" unicode="&#x20b9;" 
d="M111 274h-79v70h79v349c56 12 121 16 185 16c139 0 272 -43 272 -214c0 -164 -140 -221 -276 -221h-85v-73h182v-70h-182v-131h-96v131h-79v70h79v73zM300 627c-36 0 -73 -3 -93 -6v-277h80c85 0 179 31 179 149c0 103 -74 134 -166 134z" />
    <glyph glyph-name="uni20BA" unicode="&#x20ba;" 
d="M111 274h-79v70h79v349c56 12 121 16 185 16c139 0 272 -43 272 -214c0 -164 -140 -221 -276 -221h-85v-73h182v-70h-182v-131h-96v131h-79v70h79v73zM300 627c-36 0 -73 -3 -93 -6v-277h80c85 0 179 31 179 149c0 103 -74 134 -166 134z" />
    <glyph glyph-name="uni20BB" unicode="&#x20bb;" 
d="M111 274h-79v70h79v349c56 12 121 16 185 16c139 0 272 -43 272 -214c0 -164 -140 -221 -276 -221h-85v-73h182v-70h-182v-131h-96v131h-79v70h79v73zM300 627c-36 0 -73 -3 -93 -6v-277h80c85 0 179 31 179 149c0 103 -74 134 -166 134z" />
    <glyph glyph-name="uni20BC" unicode="&#x20bc;" 
d="M111 274h-79v70h79v349c56 12 121 16 185 16c139 0 272 -43 272 -214c0 -164 -140 -221 -276 -221h-85v-73h182v-70h-182v-131h-96v131h-79v70h79v73zM300 627c-36 0 -73 -3 -93 -6v-277h80c85 0 179 31 179 149c0 103 -74 134 -166 134z" />
    <glyph glyph-name="uni20BD" unicode="&#x20bd;" 
d="M111 274h-79v70h79v349c56 12 121 16 185 16c139 0 272 -43 272 -214c0 -164 -140 -221 -276 -221h-85v-73h182v-70h-182v-131h-96v131h-79v70h79v73zM300 627c-36 0 -73 -3 -93 -6v-277h80c85 0 179 31 179 149c0 103 -74 134 -166 134z" />
    <glyph glyph-name="uni20BE" unicode="&#x20be;" 
d="M111 274h-79v70h79v349c56 12 121 16 185 16c139 0 272 -43 272 -214c0 -164 -140 -221 -276 -221h-85v-73h182v-70h-182v-131h-96v131h-79v70h79v73zM300 627c-36 0 -73 -3 -93 -6v-277h80c85 0 179 31 179 149c0 103 -74 134 -166 134z" />
    <glyph glyph-name="uni20BF" unicode="&#x20bf;" 
d="M111 274h-79v70h79v349c56 12 121 16 185 16c139 0 272 -43 272 -214c0 -164 -140 -221 -276 -221h-85v-73h182v-70h-182v-131h-96v131h-79v70h79v73zM300 627c-36 0 -73 -3 -93 -6v-277h80c85 0 179 31 179 149c0 103 -74 134 -166 134z" />
    <glyph glyph-name="uni20C0" unicode="&#x20c0;" 
d="M111 274h-79v70h79v349c56 12 121 16 185 16c139 0 272 -43 272 -214c0 -164 -140 -221 -276 -221h-85v-73h182v-70h-182v-131h-96v131h-79v70h79v73zM300 627c-36 0 -73 -3 -93 -6v-277h80c85 0 179 31 179 149c0 103 -74 134 -166 134z" />
    <glyph glyph-name="uni20C1" unicode="&#x20c1;" 
d="M111 274h-79v70h79v349c56 12 121 16 185 16c139 0 272 -43 272 -214c0 -164 -140 -221 -276 -221h-85v-73h182v-70h-182v-131h-96v131h-79v70h79v73zM300 627c-36 0 -73 -3 -93 -6v-277h80c85 0 179 31 179 149c0 103 -74 134 -166 134z" />
    <glyph glyph-name="uni20C2" unicode="&#x20c2;" 
d="M111 274h-79v70h79v349c56 12 121 16 185 16c139 0 272 -43 272 -214c0 -164 -140 -221 -276 -221h-85v-73h182v-70h-182v-131h-96v131h-79v70h79v73zM300 627c-36 0 -73 -3 -93 -6v-277h80c85 0 179 31 179 149c0 103 -74 134 -166 134z" />
    <glyph glyph-name="uni20C3" unicode="&#x20c3;" 
d="M111 274h-79v70h79v349c56 12 121 16 185 16c139 0 272 -43 272 -214c0 -164 -140 -221 -276 -221h-85v-73h182v-70h-182v-131h-96v131h-79v70h79v73zM300 627c-36 0 -73 -3 -93 -6v-277h80c85 0 179 31 179 149c0 103 -74 134 -166 134z" />
    <glyph glyph-name="uni20C4" unicode="&#x20c4;" 
d="M111 274h-79v70h79v349c56 12 121 16 185 16c139 0 272 -43 272 -214c0 -164 -140 -221 -276 -221h-85v-73h182v-70h-182v-131h-96v131h-79v70h79v73zM300 627c-36 0 -73 -3 -93 -6v-277h80c85 0 179 31 179 149c0 103 -74 134 -166 134z" />
    <glyph glyph-name="uni20C5" unicode="&#x20c5;" 
d="M111 274h-79v70h79v349c56 12 121 16 185 16c139 0 272 -43 272 -214c0 -164 -140 -221 -276 -221h-85v-73h182v-70h-182v-131h-96v131h-79v70h79v73zM300 627c-36 0 -73 -3 -93 -6v-277h80c85 0 179 31 179 149c0 103 -74 134 -166 134z" />
    <glyph glyph-name="uni20C6" unicode="&#x20c6;" 
d="M111 274h-79v70h79v349c56 12 121 16 185 16c139 0 272 -43 272 -214c0 -164 -140 -221 -276 -221h-85v-73h182v-70h-182v-131h-96v131h-79v70h79v73zM300 627c-36 0 -73 -3 -93 -6v-277h80c85 0 179 31 179 149c0 103 -74 134 -166 134z" />
    <glyph glyph-name="uni20C7" unicode="&#x20c7;" 
d="M111 274h-79v70h79v349c56 12 121 16 185 16c139 0 272 -43 272 -214c0 -164 -140 -221 -276 -221h-85v-73h182v-70h-182v-131h-96v131h-79v70h79v73zM300 627c-36 0 -73 -3 -93 -6v-277h80c85 0 179 31 179 149c0 103 -74 134 -166 134z" />
    <glyph glyph-name="uni20C8" unicode="&#x20c8;" 
d="M111 274h-79v70h79v349c56 12 121 16 185 16c139 0 272 -43 272 -214c0 -164 -140 -221 -276 -221h-85v-73h182v-70h-182v-131h-96v131h-79v70h79v73zM300 627c-36 0 -73 -3 -93 -6v-277h80c85 0 179 31 179 149c0 103 -74 134 -166 134z" />
    <glyph glyph-name="uni20C9" unicode="&#x20c9;" 
d="M111 274h-79v70h79v349c56 12 121 16 185 16c139 0 272 -43 272 -214c0 -164 -140 -221 -276 -221h-85v-73h182v-70h-182v-131h-96v131h-79v70h79v73zM300 627c-36 0 -73 -3 -93 -6v-277h80c85 0 179 31 179 149c0 103 -74 134 -166 134z" />
    <glyph glyph-name="uni20CA" unicode="&#x20ca;" 
d="M111 274h-79v70h79v349c56 12 121 16 185 16c139 0 272 -43 272 -214c0 -164 -140 -221 -276 -221h-85v-73h182v-70h-182v-131h-96v131h-79v70h79v73zM300 627c-36 0 -73 -3 -93 -6v-277h80c85 0 179 31 179 149c0 103 -74 134 -166 134z" />
    <glyph glyph-name="uni20CB" unicode="&#x20cb;" 
d="M111 274h-79v70h79v349c56 12 121 16 185 16c139 0 272 -43 272 -214c0 -164 -140 -221 -276 -221h-85v-73h182v-70h-182v-131h-96v131h-79v70h79v73zM300 627c-36 0 -73 -3 -93 -6v-277h80c85 0 179 31 179 149c0 103 -74 134 -166 134z" />
    <glyph glyph-name="uni20CC" unicode="&#x20cc;" 
d="M111 274h-79v70h79v349c56 12 121 16 185 16c139 0 272 -43 272 -214c0 -164 -140 -221 -276 -221h-85v-73h182v-70h-182v-131h-96v131h-79v70h79v73zM300 627c-36 0 -73 -3 -93 -6v-277h80c85 0 179 31 179 149c0 103 -74 134 -166 134z" />
    <glyph glyph-name="uni20CD" unicode="&#x20cd;" 
d="M111 274h-79v70h79v349c56 12 121 16 185 16c139 0 272 -43 272 -214c0 -164 -140 -221 -276 -221h-85v-73h182v-70h-182v-131h-96v131h-79v70h79v73zM300 627c-36 0 -73 -3 -93 -6v-277h80c85 0 179 31 179 149c0 103 -74 134 -166 134z" />
    <glyph glyph-name="uni20CE" unicode="&#x20ce;" 
d="M111 274h-79v70h79v349c56 12 121 16 185 16c139 0 272 -43 272 -214c0 -164 -140 -221 -276 -221h-85v-73h182v-70h-182v-131h-96v131h-79v70h79v73zM300 627c-36 0 -73 -3 -93 -6v-277h80c85 0 179 31 179 149c0 103 -74 134 -166 134z" />
    <glyph glyph-name="uni20CF" unicode="&#x20cf;" 
d="M111 274h-79v70h79v349c56 12 121 16 185 16c139 0 272 -43 272 -214c0 -164 -140 -221 -276 -221h-85v-73h182v-70h-182v-131h-96v131h-79v70h79v73zM300 627c-36 0 -73 -3 -93 -6v-277h80c85 0 179 31 179 149c0 103 -74 134 -166 134z" />
    <glyph glyph-name="afii61289" unicode="&#x2113;" horiz-adv-x="500" 
d="M389 80l17 -50c-29 -19 -81 -41 -128 -41c-84 0 -120 38 -120 125v104l-50 -44l-35 44l85 74v254c0 117 57 166 129 166c64 0 110 -39 110 -119c0 -99 -50 -211 -171 -328v-140c0 -59 26 -77 58 -77c33 0 78 17 105 32zM333 588c0 45 -22 64 -46 64
c-32 0 -61 -15 -61 -95v-212c75 87 107 167 107 243z" />
    <glyph glyph-name="afii61352" unicode="&#x2116;" horiz-adv-x="1120" 
d="M1040 230h-309v84h309v-84zM627 -9h-57l-333 447l-61 100h-4l12 -96v-442h-95v710h57l336 -446l57 -97h5l-12 93v440h95v-709zM710 542c0 117 73 170 172 170s173 -47 173 -170s-74 -170 -173 -170s-172 47 -172 170zM798 542c0 -72 29 -105 84 -105c53 0 85 26 85 105
c0 80 -30 105 -85 105c-53 0 -84 -25 -84 -105z" />
    <glyph glyph-name="estimated" unicode="&#x212e;" horiz-adv-x="600" 
d="M561 263h-404v-181c41 -39 90 -59 145 -59c83 0 147 40 193 120l35 -21c-57 -88 -131 -134 -228 -134c-158 0 -258 120 -258 275c0 157 103 276 258 276c166 0 254 -125 259 -276zM157 444v-145h291v145c-42 40 -91 60 -147 60c-57 0 -105 -20 -144 -60z" />
    <glyph glyph-name="partialdiff" unicode="&#x2202;" horiz-adv-x="586" 
d="M443 503h12c-16 135 -149 183 -261 178c0 5 1 11 17 71c206 0 340 -76 340 -317c0 -307 -129 -448 -305 -448c-147 0 -222 74 -222 202c0 160 101 343 305 343c63 0 87 -10 114 -29zM456 403c-31 32 -68 54 -133 54c-113 0 -201 -118 -201 -270c0 -67 35 -127 131 -127
c157 0 203 188 203 343z" />
    <glyph glyph-name="product" unicode="&#x220f;" horiz-adv-x="739" 
d="M651 -199h-100v811h-363v-811h-100v899h563v-899z" />
    <glyph glyph-name="summation" unicode="&#x2211;" horiz-adv-x="554" 
d="M154 574l228 -318l-237 -329l-44 -38h414v-88h-500v88l237 330l40 31l-41 33l-236 329v88h500v-88h-408z" />
    <glyph glyph-name="uni2215" unicode="&#x2215;" horiz-adv-x="554" 
d="M46 -12l-60 44l523 682l60 -43z" />
    <glyph glyph-name="radical" unicode="&#x221a;" horiz-adv-x="554" 
d="M-8 367v86h195l99 -226l24 -106h2l22 108l156 471h91l-248 -709h-40l-170 376h-131z" />
    <glyph glyph-name="infinity" unicode="&#x221e;" horiz-adv-x="934" 
d="M460 281c-52 -79 -131 -121 -216 -121c-100 0 -187 71 -187 186c0 121 83 196 195 196c103 0 175 -46 222 -110c64 80 142 110 226 110c101 0 178 -72 178 -185c0 -120 -84 -197 -198 -197c-102 0 -175 57 -220 121zM682 246c56 0 104 41 104 108c0 53 -35 102 -107 102
c-56 0 -121 -26 -170 -86c34 -69 99 -124 173 -124zM253 456c-56 0 -104 -46 -104 -107c0 -60 46 -103 115 -103c61 0 122 41 161 94c-39 72 -96 116 -172 116z" />
    <glyph glyph-name="integral" unicode="&#x222b;" horiz-adv-x="386" 
d="M240 529v-580c0 -111 -48 -156 -153 -156c-55 0 -102 11 -137 26l26 74c34 -13 64 -20 97 -20c56 0 72 29 72 106v578c0 109 47 156 152 156c49 0 101 -13 137 -26l-22 -76c-35 13 -66 22 -102 22c-55 0 -70 -28 -70 -104z" />
    <glyph glyph-name="approxequal" unicode="&#x2248;" horiz-adv-x="554" 
d="M70 210l-36 70c64 45 113 60 156 60c82 0 137 -54 203 -54c27 0 55 8 90 35l37 -71c-55 -35 -96 -47 -132 -47c-77 0 -127 56 -198 56c-33 0 -71 -13 -120 -49zM70 381l-36 70c64 45 113 60 156 60c82 0 137 -54 203 -54c27 0 55 8 90 35l37 -71
c-55 -35 -96 -47 -132 -47c-77 0 -127 56 -198 56c-33 0 -71 -13 -120 -49z" />
    <glyph glyph-name="notequal" unicode="&#x2260;" horiz-adv-x="554" 
d="M256 381h-213v84h253l63 131h87l-64 -131h129v-84h-170l-42 -88h212v-84h-253l-70 -145h-85l70 145h-130v84h170z" />
    <glyph glyph-name="lessequal" unicode="&#x2264;" horiz-adv-x="554" 
d="M58 221l39 76l409 -215l-38 -75zM503 269l-41 -70l-425 224v38l419 236l42 -72l-256 -144l-100 -37l99 -32z" />
    <glyph glyph-name="greaterequal" unicode="&#x2265;" horiz-adv-x="554" 
d="M59 80l407 222l40 -75l-406 -220zM40 626l41 70l425 -224v-38l-419 -236l-42 72l256 144l100 37l-99 32z" />
    <glyph glyph-name="lozenge" unicode="&#x25ca;" horiz-adv-x="554" 
d="M296 710l223 -363l-223 -356h-43l-218 351l218 368h43zM281 81h2l31 88l108 168l-117 186l-31 86h-2l-32 -88l-107 -168l116 -186z" />
    <glyph glyph-name="uni2C67" unicode="&#x2c67;" horiz-adv-x="770" 
d="M656 0h-112v313h-355v-313h-100v700h100v-299h355v299h100v-612h97v-215h-69z" />
    <glyph glyph-name="uni2C68" unicode="&#x2c68;" horiz-adv-x="638" 
d="M88 0v700h92v-240h11c40 48 93 80 176 80c128 0 186 -50 186 -230v-232h65v-201h-65l-16 123h-76v290c0 115 -26 168 -126 168c-70 0 -137 -49 -155 -123v-335h-92z" />
    <glyph glyph-name="uniF401" unicode="&#xf401;" horiz-adv-x="2" 
d="M-261 752h-81l127 118h132v-23z" />
    <glyph glyph-name="uniF406" unicode="&#xf406;" horiz-adv-x="503" 
d="M60 843l48 29c25 -43 80 -66 148 -66c71 0 120 30 143 66l44 -23c-27 -74 -103 -119 -188 -119c-76 0 -161 34 -195 113z" />
    <glyph glyph-name="uniF407" unicode="&#xf407;" horiz-adv-x="325" 
d="M131 -7h61l-27 -45c65 -11 96 -33 96 -77c0 -56 -53 -93 -126 -93c-31 0 -49 7 -68 11l10 53c71 -19 99 -3 99 20s-35 34 -99 41z" />
    <glyph glyph-name="uniF408" unicode="&#xf408;" horiz-adv-x="478" 
d="M60 745v26l146 99h73l139 -100v-25h-92l-65 47l-20 35l-21 -34l-70 -48h-90z" />
    <glyph glyph-name="uniF409" unicode="&#xf409;" horiz-adv-x="249" 
d="M59 -101c0 29 27 50 58 50c39 0 72 -25 72 -78c0 -73 -60 -111 -91 -121l-29 40c25 11 46 31 46 62c-31 -7 -56 15 -56 47z" />
    <glyph glyph-name="uniF40A" unicode="&#xf40a;" horiz-adv-x="217" 
d="M44 655c0 32 24 53 59 53c43 0 71 -26 71 -75c0 -93 -67 -131 -99 -142l-28 41c32 15 55 37 54 72c-35 -7 -57 16 -57 51z" />
    <glyph glyph-name="uniF40B" unicode="&#xf40b;" horiz-adv-x="265" 
d="M60 798c0 29 27 54 72 54s73 -25 73 -54c0 -32 -28 -55 -73 -55s-72 23 -72 55z" />
    <glyph glyph-name="uniF40C" unicode="&#xf40c;" horiz-adv-x="357" 
d="M60 769c0 49 33 86 118 86c77 0 119 -30 119 -86c0 -48 -38 -84 -119 -84c-80 0 -118 33 -118 84zM130 769c0 -20 13 -37 48 -37c33 0 49 12 49 37c0 24 -16 39 -49 39s-48 -15 -48 -39z" />
    <glyph glyph-name="uniF40D" unicode="&#xf40d;" horiz-adv-x="472" 
d="M84 742l-24 49c43 43 81 55 116 55c57 0 107 -35 154 -35c19 0 38 6 57 22l25 -51c-39 -32 -72 -42 -104 -42c-56 0 -106 33 -153 33c-23 0 -47 -7 -71 -31z" />
    <glyph glyph-name="uniF40E" unicode="&#xf40e;" horiz-adv-x="345" 
d="M183 0h52c-45 -22 -74 -51 -73 -91c1 -31 21 -55 60 -55c13 0 30 3 47 10l12 -46c-23 -16 -68 -25 -104 -25c-68 0 -110 35 -110 92c0 53 45 93 116 115z" />
    <glyph glyph-name="uniF486" unicode="&#xf486;" horiz-adv-x="641" 
d="M291 752h-81l127 118h132v-23zM559 538c0 -68 -44 -143 -143 -164v-4c85 -11 166 -63 166 -171c0 -145 -147 -207 -287 -207c-47 0 -147 1 -206 13v689c55 9 130 15 214 15c115 0 256 -33 256 -171zM281 316h-94v-234c19 -5 80 -7 115 -7c91 0 174 37 174 122
c0 107 -103 119 -195 119zM187 620v-226h55c25 0 63 2 86 5c67 19 124 54 124 121c0 90 -79 105 -156 105c-47 0 -89 -2 -109 -5z" />
    <glyph glyph-name="uniF487" unicode="&#xf487;" horiz-adv-x="629" 
d="M88 28v672h92v-240h10c31 53 93 79 157 79c145 0 222 -88 222 -267c0 -183 -103 -280 -282 -280c-88 0 -164 16 -199 36zM334 461c-84 0 -132 -59 -154 -124v-249c33 -13 72 -19 119 -19c105 0 172 61 172 204c0 107 -42 188 -137 188zM346 570h-56l64 150h104v-23z" />
    <glyph glyph-name="uniF488" unicode="&#xf488;" horiz-adv-x="565" 
d="M292 752h-81l127 118h132v-23zM189 0h-100v700h423v-86h-323v-223h300v-86h-300v-305z" />
    <glyph glyph-name="uniF489" unicode="&#xf489;" horiz-adv-x="364" 
d="M284 752h-81l127 118h132v-23zM113 447h-89v78h89v14c0 131 45 175 165 175c51 0 85 -5 126 -20l-20 -75c-35 15 -64 17 -92 17c-75 0 -87 -23 -87 -111h154v-78h-154v-447h-92v447z" />
    <glyph glyph-name="uniF49E" unicode="&#xf49e;" horiz-adv-x="662" 
d="M89 520h-95v74h95v106h100v-106h238v-74h-238v-118c39 21 104 45 188 45c122 0 209 -51 209 -197v-250h-100v228c0 89 -44 133 -132 133c-68 0 -129 -17 -165 -45v-316h-100v520z" />
    <glyph glyph-name="uniF49F" unicode="&#xf49f;" horiz-adv-x="647" 
d="M94 568h-94v66h94v66h92v-66h171v-66h-171v-108h11c40 48 93 80 176 80c128 0 186 -50 186 -230v-310h-92v290c0 115 -26 168 -126 168c-70 0 -137 -49 -155 -123v-335h-92v568z" />
    <glyph glyph-name="uniF4C6" unicode="&#xf4c6;" horiz-adv-x="663" 
d="M76 458v242h100v-221c0 -89 41 -140 133 -140c68 0 129 17 165 44v317h100v-723c0 -123 -49 -186 -153 -186c-13 0 -27 1 -41 3v85c83 -3 94 33 94 121v298c-39 -21 -105 -45 -189 -45c-125 0 -209 57 -209 205z" />
    <glyph glyph-name="uniF4C7" unicode="&#xf4c7;" horiz-adv-x="574" 
d="M60 371v154h92v-129c0 -84 15 -137 104 -137c68 0 114 18 138 37v229h92v-548c0 -124 -42 -182 -143 -182c-13 0 -27 1 -42 3v75c82 -3 93 39 93 127v223c-25 -16 -75 -42 -162 -42c-113 0 -172 43 -172 190z" />
    <glyph glyph-name="uniF4CC" unicode="&#xf4cc;" horiz-adv-x="608" 
d="M302 752h-81l127 118h132v-23zM5 700h115l191 -360l27 -89h6l21 92l142 357h102l-196 -462c-76 -179 -109 -243 -213 -243c-48 0 -72 6 -99 22l29 82c28 -16 53 -17 74 -17c39 0 65 34 86 102z" />
    <glyph glyph-name="uniF4CD" unicode="&#xf4cd;" horiz-adv-x="531" 
d="M8 525h109l134 -332l31 -101h13l25 102l109 331h94l-172 -475c-48 -131 -100 -254 -199 -254c-27 0 -49 3 -68 9l15 78c10 -3 20 -5 30 -5c53 0 87 21 114 120zM284 570h-56l64 150h104v-23z" />
    <glyph glyph-name="uniF4D6" unicode="&#xf4d6;" horiz-adv-x="631" 
d="M176 798c0 29 27 54 72 54s73 -25 73 -54c0 -32 -28 -55 -73 -55s-72 23 -72 55zM467 313h-306v86h305c-13 155 -103 227 -236 228c-71 1 -127 -16 -159 -35l-24 80c44 25 117 41 193 41c186 0 333 -102 333 -363c0 -264 -173 -362 -357 -362c-73 0 -132 12 -171 27
l26 86c33 -16 91 -28 152 -28c116 0 231 63 244 240z" />
    <glyph glyph-name="uniF4D7" unicode="&#xf4d7;" horiz-adv-x="543" 
d="M170 650c0 31 26 60 65 60s67 -29 67 -60s-28 -58 -67 -58s-65 27 -65 58zM385 226h-242v78h241c-8 96 -63 158 -167 158c-63 0 -108 -20 -139 -39l-30 68c47 31 106 49 189 49c169 0 246 -105 246 -278c0 -179 -96 -275 -255 -275c-72 0 -140 11 -180 33l25 76
c36 -19 90 -32 141 -32c108 0 162 49 171 162z" />
    <glyph glyph-name="uni0498.alt" unicode="&#xf50a;" horiz-adv-x="589" 
d="M203 327h-54v78h17c24 0 83 1 107 5c72 10 130 47 130 108c0 82 -67 108 -148 108c-77 0 -136 -14 -167 -29l-27 80c26 16 116 35 209 35c117 0 239 -41 239 -173c0 -67 -47 -133 -143 -160v-4c103 -15 166 -72 166 -168c0 -136 -116 -207 -243 -217l-15 -167h-63
l-21 167c-67 4 -114 13 -146 26l25 88c35 -15 95 -29 183 -29c83 0 174 38 174 129c0 80 -65 114 -176 121c-17 1 -28 2 -47 2z" />
    <glyph glyph-name="uni0499.alt" unicode="&#xf50b;" horiz-adv-x="516" 
d="M210 233h-62v70h77c59 0 114 34 114 79c0 56 -41 74 -125 74c-59 0 -109 -16 -140 -29l-25 70c43 25 108 37 195 37c125 0 190 -45 190 -129c0 -44 -36 -101 -100 -120v-11c91 -16 122 -60 122 -129c0 -76 -61 -138 -185 -152l-15 -170h-63l-21 168c-55 4 -91 13 -124 29
l24 74c36 -19 88 -26 148 -26c92 0 138 29 138 86c0 52 -39 79 -148 79z" />
    <glyph glyph-name="uni04AA.alt02" unicode="&#xf50c;" horiz-adv-x="624" 
d="M560 107l24 -77c-37 -27 -92 -37 -153 -41l-24 -41c65 -11 96 -33 96 -77c0 -56 -52 -93 -140 -93c-17 0 -35 1 -54 5l9 36c93 -5 100 21 100 43c0 23 -35 34 -99 41l51 86c-170 8 -312 121 -312 361c0 261 177 363 335 363c88 0 140 -10 179 -25l-22 -86
c-33 15 -82 23 -149 23c-120 0 -237 -72 -237 -275c0 -180 107 -274 250 -274c65 0 113 12 146 31z" />
    <glyph glyph-name="uni04AB.alt02" unicode="&#xf50d;" horiz-adv-x="529" 
d="M454 104l30 -68c-43 -31 -100 -45 -163 -48l-23 -40c65 -11 96 -33 96 -77c0 -56 -52 -93 -140 -93c-17 0 -35 1 -54 5l9 36c93 -5 100 21 100 43c0 23 -35 34 -99 41l52 87c-147 15 -202 120 -202 272c0 177 89 278 250 278c71 0 121 -14 162 -33l-24 -75
c-36 19 -78 30 -127 30c-109 0 -163 -67 -163 -200c0 -100 45 -197 170 -197c56 0 98 18 126 39z" />
    <glyph glyph-name="uniF50E" unicode="&#xf50e;" horiz-adv-x="645" 
d="M501 758h-350v68h350v-68zM637 0h-104l-76 183h-277l-74 -183h-98l288 710h52zM318 573l-27 -109l-81 -197h218l-81 199l-27 107h-2z" />
    <glyph glyph-name="uniF50F" unicode="&#xf50f;" horiz-adv-x="582" 
d="M107 415l-25 77c60 29 134 43 223 43c160 0 186 -91 186 -167c0 -73 -8 -144 -8 -231c0 -51 4 -99 15 -138h-67l-25 79h-10c-30 -40 -83 -85 -181 -85s-170 56 -170 147c0 121 114 173 219 173c83 0 109 -6 131 -9c3 20 4 31 4 54c0 75 -29 99 -118 99
c-52 0 -125 -17 -174 -42zM395 158v80c-21 3 -45 9 -117 9c-83 0 -135 -26 -135 -97c0 -53 42 -80 102 -80c89 0 134 49 150 88zM450 597h-328v69h328v-69z" />
    <glyph glyph-name="uniF510" unicode="&#xf510;" horiz-adv-x="585" 
d="M472 758h-350v68h350v-68zM517 0h-428v700h423v-86h-323v-213h295v-86h-295v-229h328v-86z" />
    <glyph glyph-name="uniF511" unicode="&#xf511;" horiz-adv-x="598" 
d="M480 113l35 -70c-47 -35 -119 -56 -200 -56c-177 0 -255 107 -255 275c0 180 92 278 256 278c104 0 218 -37 218 -212c0 -21 -1 -51 -5 -78h-375c3 -123 52 -186 187 -186c56 0 111 22 139 49zM158 316h288c3 107 -46 146 -129 146c-93 0 -150 -39 -159 -146zM469 597
h-328v69h328v-69z" />
    <glyph glyph-name="uniF512" unicode="&#xf512;" horiz-adv-x="585" 
d="M468 875h-350v68h350v-68zM126 795c0 31 23 49 62 49c37 0 62 -18 62 -49c0 -29 -25 -49 -62 -49c-39 0 -62 20 -62 49zM340 795c0 31 24 49 61 49c39 0 63 -18 63 -49c0 -29 -24 -49 -63 -49c-37 0 -61 20 -61 49zM517 0h-428v700h423v-86h-323v-213h295v-86h-295v-229
h328v-86z" />
    <glyph glyph-name="uniF513" unicode="&#xf513;" horiz-adv-x="598" 
d="M480 726h-350v68h350v-68zM139 628c0 32 23 56 58 56c33 0 56 -24 56 -56c0 -31 -23 -55 -56 -55c-35 0 -58 24 -58 55zM354 628c0 32 22 56 57 56s57 -24 57 -56c0 -31 -22 -55 -57 -55s-57 24 -57 55zM480 113l35 -70c-47 -35 -119 -56 -200 -56
c-177 0 -255 107 -255 275c0 180 92 278 256 278c104 0 218 -37 218 -212c0 -21 -1 -51 -5 -78h-375c3 -123 52 -186 187 -186c56 0 111 22 139 49zM158 316h288c3 107 -46 146 -129 146c-93 0 -150 -39 -159 -146z" />
    <glyph glyph-name="uniF514" unicode="&#xf514;" horiz-adv-x="585" 
d="M107 978l93 21c7 -48 42 -73 98 -73s91 25 98 72l84 -18c-17 -73 -74 -117 -183 -117c-105 0 -177 34 -190 115zM125 795c0 31 23 49 62 49c37 0 62 -18 62 -49c0 -29 -25 -49 -62 -49c-39 0 -62 20 -62 49zM339 795c0 31 24 49 61 49c39 0 63 -18 63 -49
c0 -29 -24 -49 -63 -49c-37 0 -61 20 -61 49zM517 0h-428v700h423v-86h-323v-213h295v-86h-295v-229h328v-86z" />
    <glyph glyph-name="uniF515" unicode="&#xf515;" horiz-adv-x="598" 
d="M128 818l93 21c7 -48 42 -73 98 -73s91 25 98 72l84 -18c-17 -73 -74 -117 -183 -117c-105 0 -177 34 -190 115zM149 628c0 32 23 56 58 56c33 0 56 -24 56 -56c0 -31 -23 -55 -56 -55c-35 0 -58 24 -58 55zM364 628c0 32 22 56 57 56s57 -24 57 -56
c0 -31 -22 -55 -57 -55s-57 24 -57 55zM480 113l35 -70c-47 -35 -119 -56 -200 -56c-177 0 -255 107 -255 275c0 180 92 278 256 278c104 0 218 -37 218 -212c0 -21 -1 -51 -5 -78h-375c3 -123 52 -186 187 -186c56 0 111 22 139 49zM158 316h288c3 107 -46 146 -129 146
c-93 0 -150 -39 -159 -146z" />
    <glyph glyph-name="uniF516" unicode="&#xf516;" horiz-adv-x="589" 
d="M452 870v-26l-146 -100h-69l-139 101v25h93l64 -49l19 -33l21 32l68 50h89zM203 327h-54v78h17c24 0 83 1 107 5c72 10 130 47 130 108c0 82 -67 108 -148 108c-77 0 -136 -14 -167 -29l-27 80c26 16 116 35 209 35c117 0 239 -41 239 -173c0 -67 -47 -133 -143 -160v-4
c103 -15 166 -72 166 -168c0 -152 -145 -219 -288 -219c-96 0 -160 12 -200 28l25 86c35 -15 95 -29 183 -29c83 0 174 41 174 131c0 80 -65 114 -176 121c-17 1 -28 2 -47 2z" />
    <glyph glyph-name="uniF517" unicode="&#xf517;" horiz-adv-x="516" 
d="M320 773h78l-137 -187h-49l-129 187h87l44 -68l28 -71l29 70zM210 233h-62v70h77c59 0 114 34 114 79c0 56 -41 74 -125 74c-59 0 -109 -16 -140 -29l-25 70c43 25 108 37 195 37c125 0 190 -45 190 -129c0 -44 -36 -101 -100 -120v-11c91 -16 122 -60 122 -129
c0 -88 -80 -155 -241 -155c-79 0 -126 10 -167 30l24 73c36 -19 88 -26 148 -26c92 0 138 29 138 87c0 52 -39 79 -148 79z" />
    <glyph glyph-name="uniF518" unicode="&#xf518;" horiz-adv-x="747" 
d="M555 758h-350v68h350v-68zM58 350c0 229 118 363 315 363c212 0 316 -147 316 -363c0 -229 -119 -362 -316 -362c-212 0 -315 146 -315 362zM164 350c0 -151 65 -277 209 -277c129 0 210 86 210 277c0 148 -64 277 -210 277c-128 0 -209 -89 -209 -277z" />
    <glyph glyph-name="uniF519" unicode="&#xf519;" horiz-adv-x="631" 
d="M60 262c0 173 93 278 256 278c172 0 255 -119 255 -278c0 -171 -95 -275 -255 -275c-175 0 -256 118 -256 275zM158 262c0 -99 43 -198 159 -198c104 0 156 66 156 198c0 103 -43 200 -156 200c-104 0 -159 -65 -159 -200zM474 597h-328v69h328v-69z" />
    <glyph glyph-name="uniF51A" unicode="&#xf51a;" horiz-adv-x="747" 
d="M183 850l93 21c7 -48 42 -73 98 -73s91 25 98 72l84 -18c-17 -73 -74 -117 -183 -117c-105 0 -177 34 -190 115zM58 350c0 229 118 363 315 363c212 0 316 -147 316 -363c0 -229 -119 -362 -316 -362c-212 0 -315 146 -315 362zM164 350c0 -151 65 -277 209 -277
c129 0 210 86 210 277c0 148 -64 277 -210 277c-128 0 -209 -89 -209 -277z" />
    <glyph glyph-name="uniF51B" unicode="&#xf51b;" horiz-adv-x="631" 
d="M149 686l82 26c14 -60 48 -64 95 -64c46 0 82 8 95 63l72 -21c-15 -79 -82 -107 -169 -107c-83 0 -159 24 -175 103zM60 262c0 173 93 278 256 278c172 0 255 -119 255 -278c0 -171 -95 -275 -255 -275c-175 0 -256 118 -256 275zM158 262c0 -99 43 -198 159 -198
c104 0 156 66 156 198c0 103 -43 200 -156 200c-104 0 -159 -65 -159 -200z" />
    <glyph glyph-name="uniF51C" unicode="&#xf51c;" horiz-adv-x="747" 
d="M187 850l93 21c7 -48 42 -73 98 -73s91 25 98 72l84 -18c-17 -73 -74 -117 -183 -117c-105 0 -177 34 -190 115zM58 350c0 229 118 363 315 363c212 0 316 -147 316 -363c0 -229 -119 -362 -316 -362c-212 0 -315 146 -315 362zM583 312h-419c11 -134 77 -239 209 -239
c120 0 199 75 210 239zM165 396h418c-13 128 -79 231 -210 231c-117 0 -196 -74 -208 -231z" />
    <glyph glyph-name="uniF51D" unicode="&#xf51d;" horiz-adv-x="630" 
d="M140 686l82 26c14 -60 48 -64 95 -64c46 0 82 8 95 63l72 -21c-15 -79 -82 -107 -169 -107c-83 0 -159 24 -175 103zM60 262c0 176 91 278 256 278c172 0 254 -115 254 -278c0 -175 -93 -275 -254 -275c-177 0 -256 114 -256 275zM157 295h315c-16 111 -71 167 -156 167
c-79 0 -151 -43 -159 -167zM470 229h-312c11 -104 74 -165 158 -165c75 0 143 45 154 165z" />
    <glyph glyph-name="uniF51E" unicode="&#xf51e;" horiz-adv-x="747" 
d="M187 978l93 21c7 -48 42 -73 98 -73s91 25 98 72l84 -18c-17 -73 -74 -117 -183 -117c-105 0 -177 34 -190 115zM204 795c0 31 23 49 62 49c37 0 62 -18 62 -49c0 -29 -25 -49 -62 -49c-39 0 -62 20 -62 49zM418 795c0 31 24 49 61 49c39 0 63 -18 63 -49
c0 -29 -24 -49 -63 -49c-37 0 -61 20 -61 49zM58 350c0 229 118 363 315 363c212 0 316 -147 316 -363c0 -229 -119 -362 -316 -362c-212 0 -315 146 -315 362zM583 312h-419c11 -134 77 -239 209 -239c120 0 199 75 210 239zM165 396h418c-13 128 -79 231 -210 231
c-117 0 -196 -74 -208 -231z" />
    <glyph glyph-name="uniF51F" unicode="&#xf51f;" horiz-adv-x="630" 
d="M128 818l93 21c7 -48 42 -73 98 -73s91 25 98 72l84 -18c-17 -73 -74 -117 -183 -117c-105 0 -177 34 -190 115zM155 627c0 32 23 56 58 56c33 0 56 -24 56 -56c0 -31 -23 -55 -56 -55c-35 0 -58 24 -58 55zM370 627c0 32 22 56 57 56s57 -24 57 -56
c0 -31 -22 -55 -57 -55s-57 24 -57 55zM60 262c0 176 91 278 256 278c172 0 254 -115 254 -278c0 -175 -93 -275 -254 -275c-177 0 -256 114 -256 275zM157 295h315c-16 111 -71 167 -156 167c-79 0 -151 -43 -159 -167zM470 229h-312c11 -104 74 -165 158 -165
c75 0 143 45 154 165z" />
    <glyph glyph-name="uniF520" unicode="&#xf520;" horiz-adv-x="846" 
d="M598 758h-350v68h350v-68zM757 0h-100v700h100v-700zM89 7v693h100v-267c16 3 57 8 91 8c140 0 271 -48 271 -213c0 -161 -119 -236 -289 -236c-40 0 -117 3 -173 15zM270 77c99 0 175 48 175 144c0 107 -85 134 -180 134c-25 0 -61 -5 -76 -9v-263c19 -5 46 -6 81 -6z
" />
    <glyph glyph-name="uniF521" unicode="&#xf521;" horiz-adv-x="771" 
d="M529 597h-328v69h328v-69zM180 254v-176c28 -4 57 -6 86 -6c96 0 130 35 130 96c0 53 -34 94 -127 94c-25 0 -58 -1 -89 -8zM88 525h92v-201c43 7 80 8 109 8c156 0 205 -68 205 -156c0 -127 -72 -181 -247 -181c-56 0 -107 1 -159 5v525zM683 0h-92v525h92v-525z" />
    <glyph glyph-name="uniF522" unicode="&#xf522;" horiz-adv-x="631" 
d="M442 758h-350v68h350v-68zM467 313h-306v86h305c-13 155 -103 227 -236 228c-71 1 -127 -16 -159 -35l-24 80c44 25 117 41 193 41c186 0 333 -102 333 -363c0 -264 -173 -362 -357 -362c-73 0 -132 12 -171 27l26 86c33 -16 91 -28 152 -28c116 0 231 63 244 240z" />
    <glyph glyph-name="uniF523" unicode="&#xf523;" horiz-adv-x="543" 
d="M403 597h-328v69h328v-69zM385 226h-242v78h241c-8 96 -63 158 -167 158c-63 0 -108 -20 -139 -39l-30 68c47 31 106 49 189 49c169 0 246 -105 246 -278c0 -179 -96 -275 -255 -275c-72 0 -140 11 -180 33l25 76c36 -19 90 -32 141 -32c108 0 162 49 171 162z" />
    <glyph glyph-name="uniF524" unicode="&#xf524;" horiz-adv-x="631" 
d="M73 850l93 21c7 -48 42 -73 98 -73s91 25 98 72l84 -18c-17 -73 -74 -117 -183 -117c-105 0 -177 34 -190 115zM467 313h-306v86h305c-13 155 -103 227 -236 228c-71 1 -127 -16 -159 -35l-24 80c44 25 117 41 193 41c186 0 333 -102 333 -363
c0 -264 -173 -362 -357 -362c-73 0 -132 12 -171 27l26 86c33 -16 91 -28 152 -28c116 0 231 63 244 240z" />
    <glyph glyph-name="uniF525" unicode="&#xf525;" horiz-adv-x="543" 
d="M61 686l82 26c14 -60 48 -64 95 -64c46 0 82 8 95 63l72 -21c-15 -79 -82 -107 -169 -107c-83 0 -159 24 -175 103zM385 226h-242v78h241c-8 96 -63 158 -167 158c-63 0 -108 -20 -139 -39l-30 68c47 31 106 49 189 49c169 0 246 -105 246 -278
c0 -179 -96 -275 -255 -275c-72 0 -140 11 -180 33l25 76c36 -19 90 -32 141 -32c108 0 162 49 171 162z" />
    <glyph glyph-name="uniF526" unicode="&#xf526;" horiz-adv-x="637" 
d="M196 795c0 31 23 49 62 49c37 0 62 -18 62 -49c0 -29 -25 -49 -62 -49c-39 0 -62 20 -62 49zM410 795c0 31 24 49 61 49c39 0 63 -18 63 -49c0 -29 -24 -49 -63 -49c-37 0 -61 20 -61 49zM559 105l23 -75c-44 -31 -114 -42 -190 -42c-179 0 -334 111 -334 362
c0 261 177 363 335 363c88 0 139 -10 178 -25l-23 -84c-33 15 -82 23 -147 23c-108 0 -216 -62 -235 -223h329v-86h-331c11 -161 114 -245 249 -245c65 0 113 13 146 32z" />
    <glyph glyph-name="uniF527" unicode="&#xf527;" horiz-adv-x="566" 
d="M146 635c0 32 23 56 58 56c33 0 56 -24 56 -56c0 -31 -23 -55 -56 -55c-35 0 -58 24 -58 55zM361 635c0 32 22 56 57 56s57 -24 57 -56c0 -31 -22 -55 -57 -55s-57 24 -57 55zM480 103l26 -68c-47 -31 -116 -48 -185 -48c-176 0 -261 110 -261 275c0 177 109 277 267 277
c75 0 128 -12 169 -31l-25 -78c-37 19 -82 31 -131 31c-104 0 -167 -48 -182 -156h265v-78h-265c11 -92 64 -163 191 -163c53 0 100 19 131 39z" />
    <glyph glyph-name="uniF528" unicode="&#xf528;" horiz-adv-x="624" 
d="M521 758h-350v68h350v-68zM535 693v-693h-100v298l-107 -22l-187 -276h-116l169 244l66 44c-104 19 -181 82 -181 201c0 163 130 220 290 220c49 0 113 -4 166 -16zM363 623c-92 0 -178 -27 -178 -133c0 -99 80 -133 179 -133h71v260c-19 5 -37 6 -72 6z" />
    <glyph glyph-name="uniF529" unicode="&#xf529;" horiz-adv-x="578" 
d="M473 597h-328v69h328v-69zM490 0h-92v207l-95 -13l-149 -194h-114l132 172v-1l56 38c-93 11 -151 71 -151 151c0 126 100 179 257 179c51 0 109 -7 156 -18v-521zM336 263l62 1v189c-21 7 -52 8 -72 8c-100 0 -151 -31 -151 -100c0 -67 65 -100 161 -98z" />
    <glyph glyph-name="uniF52A" unicode="&#xf52a;" horiz-adv-x="624" 
d="M146 850l93 21c7 -48 42 -73 98 -73s91 25 98 72l84 -18c-17 -73 -74 -117 -183 -117c-105 0 -177 34 -190 115zM535 693v-693h-100v298l-107 -22l-187 -276h-116l169 244l66 44c-104 19 -181 82 -181 201c0 163 130 220 290 220c49 0 113 -4 166 -16zM363 623
c-92 0 -178 -27 -178 -133c0 -99 80 -133 179 -133h71v260c-19 5 -37 6 -72 6z" />
    <glyph glyph-name="uniF52B" unicode="&#xf52b;" horiz-adv-x="578" 
d="M141 686l82 26c14 -60 48 -64 95 -64c46 0 82 8 95 63l72 -21c-15 -79 -82 -107 -169 -107c-83 0 -159 24 -175 103zM490 0h-92v207l-95 -13l-149 -194h-114l132 172v-1l56 38c-93 11 -151 71 -151 151c0 126 100 179 257 179c51 0 109 -7 156 -18v-521zM336 263l62 1
v189c-21 7 -52 8 -72 8c-100 0 -151 -31 -151 -100c0 -67 65 -100 161 -98z" />
    <glyph glyph-name="uniF52C" unicode="&#xf52c;" horiz-adv-x="978" 
d="M667 758h-350v68h350v-68zM89 700h100v-299h130c15 200 119 312 302 312c212 0 299 -146 299 -363c0 -231 -102 -362 -299 -362s-292 129 -303 325h-129v-313h-100v700zM425 350c0 -150 52 -277 196 -277c129 0 193 86 193 277c0 148 -46 277 -193 277
c-129 0 -196 -89 -196 -277z" />
    <glyph glyph-name="uniF52D" unicode="&#xf52d;" horiz-adv-x="841" 
d="M562 597h-328v69h328v-69zM543 -13c-166 0 -230 98 -241 245h-122v-232h-92v525h92v-215h123c13 145 89 230 242 230c167 0 236 -115 236 -278c0 -173 -78 -275 -238 -275zM394 262c0 -109 33 -198 150 -198c100 0 139 62 139 198c0 108 -31 200 -140 200
c-105 0 -149 -63 -149 -200z" />
    <glyph glyph-name="uniF52E" unicode="&#xf52e;" horiz-adv-x="978" 
d="M275 850l93 21c7 -48 42 -73 98 -73s91 25 98 72l84 -18c-17 -73 -74 -117 -183 -117c-105 0 -177 34 -190 115zM89 700h100v-299h130c15 200 119 312 302 312c212 0 299 -146 299 -363c0 -231 -102 -362 -299 -362s-292 129 -303 325h-129v-313h-100v700zM425 350
c0 -150 52 -277 196 -277c129 0 193 86 193 277c0 148 -46 277 -193 277c-129 0 -196 -89 -196 -277z" />
    <glyph glyph-name="uniF52F" unicode="&#xf52f;" horiz-adv-x="841" 
d="M262 686l82 26c14 -60 48 -64 95 -64c46 0 82 8 95 63l72 -21c-15 -79 -82 -107 -169 -107c-83 0 -159 24 -175 103zM543 -13c-166 0 -230 98 -241 245h-122v-232h-92v525h92v-215h123c13 145 89 230 242 230c167 0 236 -115 236 -278c0 -173 -78 -275 -238 -275z
M394 262c0 -109 33 -198 150 -198c100 0 139 62 139 198c0 108 -31 200 -140 200c-105 0 -149 -63 -149 -200z" />
    <glyph glyph-name="uniF530" unicode="&#xf530;" horiz-adv-x="720" 
d="M606 0h-112v612h-220c-13 -263 -32 -432 -85 -529c-35 -64 -82 -87 -131 -87c-28 0 -43 3 -61 9l12 84c31 -8 67 -4 96 46c40 70 69 228 77 565h412v-612h97v-215h-69z" />
    <glyph glyph-name="uniF531" unicode="&#xf531;" horiz-adv-x="588" 
d="M487 0h-83v447h-170l-2 -30c-18 -265 -42 -421 -170 -421c-29 0 -52 3 -67 9l13 84c9 -3 18 -4 29 -4c64 0 101 75 112 440h347v-447h72v-201h-65z" />
    <glyph glyph-name="uniF532" unicode="&#xf532;" horiz-adv-x="744" 
d="M89 0v700h100v-466l-9 -76h5l50 79l358 463h62v-723c0 -124 -46 -186 -150 -186c-13 0 -28 1 -44 3v85c83 -3 94 33 94 121v463l6 77h-4l-48 -79l-359 -461h-61zM192 850l93 21c7 -48 42 -73 98 -73s91 25 98 72l84 -18c-17 -73 -74 -117 -183 -117
c-105 0 -177 34 -190 115z" />
    <glyph glyph-name="uniF533" unicode="&#xf533;" horiz-adv-x="631" 
d="M88 0v525h92v-310l-7 -92h11l46 89l241 313h72v-548c0 -124 -42 -182 -143 -182c-13 0 -27 1 -42 3v75c82 -3 93 39 93 127v300l14 104h-11l-49 -98l-246 -306h-71zM141 686l82 26c14 -60 48 -64 95 -64c46 0 82 8 95 63l72 -21c-15 -79 -82 -107 -169 -107
c-83 0 -159 24 -175 103z" />
    <glyph glyph-name="uniF534" unicode="&#xf534;" horiz-adv-x="747" 
d="M300 798c0 29 27 54 72 54s73 -25 73 -54c0 -32 -28 -55 -73 -55s-72 23 -72 55zM58 350c0 229 118 363 315 363c212 0 316 -147 316 -363c0 -229 -119 -362 -316 -362c-212 0 -315 146 -315 362zM164 350c0 -151 65 -277 209 -277c129 0 210 86 210 277
c0 148 -64 277 -210 277c-128 0 -209 -89 -209 -277z" />
    <glyph glyph-name="uniF535" unicode="&#xf535;" horiz-adv-x="631" 
d="M60 262c0 173 93 278 256 278c172 0 255 -119 255 -278c0 -171 -95 -275 -255 -275c-175 0 -256 118 -256 275zM158 262c0 -99 43 -198 159 -198c104 0 156 66 156 198c0 103 -43 200 -156 200c-104 0 -159 -65 -159 -200zM242 650c0 31 26 60 65 60s67 -29 67 -60
s-28 -58 -67 -58s-65 27 -65 58z" />
    <glyph glyph-name="uniF536" unicode="&#xf536;" horiz-adv-x="846" 
d="M238 850l93 21c7 -48 42 -73 98 -73s91 25 98 72l84 -18c-17 -73 -74 -117 -183 -117c-105 0 -177 34 -190 115zM757 0h-100v700h100v-700zM89 7v693h100v-267c16 3 57 8 91 8c140 0 271 -48 271 -213c0 -161 -119 -236 -289 -236c-40 0 -117 3 -173 15zM270 77
c99 0 175 48 175 144c0 107 -85 134 -180 134c-25 0 -61 -5 -76 -9v-263c19 -5 46 -6 81 -6z" />
    <glyph glyph-name="uniF537" unicode="&#xf537;" horiz-adv-x="771" 
d="M195 686l82 26c14 -60 48 -64 95 -64c46 0 82 8 95 63l72 -21c-15 -79 -82 -107 -169 -107c-83 0 -159 24 -175 103zM180 254v-176c28 -4 57 -6 86 -6c96 0 130 35 130 96c0 53 -34 94 -127 94c-25 0 -58 -1 -89 -8zM88 525h92v-201c43 7 80 8 109 8
c156 0 205 -68 205 -156c0 -127 -72 -181 -247 -181c-56 0 -107 1 -159 5v525zM683 0h-92v525h92v-525z" />
    <glyph glyph-name="uniF538" unicode="&#xf538;" horiz-adv-x="582" 
d="M154 795c0 31 23 49 62 49c37 0 62 -18 62 -49c0 -29 -25 -49 -62 -49c-39 0 -62 20 -62 49zM368 795c0 31 24 49 61 49c39 0 63 -18 63 -49c0 -29 -24 -49 -63 -49c-37 0 -61 20 -61 49zM450 405v-80h-55c-19 0 -30 0 -47 -1c-108 -7 -175 -44 -175 -120
c0 -89 76 -131 184 -131c64 0 126 18 158 37l29 -75c-36 -23 -106 -47 -202 -47c-163 0 -275 65 -275 208c0 96 58 163 162 176v4c-93 27 -138 97 -138 163c0 121 114 173 252 173c79 0 162 -21 192 -40l-28 -78c-39 16 -103 32 -156 32c-95 0 -155 -27 -155 -98
c0 -68 73 -108 145 -119c24 -4 63 -4 90 -4h19z" />
    <glyph glyph-name="uniF539" unicode="&#xf539;" horiz-adv-x="530" 
d="M110 635c0 32 23 56 58 56c33 0 56 -24 56 -56c0 -31 -23 -55 -56 -55c-35 0 -58 24 -58 55zM325 635c0 32 22 56 57 56s57 -24 57 -56c0 -31 -22 -55 -57 -55s-57 24 -57 55zM366 302v-69h-63c-108 0 -151 -28 -151 -79c0 -52 49 -85 144 -85c57 0 105 12 146 35l24 -72
c-39 -21 -93 -40 -166 -40c-161 0 -240 59 -240 152c0 69 36 107 121 130v10c-65 20 -99 66 -99 118c0 85 73 133 189 133c85 0 146 -21 193 -48l-25 -67c-33 15 -84 37 -139 37c-84 0 -124 -20 -124 -76c0 -45 55 -79 114 -79h76z" />
    <glyph glyph-name="afii10055.alt" unicode="&#xf53a;" horiz-adv-x="398" 
d="M127 798c0 29 27 54 72 54s73 -25 73 -54c0 -32 -28 -55 -73 -55s-72 23 -72 55zM69 66h80v568h-80v66h260v-66h-80v-568h80v-66h-260v66z" />
    <glyph glyph-name="afii10103.alt" unicode="&#xf53b;" horiz-adv-x="317" 
d="M206 0h-92v525h92v-525z" />
    <glyph glyph-name="uni0492.alt" unicode="&#xf53c;" horiz-adv-x="565" 
d="M189 0h-100v700h423v-86h-323v-223h300v-86h-300v-305z" />
    <glyph glyph-name="uni0493.alt" unicode="&#xf53d;" horiz-adv-x="450" 
d="M88 525h338v-78h-246v-139h239v-70h-239v-238h-92v525z" />
    <glyph glyph-name="uni04AA.alt" unicode="&#xf53e;" horiz-adv-x="624" 
d="M560 106l24 -76c-37 -27 -93 -38 -156 -41l-15 -166h-63l-21 170c-151 23 -271 137 -271 357c0 261 177 363 335 363c88 0 140 -10 179 -25l-22 -84c-33 15 -82 23 -149 23c-120 0 -237 -75 -237 -277c0 -181 107 -276 250 -276c65 0 113 13 146 32z" />
    <glyph glyph-name="uni04AB.alt" unicode="&#xf53f;" horiz-adv-x="529" 
d="M454 105l30 -69c-39 -27 -87 -42 -142 -47l-15 -166h-63l-21 169c-133 23 -183 125 -183 270c0 177 89 278 250 278c71 0 121 -14 162 -33l-24 -75c-36 19 -78 30 -127 30c-109 0 -163 -67 -163 -200c0 -100 45 -196 170 -196c56 0 98 18 126 39z" />
    <glyph glyph-name="uniF540" unicode="&#xf540;" horiz-adv-x="715" 
d="M309 752h-81l127 118h132v-23zM89 0v700c53 8 148 9 208 9c244 0 360 -149 360 -354c0 -186 -105 -364 -372 -364c-45 0 -167 4 -196 9zM300 621c-36 0 -92 -2 -111 -5v-534c14 -3 86 -4 100 -4c201 0 262 137 262 277c0 119 -57 266 -251 266z" />
    <glyph glyph-name="uniF541" unicode="&#xf541;" horiz-adv-x="649" 
d="M617 551h-56l64 150h104v-23zM446 700h92v-519c0 -68 0 -126 11 -182h-61l-23 79h-10c-31 -53 -92 -91 -171 -91c-151 0 -224 87 -224 272c0 179 96 277 261 277c56 0 84 -8 125 -19v183zM446 185v243c-31 23 -61 30 -120 30c-108 0 -170 -59 -170 -200
c0 -112 39 -194 147 -194c81 0 124 41 143 121z" />
    <glyph glyph-name="uniF542" unicode="&#xf542;" horiz-adv-x="733" 
d="M361 752h-81l127 118h132v-23zM644 0h-100v313h-355v-313h-100v700h100v-299h355v299h100v-700z" />
    <glyph glyph-name="uniF543" unicode="&#xf543;" horiz-adv-x="641" 
d="M553 310v-310h-92v290c0 115 -26 168 -126 168c-70 0 -137 -49 -155 -123v-335h-92v700h92v-240h11c40 48 93 80 176 80c128 0 186 -50 186 -230zM355 570h-56l64 150h104v-23z" />
    <glyph glyph-name="uniF544" unicode="&#xf544;" horiz-adv-x="566" 
d="M320 552h-56l64 150h104v-23zM189 88h358v-88h-458v700h100v-612z" />
    <glyph glyph-name="uniF545" unicode="&#xf545;" horiz-adv-x="336" 
d="M100 700h92v-561c0 -55 22 -75 57 -75c21 0 39 2 67 10l12 -68c-27 -10 -78 -19 -110 -19c-72 0 -118 33 -118 118v595zM279 552h-56l64 150h104v-23z" />
    <glyph glyph-name="uniF546" unicode="&#xf546;" horiz-adv-x="610" 
d="M332 752h-81l127 118h132v-23zM19 700h572v-88h-236v-612h-100v612h-236v88z" />
    <glyph glyph-name="uniF547" unicode="&#xf547;" horiz-adv-x="405" 
d="M113 447h-89v78h89v106l92 24v-130h158v-78h-158v-268c0 -84 19 -115 71 -115c33 0 57 8 92 20l21 -65c-43 -19 -91 -32 -147 -32c-93 0 -129 46 -129 161v299zM286 551h-56l64 150h104v-23z" />
    <glyph glyph-name="uniF548" unicode="&#xf548;" horiz-adv-x="628" 
d="M332 752h-81l127 118h132v-23zM-2 700h109l189 -466l26 -109h2l27 111l180 464h100l-290 -709h-50z" />
    <glyph glyph-name="uniF549" unicode="&#xf549;" horiz-adv-x="535" 
d="M0 525h108l134 -302l35 -108l33 110l125 300h100l-245 -535h-40zM276 570h-56l64 150h104v-23z" />
    <glyph glyph-name="uniF54A" unicode="&#xf54a;" horiz-adv-x="589" 
d="M203 327h-54v78h17c24 0 83 1 107 5c72 10 130 47 130 108c0 82 -67 108 -148 108c-77 0 -136 -14 -167 -29l-27 80c26 16 116 35 209 35c117 0 239 -41 239 -173c0 -67 -47 -133 -143 -160v-4c103 -15 166 -72 166 -168c0 -152 -145 -219 -288 -219
c-96 0 -160 12 -200 28l25 86c35 -15 95 -29 183 -29c83 0 174 41 174 131c0 80 -65 114 -176 121c-17 1 -28 2 -47 2z" />
    <glyph glyph-name="uniF54B" unicode="&#xf54b;" horiz-adv-x="518" 
d="M199 158h-62v69h76c59 0 123 55 123 127c0 75 -39 106 -135 106c-51 0 -103 -22 -138 -37l-12 31l-12 37c47 28 108 47 192 47c124 0 201 -64 201 -160c0 -88 -48 -144 -111 -167v-11c85 -13 153 -64 153 -178c0 -168 -129 -231 -273 -231c-72 0 -122 16 -165 35l12 30
c4 11 11 27 15 39c40 -16 86 -26 121 -26c136 0 192 55 192 154c0 97 -69 135 -177 135z" />
    <glyph glyph-name="uniF54C" unicode="&#xf54c;" horiz-adv-x="589" 
d="M439 870v-26l-146 -100h-69l-139 101v25h93l64 -49l19 -33l21 32l68 50h89zM203 327h-54v78h17c24 0 83 1 107 5c72 10 130 47 130 108c0 82 -67 108 -148 108c-77 0 -136 -14 -167 -29l-27 80c26 16 116 35 209 35c117 0 239 -41 239 -173c0 -67 -47 -133 -143 -160v-4
c103 -15 166 -72 166 -168c0 -152 -145 -219 -288 -219c-96 0 -160 12 -200 28l25 86c35 -15 95 -29 183 -29c83 0 174 41 174 131c0 80 -65 114 -176 121c-17 1 -28 2 -47 2z" />
    <glyph glyph-name="uniF54D" unicode="&#xf54d;" horiz-adv-x="518" 
d="M311 773h78l-137 -187h-49l-129 187h87l44 -68l28 -71l29 70zM199 158h-62v69h76c59 0 123 55 123 127c0 75 -39 106 -135 106c-51 0 -103 -22 -138 -37l-12 31l-12 37c47 28 108 47 192 47c124 0 201 -64 201 -160c0 -88 -48 -144 -111 -167v-11
c85 -13 153 -64 153 -178c0 -168 -129 -231 -273 -231c-72 0 -122 16 -165 35l12 30c4 11 11 27 15 39c40 -16 86 -26 121 -26c136 0 192 55 192 154c0 97 -69 135 -177 135z" />
    <glyph glyph-name="uniF62C" unicode="&#xf62c;" horiz-adv-x="217" 
d="M174 446c0 -32 -25 -52 -60 -52c-43 0 -70 26 -70 75c0 91 63 130 98 141l27 -40c-32 -15 -55 -38 -52 -73c35 7 57 -16 57 -51z" />
    </font>
</defs>
</svg>
