<svg xmlns="http://www.w3.org/2000/svg">
<defs>
<font id="PTSans-Bold" horiz-adv-x="567" >
  <font-face 
    font-family="PT Sans"
    font-weight="700"
    font-stretch="normal"
    units-per-em="1000"
    panose-1="0 0 0 0 0 0 0 0 0 0"
    ascent="750"
    descent="-250"
    x-height="500"
    cap-height="700"
    bbox="-386 -272 1191 1016"
    underline-thickness="50"
    underline-position="-99"
    stemv="130"
    unicode-range="U+0020-FB02"
  />
<missing-glyph horiz-adv-x="750" 
d="M700 0h-650v700h650v-700zM422 350l198 220l-50 50l-195 -217l-195 217l-50 -50l197 -220l-197 -220l50 -50l195 217l195 -217l50 50zM140 63h-11v-36h8v12h4c8 0 16 3 16 12c0 11 -9 12 -17 12zM137 46v11h4c5 0 8 -2 8 -5c0 -7 -4 -6 -9 -6h-3zM177 57h12v6h-31v-6h12
v-30h7v30zM222 37c0 -3 -2 -4 -7 -4s-8 1 -9 2l-3 -7c3 0 6 -2 13 -2c9 0 14 4 14 12c0 12 -18 9 -18 16c0 2 2 3 6 3c3 0 6 -1 9 -2l2 7c-4 1 -8 2 -11 2c-9 0 -14 -4 -14 -11c0 -12 18 -11 18 -16zM235 52l2 -5c3 1 6 2 9 2s5 -1 5 -4v-2c-1 0 -2 1 -5 1
c-8 0 -12 -3 -12 -10c0 -5 3 -8 8 -8c4 0 7 2 9 5l2 -4h6c-1 1 -1 4 -1 7v11c0 7 -3 10 -10 10c-5 0 -10 -2 -13 -3zM245 32c-3 0 -4 1 -4 4s2 4 5 4s4 -1 5 -1v-3c-1 -3 -3 -4 -6 -4zM284 42v-15h8v16c0 8 -3 12 -9 12c-5 0 -8 -2 -10 -5l-2 4h-5v-27h7v17c1 3 3 4 6 4
s5 -2 5 -6zM299 34l-2 -6c3 -1 6 -2 10 -2c7 0 11 3 11 9c0 7 -4 6 -8 9c-3 1 -5 2 -5 3s1 2 3 2c3 0 5 -1 8 -2l2 6c-3 1 -6 2 -10 2c-7 0 -10 -3 -10 -9c0 -7 5 -8 8 -9c3 0 5 -1 5 -3c0 -1 -1 -2 -3 -2c-3 0 -6 1 -9 2zM338 42c0 -14 7 -21 20 -21s20 7 20 21
c0 13 -7 20 -20 20c-11 0 -20 -8 -20 -20zM344 42c0 10 5 15 14 15s14 -5 14 -15s-5 -15 -14 -15s-14 5 -14 15zM365 33l-1 5c-1 -1 -3 -1 -4 -1c-3 0 -4 2 -4 5s1 4 4 4h3l2 4c-3 1 -5 2 -7 2c-6 0 -9 -3 -9 -10s3 -11 9 -11c3 0 6 1 7 2zM410 63h-11v-36h8v12h4
c8 0 16 3 16 12c0 11 -9 12 -17 12zM407 46v11h4c5 0 8 -2 8 -5c0 -7 -4 -6 -9 -6h-3zM430 52l2 -5c3 1 6 2 9 2s5 -1 5 -4v-2c-1 0 -2 1 -5 1c-9 0 -13 -3 -13 -10c0 -5 3 -8 9 -8c4 0 7 2 9 5l2 -4h6c-1 1 -1 4 -1 7v11c0 7 -3 10 -10 10c-5 0 -10 -2 -13 -3zM440 32

<glyph glyph-name=".notdef" horiz-adv-x="750" 
d="M700 0h-650v700h650v-700zM422 350l198 220l-50 50l-195 -217l-195 217l-50 -50l197 -220l-197 -220l50 -50l195 217l195 -217l50 50zM140 63h-11v-36h8v12h4c8 0 16 3 16 12c0 11 -9 12 -17 12zM137 46v11h4c5 0 8 -2 8 -5c0 -7 -4 -6 -9 -6h-3zM177 57h12v6h-31v-6h12
v-30h7v30zM222 37c0 -3 -2 -4 -7 -4s-8 1 -9 2l-3 -7c3 0 6 -2 13 -2c9 0 14 4 14 12c0 12 -18 9 -18 16c0 2 2 3 6 3c3 0 6 -1 9 -2l2 7c-4 1 -8 2 -11 2c-9 0 -14 -4 -14 -11c0 -12 18 -11 18 -16zM235 52l2 -5c3 1 6 2 9 2s5 -1 5 -4v-2c-1 0 -2 1 -5 1
c-8 0 -12 -3 -12 -10c0 -5 3 -8 8 -8c4 0 7 2 9 5l2 -4h6c-1 1 -1 4 -1 7v11c0 7 -3 10 -10 10c-5 0 -10 -2 -13 -3zM245 32c-3 0 -4 1 -4 4s2 4 5 4s4 -1 5 -1v-3c-1 -3 -3 -4 -6 -4zM284 42v-15h8v16c0 8 -3 12 -9 12c-5 0 -8 -2 -10 -5l-2 4h-5v-27h7v17c1 3 3 4 6 4
s5 -2 5 -6zM299 34l-2 -6c3 -1 6 -2 10 -2c7 0 11 3 11 9c0 7 -4 6 -8 9c-3 1 -5 2 -5 3s1 2 3 2c3 0 5 -1 8 -2l2 6c-3 1 -6 2 -10 2c-7 0 -10 -3 -10 -9c0 -7 5 -8 8 -9c3 0 5 -1 5 -3c0 -1 -1 -2 -3 -2c-3 0 -6 1 -9 2zM338 42c0 -14 7 -21 20 -21s20 7 20 21
c0 13 -7 20 -20 20c-11 0 -20 -8 -20 -20zM344 42c0 10 5 15 14 15s14 -5 14 -15s-5 -15 -14 -15s-14 5 -14 15zM365 33l-1 5c-1 -1 -3 -1 -4 -1c-3 0 -4 2 -4 5s1 4 4 4h3l2 4c-3 1 -5 2 -7 2c-6 0 -9 -3 -9 -10s3 -11 9 -11c3 0 6 1 7 2zM410 63h-11v-36h8v12h4
c8 0 16 3 16 12c0 11 -9 12 -17 12zM407 46v11h4c5 0 8 -2 8 -5c0 -7 -4 -6 -9 -6h-3zM430 52l2 -5c3 1 6 2 9 2s5 -1 5 -4v-2c-1 0 -2 1 -5 1c-9 0 -13 -3 -13 -10c0 -5 3 -8 9 -8c4 0 7 2 9 5l2 -4h6c-1 1 -1 4 -1 7v11c0 7 -3 10 -10 10c-5 0 -10 -2 -13 -3zM440 32
c-3 0 -4 1 -4 4s2 4 5 4s4 -1 5 -1v-3c-1 -3 -3 -4 -6 -4zM477 47l1 7c-1 1 -2 1 -4 1c-3 0 -5 -2 -6 -5h-1l-1 4h-6v-27h8v17c0 3 2 4 6 4h1c1 0 1 -1 2 -1zM482 52l1 -5c4 1 7 2 9 2c3 0 5 -1 5 -4v-2c-1 0 -2 1 -5 1c-9 0 -13 -3 -13 -10c0 -5 3 -8 9 -8c5 0 8 2 9 5h1
l1 -4h6c-1 1 -1 4 -1 7v11c0 7 -3 10 -10 10c-5 0 -9 -2 -12 -3zM491 32c-3 0 -4 1 -4 4s2 4 5 4s4 -1 5 -1v-3c-1 -3 -3 -4 -6 -4zM521 57h12v6h-31v-6h11v-30h8v30zM548 34l-1 5l-6 15h-8l12 -27c-1 -3 -2 -5 -5 -5l-1 1l-2 -6c1 -1 3 -1 5 -1c3 0 6 4 10 13l10 25h-8
l-5 -15v-5h-1zM570 54h-5v-38h8v12c1 -1 2 -2 5 -2c9 0 14 5 14 15c0 9 -4 14 -11 14c-3 0 -6 -1 -9 -4h-1zM579 49c3 0 5 -3 5 -8c0 -6 -2 -9 -7 -9c-1 0 -3 1 -4 2v10c0 3 2 5 6 5zM621 29l-3 5c-1 -1 -4 -2 -7 -2c-5 0 -7 2 -8 6h19v6c0 8 -5 11 -12 11
c-9 0 -14 -5 -14 -15c0 -9 5 -14 14 -14c4 0 8 2 11 3zM610 49c4 0 6 -2 5 -6h-11c0 4 2 6 6 6z" />
    <glyph glyph-name="space" unicode=" " horiz-adv-x="253" 
 />
    <glyph glyph-name="exclam" unicode="!" horiz-adv-x="294" 
d="M126 208l-26 163v329h134v-329l-26 -163h-82zM86 66c0 47 32 76 80 76c51 0 82 -29 82 -76s-31 -76 -82 -76c-48 0 -80 29 -80 76z" />
    <glyph glyph-name="quotedbl" unicode="&#x22;" horiz-adv-x="402" 
d="M316 484h-78v216h114zM168 484h-78v216h114z" />
    <glyph glyph-name="numbersign" unicode="#" 
d="M360 51h-107l36 154h-89l-36 -154h-107l36 154h-74l22 97h75l25 106h-72l22 97h73l35 144h106l-34 -144h89l35 144h106l-34 -144h72l-25 -97h-70l-25 -106h69l-24 -97h-68zM337 408h-89l-25 -106h89z" />
    <glyph glyph-name="dollar" unicode="$" 
d="M342 -99h-104v87c-76 3 -135 17 -167 34l39 113c24 -15 68 -30 128 -35v205c-83 38 -169 85 -169 209c0 115 65 176 169 195v91h104v-87c59 -4 101 -17 138 -33l-36 -111c-23 11 -58 23 -102 28v-187c84 -38 174 -88 174 -207c0 -123 -66 -190 -174 -209v-93zM386 188
c0 43 -39 67 -87 90v-178c59 7 87 39 87 88zM199 525c0 -40 35 -64 82 -87v162c-63 -3 -82 -34 -82 -75z" />
    <glyph glyph-name="percent" unicode="%" horiz-adv-x="840" 
d="M175 -13l-73 68l575 659l73 -66zM457 172c0 120 73 170 175 170s176 -45 176 -170s-74 -170 -176 -170s-175 45 -175 170zM573 172c0 -57 20 -86 59 -86c41 0 59 21 59 86c0 64 -18 86 -59 86s-59 -22 -59 -86zM51 542c0 120 73 170 175 170s176 -45 176 -170
s-74 -170 -176 -170s-175 45 -175 170zM167 542c0 -57 20 -86 59 -86c41 0 59 21 59 86c0 64 -18 86 -59 86s-59 -22 -59 -86z" />
    <glyph glyph-name="ampersand" unicode="&#x26;" horiz-adv-x="814" 
d="M92 194c0 101 71 185 168 239c-33 44 -57 88 -57 139c0 68 48 142 173 142c124 0 169 -64 169 -128c0 -55 -35 -116 -128 -171c47 -72 91 -129 148 -188c31 33 55 87 74 139l94 -50c-16 -47 -60 -121 -89 -158c43 -39 72 -57 105 -76l-69 -95c-37 16 -77 46 -116 83
c-48 -44 -118 -83 -223 -83c-139 0 -249 76 -249 207zM486 149c-68 71 -125 142 -166 205c-64 -49 -98 -92 -98 -149c0 -68 55 -109 136 -109c53 0 104 26 128 53zM333 566c0 -28 12 -58 36 -90c52 33 74 62 74 89c0 32 -17 52 -57 52c-36 0 -53 -20 -53 -51z" />
    <glyph glyph-name="quoteright" unicode="&#x2019;" horiz-adv-x="223" 
d="M38 644c0 39 29 65 69 65c48 0 78 -35 78 -87c0 -107 -76 -145 -112 -159l-33 55c27 12 50 31 53 62c-27 -1 -55 21 -55 64z" />
    <glyph glyph-name="parenleft" unicode="(" horiz-adv-x="327" 
d="M316 -163l-89 -56c-123 128 -167 312 -167 462c0 147 45 333 170 469l84 -54c-92 -124 -124 -278 -124 -415c0 -128 35 -294 126 -406z" />
    <glyph glyph-name="parenright" unicode=")" horiz-adv-x="326" 
d="M11 655l88 57c123 -128 167 -313 167 -463c0 -147 -45 -332 -170 -468l-84 55c98 133 124 276 124 413c0 128 -38 292 -125 406z" />
    <glyph glyph-name="asterisk" unicode="*" horiz-adv-x="378" 
d="M108 644l-28 50l64 37l28 -46l15 -59l15 55l28 49l64 -35l-30 -52l-48 -43l65 16h57v-73h-55l-61 16l50 -47l25 -42l-64 -37l-27 46l-20 64l-13 -58l-29 -49l-64 37l29 49l45 37l-55 -16h-59v74h60l59 -17z" />
    <glyph glyph-name="plus" unicode="+" horiz-adv-x="527" 
d="M205 282h-162v112h162v169h117v-169h163v-112h-163v-171h-117v171z" />
    <glyph glyph-name="comma" unicode="," horiz-adv-x="228" 
d="M42 64c0 45 34 74 78 74c56 0 90 -41 90 -102c0 -120 -84 -167 -135 -183l-38 54c36 15 66 52 69 89c-31 -4 -64 17 -64 68z" />
    <glyph glyph-name="hyphen" unicode="-" horiz-adv-x="360" 
d="M305 230h-251v115h251v-115z" />
    <glyph glyph-name="period" unicode="." horiz-adv-x="246" 
d="M42 66c0 47 32 76 80 76c51 0 82 -29 82 -76s-31 -76 -82 -76c-48 0 -80 29 -80 76z" />
    <glyph glyph-name="slash" unicode="/" horiz-adv-x="408" 
d="M74 -139l-97 46l356 805l98 -44z" />
    <glyph glyph-name="zero" unicode="0" 
d="M40 351c0 245 87 363 244 363c168 0 244 -115 244 -363c0 -247 -88 -364 -245 -364c-167 0 -243 129 -243 364zM170 351c0 -163 33 -255 114 -255c79 0 114 78 114 255c0 161 -31 253 -115 253c-80 0 -113 -81 -113 -253z" />
    <glyph glyph-name="one" unicode="1" 
d="M500 0h-399v110h139v395l15 68l-48 -59l-89 -61l-55 75l228 184h73v-602h136v-110z" />
    <glyph glyph-name="two" unicode="2" 
d="M475 529c0 -135 -108 -283 -196 -387l-53 -41v-5l72 14h192v-110h-421v67c97 101 276 305 276 438c0 55 -30 94 -98 94c-43 0 -91 -20 -122 -48l-52 92c52 43 116 71 205 71c114 0 197 -63 197 -185z" />
    <glyph glyph-name="three" unicode="3" 
d="M241 96c83 0 127 50 127 113c0 76 -44 111 -141 111h-72v69l121 165l57 45l-79 -9h-168v110h382v-71l-141 -189l-44 -27v-5l42 6c93 -8 173 -70 173 -197c0 -156 -112 -230 -253 -230c-59 0 -128 11 -167 30l35 108c35 -17 76 -29 128 -29z" />
    <glyph glyph-name="four" unicode="4" 
d="M443 299h110v-104h-110v-195h-121v195h-303v74l317 436h107v-406zM203 299h119v153l9 84h-4l-34 -72l-104 -135l-50 -38z" />
    <glyph glyph-name="five" unicode="5" 
d="M220 101c88 0 136 45 136 120c0 80 -57 120 -158 116l-79 -3v366h344v-122h-232v-135l41 4c131 -5 214 -88 214 -222c0 -158 -113 -238 -264 -238c-60 0 -117 11 -154 27l35 108c31 -13 65 -21 117 -21z" />
    <glyph glyph-name="six" unicode="6" 
d="M520 217c0 -130 -92 -230 -229 -230c-138 0 -239 87 -239 264c0 264 163 431 355 463l29 -103c-131 -21 -229 -128 -253 -239c27 33 68 60 132 60c121 0 205 -76 205 -215zM394 210c0 75 -37 112 -110 112c-53 0 -91 -28 -106 -60c-3 -15 -2 -24 -2 -35
c0 -64 36 -131 112 -131c63 0 106 47 106 114z" />
    <glyph glyph-name="seven" unicode="7" 
d="M511 662l-280 -662h-127l229 539l44 49l-60 -10h-257v122h451v-38z" />
    <glyph glyph-name="eight" unicode="8" 
d="M61 171c0 93 52 145 122 186c-65 41 -105 92 -105 172c0 105 80 185 211 185c120 0 201 -67 201 -169c0 -79 -36 -130 -104 -175c80 -47 121 -97 121 -185c0 -119 -93 -198 -227 -198c-133 0 -219 73 -219 184zM383 184c0 62 -64 99 -122 130c-63 -36 -82 -80 -82 -121
c0 -53 39 -97 104 -97c60 0 100 29 100 88zM202 527c0 -63 53 -93 109 -120c40 34 60 71 60 112c0 56 -37 85 -84 85c-59 0 -85 -36 -85 -77z" />
    <glyph glyph-name="nine" unicode="9" 
d="M45 481c0 136 84 233 230 233c151 0 242 -92 242 -264c0 -308 -169 -448 -360 -463l-28 101c147 19 229 110 250 224c-32 -35 -64 -46 -125 -46c-101 0 -209 68 -209 215zM171 488c0 -76 48 -115 112 -115c55 0 88 20 107 45c2 14 3 27 3 40c0 76 -36 149 -119 149
c-65 0 -103 -44 -103 -119z" />
    <glyph glyph-name="colon" unicode=":" horiz-adv-x="269" 
d="M93 66c0 47 32 76 80 76c51 0 82 -29 82 -76s-31 -76 -82 -76c-48 0 -80 29 -80 76zM93 428c0 47 32 76 80 76c51 0 82 -29 82 -76s-31 -76 -82 -76c-48 0 -80 29 -80 76z" />
    <glyph glyph-name="semicolon" unicode=";" horiz-adv-x="290" 
d="M82 428c0 47 32 76 80 76c51 0 82 -29 82 -76s-31 -76 -82 -76c-48 0 -80 29 -80 76zM82 64c0 45 34 74 78 74c56 0 90 -41 90 -102c0 -120 -84 -167 -135 -183l-38 54c36 15 66 52 69 89c-31 -4 -64 17 -64 68z" />
    <glyph glyph-name="less" unicode="&#x3c;" horiz-adv-x="527" 
d="M488 154l-57 -90l-391 221v70l386 231l57 -90l-224 -139l-91 -35l90 -31z" />
    <glyph glyph-name="equal" unicode="=" horiz-adv-x="527" 
d="M485 188h-442v112h442v-112zM485 378h-442v112h442v-112z" />
    <glyph glyph-name="greater" unicode="&#x3e;" horiz-adv-x="527" 
d="M39 497l57 89l391 -221v-70l-386 -231l-57 91l224 138l91 36l-90 30z" />
    <glyph glyph-name="question" unicode="?" horiz-adv-x="454" 
d="M247 208h-111c-20 208 160 212 160 319c0 47 -22 77 -89 77c-43 0 -99 -22 -134 -46l-50 96c51 35 114 60 207 60c125 0 200 -65 200 -168c0 -205 -183 -171 -183 -338zM116 66c0 47 32 76 80 76c51 0 82 -29 82 -76s-31 -76 -82 -76c-48 0 -80 29 -80 76z" />
    <glyph glyph-name="at" unicode="@" horiz-adv-x="1059" 
d="M648 452l31 32h70l-48 -271c-11 -63 -2 -89 33 -89c68 0 141 63 141 202c0 199 -142 282 -323 282c-208 0 -367 -157 -367 -368c0 -207 127 -335 356 -335c39 0 93 9 133 28l31 -96c-55 -27 -108 -36 -181 -36c-259 0 -451 151 -451 435c0 291 223 476 481 476
c245 0 432 -144 432 -386c0 -171 -129 -306 -289 -306c-68 0 -116 27 -108 110h-4c-41 -57 -92 -110 -172 -110c-65 0 -119 58 -119 146c0 165 115 324 251 324c47 0 76 -15 103 -38zM591 225l25 138c-17 15 -34 23 -62 23c-81 0 -138 -101 -138 -187c0 -44 16 -75 60 -75
c38 0 86 49 115 101z" />
    <glyph glyph-name="A" unicode="A" horiz-adv-x="605" 
d="M605 0h-144l-56 155h-215l-53 -155h-137l252 705h101zM297 531l-21 -111l-51 -155h150l-52 156l-21 110h-5z" />
    <glyph glyph-name="B" unicode="B" horiz-adv-x="591" 
d="M531 537c0 -71 -33 -140 -125 -162v-6c81 -13 147 -63 147 -172c0 -145 -134 -206 -273 -206c-45 0 -150 -1 -220 14v690c51 8 135 15 212 15c131 0 259 -33 259 -173zM281 103c67 0 130 32 130 101c0 87 -77 98 -146 98h-73v-193c13 -5 62 -6 89 -6zM192 593v-187h44
c19 0 47 1 63 4c51 16 93 47 93 99c0 69 -58 88 -118 88c-35 0 -66 -1 -82 -4z" />
    <glyph glyph-name="C" unicode="C" horiz-adv-x="559" 
d="M506 141l28 -112c-43 -30 -114 -42 -183 -42c-167 0 -313 98 -313 363c0 274 168 364 316 364c80 0 134 -12 170 -27l-27 -116c-31 15 -71 21 -131 21c-111 0 -184 -77 -184 -242c0 -144 65 -241 194 -241c60 0 99 13 130 32z" />
    <glyph glyph-name="D" unicode="D" horiz-adv-x="647" 
d="M60 0v700c56 8 148 10 204 10c249 0 345 -146 345 -354c0 -188 -89 -366 -358 -366c-41 0 -156 5 -191 10zM275 588c-29 0 -63 -1 -78 -4v-469c10 -2 57 -4 70 -4c156 0 198 119 198 245c0 109 -37 232 -190 232z" />
    <glyph glyph-name="E" unicode="E" horiz-adv-x="522" 
d="M480 0h-420v700h415v-122h-278v-163h253v-122h-253v-171h283v-122z" />
    <glyph glyph-name="F" unicode="F" horiz-adv-x="508" 
d="M197 0h-137v700h415v-122h-278v-173h256v-122h-256v-283z" />
    <glyph glyph-name="G" unicode="G" horiz-adv-x="609" 
d="M458 266l-151 16v83h261v-312c-56 -47 -140 -66 -216 -66c-179 0 -314 109 -314 363c0 265 167 364 326 364c80 0 142 -15 178 -28l-28 -115c-33 13 -71 21 -135 21c-115 0 -197 -67 -197 -243c0 -168 81 -241 183 -241c35 0 70 9 93 26v132z" />
    <glyph glyph-name="H" unicode="H" horiz-adv-x="651" 
d="M590 0h-137v293h-256v-293h-137v700h137v-285h256v285h137v-700z" />
    <glyph glyph-name="I" unicode="I" horiz-adv-x="285" 
d="M211 0h-137v700h137v-700z" />
    <glyph glyph-name="J" unicode="J" horiz-adv-x="334" 
d="M131 223v477h137v-512c0 -106 -46 -199 -169 -199c-39 0 -89 8 -121 22l29 112c17 -9 37 -13 59 -13c56 0 65 45 65 113z" />
    <glyph glyph-name="K" unicode="K" horiz-adv-x="620" 
d="M609 0h-169l-207 299h-36v-299h-137v700h137v-310l32 14l193 296h156l-204 -294l-54 -38l56 -39z" />
    <glyph glyph-name="L" unicode="L" horiz-adv-x="514" 
d="M197 122h306v-122h-443v700h137v-578z" />
    <glyph glyph-name="M" unicode="M" horiz-adv-x="800" 
d="M740 0h-137v363l15 139h-6l-43 -112l-149 -261h-44l-157 262l-44 111h-5l20 -138v-364h-130v700h125l187 -320l33 -80h4l30 82l177 318h124v-700z" />
    <glyph glyph-name="N" unicode="N" horiz-adv-x="657" 
d="M597 -4h-100l-263 369l-55 110h-5l16 -110v-365h-130v705h100l265 -373l53 -107h5l-16 107v368h130v-704z" />
    <glyph glyph-name="O" unicode="O" horiz-adv-x="670" 
d="M38 350c0 233 106 364 297 364c201 0 297 -145 297 -364c0 -233 -108 -363 -297 -363c-203 0 -297 144 -297 363zM182 350c0 -141 46 -242 153 -242c97 0 153 71 153 242c0 136 -42 242 -153 242c-97 0 -153 -75 -153 -242z" />
    <glyph glyph-name="P" unicode="P" horiz-adv-x="572" 
d="M197 0h-137v693c56 11 126 17 193 17c139 0 294 -36 294 -232c0 -175 -133 -241 -271 -241c-14 0 -64 1 -79 4v-241zM264 592c-27 0 -52 -2 -67 -5v-227c11 -3 47 -4 59 -4c73 0 147 21 147 124c0 88 -70 112 -139 112z" />
    <glyph glyph-name="Q" unicode="Q" horiz-adv-x="670" 
d="M702 -82v-119c-32 -9 -64 -13 -97 -13c-135 0 -258 66 -358 66c-16 0 -31 -2 -46 -6v118c19 4 38 6 58 6c112 0 219 -63 351 -63c29 0 60 3 92 11zM38 350c0 233 106 364 297 364c201 0 297 -145 297 -364c0 -233 -108 -363 -297 -363c-203 0 -297 144 -297 363zM182 350
c0 -141 46 -242 153 -242c97 0 153 71 153 242c0 136 -42 242 -153 242c-97 0 -153 -75 -153 -242z" />
    <glyph glyph-name="R" unicode="R" horiz-adv-x="602" 
d="M197 0h-137v693c62 11 144 17 200 17c132 0 264 -41 264 -197c0 -115 -58 -187 -147 -215l49 -31l160 -267h-158l-159 274l-72 13v-287zM270 588c-28 0 -58 -1 -73 -5v-203h58c76 0 125 32 125 112c0 60 -38 96 -110 96z" />
    <glyph glyph-name="S" unicode="S" horiz-adv-x="530" 
d="M362 188c0 127 -319 91 -319 326c0 136 96 200 236 200c81 0 157 -14 204 -41l-43 -115c-29 19 -93 37 -161 37c-64 0 -99 -27 -99 -70c0 -120 319 -98 319 -322c0 -148 -103 -216 -256 -216c-100 0 -180 22 -216 41l44 117c29 -16 97 -40 165 -40c81 0 126 27 126 83z
" />
    <glyph glyph-name="T" unicode="T" horiz-adv-x="568" 
d="M11 700h546v-122h-204v-578h-137v578h-205v122z" />
    <glyph glyph-name="U" unicode="U" horiz-adv-x="627" 
d="M440 258v442h130v-452c0 -181 -99 -259 -247 -259c-177 0 -266 80 -266 242v469h137v-442c0 -110 41 -148 127 -148c84 0 119 44 119 148z" />
    <glyph glyph-name="V" unicode="V" horiz-adv-x="602" 
d="M-8 700h158l140 -411l18 -119h5l20 120l134 410h144l-260 -704h-98z" />
    <glyph glyph-name="W" unicode="W" horiz-adv-x="862" 
d="M0 700h149l93 -391l13 -124h4l14 126l122 389h90l120 -391l14 -124h4l15 126l85 389h139l-193 -704h-92l-125 388l-17 107h-5l-17 -108l-124 -387h-97z" />
    <glyph glyph-name="X" unicode="X" horiz-adv-x="633" 
d="M159 0h-149l215 356l-195 344h165l108 -202l24 -71l23 71l113 202h149l-202 -337l212 -363h-163l-123 216l-27 74l-26 -74z" />
    <glyph glyph-name="Y" unicode="Y" horiz-adv-x="592" 
d="M365 0h-137v260l-229 440h162l128 -263l14 -74h5l15 76l124 261h147l-229 -439v-261z" />
    <glyph glyph-name="Z" unicode="Z" horiz-adv-x="539" 
d="M512 0h-485v122l296 414l52 42h-348v122h485v-122l-298 -418l-51 -38h349v-122z" />
    <glyph glyph-name="bracketleft" unicode="[" horiz-adv-x="324" 
d="M295 -229h-235v929h235v-110h-111v-709h111v-110z" />
    <glyph glyph-name="backslash" unicode="\" horiz-adv-x="424" 
d="M-23 668l101 43l360 -805l-99 -45z" />
    <glyph glyph-name="bracketright" unicode="]" horiz-adv-x="324" 
d="M29 700h235v-929h-235v110h111v709h-111v110z" />
    <glyph glyph-name="asciicircum" unicode="^" horiz-adv-x="500" 
d="M144 413h-124l196 292h69l185 -292h-131l-71 122l-21 70l-25 -71z" />
    <glyph glyph-name="underscore" unicode="_" horiz-adv-x="444" 
d="M444 -223h-444v107h444v-107z" />
    <glyph glyph-name="quoteleft" unicode="&#x2018;" horiz-adv-x="223" 
d="M185 618c0 -39 -29 -64 -68 -64c-49 0 -79 34 -79 86c0 106 76 146 112 159l32 -54c-27 -11 -47 -36 -50 -63c27 0 53 -25 53 -64z" />
    <glyph glyph-name="a" unicode="a" horiz-adv-x="496" 
d="M85 374l-31 97c53 24 130 39 210 39c140 0 180 -69 180 -175c0 -117 -21 -240 11 -335h-106l-21 68h-5c-27 -41 -72 -75 -147 -75c-92 0 -153 58 -153 145c0 122 115 168 291 160c9 75 -6 105 -75 105c-52 0 -117 -12 -154 -29zM219 99c52 0 81 28 96 55v65
c-83 8 -158 -9 -158 -61c0 -37 23 -59 62 -59z" />
    <glyph glyph-name="b" unicode="b" horiz-adv-x="536" 
d="M57 22v678h130v-240h4c28 32 74 52 127 52c120 0 185 -81 185 -249c0 -180 -94 -274 -249 -274c-85 0 -161 16 -197 33zM280 402c-48 0 -77 -25 -93 -72v-218c21 -11 46 -14 74 -14c71 0 108 49 108 161c0 95 -30 143 -89 143z" />
    <glyph glyph-name="c" unicode="c" horiz-adv-x="433" 
d="M381 130l30 -99c-40 -29 -100 -44 -160 -44c-160 0 -218 105 -218 263c0 169 78 264 223 264c73 0 113 -13 149 -32l-31 -106c-31 15 -58 23 -97 23c-72 0 -110 -45 -110 -149c0 -84 36 -149 117 -149c44 0 73 13 97 29z" />
    <glyph glyph-name="d" unicode="d" horiz-adv-x="539" 
d="M352 700h130v-524c0 -56 -1 -109 10 -176h-93l-18 64h-4c-27 -47 -78 -77 -146 -77c-125 0 -198 79 -198 255c0 171 79 270 228 270c41 0 64 -4 91 -15v203zM261 96c51 0 79 25 91 72v212c-19 15 -39 22 -75 22c-73 0 -110 -44 -110 -164c0 -85 29 -142 94 -142z" />
    <glyph glyph-name="e" unicode="e" horiz-adv-x="508" 
d="M414 128l43 -85c-40 -32 -114 -56 -191 -56c-161 0 -233 99 -233 263c0 176 88 264 240 264c101 0 200 -47 200 -202c0 -28 -3 -60 -10 -95h-300c4 -84 40 -127 128 -127c55 0 100 21 123 38zM271 410c-68 0 -98 -44 -105 -112h186c5 72 -22 112 -81 112z" />
    <glyph glyph-name="f" unicode="f" horiz-adv-x="321" 
d="M80 390h-69v110h69v28c0 127 55 180 156 180c53 0 98 -6 133 -19l-25 -104c-31 11 -52 13 -77 13c-53 0 -57 -33 -57 -98h110v-110h-110v-390h-130v390z" />
    <glyph glyph-name="g" unicode="g" horiz-adv-x="536" 
d="M480 482v-482c0 -144 -83 -211 -224 -211c-96 0 -148 16 -176 31l27 103c31 -12 69 -27 129 -27c91 0 117 41 117 111v32h-4c-23 -31 -65 -46 -124 -46c-129 0 -192 76 -192 247c0 179 87 272 250 272c85 0 154 -14 197 -30zM260 96c51 0 75 23 90 68v225
c-21 9 -46 13 -77 13c-67 0 -106 -48 -106 -157c0 -97 33 -149 93 -149z" />
    <glyph glyph-name="h" unicode="h" horiz-adv-x="545" 
d="M493 311v-311h-130v284c0 81 -19 115 -79 115c-44 0 -85 -33 -97 -80v-319h-130v700h130v-256h4c32 43 76 70 148 70c102 0 154 -47 154 -203z" />
    <glyph glyph-name="i" unicode="i" horiz-adv-x="269" 
d="M50 641c0 39 30 70 81 70s85 -31 85 -70s-34 -68 -85 -68s-81 29 -81 68zM199 0h-130v500h130v-500z" />
    <glyph glyph-name="j" unicode="j" horiz-adv-x="268" 
d="M52 641c0 39 30 70 81 70s85 -31 85 -70s-34 -68 -85 -68s-81 29 -81 68zM69 16v484h130v-520c0 -121 -46 -187 -151 -187c-20 0 -41 2 -63 7v109c5 0 9 -1 13 -1c59 0 71 41 71 108z" />
    <glyph glyph-name="k" unicode="k" horiz-adv-x="491" 
d="M493 0h-149l-122 207h-35v-207h-130v700h130v-413l30 14l114 199h143l-120 -190l-51 -38l55 -39z" />
    <glyph glyph-name="l" unicode="l" horiz-adv-x="294" 
d="M61 700h130v-532c0 -47 11 -67 38 -67c16 0 29 2 52 11l14 -102c-21 -10 -70 -23 -117 -23c-76 0 -117 32 -117 113v600z" />
    <glyph glyph-name="m" unicode="m" horiz-adv-x="805" 
d="M471 328v-328h-130v272c0 92 -12 127 -67 127c-45 0 -72 -27 -87 -66v-333h-130v500h101l15 -66h4c31 43 75 80 150 80c64 0 103 -24 126 -85c31 52 78 85 146 85c111 0 156 -47 156 -214v-300h-130v281c0 79 -11 118 -68 118c-47 0 -73 -27 -86 -71z" />
    <glyph glyph-name="n" unicode="n" horiz-adv-x="545" 
d="M493 311v-311h-130v284c0 81 -21 115 -77 115c-49 0 -84 -32 -99 -75v-324h-130v500h103l15 -66h4c31 43 79 80 159 80c100 0 155 -47 155 -203z" />
    <glyph glyph-name="o" unicode="o" horiz-adv-x="537" 
d="M33 250c0 169 87 264 236 264c159 0 235 -106 235 -264c0 -169 -86 -263 -235 -263c-159 0 -236 105 -236 263zM167 250c0 -88 30 -154 102 -154c68 0 101 47 101 154c0 92 -28 154 -101 154c-64 0 -102 -45 -102 -154z" />
    <glyph glyph-name="p" unicode="p" horiz-adv-x="540" 
d="M187 -199h-130v699h95l15 -60h4c35 51 80 74 148 74c125 0 188 -75 188 -251c0 -172 -82 -276 -229 -276c-41 0 -64 6 -91 18v-204zM280 404c-51 0 -77 -25 -93 -76v-208c19 -15 38 -24 74 -24c75 0 112 49 112 170c0 88 -28 138 -93 138z" />
    <glyph glyph-name="q" unicode="q" horiz-adv-x="536" 
d="M480 482v-681h-130v242h-4c-23 -35 -60 -56 -121 -56c-124 0 -192 82 -192 253c0 179 93 272 261 272c72 0 147 -16 186 -30zM260 96c51 0 75 23 90 68v225c-20 11 -45 13 -77 13c-71 0 -106 -54 -106 -157c0 -97 33 -149 93 -149z" />
    <glyph glyph-name="r" unicode="r" horiz-adv-x="351" 
d="M350 500l-17 -122c-21 7 -39 11 -56 11c-47 0 -79 -27 -90 -66v-323h-130v500h101l15 -66h4c23 49 62 77 114 77c17 0 37 -4 59 -11z" />
    <glyph glyph-name="s" unicode="s" horiz-adv-x="422" 
d="M264 138c0 81 -228 43 -228 224c0 99 60 152 171 152c76 0 140 -19 175 -39l-29 -94c-31 12 -81 29 -129 29c-39 0 -58 -15 -58 -45c0 -73 228 -41 228 -216c0 -101 -65 -162 -194 -162c-71 0 -136 20 -175 44l36 97c31 -17 86 -38 139 -38c39 0 64 13 64 48z" />
    <glyph glyph-name="t" unicode="t" horiz-adv-x="349" 
d="M74 390h-69v110h69v94l130 37v-131h122v-110h-122v-192c0 -69 11 -97 50 -97c27 0 43 5 67 16l23 -100c-36 -17 -87 -30 -136 -30c-92 0 -134 43 -134 151v252z" />
    <glyph glyph-name="u" unicode="u" horiz-adv-x="538" 
d="M52 189v311h130v-284c0 -81 15 -115 71 -115c49 0 82 33 98 76v323h130v-348c0 -55 5 -109 16 -152h-98l-23 74h-4c-31 -51 -86 -87 -161 -87c-102 0 -159 46 -159 202z" />
    <glyph glyph-name="v" unicode="v" horiz-adv-x="477" 
d="M-13 500h150l93 -262l17 -77h5l14 79l85 260h140l-209 -504h-79z" />
    <glyph glyph-name="w" unicode="w" horiz-adv-x="721" 
d="M240 250l83 250h96l91 -256l18 -83h4l14 84l64 255h119l-154 -504h-96l-101 279l-13 63h-5l-12 -64l-96 -278h-99l-160 504h140l73 -251l12 -89h5z" />
    <glyph glyph-name="x" unicode="x" horiz-adv-x="525" 
d="M150 0h-142l162 256l-150 244h155l65 -107l28 -70l30 70l68 107h141l-151 -240l161 -260h-151l-77 120l-30 74l-32 -74z" />
    <glyph glyph-name="y" unicode="y" horiz-adv-x="478" 
d="M-8 500h155l92 -281l18 -78h6l13 79l76 280h134l-152 -451c-50 -148 -89 -253 -182 -253c-35 0 -62 6 -83 17l24 104c10 -4 20 -6 30 -6c31 0 62 22 77 89z" />
    <glyph glyph-name="z" unicode="z" horiz-adv-x="458" 
d="M423 0h-392v110l197 237l51 43h-248v110h392v-110l-195 -241l-50 -39h245v-110z" />
    <glyph glyph-name="braceleft" unicode="{" horiz-adv-x="371" 
d="M123 -108v204c0 68 -29 89 -80 89v100c51 0 80 26 80 85v209c0 72 32 122 107 122h120v-110h-50c-36 0 -52 -17 -52 -60v-195c0 -59 -33 -87 -70 -94v-10c36 -5 70 -42 70 -98v-193c0 -43 14 -60 53 -60h49v-110h-120c-69 0 -107 44 -107 121z" />
    <glyph glyph-name="bar" unicode="|" horiz-adv-x="227" 
d="M167 -129h-107v829h107v-829z" />
    <glyph glyph-name="braceright" unicode="}" horiz-adv-x="371" 
d="M261 580v-205c0 -68 29 -89 80 -89v-100c-51 0 -80 -26 -80 -85v-208c0 -72 -34 -122 -109 -122h-117v110h50c36 0 52 16 52 60v194c0 59 33 87 70 94v10c-36 5 -70 42 -70 98v194c0 41 -14 60 -53 60h-49v110h119c71 0 107 -44 107 -121z" />
    <glyph glyph-name="asciitilde" unicode="~" horiz-adv-x="527" 
d="M72 278l-44 100c63 51 111 67 154 67c77 0 131 -53 193 -53c24 0 49 6 77 29l47 -103c-48 -36 -87 -49 -122 -49c-75 0 -123 58 -193 58c-32 0 -68 -12 -112 -49z" />
    <glyph glyph-name="exclamdown" unicode="&#xa1;" horiz-adv-x="293" 
d="M165 291l26 -162v-328h-134v328l26 162h82zM44 435c0 47 32 76 80 76c51 0 82 -29 82 -76s-31 -77 -82 -77c-48 0 -80 30 -80 77z" />
    <glyph glyph-name="cent" unicode="&#xa2;" 
d="M459 129l30 -98c-23 -17 -58 -30 -97 -36v-94h-121v89c-136 18 -187 116 -187 260c0 149 66 240 187 260v90h121v-90c37 -5 66 -14 90 -26l-30 -106c-20 9 -43 14 -67 17v-291c31 4 55 14 74 25zM212 250c0 -68 23 -123 83 -142v286c-56 -15 -83 -59 -83 -144z" />
    <glyph glyph-name="sterling" unicode="&#xa3;" 
d="M172 287h-121v107h68c-17 32 -32 70 -32 126c0 131 92 194 223 194c81 0 149 -17 197 -40l-42 -116c-27 15 -74 34 -139 34c-64 0 -102 -30 -102 -90c0 -45 20 -75 40 -108h141v-107h-98c2 -11 3 -23 3 -34c0 -40 -13 -89 -41 -117l-43 -31v-5l67 15h230v-115h-472v115h2
c83 0 125 57 125 122c0 18 -2 35 -6 50z" />
    <glyph glyph-name="fraction" unicode="&#x2044;" horiz-adv-x="184" 
d="M-78 -13l-86 52l430 676l85 -50z" />
    <glyph glyph-name="yen" unicode="&#xa5;" 
d="M216 257h-132v80h91l-188 363h162l128 -263l14 -74h5l15 76l124 261h147l-190 -363h90v-80h-129v-57h129v-80h-129v-120h-137v120h-132v80h132v57z" />
    <glyph glyph-name="florin" unicode="&#x192;" 
d="M480 500v-110h-138l-71 -423c-16 -98 -58 -174 -175 -174c-38 0 -115 11 -147 24l21 105c30 -13 55 -19 92 -19c48 0 73 30 85 105l61 382h-78v110h96l11 67c16 99 50 147 165 147c42 0 115 -14 154 -32l-32 -97c-33 13 -64 19 -95 19c-43 0 -55 -18 -63 -71l-5 -33h119z
" />
    <glyph glyph-name="section" unicode="&#xa7;" horiz-adv-x="530" 
d="M49 353c0 41 21 82 56 113l41 14c-35 21 -60 51 -60 106c0 75 58 128 175 128c79 0 152 -16 188 -33l-32 -105c-31 15 -87 28 -134 28c-49 0 -67 -16 -67 -39c0 -73 265 -25 265 -218c0 -41 -20 -81 -55 -112l-45 -14c36 -21 63 -52 63 -107c0 -84 -71 -127 -179 -127
c-91 0 -149 21 -188 42l34 100c31 -15 74 -33 133 -33c49 0 70 12 70 40c0 76 -265 30 -265 217zM351 345c0 47 -47 62 -124 86c-27 -16 -48 -43 -48 -76c0 -47 45 -64 120 -85c29 16 52 44 52 75z" />
    <glyph glyph-name="currency" unicode="&#xa4;" 
d="M82 464l-77 78l76 80l78 -77l19 -37c27 20 65 30 105 30c39 0 80 -10 105 -29l20 36l78 77l77 -80l-77 -78l-37 -16c19 -28 26 -64 26 -103c0 -40 -9 -77 -26 -101l37 -16l77 -78l-77 -80l-78 77l-18 37c-25 -19 -68 -30 -107 -30c-40 0 -78 10 -105 29l-19 -36l-78 -77
l-76 80l77 78l36 17c-16 28 -26 60 -26 100c0 39 11 71 28 102zM201 346c0 -51 34 -86 83 -86s82 35 82 86c0 48 -33 86 -82 86s-83 -38 -83 -86z" />
    <glyph glyph-name="quotesingle" unicode="'" horiz-adv-x="254" 
d="M168 484h-78v216h114z" />
    <glyph glyph-name="quotedblleft" unicode="&#x201c;" horiz-adv-x="396" 
d="M185 618c0 -39 -29 -64 -68 -64c-49 0 -79 34 -79 86c0 106 76 146 112 159l32 -54c-27 -11 -47 -36 -50 -63c27 0 53 -25 53 -64zM358 618c0 -39 -29 -64 -68 -64c-49 0 -79 34 -79 86c0 106 76 146 112 159l32 -54c-27 -11 -47 -36 -50 -63c27 0 53 -25 53 -64z" />
    <glyph glyph-name="guillemotleft" unicode="&#xab;" horiz-adv-x="488" 
d="M454 104l-71 -56l-160 213l154 216l71 -56l-81 -122l-46 -39l46 -35zM274 100l-79 -62l-166 221l160 230l79 -62l-87 -126l-48 -41l48 -36z" />
    <glyph glyph-name="guilsinglleft" unicode="&#x2039;" horiz-adv-x="307" 
d="M272 102l-77 -64l-166 221l160 230l75 -62l-83 -126l-48 -41l48 -36z" />
    <glyph glyph-name="guilsinglright" unicode="&#x203a;" horiz-adv-x="307" 
d="M34 426l78 63l166 -221l-160 -230l-76 61l84 127l48 41l-48 36z" />
    <glyph glyph-name="fi" unicode="&#xfb01;" horiz-adv-x="553" 
d="M211 500h281v-500h-130v390h-151v-390h-130v390h-69v110h69v28c0 127 67 182 191 182c92 0 165 -15 209 -40l-34 -101c-35 19 -85 31 -145 31c-78 0 -91 -35 -91 -100z" />
    <glyph glyph-name="fl" unicode="&#xfb02;" horiz-adv-x="593" 
d="M360 100v496c-17 4 -51 7 -79 7c-62 0 -70 -38 -70 -103h75v-110h-75v-390h-130v390h-69v110h69v28c0 125 54 185 202 185c61 0 170 -10 207 -18v-527c0 -47 12 -67 37 -67c16 0 29 2 52 11l15 -102c-21 -10 -71 -23 -118 -23c-76 0 -116 32 -116 113z" />
    <glyph glyph-name="endash" unicode="&#x2013;" horiz-adv-x="660" 
d="M551 230h-442v116h442v-116z" />
    <glyph glyph-name="dagger" unicode="&#x2020;" horiz-adv-x="509" 
d="M156 401h-116v112h116l52 -16l-16 54v149h124v-149l-15 -54l51 16h117v-112h-119l-49 16l15 -50v-367l-16 -199h-92l-16 200v366l16 50z" />
    <glyph glyph-name="daggerdbl" unicode="&#x2021;" horiz-adv-x="509" 
d="M208 242l-16 45v84l16 45l-52 -15h-116v112h116l52 -15l-16 50v152h124v-152l-15 -50l51 15h117v-112h-119l-49 15l15 -45v-84l-15 -45l49 15h119v-112h-117l-51 15l15 -50v-110l-17 -199h-90l-17 200v109l16 50l-52 -15h-116v112h116z" />
    <glyph glyph-name="periodcentered" unicode="&#xb7;" horiz-adv-x="253" 
d="M45 316c0 47 32 76 80 76c51 0 82 -29 82 -76s-31 -76 -82 -76c-48 0 -80 29 -80 76z" />
    <glyph glyph-name="paragraph" unicode="&#xb6;" horiz-adv-x="529" 
d="M469 -129h-107v829h107v-829zM284 -129h-106v423c-89 0 -152 96 -152 204c0 107 72 202 184 202h74v-829z" />
    <glyph glyph-name="bullet" unicode="&#x2022;" horiz-adv-x="452" 
d="M73 311c0 90 69 153 152 153c85 0 153 -57 153 -153c0 -95 -68 -152 -153 -152c-83 0 -152 57 -152 152z" />
    <glyph glyph-name="quotesinglbase" unicode="&#x201a;" horiz-adv-x="223" 
d="M38 63c0 39 29 65 69 65c48 0 78 -35 78 -87c0 -107 -76 -145 -112 -159l-33 55c27 12 50 31 53 62c-27 -1 -55 21 -55 64z" />
    <glyph glyph-name="quotedblbase" unicode="&#x201e;" horiz-adv-x="396" 
d="M38 63c0 39 29 65 69 65c48 0 78 -35 78 -87c0 -107 -76 -145 -112 -159l-33 55c27 12 50 31 53 62c-27 -1 -55 21 -55 64zM211 63c0 39 29 65 69 65c48 0 78 -35 78 -87c0 -107 -76 -145 -112 -159l-33 55c27 12 50 31 53 62c-27 -1 -55 21 -55 64z" />
    <glyph glyph-name="quotedblright" unicode="&#x201d;" horiz-adv-x="396" 
d="M38 644c0 39 29 65 69 65c48 0 78 -35 78 -87c0 -107 -76 -145 -112 -159l-33 55c27 12 50 31 53 62c-27 -1 -55 21 -55 64zM211 644c0 39 29 65 69 65c48 0 78 -35 78 -87c0 -107 -76 -145 -112 -159l-33 55c27 12 50 31 53 62c-27 -1 -55 21 -55 64z" />
    <glyph glyph-name="guillemotright" unicode="&#xbb;" horiz-adv-x="488" 
d="M34 423l70 56l160 -213l-153 -216l-72 56l82 122l45 39l-45 35zM214 427l79 62l166 -221l-160 -230l-79 62l87 126l48 41l-48 36z" />
    <glyph glyph-name="ellipsis" unicode="&#x2026;" horiz-adv-x="809" 
d="M597 66c0 47 32 76 80 76c51 0 82 -29 82 -76s-31 -76 -82 -76c-48 0 -80 29 -80 76zM325 66c0 47 32 76 80 76c51 0 82 -29 82 -76s-31 -76 -82 -76c-48 0 -80 29 -80 76zM53 66c0 47 32 76 80 76c51 0 82 -29 82 -76s-31 -76 -82 -76c-48 0 -80 29 -80 76z" />
    <glyph glyph-name="perthousand" unicode="&#x2030;" horiz-adv-x="1232" 
d="M175 -13l-73 68l575 659l73 -66zM840 172c0 120 73 170 175 170s176 -45 176 -170s-74 -170 -176 -170s-175 45 -175 170zM956 172c0 -57 20 -86 59 -86c41 0 59 21 59 86c0 64 -18 86 -59 86s-59 -22 -59 -86zM452 172c0 120 73 170 175 170s176 -45 176 -170
s-74 -170 -176 -170s-175 45 -175 170zM568 172c0 -57 20 -86 59 -86c41 0 59 21 59 86c0 64 -18 86 -59 86s-59 -22 -59 -86zM51 542c0 120 73 170 175 170s176 -45 176 -170s-74 -170 -176 -170s-175 45 -175 170zM167 542c0 -57 20 -86 59 -86c41 0 59 21 59 86
c0 64 -18 86 -59 86s-59 -22 -59 -86z" />
    <glyph glyph-name="questiondown" unicode="&#xbf;" horiz-adv-x="454" 
d="M206 293h111c20 -209 -160 -210 -160 -317c0 -47 23 -78 90 -78c42 0 99 20 134 47l49 -96c-51 -35 -113 -60 -206 -60c-125 0 -201 64 -201 168c0 202 183 169 183 336zM178 435c0 47 32 76 80 76c51 0 82 -29 82 -76s-31 -77 -82 -77c-48 0 -80 30 -80 77z" />
    <glyph glyph-name="grave" unicode="`" horiz-adv-x="316" 
d="M60 720h136l60 -154h-72l-124 124v30z" />
    <glyph glyph-name="acute" unicode="&#xb4;" horiz-adv-x="305" 
d="M134 566h-74l53 154h132v-30z" />
    <glyph glyph-name="circumflex" unicode="&#x2c6;" horiz-adv-x="440" 
d="M159 550h-99l123 182h86l111 -182h-103l-39 66l-17 49l-17 -49z" />
    <glyph glyph-name="tilde" unicode="&#x2dc;" horiz-adv-x="452" 
d="M79 593l-19 65c41 49 76 65 108 65c53 0 98 -44 145 -44c19 0 38 7 59 27l20 -70c-39 -43 -70 -56 -101 -56c-54 0 -100 42 -148 42c-20 0 -41 -8 -64 -29z" />
    <glyph glyph-name="macron" unicode="&#xaf;" horiz-adv-x="443" 
d="M383 566h-323v92h323v-92z" />
    <glyph glyph-name="breve" unicode="&#x2d8;" horiz-adv-x="461" 
d="M60 688l63 32c23 -40 67 -59 112 -59s86 20 106 59l60 -27c-8 -65 -75 -129 -167 -129c-88 0 -155 48 -174 124z" />
    <glyph glyph-name="dotaccent" unicode="&#x2d9;" horiz-adv-x="286" 
d="M60 641c0 39 30 70 81 70s85 -31 85 -70s-34 -68 -85 -68s-81 29 -81 68z" />
    <glyph glyph-name="dieresis" unicode="&#xa8;" horiz-adv-x="479" 
d="M60 651c0 43 28 70 71 70s69 -27 69 -70c0 -40 -26 -68 -69 -68s-71 28 -71 68zM279 651c0 43 26 70 69 70s71 -27 71 -70c0 -40 -28 -68 -71 -68s-69 28 -69 68z" />
    <glyph glyph-name="ring" unicode="&#x2da;" horiz-adv-x="342" 
d="M60 647c0 56 39 96 111 96c68 0 111 -33 111 -96c0 -52 -42 -94 -111 -94c-71 0 -111 37 -111 94zM132 647c0 -21 19 -33 39 -33c23 0 39 10 39 33s-18 34 -39 34c-20 0 -39 -10 -39 -34z" />
    <glyph glyph-name="cedilla" unicode="&#xb8;" horiz-adv-x="332" 
d="M124 0h84l-24 -42c55 -5 88 -27 88 -75c0 -75 -104 -108 -212 -86l8 57c60 -9 85 -3 85 20c0 19 -29 29 -86 32z" />
    <glyph glyph-name="hungarumlaut" unicode="&#x2dd;" horiz-adv-x="459" 
d="M138 571h-78l35 129h119v-16zM281 571h-81l73 129h126v-16z" />
    <glyph glyph-name="ogonek" unicode="&#x2db;" horiz-adv-x="350" 
d="M163 10h100c-51 -14 -76 -40 -76 -78c0 -24 15 -43 42 -43c12 0 26 4 42 12l19 -62c-20 -16 -68 -35 -115 -35c-75 0 -115 36 -115 91s39 93 103 115z" />
    <glyph glyph-name="caron" unicode="&#x2c7;" horiz-adv-x="449" 
d="M288 732h101l-123 -182h-91l-115 182h110l39 -66l16 -49l18 49z" />
    <glyph glyph-name="emdash" unicode="&#x2014;" horiz-adv-x="820" 
d="M711 230h-602v116h602v-116z" />
    <glyph glyph-name="AE" unicode="&#xc6;" horiz-adv-x="862" 
d="M400 281v251h-6l-36 -103l-84 -148h126zM819 0h-419v170h-186l-99 -170h-143l423 700h419v-122h-277v-163h252v-122h-252v-171h282v-122z" />
    <glyph glyph-name="ordfeminine" unicode="&#xaa;" horiz-adv-x="420" 
d="M83 610l-22 64c35 19 101 34 180 34c101 0 132 -36 132 -112c0 -80 -10 -157 5 -216h-101l-13 46h-4c-17 -23 -47 -50 -104 -50c-69 0 -114 40 -114 99c0 88 100 115 217 110c3 35 -4 49 -51 49c-53 0 -98 -13 -125 -24zM194 454c43 0 56 19 65 35v35
c-57 7 -102 0 -102 -36c0 -21 16 -34 37 -34z" />
    <glyph glyph-name="Lslash" unicode="&#x141;" horiz-adv-x="525" 
d="M71 241l-68 -44v121l68 45v337h137v-245l100 67v-125l-100 -66v-209h306v-122h-443v241z" />
    <glyph glyph-name="Oslash" unicode="&#xd8;" horiz-adv-x="670" 
d="M167 -13l-86 52l30 47c-49 64 -73 153 -73 264c0 233 106 364 297 364c60 0 111 -14 152 -38l25 39l85 -50l-35 -56c47 -64 70 -152 70 -259c0 -233 -108 -363 -297 -363c-59 0 -106 12 -147 32zM182 350c0 -48 5 -91 16 -127l219 342c-23 18 -51 27 -82 27
c-97 0 -153 -75 -153 -242zM488 350c0 44 -3 85 -14 120l-215 -340c22 -15 47 -22 76 -22c97 0 153 71 153 242z" />
    <glyph glyph-name="OE" unicode="&#x152;" horiz-adv-x="915" 
d="M453 127v440c-28 15 -69 25 -118 25c-97 0 -153 -75 -153 -242c0 -141 46 -242 160 -242c39 0 72 3 111 19zM873 122v-122h-420c-25 -8 -75 -13 -118 -13c-203 0 -297 144 -297 363c0 233 106 364 297 364c52 0 89 -7 118 -14h415v-122h-278v-163h253v-122h-253v-171h283
z" />
    <glyph glyph-name="ordmasculine" unicode="&#xba;" horiz-adv-x="419" 
d="M34 542c0 120 73 170 175 170s176 -45 176 -170s-74 -170 -176 -170s-175 45 -175 170zM150 542c0 -57 20 -86 59 -86c41 0 59 21 59 86c0 64 -18 86 -59 86s-59 -22 -59 -86z" />
    <glyph glyph-name="ae" unicode="&#xe6;" horiz-adv-x="785" 
d="M219 99c52 0 81 28 96 55v65c-83 8 -158 -9 -158 -61c0 -37 23 -59 62 -59zM355 76h-5c-36 -45 -83 -83 -174 -83c-92 0 -153 58 -153 145c0 122 114 168 290 160c9 75 -5 105 -74 105c-52 0 -110 -16 -151 -36l-34 94c51 27 130 49 210 49c69 0 107 -18 134 -54
c33 37 89 58 152 58c101 0 200 -47 200 -202c0 -28 -3 -59 -10 -95h-301c5 -84 41 -127 129 -127c55 0 100 21 123 38l43 -85c-40 -32 -114 -56 -191 -56c-85 0 -152 32 -188 89zM548 410c-68 0 -98 -44 -105 -112h187c4 72 -22 112 -82 112z" />
    <glyph glyph-name="dotlessi" unicode="&#x131;" horiz-adv-x="269" 
d="M200 0h-130v500h130v-500z" />
    <glyph glyph-name="lslash" unicode="&#x142;" horiz-adv-x="319" 
d="M85 238l-79 -52v121l79 53v340h130v-253l96 64v-125l-96 -63v-155c0 -47 11 -67 38 -67c16 0 29 2 52 11l14 -102c-21 -10 -70 -23 -117 -23c-76 0 -117 32 -117 113v138z" />
    <glyph glyph-name="oslash" unicode="&#xf8;" horiz-adv-x="536" 
d="M33 250c0 169 86 264 235 264c43 0 78 -7 109 -22l24 34l80 -59l-27 -38c33 -45 49 -107 49 -179c0 -169 -86 -263 -235 -263c-45 0 -83 9 -115 23l-25 -33l-83 59l31 43c-29 44 -43 103 -43 171zM369 250c0 25 -3 48 -8 71l-149 -207c15 -12 33 -18 56 -18
c68 0 101 47 101 154zM167 250c0 -23 2 -45 6 -65l147 204c-14 10 -31 15 -52 15c-64 0 -101 -45 -101 -154z" />
    <glyph glyph-name="oe" unicode="&#x153;" horiz-adv-x="841" 
d="M167 250c0 -88 30 -154 102 -154c68 0 101 47 101 154c0 92 -28 154 -101 154c-64 0 -102 -45 -102 -154zM431 60c-33 -44 -85 -73 -162 -73c-159 0 -236 105 -236 263c0 169 87 264 236 264c88 0 138 -36 169 -72c31 39 83 72 168 72c101 0 200 -47 200 -202
c0 -28 -3 -60 -10 -95h-301c4 -84 41 -127 129 -127c55 0 100 21 123 38l43 -85c-40 -32 -114 -56 -191 -56c-74 0 -130 24 -168 73zM604 410c-68 0 -98 -44 -105 -112h186c0 5 1 11 1 16c0 61 -27 96 -82 96z" />
    <glyph glyph-name="germandbls" unicode="&#xdf;" horiz-adv-x="630" 
d="M210 0h-129v390h-69v110h69c0 154 90 208 215 208c135 0 220 -64 220 -160c0 -105 -113 -115 -113 -173c0 -72 199 -44 199 -208c0 -93 -59 -180 -188 -180c-63 0 -117 16 -154 39l35 97c31 -17 56 -33 108 -33c40 0 69 31 69 70c0 84 -199 57 -199 201
c0 115 113 113 113 176c0 35 -42 62 -83 62c-64 0 -93 -26 -93 -111v-488z" />
    <glyph glyph-name="onesuperior" unicode="&#xb9;" horiz-adv-x="412" 
d="M372 381h-300v99h98v164l10 46l-31 -32l-59 -39l-49 77l158 111h86v-327h87v-99z" />
    <glyph glyph-name="logicalnot" unicode="&#xac;" horiz-adv-x="527" 
d="M367 300h-322v112h442v-226h-120v114z" />
    <glyph glyph-name="mu" unicode="&#xb5;" horiz-adv-x="569" 
d="M52 -199v699h130v-273c0 -85 24 -129 92 -129c61 0 98 32 114 87v315h130v-337c0 -55 2 -111 15 -163h-96l-32 74h-4c-23 -47 -65 -85 -136 -85c-52 0 -75 20 -99 49h-5l21 -104v-133h-130z" />
    <glyph glyph-name="trademark" unicode="&#x2122;" horiz-adv-x="948" 
d="M29 700h366v-110h-118v-250h-130v250h-118v110zM913 340h-113v144l17 103h-6l-36 -85l-68 -117h-78l-68 114l-39 88h-5l23 -102v-145h-111v360h130l91 -150l24 -63h1l25 65l84 148h129v-360z" />
    <glyph glyph-name="Eth" unicode="&#xd0;" horiz-adv-x="669" 
d="M82 321h-87v80h87v299c56 8 148 10 204 10c249 0 345 -146 345 -354c0 -188 -89 -366 -358 -366c-41 0 -156 5 -191 10v321zM297 588c-29 0 -63 -1 -78 -4v-183h140v-80h-140v-207c10 -3 57 -3 70 -3c156 0 198 119 198 245c0 109 -37 232 -190 232z" />
    <glyph glyph-name="onehalf" unicode="&#xbd;" horiz-adv-x="903" 
d="M281 280h-115v264l11 46l-31 -32l-59 -39l-49 77l158 111h85v-427zM841 300c0 -79 -46 -130 -102 -181l-47 -24v-4l59 10h106v-100h-313v71c70 47 182 132 182 204c0 33 -19 49 -56 49c-36 0 -69 -13 -93 -28l-34 90c47 28 102 40 150 40c95 0 148 -44 148 -127zM265 -13
l-86 52l430 676l85 -50z" />
    <glyph glyph-name="plusminus" unicode="&#xb1;" horiz-adv-x="527" 
d="M205 406h-162v111h162v165h117v-165h163v-111h-163v-107h-117v107zM485 141h-442v112h442v-112z" />
    <glyph glyph-name="Thorn" unicode="&#xde;" horiz-adv-x="572" 
d="M197 0h-137v700h137v-72c19 1 37 2 56 2c139 0 294 -36 294 -232c0 -175 -133 -241 -271 -241c-14 0 -64 1 -79 4v-161zM264 512c-27 0 -52 -2 -67 -5v-227c11 -3 47 -4 59 -4c73 0 147 21 147 124c0 88 -70 112 -139 112z" />
    <glyph glyph-name="onequarter" unicode="&#xbc;" horiz-adv-x="880" 
d="M281 280h-115v264l11 46l-31 -32l-59 -39l-49 77l158 111h85v-427zM758 167h75v-88h-75v-78h-102v78h-207v66l218 283h91v-261zM603 167h53v86l6 53h-5l-22 -49l-48 -66l-36 -32zM265 -13l-86 52l430 676l85 -50z" />
    <glyph glyph-name="divide" unicode="&#xf7;" horiz-adv-x="527" 
d="M485 282h-442v112h442v-112zM184 532c0 47 32 76 80 76c51 0 82 -29 82 -76s-31 -77 -82 -77c-48 0 -80 30 -80 77zM184 145c0 47 32 76 80 76c51 0 82 -29 82 -76s-31 -77 -82 -77c-48 0 -80 30 -80 77z" />
    <glyph glyph-name="brokenbar" unicode="&#xa6;" horiz-adv-x="227" 
d="M166 -129h-106v342h106v-342zM60 700h106v-343h-106v343z" />
    <glyph glyph-name="degree" unicode="&#xb0;" horiz-adv-x="437" 
d="M60 548c0 99 74 166 164 166c92 0 167 -61 167 -166c0 -104 -75 -164 -167 -164c-90 0 -164 60 -164 164zM160 548c0 -43 29 -69 65 -69s67 26 67 69s-31 71 -67 71s-65 -28 -65 -71z" />
    <glyph glyph-name="thorn" unicode="&#xfe;" horiz-adv-x="540" 
d="M187 -199h-130v899h130v-243h4c28 35 64 57 128 57c125 0 188 -75 188 -251c0 -172 -82 -276 -229 -276c-41 0 -64 6 -91 18v-204zM280 404c-48 0 -77 -25 -93 -76v-208c19 -15 38 -24 74 -24c75 0 112 49 112 170c0 88 -28 138 -93 138z" />
    <glyph glyph-name="threequarters" unicode="&#xbe;" horiz-adv-x="905" 
d="M161 369c60 0 83 19 83 50s-22 49 -90 49h-43v38l73 80l43 25l-58 -6h-115v95h284v-62l-88 -92l-34 -18v-5l30 3c71 -3 114 -43 113 -115c-1 -95 -83 -137 -181 -137c-51 0 -97 9 -129 24l23 89c27 -12 57 -18 89 -18zM783 167h75v-88h-75v-78h-102v78h-207v66l218 283
h91v-261zM628 167h53v86l6 53h-5l-22 -49l-48 -66l-36 -32zM290 -13l-86 52l430 676l85 -50z" />
    <glyph glyph-name="twosuperior" unicode="&#xb2;" horiz-adv-x="412" 
d="M348 680c0 -79 -46 -130 -102 -181l-47 -24v-4l59 10h106v-100h-313v71c70 47 182 132 182 204c0 33 -19 49 -56 49c-36 0 -69 -13 -93 -28l-34 90c47 28 102 40 150 40c95 0 148 -44 148 -127z" />
    <glyph glyph-name="registered" unicode="&#xae;" horiz-adv-x="690" 
d="M62 451c0 179 130 282 283 282c157 0 282 -103 282 -282c0 -181 -129 -282 -282 -282c-157 0 -283 101 -283 282zM156 451c0 -129 89 -193 189 -193c107 0 188 61 188 193c0 128 -86 192 -188 192c-113 0 -189 -72 -189 -192zM294 322h-52v259c21 7 65 10 100 10
c56 0 102 -21 102 -78c0 -43 -31 -65 -71 -68l28 -14l65 -109h-61l-63 104l-48 15v-119zM331 546c-15 0 -29 0 -37 -4v-71h34c39 0 61 11 61 40c0 23 -19 35 -58 35z" />
    <glyph glyph-name="minus" unicode="&#x2212;" horiz-adv-x="527" 
d="M485 282h-442v112h442v-112z" />
    <glyph glyph-name="eth" unicode="&#xf0;" horiz-adv-x="563" 
d="M163 243c0 -96 48 -146 121 -146c69 0 118 58 118 183c0 17 -2 51 -7 67c-21 31 -70 42 -110 42c-80 0 -122 -62 -122 -146zM308 575l-68 -46l-43 55l44 30c-23 10 -46 17 -69 21l52 80c17 -5 36 -11 57 -20c15 -6 31 -13 47 -22l53 36l42 -55l-33 -23
c8 -6 16 -13 23 -20c63 -59 113 -159 113 -309c0 -216 -103 -315 -250 -315c-158 0 -239 106 -239 258c0 143 95 254 232 254c51 0 96 -14 123 -41c-8 24 -19 46 -34 66c-15 19 -31 36 -50 51z" />
    <glyph glyph-name="multiply" unicode="&#xd7;" horiz-adv-x="527" 
d="M185 339l-129 127l78 81l131 -130l130 130l79 -81l-130 -127l130 -129l-79 -82l-130 131l-132 -132l-79 81z" />
    <glyph glyph-name="threesuperior" unicode="&#xb3;" horiz-adv-x="412" 
d="M168 469c60 0 83 19 83 50s-22 49 -90 49h-43v38l73 80l43 25l-58 -6h-115v95h284v-62l-88 -92l-34 -18v-5l30 3c71 -3 114 -43 113 -115c-1 -95 -83 -137 -181 -137c-51 0 -97 9 -129 24l23 89c27 -12 57 -18 89 -18z" />
    <glyph glyph-name="copyright" unicode="&#xa9;" horiz-adv-x="833" 
d="M55 290c0 220 158 361 361 361c202 0 361 -141 361 -361s-159 -360 -361 -360c-222 0 -361 140 -361 360zM153 290c0 -166 111 -268 263 -268c153 0 264 102 264 268s-111 268 -264 268c-152 0 -263 -102 -263 -268zM512 219l29 -88c-29 -19 -76 -31 -127 -31
c-108 0 -166 73 -166 190c0 121 66 190 166 190c49 0 85 -12 120 -32l-32 -87c-24 12 -42 15 -61 15c-39 0 -63 -22 -63 -86c0 -57 23 -86 70 -86c25 0 44 4 64 15z" />
    <glyph glyph-name="Aacute" unicode="&#xc1;" horiz-adv-x="605" 
d="M308 752h-103l104 118h159v-30zM605 0h-144l-56 155h-215l-53 -155h-137l252 705h101zM297 531l-21 -111l-51 -155h150l-52 156l-21 110h-5z" />
    <glyph glyph-name="Acircumflex" unicode="&#xc2;" horiz-adv-x="605" 
d="M124 738v40l133 92h96l127 -93v-39h-99l-57 41l-20 34l-21 -33l-62 -42h-97zM605 0h-144l-56 155h-215l-53 -155h-137l252 705h101zM297 531l-21 -111l-51 -155h150l-52 156l-21 110h-5z" />
    <glyph glyph-name="Adieresis" unicode="&#xc4;" horiz-adv-x="605" 
d="M124 798c0 35 23 58 76 58c52 0 75 -23 75 -58s-23 -57 -75 -57c-53 0 -76 22 -76 57zM338 798c0 35 23 58 75 58c53 0 76 -23 76 -58s-23 -57 -76 -57c-52 0 -75 22 -75 57zM605 0h-144l-56 155h-215l-53 -155h-137l252 705h101zM297 531l-21 -111l-51 -155h150l-52 156
l-21 110h-5z" />
    <glyph glyph-name="Agrave" unicode="&#xc0;" horiz-adv-x="605" 
d="M136 870h159l104 -118h-105l-158 88v30zM605 0h-144l-56 155h-215l-53 -155h-137l252 705h101zM297 531l-21 -111l-51 -155h150l-52 156l-21 110h-5z" />
    <glyph glyph-name="Aring" unicode="&#xc5;" horiz-adv-x="605" 
d="M175 771c0 49 28 90 128 90c93 0 128 -34 128 -90c0 -39 -18 -69 -73 -82l247 -689h-144l-56 155h-215l-53 -155h-137l246 689c-52 12 -71 43 -71 82zM297 531l-21 -111l-51 -155h150l-52 156l-21 110h-5zM259 771c0 -21 15 -31 44 -31c33 0 45 11 45 31
c0 23 -13 33 -45 33c-29 0 -44 -11 -44 -33z" />
    <glyph glyph-name="Atilde" unicode="&#xc3;" horiz-adv-x="605" 
d="M137 737l-24 63c43 47 81 61 120 61c59 0 116 -35 165 -35c21 0 41 5 60 24l25 -67c-37 -35 -73 -47 -106 -47c-60 0 -113 36 -165 36c-25 0 -50 -8 -75 -35zM605 0h-144l-56 155h-215l-53 -155h-137l252 705h101zM297 531l-21 -111l-51 -155h150l-52 156l-21 110h-5z
" />
    <glyph glyph-name="Ccedilla" unicode="&#xc7;" horiz-adv-x="559" 
d="M506 141l28 -112c-35 -25 -90 -37 -149 -41l-16 -30c55 -5 88 -27 88 -75c0 -60 -65 -92 -148 -92c-21 0 -42 2 -64 6l9 48c9 -1 17 -1 24 -1c51 0 60 14 60 30c0 19 -29 29 -86 32l50 84c-147 18 -264 122 -264 360c0 274 168 364 316 364c80 0 134 -12 170 -27
l-27 -116c-31 15 -71 21 -131 21c-111 0 -184 -77 -184 -242c0 -144 65 -241 194 -241c60 0 99 13 130 32z" />
    <glyph glyph-name="Eacute" unicode="&#xc9;" horiz-adv-x="522" 
d="M292 752h-103l104 118h159v-30zM480 0h-420v700h415v-122h-278v-163h253v-122h-253v-171h283v-122z" />
    <glyph glyph-name="Ecircumflex" unicode="&#xca;" horiz-adv-x="522" 
d="M86 738v40l133 92h96l127 -93v-39h-99l-57 41l-20 34l-21 -33l-62 -42h-97zM480 0h-420v700h415v-122h-278v-163h253v-122h-253v-171h283v-122z" />
    <glyph glyph-name="Edieresis" unicode="&#xcb;" horiz-adv-x="522" 
d="M84 798c0 35 23 58 76 58c52 0 75 -23 75 -58s-23 -57 -75 -57c-53 0 -76 22 -76 57zM298 798c0 35 23 58 75 58c53 0 76 -23 76 -58s-23 -57 -76 -57c-52 0 -75 22 -75 57zM480 0h-420v700h415v-122h-278v-163h253v-122h-253v-171h283v-122z" />
    <glyph glyph-name="Egrave" unicode="&#xc8;" horiz-adv-x="522" 
d="M89 870h159l104 -118h-105l-158 88v30zM480 0h-420v700h415v-122h-278v-163h253v-122h-253v-171h283v-122z" />
    <glyph glyph-name="Iacute" unicode="&#xcd;" horiz-adv-x="285" 
d="M153 752h-103l104 118h159v-30zM211 0h-137v700h137v-700z" />
    <glyph glyph-name="Icircumflex" unicode="&#xce;" horiz-adv-x="285" 
d="M-35 738v40l133 92h96l127 -93v-39h-99l-57 41l-20 34l-21 -33l-62 -42h-97zM211 0h-137v700h137v-700z" />
    <glyph glyph-name="Idieresis" unicode="&#xcf;" horiz-adv-x="285" 
d="M-37 798c0 35 23 58 76 58c52 0 75 -23 75 -58s-23 -57 -75 -57c-53 0 -76 22 -76 57zM177 798c0 35 23 58 75 58c53 0 76 -23 76 -58s-23 -57 -76 -57c-52 0 -75 22 -75 57zM211 0h-137v700h137v-700z" />
    <glyph glyph-name="Igrave" unicode="&#xcc;" horiz-adv-x="285" 
d="M-21 870h159l104 -118h-105l-158 88v30zM211 0h-137v700h137v-700z" />
    <glyph glyph-name="Ntilde" unicode="&#xd1;" horiz-adv-x="657" 
d="M162 737l-24 63c43 47 81 61 120 61c59 0 116 -35 165 -35c21 0 41 5 60 24l25 -67c-37 -35 -73 -47 -106 -47c-60 0 -113 36 -165 36c-25 0 -50 -8 -75 -35zM597 -4h-100l-263 369l-55 110h-5l16 -110v-365h-130v705h100l265 -373l53 -107h5l-16 107v368h130v-704z" />
    <glyph glyph-name="Oacute" unicode="&#xd3;" horiz-adv-x="670" 
d="M367 752h-103l104 118h159v-30zM38 350c0 233 106 364 297 364c201 0 297 -145 297 -364c0 -233 -108 -363 -297 -363c-203 0 -297 144 -297 363zM182 350c0 -141 46 -242 153 -242c97 0 153 71 153 242c0 136 -42 242 -153 242c-97 0 -153 -75 -153 -242z" />
    <glyph glyph-name="Ocircumflex" unicode="&#xd4;" horiz-adv-x="670" 
d="M154 738v40l133 92h96l127 -93v-39h-99l-57 41l-20 34l-21 -33l-62 -42h-97zM38 350c0 233 106 364 297 364c201 0 297 -145 297 -364c0 -233 -108 -363 -297 -363c-203 0 -297 144 -297 363zM182 350c0 -141 46 -242 153 -242c97 0 153 71 153 242
c0 136 -42 242 -153 242c-97 0 -153 -75 -153 -242z" />
    <glyph glyph-name="Odieresis" unicode="&#xd6;" horiz-adv-x="670" 
d="M150 798c0 35 23 58 76 58c52 0 75 -23 75 -58s-23 -57 -75 -57c-53 0 -76 22 -76 57zM364 798c0 35 23 58 75 58c53 0 76 -23 76 -58s-23 -57 -76 -57c-52 0 -75 22 -75 57zM38 350c0 233 106 364 297 364c201 0 297 -145 297 -364c0 -233 -108 -363 -297 -363
c-203 0 -297 144 -297 363zM182 350c0 -141 46 -242 153 -242c97 0 153 71 153 242c0 136 -42 242 -153 242c-97 0 -153 -75 -153 -242z" />
    <glyph glyph-name="Ograve" unicode="&#xd2;" horiz-adv-x="670" 
d="M149 870h159l104 -118h-105l-158 88v30zM38 350c0 233 106 364 297 364c201 0 297 -145 297 -364c0 -233 -108 -363 -297 -363c-203 0 -297 144 -297 363zM182 350c0 -141 46 -242 153 -242c97 0 153 71 153 242c0 136 -42 242 -153 242c-97 0 -153 -75 -153 -242z" />
    <glyph glyph-name="Otilde" unicode="&#xd5;" horiz-adv-x="670" 
d="M168 737l-24 63c43 47 81 61 120 61c59 0 116 -35 165 -35c21 0 41 5 60 24l25 -67c-37 -35 -73 -47 -106 -47c-60 0 -113 36 -165 36c-25 0 -50 -8 -75 -35zM38 350c0 233 106 364 297 364c201 0 297 -145 297 -364c0 -233 -108 -363 -297 -363
c-203 0 -297 144 -297 363zM182 350c0 -141 46 -242 153 -242c97 0 153 71 153 242c0 136 -42 242 -153 242c-97 0 -153 -75 -153 -242z" />
    <glyph glyph-name="Scaron" unicode="&#x160;" horiz-adv-x="530" 
d="M461 870v-40l-133 -93h-94l-127 94v39h105l53 -45l19 -30l21 29l56 46h100zM362 188c0 127 -319 91 -319 326c0 136 96 200 236 200c81 0 157 -14 204 -41l-43 -115c-29 19 -93 37 -161 37c-64 0 -99 -27 -99 -70c0 -120 319 -98 319 -322c0 -148 -103 -216 -256 -216
c-100 0 -180 22 -216 41l44 117c29 -16 97 -40 165 -40c81 0 126 27 126 83z" />
    <glyph glyph-name="Uacute" unicode="&#xda;" horiz-adv-x="627" 
d="M364 752h-103l104 118h159v-30zM440 258v442h130v-452c0 -181 -99 -259 -247 -259c-177 0 -266 80 -266 242v469h137v-442c0 -110 41 -148 127 -148c84 0 119 44 119 148z" />
    <glyph glyph-name="Ucircumflex" unicode="&#xdb;" horiz-adv-x="627" 
d="M140 738v40l133 92h96l127 -93v-39h-99l-57 41l-20 34l-21 -33l-62 -42h-97zM440 258v442h130v-452c0 -181 -99 -259 -247 -259c-177 0 -266 80 -266 242v469h137v-442c0 -110 41 -148 127 -148c84 0 119 44 119 148z" />
    <glyph glyph-name="Udieresis" unicode="&#xdc;" horiz-adv-x="627" 
d="M133 798c0 35 23 58 76 58c52 0 75 -23 75 -58s-23 -57 -75 -57c-53 0 -76 22 -76 57zM347 798c0 35 23 58 75 58c53 0 76 -23 76 -58s-23 -57 -76 -57c-52 0 -75 22 -75 57zM440 258v442h130v-452c0 -181 -99 -259 -247 -259c-177 0 -266 80 -266 242v469h137v-442
c0 -110 41 -148 127 -148c84 0 119 44 119 148z" />
    <glyph glyph-name="Ugrave" unicode="&#xd9;" horiz-adv-x="627" 
d="M132 870h159l104 -118h-105l-158 88v30zM440 258v442h130v-452c0 -181 -99 -259 -247 -259c-177 0 -266 80 -266 242v469h137v-442c0 -110 41 -148 127 -148c84 0 119 44 119 148z" />
    <glyph glyph-name="Yacute" unicode="&#xdd;" horiz-adv-x="592" 
d="M325 752h-103l104 118h159v-30zM365 0h-137v260l-229 440h162l128 -263l14 -74h5l15 76l124 261h147l-229 -439v-261z" />
    <glyph glyph-name="Ydieresis" unicode="&#x178;" horiz-adv-x="592" 
d="M116 798c0 35 23 58 76 58c52 0 75 -23 75 -58s-23 -57 -75 -57c-53 0 -76 22 -76 57zM330 798c0 35 23 58 75 58c53 0 76 -23 76 -58s-23 -57 -76 -57c-52 0 -75 22 -75 57zM365 0h-137v260l-229 440h162l128 -263l14 -74h5l15 76l124 261h147l-229 -439v-261z" />
    <glyph glyph-name="Zcaron" unicode="&#x17d;" horiz-adv-x="539" 
d="M442 870v-40l-133 -93h-94l-127 94v39h105l53 -45l19 -30l21 29l56 46h100zM512 0h-485v122l296 414l52 42h-348v122h485v-122l-298 -418l-51 -38h349v-122z" />
    <glyph glyph-name="aacute" unicode="&#xe1;" horiz-adv-x="496" 
d="M258 566h-74l53 154h132v-30zM85 374l-31 97c53 24 130 39 210 39c140 0 180 -69 180 -175c0 -117 -21 -240 11 -335h-106l-21 68h-5c-27 -41 -72 -75 -147 -75c-92 0 -153 58 -153 145c0 122 115 168 291 160c9 75 -6 105 -75 105c-52 0 -117 -12 -154 -29zM219 99
c52 0 81 28 96 55v65c-83 8 -158 -9 -158 -61c0 -37 23 -59 62 -59z" />
    <glyph glyph-name="acircumflex" unicode="&#xe2;" horiz-adv-x="496" 
d="M85 374l-31 97c53 24 130 39 210 39c140 0 180 -69 180 -175c0 -117 -21 -240 11 -335h-106l-21 68h-5c-27 -41 -72 -75 -147 -75c-92 0 -153 58 -153 145c0 122 115 168 291 160c9 75 -6 105 -75 105c-52 0 -117 -12 -154 -29zM219 99c52 0 81 28 96 55v65
c-83 8 -158 -9 -158 -61c0 -37 23 -59 62 -59zM192 550h-99l123 182h86l111 -182h-103l-39 66l-17 49l-17 -49z" />
    <glyph glyph-name="adieresis" unicode="&#xe4;" horiz-adv-x="496" 
d="M85 374l-31 97c53 24 130 39 210 39c140 0 180 -69 180 -175c0 -117 -21 -240 11 -335h-106l-21 68h-5c-27 -41 -72 -75 -147 -75c-92 0 -153 58 -153 145c0 122 115 168 291 160c9 75 -6 105 -75 105c-52 0 -117 -12 -154 -29zM219 99c52 0 81 28 96 55v65
c-83 8 -158 -9 -158 -61c0 -37 23 -59 62 -59zM75 651c0 43 28 70 71 70s69 -27 69 -70c0 -40 -26 -68 -69 -68s-71 28 -71 68zM294 651c0 43 26 70 69 70s71 -27 71 -70c0 -40 -28 -68 -71 -68s-69 28 -69 68z" />
    <glyph glyph-name="agrave" unicode="&#xe0;" horiz-adv-x="496" 
d="M85 374l-31 97c53 24 130 39 210 39c140 0 180 -69 180 -175c0 -117 -21 -240 11 -335h-106l-21 68h-5c-27 -41 -72 -75 -147 -75c-92 0 -153 58 -153 145c0 122 115 168 291 160c9 75 -6 105 -75 105c-52 0 -117 -12 -154 -29zM219 99c52 0 81 28 96 55v65
c-83 8 -158 -9 -158 -61c0 -37 23 -59 62 -59zM115 720h136l60 -154h-72l-124 124v30z" />
    <glyph glyph-name="aring" unicode="&#xe5;" horiz-adv-x="496" 
d="M144 647c0 56 39 96 111 96c68 0 111 -33 111 -96c0 -52 -42 -94 -111 -94c-71 0 -111 37 -111 94zM216 647c0 -21 19 -33 39 -33c23 0 39 10 39 33s-18 34 -39 34c-20 0 -39 -10 -39 -34zM85 374l-31 97c53 24 130 39 210 39c140 0 180 -69 180 -175
c0 -117 -21 -240 11 -335h-106l-21 68h-5c-27 -41 -72 -75 -147 -75c-92 0 -153 58 -153 145c0 122 115 168 291 160c9 75 -6 105 -75 105c-52 0 -117 -12 -154 -29zM219 99c52 0 81 28 96 55v65c-83 8 -158 -9 -158 -61c0 -37 23 -59 62 -59z" />
    <glyph glyph-name="atilde" unicode="&#xe3;" horiz-adv-x="496" 
d="M105 593l-19 65c41 49 76 65 108 65c53 0 98 -44 145 -44c19 0 38 7 59 27l20 -70c-39 -43 -70 -56 -101 -56c-54 0 -100 42 -148 42c-20 0 -41 -8 -64 -29zM85 374l-31 97c53 24 130 39 210 39c140 0 180 -69 180 -175c0 -117 -21 -240 11 -335h-106l-21 68h-5
c-27 -41 -72 -75 -147 -75c-92 0 -153 58 -153 145c0 122 115 168 291 160c9 75 -6 105 -75 105c-52 0 -117 -12 -154 -29zM219 99c52 0 81 28 96 55v65c-83 8 -158 -9 -158 -61c0 -37 23 -59 62 -59z" />
    <glyph glyph-name="ccedilla" unicode="&#xe7;" horiz-adv-x="433" 
d="M381 130l30 -99c-31 -23 -71 -34 -115 -41l-18 -32c55 -5 88 -27 88 -75c0 -60 -65 -92 -148 -92c-21 0 -42 2 -64 6l9 48c9 -1 17 -1 24 -1c51 0 60 14 60 30c0 19 -29 29 -86 32l50 84c-131 15 -178 116 -178 260c0 169 78 264 223 264c73 0 113 -13 149 -32l-31 -106
c-31 15 -58 23 -97 23c-72 0 -110 -45 -110 -149c0 -84 36 -149 117 -149c44 0 73 13 97 29z" />
    <glyph glyph-name="eacute" unicode="&#xe9;" horiz-adv-x="508" 
d="M295 566h-74l53 154h132v-30zM414 128l43 -85c-40 -32 -114 -56 -191 -56c-161 0 -233 99 -233 263c0 176 88 264 240 264c101 0 200 -47 200 -202c0 -28 -3 -60 -10 -95h-300c4 -84 40 -127 128 -127c55 0 100 21 123 38zM271 410c-68 0 -98 -44 -105 -112h186
c5 72 -22 112 -81 112z" />
    <glyph glyph-name="ecircumflex" unicode="&#xea;" horiz-adv-x="508" 
d="M414 128l43 -85c-40 -32 -114 -56 -191 -56c-161 0 -233 99 -233 263c0 176 88 264 240 264c101 0 200 -47 200 -202c0 -28 -3 -60 -10 -95h-300c4 -84 40 -127 128 -127c55 0 100 21 123 38zM271 410c-68 0 -98 -44 -105 -112h186c5 72 -22 112 -81 112zM197 550h-99
l123 182h86l111 -182h-103l-39 66l-17 49l-17 -49z" />
    <glyph glyph-name="edieresis" unicode="&#xeb;" horiz-adv-x="508" 
d="M82 651c0 43 28 70 71 70s69 -27 69 -70c0 -40 -26 -68 -69 -68s-71 28 -71 68zM301 651c0 43 26 70 69 70s71 -27 71 -70c0 -40 -28 -68 -71 -68s-69 28 -69 68zM414 128l43 -85c-40 -32 -114 -56 -191 -56c-161 0 -233 99 -233 263c0 176 88 264 240 264
c101 0 200 -47 200 -202c0 -28 -3 -60 -10 -95h-300c4 -84 40 -127 128 -127c55 0 100 21 123 38zM271 410c-68 0 -98 -44 -105 -112h186c5 72 -22 112 -81 112z" />
    <glyph glyph-name="egrave" unicode="&#xe8;" horiz-adv-x="508" 
d="M414 128l43 -85c-40 -32 -114 -56 -191 -56c-161 0 -233 99 -233 263c0 176 88 264 240 264c101 0 200 -47 200 -202c0 -28 -3 -60 -10 -95h-300c4 -84 40 -127 128 -127c55 0 100 21 123 38zM271 410c-68 0 -98 -44 -105 -112h186c5 72 -22 112 -81 112zM133 720h136
l60 -154h-72l-124 124v30z" />
    <glyph glyph-name="iacute" unicode="&#xed;" horiz-adv-x="269" 
d="M145 566h-74l53 154h132v-30zM200 0h-130v500h130v-500z" />
    <glyph glyph-name="icircumflex" unicode="&#xee;" horiz-adv-x="269" 
d="M200 0h-130v500h130v-500zM70 550h-99l123 182h86l111 -182h-103l-39 66l-17 49l-17 -49z" />
    <glyph glyph-name="idieresis" unicode="&#xef;" horiz-adv-x="269" 
d="M-44 651c0 43 28 70 71 70s69 -27 69 -70c0 -40 -26 -68 -69 -68s-71 28 -71 68zM175 651c0 43 26 70 69 70s71 -27 71 -70c0 -40 -28 -68 -71 -68s-69 28 -69 68zM200 0h-130v500h130v-500z" />
    <glyph glyph-name="igrave" unicode="&#xec;" horiz-adv-x="269" 
d="M200 0h-130v500h130v-500zM-1 720h136l60 -154h-72l-124 124v30z" />
    <glyph glyph-name="ntilde" unicode="&#xf1;" horiz-adv-x="545" 
d="M493 311v-311h-130v284c0 81 -21 115 -77 115c-49 0 -84 -32 -99 -75v-324h-130v500h103l15 -66h4c31 43 79 80 159 80c100 0 155 -47 155 -203zM126 593l-19 65c41 49 76 65 108 65c53 0 98 -44 145 -44c19 0 38 7 59 27l20 -70c-39 -43 -70 -56 -101 -56
c-54 0 -100 42 -148 42c-20 0 -41 -8 -64 -29z" />
    <glyph glyph-name="oacute" unicode="&#xf3;" horiz-adv-x="537" 
d="M296 566h-74l53 154h132v-30zM33 250c0 169 87 264 236 264c159 0 235 -106 235 -264c0 -169 -86 -263 -235 -263c-159 0 -236 105 -236 263zM167 250c0 -88 30 -154 102 -154c68 0 101 47 101 154c0 92 -28 154 -101 154c-64 0 -102 -45 -102 -154z" />
    <glyph glyph-name="ocircumflex" unicode="&#xf4;" horiz-adv-x="537" 
d="M33 250c0 169 87 264 236 264c159 0 235 -106 235 -264c0 -169 -86 -263 -235 -263c-159 0 -236 105 -236 263zM167 250c0 -88 30 -154 102 -154c68 0 101 47 101 154c0 92 -28 154 -101 154c-64 0 -102 -45 -102 -154zM207 550h-99l123 182h86l111 -182h-103l-39 66
l-17 49l-17 -49z" />
    <glyph glyph-name="odieresis" unicode="&#xf6;" horiz-adv-x="537" 
d="M33 250c0 169 87 264 236 264c159 0 235 -106 235 -264c0 -169 -86 -263 -235 -263c-159 0 -236 105 -236 263zM167 250c0 -88 30 -154 102 -154c68 0 101 47 101 154c0 92 -28 154 -101 154c-64 0 -102 -45 -102 -154zM90 651c0 43 28 70 71 70s69 -27 69 -70
c0 -40 -26 -68 -69 -68s-71 28 -71 68zM309 651c0 43 26 70 69 70s71 -27 71 -70c0 -40 -28 -68 -71 -68s-69 28 -69 68z" />
    <glyph glyph-name="ograve" unicode="&#xf2;" horiz-adv-x="537" 
d="M33 250c0 169 87 264 236 264c159 0 235 -106 235 -264c0 -169 -86 -263 -235 -263c-159 0 -236 105 -236 263zM167 250c0 -88 30 -154 102 -154c68 0 101 47 101 154c0 92 -28 154 -101 154c-64 0 -102 -45 -102 -154zM135 720h136l60 -154h-72l-124 124v30z" />
    <glyph glyph-name="otilde" unicode="&#xf5;" horiz-adv-x="537" 
d="M123 593l-19 65c41 49 76 65 108 65c53 0 98 -44 145 -44c19 0 38 7 59 27l20 -70c-39 -43 -70 -56 -101 -56c-54 0 -100 42 -148 42c-20 0 -41 -8 -64 -29zM33 250c0 169 87 264 236 264c159 0 235 -106 235 -264c0 -169 -86 -263 -235 -263c-159 0 -236 105 -236 263z
M167 250c0 -88 30 -154 102 -154c68 0 101 47 101 154c0 92 -28 154 -101 154c-64 0 -102 -45 -102 -154z" />
    <glyph glyph-name="scaron" unicode="&#x161;" horiz-adv-x="422" 
d="M264 138c0 81 -228 43 -228 224c0 99 60 152 171 152c76 0 140 -19 175 -39l-29 -94c-31 12 -81 29 -129 29c-39 0 -58 -15 -58 -45c0 -73 228 -41 228 -216c0 -101 -65 -162 -194 -162c-71 0 -136 20 -175 44l36 97c31 -17 86 -38 139 -38c39 0 64 13 64 48zM276 732
h101l-123 -182h-91l-115 182h110l39 -66l16 -49l18 49z" />
    <glyph glyph-name="uacute" unicode="&#xfa;" horiz-adv-x="538" 
d="M282 566h-74l53 154h132v-30zM52 189v311h130v-284c0 -81 15 -115 71 -115c49 0 82 33 98 76v323h130v-348c0 -55 5 -109 16 -152h-98l-23 74h-4c-31 -51 -86 -87 -161 -87c-102 0 -159 46 -159 202z" />
    <glyph glyph-name="ucircumflex" unicode="&#xfb;" horiz-adv-x="538" 
d="M52 189v311h130v-284c0 -81 15 -115 71 -115c49 0 82 33 98 76v323h130v-348c0 -55 5 -109 16 -152h-98l-23 74h-4c-31 -51 -86 -87 -161 -87c-102 0 -159 46 -159 202zM208 550h-99l123 182h86l111 -182h-103l-39 66l-17 49l-17 -49z" />
    <glyph glyph-name="udieresis" unicode="&#xfc;" horiz-adv-x="538" 
d="M88 651c0 43 28 70 71 70s69 -27 69 -70c0 -40 -26 -68 -69 -68s-71 28 -71 68zM307 651c0 43 26 70 69 70s71 -27 71 -70c0 -40 -28 -68 -71 -68s-69 28 -69 68zM52 189v311h130v-284c0 -81 15 -115 71 -115c49 0 82 33 98 76v323h130v-348c0 -55 5 -109 16 -152h-98
l-23 74h-4c-31 -51 -86 -87 -161 -87c-102 0 -159 46 -159 202z" />
    <glyph glyph-name="ugrave" unicode="&#xf9;" horiz-adv-x="538" 
d="M52 189v311h130v-284c0 -81 15 -115 71 -115c49 0 82 33 98 76v323h130v-348c0 -55 5 -109 16 -152h-98l-23 74h-4c-31 -51 -86 -87 -161 -87c-102 0 -159 46 -159 202zM122 720h136l60 -154h-72l-124 124v30z" />
    <glyph glyph-name="yacute" unicode="&#xfd;" horiz-adv-x="478" 
d="M-8 500h155l92 -281l18 -78h6l13 79l76 280h134l-152 -451c-50 -148 -89 -253 -182 -253c-35 0 -62 6 -83 17l24 104c10 -4 20 -6 30 -6c31 0 62 22 77 89zM275 566h-74l53 154h132v-30z" />
    <glyph glyph-name="ydieresis" unicode="&#xff;" horiz-adv-x="478" 
d="M66 651c0 43 28 70 71 70s69 -27 69 -70c0 -40 -26 -68 -69 -68s-71 28 -71 68zM285 651c0 43 26 70 69 70s71 -27 71 -70c0 -40 -28 -68 -71 -68s-69 28 -69 68zM-8 500h155l92 -281l18 -78h6l13 79l76 280h134l-152 -451c-50 -148 -89 -253 -182 -253
c-35 0 -62 6 -83 17l24 104c10 -4 20 -6 30 -6c31 0 62 22 77 89z" />
    <glyph glyph-name="zcaron" unicode="&#x17e;" horiz-adv-x="458" 
d="M423 0h-392v110l197 237l51 43h-248v110h392v-110l-195 -241l-50 -39h245v-110zM291 732h101l-123 -182h-91l-115 182h110l39 -66l16 -49l18 49z" />
    <glyph glyph-name="Euro" unicode="&#x20ac;" 
d="M84 382h-82l32 93h62c40 174 158 239 288 239c69 0 124 -12 160 -27l-35 -103c-29 12 -67 18 -119 18c-80 0 -139 -38 -168 -127h259l-26 -93h-249c-1 -11 -1 -20 -1 -32v-26h230l-26 -93h-188c27 -88 83 -133 179 -133c56 0 95 13 127 32l27 -101
c-41 -29 -114 -42 -173 -42c-147 0 -252 73 -287 244h-92l32 93h49v26c0 11 0 21 1 32z" />
    <glyph glyph-name="uni00A0" unicode="&#xa0;" horiz-adv-x="253" 
 />
    <glyph glyph-name="uni00AD" unicode="&#xad;" horiz-adv-x="360" 
d="M305 230h-251v115h251v-115z" />
    <glyph glyph-name=".null" horiz-adv-x="0" 
 />
    <glyph glyph-name="CR" horiz-adv-x="253" 
 />
    <glyph glyph-name="Amacron" unicode="&#x100;" horiz-adv-x="605" 
d="M472 767h-343v89h343v-89zM605 0h-144l-56 155h-215l-53 -155h-137l252 705h101zM297 531l-21 -111l-51 -155h150l-52 156l-21 110h-5z" />
    <glyph glyph-name="amacron" unicode="&#x101;" horiz-adv-x="496" 
d="M85 374l-31 97c53 24 130 39 210 39c140 0 180 -69 180 -175c0 -117 -21 -240 11 -335h-106l-21 68h-5c-27 -41 -72 -75 -147 -75c-92 0 -153 58 -153 145c0 122 115 168 291 160c9 75 -6 105 -75 105c-52 0 -117 -12 -154 -29zM219 99c52 0 81 28 96 55v65
c-83 8 -158 -9 -158 -61c0 -37 23 -59 62 -59zM414 566h-323v92h323v-92z" />
    <glyph glyph-name="Abreve" unicode="&#x102;" horiz-adv-x="605" 
d="M112 838l52 37c27 -35 80 -54 143 -54c64 0 110 22 137 54l49 -32c-32 -76 -112 -113 -187 -113c-72 0 -157 29 -194 108zM605 0h-144l-56 155h-215l-53 -155h-137l252 705h101zM297 531l-21 -111l-51 -155h150l-52 156l-21 110h-5z" />
    <glyph glyph-name="abreve" unicode="&#x103;" horiz-adv-x="496" 
d="M85 374l-31 97c53 24 130 39 210 39c140 0 180 -69 180 -175c0 -117 -21 -240 11 -335h-106l-21 68h-5c-27 -41 -72 -75 -147 -75c-92 0 -153 58 -153 145c0 122 115 168 291 160c9 75 -6 105 -75 105c-52 0 -117 -12 -154 -29zM219 99c52 0 81 28 96 55v65
c-83 8 -158 -9 -158 -61c0 -37 23 -59 62 -59zM80 688l63 32c23 -40 67 -59 112 -59s86 20 106 59l60 -27c-8 -65 -75 -129 -167 -129c-88 0 -155 48 -174 124z" />
    <glyph glyph-name="Aogonek" unicode="&#x104;" horiz-adv-x="605" 
d="M486 0h-25l-56 155h-215l-53 -155h-137l252 705h101l252 -705h-21c-39 -14 -58 -38 -58 -72c0 -35 31 -58 84 -31l19 -62c-20 -16 -68 -35 -115 -35c-75 0 -115 36 -115 91c0 51 32 87 87 109zM297 531l-21 -111l-51 -155h150l-52 156l-21 110h-5z" />
    <glyph glyph-name="aogonek" unicode="&#x105;" horiz-adv-x="496" 
d="M88 372l-34 94c51 28 118 44 210 44c140 0 180 -69 180 -175c0 -117 -21 -240 11 -335h-23c-37 -16 -56 -40 -56 -72c0 -35 31 -58 84 -31l19 -62c-20 -16 -68 -35 -115 -35c-75 0 -115 36 -115 91c0 53 38 91 98 113l-19 64h-5c-27 -41 -72 -75 -147 -75
c-92 0 -153 58 -153 145c0 122 114 168 290 160c9 75 -5 105 -74 105c-52 0 -110 -12 -151 -31zM219 99c52 0 81 28 96 55v65c-83 8 -158 -9 -158 -61c0 -37 23 -59 62 -59z" />
    <glyph glyph-name="Cacute" unicode="&#x106;" horiz-adv-x="559" 
d="M375 752h-103l104 118h159v-30zM506 141l28 -112c-43 -30 -114 -42 -183 -42c-167 0 -313 98 -313 363c0 274 168 364 316 364c80 0 134 -12 170 -27l-27 -116c-31 15 -71 21 -131 21c-111 0 -184 -77 -184 -242c0 -144 65 -241 194 -241c60 0 99 13 130 32z" />
    <glyph glyph-name="cacute" unicode="&#x107;" horiz-adv-x="433" 
d="M381 130l30 -99c-40 -29 -100 -44 -160 -44c-160 0 -218 105 -218 263c0 169 78 264 223 264c73 0 113 -13 149 -32l-31 -106c-31 15 -58 23 -97 23c-72 0 -110 -45 -110 -149c0 -84 36 -149 117 -149c44 0 73 13 97 29zM271 566h-74l53 154h132v-30z" />
    <glyph glyph-name="Ccircumflex" unicode="&#x108;" horiz-adv-x="559" 
d="M155 738v40l133 92h96l127 -93v-39h-99l-57 41l-20 34l-21 -33l-62 -42h-97zM506 141l28 -112c-43 -30 -114 -42 -183 -42c-167 0 -313 98 -313 363c0 274 168 364 316 364c80 0 134 -12 170 -27l-27 -116c-31 15 -71 21 -131 21c-111 0 -184 -77 -184 -242
c0 -144 65 -241 194 -241c60 0 99 13 130 32z" />
    <glyph glyph-name="ccircumflex" unicode="&#x109;" horiz-adv-x="433" 
d="M381 130l30 -99c-40 -29 -100 -44 -160 -44c-160 0 -218 105 -218 263c0 169 78 264 223 264c73 0 113 -13 149 -32l-31 -106c-31 15 -58 23 -97 23c-72 0 -110 -45 -110 -149c0 -84 36 -149 117 -149c44 0 73 13 97 29zM180 550h-99l123 182h86l111 -182h-103l-39 66
l-17 49l-17 -49z" />
    <glyph glyph-name="Ccaron" unicode="&#x10c;" horiz-adv-x="559" 
d="M519 870v-40l-133 -93h-94l-127 94v39h105l53 -45l19 -30l21 29l56 46h100zM506 141l28 -112c-43 -30 -114 -42 -183 -42c-167 0 -313 98 -313 363c0 274 168 364 316 364c80 0 134 -12 170 -27l-27 -116c-31 15 -71 21 -131 21c-111 0 -184 -77 -184 -242
c0 -144 65 -241 194 -241c60 0 99 13 130 32z" />
    <glyph glyph-name="ccaron" unicode="&#x10d;" horiz-adv-x="433" 
d="M381 130l30 -99c-40 -29 -100 -44 -160 -44c-160 0 -218 105 -218 263c0 169 78 264 223 264c73 0 113 -13 149 -32l-31 -106c-31 15 -58 23 -97 23c-72 0 -110 -45 -110 -149c0 -84 36 -149 117 -149c44 0 73 13 97 29zM308 732h101l-123 -182h-91l-115 182h110l39 -66
l16 -49l18 49z" />
    <glyph glyph-name="Dcaron" unicode="&#x10e;" horiz-adv-x="647" 
d="M461 870v-40l-133 -93h-94l-127 94v39h105l53 -45l19 -30l21 29l56 46h100zM60 0v700c56 8 148 10 204 10c249 0 345 -146 345 -354c0 -188 -89 -366 -358 -366c-41 0 -156 5 -191 10zM275 588c-29 0 -63 -1 -78 -4v-469c10 -2 57 -4 70 -4c156 0 198 119 198 245
c0 109 -37 232 -190 232z" />
    <glyph glyph-name="dcaron" unicode="&#x10f;" horiz-adv-x="639" 
d="M541 700h114c-5 -76 -59 -177 -91 -204l-58 31c23 48 35 112 35 173zM352 700h130v-524c0 -56 -1 -109 10 -176h-93l-18 64h-4c-27 -47 -78 -77 -146 -77c-125 0 -198 79 -198 255c0 171 79 270 228 270c41 0 64 -4 91 -15v203zM261 96c51 0 79 25 91 72v212
c-19 15 -39 22 -75 22c-73 0 -110 -44 -110 -164c0 -85 29 -142 94 -142z" />
    <glyph glyph-name="Dcroat" unicode="&#x110;" horiz-adv-x="669" 
d="M82 321h-87v80h87v299c56 8 148 10 204 10c249 0 345 -146 345 -354c0 -188 -89 -366 -358 -366c-41 0 -156 5 -191 10v321zM297 588c-29 0 -63 -1 -78 -4v-183h140v-80h-140v-207c10 -3 57 -3 70 -3c156 0 198 119 198 245c0 109 -37 232 -190 232z" />
    <glyph glyph-name="dcroat" unicode="&#x111;" horiz-adv-x="550" 
d="M352 700h130v-59h76v-80h-76v-385c0 -56 -1 -109 10 -176h-93l-18 64h-4c-27 -47 -78 -77 -146 -77c-125 0 -198 79 -198 255c0 171 79 270 228 270c41 0 64 -4 91 -15v64h-148v80h148v59zM261 96c51 0 79 25 91 72v212c-19 15 -39 22 -75 22c-73 0 -110 -44 -110 -164
c0 -85 29 -142 94 -142z" />
    <glyph glyph-name="Emacron" unicode="&#x112;" horiz-adv-x="522" 
d="M438 767h-343v89h343v-89zM480 0h-420v700h415v-122h-278v-163h253v-122h-253v-171h283v-122z" />
    <glyph glyph-name="emacron" unicode="&#x113;" horiz-adv-x="508" 
d="M414 128l43 -85c-40 -32 -114 -56 -191 -56c-161 0 -233 99 -233 263c0 176 88 264 240 264c101 0 200 -47 200 -202c0 -28 -3 -60 -10 -95h-300c4 -84 40 -127 128 -127c55 0 100 21 123 38zM271 410c-68 0 -98 -44 -105 -112h186c5 72 -22 112 -81 112zM420 566h-323
v92h323v-92z" />
    <glyph glyph-name="Edotaccent" unicode="&#x116;" horiz-adv-x="522" 
d="M191 799c0 33 29 61 86 61s89 -28 89 -61c0 -35 -32 -62 -89 -62s-86 27 -86 62zM480 0h-420v700h415v-122h-278v-163h253v-122h-253v-171h283v-122z" />
    <glyph glyph-name="edotaccent" unicode="&#x117;" horiz-adv-x="508" 
d="M414 128l43 -85c-40 -32 -114 -56 -191 -56c-161 0 -233 99 -233 263c0 176 88 264 240 264c101 0 200 -47 200 -202c0 -28 -3 -60 -10 -95h-300c4 -84 40 -127 128 -127c55 0 100 21 123 38zM271 410c-68 0 -98 -44 -105 -112h186c5 72 -22 112 -81 112zM186 641
c0 39 30 70 81 70s85 -31 85 -70s-34 -68 -85 -68s-81 29 -81 68z" />
    <glyph glyph-name="Eogonek" unicode="&#x118;" horiz-adv-x="522" 
d="M355 0h-295v700h415v-122h-278v-163h253v-122h-253v-171h283v-122h-27c-39 -14 -58 -38 -58 -72c0 -24 15 -43 42 -43c12 0 26 4 42 12l19 -62c-20 -16 -68 -35 -115 -35c-75 0 -115 36 -115 91c0 51 32 87 87 109z" />
    <glyph glyph-name="eogonek" unicode="&#x119;" horiz-adv-x="508" 
d="M414 128l43 -85c-17 -13 -39 -25 -66 -35c-32 -20 -48 -45 -48 -75c0 -34 31 -61 84 -35l19 -62c-20 -16 -67 -36 -114 -36c-76 0 -116 41 -116 96c0 37 17 68 46 91c-79 1 -136 23 -173 69c-37 47 -56 112 -56 194c0 176 88 264 240 264c101 0 200 -47 200 -202
c0 -28 -3 -60 -10 -95h-300c4 -84 40 -127 128 -127c55 0 100 21 123 38zM271 410c-68 0 -98 -44 -105 -112h186c5 72 -22 112 -81 112z" />
    <glyph glyph-name="Ecaron" unicode="&#x11a;" horiz-adv-x="522" 
d="M441 870v-40l-133 -93h-94l-127 94v39h105l53 -45l19 -30l21 29l56 46h100zM480 0h-420v700h415v-122h-278v-163h253v-122h-253v-171h283v-122z" />
    <glyph glyph-name="ecaron" unicode="&#x11b;" horiz-adv-x="508" 
d="M414 128l43 -85c-40 -32 -114 -56 -191 -56c-161 0 -233 99 -233 263c0 176 88 264 240 264c101 0 200 -47 200 -202c0 -28 -3 -60 -10 -95h-300c4 -84 40 -127 128 -127c55 0 100 21 123 38zM271 410c-68 0 -98 -44 -105 -112h186c5 72 -22 112 -81 112zM326 732h101
l-123 -182h-91l-115 182h110l39 -66l16 -49l18 49z" />
    <glyph glyph-name="Gcircumflex" unicode="&#x11c;" horiz-adv-x="609" 
d="M170 738v40l133 92h96l127 -93v-39h-99l-57 41l-20 34l-21 -33l-62 -42h-97zM458 266l-151 16v83h261v-312c-56 -47 -140 -66 -216 -66c-179 0 -314 109 -314 363c0 265 167 364 326 364c80 0 142 -15 178 -28l-28 -115c-33 13 -71 21 -135 21c-115 0 -197 -67 -197 -243
c0 -168 81 -241 183 -241c35 0 70 9 93 26v132z" />
    <glyph glyph-name="gcircumflex" unicode="&#x11d;" horiz-adv-x="536" 
d="M480 482v-482c0 -144 -83 -211 -224 -211c-96 0 -148 16 -176 31l27 103c31 -12 69 -27 129 -27c91 0 117 41 117 111v32h-4c-23 -31 -65 -46 -124 -46c-129 0 -192 76 -192 247c0 179 87 272 250 272c85 0 154 -14 197 -30zM260 96c51 0 75 23 90 68v225
c-21 9 -46 13 -77 13c-67 0 -106 -48 -106 -157c0 -97 33 -149 93 -149zM214 550h-99l123 182h86l111 -182h-103l-39 66l-17 49l-17 -49z" />
    <glyph glyph-name="Gbreve" unicode="&#x11e;" horiz-adv-x="609" 
d="M144 838l52 37c27 -35 80 -54 143 -54c64 0 110 22 137 54l49 -32c-32 -76 -112 -113 -187 -113c-72 0 -157 29 -194 108zM458 266l-151 16v83h261v-312c-56 -47 -140 -66 -216 -66c-179 0 -314 109 -314 363c0 265 167 364 326 364c80 0 142 -15 178 -28l-28 -115
c-33 13 -71 21 -135 21c-115 0 -197 -67 -197 -243c0 -168 81 -241 183 -241c35 0 70 9 93 26v132z" />
    <glyph glyph-name="gbreve" unicode="&#x11f;" horiz-adv-x="536" 
d="M480 482v-482c0 -144 -83 -211 -224 -211c-96 0 -148 16 -176 31l27 103c31 -12 69 -27 129 -27c91 0 117 41 117 111v32h-4c-23 -31 -65 -46 -124 -46c-129 0 -192 76 -192 247c0 179 87 272 250 272c85 0 154 -14 197 -30zM260 96c51 0 75 23 90 68v225
c-21 9 -46 13 -77 13c-67 0 -106 -48 -106 -157c0 -97 33 -149 93 -149zM95 688l63 32c23 -40 67 -59 112 -59s86 20 106 59l60 -27c-8 -65 -75 -129 -167 -129c-88 0 -155 48 -174 124z" />
    <glyph glyph-name="Gcommaaccent" unicode="&#x122;" horiz-adv-x="609" 
d="M278 -104c0 39 29 63 68 63c47 0 79 -32 79 -88c0 -88 -67 -132 -103 -143l-34 54c19 9 41 25 44 53c-27 -1 -54 20 -54 61zM458 266l-151 16v83h261v-312c-56 -47 -140 -66 -216 -66c-179 0 -314 109 -314 363c0 265 167 364 326 364c80 0 142 -15 178 -28l-28 -115
c-33 13 -71 21 -135 21c-115 0 -197 -67 -197 -243c0 -168 81 -241 183 -241c35 0 70 9 93 26v132z" />
    <glyph glyph-name="gcommaaccent" unicode="&#x123;" horiz-adv-x="536" 
d="M360 613c0 -39 -29 -63 -68 -63c-47 0 -79 32 -79 88c0 88 67 132 103 143l34 -54c-19 -9 -41 -25 -44 -53c27 1 54 -20 54 -61zM480 482v-482c0 -144 -83 -211 -224 -211c-96 0 -148 16 -176 31l27 103c31 -12 69 -27 129 -27c91 0 117 41 117 111v32h-4
c-23 -31 -65 -46 -124 -46c-129 0 -192 76 -192 247c0 179 87 272 250 272c85 0 154 -14 197 -30zM260 96c51 0 75 23 90 68v225c-21 9 -46 13 -77 13c-67 0 -106 -48 -106 -157c0 -97 33 -149 93 -149z" />
    <glyph glyph-name="Hcircumflex" unicode="&#x124;" horiz-adv-x="651" 
d="M145 738v40l133 92h96l127 -93v-39h-99l-57 41l-20 34l-21 -33l-62 -42h-97zM590 0h-137v293h-256v-293h-137v700h137v-285h256v285h137v-700z" />
    <glyph glyph-name="hcircumflex" unicode="&#x125;" horiz-adv-x="545" 
d="M104 738v40l133 92h96l127 -93v-39h-99l-57 41l-20 34l-21 -33l-62 -42h-97zM493 311v-311h-130v284c0 81 -19 115 -79 115c-44 0 -85 -33 -97 -80v-319h-130v700h130v-256h4c32 43 76 70 148 70c102 0 154 -47 154 -203z" />
    <glyph glyph-name="Hbar" unicode="&#x126;" horiz-adv-x="683" 
d="M77 516h-75v82h75v102h137v-102h256v102h137v-102h74v-82h-74v-516h-137v293h-256v-293h-137v516zM214 516v-101h256v101h-256z" />
    <glyph glyph-name="hbar" unicode="&#x127;" horiz-adv-x="556" 
d="M68 561h-73v80h73v59h130v-59h161v-80h-161v-117h4c32 43 76 70 148 70c102 0 154 -47 154 -203v-311h-130v284c0 81 -19 115 -79 115c-44 0 -85 -33 -97 -80v-319h-130v561z" />
    <glyph glyph-name="Imacron" unicode="&#x12a;" horiz-adv-x="285" 
d="M319 767h-343v89h343v-89zM211 0h-137v700h137v-700z" />
    <glyph glyph-name="imacron" unicode="&#x12b;" horiz-adv-x="269" 
d="M200 0h-130v500h130v-500zM297 566h-323v92h323v-92z" />
    <glyph glyph-name="Iogonek" unicode="&#x12e;" horiz-adv-x="285" 
d="M109 0h-35v700h137v-700h-14c-31 -15 -49 -39 -48 -72c0 -24 15 -43 42 -43c11 0 25 4 41 12l20 -62c-20 -16 -68 -36 -115 -36c-76 0 -115 37 -115 92c0 51 32 87 87 109z" />
    <glyph glyph-name="iogonek" unicode="&#x12f;" horiz-adv-x="270" 
d="M100 0h-30v500h130v-500h-13c-31 -18 -48 -41 -47 -72c0 -24 16 -43 43 -43c11 0 25 4 41 12l19 -62c-20 -16 -67 -36 -114 -36c-76 0 -116 37 -116 92c0 51 32 87 87 109zM51 641c0 39 30 70 81 70s85 -31 85 -70s-34 -68 -85 -68s-81 29 -81 68z" />
    <glyph glyph-name="Idotaccent" unicode="&#x130;" horiz-adv-x="285" 
d="M58 799c0 33 29 61 86 61s89 -28 89 -61c0 -35 -32 -62 -89 -62s-86 27 -86 62zM211 0h-137v700h137v-700z" />
    <glyph glyph-name="Jcircumflex" unicode="&#x134;" horiz-adv-x="334" 
d="M22 738v40l133 92h96l127 -93v-39h-99l-57 41l-20 34l-21 -33l-62 -42h-97zM131 223v477h137v-512c0 -106 -46 -199 -169 -199c-39 0 -89 8 -121 22l29 112c17 -9 37 -13 59 -13c56 0 65 45 65 113z" />
    <glyph glyph-name="jcircumflex" unicode="&#x135;" horiz-adv-x="268" 
d="M74 550h-99l123 182h86l111 -182h-103l-39 66l-17 49l-17 -49zM69 16v484h130v-520c0 -121 -46 -187 -151 -187c-20 0 -41 2 -63 7v109c5 0 9 -1 13 -1c59 0 71 41 71 108z" />
    <glyph glyph-name="Kcommaaccent" unicode="&#x136;" horiz-adv-x="620" 
d="M221 -104c0 39 29 63 68 63c47 0 79 -32 79 -88c0 -88 -67 -132 -103 -143l-34 54c19 9 41 25 44 53c-27 -1 -54 20 -54 61zM609 0h-169l-207 299h-36v-299h-137v700h137v-310l32 14l193 296h156l-204 -294l-54 -38l56 -39z" />
    <glyph glyph-name="kcommaaccent" unicode="&#x137;" horiz-adv-x="491" 
d="M179 -104c0 39 29 63 68 63c47 0 79 -32 79 -88c0 -88 -67 -132 -103 -143l-34 54c19 9 41 25 44 53c-27 -1 -54 20 -54 61zM493 0h-149l-122 207h-35v-207h-130v700h130v-413l30 14l114 199h143l-120 -190l-51 -38l55 -39z" />
    <glyph glyph-name="Lacute" unicode="&#x139;" horiz-adv-x="514" 
d="M207 752h-103l104 118h159v-30zM197 122h306v-122h-443v700h137v-578z" />
    <glyph glyph-name="lacute" unicode="&#x13a;" horiz-adv-x="294" 
d="M173 752h-103l104 118h159v-30zM61 700h130v-532c0 -47 11 -67 38 -67c16 0 29 2 52 11l14 -102c-21 -10 -70 -23 -117 -23c-76 0 -117 32 -117 113v600z" />
    <glyph glyph-name="Lcommaaccent" unicode="&#x13b;" horiz-adv-x="514" 
d="M181 -104c0 39 29 63 68 63c47 0 79 -32 79 -88c0 -88 -67 -132 -103 -143l-34 54c19 9 41 25 44 53c-27 -1 -54 20 -54 61zM197 122h306v-122h-443v700h137v-578z" />
    <glyph glyph-name="lcommaaccent" unicode="&#x13c;" horiz-adv-x="294" 
d="M95 -104c0 39 29 63 68 63c47 0 79 -32 79 -88c0 -88 -67 -132 -103 -143l-34 54c19 9 41 25 44 53c-27 -1 -54 20 -54 61zM61 700h130v-532c0 -47 11 -67 38 -67c16 0 29 2 52 11l14 -102c-21 -10 -70 -23 -117 -23c-76 0 -117 32 -117 113v600z" />
    <glyph glyph-name="Lcaron" unicode="&#x13d;" horiz-adv-x="514" 
d="M349 700h114c-5 -76 -59 -177 -91 -204l-58 31c23 48 35 112 35 173zM197 122h306v-122h-443v700h137v-578z" />
    <glyph glyph-name="lcaron" unicode="&#x13e;" horiz-adv-x="294" 
d="M252 700h114c-5 -76 -59 -177 -91 -204l-58 31c23 48 35 112 35 173zM61 700h130v-532c0 -47 11 -67 38 -67c16 0 29 2 52 11l14 -102c-21 -10 -70 -23 -117 -23c-76 0 -117 32 -117 113v600z" />
    <glyph glyph-name="Nacute" unicode="&#x143;" horiz-adv-x="657" 
d="M365 752h-103l104 118h159v-30zM597 -4h-100l-263 369l-55 110h-5l16 -110v-365h-130v705h100l265 -373l53 -107h5l-16 107v368h130v-704z" />
    <glyph glyph-name="nacute" unicode="&#x144;" horiz-adv-x="545" 
d="M493 311v-311h-130v284c0 81 -21 115 -77 115c-49 0 -84 -32 -99 -75v-324h-130v500h103l15 -66h4c31 43 79 80 159 80c100 0 155 -47 155 -203zM298 566h-74l53 154h132v-30z" />
    <glyph glyph-name="Ncommaaccent" unicode="&#x145;" horiz-adv-x="657" 
d="M254 -104c0 39 29 63 68 63c47 0 79 -32 79 -88c0 -88 -67 -132 -103 -143l-34 54c19 9 41 25 44 53c-27 -1 -54 20 -54 61zM597 -4h-100l-263 369l-55 110h-5l16 -110v-365h-130v705h100l265 -373l53 -107h5l-16 107v368h130v-704z" />
    <glyph glyph-name="ncommaaccent" unicode="&#x146;" horiz-adv-x="545" 
d="M198 -104c0 39 29 63 68 63c47 0 79 -32 79 -88c0 -88 -67 -132 -103 -143l-34 54c19 9 41 25 44 53c-27 -1 -54 20 -54 61zM493 311v-311h-130v284c0 81 -21 115 -77 115c-49 0 -84 -32 -99 -75v-324h-130v500h103l15 -66h4c31 43 79 80 159 80c100 0 155 -47 155 -203z
" />
    <glyph glyph-name="Ncaron" unicode="&#x147;" horiz-adv-x="657" 
d="M510 870v-40l-133 -93h-94l-127 94v39h105l53 -45l19 -30l21 29l56 46h100zM597 -4h-100l-263 369l-55 110h-5l16 -110v-365h-130v705h100l265 -373l53 -107h5l-16 107v368h130v-704z" />
    <glyph glyph-name="ncaron" unicode="&#x148;" horiz-adv-x="545" 
d="M493 311v-311h-130v284c0 81 -21 115 -77 115c-49 0 -84 -32 -99 -75v-324h-130v500h103l15 -66h4c31 43 79 80 159 80c100 0 155 -47 155 -203zM340 732h101l-123 -182h-91l-115 182h110l39 -66l16 -49l18 49z" />
    <glyph glyph-name="Omacron" unicode="&#x14c;" horiz-adv-x="670" 
d="M510 767h-343v89h343v-89zM38 350c0 233 106 364 297 364c201 0 297 -145 297 -364c0 -233 -108 -363 -297 -363c-203 0 -297 144 -297 363zM182 350c0 -141 46 -242 153 -242c97 0 153 71 153 242c0 136 -42 242 -153 242c-97 0 -153 -75 -153 -242z" />
    <glyph glyph-name="omacron" unicode="&#x14d;" horiz-adv-x="537" 
d="M33 250c0 169 87 264 236 264c159 0 235 -106 235 -264c0 -169 -86 -263 -235 -263c-159 0 -236 105 -236 263zM167 250c0 -88 30 -154 102 -154c68 0 101 47 101 154c0 92 -28 154 -101 154c-64 0 -102 -45 -102 -154zM430 566h-323v92h323v-92z" />
    <glyph glyph-name="Ohungarumlaut" unicode="&#x150;" horiz-adv-x="670" 
d="M284 741h-93l59 109h134v-16zM445 741h-94l97 109h140v-16zM38 350c0 233 106 364 297 364c201 0 297 -145 297 -364c0 -233 -108 -363 -297 -363c-203 0 -297 144 -297 363zM182 350c0 -141 46 -242 153 -242c97 0 153 71 153 242c0 136 -42 242 -153 242
c-97 0 -153 -75 -153 -242z" />
    <glyph glyph-name="ohungarumlaut" unicode="&#x151;" horiz-adv-x="537" 
d="M33 250c0 169 87 264 236 264c159 0 235 -106 235 -264c0 -169 -86 -263 -235 -263c-159 0 -236 105 -236 263zM167 250c0 -88 30 -154 102 -154c68 0 101 47 101 154c0 92 -28 154 -101 154c-64 0 -102 -45 -102 -154zM223 571h-78l35 129h119v-16zM366 571h-81l73 129
h126v-16z" />
    <glyph glyph-name="Racute" unicode="&#x154;" horiz-adv-x="602" 
d="M291 752h-103l104 118h159v-30zM197 0h-137v693c62 11 144 17 200 17c132 0 264 -41 264 -197c0 -115 -58 -187 -147 -215l49 -31l160 -267h-158l-159 274l-72 13v-287zM270 588c-28 0 -58 -1 -73 -5v-203h58c76 0 125 32 125 112c0 60 -38 96 -110 96z" />
    <glyph glyph-name="racute" unicode="&#x155;" horiz-adv-x="351" 
d="M350 500l-17 -122c-21 7 -39 11 -56 11c-47 0 -79 -27 -90 -66v-323h-130v500h101l15 -66h4c23 49 62 77 114 77c17 0 37 -4 59 -11zM193 566h-74l53 154h132v-30z" />
    <glyph glyph-name="Rcommaaccent" unicode="&#x156;" horiz-adv-x="602" 
d="M228 -104c0 39 29 63 68 63c47 0 79 -32 79 -88c0 -88 -67 -132 -103 -143l-34 54c19 9 41 25 44 53c-27 -1 -54 20 -54 61zM197 0h-137v693c62 11 144 17 200 17c132 0 264 -41 264 -197c0 -115 -58 -187 -147 -215l49 -31l160 -267h-158l-159 274l-72 13v-287zM270 588
c-28 0 -58 -1 -73 -5v-203h58c76 0 125 32 125 112c0 60 -38 96 -110 96z" />
    <glyph glyph-name="rcommaaccent" unicode="&#x157;" horiz-adv-x="351" 
d="M85 -104c0 39 29 63 68 63c47 0 79 -32 79 -88c0 -88 -67 -132 -103 -143l-34 54c19 9 41 25 44 53c-27 -1 -54 20 -54 61zM350 500l-17 -122c-21 7 -39 11 -56 11c-47 0 -79 -27 -90 -66v-323h-130v500h101l15 -66h4c23 49 62 77 114 77c17 0 37 -4 59 -11z" />
    <glyph glyph-name="Rcaron" unicode="&#x158;" horiz-adv-x="602" 
d="M436 870v-40l-133 -93h-94l-127 94v39h105l53 -45l19 -30l21 29l56 46h100zM197 0h-137v693c62 11 144 17 200 17c132 0 264 -41 264 -197c0 -115 -58 -187 -147 -215l49 -31l160 -267h-158l-159 274l-72 13v-287zM270 588c-28 0 -58 -1 -73 -5v-203h58
c76 0 125 32 125 112c0 60 -38 96 -110 96z" />
    <glyph glyph-name="rcaron" unicode="&#x159;" horiz-adv-x="351" 
d="M350 500l-17 -122c-21 7 -39 11 -56 11c-47 0 -79 -27 -90 -66v-323h-130v500h101l15 -66h4c23 49 62 77 114 77c17 0 37 -4 59 -11zM262 732h101l-123 -182h-91l-115 182h110l39 -66l16 -49l18 49z" />
    <glyph glyph-name="Sacute" unicode="&#x15a;" horiz-adv-x="530" 
d="M301 752h-103l104 118h159v-30zM362 188c0 127 -319 91 -319 326c0 136 96 200 236 200c81 0 157 -14 204 -41l-43 -115c-29 19 -93 37 -161 37c-64 0 -99 -27 -99 -70c0 -120 319 -98 319 -322c0 -148 -103 -216 -256 -216c-100 0 -180 22 -216 41l44 117
c29 -16 97 -40 165 -40c81 0 126 27 126 83z" />
    <glyph glyph-name="sacute" unicode="&#x15b;" horiz-adv-x="422" 
d="M264 138c0 81 -228 43 -228 224c0 99 60 152 171 152c76 0 140 -19 175 -39l-29 -94c-31 12 -81 29 -129 29c-39 0 -58 -15 -58 -45c0 -73 228 -41 228 -216c0 -101 -65 -162 -194 -162c-71 0 -136 20 -175 44l36 97c31 -17 86 -38 139 -38c39 0 64 13 64 48zM229 566
h-74l53 154h132v-30z" />
    <glyph glyph-name="Scircumflex" unicode="&#x15c;" horiz-adv-x="530" 
d="M97 738v40l133 92h96l127 -93v-39h-99l-57 41l-20 34l-21 -33l-62 -42h-97zM362 188c0 127 -319 91 -319 326c0 136 96 200 236 200c81 0 157 -14 204 -41l-43 -115c-29 19 -93 37 -161 37c-64 0 -99 -27 -99 -70c0 -120 319 -98 319 -322c0 -148 -103 -216 -256 -216
c-100 0 -180 22 -216 41l44 117c29 -16 97 -40 165 -40c81 0 126 27 126 83z" />
    <glyph glyph-name="scircumflex" unicode="&#x15d;" horiz-adv-x="422" 
d="M264 138c0 81 -228 43 -228 224c0 99 60 152 171 152c76 0 140 -19 175 -39l-29 -94c-31 12 -81 29 -129 29c-39 0 -58 -15 -58 -45c0 -73 228 -41 228 -216c0 -101 -65 -162 -194 -162c-71 0 -136 20 -175 44l36 97c31 -17 86 -38 139 -38c39 0 64 13 64 48zM154 550
h-99l123 182h86l111 -182h-103l-39 66l-17 49l-17 -49z" />
    <glyph glyph-name="Scedilla" unicode="&#x15e;" horiz-adv-x="530" 
d="M362 188c0 127 -319 91 -319 326c0 136 96 200 236 200c81 0 157 -14 204 -41l-43 -115c-29 19 -93 37 -161 37c-64 0 -99 -27 -99 -70c0 -120 319 -98 319 -322c0 -127 -74 -195 -191 -211l-18 -34c55 -5 88 -27 88 -75c0 -60 -65 -92 -148 -92c-21 0 -42 2 -64 6l9 48
c9 -1 17 -1 24 -1c51 0 60 14 60 30c0 19 -29 29 -86 32l48 81c-91 3 -161 22 -194 41l44 117c29 -16 97 -40 165 -40c81 0 126 27 126 83z" />
    <glyph glyph-name="scedilla" unicode="&#x15f;" horiz-adv-x="422" 
d="M264 138c0 81 -228 43 -228 224c0 99 60 152 171 152c76 0 140 -19 175 -39l-29 -94c-31 12 -81 29 -129 29c-39 0 -58 -15 -58 -45c0 -73 228 -41 228 -216c0 -85 -47 -143 -139 -157l-18 -34c55 -5 88 -27 88 -75c0 -60 -65 -92 -148 -92c-21 0 -42 2 -64 6l9 48
c9 -1 17 -1 24 -1c51 0 60 14 60 30c0 19 -29 29 -86 32l49 83c-59 5 -112 21 -144 42l36 97c31 -17 86 -38 139 -38c39 0 64 13 64 48z" />
    <glyph glyph-name="Tcommaaccent" unicode="&#x162;" horiz-adv-x="568" 
d="M205 -104c0 39 29 63 68 63c47 0 79 -32 79 -88c0 -88 -67 -132 -103 -143l-34 54c19 9 41 25 44 53c-27 -1 -54 20 -54 61zM11 700h546v-122h-204v-578h-137v578h-205v122z" />
    <glyph glyph-name="tcommaaccent" unicode="&#x163;" horiz-adv-x="349" 
d="M109 -104c0 39 29 63 68 63c47 0 79 -32 79 -88c0 -88 -67 -132 -103 -143l-34 54c19 9 41 25 44 53c-27 -1 -54 20 -54 61zM74 390h-69v110h69v94l130 37v-131h122v-110h-122v-192c0 -69 11 -97 50 -97c27 0 43 5 67 16l23 -100c-36 -17 -87 -30 -136 -30
c-92 0 -134 43 -134 151v252z" />
    <glyph glyph-name="Tcaron" unicode="&#x164;" horiz-adv-x="568" 
d="M460 870v-40l-133 -93h-94l-127 94v39h105l53 -45l19 -30l21 29l56 46h100zM11 700h546v-122h-204v-578h-137v578h-205v122z" />
    <glyph glyph-name="tcaron" unicode="&#x165;" horiz-adv-x="360" 
d="M261 723h114c-5 -76 -59 -177 -91 -204l-58 31c23 48 35 112 35 173zM74 390h-69v110h69v94l130 37v-131h122v-110h-122v-192c0 -69 11 -97 50 -97c27 0 43 5 67 16l23 -100c-36 -17 -87 -30 -136 -30c-92 0 -134 43 -134 151v252z" />
    <glyph glyph-name="Umacron" unicode="&#x16a;" horiz-adv-x="627" 
d="M488 767h-343v89h343v-89zM440 258v442h130v-452c0 -181 -99 -259 -247 -259c-177 0 -266 80 -266 242v469h137v-442c0 -110 41 -148 127 -148c84 0 119 44 119 148z" />
    <glyph glyph-name="umacron" unicode="&#x16b;" horiz-adv-x="538" 
d="M52 189v311h130v-284c0 -81 15 -115 71 -115c49 0 82 33 98 76v323h130v-348c0 -55 5 -109 16 -152h-98l-23 74h-4c-31 -51 -86 -87 -161 -87c-102 0 -159 46 -159 202zM429 566h-323v92h323v-92z" />
    <glyph glyph-name="Ubreve" unicode="&#x16c;" horiz-adv-x="627" 
d="M121 838l52 37c27 -35 80 -54 143 -54c64 0 110 22 137 54l49 -32c-32 -76 -112 -113 -187 -113c-72 0 -157 29 -194 108zM440 258v442h130v-452c0 -181 -99 -259 -247 -259c-177 0 -266 80 -266 242v469h137v-442c0 -110 41 -148 127 -148c84 0 119 44 119 148z" />
    <glyph glyph-name="ubreve" unicode="&#x16d;" horiz-adv-x="538" 
d="M52 189v311h130v-284c0 -81 15 -115 71 -115c49 0 82 33 98 76v323h130v-348c0 -55 5 -109 16 -152h-98l-23 74h-4c-31 -51 -86 -87 -161 -87c-102 0 -159 46 -159 202zM96 688l63 32c23 -40 67 -59 112 -59s86 20 106 59l60 -27c-8 -65 -75 -129 -167 -129
c-88 0 -155 48 -174 124z" />
    <glyph glyph-name="Uring" unicode="&#x16e;" horiz-adv-x="627" 
d="M192 772c0 49 28 90 128 90c93 0 128 -34 128 -90c0 -48 -32 -87 -128 -87c-95 0 -128 36 -128 87zM276 772c0 -21 15 -31 44 -31c33 0 45 11 45 31c0 23 -13 33 -45 33c-29 0 -44 -11 -44 -33zM440 258v442h130v-452c0 -181 -99 -259 -247 -259c-177 0 -266 80 -266 242
v469h137v-442c0 -110 41 -148 127 -148c84 0 119 44 119 148z" />
    <glyph glyph-name="uring" unicode="&#x16f;" horiz-adv-x="538" 
d="M52 189v311h130v-284c0 -81 15 -115 71 -115c49 0 82 33 98 76v323h130v-348c0 -55 5 -109 16 -152h-98l-23 74h-4c-31 -51 -86 -87 -161 -87c-102 0 -159 46 -159 202zM155 647c0 56 39 96 111 96c68 0 111 -33 111 -96c0 -52 -42 -94 -111 -94c-71 0 -111 37 -111 94z
M227 647c0 -21 19 -33 39 -33c23 0 39 10 39 33s-18 34 -39 34c-20 0 -39 -10 -39 -34z" />
    <glyph glyph-name="Uhungarumlaut" unicode="&#x170;" horiz-adv-x="627" 
d="M259 741h-93l59 109h134v-16zM420 741h-94l97 109h140v-16zM440 258v442h130v-452c0 -181 -99 -259 -247 -259c-177 0 -266 80 -266 242v469h137v-442c0 -110 41 -148 127 -148c84 0 119 44 119 148z" />
    <glyph glyph-name="uhungarumlaut" unicode="&#x171;" horiz-adv-x="538" 
d="M52 189v311h130v-284c0 -81 15 -115 71 -115c49 0 82 33 98 76v323h130v-348c0 -55 5 -109 16 -152h-98l-23 74h-4c-31 -51 -86 -87 -161 -87c-102 0 -159 46 -159 202zM209 571h-78l35 129h119v-16zM352 571h-81l73 129h126v-16z" />
    <glyph glyph-name="Uogonek" unicode="&#x172;" horiz-adv-x="627" 
d="M440 258v442h130v-452c0 -91 -25 -155 -68 -198c-20 -20 -44 -35 -73 -45c-30 -20 -45 -44 -45 -72c0 -34 31 -62 84 -35l19 -62c-20 -16 -68 -36 -115 -36c-75 0 -115 41 -115 96c0 37 18 68 53 93c-169 4 -253 84 -253 242v469h137v-442c0 -110 41 -148 127 -148
c84 0 119 44 119 148z" />
    <glyph glyph-name="uogonek" unicode="&#x173;" horiz-adv-x="538" 
d="M52 189v311h130v-284c0 -81 15 -115 71 -115c49 0 82 33 98 76v323h130v-348c0 -55 5 -109 16 -152h-18c-39 -12 -56 -38 -56 -71c1 -35 31 -58 84 -31l19 -62c-20 -16 -67 -36 -114 -36c-76 0 -116 37 -116 92s38 94 101 114l-21 68h-4c-31 -51 -86 -87 -161 -87
c-102 0 -159 46 -159 202z" />
    <glyph glyph-name="Zacute" unicode="&#x179;" horiz-adv-x="539" 
d="M297 752h-103l104 118h159v-30zM512 0h-485v122l296 414l52 42h-348v122h485v-122l-298 -418l-51 -38h349v-122z" />
    <glyph glyph-name="zacute" unicode="&#x17a;" horiz-adv-x="458" 
d="M423 0h-392v110l197 237l51 43h-248v110h392v-110l-195 -241l-50 -39h245v-110zM243 566h-74l53 154h132v-30z" />
    <glyph glyph-name="Zdotaccent" unicode="&#x17b;" horiz-adv-x="539" 
d="M186 799c0 33 29 61 86 61s89 -28 89 -61c0 -35 -32 -62 -89 -62s-86 27 -86 62zM512 0h-485v122l296 414l52 42h-348v122h485v-122l-298 -418l-51 -38h349v-122z" />
    <glyph glyph-name="zdotaccent" unicode="&#x17c;" horiz-adv-x="458" 
d="M423 0h-392v110l197 237l51 43h-248v110h392v-110l-195 -241l-50 -39h245v-110zM151 641c0 39 30 70 81 70s85 -31 85 -70s-34 -68 -85 -68s-81 29 -81 68z" />
    <glyph glyph-name="longs" unicode="&#x17f;" horiz-adv-x="249" 
d="M81 390h-69v110h69v28c0 127 55 180 156 180c60 0 98 -9 134 -24l-26 -101c-31 11 -50 15 -77 15c-53 0 -57 -33 -57 -98v-500h-130v390z" />
    <glyph glyph-name="uni01F4" unicode="&#x1f4;" horiz-adv-x="609" 
d="M390 752h-103l104 118h159v-30zM458 266l-151 16v83h261v-312c-56 -47 -140 -66 -216 -66c-179 0 -314 109 -314 363c0 265 167 364 326 364c80 0 142 -15 178 -28l-28 -115c-33 13 -71 21 -135 21c-115 0 -197 -67 -197 -243c0 -168 81 -241 183 -241c35 0 70 9 93 26
v132z" />
    <glyph glyph-name="uni01F5" unicode="&#x1f5;" horiz-adv-x="536" 
d="M480 482v-482c0 -144 -83 -211 -224 -211c-96 0 -148 16 -176 31l27 103c31 -12 69 -27 129 -27c91 0 117 41 117 111v32h-4c-23 -31 -65 -46 -124 -46c-129 0 -192 76 -192 247c0 179 87 272 250 272c85 0 154 -14 197 -30zM260 96c51 0 75 23 90 68v225
c-21 9 -46 13 -77 13c-67 0 -106 -48 -106 -157c0 -97 33 -149 93 -149zM299 566h-74l53 154h132v-30z" />
    <glyph glyph-name="Scommaaccent" unicode="&#x218;" horiz-adv-x="530" 
d="M185 -104c0 39 29 63 68 63c47 0 79 -32 79 -88c0 -88 -67 -132 -103 -143l-34 54c19 9 41 25 44 53c-27 -1 -54 20 -54 61zM362 188c0 127 -319 91 -319 326c0 136 96 200 236 200c81 0 157 -14 204 -41l-43 -115c-29 19 -93 37 -161 37c-64 0 -99 -27 -99 -70
c0 -120 319 -98 319 -322c0 -148 -103 -216 -256 -216c-100 0 -180 22 -216 41l44 117c29 -16 97 -40 165 -40c81 0 126 27 126 83z" />
    <glyph glyph-name="scommaaccent" unicode="&#x219;" horiz-adv-x="422" 
d="M141 -104c0 39 29 63 68 63c47 0 79 -32 79 -88c0 -88 -67 -132 -103 -143l-34 54c19 9 41 25 44 53c-27 -1 -54 20 -54 61zM264 138c0 81 -228 43 -228 224c0 99 60 152 171 152c76 0 140 -19 175 -39l-29 -94c-31 12 -81 29 -129 29c-39 0 -58 -15 -58 -45
c0 -73 228 -41 228 -216c0 -101 -65 -162 -194 -162c-71 0 -136 20 -175 44l36 97c31 -17 86 -38 139 -38c39 0 64 13 64 48z" />
    <glyph glyph-name="uni0237" unicode="&#x237;" horiz-adv-x="268" 
d="M69 16v484h130v-520c0 -121 -46 -187 -151 -187c-20 0 -41 2 -63 7v109c5 0 9 -1 13 -1c59 0 71 41 71 108z" />
    <glyph glyph-name="afii57929" unicode="&#x2bc;" horiz-adv-x="223" 
d="M38 644c0 39 29 65 69 65c48 0 78 -35 78 -87c0 -107 -76 -145 -112 -159l-33 55c27 12 50 31 53 62c-27 -1 -55 21 -55 64z" />
    <glyph glyph-name="acutecomb" unicode="&#x301;" horiz-adv-x="2" 
d="M-230 566h-74l53 154h132v-30z" />
    <glyph glyph-name="uni0394" unicode="&#x394;" horiz-adv-x="585" 
d="M575 71v-71h-563v71l241 634h79zM288 514l-24 -101l-106 -297h270l-112 298l-23 100h-5z" />
    <glyph glyph-name="uni03A9" unicode="&#x3a9;" horiz-adv-x="778" 
d="M357 0h-299v110h105l85 -13v28l-46 9c-80 37 -143 124 -143 263c0 194 132 317 330 317c208 0 330 -130 330 -321c0 -139 -69 -221 -141 -258l-49 -10v-28l85 13h106v-110h-300v203c69 11 155 66 155 189c0 100 -49 200 -187 200c-119 0 -185 -68 -185 -203
c0 -121 82 -175 154 -186v-203z" />
    <glyph glyph-name="pi" unicode="&#x3c0;" horiz-adv-x="696" 
d="M649 390h-83v-234c0 -37 13 -50 32 -50c13 0 32 3 44 6l20 -90c-27 -12 -68 -27 -128 -27c-75 0 -98 42 -98 111v284h-140v-390h-130v390h-14c-24 0 -41 -12 -57 -44l-76 48c25 68 76 106 147 106h483v-110z" />
    <glyph glyph-name="afii10023" unicode="&#x401;" horiz-adv-x="522" 
d="M82 798c0 35 23 58 76 58c52 0 75 -23 75 -58s-23 -57 -75 -57c-53 0 -76 22 -76 57zM296 798c0 35 23 58 75 58c53 0 76 -23 76 -58s-23 -57 -76 -57c-52 0 -75 22 -75 57zM480 0h-420v700h415v-122h-278v-163h253v-122h-253v-171h283v-122z" />
    <glyph glyph-name="afii10051" unicode="&#x402;" horiz-adv-x="740" 
d="M353 317v-317h-137v578h-205v122h546v-122h-204v-143c21 8 66 22 138 22c103 0 211 -46 211 -225c0 -155 -72 -238 -241 -238c-37 0 -52 1 -63 4v116c9 -3 34 -3 57 -3c67 0 103 39 103 115c0 92 -51 109 -120 109c-31 0 -70 -10 -85 -18z" />
    <glyph glyph-name="afii10052" unicode="&#x403;" horiz-adv-x="458" 
d="M291 752h-103l104 118h159v-30zM60 700h407v-122h-270v-578h-137v700z" />
    <glyph glyph-name="afii10053" unicode="&#x404;" horiz-adv-x="577" 
d="M521 139l28 -110c-41 -29 -123 -42 -191 -42c-172 0 -320 98 -320 363c0 274 170 364 324 364c80 0 141 -12 177 -27l-26 -119c-31 15 -79 24 -139 24c-94 0 -170 -56 -189 -176h275v-112h-278c15 -119 85 -196 202 -196c60 0 108 14 137 31z" />
    <glyph glyph-name="afii10054" unicode="&#x405;" horiz-adv-x="530" 
d="M362 188c0 127 -319 91 -319 326c0 136 96 200 236 200c81 0 157 -14 204 -41l-43 -115c-29 19 -93 37 -161 37c-64 0 -99 -27 -99 -70c0 -120 319 -98 319 -322c0 -148 -103 -216 -256 -216c-100 0 -180 22 -216 41l44 117c29 -16 97 -40 165 -40c81 0 126 27 126 83z
" />
    <glyph glyph-name="afii10055" unicode="&#x406;" horiz-adv-x="285" 
d="M211 0h-137v700h137v-700z" />
    <glyph glyph-name="afii10056" unicode="&#x407;" horiz-adv-x="296" 
d="M19 792c0 41 21 64 60 64c37 0 59 -23 59 -64c0 -40 -22 -62 -59 -62c-39 0 -60 22 -60 62zM159 792c0 41 22 64 59 64c39 0 60 -23 60 -64c0 -40 -21 -62 -60 -62c-37 0 -59 22 -59 62zM216 0h-137v700h137v-700z" />
    <glyph glyph-name="afii10057" unicode="&#x408;" horiz-adv-x="334" 
d="M131 223v477h137v-512c0 -106 -46 -199 -169 -199c-39 0 -89 8 -121 22l29 112c17 -9 37 -13 59 -13c56 0 65 45 65 113z" />
    <glyph glyph-name="afii10058" unicode="&#x409;" horiz-adv-x="935" 
d="M463 0h-37v578h-149c-11 -253 -23 -414 -81 -507c-38 -61 -98 -77 -140 -77c-31 0 -49 5 -68 13l14 118c8 -3 16 -4 24 -4c21 0 42 11 58 35c39 59 61 221 66 544h413v-251c14 3 64 8 95 8c132 0 254 -46 254 -225c0 -160 -103 -241 -288 -241c-31 0 -101 2 -161 9z
M631 112c76 0 137 28 137 114c0 92 -65 109 -137 109c-19 0 -57 -5 -68 -8v-209c15 -4 41 -6 68 -6z" />
    <glyph glyph-name="afii10059" unicode="&#x40a;" horiz-adv-x="962" 
d="M453 3v302h-256v-305h-137v700h137v-273h256v273h137v-266c14 3 64 8 95 8c132 0 254 -39 254 -217c0 -160 -101 -234 -288 -234c-37 0 -135 5 -198 12zM658 112c84 0 137 24 137 107c0 84 -56 101 -137 101c-19 0 -57 -6 -68 -9v-193c15 -4 41 -6 68 -6z" />
    <glyph glyph-name="afii10060" unicode="&#x40b;" horiz-adv-x="758" 
d="M353 291v-291h-137v578h-205v122h546v-122h-204v-177c33 20 92 41 172 41c112 0 191 -55 191 -194v-248h-137v206c0 80 -30 119 -102 119c-51 0 -97 -11 -124 -34z" />
    <glyph glyph-name="afii10061" unicode="&#x40c;" horiz-adv-x="620" 
d="M317 752h-103l104 118h159v-30zM609 0h-169l-207 299h-36v-299h-137v700h137v-310l32 14l193 296h156l-204 -294l-54 -38l56 -39z" />
    <glyph glyph-name="afii10062" unicode="&#x40e;" horiz-adv-x="568" 
d="M104 854l124 20c5 -43 33 -60 74 -60c45 0 69 20 74 59l111 -17c-15 -84 -77 -121 -186 -121c-107 0 -186 28 -197 119zM-8 700h160l142 -309l20 -91h6l16 94l105 306h141l-186 -484c-58 -152 -103 -222 -207 -222c-44 0 -66 4 -98 23l35 111c23 -12 40 -13 61 -13
c31 0 53 25 66 74z" />
    <glyph glyph-name="afii10145" unicode="&#x40f;" horiz-adv-x="639" 
d="M276 -174l-20 174h-196v700h137v-578h245v578h137v-700h-200l-15 -174h-88z" />
    <glyph glyph-name="afii10017" unicode="&#x410;" horiz-adv-x="605" 
d="M605 0h-144l-56 155h-215l-53 -155h-137l252 705h101zM297 531l-21 -111l-51 -155h150l-52 156l-21 110h-5z" />
    <glyph glyph-name="afii10018" unicode="&#x411;" horiz-adv-x="570" 
d="M60 7v693h431v-122h-294v-146c23 4 58 9 90 9c149 0 255 -55 255 -216c0 -156 -108 -234 -279 -234c-45 0 -145 4 -203 16zM273 103c68 0 125 33 125 112c0 96 -63 113 -137 113c-19 0 -53 -4 -64 -7v-213c15 -4 49 -5 76 -5z" />
    <glyph glyph-name="afii10019" unicode="&#x412;" horiz-adv-x="591" 
d="M531 537c0 -71 -33 -140 -125 -162v-6c81 -13 147 -63 147 -172c0 -145 -134 -206 -273 -206c-45 0 -150 -1 -220 14v690c51 8 135 15 212 15c131 0 259 -33 259 -173zM281 103c67 0 130 32 130 101c0 87 -77 98 -146 98h-73v-193c13 -5 62 -6 89 -6zM192 593v-187h44
c19 0 47 1 63 4c51 16 93 47 93 99c0 69 -58 88 -118 88c-35 0 -66 -1 -82 -4z" />
    <glyph glyph-name="afii10020" unicode="&#x413;" horiz-adv-x="458" 
d="M60 700h407v-122h-270v-578h-137v700z" />
    <glyph glyph-name="afii10021" unicode="&#x414;" horiz-adv-x="691" 
d="M585 122h89v-246h-97l-15 124h-450l-15 -124h-97v246h74c20 31 95 194 92 578h419v-578zM219 122h229v456h-155c-8 -237 -43 -388 -74 -456z" />
    <glyph glyph-name="afii10022" unicode="&#x415;" horiz-adv-x="522" 
d="M480 0h-420v700h415v-122h-278v-163h253v-122h-253v-171h283v-122z" />
    <glyph glyph-name="afii10024" unicode="&#x416;" horiz-adv-x="839" 
d="M311 401h39v299h130v-311l35 14l145 297h154l-163 -307l-47 -34l57 -42l184 -317h-165l-161 304h-39v-304h-130v316l-36 -14l-161 -302h-159l182 307l54 39l-52 37l-171 317h159z" />
    <glyph glyph-name="afii10025" unicode="&#x417;" horiz-adv-x="526" 
d="M147 310h-27v107h24c24 0 73 0 96 6c47 11 85 37 85 84c0 64 -44 83 -111 83c-60 0 -116 -20 -143 -35l-35 116c29 16 114 41 199 41c117 0 234 -37 234 -175c0 -69 -35 -133 -116 -160v-5c87 -17 138 -75 138 -171c0 -151 -133 -214 -270 -214c-88 0 -164 16 -203 36
l35 119c31 -15 89 -34 168 -34c60 0 125 28 125 104c0 63 -40 93 -160 97c-16 0 -19 1 -39 1z" />
    <glyph glyph-name="afii10026" unicode="&#x418;" horiz-adv-x="666" 
d="M605 0h-137v388l8 91h-5l-47 -94l-261 -385h-103v700h137v-381l-10 -94h6l49 97l261 378h102v-700z" />
    <glyph glyph-name="afii10027" unicode="&#x419;" horiz-adv-x="666" 
d="M149 854l124 20c5 -43 33 -60 74 -60c45 0 69 20 74 59l111 -17c-15 -84 -77 -121 -186 -121c-107 0 -186 28 -197 119zM605 0h-137v388l8 91h-5l-47 -94l-261 -385h-103v700h137v-381l-10 -94h6l49 97l261 378h102v-700z" />
    <glyph glyph-name="afii10028" unicode="&#x41a;" horiz-adv-x="620" 
d="M609 0h-169l-207 299h-36v-299h-137v700h137v-310l32 14l193 296h156l-204 -294l-54 -38l56 -39z" />
    <glyph glyph-name="afii10029" unicode="&#x41b;" horiz-adv-x="623" 
d="M563 0h-137v578h-149c-11 -253 -23 -414 -81 -507c-38 -61 -98 -77 -140 -77c-31 0 -49 5 -68 13l14 118c8 -3 16 -4 24 -4c21 0 42 11 58 35c39 59 61 221 66 544h413v-700z" />
    <glyph glyph-name="afii10030" unicode="&#x41c;" horiz-adv-x="800" 
d="M740 0h-137v363l15 139h-6l-43 -112l-149 -261h-44l-157 262l-44 111h-5l20 -138v-364h-130v700h125l187 -320l33 -80h4l30 82l177 318h124v-700z" />
    <glyph glyph-name="afii10031" unicode="&#x41d;" horiz-adv-x="651" 
d="M590 0h-137v293h-256v-293h-137v700h137v-285h256v285h137v-700z" />
    <glyph glyph-name="afii10032" unicode="&#x41e;" horiz-adv-x="670" 
d="M38 350c0 233 106 364 297 364c201 0 297 -145 297 -364c0 -233 -108 -363 -297 -363c-203 0 -297 144 -297 363zM182 350c0 -141 46 -242 153 -242c97 0 153 71 153 242c0 136 -42 242 -153 242c-97 0 -153 -75 -153 -242z" />
    <glyph glyph-name="afii10033" unicode="&#x41f;" horiz-adv-x="639" 
d="M579 0h-137v578h-245v-578h-137v700h519v-700z" />
    <glyph glyph-name="afii10034" unicode="&#x420;" horiz-adv-x="572" 
d="M197 0h-137v693c56 11 126 17 193 17c139 0 294 -36 294 -232c0 -175 -133 -241 -271 -241c-14 0 -64 1 -79 4v-241zM264 592c-27 0 -52 -2 -67 -5v-227c11 -3 47 -4 59 -4c73 0 147 21 147 124c0 88 -70 112 -139 112z" />
    <glyph glyph-name="afii10035" unicode="&#x421;" horiz-adv-x="559" 
d="M506 141l28 -112c-43 -30 -114 -42 -183 -42c-167 0 -313 98 -313 363c0 274 168 364 316 364c80 0 134 -12 170 -27l-27 -116c-31 15 -71 21 -131 21c-111 0 -184 -77 -184 -242c0 -144 65 -241 194 -241c60 0 99 13 130 32z" />
    <glyph glyph-name="afii10036" unicode="&#x422;" horiz-adv-x="568" 
d="M11 700h546v-122h-204v-578h-137v578h-205v122z" />
    <glyph glyph-name="afii10037" unicode="&#x423;" horiz-adv-x="568" 
d="M-8 700h160l142 -309l20 -91h6l16 94l105 306h141l-186 -484c-58 -152 -103 -222 -207 -222c-44 0 -66 4 -98 23l35 111c23 -12 40 -13 61 -13c31 0 53 25 66 74z" />
    <glyph glyph-name="afii10038" unicode="&#x424;" horiz-adv-x="803" 
d="M469 -19h-135v95c-25 -4 -51 -5 -82 -5c-127 0 -226 87 -226 279c0 180 98 290 245 290c17 0 47 -1 63 -5v85h135v-88c24 7 62 8 83 8c128 0 225 -95 225 -280c0 -189 -109 -289 -240 -289c-23 0 -49 2 -68 7v-97zM520 529c-15 0 -41 -1 -56 -5v-340c11 -3 29 -2 45 -2
c73 0 131 53 131 177c0 107 -45 170 -120 170zM287 182c11 0 37 0 52 5v339c-13 3 -32 3 -47 3c-73 0 -129 -54 -129 -178c0 -108 49 -169 124 -169z" />
    <glyph glyph-name="afii10039" unicode="&#x425;" horiz-adv-x="633" 
d="M159 0h-149l215 356l-195 344h165l108 -202l24 -71l23 71l113 202h149l-202 -337l212 -363h-163l-123 216l-27 74l-26 -74z" />
    <glyph glyph-name="afii10040" unicode="&#x426;" horiz-adv-x="682" 
d="M575 122h90v-246h-97l-15 124h-493v700h137v-578h241v578h137v-578z" />
    <glyph glyph-name="afii10041" unicode="&#x427;" horiz-adv-x="606" 
d="M46 435v265h137v-222c0 -80 29 -119 101 -119c51 0 98 11 125 34v307h137v-700h-137v282c-35 -20 -93 -40 -173 -40c-111 0 -190 54 -190 193z" />
    <glyph glyph-name="afii10042" unicode="&#x428;" horiz-adv-x="861" 
d="M801 700v-700h-741v700h137v-578h165v578h137v-578h165v578h137z" />
    <glyph glyph-name="afii10043" unicode="&#x429;" horiz-adv-x="911" 
d="M797 -124l-15 124h-722v700h137v-578h165v578h137v-578h165v578h137v-578h92v-246h-96z" />
    <glyph glyph-name="afii10044" unicode="&#x42a;" horiz-adv-x="664" 
d="M155 7v571h-158v122h295v-251c14 3 64 8 96 8c131 0 253 -46 253 -225c0 -160 -101 -241 -288 -241c-38 0 -135 1 -198 16zM360 112c76 0 137 28 137 114c0 92 -65 109 -137 109c-19 0 -57 -5 -68 -8v-209c15 -4 41 -6 68 -6z" />
    <glyph glyph-name="afii10045" unicode="&#x42b;" horiz-adv-x="798" 
d="M737 0h-137v700h137v-700zM60 7v693h137v-251c15 3 51 8 82 8c134 0 249 -47 249 -224c0 -163 -95 -242 -282 -242c-36 0 -125 1 -186 16zM256 112c76 0 128 32 128 115c0 88 -56 108 -127 108c-19 0 -49 -4 -60 -8v-209c15 -4 36 -6 59 -6z" />
    <glyph glyph-name="afii10046" unicode="&#x42c;" horiz-adv-x="569" 
d="M60 7v693h137v-251c14 3 64 8 95 8c132 0 254 -46 254 -225c0 -160 -103 -241 -288 -241c-36 0 -135 1 -198 16zM265 112c76 0 137 28 137 114c0 92 -65 109 -137 109c-19 0 -57 -5 -68 -8v-209c15 -4 41 -6 68 -6z" />
    <glyph glyph-name="afii10047" unicode="&#x42d;" horiz-adv-x="574" 
d="M400 300h-270v110h269c-8 107 -71 182 -187 182c-72 0 -126 -18 -159 -37l-29 116c47 24 124 43 193 43c184 0 319 -96 319 -364c0 -277 -162 -363 -338 -363c-76 0 -141 15 -178 32l36 119c31 -15 84 -30 152 -30c103 0 181 57 192 192z" />
    <glyph glyph-name="afii10048" unicode="&#x42e;" horiz-adv-x="897" 
d="M60 700h137v-285h93c17 191 112 299 283 299c202 0 286 -145 286 -364c0 -233 -97 -363 -286 -363c-177 0 -267 121 -283 306h-93v-293h-137v700zM430 350c0 -141 36 -242 143 -242c97 0 142 71 142 242c0 136 -30 242 -142 242c-96 0 -143 -75 -143 -242z" />
    <glyph glyph-name="afii10049" unicode="&#x42f;" horiz-adv-x="580" 
d="M519 693v-693h-137v277l-72 -19l-146 -258h-159l144 233l60 43c-85 21 -154 88 -154 209c0 168 124 225 293 225c45 0 124 -4 171 -17zM331 588c-72 0 -132 -22 -132 -109c0 -83 57 -113 132 -113h51v217c-15 3 -28 5 -51 5z" />
    <glyph glyph-name="afii10065" unicode="&#x430;" horiz-adv-x="496" 
d="M85 374l-31 97c53 24 130 39 210 39c140 0 180 -69 180 -175c0 -117 -21 -240 11 -335h-106l-21 68h-5c-27 -41 -72 -75 -147 -75c-92 0 -153 58 -153 145c0 122 115 168 291 160c9 75 -6 105 -75 105c-52 0 -117 -12 -154 -29zM219 99c52 0 81 28 96 55v65
c-83 8 -158 -9 -158 -61c0 -37 23 -59 62 -59z" />
    <glyph glyph-name="afii10066" unicode="&#x431;" horiz-adv-x="537" 
d="M139 406h3c39 59 89 83 164 83c121 0 198 -72 198 -228c0 -180 -85 -274 -233 -274c-155 0 -238 99 -238 316c0 345 125 371 283 387c69 7 120 14 144 37l5 -116c-27 -23 -73 -30 -157 -35c-102 -7 -153 -29 -169 -170zM167 244c0 -85 33 -148 102 -148
c72 0 101 52 101 148c0 87 -27 135 -95 135c-73 0 -108 -51 -108 -135z" />
    <glyph glyph-name="afii10067" unicode="&#x432;" horiz-adv-x="505" 
d="M57 1v498c47 4 115 9 191 9c147 0 203 -42 203 -126c0 -47 -26 -96 -83 -116v-4c72 -16 102 -57 102 -121c0 -100 -73 -148 -242 -148c-56 0 -124 4 -171 8zM251 216h-67v-116c19 -3 32 -4 56 -4c72 0 100 20 100 61c0 35 -22 59 -89 59zM184 401v-105h69
c43 0 73 23 73 55c0 35 -20 53 -81 53c-31 0 -46 -2 -61 -3z" />
    <glyph glyph-name="afii10068" unicode="&#x433;" horiz-adv-x="376" 
d="M57 500h323v-115h-189v-385h-134v500z" />
    <glyph glyph-name="afii10069" unicode="&#x434;" horiz-adv-x="568" 
d="M481 115h73v-228h-95l-15 113h-336l-15 -113h-94v228h58c21 28 76 137 76 385h348v-385zM187 109h164v281h-105c-5 -97 -27 -222 -59 -281z" />
    <glyph glyph-name="afii10070" unicode="&#x435;" horiz-adv-x="508" 
d="M414 128l43 -85c-40 -32 -114 -56 -191 -56c-161 0 -233 99 -233 263c0 176 88 264 240 264c101 0 200 -47 200 -202c0 -28 -3 -60 -10 -95h-300c4 -84 40 -127 128 -127c55 0 100 21 123 38zM271 410c-68 0 -98 -44 -105 -112h186c5 72 -22 112 -81 112z" />
    <glyph glyph-name="afii10072" unicode="&#x436;" horiz-adv-x="693" 
d="M280 0v217l-38 -14l-102 -203h-145l130 229l34 30l-51 38l-103 203h139l93 -203h43v203h124v-213l38 14l94 199h138l-109 -203l-39 -32l51 -40l121 -225h-149l-102 207h-43v-207h-124z" />
    <glyph glyph-name="afii10073" unicode="&#x437;" horiz-adv-x="432" 
d="M158 207h-49v91h61c47 0 80 20 80 51c0 36 -26 50 -81 50c-52 0 -93 -16 -117 -31l-28 99c40 23 110 42 185 42c115 0 171 -44 171 -125c0 -45 -25 -97 -78 -116v-4c71 -16 97 -56 97 -124c0 -84 -68 -150 -214 -150c-73 0 -127 17 -163 37l28 101c31 -17 75 -29 128 -29
c61 0 91 19 91 58c0 35 -26 50 -111 50z" />
    <glyph glyph-name="afii10074" unicode="&#x438;" horiz-adv-x="545" 
d="M488 0h-130v228l5 71h-3l-43 -73l-178 -226h-82v500h130v-238l-6 -68h4l41 71l180 235h82v-500z" />
    <glyph glyph-name="afii10075" unicode="&#x439;" horiz-adv-x="545" 
d="M109 678l110 26c9 -52 31 -71 66 -71c37 0 59 19 67 70l99 -25c-16 -87 -85 -128 -169 -128s-157 36 -173 128zM488 0h-130v228l5 71h-3l-43 -73l-178 -226h-82v500h130v-238l-6 -68h4l41 71l180 235h82v-500z" />
    <glyph glyph-name="afii10076" unicode="&#x43a;" horiz-adv-x="489" 
d="M493 0h-149l-122 207h-35v-207h-130v500h130v-213l31 14l117 199h139l-121 -190l-51 -38l56 -39z" />
    <glyph glyph-name="afii10077" unicode="&#x43b;" horiz-adv-x="515" 
d="M459 0h-130v385h-99c-16 -189 -35 -390 -165 -390c-39 0 -65 5 -81 14l16 108c10 -4 20 -6 29 -6c53 0 79 79 87 389h343v-500z" />
    <glyph glyph-name="afii10078" unicode="&#x43c;" horiz-adv-x="666" 
d="M610 0h-125v229l8 104h-5l-40 -86l-94 -155h-47l-103 155l-38 86h-6l13 -103v-230h-116v500h135l115 -188l28 -63h4l29 65l106 186h136v-500z" />
    <glyph glyph-name="afii10079" unicode="&#x43d;" horiz-adv-x="537" 
d="M480 0h-130v196h-163v-196h-130v500h130v-188h163v188h130v-500z" />
    <glyph glyph-name="afii10080" unicode="&#x43e;" horiz-adv-x="537" 
d="M33 250c0 169 87 264 236 264c159 0 235 -106 235 -264c0 -169 -86 -263 -235 -263c-159 0 -236 105 -236 263zM167 250c0 -88 30 -154 102 -154c68 0 101 47 101 154c0 92 -28 154 -101 154c-64 0 -102 -45 -102 -154z" />
    <glyph glyph-name="afii10081" unicode="&#x43f;" horiz-adv-x="532" 
d="M475 0h-130v385h-158v-385h-130v500h418v-500z" />
    <glyph glyph-name="afii10082" unicode="&#x440;" horiz-adv-x="540" 
d="M187 -199h-130v699h95l15 -60h4c35 51 80 74 148 74c125 0 188 -75 188 -251c0 -172 -82 -276 -229 -276c-41 0 -64 6 -91 18v-204zM280 404c-51 0 -77 -25 -93 -76v-208c19 -15 38 -24 74 -24c75 0 112 49 112 170c0 88 -28 138 -93 138z" />
    <glyph glyph-name="afii10083" unicode="&#x441;" horiz-adv-x="433" 
d="M381 130l30 -99c-40 -29 -100 -44 -160 -44c-160 0 -218 105 -218 263c0 169 78 264 223 264c73 0 113 -13 149 -32l-31 -106c-31 15 -58 23 -97 23c-72 0 -110 -45 -110 -149c0 -84 36 -149 117 -149c44 0 73 13 97 29z" />
    <glyph glyph-name="afii10084" unicode="&#x442;" horiz-adv-x="418" 
d="M1 500h416v-115h-139v-385h-134v385h-143v115z" />
    <glyph glyph-name="afii10085" unicode="&#x443;" horiz-adv-x="478" 
d="M-8 500h155l92 -281l18 -78h6l13 79l76 280h134l-152 -451c-50 -148 -89 -253 -182 -253c-35 0 -62 6 -83 17l24 104c10 -4 20 -6 30 -6c31 0 62 22 77 89z" />
    <glyph glyph-name="afii10086" unicode="&#x444;" horiz-adv-x="700" 
d="M414 -199h-128v194c-23 -8 -49 -8 -69 -8c-121 0 -189 84 -189 263c0 171 74 260 210 260c19 0 35 -1 48 -4v194h128v-195c24 4 42 5 59 5c132 0 199 -73 199 -250c0 -168 -73 -273 -203 -273c-12 0 -40 2 -55 7v-193zM444 407c-13 0 -21 -2 -36 -5v-310
c11 -3 25 -3 41 -3c64 0 93 48 93 171c0 104 -26 147 -98 147zM251 89c15 0 26 2 41 5v309c-13 3 -26 4 -39 4c-61 0 -95 -42 -95 -157c0 -104 29 -161 93 -161z" />
    <glyph glyph-name="afii10087" unicode="&#x445;" horiz-adv-x="525" 
d="M150 0h-142l162 256l-150 244h155l65 -107l28 -70l30 70l68 107h141l-151 -240l161 -260h-151l-77 120l-30 74l-32 -74z" />
    <glyph glyph-name="afii10088" unicode="&#x446;" horiz-adv-x="559" 
d="M472 115h73v-228h-95l-15 113h-378v500h130v-385h155v385h130v-385z" />
    <glyph glyph-name="afii10089" unicode="&#x447;" horiz-adv-x="505" 
d="M33 330v170h130v-114c0 -83 10 -119 69 -119c39 0 67 11 86 24v209h130v-500h-130v196c-20 -15 -60 -38 -129 -38c-99 0 -156 39 -156 172z" />
    <glyph glyph-name="afii10090" unicode="&#x448;" horiz-adv-x="754" 
d="M697 500v-500h-640v500h130v-385h125v385h130v-385h125v385h130z" />
    <glyph glyph-name="afii10091" unicode="&#x449;" horiz-adv-x="783" 
d="M697 115h72v-244h-94l-15 129h-603v500h130v-385h125v385h130v-385h125v385h130v-385z" />
    <glyph glyph-name="afii10092" unicode="&#x44a;" horiz-adv-x="539" 
d="M235 229v-120c19 -4 38 -6 57 -6c64 0 92 21 92 68c0 43 -30 65 -89 65c-23 0 -43 -2 -60 -7zM-4 500h239v-178c32 5 67 7 94 7c139 0 189 -66 189 -155c0 -121 -66 -180 -237 -180c-76 0 -129 3 -176 6v385h-109v115z" />
    <glyph glyph-name="afii10093" unicode="&#x44b;" horiz-adv-x="703" 
d="M187 229v-120c20 -4 39 -6 57 -6c60 0 81 21 81 68c0 43 -22 65 -78 65c-22 0 -42 -2 -60 -7zM57 500h130v-178c32 5 66 7 93 7c135 0 179 -66 179 -155c0 -120 -60 -180 -227 -180c-76 0 -128 3 -175 6v500zM646 0h-130v500h130v-500z" />
    <glyph glyph-name="afii10094" unicode="&#x44c;" horiz-adv-x="490" 
d="M187 229v-120c20 -4 39 -6 57 -6c64 0 91 21 91 68c0 43 -29 65 -88 65c-22 0 -42 -2 -60 -7zM57 500h130v-178c32 5 66 7 93 7c139 0 189 -66 189 -155c0 -121 -65 -180 -237 -180c-76 0 -128 3 -175 6v500z" />
    <glyph glyph-name="afii10095" unicode="&#x44d;" horiz-adv-x="459" 
d="M296 207h-187v93h186c-7 67 -43 104 -116 104c-51 0 -89 -14 -118 -30l-35 94c44 31 103 46 178 46c149 0 222 -89 222 -264c0 -176 -88 -263 -232 -263c-63 0 -134 13 -171 35l32 102c31 -17 75 -28 118 -28c85 0 116 35 123 111z" />
    <glyph glyph-name="afii10096" unicode="&#x44e;" horiz-adv-x="734" 
d="M480 -13c-149 0 -206 82 -217 215h-76v-202h-130v500h130v-188h77c13 129 78 202 218 202c152 0 218 -106 218 -264c0 -169 -71 -263 -220 -263zM387 250c0 -97 24 -154 93 -154c61 0 86 39 86 154c0 103 -21 154 -89 154c-61 0 -90 -42 -90 -154z" />
    <glyph glyph-name="afii10097" unicode="&#x44f;" horiz-adv-x="503" 
d="M451 0h-130v189l-60 -12l-96 -177h-155l97 157l49 37c-65 11 -113 66 -113 143c0 121 79 177 246 177c64 0 121 -8 162 -16v-498zM285 255l36 2v138c-15 7 -33 9 -49 9c-60 0 -95 -25 -95 -76s37 -77 108 -73z" />
    <glyph glyph-name="afii10071" unicode="&#x451;" horiz-adv-x="508" 
d="M414 128l43 -85c-40 -32 -114 -56 -191 -56c-161 0 -233 99 -233 263c0 176 88 264 240 264c101 0 200 -47 200 -202c0 -28 -3 -60 -10 -95h-300c4 -84 40 -127 128 -127c55 0 100 21 123 38zM271 410c-68 0 -98 -44 -105 -112h186c5 72 -22 112 -81 112zM89 633
c0 43 28 70 71 70s69 -27 69 -70c0 -40 -26 -68 -69 -68s-71 28 -71 68zM308 633c0 43 26 70 69 70s71 -27 71 -70c0 -40 -28 -68 -71 -68s-69 28 -69 68z" />
    <glyph glyph-name="afii10099" unicode="&#x452;" horiz-adv-x="550" 
d="M62 420h-73v80h73v200h130v-200h161v-80h-161v-130h4c31 43 77 70 149 70c102 0 153 -47 153 -203v-177c0 -121 -46 -187 -151 -187c-20 0 -41 2 -64 7v109c5 0 10 -1 15 -1c57 0 70 34 70 92v130c0 81 -18 115 -78 115c-44 0 -87 -32 -98 -79v-166h-130v420z" />
    <glyph glyph-name="afii10100" unicode="&#x453;" horiz-adv-x="376" 
d="M238 566h-74l53 154h132v-30zM57 500h323v-115h-189v-385h-134v500z" />
    <glyph glyph-name="afii10101" unicode="&#x454;" horiz-adv-x="457" 
d="M405 130l30 -99c-40 -29 -105 -44 -165 -44c-160 0 -233 105 -233 263c0 168 94 264 238 264c72 0 117 -13 153 -32l-30 -106c-31 15 -64 23 -103 23c-63 0 -111 -30 -124 -102h196v-88h-197c12 -64 55 -108 132 -108c45 0 78 13 103 29z" />
    <glyph glyph-name="afii10102" unicode="&#x455;" horiz-adv-x="422" 
d="M264 138c0 81 -228 43 -228 224c0 99 60 152 171 152c76 0 140 -19 175 -39l-29 -94c-31 12 -81 29 -129 29c-39 0 -58 -15 -58 -45c0 -73 228 -41 228 -216c0 -101 -65 -162 -194 -162c-71 0 -136 20 -175 44l36 97c31 -17 86 -38 139 -38c39 0 64 13 64 48z" />
    <glyph glyph-name="afii10103" unicode="&#x456;" horiz-adv-x="269" 
d="M50 641c0 39 30 70 81 70s85 -31 85 -70s-34 -68 -85 -68s-81 29 -81 68zM199 0h-130v500h130v-500z" />
    <glyph glyph-name="afii10104" unicode="&#x457;" horiz-adv-x="318" 
d="M21 629c0 41 20 70 63 70s63 -29 63 -70c0 -40 -20 -69 -63 -69s-63 29 -63 69zM172 629c0 41 20 70 63 70s63 -29 63 -70c0 -40 -20 -69 -63 -69s-63 29 -63 69zM223 0h-130v500h130v-500z" />
    <glyph glyph-name="afii10105" unicode="&#x458;" horiz-adv-x="268" 
d="M52 641c0 39 30 70 81 70s85 -31 85 -70s-34 -68 -85 -68s-81 29 -81 68zM69 16v484h130v-520c0 -121 -46 -187 -151 -187c-20 0 -41 2 -63 7v109c5 0 9 -1 13 -1c59 0 71 41 71 108z" />
    <glyph glyph-name="afii10106" unicode="&#x459;" horiz-adv-x="783" 
d="M136 500h343v-178c32 5 66 7 93 7c139 0 189 -66 189 -155c0 -121 -65 -180 -237 -180c-76 0 -128 3 -175 6v385h-99c-16 -189 -35 -390 -165 -390c-39 0 -66 5 -82 14l16 108c11 -4 21 -6 30 -6c53 0 79 79 87 389zM539 236c-23 0 -43 -2 -60 -7v-121c19 -4 38 -5 57 -5
c64 0 91 21 91 68c0 43 -29 65 -88 65z" />
    <glyph glyph-name="afii10107" unicode="&#x45a;" horiz-adv-x="784" 
d="M350 500h130v-179c32 5 67 7 94 7c139 0 189 -66 189 -154c0 -121 -66 -180 -237 -180c-76 0 -129 3 -176 6v199h-163v-199h-130v500h130v-186h163v186zM480 228v-119c19 -4 38 -6 57 -6c64 0 92 21 92 68c0 43 -30 64 -89 64c-23 0 -43 -2 -60 -7z" />
    <glyph glyph-name="afii10108" unicode="&#x45b;" horiz-adv-x="550" 
d="M62 420h-73v80h73v200h130v-200h161v-80h-161v-130h4c31 43 77 70 149 70c102 0 153 -47 153 -203v-157h-130v130c0 81 -18 115 -78 115c-44 0 -87 -32 -98 -79v-166h-130v420z" />
    <glyph glyph-name="afii10109" unicode="&#x45c;" horiz-adv-x="489" 
d="M265 566h-74l53 154h132v-30zM493 0h-149l-122 207h-35v-207h-130v500h130v-213l31 14l117 199h139l-121 -190l-51 -38l56 -39z" />
    <glyph glyph-name="afii10110" unicode="&#x45e;" horiz-adv-x="478" 
d="M75 678l110 26c9 -52 31 -71 66 -71c37 0 59 19 67 70l99 -25c-16 -87 -85 -128 -169 -128s-157 36 -173 128zM-8 500h155l92 -281l18 -78h6l13 79l76 280h134l-152 -451c-50 -148 -89 -253 -182 -253c-35 0 -62 6 -83 17l24 104c10 -4 20 -6 30 -6c31 0 62 22 77 89z
" />
    <glyph glyph-name="afii10193" unicode="&#x45f;" horiz-adv-x="532" 
d="M224 -174l-20 174h-147v500h130v-385h158v385h130v-500h-148l-15 -174h-88z" />
    <glyph glyph-name="afii10146" unicode="&#x462;" horiz-adv-x="651" 
d="M142 533h-142v115h142v77h137v-77h200v-115h-200v-90c14 3 64 8 95 8c132 0 254 -44 254 -219c0 -160 -103 -241 -288 -241c-36 0 -135 1 -198 16v526zM347 112c76 0 137 28 137 114c0 92 -65 109 -137 109c-19 0 -57 -5 -68 -8v-209c15 -4 41 -6 68 -6z" />
    <glyph glyph-name="afii10194" unicode="&#x463;" horiz-adv-x="539" 
d="M105 407h-109v93h109v200h130v-200h160v-93h-160v-85c32 5 67 7 94 7c139 0 189 -66 189 -155c0 -121 -66 -180 -237 -180c-76 0 -129 3 -176 6v407zM235 229v-120c19 -4 38 -6 57 -6c64 0 92 21 92 68c0 43 -30 65 -89 65c-23 0 -43 -2 -60 -7z" />
    <glyph glyph-name="afii10147" unicode="&#x472;" horiz-adv-x="670" 
d="M38 350c0 233 106 364 297 364c201 0 297 -145 297 -364c0 -233 -108 -363 -297 -363c-203 0 -297 144 -297 363zM182 407h306c-11 119 -66 185 -153 185c-77 0 -142 -51 -153 -185zM488 296h-306c11 -125 69 -188 153 -188c77 0 145 45 153 188z" />
    <glyph glyph-name="afii10195" unicode="&#x473;" horiz-adv-x="537" 
d="M33 250c0 169 87 264 236 264c159 0 235 -106 235 -264c0 -169 -86 -263 -235 -263c-159 0 -236 105 -236 263zM167 289h203c-11 80 -45 115 -101 115c-50 0 -94 -30 -102 -115zM370 207h-203c8 -72 49 -111 102 -111c51 0 93 28 101 111z" />
    <glyph glyph-name="afii10148" unicode="&#x474;" horiz-adv-x="629" 
d="M525 510l-178 -514h-98l-261 704h158l140 -411l18 -119h4l16 120l69 229c43 144 87 190 183 190c51 0 79 -8 107 -23l-30 -116c-23 12 -41 15 -62 15c-31 0 -48 -22 -66 -75z" />
    <glyph glyph-name="afii10196" unicode="&#x475;" horiz-adv-x="527" 
d="M427 329l-138 -333h-79l-216 504h150l93 -262l17 -77h4l15 79l23 71c47 145 77 198 165 198c32 0 63 -6 82 -17l-18 -106c-12 6 -23 9 -34 9c-23 0 -43 -15 -64 -66z" />
    <glyph glyph-name="uni048A" unicode="&#x48a;" horiz-adv-x="712" 
d="M577 0h-109v388l8 91h-5l-47 -94l-261 -385h-103v700h137v-381l-10 -94h6l49 97l261 378h102v-585h117v-31l-96 -213h-94zM136 854l124 20c5 -43 33 -60 74 -60c45 0 69 20 74 59l111 -17c-15 -84 -77 -121 -186 -121c-107 0 -186 28 -197 119z" />
    <glyph glyph-name="uni048B" unicode="&#x48b;" horiz-adv-x="590" 
d="M450 0h-92v228l5 71h-3l-43 -73l-178 -226h-82v500h130v-238l-6 -68h4l41 71l180 235h82v-385h107v-31l-96 -213h-94zM109 678l110 26c9 -52 31 -71 66 -71c37 0 59 19 67 70l99 -25c-16 -87 -85 -128 -169 -128s-157 36 -173 128z" />
    <glyph glyph-name="uni048C" unicode="&#x48c;" horiz-adv-x="602" 
d="M93 609h-93v91h93v80h137v-80h135v-91h-135v-160c14 3 64 8 95 8c132 0 254 -46 254 -225c0 -160 -103 -241 -288 -241c-36 0 -135 1 -198 16v602zM298 112c76 0 137 28 137 114c0 92 -65 109 -137 109c-19 0 -57 -5 -68 -8v-209c15 -4 41 -6 68 -6z" />
    <glyph glyph-name="uni048D" unicode="&#x48d;" horiz-adv-x="511" 
d="M77 407h-109v93h109v200h130v-200h160v-93h-160v-85c32 5 67 7 94 7c139 0 189 -66 189 -155c0 -121 -66 -180 -237 -180c-76 0 -129 3 -176 6v407zM207 229v-120c19 -4 38 -6 57 -6c64 0 92 21 92 68c0 43 -30 65 -89 65c-23 0 -43 -2 -60 -7z" />
    <glyph glyph-name="uni048E" unicode="&#x48e;" horiz-adv-x="572" 
d="M197 0h-137v693c56 11 126 17 193 17c139 0 294 -36 294 -232c0 -92 -36 -153 -92 -192l64 -91l-79 -58l-77 109c-28 -6 -57 -9 -87 -9c-14 0 -64 1 -79 4v-241zM309 361l-58 83l52 34l63 -92c23 19 37 47 37 94c0 88 -70 112 -139 112c-27 0 -52 -2 -67 -5v-227
c11 -3 47 -4 59 -4c19 0 36 1 53 5z" />
    <glyph glyph-name="uni048F" unicode="&#x48f;" horiz-adv-x="540" 
d="M187 -199h-130v699h95l15 -60h4c35 51 80 74 148 74c125 0 188 -75 188 -251c0 -95 -23 -166 -70 -215l47 -55l-73 -61l-55 67c-24 -7 -50 -12 -78 -12c-41 0 -64 6 -91 18v-204zM298 101l-47 57l43 35l48 -60c20 28 31 70 31 133c0 88 -28 138 -93 138
c-51 0 -77 -25 -93 -76v-208c19 -15 38 -24 74 -24c13 0 26 1 37 5z" />
    <glyph glyph-name="afii10050" unicode="&#x490;" horiz-adv-x="458" 
d="M466 852v-152h1v-122h-270v-578h-137v700h298l21 152h87z" />
    <glyph glyph-name="afii10098" unicode="&#x491;" horiz-adv-x="376" 
d="M380 652v-267h-189v-385h-134v500h215l21 152h87z" />
    <glyph glyph-name="uni0492" unicode="&#x492;" horiz-adv-x="508" 
d="M96 700h407v-122h-270v-191h224v-93h-224v-294h-137v294h-96v93h96v313z" />
    <glyph glyph-name="uni0493" unicode="&#x493;" horiz-adv-x="414" 
d="M83 500h323v-115h-189v-111h162v-80h-162v-194h-134v194h-83v80h83v226z" />
    <glyph glyph-name="uni0494" unicode="&#x494;" horiz-adv-x="582" 
d="M197 257v-257h-137v700h407v-122h-270v-203c21 8 67 22 131 22c111 0 218 -52 218 -255c0 -171 -72 -268 -241 -268c-36 0 -51 1 -62 4v118c9 -3 35 -3 56 -3c68 0 103 44 103 143c0 109 -51 139 -119 139c-32 0 -70 -10 -86 -18z" />
    <glyph glyph-name="uni0495" unicode="&#x495;" horiz-adv-x="534" 
d="M187 147v-147h-130v500h318v-115h-188v-126c21 8 60 21 124 21c102 0 189 -51 189 -238c0 -168 -58 -254 -227 -254c-37 0 -52 2 -63 5v112c11 -1 36 -2 57 -2c65 0 98 44 98 131c0 95 -38 131 -98 131c-31 0 -64 -10 -80 -18z" />
    <glyph glyph-name="uni0496" unicode="&#x496;" horiz-adv-x="857" 
d="M311 401h39v299h130v-311l35 14l145 297h154l-163 -307l-47 -34l57 -42l113 -195h78v-246h-96l-15 124h-61l-161 304h-39v-304h-130v316l-36 -14l-161 -302h-159l182 307l54 39l-52 37l-171 317h159z" />
    <glyph glyph-name="uni0497" unicode="&#x497;" horiz-adv-x="727" 
d="M280 0v217l-38 -14l-102 -203h-145l130 229l34 30l-51 38l-103 203h139l93 -203h43v203h124v-213l38 14l94 199h138l-109 -203l-39 -32l51 -40l59 -110h84v-228h-95l-15 113h-61l-102 207h-43v-207h-124z" />
    <glyph glyph-name="uni0498" unicode="&#x498;" horiz-adv-x="526" 
d="M147 310h-27v107h24c24 0 73 0 96 6c47 11 85 37 85 84c0 64 -44 83 -111 83c-60 0 -116 -20 -143 -35l-35 116c29 16 114 41 199 41c117 0 234 -37 234 -175c0 -69 -35 -133 -116 -160v-5c87 -17 138 -75 138 -171c0 -130 -99 -195 -213 -210l-14 -165h-88l-19 164
c-60 7 -110 18 -139 33l35 119c31 -15 89 -34 168 -34c60 0 125 28 125 104c0 63 -40 93 -160 97c-16 0 -19 1 -39 1z" />
    <glyph glyph-name="uni0499" unicode="&#x499;" horiz-adv-x="432" 
d="M158 207h-49v91h61c47 0 80 21 80 52c0 36 -25 49 -80 49c-52 0 -94 -17 -118 -32l-28 100c40 23 110 42 185 42c115 0 171 -44 171 -125c0 -45 -25 -97 -78 -116v-4c71 -16 97 -56 97 -124s-44 -125 -140 -143l-14 -171h-88l-19 167c-51 5 -88 18 -116 34l28 101
c31 -17 76 -30 129 -30c60 0 90 19 90 58c0 35 -26 51 -111 51z" />
    <glyph glyph-name="uni049A" unicode="&#x49a;" horiz-adv-x="635" 
d="M517 0h-77l-207 299h-36v-299h-137v700h137v-310l32 14l193 296h156l-204 -294l-54 -38l56 -39l146 -207h106v-246h-96z" />
    <glyph glyph-name="uni049B" unicode="&#x49b;" horiz-adv-x="527" 
d="M409 0h-65l-122 207h-35v-207h-130v500h130v-213l31 14l117 199h139l-121 -190l-51 -38l56 -39l68 -118h93v-228h-95z" />
    <glyph glyph-name="uni049C" unicode="&#x49c;" horiz-adv-x="699" 
d="M344 172h-93v127h-54v-299h-137v700h137v-310l54 4v133h93v-125l22 2l162 296h148l-171 -294l-54 -38l56 -39l198 -329h-159l-176 299h-26v-127z" />
    <glyph glyph-name="uni049D" unicode="&#x49d;" horiz-adv-x="587" 
d="M305 89h-76v118h-43v-207h-129v500h129v-213l43 4v120h76v-112l22 2l92 199h136l-96 -190l-53 -38l56 -39l110 -233h-144l-97 207h-26v-118z" />
    <glyph glyph-name="uni049E" unicode="&#x49e;" horiz-adv-x="692" 
d="M132 539h-132v104h132v57h137v-57h93v-93h-93v-160l54 14l177 296h150l-188 -294l-64 -38l61 -39l222 -329h-169l-196 299h-47v-299h-137v539z" />
    <glyph glyph-name="uni049F" unicode="&#x49f;" horiz-adv-x="502" 
d="M68 546h-81v80h81v74h130v-74h153v-80h-153v-259l30 14l114 199h143l-120 -190l-51 -38l55 -39l135 -233h-149l-122 207h-35v-207h-130v546z" />
    <glyph glyph-name="uni04A0" unicode="&#x4a0;" horiz-adv-x="719" 
d="M159 0v561v17h-159v122h296v-310l32 14l193 296h156l-204 -294l-54 -38l56 -39l233 -329h-169l-207 299h-36v-299h-137z" />
    <glyph glyph-name="uni04A1" unicode="&#x4a1;" horiz-adv-x="540" 
d="M-4 500h239v-213l32 14l116 199h140l-121 -190l-52 -38l57 -39l134 -233h-149l-121 207h-36v-207h-130v385h-109v115z" />
    <glyph glyph-name="uni04A2" unicode="&#x4a2;" horiz-adv-x="696" 
d="M567 0h-114v293h-256v-293h-137v700h137v-285h256v285h137v-578h88v-246h-96z" />
    <glyph glyph-name="uni04A3" unicode="&#x4a3;" 
d="M448 0h-98v197h-163v-197h-130v500h130v-188h163v188h130v-385h78v-228h-95z" />
    <glyph glyph-name="uni04A4" unicode="&#x4a4;" horiz-adv-x="851" 
d="M453 700h407v-122h-270v-578h-137v293h-256v-293h-137v700h137v-285h256v285z" />
    <glyph glyph-name="uni04A5" unicode="&#x4a5;" horiz-adv-x="664" 
d="M350 500h318v-115h-188v-385h-130v197h-163v-197h-130v500h130v-188h163v188z" />
    <glyph glyph-name="uni04A6" unicode="&#x4a6;" horiz-adv-x="962" 
d="M579 257v-29v-228h-137v578h-245v-578h-137v700h519v-325c21 8 67 22 131 22c111 0 218 -52 218 -255c0 -171 -72 -268 -241 -268c-36 0 -51 1 -62 4v118c9 -3 35 -3 56 -3c68 0 103 44 103 143c0 109 -51 139 -120 139c-31 0 -69 -10 -85 -18z" />
    <glyph glyph-name="uni04A7" unicode="&#x4a7;" horiz-adv-x="822" 
d="M474 147l1 -147h-130v385h-158v-385h-130v500h418v-241c21 8 60 21 124 21c96 0 189 -51 189 -238c0 -168 -59 -254 -227 -254c-37 0 -52 2 -63 5v112c11 -1 36 -2 57 -2c65 0 98 44 98 131c0 95 -38 131 -98 131c-31 0 -65 -10 -81 -18z" />
    <glyph glyph-name="uni04A8" unicode="&#x4a8;" horiz-adv-x="876" 
d="M355 714v-122c-107 0 -173 -77 -173 -234c0 -155 102 -250 198 -250c15 0 33 1 44 6c-62 40 -111 135 -111 253c0 202 102 313 256 313c169 0 245 -122 245 -282c0 -150 -78 -256 -140 -288c7 -1 16 -2 24 -2c40 0 78 13 103 30l42 -107c-29 -29 -73 -44 -145 -44
c-53 0 -117 15 -151 47c-44 -31 -96 -47 -168 -47c-215 0 -341 136 -341 363c0 233 109 364 317 364zM457 371c0 -81 36 -171 104 -218c62 43 109 132 109 239c0 92 -25 166 -102 166c-68 0 -111 -60 -111 -187z" />
    <glyph glyph-name="uni04A9" unicode="&#x4a9;" horiz-adv-x="709" 
d="M272 514v-110c-75 -5 -106 -50 -106 -150c0 -96 55 -158 130 -158c11 0 30 2 39 9c-36 27 -67 87 -67 163c0 103 49 232 202 232c147 0 195 -97 195 -208c0 -91 -52 -169 -100 -198c29 -12 72 -4 97 20l30 -89c-27 -24 -62 -38 -121 -38c-55 0 -96 16 -124 41
c-43 -30 -98 -41 -157 -41c-165 0 -258 105 -258 263c0 154 67 256 240 264zM394 268c0 -60 25 -109 65 -141c43 28 72 86 72 158c0 60 -22 105 -65 105c-59 0 -72 -56 -72 -122z" />
    <glyph glyph-name="uni04AA" unicode="&#x4aa;" horiz-adv-x="559" 
d="M506 141l28 -112c-32 -23 -80 -34 -131 -39l-14 -164h-88l-19 168c-136 23 -244 129 -244 356c0 274 168 364 316 364c80 0 134 -12 170 -27l-27 -116c-31 15 -71 21 -131 21c-111 0 -184 -77 -184 -242c0 -144 65 -241 194 -241c60 0 99 13 130 32z" />
    <glyph glyph-name="uni04AB" unicode="&#x4ab;" horiz-adv-x="433" 
d="M381 130l30 -99c-25 -18 -57 -31 -94 -37l-14 -168h-88l-19 166c-120 20 -163 119 -163 258c0 169 78 264 223 264c73 0 113 -13 149 -32l-31 -106c-31 15 -58 23 -97 23c-72 0 -110 -45 -110 -149c0 -84 36 -149 117 -149c44 0 73 13 97 29z" />
    <glyph glyph-name="uni04AC" unicode="&#x4ac;" horiz-adv-x="568" 
d="M329 0h-113v578h-205v122h546v-122h-204v-456h87v-246h-96z" />
    <glyph glyph-name="uni04AD" unicode="&#x4ad;" horiz-adv-x="418" 
d="M252 0h-108v385h-143v115h416v-115h-139v-270h84v-228h-95z" />
    <glyph glyph-name="uni04AE" unicode="&#x4ae;" horiz-adv-x="592" 
d="M365 0h-137v260l-229 440h162l128 -263l14 -74h5l15 76l124 261h147l-229 -439v-261z" />
    <glyph glyph-name="uni04AF" unicode="&#x4af;" horiz-adv-x="491" 
d="M187 -199v199l-193 500h150l93 -297l18 -93h4l14 95l85 295h140l-181 -500v-199h-130z" />
    <glyph glyph-name="uni04B0" unicode="&#x4b0;" horiz-adv-x="592" 
d="M228 203h-155v91h137l-211 406h162l128 -263l14 -74h5l15 76l124 261h147l-212 -406h138v-91h-155v-203h-137v203z" />
    <glyph glyph-name="uni04B1" unicode="&#x4b1;" horiz-adv-x="491" 
d="M187 -79h-120v79h119l-192 500h150l93 -297l18 -93h4l14 95l85 295h140l-181 -500h120v-79h-120v-120h-130v120z" />
    <glyph glyph-name="uni04B2" unicode="&#x4b2;" horiz-adv-x="667" 
d="M159 0h-149l215 356l-195 344h165l108 -202l24 -71l23 71l113 202h149l-202 -337l140 -241h110v-246h-96l-15 124h-90l-123 216l-27 74l-26 -74z" />
    <glyph glyph-name="uni04B3" unicode="&#x4b3;" horiz-adv-x="542" 
d="M150 0h-142l162 256l-150 244h155l65 -107l28 -70l30 70l68 107h141l-151 -240l90 -145h89v-228h-95l-15 113h-59l-77 120l-30 74l-32 -74z" />
    <glyph glyph-name="uni04B4" unicode="&#x4b4;" horiz-adv-x="838" 
d="M730 122h90v-246h-97l-15 124h-493v578h-204v122h483v-122h-142v-456h241v578h137v-578z" />
    <glyph glyph-name="uni04B5" unicode="&#x4b5;" horiz-adv-x="649" 
d="M560 115h73v-228h-95l-15 113h-379v385h-143v115h378v-115h-105v-270h156v385h130v-385z" />
    <glyph glyph-name="uni04B6" unicode="&#x4b6;" horiz-adv-x="651" 
d="M522 0h-113v282c-35 -20 -93 -40 -173 -40c-111 0 -190 54 -190 193v265h137v-222c0 -80 29 -119 101 -119c51 0 98 11 125 34v307h137v-578h87v-246h-96z" />
    <glyph glyph-name="uni04B7" unicode="&#x4b7;" horiz-adv-x="546" 
d="M33 330v170h130v-114c0 -83 10 -119 69 -119c39 0 67 11 86 24v209h130v-385h84v-228h-95l-15 113h-104v196c-20 -15 -60 -38 -129 -38c-99 0 -156 39 -156 172z" />
    <glyph glyph-name="uni04B8" unicode="&#x4b8;" horiz-adv-x="645" 
d="M365 122h-93v121c-11 -1 -19 -1 -30 -1c-117 0 -196 54 -196 193v265h137v-222c0 -76 25 -114 89 -119v118h93v-112c33 7 63 15 82 28v307h137v-700h-137v282c-18 -11 -45 -20 -82 -28v-132z" />
    <glyph glyph-name="uni04B9" unicode="&#x4b9;" horiz-adv-x="536" 
d="M299 59h-76v100c-12 -1 -23 -1 -35 -1c-99 0 -156 39 -156 172v170h130v-114c0 -75 12 -111 61 -118v118h76v-113c23 4 40 10 51 18v209h130v-500h-130v196c-10 -7 -27 -15 -51 -22v-115z" />
    <glyph glyph-name="uni04BA" unicode="&#x4ba;" horiz-adv-x="606" 
d="M560 265v-265h-137v222c0 80 -29 119 -101 119c-51 0 -98 -11 -125 -34v-307h-137v700h137v-282c35 20 93 40 173 40c111 0 190 -54 190 -193z" />
    <glyph glyph-name="uni04BB" unicode="&#x4bb;" horiz-adv-x="545" 
d="M493 311v-311h-130v284c0 81 -19 115 -79 115c-44 0 -85 -33 -97 -80v-319h-130v700h130v-256h4c32 43 76 70 148 70c102 0 154 -47 154 -203z" />
    <glyph glyph-name="uni04BC" unicode="&#x4bc;" horiz-adv-x="794" 
d="M746 294h-403c8 -109 65 -186 190 -186c60 0 109 20 153 49l35 -116c-60 -35 -130 -54 -213 -54c-183 0 -291 104 -302 307h-32c-132 0 -174 73 -174 151c0 33 9 58 24 76h115c-16 -19 -20 -43 -20 -62c1 -21 11 -59 87 -51c11 184 108 306 283 306
c179 0 267 -104 267 -299c0 -37 -3 -77 -10 -121zM343 408h279c2 13 3 26 3 39c0 82 -40 153 -132 153c-97 0 -146 -68 -150 -192z" />
    <glyph glyph-name="uni04BD" unicode="&#x4bd;" horiz-adv-x="647" 
d="M553 128l43 -85c-40 -32 -114 -56 -191 -56c-147 0 -220 82 -232 221h-7c-103 0 -160 48 -160 136v7c0 36 10 53 29 76h109c-19 -16 -30 -37 -30 -69c0 -27 13 -48 62 -48c19 136 103 204 236 204c101 0 200 -47 200 -202c0 -28 -3 -60 -10 -95h-299
c4 -84 39 -127 127 -127c55 0 100 21 123 38zM410 410c-68 0 -96 -44 -103 -112h184c0 5 1 11 1 16c0 61 -27 96 -82 96z" />
    <glyph glyph-name="uni04BE" unicode="&#x4be;" horiz-adv-x="794" 
d="M746 294h-403c8 -109 65 -186 190 -186c60 0 109 20 153 49l35 -116c-49 -28 -103 -44 -166 -51l-14 -164h-88l-19 168c-139 24 -220 125 -228 300h-32c-132 0 -174 73 -174 151c0 33 9 58 24 76h115c-16 -19 -20 -43 -20 -62c1 -21 11 -59 87 -51
c11 184 108 306 283 306c179 0 267 -104 267 -299c0 -37 -3 -77 -10 -121zM343 408h279c2 13 3 26 3 39c0 82 -40 153 -132 153c-97 0 -146 -68 -150 -192z" />
    <glyph glyph-name="uni04BF" unicode="&#x4bf;" horiz-adv-x="647" 
d="M553 128l43 -85c-31 -24 -76 -43 -131 -51l-14 -166h-88l-19 167c-107 19 -160 96 -171 215h-7c-103 0 -160 48 -160 136v7c0 36 10 53 29 76h109c-19 -16 -30 -37 -30 -69c0 -27 13 -48 62 -48c19 136 103 204 236 204c101 0 200 -47 200 -202c0 -28 -3 -60 -10 -95
h-299c4 -84 39 -127 127 -127c55 0 100 21 123 38zM410 410c-68 0 -96 -44 -103 -112h184c0 5 1 11 1 16c0 61 -27 96 -82 96z" />
    <glyph glyph-name="uni04C0" unicode="&#x4c0;" horiz-adv-x="285" 
d="M211 0h-137v700h137v-700z" />
    <glyph glyph-name="uni04C3" unicode="&#x4c3;" horiz-adv-x="611" 
d="M424 76c0 132 -51 223 -191 223h-36v-299h-137v700h137v-310l32 14l193 296h156l-197 -280l-61 -40h52c128 -32 182 -112 182 -286v-27c0 -186 -81 -273 -209 -273c-19 0 -39 2 -60 6v111h15c84 0 124 49 124 165z" />
    <glyph glyph-name="uni04C4" unicode="&#x4c4;" horiz-adv-x="501" 
d="M338 27c0 116 -36 168 -116 175h-35v-202h-130v500h130v-217l31 14l117 203h139l-122 -197l-46 -32l41 -2c103 -29 121 -130 121 -224v-17c0 -163 -65 -236 -178 -236c-20 0 -42 2 -65 7v110c8 -1 16 -2 23 -2c60 0 90 40 90 120z" />
    <glyph glyph-name="uni04C5" unicode="&#x4c5;" horiz-adv-x="651" 
d="M516 0h-90v578h-149c-11 -253 -23 -414 -81 -507c-38 -61 -98 -77 -140 -77c-31 0 -49 5 -68 13l14 118c8 -3 16 -4 24 -4c21 0 42 11 58 35c39 59 61 221 66 544h413v-585h98v-31l-96 -213h-94z" />
    <glyph glyph-name="uni04C6" unicode="&#x4c6;" horiz-adv-x="550" 
d="M409 0h-80v385h-99c-16 -189 -35 -390 -165 -390c-39 0 -65 5 -81 14l16 108c10 -4 20 -6 29 -6c53 0 79 79 87 389h343v-385h95v-31l-96 -213h-94z" />
    <glyph glyph-name="uni04C7" unicode="&#x4c7;" horiz-adv-x="651" 
d="M453 700h137v-720c0 -121 -46 -187 -150 -187c-19 0 -41 2 -64 7v109c5 0 10 -1 15 -1c57 0 62 33 62 92v293h-256v-293h-137v700h137v-285h256v285z" />
    <glyph glyph-name="uni04C8" unicode="&#x4c8;" horiz-adv-x="537" 
d="M350 0v197h-163v-197h-130v500h130v-188h163v188h130v-520c0 -121 -46 -187 -151 -187c-20 0 -41 2 -64 7v109c5 0 10 -1 15 -1c57 0 70 34 70 92z" />
    <glyph glyph-name="uni04C9" unicode="&#x4c9;" horiz-adv-x="683" 
d="M548 0h-95v293h-256v-293h-137v700h137v-285h256v285h137v-585h103v-31l-96 -213h-94z" />
    <glyph glyph-name="uni04CA" unicode="&#x4ca;" horiz-adv-x="576" 
d="M436 0h-86v197h-163v-197h-130v500h130v-188h163v188h130v-385h101v-31l-96 -213h-94z" />
    <glyph glyph-name="uni04CB" unicode="&#x4cb;" horiz-adv-x="606" 
d="M46 435v265h137v-222c0 -80 29 -119 101 -119c51 0 98 11 125 34v307h137v-700h-112l-15 -124h-96v246h86v160c-35 -20 -93 -40 -173 -40c-111 0 -190 54 -190 193z" />
    <glyph glyph-name="uni04CC" unicode="&#x4cc;" horiz-adv-x="505" 
d="M218 98h100v109c-20 -15 -60 -33 -129 -33c-99 0 -156 47 -156 167v159h130v-103c0 -75 10 -113 69 -113c39 0 67 11 86 24v192h130v-500h-120l-15 -113h-95v211z" />
    <glyph glyph-name="uni04CD" unicode="&#x4cd;" horiz-adv-x="846" 
d="M711 0h-108v363l15 139h-6l-43 -112l-149 -261h-44l-157 262l-44 111h-5l20 -138v-364h-130v700h125l187 -320l33 -80h4l30 82l177 318h124v-585h116v-31l-96 -213h-94z" />
    <glyph glyph-name="uni04CE" unicode="&#x4ce;" horiz-adv-x="710" 
d="M570 0h-85v229l8 104h-5l-40 -86l-94 -155h-47l-103 155l-38 86h-6l13 -103v-230h-116v500h135l115 -188l28 -63h4l29 65l106 186h136v-385h105v-31l-96 -213h-94z" />
    <glyph glyph-name="uni04CF" unicode="&#x4cf;" horiz-adv-x="262" 
d="M196 0h-130v700h130v-700z" />
    <glyph glyph-name="uni04D0" unicode="&#x4d0;" horiz-adv-x="605" 
d="M105 854l124 20c5 -43 33 -60 74 -60c45 0 69 20 74 59l111 -17c-15 -84 -77 -121 -186 -121c-107 0 -186 28 -197 119zM605 0h-144l-56 155h-215l-53 -155h-137l252 705h101zM297 531l-21 -111l-51 -155h150l-52 156l-21 110h-5z" />
    <glyph glyph-name="uni04D1" unicode="&#x4d1;" horiz-adv-x="496" 
d="M77 678l110 26c9 -52 31 -71 66 -71c37 0 59 19 67 70l99 -25c-16 -87 -85 -128 -169 -128s-157 36 -173 128zM85 374l-31 97c53 24 130 39 210 39c140 0 180 -69 180 -175c0 -117 -21 -240 11 -335h-106l-21 68h-5c-27 -41 -72 -75 -147 -75c-92 0 -153 58 -153 145
c0 122 115 168 291 160c9 75 -6 105 -75 105c-52 0 -117 -12 -154 -29zM219 99c52 0 81 28 96 55v65c-83 8 -158 -9 -158 -61c0 -37 23 -59 62 -59z" />
    <glyph glyph-name="uni04D2" unicode="&#x4d2;" horiz-adv-x="605" 
d="M119 798c0 35 23 58 76 58c52 0 75 -23 75 -58s-23 -57 -75 -57c-53 0 -76 22 -76 57zM333 798c0 35 23 58 75 58c53 0 76 -23 76 -58s-23 -57 -76 -57c-52 0 -75 22 -75 57zM605 0h-144l-56 155h-215l-53 -155h-137l252 705h101zM297 531l-21 -111l-51 -155h150l-52 156
l-21 110h-5z" />
    <glyph glyph-name="uni04D3" unicode="&#x4d3;" horiz-adv-x="496" 
d="M85 374l-31 97c53 24 130 39 210 39c140 0 180 -69 180 -175c0 -117 -21 -240 11 -335h-106l-21 68h-5c-27 -41 -72 -75 -147 -75c-92 0 -153 58 -153 145c0 122 115 168 291 160c9 75 -6 105 -75 105c-52 0 -117 -12 -154 -29zM219 99c52 0 81 28 96 55v65
c-83 8 -158 -9 -158 -61c0 -37 23 -59 62 -59zM67 633c0 43 28 70 71 70s69 -27 69 -70c0 -40 -26 -68 -69 -68s-71 28 -71 68zM286 633c0 43 26 70 69 70s71 -27 71 -70c0 -40 -28 -68 -71 -68s-69 28 -69 68z" />
    <glyph glyph-name="uni04D4" unicode="&#x4d4;" horiz-adv-x="862" 
d="M400 281v251h-6l-36 -103l-84 -148h126zM819 0h-419v170h-186l-99 -170h-143l423 700h419v-122h-277v-163h252v-122h-252v-171h282v-122z" />
    <glyph glyph-name="uni04D5" unicode="&#x4d5;" horiz-adv-x="785" 
d="M219 99c52 0 81 28 96 55v65c-83 8 -158 -9 -158 -61c0 -37 23 -59 62 -59zM355 76h-5c-36 -45 -83 -83 -174 -83c-92 0 -153 58 -153 145c0 122 114 168 290 160c9 75 -5 105 -74 105c-52 0 -110 -16 -151 -36l-34 94c51 27 130 49 210 49c69 0 107 -18 134 -54
c33 37 89 58 152 58c101 0 200 -47 200 -202c0 -28 -3 -59 -10 -95h-301c5 -84 41 -127 129 -127c55 0 100 21 123 38l43 -85c-40 -32 -114 -56 -191 -56c-85 0 -152 32 -188 89zM548 410c-68 0 -98 -44 -105 -112h187c4 72 -22 112 -82 112z" />
    <glyph glyph-name="uni04D6" unicode="&#x4d6;" horiz-adv-x="522" 
d="M74 854l124 20c5 -43 33 -60 74 -60c45 0 69 20 74 59l111 -17c-15 -84 -77 -121 -186 -121c-107 0 -186 28 -197 119zM480 0h-420v700h415v-122h-278v-163h253v-122h-253v-171h283v-122z" />
    <glyph glyph-name="uni04D7" unicode="&#x4d7;" horiz-adv-x="508" 
d="M89 678l110 26c9 -52 31 -71 66 -71c37 0 59 19 67 70l99 -25c-16 -87 -85 -128 -169 -128s-157 36 -173 128zM414 128l43 -85c-40 -32 -114 -56 -191 -56c-161 0 -233 99 -233 263c0 176 88 264 240 264c101 0 200 -47 200 -202c0 -28 -3 -60 -10 -95h-300
c4 -84 40 -127 128 -127c55 0 100 21 123 38zM271 410c-68 0 -98 -44 -105 -112h186c5 72 -22 112 -81 112z" />
    <glyph glyph-name="uni04D8" unicode="&#x4d8;" horiz-adv-x="630" 
d="M454 296h-270c-2 -13 -3 -26 -3 -38c0 -82 38 -159 128 -159c93 0 145 68 145 197zM47 409h408c-8 116 -62 183 -182 183c-69 0 -124 -26 -155 -45l-29 117c40 24 125 50 207 50c185 0 296 -107 296 -364c0 -227 -86 -363 -289 -363c-181 0 -266 122 -266 303
c0 37 3 76 10 119z" />
    <glyph glyph-name="afii10846" unicode="&#x4d9;" horiz-adv-x="508" 
d="M96 369l-46 88c40 32 114 57 191 57c160 0 233 -106 233 -264c0 -169 -88 -263 -231 -263c-104 0 -209 53 -209 214c0 28 3 58 10 91h303c-7 83 -42 118 -130 118c-55 0 -98 -25 -121 -41zM242 90c67 0 101 52 102 121h-189c-7 -72 27 -121 87 -121z" />
    <glyph glyph-name="uni04DA" unicode="&#x4da;" horiz-adv-x="630" 
d="M127 798c0 35 23 58 76 58c52 0 75 -23 75 -58s-23 -57 -75 -57c-53 0 -76 22 -76 57zM341 798c0 35 23 58 75 58c53 0 76 -23 76 -58s-23 -57 -76 -57c-52 0 -75 22 -75 57zM454 296h-270c-2 -13 -3 -26 -3 -38c0 -82 38 -159 128 -159c93 0 145 68 145 197zM47 409h408
c-8 116 -62 183 -182 183c-69 0 -124 -26 -155 -45l-29 117c40 24 125 50 207 50c185 0 296 -107 296 -364c0 -227 -86 -363 -289 -363c-181 0 -266 122 -266 303c0 37 3 76 10 119z" />
    <glyph glyph-name="uni04DB" unicode="&#x4db;" horiz-adv-x="508" 
d="M64 633c0 43 28 70 71 70s69 -27 69 -70c0 -40 -26 -68 -69 -68s-71 28 -71 68zM283 633c0 43 26 70 69 70s71 -27 71 -70c0 -40 -28 -68 -71 -68s-69 28 -69 68zM96 369l-46 88c40 32 114 57 191 57c160 0 233 -106 233 -264c0 -169 -88 -263 -231 -263
c-104 0 -209 53 -209 214c0 28 3 58 10 91h303c-7 83 -42 118 -130 118c-55 0 -98 -25 -121 -41zM242 90c67 0 101 52 102 121h-189c-7 -72 27 -121 87 -121z" />
    <glyph glyph-name="uni04DC" unicode="&#x4dc;" horiz-adv-x="839" 
d="M235 798c0 35 23 58 76 58c52 0 75 -23 75 -58s-23 -57 -75 -57c-53 0 -76 22 -76 57zM449 798c0 35 23 58 75 58c53 0 76 -23 76 -58s-23 -57 -76 -57c-52 0 -75 22 -75 57zM311 401h39v299h130v-311l35 14l145 297h154l-163 -307l-47 -34l57 -42l184 -317h-165
l-161 304h-39v-304h-130v316l-36 -14l-161 -302h-159l182 307l54 39l-52 37l-171 317h159z" />
    <glyph glyph-name="uni04DD" unicode="&#x4dd;" horiz-adv-x="693" 
d="M165 633c0 43 28 70 71 70s69 -27 69 -70c0 -40 -26 -68 -69 -68s-71 28 -71 68zM384 633c0 43 26 70 69 70s71 -27 71 -70c0 -40 -28 -68 -71 -68s-69 28 -69 68zM280 0v217l-38 -14l-102 -203h-145l130 229l34 30l-51 38l-103 203h139l93 -203h43v203h124v-213l38 14
l94 199h138l-109 -203l-39 -32l51 -40l121 -225h-149l-102 207h-43v-207h-124z" />
    <glyph glyph-name="uni04DE" unicode="&#x4de;" horiz-adv-x="526" 
d="M59 798c0 35 23 58 76 58c52 0 75 -23 75 -58s-23 -57 -75 -57c-53 0 -76 22 -76 57zM273 798c0 35 23 58 75 58c53 0 76 -23 76 -58s-23 -57 -76 -57c-52 0 -75 22 -75 57zM147 310h-27v107h24c24 0 73 0 96 6c47 11 85 37 85 84c0 64 -44 83 -111 83
c-60 0 -116 -20 -143 -35l-35 116c29 16 114 41 199 41c117 0 234 -37 234 -175c0 -69 -35 -133 -116 -160v-5c87 -17 138 -75 138 -171c0 -151 -133 -214 -270 -214c-88 0 -164 16 -203 36l35 119c31 -15 89 -34 168 -34c60 0 125 28 125 104c0 63 -40 93 -160 97
c-16 0 -19 1 -39 1z" />
    <glyph glyph-name="uni04DF" unicode="&#x4df;" horiz-adv-x="432" 
d="M20 633c0 43 28 70 71 70s69 -27 69 -70c0 -40 -26 -68 -69 -68s-71 28 -71 68zM239 633c0 43 26 70 69 70s71 -27 71 -70c0 -40 -28 -68 -71 -68s-69 28 -69 68zM158 207h-49v91h61c47 0 80 20 80 51c0 36 -26 50 -81 50c-52 0 -93 -16 -117 -31l-28 99
c40 23 110 42 185 42c115 0 171 -44 171 -125c0 -45 -25 -97 -78 -116v-4c71 -16 97 -56 97 -124c0 -84 -68 -150 -214 -150c-73 0 -127 17 -163 37l28 101c31 -17 75 -29 128 -29c61 0 91 19 91 58c0 35 -26 50 -111 50z" />
    <glyph glyph-name="uni04E0" unicode="&#x4e0;" horiz-adv-x="548" 
d="M222 108c80 0 143 38 143 109c0 76 -60 103 -173 103h-81v58l156 174l45 43l-59 -12h-207v117h431v-75l-170 -188l-45 -32v-4l46 10c117 0 198 -66 198 -194c0 -143 -108 -230 -275 -230c-58 0 -151 12 -197 38l32 120c36 -21 104 -37 156 -37z" />
    <glyph glyph-name="uni04E1" unicode="&#x4e1;" horiz-adv-x="484" 
d="M191 -101c79 0 133 40 133 108c0 74 -53 111 -160 111h-64v53l117 177l54 49l-73 -7h-171v110h396v-70l-139 -185l-40 -29v-2l31 3c92 0 179 -74 179 -194c0 -146 -108 -234 -271 -234c-60 0 -122 13 -173 42l46 103c36 -19 78 -35 135 -35z" />
    <glyph glyph-name="uni04E2" unicode="&#x4e2;" horiz-adv-x="666" 
d="M509 767h-343v89h343v-89zM605 0h-137v388l8 91h-5l-47 -94l-261 -385h-103v700h137v-381l-10 -94h6l49 97l261 378h102v-700z" />
    <glyph glyph-name="uni04E3" unicode="&#x4e3;" horiz-adv-x="545" 
d="M437 566h-323v92h323v-92zM488 0h-130v228l5 71h-3l-43 -73l-178 -226h-82v500h130v-238l-6 -68h4l41 71l180 235h82v-500z" />
    <glyph glyph-name="uni04E4" unicode="&#x4e4;" horiz-adv-x="666" 
d="M150 798c0 35 23 58 76 58c52 0 75 -23 75 -58s-23 -57 -75 -57c-53 0 -76 22 -76 57zM364 798c0 35 23 58 75 58c53 0 76 -23 76 -58s-23 -57 -76 -57c-52 0 -75 22 -75 57zM605 0h-137v388l8 91h-5l-47 -94l-261 -385h-103v700h137v-381l-10 -94h6l49 97l261 378h102
v-700z" />
    <glyph glyph-name="uni04E5" unicode="&#x4e5;" horiz-adv-x="545" 
d="M103 633c0 43 28 70 71 70s69 -27 69 -70c0 -40 -26 -68 -69 -68s-71 28 -71 68zM322 633c0 43 26 70 69 70s71 -27 71 -70c0 -40 -28 -68 -71 -68s-69 28 -69 68zM488 0h-130v228l5 71h-3l-43 -73l-178 -226h-82v500h130v-238l-6 -68h4l41 71l180 235h82v-500z" />
    <glyph glyph-name="uni04E6" unicode="&#x4e6;" horiz-adv-x="670" 
d="M152 798c0 35 23 58 76 58c52 0 75 -23 75 -58s-23 -57 -75 -57c-53 0 -76 22 -76 57zM366 798c0 35 23 58 75 58c53 0 76 -23 76 -58s-23 -57 -76 -57c-52 0 -75 22 -75 57zM38 350c0 233 106 364 297 364c201 0 297 -145 297 -364c0 -233 -108 -363 -297 -363
c-203 0 -297 144 -297 363zM182 350c0 -141 46 -242 153 -242c97 0 153 71 153 242c0 136 -42 242 -153 242c-97 0 -153 -75 -153 -242z" />
    <glyph glyph-name="uni04E7" unicode="&#x4e7;" horiz-adv-x="537" 
d="M33 250c0 169 87 264 236 264c159 0 235 -106 235 -264c0 -169 -86 -263 -235 -263c-159 0 -236 105 -236 263zM167 250c0 -88 30 -154 102 -154c68 0 101 47 101 154c0 92 -28 154 -101 154c-64 0 -102 -45 -102 -154zM88 633c0 43 28 70 71 70s69 -27 69 -70
c0 -40 -26 -68 -69 -68s-71 28 -71 68zM307 633c0 43 26 70 69 70s71 -27 71 -70c0 -40 -28 -68 -71 -68s-69 28 -69 68z" />
    <glyph glyph-name="uni04E8" unicode="&#x4e8;" horiz-adv-x="670" 
d="M38 350c0 233 106 364 297 364c201 0 297 -145 297 -364c0 -233 -108 -363 -297 -363c-203 0 -297 144 -297 363zM182 407h306c-11 119 -66 185 -153 185c-77 0 -142 -51 -153 -185zM488 296h-306c11 -125 69 -188 153 -188c77 0 145 45 153 188z" />
    <glyph glyph-name="uni04E9" unicode="&#x4e9;" horiz-adv-x="537" 
d="M33 250c0 169 87 264 236 264c159 0 235 -106 235 -264c0 -169 -86 -263 -235 -263c-159 0 -236 105 -236 263zM167 289h203c-11 80 -45 115 -101 115c-50 0 -94 -30 -102 -115zM370 207h-203c8 -72 49 -111 102 -111c51 0 93 28 101 111z" />
    <glyph glyph-name="uni04EA" unicode="&#x4ea;" horiz-adv-x="670" 
d="M153 798c0 35 23 58 76 58c52 0 75 -23 75 -58s-23 -57 -75 -57c-53 0 -76 22 -76 57zM367 798c0 35 23 58 75 58c53 0 76 -23 76 -58s-23 -57 -76 -57c-52 0 -75 22 -75 57zM38 350c0 233 106 364 297 364c201 0 297 -145 297 -364c0 -233 -108 -363 -297 -363
c-203 0 -297 144 -297 363zM182 407h306c-11 119 -66 185 -153 185c-77 0 -142 -51 -153 -185zM488 296h-306c11 -125 69 -188 153 -188c77 0 145 45 153 188z" />
    <glyph glyph-name="uni04EB" unicode="&#x4eb;" horiz-adv-x="537" 
d="M90 633c0 43 28 70 71 70s69 -27 69 -70c0 -40 -26 -68 -69 -68s-71 28 -71 68zM309 633c0 43 26 70 69 70s71 -27 71 -70c0 -40 -28 -68 -71 -68s-69 28 -69 68zM33 250c0 169 87 264 236 264c159 0 235 -106 235 -264c0 -169 -86 -263 -235 -263
c-159 0 -236 105 -236 263zM167 289h203c-11 80 -45 115 -101 115c-50 0 -94 -30 -102 -115zM370 207h-203c8 -72 49 -111 102 -111c51 0 93 28 101 111z" />
    <glyph glyph-name="uni04EC" unicode="&#x4ec;" horiz-adv-x="574" 
d="M49 798c0 35 23 58 76 58c52 0 75 -23 75 -58s-23 -57 -75 -57c-53 0 -76 22 -76 57zM263 798c0 35 23 58 75 58c53 0 76 -23 76 -58s-23 -57 -76 -57c-52 0 -75 22 -75 57zM400 300h-270v110h269c-8 107 -71 182 -187 182c-72 0 -126 -18 -159 -37l-29 116
c47 24 124 43 193 43c184 0 319 -96 319 -364c0 -277 -162 -363 -338 -363c-76 0 -141 15 -178 32l36 119c31 -15 84 -30 152 -30c103 0 181 57 192 192z" />
    <glyph glyph-name="uni04ED" unicode="&#x4ed;" horiz-adv-x="459" 
d="M25 633c0 43 28 70 71 70s69 -27 69 -70c0 -40 -26 -68 -69 -68s-71 28 -71 68zM244 633c0 43 26 70 69 70s71 -27 71 -70c0 -40 -28 -68 -71 -68s-69 28 -69 68zM296 207h-187v93h186c-7 67 -43 104 -116 104c-51 0 -89 -14 -118 -30l-35 94c44 31 103 46 178 46
c149 0 222 -89 222 -264c0 -176 -88 -263 -232 -263c-63 0 -134 13 -171 35l32 102c31 -17 75 -28 118 -28c85 0 116 35 123 111z" />
    <glyph glyph-name="uni04EE" unicode="&#x4ee;" horiz-adv-x="568" 
d="M469 767h-343v89h343v-89zM-8 700h160l142 -309l20 -91h6l16 94l105 306h141l-186 -484c-58 -152 -103 -222 -207 -222c-44 0 -66 4 -98 23l35 111c23 -12 40 -13 61 -13c31 0 53 25 66 74z" />
    <glyph glyph-name="uni04EF" unicode="&#x4ef;" horiz-adv-x="478" 
d="M-8 500h155l92 -281l18 -78h6l13 79l76 280h134l-152 -451c-50 -148 -89 -253 -182 -253c-35 0 -62 6 -83 17l24 104c10 -4 20 -6 30 -6c31 0 62 22 77 89zM409 566h-323v92h323v-92z" />
    <glyph glyph-name="uni04F0" unicode="&#x4f0;" horiz-adv-x="568" 
d="M123 798c0 35 23 58 76 58c52 0 75 -23 75 -58s-23 -57 -75 -57c-53 0 -76 22 -76 57zM337 798c0 35 23 58 75 58c53 0 76 -23 76 -58s-23 -57 -76 -57c-52 0 -75 22 -75 57zM-8 700h160l142 -309l20 -91h6l16 94l105 306h141l-186 -484c-58 -152 -103 -222 -207 -222
c-44 0 -66 4 -98 23l35 111c23 -12 40 -13 61 -13c31 0 53 25 66 74z" />
    <glyph glyph-name="uni04F1" unicode="&#x4f1;" horiz-adv-x="478" 
d="M-8 500h155l92 -281l18 -78h6l13 79l76 280h134l-152 -451c-50 -148 -89 -253 -182 -253c-35 0 -62 6 -83 17l24 104c10 -4 20 -6 30 -6c31 0 62 22 77 89zM72 633c0 43 28 70 71 70s69 -27 69 -70c0 -40 -26 -68 -69 -68s-71 28 -71 68zM291 633c0 43 26 70 69 70
s71 -27 71 -70c0 -40 -28 -68 -71 -68s-69 28 -69 68z" />
    <glyph glyph-name="uni04F2" unicode="&#x4f2;" horiz-adv-x="568" 
d="M236 741h-93l59 109h134v-16zM397 741h-94l97 109h140v-16zM-8 700h160l142 -309l20 -91h6l16 94l105 306h141l-186 -484c-58 -152 -103 -222 -207 -222c-44 0 -66 4 -98 23l35 111c23 -12 40 -13 61 -13c31 0 53 25 66 74z" />
    <glyph glyph-name="uni04F3" unicode="&#x4f3;" horiz-adv-x="478" 
d="M-8 500h155l92 -281l18 -78h6l13 79l76 280h134l-152 -451c-50 -148 -89 -253 -182 -253c-35 0 -62 6 -83 17l24 104c10 -4 20 -6 30 -6c31 0 62 22 77 89zM204 571h-78l35 129h119v-16zM347 571h-81l73 129h126v-16z" />
    <glyph glyph-name="uni04F4" unicode="&#x4f4;" horiz-adv-x="606" 
d="M121 798c0 35 23 58 76 58c52 0 75 -23 75 -58s-23 -57 -75 -57c-53 0 -76 22 -76 57zM335 798c0 35 23 58 75 58c53 0 76 -23 76 -58s-23 -57 -76 -57c-52 0 -75 22 -75 57zM46 435v265h137v-222c0 -80 29 -119 101 -119c51 0 98 11 125 34v307h137v-700h-137v282
c-35 -20 -93 -40 -173 -40c-111 0 -190 54 -190 193z" />
    <glyph glyph-name="uni04F5" unicode="&#x4f5;" horiz-adv-x="505" 
d="M60 633c0 43 28 70 71 70s69 -27 69 -70c0 -40 -26 -68 -69 -68s-71 28 -71 68zM279 633c0 43 26 70 69 70s71 -27 71 -70c0 -40 -28 -68 -71 -68s-69 28 -69 68zM33 330v170h130v-114c0 -83 10 -119 69 -119c39 0 67 11 86 24v209h130v-500h-130v196
c-20 -15 -60 -38 -129 -38c-99 0 -156 39 -156 172z" />
    <glyph glyph-name="uni04F6" unicode="&#x4f6;" horiz-adv-x="458" 
d="M60 700h407v-122h-270v-456h88v-246h-96l-15 124h-114v700z" />
    <glyph glyph-name="uni04F7" unicode="&#x4f7;" horiz-adv-x="376" 
d="M171 0h-114v500h323v-115h-189v-270h90v-228h-95z" />
    <glyph glyph-name="uni04F8" unicode="&#x4f8;" horiz-adv-x="798" 
d="M212 798c0 35 23 58 76 58c52 0 75 -23 75 -58s-23 -57 -75 -57c-53 0 -76 22 -76 57zM426 798c0 35 23 58 75 58c53 0 76 -23 76 -58s-23 -57 -76 -57c-52 0 -75 22 -75 57zM737 0h-137v700h137v-700zM60 7v693h137v-251c15 3 51 8 82 8c134 0 249 -47 249 -224
c0 -163 -95 -242 -282 -242c-36 0 -125 1 -186 16zM256 112c76 0 128 32 128 115c0 88 -56 108 -127 108c-19 0 -49 -4 -60 -8v-209c15 -4 36 -6 59 -6z" />
    <glyph glyph-name="uni04F9" unicode="&#x4f9;" horiz-adv-x="703" 
d="M164 633c0 43 28 70 71 70s69 -27 69 -70c0 -40 -26 -68 -69 -68s-71 28 -71 68zM383 633c0 43 26 70 69 70s71 -27 71 -70c0 -40 -28 -68 -71 -68s-69 28 -69 68zM187 229v-120c20 -4 39 -6 57 -6c60 0 81 21 81 68c0 43 -22 65 -78 65c-22 0 -42 -2 -60 -7zM57 500h130
v-178c32 5 66 7 93 7c135 0 179 -66 179 -155c0 -120 -60 -180 -227 -180c-76 0 -128 3 -175 6v500zM646 0h-130v500h130v-500z" />
    <glyph glyph-name="uni04FC" unicode="&#x4fc;" horiz-adv-x="633" 
d="M452 -20c0 44 -25 89 -44 120l-71 116l-28 74l-26 -74l-124 -216h-149l215 356l-195 344h165l108 -202l24 -71l23 71l113 202h149l-202 -337l130 -213c32 -53 53 -113 53 -169c0 -121 -54 -187 -162 -187c-20 0 -42 2 -65 7v109c5 0 10 -1 15 -1c57 0 71 32 71 71z" />
    <glyph glyph-name="uni04FD" unicode="&#x4fd;" horiz-adv-x="525" 
d="M507 500l-151 -240l87 -132c29 -43 52 -104 52 -152c0 -117 -49 -183 -156 -183c-21 0 -42 2 -65 7v104c7 -1 12 -1 19 -1c56 0 73 26 72 66c0 35 -20 72 -39 100l-34 51l-34 72l-31 -72l-77 -120h-142l162 256l-150 244h155l65 -107l28 -70l30 70l68 107h141z" />
    <glyph glyph-name="uni0510" unicode="&#x510;" horiz-adv-x="526" 
d="M411 417v-107h-27c-20 0 -23 -1 -39 -1c-117 -4 -161 -39 -161 -100c0 -69 59 -101 130 -101c68 0 126 21 157 36l37 -108c-36 -23 -119 -49 -205 -49c-160 0 -263 64 -263 208c0 97 49 158 136 175v5c-77 29 -114 93 -114 162c0 129 113 175 241 175
c78 0 161 -24 191 -43l-36 -109c-33 15 -89 30 -137 30c-73 0 -115 -22 -115 -78c0 -52 45 -81 92 -89c23 -7 65 -6 89 -6h24z" />
    <glyph glyph-name="uni0511" unicode="&#x511;" horiz-adv-x="432" 
d="M323 298v-91h-49c-86 0 -111 -16 -111 -51s30 -57 90 -57c53 0 98 13 129 32l28 -101c-35 -20 -90 -40 -163 -40c-147 0 -214 62 -214 150c0 68 30 105 97 124v4c-53 19 -78 65 -78 112c0 85 66 129 171 129c83 0 145 -19 185 -42l-28 -99c-24 15 -66 31 -118 31
c-55 0 -80 -13 -80 -49c0 -31 33 -52 80 -52h61z" />
    <glyph glyph-name="uni0512" unicode="&#x512;" horiz-adv-x="634" 
d="M161 700h413v-720c0 -121 -46 -187 -150 -187c-19 0 -41 2 -64 7v109c7 0 11 -1 16 -1c55 0 61 32 61 92v578h-149c-11 -254 -26 -414 -84 -507c-38 -62 -93 -77 -137 -77c-31 0 -60 6 -79 14l21 117c9 -3 18 -5 27 -5c20 0 41 10 59 36c39 59 61 221 66 544z" />
    <glyph glyph-name="uni0513" unicode="&#x513;" horiz-adv-x="515" 
d="M329 0v385h-99c-16 -189 -35 -390 -165 -390c-39 0 -65 5 -81 14l16 108c10 -4 20 -6 29 -6c53 0 79 79 87 389h343v-520c0 -121 -46 -187 -151 -187c-20 0 -41 2 -64 7v109c5 0 10 -1 15 -1c57 0 70 34 70 92z" />
    <glyph glyph-name="uni051C" unicode="&#x51c;" horiz-adv-x="862" 
d="M0 700h149l93 -391l13 -124h4l14 126l122 389h90l120 -391l14 -124h4l15 126l85 389h139l-193 -704h-92l-125 388l-17 107h-5l-17 -108l-124 -387h-97z" />
    <glyph glyph-name="uni051D" unicode="&#x51d;" horiz-adv-x="721" 
d="M240 250l83 250h96l91 -256l18 -83h4l14 84l64 255h119l-154 -504h-96l-101 279l-13 63h-5l-12 -64l-96 -278h-99l-160 504h140l73 -251l12 -89h5z" />
    <glyph glyph-name="uni0524" unicode="&#x524;" horiz-adv-x="684" 
d="M555 0h-113v578h-245v-578h-137v700h519v-578h87v-246h-96z" />
    <glyph glyph-name="uni0525" unicode="&#x525;" horiz-adv-x="574" 
d="M448 0h-103v385h-158v-385h-130v500h418v-385h83v-228h-95z" />
    <glyph glyph-name="uni0526" unicode="&#x526;" horiz-adv-x="661" 
d="M537 0h-114v222c0 80 -29 119 -101 119c-51 0 -98 -11 -125 -34v-307h-137v700h137v-282c35 20 93 40 173 40c111 0 190 -54 190 -193v-143h88v-246h-96z" />
    <glyph glyph-name="uni0527" unicode="&#x527;" horiz-adv-x="590" 
d="M493 311v-196h80v-228h-95l-15 113h-100v284c0 81 -19 115 -79 115c-44 0 -85 -33 -97 -80v-319h-130v700h130v-256h4c32 43 76 70 148 70c102 0 154 -47 154 -203z" />
    <glyph glyph-name="uni1E30" unicode="&#x1e30;" horiz-adv-x="620" 
d="M309 752h-103l104 118h159v-30zM609 0h-169l-207 299h-36v-299h-137v700h137v-310l32 14l193 296h156l-204 -294l-54 -38l56 -39z" />
    <glyph glyph-name="uni1E31" unicode="&#x1e31;" horiz-adv-x="491" 
d="M493 0h-149l-122 207h-35v-207h-130v700h130v-413l30 14l114 199h143l-120 -190l-51 -38l55 -39zM320 566h-74l53 154h132v-30z" />
    <glyph glyph-name="uni1E3E" unicode="&#x1e3e;" horiz-adv-x="800" 
d="M421 752h-103l104 118h159v-30zM740 0h-137v363l15 139h-6l-43 -112l-149 -261h-44l-157 262l-44 111h-5l20 -138v-364h-130v700h125l187 -320l33 -80h4l30 82l177 318h124v-700z" />
    <glyph glyph-name="uni1E3F" unicode="&#x1e3f;" horiz-adv-x="805" 
d="M471 328v-328h-130v272c0 92 -12 127 -67 127c-45 0 -72 -27 -87 -66v-333h-130v500h101l15 -66h4c31 43 75 80 150 80c64 0 103 -24 126 -85c31 52 78 85 146 85c111 0 156 -47 156 -214v-300h-130v281c0 79 -11 118 -68 118c-47 0 -73 -27 -86 -71zM420 566h-74l53 154
h132v-30z" />
    <glyph glyph-name="uni1E54" unicode="&#x1e54;" horiz-adv-x="572" 
d="M291 752h-103l104 118h159v-30zM197 0h-137v693c56 11 126 17 193 17c139 0 294 -36 294 -232c0 -175 -133 -241 -271 -241c-14 0 -64 1 -79 4v-241zM264 592c-27 0 -52 -2 -67 -5v-227c11 -3 47 -4 59 -4c73 0 147 21 147 124c0 88 -70 112 -139 112z" />
    <glyph glyph-name="uni1E55" unicode="&#x1e55;" horiz-adv-x="540" 
d="M187 -199h-130v699h95l15 -60h4c35 51 80 74 148 74c125 0 188 -75 188 -251c0 -172 -82 -276 -229 -276c-41 0 -64 6 -91 18v-204zM280 404c-51 0 -77 -25 -93 -76v-208c19 -15 38 -24 74 -24c75 0 112 49 112 170c0 88 -28 138 -93 138zM285 566h-74l53 154h132v-30z
" />
    <glyph glyph-name="uni1E9E" unicode="&#x1e9e;" horiz-adv-x="672" 
d="M285 320v83l134 167c-24 21 -67 34 -116 34c-93 0 -106 -70 -106 -171v-433h-137v478c0 151 67 235 244 235c137 0 210 -44 282 -97l-135 -179l-35 -29v-5l35 8c108 -8 178 -74 178 -194c0 -144 -84 -230 -241 -230c-38 0 -114 13 -141 26l27 114c27 -13 78 -19 106 -19
c67 0 105 38 105 107c0 73 -49 105 -150 105h-50z" />
    <glyph glyph-name="uni2011" unicode="&#x2011;" horiz-adv-x="360" 
d="M305 230h-251v115h251v-115z" />
    <glyph glyph-name="uni2081" unicode="&#x2081;" horiz-adv-x="412" 
d="M372 -99h-300v99h98v164l10 46l-31 -32l-59 -39l-49 77l158 111h86v-327h87v-99z" />
    <glyph glyph-name="uni2082" unicode="&#x2082;" horiz-adv-x="412" 
d="M348 200c0 -79 -46 -130 -102 -181l-47 -24v-4l59 10h106v-100h-313v71c70 47 182 132 182 204c0 33 -19 49 -56 49c-36 0 -69 -13 -93 -28l-34 90c47 28 102 40 150 40c95 0 148 -44 148 -127z" />
    <glyph glyph-name="uni2083" unicode="&#x2083;" horiz-adv-x="412" 
d="M168 -11c60 0 83 19 83 50s-22 49 -90 49h-43v38l73 80l43 25l-58 -6h-115v95h284v-62l-88 -92l-34 -18v-5l30 3c71 -3 114 -43 113 -115c-1 -95 -83 -137 -181 -137c-51 0 -97 9 -129 24l23 89c27 -12 57 -18 89 -18z" />
    <glyph glyph-name="uni2084" unicode="&#x2084;" horiz-adv-x="412" 
d="M327 67h75v-88h-75v-78h-102v78h-207v66l218 283h91v-261zM172 67h53v86l6 53h-5l-22 -49l-48 -66l-36 -32z" />
    <glyph glyph-name="uni20B4" unicode="&#x20b4;" 
d="M45 228v93h450v-93h-249c-19 -19 -35 -53 -35 -80c0 -35 26 -57 98 -57c71 0 109 15 138 31l29 -98c-33 -19 -88 -37 -197 -37c-125 0 -194 47 -194 143c0 44 23 83 33 98h-73zM495 471v-93h-450v93h250c20 19 37 53 37 82c0 37 -27 56 -80 56s-89 -13 -121 -29l-37 98
c44 22 79 36 183 36c117 0 180 -43 180 -134c0 -43 -20 -88 -40 -109h78z" />
    <glyph glyph-name="uni20B6" unicode="&#x20b6;" 
d="M102 273h-79v91h79v329c56 11 115 17 182 17c140 0 263 -40 263 -216c0 -163 -126 -224 -251 -224c-19 0 -53 0 -68 3v-58h160v-91h-160v-124h-126v124h-79v91h79v58zM295 600c-27 0 -52 -2 -67 -5v-226c11 -3 41 -5 52 -5c73 0 133 36 133 124c0 81 -49 112 -118 112z
" />
    <glyph glyph-name="uni20B7" unicode="&#x20b7;" 
d="M102 273h-79v91h79v329c56 11 115 17 182 17c140 0 263 -40 263 -216c0 -163 -126 -224 -251 -224c-19 0 -53 0 -68 3v-58h160v-91h-160v-124h-126v124h-79v91h79v58zM295 600c-27 0 -52 -2 -67 -5v-226c11 -3 41 -5 52 -5c73 0 133 36 133 124c0 81 -49 112 -118 112z
" />
    <glyph glyph-name="uni20B9" unicode="&#x20b9;" 
d="M102 273h-79v91h79v329c56 11 115 17 182 17c140 0 263 -40 263 -216c0 -163 -126 -224 -251 -224c-19 0 -53 0 -68 3v-58h160v-91h-160v-124h-126v124h-79v91h79v58zM295 600c-27 0 -52 -2 -67 -5v-226c11 -3 41 -5 52 -5c73 0 133 36 133 124c0 81 -49 112 -118 112z
" />
    <glyph glyph-name="uni20BA" unicode="&#x20ba;" 
d="M102 273h-79v91h79v329c56 11 115 17 182 17c140 0 263 -40 263 -216c0 -163 -126 -224 -251 -224c-19 0 -53 0 -68 3v-58h160v-91h-160v-124h-126v124h-79v91h79v58zM295 600c-27 0 -52 -2 -67 -5v-226c11 -3 41 -5 52 -5c73 0 133 36 133 124c0 81 -49 112 -118 112z
" />
    <glyph glyph-name="uni20BB" unicode="&#x20bb;" 
d="M102 273h-79v91h79v329c56 11 115 17 182 17c140 0 263 -40 263 -216c0 -163 -126 -224 -251 -224c-19 0 -53 0 -68 3v-58h160v-91h-160v-124h-126v124h-79v91h79v58zM295 600c-27 0 -52 -2 -67 -5v-226c11 -3 41 -5 52 -5c73 0 133 36 133 124c0 81 -49 112 -118 112z
" />
    <glyph glyph-name="uni20BC" unicode="&#x20bc;" 
d="M102 273h-79v91h79v329c56 11 115 17 182 17c140 0 263 -40 263 -216c0 -163 -126 -224 -251 -224c-19 0 -53 0 -68 3v-58h160v-91h-160v-124h-126v124h-79v91h79v58zM295 600c-27 0 -52 -2 -67 -5v-226c11 -3 41 -5 52 -5c73 0 133 36 133 124c0 81 -49 112 -118 112z
" />
    <glyph glyph-name="uni20BD" unicode="&#x20bd;" 
d="M102 273h-79v91h79v329c56 11 115 17 182 17c140 0 263 -40 263 -216c0 -163 -126 -224 -251 -224c-19 0 -53 0 -68 3v-58h160v-91h-160v-124h-126v124h-79v91h79v58zM295 600c-27 0 -52 -2 -67 -5v-226c11 -3 41 -5 52 -5c73 0 133 36 133 124c0 81 -49 112 -118 112z
" />
    <glyph glyph-name="uni20BE" unicode="&#x20be;" 
d="M102 273h-79v91h79v329c56 11 115 17 182 17c140 0 263 -40 263 -216c0 -163 -126 -224 -251 -224c-19 0 -53 0 -68 3v-58h160v-91h-160v-124h-126v124h-79v91h79v58zM295 600c-27 0 -52 -2 -67 -5v-226c11 -3 41 -5 52 -5c73 0 133 36 133 124c0 81 -49 112 -118 112z
" />
    <glyph glyph-name="uni20BF" unicode="&#x20bf;" 
d="M102 273h-79v91h79v329c56 11 115 17 182 17c140 0 263 -40 263 -216c0 -163 -126 -224 -251 -224c-19 0 -53 0 -68 3v-58h160v-91h-160v-124h-126v124h-79v91h79v58zM295 600c-27 0 -52 -2 -67 -5v-226c11 -3 41 -5 52 -5c73 0 133 36 133 124c0 81 -49 112 -118 112z
" />
    <glyph glyph-name="uni20C0" unicode="&#x20c0;" 
d="M102 273h-79v91h79v329c56 11 115 17 182 17c140 0 263 -40 263 -216c0 -163 -126 -224 -251 -224c-19 0 -53 0 -68 3v-58h160v-91h-160v-124h-126v124h-79v91h79v58zM295 600c-27 0 -52 -2 -67 -5v-226c11 -3 41 -5 52 -5c73 0 133 36 133 124c0 81 -49 112 -118 112z
" />
    <glyph glyph-name="uni20C1" unicode="&#x20c1;" 
d="M102 273h-79v91h79v329c56 11 115 17 182 17c140 0 263 -40 263 -216c0 -163 -126 -224 -251 -224c-19 0 -53 0 -68 3v-58h160v-91h-160v-124h-126v124h-79v91h79v58zM295 600c-27 0 -52 -2 -67 -5v-226c11 -3 41 -5 52 -5c73 0 133 36 133 124c0 81 -49 112 -118 112z
" />
    <glyph glyph-name="uni20C2" unicode="&#x20c2;" 
d="M102 273h-79v91h79v329c56 11 115 17 182 17c140 0 263 -40 263 -216c0 -163 -126 -224 -251 -224c-19 0 -53 0 -68 3v-58h160v-91h-160v-124h-126v124h-79v91h79v58zM295 600c-27 0 -52 -2 -67 -5v-226c11 -3 41 -5 52 -5c73 0 133 36 133 124c0 81 -49 112 -118 112z
" />
    <glyph glyph-name="uni20C3" unicode="&#x20c3;" 
d="M102 273h-79v91h79v329c56 11 115 17 182 17c140 0 263 -40 263 -216c0 -163 -126 -224 -251 -224c-19 0 -53 0 -68 3v-58h160v-91h-160v-124h-126v124h-79v91h79v58zM295 600c-27 0 -52 -2 -67 -5v-226c11 -3 41 -5 52 -5c73 0 133 36 133 124c0 81 -49 112 -118 112z
" />
    <glyph glyph-name="uni20C4" unicode="&#x20c4;" 
d="M102 273h-79v91h79v329c56 11 115 17 182 17c140 0 263 -40 263 -216c0 -163 -126 -224 -251 -224c-19 0 -53 0 -68 3v-58h160v-91h-160v-124h-126v124h-79v91h79v58zM295 600c-27 0 -52 -2 -67 -5v-226c11 -3 41 -5 52 -5c73 0 133 36 133 124c0 81 -49 112 -118 112z
" />
    <glyph glyph-name="uni20C5" unicode="&#x20c5;" 
d="M102 273h-79v91h79v329c56 11 115 17 182 17c140 0 263 -40 263 -216c0 -163 -126 -224 -251 -224c-19 0 -53 0 -68 3v-58h160v-91h-160v-124h-126v124h-79v91h79v58zM295 600c-27 0 -52 -2 -67 -5v-226c11 -3 41 -5 52 -5c73 0 133 36 133 124c0 81 -49 112 -118 112z
" />
    <glyph glyph-name="uni20C6" unicode="&#x20c6;" 
d="M102 273h-79v91h79v329c56 11 115 17 182 17c140 0 263 -40 263 -216c0 -163 -126 -224 -251 -224c-19 0 -53 0 -68 3v-58h160v-91h-160v-124h-126v124h-79v91h79v58zM295 600c-27 0 -52 -2 -67 -5v-226c11 -3 41 -5 52 -5c73 0 133 36 133 124c0 81 -49 112 -118 112z
" />
    <glyph glyph-name="uni20C7" unicode="&#x20c7;" 
d="M102 273h-79v91h79v329c56 11 115 17 182 17c140 0 263 -40 263 -216c0 -163 -126 -224 -251 -224c-19 0 -53 0 -68 3v-58h160v-91h-160v-124h-126v124h-79v91h79v58zM295 600c-27 0 -52 -2 -67 -5v-226c11 -3 41 -5 52 -5c73 0 133 36 133 124c0 81 -49 112 -118 112z
" />
    <glyph glyph-name="uni20C8" unicode="&#x20c8;" 
d="M102 273h-79v91h79v329c56 11 115 17 182 17c140 0 263 -40 263 -216c0 -163 -126 -224 -251 -224c-19 0 -53 0 -68 3v-58h160v-91h-160v-124h-126v124h-79v91h79v58zM295 600c-27 0 -52 -2 -67 -5v-226c11 -3 41 -5 52 -5c73 0 133 36 133 124c0 81 -49 112 -118 112z
" />
    <glyph glyph-name="uni20C9" unicode="&#x20c9;" 
d="M102 273h-79v91h79v329c56 11 115 17 182 17c140 0 263 -40 263 -216c0 -163 -126 -224 -251 -224c-19 0 -53 0 -68 3v-58h160v-91h-160v-124h-126v124h-79v91h79v58zM295 600c-27 0 -52 -2 -67 -5v-226c11 -3 41 -5 52 -5c73 0 133 36 133 124c0 81 -49 112 -118 112z
" />
    <glyph glyph-name="uni20CA" unicode="&#x20ca;" 
d="M102 273h-79v91h79v329c56 11 115 17 182 17c140 0 263 -40 263 -216c0 -163 -126 -224 -251 -224c-19 0 -53 0 -68 3v-58h160v-91h-160v-124h-126v124h-79v91h79v58zM295 600c-27 0 -52 -2 -67 -5v-226c11 -3 41 -5 52 -5c73 0 133 36 133 124c0 81 -49 112 -118 112z
" />
    <glyph glyph-name="uni20CB" unicode="&#x20cb;" 
d="M102 273h-79v91h79v329c56 11 115 17 182 17c140 0 263 -40 263 -216c0 -163 -126 -224 -251 -224c-19 0 -53 0 -68 3v-58h160v-91h-160v-124h-126v124h-79v91h79v58zM295 600c-27 0 -52 -2 -67 -5v-226c11 -3 41 -5 52 -5c73 0 133 36 133 124c0 81 -49 112 -118 112z
" />
    <glyph glyph-name="uni20CC" unicode="&#x20cc;" 
d="M102 273h-79v91h79v329c56 11 115 17 182 17c140 0 263 -40 263 -216c0 -163 -126 -224 -251 -224c-19 0 -53 0 -68 3v-58h160v-91h-160v-124h-126v124h-79v91h79v58zM295 600c-27 0 -52 -2 -67 -5v-226c11 -3 41 -5 52 -5c73 0 133 36 133 124c0 81 -49 112 -118 112z
" />
    <glyph glyph-name="uni20CD" unicode="&#x20cd;" 
d="M102 273h-79v91h79v329c56 11 115 17 182 17c140 0 263 -40 263 -216c0 -163 -126 -224 -251 -224c-19 0 -53 0 -68 3v-58h160v-91h-160v-124h-126v124h-79v91h79v58zM295 600c-27 0 -52 -2 -67 -5v-226c11 -3 41 -5 52 -5c73 0 133 36 133 124c0 81 -49 112 -118 112z
" />
    <glyph glyph-name="uni20CE" unicode="&#x20ce;" 
d="M102 273h-79v91h79v329c56 11 115 17 182 17c140 0 263 -40 263 -216c0 -163 -126 -224 -251 -224c-19 0 -53 0 -68 3v-58h160v-91h-160v-124h-126v124h-79v91h79v58zM295 600c-27 0 -52 -2 -67 -5v-226c11 -3 41 -5 52 -5c73 0 133 36 133 124c0 81 -49 112 -118 112z
" />
    <glyph glyph-name="uni20CF" unicode="&#x20cf;" 
d="M102 273h-79v91h79v329c56 11 115 17 182 17c140 0 263 -40 263 -216c0 -163 -126 -224 -251 -224c-19 0 -53 0 -68 3v-58h160v-91h-160v-124h-126v124h-79v91h79v58zM295 600c-27 0 -52 -2 -67 -5v-226c11 -3 41 -5 52 -5c73 0 133 36 133 124c0 81 -49 112 -118 112z
" />
    <glyph glyph-name="afii61289" unicode="&#x2113;" horiz-adv-x="500" 
d="M389 80l17 -50c-29 -19 -81 -41 -128 -41c-84 0 -120 38 -120 125v104l-50 -44l-35 44l85 74v254c0 117 57 166 129 166c64 0 110 -39 110 -119c0 -99 -50 -211 -171 -328v-140c0 -59 26 -77 58 -77c33 0 78 17 105 32zM333 588c0 45 -22 64 -46 64
c-32 0 -61 -15 -61 -95v-212c75 87 107 167 107 243z" />
    <glyph glyph-name="afii61352" unicode="&#x2116;" horiz-adv-x="1027" 
d="M969 210h-314v111h314v-111zM582 -4h-99l-249 366l-55 113h-5l16 -110v-365h-130v705h100l250 -370l52 -110h6l-16 107v368h130v-704zM634 542c0 120 73 170 175 170c101 0 175 -45 175 -170s-74 -170 -175 -170c-102 0 -175 45 -175 170zM750 542c0 -57 20 -86 59 -86
c41 0 58 21 58 86c0 64 -17 86 -58 86s-59 -22 -59 -86z" />
    <glyph glyph-name="estimated" unicode="&#x212e;" horiz-adv-x="600" 
d="M561 259h-404v-181c41 -39 90 -59 145 -59c83 0 147 40 193 120l35 -21c-57 -88 -131 -134 -228 -134c-158 0 -258 120 -258 275c0 157 103 276 258 276c166 0 254 -125 259 -276zM157 440v-145h291v145c-42 40 -91 60 -147 60c-57 0 -105 -20 -144 -60z" />
    <glyph glyph-name="partialdiff" unicode="&#x2202;" horiz-adv-x="538" 
d="M276 503c56 0 77 -11 99 -25h5c-13 104 -114 136 -204 136c-11 0 -19 0 -28 -1l22 101c11 1 22 1 33 1c176 0 311 -72 311 -305c0 -298 -121 -423 -286 -423c-132 0 -210 77 -210 202c0 152 81 314 258 314zM284 393c-76 0 -132 -75 -132 -199c0 -55 28 -98 87 -98
c109 0 141 135 141 261c-24 23 -51 36 -96 36z" />
    <glyph glyph-name="product" unicode="&#x220f;" horiz-adv-x="654" 
d="M593 -199h-131v777h-265v-777h-137v899h533v-899z" />
    <glyph glyph-name="summation" unicode="&#x2211;" horiz-adv-x="527" 
d="M199 537l172 -281l-188 -293l-42 -40h360v-122h-481v122l186 291l42 34l-46 37l-182 293v122h481v-122h-348z" />
    <glyph glyph-name="uni2215" unicode="&#x2215;" horiz-adv-x="527" 
d="M92 -13l-86 52l430 676l85 -50z" />
    <glyph glyph-name="radical" unicode="&#x221a;" horiz-adv-x="527" 
d="M-4 364v111h191l79 -186l22 -115h4l18 117l120 409h125l-230 -704h-67l-151 368h-111z" />
    <glyph glyph-name="infinity" unicode="&#x221e;" horiz-adv-x="857" 
d="M417 265c-48 -77 -117 -114 -200 -114c-96 0 -182 74 -182 197c0 129 84 204 192 204c99 0 162 -44 211 -104c60 75 127 104 208 104c99 0 176 -73 176 -196c0 -131 -85 -205 -201 -205c-97 0 -157 51 -204 114zM620 262c47 0 80 38 80 91c0 44 -26 88 -82 88
c-41 0 -87 -24 -126 -75c29 -55 77 -104 128 -104zM237 441c-45 0 -81 -40 -81 -92c0 -51 38 -87 87 -87c43 0 90 34 122 78c-31 60 -72 101 -128 101z" />
    <glyph glyph-name="integral" unicode="&#x222b;" horiz-adv-x="368" 
d="M247 509v-542c0 -128 -52 -174 -156 -174c-61 0 -120 11 -152 24l29 102c29 -11 56 -17 83 -17c51 0 66 29 66 101v535c0 128 46 176 154 176c48 0 113 -12 148 -25l-22 -102c-31 11 -53 17 -89 17c-47 0 -61 -23 -61 -95z" />
    <glyph glyph-name="approxequal" unicode="&#x2248;" horiz-adv-x="527" 
d="M74 181l-44 100c63 51 111 67 154 67c77 0 131 -53 193 -53c24 0 49 6 77 29l47 -103c-48 -36 -87 -49 -122 -49c-75 0 -123 58 -193 58c-32 0 -68 -12 -112 -49zM74 373l-44 100c63 51 111 67 154 67c77 0 131 -53 193 -53c24 0 49 6 77 29l47 -103
c-48 -36 -87 -49 -122 -49c-75 0 -123 58 -193 58c-32 0 -68 -12 -112 -49z" />
    <glyph glyph-name="notequal" unicode="&#x2260;" horiz-adv-x="527" 
d="M226 378h-183v112h232l50 113h113l-50 -113h97v-112h-147l-36 -80h183v-112h-232l-57 -129h-112l57 129h-98v112h147z" />
    <glyph glyph-name="lessequal" unicode="&#x2264;" horiz-adv-x="527" 
d="M45 199l56 96l382 -215l-56 -95zM482 282l-57 -90l-391 221v70l386 231l57 -90l-224 -139l-91 -35l90 -31z" />
    <glyph glyph-name="greaterequal" unicode="&#x2265;" horiz-adv-x="527" 
d="M51 79l380 222l57 -96l-381 -220zM40 624l57 90l391 -221v-70l-386 -231l-57 90l224 139l91 35l-90 31z" />
    <glyph glyph-name="lozenge" unicode="&#x25ca;" horiz-adv-x="527" 
d="M299 705l201 -358l-201 -351h-75l-197 346l197 363h75zM267 115h4l27 86l80 133l-91 157l-27 84h-5l-28 -86l-78 -134l90 -156z" />
    <glyph glyph-name="uni2C67" unicode="&#x2c67;" horiz-adv-x="696" 
d="M567 0h-114v293h-256v-293h-137v700h137v-285h256v285h137v-578h88v-246h-96z" />
    <glyph glyph-name="uni2C68" unicode="&#x2c68;" horiz-adv-x="590" 
d="M493 311v-196h80v-228h-95l-15 113h-100v284c0 81 -19 115 -79 115c-44 0 -85 -33 -97 -80v-319h-130v700h130v-256h4c32 43 76 70 148 70c102 0 154 -47 154 -203z" />
    <glyph glyph-name="uniF401" unicode="&#xf401;" horiz-adv-x="2" 
d="M-283 752h-103l104 118h159v-30z" />
    <glyph glyph-name="uniF406" unicode="&#xf406;" horiz-adv-x="501" 
d="M60 838l52 37c27 -35 80 -54 143 -54c64 0 110 22 137 54l49 -32c-32 -76 -112 -113 -187 -113c-72 0 -157 29 -194 108z" />
    <glyph glyph-name="uniF407" unicode="&#xf407;" horiz-adv-x="332" 
d="M124 0h84l-24 -42c55 -5 88 -27 88 -75c0 -75 -104 -108 -212 -86l8 57c60 -9 85 -3 85 20c0 19 -29 29 -86 32z" />
    <glyph glyph-name="uniF408" unicode="&#xf408;" horiz-adv-x="476" 
d="M60 738v40l133 92h96l127 -93v-39h-99l-57 41l-20 34l-21 -33l-62 -42h-97z" />
    <glyph glyph-name="uniF409" unicode="&#xf409;" horiz-adv-x="267" 
d="M60 -104c0 39 29 63 68 63c47 0 79 -32 79 -88c0 -88 -67 -132 -103 -143l-34 54c19 9 41 25 44 53c-27 -1 -54 20 -54 61z" />
    <glyph glyph-name="uniF40A" unicode="&#xf40a;" horiz-adv-x="223" 
d="M38 644c0 39 29 65 69 65c48 0 78 -35 78 -87c0 -107 -76 -145 -112 -159l-33 55c27 12 50 31 53 62c-27 -1 -55 21 -55 64z" />
    <glyph glyph-name="uniF40B" unicode="&#xf40b;" horiz-adv-x="295" 
d="M60 799c0 33 29 61 86 61s89 -28 89 -61c0 -35 -32 -62 -89 -62s-86 27 -86 62z" />
    <glyph glyph-name="uniF40C" unicode="&#xf40c;" horiz-adv-x="376" 
d="M60 772c0 49 28 90 128 90c93 0 128 -34 128 -90c0 -48 -32 -87 -128 -87c-95 0 -128 36 -128 87zM144 772c0 -21 15 -31 44 -31c33 0 45 11 45 31c0 23 -13 33 -45 33c-29 0 -44 -11 -44 -33z" />
    <glyph glyph-name="uniF40D" unicode="&#xf40d;" horiz-adv-x="490" 
d="M84 737l-24 63c43 47 81 61 120 61c59 0 116 -35 165 -35c21 0 41 5 60 24l25 -67c-37 -35 -73 -47 -106 -47c-60 0 -113 36 -165 36c-25 0 -50 -8 -75 -35z" />
    <glyph glyph-name="uniF40E" unicode="&#xf40e;" horiz-adv-x="350" 
d="M163 10h100c-51 -14 -76 -40 -76 -78c0 -24 15 -43 42 -43c12 0 26 4 42 12l19 -62c-20 -16 -68 -35 -115 -35c-75 0 -115 36 -115 91s39 93 103 115z" />
    <glyph glyph-name="uniF486" unicode="&#xf486;" horiz-adv-x="591" 
d="M287 752h-103l104 118h159v-30zM531 537c0 -71 -33 -140 -125 -162v-6c81 -13 147 -63 147 -172c0 -145 -134 -206 -273 -206c-45 0 -150 -1 -220 14v690c51 8 135 15 212 15c131 0 259 -33 259 -173zM281 103c67 0 130 32 130 101c0 87 -77 98 -146 98h-73v-193
c13 -5 62 -6 89 -6zM192 593v-187h44c19 0 47 1 63 4c51 16 93 47 93 99c0 69 -58 88 -118 88c-35 0 -66 -1 -82 -4z" />
    <glyph glyph-name="uniF487" unicode="&#xf487;" horiz-adv-x="536" 
d="M57 22v678h130v-240h4c28 32 74 52 127 52c120 0 185 -81 185 -249c0 -180 -94 -274 -249 -274c-85 0 -161 16 -197 33zM280 402c-48 0 -77 -25 -93 -72v-218c21 -11 46 -14 74 -14c71 0 108 49 108 161c0 95 -30 143 -89 143zM334 566h-74l53 154h132v-30z" />
    <glyph glyph-name="uniF488" unicode="&#xf488;" horiz-adv-x="508" 
d="M287 752h-103l104 118h159v-30zM197 0h-137v700h415v-122h-278v-173h256v-122h-256v-283z" />
    <glyph glyph-name="uniF489" unicode="&#xf489;" horiz-adv-x="321" 
d="M250 752h-103l104 118h159v-30zM80 390h-69v110h69v28c0 127 55 180 156 180c53 0 98 -6 133 -19l-25 -104c-31 11 -52 13 -77 13c-53 0 -57 -33 -57 -98h110v-110h-110v-390h-130v390z" />
    <glyph glyph-name="uniF49E" unicode="&#xf49e;" horiz-adv-x="606" 
d="M60 514h-76v93h76v93h137v-93h221v-93h-221v-96c35 20 93 40 173 40c111 0 190 -54 190 -193v-265h-137v222c0 80 -29 119 -101 119c-51 0 -98 -11 -125 -34v-307h-137v514z" />
    <glyph glyph-name="uniF49F" unicode="&#xf49f;" horiz-adv-x="556" 
d="M68 561h-73v80h73v59h130v-59h161v-80h-161v-117h4c32 43 76 70 148 70c102 0 154 -47 154 -203v-311h-130v284c0 81 -19 115 -79 115c-44 0 -85 -33 -97 -80v-319h-130v561z" />
    <glyph glyph-name="uniF4C6" unicode="&#xf4c6;" horiz-adv-x="606" 
d="M46 435v265h137v-222c0 -80 29 -119 101 -119c51 0 98 11 125 34v307h137v-720c0 -121 -50 -187 -157 -187c-20 0 -42 2 -65 7v109c5 0 10 -1 15 -1c57 0 70 34 70 92v282c-35 -20 -93 -40 -173 -40c-111 0 -190 54 -190 193z" />
    <glyph glyph-name="uniF4C7" unicode="&#xf4c7;" horiz-adv-x="505" 
d="M318 0v196c-20 -15 -60 -38 -129 -38c-99 0 -156 39 -156 172v170h130v-114c0 -83 10 -118 69 -118c39 0 67 10 86 23v209h130v-520c0 -121 -46 -187 -151 -187c-20 0 -41 2 -64 7v109c5 0 10 -1 15 -1c57 0 70 34 70 92z" />
    <glyph glyph-name="uniF4CC" unicode="&#xf4cc;" horiz-adv-x="568" 
d="M300 752h-103l104 118h159v-30zM-8 700h160l142 -309l20 -91h6l16 94l105 306h141l-186 -484c-58 -152 -103 -222 -207 -222c-44 0 -66 4 -98 23l35 111c23 -12 40 -13 61 -13c31 0 53 25 66 74z" />
    <glyph glyph-name="uniF4CD" unicode="&#xf4cd;" horiz-adv-x="478" 
d="M-8 500h155l92 -281l18 -78h6l13 79l76 280h134l-152 -451c-50 -148 -89 -253 -182 -253c-35 0 -62 6 -83 17l24 104c10 -4 20 -6 30 -6c31 0 62 22 77 89zM274 566h-74l53 154h132v-30z" />
    <glyph glyph-name="uniF4D6" unicode="&#xf4d6;" horiz-adv-x="574" 
d="M146 799c0 33 29 61 86 61s89 -28 89 -61c0 -35 -32 -62 -89 -62s-86 27 -86 62zM400 300h-270v110h269c-8 107 -71 182 -187 182c-72 0 -126 -18 -159 -37l-29 116c47 24 124 43 193 43c184 0 319 -96 319 -364c0 -277 -162 -363 -338 -363c-76 0 -141 15 -178 32
l36 119c31 -15 84 -30 152 -30c103 0 181 57 192 192z" />
    <glyph glyph-name="uniF4D7" unicode="&#xf4d7;" horiz-adv-x="459" 
d="M110 641c0 39 30 70 81 70s85 -31 85 -70s-34 -68 -85 -68s-81 29 -81 68zM296 207h-187v93h186c-7 67 -43 104 -116 104c-51 0 -89 -14 -118 -30l-35 94c44 31 103 46 178 46c149 0 222 -89 222 -264c0 -176 -88 -263 -232 -263c-63 0 -134 13 -171 35l32 102
c31 -17 75 -28 118 -28c85 0 116 35 123 111z" />
    <glyph glyph-name="uni0498.alt" unicode="&#xf50a;" horiz-adv-x="526" 
d="M147 310h-27v107h24c24 0 73 0 96 6c47 11 85 37 85 84c0 64 -44 83 -111 83c-60 0 -116 -20 -143 -35l-35 116c29 16 114 41 199 41c117 0 234 -37 234 -175c0 -69 -35 -133 -116 -160v-5c87 -17 138 -75 138 -171c0 -130 -99 -195 -213 -210l-14 -165h-88l-19 164
c-60 7 -110 18 -139 33l35 119c31 -15 89 -34 168 -34c60 0 125 28 125 104c0 63 -40 93 -160 97c-16 0 -19 1 -39 1z" />
    <glyph glyph-name="uni0499.alt" unicode="&#xf50b;" horiz-adv-x="432" 
d="M158 207h-49v91h61c47 0 80 21 80 52c0 36 -25 49 -80 49c-52 0 -94 -17 -118 -32l-28 100c40 23 110 42 185 42c115 0 171 -44 171 -125c0 -45 -25 -97 -78 -116v-4c71 -16 97 -56 97 -124s-44 -125 -140 -143l-14 -171h-88l-19 167c-51 5 -88 18 -116 34l28 101
c31 -17 76 -30 129 -30c60 0 90 19 90 58c0 35 -26 51 -111 51z" />
    <glyph glyph-name="uni04AA.alt02" unicode="&#xf50c;" horiz-adv-x="559" 
d="M506 141l28 -112c-35 -25 -90 -37 -149 -41l-16 -30c55 -5 88 -27 88 -75c0 -60 -65 -92 -148 -92c-21 0 -42 2 -64 6l9 48c9 -1 17 -1 24 -1c51 0 60 14 60 30c0 19 -29 29 -86 32l50 84c-147 18 -264 122 -264 360c0 274 168 364 316 364c80 0 134 -12 170 -27
l-27 -116c-31 15 -71 21 -131 21c-111 0 -184 -77 -184 -242c0 -144 65 -241 194 -241c60 0 99 13 130 32z" />
    <glyph glyph-name="uni04AB.alt02" unicode="&#xf50d;" horiz-adv-x="433" 
d="M381 130l30 -99c-31 -23 -71 -34 -115 -41l-18 -32c55 -5 88 -27 88 -75c0 -60 -65 -92 -148 -92c-21 0 -42 2 -64 6l9 48c9 -1 17 -1 24 -1c51 0 60 14 60 30c0 19 -29 29 -86 32l50 84c-131 15 -178 116 -178 260c0 169 78 264 223 264c73 0 113 -13 149 -32l-31 -106
c-31 15 -58 23 -97 23c-72 0 -110 -45 -110 -149c0 -84 36 -149 117 -149c44 0 73 13 97 29z" />
    <glyph glyph-name="uniF50E" unicode="&#xf50e;" horiz-adv-x="605" 
d="M477 767h-343v89h343v-89zM605 0h-144l-56 155h-215l-53 -155h-137l252 705h101zM297 531l-21 -111l-51 -155h150l-52 156l-21 110h-5z" />
    <glyph glyph-name="uniF50F" unicode="&#xf50f;" horiz-adv-x="496" 
d="M85 374l-31 97c53 24 130 39 210 39c140 0 180 -69 180 -175c0 -117 -21 -240 11 -335h-106l-21 68h-5c-27 -41 -72 -75 -147 -75c-92 0 -153 58 -153 145c0 122 115 168 291 160c9 75 -6 105 -75 105c-52 0 -117 -12 -154 -29zM219 99c52 0 81 28 96 55v65
c-83 8 -158 -9 -158 -61c0 -37 23 -59 62 -59zM414 566h-323v92h323v-92z" />
    <glyph glyph-name="uniF510" unicode="&#xf510;" horiz-adv-x="522" 
d="M440 767h-343v89h343v-89zM480 0h-420v700h415v-122h-278v-163h253v-122h-253v-171h283v-122z" />
    <glyph glyph-name="uniF511" unicode="&#xf511;" horiz-adv-x="508" 
d="M414 128l43 -85c-40 -32 -114 -56 -191 -56c-161 0 -233 99 -233 263c0 176 88 264 240 264c101 0 200 -47 200 -202c0 -28 -3 -60 -10 -95h-300c4 -84 40 -127 128 -127c55 0 100 21 123 38zM271 410c-68 0 -98 -44 -105 -112h186c5 72 -22 112 -81 112zM420 566h-323
v92h323v-92z" />
    <glyph glyph-name="uniF512" unicode="&#xf512;" horiz-adv-x="522" 
d="M435 903h-343v89h343v-89zM82 798c0 35 23 58 76 58c52 0 75 -23 75 -58s-23 -57 -75 -57c-53 0 -76 22 -76 57zM296 798c0 35 23 58 75 58c53 0 76 -23 76 -58s-23 -57 -76 -57c-52 0 -75 22 -75 57zM480 0h-420v700h415v-122h-278v-163h253v-122h-253v-171h283v-122z
" />
    <glyph glyph-name="uniF513" unicode="&#xf513;" horiz-adv-x="508" 
d="M433 751h-343v89h343v-89zM82 618c0 43 28 70 71 70s69 -27 69 -70c0 -40 -26 -68 -69 -68s-71 28 -71 68zM301 618c0 43 26 70 69 70s71 -27 71 -70c0 -40 -28 -68 -71 -68s-69 28 -69 68zM414 128l43 -85c-40 -32 -114 -56 -191 -56c-161 0 -233 99 -233 263
c0 176 88 264 240 264c101 0 200 -47 200 -202c0 -28 -3 -60 -10 -95h-300c4 -84 40 -127 128 -127c55 0 100 21 123 38zM271 410c-68 0 -98 -44 -105 -112h186c5 72 -22 112 -81 112z" />
    <glyph glyph-name="uniF514" unicode="&#xf514;" horiz-adv-x="522" 
d="M73 996l124 20c5 -43 33 -60 74 -60c45 0 69 20 74 59l111 -17c-15 -84 -77 -121 -186 -121c-107 0 -186 28 -197 119zM82 798c0 35 23 58 76 58c52 0 75 -23 75 -58s-23 -57 -75 -57c-53 0 -76 22 -76 57zM296 798c0 35 23 58 75 58c53 0 76 -23 76 -58s-23 -57 -76 -57
c-52 0 -75 22 -75 57zM480 0h-420v700h415v-122h-278v-163h253v-122h-253v-171h283v-122z" />
    <glyph glyph-name="uniF515" unicode="&#xf515;" horiz-adv-x="508" 
d="M72 838l124 20c5 -43 33 -60 74 -60c45 0 69 20 74 59l111 -17c-15 -84 -77 -121 -186 -121c-107 0 -186 28 -197 119zM82 618c0 43 28 70 71 70s69 -27 69 -70c0 -40 -26 -68 -69 -68s-71 28 -71 68zM301 618c0 43 26 70 69 70s71 -27 71 -70c0 -40 -28 -68 -71 -68
s-69 28 -69 68zM414 128l43 -85c-40 -32 -114 -56 -191 -56c-161 0 -233 99 -233 263c0 176 88 264 240 264c101 0 200 -47 200 -202c0 -28 -3 -60 -10 -95h-300c4 -84 40 -127 128 -127c55 0 100 21 123 38zM271 410c-68 0 -98 -44 -105 -112h186c5 72 -22 112 -81 112z
" />
    <glyph glyph-name="uniF516" unicode="&#xf516;" horiz-adv-x="526" 
d="M416 870v-40l-133 -93h-94l-127 94v39h105l53 -45l19 -30l21 29l56 46h100zM147 310h-27v107h24c24 0 73 0 96 6c47 11 85 37 85 84c0 64 -44 83 -111 83c-60 0 -116 -20 -143 -35l-35 116c29 16 114 41 199 41c117 0 234 -37 234 -175c0 -69 -35 -133 -116 -160v-5
c87 -17 138 -75 138 -171c0 -151 -133 -214 -270 -214c-88 0 -164 16 -203 36l35 119c31 -15 89 -34 168 -34c60 0 125 28 125 104c0 63 -40 93 -160 97c-16 0 -19 1 -39 1z" />
    <glyph glyph-name="uniF517" unicode="&#xf517;" horiz-adv-x="432" 
d="M264 732h101l-123 -182h-91l-115 182h110l39 -66l16 -49l18 49zM158 207h-49v91h61c47 0 80 20 80 51c0 36 -26 50 -81 50c-52 0 -93 -16 -117 -31l-28 99c40 23 110 42 185 42c115 0 171 -44 171 -125c0 -45 -25 -97 -78 -116v-4c71 -16 97 -56 97 -124
c0 -84 -68 -150 -214 -150c-73 0 -127 17 -163 37l28 101c31 -17 75 -29 128 -29c61 0 91 19 91 58c0 35 -26 50 -111 50z" />
    <glyph glyph-name="uniF518" unicode="&#xf518;" horiz-adv-x="670" 
d="M510 767h-343v89h343v-89zM38 350c0 233 106 364 297 364c201 0 297 -145 297 -364c0 -233 -108 -363 -297 -363c-203 0 -297 144 -297 363zM182 350c0 -141 46 -242 153 -242c97 0 153 71 153 242c0 136 -42 242 -153 242c-97 0 -153 -75 -153 -242z" />
    <glyph glyph-name="uniF519" unicode="&#xf519;" horiz-adv-x="537" 
d="M33 250c0 169 87 264 236 264c159 0 235 -106 235 -264c0 -169 -86 -263 -235 -263c-159 0 -236 105 -236 263zM167 250c0 -88 30 -154 102 -154c68 0 101 47 101 154c0 92 -28 154 -101 154c-64 0 -102 -45 -102 -154zM429 566h-323v92h323v-92z" />
    <glyph glyph-name="uniF51A" unicode="&#xf51a;" horiz-adv-x="670" 
d="M142 854l124 20c5 -43 33 -60 74 -60c45 0 69 20 74 59l111 -17c-15 -84 -77 -121 -186 -121c-107 0 -186 28 -197 119zM38 350c0 233 106 364 297 364c201 0 297 -145 297 -364c0 -233 -108 -363 -297 -363c-203 0 -297 144 -297 363zM182 350c0 -141 46 -242 153 -242
c97 0 153 71 153 242c0 136 -42 242 -153 242c-97 0 -153 -75 -153 -242z" />
    <glyph glyph-name="uniF51B" unicode="&#xf51b;" horiz-adv-x="537" 
d="M98 678l110 26c9 -52 31 -71 66 -71c37 0 59 19 67 70l99 -25c-16 -87 -85 -128 -169 -128s-157 36 -173 128zM33 250c0 169 87 264 236 264c159 0 235 -106 235 -264c0 -169 -86 -263 -235 -263c-159 0 -236 105 -236 263zM167 250c0 -88 30 -154 102 -154
c68 0 101 47 101 154c0 92 -28 154 -101 154c-64 0 -102 -45 -102 -154z" />
    <glyph glyph-name="uniF51C" unicode="&#xf51c;" horiz-adv-x="670" 
d="M143 854l124 20c5 -43 33 -60 74 -60c45 0 69 20 74 59l111 -17c-15 -84 -77 -121 -186 -121c-107 0 -186 28 -197 119zM38 350c0 233 106 364 297 364c201 0 297 -145 297 -364c0 -233 -108 -363 -297 -363c-203 0 -297 144 -297 363zM182 407h306
c-11 119 -66 185 -153 185c-77 0 -142 -51 -153 -185zM488 296h-306c11 -125 69 -188 153 -188c77 0 145 45 153 188z" />
    <glyph glyph-name="uniF51D" unicode="&#xf51d;" horiz-adv-x="537" 
d="M98 678l110 26c9 -52 31 -71 66 -71c37 0 59 19 67 70l99 -25c-16 -87 -85 -128 -169 -128s-157 36 -173 128zM33 250c0 169 87 264 236 264c159 0 235 -106 235 -264c0 -169 -86 -263 -235 -263c-159 0 -236 105 -236 263zM167 289h203c-11 80 -45 115 -101 115
c-50 0 -94 -30 -102 -115zM370 207h-203c8 -72 49 -111 102 -111c51 0 93 28 101 111z" />
    <glyph glyph-name="uniF51E" unicode="&#xf51e;" horiz-adv-x="670" 
d="M144 996l124 20c5 -43 33 -60 74 -60c45 0 69 20 74 59l111 -17c-15 -84 -77 -121 -186 -121c-107 0 -186 28 -197 119zM153 798c0 35 23 58 76 58c52 0 75 -23 75 -58s-23 -57 -75 -57c-53 0 -76 22 -76 57zM367 798c0 35 23 58 75 58c53 0 76 -23 76 -58
s-23 -57 -76 -57c-52 0 -75 22 -75 57zM38 350c0 233 106 364 297 364c201 0 297 -145 297 -364c0 -233 -108 -363 -297 -363c-203 0 -297 144 -297 363zM182 350c0 -141 46 -242 153 -242c97 0 153 71 153 242c0 136 -42 242 -153 242c-97 0 -153 -75 -153 -242z" />
    <glyph glyph-name="uniF51F" unicode="&#xf51f;" horiz-adv-x="537" 
d="M72 838l124 20c5 -43 33 -60 74 -60c45 0 69 20 74 59l111 -17c-15 -84 -77 -121 -186 -121c-107 0 -186 28 -197 119zM90 618c0 43 28 70 71 70s69 -27 69 -70c0 -40 -26 -68 -69 -68s-71 28 -71 68zM309 618c0 43 26 70 69 70s71 -27 71 -70c0 -40 -28 -68 -71 -68
s-69 28 -69 68zM33 250c0 169 87 264 236 264c159 0 235 -106 235 -264c0 -169 -86 -263 -235 -263c-159 0 -236 105 -236 263zM167 250c0 -88 30 -154 102 -154c68 0 101 47 101 154c0 92 -28 154 -101 154c-64 0 -102 -45 -102 -154z" />
    <glyph glyph-name="uniF520" unicode="&#xf520;" horiz-adv-x="798" 
d="M563 767h-343v89h343v-89zM737 0h-137v700h137v-700zM60 7v693h137v-251c15 3 51 8 82 8c134 0 249 -47 249 -224c0 -163 -95 -242 -282 -242c-36 0 -125 1 -186 16zM256 112c76 0 128 32 128 115c0 88 -56 108 -127 108c-19 0 -49 -4 -60 -8v-209c15 -4 36 -6 59 -6z
" />
    <glyph glyph-name="uniF521" unicode="&#xf521;" horiz-adv-x="703" 
d="M507 566h-323v92h323v-92zM187 229v-120c20 -4 39 -6 57 -6c60 0 81 21 81 68c0 43 -22 65 -78 65c-22 0 -42 -2 -60 -7zM57 500h130v-178c32 5 66 7 93 7c135 0 179 -66 179 -155c0 -120 -60 -180 -227 -180c-76 0 -128 3 -175 6v500zM646 0h-130v500h130v-500z" />
    <glyph glyph-name="uniF522" unicode="&#xf522;" horiz-adv-x="574" 
d="M410 767h-343v89h343v-89zM400 300h-270v110h269c-8 107 -71 182 -187 182c-72 0 -126 -18 -159 -37l-29 116c47 24 124 43 193 43c184 0 319 -96 319 -364c0 -277 -162 -363 -338 -363c-76 0 -141 15 -178 32l36 119c31 -15 84 -30 152 -30c103 0 181 57 192 192z" />
    <glyph glyph-name="uniF523" unicode="&#xf523;" horiz-adv-x="459" 
d="M373 566h-323v92h323v-92zM296 207h-187v93h186c-7 67 -43 104 -116 104c-51 0 -89 -14 -118 -30l-35 94c44 31 103 46 178 46c149 0 222 -89 222 -264c0 -176 -88 -263 -232 -263c-63 0 -134 13 -171 35l32 102c31 -17 75 -28 118 -28c85 0 116 35 123 111z" />
    <glyph glyph-name="uniF524" unicode="&#xf524;" horiz-adv-x="574" 
d="M45 854l124 20c5 -43 33 -60 74 -60c45 0 69 20 74 59l111 -17c-15 -84 -77 -121 -186 -121c-107 0 -186 28 -197 119zM400 300h-270v110h269c-8 107 -71 182 -187 182c-72 0 -126 -18 -159 -37l-29 116c47 24 124 43 193 43c184 0 319 -96 319 -364
c0 -277 -162 -363 -338 -363c-76 0 -141 15 -178 32l36 119c31 -15 84 -30 152 -30c103 0 181 57 192 192z" />
    <glyph glyph-name="uniF525" unicode="&#xf525;" horiz-adv-x="459" 
d="M38 678l110 26c9 -52 31 -71 66 -71c37 0 59 19 67 70l99 -25c-16 -87 -85 -128 -169 -128s-157 36 -173 128zM296 207h-187v93h186c-7 67 -43 104 -116 104c-51 0 -89 -14 -118 -30l-35 94c44 31 103 46 178 46c149 0 222 -89 222 -264c0 -176 -88 -263 -232 -263
c-63 0 -134 13 -171 35l32 102c31 -17 75 -28 118 -28c85 0 116 35 123 111z" />
    <glyph glyph-name="uniF526" unicode="&#xf526;" horiz-adv-x="577" 
d="M158 798c0 35 23 58 76 58c52 0 75 -23 75 -58s-23 -57 -75 -57c-53 0 -76 22 -76 57zM372 798c0 35 23 58 75 58c53 0 76 -23 76 -58s-23 -57 -76 -57c-52 0 -75 22 -75 57zM521 139l28 -110c-41 -29 -123 -42 -191 -42c-172 0 -320 98 -320 363c0 274 170 364 324 364
c80 0 141 -12 177 -27l-26 -119c-31 15 -79 24 -139 24c-94 0 -170 -56 -189 -176h275v-112h-278c15 -119 85 -196 202 -196c60 0 108 14 137 31z" />
    <glyph glyph-name="uniF527" unicode="&#xf527;" horiz-adv-x="457" 
d="M82 633c0 43 28 70 71 70s69 -27 69 -70c0 -40 -26 -68 -69 -68s-71 28 -71 68zM301 633c0 43 26 70 69 70s71 -27 71 -70c0 -40 -28 -68 -71 -68s-69 28 -69 68zM405 130l30 -99c-40 -29 -105 -44 -165 -44c-160 0 -233 105 -233 263c0 168 94 264 238 264
c72 0 117 -13 153 -32l-30 -106c-31 15 -64 23 -103 23c-63 0 -111 -30 -124 -102h196v-88h-197c12 -64 55 -108 132 -108c45 0 78 13 103 29z" />
    <glyph glyph-name="uniF528" unicode="&#xf528;" horiz-adv-x="580" 
d="M491 767h-343v89h343v-89zM519 693v-693h-137v277l-72 -19l-146 -258h-159l144 233l60 43c-85 21 -154 88 -154 209c0 168 124 225 293 225c45 0 124 -4 171 -17zM331 588c-72 0 -132 -22 -132 -109c0 -83 57 -113 132 -113h51v217c-15 3 -28 5 -51 5z" />
    <glyph glyph-name="uniF529" unicode="&#xf529;" horiz-adv-x="503" 
d="M418 566h-323v92h323v-92zM451 0h-130v189l-60 -12l-96 -177h-155l97 157l49 37c-65 11 -113 66 -113 143c0 121 79 177 246 177c64 0 121 -8 162 -16v-498zM285 255l36 2v138c-15 7 -33 9 -49 9c-60 0 -95 -25 -95 -76s37 -77 108 -73z" />
    <glyph glyph-name="uniF52A" unicode="&#xf52a;" horiz-adv-x="580" 
d="M121 854l124 20c5 -43 33 -60 74 -60c45 0 69 20 74 59l111 -17c-15 -84 -77 -121 -186 -121c-107 0 -186 28 -197 119zM519 693v-693h-137v277l-72 -19l-146 -258h-159l144 233l60 43c-85 21 -154 88 -154 209c0 168 124 225 293 225c45 0 124 -4 171 -17zM331 588
c-72 0 -132 -22 -132 -109c0 -83 57 -113 132 -113h51v217c-15 3 -28 5 -51 5z" />
    <glyph glyph-name="uniF52B" unicode="&#xf52b;" horiz-adv-x="503" 
d="M92 678l110 26c9 -52 31 -71 66 -71c37 0 59 19 67 70l99 -25c-16 -87 -85 -128 -169 -128s-157 36 -173 128zM451 0h-130v189l-60 -12l-96 -177h-155l97 157l49 37c-65 11 -113 66 -113 143c0 121 79 177 246 177c64 0 121 -8 162 -16v-498zM285 255l36 2v138
c-15 7 -33 9 -49 9c-60 0 -95 -25 -95 -76s37 -77 108 -73z" />
    <glyph glyph-name="uniF52C" unicode="&#xf52c;" horiz-adv-x="897" 
d="M626 767h-343v89h343v-89zM60 700h137v-285h93c17 191 112 299 283 299c202 0 286 -145 286 -364c0 -233 -97 -363 -286 -363c-177 0 -267 121 -283 306h-93v-293h-137v700zM430 350c0 -141 36 -242 143 -242c97 0 142 71 142 242c0 136 -30 242 -142 242
c-96 0 -143 -75 -143 -242z" />
    <glyph glyph-name="uniF52D" unicode="&#xf52d;" horiz-adv-x="734" 
d="M519 566h-323v92h323v-92zM480 -13c-149 0 -206 82 -217 215h-76v-202h-130v500h130v-188h77c13 129 78 202 218 202c152 0 218 -106 218 -264c0 -169 -71 -263 -220 -263zM387 250c0 -97 24 -154 93 -154c61 0 86 39 86 154c0 103 -21 154 -89 154
c-61 0 -90 -42 -90 -154z" />
    <glyph glyph-name="uniF52E" unicode="&#xf52e;" horiz-adv-x="897" 
d="M233 854l124 20c5 -43 33 -60 74 -60c45 0 69 20 74 59l111 -17c-15 -84 -77 -121 -186 -121c-107 0 -186 28 -197 119zM60 700h137v-285h93c17 191 112 299 283 299c202 0 286 -145 286 -364c0 -233 -97 -363 -286 -363c-177 0 -267 121 -283 306h-93v-293h-137v700z
M430 350c0 -141 36 -242 143 -242c97 0 142 71 142 242c0 136 -30 242 -142 242c-96 0 -143 -75 -143 -242z" />
    <glyph glyph-name="uniF52F" unicode="&#xf52f;" horiz-adv-x="734" 
d="M191 678l110 26c9 -52 31 -71 66 -71c37 0 59 19 67 70l99 -25c-16 -87 -85 -128 -169 -128s-157 36 -173 128zM480 -13c-149 0 -206 82 -217 215h-76v-202h-130v500h130v-188h77c13 129 78 202 218 202c152 0 218 -106 218 -264c0 -169 -71 -263 -220 -263zM387 250
c0 -97 24 -154 93 -154c61 0 86 39 86 154c0 103 -21 154 -89 154c-61 0 -90 -42 -90 -154z" />
    <glyph glyph-name="uniF530" unicode="&#xf530;" horiz-adv-x="669" 
d="M540 0h-114v578h-149c-11 -253 -23 -414 -81 -507c-38 -61 -98 -77 -140 -77c-31 0 -49 5 -68 13l14 118c8 -3 16 -4 24 -4c21 0 42 11 58 35c39 59 61 221 66 544h413v-578h88v-246h-96z" />
    <glyph glyph-name="uniF531" unicode="&#xf531;" horiz-adv-x="563" 
d="M437 0h-108v385h-99c-16 -189 -35 -390 -165 -390c-39 0 -65 5 -81 14l16 108c10 -4 20 -6 29 -6c53 0 79 79 87 389h343v-385h88v-228h-95z" />
    <glyph glyph-name="uniF532" unicode="&#xf532;" horiz-adv-x="666" 
d="M468 0v388l8 91h-5l-46 -94l-262 -385h-103v700h137v-381l-10 -94h6l49 97l261 378h102v-720c0 -120 -41 -188 -150 -188c-21 0 -44 3 -71 8v108c5 0 10 -1 15 -1c57 0 69 34 69 93zM149 854l124 20c5 -43 33 -60 74 -60c45 0 69 20 74 59l111 -17
c-15 -84 -77 -121 -186 -121c-107 0 -186 28 -197 119z" />
    <glyph glyph-name="uniF533" unicode="&#xf533;" horiz-adv-x="545" 
d="M358 0v228l5 71h-3l-42 -73l-179 -226h-82v500h130v-238l-6 -68h4l41 71l180 235h82v-520c0 -121 -46 -187 -151 -187c-20 0 -41 2 -64 7v109c5 0 10 -1 15 -1c58 0 70 33 70 92zM109 678l110 26c9 -52 31 -71 66 -71c37 0 59 19 67 70l99 -25
c-16 -87 -85 -128 -169 -128s-157 36 -173 128z" />
    <glyph glyph-name="uniF534" unicode="&#xf534;" horiz-adv-x="670" 
d="M249 799c0 33 29 61 86 61s89 -28 89 -61c0 -35 -32 -62 -89 -62s-86 27 -86 62zM38 350c0 233 106 364 297 364c201 0 297 -145 297 -364c0 -233 -108 -363 -297 -363c-203 0 -297 144 -297 363zM182 350c0 -141 46 -242 153 -242c97 0 153 71 153 242
c0 136 -42 242 -153 242c-97 0 -153 -75 -153 -242z" />
    <glyph glyph-name="uniF535" unicode="&#xf535;" horiz-adv-x="537" 
d="M33 250c0 169 87 264 236 264c159 0 235 -106 235 -264c0 -169 -86 -263 -235 -263c-159 0 -236 105 -236 263zM167 250c0 -88 30 -154 102 -154c68 0 101 47 101 154c0 92 -28 154 -101 154c-64 0 -102 -45 -102 -154zM187 641c0 39 30 70 81 70s85 -31 85 -70
s-34 -68 -85 -68s-81 29 -81 68z" />
    <glyph glyph-name="uniF536" unicode="&#xf536;" horiz-adv-x="798" 
d="M208 854l124 20c5 -43 33 -60 74 -60c45 0 69 20 74 59l111 -17c-15 -84 -77 -121 -186 -121c-107 0 -186 28 -197 119zM737 0h-137v700h137v-700zM60 7v693h137v-251c15 3 51 8 82 8c134 0 249 -47 249 -224c0 -163 -95 -242 -282 -242c-36 0 -125 1 -186 16zM256 112
c76 0 128 32 128 115c0 88 -56 108 -127 108c-19 0 -49 -4 -60 -8v-209c15 -4 36 -6 59 -6z" />
    <glyph glyph-name="uniF537" unicode="&#xf537;" horiz-adv-x="703" 
d="M183 678l110 26c9 -52 31 -71 66 -71c37 0 59 19 67 70l99 -25c-16 -87 -85 -128 -169 -128s-157 36 -173 128zM187 229v-120c20 -4 39 -6 57 -6c60 0 81 21 81 68c0 43 -22 65 -78 65c-22 0 -42 -2 -60 -7zM57 500h130v-178c32 5 66 7 93 7c135 0 179 -66 179 -155
c0 -120 -60 -180 -227 -180c-76 0 -128 3 -175 6v500zM646 0h-130v500h130v-500z" />
    <glyph glyph-name="uniF538" unicode="&#xf538;" horiz-adv-x="526" 
d="M106 798c0 35 23 58 76 58c52 0 75 -23 75 -58s-23 -57 -75 -57c-53 0 -76 22 -76 57zM320 798c0 35 23 58 75 58c53 0 76 -23 76 -58s-23 -57 -76 -57c-52 0 -75 22 -75 57zM411 417v-107h-27c-20 0 -23 -1 -39 -1c-117 -4 -161 -39 -161 -100c0 -69 59 -101 130 -101
c68 0 126 21 157 36l37 -108c-36 -23 -119 -49 -205 -49c-160 0 -263 64 -263 208c0 97 49 158 136 175v5c-77 29 -114 93 -114 162c0 129 113 175 241 175c78 0 161 -24 191 -43l-36 -109c-33 15 -89 30 -137 30c-73 0 -115 -22 -115 -78c0 -52 45 -81 92 -89
c23 -7 65 -6 89 -6h24z" />
    <glyph glyph-name="uniF539" unicode="&#xf539;" horiz-adv-x="432" 
d="M58 633c0 43 28 70 71 70s69 -27 69 -70c0 -40 -26 -68 -69 -68s-71 28 -71 68zM277 633c0 43 26 70 69 70s71 -27 71 -70c0 -40 -28 -68 -71 -68s-69 28 -69 68zM323 298v-91h-49c-86 0 -111 -16 -111 -51s30 -57 90 -57c53 0 98 13 129 32l28 -101
c-35 -20 -90 -40 -163 -40c-147 0 -214 62 -214 150c0 68 30 105 97 124v4c-53 19 -78 65 -78 112c0 85 66 129 171 129c83 0 145 -19 185 -42l-28 -99c-24 15 -66 31 -118 31c-55 0 -80 -13 -80 -49c0 -31 33 -52 80 -52h61z" />
    <glyph glyph-name="afii10055.alt" unicode="&#xf53a;" horiz-adv-x="285" 
d="M58 799c0 33 29 61 86 61s89 -28 89 -61c0 -35 -32 -62 -89 -62s-86 27 -86 62zM211 0h-137v700h137v-700z" />
    <glyph glyph-name="afii10103.alt" unicode="&#xf53b;" horiz-adv-x="269" 
d="M200 0h-130v500h130v-500z" />
    <glyph glyph-name="uni0492.alt" unicode="&#xf53c;" horiz-adv-x="508" 
d="M197 0h-137v700h415v-122h-278v-173h256v-122h-256v-283z" />
    <glyph glyph-name="uni0493.alt" unicode="&#xf53d;" horiz-adv-x="408" 
d="M57 500h323v-115h-189v-108h169v-104h-169v-173h-134v500z" />
    <glyph glyph-name="uni04AA.alt" unicode="&#xf53e;" horiz-adv-x="559" 
d="M506 141l28 -112c-32 -23 -80 -34 -131 -39l-14 -164h-88l-19 168c-136 23 -244 129 -244 356c0 274 168 364 316 364c80 0 134 -12 170 -27l-27 -116c-31 15 -71 21 -131 21c-111 0 -184 -77 -184 -242c0 -144 65 -241 194 -241c60 0 99 13 130 32z" />
    <glyph glyph-name="uni04AB.alt" unicode="&#xf53f;" horiz-adv-x="433" 
d="M381 130l30 -99c-25 -18 -57 -31 -94 -37l-14 -168h-88l-19 166c-120 20 -163 119 -163 258c0 169 78 264 223 264c73 0 113 -13 149 -32l-31 -106c-31 15 -58 23 -97 23c-72 0 -110 -45 -110 -149c0 -84 36 -149 117 -149c44 0 73 13 97 29z" />
    <glyph glyph-name="uniF540" unicode="&#xf540;" horiz-adv-x="647" 
d="M301 752h-103l104 118h159v-30zM60 0v700c56 8 148 10 204 10c249 0 345 -146 345 -354c0 -188 -89 -366 -358 -366c-41 0 -156 5 -191 10zM275 588c-29 0 -63 -1 -78 -4v-469c10 -2 57 -4 70 -4c156 0 198 119 198 245c0 109 -37 232 -190 232z" />
    <glyph glyph-name="uniF541" unicode="&#xf541;" horiz-adv-x="539" 
d="M352 700h130v-524c0 -56 -1 -109 10 -176h-93l-18 64h-4c-27 -47 -78 -77 -146 -77c-125 0 -198 79 -198 255c0 171 79 270 228 270c41 0 64 -4 91 -15v203zM261 96c51 0 79 25 91 72v212c-19 15 -39 22 -75 22c-73 0 -110 -44 -110 -164c0 -85 29 -142 94 -142zM580 548
h-74l53 154h132v-30z" />
    <glyph glyph-name="uniF542" unicode="&#xf542;" horiz-adv-x="651" 
d="M346 752h-103l104 118h159v-30zM590 0h-137v293h-256v-293h-137v700h137v-285h256v285h137v-700z" />
    <glyph glyph-name="uniF543" unicode="&#xf543;" horiz-adv-x="545" 
d="M493 311v-311h-130v284c0 81 -19 115 -79 115c-44 0 -85 -33 -97 -80v-319h-130v700h130v-256h4c32 43 76 70 148 70c102 0 154 -47 154 -203zM343 566h-74l53 154h132v-30z" />
    <glyph glyph-name="uniF544" unicode="&#xf544;" horiz-adv-x="514" 
d="M323 548h-74l53 154h132v-30zM197 122h306v-122h-443v700h137v-578z" />
    <glyph glyph-name="uniF545" unicode="&#xf545;" horiz-adv-x="294" 
d="M61 700h130v-532c0 -47 11 -67 38 -67c16 0 29 2 52 11l14 -102c-21 -10 -70 -23 -117 -23c-76 0 -117 32 -117 113v600zM290 548h-74l53 154h132v-30z" />
    <glyph glyph-name="uniF546" unicode="&#xf546;" horiz-adv-x="568" 
d="M321 752h-103l104 118h159v-30zM11 700h546v-122h-204v-578h-137v578h-205v122z" />
    <glyph glyph-name="uniF547" unicode="&#xf547;" horiz-adv-x="349" 
d="M74 390h-69v110h69v94l130 37v-131h122v-110h-122v-192c0 -69 11 -97 50 -97c27 0 43 5 67 16l23 -100c-36 -17 -87 -30 -136 -30c-92 0 -134 43 -134 151v252zM325 548h-74l53 154h132v-30z" />
    <glyph glyph-name="uniF548" unicode="&#xf548;" horiz-adv-x="602" 
d="M339 752h-103l104 118h159v-30zM-8 700h158l140 -411l18 -119h5l20 120l134 410h144l-260 -704h-98z" />
    <glyph glyph-name="uniF549" unicode="&#xf549;" horiz-adv-x="477" 
d="M-13 500h150l93 -262l17 -77h5l14 79l85 260h140l-209 -504h-79zM260 566h-74l53 154h132v-30z" />
    <glyph glyph-name="uniF54A" unicode="&#xf54a;" horiz-adv-x="526" 
d="M147 310h-27v107h24c24 0 73 0 96 6c47 11 85 37 85 84c0 64 -44 83 -111 83c-60 0 -116 -20 -143 -35l-35 116c29 16 114 41 199 41c117 0 234 -37 234 -175c0 -69 -35 -133 -116 -160v-5c87 -17 138 -75 138 -171c0 -151 -133 -214 -270 -214c-88 0 -164 16 -203 36
l35 119c31 -15 89 -34 168 -34c60 0 125 28 125 104c0 63 -40 93 -160 97c-16 0 -19 1 -39 1z" />
    <glyph glyph-name="uniF54B" unicode="&#xf54b;" horiz-adv-x="437" 
d="M144 132h-43v90h61c47 0 90 42 90 93c0 59 -29 85 -93 85c-52 0 -80 -15 -104 -30l-28 98c40 23 100 41 177 41c121 0 179 -62 179 -157c0 -71 -41 -130 -92 -153v-4c68 -22 121 -68 121 -182c0 -145 -111 -223 -241 -223c-68 0 -121 18 -157 38l36 101
c31 -17 68 -30 104 -30c63 0 127 32 127 114c0 79 -52 119 -137 119z" />
    <glyph glyph-name="uniF54C" unicode="&#xf54c;" horiz-adv-x="526" 
d="M416 870v-40l-133 -93h-94l-127 94v39h105l53 -45l19 -30l21 29l56 46h100zM147 310h-27v107h24c24 0 73 0 96 6c47 11 85 37 85 84c0 64 -44 83 -111 83c-60 0 -116 -20 -143 -35l-35 116c29 16 114 41 199 41c117 0 234 -37 234 -175c0 -69 -35 -133 -116 -160v-5
c87 -17 138 -75 138 -171c0 -151 -133 -214 -270 -214c-88 0 -164 16 -203 36l35 119c31 -15 89 -34 168 -34c60 0 125 28 125 104c0 63 -40 93 -160 97c-16 0 -19 1 -39 1z" />
    <glyph glyph-name="uniF54D" unicode="&#xf54d;" horiz-adv-x="437" 
d="M268 732h101l-123 -182h-91l-115 182h110l39 -66l16 -49l18 49zM144 132h-43v90h61c47 0 90 42 90 93c0 59 -29 85 -93 85c-52 0 -80 -15 -104 -30l-28 98c40 23 100 41 177 41c121 0 179 -62 179 -157c0 -71 -41 -130 -92 -153v-4c68 -22 121 -68 121 -182
c0 -145 -111 -223 -241 -223c-68 0 -121 18 -157 38l36 101c31 -17 68 -30 104 -30c63 0 127 32 127 114c0 79 -52 119 -137 119z" />
    <glyph glyph-name="uniF62C" unicode="&#xf62c;" horiz-adv-x="223" 
d="M185 443c0 -39 -29 -64 -68 -64c-49 0 -79 34 -79 86c0 106 76 146 112 159l32 -54c-27 -11 -47 -36 -50 -63c27 0 53 -25 53 -64z" />
    <glyph glyph-name="uniF62D" unicode="&#xf62d;" horiz-adv-x="223" 
d="M38 469c0 39 29 65 69 65c48 0 78 -35 78 -87c0 -107 -76 -145 -112 -159l-33 55c27 12 50 31 53 62c-27 -1 -55 21 -55 64z" />
    <glyph glyph-name="uniF62E" unicode="&#xf62e;" horiz-adv-x="396" 
d="M185 445c0 -39 -29 -64 -68 -64c-49 0 -79 34 -79 86c0 106 76 146 112 159l32 -54c-27 -11 -47 -36 -50 -63c27 0 53 -25 53 -64zM358 445c0 -39 -29 -64 -68 -64c-49 0 -79 34 -79 86c0 106 76 146 112 159l32 -54c-27 -11 -47 -36 -50 -63c27 0 53 -25 53 -64z" />
    <glyph glyph-name="uniF62F" unicode="&#xf62f;" horiz-adv-x="396" 
d="M38 470c0 39 29 65 69 65c48 0 78 -35 78 -87c0 -107 -76 -145 -112 -159l-33 55c27 12 50 31 53 62c-27 -1 -55 21 -55 64zM211 470c0 39 29 65 69 65c48 0 78 -35 78 -87c0 -107 -76 -145 -112 -159l-33 55c27 12 50 31 53 62c-27 -1 -55 21 -55 64z" />
    <glyph glyph-name="uniF634" unicode="&#xf634;" horiz-adv-x="254" 
d="M168 309h-78v216h114z" />
    <glyph glyph-name="uniF635" unicode="&#xf635;" horiz-adv-x="402" 
d="M316 312h-78v216h114zM168 312h-78v216h114z" />
    <glyph glyph-name="one.numerator" unicode="&#xf662;" horiz-adv-x="412" 
d="M284 280h-115v264l11 46l-31 -32l-59 -39l-49 77l158 111h85v-427z" />
    <glyph glyph-name="uniF6C3" unicode="&#xf6c3;" horiz-adv-x="267" 
d="M60 -104c0 39 29 63 68 63c47 0 79 -32 79 -88c0 -88 -67 -132 -103 -143l-34 54c19 9 41 25 44 53c-27 -1 -54 20 -54 61z" />
    <glyph glyph-name="uniF6C9" unicode="&#xf6c9;" horiz-adv-x="383" 
d="M163 752h-103l104 118h159v-30z" />
    <glyph glyph-name="uniF6CA" unicode="&#xf6ca;" horiz-adv-x="474" 
d="M414 870v-40l-133 -93h-94l-127 94v39h105l53 -45l19 -30l21 29l56 46h100z" />
    <glyph glyph-name="uniF6CB" unicode="&#xf6cb;" horiz-adv-x="485" 
d="M60 798c0 35 23 58 76 58c52 0 75 -23 75 -58s-23 -57 -75 -57c-53 0 -76 22 -76 57zM274 798c0 35 23 58 75 58c53 0 76 -23 76 -58s-23 -57 -76 -57c-52 0 -75 22 -75 57z" />
    <glyph glyph-name="uniF6CE" unicode="&#xf6ce;" horiz-adv-x="383" 
d="M60 870h159l104 -118h-105l-158 88v30z" />
    <glyph glyph-name="uniF6CF" unicode="&#xf6cf;" horiz-adv-x="517" 
d="M153 741h-93l59 109h134v-16zM314 741h-94l97 109h140v-16z" />
    <glyph glyph-name="uniF6D0" unicode="&#xf6d0;" horiz-adv-x="463" 
d="M403 767h-343v89h343v-89z" />
    <glyph glyph-name="uniF6D1" unicode="&#xf6d1;" horiz-adv-x="503" 
d="M60 854l124 20c5 -43 33 -60 74 -60c45 0 69 20 74 59l111 -17c-15 -84 -77 -121 -186 -121c-107 0 -186 28 -197 119z" />
    </font>
</defs>
</svg>
