<?xml version="1.0" standalone="no"?>
<!DOCTYPE svg PUBLIC "-//W3C//DTD SVG 1.1//EN" "http://www.w3.org/Graphics/SVG/1.1/DTD/svg11.dtd" >
<svg xmlns="http://www.w3.org/2000/svg" xmlns:xlink="http://www.w3.org/1999/xlink" version="1.1">
<metadata>
Created by FontForge 20161116 at Tue Mar  4 15:36:10 1997
 By Jimmy Wärting
a_Helver *Arsenal Company (c) 1996*  FAX: (095)924-3775; e-Mail: arsenal@itco.msk.su; Phone: (095)924-5811 (Design and Featuring W.Chufarofsky)R-010
</metadata>
<defs>
<font id="AHelverBold" horiz-adv-x="1143" >
  <font-face 
    font-family="a_Helver"
    font-weight="700"
    font-stretch="normal"
    units-per-em="2048"
    panose-1="2 11 7 4 2 2 2 2 2 4"
    ascent="1638"
    descent="-410"
    x-height="1066"
    cap-height="1471"
    bbox="-100.001 -433 2642 1890"
    underline-thickness="150"
    underline-position="-345"
    unicode-range="U+0020-2219"
  />
<missing-glyph horiz-adv-x="1024" 
d="M128 0v1890h768v-1890h-768zM256 128h512v1634h-512v-1634z" />
    <glyph glyph-name=".notdef" horiz-adv-x="1024" 
d="M128 0v1890h768v-1890h-768zM256 128h512v1634h-512v-1634z" />
    <glyph glyph-name="space" unicode=" " horiz-adv-x="512" 
 />
    <glyph glyph-name="exclam" unicode="!" horiz-adv-x="679" 
d="M413 382h-157l-71 549v540h301v-540zM475 0h-278v278h278v-278z" />
    <glyph glyph-name="quotedbl" unicode="&#x22;" horiz-adv-x="975" 
d="M366 949h-203l-55 520h304zM819 949h-203l-55 520h305z" />
    <glyph glyph-name="numbersign" unicode="#" 
d="M87 601h198l30 244h-201l24 151h201l59 433h167l-59 -433h201l59 433h167l-59 -433h203l-26 -151h-200l-30 -244h203l-24 -148h-203l-55 -408h-167l55 408h-201l-55 -408h-167l55 408h-201zM455 601h197l29 244h-197z" />
    <glyph glyph-name="dollar" unicode="$" 
d="M681 1618l0.000976562 -135.003c117.333 -26 206.666 -83.667 267.999 -173c58 -84 87 -188 87 -312h-235c0 186.667 -76.667 280 -230 280c-140.667 0 -211 -63 -211 -189c0 -62 20 -108.333 60 -139c31.333 -24 91 -48 179 -72c156 -42.667 268 -89.334 336 -140.001
c100 -74.667 150 -179 150 -313c0 -116.667 -38.667 -215.667 -116 -297c-74.667 -79.333 -170.667 -126.666 -288 -141.999v-222h-203v226c-266 48 -399 227.333 -399 538h238c0 -219.333 93.333 -329 280 -329c160 0 240 72 240 216c0 78.667 -35 137.334 -105 176.001
c-23.333 12.667 -94 36.334 -212 71.001c-129.333 38 -223 81.667 -281 131c-80.667 68.667 -121 163.334 -121 284.001c0 105.333 34.333 196 103 272c66 73.333 151.667 119.333 257 138v131h203z" />
    <glyph glyph-name="percent" unicode="%" horiz-adv-x="1837" 
d="M319 -33l1034 1492h214l-1031 -1492h-217zM398 1459c102 0 191.499 -36.334 268.499 -109.001s115.5 -159.667 115.5 -261c0 -102 -38.167 -189.5 -114.5 -262.5s-165.5 -109.5 -267.5 -109.5c-103.333 0 -193.166 36.333 -269.499 109s-114.5 160.334 -114.5 263.001
c0 102 38.167 189.167 114.5 261.5s165.5 108.5 267.5 108.5zM399.999 1272c-51.333 0 -92.832 -17.501 -124.499 -52.501s-47.5 -78.5 -47.5 -130.5c0 -51.333 15.667 -94.666 47 -129.999s72.333 -53 123 -53c49.333 0 90.666 18.333 123.999 55
c31.333 35.333 47 78 47 128c0 48.667 -15.667 91 -47 127c-33.333 37.333 -74 56 -122 56zM1490 710.998c102.667 0 192.334 -36.498 269.001 -109.498s115 -160.5 115 -262.5c0 -102.667 -38.333 -190.334 -115 -263.001s-166.334 -109 -269.001 -109
s-191.667 36.333 -267 109c-77.333 73.333 -116 161 -116 263c0 101.333 38.333 188.666 115 261.999s166 110 268 110zM1490 524c-48 0 -88.5 -18.668 -121.5 -56.001s-49.5 -80.333 -49.5 -129c0 -49.333 16 -91.666 48 -126.999c33.333 -37.333 74.333 -56 123 -56
c51.333 0 93 18 125 54c31.333 34 47 77 47 129c0 51.333 -16 95 -48 131s-73.333 54 -124 54z" />
    <glyph glyph-name="ampersand" unicode="&#x26;" horiz-adv-x="1524" 
d="M1025 731l287.002 -0.00195312c-40 -182.667 -81.333 -305.334 -124 -368.001l298 -363h-359l-116 130c-116.667 -102 -250 -153 -400 -153c-134 0 -248.667 40.667 -344 122c-100 86 -150 195 -150 327c0 168.667 103 308.334 309 419.001
c-88.667 114.667 -133 216.334 -133 305.001c0 100 43 184 129 252c80 63.333 171.333 95 274 95c97.333 0 183.666 -31 258.999 -93c79.333 -66 119 -146.667 119 -242c0 -136.667 -85.333 -253 -256 -349l173 -216c5.33301 14.667 16.666 59.334 33.999 134.001z
M661.002 1014l25 -27c67.333 46.667 101 103.667 101 171c0 84 -33 126 -99 126c-73.333 0 -110 -39.333 -110 -118c0 -41.333 27.667 -92 83 -152zM613.002 198.998c91.333 0 168.333 43.333 231 130l-274 341c-108.667 -69.333 -163 -147 -163 -233
c0 -61.333 18.667 -115.333 56 -162c40 -50.667 90 -76 150 -76z" />
    <glyph glyph-name="quotesingle" unicode="'" horiz-adv-x="490" 
d="M349 949h-203l-53 520h305z" />
    <glyph glyph-name="parenleft" unicode="(" horiz-adv-x="681" 
d="M608 -433h-210c-210 316.667 -315 639 -315 967c0 338 105 658.667 315 962h214c-83.333 -182 -142.333 -337.667 -177 -467c-40.667 -154 -61 -319 -61 -495c0 -320.667 78 -643 234 -967z" />
    <glyph glyph-name="parenright" unicode=")" horiz-adv-x="681" 
d="M73 -433c156 324 234 646.332 234 966.999c0 174.667 -19.333 336.334 -58 485.001c-34 130.667 -94 289.667 -180 477h215c210 -303.333 315 -624 315 -962c0 -328 -105 -650.333 -315 -967h-211z" />
    <glyph glyph-name="asterisk" unicode="*" horiz-adv-x="799" 
d="M248 776l-151.999 118l197 201l-265 67l61 177l240 -122l-24 277h181l-29 -275l262 110l53 -181l-266 -53l179 -209l-151 -102l-140 232c-36.667 -62.667 -85.334 -142.667 -146.001 -240z" />
    <glyph glyph-name="plus" unicode="+" horiz-adv-x="1199" 
d="M725 213h-254v384h-386v259h386v384h254v-384h389v-259h-389v-384z" />
    <glyph glyph-name="comma" unicode="," horiz-adv-x="569" 
d="M158 2v278.001h277v-199c0 -108 -16.333 -192 -49 -252c-37.333 -68.667 -103 -120.667 -197 -156l-55 112c105.333 33.333 159 105.666 161 216.999h-137z" />
    <glyph glyph-name="hyphen" unicode="-" horiz-adv-x="679" 
d="M614 396h-549v275h549v-275z" />
    <glyph glyph-name="hyphen" unicode="&#x2010;" horiz-adv-x="679" 
d="M614 396h-549v275h549v-275z" />
    <glyph glyph-name="period" unicode="." horiz-adv-x="569" 
d="M424 0h-279v278h279v-278z" />
    <glyph glyph-name="slash" unicode="/" horiz-adv-x="565" 
d="M201 -24h-205l364 1520h209z" />
    <glyph glyph-name="zero" unicode="0" 
d="M567 1477c319.333 0 479 -250 479 -750c0 -500.667 -159.667 -751 -479 -751c-182.667 0 -311.667 74.667 -387 224c-59.333 118 -89 294.333 -89 529c0 498.667 158.667 748 476 748zM567 1248c-76.667 0 -128.667 -43.668 -156 -131.001c-18 -58 -27 -152.667 -27 -284
v-193c0 -136.667 9 -235.667 27 -297c26.667 -92 78.667 -138 156 -138c78 0 130.667 44.667 158 134c18 58.667 27 155.667 27 291v193c0 134.667 -9 231.334 -27 290.001c-27.333 90 -80 135 -158 135z" />
    <glyph glyph-name="one" unicode="1" 
d="M260 0v242h207v900c-32 -28.667 -80 -51 -144 -67l-63 203c112.667 46.667 200 113 262 199h224v-1235h181v-242h-667z" />
    <glyph glyph-name="two" unicode="2" 
d="M480 256l563.999 0.000976562v-256h-987c14.667 118.667 57 227.667 127 327c52.667 74.667 148.334 176.334 287.001 305.001c128.667 119.333 199.334 186.666 212.001 201.999c52.667 63.333 79 134.333 79 213c0 61.333 -16.667 110.166 -50 146.499
s-80.333 54.5 -141 54.5c-136.667 0 -205 -77.333 -205 -232h-277c0 143.333 45.333 256.666 136 339.999c88 80.667 204 121 348 121c133.333 0 243.333 -34.333 330 -103c94 -74.667 141 -177 141 -307c0 -107.333 -34.333 -211.666 -103 -312.999
c-46 -66.667 -122 -148.667 -228 -246c-136.667 -125.333 -214.334 -209.333 -233.001 -252z" />
    <glyph glyph-name="three" unicode="3" 
d="M81 425l269 0.000976562c0 -62 19.667 -114.167 59 -156.5s90 -63.5 152 -63.5c66.667 0 119.334 25.333 158.001 76c35.333 46 53 103.333 53 172c0 70.667 -20.833 127 -62.5 169s-97.834 63 -168.501 63h-68v205h45c130 0 195 64.333 195 193
c0 49.333 -15.333 89.166 -46 119.499s-70.667 45.5 -120 45.5c-56 0 -100.167 -19.5 -132.5 -58.5s-48.5 -86.833 -48.5 -143.5h-264c0 128 43.667 232.333 131 313c85.333 78.667 192.666 118 321.999 118c116.667 0 216.667 -34 300 -102c90 -72.667 135 -166 135 -280
c0 -125.333 -72 -227 -216 -305c89.333 -9.33301 160 -48.333 212 -117c48.667 -63.333 73 -141.333 73 -234c0 -134 -49.333 -245.333 -148 -334c-95.333 -86 -210.666 -129 -345.999 -129c-136 0 -249.667 40.333 -341 121c-95.333 84 -143 193.333 -143 328z" />
    <glyph glyph-name="four" unicode="4" 
d="M898 0h-270v301h-568l-36 219l626 957h248v-957h183v-219h-183v-301zM313 520h315v533z" />
    <glyph glyph-name="five" unicode="5" 
d="M96 408l279.999 -0.00195312c0 -57.333 20.5 -106.833 61.5 -148.5s90.167 -62.5 147.5 -62.5c73.333 0 128.666 32 165.999 96c30.667 52 46 117.667 46 197c0 78.667 -17.333 141.667 -52 189c-39.333 54 -96.666 81 -171.999 81
c-83.333 0 -155.666 -35.333 -216.999 -106l-228 33l120 764h772v-260h-551l-28 -258c61.333 32 126.333 48 195 48c133.333 0 242 -47.667 326 -143c80.667 -91.333 121 -204.666 121 -339.999c0 -146 -46 -269 -138 -369c-95.333 -102 -215.333 -153 -360 -153
c-135.333 0 -249 37.333 -341 112c-98.667 80.667 -148 187.334 -148 320.001z" />
    <glyph glyph-name="six" unicode="6" 
d="M1047 1093l-271.002 -0.000976562c-13.333 103.333 -68 155 -164 155c-139.333 0 -216 -141 -230 -423c72 85.333 160 128 264 128c128.667 0 233.334 -48.667 314.001 -146c75.333 -91.333 113 -202.666 113 -333.999c0 -143.333 -42.333 -261.333 -127 -354
c-87.333 -95.333 -202 -143 -344 -143c-339.333 0 -509 247 -509 741c0 212 35.333 382.667 106 512c90.667 165.333 233 248 427 248c114.667 0 212.334 -35 293.001 -105c85.333 -73.333 128 -166.333 128 -279zM393.998 495.999
c0 -73.333 18.001 -137.999 54.001 -193.999c41.333 -64.667 96.666 -97 165.999 -97c124.667 0 187 88.667 187 266c0 76.667 -14 139 -42 187c-34 60 -86.333 90 -157 90c-66 0 -118 -26.333 -156 -79c-34.667 -46.667 -52 -104.334 -52 -173.001z" />
    <glyph glyph-name="seven" unicode="7" 
d="M736 1191h-661v260h980v-228c-136.667 -136.667 -247.667 -325.667 -333 -567c-80 -226 -120 -444.667 -120 -656h-283c0 436.667 139 833.667 417 1191z" />
    <glyph glyph-name="eight" unicode="8" 
d="M339 795c-143.333 59.333 -214.999 165.667 -214.999 319c0 113.333 46.667 204 140 272c83.333 60.667 183.666 91 300.999 91c119.333 0 220.333 -30 303 -90c93.333 -67.333 140 -158.333 140 -273c0 -152.667 -69.667 -259 -209 -319
c170.667 -70 256 -199.667 256 -389c0 -129.333 -48 -235 -144 -317c-90.667 -76.667 -202 -115 -334 -115c-134 0 -247.333 38 -340 114c-98.667 80.667 -148 186.667 -148 318c0 187.333 83.333 317 250 389zM390.001 1077c0 -55.333 15.501 -99.001 46.501 -131.001
s73.833 -48 128.5 -48c119.333 0 179 60.333 179 181c0 52.667 -16.333 95.334 -49 128.001s-75.334 49 -128.001 49c-54 0 -97 -16.333 -129 -49s-48 -76 -48 -130zM362.002 447c0 -166.667 70.334 -250.001 211.001 -250.001c135.333 0 203 82.667 203 248
c0 65.333 -18 119.333 -54 162c-38 45.333 -89 68 -153 68c-62.667 0 -112.834 -22.167 -150.501 -66.5s-56.5 -98.166 -56.5 -161.499z" />
    <glyph glyph-name="nine" unicode="9" 
d="M95 360h271.003c13.333 -103.333 68 -155 164 -155c139.333 0 216 141 230 423c-72 -85.333 -160 -128 -264 -128c-128.667 0 -233.334 49 -314.001 147c-75.333 91.333 -113 202.666 -113 333.999c0 142.667 42.333 260.334 127 353.001
c87.333 95.333 201.666 143 342.999 143c340 0 510 -247 510 -741c0 -212 -35.333 -382.667 -106 -512c-90.667 -165.333 -233 -248 -427 -248c-114.667 0 -212.334 35 -293.001 105c-85.333 73.333 -128 166.333 -128 279zM748.003 957c0 73.333 -18.001 138 -54.001 194
c-41.333 64.667 -96.666 97 -165.999 97c-124.667 0 -187 -88.667 -187 -266c0 -76 13.667 -138.333 41 -187c34.667 -60 87 -90 157 -90c66 0 118.333 26 157 78c34.667 47.333 52 105.333 52 174z" />
    <glyph glyph-name="colon" unicode=":" horiz-adv-x="683" 
d="M480 784h-277v281h277v-281zM480 0h-277v280h277v-280z" />
    <glyph glyph-name="semicolon" unicode=";" horiz-adv-x="683" 
d="M475 786h-280v279h280v-279zM195 0v280.001h280v-201c0 -108.667 -16.333 -193 -49 -253c-38 -68 -104.667 -119.667 -200 -155l-53 112c103.333 31.333 156 103.666 158 216.999h-136z" />
    <glyph glyph-name="less" unicode="&#x3c;" horiz-adv-x="1199" 
d="M1103 449v-278l-1007 437v239l1007 435v-282l-707 -270z" />
    <glyph glyph-name="equal" unicode="=" horiz-adv-x="1199" 
d="M1114 821h-1029v256h1029v-256zM1114 374h-1029v258h1029v-258z" />
    <glyph glyph-name="greater" unicode="&#x3e;" horiz-adv-x="1199" 
d="M1105 608l-1009 -439v278l711 280l-711 275v280l1009 -437v-237z" />
    <glyph glyph-name="question" unicode="?" horiz-adv-x="1256" 
d="M358 1047l-256 -0.000976562c0 137.333 55 246.666 165 327.999c98.667 73.333 219 110 361 110c140 0 260.667 -36 362 -108c112 -79.333 168 -184 168 -314c0 -84 -25 -157 -75 -219c-37.333 -46 -106.333 -105 -207 -177c-53.333 -38 -88.333 -72.833 -105 -104.5
s-25 -80.167 -25 -145.5v-27h-250v55c0 95.333 14.167 169.833 42.5 223.5s81.833 107.167 160.5 160.5c75.333 51.333 124.333 91 147 119c25.333 32 38 73 38 123c0 62.667 -25.333 113.334 -76 152.001c-46 35.333 -101.333 53 -166 53c-78.667 0 -143.667 -18 -195 -54
c-59.333 -41.333 -89 -99.666 -89 -174.999zM760 -0.000976562h-276v278h276v-278z" />
    <glyph glyph-name="at" unicode="@" horiz-adv-x="1699" 
d="M884 1335c183.333 0 341.999 -54.001 475.999 -162.001c143.333 -116 215 -263.667 215 -443c0 -161.333 -37.333 -292 -112 -392c-83.333 -112.667 -202.666 -169 -357.999 -169c-38.667 0 -79 31 -121 93c-55.333 -62 -127.333 -93 -216 -93
c-100 0 -179.333 40 -238 120c-52.667 72 -79 160 -79 264c0 133.333 39 242.333 117 327c80 88 186 132 318 132c50 0 98 -14.667 144 -44s78 -66.666 96 -111.999l24 117l142 -16l-122 -573c0 -31.333 9.66699 -47 29 -47c76.667 0 135 51 175 153
c29.333 75.333 44 158 44 248c0 132 -57.667 240 -173 324c-104 76.667 -224.333 115 -361 115c-160.667 0 -296.667 -58.667 -408 -176c-108.667 -115.333 -163 -254 -163 -416c0 -158.667 54.333 -295.334 163 -410.001c110 -116.667 244 -175 402 -175
c155.333 0 287.333 37.333 396 112l89 -108c-140.667 -108 -295 -162 -463 -162c-216 0 -398.667 71.333 -548 214c-152 144.667 -228 324.334 -228 539.001c0 203.333 76 378 228 524c150 144 327.333 216 532 216zM883.999 822.999
c-70 0 -128.168 -25.332 -174.501 -75.999s-69.5 -111.334 -69.5 -182.001c0 -134 59 -201 177 -201c68.667 0 126.334 32 173.001 96c42 58 63 122.667 63 194c0 46 -16.667 85.667 -50 119s-73 50 -119 50z" />
    <glyph glyph-name="A" unicode="A" horiz-adv-x="1477" 
d="M727 1181l-217 -614h439zM1034 337h-605l-118 -337h-311l545 1471h369l563 -1471h-321z" />
    <glyph glyph-name="B" unicode="B" horiz-adv-x="1453" 
d="M154 0v1471h602c352 0 528 -124 528 -372c0 -70 -19 -133.5 -57 -190.5s-89.333 -99.167 -154 -126.5c88 -24 157.333 -67 208 -129s76 -138 76 -228c0 -162.667 -54 -277.667 -162 -345c-85.333 -53.333 -215.333 -80 -390 -80h-651zM449 1231l0.000976562 -345h293
c170.667 0 256 57.667 256 173c0 70.667 -26.667 119 -80 145c-36.667 18 -95.334 27 -176.001 27h-293zM449.001 632v-388h311c195.333 0 293 65.667 293 197c0 88 -36.333 148.333 -109 181c-49.333 22.667 -125 34 -227 34c-114 0 -203.333 -8 -268 -24z" />
    <glyph glyph-name="C" unicode="C" horiz-adv-x="1455" 
d="M1384 539c0 -175.333 -59.667 -314.333 -179 -417c-113.333 -97.333 -259 -146 -437 -146c-218.667 0 -388.667 71 -510 213c-114 133.333 -171 311.333 -171 534c0 240 57.333 426.667 172 560c122 142 300.667 213 536 213c158 0 293 -43.333 405 -130
c121.333 -94 182 -217.333 182 -370h-291c0 70 -36.333 131.667 -109 185c-67.333 48.667 -137.333 73 -210 73c-253.333 0 -380 -175 -380 -525c0 -142.667 26.333 -257.667 79 -345c64 -106.667 162.333 -160 295 -160c86.667 0 163.5 31 230.5 93s100.5 136 100.5 222
h287z" />
    <glyph glyph-name="D" unicode="D" horiz-adv-x="1489" 
d="M154 0v1471h535c233.333 0 412 -66.667 536 -200c120.667 -129.333 181 -311.333 181 -546c0 -232 -58.333 -410 -175 -534c-120 -127.333 -295.333 -191 -526 -191h-551zM449 1227v-983h215c158 0 271.667 43 341 129c62.667 78 94 198.333 94 361
c0 178 -28 302.333 -84 373c-64 80 -181 120 -351 120h-215z" />
    <glyph glyph-name="E" unicode="E" horiz-adv-x="1351" 
d="M1246 0h-1092v1471h1065v-244h-770v-335h681v-242h-681v-406h797v-244z" />
    <glyph glyph-name="F" unicode="F" horiz-adv-x="1227" 
d="M449 0h-295v1471h984v-244h-689v-339h563v-244h-563v-644z" />
    <glyph glyph-name="G" unicode="G" horiz-adv-x="1593" 
d="M1446 1006l-300.999 0.000976562c-10.667 65.333 -46 121 -106 167c-63.333 48 -138.666 72 -225.999 72c-136 0 -242 -42.667 -318 -128s-114 -207 -114 -365c0 -162.667 36.333 -290.334 109 -383.001c74.667 -96 179.667 -144 315 -144c107.333 0 197 29.333 269 88
c66 54 104 120.333 114 199v37h-334v237h612v-786h-239l-10 143c-31.333 -40 -91.333 -78 -180 -114s-169.334 -54 -242.001 -54c-208.667 0 -380.334 70.833 -515.001 212.5s-202 325.5 -202 551.5c0 227.333 64.333 409.333 193 546c132 140.667 311.333 211 538 211
c366 0 578.333 -163.333 637 -490z" />
    <glyph glyph-name="H" unicode="H" horiz-adv-x="1500" 
d="M449 0h-295v1471h295v-585h602v585h296v-1471h-296v644h-602v-644z" />
    <glyph glyph-name="I" unicode="I" horiz-adv-x="614" 
d="M455 0h-296v1471h296v-1471z" />
    <glyph glyph-name="J" unicode="J" horiz-adv-x="1128" 
d="M39 484h278v-41c0 -146 62.333 -219 187 -219c77.333 0 129 25.333 155 76c17.333 34 26 95.333 26 184v987h296v-987c0 -338.667 -162.333 -508 -487 -508c-303.333 0 -455 169.333 -455 508z" />
    <glyph glyph-name="K" unicode="K" horiz-adv-x="1459" 
d="M449 0h-295v1471h295v-632l583 632h395l-553 -571l585 -900h-382l-406 695l-222 -226v-469z" />
    <glyph glyph-name="L" unicode="L" horiz-adv-x="1240" 
d="M1173 0h-1017v1459h295v-1215h722v-244z" />
    <glyph glyph-name="M" unicode="M" horiz-adv-x="1711" 
d="M413 0h-269v1471h445l267 -1012l266 1012h449v-1471h-272v1136l-324 -1136h-237l-325 1136v-1136z" />
    <glyph glyph-name="N" unicode="N" horiz-adv-x="1485" 
d="M429 0h-273v1471h317l576 -993v993h274v-1471h-315l-579 1000v-1000z" />
    <glyph glyph-name="O" unicode="O" horiz-adv-x="1605" 
d="M83 727c0 233.333 60.667 418.333 182 555c126.667 142.667 305.334 214 536.001 214c227.333 0 405.666 -71 534.999 -213c124 -136.667 186 -319.667 186 -549c0 -222.667 -59.667 -402.667 -179 -540c-126 -145.333 -298.667 -218 -518 -218
c-231.333 0 -412.833 67.333 -544.5 202s-197.5 317.667 -197.5 549zM384 736c0 -145.333 33.001 -263.999 99.001 -355.999c74.667 -104 182 -156 322 -156s246.667 52.667 320 158c64 91.333 96 210 96 356c0 147.333 -32 265.666 -96 354.999
c-72.667 102 -179.334 153 -320.001 153c-142 0 -250 -51 -324 -153c-64.667 -90 -97 -209 -97 -357z" />
    <glyph glyph-name="P" unicode="P" horiz-adv-x="1337" 
d="M449 0h-295v1471h539c170 0 297.333 -23.667 382 -71c123.333 -69.333 185 -196 185 -380c0 -310 -189 -465 -567 -465h-244v-555zM449 1227v-424h218c192 0 288 71 288 213c0 140.667 -96 211 -288 211h-218z" />
    <glyph glyph-name="Q" unicode="Q" horiz-adv-x="1597" 
d="M79 727c0 233.333 60.667 418.333 182 555c126.667 142.667 305.334 214 536.001 214c227.333 0 405.666 -71 534.999 -213c124 -136.667 186 -319.667 186 -549c0 -232.667 -67 -419 -201 -559l201 -165l-148 -179l-232 214c-96 -46 -201.667 -69 -317 -69
c-231.333 0 -412.833 67.333 -544.5 202s-197.5 317.667 -197.5 549zM797 360l111.002 154.001l191 -158c78.667 94.667 118 222 118 382c0 147.333 -32 265.666 -96 354.999c-72.667 102 -179.334 153 -320.001 153c-142 0 -250 -51 -324 -153
c-64.667 -90 -97 -209 -97 -357c0 -145.333 33 -264 99 -356c74.667 -104 182 -156 322 -156c45.333 0 86.666 6 123.999 18z" />
    <glyph glyph-name="R" unicode="R" horiz-adv-x="1400" 
d="M449 0l-294.999 0.000976562v1471h628c146.667 0 263 -29.667 349 -89c99.333 -68.667 149 -173 149 -313c0 -170 -75.667 -281.667 -227 -335c81.333 -30.667 138 -81.334 170 -152.001c26 -56 39 -132.667 39 -230c0 -140 23.667 -257.333 71 -352h-287
c-44.667 108.667 -67 221 -67 337c0 211.333 -96 317 -288 317c-94.667 0 -175.334 -4.66699 -242.001 -14v-640zM449.001 1240v-393h264c187.333 0 281 68 281 204c0 126 -88 189 -264 189h-281z" />
    <glyph glyph-name="S" unicode="S" horiz-adv-x="1374" 
d="M77 490l285.003 0.000976562c0 -90 32.333 -158.667 97 -206c57.333 -42 132.666 -63 225.999 -63c75.333 0 139.666 14.667 192.999 44c66 36.667 99 90 99 160c0 50 -20.667 89 -62 117c-54.667 37.333 -159 72 -313 104c-151.333 31.333 -262 73.666 -332 126.999
c-93.333 70.667 -140 174 -140 310c0 142 56.333 249 169 321c95.333 61.333 218 92 368 92c162 0 292.667 -33.667 392 -101c116 -78.667 174 -195 174 -349h-296c0 72 -28.333 126 -85 162c-47.333 30.667 -109.333 46 -186 46c-62 0 -115.667 -9.66699 -161 -29
c-62 -26 -93 -66 -93 -120c0 -47.333 17.667 -82.333 53 -105c40 -26 133 -58 279 -96c178 -46 302.333 -94.667 373 -146c103.333 -74.667 155 -185 155 -331c0 -158 -61.333 -276.333 -184 -355c-102.667 -65.333 -237.667 -98 -405 -98
c-174.667 0 -316.334 41.667 -425.001 125c-120.667 92 -181 222.333 -181 391z" />
    <glyph glyph-name="T" unicode="T" horiz-adv-x="1252" 
d="M774 0h-296v1227h-437v244h1170v-244h-437v-1227z" />
    <glyph glyph-name="U" unicode="U" horiz-adv-x="1469" 
d="M148 1471h294.999v-949c0 -198.667 97 -298 291 -298c194.667 0 292 99.333 292 298v949h295v-993c0 -171.333 -56.333 -300 -169 -386c-101.333 -77.333 -240.666 -116 -417.999 -116s-316.333 38.667 -417 116c-112.667 86 -169 214.667 -169 386v993z" />
    <glyph glyph-name="V" unicode="V" horiz-adv-x="1364" 
d="M858 0h-348l-510 1471h321l366 -1117l366 1117h315z" />
    <glyph glyph-name="W" unicode="W" horiz-adv-x="1949" 
d="M683 0h-321l-350 1471h301l223 -1058l273 1058h339l270 -1058l232 1058h291l-356 -1471h-313l-295 1116z" />
    <glyph glyph-name="X" unicode="X" horiz-adv-x="1363" 
d="M45 1471h337l299 -455l300 455h336l-470 -705l516 -766h-349l-333 514l-332 -514h-349l516 766z" />
    <glyph glyph-name="Y" unicode="Y" horiz-adv-x="1359" 
d="M825 0h-293v636l-526 835h341l338 -591l337 591h331l-528 -835v-636z" />
    <glyph glyph-name="Z" unicode="Z" horiz-adv-x="1252" 
d="M1211 0h-1164l-17 244l793 983h-750v244h1088l20 -244l-787 -983h817v-244z" />
    <glyph glyph-name="bracketleft" unicode="[" horiz-adv-x="681" 
d="M644 -413h-496v1884h496v-219h-232v-1449h232v-216z" />
    <glyph glyph-name="backslash" unicode="\" horiz-adv-x="565" 
d="M360 -24l-364 1520h205l368 -1520h-209z" />
    <glyph glyph-name="bracketright" unicode="]" horiz-adv-x="681" 
d="M37 1471h497v-1884h-497v216h233v1453h-233v215z" />
    <glyph glyph-name="asciicircum" unicode="^" horiz-adv-x="1199" 
d="M599 1211l-164 -329h-277l336 624h207l341 -624h-276z" />
    <glyph glyph-name="underscore" unicode="_" 
d="M1156 -404h-1168v178h1168v-178z" />
    <glyph glyph-name="grave" unicode="`" horiz-adv-x="681" 
d="M362 1197l-273 297h321l139 -297h-187z" />
    <glyph glyph-name="a" unicode="a" horiz-adv-x="1141" 
d="M359 743l-253.002 0.000976562c29.333 122 81.333 210.333 156 265c72.667 54.667 173.667 82 303 82c162.667 0 277.334 -28 344.001 -84c72 -60 108 -164.667 108 -314v-400c0 -118 17.667 -215.333 53 -292h-268c-17.333 38.667 -30.666 78 -39.999 118
c-67.333 -94.667 -177.666 -142 -330.999 -142c-106.667 0 -192.334 25.167 -257.001 75.5s-97 118.5 -97 204.5c0 105.333 27.667 181.666 83 228.999c52 44.667 153.667 84 305 118c102 22.667 153.667 34.334 155 35.001c69.333 21.333 109.666 49.666 120.999 84.999
c0 104 -63 156 -189 156c-99.333 0 -163.666 -45.333 -192.999 -136zM740.998 374.001l0.000976562 139.999c-26.667 -24 -99 -45.667 -217 -65c-58.667 -9.33301 -100.334 -25.666 -125.001 -48.999c-28 -25.333 -42 -65.333 -42 -120c0 -76.667 53 -115 159 -115
c72 0 128.333 20.667 169 62c37.333 38 56 87 56 147z" />
    <glyph glyph-name="b" unicode="b" horiz-adv-x="1257" 
d="M368 0h-236.001v1472h280v-536c89.333 101.333 193 152 311 152c135.333 0 243.333 -48 324 -144c83.333 -98 125 -231.333 125 -400c0 -156.667 -36.333 -287.667 -109 -393c-81.333 -116.667 -192.666 -175 -333.999 -175c-132.667 0 -243.667 61.333 -333 184z
M884.999 530c0 231.333 -79.667 347 -239 347c-73.333 0 -133 -28.333 -179 -85c-47.333 -59.333 -71 -138 -71 -236c0 -106.667 20.333 -191.667 61 -255c45.333 -70.667 112.333 -106 201 -106c68 0 122.833 29.167 164.5 87.5s62.5 140.833 62.5 247.5z" />
    <glyph glyph-name="c" unicode="c" horiz-adv-x="1158" 
d="M1076 692l-283.999 -0.000976562c-10 119.333 -75 179 -195 179c-155.333 0 -233 -106.333 -233 -319c0 -123.333 17.667 -212.666 53 -267.999s92.666 -83 171.999 -83c68.667 0 122.334 18.667 161.001 56s58 89.666 58 156.999h285c0 -120 -38.667 -219.667 -116 -299
c-90 -92.667 -219.333 -139 -388 -139c-170.667 0 -300.334 51.333 -389.001 154c-83.333 96.667 -125 231.334 -125 404.001c0 173.333 42.333 308 127 404c88.667 101.333 217.667 152 387 152c138 0 249.667 -34.667 335 -104s136 -167.333 152 -294z" />
    <glyph glyph-name="d" unicode="d" horiz-adv-x="1257" 
d="M1121 1472v-1472h-238l-26 160c-85.333 -122.667 -195 -184 -329 -184c-141.333 0 -253.333 58.333 -336 175c-74 104.667 -111 233.667 -111 387c0 172.667 41.667 308.334 125 407.001c81.333 95.333 189.333 143 324 143c120 0 223.667 -50.667 311 -152v536h280z
M366 555.999c0 -240.667 80.333 -361.001 241 -361.001c71.333 0 130.333 29.333 177 88c48.667 62 73 144.333 73 247c0 231.333 -83.333 347 -250 347c-76 0 -135.167 -29.167 -177.5 -87.5s-63.5 -136.166 -63.5 -233.499z" />
    <glyph glyph-name="e" unicode="e" horiz-adv-x="1141" 
d="M776 323h286.001c-60.667 -231.333 -216.334 -347 -467.001 -347c-170.667 0 -300.667 48.667 -390 146c-86.667 94.667 -130 228.667 -130 402c0 179.333 41.667 318.5 125 417.5s204.333 148.5 363 148.5c338 0 507 -209.667 507 -629h-712
c0 -185.333 71.667 -278 215 -278c117.333 0 185 46.667 203 140zM361.001 627l430.999 -0.000976562c0 78 -20.667 140 -62 186c-39.333 44 -89.666 66 -150.999 66c-62 0 -113.833 -23.167 -155.5 -69.5s-62.5 -107.166 -62.5 -182.499z" />
    <glyph glyph-name="f" unicode="f" horiz-adv-x="682" 
d="M26 845v219h157v85c0 232 107.667 348 323 348c90 0 161.667 -11.667 215 -35l-37 -197c-20.667 13.333 -57 20 -109 20c-77.333 0 -116 -47.333 -116 -142v-79h195v-219h-195v-845h-276v845h-157z" />
    <glyph glyph-name="g" unicode="g" horiz-adv-x="1257" 
d="M116 -102h323c0 -79.333 54.667 -119 164 -119c88.667 0 150.5 17.5 185.5 52.5s52.5 95.833 52.5 182.5v165c-80.667 -107.333 -187 -161 -319 -161c-139.333 0 -249.333 52 -330 156c-74 95.333 -111 215.333 -111 360c0 162 37 293 111 393
c80.667 108.667 194 163 340 163c128.667 0 237.667 -59.333 327 -178l30 154h232v-958c0 -186.667 -36.333 -322 -109 -406c-78.667 -90 -209.667 -135 -393 -135c-335.333 0 -503 110.333 -503 331zM366 554c0 -102 20.168 -182 60.501 -240s97.833 -87 172.5 -87
c70 0 127.667 26.333 173 79c48.667 58 73 139.333 73 244c0 98.667 -20 177 -60 235c-42.667 62.667 -103.334 94 -182.001 94c-76 0 -135 -30.667 -177 -92c-40 -58 -60 -135.667 -60 -233z" />
    <glyph glyph-name="h" unicode="h" horiz-adv-x="1257" 
d="M142 1472h282v-546c92 108 201 162 327 162c136.667 0 233.667 -44.333 291 -133c47.333 -72.667 71 -182 71 -328v-627h-280v619c0 172 -59.667 258 -179 258c-66.667 0 -120.667 -24.667 -162 -74c-45.333 -55.333 -68 -135.333 -68 -240v-563h-282v1472z" />
    <glyph glyph-name="i" unicode="i" horiz-adv-x="562" 
d="M422 1214h-280v258h280v-258zM422 0h-280v1064h280v-1064z" />
    <glyph glyph-name="j" unicode="j" horiz-adv-x="563" 
d="M414 1214h-278v258h278v-258zM136 1066h277.999v-1082c0 -132.667 -16.333 -228.667 -49 -288c-48 -86 -138.667 -129 -272 -129c-62.667 0 -127 10.333 -193 31l45 248c28.667 -14 61.334 -21 98.001 -21c44.667 0 73 17.333 85 52c5.33301 16 8 54.333 8 115v1074z" />
    <glyph glyph-name="k" unicode="k" horiz-adv-x="1145" 
d="M422 0h-282v1472h282v-798l333 390h342l-372 -390l402 -674h-301l-276 489l-128 -134v-355z" />
    <glyph glyph-name="l" unicode="l" horiz-adv-x="562" 
d="M422 0h-280v1472h280v-1472z" />
    <glyph glyph-name="m" unicode="m" horiz-adv-x="1830" 
d="M132 0l0.000976562 1066h238l24 -150c94.667 116 205.667 174 333 174c136 0 235.667 -57.333 299 -172c93.333 114.667 202.666 172 327.999 172c230.667 0 346 -136 346 -408v-682h-278v668c0 75.333 -11.667 129.333 -35 162s-62 49 -116 49
c-60 0 -110.833 -29.5 -152.5 -88.5s-62.5 -127.5 -62.5 -205.5v-585h-278v668c0 140.667 -50.333 211 -151 211c-66 0 -119 -29.667 -159 -89c-37.333 -55.333 -56 -123.666 -56 -204.999v-585h-280z" />
    <glyph glyph-name="n" unicode="n" horiz-adv-x="1257" 
d="M1115 662l0.000976562 -662h-282v668c0 140.667 -58.333 211 -175 211c-70.667 0 -127.334 -25.833 -170.001 -77.5s-64 -118.5 -64 -200.5v-601h-282v1066h242l22 -160c94.667 122.667 211.667 184 351 184c238.667 0 358 -142.667 358 -428z" />
    <glyph glyph-name="o" unicode="o" horiz-adv-x="1257" 
d="M79 548c0 156.667 51.6689 286.167 155.002 388.5s234.666 153.5 393.999 153.5c161.333 0 293.333 -52.667 396 -158s154 -238 154 -398c0 -158.667 -51 -290.667 -153 -396c-104.667 -108 -237 -162 -397 -162c-168.667 0 -302.334 51.333 -401.001 154
s-148 242 -148 418zM364.002 534c0 -100.667 25.333 -181.667 76 -243c48.667 -60 111.334 -90 188.001 -90c76 0 137.667 28.667 185 86c50.667 61.333 76 145 76 251c0 96.667 -24 175 -72 235s-111 90 -189 90c-78.667 0 -142.334 -29.667 -191.001 -89
s-73 -139.333 -73 -240z" />
    <glyph glyph-name="p" unicode="p" horiz-adv-x="1257" 
d="M136 -408v1474h242l18 -148c76 114.667 187.667 172 335 172c144 0 255 -50.333 333 -151c74.667 -96.667 112 -229.667 112 -399c0 -174 -38 -310.667 -114 -410c-78.667 -102.667 -189.667 -154 -333 -154c-116 0 -221 54 -315 162v-546h-278zM408 550
c0 -112 24.333 -199.667 73 -263c45.333 -58.667 104.333 -88 177 -88c154 0 231 113 231 339c0 102 -20.5 183 -61.5 243s-98.833 90 -173.5 90c-78 0 -139.333 -31 -184 -93c-41.333 -58.667 -62 -134.667 -62 -228z" />
    <glyph glyph-name="q" unicode="q" horiz-adv-x="1257" 
d="M1123 -406h-282v542c-82.667 -106.667 -187.667 -160 -315 -160c-142 0 -252.333 57.667 -331 173c-70.667 104 -106 236.333 -106 397c0 154 37.333 280.667 112 380c82 109.333 194.333 164 337 164c134.667 0 243.667 -62 327 -186l22 162h236v-1472zM851 546
c0 98 -19.667 176 -59 234c-42 62 -101 93 -177 93c-78 0 -137.667 -30.167 -179 -90.5s-62 -144.5 -62 -252.5c0 -222 77.667 -333 233 -333c68.667 0 125.667 29.667 171 89c48.667 64 73 150.667 73 260z" />
    <glyph glyph-name="r" unicode="r" horiz-adv-x="800" 
d="M420 0h-280v1066h238l22 -156c79.333 120 164.666 180 255.999 180c56.667 0 109.334 -17.333 158.001 -52l-55 -238c-47.333 27.333 -97.333 41 -150 41c-126 0 -189 -88 -189 -264v-577z" />
    <glyph glyph-name="s" unicode="s" horiz-adv-x="1145" 
d="M51 345l284.001 -0.000976562c23.333 -112 99.333 -168 228 -168c62 0 105.333 3.33301 130 10c50 14 75 43 75 87c0 36 -16.667 63.667 -50 83c-41.333 24 -133.666 54.667 -276.999 92c-134.667 35.333 -227.334 76.333 -278.001 123c-46.667 44 -70 107.333 -70 190
c0 100.667 38.333 179.334 115 236.001c82 61.333 200 92 354 92s270.333 -33.333 349 -100c68 -57.333 102 -132.666 102 -225.999h-264c0 84.667 -62.333 127 -187 127c-140.667 0 -211 -30.333 -211 -91c0 -38 25.667 -66.667 77 -86c6 -2.66699 78.667 -22 218 -58
c158 -40.667 264.5 -82.834 319.5 -126.501s82.5 -109.167 82.5 -196.5c0 -106 -42.333 -191.667 -127 -257c-88 -66.667 -206.667 -100 -356 -100s-268 29 -356 87c-96.667 63.333 -149.334 157.333 -158.001 282z" />
    <glyph glyph-name="t" unicode="t" horiz-adv-x="680" 
d="M439 1064h193v-221h-193v-542c0 -64 27 -96 81 -96c29.333 0 63 8 101 24l37 -205c-70 -32 -144.333 -48 -223 -48c-182 0 -273 102.667 -273 308v559h-130v221h130v213l277 163v-376z" />
    <glyph glyph-name="u" unicode="u" horiz-adv-x="1257" 
d="M1107 0h-238l-22 165c-89.333 -126 -208 -189 -356 -189c-236.667 0 -355 138.667 -355 416v674h280v-617c0 -174.667 46.667 -262 140 -262c180.667 0 271 103.667 271 311v568h280v-1066z" />
    <glyph glyph-name="v" unicode="v" horiz-adv-x="1145" 
d="M697 0h-250l-431 1066h293l264 -731l260 731h290z" />
    <glyph glyph-name="w" unicode="w" horiz-adv-x="1594" 
d="M613 0h-272l-337 1066h270l203 -707l185 707h268l183 -707l203 707h276l-343 -1066h-268l-185 694z" />
    <glyph glyph-name="x" unicode="x" horiz-adv-x="1145" 
d="M345 0h-327l386 550l-371 516h343l189 -315l201 315h327l-360 -504l394 -562h-343l-219 333z" />
    <glyph glyph-name="y" unicode="y" horiz-adv-x="1117" 
d="M835 1066h288.001l-406 -1155c-48 -136 -99.667 -227 -155 -273c-50.667 -42.667 -128.334 -64 -233.001 -64c-62 0 -122.333 12.667 -181 38l63 217c30.667 -20 62.667 -30 96 -30c46.667 0 81.334 13.667 104.001 41c13.333 16 30.666 52.333 51.999 109l12 31
l-467 1086h307l290 -729z" />
    <glyph glyph-name="z" unicode="z" horiz-adv-x="1026" 
d="M983 0h-936l-15 236l559 601h-518v229h863l18 -229l-542 -601h571v-236z" />
    <glyph glyph-name="braceleft" unicode="{" horiz-adv-x="799" 
d="M67 413l0.00195312 236.999c99.333 5.33301 163.666 44.666 192.999 117.999c18 44.667 27 132.667 27 264c0 177.333 25 297 75 359c56 70 168.333 105 337 105h49v-236c-82.667 0 -135.334 -6.33301 -158.001 -19c-31.333 -17.333 -47 -59.666 -47 -126.999v-132
c0 -121.333 -9.66699 -209.333 -29 -264c-25.333 -72 -79.333 -134 -162 -186c84 -45.333 138.667 -108 164 -188c18 -57.333 27 -157.666 27 -300.999v-90c0 -66 18.333 -109.333 55 -130c25.333 -13.333 75.333 -20 150 -20v-236h-49c-170 0 -283 35 -339 105
c-48.667 61.333 -73 181.666 -73 360.999c0 128.667 -9 215.667 -27 261c-30 74.667 -94.333 114.334 -193 119.001z" />
    <glyph glyph-name="bar" unicode="|" horiz-adv-x="604" 
d="M412 -433h-219v1929h219v-1929z" />
    <glyph glyph-name="braceright" unicode="}" horiz-adv-x="799" 
d="M732 650l0.000976562 -237c-98 -4.66699 -161.667 -44 -191 -118c-18 -45.333 -27 -132.666 -27 -261.999c0 -178.667 -25 -299 -75 -361c-56 -70 -168.333 -105 -337 -105h-53v236c75.333 0 125.666 6.66699 150.999 20c37.333 20 56 63.333 56 130v116
c0 125.333 9.33301 216.333 28 273c26 79.333 79.667 142.666 161 189.999c-81.333 49.333 -135.333 113 -162 191c-19.333 56.667 -29 145.667 -29 267v124c0 68 -15.333 110.667 -46 128c-21.333 12 -74.333 18 -159 18v236h53c168.667 0 281 -34.667 337 -104
c50 -62 75 -182 75 -360c0 -131.333 8.66699 -219 26 -263c28.667 -74 92.667 -113.667 192 -119z" />
    <glyph glyph-name="asciitilde" unicode="~" horiz-adv-x="1199" 
d="M69 528l0.00195312 252c84 92 182.333 138 295 138c64 0 154.5 -23 271.5 -69s191.167 -69 222.5 -69c96 0 187.333 47 274 141v-265c-90.667 -86.667 -190.334 -130 -299.001 -130c-56 0 -137.333 22.667 -244 68s-189.334 68 -248.001 68
c-98 0 -188.667 -44.667 -272 -134z" />
    <glyph glyph-name="nonbreakingspace" unicode="&#xa0;" horiz-adv-x="512" 
 />
    <glyph glyph-name="currency" unicode="&#xa4;" 
d="M181 943l-134 131.999l170 179l135 -136c70.667 38 143.667 57 219 57c77.333 0 150.333 -19 219 -57l135 134l166 -169l-132 -134c38 -70 57 -143 57 -219c0 -73.333 -19 -146 -57 -218l136 -134l-168 -171l-137 136c-66.667 -38.667 -139.667 -58 -219 -58
c-70.667 0 -143 18.667 -217 56l-130 -130l-169 169l130 132c-38 68.667 -57 141.334 -57 218.001c0 80.667 17.667 151.667 53 213zM366 729.999c0 -55.333 20.333 -103.166 61 -143.499s88.667 -60.5 144 -60.5s103.333 20.167 144 60.5s61 88.166 61 143.499
c0 56.667 -20 105 -60 145s-88.333 60 -145 60c-56 0 -104.167 -20.167 -144.5 -60.5s-60.5 -88.5 -60.5 -144.5z" />
    <glyph glyph-name="brokenbar" unicode="&#xa6;" horiz-adv-x="604" 
d="M412 705h-219v791h219v-791zM412 -433h-219v791h219v-791z" />
    <glyph glyph-name="section" unicode="&#xa7;" 
d="M994 1116l-273 0.000976562c0 112 -52 168 -156 168c-90.667 0 -136 -27 -136 -81c0 -32.667 15.333 -64.334 46 -95.001c34.667 -34.667 106.667 -89 216 -163c159.333 -107.333 261.666 -186.666 306.999 -237.999c51.333 -58 77 -132.333 77 -223
c0 -126 -61.667 -229.667 -185 -311c84 -80 126 -165.333 126 -256c0 -114.667 -44 -203.667 -132 -267c-78 -55.333 -177 -83 -297 -83c-135.333 0 -245.333 34.667 -330 104c-91.333 74.667 -137 178.334 -137 311.001h274c0 -59.333 18.5 -108 55.5 -146
s84.833 -57 143.5 -57c38.667 0 71.667 10.333 99 31c30.667 22.667 46 52.667 46 90c0 39.333 -20.667 76.666 -62 111.999c-44 37.333 -126.667 92.333 -248 165c-110 65.333 -190.333 123.666 -241 174.999c-81.333 82 -122 174 -122 276c0 140 62.333 247 187 321
c-69.333 73.333 -104 148.666 -104 225.999c0 105.333 42.667 187 128 245c74.667 50.667 167 76 277 76c124.667 0 227.334 -31.333 308.001 -94c88.667 -69.333 133 -164.666 133 -285.999zM453 488.001l289 -196.999c60.667 52.667 91 102.667 91 150
c0 34.667 -18.333 69.667 -55 105c-14 14 -46.333 39.333 -97 76l-275 199c-58 -36.667 -87 -83.334 -87 -140.001c0 -68 44.667 -132.333 134 -193z" />
    <glyph glyph-name="copyright" unicode="&#xa9;" horiz-adv-x="1574" 
d="M786 1481c175.333 0 327.333 -63 456 -189s193 -276.333 193 -451c0 -175.333 -64.333 -325.833 -193 -451.5s-280.667 -188.5 -456 -188.5c-172 0 -322.667 63.667 -452 191s-194 277 -194 449c0 176.667 63.5 327.5 190.5 452.5s278.833 187.5 455.5 187.5zM1307 841
c0 147.333 -49.834 272 -149.501 374s-222.834 153 -369.501 153c-143.333 0 -266.166 -51.833 -368.499 -155.5s-153.5 -227.5 -153.5 -371.5c0 -142 51.5 -265.833 154.5 -371.5s225.5 -158.5 367.5 -158.5c144.667 0 267.334 52.167 368.001 156.5s151 228.833 151 373.5
zM936.999 979c-16.667 90 -67.668 134.999 -153.001 134.999c-113.333 0 -170 -91 -170 -273c0 -178.667 59.333 -268 178 -268c82.667 0 134.334 50 155.001 150h160c-4 -85.333 -37.667 -153.333 -101 -204c-59.333 -48 -132.666 -72 -219.999 -72
c-113.333 0 -201.333 38.667 -264 116c-58 71.333 -87 165.333 -87 282c0 112.667 31 205 93 277c65.333 76 153.333 114 264 114c81.333 0 150.666 -22.333 207.999 -67c61.333 -47.333 95 -110.666 101 -189.999h-164z" />
    <glyph glyph-name="guillemotleft" unicode="&#xab;" 
d="M419 986h215l-258 -452l258 -463h-215l-319 463zM815 986h215l-260 -452l260 -463h-215l-319 463z" />
    <glyph glyph-name="logicalnot" unicode="&#xac;" horiz-adv-x="1199" 
d="M1114 378h-258v443h-771v256h1029v-699z" />
    <glyph glyph-name="minus" unicode="&#xad;" horiz-adv-x="1199" 
d="M1114 597h-1029v259h1029v-259z" />
    <glyph glyph-name="minus" unicode="&#x2212;" horiz-adv-x="1199" 
d="M1114 597h-1029v259h1029v-259z" />
    <glyph glyph-name="registered" unicode="&#xae;" horiz-adv-x="1771" 
d="M884 1492c212 0 393.333 -73.5 544 -220.5s226 -326.167 226 -537.5s-75.667 -389.666 -227 -534.999c-156 -150 -337 -225 -543 -225c-208 0 -387.667 74.833 -539 224.5s-227 328.167 -227 535.5s78 388.666 234 543.999c142.667 142.667 320 214 532 214zM1512 727
c0 180.667 -59.334 332.666 -178.001 455.999s-268 185 -448 185c-177.333 0 -323.666 -59.667 -438.999 -179c-126 -130 -189 -281.667 -189 -455s60.5 -322.333 181.5 -447s267.833 -187 440.5 -187c176.667 0 326.167 60.333 448.5 181s183.5 269.334 183.5 446.001z
M596.999 302.999v874h319c85.333 0 154.333 -17.667 207 -53c61.333 -40.667 92 -101.667 92 -183c0 -86.667 -46 -151 -138 -193c84 -44.667 126 -122 126 -232c0 -61.333 11.667 -132.333 35 -213h-157c-23.333 69.333 -35 140.333 -35 213c0 119.333 -58 179 -174 179
c-54.667 0 -94 -1.33301 -118 -4v-388h-157zM753.999 1049v-240c26 -2.66699 69.333 -4 130 -4c112.667 0 169 42 169 126c0 52 -15 86 -45 102c-20 10.667 -57.333 16 -112 16h-142z" />
    <glyph glyph-name="degree" unicode="&#xb0;" horiz-adv-x="822" 
d="M93 1175c0 88.667 30.667 164 92 226s136.333 93 225 93s164 -31 226 -93s93 -137.333 93 -226c0 -88 -31.167 -163.167 -93.5 -225.5s-137.5 -93.5 -225.5 -93.5c-88.667 0 -163.667 31 -225 93s-92 137.333 -92 226zM254 1175c0 -42.667 15.333 -78.833 46 -108.5
s67.334 -44.5 110.001 -44.5s79.167 15 109.5 45s45.5 66 45.5 108c0 42.667 -15.167 79.334 -45.5 110.001s-66.833 46 -109.5 46s-79.334 -15.333 -110.001 -46s-46 -67.334 -46 -110.001z" />
    <glyph glyph-name="plusminus" unicode="&#xb1;" horiz-adv-x="1199" 
d="M725 358h-254v382h-386v262h386v382h254v-382h389v-262h-389v-382zM1114 0h-1029v262h1029v-262z" />
    <glyph glyph-name="mu1" unicode="&#xb5;" horiz-adv-x="1199" 
d="M171 -368v1327h248v-435c0 -97.333 8.33301 -171 25 -221c27.333 -82.667 79.666 -124 156.999 -124c80 0 134 39 162 117c16.667 46.667 25 122 25 226v437h254v-959h-233v122c-54 -97.333 -119.667 -146 -197 -146c-73.333 0 -137.666 48.667 -192.999 146v-490h-248z
" />
    <glyph glyph-name="paragraph" unicode="&#xb6;" horiz-adv-x="1199" 
d="M644 1238v-1455h-215v947c-112 7.33301 -199 42.333 -261 105c-64.667 64 -97 151.333 -97 262c0 249.333 160.667 374 482 374h538v-233h-101v-1455h-212v1455h-134z" />
    <glyph glyph-name="middot" unicode="&#xb7;" horiz-adv-x="569" 
d="M424 575h-279v280h279v-280z" />
    <glyph glyph-name="guillemotright" unicode="&#xbb;" 
d="M725 71h-217l258 453l-258 462h217l319 -462zM329 71h-217l262 453l-262 462h217l319 -462z" />
    <glyph glyph-name="mu" unicode="&#x3bc;" horiz-adv-x="2048" 
 />
    <glyph glyph-name="afii10023" unicode="&#x401;" horiz-adv-x="1351" 
d="M601 1577h-258v230h258v-230zM1046 1577h-254v230h254v-230zM1246 0h-1092v1471h1065v-244h-770v-335h681v-242h-681v-406h797v-244z" />
    <glyph glyph-name="afii10051" unicode="&#x402;" 
d="M181 943l-134 131.999l170 179l135 -136c70.667 38 143.667 57 219 57c77.333 0 150.333 -19 219 -57l135 134l166 -169l-132 -134c38 -70 57 -143 57 -219c0 -73.333 -19 -146 -57 -218l136 -134l-168 -171l-137 136c-66.667 -38.667 -139.667 -58 -219 -58
c-70.667 0 -143 18.667 -217 56l-130 -130l-169 169l130 132c-38 68.667 -57 141.334 -57 218.001c0 80.667 17.667 151.667 53 213zM366 729.999c0 -55.333 20.333 -103.166 61 -143.499s88.667 -60.5 144 -60.5s103.333 20.167 144 60.5s61 88.166 61 143.499
c0 56.667 -20 105 -60 145s-88.333 60 -145 60c-56 0 -104.167 -20.167 -144.5 -60.5s-60.5 -88.5 -60.5 -144.5z" />
    <glyph glyph-name="afii10052" unicode="&#x403;" 
d="M181 943l-134 131.999l170 179l135 -136c70.667 38 143.667 57 219 57c77.333 0 150.333 -19 219 -57l135 134l166 -169l-132 -134c38 -70 57 -143 57 -219c0 -73.333 -19 -146 -57 -218l136 -134l-168 -171l-137 136c-66.667 -38.667 -139.667 -58 -219 -58
c-70.667 0 -143 18.667 -217 56l-130 -130l-169 169l130 132c-38 68.667 -57 141.334 -57 218.001c0 80.667 17.667 151.667 53 213zM366 729.999c0 -55.333 20.333 -103.166 61 -143.499s88.667 -60.5 144 -60.5s103.333 20.167 144 60.5s61 88.166 61 143.499
c0 56.667 -20 105 -60 145s-88.333 60 -145 60c-56 0 -104.167 -20.167 -144.5 -60.5s-60.5 -88.5 -60.5 -144.5z" />
    <glyph glyph-name="afii10053" unicode="&#x404;" 
d="M181 943l-134 131.999l170 179l135 -136c70.667 38 143.667 57 219 57c77.333 0 150.333 -19 219 -57l135 134l166 -169l-132 -134c38 -70 57 -143 57 -219c0 -73.333 -19 -146 -57 -218l136 -134l-168 -171l-137 136c-66.667 -38.667 -139.667 -58 -219 -58
c-70.667 0 -143 18.667 -217 56l-130 -130l-169 169l130 132c-38 68.667 -57 141.334 -57 218.001c0 80.667 17.667 151.667 53 213zM366 729.999c0 -55.333 20.333 -103.166 61 -143.499s88.667 -60.5 144 -60.5s103.333 20.167 144 60.5s61 88.166 61 143.499
c0 56.667 -20 105 -60 145s-88.333 60 -145 60c-56 0 -104.167 -20.167 -144.5 -60.5s-60.5 -88.5 -60.5 -144.5z" />
    <glyph glyph-name="afii10054" unicode="&#x405;" 
d="M181 943l-134 131.999l170 179l135 -136c70.667 38 143.667 57 219 57c77.333 0 150.333 -19 219 -57l135 134l166 -169l-132 -134c38 -70 57 -143 57 -219c0 -73.333 -19 -146 -57 -218l136 -134l-168 -171l-137 136c-66.667 -38.667 -139.667 -58 -219 -58
c-70.667 0 -143 18.667 -217 56l-130 -130l-169 169l130 132c-38 68.667 -57 141.334 -57 218.001c0 80.667 17.667 151.667 53 213zM366 729.999c0 -55.333 20.333 -103.166 61 -143.499s88.667 -60.5 144 -60.5s103.333 20.167 144 60.5s61 88.166 61 143.499
c0 56.667 -20 105 -60 145s-88.333 60 -145 60c-56 0 -104.167 -20.167 -144.5 -60.5s-60.5 -88.5 -60.5 -144.5z" />
    <glyph glyph-name="afii10055" unicode="&#x406;" 
d="M181 943l-134 131.999l170 179l135 -136c70.667 38 143.667 57 219 57c77.333 0 150.333 -19 219 -57l135 134l166 -169l-132 -134c38 -70 57 -143 57 -219c0 -73.333 -19 -146 -57 -218l136 -134l-168 -171l-137 136c-66.667 -38.667 -139.667 -58 -219 -58
c-70.667 0 -143 18.667 -217 56l-130 -130l-169 169l130 132c-38 68.667 -57 141.334 -57 218.001c0 80.667 17.667 151.667 53 213zM366 729.999c0 -55.333 20.333 -103.166 61 -143.499s88.667 -60.5 144 -60.5s103.333 20.167 144 60.5s61 88.166 61 143.499
c0 56.667 -20 105 -60 145s-88.333 60 -145 60c-56 0 -104.167 -20.167 -144.5 -60.5s-60.5 -88.5 -60.5 -144.5z" />
    <glyph glyph-name="afii10056" unicode="&#x407;" 
d="M181 943l-134 131.999l170 179l135 -136c70.667 38 143.667 57 219 57c77.333 0 150.333 -19 219 -57l135 134l166 -169l-132 -134c38 -70 57 -143 57 -219c0 -73.333 -19 -146 -57 -218l136 -134l-168 -171l-137 136c-66.667 -38.667 -139.667 -58 -219 -58
c-70.667 0 -143 18.667 -217 56l-130 -130l-169 169l130 132c-38 68.667 -57 141.334 -57 218.001c0 80.667 17.667 151.667 53 213zM366 729.999c0 -55.333 20.333 -103.166 61 -143.499s88.667 -60.5 144 -60.5s103.333 20.167 144 60.5s61 88.166 61 143.499
c0 56.667 -20 105 -60 145s-88.333 60 -145 60c-56 0 -104.167 -20.167 -144.5 -60.5s-60.5 -88.5 -60.5 -144.5z" />
    <glyph glyph-name="afii10057" unicode="&#x408;" 
d="M181 943l-134 131.999l170 179l135 -136c70.667 38 143.667 57 219 57c77.333 0 150.333 -19 219 -57l135 134l166 -169l-132 -134c38 -70 57 -143 57 -219c0 -73.333 -19 -146 -57 -218l136 -134l-168 -171l-137 136c-66.667 -38.667 -139.667 -58 -219 -58
c-70.667 0 -143 18.667 -217 56l-130 -130l-169 169l130 132c-38 68.667 -57 141.334 -57 218.001c0 80.667 17.667 151.667 53 213zM366 729.999c0 -55.333 20.333 -103.166 61 -143.499s88.667 -60.5 144 -60.5s103.333 20.167 144 60.5s61 88.166 61 143.499
c0 56.667 -20 105 -60 145s-88.333 60 -145 60c-56 0 -104.167 -20.167 -144.5 -60.5s-60.5 -88.5 -60.5 -144.5z" />
    <glyph glyph-name="afii10058" unicode="&#x409;" 
d="M181 943l-134 131.999l170 179l135 -136c70.667 38 143.667 57 219 57c77.333 0 150.333 -19 219 -57l135 134l166 -169l-132 -134c38 -70 57 -143 57 -219c0 -73.333 -19 -146 -57 -218l136 -134l-168 -171l-137 136c-66.667 -38.667 -139.667 -58 -219 -58
c-70.667 0 -143 18.667 -217 56l-130 -130l-169 169l130 132c-38 68.667 -57 141.334 -57 218.001c0 80.667 17.667 151.667 53 213zM366 729.999c0 -55.333 20.333 -103.166 61 -143.499s88.667 -60.5 144 -60.5s103.333 20.167 144 60.5s61 88.166 61 143.499
c0 56.667 -20 105 -60 145s-88.333 60 -145 60c-56 0 -104.167 -20.167 -144.5 -60.5s-60.5 -88.5 -60.5 -144.5z" />
    <glyph glyph-name="afii10059" unicode="&#x40a;" 
d="M181 943l-134 131.999l170 179l135 -136c70.667 38 143.667 57 219 57c77.333 0 150.333 -19 219 -57l135 134l166 -169l-132 -134c38 -70 57 -143 57 -219c0 -73.333 -19 -146 -57 -218l136 -134l-168 -171l-137 136c-66.667 -38.667 -139.667 -58 -219 -58
c-70.667 0 -143 18.667 -217 56l-130 -130l-169 169l130 132c-38 68.667 -57 141.334 -57 218.001c0 80.667 17.667 151.667 53 213zM366 729.999c0 -55.333 20.333 -103.166 61 -143.499s88.667 -60.5 144 -60.5s103.333 20.167 144 60.5s61 88.166 61 143.499
c0 56.667 -20 105 -60 145s-88.333 60 -145 60c-56 0 -104.167 -20.167 -144.5 -60.5s-60.5 -88.5 -60.5 -144.5z" />
    <glyph glyph-name="afii10060" unicode="&#x40b;" 
d="M181 943l-134 131.999l170 179l135 -136c70.667 38 143.667 57 219 57c77.333 0 150.333 -19 219 -57l135 134l166 -169l-132 -134c38 -70 57 -143 57 -219c0 -73.333 -19 -146 -57 -218l136 -134l-168 -171l-137 136c-66.667 -38.667 -139.667 -58 -219 -58
c-70.667 0 -143 18.667 -217 56l-130 -130l-169 169l130 132c-38 68.667 -57 141.334 -57 218.001c0 80.667 17.667 151.667 53 213zM366 729.999c0 -55.333 20.333 -103.166 61 -143.499s88.667 -60.5 144 -60.5s103.333 20.167 144 60.5s61 88.166 61 143.499
c0 56.667 -20 105 -60 145s-88.333 60 -145 60c-56 0 -104.167 -20.167 -144.5 -60.5s-60.5 -88.5 -60.5 -144.5z" />
    <glyph glyph-name="afii10061" unicode="&#x40c;" 
d="M181 943l-134 131.999l170 179l135 -136c70.667 38 143.667 57 219 57c77.333 0 150.333 -19 219 -57l135 134l166 -169l-132 -134c38 -70 57 -143 57 -219c0 -73.333 -19 -146 -57 -218l136 -134l-168 -171l-137 136c-66.667 -38.667 -139.667 -58 -219 -58
c-70.667 0 -143 18.667 -217 56l-130 -130l-169 169l130 132c-38 68.667 -57 141.334 -57 218.001c0 80.667 17.667 151.667 53 213zM366 729.999c0 -55.333 20.333 -103.166 61 -143.499s88.667 -60.5 144 -60.5s103.333 20.167 144 60.5s61 88.166 61 143.499
c0 56.667 -20 105 -60 145s-88.333 60 -145 60c-56 0 -104.167 -20.167 -144.5 -60.5s-60.5 -88.5 -60.5 -144.5z" />
    <glyph glyph-name="afii10062" unicode="&#x40e;" 
d="M181 943l-134 131.999l170 179l135 -136c70.667 38 143.667 57 219 57c77.333 0 150.333 -19 219 -57l135 134l166 -169l-132 -134c38 -70 57 -143 57 -219c0 -73.333 -19 -146 -57 -218l136 -134l-168 -171l-137 136c-66.667 -38.667 -139.667 -58 -219 -58
c-70.667 0 -143 18.667 -217 56l-130 -130l-169 169l130 132c-38 68.667 -57 141.334 -57 218.001c0 80.667 17.667 151.667 53 213zM366 729.999c0 -55.333 20.333 -103.166 61 -143.499s88.667 -60.5 144 -60.5s103.333 20.167 144 60.5s61 88.166 61 143.499
c0 56.667 -20 105 -60 145s-88.333 60 -145 60c-56 0 -104.167 -20.167 -144.5 -60.5s-60.5 -88.5 -60.5 -144.5z" />
    <glyph glyph-name="afii10145" unicode="&#x40f;" 
d="M181 943l-134 131.999l170 179l135 -136c70.667 38 143.667 57 219 57c77.333 0 150.333 -19 219 -57l135 134l166 -169l-132 -134c38 -70 57 -143 57 -219c0 -73.333 -19 -146 -57 -218l136 -134l-168 -171l-137 136c-66.667 -38.667 -139.667 -58 -219 -58
c-70.667 0 -143 18.667 -217 56l-130 -130l-169 169l130 132c-38 68.667 -57 141.334 -57 218.001c0 80.667 17.667 151.667 53 213zM366 729.999c0 -55.333 20.333 -103.166 61 -143.499s88.667 -60.5 144 -60.5s103.333 20.167 144 60.5s61 88.166 61 143.499
c0 56.667 -20 105 -60 145s-88.333 60 -145 60c-56 0 -104.167 -20.167 -144.5 -60.5s-60.5 -88.5 -60.5 -144.5z" />
    <glyph glyph-name="afii10017" unicode="&#x410;" horiz-adv-x="1477" 
d="M727 1181l-217 -614h439zM1034 337h-605l-118 -337h-311l545 1471h369l563 -1471h-321z" />
    <glyph glyph-name="afii10018" unicode="&#x411;" horiz-adv-x="1435" 
d="M154 0v1471h1071v-242h-776v-343c85.333 12 208.666 18 369.999 18c151.333 0 275.333 -36.667 372 -110c108 -82 162 -197 162 -345c0 -152.667 -52.667 -268 -158 -346c-93.333 -68.667 -218.666 -103 -375.999 -103h-665zM449 644l-0.000976562 -402h262
c102.667 0 178 10.333 226 31c72.667 31.333 109 90 109 176c0 142 -107.667 213 -323 213c-97.333 0 -188.666 -6 -273.999 -18z" />
    <glyph glyph-name="afii10019" unicode="&#x412;" horiz-adv-x="1453" 
d="M154 0v1471h602c352 0 528 -124 528 -372c0 -70 -19 -133.5 -57 -190.5s-89.333 -99.167 -154 -126.5c88 -24 157.333 -67 208 -129s76 -138 76 -228c0 -162.667 -54 -277.667 -162 -345c-85.333 -53.333 -215.333 -80 -390 -80h-651zM449 1231l0.000976562 -345h293
c170.667 0 256 57.667 256 173c0 70.667 -26.667 119 -80 145c-36.667 18 -95.334 27 -176.001 27h-293zM449.001 632v-388h311c195.333 0 293 65.667 293 197c0 88 -36.333 148.333 -109 181c-49.333 22.667 -125 34 -227 34c-114 0 -203.333 -8 -268 -24z" />
    <glyph glyph-name="afii10020" unicode="&#x413;" horiz-adv-x="1154" 
d="M159 0v1471h995v-242h-699v-1229h-296z" />
    <glyph glyph-name="afii10021" unicode="&#x414;" horiz-adv-x="1465" 
d="M222 1471h1062v-1227h128v-551h-248v307h-922v-307h-248v551c90.667 54 150.334 104.333 179.001 151c32.667 54 49 137 49 249v827zM987.999 1229l-482 -0.000976562v-585c0 -157.333 -44 -290.666 -132 -399.999h614v985z" />
    <glyph glyph-name="afii10022" unicode="&#x415;" horiz-adv-x="1351" 
d="M1246 0h-1092v1471h1065v-244h-770v-335h681v-242h-681v-406h797v-244z" />
    <glyph glyph-name="afii10024" unicode="&#x416;" horiz-adv-x="1932" 
d="M1110 0l-288.997 -0.00195312v646c-14.667 2 -33.334 5.66699 -56.001 11c-14.667 3.33301 -33.334 5 -56.001 5c-130 0 -214.667 -23.667 -254 -71c-35.333 -42 -53 -130 -53 -264c0 -118.667 -19.667 -227.667 -59 -327h-296c43.333 88.667 65 208 65 358
c0 116.667 14 207 42 271c36 84.667 101.333 144.667 196 180c-72 62.667 -108 157.334 -108 284.001v35c0 77.333 -24.333 116 -73 116c-33.333 0 -60 -5.66699 -80 -17l-42 244c47.333 12 112.333 18 195 18c88.667 0 158.167 -24.667 208.5 -74
s75.5 -118.666 75.5 -207.999v-106c0 -151.333 75.333 -227 226 -227h69v597h289v-597h69c151.333 0 227 75.667 227 227v106c0 88.667 25.167 157.834 75.5 207.501s119.5 74.5 207.5 74.5c82.667 0 147.667 -6 195 -18l-41 -244c-20 11.333 -47 17 -81 17
c-48.667 0 -73 -38.667 -73 -116v-35c0 -126.667 -36 -221.334 -108 -284.001c95.333 -35.333 161 -95 197 -179c27.333 -64 41 -154.667 41 -272c0 -150 21.667 -269.333 65 -358h-295c-39.333 99.333 -59 208.333 -59 327c0 133.333 -17.667 221 -53 263
c-40 48 -124.667 72 -254 72c-22.667 0 -41.334 -1.66699 -56.001 -5c-22.667 -5.33301 -41.667 -9 -57 -11v-646z" />
    <glyph glyph-name="afii10025" unicode="&#x417;" horiz-adv-x="1294" 
d="M378 1067l-295 -0.000976562c35.333 286 216.333 429 543 429c144 0 263.667 -30 359 -90c108.667 -68 163 -164 163 -288c0 -166 -82.667 -280.667 -248 -344c199.333 -62 299 -184 299 -366c0 -152 -58.667 -265 -176 -339c-98 -62 -227.667 -93 -389 -93
c-181.333 0 -318.333 37.333 -411 112c-98 78.667 -156.667 207 -176 385h292c15.333 -173.333 110.333 -260 285 -260c72.667 0 133.667 15.333 183 46c58 36.667 87 89.334 87 158.001c0 76 -30.667 136 -92 180c-54.667 39.333 -121.667 59 -201 59h-123v216h89
c189.333 0 284 63.667 284 191c0 62 -23.333 110.667 -70 146c-42 32.667 -95 49 -159 49c-142.667 0 -224 -63.667 -244 -191z" />
    <glyph glyph-name="afii10026" unicode="&#x418;" horiz-adv-x="1530" 
d="M154 0v1471h295v-1028l632 1028h295v-1471h-295v1028l-632 -1028h-295z" />
    <glyph glyph-name="afii10027" unicode="&#x419;" horiz-adv-x="1530" 
d="M154 0v1471h295v-1028l632 1028h295v-1471h-295v1028l-632 -1028h-295zM900 1874h248c0 -103.333 -41 -183.333 -123 -240c-70 -48.667 -156.333 -73 -259 -73c-254.667 0 -382 104.333 -382 313h248c0 -90 44.667 -135 134 -135s134 45 134 135z" />
    <glyph glyph-name="afii10028" unicode="&#x41a;" horiz-adv-x="1364" 
d="M154 0l-0.000976562 1471h295v-597h161c151.333 0 227 75.667 227 227v106c0 88.667 25.167 157.834 75.5 207.501s119.5 74.5 207.5 74.5c82.667 0 147.667 -6 195 -18l-41 -244c-20 11.333 -47 17 -81 17c-48.667 0 -73 -38.667 -73 -116v-35
c0 -126.667 -36 -221.334 -108 -284.001c95.333 -35.333 161 -95 197 -179c27.333 -64 41 -154.667 41 -272c0 -150 21.667 -269.333 65 -358h-295c-39.333 99.333 -59 208.333 -59 327c0 133.333 -17.667 221 -53 263c-40 48 -124.667 72 -254 72
c-55.333 0 -123.666 -5.33301 -204.999 -16v-646h-295z" />
    <glyph glyph-name="afii10029" unicode="&#x41b;" horiz-adv-x="1394" 
d="M207 1471l1028 0.000976562v-1471h-296v1227h-447v-817c0 -120.667 -23 -218.334 -69 -293.001c-56 -90 -140.667 -135 -254 -135c-65.333 0 -127.666 6 -186.999 18l18 248c24.667 -14.667 51.667 -22 81 -22c84 0 126 69 126 207v1038z" />
    <glyph glyph-name="afii10030" unicode="&#x41c;" horiz-adv-x="1711" 
d="M413 0h-269v1471h445l267 -1012l266 1012h449v-1471h-272v1136l-324 -1136h-237l-325 1136v-1136z" />
    <glyph glyph-name="afii10031" unicode="&#x41d;" horiz-adv-x="1500" 
d="M449 0h-295v1471h295v-585h602v585h296v-1471h-296v644h-602v-644z" />
    <glyph glyph-name="afii10032" unicode="&#x41e;" horiz-adv-x="1605" 
d="M83 727c0 233.333 60.667 418.333 182 555c126.667 142.667 305.334 214 536.001 214c227.333 0 405.666 -71 534.999 -213c124 -136.667 186 -319.667 186 -549c0 -222.667 -59.667 -402.667 -179 -540c-126 -145.333 -298.667 -218 -518 -218
c-231.333 0 -412.833 67.333 -544.5 202s-197.5 317.667 -197.5 549zM384 736c0 -145.333 33.001 -263.999 99.001 -355.999c74.667 -104 182 -156 322 -156s246.667 52.667 320 158c64 91.333 96 210 96 356c0 147.333 -32 265.666 -96 354.999
c-72.667 102 -179.334 153 -320.001 153c-142 0 -250 -51 -324 -153c-64.667 -90 -97 -209 -97 -357z" />
    <glyph glyph-name="afii10033" unicode="&#x41f;" horiz-adv-x="1489" 
d="M449 0h-295v1471h1181v-1471h-295v1227h-591v-1227z" />
    <glyph glyph-name="afii10034" unicode="&#x420;" horiz-adv-x="1337" 
d="M449 0h-295v1471h539c170 0 297.333 -23.667 382 -71c123.333 -69.333 185 -196 185 -380c0 -310 -189 -465 -567 -465h-244v-555zM449 1227v-424h218c192 0 288 71 288 213c0 140.667 -96 211 -288 211h-218z" />
    <glyph glyph-name="afii10035" unicode="&#x421;" horiz-adv-x="1455" 
d="M1384 539c0 -175.333 -59.667 -314.333 -179 -417c-113.333 -97.333 -259 -146 -437 -146c-218.667 0 -388.667 71 -510 213c-114 133.333 -171 311.333 -171 534c0 240 57.333 426.667 172 560c122 142 300.667 213 536 213c158 0 293 -43.333 405 -130
c121.333 -94 182 -217.333 182 -370h-291c0 70 -36.333 131.667 -109 185c-67.333 48.667 -137.333 73 -210 73c-253.333 0 -380 -175 -380 -525c0 -142.667 26.333 -257.667 79 -345c64 -106.667 162.333 -160 295 -160c86.667 0 163.5 31 230.5 93s100.5 136 100.5 222
h287z" />
    <glyph glyph-name="afii10036" unicode="&#x422;" horiz-adv-x="1252" 
d="M774 0h-296v1227h-437v244h1170v-244h-437v-1227z" />
    <glyph glyph-name="afii10037" unicode="&#x423;" horiz-adv-x="1276" 
d="M8 1471h329.001l348 -754l290 754h301l-496 -1160c-48.667 -114 -96.334 -193.333 -143.001 -238c-62 -60.667 -146.333 -91 -253 -91c-84 0 -149.667 6 -197 18l53 244c42 -20.667 79.333 -31 112 -31c87.333 0 153 67.333 197 202z" />
    <glyph glyph-name="afii10038" unicode="&#x424;" horiz-adv-x="1813" 
d="M762 189l-95.001 -0.000976562c-184 0 -327.667 48.333 -431 145c-106 98.667 -159 239.334 -159 422.001c0 177.333 54.333 317 163 419c106 100 248.333 150 427 150h95v162h289v-162h95c178.667 0 321.334 -50 428.001 -150c108.667 -102 163 -241.667 163 -419
c0 -182 -53.333 -322.667 -160 -422c-103.333 -96.667 -247 -145 -431 -145h-95v-189h-289v189zM1048 1089v-670h98c100 0 176.333 32 229 96c48 58.667 72 139 72 241c0 222 -100.333 333 -301 333h-98zM764.999 1089h-98c-200.667 0 -301 -111 -301 -333
c0 -102 24 -182.333 72 -241c52.667 -64 129 -96 229 -96h98v670z" />
    <glyph glyph-name="afii10039" unicode="&#x425;" horiz-adv-x="1363" 
d="M45 1471h337l299 -455l300 455h336l-470 -705l516 -766h-349l-333 514l-332 -514h-349l516 766z" />
    <glyph glyph-name="afii10040" unicode="&#x426;" horiz-adv-x="1489" 
d="M159 0v1471h296v-1227h575v1227h295v-1227h122v-551h-244v307h-1044z" />
    <glyph glyph-name="afii10041" unicode="&#x427;" horiz-adv-x="1414" 
d="M1258 0h-295v646c-120.667 -56.667 -237.667 -85 -351 -85c-329.333 0 -494 154.333 -494 463v447h295v-427c0 -76.667 14 -133 42 -169c38 -49.333 107.667 -74 209 -74c127.333 0 227 28.333 299 85v585h295v-1471z" />
    <glyph glyph-name="afii10042" unicode="&#x428;" horiz-adv-x="2034" 
d="M156 0v1471h291v-1233h425v1233h290v-1233h425v1233h291v-1471h-1722z" />
    <glyph glyph-name="afii10043" unicode="&#x429;" horiz-adv-x="2044" 
d="M159 0v1471h292v-1233h425v1233h290v-1233h425v1233h291v-1233h122v-545h-244v307h-1601z" />
    <glyph glyph-name="afii10044" unicode="&#x42a;" horiz-adv-x="1628" 
d="M366 0l-0.00195312 1229h-331v242h627v-585c84.667 12 203.334 18 356.001 18c151.333 0 275.333 -36.667 372 -110c108 -82 162 -197 162 -345c0 -152.667 -52.667 -268 -158 -346c-93.333 -68.667 -218.666 -103 -375.999 -103h-652zM661.998 644l-0.000976562 -402
h248c102.667 0 178 10.333 226 31c72 31.333 108 90 108 176c0 142 -107.667 213 -323 213c-87.333 0 -173.666 -6 -258.999 -18z" />
    <glyph glyph-name="afii10045" unicode="&#x42b;" horiz-adv-x="1953" 
d="M1504 0v1471h294v-1471h-294zM156 0l0.000976562 1471h293v-585c85.333 12 206.666 18 363.999 18c153.333 0 278 -36.667 374 -110c106.667 -81.333 160 -196.333 160 -345c0 -153.333 -52.333 -268.666 -157 -345.999c-93.333 -68.667 -219 -103 -377 -103h-657z
M449.001 643.999l-0.000976562 -402h256c102.667 0 178 10.333 226 31c72.667 31.333 109 90 109 176c0 142 -107.667 213 -323 213c-93.333 0 -182.666 -6 -267.999 -18z" />
    <glyph glyph-name="afii10046" unicode="&#x42c;" horiz-adv-x="1429" 
d="M154 0v1471h295v-585c85.333 12 208.666 18 369.999 18c151.333 0 275.333 -36.667 372 -110c108 -82 162 -197 162 -345c0 -152.667 -52.667 -268 -158 -346c-93.333 -68.667 -218.666 -103 -375.999 -103h-665zM449 644l-0.000976562 -402h262
c102.667 0 178 10.333 226 31c72.667 31.333 109 90 109 176c0 142 -107.667 213 -323 213c-97.333 0 -188.666 -6 -273.999 -18z" />
    <glyph glyph-name="afii10047" unicode="&#x42d;" horiz-adv-x="1467" 
d="M616 874h452.999c-38 253.333 -166 380 -384 380c-72.667 0 -142.667 -24.333 -210 -73c-72.667 -53.333 -109 -115 -109 -185h-291c0 152.667 60.667 276 182 370c112 86.667 247 130 405 130c236 0 416.333 -70.667 541 -212c119.333 -134.667 179 -321.667 179 -561
c0 -222 -59.333 -400.333 -178 -535c-124 -141.333 -295.667 -212 -515 -212c-178 0 -323.667 48.667 -437 146c-119.333 102.667 -179 241.667 -179 417h287c0 -86 34 -160.333 102 -223c66 -61.333 142.333 -92 229 -92c116.667 0 209 41.667 277 125
c60.667 74.667 96.334 173 107.001 295h-459v230z" />
    <glyph glyph-name="afii10048" unicode="&#x42e;" horiz-adv-x="2115" 
d="M154 1471h291v-597h240c20 197.333 88.333 350.333 205 459s273.667 163 471 163c220 0 389 -72.667 507 -218c108 -134 162 -314 162 -540c0 -227.333 -54.667 -408.333 -164 -543c-118.667 -146 -289 -219 -511 -219c-196 0 -353.667 63.333 -473 190
c-112 118.667 -177.667 278 -197 478h-240v-644h-291v1471zM981 734c0 -143.333 26.001 -259.667 78.001 -349c64 -110.667 162.667 -166 296 -166c249.333 0 374 177 374 531c0 140.667 -28.333 254 -85 340c-66.667 101.333 -166.334 152 -299.001 152
c-132 0 -228.667 -54.333 -290 -163c-49.333 -86.667 -74 -201.667 -74 -345z" />
    <glyph glyph-name="afii10049" unicode="&#x42f;" horiz-adv-x="1359" 
d="M1205 0h-294.999v634c-76.667 12 -148.334 17.333 -215.001 16c-104 -2.66699 -177.333 -25 -220 -67c-52.667 -52 -79 -149.333 -79 -292c0 -112 -13.333 -209 -40 -291h-291c35.333 84 53 188.333 53 313c0 220.667 76.333 365.667 229 435v4
c-74 26 -133.667 68.5 -179 127.5s-68 126.833 -68 203.5c0 258.667 184.667 388 554 388h551v-1471zM910.001 868v371.999h-237c-86 0 -148.667 -9 -188 -27c-59.333 -26 -89 -76 -89 -150c0 -81.333 32 -136.666 96 -165.999c42.667 -19.333 109.667 -29 201 -29h217z" />
    <glyph glyph-name="afii10065" unicode="&#x430;" horiz-adv-x="1140" 
d="M358 742h-252.001c29.333 122.667 82 211.667 158 267c72.667 53.333 173 80 301 80c157.333 0 269.666 -26.333 336.999 -79c76 -60 114 -166.333 114 -319v-400c0 -117.333 17.667 -214.333 53 -291h-268c-16.667 38.667 -29.667 78 -39 118
c-67.333 -94.667 -177.666 -142 -330.999 -142c-98 0 -179 21.667 -243 65c-74 50 -111 121.667 -111 215c0 105.333 27.667 181.666 83 228.999c50.667 43.333 152.334 82.333 305.001 117c100.667 22.667 152 34.334 154 35.001c70 22 110.333 50.667 121 86
c0 103.333 -63 155 -189 155c-98.667 0 -163 -45.333 -193 -136zM739.999 374l-0.000976562 140.001c-26.667 -24 -98.667 -45.667 -216 -65c-57.333 -9.33301 -98.666 -25 -123.999 -47c-29.333 -26.667 -44 -67.334 -44 -122.001c0 -76.667 53.333 -115 160 -115
c66 0 119.833 18.5 161.5 55.5s62.5 88.167 62.5 153.5z" />
    <glyph glyph-name="afii10066" unicode="&#x431;" horiz-adv-x="1268" 
d="M1179 522c0 -158.667 -44.999 -288.333 -134.999 -389c-93.333 -104.667 -218.333 -157 -375 -157c-218.667 0 -372.667 69.333 -462 208c-76 118 -114 305.333 -114 562c0 241.333 45 419 135 533c100 128 266.333 192 499 192c66 0 109.333 2.33301 130 7
c50 10 81.333 34.667 94 74l189 -109c-32 -73.333 -70.667 -122 -116 -146c-56.667 -30 -156.334 -45 -299.001 -45c-258.667 0 -388 -119.333 -388 -358c80.667 114 206.667 171 378 171c140 0 254 -56 342 -168c81.333 -104 122 -229 122 -375zM378.001 526.001
c0 -85.333 20.333 -158.002 61 -218.002c46 -68.667 109.667 -103 191 -103c173.333 0 260 106.333 260 319c0 92.667 -19 166.334 -57 221.001c-44 64 -110.333 96 -199 96c-80 0 -144 -33.667 -192 -101c-42.667 -59.333 -64 -130.666 -64 -213.999z" />
    <glyph glyph-name="afii10067" unicode="&#x432;" horiz-adv-x="1223" 
d="M138 0l0.000976562 1065h561c272 0 408 -93 408 -279c0 -58 -17.333 -109 -52 -153s-80.334 -74 -137.001 -90c64 -14 116 -39.333 156 -76c46.667 -42 70 -93.333 70 -154c0 -128.667 -42.333 -216.334 -127 -263.001c-62 -33.333 -164.667 -50 -308 -50h-571z
M415.001 888.001v-244h223c60.667 0 104.667 6.66699 132 20c38 19.333 57 56 57 110c0 76 -63 114 -189 114h-223zM415.001 461.001v-266h223c67.333 0 115 5.66699 143 17c45.333 19.333 68 57 68 113c0 90.667 -70.333 136 -211 136h-223z" />
    <glyph glyph-name="afii10068" unicode="&#x433;" horiz-adv-x="858" 
d="M140 0v1065h718v-222h-439v-843h-279z" />
    <glyph glyph-name="afii10069" unicode="&#x434;" horiz-adv-x="1240" 
d="M163 1065h928v-841h114v-472h-248v248h-709v-248h-248v472h35c85.333 70 128 179.667 128 329v512zM817 841l-388 -0.000976562v-343c0 -99.333 -23 -190.666 -69 -273.999h457v617z" />
    <glyph glyph-name="afii10070" unicode="&#x435;" horiz-adv-x="1140" 
d="M776 323h284.998c-60.667 -231.333 -216 -347 -466 -347c-171.333 0 -301.666 49 -390.999 147c-86 94 -129 227.667 -129 401c0 170.667 38 305 114 403c84 108 208.667 162 374 162c337.333 0 506 -209.333 506 -628h-709c0 -185.333 71 -278 213 -278
c116.667 0 184.334 46.667 203.001 140zM359.998 626h432c0 70 -17.667 128.333 -53 175c-38.667 51.333 -92 77 -160 77s-122.333 -25.667 -163 -77c-37.333 -46.667 -56 -105 -56 -175z" />
    <glyph glyph-name="afii10072" unicode="&#x436;" horiz-adv-x="1548" 
d="M641 1065l266 -0.000976562v-409h42c101.333 0 152 58.333 152 175c0 168 76.667 252 230 252c56 0 108.667 -6 158 -18l-30 -224c-18.667 11.333 -38.334 17 -59.001 17c-46 0 -69 -29.333 -69 -88c0 -81.333 -25 -145 -75 -191c127.333 -56 191 -165 191 -327
c0 -111.333 15.667 -195.333 47 -252h-265c-32 63.333 -48 146 -48 248c0 70.667 -11.667 122.334 -35 155.001c-28 38.667 -75.333 58 -142 58c-13.333 0 -44.666 -6 -93.999 -18v-443h-272v443c-49.333 12 -81 18 -95 18c-118 0 -177 -71 -177 -213
c0 -102 -15.667 -184.667 -47 -248h-266c31.333 56.667 47 140.667 47 252c0 162 63.667 271 191 327c-49.333 46 -74 109.667 -74 191c0 58.667 -23 88 -69 88c-20.667 0 -40.334 -5.66699 -59.001 -17l-30 224c48.667 12 101.334 18 158.001 18
c153.333 0 230 -84 230 -252c0 -116.667 50.667 -175 152 -175h42v409z" />
    <glyph glyph-name="afii10073" unicode="&#x437;" horiz-adv-x="1109" 
d="M473 455l-0.00292969 201h104c97.333 0 146 40.667 146 122c0 80 -54.667 120 -164 120c-57.333 0 -104.666 -13 -141.999 -39c-42 -29.333 -63 -71.666 -63 -126.999h-252c0 114.667 49.333 205 148 271c86 57.333 189 86 309 86c110.667 0 205 -23.667 283 -71
c92.667 -56.667 139 -136.667 139 -240c0 -60 -14.333 -107 -43 -141c-25.333 -30 -67.666 -55.333 -126.999 -76c146 -32 219 -118.667 219 -260c0 -109.333 -50.667 -193.333 -152 -252c-83.333 -48.667 -183.666 -73 -300.999 -73c-136 0 -250.667 31.333 -344 94
c-106.667 72.667 -160 174 -160 304h274c0 -142 69.333 -213 208 -213c48 0 91 11.667 129 35c44 27.333 66 63.666 66 108.999c0 100 -60.333 150 -181 150h-96z" />
    <glyph glyph-name="afii10074" unicode="&#x438;" horiz-adv-x="1258" 
d="M138 0v1065h270v-693l443 693h269v-1065h-269v693l-443 -693h-270z" />
    <glyph glyph-name="afii10075" unicode="&#x439;" horiz-adv-x="1258" 
d="M138 0v1065h270v-693l443 693h269v-1065h-269v693l-443 -693h-270zM632 1205c-228.667 0 -343 88.667 -343 266h201c0 -50.667 11.333 -85.334 34 -104.001c20.667 -17.333 56.667 -26 108 -26s87.333 7.66699 108 23c25.333 18.667 38 54.334 38 107.001h204
c0 -177.333 -116.667 -266 -350 -266z" />
    <glyph glyph-name="afii10076" unicode="&#x43a;" horiz-adv-x="1134" 
d="M138 1065h279.001v-409h111c100.667 0 151 58.333 151 175c0 168 79.667 252 239 252c56 0 108.333 -6 157 -18l-29 -224c-19.333 11.333 -39.333 17 -60 17c-45.333 0 -68 -29.333 -68 -88c0 -81.333 -25 -145 -75 -191c127.333 -56 191 -165 191 -327
c0 -111.333 15.667 -195.333 47 -252h-274c-31.333 63.333 -47 146 -47 248c0 75.333 -14.333 129.333 -43 162c-30.667 34 -83.334 51 -158.001 51c-44.667 0 -92 -6 -142 -18v-443h-279v1065z" />
    <glyph glyph-name="afii10077" unicode="&#x43b;" horiz-adv-x="1219" 
d="M165 1065h915.999v-1065h-280v841h-366v-485c0 -150 -23.667 -251.667 -71 -305c-41.333 -46 -115.333 -69 -222 -69c-51.333 0 -104.666 6 -159.999 18l24 224c33.333 -11.333 64 -17 92 -17c23.333 0 39 5.33301 47 16c13.333 17.333 20 73 20 167v675z" />
    <glyph glyph-name="afii10078" unicode="&#x43c;" horiz-adv-x="1500" 
d="M136 0v1065h352l262 -752l266 752h348v-1065h-236v693l-272 -693h-212l-272 693v-693h-236z" />
    <glyph glyph-name="afii10079" unicode="&#x43d;" horiz-adv-x="1242" 
d="M138 0v1065h279v-398h408v398h280v-1065h-280v449h-408v-449h-279z" />
    <glyph glyph-name="afii10080" unicode="&#x43e;" horiz-adv-x="1252" 
d="M75 547c0 158.667 52 288.666 156 389.999s235.667 152 395 152c161.333 0 293.5 -52.167 396.5 -156.5s154.5 -237.166 154.5 -398.499c0 -160 -51.833 -293 -155.5 -399s-235.5 -159 -395.5 -159c-170.667 0 -305.667 52.667 -405 158
c-97.333 103.333 -146 241 -146 413zM364 533.999c0 -90 20.6689 -165.668 62.002 -227.001c47.333 -70.667 114 -106 200 -106c87.333 0 154.666 35.667 201.999 107c40 60.667 60 137.334 60 230.001c0 88.667 -21 163 -63 223c-48 68.667 -114.333 103 -199 103
c-86.667 0 -153.334 -34.667 -200.001 -104c-41.333 -60 -62 -135.333 -62 -226z" />
    <glyph glyph-name="afii10081" unicode="&#x43f;" horiz-adv-x="1219" 
d="M138 0v1065h943v-1065h-280v841h-384v-841h-279z" />
    <glyph glyph-name="afii10082" unicode="&#x440;" horiz-adv-x="1256" 
d="M136 -408l-0.000976562 1473h242l18 -147c76 114 187.333 171 334 171c152.667 0 267.667 -55.667 345 -167c66.667 -96 100 -223.667 100 -383c0 -160.667 -33.333 -290.667 -100 -390c-77.333 -115.333 -192.666 -173 -345.999 -173c-116 0 -221.333 54 -316 162v-546
h-277zM407.999 549c0 -92.667 18 -170.667 54 -234c44.667 -77.333 110 -116 196 -116c153.333 0 230 113 230 339c0 90 -16.333 164.333 -49 223c-40 72.667 -101.667 109 -185 109s-147 -34 -191 -102c-36.667 -58 -55 -131 -55 -219z" />
    <glyph glyph-name="afii10083" unicode="&#x441;" horiz-adv-x="1158" 
d="M1075 691h-282.999c-10.667 119.333 -75.667 179 -195 179c-155.333 0 -233 -106.333 -233 -319c0 -104.667 12 -183.334 36 -236.001c35.333 -76 98.333 -114 189 -114c145.333 0 218 70.667 218 212h286c0 -119.333 -38.667 -218.666 -116 -297.999
c-90.667 -92.667 -220 -139 -388 -139c-170.667 0 -300.334 51.333 -389.001 154c-83.333 96 -125 230.667 -125 404c0 172 42 306 126 402c88.667 102 218 153 388 153c134.667 0 244 -32.667 328 -98c89.333 -69.333 142 -169.333 158 -300z" />
    <glyph glyph-name="afii10084" unicode="&#x442;" horiz-adv-x="1000" 
d="M24 843v222h953v-222h-337v-843h-280v843h-336z" />
    <glyph glyph-name="afii10085" unicode="&#x443;" horiz-adv-x="1116" 
d="M835 1065h287.002l-405 -1154c-48 -136 -99.667 -227 -155 -273c-50.667 -42 -128.334 -63 -233.001 -63c-62 0 -122.333 12.333 -181 37l63 217c30.667 -20 62.667 -30 96 -30c45.333 0 79.666 13.667 102.999 41c13.333 16 31 52.333 53 109l12 31l-467 1085h307
l289 -728z" />
    <glyph glyph-name="afii10086" unicode="&#x444;" horiz-adv-x="1780" 
d="M754 152c-62.667 -101.333 -152 -152 -268 -152c-138.667 -0 -244 55.333 -316 166c-60.667 93.333 -91 213.333 -91 360c0 374 131.333 561 394 561c56.667 0 111 -14.5 163 -43.5s91.333 -67.833 118 -116.5v544h272v-544c26.667 48.667 66 87.5 118 116.5
s106.333 43.5 163 43.5c262.667 0 394 -187 394 -561c0 -146.667 -30.333 -266.667 -91 -360c-72 -110.667 -177.333 -166 -316 -166c-116 0 -205.333 50.667 -268 152v-558h-272v558zM1236 211c120 0 180 105 180 315c0 230.667 -65 346 -195 346
c-68 0 -121.333 -40.333 -160 -121c-30 -63.333 -45 -133.333 -45 -210c0 -76 17.333 -146.667 52 -212c42 -78.667 98 -118 168 -118zM543 211c70.667 0 127 39.332 169 117.999c34.667 64.667 52 135.334 52 212.001s-15 146.667 -45 210c-38.667 80.667 -92 121 -160 121
c-130 0 -195 -115.333 -195 -346c0 -210 59.667 -315 179 -315z" />
    <glyph glyph-name="afii10087" unicode="&#x445;" horiz-adv-x="1120" 
d="M349 0h-343l396 545l-363 520h313l207 -297l209 297h313l-362 -520l395 -545h-342l-213 315z" />
    <glyph glyph-name="afii10088" unicode="&#x446;" horiz-adv-x="1213" 
d="M138 0v1065h279v-841h365v841h279v-841h116v-472h-230v248h-809z" />
    <glyph glyph-name="afii10089" unicode="&#x447;" horiz-adv-x="1164" 
d="M746 1065h280v-1065h-280v449c-109.333 -28.667 -194 -43 -254 -43c-261.333 0 -392 135.667 -392 407v252h274v-252c0 -74 15.167 -125.667 45.5 -155s82.833 -44 157.5 -44c46.667 0 103 17.667 169 53v398z" />
    <glyph glyph-name="afii10090" unicode="&#x448;" horiz-adv-x="1709" 
d="M142 0v1065h266v-841h319v841h255v-841h319v841h266v-1065h-1425z" />
    <glyph glyph-name="afii10091" unicode="&#x449;" horiz-adv-x="1719" 
d="M142 0v1065h266v-841h319v841h255v-841h319v841h266v-841h116v-472h-230v248h-1311z" />
    <glyph glyph-name="afii10092" unicode="&#x44a;" horiz-adv-x="1305" 
d="M266 0l0.000976562 843h-248v222h525v-415c49.333 11.333 138 17 266 17c117.333 0 213.666 -23.667 288.999 -71c90 -57.333 135 -141 135 -251c0 -230 -140.667 -345 -422 -345h-545zM543.001 449v-254h209c131.333 0 197 47.333 197 142c0 94 -63 141 -189 141
c-56 0 -128.333 -9.66699 -217 -29z" />
    <glyph glyph-name="afii10093" unicode="&#x44b;" horiz-adv-x="1668" 
d="M1252 0v1065h278v-1065h-278zM138 0l0.000976562 1065h277v-415c49.333 11.333 138 17 266 17c117.333 0 213.666 -23.667 288.999 -71c90 -57.333 135 -141 135 -251c0 -230 -140.667 -345 -422 -345h-545zM415.001 449v-254h209c131.333 0 197 47.333 197 142
c0 94 -63 141 -189 141c-56 0 -128.333 -9.66699 -217 -29z" />
    <glyph glyph-name="afii10094" unicode="&#x44c;" horiz-adv-x="1181" 
d="M138 0l0.000976562 1065h277v-415c49.333 11.333 138 17 266 17c117.333 0 213.666 -23.667 288.999 -71c90 -57.333 135 -141 135 -251c0 -230 -140.667 -345 -422 -345h-545zM415.001 449v-254h209c131.333 0 197 47.333 197 142c0 94 -63 141 -189 141
c-56 0 -128.333 -9.66699 -217 -29z" />
    <glyph glyph-name="afii10095" unicode="&#x44d;" horiz-adv-x="1158" 
d="M538 662l248.001 0.000976562c-24 138.667 -99 208 -225 208c-119.333 0 -184.333 -59.667 -195 -179h-283c16 130.667 68.667 230.667 158 300c84 65.333 193.333 98 328 98c170 0 299.333 -51 388 -153c84 -96 126 -230 126 -402c0 -173.333 -41.667 -308 -125 -404
c-88.667 -102.667 -218.334 -154 -389.001 -154c-168 0 -297.333 46.333 -388 139c-77.333 79.333 -116 178.666 -116 297.999h285c0 -67.333 19.5 -119.5 58.5 -156.5s92.5 -55.5 160.5 -55.5c128.667 0 201.667 82.667 219 248h-250v213z" />
    <glyph glyph-name="afii10096" unicode="&#x44e;" horiz-adv-x="1707" 
d="M1630 530c0 -170 -41 -303 -123 -399c-87.333 -103.333 -214.333 -155 -381 -155c-144.667 0 -265 40 -361 120c-102 85.333 -153 199 -153 341h-200v-437h-274v1065h274v-409h204c20 137.333 74.5 243.833 163.5 319.5s203.167 113.5 342.5 113.5
c166 0 293.667 -52.667 383 -158c83.333 -98 125 -231.667 125 -401zM1118 874c-150.667 0 -226.001 -114.667 -226.001 -344c0 -224.667 78 -337 234 -337c88.667 0 150.334 36.333 185.001 109c24 50.667 36 126.667 36 228c0 229.333 -76.333 344 -229 344z" />
    <glyph glyph-name="afii10097" unicode="&#x44f;" horiz-adv-x="1154" 
d="M738 626v262h-189c-126 0 -189 -42 -189 -126c0 -90.667 52.667 -136 158 -136h220zM1016 0h-278.001v431c-43.333 12 -99.666 18 -168.999 18c-127.333 0 -191 -69.667 -191 -209c0 -116 -15.667 -196 -47 -240h-272c31.333 63.333 47 143.333 47 240
c0 128.667 55.333 216.667 166 264c-126 48.667 -189 138.667 -189 270c0 98 44 173 132 225c73.333 44 162.333 66 267 66h534v-1065z" />
    <glyph glyph-name="afii10071" unicode="&#x451;" horiz-adv-x="1144" 
d="M902 1254h-238v242h238v-242zM471 1258h-241v238h241v-238zM1063 453l-709 0.000976562c2 -75.333 22.667 -138 62 -188c44 -54.667 102.333 -82 175 -82c104 0 164.333 43.667 181 131h278c-30 -108.667 -85.167 -192.167 -165.5 -250.5s-178.833 -87.5 -295.5 -87.5
c-168 0 -297.333 49.667 -388 149c-88 95.333 -132 227.666 -132 396.999c0 160 40.667 291.667 122 395c88.667 113.333 210.667 170 366 170c337.333 0 506 -211.333 506 -634zM786 622.001c-1.33301 71.333 -19.001 130 -53.001 176c-38 52 -91.333 78 -160 78
c-67.333 0 -120.666 -26.333 -159.999 -79c-35.333 -46.667 -53 -105 -53 -175h426z" />
    <glyph glyph-name="afii10099" unicode="&#x452;" 
d="M181 943l-134 131.999l170 179l135 -136c70.667 38 143.667 57 219 57c77.333 0 150.333 -19 219 -57l135 134l166 -169l-132 -134c38 -70 57 -143 57 -219c0 -73.333 -19 -146 -57 -218l136 -134l-168 -171l-137 136c-66.667 -38.667 -139.667 -58 -219 -58
c-70.667 0 -143 18.667 -217 56l-130 -130l-169 169l130 132c-38 68.667 -57 141.334 -57 218.001c0 80.667 17.667 151.667 53 213zM366 729.999c0 -55.333 20.333 -103.166 61 -143.499s88.667 -60.5 144 -60.5s103.333 20.167 144 60.5s61 88.166 61 143.499
c0 56.667 -20 105 -60 145s-88.333 60 -145 60c-56 0 -104.167 -20.167 -144.5 -60.5s-60.5 -88.5 -60.5 -144.5z" />
    <glyph glyph-name="afii10100" unicode="&#x453;" 
d="M181 943l-134 131.999l170 179l135 -136c70.667 38 143.667 57 219 57c77.333 0 150.333 -19 219 -57l135 134l166 -169l-132 -134c38 -70 57 -143 57 -219c0 -73.333 -19 -146 -57 -218l136 -134l-168 -171l-137 136c-66.667 -38.667 -139.667 -58 -219 -58
c-70.667 0 -143 18.667 -217 56l-130 -130l-169 169l130 132c-38 68.667 -57 141.334 -57 218.001c0 80.667 17.667 151.667 53 213zM366 729.999c0 -55.333 20.333 -103.166 61 -143.499s88.667 -60.5 144 -60.5s103.333 20.167 144 60.5s61 88.166 61 143.499
c0 56.667 -20 105 -60 145s-88.333 60 -145 60c-56 0 -104.167 -20.167 -144.5 -60.5s-60.5 -88.5 -60.5 -144.5z" />
    <glyph glyph-name="afii10101" unicode="&#x454;" 
d="M181 943l-134 131.999l170 179l135 -136c70.667 38 143.667 57 219 57c77.333 0 150.333 -19 219 -57l135 134l166 -169l-132 -134c38 -70 57 -143 57 -219c0 -73.333 -19 -146 -57 -218l136 -134l-168 -171l-137 136c-66.667 -38.667 -139.667 -58 -219 -58
c-70.667 0 -143 18.667 -217 56l-130 -130l-169 169l130 132c-38 68.667 -57 141.334 -57 218.001c0 80.667 17.667 151.667 53 213zM366 729.999c0 -55.333 20.333 -103.166 61 -143.499s88.667 -60.5 144 -60.5s103.333 20.167 144 60.5s61 88.166 61 143.499
c0 56.667 -20 105 -60 145s-88.333 60 -145 60c-56 0 -104.167 -20.167 -144.5 -60.5s-60.5 -88.5 -60.5 -144.5z" />
    <glyph glyph-name="afii10102" unicode="&#x455;" 
d="M181 943l-134 131.999l170 179l135 -136c70.667 38 143.667 57 219 57c77.333 0 150.333 -19 219 -57l135 134l166 -169l-132 -134c38 -70 57 -143 57 -219c0 -73.333 -19 -146 -57 -218l136 -134l-168 -171l-137 136c-66.667 -38.667 -139.667 -58 -219 -58
c-70.667 0 -143 18.667 -217 56l-130 -130l-169 169l130 132c-38 68.667 -57 141.334 -57 218.001c0 80.667 17.667 151.667 53 213zM366 729.999c0 -55.333 20.333 -103.166 61 -143.499s88.667 -60.5 144 -60.5s103.333 20.167 144 60.5s61 88.166 61 143.499
c0 56.667 -20 105 -60 145s-88.333 60 -145 60c-56 0 -104.167 -20.167 -144.5 -60.5s-60.5 -88.5 -60.5 -144.5z" />
    <glyph glyph-name="afii10103" unicode="&#x456;" 
d="M181 943l-134 131.999l170 179l135 -136c70.667 38 143.667 57 219 57c77.333 0 150.333 -19 219 -57l135 134l166 -169l-132 -134c38 -70 57 -143 57 -219c0 -73.333 -19 -146 -57 -218l136 -134l-168 -171l-137 136c-66.667 -38.667 -139.667 -58 -219 -58
c-70.667 0 -143 18.667 -217 56l-130 -130l-169 169l130 132c-38 68.667 -57 141.334 -57 218.001c0 80.667 17.667 151.667 53 213zM366 729.999c0 -55.333 20.333 -103.166 61 -143.499s88.667 -60.5 144 -60.5s103.333 20.167 144 60.5s61 88.166 61 143.499
c0 56.667 -20 105 -60 145s-88.333 60 -145 60c-56 0 -104.167 -20.167 -144.5 -60.5s-60.5 -88.5 -60.5 -144.5z" />
    <glyph glyph-name="afii10104" unicode="&#x457;" 
d="M181 943l-134 131.999l170 179l135 -136c70.667 38 143.667 57 219 57c77.333 0 150.333 -19 219 -57l135 134l166 -169l-132 -134c38 -70 57 -143 57 -219c0 -73.333 -19 -146 -57 -218l136 -134l-168 -171l-137 136c-66.667 -38.667 -139.667 -58 -219 -58
c-70.667 0 -143 18.667 -217 56l-130 -130l-169 169l130 132c-38 68.667 -57 141.334 -57 218.001c0 80.667 17.667 151.667 53 213zM366 729.999c0 -55.333 20.333 -103.166 61 -143.499s88.667 -60.5 144 -60.5s103.333 20.167 144 60.5s61 88.166 61 143.499
c0 56.667 -20 105 -60 145s-88.333 60 -145 60c-56 0 -104.167 -20.167 -144.5 -60.5s-60.5 -88.5 -60.5 -144.5z" />
    <glyph glyph-name="afii10105" unicode="&#x458;" 
d="M181 943l-134 131.999l170 179l135 -136c70.667 38 143.667 57 219 57c77.333 0 150.333 -19 219 -57l135 134l166 -169l-132 -134c38 -70 57 -143 57 -219c0 -73.333 -19 -146 -57 -218l136 -134l-168 -171l-137 136c-66.667 -38.667 -139.667 -58 -219 -58
c-70.667 0 -143 18.667 -217 56l-130 -130l-169 169l130 132c-38 68.667 -57 141.334 -57 218.001c0 80.667 17.667 151.667 53 213zM366 729.999c0 -55.333 20.333 -103.166 61 -143.499s88.667 -60.5 144 -60.5s103.333 20.167 144 60.5s61 88.166 61 143.499
c0 56.667 -20 105 -60 145s-88.333 60 -145 60c-56 0 -104.167 -20.167 -144.5 -60.5s-60.5 -88.5 -60.5 -144.5z" />
    <glyph glyph-name="afii10106" unicode="&#x459;" 
d="M181 943l-134 131.999l170 179l135 -136c70.667 38 143.667 57 219 57c77.333 0 150.333 -19 219 -57l135 134l166 -169l-132 -134c38 -70 57 -143 57 -219c0 -73.333 -19 -146 -57 -218l136 -134l-168 -171l-137 136c-66.667 -38.667 -139.667 -58 -219 -58
c-70.667 0 -143 18.667 -217 56l-130 -130l-169 169l130 132c-38 68.667 -57 141.334 -57 218.001c0 80.667 17.667 151.667 53 213zM366 729.999c0 -55.333 20.333 -103.166 61 -143.499s88.667 -60.5 144 -60.5s103.333 20.167 144 60.5s61 88.166 61 143.499
c0 56.667 -20 105 -60 145s-88.333 60 -145 60c-56 0 -104.167 -20.167 -144.5 -60.5s-60.5 -88.5 -60.5 -144.5z" />
    <glyph glyph-name="afii10107" unicode="&#x45a;" 
d="M181 943l-134 131.999l170 179l135 -136c70.667 38 143.667 57 219 57c77.333 0 150.333 -19 219 -57l135 134l166 -169l-132 -134c38 -70 57 -143 57 -219c0 -73.333 -19 -146 -57 -218l136 -134l-168 -171l-137 136c-66.667 -38.667 -139.667 -58 -219 -58
c-70.667 0 -143 18.667 -217 56l-130 -130l-169 169l130 132c-38 68.667 -57 141.334 -57 218.001c0 80.667 17.667 151.667 53 213zM366 729.999c0 -55.333 20.333 -103.166 61 -143.499s88.667 -60.5 144 -60.5s103.333 20.167 144 60.5s61 88.166 61 143.499
c0 56.667 -20 105 -60 145s-88.333 60 -145 60c-56 0 -104.167 -20.167 -144.5 -60.5s-60.5 -88.5 -60.5 -144.5z" />
    <glyph glyph-name="afii10108" unicode="&#x45b;" 
d="M181 943l-134 131.999l170 179l135 -136c70.667 38 143.667 57 219 57c77.333 0 150.333 -19 219 -57l135 134l166 -169l-132 -134c38 -70 57 -143 57 -219c0 -73.333 -19 -146 -57 -218l136 -134l-168 -171l-137 136c-66.667 -38.667 -139.667 -58 -219 -58
c-70.667 0 -143 18.667 -217 56l-130 -130l-169 169l130 132c-38 68.667 -57 141.334 -57 218.001c0 80.667 17.667 151.667 53 213zM366 729.999c0 -55.333 20.333 -103.166 61 -143.499s88.667 -60.5 144 -60.5s103.333 20.167 144 60.5s61 88.166 61 143.499
c0 56.667 -20 105 -60 145s-88.333 60 -145 60c-56 0 -104.167 -20.167 -144.5 -60.5s-60.5 -88.5 -60.5 -144.5z" />
    <glyph glyph-name="afii10109" unicode="&#x45c;" 
d="M181 943l-134 131.999l170 179l135 -136c70.667 38 143.667 57 219 57c77.333 0 150.333 -19 219 -57l135 134l166 -169l-132 -134c38 -70 57 -143 57 -219c0 -73.333 -19 -146 -57 -218l136 -134l-168 -171l-137 136c-66.667 -38.667 -139.667 -58 -219 -58
c-70.667 0 -143 18.667 -217 56l-130 -130l-169 169l130 132c-38 68.667 -57 141.334 -57 218.001c0 80.667 17.667 151.667 53 213zM366 729.999c0 -55.333 20.333 -103.166 61 -143.499s88.667 -60.5 144 -60.5s103.333 20.167 144 60.5s61 88.166 61 143.499
c0 56.667 -20 105 -60 145s-88.333 60 -145 60c-56 0 -104.167 -20.167 -144.5 -60.5s-60.5 -88.5 -60.5 -144.5z" />
    <glyph glyph-name="afii10110" unicode="&#x45e;" 
d="M181 943l-134 131.999l170 179l135 -136c70.667 38 143.667 57 219 57c77.333 0 150.333 -19 219 -57l135 134l166 -169l-132 -134c38 -70 57 -143 57 -219c0 -73.333 -19 -146 -57 -218l136 -134l-168 -171l-137 136c-66.667 -38.667 -139.667 -58 -219 -58
c-70.667 0 -143 18.667 -217 56l-130 -130l-169 169l130 132c-38 68.667 -57 141.334 -57 218.001c0 80.667 17.667 151.667 53 213zM366 729.999c0 -55.333 20.333 -103.166 61 -143.499s88.667 -60.5 144 -60.5s103.333 20.167 144 60.5s61 88.166 61 143.499
c0 56.667 -20 105 -60 145s-88.333 60 -145 60c-56 0 -104.167 -20.167 -144.5 -60.5s-60.5 -88.5 -60.5 -144.5z" />
    <glyph glyph-name="afii10193" unicode="&#x45f;" 
d="M181 943l-134 131.999l170 179l135 -136c70.667 38 143.667 57 219 57c77.333 0 150.333 -19 219 -57l135 134l166 -169l-132 -134c38 -70 57 -143 57 -219c0 -73.333 -19 -146 -57 -218l136 -134l-168 -171l-137 136c-66.667 -38.667 -139.667 -58 -219 -58
c-70.667 0 -143 18.667 -217 56l-130 -130l-169 169l130 132c-38 68.667 -57 141.334 -57 218.001c0 80.667 17.667 151.667 53 213zM366 729.999c0 -55.333 20.333 -103.166 61 -143.499s88.667 -60.5 144 -60.5s103.333 20.167 144 60.5s61 88.166 61 143.499
c0 56.667 -20 105 -60 145s-88.333 60 -145 60c-56 0 -104.167 -20.167 -144.5 -60.5s-60.5 -88.5 -60.5 -144.5z" />
    <glyph glyph-name="afii10050" unicode="&#x490;" 
d="M181 943l-134 131.999l170 179l135 -136c70.667 38 143.667 57 219 57c77.333 0 150.333 -19 219 -57l135 134l166 -169l-132 -134c38 -70 57 -143 57 -219c0 -73.333 -19 -146 -57 -218l136 -134l-168 -171l-137 136c-66.667 -38.667 -139.667 -58 -219 -58
c-70.667 0 -143 18.667 -217 56l-130 -130l-169 169l130 132c-38 68.667 -57 141.334 -57 218.001c0 80.667 17.667 151.667 53 213zM366 729.999c0 -55.333 20.333 -103.166 61 -143.499s88.667 -60.5 144 -60.5s103.333 20.167 144 60.5s61 88.166 61 143.499
c0 56.667 -20 105 -60 145s-88.333 60 -145 60c-56 0 -104.167 -20.167 -144.5 -60.5s-60.5 -88.5 -60.5 -144.5z" />
    <glyph glyph-name="afii10098" unicode="&#x491;" 
d="M181 943l-134 131.999l170 179l135 -136c70.667 38 143.667 57 219 57c77.333 0 150.333 -19 219 -57l135 134l166 -169l-132 -134c38 -70 57 -143 57 -219c0 -73.333 -19 -146 -57 -218l136 -134l-168 -171l-137 136c-66.667 -38.667 -139.667 -58 -219 -58
c-70.667 0 -143 18.667 -217 56l-130 -130l-169 169l130 132c-38 68.667 -57 141.334 -57 218.001c0 80.667 17.667 151.667 53 213zM366 729.999c0 -55.333 20.333 -103.166 61 -143.499s88.667 -60.5 144 -60.5s103.333 20.167 144 60.5s61 88.166 61 143.499
c0 56.667 -20 105 -60 145s-88.333 60 -145 60c-56 0 -104.167 -20.167 -144.5 -60.5s-60.5 -88.5 -60.5 -144.5z" />
    <glyph glyph-name="endash" unicode="&#x2013;" horiz-adv-x="1024" 
d="M1028 429h-1032v207h1032v-207z" />
    <glyph glyph-name="emdash" unicode="&#x2014;" horiz-adv-x="2048" 
d="M-12 426v210h2072v-210h-2072z" />
    <glyph glyph-name="quoteleft" unicode="&#x2018;" horiz-adv-x="569" 
d="M411 1154v-278h-277v199c0 108.667 16 192.667 48 252c37.333 68.667 103.333 120.667 198 156l55 -113c-104 -31.333 -157 -103.333 -159 -216h135z" />
    <glyph glyph-name="quoteright" unicode="&#x2019;" horiz-adv-x="569" 
d="M158 1189v280.001h277v-201c0 -108.667 -15.667 -192.334 -47 -251.001c-37.333 -69.333 -103 -121.666 -197 -156.999l-57 115c103.333 31.333 157 102.666 161 213.999h-137z" />
    <glyph glyph-name="quotesinglbase" unicode="&#x201a;" horiz-adv-x="569" 
d="M158 2v278.001h277v-199c0 -108 -16.333 -192 -49 -252c-37.333 -68.667 -103 -120.667 -197 -156l-55 112c105.333 33.333 159 105.666 161 216.999h-137z" />
    <glyph glyph-name="quotedblleft" unicode="&#x201c;" horiz-adv-x="1024" 
d="M412 1154l0.000976562 -278h-280v199c0 108.667 16.333 192.667 49 252c37.333 68.667 103.666 120.667 198.999 156l55 -113c-104 -31.333 -157 -103.333 -159 -216h136zM880.001 1154v-278h-276v199c0 109.333 15.667 193.333 47 252
c37.333 68.667 103.333 120.667 198 156l59 -113c-105.333 -30.667 -160 -102.667 -164 -216h136z" />
    <glyph glyph-name="quotedblright" unicode="&#x201d;" horiz-adv-x="1024" 
d="M604 1189v280.001h278v-201c0 -108 -16.333 -192 -49 -252c-37.333 -68.667 -103 -120.667 -197 -156l-57 115c104 31.333 157 102.666 159 213.999h-134zM130 1189v279.999h278v-201c0 -107.333 -16 -191 -48 -251c-38 -69.333 -103.667 -121.666 -197 -156.999l-59 115
c103.333 30 158 101.333 164 214h-138z" />
    <glyph glyph-name="quotedblbase" unicode="&#x201e;" horiz-adv-x="1024" 
d="M612 2v278.001h278v-199c0 -108 -16.333 -192 -49 -252c-37.333 -68.667 -103 -120.667 -197 -156l-55 112c102.667 31.333 155 103.666 157 216.999h-134zM138 2.00098v278.001h277v-199c0 -108.667 -16 -192.667 -48 -252c-37.333 -68.667 -103.333 -120.667 -198 -156
l-57 112c105.333 31.333 160 103.666 164 216.999h-138z" />
    <glyph glyph-name="dagger" unicode="&#x2020;" 
d="M701 -350h-262v1185h-366v230h366v388h262v-388h366v-230h-366v-1185z" />
    <glyph glyph-name="bullet" unicode="&#x2022;" horiz-adv-x="718" 
d="M654 727c0 -82.667 -28.667 -153 -86 -211s-127.333 -87 -210 -87c-82 0 -151.667 29.167 -209 87.5s-86 128.5 -86 210.5c0 81.333 28.833 151.166 86.5 209.499s127.167 87.5 208.5 87.5s151 -29.167 209 -87.5s87 -128.166 87 -209.499z" />
    <glyph glyph-name="ellipsis" unicode="&#x2026;" horiz-adv-x="2048" 
d="M1829 2h-284v283h284v-283zM1166 2h-283v283h283v-283zM503 2h-283v283h283v-283z" />
    <glyph glyph-name="perthousand" unicode="&#x2030;" horiz-adv-x="2686" 
d="M299 -33l993 1492h206l-990 -1492h-209zM410 1459c100 0 186.668 -36.668 260.001 -110.001s110 -160 110 -260s-36.333 -187 -109 -261s-159 -111 -259 -111c-100.667 0 -187.334 36.833 -260.001 110.5s-109 160.834 -109 261.501c0 100 36.167 186.667 108.5 260
s158.5 110 258.5 110zM412.001 1272c-50 0 -89.833 -17.8301 -119.5 -53.4971s-44.5 -78.834 -44.5 -129.501s14 -93.334 42 -128.001c30.667 -36.667 70.667 -55 120 -55c48.667 0 88.667 18.667 120 56c30 35.333 45 77.666 45 126.999c0 48 -15.333 90.5 -46 127.5
s-69.667 55.5 -117 55.5zM1388 711.002c100.667 0 187.167 -36.832 259.5 -110.499s108.5 -160.834 108.5 -261.501s-36.167 -187.834 -108.5 -261.501s-158.833 -110.5 -259.5 -110.5s-187.167 36.833 -259.5 110.5s-108.5 160.834 -108.5 261.501
c0 100 36.333 187 109 261s159 111 259 111zM1388 524.003c-47.333 0 -86.333 -18.834 -117 -56.501s-46 -80.5 -46 -128.5s15 -90 45 -126c31.333 -38 70.666 -57 117.999 -57c50 0 90.333 18.333 121 55c29.333 34.667 44 77.334 44 128.001s-14.667 93.667 -44 129
c-31.333 37.333 -71.666 56 -120.999 56zM2274 711.002c100.667 0 187.167 -36.832 259.5 -110.499s108.5 -160.834 108.5 -261.501s-36.167 -187.834 -108.5 -261.501s-158.833 -110.5 -259.5 -110.5s-187.167 36.833 -259.5 110.5s-108.5 160.834 -108.5 261.501
c0 100 36.333 187 109 261s159 111 259 111zM2274 524.003c-47.333 0 -86.332 -18.834 -116.999 -56.501s-46 -80.5 -46 -128.5s15 -90 45 -126c31.333 -38 70.666 -57 117.999 -57c50 0 90.667 18.333 122 55c29.333 34.667 44 77.334 44 128.001s-14.667 93.667 -44 129
c-31.333 37.333 -72 56 -122 56z" />
    <glyph glyph-name="guilsinglleft" unicode="&#x2039;" horiz-adv-x="684" 
d="M393 986h217l-262 -452l262 -463h-217l-319 463z" />
    <glyph glyph-name="guilsinglright" unicode="&#x203a;" horiz-adv-x="684" 
d="M291 71h-216l260 453l-260 462h216l319 -462z" />
    <glyph glyph-name="afii61352" unicode="&#x2116;" horiz-adv-x="2295" 
d="M167 0v1471h284l587 -979v979h275v-1471h-297l-577 953v-953h-272zM1412 795c0 121.333 35.999 219.667 107.999 295s168.333 113 289 113c116.667 0 212.334 -40.333 287.001 -121c72.667 -78 109 -176 109 -294s-35 -214 -105 -288
c-71.333 -76 -165.666 -114 -282.999 -114c-120.667 0 -218.334 38 -293.001 114s-112 174.333 -112 295zM1683 770.001c0 -130 42 -195 126 -195c86.667 0 130 80 130 240c0 132.667 -39.333 199 -118 199c-92 0 -138 -81.333 -138 -244zM1449 65.001v219h715v-219h-715z
" />
    <glyph glyph-name="trademark" unicode="&#x2122;" horiz-adv-x="2024" 
d="M612 683h-165v654h-252v134h663v-134h-246v-654zM1116 683h-153v788h258l151 -550l154 550h254v-788h-152v640l-201 -640h-114l-197 642v-642z" />
    <glyph glyph-name="periodcentered" unicode="&#x2219;" horiz-adv-x="569" 
d="M424 575h-279v280h279v-280z" />
    <glyph glyph-name=".null" horiz-adv-x="0" 
 />
    <glyph glyph-name="nonmarkingreturn" horiz-adv-x="512" 
 />
    <glyph glyph-name="glyph98" horiz-adv-x="2048" 
 />
    </font>
</defs>
</svg>
