<svg xmlns="http://www.w3.org/2000/svg">
<defs>
<font id="Decor" horiz-adv-x="401" >
  <font-face 
    font-family="Decor"
    font-weight="400"
    font-stretch="normal"
    units-per-em="1000"
    panose-1="0 0 0 0 0 0 0 0 0 0"
    ascent="800"
    descent="-200"
    x-height="387.997"
    cap-height="700.002"
    bbox="-220.002 -280 1225 904"
    underline-thickness="50"
    underline-position="-105"
    unicode-range="U+0020-2219"
  />
<missing-glyph 
d="M187 42l16.0029 0.00390625c-10 -9.33301 -18.333 -21 -25 -35s-13 -31 -19 -51c-3.33301 -12 -6.83301 -24.833 -10.5 -38.5s-7.5 -28.834 -11.5 -45.501c-1.33301 -6 -2.83301 -11.833 -4.5 -17.5s-3.16699 -11.5 -4.5 -17.5c-10 -36.667 -21.667 -65.334 -35 -86.001
s-35.333 -31 -66 -31c-10.667 0 -20.834 1 -30.501 3s-18.5 5.33301 -26.5 10l-1 15c4 -1.33301 8.5 -3 13.5 -5s10.5 -3.66699 16.5 -5c3.33301 -0.666992 7 -1.33398 11 -2.00098s7.66699 -1 11 -1c22 0 37.667 8.5 47 25.5s17.666 39.167 24.999 66.5
c2 6.66699 3.83301 13.667 5.5 21s3.5 14.666 5.5 21.999c2.66699 10 5.5 20.667 8.5 32s6.5 23 10.5 35c7.33301 20.667 16.166 40.667 26.499 60s22.833 34.333 37.5 45v0zM248.003 142.004l-5.00195 2.99609c-3.33301 -6 -8 -12.833 -14 -20.5
s-12.333 -15.834 -19 -24.501c-1.33301 -1.33301 -2.5 -2.66602 -3.5 -3.99902s-1.83301 -2.66602 -2.5 -3.99902c-8 -9.33301 -15.5 -18 -22.5 -26s-12.5 -14.333 -16.5 -19c-11.333 -12 -21.833 -22.333 -31.5 -31s-19.167 -15 -28.5 -19c-4 -2 -8.16699 -3.5 -12.5 -4.5
s-8.5 -1.5 -12.5 -1.5c-10.667 0 -18.834 2.5 -24.501 7.5s-9.83398 10.833 -12.501 17.5l-2 10c-0.666992 3.33301 -1 6.33301 -1 9s0.333008 5.5 1 8.5s1.33398 6.5 2.00098 10.5c0.666992 0.666992 1.16699 1.66699 1.5 3s0.5 2.33301 0.5 3
c0.666992 2 1.16699 3.83301 1.5 5.5s0.833008 3.16699 1.5 4.5l93 256c0 0.666992 0.5 2.5 1.5 5.5l3.5 10.5v0.5c0 0.333008 0.333008 0.833008 1 1.5c0.666992 4 1.5 7.66699 2.5 11s1.5 5.33301 1.5 6s-0.166992 1.5 -0.5 2.5s-0.5 1.83301 -0.5 2.5

<glyph glyph-name=".notdef" 
d="M187 42l16.0029 0.00390625c-10 -9.33301 -18.333 -21 -25 -35s-13 -31 -19 -51c-3.33301 -12 -6.83301 -24.833 -10.5 -38.5s-7.5 -28.834 -11.5 -45.501c-1.33301 -6 -2.83301 -11.833 -4.5 -17.5s-3.16699 -11.5 -4.5 -17.5c-10 -36.667 -21.667 -65.334 -35 -86.001
s-35.333 -31 -66 -31c-10.667 0 -20.834 1 -30.501 3s-18.5 5.33301 -26.5 10l-1 15c4 -1.33301 8.5 -3 13.5 -5s10.5 -3.66699 16.5 -5c3.33301 -0.666992 7 -1.33398 11 -2.00098s7.66699 -1 11 -1c22 0 37.667 8.5 47 25.5s17.666 39.167 24.999 66.5
c2 6.66699 3.83301 13.667 5.5 21s3.5 14.666 5.5 21.999c2.66699 10 5.5 20.667 8.5 32s6.5 23 10.5 35c7.33301 20.667 16.166 40.667 26.499 60s22.833 34.333 37.5 45v0zM248.003 142.004l-5.00195 2.99609c-3.33301 -6 -8 -12.833 -14 -20.5
s-12.333 -15.834 -19 -24.501c-1.33301 -1.33301 -2.5 -2.66602 -3.5 -3.99902s-1.83301 -2.66602 -2.5 -3.99902c-8 -9.33301 -15.5 -18 -22.5 -26s-12.5 -14.333 -16.5 -19c-11.333 -12 -21.833 -22.333 -31.5 -31s-19.167 -15 -28.5 -19c-4 -2 -8.16699 -3.5 -12.5 -4.5
s-8.5 -1.5 -12.5 -1.5c-10.667 0 -18.834 2.5 -24.501 7.5s-9.83398 10.833 -12.501 17.5l-2 10c-0.666992 3.33301 -1 6.33301 -1 9s0.333008 5.5 1 8.5s1.33398 6.5 2.00098 10.5c0.666992 0.666992 1.16699 1.66699 1.5 3s0.5 2.33301 0.5 3
c0.666992 2 1.16699 3.83301 1.5 5.5s0.833008 3.16699 1.5 4.5l93 256c0 0.666992 0.5 2.5 1.5 5.5l3.5 10.5v0.5c0 0.333008 0.333008 0.833008 1 1.5c0.666992 4 1.5 7.66699 2.5 11s1.5 5.33301 1.5 6s-0.166992 1.5 -0.5 2.5s-0.5 1.83301 -0.5 2.5
c-0.666992 2 -1.66699 3.66699 -3 5s-3.33301 2 -6 2c-4 0 -8.66699 -2.16699 -14 -6.5s-11 -9.83301 -17 -16.5c-2.66699 -2.66699 -5.16699 -5.66699 -7.5 -9s-4.83301 -6.66602 -7.5 -9.99902c-6 -8 -11.333 -15.667 -16 -23s-8 -12.666 -10 -15.999l-51 -85l-11 7l47 79
c0 0.666992 0.166992 1.16699 0.5 1.5s0.5 0.833008 0.5 1.5c0.666992 0 1 0.166992 1 0.5s0.333008 0.5 1 0.5c1.33301 2.66699 3 5.5 5 8.5l9 13.5c18 27.333 32.833 45.666 44.5 54.999s21.834 14 30.501 14h3.5c1 0 2.16699 -0.333008 3.5 -1
c8 -1.33301 15.333 -5.83301 22 -13.5s10 -18.5 10 -32.5c0 -5.33301 -1 -12.5 -3 -21.5s-6.33301 -22.833 -13 -41.5l-79 -222c-0.666992 -1.33301 -1.16699 -3 -1.5 -5s-0.833008 -3.66699 -1.5 -5v-1.5c0 -0.333008 -0.333008 -0.5 -1 -0.5l-2 -8
c-0.666992 -2.66699 -1 -4.66699 -1 -6v-1.5v-1.5v-0.5v-0.5v-2v-2c0 -0.666992 0.166992 -1.16699 0.5 -1.5s0.5 -0.833008 0.5 -1.5c1.33301 -2 3 -3.66699 5 -5s5 -2 9 -2c4.66699 0 10.667 2.66699 18 8s15 12 23 20l6 6l7 7c7.33301 7.33301 14 14.5 20 21.5
s10.333 12.167 13 15.5c9.33301 12 18 23.333 26 34s15.333 21.334 22 32.001c11.333 16.667 21.5 34 30.5 52s17.5 38 25.5 60c0.666992 1.33301 1.33398 2.83301 2.00098 4.5s1.33398 3.16699 2.00098 4.5l37 100h45l-115 -325
c-0.666992 -1.33301 -1.16699 -2.66602 -1.5 -3.99902s-0.833008 -2.66602 -1.5 -3.99902c-0.666992 -2 -1.16699 -3.66699 -1.5 -5s-0.833008 -2.66602 -1.5 -3.99902c0 -0.666992 -0.166992 -1.5 -0.5 -2.5s-0.833008 -1.83301 -1.5 -2.5l-1.5 -3
c-0.333008 -0.666992 -0.5 -1.66699 -0.5 -3v-2v-2v-2v-2v-2c0 -0.666992 0.333008 -1.33398 1 -2.00098c0 -2 0.666992 -3.66699 2 -5s3.33301 -2 6 -2c4 0 8.66699 2 14 6s10.666 9 15.999 15l8 10c2.66699 3.33301 5.33398 7 8.00098 11c6 8 11.333 15.5 16 22.5
s8 12.167 10 15.5l51 85l12 -7l-48 -78c-1.33301 -2.66699 -2.83301 -5.33398 -4.5 -8.00098s-3.5 -5.33398 -5.5 -8.00098c-12 -20 -25 -38 -39 -54s-28.333 -24 -43 -24h-1.5h-1.5c-8.66699 0.666992 -16.5 4.83398 -23.5 12.501s-10.5 18.834 -10.5 33.501
c0 8 0.666992 15.167 2 21.5s3 12.166 5 17.499c1.33301 4 2.83301 8 4.5 12s3.16699 8 4.5 12l15 42v0z" />
    <glyph glyph-name="space" unicode=" " horiz-adv-x="351" 
 />
    <glyph glyph-name="exclam" unicode="!" horiz-adv-x="228" 
d="M43 34c2.66699 11.333 7.16699 20.999 13.5 28.999s12.833 12 19.5 12c4.66699 0 8 -1.16699 10 -3.5s3.66699 -4.83301 5 -7.5c0 -2 0.166992 -3.66699 0.5 -5s0.5 -2.66602 0.5 -3.99902c0 -12.667 -2.33301 -24 -7 -34s-9.66699 -17 -15 -21c-2 -2 -4 -3.5 -6 -4.5
s-4 -1.5 -6 -1.5c-0.666992 0 -1.66699 0.166992 -3 0.5s-2.66602 0.833008 -3.99902 1.5c-2.66699 1.33301 -4.83398 3.16602 -6.50098 5.49902s-2.5 6.5 -2.5 12.5v10.5c0 3.66699 0.333008 6.83398 1 9.50098v0zM104 150.999l-20 -0.000976562l110 433
c1.33301 6 3.33301 13.833 6 23.5s5.66699 19.834 9 30.501c5.33301 15.333 12 29.5 20 42.5s17 19.5 27 19.5c3.33301 0 6.33301 -1 9 -3s4.33398 -5.66699 5.00098 -11v-2v-2v-2v-1v-2v-2c-0.666992 -4.66699 -1.33398 -9.5 -2.00098 -14.5s-1.66699 -10.167 -3 -15.5
c-0.666992 -4.66699 -1.5 -9.16699 -2.5 -13.5s-2.16699 -8.5 -3.5 -12.5c-2.66699 -10 -5 -18.5 -7 -25.5s-3.33301 -11.167 -4 -12.5l-144 -430v0z" />
    <glyph glyph-name="quotedbl" unicode="&#x22;" horiz-adv-x="360" 
d="M250 541l-20 0.000976562l-25 146c-0.666992 2.66699 -1.16699 5.5 -1.5 8.5s-0.5 6.16699 -0.5 9.5c0 7.33301 2.5 14.166 7.5 20.499s14.833 9.5 29.5 9.5c15.333 0 25.333 -3.16699 30 -9.5s7 -13.5 7 -21.5c0 -2.66699 -0.166992 -5.5 -0.5 -8.5
s-0.833008 -5.83301 -1.5 -8.5l-25 -146v0zM376 541.001l-20 0.000976562l-25 146c-0.666992 2.66699 -1.16699 5.5 -1.5 8.5s-0.5 6.16699 -0.5 9.5c0 7.33301 2.5 14.166 7.5 20.499s14.833 9.5 29.5 9.5c15.333 0 25.333 -3.16699 30 -9.5s7 -13.5 7 -21.5
c0 -2.66699 -0.166992 -5.5 -0.5 -8.5s-0.833008 -5.83301 -1.5 -8.5l-25 -146v0z" />
    <glyph glyph-name="numbersign" unicode="#" horiz-adv-x="700" 
d="M119 424l13 60h131l28 131h28l-28 -131h182l28 131h28l-28 -131h131l-13 -60h-131l-37 -178h130l-12 -60h-131l-28 -131h-28l28 131h-182l-28 -131h-28l28 131h-131l12 60h132l37 178h-131v0zM423 246l37 178h-182l-37 -178h182v0z" />
    <glyph glyph-name="dollar" unicode="$" horiz-adv-x="590" 
d="M178 -82l19.0029 72.0049c-53.333 6 -94.833 24.167 -124.5 54.5s-44.5 63.833 -44.5 100.5c0 19.333 3.33301 34.666 10 45.999s14 18.333 22 21c1.33301 0.666992 2.66602 1.16699 3.99902 1.5s2.66602 0.5 3.99902 0.5c2 0 3.83301 -0.166992 5.5 -0.5
s3.5 -1.16602 5.5 -2.49902c6 -3.33301 11.667 -9.66602 17 -18.999s8 -22.333 8 -39c0 -13.333 -1.66699 -24.5 -5 -33.5s-7 -16.5 -11 -22.5l-7 -7l-5 -5c10 -17.333 25 -32.833 45 -46.5s47.333 -22.167 82 -25.5l87 336c-38.667 30 -68.334 56.833 -89.001 80.5
s-34 46.5 -40 68.5c-1.33301 5.33301 -2.33301 10.5 -3 15.5s-1 10.167 -1 15.5c0 9.33301 0.666992 19.166 2 29.499s3.66602 21.166 6.99902 32.499c10 27.333 30.5 52.5 61.5 75.5s82.167 34.167 153.5 33.5l18 69h22l-19 -71c8.66699 -0.666992 18.167 -1.66699 28.5 -3
s20.5 -3.66602 30.5 -6.99902c25.333 -7.33301 48.5 -19.833 69.5 -37.5s31.5 -43.167 31.5 -76.5c0 -16 -1.66699 -28 -5 -36s-7 -13.667 -11 -17c-2.66699 -2 -5 -3.33301 -7 -4s-3.66699 -1 -5 -1c-2 0 -3.83301 0.166992 -5.5 0.5s-3.5 1.16602 -5.5 2.49902
c-6 2.66699 -11.5 8 -16.5 16s-7.5 19.333 -7.5 34c0 7.33301 0.833008 16.166 2.5 26.499s7.5 21.166 17.5 32.499l-7 7.5c-4.66699 5 -12 10.5 -22 16.5s-22.667 11.5 -38 16.5s-33.666 7.5 -54.999 7.5l-73 -281c38 -26.667 68.333 -51.834 91 -75.501
s39.667 -46.834 51 -69.501c7.33301 -14.667 12.5 -29.5 15.5 -44.5s4.5 -30.5 4.5 -46.5c0 -54.667 -23.167 -97 -69.5 -127s-99.5 -45 -159.5 -45h-9.5c-3 0 -6.16699 0.333008 -9.5 1c-3.33301 0 -6.5 0.166992 -9.5 0.5s-6.16699 0.5 -9.5 0.5l-19 -71h-22v0z
M308.003 335.005l-83.999 -325.001c4.66699 -0.666992 9.16699 -1 13.5 -1h13.5c52.667 0 97.5 11.833 134.5 35.5s55.5 55.834 55.5 96.501c0 30.667 -7.83301 58.167 -23.5 82.5s-35.834 47.833 -60.501 70.5c-8 6.66699 -16 13.5 -24 20.5s-16.333 13.833 -25 20.5v0z
M375.004 677.004l-9 -0.000976562c-50.667 0 -90.667 -12.833 -120 -38.5s-44 -55.167 -44 -88.5c0 -31.333 10.5 -58.166 31.5 -80.499s45.167 -42.5 72.5 -60.5l69 268v0z" />
    <glyph glyph-name="percent" unicode="%" horiz-adv-x="715" 
d="M633 688l15.9961 -10.9961l-540 -560v-8c12 7.33301 23.667 14.166 35 20.499s22.333 12.166 33 17.499c18 8 36.5 15 55.5 21s39.833 10.333 62.5 13c12.667 26 29.5 50.167 50.5 72.5s42.833 36.166 65.5 41.499v-10c-16.667 -8.66699 -31 -20.834 -43 -36.501
s-23.667 -37.834 -35 -66.501c-0.666992 -2 -1.5 -4 -2.5 -6s-1.83301 -4.33301 -2.5 -7c-2.66699 -8.66699 -5.5 -17.834 -8.5 -27.501s-5.83301 -19.167 -8.5 -28.5c-2.66699 -10 -4.66699 -20 -6 -30s-2 -19.333 -2 -28c0 -15.333 3.16699 -26.666 9.5 -33.999
s13.166 -12.333 20.499 -15c5.33301 -2 10.333 -3.16699 15 -3.5s8.33398 -0.5 11.001 -0.5c24.667 0 48.167 10.167 70.5 30.5s38.166 42.833 47.499 67.5c0.666992 1.33301 1.33398 2.83301 2.00098 4.5s1.33398 3.5 2.00098 5.5
c-29.333 7.33301 -52.166 21.333 -68.499 42s-24.833 42.667 -25.5 66v2v2c0 21.333 6.83301 39 20.5 53s28.834 21 45.501 21c18 0 31.667 -4.83301 41 -14.5s16 -20.5 20 -32.5c2 -6 3.5 -11.833 4.5 -17.5s1.5 -10.834 1.5 -15.501c0 -6.66699 -0.5 -14 -1.5 -22
s-2.16699 -16.333 -3.5 -25s-3.16602 -17 -5.49902 -25s-4.5 -15.333 -6.5 -22c2 -0.666992 4 -1.16699 6 -1.5s4 -0.5 6 -0.5h5h6c28.667 0 54.334 9.66699 77.001 29s40 40.333 52 63c0.666992 1.33301 1.16699 2.5 1.5 3.5s0.833008 1.83301 1.5 2.5l15 -5
c-10 -19.333 -20.5 -35.5 -31.5 -48.5s-22.5 -23.5 -34.5 -31.5c-15.333 -10.667 -30.333 -17.667 -45 -21s-27.667 -5 -39 -5c-4.66699 0 -9.16699 0.166992 -13.5 0.5s-8.16602 0.833008 -11.499 1.5c-2 -5.33301 -4.33301 -10.666 -7 -15.999l-8 -16
c-13.333 -22.667 -30.666 -43.334 -51.999 -62.001s-46.333 -28 -75 -28s-49.667 10.333 -63 31s-20 45 -20 73c0 8.66699 0.5 17 1.5 25s2.83301 15.667 5.5 23c1.33301 4 2.83301 8 4.5 12s3.5 8 5.5 12c-30 -2 -70.333 -13.167 -121 -33.5s-110.667 -66.5 -180 -138.5
l-17 12l529 548l-3 4c-12 -8 -26.5 -15.5 -43.5 -22.5s-34.5 -12.5 -52.5 -16.5c-8.66699 -1.33301 -17 -2.5 -25 -3.5s-16 -1.5 -24 -1.5c-4.66699 0 -9.16699 0.166992 -13.5 0.5s-8.5 0.833008 -12.5 1.5c-7.33301 -24.667 -20.333 -47.5 -39 -68.5
s-38.667 -36.5 -60 -46.5c-6.66699 -3.33301 -13.334 -5.83301 -20.001 -7.5s-13.334 -2.5 -20.001 -2.5c-28.667 0 -50.167 11 -64.5 33s-21.5 46.667 -21.5 74c0 12 1.83301 25.833 5.5 41.5s9.5 31.834 17.5 48.501c10.667 24 25.667 46.667 45 68s43 36.666 71 45.999
v-10c-10 -4 -18.833 -9.5 -26.5 -16.5s-15.167 -16.5 -22.5 -28.5c-4.66699 -7.33301 -9.33398 -15.666 -14.001 -24.999s-9.66699 -20.333 -15 -33c-1.33301 -4 -3 -8.66699 -5 -14l-6 -16c-1.33301 -6 -3 -12 -5 -18s-3.66699 -12 -5 -18
c-2.66699 -11.333 -5 -22.333 -7 -33s-3 -20 -3 -28c0 -15.333 5.5 -28.333 16.5 -39s25.167 -16 42.5 -16c6 0 12.333 1.16699 19 3.5s13.667 5.5 21 9.5c15.333 8.66699 30.166 21 44.499 37s24.833 32.667 31.5 50c0.666992 1.33301 1.33398 2.83301 2.00098 4.5
s1.33398 3.5 2.00098 5.5c-28 6.66699 -49.833 19.334 -65.5 38.001s-24.834 38.334 -27.501 59.001c-0.666992 2 -1 4.16699 -1 6.5v7.5c0 19.333 5.83301 36.666 17.5 51.999s27.5 23 47.5 23s36.167 -8 48.5 -24s18.5 -35 18.5 -57c0 -13.333 -0.833008 -27.5 -2.5 -42.5
s-6.16699 -31.833 -13.5 -50.5c3.33301 -0.666992 6.83301 -1 10.5 -1h10.5c34 0 66.167 6.5 96.5 19.5s56.833 27.5 79.5 43.5c15.333 10.667 28.5 21 39.5 31s18.833 18 23.5 24l40 45v0zM486.996 124.004c2 5.33301 3.66797 11.001 5.00098 17.001l4 18
c2.66699 10 4.5 20 5.5 30s1.5 19 1.5 27c0 22 -5 38.833 -15 50.5s-21.667 17.5 -35 17.5c-14.667 0 -26.5 -5.83301 -35.5 -17.5s-13.5 -25.834 -13.5 -42.501c0 -6 0.666992 -12.833 2 -20.5s4 -15.834 8 -24.501c5.33301 -11.333 13.666 -22.166 24.999 -32.499
s27.333 -17.833 48 -22.5v0zM315.997 528.005c2 6 3.99805 12.168 5.99805 18.501s3.66699 12.833 5 19.5c2 10 3.5 19.667 4.5 29s1.5 17.333 1.5 24c0 20 -4.33301 35.667 -13 47s-18 18.333 -28 21c-1.33301 0 -2.83301 0.166992 -4.5 0.5s-3.16699 0.5 -4.5 0.5
c-2.66699 0 -6 -0.333008 -10 -1s-8.33301 -2 -13 -4c-6.66699 -3.33301 -12.667 -9 -18 -17s-8 -20.667 -8 -38c0 -6 0.5 -12.333 1.5 -19s2.5 -13.334 4.5 -20.001c4.66699 -12 12.834 -23.667 24.501 -35s28.834 -20 51.501 -26v0z" />
    <glyph glyph-name="ampersand" unicode="&#x26;" horiz-adv-x="774" 
d="M653 17v-16.999c-5.33301 -1.33301 -11.166 -3 -17.499 -5s-12.833 -3.66699 -19.5 -5c-4 -0.666992 -8.16699 -1.33398 -12.5 -2.00098s-8.5 -1 -12.5 -1c-36.667 0 -69 6.33301 -97 19s-52 37 -72 73c-39.333 -36.667 -74.666 -61.167 -105.999 -73.5
s-61.666 -18.5 -90.999 -18.5c-49.333 0 -86.833 10.833 -112.5 32.5s-43.834 45.834 -54.501 72.501c-6 15.333 -10.167 30 -12.5 44s-3.5 26 -3.5 36c0 61.333 22 111.5 66 150.5s92.333 67.833 145 86.5c8 3.33301 16.167 6.16602 24.5 8.49902s16.5 4.5 24.5 6.5v6v6
c-0.666992 1.33301 -1 3 -1 5v6c0 65.333 16 117.666 48 156.999s67.333 66.666 106 81.999c12 4.66699 24 8.16699 36 10.5s23.667 3.5 35 3.5c26.667 0 47.334 -7.16699 62.001 -21.5s24 -30.166 28 -47.499c1.33301 -4 2.16602 -7.83301 2.49902 -11.5
s0.5 -7.16699 0.5 -10.5c0 -10 -3.5 -24.5 -10.5 -43.5s-23.833 -38.833 -50.5 -59.5c-20 -16 -47 -31.667 -81 -47s-77.667 -28.333 -131 -39c8.66699 -42 19.5 -82.333 32.5 -121s27.833 -77 44.5 -115c4 -8.66699 8.16699 -17.5 12.5 -26.5s8.5 -17.833 12.5 -26.5
c22 22 39.667 43.333 53 64s25 39.334 35 56.001c25.333 42.667 46.833 73.334 64.5 92.001s34.5 30.334 50.5 35.001c3.33301 0.666992 6.66602 1.16699 9.99902 1.5s6.66602 0.5 9.99902 0.5c21.333 0 37.333 -4.5 48 -13.5s18 -18.833 22 -29.5
c2 -4 3.33301 -8.16699 4 -12.5s1 -8.16602 1 -11.499c0 -11.333 -2.5 -21.5 -7.5 -30.5s-12.167 -13.5 -21.5 -13.5s-17.166 4.16699 -23.499 12.5s-9.5 17.833 -9.5 28.5c0 2.66699 0.333008 5.66699 1 9s2 7 4 11c1.33301 3.33301 3.33301 6.66602 6 9.99902
s5.66699 6.33301 9 9c-1.33301 5.33301 -5 9.5 -11 12.5s-12.667 4.5 -20 4.5c-12.667 0 -24.334 -3.5 -35.001 -10.5s-21.334 -16.833 -32.001 -29.5c-8 -10 -16.167 -21.5 -24.5 -34.5s-17.166 -27.5 -26.499 -43.5c-1.33301 -2.66699 -2.83301 -5.33398 -4.5 -8.00098
s-3.16699 -5.33398 -4.5 -8.00098c-11.333 -19.333 -23.833 -38.833 -37.5 -58.5s-30.5 -40.5 -50.5 -62.5c5.33301 -10.667 10.833 -20.5 16.5 -29.5s11.5 -16.833 17.5 -23.5c21.333 -24.667 41.666 -39.167 60.999 -43.5s34 -6.5 44 -6.5
c5.33301 0 10.166 0.166992 14.499 0.5s8.83301 0.833008 13.5 1.5s9.33398 1.5 14.001 2.5s9.33398 2.5 14.001 4.5v0zM304 404.001c-57.333 -15.333 -105.331 -45.6689 -143.998 -91.002s-58 -97.666 -58 -156.999c0 -44.667 11.167 -80.5 33.5 -107.5
s52.166 -40.5 89.499 -40.5c10.667 0 33 4.16699 67 12.5s74 33.833 120 76.5c-4.66699 8 -9.66699 17 -15 27s-10.666 20.333 -15.999 31c-8.66699 18.667 -17.334 38.5 -26.001 59.5s-16.334 42.167 -23.001 63.5c-7.33301 22 -13.5 43.833 -18.5 65.5
s-8.16699 41.834 -9.5 60.501v0zM344.002 438.998c20.667 7.33301 39.668 14.168 57.001 20.501s33.333 12.833 48 19.5c40 17.333 69.5 36 88.5 56s28.5 46 28.5 78c0 23.333 -5.83301 40.166 -17.5 50.499s-26.834 15.5 -45.501 15.5c-40.667 0 -77.5 -21.667 -110.5 -65
s-49.5 -93.333 -49.5 -150v-6v-6c0 -2.66699 0.166992 -5 0.5 -7s0.5 -4 0.5 -6v0z" />
    <glyph glyph-name="quotesingle" unicode="'" horiz-adv-x="234" 
d="M250 541l-20 0.000976562l-25 146c-0.666992 2.66699 -1.16699 5.5 -1.5 8.5s-0.5 6.16699 -0.5 9.5c0 7.33301 2.5 14.166 7.5 20.499s14.833 9.5 29.5 9.5c15.333 0 25.333 -3.16699 30 -9.5s7 -13.5 7 -21.5c0 -2.66699 -0.166992 -5.5 -0.5 -8.5
s-0.833008 -5.83301 -1.5 -8.5l-25 -146v0z" />
    <glyph glyph-name="parenleft" unicode="(" horiz-adv-x="350" 
d="M413 711l7 -12.001c-50 -28 -95.333 -81.5 -136 -160.5s-73.667 -163.167 -99 -252.5c-16.667 -58.667 -29.5 -115.667 -38.5 -171s-13.5 -103.333 -13.5 -144c0 -57.333 4.33301 -102.166 13 -134.499s18.334 -56.833 29.001 -73.5
c3.33301 -5.33301 6.66602 -9.83301 9.99902 -13.5s6.33301 -7.16699 9 -10.5l-8 -16c-23.333 24 -43.833 58 -61.5 102s-26.5 108.333 -26.5 193c0 40.667 4 86.5 12 137.5s20 103.5 36 157.5c24.667 82 59.167 160.333 103.5 235s98.833 129 163.5 163v0z" />
    <glyph glyph-name="parenright" unicode=")" horiz-adv-x="350" 
d="M-63 -277l-7.00195 11.998c50 26 96.5 81.5 139.5 166.5s77.5 176.167 103.5 273.5c14 51.333 24.833 102 32.5 152s11.5 95.333 11.5 136c0 50.667 -3.83301 91.834 -11.5 123.501s-16.167 56.167 -25.5 73.5c-4 8.66699 -8.16699 15.834 -12.5 21.501
s-8.16602 10.5 -11.499 14.5l8 15c0.666992 -0.666992 1.5 -1.66699 2.5 -3s1.83301 -2.33301 2.5 -3c20.667 -23.333 39.667 -57.5 57 -102.5s26 -107.167 26 -186.5c0 -36.667 -2.66699 -75 -8 -115s-13 -80.667 -23 -122c-23.333 -96 -59.166 -186.833 -107.499 -272.5
s-106.833 -146.5 -175.5 -182.5z" />
    <glyph glyph-name="asterisk" unicode="*" horiz-adv-x="415" 
d="M255 486c3.33301 -9.33301 5.5 -18.6689 6.5 -28.002s1.5 -18.666 1.5 -27.999c0 -21.333 -4 -42 -12 -62s-20 -38.667 -36 -56c-2.66699 9.33301 -4.5 18.333 -5.5 27s-1.5 17.334 -1.5 26.001c0 22.667 4 44 12 64s19.667 39 35 57v0zM275 491.997
c32.667 -8 59.832 -22.001 81.499 -42.001s37.834 -46.667 48.501 -80c-31.333 9.33301 -58 23.833 -80 43.5s-38.667 45.834 -50 78.501v0zM239.998 499.996c-18 -18.667 -37.667 -32.834 -59 -42.501s-44.333 -14.5 -69 -14.5
c-6.66699 0.666992 -13.5 1.33398 -20.5 2.00098s-14.167 1.66699 -21.5 3c18 18.667 37.667 32.834 59 42.501s44.333 14.5 69 14.5c7.33301 -0.666992 14.5 -1.33398 21.5 -2.00098s13.833 -1.66699 20.5 -3v0zM279.998 511.996c18 18.667 37.667 32.834 59 42.501
s44.333 14.5 69 14.5c7.33301 -0.666992 14.5 -1.33398 21.5 -2.00098s13.833 -1.66699 20.5 -3c-18 -18.667 -37.667 -32.834 -59 -42.501s-44.333 -14.5 -69 -14.5c-6.66699 0.666992 -13.5 1.33398 -20.5 2.00098s-14.167 1.66699 -21.5 3v0zM244.998 519.996
c-33.333 8.66699 -60.833 23.334 -82.5 44.001s-37.834 46.667 -48.501 78c33.333 -8.66699 60.833 -23.334 82.5 -44.001s37.834 -46.667 48.501 -78v0zM264.998 525.996c-2.66699 9.33301 -4.66699 18.832 -6 28.499s-2 18.834 -2 27.501c0 21.333 4 41.833 12 61.5
s20 38.5 36 56.5c2.66699 -8.66699 4.5 -17.5 5.5 -26.5s1.5 -17.833 1.5 -26.5c0 -22.667 -4 -44 -12 -64s-19.667 -39 -35 -57v0z" />
    <glyph glyph-name="plus" unicode="+" horiz-adv-x="756" 
d="M56 336v28h308v308h28v-308h308v-28h-308v-308h-28v308h-308v0z" />
    <glyph glyph-name="comma" unicode="," horiz-adv-x="168" 
d="M-39 -158l-10.002 10.9971c12 8.66699 22.833 18.834 32.5 30.501s17.834 23.834 24.501 36.501c1.33301 2.66699 2.83301 5.5 4.5 8.5s3.16699 5.83301 4.5 8.5c2 3.33301 3.66699 6.5 5 9.5s2.66602 5.83301 3.99902 8.5c2.66699 6 4.83398 12.667 6.50098 20
s2.83398 16 3.50098 26c0.666992 2 1 4 1 6v7v2.5v2.5c-0.666992 1.33301 -1 2.5 -1 3.5v2.5c0 3.33301 -0.166992 6.16602 -0.5 8.49902s-0.833008 4.83301 -1.5 7.5v4.5v5.5c0 6 1.83301 11.5 5.5 16.5s9.5 7.5 17.5 7.5c7.33301 0 12.833 -1.66699 16.5 -5
s6.16699 -7 7.5 -11c1.33301 -3.33301 2.16602 -6.66602 2.49902 -9.99902s0.5 -5.33301 0.5 -6c0 -11.333 -3.16699 -26.666 -9.5 -45.999s-19.166 -43.333 -38.499 -72c-2 -2.66699 -7.16699 -9.66699 -15.5 -21s-18.5 -23.333 -30.5 -36
c-4 -4 -8.33301 -8.16699 -13 -12.5s-9.66699 -8.5 -15 -12.5z" />
    <glyph glyph-name="hyphen" unicode="-" horiz-adv-x="312" 
d="M256 226v-41h-200v41h200v0z" />
    <glyph glyph-name="period" unicode="." horiz-adv-x="162" 
d="M29 34c2.66699 11.333 7.16699 20.999 13.5 28.999s12.833 12 19.5 12c4.66699 0 8 -1.16699 10 -3.5s3.66699 -4.83301 5 -7.5c0 -2 0.166992 -3.66699 0.5 -5s0.5 -2.66602 0.5 -3.99902c0 -12.667 -2.33301 -24 -7 -34s-9.66699 -17 -15 -21c-2 -2 -4 -3.5 -6 -4.5
s-4 -1.5 -6 -1.5c-0.666992 0 -1.66699 0.166992 -3 0.5s-2.66602 0.833008 -3.99902 1.5c-2.66699 1.33301 -4.83398 3.16602 -6.50098 5.49902s-2.5 6.5 -2.5 12.5v10.5c0 3.66699 0.333008 6.83398 1 9.50098v0z" />
    <glyph glyph-name="slash" unicode="/" horiz-adv-x="413" 
d="M-98 -280l564 1001h31l-564 -1001h-31v0z" />
    <glyph glyph-name="zero" unicode="0" horiz-adv-x="519" 
d="M304 691l-0.000976562 -9.99805c-19.333 -2.66699 -42.5 -15.334 -69.5 -38.001s-55.833 -70 -86.5 -142c-33.333 -80.667 -56.666 -152.334 -69.999 -215.001s-20 -106.667 -20 -132c0 -52.667 10.833 -90.334 32.5 -113.001s45.5 -34 71.5 -34
c39.333 0 73.333 15.333 102 46s53 64.334 73 101.001c8 16 15.5 31.667 22.5 47s13.167 29.333 18.5 42c29.333 71.333 50.5 137.833 63.5 199.5s19.5 109.834 19.5 144.501c0 3.33301 -0.166992 6.66602 -0.5 9.99902s-0.833008 7 -1.5 11
c-3.33301 17.333 -11.333 33.5 -24 48.5s-29.667 22.5 -51 22.5c-30 0 -57.833 -12.333 -83.5 -37s-47.5 -52 -65.5 -82c-8 -12.667 -15 -25.334 -21 -38.001s-11 -24.334 -15 -35.001c-9.33301 -22.667 -17.5 -47.5 -24.5 -74.5s-12.5 -54.5 -16.5 -82.5
c-2.66699 -16.667 -4.83398 -33.167 -6.50098 -49.5s-2.83398 -32.166 -3.50098 -47.499v-10.5c0 -3 -0.333008 -5.83301 -1 -8.5c0 -3.33301 -0.166992 -6.66602 -0.5 -9.99902s-0.833008 -7.33301 -1.5 -12h-14v22c0 8.66699 2.33301 39.334 7 92.001
s17.667 109.667 39 171c1.33301 3.33301 2.5 6.5 3.5 9.5s2.16699 6.16699 3.5 9.5c2.66699 6.66699 5.66699 13.667 9 21l10 22c20.667 40 47 76.833 79 110.5s66.333 50.5 103 50.5c31.333 0 59.666 -15 84.999 -45s38 -75.333 38 -136c0 -41.333 -7.5 -92.333 -22.5 -153
s-41.167 -123.667 -78.5 -189c-4.66699 -8 -9.5 -16 -14.5 -24s-10.833 -16.333 -17.5 -25c-26 -35.333 -57.833 -67.666 -95.5 -96.999s-77.167 -44 -118.5 -44c-42 0 -76.333 19.167 -103 57.5s-40 99.166 -40 182.499c0 23.333 2.33301 48 7 74s11.334 52.333 20.001 79
c10.667 34 24 67.5 40 100.5s33.667 62.833 53 89.5c38.667 52.667 73.334 85.667 104.001 99s51.334 20.666 62.001 21.999v0z" />
    <glyph glyph-name="one" unicode="1" horiz-adv-x="518" 
d="M479 681l-204.997 -680.997h-53l176 502l-7 2c-5.33301 -11.333 -15.833 -29.833 -31.5 -55.5s-43.834 -63.167 -84.501 -112.5c-6 -7.33301 -11.833 -14.333 -17.5 -21s-11.167 -13.334 -16.5 -20.001c-7.33301 -7.33301 -14.5 -14.833 -21.5 -22.5
s-14.5 -14.834 -22.5 -21.501c-10.667 -9.33301 -22.167 -18.833 -34.5 -28.5s-26.5 -19.834 -42.5 -30.501l-10 11c24 15.333 50.5 36.166 79.5 62.499s61.833 62.833 98.5 109.5c39.333 50.667 68.5 94 87.5 130s34.833 67.667 47.5 95c3.33301 7.33301 6.5 14 9.5 20
s5.5 12 7.5 18c2 4 3.83301 8 5.5 12s3.16699 8 4.5 12s2.66602 7.83301 3.99902 11.5s2.66602 7.83398 3.99902 12.501l22 -5v0z" />
    <glyph glyph-name="two" unicode="2" horiz-adv-x="519" 
d="M399 610l13.0049 -3.99707c-0.666992 -5.33301 -2.5 -13.166 -5.5 -23.499s-6.5 -20.833 -10.5 -31.5c-1.33301 -2.66699 -2.33301 -5 -3 -7s-1.33398 -4.33301 -2.00098 -7c-4 -10 -7.66699 -19 -11 -27s-6 -14 -8 -18c-12 -23.333 -26.5 -44.166 -43.5 -62.499
s-34.167 -33.5 -51.5 -45.5c-12 -7.33301 -23.833 -13.166 -35.5 -17.499s-22.5 -6.5 -32.5 -6.5c-3.33301 0 -7 0.166992 -11 0.5s-7.66699 1.16602 -11 2.49902c-18.667 4 -35.5 13.667 -50.5 29s-22.5 36.333 -22.5 63c0 10 0.833008 20.5 2.5 31.5
s4.16699 22.167 7.5 33.5c6.66699 21.333 15.5 42.166 26.5 62.499s23.833 38.166 38.5 53.499c21.333 21.333 44.5 37.333 69.5 48s52.833 16 83.5 16h2.5h3.5c34.667 -1.33301 66.667 -12.666 96 -33.999s44 -56 44 -104c0 -45.333 -13.167 -86.833 -39.5 -124.5
s-55.166 -69.834 -86.499 -96.501c-24.667 -20.667 -48.167 -38 -70.5 -52s-38.166 -23.667 -47.499 -29c-14.667 -8 -30.167 -17.167 -46.5 -27.5s-33.166 -21.5 -50.499 -33.5c-27.333 -20 -53.666 -43 -78.999 -69s-46.333 -56 -63 -90h8
c14 19.333 30.167 32.833 48.5 40.5s38.833 11.5 61.5 11.5c19.333 0 36.333 -2.83301 51 -8.5s27.667 -11.834 39 -18.501l10 -6c3.33301 -2 6.33301 -4 9 -6c33.333 -21.333 56.166 -34.333 68.499 -39s22.166 -7 29.499 -7c17.333 0 31.166 5.16699 41.499 15.5
s15.5 23.833 15.5 40.5c0 12 -2.5 21.167 -7.5 27.5s-10.5 10.5 -16.5 12.5c-2 0.666992 -4.16699 1.16699 -6.5 1.5s-4.5 0.5 -6.5 0.5c-1.33301 0 -3 -0.166992 -5 -0.5s-4 -0.833008 -6 -1.5h-1c-0.666992 0 -1.33398 -0.333008 -2.00098 -1
c-2 0 -3.83301 -0.333008 -5.5 -1s-2.83398 -1 -3.50098 -1v13c0.666992 0.666992 1.5 1.16699 2.5 1.5s1.83301 0.5 2.5 0.5c2.66699 1.33301 5.33398 2.16602 8.00098 2.49902s5.66699 0.5 9 0.5c14 0 24.833 -3 32.5 -9s13.167 -12.667 16.5 -20
c2 -4.66699 3.33301 -9.16699 4 -13.5s1 -7.83301 1 -10.5c0 -4 -0.666992 -9.16699 -2 -15.5s-4 -12.833 -8 -19.5c-6 -11.333 -15.833 -21.333 -29.5 -30s-33.5 -13 -59.5 -13c-2.66699 0 -5.5 0.166992 -8.5 0.5s-5.83301 0.5 -8.5 0.5
c-12 1.33301 -23.833 3.83301 -35.5 7.5s-22.5 7.83398 -32.5 12.501c-8.66699 4 -16.334 7.83301 -23.001 11.5s-11.667 6.5 -15 8.5c-2.66699 1.33301 -5.33398 2.83301 -8.00098 4.5s-5.33398 3.16699 -8.00098 4.5c-11.333 6.66699 -24.333 12.667 -39 18
s-29.667 8 -45 8c-14.667 0 -26.5 -3.33301 -35.5 -10s-15.833 -14 -20.5 -22c-2 -4 -3.83301 -7.83301 -5.5 -11.5s-3.16699 -7.16699 -4.5 -10.5s-2.5 -5.83301 -3.5 -7.5s-1.83301 -3.16699 -2.5 -4.5v0v-1c-0.666992 -0.666992 -1.33398 -1.83398 -2.00098 -3.50098
s-1.33398 -3.5 -2.00098 -5.5l-30 -1c6.66699 35.333 19.834 67.833 39.501 97.5s40.834 55.5 63.501 77.5c20.667 20 40.334 36.833 59.001 50.5s32 23.167 40 28.5c35.333 24 64.666 45.167 87.999 63.5s43.333 36.166 60 53.499c10 10.667 19.333 21.5 28 32.5
s17.334 22.833 26.001 35.5c0.666992 2 1.5 3.66699 2.5 5s2.16699 3 3.5 5c22 34.667 37.333 67.667 46 99s13 56 13 74c0 19.333 -5.16699 33.833 -15.5 43.5s-21.5 16.5 -33.5 20.5c-10.667 3.33301 -20.667 5.33301 -30 6s-15.333 1 -18 1
c-24 0 -50.167 -6.5 -78.5 -19.5s-56.833 -47.833 -85.5 -104.5c-2.66699 -4 -5.16699 -8.33301 -7.5 -13s-4.5 -9.66699 -6.5 -15c-2.66699 -5.33301 -5 -10.333 -7 -15s-4 -9 -6 -13c-2 -6 -3.83301 -12.167 -5.5 -18.5s-2.83398 -14.166 -3.50098 -23.499
c-0.666992 -2.66699 -1 -5.16699 -1 -7.5v-7.5v-3c0 -1.33301 0.333008 -2.33301 1 -3v-3.5v-3.5l2 -8l2 -8c3.33301 -8 9.16602 -15.333 17.499 -22s21.166 -10 38.499 -10c18 0 35.333 5 52 15s31.334 20.667 44.001 32c2 2 4 4.16699 6 6.5s4 4.5 6 6.5
c26.667 31.333 45.667 60.666 57 87.999s20.333 54.333 27 81v0z" />
    <glyph glyph-name="three" unicode="3" horiz-adv-x="519" 
d="M320 579l11.9961 -0.00292969c0.666992 -2 1 -4 1 -6v-6v-4.5c0 -1.66699 -0.333008 -3.16699 -1 -4.5c-1.33301 -11.333 -6.83301 -21.666 -16.5 -30.999s-24.5 -14 -44.5 -14c-19.333 0 -36.333 6.33301 -51 19s-22 30.334 -22 53.001c0 4.66699 0.333008 9.5 1 14.5
s2 9.83301 4 14.5c6.66699 21.333 21.334 41 44.001 59s55 27 97 27c8 0 17.167 -0.666992 27.5 -2s20.5 -3.33301 30.5 -6c22.667 -6.66699 43.5 -19.167 62.5 -37.5s28.5 -45.5 28.5 -81.5c0 -46 -16.5 -85.667 -49.5 -119s-70.167 -55 -111.5 -65v-6
c21.333 -10 38.5 -20.833 51.5 -32.5s23.167 -23.834 30.5 -36.501c10 -16 16 -31.667 18 -47s3 -28 3 -38c0 -72.667 -27.167 -131.167 -81.5 -175.5s-116.166 -66.5 -185.499 -66.5c-58.667 0 -103.834 15.5 -135.501 46.5s-47.5 67.167 -47.5 108.5
c0 37.333 13.5 68 40.5 92s59.833 36 98.5 36c38 0 71.5 -13.333 100.5 -40s48.833 -58 59.5 -94l-9 -4c-11.333 22 -22.166 40.333 -32.499 55s-20.5 26.667 -30.5 36c-14 12.667 -28.5 21 -43.5 25s-31.167 6 -48.5 6c-31.333 0 -55.666 -6.83301 -72.999 -20.5
s-29.333 -28.834 -36 -45.501c-2.66699 -6.66699 -4.66699 -13.334 -6 -20.001s-2 -12.667 -2 -18v-4v-4c2 -34 17 -65 45 -93s71.667 -42 131 -42c48 0 91.833 21 131.5 63s62.5 88 68.5 138c0 3.33301 0.166992 6.83301 0.5 10.5s0.5 7.16699 0.5 10.5
c0 40.667 -5.5 72.834 -16.5 96.501s-27.167 41.167 -48.5 52.5c-22.667 -5.33301 -39.834 -8.66602 -51.501 -9.99902s-22.5 -2 -32.5 -2h-2h-2c-6 0 -11 0.166992 -15 0.5s-7.66699 0.5 -11 0.5c-2.66699 0.666992 -5.16699 1.33398 -7.5 2.00098
s-5.16602 1.33398 -8.49902 2.00098c-1.33301 0.666992 -3 1.16699 -5 1.5s-4 0.833008 -6 1.5c-4.66699 1.33301 -9.16699 3.33301 -13.5 6s-6.5 6.66699 -6.5 12s3 9.5 9 12.5s12.667 5.16699 20 6.5l12 2c4 0.666992 7.33301 1 10 1h2h2h1h2h7.5h7.5
c11.333 -0.666992 23.666 -1.83398 36.999 -3.50098s30.333 -6.16699 51 -13.5c39.333 12.667 69.5 35.167 90.5 67.5s31.5 68.833 31.5 109.5c0 29.333 -5.66699 51.333 -17 66s-23.666 24.667 -36.999 30c-10.667 4.66699 -20.5 7.33398 -29.5 8.00098s-15.833 1 -20.5 1
c-3.33301 0 -6.66602 -0.166992 -9.99902 -0.5s-7 -0.5 -11 -0.5c-24 -3.33301 -46 -12 -66 -26s-30 -35.333 -30 -64c0 -18 3.33301 -31.5 10 -40.5s14 -15.167 22 -18.5c4 -2 8 -3.33301 12 -4s7.66699 -1 11 -1c17.333 0 29.833 4.16699 37.5 12.5s11.5 20.5 11.5 36.5
v3.5v2.5v0zM286.996 388.997c-2.66699 1.33301 -5.50195 2.33105 -8.50195 2.99805s-6.16699 1.33398 -9.5 2.00098c-6 1.33301 -11.833 2.33301 -17.5 3s-11.834 1 -18.501 1c-8.66699 0 -17.167 -0.666992 -25.5 -2s-17.166 -3.66602 -26.499 -6.99902
c9.33301 -3.33301 18.333 -5.83301 27 -7.5s17.334 -2.5 26.001 -2.5c9.33301 0 18.333 0.833008 27 2.5s17.334 4.16699 26.001 7.5v0z" />
    <glyph glyph-name="four" unicode="4" horiz-adv-x="518" 
d="M491 681l-179 -576.002h133v-21h-139l-30 -98h-55l30 98h-293v29c40.667 18.667 79.5 42 116.5 70s70.833 56.667 101.5 86c28 26.667 53 52.834 75 78.501s40.333 47.834 55 66.501c28.667 36.667 53.5 71.667 74.5 105s39.167 66 54.5 98
c5.33301 11.333 10.5 22.833 15.5 34.5s9.83301 23.167 14.5 34.5l26 -5v0zM399 504.998l-7 1c-12.667 -22.667 -33.5 -54.167 -62.5 -94.5s-70.5 -87.5 -124.5 -141.5c-56.667 -56.667 -103.167 -96.5 -139.5 -119.5s-60.5 -37.167 -72.5 -42.5l-1 -3h265l142 400v0z" />
    <glyph glyph-name="five" unicode="5" horiz-adv-x="519" 
d="M105 354l-20.9932 6.00098c13.333 24.667 23.833 44.167 31.5 58.5s14.5 27.833 20.5 40.5c1.33301 3.33301 2.66602 6.5 3.99902 9.5s2.66602 6.16699 3.99902 9.5c2.66699 6.66699 5.33398 13.834 8.00098 21.501s5.66699 16.5 9 26.5c4 12 8.16699 25 12.5 39
s8.16602 28.333 11.499 43c4 16 7.5 31.667 10.5 47s5.16699 29.666 6.5 42.999c6.66699 1.33301 13.334 2 20.001 2h20c25.333 0 47.166 -4.33301 65.499 -13s34.166 -18 47.499 -28c5.33301 -4 10.166 -8 14.499 -12s8.5 -7.66699 12.5 -11l1.5 -1.5l1.5 -1.5
c9.33301 -8.66699 20.166 -16.5 32.499 -23.5s25.833 -10.5 40.5 -10.5c13.333 0 25.166 4.66699 35.499 14s15.5 20.666 15.5 33.999c0 10.667 -2.33301 18.834 -7 24.501s-9.66699 9.83398 -15 12.501c-3.33301 1.33301 -6.5 2.16602 -9.5 2.49902s-5.5 0.5 -7.5 0.5h-0.5
h-1.5h-8.5c-3.66699 0 -7.83398 -0.666992 -12.501 -2c-2 -0.666992 -3.83301 -1.5 -5.5 -2.5s-3.5 -2.16699 -5.5 -3.5l-8 6c5.33301 4 9.83301 7 13.5 9s7.16699 3.33301 10.5 4c2.66699 0.666992 5.5 1.16699 8.5 1.5s6.16699 0.5 9.5 0.5
c2.66699 0 6.33398 -0.166992 11.001 -0.5s9.66699 -1.5 15 -3.5c6.66699 -2.66699 13 -6.83398 19 -12.501s9 -14.5 9 -26.5c0 -4 -0.333008 -8.5 -1 -13.5s-1.66699 -10.167 -3 -15.5c-4 -12 -11.667 -23.167 -23 -33.5s-29 -15.5 -53 -15.5c-29.333 0 -53.5 5 -72.5 15
s-35.833 21.333 -50.5 34l-2.5 2.5c-1 1 -2.16699 1.83301 -3.5 2.5c-17.333 14.667 -32.333 25.667 -45 33s-24.667 12.666 -36 15.999c-2.66699 0.666992 -5.33398 1.16699 -8.00098 1.5s-5.33398 0.833008 -8.00098 1.5c-0.666992 -3.33301 -1.16699 -6.5 -1.5 -9.5
s-0.833008 -5.83301 -1.5 -8.5l-2 -14c-0.666992 -4.66699 -1.66699 -10 -3 -16c-4 -21.333 -8.5 -40.833 -13.5 -58.5s-9.83301 -33.834 -14.5 -48.501c-7.33301 -22.667 -14.666 -41.334 -21.999 -56.001s-13.666 -26.334 -18.999 -35.001l4 -1
c12.667 15.333 27.334 27.833 44.001 37.5s33.667 16.5 51 20.5c7.33301 2 14.5 3.33301 21.5 4s13.833 1 20.5 1s17.667 -1.16699 33 -3.5s31.333 -8.16602 48 -17.499c22 -12 42 -32.5 60 -61.5s27 -71.5 27 -127.5c0 -15.333 -1.66699 -31.166 -5 -47.499
s-8 -32.833 -14 -49.5c-19.333 -52 -52.333 -99.5 -99 -142.5s-104.334 -64.5 -173.001 -64.5c-44.667 0 -85.334 14.167 -122.001 42.5s-55 64.166 -55 107.499c0 40.667 14.5 72 43.5 94s63.833 33 104.5 33c44.667 0 78.167 -9.16699 100.5 -27.5
s42.166 -39.5 59.499 -63.5c2.66699 -3.33301 5 -6.66602 7 -9.99902s4.33301 -6.66602 7 -9.99902l-14 -9c-5.33301 7.33301 -10.333 14.5 -15 21.5s-9.33398 13.5 -14.001 19.5c-14.667 19.333 -31 34.833 -49 46.5s-45.333 17.5 -82 17.5
c-37.333 0 -65.5 -7.66699 -84.5 -23s-31.833 -32 -38.5 -50c-2.66699 -6.66699 -4.5 -13.5 -5.5 -20.5s-1.5 -13.5 -1.5 -19.5c0 -6.66699 0.833008 -13.667 2.5 -21s4.16699 -14.666 7.5 -21.999c10.667 -21.333 28.5 -41 53.5 -59s56.5 -27 94.5 -27
c12.667 0 25.334 1 38.001 3s25.334 6 38.001 12c16.667 7.33301 33.5 18.5 50.5 33.5s33.5 35.5 49.5 61.5c8.66699 14 17.167 31 25.5 51s15.833 40.667 22.5 62c5.33301 19.333 9.66602 38.166 12.999 56.499s5 34.5 5 48.5c0 56 -12.5 94.167 -37.5 114.5
s-52.5 30.5 -82.5 30.5c-38.667 0 -71.667 -11.167 -99 -33.5s-52.666 -53.166 -75.999 -92.499v0z" />
    <glyph glyph-name="six" unicode="6" horiz-adv-x="518" 
d="M138 99l-18.0029 0.000976562c0.666992 21.333 1.66699 41 3 59s3.33301 35.667 6 53c2.66699 14.667 6.16699 29.667 10.5 45s10.166 31.666 17.499 48.999c16.667 40.667 38.667 72.667 66 96s55.666 38 84.999 44c4.66699 0.666992 9.16699 1.16699 13.5 1.5
s8.83301 0.5 13.5 0.5c37.333 0 65.833 -16 85.5 -48s29.5 -71 29.5 -117c0 -62.667 -21 -121.167 -63 -175.5s-88.333 -90.5 -139 -108.5c-10 -3.33301 -19.833 -6 -29.5 -8s-19.167 -3 -28.5 -3c-8 0 -16.5 1.16699 -25.5 3.5s-18.167 5.5 -27.5 9.5
c-22.667 12 -43.334 32.667 -62.001 62s-28 70.666 -28 123.999c0 64 10 124.833 30 182.5s42.333 106.5 67 146.5c6.66699 11.333 13.334 21.833 20.001 31.5s13 18.5 19 26.5c29.333 36.667 62.833 65.667 100.5 87s76.5 34.333 116.5 39c4 0 8.33301 0.166992 13 0.5
s9.33398 0.5 14.001 0.5c26.667 0 46.334 -5.33301 59.001 -16s20.667 -22.667 24 -36c0.666992 -2.66699 1.16699 -5.33398 1.5 -8.00098s0.5 -5.33398 0.5 -8.00098c0 -3.33301 -0.333008 -6.66602 -1 -9.99902l-2 -10c-3.33301 -10.667 -9.5 -20.167 -18.5 -28.5
s-21.5 -12.5 -37.5 -12.5c-18.667 0 -33 5.5 -43 16.5s-15.667 23.833 -17 38.5h15c1.33301 -10.667 5.5 -20.334 12.5 -29.001s17.833 -13 32.5 -13c12 0 20.833 2.83301 26.5 8.5s9.83398 11.834 12.501 18.501c1.33301 3.33301 2.16602 6.5 2.49902 9.5
s0.5 5.83301 0.5 8.5c0 16 -6.5 28 -19.5 36s-27.167 12.667 -42.5 14h-5.5h-4.5c-20.667 0 -50.167 -6.5 -88.5 -19.5s-78.833 -51.5 -121.5 -115.5l-12 -20c-4 -6.66699 -8 -13.667 -12 -21c-9.33301 -18 -18.166 -36.333 -26.499 -55s-15.833 -37.334 -22.5 -56.001
c-18 -52 -31 -101.833 -39 -149.5s-12 -83.834 -12 -108.501c0 -40.667 10 -72 30 -94s44.333 -33 73 -33c15.333 0 32.833 3.83301 52.5 11.5s39.5 22.834 59.5 45.501c6.66699 6.66699 13.167 14.334 19.5 23.001s12.5 18.334 18.5 29.001
c10.667 18.667 20.334 39.334 29.001 62.001s15.334 46 20.001 70c4 15.333 6.83301 30.666 8.5 45.999s2.5 30 2.5 44c0 30.667 -8.16699 53.167 -24.5 67.5s-34.5 21.5 -54.5 21.5c-30 0 -56.167 -10.167 -78.5 -30.5s-41.833 -45.166 -58.5 -74.499
c-7.33301 -12.667 -13.5 -26.5 -18.5 -41.5s-9.5 -30.167 -13.5 -45.5c-4 -17.333 -7 -34.333 -9 -51s-3.33301 -31.667 -4 -45c0 -2 -0.166992 -4 -0.5 -6s-0.5 -4 -0.5 -6v-0.5v-0.5c0 -3.33301 -0.166992 -7 -0.5 -11s-0.833008 -9.33301 -1.5 -16v0z" />
    <glyph glyph-name="seven" unicode="7" horiz-adv-x="518" 
d="M137 714l17.001 0.00195312c2 -10.667 3.66699 -21 5 -31s2 -20 2 -30c11.333 8.66699 22.833 14.834 34.5 18.501s24.5 5.5 38.5 5.5c24 0 44.333 -3.33301 61 -10s32 -14.667 46 -24c4 -2 8.16699 -4.33301 12.5 -7s8.83301 -5.33398 13.5 -8.00098
c8 -4.66699 16.667 -9.16699 26 -13.5s18.666 -8.16602 27.999 -11.499c4.66699 -1.33301 9.5 -2.33301 14.5 -3s9.83301 -1 14.5 -1s9.83398 0.5 15.501 1.5s11.5 3.16699 17.5 6.5c10 5.33301 19.333 14 28 26s14.667 29.667 18 53h17v-3
c0 -1.33301 0.333008 -2.33301 1 -3v-3.5v-3.5c0 -18 -3.16699 -37 -9.5 -57s-14.5 -40 -24.5 -60c-12 -24 -26.333 -48 -43 -72s-33.667 -46.333 -51 -67c-14.667 -17.333 -29 -33.333 -43 -48s-26.667 -27.667 -38 -39c-7.33301 -6.66699 -14.5 -13.334 -21.5 -20.001
s-14.167 -13.667 -21.5 -21c-58.667 -55.333 -112.5 -112 -161.5 -170s-73.5 -123.333 -73.5 -196c0 -43.333 7.5 -74.833 22.5 -94.5s31.5 -30.834 49.5 -33.501c1.33301 -0.666992 3 -1 5 -1h5c2.66699 0 5.33398 0.166992 8.00098 0.5s5.33398 1.16602 8.00098 2.49902
c10.667 3.33301 20.5 9.83301 29.5 19.5s13.5 22.5 13.5 38.5c0 2.66699 -0.166992 5.83398 -0.5 9.50098s-1.16602 7.5 -2.49902 11.5s-3.83301 8 -7.5 12s-8.83398 7.66699 -15.501 11l7 13c13.333 -6.66699 22.833 -14.334 28.5 -23.001s8.5 -19.667 8.5 -33
c0 -23.333 -8.33301 -42.166 -25 -56.499s-35.334 -21.5 -56.001 -21.5c-29.333 0 -53.833 13.5 -73.5 40.5s-29.5 63.167 -29.5 108.5c0 48.667 19.833 114.667 59.5 198s123.167 176.333 250.5 279c8.66699 7.33301 17.667 14.666 27 21.999s19 15 29 23
c21.333 19.333 42.166 41.333 62.499 66s37.5 54 51.5 88l-6 6c-2 -2 -4.16699 -4 -6.5 -6s-4.5 -3.66699 -6.5 -5c-10.667 -9.33301 -21.5 -16.666 -32.5 -21.999s-22.833 -8 -35.5 -8c-23.333 0 -44.5 3.33301 -63.5 10s-35.167 14 -48.5 22
c-6 3.33301 -11.333 6.66602 -16 9.99902s-8.66699 6.33301 -12 9c-20.667 16 -36.667 27 -48 33s-21.333 9 -30 9c-3.33301 0 -6.66602 -0.5 -9.99902 -1.5s-7 -2.5 -11 -4.5c-5.33301 -2.66699 -10.5 -5.83398 -15.5 -9.50098s-9.16699 -7.83398 -12.5 -12.501
c-4 -34 -9.83301 -63.833 -17.5 -89.5s-15.834 -46.167 -24.501 -61.5c-6 -9.33301 -11.667 -16.666 -17 -21.999s-10 -8 -14 -8c-0.666992 0 -1.33398 0.166992 -2.00098 0.5s-1.66699 0.5 -3 0.5c-2 1.33301 -3.83301 3.66602 -5.5 6.99902s-2.5 8 -2.5 14
c0 34.667 5.33301 63 16 85s24 42.667 40 62c1.33301 2 2.83301 4 4.5 6s3.5 4 5.5 6c0.666992 2.66699 1.16699 5.33398 1.5 8.00098s0.5 5.33398 0.5 8.00098v8v8c0 4 -0.166992 8 -0.5 12s-0.5 8.33301 -0.5 13l-2 12c-0.666992 4 -1.66699 8 -3 12v0zM138.001 605.002
c-14 -20 -24.499 -40.668 -31.499 -62.001s-10.833 -43.666 -11.5 -66.999c12.667 19.333 22.667 39.833 30 61.5s11.666 44.167 12.999 67.5v0z" />
    <glyph glyph-name="eight" unicode="8" horiz-adv-x="518" 
d="M297 697l6.00098 -10.0049c-6 -3.33301 -11.667 -6.33301 -17 -9s-10.333 -5.33398 -15 -8.00098c-19.333 -12 -34.333 -25 -45 -39s-16 -33.333 -16 -58s3.66699 -46.167 11 -64.5s17.666 -35.833 30.999 -52.5c6 -8 12.833 -16.167 20.5 -24.5
s15.834 -16.833 24.501 -25.5c34.667 6 62.167 18.667 82.5 38s35.5 40 45.5 62c6.66699 14.667 11.5 28.834 14.5 42.501s4.5 25.5 4.5 35.5c0 26 -5.5 48.333 -16.5 67s-30.167 28 -57.5 28c-28.667 0 -50.5 -8.66699 -65.5 -26s-23.167 -36.333 -24.5 -57v-2.5v-2.5
c0 -12 1.33301 -25.167 4 -39.5s9 -30.166 19 -47.499l-12 -6c-6 8.66699 -11 18.334 -15 29.001s-7 21.334 -9 32.001c-1.33301 5.33301 -2.16602 10.666 -2.49902 15.999s-0.5 10.666 -0.5 15.999c0 6 0.833008 12.667 2.5 20s4.16699 15 7.5 23
c6.66699 16.667 18 31.834 34 45.501s37.333 20.5 64 20.5c36.667 0 64.5 -11.833 83.5 -35.5s28.5 -50.167 28.5 -79.5c0 -38.667 -12.833 -75 -38.5 -109s-69.834 -62.333 -132.501 -85c26.667 -26.667 47.834 -51 63.501 -73s26.167 -43.667 31.5 -65
c1.33301 -5.33301 2.33301 -10.666 3 -15.999s1 -10.666 1 -15.999c0 -9.33301 -0.5 -19.166 -1.5 -29.499s-2.5 -20.5 -4.5 -30.5c-8.66699 -44 -29.167 -84 -61.5 -120s-81.5 -54 -147.5 -54c-66.667 0 -112.834 20.667 -138.501 62s-38.5 87 -38.5 137
c0 39.333 9.16699 71 27.5 95s38.5 43 60.5 57c15.333 9.33301 29.833 16.666 43.5 21.999s24.5 9.66602 32.5 12.999c2.66699 1.33301 5.16699 2.33301 7.5 3s4.5 1.33398 6.5 2.00098l3 1.5c0.666992 0.333008 1.33398 0.5 2.00098 0.5
c3.33301 1.33301 6.83301 2.83301 10.5 4.5s8.16699 3.83398 13.5 6.50098c-14.667 18 -27.834 38.833 -39.501 62.5s-17.5 49.5 -17.5 77.5c0 44.667 9.16699 77.5 27.5 98.5s43.166 39.5 74.499 55.5c4 2 8.16699 4 12.5 6s8.5 4 12.5 6v0zM242.001 376.995
c-57.333 -15.333 -99.833 -41.1689 -127.5 -77.502s-45.167 -74.5 -52.5 -114.5c-2 -10 -3.5 -20.167 -4.5 -30.5s-1.5 -20.5 -1.5 -30.5c0 -30 13.167 -57 39.5 -81s60.5 -36 102.5 -36c55.333 0 97.833 16 127.5 48s44.5 71 44.5 117c0 44.667 -12.667 83.334 -38 116.001
s-55.333 62.334 -90 89.001v0z" />
    <glyph glyph-name="nine" unicode="9" horiz-adv-x="517" 
d="M386 588h17.002v-4v-4c-0.666992 -21.333 -1.66699 -40.5 -3 -57.5s-3.33301 -33.833 -6 -50.5c-2.66699 -14 -6.16699 -28.333 -10.5 -43s-9.83301 -30.334 -16.5 -47.001c-12.667 -30.667 -27.5 -55.667 -44.5 -75s-34.167 -34 -51.5 -44
c-14.667 -8.66699 -29 -14.834 -43 -18.501s-27 -5.5 -39 -5.5c-37.333 0 -65.833 16.333 -85.5 49s-29.5 71.334 -29.5 116.001c0 63.333 20.667 121.833 62 175.5s87 89.834 137 108.501c10.667 4 21 7 31 9s20 3 30 3c42.667 0 77.167 -20 103.5 -60
s39.5 -86.667 39.5 -140c0 -8.66699 -0.166992 -17.5 -0.5 -26.5s-1.16602 -17.833 -2.49902 -26.5c-6 -62.667 -21.5 -123.5 -46.5 -182.5s-53.833 -109.167 -86.5 -150.5s-70.334 -72.833 -113.001 -94.5s-86.667 -32.5 -132 -32.5c-26 0 -46.5 6 -61.5 18
s-22.5 28.333 -22.5 49c0 17.333 5.16699 32 15.5 44s24.833 18 43.5 18c16 0 29.833 -5 41.5 -15s17.5 -23 17.5 -39v-0.5v-0.5v-0.5v-0.5h-14c0 2.66699 -0.333008 5.33398 -1 8.00098s-1.66699 5.66699 -3 9c-2.66699 6 -7 11.667 -13 17s-15.333 8 -28 8
c-14.667 0 -25.334 -4.66699 -32.001 -14s-10 -19.666 -10 -30.999c0 -14 4.66699 -24.667 14 -32s19.666 -12.333 30.999 -15l14 -2c4.66699 -0.666992 9 -1 13 -1c12 0 24 1.16699 36 3.5s24.333 5.83301 37 10.5c27.333 10.667 54.666 29 81.999 55s53 61.667 77 107
c42.667 79.333 70.334 154.333 83.001 225s19 119 19 145c0 6 -0.333008 12.5 -1 19.5s-2 13.833 -4 20.5c-4.66699 21.333 -14.667 41 -30 59s-38 27 -68 27c-28.667 0 -55.167 -9.33301 -79.5 -28s-44.166 -39.334 -59.499 -62.001
c-2.66699 -2.66699 -4.83398 -5.5 -6.50098 -8.5s-3.5 -6.16699 -5.5 -9.5c-9.33301 -16.667 -18 -36 -26 -58s-15 -44.667 -21 -68c-4 -17.333 -7.16699 -34.166 -9.5 -50.499s-3.5 -31.833 -3.5 -46.5c0 -22.667 7.16699 -43.167 21.5 -61.5s33.833 -27.5 58.5 -27.5
c28.667 0 53.167 9 73.5 27s37.833 38.333 52.5 61c1.33301 2.66699 2.83301 5.16699 4.5 7.5s3.16699 4.5 4.5 6.5c16.667 29.333 28.167 60.666 34.5 93.999s11.5 77.666 15.5 132.999v0z" />
    <glyph glyph-name="colon" unicode=":" horiz-adv-x="162" 
d="M29 34c2.66699 11.333 6.66699 20.5 12 27.5s11 11.167 17 12.5c0.666992 0.666992 1.33398 1 2.00098 1h2c5.33301 0 9.16602 -1.66699 11.499 -5s3.83301 -7 4.5 -11v-2v-2c0 -12.667 -2.33301 -24 -7 -34s-9.66699 -17 -15 -21c-2 -2 -4 -3.5 -6 -4.5s-4 -1.5 -6 -1.5
c-0.666992 0 -1.66699 0.166992 -3 0.5s-2.66602 0.833008 -3.99902 1.5c-2.66699 1.33301 -4.83398 3.16602 -6.50098 5.49902s-2.5 6.5 -2.5 12.5v10.5c0 3.66699 0.333008 6.83398 1 9.50098v0zM92 302c0 0.666992 0.166992 1.16797 0.5 1.50098s0.5 0.833008 0.5 1.5
c2.66699 9.33301 7 18 13 26s12.333 12 19 12c4.66699 0 8.16699 -1.33301 10.5 -4s3.83301 -5.33398 4.5 -8.00098c0.666992 -2 1 -3.66699 1 -5v-4c0 -15.333 -3 -28.666 -9 -39.999s-12.667 -18 -20 -20c-0.666992 -0.666992 -1.5 -1 -2.5 -1h-2.5
c-4.66699 0 -8 1.16699 -10 3.5s-3.66699 4.83301 -5 7.5c0 2 -0.166992 3.66699 -0.5 5s-0.5 2.66602 -0.5 3.99902v3v3v2.5v2.5v2.5v2.5c0 0.666992 0.166992 1.5 0.5 2.5s0.5 1.83301 0.5 2.5v0z" />
    <glyph glyph-name="semicolon" unicode=";" horiz-adv-x="168" 
d="M-39 -158l-10.002 10.9971c12 8.66699 22.833 18.834 32.5 30.501s17.834 23.834 24.501 36.501c1.33301 2.66699 2.83301 5.5 4.5 8.5s3.16699 5.83301 4.5 8.5c2 3.33301 3.66699 6.5 5 9.5s2.66602 5.83301 3.99902 8.5c2.66699 6 4.83398 12.667 6.50098 20
s2.83398 16 3.50098 26c0.666992 2 1 4 1 6v7v2.5v2.5c-0.666992 1.33301 -1 2.5 -1 3.5v2.5c0 3.33301 -0.166992 6.16602 -0.5 8.49902s-0.833008 4.83301 -1.5 7.5v4.5v5.5c0 6 1.83301 11.5 5.5 16.5s9.5 7.5 17.5 7.5c7.33301 0 12.833 -1.66699 16.5 -5
s6.16699 -7 7.5 -11c1.33301 -3.33301 2.16602 -6.66602 2.49902 -9.99902s0.5 -5.33301 0.5 -6c0 -11.333 -3.16699 -26.666 -9.5 -45.999s-19.166 -43.333 -38.499 -72c-2 -2.66699 -7.16699 -9.66699 -15.5 -21s-18.5 -23.333 -30.5 -36
c-4 -4 -8.33301 -8.16699 -13 -12.5s-9.66699 -8.5 -15 -12.5zM97.998 301.997c0 0.666992 0.166016 1.16895 0.499023 1.50195s0.5 0.833008 0.5 1.5c2.66699 9.33301 7 18 13 26s12.333 12 19 12c4.66699 0 8.16699 -1.33301 10.5 -4s3.83301 -5.33398 4.5 -8.00098
c0.666992 -2 1 -3.66699 1 -5v-4c0 -16.667 -3 -30.334 -9 -41.001s-12.667 -17 -20 -19c-0.666992 -0.666992 -1.5 -1 -2.5 -1h-2.5c-5.33301 0 -9.16602 1.66699 -11.499 5s-3.83301 7 -4.5 11v2v2v10.5c0 3.66699 0.333008 7.16699 1 10.5v0z" />
    <glyph glyph-name="less" unicode="&#x3c;" horiz-adv-x="559" 
d="M91 350l412 -238l-14 -24l-433 250v24l433 250l14 -24l-412 -238v0z" />
    <glyph glyph-name="equal" unicode="=" horiz-adv-x="756" 
d="M56 266v28h644v-28h-644v0zM56 406v28h644v-28h-644v0z" />
    <glyph glyph-name="greater" unicode="&#x3e;" horiz-adv-x="559" 
d="M468 350l-412 238l14 24l433 -250v-24l-433 -250l-14 24l412 238v0z" />
    <glyph glyph-name="question" unicode="?" horiz-adv-x="337" 
d="M91 34c2 10 4.66602 17.832 7.99902 23.499s7 9.83398 11 12.501c2 2 4.16699 3.33301 6.5 4s4.5 1 6.5 1c0.666992 0 1.66699 -0.166992 3 -0.5s2.66602 -0.833008 3.99902 -1.5c2.66699 -1.33301 5 -3.33301 7 -6s3 -6.66699 3 -12c0 -2 -0.166992 -4.16699 -0.5 -6.5
s-0.5 -4.5 -0.5 -6.5c-2 -12 -6.16699 -23 -12.5 -33s-13.166 -15 -20.499 -15c-0.666992 0 -1.5 0.166992 -2.5 0.5s-1.83301 0.5 -2.5 0.5c-3.33301 1.33301 -6.16602 3.5 -8.49902 6.5s-3.5 7.16699 -3.5 12.5v5.5c0 1.66699 0.333008 3.16699 1 4.5
c0 1.33301 0.166992 2.83301 0.5 4.5s0.5 3.5 0.5 5.5v0zM232.999 261.999l16.0049 -4.99707c-5.33301 -13.333 -11 -25.166 -17 -35.499s-12 -19.166 -18 -26.499c-13.333 -16.667 -26.333 -27.334 -39 -32.001s-23 -7 -31 -7c-16.667 0 -30.834 6.16699 -42.501 18.5
s-17.5 28.166 -17.5 47.499c0 28 9.66699 54.833 29 80.5s40.666 49.834 63.999 72.501c6.66699 6 13.167 12 19.5 18s12.5 12 18.5 18c6.66699 6.66699 13.667 13.5 21 20.5s14.666 14.5 21.999 22.5c12.667 14 25.167 28.333 37.5 43s23.833 29.667 34.5 45
c12 17.333 21.667 34.666 29 51.999s11 33.666 11 48.999c0 2 -0.166992 4.33301 -0.5 7s-1.16602 5.33398 -2.49902 8.00098c-2.66699 6 -7.83398 11.5 -15.501 16.5s-18.834 7.5 -33.501 7.5c-10.667 0 -21.834 -1.83301 -33.501 -5.5s-23.834 -8.83398 -36.501 -15.501
c-20.667 -11.333 -40.667 -25.833 -60 -43.5s-36 -36.167 -50 -55.5c-10 -14 -18 -27.667 -24 -41s-9 -25.333 -9 -36c0 -10 3.5 -17.5 10.5 -22.5s16.833 -7.5 29.5 -7.5c27.333 0 53.333 12.167 78 36.5s46.334 51.166 65.001 80.499c2 3.33301 3.83301 6.5 5.5 9.5
s3.5 6.16699 5.5 9.5c2.66699 5.33301 5 9.83301 7 13.5s4 7.16699 6 10.5c0.666992 1.33301 1.33398 2.83301 2.00098 4.5s1.33398 3.5 2.00098 5.5c0 0.666992 0.166992 1.5 0.5 2.5s0.833008 2.16699 1.5 3.5l12 -5c-18.667 -49.333 -44.667 -91.833 -78 -127.5
s-68 -54.5 -104 -56.5h-2.5h-3.5c-15.333 0 -28.833 4 -40.5 12s-17.5 20.667 -17.5 38c0 6.66699 0.5 13.334 1.5 20.001s2.5 13.334 4.5 20.001c12 40 37.667 77 77 111s81.333 52.667 126 56c2.66699 0.666992 5.16699 1 7.5 1h6.5c4.66699 0 10.5 -0.333008 17.5 -1
s14.167 -2.33398 21.5 -5.00098c12 -4 22.833 -11.833 32.5 -23.5s14.5 -29.834 14.5 -54.501c0 -38 -9.16699 -71.5 -27.5 -100.5s-38.5 -53.5 -60.5 -73.5c-10.667 -10 -21 -18.833 -31 -26.5s-19 -14.5 -27 -20.5c-58 -42.667 -96.167 -77 -114.5 -103
s-27.5 -49.667 -27.5 -71c0 -12.667 3 -23.334 9 -32.001s15.333 -13 28 -13c16 0 29.833 4.83301 41.5 14.5s21.5 20.167 29.5 31.5c5.33301 8 9.66602 15.667 12.999 23s5.66602 13 6.99902 17v0z" />
    <glyph glyph-name="at" unicode="@" horiz-adv-x="823" 
d="M548 546l61.0029 -0.00195312l-78 -273c0 -1.33301 -0.166992 -2.5 -0.5 -3.5s-0.833008 -2.16699 -1.5 -3.5c-1.33301 -5.33301 -2.5 -10.833 -3.5 -16.5s-1.5 -11.5 -1.5 -17.5c0 -13.333 4.16699 -25.666 12.5 -36.999s24.166 -17 47.499 -17c46 0 83 22.167 111 66.5
s42.667 92.833 44 145.5v5v4c0 90 -30.333 159.667 -91 209s-133.334 74 -218.001 74c-84 0 -160.833 -29.667 -230.5 -89s-104.5 -146.333 -104.5 -261c0 -89.333 29 -164 87 -224s134 -90 228 -90c29.333 0 59.333 2 90 6s62.334 14 95.001 30l12 -27
c-38.667 -16 -74 -26 -106 -30s-62.333 -6 -91 -6c-108.667 0 -192.5 31.667 -251.5 95s-92.5 133.333 -100.5 210c-0.666992 6 -1.16699 12 -1.5 18s-0.5 12 -0.5 18c0 96.667 33.5 183.834 100.5 261.501s157.833 116.5 272.5 116.5c92 0 171.333 -27.167 238 -81.5
s100 -130.833 100 -229.5c0 -5.33301 -0.166992 -11 -0.5 -17s-0.833008 -11.667 -1.5 -17c-5.33301 -54 -23.666 -103.5 -54.999 -148.5s-76 -67.5 -134 -67.5c-38.667 0 -63.834 6.83301 -75.501 20.5s-20.5 37.167 -26.5 70.5
c-0.666992 1.33301 -1.16699 2.83301 -1.5 4.5s-0.5 3.16699 -0.5 4.5h-4c-30 -36.667 -58.167 -61.667 -84.5 -75s-50.833 -20 -73.5 -20c-33.333 0 -57.333 14 -72 42s-22.334 58.667 -23.001 92v3.5v2.5c0 55.333 18 105 54 149s75.667 75.333 119 94
c12.667 5.33301 25.167 9.5 37.5 12.5s24.166 4.5 35.499 4.5c17.333 0 33 -3.5 47 -10.5s23.667 -16.5 29 -28.5h3l8 31v0zM353.003 203.998c33.333 0 63.832 16.667 91.499 50s48.167 70 61.5 110c4.66699 14.667 8.33398 29 11.001 43s4 27.333 4 40v2.5v2.5
c-0.666992 20.667 -5.33398 39.334 -14.001 56.001s-23.667 25 -45 25c-8.66699 0 -17.5 -1.5 -26.5 -4.5s-18.167 -6.83301 -27.5 -11.5c-30 -17.333 -57.667 -44.333 -83 -81s-39.333 -75.334 -42 -116.001v-5.5v-5.5c0 -6 0.333008 -13 1 -21s2 -16.333 4 -25
c3.33301 -14.667 9.83301 -28.167 19.5 -40.5s24.834 -18.5 45.501 -18.5v0z" />
    <glyph glyph-name="A" unicode="A" horiz-adv-x="745" 
d="M472 0l0.00292969 18.002h37c9.33301 0 17.666 1.5 24.999 4.5s13.666 8.83301 18.999 17.5c4 6 9.16699 20 15.5 42s13.166 46.667 20.499 74c1.33301 4.66699 2.5 9.16699 3.5 13.5s2.16699 8.5 3.5 12.5c7.33301 29.333 14 57.166 20 83.499s10.333 44.5 13 54.5h-180
l-2 -6c-0.666992 -2 -1.66699 -3.66699 -3 -5c-32 -80.667 -73.5 -154.5 -124.5 -221.5s-111.833 -100.5 -182.5 -100.5c-48.667 0 -88.167 16.667 -118.5 50s-45.5 70.333 -45.5 111c0 39.333 11.5 72 34.5 98s56.833 39 101.5 39c13.333 0 28.333 -2.16699 45 -6.5
s35 -12.5 55 -24.5c5.33301 -3.33301 10.5 -6.83301 15.5 -10.5s9.83301 -7.5 14.5 -11.5l-10 -14c-3.33301 2 -6.83301 4.16699 -10.5 6.5s-7.5 4.5 -11.5 6.5c-14.667 9.33301 -30.667 17.666 -48 24.999s-36.666 11 -57.999 11c-32.667 0 -57 -7.66699 -73 -23
s-26 -32 -30 -50c-1.33301 -4.66699 -2.33301 -9.5 -3 -14.5s-1 -9.83301 -1 -14.5c0 -44 10.667 -78.5 32 -103.5s45 -41.833 71 -50.5c6.66699 -2.66699 13.5 -4.5 20.5 -5.5s13.833 -1.5 20.5 -1.5c60.667 0 113.334 28.833 158.001 86.5s82 120.834 112 189.501
c3.33301 6.66699 6.33301 13.334 9 20.001l8 20h-156v20h163c38.667 87.333 80.167 158.833 124.5 214.5s89.166 95.167 134.499 118.5c16.667 9.33301 33.5 16.166 50.5 20.499s33.833 6.5 50.5 6.5c4 0 7.83301 -0.166992 11.5 -0.5s7.16699 -0.833008 10.5 -1.5
c4.66699 -0.666992 9.33398 -1.66699 14.001 -3s9.66699 -3 15 -5l-6 -16c-3.33301 1.33301 -6.5 2.5 -9.5 3.5s-6.16699 1.83301 -9.5 2.5c-2 0.666992 -4.16699 1.16699 -6.5 1.5s-4.83301 0.5 -7.5 0.5c-8 0 -14.833 -1.33301 -20.5 -4s-11.167 -9 -16.5 -19
c-2.66699 -5.33301 -5.16699 -11.333 -7.5 -18s-4.83301 -14.667 -7.5 -24c-14.667 -50 -24.167 -84.167 -28.5 -102.5s-6.5 -29.833 -6.5 -34.5c0 -1.33301 0.166992 -2.33301 0.5 -3s0.833008 -1 1.5 -1v-0.5v-0.5l0.5 -1c0.333008 -0.666992 0.5 -2 0.5 -4
c0 -4.66699 -2 -15.834 -6 -33.501s-12.667 -49.834 -26 -96.501h66v-20h-69c-12.667 -59.333 -26.334 -112.166 -41.001 -158.499s-35.334 -85.5 -62.001 -117.5c-4 -4.66699 -6.5 -8.16699 -7.5 -10.5s-1.5 -3.83301 -1.5 -4.5c0 -3.33301 1.66699 -6 5 -8
s7.33301 -3 12 -3h125v-18h-243v0zM456.003 340.002l177.998 0.000976562c0.666992 4 1.33398 7.33301 2.00098 10s1.33398 5 2.00098 7v1.5v0.5c0.666992 4 1.5 8.16699 2.5 12.5s2.5 10.5 4.5 18.5c2 8.66699 3.83301 17 5.5 25s3.16699 15.667 4.5 23
c12.667 54.667 26.167 100.5 40.5 137.5s33.5 69.833 57.5 98.5h-6c-2.66699 -0.666992 -5.16699 -1.16699 -7.5 -1.5s-4.83301 -0.833008 -7.5 -1.5c-43.333 -12.667 -85.5 -42.334 -126.5 -89.001s-76.167 -96.667 -105.5 -150c-8.66699 -16 -16.667 -31.667 -24 -47
s-14 -30.333 -20 -45v0z" />
    <glyph glyph-name="B" unicode="B" horiz-adv-x="698" 
d="M7 104l20.0049 -5.98633c0 -0.666992 -0.333008 -1.83398 -1 -3.50098s-1.33398 -3.83398 -2.00098 -6.50098c-0.666992 -3.33301 -1.33398 -7.16602 -2.00098 -11.499s-1 -8.83301 -1 -13.5c0 -2.66699 0.5 -6.33398 1.5 -11.001s2.83301 -9.33398 5.5 -14.001
c4 -8 10.5 -15.167 19.5 -21.5s22.167 -9.5 39.5 -9.5c9.33301 0 19 1.16699 29 3.5s20.333 7.5 31 15.5c14.667 12 29 32 43 60s27 69 39 123c16 73.333 31 135.166 45 185.499s28 92.833 42 127.5c14 35.333 28.333 64 43 86s30.667 40.667 48 56l-2 4
c-70.667 -26.667 -131.834 -63.834 -183.501 -111.501s-96.167 -105.5 -133.5 -173.5l-17 9c38.667 70.667 83.834 129 135.501 175s104.5 80 158.5 102c25.333 10 50.5 17.667 75.5 23s49.5 8 73.5 8c38.667 0 73.834 -10.833 105.501 -32.5s47.5 -54.834 47.5 -99.501
c0 -42.667 -12.667 -77.834 -38 -105.501s-55 -46.167 -89 -55.5v-2c5.33301 -1.33301 10.666 -3.16602 15.999 -5.49902s10.666 -4.83301 15.999 -7.5c24.667 -12.667 47.167 -31.834 67.5 -57.501s30.5 -60.5 30.5 -104.5c0 -8.66699 -0.5 -17.5 -1.5 -26.5
s-2.83301 -18.167 -5.5 -27.5c-11.333 -47.333 -36.833 -90.666 -76.5 -129.999s-90.167 -59 -151.5 -59c-37.333 0 -66.5 11.167 -87.5 33.5s-34.5 47.166 -40.5 74.499c-1.33301 6 -2.33301 11.667 -3 17s-1 10.666 -1 15.999c0 46 12.333 85.833 37 119.5
s58 63.5 100 89.5l8 -15c-32.667 -21.333 -62 -46.833 -88 -76.5s-39 -68.834 -39 -117.501v-6.5c0 -2.33301 0.333008 -4.5 1 -6.5c2.66699 -26.667 13.667 -51.334 33 -74.001s45.666 -34 78.999 -34c51.333 0 95 22 131 66s54 97 54 159c0 53.333 -10 93 -30 119
s-42.333 42.333 -67 49c-1.33301 -0.666992 -2.5 -1.16699 -3.5 -1.5s-2.16699 -0.5 -3.5 -0.5c-5.33301 -2 -11.333 -3.83301 -18 -5.5s-13.334 -3.16699 -20.001 -4.5c-5.33301 -0.666992 -10.5 -1.33398 -15.5 -2.00098s-9.83301 -1 -14.5 -1
c-11.333 0 -20.666 0.666992 -27.999 2s-13.333 3 -18 5c-2.66699 0.666992 -4.83398 1.5 -6.50098 2.5s-3.5 1.83301 -5.5 2.5h-0.5c-0.333008 0 -0.833008 0.333008 -1.5 1c-2 0.666992 -3.66699 1.66699 -5 3s-2 4 -2 8c0 6.66699 4.16699 11.667 12.5 15
s17.5 5.66602 27.5 6.99902c5.33301 0.666992 10.166 1.16699 14.499 1.5s8.5 0.5 12.5 0.5h3.5h3.5c10 -0.666992 19.667 -2.33398 29 -5.00098s18 -5.66699 26 -9c2.66699 -0.666992 5 -1.5 7 -2.5s4 -1.83301 6 -2.5c23.333 6 41.666 16.833 54.999 32.5s23 32.5 29 50.5
c5.33301 15.333 8.83301 29.833 10.5 43.5s2.5 24.5 2.5 32.5c0 30.667 -9.83301 56.5 -29.5 77.5s-48.167 31.5 -85.5 31.5c-7.33301 0 -15.166 -0.333008 -23.499 -1s-16.5 -1.66699 -24.5 -3c-3.33301 0 -6.33301 -0.333008 -9 -1l-8 -2
c-19.333 -17.333 -35.5 -42.333 -48.5 -75s-25.5 -71.334 -37.5 -116.001c-10.667 -40 -21.667 -84 -33 -132s-25 -99 -41 -153c-10.667 -37.333 -22.5 -68.5 -35.5 -93.5s-26.167 -45.167 -39.5 -60.5c-24.667 -28 -47.667 -44.667 -69 -50s-36.333 -8 -45 -8
c-29.333 0 -51.666 7.66699 -66.999 23s-23 33.666 -23 54.999c0 4 0.5 9.33301 1.5 16s2.83301 14.334 5.5 23.001v0zM503.005 409.014c-5.33301 2 -10.832 3.83496 -16.499 5.50195s-11.5 2.83398 -17.5 3.50098c-2.66699 0 -5.5 0.166992 -8.5 0.5s-5.83301 0.5 -8.5 0.5
c-9.33301 0 -18 -0.666992 -26 -2s-15.667 -4 -23 -8c1.33301 -0.666992 3.16602 -1.33398 5.49902 -2.00098s5.5 -1.66699 9.5 -3s9 -2.5 15 -3.5s12.333 -1.5 19 -1.5c3.33301 0 7 0.166992 11 0.5s8 0.833008 12 1.5c4.66699 1.33301 9.5 2.66602 14.5 3.99902
s9.5 2.66602 13.5 3.99902v0z" />
    <glyph glyph-name="C" unicode="C" horiz-adv-x="540" 
d="M512 266l19.002 -7.00098c-18 -46 -37 -85 -57 -117s-40.333 -58.667 -61 -80c-27.333 -28.667 -54.333 -48.334 -81 -59.001s-50.667 -16 -72 -16c-6 0 -12.167 0.333008 -18.5 1s-12.5 1.33398 -18.5 2.00098c-45.333 8 -86.833 33.5 -124.5 76.5
s-56.5 108.833 -56.5 197.5c0 34.667 7.33301 79.334 22 134.001s45 111.334 91 170.001c4.66699 5.33301 9.16699 10.5 13.5 15.5s8.83301 10.167 13.5 15.5c27.333 30 58.5 53.833 93.5 71.5s70.833 27.5 107.5 29.5h5.5h5.5h6h6c29.333 -2 57.666 -10.667 84.999 -26
s49.333 -37 66 -65h7c2 9.33301 5.16699 21.5 9.5 36.5s10.833 35.5 19.5 61.5l17 -4c-8 -25.333 -15 -48.5 -21 -69.5s-11.333 -41.5 -16 -61.5c-3.33301 -17.333 -6.33301 -35 -9 -53s-5 -37.333 -7 -58h-18c0.666992 33.333 -0.833008 61.833 -4.5 85.5
s-12.167 45.5 -25.5 65.5c-14.667 23.333 -30.834 40.333 -48.501 51s-39.834 16 -66.501 16c-11.333 0 -22.666 -0.833008 -33.999 -2.5s-23 -4.5 -35 -8.5c-24.667 -8.66699 -49 -23.334 -73 -44.001s-46.333 -50 -67 -88c-11.333 -21.333 -21.666 -43.833 -30.999 -67.5
s-17.666 -47.5 -24.999 -71.5c-8.66699 -31.333 -15.334 -62 -20.001 -92s-7 -57.333 -7 -82c0 -64.667 9.66699 -112.167 29 -142.5s40.666 -50.5 63.999 -60.5c11.333 -5.33301 22.5 -8.83301 33.5 -10.5s20.833 -2.5 29.5 -2.5c2.66699 0 21.5 4.5 56.5 13.5
s73.167 40.167 114.5 93.5c14.667 18 29 39.5 43 64.5s27.333 54.167 40 87.5v0z" />
    <glyph glyph-name="D" unicode="D" horiz-adv-x="760" 
d="M21 0v18h102h1.5h1.5c6.66699 0 13.334 0.833008 20.001 2.5s13.334 7.83398 20.001 18.501c4.66699 6.66699 8.16699 13.667 10.5 21s4.5 15.666 6.5 24.999c2.66699 10.667 5.66699 22.834 9 36.501s8 29.5 14 47.5c-38.667 20.667 -71.5 52.167 -98.5 94.5
s-40.5 90.833 -40.5 145.5c0 73.333 27.333 140.166 82 200.499s146 90.5 274 90.5c92 0 161.167 -15 207.5 -45s79.166 -63 98.499 -99c14 -26.667 22.667 -52.167 26 -76.5s5 -42.5 5 -54.5c0 -126 -37.333 -230.5 -112 -313.5s-172 -124.5 -292 -124.5
c-12 0 -26.833 0.666992 -44.5 2s-36.834 3 -57.501 5c-21.333 2 -44.333 3.5 -69 4.5s-50 1.5 -76 1.5h-88v0zM411 129l-1.99707 -18.998c-24 0.666992 -45.667 3 -65 7s-36 8.33301 -50 13c-10 2.66699 -18.667 5.5 -26 8.5s-13 5.5 -17 7.5
c-2 -5.33301 -4.83301 -12.333 -8.5 -21s-7.83398 -17.667 -12.501 -27c-2 -3.33301 -3.66699 -6.33301 -5 -9s-3 -5.33398 -5 -8.00098c-4.66699 -9.33301 -9.33398 -17.666 -14.001 -24.999s-8.66699 -12.333 -12 -15c-1.33301 -0.666992 -2.5 -1.66699 -3.5 -3
s-1.83301 -3 -2.5 -5c-0.666992 -0.666992 -1.16699 -1.5 -1.5 -2.5s-0.5 -1.83301 -0.5 -2.5c0 -2 0.333008 -3.5 1 -4.5s1.33398 -1.83301 2.00098 -2.5c3.33301 -2 14.5 -4.16699 33.5 -6.5s39.5 -4.16602 61.5 -5.49902s42.167 -2.5 60.5 -3.5s29.833 -1.5 34.5 -1.5
c86 0 151.667 25.167 197 75.5s77.666 105.833 96.999 166.5c10.667 34 18 67 22 99s6 59.667 6 83c0 79.333 -21.833 141 -65.5 185s-113.167 66 -208.5 66h-17c-6 0 -12 -0.333008 -18 -1c-2 -2.66699 -4 -5.83398 -6 -9.50098s-4 -7.83398 -6 -12.501
c-4.66699 -10.667 -9.33398 -23.334 -14.001 -38.001s-9 -29.667 -13 -45c-5.33301 -20 -10 -39.167 -14 -57.5s-7 -32.5 -9 -42.5c-3.33301 -16 -8 -37.833 -14 -65.5s-12.333 -56.5 -19 -86.5c-0.666992 -3.33301 -1.5 -7 -2.5 -11s-1.83301 -7.66699 -2.5 -11
c-6.66699 -28 -13 -54 -19 -78s-11 -42.667 -15 -56c32.667 -14.667 62 -24.167 88 -28.5s47.667 -6.83301 65 -7.5v0zM370.003 676.002c-76 -6.66699 -134.333 -26.499 -175 -59.499s-69.334 -68.833 -86.001 -107.5c-8 -18.667 -13.667 -37 -17 -55s-5 -34.333 -5 -49
c0 -11.333 1.16699 -22.833 3.5 -34.5s5.5 -23.834 9.5 -36.501c9.33301 -29.333 23.833 -57.166 43.5 -83.499s42.167 -46.166 67.5 -59.499c2 7.33301 5 19.333 9 36s8.33301 34.667 13 54v1.5v1.5c3.33301 12 6.33301 23.833 9 35.5s5 22.167 7 31.5
c14 61.333 26.333 111.166 37 149.499s21.334 69.833 32.001 94.5c8 19.333 16.167 35.166 24.5 47.499s17.5 23.5 27.5 33.5v0z" />
    <glyph glyph-name="E" unicode="E" horiz-adv-x="535" 
d="M563 716l13.9922 -2.99707c-6 -22.667 -11 -41.334 -15 -56.001s-7.33301 -28.334 -10 -41.001c-1.33301 -7.33301 -2.66602 -14.833 -3.99902 -22.5s-2.66602 -16.167 -3.99902 -25.5c-1.33301 -6.66699 -2.33301 -13.667 -3 -21s-1.66699 -15.666 -3 -24.999h-16
c0 2 0.166992 4 0.5 6s0.5 4.33301 0.5 7c0.666992 2 1 4 1 6v6c0 38.667 -13.333 70.834 -40 96.501s-60.667 38.5 -102 38.5c-4.66699 0 -9.16699 -0.166992 -13.5 -0.5s-8.83301 -0.833008 -13.5 -1.5c-28.667 -4.66699 -55 -19.334 -79 -44.001
s-36 -66.334 -36 -125.001c0 -6 0.166992 -13 0.5 -21s1.5 -16.333 3.5 -25s4.83301 -17.167 8.5 -25.5s9.16699 -15.5 16.5 -21.5c11.333 2 21.666 3.5 30.999 4.5s18.666 1.83301 27.999 2.5c3.33301 0.666992 6.83301 1 10.5 1h10.5c21.333 0 37.166 -1.33301 47.499 -4
s17.833 -5.66699 22.5 -9c2.66699 -2 4.33398 -4 5.00098 -6s1 -3.66699 1 -5c0 -6.66699 -7 -12.167 -21 -16.5s-31.667 -6.5 -53 -6.5c-9.33301 0 -20.5 1.16699 -33.5 3.5s-26.167 5.5 -39.5 9.5l-10 4l-10 4c-41.333 -14.667 -73.166 -35.5 -95.499 -62.5
s-38.5 -55.167 -48.5 -84.5c-6 -16.667 -10.167 -33.5 -12.5 -50.5s-3.5 -32.5 -3.5 -46.5c0 -8 0.333008 -15.333 1 -22s1.66699 -13.334 3 -20.001l2 -8l2 -8h3c20 56 49.5 100.5 88.5 133.5s79.833 54.833 122.5 65.5c10 2.66699 20.167 4.66699 30.5 6s20.5 2 30.5 2
c34.667 0 64.5 -11.167 89.5 -33.5s37.5 -51.166 37.5 -86.499c0 -8 -0.833008 -16.5 -2.5 -25.5s-4.16699 -17.833 -7.5 -26.5c-13.333 -36.667 -40.166 -70.167 -80.499 -100.5s-90.833 -45.5 -151.5 -45.5c-30.667 0 -58.167 4 -82.5 12s-47.166 21.333 -68.499 40
c0 -6.66699 -0.166992 -12 -0.5 -16s-0.5 -7.33301 -0.5 -10c-0.666992 -2.66699 -1 -4.83398 -1 -6.50098v-4.5c-0.666992 -1.33301 -1 -2.83301 -1 -4.5v-7.5c0 -9.33301 1.33301 -23.833 4 -43.5s8 -40.834 16 -63.501c1.33301 -2.66699 2.66602 -5.66699 3.99902 -9
l4 -10l-15 -11c-6.66699 16.667 -12.167 31.667 -16.5 45s-7.5 26.333 -9.5 39c-2 8.66699 -3.33301 17.334 -4 26.001s-1 18 -1 28c0 8.66699 0.5 18 1.5 28s1.83301 21 2.5 33c-4.66699 4.66699 -9 9.16699 -13 13.5s-7.33301 8.83301 -10 13.5
c-15.333 22 -24.666 43.333 -27.999 64s-5 38.667 -5 54c0 57.333 20.333 104.833 61 142.5s86.334 60.834 137.001 69.501v6c-13.333 10.667 -24.166 24.667 -32.499 42s-13.833 35 -16.5 53c-0.666992 4.66699 -1.16699 9.16699 -1.5 13.5s-0.5 8.83301 -0.5 13.5
c0 47.333 17.833 86.333 53.5 117s82.834 46 141.501 46c8 0 23 -1.5 45 -4.5s45.667 -12.5 71 -28.5c6 -4.66699 12.333 -9.5 19 -14.5s13 -10.833 19 -17.5h4c0.666992 3.33301 1.33398 6.5 2.00098 9.5s1.33398 5.83301 2.00098 8.5c0.666992 0.666992 1 1.5 1 2.5
s0.333008 2.16699 1 3.5c0.666992 2.66699 1.33398 5.5 2.00098 8.5s1.66699 6.16699 3 9.5c0.666992 1.33301 1.16699 2.83301 1.5 4.5s0.5 3.16699 0.5 4.5l0.5 1l0.5 1c0.666992 3.33301 1.66699 7.16602 3 11.499s2.66602 9.83301 3.99902 16.5v0zM119.992 73.0029
c15.333 -23.333 34.835 -39.5029 58.502 -48.5029s48.167 -14.5 73.5 -16.5c5.33301 -0.666992 10.5 -1 15.5 -1h15.5c48.667 0 88.167 11.5 118.5 34.5s52.5 48.167 66.5 75.5c6 12.667 10.667 25.334 14 38.001s5 24 5 34c0 2.66699 -0.166992 5.33398 -0.5 8.00098
s-0.833008 5.33398 -1.5 8.00098c-3.33301 20 -13.833 38.167 -31.5 54.5s-42.834 24.5 -75.501 24.5c-60.667 0 -115.334 -21.667 -164.001 -65s-79.667 -91 -93 -143c0 -0.666992 -0.166992 -1.16699 -0.5 -1.5s-0.5 -0.833008 -0.5 -1.5v0zM392.994 401
l0.000976562 2.99902c-3.33301 1.33301 -6.5 2.33301 -9.5 3s-6.16699 1.33398 -9.5 2.00098c-4.66699 0.666992 -9.33398 1.16699 -14.001 1.5s-10 0.5 -16 0.5s-11.5 -0.166992 -16.5 -0.5s-10.167 -0.833008 -15.5 -1.5l-10 -2
c-3.33301 -0.666992 -6.66602 -1.66699 -9.99902 -3c5.33301 -2 10 -3.66699 14 -5s8.33301 -2.33301 13 -3c4 -0.666992 8.16699 -1.16699 12.5 -1.5s8.83301 -0.5 13.5 -0.5c5.33301 0 10.333 0.166992 15 0.5s9 0.833008 13 1.5l10 2
c3.33301 0.666992 6.66602 1.66699 9.99902 3v0z" />
    <glyph glyph-name="F" unicode="F" horiz-adv-x="501" 
d="M676 734l11.0039 -8.00195c-16.667 -25.333 -36 -43.333 -58 -54s-50.667 -16 -86 -16h-22c-9.33301 0 -19.333 0.666992 -30 2c-4.66699 0 -9.5 0.5 -14.5 1.5s-9.83301 1.83301 -14.5 2.5c-7.33301 -6.66699 -14.833 -15 -22.5 -25s-15.167 -24.333 -22.5 -43
c-8 -18.667 -15.833 -42.667 -23.5 -72s-15.167 -66.666 -22.5 -111.999h137l-4 -20h-138c-0.666992 -4.66699 -1.33398 -9.16699 -2.00098 -13.5s-1.33398 -8.16602 -2.00098 -11.499c-0.666992 -2.66699 -1.16699 -5.16699 -1.5 -7.5s-0.833008 -4.83301 -1.5 -7.5
c-0.666992 -6.66699 -1.83398 -13.5 -3.50098 -20.5s-3.5 -15.167 -5.5 -24.5c-2.66699 -10.667 -4.66699 -19.167 -6 -25.5s-2.33301 -12.166 -3 -17.499c0 -0.666992 -0.166992 -1.33398 -0.5 -2.00098l-0.5 -1c-0.666992 -2.66699 -1.16699 -5.5 -1.5 -8.5
s-0.833008 -6.16699 -1.5 -9.5c3.33301 -2 6.83301 -3.83301 10.5 -5.5s7.16699 -3.5 10.5 -5.5l22 -10l22 -10c14.667 -6 28.834 -11.5 42.501 -16.5s25.5 -8.83301 35.5 -11.5l-6 -16c-0.666992 0 -1.33398 0.166992 -2.00098 0.5l-1 0.5
c-18 5.33301 -37.167 12.166 -57.5 20.499s-46.833 20.166 -79.5 35.499c-18 -96 -46.167 -159.333 -84.5 -190s-78.833 -46 -121.5 -46c-31.333 0 -55.833 10.5 -73.5 31.5s-26.5 45.833 -26.5 74.5c0 34 11.167 62.5 33.5 85.5s50.833 34.167 85.5 33.5
c6 0 12.333 -0.333008 19 -1s13.334 -2 20.001 -4v-21c-2.66699 1.33301 -5.66699 2.33301 -9 3s-6.33301 1.33398 -9 2.00098c-3.33301 0 -6.5 0.166992 -9.5 0.5s-6.16699 0.5 -9.5 0.5c-25.333 -0.666992 -48.333 -9 -69 -25s-31 -40.667 -31 -74
c0 -29.333 8.33301 -51 25 -65s36 -21 58 -21c28 0 51.167 7.33301 69.5 22s33.5 35.334 45.5 62.001c2.66699 6 5 12.167 7 18.5s4.33301 13.5 7 21.5c3.33301 13.333 6.83301 29 10.5 47s7.83398 40.667 12.501 68c-48 24.667 -85 52.5 -111 83.5s-44.333 62.5 -55 94.5
c-6.66699 18 -11.167 35.833 -13.5 53.5s-3.5 34.834 -3.5 51.501c0 43.333 11.333 76.666 34 99.999s47.667 40.333 75 51c24.667 9.33301 47.667 15 69 17s34 3 38 3c14.667 0 30 -0.333008 46 -1s32.333 -1.66699 49 -3l16 -2l16 -2
c6.66699 -0.666992 13.167 -1.5 19.5 -2.5s12.833 -1.83301 19.5 -2.5c13.333 -2 27.166 -3.66699 41.499 -5s29.833 -2 46.5 -2c6.66699 0 13.5 0.333008 20.5 1s14.5 2 22.5 4c11.333 3.33301 22.666 8.83301 33.999 16.5s20.666 18.5 27.999 32.5v0zM439.004 660.998
l-0.000976562 5.00195c-2 0.666992 -4 1 -6 1s-3.66699 0.333008 -5 1c-1.33301 0 -2.5 0.166992 -3.5 0.5s-1.83301 0.5 -2.5 0.5c-2 0.666992 -4 1.16699 -6 1.5s-4.33301 0.833008 -7 1.5c-0.666992 0 -1.5 0.166992 -2.5 0.5s-2.16699 0.5 -3.5 0.5
c-6 1.33301 -12.667 2.5 -20 3.5s-17 1.83301 -29 2.5h-9h-9h-9.5h-9.5c-52.667 -1.33301 -93 -12.333 -121 -33s-48 -43.334 -60 -68.001c-5.33301 -11.333 -9.16602 -22.5 -11.499 -33.5s-3.5 -21.167 -3.5 -30.5c0 -25.333 4.33301 -52.5 13 -81.5s26 -58.167 52 -87.5
c12 -13.333 26.167 -27 42.5 -41s35.5 -27.667 57.5 -41c2.66699 13.333 4.66699 23.666 6 30.999s2.66602 14 3.99902 20v0.5v0.5c0.666992 2.66699 1.16699 5.33398 1.5 8.00098s0.833008 5.66699 1.5 9c2 8 3.5 14.667 4.5 20s1.83301 10.333 2.5 15
c0.666992 2 1.16699 3.83301 1.5 5.5s0.5 3.5 0.5 5.5c0.666992 2 1.16699 4 1.5 6s0.5 4 0.5 6h-80l4 20h81c2.66699 16 7.33398 36.667 14.001 62s16.334 51.666 29.001 78.999c9.33301 20 20.666 39.5 33.999 58.5s29 36.167 47 51.5v0z" />
    <glyph glyph-name="G" unicode="G" horiz-adv-x="569" 
d="M15 373l13.998 18.9971c12 -9.33301 24.667 -17.166 38 -23.499s27.333 -10.833 42 -13.5c5.33301 86.667 34.5 165.834 87.5 237.501s123.833 107.5 212.5 107.5c42 0 74.5 -8.5 97.5 -25.5s37.833 -35.5 44.5 -55.5c1.33301 -4.66699 2.33301 -9.16699 3 -13.5
s1 -8.5 1 -12.5c0 -68 -35.833 -130.167 -107.5 -186.5s-156.167 -84.5 -253.5 -84.5h-14c-4.66699 0 -9.66699 0.333008 -15 1c2 -55.333 12 -95.166 30 -119.499s37.667 -40.166 59 -47.499c8.66699 -2.66699 17.334 -4.5 26.001 -5.5s16.667 -1.5 24 -1.5
c45.333 0 88.833 18.5 130.5 55.5s76.834 80.833 105.501 131.5l10 -3c-9.33301 -100.667 -22.666 -180.334 -39.999 -239.001s-35 -105 -53 -139c-1.33301 -1.33301 -2.5 -3 -3.5 -5l-2.5 -5c-6 -11.333 -13.5 -23.666 -22.5 -36.999s-18.833 -27 -29.5 -41
c-26 -32.667 -58.333 -62.334 -97 -89.001s-84.334 -40 -137.001 -40c-46 0 -85 14.167 -117 42.5s-48 65.5 -48 111.5c-0 42.667 15.333 77.5 46 104.5s66.334 40.5 107.001 40.5c6 0 12 -0.333008 18 -1l18 -2c24.667 -4.66699 48.667 -13 72 -25
s44.666 -27.667 63.999 -47l-15 -14c-12 13.333 -25.5 24.666 -40.5 33.999s-30.5 16.666 -46.5 21.999c-12 4.66699 -23.667 8.16699 -35 10.5s-22.333 3.5 -33 3.5c-7.33301 0 -15 -0.666992 -23 -2s-16 -3.66602 -24 -6.99902c-22 -6.66699 -42.167 -19.5 -60.5 -38.5
s-27.5 -44.5 -27.5 -76.5c0 -6 0.5 -12.167 1.5 -18.5s2.5 -12.833 4.5 -19.5c7.33301 -24 22.333 -46.167 45 -66.5s55 -30.5 97 -30.5c20 0 44 3.83301 72 11.5s57 27.167 87 58.5c29.333 30.667 57.666 76 84.999 136s51 142.333 71 247l-9 4
c-12.667 -15.333 -26.667 -28.833 -42 -40.5s-30.666 -21.167 -45.999 -28.5c-14 -6.66699 -27.667 -11.667 -41 -15s-26 -5 -38 -5c-58.667 0 -106.167 19.167 -142.5 57.5s-54.833 87.5 -55.5 147.5c-17.333 3.33301 -33.833 8.33301 -49.5 15s-30.5 15.334 -44.5 26.001
v0zM164.998 340.997h5.99609h6c92.667 0 169.334 20.5 230.001 61.5s99.334 86.167 116.001 135.5c2.66699 8.66699 4.83398 17.167 6.50098 25.5s2.5 16.833 2.5 25.5c0 4 -0.333008 8.33301 -1 13s-2 9 -4 13c-6 16 -18.833 30.5 -38.5 43.5s-48.167 19.5 -85.5 19.5
c-60.667 0 -107.667 -20.833 -141 -62.5s-57.666 -87.167 -72.999 -136.5c-7.33301 -25.333 -12.833 -50 -16.5 -74s-6.16699 -45.333 -7.5 -64v0z" />
    <glyph glyph-name="H" unicode="H" horiz-adv-x="686" 
d="M418 0v18.0029h36h5.5h4.5c3.33301 0 6.66602 0.333008 9.99902 1s6.66602 2.33398 9.99902 5.00098c5.33301 4 10.5 11.333 15.5 22s10.5 26.667 16.5 48c4 13.333 8.16699 28 12.5 44s8.83301 32.667 13.5 50c1.33301 6.66699 2.83301 13.334 4.5 20.001
s3.5 13.334 5.5 20.001c6.66699 26.667 13 52.667 19 78s11 47.333 15 66h-285c-2.66699 -14 -5.16699 -25.667 -7.5 -35l-6.5 -26v-1.5v-1.5c-2 -6.66699 -3.83301 -13.5 -5.5 -20.5s-3.5 -15.167 -5.5 -24.5c-3.33301 -15.333 -7.33301 -32.833 -12 -52.5
s-10.334 -39.834 -17.001 -60.501c-12.667 -41.333 -30.5 -78.833 -53.5 -112.5s-54.167 -50.5 -93.5 -50.5c-22.667 0 -39.167 4.83301 -49.5 14.5s-17.166 20.5 -20.499 32.5c-0.666992 2.66699 -1.16699 5.66699 -1.5 9s-0.5 6.33301 -0.5 9c0 6 0.666992 11.333 2 16
s3 8.66699 5 12h18c-0.666992 -1.33301 -1.33398 -2.5 -2.00098 -3.5s-1.33398 -2.16699 -2.00098 -3.5c-1.33301 -3.33301 -2.16602 -6.66602 -2.49902 -9.99902s-0.5 -7 -0.5 -11c0 -16.667 4.66699 -28.834 14 -36.501s22.333 -11.5 39 -11.5
c20.667 0 36.834 6 48.501 18s22.167 34.333 31.5 67c8 25.333 16 57.833 24 97.5s18.333 88.5 31 146.5c10 46.667 19.5 87.5 28.5 122.5s17.833 65.167 26.5 90.5c11.333 34.667 23.166 62.167 35.499 82.5s25.5 37.166 39.5 50.499l-2 7h-2h-1h-2h-2
c-69.333 0 -132.666 -25.167 -189.999 -75.5s-86 -109.5 -86 -177.5c0 -8 2.16699 -21.667 6.5 -41s14.833 -39.333 31.5 -60c2 -3.33301 4.33301 -6.5 7 -9.5s5.66699 -6.16699 9 -9.5l-11 -11c-10 9.33301 -18.667 19.166 -26 29.499s-13.666 20.833 -18.999 31.5
c-5.33301 12.667 -9.33301 25 -12 37s-4 23 -4 33v10c0 3.33301 0.333008 6.66602 1 9.99902c6 60 35.167 115.5 87.5 166.5s119.166 77.833 200.499 80.5h6.5h7.5h7.5h6.5h7.5c2.33301 0 4.83301 -0.333008 7.5 -1c1.33301 0 2.83301 -0.166992 4.5 -0.5
s3.5 -0.833008 5.5 -1.5v-11l-5 -1c-6.66699 -1.33301 -12.5 -4.83301 -17.5 -10.5s-9.83301 -14.167 -14.5 -25.5c-4.66699 -12.667 -9.66699 -29.334 -15 -50.001s-11.666 -47 -18.999 -79c-0.666992 -2.66699 -1.33398 -5.5 -2.00098 -8.5
s-1.33398 -6.16699 -2.00098 -9.5c-3.33301 -14.667 -6.83301 -30.5 -10.5 -47.5s-7.83398 -37.5 -12.501 -61.5h285c10.667 55.333 23.5 105.5 38.5 150.5s33.833 82.833 56.5 113.5c6.66699 9.33301 13.167 17.166 19.5 23.499s12.5 11.166 18.5 14.499
c3.33301 1.33301 6.5 2.5 9.5 3.5s6.16699 1.5 9.5 1.5c5.33301 0 9 -0.833008 11 -2.5s3 -4.16699 3 -7.5c0 -2.66699 -0.666992 -5 -2 -7s-3.66602 -3 -6.99902 -3c-1.33301 0 -2.5 0.166992 -3.5 0.5s-2.16699 0.833008 -3.5 1.5
c-0.666992 0.666992 -1.66699 1.16699 -3 1.5s-2.66602 0.5 -3.99902 0.5c-3.33301 0 -6.5 -1.16699 -9.5 -3.5s-5.83301 -6.16602 -8.5 -11.499c-4 -8 -8.33301 -19.167 -13 -33.5s-10 -32.5 -16 -54.5c-17.333 -62 -30.166 -115.5 -38.499 -160.5
s-15.5 -85.167 -21.5 -120.5c-4 -22 -8.16699 -42.833 -12.5 -62.5s-9.5 -39.167 -15.5 -58.5c-5.33301 -15.333 -11.5 -30.833 -18.5 -46.5s-15.5 -31.834 -25.5 -48.501c-11.333 -20 -20 -33.167 -26 -39.5s-9.66699 -11.166 -11 -14.499v-0.5v-1.5
c0 -2 0.666992 -3.66699 2 -5s2.66602 -2.33301 3.99902 -3c0.666992 -0.666992 1.33398 -1.16699 2.00098 -1.5s1.33398 -0.5 2.00098 -0.5h2h2v0h1h1h1h3.5h3.5h2.5h3.5h113v-18h-242v0z" />
    <glyph glyph-name="I" unicode="I" horiz-adv-x="349" 
d="M80 0l0.00292969 18.0059h36h1.5h1.5c3.33301 0 6.83301 0.166992 10.5 0.5s7.5 1.16602 11.5 2.49902c4 2 8 5 12 9s8 10 12 18c4 8.66699 8.83301 22.834 14.5 42.501s11.5 41.5 17.5 65.5c2 6 3.66699 12.167 5 18.5s2.66602 12.5 3.99902 18.5
c7.33301 30.667 14 59.667 20 87s10.333 46.666 13 57.999c4.66699 22 9.33398 42.667 14.001 62s9.33398 37.666 14.001 54.999c16 60 32.333 108 49 144s34 62.667 52 80v7h-2h-1h-2h-2c-70 0 -133.5 -25.167 -190.5 -75.5s-85.5 -109.5 -85.5 -177.5
c0 -8 2.16699 -21.667 6.5 -41s14.833 -39.333 31.5 -60c2 -3.33301 4.33301 -6.5 7 -9.5s5.66699 -6.16699 9 -9.5l-11 -11c-10 9.33301 -18.667 19.166 -26 29.499s-13.333 20.833 -18 31.5c-6 12.667 -10.333 25 -13 37s-4 23 -4 33v10
c0 3.33301 0.333008 6.66602 1 9.99902c6 60 35.167 115.5 87.5 166.5s119.166 77.833 200.499 80.5h6.5h7.5h7.5h6.5h7.5c2.33301 0 4.83301 -0.333008 7.5 -1c1.33301 0 2.83301 -0.166992 4.5 -0.5s3.5 -0.833008 5.5 -1.5v-11l-5 -1
c-2.66699 -0.666992 -5.33398 -1.83398 -8.00098 -3.50098s-5.33398 -3.83398 -8.00098 -6.50098c-10 -11.333 -20.833 -37 -32.5 -77s-27.834 -108 -48.501 -204c-13.333 -62 -24.5 -111.667 -33.5 -149s-17.5 -68 -25.5 -92c-5.33301 -16 -10.833 -29.833 -16.5 -41.5
s-11.834 -22.834 -18.501 -33.501c-1.33301 -2 -2.5 -3.83301 -3.5 -5.5s-2.16699 -3.5 -3.5 -5.5c-6.66699 -10 -12.667 -18.167 -18 -24.5s-8 -11.166 -8 -14.499c0 -2 0.666992 -3.66699 2 -5s2.66602 -2.33301 3.99902 -3
c0.666992 -0.666992 1.33398 -1.16699 2.00098 -1.5s1.33398 -0.5 2.00098 -0.5h2h2v0h1h1h1h2h2h4h4h113v-18h-242v0z" />
    <glyph glyph-name="J" unicode="J" horiz-adv-x="352" 
d="M138 313l-11.002 -11c-18 18 -32.667 38.333 -44 61s-17 46 -17 70v10c0 3.33301 0.333008 6.66602 1 9.99902c5.33301 60 34.333 115.5 87 166.5s119.667 77.833 201 80.5h6.5h7.5h7.5h6.5h7.5c2.33301 0 4.83301 -0.333008 7.5 -1
c1.33301 0 2.83301 -0.166992 4.5 -0.5s3.5 -0.833008 5.5 -1.5v-11l-5 -1c-8.66699 -2 -15.5 -6.83301 -20.5 -14.5s-9.16699 -16.167 -12.5 -25.5c-10 -24.667 -18.833 -52.5 -26.5 -83.5s-14.834 -62.5 -21.501 -94.5c-4.66699 -21.333 -9 -42.333 -13 -63
s-7.66699 -40.334 -11 -59.001c-5.33301 -28 -10.5 -54 -15.5 -78s-9.83301 -46.667 -14.5 -68c-16.667 -72 -34 -130 -52 -174s-39.333 -84.667 -64 -122c-4 -6.66699 -8.5 -13.334 -13.5 -20.001s-9.83301 -13.334 -14.5 -20.001
c-24.667 -31.333 -54.667 -60.166 -90 -86.499s-77.666 -39.5 -126.999 -39.5c-35.333 0 -63 9.33301 -83 28s-33.333 39 -40 61c-1.33301 5.33301 -2.33301 10.666 -3 15.999s-1 10.333 -1 15c0 28.667 12.333 55.167 37 79.5s57.334 36.5 98.001 36.5
c9.33301 0 19.166 -1.16699 29.499 -3.5s20.833 -5.5 31.5 -9.5c14 -6 27.5 -13.667 40.5 -23s25.167 -20.333 36.5 -33l-15 -13c-10 10.667 -20.833 20.167 -32.5 28.5s-23.5 15.5 -35.5 21.5c-9.33301 4 -18.666 7.16699 -27.999 9.5s-18.333 3.5 -27 3.5
c-31.333 0 -58.333 -9.66699 -81 -29s-34 -41.333 -34 -66c0 -5.33301 0.833008 -11.666 2.5 -18.999s4.16699 -14.666 7.5 -21.999c6.66699 -14.667 18 -28.334 34 -41.001s38 -19 66 -19c58.667 0 114.667 29.833 168 89.5s105.333 213.834 156 462.501
c4 20 8.5 41.833 13.5 65.5s10.5 47.5 16.5 71.5s12.667 47.833 20 71.5s15.333 45.5 24 65.5c2.66699 6 6 12.833 10 20.5s8.33301 15.834 13 24.501c3.33301 6 6.83301 11.833 10.5 17.5s7.5 10.834 11.5 15.501c2 3.33301 4.33301 6.5 7 9.5s5 5.5 7 7.5v7h-2h-1h-2h-2
c-69.333 0 -132.666 -25.167 -189.999 -75.5s-86 -109.5 -86 -177.5c0 -8 2.16699 -21.667 6.5 -41s14.833 -39.333 31.5 -60c2 -3.33301 4.33301 -6.5 7 -9.5s5.66699 -6.16699 9 -9.5v0z" />
    <glyph glyph-name="K" unicode="K" horiz-adv-x="677" 
d="M133 313l-10.999 -10.9922c-13.333 12 -25.333 27.167 -36 45.5s-18 37.5 -22 57.5l-2 14c-0.666992 4.66699 -1 9.33398 -1 14.001c0 18 2.66699 39.5 8 64.5s17.666 50.833 36.999 77.5c7.33301 10 16 20.167 26 30.5s21.667 20.5 35 30.5c8 6 16.333 11.667 25 17
s17.334 10 26.001 14c24.667 12 48.667 20.333 72 25s43.333 7.33398 60 8.00098h6.5h7.5h7.5h6.5h7.5c2.33301 0 4.83301 -0.333008 7.5 -1c1.33301 0 2.83301 -0.166992 4.5 -0.5s3.5 -0.833008 5.5 -1.5v-11l-5 -1c-2 0 -5.83301 -1.16699 -11.5 -3.5
s-11.834 -9.83301 -18.501 -22.5c-0.666992 -2 -1.5 -4 -2.5 -6l-3.5 -7c-4 -9.33301 -10.833 -34.5 -20.5 -75.5s-20.167 -86.167 -31.5 -135.5c-0.666992 -2.66699 -1.33398 -5.5 -2.00098 -8.5s-1.33398 -6.16699 -2.00098 -9.5c-12 -53.333 -23 -103 -33 -149
s-15.667 -73 -17 -81h12l98 191c31.333 60 58.166 106 80.499 138s41.833 57.333 58.5 76c43.333 50 79.833 80.5 109.5 91.5s51.834 16.5 66.501 16.5c21.333 0 38.833 -4.83301 52.5 -14.5s20.5 -25.167 20.5 -46.5c0 -18 -5.66699 -32.667 -17 -44
s-26.666 -17 -45.999 -17c-9.33301 0 -16.833 1.83301 -22.5 5.5s-10.834 8.5 -15.501 14.5c-1.33301 1.33301 -2.66602 3 -3.99902 5l-4 6l14 11c0.666992 -2 1.5 -3.66699 2.5 -5s1.83301 -2.66602 2.5 -3.99902c1.33301 -0.666992 2.33301 -1.5 3 -2.5
s1.66699 -1.83301 3 -2.5l0.5 -0.5c0.333008 -0.333008 0.833008 -0.5 1.5 -0.5c2.66699 -2.66699 5.66699 -4.83398 9 -6.50098s8.33301 -2.5 15 -2.5c12.667 0 22.167 3.66699 28.5 11s9.5 18.333 9.5 33c0 14 -5.33301 24.333 -16 31s-23 10 -37 10
c-2.66699 0 -5.33398 -0.166992 -8.00098 -0.5s-5.66699 -0.5 -9 -0.5c-29.333 -4.66699 -58 -19.5 -86 -44.5s-53.333 -51.833 -76 -80.5c-10 -12.667 -19.333 -25.167 -28 -37.5s-16.334 -23.833 -23.001 -34.5c-1.33301 -2 -2.5 -3.83301 -3.5 -5.5
s-2.16699 -3.5 -3.5 -5.5c0 -0.666992 -0.333008 -1.33398 -1 -2.00098s-1 -1.33398 -1 -2.00098c-8 -12 -16.167 -25 -24.5 -39s-17.166 -31.333 -26.499 -52c57.333 -14.667 97.166 -45.5 119.499 -92.5s35.833 -99.167 40.5 -156.5v-1.5v-0.5
c0.666992 -6.66699 1.33398 -13.834 2.00098 -21.501s1.66699 -15.5 3 -23.5c3.33301 -18.667 9.83301 -35.667 19.5 -51s25.834 -23 48.501 -23c2.66699 0 7.33398 0.5 14.001 1.5s13.334 3.83301 20.001 8.5c2.66699 2 5.33398 4.16699 8.00098 6.5
s5.33398 4.83301 8.00098 7.5l11 -11c-6.66699 -8.66699 -15.334 -15.834 -26.001 -21.501s-21.667 -9.16699 -33 -10.5c-2 -0.666992 -3.83301 -1 -5.5 -1h-5.5c-35.333 0 -61.833 11.167 -79.5 33.5s-30.5 47.5 -38.5 75.5c-4.66699 14 -8.16699 28 -10.5 42
s-4.16602 26.333 -5.49902 37c-6 43.333 -14.667 81 -26 113s-36.666 56 -75.999 72l-89 -169c-2 -3.33301 -3.66699 -6.33301 -5 -9l-4 -8c-2 -4.66699 -4.5 -9.83398 -7.5 -15.501s-7.16699 -13.834 -12.5 -24.501c-8 -18 -16 -34 -24 -48s-16 -26.333 -24 -37
c-16.667 -23.333 -34 -39.5 -52 -48.5s-38.333 -13.5 -61 -13.5c-23.333 0 -40.333 5.33301 -51 16s-17.334 22.667 -20.001 36c0 2 -0.166992 4.16699 -0.5 6.5s-0.5 4.5 -0.5 6.5c0 6.66699 0.666992 12.167 2 16.5s3 8.16602 5 11.499h18
c-0.666992 -1.33301 -1.33398 -2.5 -2.00098 -3.5s-1.33398 -2.16699 -2.00098 -3.5c-1.33301 -3.33301 -2.16602 -6.66602 -2.49902 -9.99902s-0.5 -7 -0.5 -11c0 -16 5.16699 -27.5 15.5 -34.5s22.833 -10.5 37.5 -10.5c18.667 0 33.667 5.33301 45 16s22 31 32 61
c7.33301 23.333 15.166 53.666 23.499 90.999s18.166 83.333 29.499 138c10 48 19.833 90.667 29.5 128s19.167 70 28.5 98c12 36 24.167 65.167 36.5 87.5s25.166 39.833 38.499 52.5v7h-2.5h-2.5c-10.667 0 -22.5 -1.16699 -35.5 -3.5s-26.5 -5.5 -40.5 -9.5
c-14.667 -4 -29 -9 -43 -15s-26.333 -12.333 -37 -19c-36 -22.667 -65.333 -51.334 -88 -86.001s-34 -74.667 -34 -120c0 -20.667 3.83301 -39.334 11.5 -56.001s16.167 -31.334 25.5 -44.001c3.33301 -4 6.33301 -7.66699 9 -11s5.33398 -6.33301 8.00098 -9v0z" />
    <glyph glyph-name="L" unicode="L" horiz-adv-x="601" 
d="M14 0l-0.00292969 17.999h36h3.5h3.5c3.33301 0 6.83301 0.333008 10.5 1s7.5 2 11.5 4c2.66699 2 5.16699 4.16699 7.5 6.5s4.83301 5.5 7.5 9.5c4 6 9.33301 20.333 16 43s13.334 48 20.001 76l4 14c1.33301 4.66699 2.33301 9.33398 3 14.001
c8.66699 32.667 16.167 63.167 22.5 91.5s10.5 46.5 12.5 54.5c-18.667 3.33301 -35.667 8.66602 -51 15.999s-28.666 15.333 -39.999 24c-10 6.66699 -18.5 13.167 -25.5 19.5s-12.5 11.5 -16.5 15.5l15 18c2.66699 -2.66699 7.66699 -7.33398 15 -14.001
s16.666 -14 27.999 -22c10.667 -7.33301 22.834 -14.333 36.501 -21s28.167 -11.334 43.5 -14.001c22.667 98 50.834 171.167 84.501 219.5s68.5 81.833 104.5 100.5c20 10 39.5 16.833 58.5 20.5s37.167 5.5 54.5 5.5c42 0 74.5 -9 97.5 -27s37.167 -37.667 42.5 -59
c1.33301 -4 2.16602 -7.83301 2.49902 -11.5s0.5 -7.16699 0.5 -10.5c0 -11.333 -1.33301 -23.166 -4 -35.499s-6.66699 -24.833 -12 -37.5c-20.667 -50 -61 -95.833 -121 -137.5s-135 -62.167 -225 -61.5h-8.5h-8.5c-2.66699 0 -5.5 0.166992 -8.5 0.5
s-5.83301 0.5 -8.5 0.5c-5.33301 -32.667 -11.166 -61.667 -17.499 -87s-12.833 -47.666 -19.5 -66.999c-12.667 -38.667 -25 -67 -37 -85s-21.333 -31 -28 -39c-2.66699 -3.33301 -5 -6.16602 -7 -8.49902s-3 -4.5 -3 -6.5s0.666992 -3.66699 2 -5
s2.66602 -2.33301 3.99902 -3c0.666992 -0.666992 1.33398 -1.16699 2.00098 -1.5s1.33398 -0.5 2.00098 -0.5h2h2v0h1h1h1c2 0 4 0.166992 6 0.5s4 0.5 6 0.5s3.83301 0.166992 5.5 0.5s3.5 0.5 5.5 0.5h5.5h5.5c2 0 3.83301 0.166992 5.5 0.5s3.5 0.5 5.5 0.5
c6 0.666992 13 1.66699 21 3s16.667 2.66602 26 3.99902c12.667 1.33301 26.667 2.83301 42 4.5s31.666 2.5 48.999 2.5c20 0 34.833 -0.333008 44.5 -1s17.5 -1.33398 23.5 -2.00098c0.666992 -0.666992 1.33398 -1 2.00098 -1h2
c5.33301 -0.666992 11 -1.33398 17 -2.00098s15.333 -1 28 -1c40.667 0 72.667 15.667 96 47s35 67.333 35 108c0 7.33301 -0.333008 14.833 -1 22.5s-2 15.167 -4 22.5l20 4c2 -8.66699 3.33301 -17.334 4 -26.001s1 -17 1 -25c0 -22 -2.5 -41.5 -7.5 -58.5
s-10.833 -31.167 -17.5 -42.5c-0.666992 -2 -1.5 -4 -2.5 -6s-2.16699 -3.66699 -3.5 -5c-10 -16 -20.833 -29.167 -32.5 -39.5s-23.167 -18.5 -34.5 -24.5c-14.667 -7.33301 -29 -12.166 -43 -14.499s-26.667 -3.5 -38 -3.5c-6 0 -14.167 0.333008 -24.5 1
s-20.833 1.33398 -31.5 2.00098c-3.33301 0 -6.5 0.166992 -9.5 0.5s-6.16699 0.5 -9.5 0.5c-8.66699 0.666992 -16.834 1.33398 -24.501 2.00098s-13.5 1.33398 -17.5 2.00098c-27.333 2.66699 -52 4.16699 -74 4.5s-37.667 0.5 -47 0.5h-151v0zM229.997 341.999
c4.66699 -0.666992 9.16699 -1 13.5 -1h13.5c92 0 170 23.667 234 71s100 99.333 108 156c0.666992 3.33301 1.16699 6.83301 1.5 10.5s0.5 7.16699 0.5 10.5c0 4.66699 -0.5 9.5 -1.5 14.5s-2.5 10.167 -4.5 15.5c-6.66699 15.333 -19.667 29.5 -39 42.5
s-47.333 19.5 -84 19.5c-14.667 0 -32.5 -2.33301 -53.5 -7s-42.5 -17 -64.5 -37c-24 -22 -47.167 -55.833 -69.5 -101.5s-40.5 -110.167 -54.5 -193.5v0z" />
    <glyph glyph-name="M" unicode="M" horiz-adv-x="830" 
d="M561 0l0.00195312 17.9941h37h4.5h5.5h4.5c1.66699 0 3.16699 0.333008 4.5 1c20.667 6 35.167 23 43.5 51s15.5 63.667 21.5 107c7.33301 54.667 17.5 118.834 30.5 192.501s38.833 149.167 77.5 226.5c2.66699 5.33301 5.5 10.5 8.5 15.5s5.83301 10.167 8.5 15.5l-8 8
l-322 -395c0.666992 -5.33301 1 -10.5 1 -15.5v-15.5c0 -58.667 -9.83301 -108.167 -29.5 -148.5s-41.5 -60.5 -65.5 -60.5h-2.5c-1 0 -2.16699 0.333008 -3.5 1c-4.66699 1.33301 -9 4.83301 -13 10.5s-6 14.5 -6 26.5c0 18.667 4.16699 41.334 12.5 68.001
s25.5 61.667 51.5 105l-82 443l-86 -302c-9.33301 -33.333 -18 -63.166 -26 -89.499s-16 -50.5 -24 -72.5c-10 -27.333 -20.333 -51.666 -31 -72.999s-23 -41.333 -37 -60c-24.667 -32.667 -47 -52.5 -67 -59.5s-37.333 -10.5 -52 -10.5
c-8.66699 0 -14.834 1.16699 -18.501 3.5s-6.5 5.16602 -8.5 8.49902c-1.33301 1.33301 -2.16602 3.16602 -2.49902 5.49902s-0.5 3.83301 -0.5 4.5v0v0c0 2.66699 0.833008 5.83398 2.5 9.50098s3.83398 7.16699 6.50098 10.5c7.33301 8.66699 18.833 16.5 34.5 23.5
s34.834 10.5 57.501 10.5h5.5h4.5c1.33301 0 2.83301 -0.166992 4.5 -0.5s3.5 -0.5 5.5 -0.5c11.333 12.667 21.5 26.167 30.5 40.5s17.833 31.5 26.5 51.5c10 23.333 20.333 51.5 31 84.5s23 73.833 37 122.5l80 276l3 9c0.666992 2 1.33398 3.66699 2.00098 5
c0 1.33301 0.166992 2.66602 0.5 3.99902s0.5 3.33301 0.5 6v1.5v1.5v2v2c-0.666992 2 -2.16699 3.83301 -4.5 5.5s-6.5 2.5 -12.5 2.5c-6.66699 0 -13.834 -2 -21.501 -6s-18.5 -11 -32.5 -21c-10.667 -8 -20.5 -16 -29.5 -24s-17.5 -16 -25.5 -24
c-10 -10 -19.167 -20 -27.5 -30s-16.833 -20 -25.5 -30c-8 -11.333 -16.5 -22.666 -25.5 -33.999s-18.5 -23.333 -28.5 -36l-14 10c6.66699 9.33301 15.167 20.333 25.5 33s21.166 25.667 32.499 39c2.66699 3.33301 5.16699 6.33301 7.5 9s4.83301 5.66699 7.5 9
c10 11.333 19.667 22 29 32s18 18.667 26 26c2.66699 2.66699 5.5 5.33398 8.5 8.00098s5.83301 5.33398 8.5 8.00098c16.667 15.333 34.167 28.333 52.5 39s39.166 16 62.499 16c28.667 0 47.334 -9.5 56.001 -28.5s15 -39.5 19 -61.5v-2v-1
c0.666992 -2 1.16699 -3.83301 1.5 -5.5s0.5 -3.16699 0.5 -4.5l63 -329l282 349c30.667 37.333 56.5 60.5 77.5 69.5s37.5 13.5 49.5 13.5c8.66699 0 14 -0.833008 16 -2.5s3 -4.16699 3 -7.5c0 -4.66699 -0.5 -7.33398 -1.5 -8.00098s-2.83301 -1.33398 -5.5 -2.00098
c-2.66699 0 -6.33398 -0.833008 -11.001 -2.5s-10.667 -6.5 -18 -14.5c-6 -7.33301 -10.833 -14.833 -14.5 -22.5s-6.83398 -16.5 -9.50098 -26.5l-2.5 -7.5c-1 -3 -1.83301 -5.83301 -2.5 -8.5c-2.66699 -9.33301 -6.66699 -25.166 -12 -47.499s-11 -46.5 -17 -72.5l-2 -8
c-0.666992 -2.66699 -1.33398 -5.66699 -2.00098 -9c-4.66699 -22 -9.16699 -43.333 -13.5 -64s-7.83301 -38 -10.5 -52c-8.66699 -44 -17 -81.5 -25 -112.5s-15.667 -57.5 -23 -79.5c-6.66699 -18.667 -13.5 -35 -20.5 -49s-14.167 -26.333 -21.5 -37
c-8.66699 -13.333 -15.167 -22.166 -19.5 -26.499s-6.83301 -7.83301 -7.5 -10.5v-1.5v-0.5c0 -2.66699 0.833008 -4.66699 2.5 -6s4.16699 -2.66602 7.5 -3.99902h2h2h0.5h0.5h1.5h1.5h2h2h4h4h112v-18h-242v0zM428.002 183.994
c-2 -3.33301 -4.16992 -7.32812 -6.50293 -11.9951s-4.83301 -9.33398 -7.5 -14.001c-4.66699 -8.66699 -9 -17.834 -13 -27.501s-7.66699 -19.5 -11 -29.5c-2.66699 -10 -5 -19.667 -7 -29s-3 -18.333 -3 -27c0 -5.33301 0.666992 -9.33301 2 -12
s2.66602 -4.33398 3.99902 -5.00098c0.666992 -0.666992 1.33398 -1.16699 2.00098 -1.5s1.33398 -0.5 2.00098 -0.5c2 0 4.33301 0.833008 7 2.5s5.33398 4.16699 8.00098 7.5c6.66699 8 12.667 20.667 18 38s8 38.666 8 63.999c0 7.33301 -0.166992 14.666 -0.5 21.999
s-1.16602 15.333 -2.49902 24v0z" />
    <glyph glyph-name="N" unicode="N" horiz-adv-x="799" 
d="M661 78l7 0.00585938l102 436c7.33301 31.333 15.666 57 24.999 77s19 36.333 29 49c12 15.333 23.5 26.333 34.5 33s20.167 11.667 27.5 15c6 3.33301 13 6.16602 21 8.49902s17.333 3.5 28 3.5c1.33301 0 2.83301 -0.166992 4.5 -0.5s3.5 -0.5 5.5 -0.5
c5.33301 -1.33301 10.333 -3.83301 15 -7.5s7 -9.16699 7 -16.5c0 -8 -2.16699 -14 -6.5 -18s-8.83301 -7 -13.5 -9c-2 0 -4 -0.166992 -6 -0.5s-3.66699 -0.5 -5 -0.5h-3.5h-3.5c-0.666992 0.666992 -1.66699 1 -3 1s-2.66602 0.333008 -3.99902 1
c-2 0 -4.83301 0.166992 -8.5 0.5s-8.5 0.5 -14.5 0.5c-7.33301 0 -14.833 -1 -22.5 -3s-15.5 -6.66699 -23.5 -14c-9.33301 -8.66699 -18.833 -23 -28.5 -43s-18.834 -48.333 -27.501 -85l-124 -519h-39l-187 650h-9l-102 -440c-2.66699 -12 -6.5 -27.833 -11.5 -47.5
s-11.833 -40.167 -20.5 -61.5c-14 -32.667 -33.5 -62.334 -58.5 -89.001s-59.167 -40 -102.5 -40c-36.667 0 -69.667 17 -99 51s-44 81 -44 141c0 49.333 14 94.166 42 134.499s60.667 60.5 98 60.5c25.333 0 47.666 -12.833 66.999 -38.5s29 -62.167 29 -109.5
c0 -22.667 -2.66699 -43.834 -8 -63.501s-11 -36.834 -17 -51.501c-2.66699 -4.66699 -5 -9.33398 -7 -14.001s-4 -8.66699 -6 -12l-18 7c15.333 27.333 25 51.333 29 72s6 40.667 6 60c0 41.333 -6.83301 72 -20.5 92s-28.5 32 -44.5 36c-2 0 -4 0.166992 -6 0.5
s-4 0.5 -6 0.5h-4c-1.33301 0 -2.66602 -0.333008 -3.99902 -1c-22 -2.66699 -42.333 -18.667 -61 -48s-28 -70 -28 -122c0 -64 10.167 -109 30.5 -135s42.833 -39 67.5 -39c38 0 68 13.167 90 39.5s39 55.5 51 87.5c7.33301 18.667 13.333 37 18 55s8.33398 33 11.001 45
l107 441c0.666992 1.33301 1 2.5 1 3.5v2.5c0 6 -2.16699 10 -6.5 12s-8.83301 3 -13.5 3h-1.5h-1.5c-16 0 -36.833 -3.5 -62.5 -10.5s-52.5 -22.5 -80.5 -46.5c-18 -15.333 -35.833 -35.333 -53.5 -60s-34.167 -55.334 -49.5 -92.001l-17 8
c19.333 48.667 41.833 87.5 67.5 116.5s52.167 51.167 79.5 66.5c28.667 16.667 56.667 27.334 84 32.001s51 7 71 7c22 0 38.333 -5 49 -15s19.667 -28.667 27 -56l152 -540v0z" />
    <glyph glyph-name="O" unicode="O" horiz-adv-x="564" 
d="M220 -14c-48 0.666992 -89.667 22.835 -125 66.502s-53 106.5 -53 188.5c0 25.333 2.66699 53 8 83s13 60.667 23 92c24 70.667 61.5 135.667 112.5 195s115.833 89 194.5 89c56 0 100.667 -18.167 134 -54.5s50 -85.5 50 -147.5c0 -31.333 -3 -69 -9 -113
s-18 -89.333 -36 -136c-4 -10.667 -8.5 -21.5 -13.5 -32.5s-10.5 -21.833 -16.5 -32.5c-26 -48.667 -59.833 -90.834 -101.5 -126.501s-84.5 -57.834 -128.5 -66.501c-6.66699 -1.33301 -13.167 -2.33301 -19.5 -3s-12.833 -1 -19.5 -1v-1zM244 121.001l-9.00391 -8.00293
c-21.333 25.333 -37 53.833 -47 85.5s-15 67.834 -15 108.501c0 14 2 41.333 6 82s14.667 83.667 32 129c10.667 29.333 24.834 57.833 42.501 85.5s39.834 51.834 66.501 72.501v3c-12.667 -4.66699 -25.167 -11.167 -37.5 -19.5s-24.5 -18.833 -36.5 -31.5
c-9.33301 -10 -18.833 -21.833 -28.5 -35.5s-19.5 -29.5 -29.5 -47.5c-15.333 -27.333 -29.666 -60.5 -42.999 -99.5s-24.333 -79.167 -33 -120.5c-5.33301 -27.333 -9.66602 -54.333 -12.999 -81s-5 -51.667 -5 -75c0 -4.66699 0.833008 -14.667 2.5 -30
s5.83398 -32 12.501 -50c7.33301 -20.667 19.666 -39.5 36.999 -56.5s42 -25.5 74 -25.5c43.333 0 80 12.833 110 38.5s54.667 53.834 74 84.501c8.66699 14.667 16.5 28.834 23.5 42.501s12.833 26.167 17.5 37.5c8 18.667 15.833 40 23.5 64s14.5 48.667 20.5 74
c6.66699 28 12.167 55.167 16.5 81.5s6.5 49.166 6.5 68.499c0 51.333 -7 89.5 -21 114.5s-29.333 42.5 -46 52.5c-10.667 6 -21 9.83301 -31 11.5s-18.333 2.5 -25 2.5c-18.667 0 -38.667 -6.33301 -60 -19s-44.666 -42.667 -69.999 -90
c-9.33301 -17.333 -17.833 -36.833 -25.5 -58.5s-14.167 -43.834 -19.5 -66.501c-6.66699 -26 -11.667 -51.167 -15 -75.5s-5 -45.5 -5 -63.5c0 -23.333 1.33301 -44.166 4 -62.499s7 -36.5 13 -54.5c4 -10.667 8.66699 -21.667 14 -33s11.666 -23 18.999 -35v0z" />
    <glyph glyph-name="P" unicode="P" horiz-adv-x="609" 
d="M412 624l16 -9.00098c-10 -11.333 -19.167 -22.333 -27.5 -33s-15.5 -21 -21.5 -31c-13.333 -21.333 -23 -42.833 -29 -64.5s-9 -45.834 -9 -72.501v-2.5v-3.5c1.33301 -26 10.833 -49.833 28.5 -71.5s41.834 -32.5 72.501 -32.5c44.667 0 81.5 23.5 110.5 70.5
s43.5 99.167 43.5 156.5v3.5v2.5c-0.666992 34 -9.83398 65.5 -27.501 94.5s-55.167 45.167 -112.5 48.5c-1.33301 0 -2.66602 0.166992 -3.99902 0.5s-2.66602 0.5 -3.99902 0.5h-4h-4h-4h-3c-1.33301 -0.666992 -2.66602 -1 -3.99902 -1h-4
c-27.333 -2 -48.333 -10.5 -63 -25.5s-28 -42.833 -40 -83.5c-8 -26 -16.167 -58.667 -24.5 -98s-18.5 -86.666 -30.5 -141.999c-1.33301 -6 -2.66602 -11.833 -3.99902 -17.5s-2.33301 -11.5 -3 -17.5c-21.333 -95.333 -45.166 -170.666 -71.499 -225.999
s-65.166 -83 -116.499 -83c-24 0 -42 6.16699 -54 18.5s-18 27.833 -18 46.5c0 6.66699 0.666992 12.167 2 16.5s3 8.16602 5 11.499h18c-0.666992 -1.33301 -1.33398 -2.5 -2.00098 -3.5s-1.33398 -2.16699 -2.00098 -3.5
c-1.33301 -3.33301 -2.16602 -6.66602 -2.49902 -9.99902s-0.5 -7 -0.5 -11c0 -2.66699 0.166992 -5.66699 0.5 -9s1.16602 -7 2.49902 -11c2 -6.66699 6.66699 -13 14 -19s19.333 -9 36 -9c26 0 45.333 10.167 58 30.5s24 50.5 34 90.5
c2.66699 12.667 5.66699 26.167 9 40.5s6.66602 29.833 9.99902 46.5c16 74 30.167 136.167 42.5 186.5s24.5 92.5 36.5 126.5c12.667 37.333 26 66.833 40 88.5s30.333 39.834 49 54.501l-2 7c-28 -4.66699 -52.667 -13 -74 -25s-39.666 -24.667 -54.999 -38
c-4 -3.33301 -7.5 -6.5 -10.5 -9.5s-6.16699 -5.83301 -9.5 -8.5l-1.5 -1.5l-0.5 -0.5c-14.667 -14.667 -27.834 -29.5 -39.501 -44.5s-22.834 -31.833 -33.501 -50.5s-21.5 -39.5 -32.5 -62.5s-23.167 -50.167 -36.5 -81.5l-16 7c6.66699 16.667 15 36.334 25 59.001
s21.667 46 35 70c14.667 25.333 31 50 49 74s37.667 44.667 59 62c10 8 20 15.333 30 22s20 12.667 30 18c26 13.333 52.667 22.5 80 27.5s58 7.5 92 7.5c60 0 104.667 -10.167 134 -30.5s49.666 -42.833 60.999 -67.5c8 -17.333 12.833 -34 14.5 -50s2.5 -28.333 2.5 -37
v-2.5v-3.5c-1.33301 -56.667 -19.666 -108.5 -54.999 -155.5s-82 -70.5 -140 -70.5c-40 0 -70.5 10.167 -91.5 30.5s-34.5 42.833 -40.5 67.5c-1.33301 5.33301 -2.33301 10.666 -3 15.999s-1 10.666 -1 15.999c0 15.333 1.5 31 4.5 47s7.5 32 13.5 48
c7.33301 20 17.166 39.833 29.499 59.5s27.166 38.5 44.499 56.5v0z" />
    <glyph glyph-name="Q" unicode="Q" horiz-adv-x="594" 
d="M362 565l9.99902 9.00488c22.667 -30 39.167 -61.333 49.5 -94s15.5 -66.667 15.5 -102c0 -17.333 -1 -35.166 -3 -53.499s-5 -36.833 -9 -55.5c-14.667 -68 -41.5 -130.333 -80.5 -187s-87.5 -85 -145.5 -85c-7.33301 0 -15 0.5 -23 1.5s-16 2.83301 -24 5.5
c-27.333 9.33301 -52.5 29.5 -75.5 60.5s-34.5 78.833 -34.5 143.5c0 17.333 0.833008 34.833 2.5 52.5s4.5 35.5 8.5 53.5c18 96.667 57.5 185.167 118.5 265.5s132.5 120.5 214.5 120.5c52 0 99.667 -20.833 143 -62.5s65 -107.167 65 -196.5
c0 -29.333 -4.16699 -66.666 -12.5 -111.999s-23.166 -92.333 -44.499 -141c-29.333 -65.333 -73.833 -126.5 -133.5 -183.5s-140.5 -94.833 -242.5 -113.5l2 -7c4 1.33301 7.83301 2.16602 11.5 2.49902s7.5 0.5 11.5 0.5c7.33301 0.666992 14.833 1.16699 22.5 1.5
s14.5 0.5 20.5 0.5c7.33301 0 14.166 -0.333008 20.499 -1s12.833 -2 19.5 -4c11.333 -2.66699 23 -7.33398 35 -14.001s26 -16.334 42 -29.001c6 -4.66699 11.667 -9 17 -13s10.666 -7.66699 15.999 -11c7.33301 -5.33301 15.333 -9.33301 24 -12s18.667 -4 30 -4
c30.667 0 57.5 9.16699 80.5 27.5s39.833 40.166 50.5 65.499l19 -6c-14 -32 -34.167 -59 -60.5 -81s-56.5 -34.667 -90.5 -38c-3.33301 -0.666992 -6.83301 -1 -10.5 -1h-11.5h-4.5h-5.5c-1.33301 0.666992 -2.83301 1 -4.5 1h-5.5c-24.667 2 -44.667 7.16699 -60 15.5
s-29.666 17.833 -42.999 28.5l-5.5 5.5c-1.66699 1.66699 -3.5 3.16699 -5.5 4.5l-10 8c-3.33301 2.66699 -7.33301 5.66699 -12 9c-11.333 8 -24.833 15.333 -40.5 22s-33.834 10 -54.501 10c-8 0 -15.5 -1.16699 -22.5 -3.5s-13.5 -5.16602 -19.5 -8.49902
c-2 -1.33301 -4 -2.5 -6 -3.5s-4 -2.16699 -6 -3.5c-1.33301 -0.666992 -2.5 -1.33398 -3.5 -2.00098s-2.16699 -1.33398 -3.5 -2.00098l-4 -2c-1.33301 -0.666992 -2.33301 -1.33398 -3 -2.00098c-2.66699 -1.33301 -5.16699 -2.33301 -7.5 -3s-4.83301 -1 -7.5 -1
c-6 0 -10.667 1 -14 3s-5.66602 4.33301 -6.99902 7c-0.666992 1.33301 -1.16699 2.5 -1.5 3.5s-0.5 1.83301 -0.5 2.5c0 9.33301 4.83301 16.833 14.5 22.5s20.167 10.167 31.5 13.5l18 4c6 1.33301 11.333 2.66602 16 3.99902c20.667 4 48.334 11.333 83.001 22
s70.667 29.667 108 57c12.667 9.33301 25.167 19.666 37.5 30.999s24.5 24 36.5 38c24.667 29.333 45.667 62.166 63 98.499s31.333 73.166 42 110.499c14.667 48.667 24.667 95.834 30 141.501s8 84.167 8 115.5c0 47.333 -10 82.833 -30 106.5s-42 39.5 -66 47.5
c-10 4 -20 6.66699 -30 8s-19.333 2 -28 2c-55.333 0 -101.5 -21 -138.5 -63s-66.167 -88.333 -87.5 -139c-8 -19.333 -15.667 -40.833 -23 -64.5s-14 -47.834 -20 -72.501c-7.33301 -28 -13 -55.167 -17 -81.5s-6 -49.833 -6 -70.5c0 -45.333 6.5 -85.166 19.5 -119.499
s40.5 -51.5 82.5 -51.5c58.667 0 109.667 37.667 153 113s65 158.333 65 249c0 13.333 -2.16699 36 -6.5 68s-16.5 66 -36.5 102c-1.33301 2.66699 -2.83301 5.33398 -4.5 8.00098s-3.5 5.33398 -5.5 8.00098v0z" />
    <glyph glyph-name="R" unicode="R" horiz-adv-x="601" 
d="M55 353l-16.9893 7.00293c38 91.333 70.833 154.666 98.5 189.999s50.834 60 69.501 74c12.667 9.33301 24.667 17.833 36 25.5s23 14.167 35 19.5c24 12 48.833 20.167 74.5 24.5s54.834 6.5 87.501 6.5c48 0 83.667 -8.5 107 -25.5s39.666 -35.5 48.999 -55.5
c6.66699 -14.667 10.667 -28.834 12 -42.501s2 -23.834 2 -30.501c0 -8 -0.5 -16 -1.5 -24s-2.16699 -16.333 -3.5 -25c-8.66699 -38 -29.5 -73.667 -62.5 -107s-83.833 -53.333 -152.5 -60l-2 -8c26 -12.667 45.833 -28 59.5 -46s23.834 -36.333 30.501 -55
c4.66699 -14 8 -28 10 -42s3.66699 -26.667 5 -38c0.666992 -4 1.16699 -8.33301 1.5 -13s0.5 -9.33398 0.5 -14.001c0 -2 0.166992 -4.16699 0.5 -6.5s0.5 -4.5 0.5 -6.5c2 -24.667 6.16699 -47 12.5 -67s20.833 -30 43.5 -30c3.33301 0 7 0.333008 11 1s8 1.66699 12 3
c5.33301 2 10.666 4.83301 15.999 8.5s10.333 8.5 15 14.5l10 -13c-6.66699 -8 -15.167 -15.167 -25.5 -21.5s-24.166 -9.5 -41.499 -9.5c-34.667 0 -60 10.667 -76 32s-27 45 -33 71c-2.66699 10 -4.83398 19.833 -6.50098 29.5s-2.83398 18.834 -3.50098 27.501
c-1.33301 10.667 -2.83301 22.167 -4.5 34.5s-3.83398 24.833 -6.50098 37.5c-6 23.333 -15.333 45.666 -28 66.999s-32.334 37 -59.001 47l3 15c4 -0.666992 8 -1 12 -1h12c5.33301 0 10.666 0.166992 15.999 0.5s10.666 0.833008 15.999 1.5c40 6 76.667 24.5 110 55.5
s50 81.833 50 152.5c0 46 -12.333 78.167 -37 96.5s-51.667 27.833 -81 28.5h-1.5h-1.5c-30.667 0 -54 -10.5 -70 -31.5s-30.667 -56.167 -44 -105.5c-7.33301 -26.667 -14.666 -57.667 -21.999 -93s-16 -76 -26 -122c-0.666992 -3.33301 -1.5 -6.83301 -2.5 -10.5
s-1.83301 -7.5 -2.5 -11.5c-17.333 -80.667 -38.833 -154.334 -64.5 -221.001s-67.834 -100 -126.501 -100c-19.333 0 -36 5.33301 -50 16s-21 27 -21 49c0 5.33301 0.5 10 1.5 14s2.16699 7.66699 3.5 11c0.666992 0 1.16699 0.333008 1.5 1s0.5 1.33398 0.5 2.00098h18
c-2.66699 -4 -4.66699 -8.33301 -6 -13s-2 -9.66699 -2 -15c0 -17.333 5.16699 -29.666 15.5 -36.999s23.166 -11 38.499 -11c23.333 0 41.166 8.66699 53.499 26s23.5 45 33.5 83c6.66699 22.667 13.167 49.5 19.5 80.5s14.166 66.167 23.499 105.5
c8.66699 37.333 16.667 71.333 24 102s14.666 58 21.999 82c13.333 47.333 27.833 85.333 43.5 114s35.167 52.334 58.5 71.001l-2 7c-22.667 -4 -42.834 -10.333 -60.501 -19s-32.834 -17.334 -45.501 -26.001c-9.33301 -6.66699 -17.5 -13.167 -24.5 -19.5
s-12.833 -11.833 -17.5 -16.5c-20.667 -20.667 -42.834 -48 -66.501 -82s-49.5 -87 -77.5 -159v0z" />
    <glyph glyph-name="S" unicode="S" horiz-adv-x="491" 
d="M111 -96l-10.002 18.9961c10.667 4.66699 20.834 9 30.501 13s18.167 8.33301 25.5 13c14 7.33301 25.333 14.5 34 21.5s15.334 12.5 20.001 16.5h-4.5c-1.66699 0 -3.16699 -0.333008 -4.5 -1h-5.5h-4.5h-5.5h-5.5c-48.667 2.66699 -93.167 18.667 -133.5 48
s-60.5 70.333 -60.5 123c0 46 15.5 81 46.5 105s65.167 37.667 102.5 41c3.33301 0.666992 6.66602 1 9.99902 1h10c46 0 85.167 -15 117.5 -45s48.5 -69 48.5 -117c0 -24 -4.66699 -46 -14 -66s-23 -39.667 -41 -59l-4.5 -4.5l-5.5 -5.5l14 2
c4.66699 0.666992 9.33398 1.66699 14.001 3c32.667 8 62.834 25.5 90.501 52.5s41.5 59.5 41.5 97.5c0 15.333 -2.5 30 -7.5 44s-12.5 28 -22.5 42c-12 16.667 -27 33.5 -45 50.5s-39 35.5 -63 55.5l-12 10c-4 3.33301 -8.33301 7 -13 11c-26 22 -50.167 46.5 -72.5 73.5
s-33.5 58.167 -33.5 93.5c0 40.667 17.833 77.167 53.5 109.5s84.5 48.5 146.5 48.5c10.667 0 23.667 -1.33301 39 -4s31.333 -7.66699 48 -15c14.667 -7.33301 29 -17 43 -29s26.333 -27.667 37 -47l5 -1c1.33301 4.66699 2.5 9 3.5 13s1.83301 8 2.5 12
c2 6.66699 3.83301 12.834 5.5 18.501s3.83398 11.167 6.50098 16.5c2.66699 6 5.5 11.833 8.5 17.5s6.5 11.834 10.5 18.501l18 -11c-9.33301 -14 -17.5 -32 -24.5 -54s-12.833 -44.667 -17.5 -68c-4 -19.333 -7.16699 -38.166 -9.5 -56.499s-4.16602 -34.5 -5.49902 -48.5
l-19 3v1.5v1.5v0.5v1.5v1.5v1.5v0.5v1.5v3.5v3.5v2v2v0.5v0.5c0 7.33301 -0.5 19.833 -1.5 37.5s-4.83301 36.167 -11.5 55.5c-8.66699 24.667 -24 47.334 -46 68.001s-55 31 -99 31c-42 0 -74.333 -9.33301 -97 -28s-37.667 -39.334 -45 -62.001c-2 -6 -3.5 -12 -4.5 -18
s-1.5 -12 -1.5 -18c0 -20 5.16699 -37.667 15.5 -53s23.833 -30 40.5 -44c6.66699 -6 13.5 -11.667 20.5 -17s14.167 -11 21.5 -17c45.333 -36 80.666 -68.167 105.999 -96.5s43.666 -55.833 54.999 -82.5c5.33301 -13.333 9.16602 -27 11.499 -41s3.5 -28.333 3.5 -43
c0 -46 -16.833 -81.833 -50.5 -107.5s-70.5 -43.5 -110.5 -53.5c-11.333 -2.66699 -22.5 -5 -33.5 -7s-21.833 -3.33301 -32.5 -4c-4 -3.33301 -7.83301 -6.66602 -11.5 -9.99902s-7.5 -6.66602 -11.5 -9.99902c-15.333 -13.333 -31.5 -24.833 -48.5 -34.5
s-36.167 -18.834 -57.5 -27.501v-1zM228.998 4.99609c24 21.333 42.168 43.499 54.501 66.499s18.5 48.5 18.5 76.5c0 38.667 -14.167 70.834 -42.5 96.501s-62.166 38.5 -101.499 38.5c-40.667 0 -73.834 -12.667 -99.501 -38s-38.5 -55 -38.5 -89v-6.5
c0 -2.33301 0.333008 -4.5 1 -6.5c3.33301 -35.333 20.666 -67.5 51.999 -96.5s75 -43.167 131 -42.5h6h7c2 0 4 0.166992 6 0.5s4 0.5 6 0.5v0z" />
    <glyph glyph-name="T" unicode="T" horiz-adv-x="501" 
d="M676 734l10.999 -8.00195c-17.333 -26.667 -37.666 -45 -60.999 -55s-51 -15 -83 -15c-6 0 -13.333 0.166992 -22 0.5s-17.667 0.833008 -27 1.5c-6 0.666992 -11.667 1.33398 -17 2.00098s-10.333 1.33398 -15 2.00098c-22 -22 -38.167 -46.667 -48.5 -74
s-19.5 -61 -27.5 -101c-6 -31.333 -12.5 -67 -19.5 -107s-16.833 -86.333 -29.5 -139c3.33301 -2 6.83301 -3.83301 10.5 -5.5s7.16699 -3.5 10.5 -5.5l22 -10l22 -10c14.667 -6 28.834 -11.5 42.501 -16.5s25.5 -8.83301 35.5 -11.5l-6 -16
c-0.666992 0 -1.33398 0.166992 -2.00098 0.5l-1 0.5c-18 5.33301 -37.167 12.166 -57.5 20.499s-46.833 20.166 -79.5 35.499c-18 -96 -46.167 -159.333 -84.5 -190s-78.833 -46 -121.5 -46c-31.333 0 -55.833 10.5 -73.5 31.5s-26.5 45.833 -26.5 74.5
c0 34 11.167 62.5 33.5 85.5s50.833 34.167 85.5 33.5c6 0 12.333 -0.333008 19 -1s13.334 -2 20.001 -4v-21c-2.66699 1.33301 -5.66699 2.33301 -9 3s-6.33301 1.33398 -9 2.00098c-3.33301 0 -6.5 0.166992 -9.5 0.5s-6.16699 0.5 -9.5 0.5
c-25.333 -0.666992 -48.333 -9 -69 -25s-31 -40.667 -31 -74c0 -29.333 8.33301 -51 25 -65s36 -21 58 -21c28 0 51.167 7.33301 69.5 22s33.5 35.334 45.5 62.001c2.66699 6 5 12.167 7 18.5s4.33301 13.5 7 21.5c3.33301 13.333 6.83301 29 10.5 47
s7.83398 40.667 12.501 68c-26 13.333 -48.333 27.333 -67 42s-35 29.334 -49 44.001c-30 34 -48.833 66 -56.5 96s-11.5 51 -11.5 63c0 10.667 0.833008 21.834 2.5 33.501s4.5 23.5 8.5 35.5c10.667 34.667 32 66.667 64 96s79 44 141 44h6.5h6.5
c14.667 0 29 -0.5 43 -1.5s26.667 -1.83301 38 -2.5c8.66699 -0.666992 15.834 -1.33398 21.501 -2.00098s9.83398 -1.33398 12.501 -2.00098c8 -1.33301 15.667 -2.5 23 -3.5s14.666 -1.83301 21.999 -2.5c12.667 -2 25.667 -3.5 39 -4.5s27.666 -1.5 42.999 -1.5
c6.66699 0 13.5 0.333008 20.5 1s14.5 2 22.5 4c11.333 3.33301 22.666 8.83301 33.999 16.5s20.666 18.5 27.999 32.5v0zM438.999 660.998v5.00195c-2 0.666992 -4 1 -6 1s-3.66699 0.333008 -5 1c-1.33301 0 -2.5 0.166992 -3.5 0.5s-1.83301 0.5 -2.5 0.5
c-2 0.666992 -4 1.16699 -6 1.5s-4.33301 0.833008 -7 1.5c-0.666992 0 -1.5 0.166992 -2.5 0.5s-2.16699 0.5 -3.5 0.5c-6 1.33301 -12.667 2.5 -20 3.5s-17 1.83301 -29 2.5h-9h-9h-9.5h-9.5c-52.667 -1.33301 -93 -12.333 -121 -33s-48 -43.334 -60 -68.001
c-5.33301 -11.333 -9.16602 -22.5 -11.499 -33.5s-3.5 -21.167 -3.5 -30.5c0 -25.333 4.33301 -52.5 13 -81.5s26 -58.167 52 -87.5c12 -13.333 26.167 -27 42.5 -41s35.5 -27.667 57.5 -41c1.33301 8.66699 2.66602 16.667 3.99902 24s2.66602 14.333 3.99902 21
c0.666992 2 1.16699 3.83301 1.5 5.5s0.5 3.5 0.5 5.5c2 9.33301 4 19 6 29l7 35c3.33301 18 7.33301 36.833 12 56.5s10.334 39.834 17.001 60.501c10 29.333 23 58.166 39 86.499s36.667 53.166 62 74.499v0z" />
    <glyph glyph-name="U" unicode="U" horiz-adv-x="786" 
d="M504 0l-0.00195312 18.0049h37h2h2h1h2c4.66699 0 9.5 0.666992 14.5 2s10.167 5 15.5 11l0.5 0.5l0.5 0.5v0l1 1c4.66699 5.33301 11.834 23.5 21.501 54.5s32.834 118.5 69.501 262.5l41 162l-8 4c-12.667 -25.333 -33.167 -60.5 -61.5 -105.5
s-60.833 -92.167 -97.5 -141.5c-19.333 -26 -39.666 -52 -60.999 -78s-43 -50.333 -65 -73c-36 -38 -71.5 -69.333 -106.5 -94s-66.167 -37 -93.5 -37c-20.667 0 -35 5.33301 -43 16s-13 22.334 -15 35.001c-0.666992 5.33301 -1.16699 10.333 -1.5 15s-0.5 9 -0.5 13
c0 6 0.666992 13.167 2 21.5s3 16.5 5 24.5c0.666992 4 1.5 7.66699 2.5 11s2.16699 7 3.5 11c2 8 4 15.5 6 22.5s3.66699 12.167 5 15.5l75 238c27.333 87.333 48.666 146.166 63.999 176.499s29.333 53.166 42 68.499c1.33301 0.666992 2.5 1.66699 3.5 3
s2.16699 2.66602 3.5 3.99902c2 2 3.5 3.66699 4.5 5s2.16699 2.66602 3.5 3.99902v0.5v0.5l2 2l2 2v6c-4 0.666992 -8 1 -12 1h-13h-8c-2.66699 0 -5.66699 -0.333008 -9 -1c-63.333 -4 -121.333 -29.333 -174 -76s-79 -100.334 -79 -161.001v-5.5v-5.5
c2 -20 7.16699 -39.833 15.5 -59.5s18.833 -37.167 31.5 -52.5l-11 -11c-15.333 16.667 -28.166 36.167 -38.499 58.5s-15.5 47.5 -15.5 75.5c0 70.667 26.167 127.5 78.5 170.5s109.833 69.5 172.5 79.5c9.33301 2 18.666 3.33301 27.999 4s18.666 1 27.999 1
c6.66699 0 13 -0.333008 19 -1s11.667 -1.33398 17 -2.00098c3.33301 -0.666992 6.5 -1.33398 9.5 -2.00098s5.83301 -1.33398 8.5 -2.00098l-1 -13c-0.666992 0.666992 -1.5 1 -2.5 1h-3.5h-1.5c-0.333008 0 -1.16602 -0.333008 -2.49902 -1s-2.33301 -1.33398 -3 -2.00098
s-1.66699 -1.33398 -3 -2.00098c-6.66699 -6.66699 -15.667 -27.334 -27 -62.001s-33 -102.667 -65 -204l-78 -247c-10.667 -34.667 -18.5 -60.5 -23.5 -77.5s-7.5 -31.833 -7.5 -44.5c0 -1.33301 0.166992 -3.16602 0.5 -5.49902s0.833008 -4.83301 1.5 -7.5
c1.33301 -3.33301 3.66602 -6.5 6.99902 -9.5s8.33301 -4.5 15 -4.5c13.333 0 32.333 8 57 24s59.334 46.333 104.001 91c8 8 15.667 15.833 23 23.5s14.333 15.5 21 23.5c84 93.333 147.833 179.5 191.5 258.5s67.5 122.5 71.5 130.5c9.33301 19.333 17.833 36.5 25.5 51.5
s15.5 27.833 23.5 38.5c11.333 16 23.333 27.5 36 34.5s28 10.5 46 10.5h4h4c2.66699 -0.666992 5.33398 -1.66699 8.00098 -3s4 -3.66602 4 -6.99902c0 -2 -0.666992 -3.66699 -2 -5s-3.33301 -2.33301 -6 -3c-4 -1.33301 -8.83301 -3.16602 -14.5 -5.49902
s-11.5 -6.83301 -17.5 -13.5l-6 -8c-2 -2.66699 -4 -6 -6 -10c-2 -4.66699 -4.66699 -12.167 -8 -22.5s-6.66602 -21.5 -9.99902 -33.5c-1.33301 -3.33301 -2.33301 -6.5 -3 -9.5s-1.33398 -5.83301 -2.00098 -8.5c-3.33301 -12 -6.33301 -23.667 -9 -35
s-5 -20.666 -7 -27.999c-10.667 -50 -20 -94 -28 -132s-16 -72.333 -24 -103c-8 -32 -16.333 -60.833 -25 -86.5s-18.667 -50.167 -30 -73.5c-16.667 -33.333 -29.834 -54.833 -39.501 -64.5s-14.5 -16.5 -14.5 -20.5c0 -2 0.666992 -3.66699 2 -5s3 -2.66602 5 -3.99902
c0.666992 0 1.16699 -0.166992 1.5 -0.5s0.833008 -0.5 1.5 -0.5h2h2h0.5h0.5h1.5h1.5h2h2h4h4h113v-18h-243v0z" />
    <glyph glyph-name="V" unicode="V" horiz-adv-x="720" 
d="M388 77l259.996 438.004c45.333 76.667 83 124.334 113 143.001s57 28 81 28c2.66699 0 5.83398 -0.166992 9.50098 -0.5s7.16699 -0.833008 10.5 -1.5c6.66699 -2 12.667 -5 18 -9s8 -10.667 8 -20c0 -7.33301 -2 -12.833 -6 -16.5s-8.33301 -5.83398 -13 -6.50098
c-1.33301 -0.666992 -2.66602 -1 -3.99902 -1h-4c-3.33301 0 -6.5 0.333008 -9.5 1s-5.83301 1.33398 -8.5 2.00098c-0.666992 0.666992 -1.5 1.16699 -2.5 1.5s-1.83301 0.5 -2.5 0.5c-2.66699 1.33301 -6 2.5 -10 3.5s-9 1.5 -15 1.5c-27.333 0 -52.5 -14.833 -75.5 -44.5
s-45.5 -62.167 -67.5 -97.5l-248 -405c-3.33301 -6 -7 -12.167 -11 -18.5s-8.33301 -12.833 -13 -19.5c-11.333 -18 -26.333 -34 -45 -48s-43.667 -21 -75 -21h-9.5h-9.5c-3.33301 0.666992 -6.5 1.16699 -9.5 1.5s-6.16699 0.833008 -9.5 1.5l4 19h10
c31.333 0 53 10.5 65 31.5s18 50.5 18 88.5c0 51.333 -1 93.166 -3 125.499s-4.33301 62.5 -7 90.5c0 2 -0.166992 3.83301 -0.5 5.5s-0.5 3.5 -0.5 5.5c-2 25.333 -4 52.5 -6 81.5s-3 64.833 -3 107.5c0 8 0.333008 16.833 1 26.5s2.33398 19.5 5.00098 29.5
c2 9.33301 5.66699 18.833 11 28.5s12.666 18.5 21.999 26.5l-1 8c-67.333 -0.666992 -124.5 -18.667 -171.5 -54s-78.167 -74.333 -93.5 -117c-3.33301 -8.66699 -5.83301 -17.5 -7.5 -26.5s-2.5 -17.833 -2.5 -26.5c0 -8 0.666992 -16.333 2 -25
s3.33301 -17.334 6 -26.001c4.66699 -18 11.5 -35.333 20.5 -52s18.833 -31.334 29.5 -44.001l-18 -15c-10 11.333 -19.5 25.166 -28.5 41.499s-16.5 33.166 -22.5 50.499c-4 12.667 -7.16699 24.834 -9.5 36.501s-3.5 22.5 -3.5 32.5v6.5c0 2.33301 0.333008 4.83301 1 7.5
c4 58 35 111.333 93 160s135.667 73 233 73h43v-19c-14.667 -2 -27.167 -5.5 -37.5 -10.5s-16.833 -16.5 -19.5 -34.5c-0.666992 -2.66699 -1 -5.16699 -1 -7.5v-7.5v-5.5v-4.5c0 -1.33301 0.166992 -2.83301 0.5 -4.5s0.5 -3.5 0.5 -5.5l5 -60c0.666992 -8 1 -13.667 1 -17
c0 -2 0.166992 -4 0.5 -6s0.5 -5 0.5 -9c0.666992 -9.33301 1.33398 -17.5 2.00098 -24.5s1.33398 -13.5 2.00098 -19.5v-5.5v-5.5c0.666992 -4 1.16699 -8.33301 1.5 -13s0.833008 -9.33398 1.5 -14.001c2.66699 -29.333 4.66699 -52.333 6 -69s2.33301 -32 3 -46v-26v-30
v-3.5v-3.5c0 -20 -0.666992 -42.5 -2 -67.5s-6 -53.5 -14 -85.5l12 -5v0z" />
    <glyph glyph-name="W" unicode="W" horiz-adv-x="1009" 
d="M716 700l14.002 -19c-2 -2 -3.5 -3.66699 -4.5 -5s-1.83301 -2.33301 -2.5 -3l-0.5 -0.5l-0.5 -0.5l-1 -1l-2 -2c-2 -2 -4.33301 -4.66699 -7 -8s-5 -7 -7 -11c-6 -8.66699 -11.333 -20.667 -16 -36s-7 -34.333 -7 -57c0 -14.667 1.83301 -32.5 5.5 -53.5
s9.16699 -57.167 16.5 -108.5c9.33301 -60.667 15.333 -107.167 18 -139.5s4 -58.833 4 -79.5c0 -10 -0.833008 -19.167 -2.5 -27.5s-3.5 -16.166 -5.5 -23.499l6 -6l194 354c8.66699 14.667 15.5 26.667 20.5 36s9.83301 17.666 14.5 24.999
c0 0.666992 0.166992 1.16699 0.5 1.5l1.5 1.5c2.66699 5.33301 5.66699 10.666 9 15.999s7.33301 11.333 12 18c2.66699 4 5.16699 8 7.5 12s4.83301 8 7.5 12c16 23.333 34.5 44.666 55.5 63.999s48.167 29 81.5 29h5.5c1.66699 0 3.5 -0.333008 5.5 -1
c9.33301 -1.33301 18 -4.33301 26 -9s12 -11.334 12 -20.001c0 -7.33301 -2.33301 -13.166 -7 -17.499s-9.66699 -7.16602 -15 -8.49902c-2.66699 -0.666992 -5 -1.16699 -7 -1.5s-4 -0.5 -6 -0.5c-5.33301 0 -9.66602 0.333008 -12.999 1l-10 2h-0.5
c-0.333008 0 -0.5 0.333008 -0.5 1c-2.66699 0.666992 -6 1.33398 -10 2.00098s-9 1 -15 1c-14.667 0 -28 -4.83301 -40 -14.5s-22.333 -20.167 -31 -31.5c-4 -5.33301 -7.83301 -10.666 -11.5 -15.999s-6.83398 -10 -9.50098 -14c-4 -6 -7.5 -11.333 -10.5 -16
s-5.83301 -9 -8.5 -13l-1.5 -1.5c-0.333008 -0.333008 -0.5 -0.833008 -0.5 -1.5c-4.66699 -7.33301 -9.83398 -16 -15.501 -26s-14.167 -25.333 -25.5 -46l-175 -318c-6.66699 -12 -12.834 -23 -18.501 -33s-11.167 -19.333 -16.5 -28
c-6.66699 -10.667 -13.667 -20.834 -21 -30.501s-15.333 -19.5 -24 -29.5c-4.66699 -5.33301 -9.83398 -10.5 -15.501 -15.5s-11.5 -10.167 -17.5 -15.5l-12 13c6.66699 10.667 12.167 21.834 16.5 33.501s7.83301 23.5 10.5 35.5
c0.666992 5.33301 1.33398 10.333 2.00098 15s1 9.33398 1 14.001v6.5v7.5v6.5v6.5v6.5v6.5c-0.666992 13.333 -1.33398 26.166 -2.00098 38.499s-1.66699 24.5 -3 36.5c-2.66699 22.667 -5.5 45.667 -8.5 69s-6.5 48.666 -10.5 75.999
c-1.33301 9.33301 -2.66602 18.166 -3.99902 26.499s-2.33301 16.5 -3 24.5c-1.33301 12.667 -2.5 26 -3.5 40s-1.5 29.667 -1.5 47h-11l-183 -360c-22.667 -44 -47.834 -80 -75.501 -108s-59.167 -42 -94.5 -42c-2.66699 0 -5.16699 0.166992 -7.5 0.5
s-4.5 0.833008 -6.5 1.5c-2.66699 0 -5.16699 0.166992 -7.5 0.5s-4.83301 0.833008 -7.5 1.5l3 19c0.666992 0 1.5 -0.166992 2.5 -0.5s1.83301 -0.5 2.5 -0.5h5.5h4.5c27.333 0 46.166 9.83301 56.499 29.5s16.833 41.5 19.5 65.5c0.666992 4 1.16699 8.16699 1.5 12.5
s0.5 8.5 0.5 12.5c0 2 0.166992 4.16699 0.5 6.5s0.5 4.83301 0.5 7.5v7.5v6.5v6.5v6.5c-0.666992 2 -1 4.16699 -1 6.5v6.5c-0.666992 15.333 -1.33398 30.833 -2.00098 46.5s-1.66699 31.167 -3 46.5c-0.666992 10 -1.33398 20.167 -2.00098 30.5
s-1.66699 21.166 -3 32.499c-2 28 -3.83301 58.5 -5.5 91.5s-2.5 70.167 -2.5 111.5v7.5v7.5c0.666992 17.333 3.16699 34.666 7.5 51.999s14.5 33.333 30.5 48l-2 7h-2.5h-3.5c-76 0 -139.833 -23.167 -191.5 -69.5s-77.5 -97.5 -77.5 -153.5
c0 -9.33301 1 -19.166 3 -29.499s4.66699 -20.5 8 -30.5c4.66699 -16 11.167 -31.5 19.5 -46.5s17.833 -28.5 28.5 -40.5l-19 -15c-10.667 13.333 -20.167 27.5 -28.5 42.5s-15.166 29.833 -20.499 44.5c-4.66699 12.667 -8.16699 25.334 -10.5 38.001s-3.5 24.667 -3.5 36
v1.5v1.5c0.666992 60.667 29 116.5 85 167.5s136.667 76.5 242 76.5h42v-19c-16.667 -2.66699 -29.667 -6.5 -39 -11.5s-15 -16.167 -17 -33.5c-0.666992 -2.66699 -1 -5.5 -1 -8.5v-9.5v-4c0 -1.33301 0.333008 -2.66602 1 -3.99902v-5v-4c0 -4 0.166992 -7.66699 0.5 -11
s0.5 -6.66602 0.5 -9.99902v-0.5v-1.5c0.666992 -10.667 1.5 -23.334 2.5 -38.001s2.83301 -38.334 5.5 -71.001c1.33301 -13.333 2.5 -27 3.5 -41s1.83301 -28 2.5 -42c2 -34 3.83301 -67.667 5.5 -101s2.5 -63 2.5 -89c0 -16.667 -1.33301 -31.667 -4 -45
s-6.66699 -26.333 -12 -39l12 -5l193 378c8.66699 16.667 15.334 30.167 20.001 40.5s9 19.833 13 28.5c0 0.666992 0.166992 1.5 0.5 2.5s0.833008 1.83301 1.5 2.5c0.666992 2 1.5 4.33301 2.5 7s2.16699 5.33398 3.5 8.00098c0.666992 2 1.33398 3.83301 2.00098 5.5
s1.33398 3.5 2.00098 5.5c9.33301 23.333 20 45.5 32 66.5s31.333 41.833 58 62.5v0z" />
    <glyph glyph-name="X" unicode="X" horiz-adv-x="621" 
d="M324 363l-14.9951 171.998v1.5v1.5c-0.666992 7.33301 -1.33398 16.666 -2.00098 27.999s-1.66699 23 -3 35c-2.66699 18.667 -6.5 35.834 -11.5 51.501s-12.5 23.5 -22.5 23.5c-8 0 -17.333 -5 -28 -15s-22 -22 -34 -36c-4 -5.33301 -8.16699 -10.833 -12.5 -16.5
s-8.5 -11.167 -12.5 -16.5c-10.667 -15.333 -20.334 -29.833 -29.001 -43.5s-15.334 -24.167 -20.001 -31.5c-4.66699 -8 -8.83398 -14.667 -12.501 -20s-6.83398 -10.666 -9.50098 -15.999c-0.666992 -0.666992 -1 -1.16699 -1 -1.5s-0.333008 -0.833008 -1 -1.5
c-2.66699 -4 -5.16699 -8.16699 -7.5 -12.5s-5.16602 -9.5 -8.49902 -15.5l-14 8c59.333 105.333 103.833 172 133.5 200s50.5 42 62.5 42c4.66699 0 9.5 -0.666992 14.5 -2s10.167 -3.66602 15.5 -6.99902c11.333 -8 22.166 -22.833 32.499 -44.5s17.5 -55.167 21.5 -100.5
l10 -120l143 192c2 2.66699 6.33301 7.83398 13 15.501s14.334 15.834 23.001 24.501c10 10 21.167 19 33.5 27s24.833 13 37.5 15c2 0.666992 3.83301 1 5.5 1h4.5h1.5h0.5c4.66699 0 8.66699 -1.16699 12 -3.5s5 -6.83301 5 -13.5
c0 -2.66699 -0.833008 -6.33398 -2.5 -11.001s-5.16699 -9.33398 -10.5 -14.001c-6.66699 -6 -17 -11.667 -31 -17s-33.333 -9.33301 -58 -12l-174 -235l24 -276c0.666992 -4.66699 1.16699 -9.5 1.5 -14.5s0.833008 -10.167 1.5 -15.5
c2.66699 -20.667 7.16699 -39.5 13.5 -56.5s16.5 -25.5 30.5 -25.5c8.66699 0 18.334 5.66699 29.001 17s21.667 25.666 33 42.999c6 10 12.167 20.5 18.5 31.5s12.5 21.833 18.5 32.5c12 24 22.667 46.667 32 68s16 37 20 47l15 -5
c-4.66699 -14 -10.334 -29.167 -17.001 -45.5s-14 -33.166 -22 -50.499c-15.333 -33.333 -33.166 -64.666 -53.499 -93.999s-40.833 -48.666 -61.5 -57.999c-4 -2 -8.16699 -3.5 -12.5 -4.5s-8.5 -1.5 -12.5 -1.5c-23.333 0 -40.833 8 -52.5 24s-20.167 34 -25.5 54
c-2.66699 10.667 -4.66699 21.167 -6 31.5s-2.33301 19.166 -3 26.499l-18 209l-191 -258l-8 -10l-8 -10c-22.667 -25.333 -44.334 -42.833 -65.001 -52.5s-37.334 -14.5 -50.001 -14.5h-2.5c-1 0 -2.16699 0.333008 -3.5 1c-2.66699 0.666992 -5.16699 1.66699 -7.5 3
s-3.5 3.66602 -3.5 6.99902s1.16699 7.83301 3.5 13.5s7.83301 11.834 16.5 18.501c8 5.33301 19.167 10.666 33.5 15.999s33.5 10 57.5 14l226 303v0z" />
    <glyph glyph-name="Y" unicode="Y" horiz-adv-x="549" 
d="M75 440l-14.9971 7.00098c6.66699 15.333 12.5 29.166 17.5 41.499s9.83301 24.166 14.5 35.499c1.33301 2.66699 2.5 5.33398 3.5 8.00098s2.16699 5.33398 3.5 8.00098c5.33301 12 11.166 24.333 17.499 37s13.833 27 22.5 43c21.333 37.333 38.666 60 51.999 68
s22.333 12 27 12c4 0 8 -0.333008 12 -1s8 -2 12 -4l6 -4c2 -1.33301 4 -3 6 -5c10 -10 17.833 -22.833 23.5 -38.5s10.167 -31.834 13.5 -48.501c3.33301 -16 5.5 -31.5 6.5 -46.5s1.5 -27.5 1.5 -37.5l4 -177c27.333 9.33301 51.5 16.333 72.5 21s37.833 8 50.5 10l83 154
c19.333 36 37 65.667 53 89s31.667 41.666 47 54.999c9.33301 8.66699 18.666 15.5 27.999 20.5s19 9.16699 29 12.5l9 -12c-27.333 -29.333 -49.5 -54 -66.5 -74s-31.833 -39.333 -44.5 -58c-3.33301 -4.66699 -6.66602 -9.66699 -9.99902 -15s-7 -10.666 -11 -15.999
c-2 -4 -4.33301 -8.16699 -7 -12.5s-5.33398 -8.83301 -8.00098 -13.5l-73 -125c6 0.666992 11.667 1.16699 17 1.5s10.666 0.833008 15.999 1.5h20h21c10 0 19.333 -0.333008 28 -1s17.334 -1.66699 26.001 -3l-6 -18c-1.33301 0 -3 0.166992 -5 0.5s-4 0.833008 -6 1.5
c-3.33301 0 -7.16602 0.333008 -11.499 1s-8.83301 1 -13.5 1c-2.66699 0.666992 -5.33398 1 -8.00098 1h-8c-12 0 -23.333 -0.166992 -34 -0.5s-21.334 -1.16602 -32.001 -2.49902c-2 0 -4 -0.166992 -6 -0.5s-4 -0.833008 -6 -1.5l-118 -210
c-5.33301 -8.66699 -11.166 -18.334 -17.499 -29.001s-13.166 -21.667 -20.499 -33c-17.333 -24 -38.166 -46 -62.499 -66s-52.5 -30 -84.5 -30c-27.333 0 -51.333 8.66699 -72 26s-30.667 42 -30 74c4.66699 66 27.5 115 68.5 147s87.833 60.333 140.5 85l-6 196
c0 6.66699 -0.166992 12.334 -0.5 17.001s-0.5 9 -0.5 13v10v12c-0.666992 16 -1.33398 27.167 -2.00098 33.5s-1.66699 11.5 -3 15.5c0 2 -0.166992 4.16699 -0.5 6.5s-0.833008 4.83301 -1.5 7.5c0 2 -0.333008 5.16699 -1 9.5s-2 8.83301 -4 13.5
c-2 6 -4.66699 11.5 -8 16.5s-8 7.5 -14 7.5h-1.5h-0.5c-0.666992 0 -1.16699 -0.166992 -1.5 -0.5s-0.833008 -0.5 -1.5 -0.5c-7.33301 -2.66699 -15.5 -10 -24.5 -22s-17.833 -26 -26.5 -42c-5.33301 -8.66699 -10.333 -17.834 -15 -27.501s-9.33398 -19.5 -14.001 -29.5
c-12 -24 -22.5 -47 -31.5 -69s-15.167 -37.333 -18.5 -46v0zM252.003 133.001l0.000976562 168c-49.333 -20.667 -90.5 -48.167 -123.5 -82.5s-49.5 -77.166 -49.5 -128.499c0 -22 3.66699 -38.667 11 -50s15.666 -19.333 24.999 -24
c8 -4.66699 15.5 -7.33398 22.5 -8.00098s11.167 -1 12.5 -1c8 0 15 0.833008 21 2.5s11.333 3.5 16 5.5c23.333 10 39.333 21.5 48 34.5s14 26.5 16 40.5c0.666992 6 1 11.833 1 17.5v16.5v5v4v0zM311.004 145.001l107.001 206.001
c-8.66699 -0.666992 -22.834 -3.33398 -42.501 -8.00098s-44.167 -13 -73.5 -25v-173h9v0z" />
    <glyph glyph-name="Z" unicode="Z" horiz-adv-x="519" 
d="M546 686l21.9941 0.00292969c0 -8.66699 -3.83301 -32 -11.5 -70s-32.5 -85 -74.5 -141c-24.667 -32.667 -50.834 -61.834 -78.501 -87.501s-55.834 -49.167 -84.501 -70.5c-18 -13.333 -35.667 -26.166 -53 -38.499s-34.333 -24.5 -51 -36.5
c-38.667 -28 -73.667 -57.167 -105 -87.5s-55.333 -66.833 -72 -109.5l9 -7c5.33301 4 10.333 7.66699 15 11s9.33398 6.33301 14.001 9c14.667 8.66699 29.667 15.167 45 19.5s32.333 6.5 51 6.5c16.667 0 31.5 -1.83301 44.5 -5.5s24.167 -7.83398 33.5 -12.501
c4.66699 -2 9 -4 13 -6s7.33301 -4 10 -6c12 -6.66699 25 -12.667 39 -18s31.333 -8 52 -8c36 0 64.167 14.5 84.5 43.5s31.833 60.833 34.5 95.5c0.666992 3.33301 1 6.5 1 9.5v8.5c0 9.33301 -0.5 18.333 -1.5 27s-2.83301 17 -5.5 25l20 5
c1.33301 -3.33301 2.33301 -6.66602 3 -9.99902l2 -10c1.33301 -6.66699 2.16602 -13.334 2.49902 -20.001s0.5 -13.334 0.5 -20.001c0 -54.667 -17.833 -100.834 -53.5 -138.501s-76.5 -56.5 -122.5 -56.5c-16 0 -30 2.16699 -42 6.5s-23 8.5 -33 12.5
c-0.666992 0.666992 -1.5 1.16699 -2.5 1.5s-1.83301 0.833008 -2.5 1.5c-3.33301 1.33301 -8.16602 3.5 -14.499 6.5s-13.833 6.16699 -22.5 9.5c-9.33301 4 -19.666 7.66699 -30.999 11s-22.666 5.66602 -33.999 6.99902c-3.33301 0 -6.66602 0.166992 -9.99902 0.5
s-6.66602 0.5 -9.99902 0.5c-10 0 -20 -1.33301 -30 -4s-20 -6 -30 -10c-10 -4.66699 -20.167 -9.83398 -30.5 -15.501s-20.5 -11.167 -30.5 -16.5l-13 14c29.333 75.333 66.333 138.166 111 188.499s95.334 96.5 152.001 138.5c0.666992 0.666992 1.5 1.33398 2.5 2.00098
s1.83301 1.33398 2.5 2.00098c14.667 10.667 29.5 21.167 44.5 31.5s29.5 20.5 43.5 30.5c38 27.333 72.833 55.833 104.5 85.5s56.167 64.834 73.5 105.501l-8 8c-20.667 -18.667 -39.5 -30.334 -56.5 -35.001s-33.167 -7 -48.5 -7c-4.66699 0 -9.16699 0.166992 -13.5 0.5
s-8.83301 1.16602 -13.5 2.49902c-13.333 2.66699 -27.166 7.33398 -41.499 14.001s-30.166 15.334 -47.499 26.001c-10 6 -20.333 11.5 -31 16.5s-23.334 7.5 -38.001 7.5c-3.33301 0 -6.66602 -0.333008 -9.99902 -1s-6.66602 -2 -9.99902 -4
c-13.333 -5.33301 -26.5 -15 -39.5 -29s-24.833 -29 -35.5 -45c-8.66699 -12.667 -16.5 -25.167 -23.5 -37.5s-12.167 -22.166 -15.5 -29.499h-27c32.667 59.333 55.167 104.166 67.5 134.499s20.833 57.833 25.5 82.5h22l-22 -74l10 -3
c11.333 15.333 25.166 28.333 41.499 39s32.833 16 49.5 16h4.5c1.66699 0 3.5 -0.333008 5.5 -1c13.333 -1.33301 27.5 -6.5 42.5 -15.5s32.833 -19.833 53.5 -32.5c2.66699 -1.33301 5.5 -3 8.5 -5s5.83301 -3.66699 8.5 -5c8.66699 -4.66699 18.667 -9 30 -13
s24 -6 38 -6v0v0c3.33301 0 9.5 0.5 18.5 1.5s18.5 4.16699 28.5 9.5s19.333 13.833 28 25.5s14.667 28.167 18 49.5v0z" />
    <glyph glyph-name="bracketleft" unicode="[" horiz-adv-x="350" 
d="M35 -266l213 966h130v-21h-82l-213 -924h89v-21h-137v0z" />
    <glyph glyph-name="backslash" unicode="\" horiz-adv-x="431" 
d="M350 -280l-300 1001h31l300 -1001h-31v0z" />
    <glyph glyph-name="bracketright" unicode="]" horiz-adv-x="350" 
d="M322 700l-213 -966h-130v21h81l214 924h-89v21h137v0z" />
    <glyph glyph-name="asciicircum" unicode="^" horiz-adv-x="528" 
d="M284 665l-176 -235h-32l208 280l208 -280h-32l-176 235v0z" />
    <glyph glyph-name="underscore" unicode="_" horiz-adv-x="580" 
d="M0 -280v28h580v-28h-580v0z" />
    <glyph glyph-name="grave" unicode="`" horiz-adv-x="168" 
d="M205 449l-42.001 69.999c-1.33301 2 -2.66602 4.33301 -3.99902 7l-4 8c-0.666992 1.33301 -1.16699 3 -1.5 5s-0.5 3.66699 -0.5 5s0.166992 2.83301 0.5 4.5s0.833008 3.16699 1.5 4.5c1.33301 4 4 7.83301 8 11.5s9.33301 5.5 16 5.5c8.66699 0 15 -3.66699 19 -11
s7 -15.666 9 -24.999l15 -81l-17 -4v0z" />
    <glyph glyph-name="a" unicode="a" horiz-adv-x="348" 
d="M329 167l12.001 -4.99219l-44 -79c-8 -14.667 -14.333 -25.334 -19 -32.001s-8.66699 -12.334 -12 -17.001c0 -0.666992 -0.166992 -1.16699 -0.5 -1.5l-0.5 -0.5l-1.5 -1.5c-0.333008 -0.333008 -0.5 -0.833008 -0.5 -1.5c-8.66699 -12.667 -16.334 -21.667 -23.001 -27
s-13.334 -8.66602 -20.001 -9.99902c-1.33301 0 -2.83301 -0.166992 -4.5 -0.5s-3.16699 -0.5 -4.5 -0.5c-12 0 -20.667 3.66699 -26 11s-8.33301 15.666 -9 24.999c-0.666992 1.33301 -1 2.83301 -1 4.5v5.5c0 11.333 0.666992 20 2 26s3 11.667 5 17l0.5 0.5
c0.333008 0.333008 0.5 0.833008 0.5 1.5l40 109h-4c-2.66699 -4 -4.83398 -7.66699 -6.50098 -11s-3.5 -6.33301 -5.5 -9l-0.5 -0.5c-0.333008 -0.333008 -0.5 -0.833008 -0.5 -1.5c-2.66699 -3.33301 -5.16699 -6.83301 -7.5 -10.5s-5.16602 -8.16699 -8.49902 -13.5
c-2 -2.66699 -8.16699 -11.667 -18.5 -27s-23.166 -32 -38.499 -50c-7.33301 -8.66699 -14.833 -17.334 -22.5 -26.001s-15.5 -16.334 -23.5 -23.001c-10 -8.66699 -19.833 -15.5 -29.5 -20.5s-18.834 -7.5 -27.501 -7.5c-2 0 -5 0.5 -9 1.5s-8 2.83301 -12 5.5
c-6 4 -11.167 11.167 -15.5 21.5s-6.5 25.833 -6.5 46.5c0 17.333 3.83301 36.833 11.5 58.5s18.5 43.5 32.5 65.5c16 26 35 51.5 57 76.5s44.667 46.833 68 65.5c18 14.667 36 27.667 54 39s35.667 17 53 17c14 0 24.167 -3 30.5 -9s10.5 -12.667 12.5 -20
c0 -2 0.166992 -4 0.5 -6s0.5 -4 0.5 -6c0 -2.66699 -0.166992 -5.33398 -0.5 -8.00098s-0.833008 -5.33398 -1.5 -8.00098l-2 -8l-2 -8c-1.33301 -4 -2.5 -7.66699 -3.5 -11s-1.83301 -5.66602 -2.5 -6.99902l-72 -215l-3.5 -10.5c-1.66699 -5 -3.16699 -10.5 -4.5 -16.5
c-0.666992 -1.33301 -1 -2.33301 -1 -3s-0.333008 -1.33398 -1 -2.00098c-2 -7.33301 -3.66699 -14.166 -5 -20.499s-2 -10.5 -2 -12.5c0 -2.66699 0.5 -4.83398 1.5 -6.50098s1.83301 -2.83398 2.5 -3.50098s1.33398 -1.16699 2.00098 -1.5s1.33398 -0.5 2.00098 -0.5
c2.66699 0 6 1.33301 10 4s8 6 12 10c2 2 4.16699 4.33301 6.5 7s4.83301 5.66699 7.5 9s5.16699 6.66602 7.5 9.99902s4.16602 6.33301 5.49902 9c6.66699 10.667 11.5 18.5 14.5 23.5l7.5 12.5l44 77v0zM240.001 264.008c2 4 4.33008 8.83203 6.99707 14.499
s5 11.5 7 17.5c0.666992 1.33301 1.33398 2.83301 2.00098 4.5s1.66699 3.16699 3 4.5c4.66699 12 8.83398 23.167 12.501 33.5s5.5 17.166 5.5 20.499c0 5.33301 -1.5 9 -4.5 11s-7.16699 3 -12.5 3c-8.66699 0 -25.667 -9.66699 -51 -29s-52.333 -48.666 -81 -87.999
c-4.66699 -6.66699 -12.167 -18 -22.5 -34s-21.166 -34 -32.499 -54c-3.33301 -4.66699 -6.33301 -9.5 -9 -14.5s-5.33398 -9.83301 -8.00098 -14.5c-12 -22 -22.333 -43 -31 -63s-13 -35.333 -13 -46c0 -9.33301 2 -15.833 6 -19.5s8.33301 -5.5 13 -5.5
c5.33301 0 11.333 1.83301 18 5.5s13.334 8.16699 20.001 13.5c4 2.66699 7.66699 5.5 11 8.5s6.66602 6.16699 9.99902 9.5c6.66699 6 12.5 11.833 17.5 17.5s9.16699 10.167 12.5 13.5c8 9.33301 16.333 19.833 25 31.5s17.334 24.167 26.001 37.5
c12 18.667 24 38.334 36 59.001s23 41.667 33 63v0z" />
    <glyph glyph-name="b" unicode="b" horiz-adv-x="319" 
d="M249 735l21 -0.00292969l-145 -493h4c3.33301 6.66699 6.83301 13.334 10.5 20.001s7.83398 13.334 12.501 20.001c10.667 17.333 22.834 34 36.501 50s27.5 29 41.5 39c7.33301 5.33301 14.666 9.5 21.999 12.5s14.666 4.5 21.999 4.5c15.333 0 27.833 -6.5 37.5 -19.5
s14.5 -33.833 14.5 -62.5c0 -17.333 -3.33301 -36 -10 -56s-15.667 -40 -27 -60c-14.667 -25.333 -31.667 -50.333 -51 -75s-39.333 -46.667 -60 -66l-1.5 -1.5l-1.5 -1.5c-24.667 -22.667 -45.667 -37.5 -63 -44.5s-30 -10.5 -38 -10.5c-15.333 0 -26.5 4.33301 -33.5 13
s-10.5 18.334 -10.5 29.001c0 2 0.166992 4 0.5 6s0.5 4 0.5 6c0.666992 4 1.5 7.83301 2.5 11.5s1.83301 7.16699 2.5 10.5c1.33301 4 2.5 7.33301 3.5 10s1.83301 4.66699 2.5 6l138 432h-4l-149 -248l-13 6l162 269c16 26.667 26.833 48.167 32.5 64.5
s10.167 30.5 13.5 42.5l27 86v0zM95 133.997c-13.333 -35.333 -21.8311 -60.1709 -25.498 -74.5039s-5.5 -24.166 -5.5 -29.499c0 -7.33301 0.833008 -12.666 2.5 -15.999s3.83398 -5.66602 6.50098 -6.99902c1.33301 -0.666992 2.66602 -1.16699 3.99902 -1.5
s2.33301 -0.5 3 -0.5c2.66699 0 11.667 3.83301 27 11.5s39 33.167 71 76.5c6 8.66699 12.667 18.334 20 29.001s14.666 22 21.999 34c5.33301 9.33301 10.833 18.833 16.5 28.5s11.167 19.5 16.5 29.5c11.333 22 20.833 43.5 28.5 64.5s11.5 38.833 11.5 53.5v7
c0 2.66699 -0.333008 5.33398 -1 8.00098c-0.666992 6.66699 -2.83398 12.667 -6.50098 18s-10.167 8 -19.5 8s-19 -3.83301 -29 -11.5s-20.333 -17.5 -31 -29.5c-10.667 -12.667 -21.167 -27 -31.5 -43s-20.166 -32.667 -29.499 -50c-11.333 -20 -21.333 -39.333 -30 -58
s-15.334 -34.334 -20.001 -47.001v0z" />
    <glyph glyph-name="c" unicode="c" horiz-adv-x="274" 
d="M253 191l15.9961 0.000976562c-3.33301 -10.667 -7.33301 -22.334 -12 -35.001s-10.334 -25.334 -17.001 -38.001c-16 -32 -36.333 -61.167 -61 -87.5s-53 -39.5 -85 -39.5c-22.667 0 -40 6 -52 18s-20.333 25.667 -25 41c-2 7.33301 -3.5 14.5 -4.5 21.5
s-1.5 13.167 -1.5 18.5c0 17.333 3.83301 43.5 11.5 78.5s24.834 71.833 51.501 110.5c2 2.66699 4.16699 5.5 6.5 8.5s4.83301 6.16699 7.5 9.5c31.333 39.333 60.666 64.333 87.999 75s48.333 16 63 16h2.5h2.5c9.33301 -0.666992 17.833 -3.16699 25.5 -7.5
s11.5 -11.166 11.5 -20.499v-1.5v-1.5c-0.666992 -6.66699 -3 -13 -7 -19s-10.333 -9 -19 -9c-7.33301 0 -13.166 2.16699 -17.499 6.5s-7.16602 9.16602 -8.49902 14.499v2v2v3.5v2.5v1.5v1.5l2 6c0.666992 2 2 3.66699 4 5v1h-1.5h-0.5h-1.5h-1.5c-4 0 -8 -0.5 -12 -1.5
s-8 -2.16699 -12 -3.5c-13.333 -6 -26.5 -15.333 -39.5 -28s-24.167 -26 -33.5 -40c-0.666992 -1.33301 -1.5 -2.66602 -2.5 -3.99902s-1.83301 -2.66602 -2.5 -3.99902c-4 -7.33301 -8.66699 -16.5 -14 -27.5s-11 -23.167 -17 -36.5c-4 -10.667 -8.16699 -21.5 -12.5 -32.5
s-8.16602 -22.167 -11.499 -33.5c-6 -18 -10.833 -35.667 -14.5 -53s-5.5 -33 -5.5 -47c0 -17.333 4.83301 -31.5 14.5 -42.5s22.834 -16.5 39.501 -16.5h4c1.33301 0 3 0.333008 5 1c20 3.33301 39.5 16.666 58.5 39.999s35.5 49 49.5 77
c6.66699 12 12.334 23.833 17.001 35.5s8.66699 22.5 12 32.5v0z" />
    <glyph glyph-name="d" unicode="d" horiz-adv-x="347" 
d="M328 167l12.001 -5.00195l-44 -79c-22 -39.333 -39.167 -64.5 -51.5 -75.5s-23.833 -16.5 -34.5 -16.5c-12 0 -21 4.66699 -27 14s-9 20 -9 32v6c0 2 0.333008 4 1 6c0 4 0.5 8.16699 1.5 12.5s1.83301 8.16602 2.5 11.499c0.666992 2 1.16699 3.83301 1.5 5.5
s0.833008 2.83398 1.5 3.50098l40 109h-4c-36 -60.667 -70.667 -109.167 -104 -145.5s-61.666 -54.5 -84.999 -54.5c-12.667 0 -22.834 6.66699 -30.501 20s-11.5 31.666 -11.5 54.999v8.5c0 3 0.333008 5.83301 1 8.5c4 43.333 20.5 85.5 49.5 126.5
s60.833 76.167 95.5 105.5c26 22.667 51 40.5 75 53.5s42.333 19.5 55 19.5c7.33301 0 13 -1.16699 17 -3.5s7.33301 -5.16602 10 -8.49902l128 359h20l-216 -653c-0.666992 -1.33301 -1.66699 -4.66602 -3 -9.99902s-3 -11.333 -5 -18
c0 -0.666992 -0.166992 -1.5 -0.5 -2.5s-0.5 -1.83301 -0.5 -2.5c-2 -6.66699 -3.66699 -13.167 -5 -19.5s-2 -10.5 -2 -12.5c0 -3.33301 0.666992 -6.16602 2 -8.49902s3.33301 -3.5 6 -3.5c4 0 8.66699 2.33301 14 7s10.666 10.334 15.999 17.001
c2.66699 2.66699 5.16699 5.66699 7.5 9s4.83301 6.66602 7.5 9.99902c6 9.33301 11.5 18 16.5 26s8.16699 13.333 9.5 16l43 77v0zM239.001 263.998c2 4.66699 4.33496 9.66699 7.00195 15s5 11 7 17l2 4l2 4c4.66699 12 9 23.167 13 33.5s6 17.5 6 21.5s-1.16699 7 -3.5 9
s-5.16602 3.33301 -8.49902 4c-0.666992 0.666992 -1.5 1 -2.5 1h-2.5c-10.667 0 -29 -10.833 -55 -32.5s-53.667 -52.5 -83 -92.5l-8 -12l-8 -12c-44.667 -68.667 -71.334 -117 -80.001 -145s-13 -44.333 -13 -49v-2.5v-3.5c0.666992 -4.66699 2.16699 -9 4.5 -13
s6.83301 -6 13.5 -6c5.33301 0 11.333 1.83301 18 5.5s13.667 8.16699 21 13.5c3.33301 2.66699 6.83301 5.66699 10.5 9s7.16699 6.33301 10.5 9c6 6 11.667 11.833 17 17.5s9.66602 10.167 12.999 13.5c8 9.33301 18.333 22.833 31 40.5s25.667 37.5 39 59.5
c8.66699 14 17.167 28.667 25.5 44s16.166 31 23.499 47v0z" />
    <glyph glyph-name="e" unicode="e" horiz-adv-x="260" 
d="M220 158l15.001 -6c-11.333 -30 -24.666 -56.167 -39.999 -78.5s-31 -40.166 -47 -53.499c-12 -10 -23.833 -17.333 -35.5 -22s-22.5 -7 -32.5 -7c-3.33301 0 -6.66602 0.166992 -9.99902 0.5s-6.66602 1.16602 -9.99902 2.49902c-12 4 -23.167 11.833 -33.5 23.5
s-15.5 29.167 -15.5 52.5c0 17.333 2.16699 36.166 6.5 56.499s10.166 40.833 17.499 61.5c17.333 49.333 42 94.666 74 135.999s65.333 62.666 100 63.999h1.5h1.5c16 0 28 -5.33301 36 -16s12 -22.667 12 -36s-3 -28.166 -9 -44.499s-14.667 -33.166 -26 -50.499
c-16.667 -24.667 -39.334 -48.667 -68.001 -72s-62.334 -42 -101.001 -56c-2 -7.33301 -3.66699 -15.166 -5 -23.499s-2.33301 -16.5 -3 -24.5c-0.666992 -3.33301 -1 -6.33301 -1 -9v-8v-7c0 -2.66699 0.333008 -5 1 -7c1.33301 -7.33301 4.16602 -14 8.49902 -20
s11.833 -9 22.5 -9c7.33301 0 14.833 1.5 22.5 4.5s15.5 7.16699 23.5 12.5c18.667 13.333 36.667 32.333 54 57s31 51 41 79v0zM58.001 130c26 9.33301 50.6699 25.166 74.0029 47.499s43.333 45.833 60 70.5c13.333 19.333 23.833 38.166 31.5 56.499s11.5 33.5 11.5 45.5
c0 6.66699 -1.16699 11.5 -3.5 14.5s-4.83301 5.16699 -7.5 6.5c-1.33301 0.666992 -2.83301 1.16699 -4.5 1.5s-3.16699 0.5 -4.5 0.5c-9.33301 0 -19.333 -4 -30 -12s-21.334 -18.667 -32.001 -32c-16.667 -21.333 -32.834 -47.666 -48.501 -78.999
s-28.834 -63.666 -39.501 -96.999c-1.33301 -3.33301 -2.5 -7 -3.5 -11s-2.16699 -8 -3.5 -12v0z" />
    <glyph glyph-name="f" unicode="f" horiz-adv-x="149" 
d="M108 362l-90.998 0.000976562l4 15h91l36 130c0.666992 2 1.16699 3.83301 1.5 5.5s0.833008 3.5 1.5 5.5c8.66699 28 21.167 53.833 37.5 77.5s41.166 35.5 74.499 35.5c18.667 0 34 -3.66699 46 -11s19 -15.333 21 -24c0.666992 -0.666992 1 -1.5 1 -2.5v-2.5
c0 -4.66699 -1.66699 -8.66699 -5 -12s-8 -5 -14 -5s-10.833 1 -14.5 3s-6.83398 4.33301 -9.50098 7c-1.33301 1.33301 -2.5 2.66602 -3.5 3.99902s-2.16699 2.33301 -3.5 3l-2.5 2.5c-1 1 -2.16699 1.83301 -3.5 2.5c-2 2 -4.5 3.83301 -7.5 5.5
s-6.16699 3.16699 -9.5 4.5c-2.66699 1.33301 -5.33398 2.33301 -8.00098 3s-5 1 -7 1c-3.33301 0 -6.5 -0.333008 -9.5 -1s-6.16699 -2 -9.5 -4c-9.33301 -5.33301 -18.666 -16.5 -27.999 -33.5s-18 -42.833 -26 -77.5l-26 -117h96l-5 -15h-96l-181 -642h-46l196 642v0z
" />
    <glyph glyph-name="g" unicode="g" horiz-adv-x="293" 
d="M223 191l-4.99902 0.00292969c-36 -60.667 -70.667 -109.167 -104 -145.5s-61.666 -54.5 -84.999 -54.5c-12.667 0 -22.834 6.66699 -30.501 20s-11.5 31.666 -11.5 54.999c0 18 3.33301 37 10 57s16 40 28 60c16 27.333 35.333 53.833 58 79.5s47 48.834 73 69.501
c7.33301 6 14.833 11.833 22.5 17.5s15.5 11.167 23.5 16.5c10.667 6.66699 21 12 31 16s20 6 30 6c13.333 0 24 -3.83301 32 -11.5s12 -17.5 12 -29.5c0 -2.66699 -0.5 -6.16699 -1.5 -10.5s-2.16699 -8.83301 -3.5 -13.5c0 -1.33301 -0.166992 -2.33301 -0.5 -3
s-0.5 -1.66699 -0.5 -3c-1.33301 -4 -2.5 -8 -3.5 -12s-1.83301 -6.66699 -2.5 -8l-94 -290c-14.667 -44.667 -30.167 -82.834 -46.5 -114.501s-33.166 -57.834 -50.499 -78.501c-30.667 -38 -60 -62.167 -88 -72.5s-50.333 -15.5 -67 -15.5c-6 0 -12.333 0.5 -19 1.5
s-13.667 2.5 -21 4.5c-18.667 5.33301 -36 15.333 -52 30s-24 36.334 -24 65.001c0 31.333 7.66699 54.166 23 68.499s32.333 22.833 51 25.5c2 0.666992 4.33301 1 7 1h7c19.333 0 34.666 -4 45.999 -12s20 -17 26 -27c2.66699 -4.66699 4.66699 -9.5 6 -14.5
s2.33301 -9.16699 3 -12.5l-15 -8c-2.66699 16.667 -9.66699 30.667 -21 42s-26.333 17 -45 17c-25.333 0 -43.166 -6.83301 -53.499 -20.5s-16.5 -28.834 -18.5 -45.501c-0.666992 -2.66699 -1 -5.16699 -1 -7.5v-6.5c0 -28.667 10 -50.167 30 -64.5s42.667 -21.5 68 -21.5
c38 0 69 12.667 93 38s43 53.333 57 84c5.33301 10.667 10.166 21.5 14.499 32.5s8.16602 21.167 11.499 30.5l76 208l25 57v0zM239.001 264.003c8 17.333 13.502 29.3359 16.502 36.0029s5.16699 12 6.5 16v0.5c0 0.333008 0.333008 0.5 1 0.5
c0 1.33301 0.333008 2.66602 1 3.99902s1.33398 3 2.00098 5c0 0.666992 0.666992 2.5 2 5.5s2.33301 6.16699 3 9.5c0.666992 0 1 0.166992 1 0.5v1.5c1.33301 3.33301 2.5 6.66602 3.5 9.99902s1.5 5.33301 1.5 6c0 3.33301 -1.33301 6.5 -4 9.5s-7.33398 4.5 -14.001 4.5
c-8 0 -20.167 -6 -36.5 -18s-33.5 -27.667 -51.5 -47c-7.33301 -8 -14.666 -16.333 -21.999 -25s-14.333 -17.667 -21 -27c-6 -8.66699 -13.5 -19.667 -22.5 -33s-18.5 -27.666 -28.5 -42.999c-4 -6.66699 -8 -13.5 -12 -20.5s-8 -13.833 -12 -20.5
c-11.333 -20.667 -21 -40.834 -29 -60.501s-12 -35.834 -12 -48.501v-2.5v-3.5c0.666992 -4.66699 2.16699 -9 4.5 -13s6.83301 -6 13.5 -6c8.66699 0 18.667 4 30 12s22.666 18 33.999 30c6 6 12 12.5 18 19.5s11.667 13.833 17 20.5c10.667 12.667 20.167 25 28.5 37
s15.166 22 20.499 30c13.333 20 23.166 35.333 29.499 46s11.5 20.667 15.5 30c0.666992 0.666992 1.16699 1.5 1.5 2.5s0.833008 2.16699 1.5 3.5c2 4 4 8.16699 6 12.5s4.33301 9.5 7 15.5v0z" />
    <glyph glyph-name="h" unicode="h" horiz-adv-x="370" 
d="M0 0l187 515h-4l-149 -248l-13 6l162 269c16 26.667 26.833 48.167 32.5 64.5s10.167 30.5 13.5 42.5l27 86h21l-156 -497l-1 -3h3c6 7.33301 10.667 13.166 14 17.499s6.33301 8.5 9 12.5v0.5c0 0.333008 0.333008 0.833008 1 1.5s1.33398 1.5 2.00098 2.5
s1.33398 1.83301 2.00098 2.5c10 13.333 17.667 23 23 29s10 11 14 15c2 2 4 4.16699 6 6.5s4.33301 4.83301 7 7.5c18.667 20 34.834 34.667 48.501 44s25.834 14 36.501 14c2 0 4.33301 -0.166992 7 -0.5s5 -0.833008 7 -1.5c7.33301 -2 14 -6.33301 20 -13s9 -17 9 -31
c0 -8 -1 -15.333 -3 -22s-4.33301 -13 -7 -19c-0.666992 -2 -1.33398 -3.66699 -2.00098 -5l-2 -4c-0.666992 -2 -2 -5.5 -4 -10.5s-4 -10.167 -6 -15.5c-2 -4.66699 -3.83301 -9.16699 -5.5 -13.5s-2.83398 -7.83301 -3.50098 -10.5l-61 -174
c-4.66699 -14 -8.5 -24.833 -11.5 -32.5s-4.5 -14.167 -4.5 -19.5c0 -2.66699 0.833008 -5.16699 2.5 -7.5s4.16699 -3.5 7.5 -3.5c2 0 3.83301 0.333008 5.5 1s3.16699 1.33398 4.5 2.00098s2.5 1.5 3.5 2.5s2.16699 1.83301 3.5 2.5c3.33301 2.66699 6.83301 6 10.5 10
s7.5 8.33301 11.5 13l4 6l4 6c6 8 11.333 15.5 16 22.5s7.66699 11.833 9 14.5l51 84l11 -6l-47 -78c0 -0.666992 -0.166992 -1.16699 -0.5 -1.5l-1.5 -1.5v0v0c-1.33301 -2 -3.5 -5.16699 -6.5 -9.5s-9.5 -14.166 -19.5 -29.499c-2 -2.66699 -4.5 -6.16699 -7.5 -10.5
s-6.5 -8.83301 -10.5 -13.5c-6 -7.33301 -13 -13.833 -21 -19.5s-16.333 -8.5 -25 -8.5c-11.333 0 -19.833 3.66699 -25.5 11s-9.5 15.666 -11.5 24.999c0 2.66699 -0.166992 5.33398 -0.5 8.00098s-0.5 5 -0.5 7c0 3.33301 1.16699 9.33301 3.5 18s6.5 22 12.5 40l49 142
c14 41.333 23.5 67.666 28.5 78.999s7.83301 19.333 8.5 24v1.5v0.5c0 6 -1.66699 10.667 -5 14s-7 5 -11 5c-3.33301 0 -9.33301 -3 -18 -9s-22.334 -19 -41.001 -39c-8.66699 -8.66699 -18.834 -20 -30.501 -34s-23.834 -30 -36.501 -48
c-13.333 -18.667 -26.166 -39.667 -38.499 -63s-22.833 -48 -31.5 -74l-8 -25l-26 -74h-42v0z" />
    <glyph glyph-name="i" unicode="i" horiz-adv-x="210" 
d="M7 214l47.998 78.9922c0 0.666992 0.166992 1.16699 0.5 1.5l0.5 0.5c2 3.33301 4.16699 6.83301 6.5 10.5s5.83301 8.83398 10.5 15.501c2 3.33301 4.33301 7 7 11s5.66699 8 9 12c8 11.333 16.833 21.5 26.5 30.5s19.834 13.5 30.501 13.5c10 0 18 -4 24 -12
s9.66699 -17 11 -27c0.666992 -1.33301 1 -2.83301 1 -4.5v-4.5c0 -5.33301 -0.333008 -10.166 -1 -14.499s-1.33398 -8.83301 -2.00098 -13.5c-2 -6.66699 -4.5 -13.5 -7.5 -20.5l-10.5 -24.5l-88 -199c-6 -13.333 -10.167 -23.666 -12.5 -30.999
s-3.5 -13.666 -3.5 -18.999c0 -4 0.666992 -7 2 -9s3 -3 5 -3c0.666992 -0.666992 1.33398 -1 2.00098 -1h2c4.66699 0 9.83398 2.33301 15.501 7s11.5 10.334 17.5 17.001c4 4 7.5 8.16699 10.5 12.5s6.16699 8.83301 9.5 13.5c4 5.33301 7.66699 10.5 11 15.5
s6.33301 9.83301 9 14.5l51 84l11 -6l-47 -78c-1.33301 -2.66699 -2.83301 -5.33398 -4.5 -8.00098s-3.5 -5.33398 -5.5 -8.00098c-6 -9.33301 -12.333 -18.666 -19 -27.999s-13.667 -17.333 -21 -24c-7.33301 -8 -14.666 -14.333 -21.999 -19s-14.333 -7 -21 -7
c-9.33301 0 -16.666 2.66699 -21.999 8s-9.33301 11.333 -12 18c-1.33301 3.33301 -2.33301 6.83301 -3 10.5s-1 6.83398 -1 9.50098c0 4.66699 0.666992 9.83398 2 15.501s2.66602 11.5 3.99902 17.5c1.33301 2.66699 2.33301 5.33398 3 8.00098s1.66699 5.33398 3 8.00098
c2 6.66699 4.16699 12.5 6.5 17.5s3.83301 8.5 4.5 10.5l87 196c0.666992 2 1.5 4.16699 2.5 6.5s2.16699 4.5 3.5 6.5l2 6l2 6c2 4.66699 3.5 9.16699 4.5 13.5s1.5 8.16602 1.5 11.499c0 0.666992 -0.166992 1.5 -0.5 2.5s-0.5 2.16699 -0.5 3.5
c-0.666992 1.33301 -1.83398 2.83301 -3.50098 4.5s-3.5 2.5 -5.5 2.5c-4 0 -8.5 -2.16699 -13.5 -6.5s-10.5 -9.5 -16.5 -15.5c-2 -2.66699 -4.33301 -5.66699 -7 -9s-5 -6.66602 -7 -9.99902c-6.66699 -8.66699 -12.5 -17 -17.5 -25s-8.16699 -13 -9.5 -15l-52 -84l-11 6
v0zM181.998 496.992c2.66699 11.333 7.16895 21.001 13.502 29.001s12.833 12 19.5 12c4.66699 0 8 -1.16699 10 -3.5s3.66699 -4.83301 5 -7.5c0 -2 0.166992 -3.66699 0.5 -5s0.5 -2.66602 0.5 -3.99902v-2.5v-2.5c-0.666992 -14.667 -4.33398 -27.834 -11.001 -39.501
s-14.334 -17.5 -23.001 -17.5c-4.66699 0 -8 1.16699 -10 3.5s-3.66699 4.83301 -5 7.5c0 2 -0.166992 3.66699 -0.5 5s-0.5 2.66602 -0.5 3.99902v10.5c0 3.66699 0.333008 7.16699 1 10.5v0z" />
    <glyph glyph-name="j" unicode="j" horiz-adv-x="170" 
d="M7 214l48.002 79c24 39.333 42.833 65 56.5 77s25.5 18 35.5 18h2.5c1 0 2.16699 -0.333008 3.5 -1c6.66699 -1.33301 13.167 -5.5 19.5 -12.5s10.166 -14.833 11.499 -23.5v-2.5v-3.5v-4.5v-4.5c0 -3.33301 -0.5 -7.16602 -1.5 -11.499s-2.16699 -8.83301 -3.5 -13.5
c-0.666992 -1.33301 -1.16699 -2.83301 -1.5 -4.5s-0.833008 -3.5 -1.5 -5.5c-2 -5.33301 -3.66699 -10.166 -5 -14.499s-2.33301 -7.16602 -3 -8.49902l-154 -413c-2.66699 -7.33301 -5.5 -14.5 -8.5 -21.5s-5.5 -13.833 -7.5 -20.5c-12.667 -30.667 -26 -54.5 -40 -71.5
s-31.333 -25.5 -52 -25.5c-12 0 -22.333 2.66699 -31 8s-14.667 11 -18 17c-0.666992 2 -1.33398 3.83301 -2.00098 5.5s-1 3.5 -1 5.5c0 0.666992 0.166992 1.66699 0.5 3s0.5 2.33301 0.5 3c1.33301 3.33301 3.5 6.16602 6.5 8.49902s7.16699 3.5 12.5 3.5
c4.66699 0 8.16699 -1.16699 10.5 -3.5s3.83301 -5.16602 4.5 -8.49902c0.666992 -0.666992 1.16699 -1.5 1.5 -2.5s0.5 -1.83301 0.5 -2.5c1.33301 -4 2.83301 -7.5 4.5 -10.5s3.5 -5.16699 5.5 -6.5c2.66699 -2.66699 5.16699 -4.16699 7.5 -4.5
s4.16602 -0.5 5.49902 -0.5v0v0h4h4c2 0 3.83301 0.166992 5.5 0.5s3.16699 1.5 4.5 3.5c2.66699 3.33301 5.83398 9.83301 9.50098 19.5s9.16699 25.834 16.5 48.501l4.5 13.5c1 3 1.83301 5.83301 2.5 8.5l0.5 0.5l0.5 0.5c0 0.666992 0.166992 1.66699 0.5 3
s0.833008 2.66602 1.5 3.99902c1.33301 4.66699 2.5 8.5 3.5 11.5s2.16699 5.83301 3.5 8.5v0.5v0.5c1.33301 2.66699 2.5 5.16699 3.5 7.5s2.16699 5.5 3.5 9.5l153 429c4 11.333 7.5 20.666 10.5 27.999s4.83301 12.666 5.5 15.999v2v2v1v2c0 2 -0.333008 4 -1 6
s-2.66699 3.66699 -6 5h-0.5c-0.333008 0 -0.5 0.333008 -0.5 1h-0.5h-0.5c-4 0 -8.83301 -2.66699 -14.5 -8s-11.834 -11.666 -18.501 -18.999c-2 -2.66699 -4 -5.16699 -6 -7.5s-3.66699 -4.5 -5 -6.5c-6.66699 -8.66699 -12.667 -16.834 -18 -24.501
s-8.66602 -12.834 -9.99902 -15.501l-51 -84l-12 6v0zM184.002 497c2.66699 11.333 7.16699 20.999 13.5 28.999s12.833 12 19.5 12c4.66699 0 8 -1.16699 10 -3.5s3.66699 -4.83301 5 -7.5c0 -2 0.166992 -3.66699 0.5 -5s0.5 -2.66602 0.5 -3.99902
c0 -16.667 -3.33301 -31.167 -10 -43.5s-14.667 -18.5 -24 -18.5c-0.666992 0 -1.5 0.166992 -2.5 0.5s-2.16699 0.5 -3.5 0.5c-2.66699 1.33301 -5 3.5 -7 6.5s-3 7.16699 -3 12.5v10.5c0 3.66699 0.333008 7.16699 1 10.5v0z" />
    <glyph glyph-name="k" unicode="k" horiz-adv-x="357" 
d="M17 0l162.007 514.998h-3l-149 -248l-13 6l162 269c2.66699 4.66699 5.5 9.83398 8.5 15.501s5.83301 11.834 8.5 18.501c2.66699 4.66699 5 9.66699 7 15s4 10.333 6 15c3.33301 8 6.33301 15.5 9 22.5s5 13.833 7 20.5l27 86h20l-182 -633h6
c6.66699 12.667 12.5 23.334 17.5 32.001s10.167 17 15.5 25c0 0.666992 0.333008 1.5 1 2.5s1.33398 1.83301 2.00098 2.5c2.66699 3.33301 5 6.83301 7 10.5s4.33301 7.16699 7 10.5c7.33301 10.667 15.333 22.167 24 34.5s18 24.833 28 37.5c9.33301 12 19 24 29 36
s20.333 23.333 31 34c17.333 17.333 34.333 31.833 51 43.5s31.667 17.5 45 17.5c9.33301 0 16.333 -1.66699 21 -5s8 -7 10 -11c1.33301 -2.66699 2.16602 -5.33398 2.49902 -8.00098s0.5 -4.66699 0.5 -6s-0.166992 -2.83301 -0.5 -4.5s-0.833008 -3.5 -1.5 -5.5
c-1.33301 -3.33301 -3.66602 -6.66602 -6.99902 -9.99902s-7.66602 -5 -12.999 -5h-2h-2c-4.66699 1.33301 -8.83398 3.5 -12.501 6.5s-5.5 7.83301 -5.5 14.5c0 4.66699 1 8.5 3 11.5s5.33301 4.83301 10 5.5v1c-0.666992 0.666992 -1.83398 1 -3.50098 1h-4.5
c-4.66699 0 -10.5 -1.83301 -17.5 -5.5s-17.167 -10.5 -30.5 -20.5c-5.33301 -4.66699 -10.5 -9.33398 -15.5 -14.001s-9.83301 -9 -14.5 -13c-6.66699 -6 -12.667 -12 -18 -18s-11 -12.333 -17 -19c-8 -10 -16.5 -20.667 -25.5 -32s-18.833 -24 -29.5 -38
c26 -16.667 42.167 -35.167 48.5 -55.5s10.5 -44.166 12.5 -71.499c2.66699 -36 8.83398 -58.5 18.501 -67.5s20.167 -13.5 31.5 -13.5s20.666 3.83301 27.999 11.5s11 17.167 11 28.5s-2.33301 18.666 -7 21.999s-11.334 5 -20.001 5h-1.5h-0.5h-1.5h-1.5v11
c1.33301 0.666992 2.66602 1 3.99902 1h4h2h2h4c1.33301 0 2.66602 -0.333008 3.99902 -1c6.66699 -1.33301 12.667 -4.66602 18 -9.99902s8 -14.333 8 -27c0 -14 -2.83301 -24.667 -8.5 -32s-12.167 -12.666 -19.5 -15.999c-6 -3.33301 -11.833 -5.33301 -17.5 -6
s-8.83398 -1 -9.50098 -1c-24.667 0 -43.167 7.66699 -55.5 23s-20.833 32.666 -25.5 51.999c-3.33301 10.667 -5.5 21.334 -6.5 32.001s-1.83301 19.667 -2.5 27c-2.66699 33.333 -6 54 -10 62s-9.33301 13.333 -16 16c-2.66699 -3.33301 -5 -6.33301 -7 -9l-6 -8
c0 -1.33301 -0.333008 -2.33301 -1 -3s-1.33398 -1.66699 -2.00098 -3c-2 -2.66699 -4 -5.83398 -6 -9.50098s-4.33301 -7.5 -7 -11.5c-2.66699 -4.66699 -6.33398 -10.834 -11.001 -18.501s-9.33398 -15.5 -14.001 -23.5l-0.5 -0.5
c-0.333008 -0.333008 -0.5 -0.833008 -0.5 -1.5c-6 -10.667 -11.667 -20.5 -17 -29.5s-9 -15.833 -11 -20.5l-32 -65h-39v0z" />
    <glyph glyph-name="l" unicode="l" horiz-adv-x="206" 
d="M250 735l19.999 -0.00292969l-211 -687c0 -0.666992 -0.166992 -1.5 -0.5 -2.5s-0.833008 -2.16699 -1.5 -3.5c0 -0.666992 -0.166992 -1.66699 -0.5 -3s-0.5 -2.66602 -0.5 -3.99902c-0.666992 -3.33301 -1.16699 -6.16602 -1.5 -8.49902s-0.5 -4.16602 -0.5 -5.49902
c0 -4 0.666992 -7.16699 2 -9.5s3 -4.16602 5 -5.49902c0.666992 0 1.16699 -0.166992 1.5 -0.5s0.833008 -0.5 1.5 -0.5c4 0 8.83301 2.33301 14.5 7s11.5 10.334 17.5 17.001c2 2.66699 4.16699 5.5 6.5 8.5s4.5 5.83301 6.5 8.5c6.66699 8.66699 12.334 16.667 17.001 24
s8 12.333 10 15l51 84l12 -6l-48 -78c-26 -42 -45.5 -68.167 -58.5 -78.5s-24.167 -15.5 -33.5 -15.5c-11.333 0 -20.5 4.5 -27.5 13.5s-10.5 19.833 -10.5 32.5c0 3.33301 0.333008 7.16602 1 11.499s1.66699 8.83301 3 13.5c0 2 0.333008 4 1 6s1 4 1 6
c1.33301 4 2.5 7.66699 3.5 11s1.83301 6 2.5 8l147 422h-3l-149 -248l-14 6l162 269c2 4 4 7.83301 6 11.5s4 7.16699 6 10.5c8 15.333 14.833 30.166 20.5 44.499s10.5 27.833 14.5 40.5l27 86v0z" />
    <glyph glyph-name="m" unicode="m" horiz-adv-x="574" 
d="M153 235l5 -2.00488c16.667 24 31.667 43.833 45 59.5s24.333 28.167 33 37.5c24 26 42.5 42.167 55.5 48.5s22.833 9.5 29.5 9.5c10.667 0 18.834 -2.66699 24.501 -8s9.83398 -11.333 12.501 -18c1.33301 -3.33301 2.16602 -6.83301 2.49902 -10.5
s0.5 -6.83398 0.5 -9.50098c0 -2 -0.333008 -4.5 -1 -7.5s-1.33398 -6.16699 -2.00098 -9.5c0 -1.33301 -0.333008 -2.66602 -1 -3.99902s-1 -2.66602 -1 -3.99902c-0.666992 -1.33301 -1.16699 -2.83301 -1.5 -4.5s-0.833008 -3.16699 -1.5 -4.5l-27 -73l4 -2
c16 24 30.833 43.833 44.5 59.5s24.834 28.167 33.501 37.5c18 19.333 34 33.833 48 43.5s26.667 14.5 38 14.5s20.666 -4.33301 27.999 -13s11 -19.667 11 -33c0 -0.666992 -0.5 -4.16699 -1.5 -10.5s-3.16699 -14.166 -6.5 -23.499l-86 -240c-0.666992 -2 -1.5 -4 -2.5 -6
s-1.83301 -4 -2.5 -6v-1v-1c-2.66699 -6 -5 -11.833 -7 -17.5s-3.33301 -9.83398 -4 -12.501v-2v-2v-0.5v-0.5v-1.5v-1.5c0.666992 -4.66699 1.83398 -7.66699 3.50098 -9s3.5 -2 5.5 -2s4.16699 0.5 6.5 1.5s4.83301 2.5 7.5 4.5c1.33301 0.666992 2.66602 1.5 3.99902 2.5
s2.33301 2.16699 3 3.5c2 1.33301 3.5 2.5 4.5 3.5l3.5 3.5c2.66699 2.66699 5.66699 6.33398 9 11.001l10 14c0.666992 1.33301 1.33398 2.33301 2.00098 3s1 1.33398 1 2.00098c4.66699 6 8.83398 11.833 12.501 17.5s6.5 10.167 8.5 13.5l51 84l12 -6l-48 -78
c-22.667 -37.333 -40.834 -62.333 -54.501 -75s-26.167 -19 -37.5 -19c-10.667 0 -19 3.66699 -25 11s-10 15.666 -12 24.999c-0.666992 2.66699 -1.16699 5.33398 -1.5 8.00098s-0.5 5 -0.5 7c0 2.66699 1 8 3 16s6.33301 22 13 42l79 221
c2 5.33301 3.83301 10.166 5.5 14.499s2.5 8.5 2.5 12.5c0 6.66699 -1.66699 11.334 -5 14.001s-7 4 -11 4c-2 0 -4.33301 -0.5 -7 -1.5s-5.33398 -2.5 -8.00098 -4.5l-6 -4c-2 -1.33301 -3.66699 -2.66602 -5 -3.99902c-2 -1.33301 -3.83301 -2.83301 -5.5 -4.5l-4.5 -4.5
c-6.66699 -6.66699 -18.667 -19.5 -36 -38.5s-35.333 -42.833 -54 -71.5c-12.667 -18.667 -25 -39.167 -37 -61.5s-22.667 -45.833 -32 -70.5l-37 -101h-45l113 321c0.666992 1.33301 1.16699 2.66602 1.5 3.99902s0.833008 3 1.5 5c0 1.33301 0.166992 2.66602 0.5 3.99902
s0.833008 2.66602 1.5 3.99902c0 0.666992 0.166992 1.16699 0.5 1.5s0.5 0.833008 0.5 1.5c0.666992 1.33301 1.16699 2.5 1.5 3.5s0.5 2.16699 0.5 3.5v2v2c-0.666992 3.33301 -2.16699 6.5 -4.5 9.5s-6.16602 4.5 -11.499 4.5c-4.66699 0 -10.667 -2.5 -18 -7.5
s-14.666 -11.167 -21.999 -18.5l-8 -8l-8 -8c-6.66699 -7.33301 -12.667 -14.333 -18 -21s-9.66602 -12 -12.999 -16c-6 -7.33301 -11.833 -14.666 -17.5 -21.999s-11.167 -14.666 -16.5 -21.999c-15.333 -22 -29 -44.333 -41 -67s-23 -47.667 -33 -75l-37 -101h-45l115 326
c3.33301 9.33301 5.66602 15.5 6.99902 18.5s2.33301 5.5 3 7.5v1v1v2v2v1v2c0 2.66699 -0.5 4.83398 -1.5 6.50098s-2.16699 3.16699 -3.5 4.5c-0.666992 0 -1.33398 0.166992 -2.00098 0.5s-1.33398 0.5 -2.00098 0.5c-4.66699 0 -11.667 -4.5 -21 -13.5
s-19.333 -20.833 -30 -35.5c-3.33301 -4.66699 -6.83301 -9.66699 -10.5 -15s-7.16699 -11 -10.5 -17l-51 -85l-12 7l48 79l0.5 0.5c0.333008 0.333008 0.5 0.833008 0.5 1.5l0.5 0.5l0.5 0.5c2 3.33301 4.33301 7 7 11s6.66699 9.66699 12 17
c10.667 16.667 21.834 31.5 33.501 44.5s24.167 19.5 37.5 19.5h3.5c1 0 2.16699 -0.333008 3.5 -1c7.33301 -1.33301 14.166 -5.66602 20.499 -12.999s9.5 -18.333 9.5 -33v-1.5v-1.5c0 -4.66699 -1 -10.667 -3 -18s-6.33301 -21.333 -13 -42l-15 -43v0z" />
    <glyph glyph-name="n" unicode="n" 
d="M153 235l4.00098 -2.00586c16.667 24 31.667 43.833 45 59.5s24.333 28.167 33 37.5c18.667 19.333 34.834 33.833 48.501 43.5s26.167 14.5 37.5 14.5s20.666 -4.33301 27.999 -13s11 -19.667 11 -33c0 -0.666992 -0.5 -4.16699 -1.5 -10.5
s-3.16699 -14.166 -6.5 -23.499l-86 -240c-0.666992 -2 -1.5 -4 -2.5 -6s-1.83301 -4 -2.5 -6v-1v-1c-2.66699 -6 -5 -11.833 -7 -17.5s-3.33301 -9.83398 -4 -12.501v-2v-2v-0.5v-0.5v-1.5v-1.5c0.666992 -4.66699 1.83398 -7.66699 3.50098 -9s3.5 -2 5.5 -2
s4.16699 0.5 6.5 1.5s4.83301 2.5 7.5 4.5c1.33301 0.666992 2.66602 1.5 3.99902 2.5s2.33301 2.16699 3 3.5c2 1.33301 3.5 2.5 4.5 3.5l3.5 3.5c2.66699 2.66699 5.66699 6.33398 9 11.001l10 14c0.666992 1.33301 1.33398 2.33301 2.00098 3s1 1.33398 1 2.00098
c4.66699 6 8.83398 11.833 12.501 17.5s6.5 10.167 8.5 13.5l51 84l12 -6l-48 -78c-22.667 -37.333 -40.834 -62.333 -54.501 -75s-26.167 -19 -37.5 -19c-10.667 0 -19 3.66699 -25 11s-10 15.666 -12 24.999c-0.666992 2.66699 -1.16699 5.33398 -1.5 8.00098
s-0.5 5 -0.5 7c0 2.66699 1 8 3 16s6.33301 22 13 42l79 221c2 5.33301 3.83301 10.166 5.5 14.499s2.5 8.5 2.5 12.5c0 6.66699 -1.66699 11.334 -5 14.001s-7 4 -11 4c-2 0 -4.33301 -0.5 -7 -1.5s-5.33398 -2.5 -8.00098 -4.5l-6 -4
c-2 -1.33301 -3.66699 -2.66602 -5 -3.99902c-2 -1.33301 -3.83301 -2.83301 -5.5 -4.5l-4.5 -4.5c-6.66699 -6.66699 -18.667 -19.5 -36 -38.5s-35.333 -42.833 -54 -71.5c-12.667 -18.667 -25 -39.167 -37 -61.5s-22.667 -45.833 -32 -70.5l-37 -101h-45l116 326
c0 0.666992 0.5 2.5 1.5 5.5l3.5 10.5v0.5c0 0.333008 0.333008 0.833008 1 1.5c0.666992 4 1.5 7.66699 2.5 11s1.5 5.33301 1.5 6s-0.166992 1.5 -0.5 2.5s-0.5 1.83301 -0.5 2.5c-0.666992 2 -1.66699 3.66699 -3 5s-3.33301 2 -6 2c-4 0 -8.66699 -2.16699 -14 -6.5
s-11 -9.83301 -17 -16.5c-2.66699 -2.66699 -5.16699 -5.66699 -7.5 -9s-4.83301 -6.66602 -7.5 -9.99902c-6 -8 -11.333 -15.667 -16 -23s-8 -12.666 -10 -15.999l-51 -85l-11 7l47 79c0 0.666992 0.166992 1.16699 0.5 1.5s0.5 0.833008 0.5 1.5
c0.666992 0 1 0.166992 1 0.5s0.333008 0.5 1 0.5c1.33301 2.66699 3 5.5 5 8.5l9 13.5c18 28 32.667 46.5 44 55.5s21.666 13.5 30.999 13.5c11.333 0 20.5 -4.66699 27.5 -14s10.5 -20.333 10.5 -33c0 -8 -1.33301 -16.667 -4 -26s-6.66699 -21.666 -12 -36.999l-15 -43v0
z" />
    <glyph glyph-name="o" unicode="o" horiz-adv-x="285" 
d="M82 -10c-19.333 0.666992 -36.002 9.5 -50.002 26.5s-21 44.5 -21 82.5c0 13.333 1.16699 27.333 3.5 42s5.83301 29.334 10.5 44.001c14 49.333 37.167 94.833 69.5 136.5s66.5 63.834 102.5 66.501h3.5h2.5c21.333 0 37 -6.33301 47 -19s16.667 -26.334 20 -41.001
c2 -9.33301 3.16699 -18.5 3.5 -27.5s0.5 -16.5 0.5 -22.5v-0.5v-0.5c0 -13.333 -2.33301 -32.833 -7 -58.5s-16.667 -57.167 -36 -94.5c-1.33301 -2.66699 -2.66602 -5.16699 -3.99902 -7.5s-2.66602 -4.83301 -3.99902 -7.5
c-15.333 -26.667 -33.833 -51.334 -55.5 -74.001s-44.167 -36.667 -67.5 -42c-2.66699 -0.666992 -5.5 -1.16699 -8.5 -1.5s-5.83301 -0.5 -8.5 -0.5h-1v0v-1zM83.998 5c2 0 3.83496 0.167969 5.50195 0.500977s3.5 0.833008 5.5 1.5
c17.333 5.33301 34.166 21.833 50.499 49.5s31.166 57.5 44.499 89.5c9.33301 23.333 17.333 45.666 24 66.999s11.667 38.666 15 51.999c1.33301 4.66699 2.33301 9.16699 3 13.5s1.66699 8.5 3 12.5c0.666992 5.33301 1.33398 11 2.00098 17s1 12.333 1 19v8
c0 2.66699 -0.333008 5.66699 -1 9c-1.33301 7.33301 -4.33301 14 -9 20s-12.667 9 -24 9c-1.33301 0 -2.83301 -0.166992 -4.5 -0.5s-3.16699 -0.5 -4.5 -0.5c-15.333 -4 -30.166 -15.333 -44.499 -34s-26.833 -39 -37.5 -61
c-32.667 -64.667 -51.834 -115.667 -57.501 -153s-8.5 -59.666 -8.5 -66.999c0 -14.667 2 -25.5 6 -32.5s8.33301 -11.833 13 -14.5c4 -2.66699 7.66699 -4.16699 11 -4.5s5.66602 -0.5 6.99902 -0.5v0z" />
    <glyph glyph-name="p" unicode="p" horiz-adv-x="325" 
d="M-70 -280l84.9971 269.002c-4.66699 0.666992 -11.167 1.66699 -19.5 3s-17.833 4.33301 -28.5 9l2 18c10 -4 18 -6.83301 24 -8.5s12 -2.83398 18 -3.50098h2h2h3.5h2.5l159 508h-3l-149 -248l-14 6l162 269c2 4 4 7.83301 6 11.5s4 7.16699 6 10.5
c8 15.333 14.833 30.166 20.5 44.499s10.5 27.833 14.5 40.5l27 86h20l-144 -493h5c5.33301 8 9.83301 15.167 13.5 21.5s7.16699 12.5 10.5 18.5c0.666992 0.666992 1.33398 1.66699 2.00098 3s1.33398 2.33301 2.00098 3c5.33301 8 11.166 16.5 17.499 25.5
s15.166 19.833 26.499 32.5c18 21.333 33.167 33.666 45.5 36.999s19.833 5 22.5 5c16 0 27.667 -3.5 35 -10.5s12.333 -14.833 15 -23.5c2 -5.33301 3.16699 -10.333 3.5 -15s0.5 -8.66699 0.5 -12c0 -13.333 -1.66699 -27.166 -5 -41.499s-7.66602 -28.833 -12.999 -43.5
c-7.33301 -20.667 -16.666 -41 -27.999 -61s-22.666 -38.333 -33.999 -55c-4 -5.33301 -7.83301 -10.5 -11.5 -15.5s-7.5 -9.83301 -11.5 -14.5c-22.667 -26.667 -47.5 -50.5 -74.5 -71.5s-58.5 -32.167 -94.5 -33.5l-80 -271h-43v0zM56.9971 6.00195
c2.66699 0.666992 5.16699 1.16699 7.5 1.5s4.83301 0.833008 7.5 1.5c26 8 51.333 24.333 76 49s45.667 52 63 82c4.66699 7.33301 9.66699 16.5 15 27.5s11 22.833 17 35.5c2.66699 5.33301 5.16699 10.833 7.5 16.5s4.83301 11.5 7.5 17.5
c8.66699 20.667 16 40.334 22 59.001s9 33 9 43c0 11.333 -1.66699 19.333 -5 24s-6.66602 7.66699 -9.99902 9c-1.33301 0.666992 -2.5 1 -3.5 1h-3.5c-8 0 -18.833 -5.5 -32.5 -16.5s-28.834 -28.5 -45.501 -52.5c-31.333 -44.667 -54.833 -83.834 -70.5 -117.501
s-26.5 -61.167 -32.5 -82.5l-29 -98v0z" />
    <glyph glyph-name="q" unicode="q" horiz-adv-x="286" 
d="M67 -280l156 471.005h-4c-2.66699 -4 -4.83398 -7.66699 -6.50098 -11s-3.5 -6.33301 -5.5 -9l-0.5 -0.5c-0.333008 -0.333008 -0.5 -0.833008 -0.5 -1.5c-2.66699 -3.33301 -5.16699 -6.83301 -7.5 -10.5s-5.16602 -8.16699 -8.49902 -13.5
c-2 -2.66699 -8.16699 -11.667 -18.5 -27s-23.166 -32 -38.499 -50c-7.33301 -8.66699 -14.833 -17.334 -22.5 -26.001s-15.5 -16.334 -23.5 -23.001c-10 -8.66699 -19.833 -15.5 -29.5 -20.5s-18.834 -7.5 -27.501 -7.5c-2 0 -5 0.5 -9 1.5s-8 2.83301 -12 5.5
c-6 4 -11.167 11.167 -15.5 21.5s-6.5 25.833 -6.5 46.5c0 17.333 3.83301 36.833 11.5 58.5s18.5 43.5 32.5 65.5c16 26 35 51.5 57 76.5s44.667 46.833 68 65.5c1.33301 0.666992 2.5 1.5 3.5 2.5s2.16699 1.83301 3.5 2.5c8 6.66699 16.5 13.167 25.5 19.5
s18.167 12.166 27.5 17.499c8 4 16 7.33301 24 10s16 4 24 4c11.333 0 20.166 -4 26.499 -12s9.5 -17.667 9.5 -29c0 -6.66699 -0.666992 -12.834 -2 -18.501s-2.66602 -10.834 -3.99902 -15.501c-1.33301 -4 -2.5 -7.33301 -3.5 -10s-1.83301 -4.66699 -2.5 -6l-179 -577
h-42v0zM240 264.005c2 4 4.33008 8.83203 6.99707 14.499s5 11.5 7 17.5c0.666992 1.33301 1.33398 2.83301 2.00098 4.5s1.66699 3.16699 3 4.5c4.66699 12 8.83398 23.167 12.501 33.5s5.5 17.166 5.5 20.499c0 5.33301 -1.5 9 -4.5 11s-7.16699 3 -12.5 3
c-9.33301 0 -26.333 -9.5 -51 -28.5s-51.667 -48.5 -81 -88.5c-6 -8 -13.5 -18.833 -22.5 -32.5s-18.5 -28.5 -28.5 -44.5c-4 -6 -7.83301 -12.5 -11.5 -19.5s-7.5 -13.833 -11.5 -20.5c-11.333 -21.333 -21 -41.666 -29 -60.999s-12 -35.333 -12 -48v-2.5v-3.5
c0.666992 -4.66699 2.16699 -9 4.5 -13s6.83301 -6 13.5 -6c5.33301 0 11.333 1.83301 18 5.5s13.334 8.16699 20.001 13.5c4 2.66699 7.66699 5.5 11 8.5s6.66602 6.16699 9.99902 9.5c6.66699 6 12.5 11.833 17.5 17.5s9.16699 10.167 12.5 13.5
c8 9.33301 16.333 19.833 25 31.5s17.334 24.167 26.001 37.5c12 18.667 24 38.334 36 59.001s23 41.667 33 63v0z" />
    <glyph glyph-name="r" unicode="r" horiz-adv-x="324" 
d="M26 0l109.007 309.994c4 11.333 7.5 20.5 10.5 27.5s4.83301 12.5 5.5 16.5v2v2v1v2c0 3.33301 -0.666992 6 -2 8s-3 3.33301 -5 4h-0.5h-1.5h-0.5h-1.5h-1.5h-0.5c-4 -1.33301 -8.33301 -4.16602 -13 -8.49902s-9.66699 -9.5 -15 -15.5l-6 -8l-6 -8
c-7.33301 -10 -13.666 -19 -18.999 -27s-8.33301 -12.667 -9 -14l-51 -84l-12 6l48 79c24 39.333 42.833 65 56.5 77s25.5 18 35.5 18h2.5c1 0 2.16699 -0.333008 3.5 -1c6.66699 -1.33301 13.167 -5.5 19.5 -12.5s10.166 -14.833 11.499 -23.5v-2.5v-3.5v-4.5v-4.5v-0.5
v-1.5v0v0c-0.666992 -4 -1.66699 -9.33301 -3 -16s-5.66602 -20 -12.999 -40l-47 -134l6 -3c7.33301 12.667 13.666 23.667 18.999 33s10.666 18.333 15.999 27c1.33301 2 2.66602 4.16699 3.99902 6.5s2.66602 4.83301 3.99902 7.5c8 12 17.167 24.667 27.5 38
s24.166 30.333 41.499 51c31.333 37.333 56.5 60.666 75.5 69.999s35.167 14 48.5 14c11.333 0 20.5 -2.83301 27.5 -8.5s10.5 -13.167 10.5 -22.5c0 -2 -0.166992 -4.16699 -0.5 -6.5s-0.833008 -4.83301 -1.5 -7.5c-1.33301 -4.66699 -4 -9 -8 -13s-10.333 -6 -19 -6
c-9.33301 0 -16.333 2.16699 -21 6.5s-7.66699 8.83301 -9 13.5c-0.666992 1.33301 -1 2.66602 -1 3.99902v4c0 1.33301 0.166992 2.66602 0.5 3.99902s0.833008 2.66602 1.5 3.99902c0 0.666992 0.166992 1.33398 0.5 2.00098s0.5 1.33398 0.5 2.00098
c0.666992 0.666992 1.16699 1.33398 1.5 2.00098s0.5 1.33398 0.5 2.00098l-1 3c-8.66699 -2 -23.334 -9.66699 -44.001 -23s-51.334 -47.666 -92.001 -102.999c-12.667 -17.333 -24.167 -33.666 -34.5 -48.999s-20.166 -30.666 -29.499 -45.999
c-8 -14 -15.833 -28.167 -23.5 -42.5s-15.167 -29.166 -22.5 -44.499c-4.66699 -10 -9.33398 -20.167 -14.001 -30.5s-9.33398 -21.166 -14.001 -32.499h-45v0z" />
    <glyph glyph-name="s" unicode="s" horiz-adv-x="298" 
d="M167 43l-11.0029 3.99902c2.66699 6 4.5 11.833 5.5 17.5s1.16699 10.834 0.5 15.501c0 19.333 -6.33301 34.833 -19 46.5s-26.334 19.5 -41.001 23.5c-3.33301 0.666992 -6.66602 1.16699 -9.99902 1.5s-6.66602 0.5 -9.99902 0.5c-22 0 -39.5 -6.5 -52.5 -19.5
s-19.5 -29.167 -19.5 -48.5c0 -4 0.5 -8.66699 1.5 -14s2.83301 -10.333 5.5 -15c5.33301 -12.667 15.333 -24.167 30 -34.5s36.334 -15.5 65.001 -15.5c33.333 0 60.333 8 81 24s31 35.333 31 58c0 7.33301 -1.16699 14.333 -3.5 21s-5.83301 13 -10.5 19
c-6.66699 10 -16 20.333 -28 31s-25.667 23.667 -41 39c-3.33301 3.33301 -6.66602 6.5 -9.99902 9.5s-6.66602 6.16699 -9.99902 9.5c-11.333 11.333 -21.833 23.666 -31.5 36.999s-14.5 28.666 -14.5 45.999c0 24 11.167 44.833 33.5 62.5s51.5 26.5 87.5 26.5
c4.66699 0 9.5 -0.333008 14.5 -1s9.83301 -1.33398 14.5 -2.00098c18 -4 34.667 -12.333 50 -25s23 -30.667 23 -54c0 -21.333 -5.16699 -39.5 -15.5 -54.5s-26.166 -22.5 -47.499 -22.5c-16 0 -28.667 3.33301 -38 10s-16.333 14 -21 22
c-0.666992 1.33301 -1.33398 2.5 -2.00098 3.5s-1.33398 2.16699 -2.00098 3.5l12 7c3.33301 -9.33301 9.16602 -17.166 17.499 -23.499s18.833 -9.5 31.5 -9.5c16.667 0 29.167 5.66699 37.5 17s12.5 24.666 12.5 39.999c0 20.667 -6.5 36.834 -19.5 48.501
s-27.5 19.167 -43.5 22.5c-4 1.33301 -8 2.16602 -12 2.49902s-8 0.5 -12 0.5c-23.333 0 -44 -6 -62 -18s-27 -28.333 -27 -49c0 -2 0.166992 -4 0.5 -6s0.5 -3.66699 0.5 -5c2 -9.33301 7.33301 -19.166 16 -29.499s22.334 -22.833 41.001 -37.5
c4.66699 -3.33301 9.66699 -7.33301 15 -12l16 -14c14.667 -14.667 28.167 -31.667 40.5 -51s18.5 -41 18.5 -65c0 -26.667 -13.833 -49.167 -41.5 -67.5s-61.167 -27.5 -100.5 -27.5c-38.667 0 -69.334 8.33301 -92.001 25s-34 39.667 -34 69
c0 22.667 6.83301 40.334 20.5 53.001s29.167 21 46.5 25c4.66699 1.33301 9.33398 2.33301 14.001 3s9 1 13 1c2.66699 0 5.5 -0.166992 8.5 -0.5s6.16699 -0.833008 9.5 -1.5c18.667 -3.33301 36 -12.5 52 -27.5s24 -34.167 24 -57.5
c0 -5.33301 -0.666992 -11.166 -2 -17.499s-3.33301 -12.833 -6 -19.5v0z" />
    <glyph glyph-name="t" unicode="t" horiz-adv-x="192" 
d="M115 362h-90.998l5 15h92l70 213h45l-70 -213h96l-5 -15h-97l-104 -294c-4.66699 -14 -8.5 -25.167 -11.5 -33.5s-4.5 -14.5 -4.5 -18.5v-1.5v-0.5c0.666992 -2 1.83398 -4 3.50098 -6s3.83398 -3 6.50098 -3s5 0.5 7 1.5s3.33301 1.83301 4 2.5
c1.33301 0.666992 2.66602 1.66699 3.99902 3s2.66602 2.33301 3.99902 3c6.66699 6 13.334 13.167 20.001 21.5s13 16.833 19 25.5c2.66699 4 5.16699 8 7.5 12s4.5 7.66699 6.5 11l51 84l12 -6l-48 -78c-25.333 -40.667 -44.833 -66.5 -58.5 -77.5
s-24.834 -16.5 -33.501 -16.5c-8 0 -14.833 2.33301 -20.5 7s-9.83398 10 -12.501 16c-1.33301 2 -2.33301 4 -3 6l-2 6c-0.666992 1.33301 -1 2.83301 -1 4.5v4.5v2c0 0.666992 0.333008 1.33398 1 2.00098v1v2c1.33301 7.33301 3.16602 15.666 5.49902 24.999
s5.83301 20.333 10.5 33l92 262v0z" />
    <glyph glyph-name="u" unicode="u" 
d="M248 142l-5.00195 2.99609c-3.33301 -6 -8 -12.833 -14 -20.5s-12.333 -15.834 -19 -24.501c-1.33301 -1.33301 -2.5 -2.66602 -3.5 -3.99902s-1.83301 -2.66602 -2.5 -3.99902c-8 -9.33301 -15.5 -18 -22.5 -26s-12.5 -14.333 -16.5 -19
c-11.333 -12 -21.833 -22.333 -31.5 -31s-19.167 -15 -28.5 -19c-4 -2 -8.16699 -3.5 -12.5 -4.5s-8.5 -1.5 -12.5 -1.5c-10.667 0 -18.834 2.5 -24.501 7.5s-9.83398 10.833 -12.501 17.5l-2 10c-0.666992 3.33301 -1 6.33301 -1 9s0.333008 5.5 1 8.5
s1.33398 6.5 2.00098 10.5c0.666992 0.666992 1.16699 1.66699 1.5 3s0.5 2.33301 0.5 3c0.666992 2 1.16699 3.83301 1.5 5.5s0.833008 3.16699 1.5 4.5l93 256c0 0.666992 0.5 2.5 1.5 5.5l3.5 10.5v0.5c0 0.333008 0.333008 0.833008 1 1.5
c0.666992 4 1.5 7.66699 2.5 11s1.5 5.33301 1.5 6s-0.166992 1.5 -0.5 2.5s-0.5 1.83301 -0.5 2.5c-0.666992 2 -1.66699 3.66699 -3 5s-3.33301 2 -6 2c-4 0 -8.66699 -2.16699 -14 -6.5s-11 -9.83301 -17 -16.5c-2.66699 -2.66699 -5.16699 -5.66699 -7.5 -9
s-4.83301 -6.66602 -7.5 -9.99902c-6 -8 -11.333 -15.667 -16 -23s-8 -12.666 -10 -15.999l-51 -85l-11 7l47 79c0 0.666992 0.166992 1.16699 0.5 1.5s0.5 0.833008 0.5 1.5c0.666992 0 1 0.166992 1 0.5s0.333008 0.5 1 0.5c1.33301 2.66699 3 5.5 5 8.5l9 13.5
c18 27.333 32.833 45.666 44.5 54.999s21.834 14 30.501 14h3.5c1 0 2.16699 -0.333008 3.5 -1c8 -1.33301 15.333 -5.83301 22 -13.5s10 -18.5 10 -32.5c0 -5.33301 -1 -12.5 -3 -21.5s-6.33301 -22.833 -13 -41.5l-79 -222c-0.666992 -1.33301 -1.16699 -3 -1.5 -5
s-0.833008 -3.66699 -1.5 -5v-1.5c0 -0.333008 -0.333008 -0.5 -1 -0.5l-2 -8c-0.666992 -2.66699 -1 -4.66699 -1 -6v-1.5v-1.5v-0.5v-0.5v-2v-2c0 -0.666992 0.166992 -1.16699 0.5 -1.5s0.5 -0.833008 0.5 -1.5c1.33301 -2 3 -3.66699 5 -5s5 -2 9 -2
c4.66699 0 10.667 2.66699 18 8s15 12 23 20l6 6l7 7c7.33301 7.33301 14 14.5 20 21.5s10.333 12.167 13 15.5c9.33301 12 18 23.333 26 34s15.333 21.334 22 32.001c11.333 16.667 21.5 34 30.5 52s17.5 38 25.5 60c0.666992 1.33301 1.33398 2.83301 2.00098 4.5
s1.33398 3.16699 2.00098 4.5l37 100h45l-115 -325c-0.666992 -1.33301 -1.16699 -2.66602 -1.5 -3.99902s-0.833008 -2.66602 -1.5 -3.99902c-0.666992 -2 -1.16699 -3.66699 -1.5 -5s-0.833008 -2.66602 -1.5 -3.99902c0 -0.666992 -0.166992 -1.5 -0.5 -2.5
s-0.833008 -1.83301 -1.5 -2.5l-1.5 -3c-0.333008 -0.666992 -0.5 -1.66699 -0.5 -3v-2v-2v-2v-2v-2c0 -0.666992 0.333008 -1.33398 1 -2.00098c0 -2 0.666992 -3.66699 2 -5s3.33301 -2 6 -2c4 0 8.66699 2 14 6s10.666 9 15.999 15l8 10
c2.66699 3.33301 5.33398 7 8.00098 11c6 8 11.333 15.5 16 22.5s8 12.167 10 15.5l51 85l12 -7l-48 -78c-1.33301 -2.66699 -2.83301 -5.33398 -4.5 -8.00098s-3.5 -5.33398 -5.5 -8.00098c-12 -20 -25 -38 -39 -54s-28.333 -24 -43 -24h-1.5h-1.5
c-8.66699 0.666992 -16.5 4.83398 -23.5 12.501s-10.5 18.834 -10.5 33.501c0 8 0.666992 15.167 2 21.5s3 12.166 5 17.499c1.33301 4 2.83301 8 4.5 12s3.16699 8 4.5 12l15 42v0z" />
    <glyph glyph-name="v" unicode="v" horiz-adv-x="355" 
d="M19 208l-12.0068 6l48 79c24 39.333 42.833 65 56.5 77s25.5 18 35.5 18h2.5c1 0 2.16699 -0.333008 3.5 -1c6.66699 -1.33301 13.167 -5.5 19.5 -12.5s10.166 -14.833 11.499 -23.5v-2.5v-3.5v-4.5v-4.5c-0.666992 -4 -1.66699 -9.66699 -3 -17
s-5.66602 -21 -12.999 -41l-50 -145c-1.33301 -4 -2.83301 -8.33301 -4.5 -13s-3.5 -9.66699 -5.5 -15c-1.33301 -2.66699 -2.5 -5.33398 -3.5 -8.00098s-1.83301 -5.66699 -2.5 -9c-2 -6.66699 -3.83301 -13.167 -5.5 -19.5s-2.83398 -12.5 -3.50098 -18.5v-2.5v-2.5v-3v-3
c0.666992 -7.33301 2.66699 -13 6 -17s7 -6.66699 11 -8c2.66699 -0.666992 5.33398 -1.16699 8.00098 -1.5s4.66699 -0.5 6 -0.5c7.33301 0 14.833 1.33301 22.5 4s15.167 6.33398 22.5 11.001c11.333 6 22.333 13.667 33 23s20.667 19 30 29
c7.33301 7.33301 13.833 14.5 19.5 21.5s10.834 13.5 15.501 19.5c8.66699 11.333 16.5 23 23.5 35s13.167 24 18.5 36c7.33301 16.667 13.166 33 17.499 49s6.5 31 6.5 45c0 12.667 -1.5 21.834 -4.5 27.501s-6.16699 9.5 -9.5 11.5
c-1.33301 0.666992 -2.66602 1.16699 -3.99902 1.5s-2.66602 0.5 -3.99902 0.5c-11.333 2 -19.666 5.16699 -24.999 9.5s-8.66602 8.83301 -9.99902 13.5c-1.33301 2.66699 -2.16602 5.33398 -2.49902 8.00098s-0.5 5 -0.5 7c0 6 3 11.5 9 16.5s12.667 7.5 20 7.5
c2 0 3.83301 -0.166992 5.5 -0.5s3.5 -0.833008 5.5 -1.5c10.667 -3.33301 20.334 -12.333 29.001 -27s13 -36.667 13 -66c0 -19.333 -5.83301 -47.5 -17.5 -84.5s-39.167 -80.5 -82.5 -130.5c-32.667 -36.667 -60.5 -60.334 -83.5 -71.001s-42.5 -16 -58.5 -16
c-24 0 -40.5 5.5 -49.5 16.5s-13.833 23.5 -14.5 37.5v2.5v2.5c0 4 1.33301 10.667 4 20s5.66699 19.333 9 30c0.666992 1.33301 1.16699 2.66602 1.5 3.99902s0.5 2.66602 0.5 3.99902c3.33301 9.33301 6.33301 18 9 26s4.66699 13.667 6 17l56 159
c4 11.333 7.5 20.5 10.5 27.5s4.83301 12.5 5.5 16.5v2v2v1v2c0 3.33301 -0.666992 6 -2 8s-3 3.33301 -5 4h-0.5h-1.5h-0.5h-1.5h-1.5h-0.5c-4 -1.33301 -8.33301 -4.16602 -13 -8.49902s-9.66699 -9.5 -15 -15.5l-6 -8l-6 -8c-7.33301 -10 -13.666 -19 -18.999 -27
s-8.33301 -12.667 -9 -14l-51 -84v0z" />
    <glyph glyph-name="w" unicode="w" horiz-adv-x="533" 
d="M256 140l-2.98828 1.00684c-3.33301 -4.66699 -8.5 -11.334 -15.5 -20.001s-14.167 -17.334 -21.5 -26.001c-0.666992 -0.666992 -1.33398 -1.5 -2.00098 -2.5s-1.66699 -1.83301 -3 -2.5c-7.33301 -8.66699 -14.5 -17 -21.5 -25s-12.5 -14 -16.5 -18
c-12.667 -12.667 -24.167 -23.334 -34.5 -32.001s-20.5 -15 -30.5 -19c-4 -1.33301 -8 -2.5 -12 -3.5s-8 -1.5 -12 -1.5c-12.667 0 -22.834 4 -30.501 12s-11.5 18.667 -11.5 32c0 12 2.5 24.5 7.5 37.5s10.5 27.167 16.5 42.5l4 10c1.33301 3.33301 2.66602 7 3.99902 11
l61 174c4 11.333 7.5 20.5 10.5 27.5s4.83301 12.5 5.5 16.5v2v2v1v2c0 2.66699 -0.5 4.83398 -1.5 6.50098s-2.16699 3.16699 -3.5 4.5c-0.666992 0 -1.33398 0.166992 -2.00098 0.5s-1.33398 0.5 -2.00098 0.5c-4.66699 0 -12.334 -4.5 -23.001 -13.5s-27 -31.5 -49 -67.5
l-51 -84l-12 6l48 79c7.33301 12 14.833 23.833 22.5 35.5s15.5 21.834 23.5 30.501s15.833 15.667 23.5 21s15.167 8 22.5 8h2.5c1 0 2.16699 -0.333008 3.5 -1c6.66699 -1.33301 13.167 -5.5 19.5 -12.5s10.166 -14.833 11.499 -23.5v-2.5v-3.5v-4.5v-4.5
c-0.666992 -4 -1.66699 -9.66699 -3 -17s-5.66602 -21 -12.999 -41l-49 -142c-10.667 -32.667 -19.334 -56 -26.001 -70s-10 -25.667 -10 -35c0 -5.33301 0.833008 -9.33301 2.5 -12s3.5 -4.33398 5.5 -5.00098c2 -1.33301 3.66699 -2 5 -2h3c4 0 10.167 3 18.5 9
s16.833 13.333 25.5 22l5.5 5.5l5.5 5.5c7.33301 6.66699 14 13.334 20 20.001s10.667 12 14 16c6 7.33301 11.833 14.5 17.5 21.5s11.167 14.167 16.5 21.5c16 22 30.667 44.5 44 67.5s25 48.5 35 76.5l37 100h45l-86 -244c-1.33301 -4 -2.83301 -8 -4.5 -12
s-3.16699 -8.33301 -4.5 -13c-1.33301 -2.66699 -2.5 -5.66699 -3.5 -9s-1.83301 -6.33301 -2.5 -9c-3.33301 -9.33301 -6 -18.5 -8 -27.5s-3 -16.833 -3 -23.5c0 -0.666992 0.166992 -2.33398 0.5 -5.00098s1.5 -5.33398 3.5 -8.00098c2 -4 5.16699 -7.33301 9.5 -10
s10.166 -4 17.499 -4s15 1.5 23 4.5s16.333 6.83301 25 11.5c10.667 6 21.167 13.5 31.5 22.5s20.166 18.167 29.499 27.5c6.66699 7.33301 13.167 14.666 19.5 21.999s11.5 14 15.5 20c2.66699 4 5.66699 8.33301 9 13s6.33301 9.66699 9 15c7.33301 12 14.5 25 21.5 39
s12.5 28.333 16.5 43c3.33301 9.33301 5.83301 18.666 7.5 27.999s2.5 18.333 2.5 27c0 11.333 -1.33301 19.833 -4 25.5s-5.33398 9.5 -8.00098 11.5c-2 1.33301 -3.83301 2.33301 -5.5 3s-3.16699 1 -4.5 1c-10 1.33301 -18.833 5.16602 -26.5 11.499
s-11.5 15.166 -11.5 26.499c0 6.66699 2.16699 11.834 6.5 15.501s8.83301 6.16699 13.5 7.5c2 0.666992 3.66699 1 5 1h4c1.33301 0 2.83301 -0.166992 4.5 -0.5s3.16699 -0.5 4.5 -0.5c10.667 -3.33301 20.5 -12.333 29.5 -27s13.5 -37 13.5 -67
c0 -34 -7.5 -66.5 -22.5 -97.5s-31.167 -58.833 -48.5 -83.5c-4.66699 -6 -9.33398 -11.833 -14.001 -17.5s-9.33398 -11.167 -14.001 -16.5c-36 -40.667 -66.5 -65.334 -91.5 -74.001s-41.833 -13 -50.5 -13c-26 0 -43.167 6.16699 -51.5 18.5s-12.5 25.833 -12.5 40.5
c0 11.333 2.33301 23.5 7 36.5s11.667 30.833 21 53.5v0z" />
    <glyph glyph-name="x" unicode="x" horiz-adv-x="390" 
d="M25 222l-15.0029 5.99707c4 8 8.5 16.833 13.5 26.5s10.5 19.167 16.5 28.5c15.333 26 33.5 50 54.5 72s44.167 33 69.5 33c17.333 0 32 -7.5 44 -22.5s18 -36.167 18 -63.5v-9c0 -3.33301 -0.333008 -6.66602 -1 -9.99902h5c8.66699 16 17.834 30 27.501 42
s19.5 22 29.5 30c13.333 11.333 26.5 19.666 39.5 24.999s24.833 8 35.5 8c9.33301 0 17.5 -2.16699 24.5 -6.5s10.5 -10.833 10.5 -19.5c0 -6 -1.33301 -10.5 -4 -13.5s-5.33398 -5.16699 -8.00098 -6.5c-2 0 -3.66699 -0.166992 -5 -0.5s-2.66602 -0.5 -3.99902 -0.5
c-5.33301 0 -9.83301 1.33301 -13.5 4s-6.16699 6 -7.5 10c0 0.666992 -0.166992 1.5 -0.5 2.5s-0.5 1.83301 -0.5 2.5v1.5c0 0.333008 0.333008 0.833008 1 1.5v0.5v1.5v1.5v1.5v0.5v1.5l-2 2c-0.666992 0.666992 -1.66699 1 -3 1c-4.66699 0 -15 -4.83301 -31 -14.5
s-33 -29.5 -51 -59.5c-3.33301 -5.33301 -6.66602 -11.166 -9.99902 -17.499s-6.66602 -13.166 -9.99902 -20.499c-2.66699 -5.33301 -6.33398 -13.666 -11.001 -24.999s-9.66699 -24.333 -15 -39c-4 -10.667 -7.66699 -21.667 -11 -33s-6.33301 -23 -9 -35
c-3.33301 -12 -5.83301 -24 -7.5 -36s-2.5 -23.333 -2.5 -34c0 -20 3.83301 -34 11.5 -42s15.834 -12 24.501 -12c18.667 0 36.834 9.33301 54.501 28s33.5 39 47.5 61c6.66699 11.333 13 22.333 19 33s11.333 20.334 16 29.001l15 -7c-1.33301 -2 -2.5 -4.16699 -3.5 -6.5
s-2.16699 -4.5 -3.5 -6.5c-19.333 -36.667 -41.833 -70 -67.5 -100s-52.5 -45 -80.5 -45c-14.667 0 -26.167 3.33301 -34.5 10s-14.5 14 -18.5 22c-2.66699 5.33301 -4.66699 10.5 -6 15.5s-2 9.16699 -2 12.5v8.5v11.5v1.5c0 0.333008 0.333008 0.5 1 0.5v12.5v7.5h-5
c-2.66699 -4 -7.66699 -10.667 -15 -20s-16.333 -19.333 -27 -30c-13.333 -13.333 -29.5 -25.333 -48.5 -36s-39.833 -16 -62.5 -16h-1.5h-1.5c-7.33301 0.666992 -14.333 2.66699 -21 6s-10 9.66602 -10 18.999c0 7.33301 1.83301 12.666 5.5 15.999s8.83398 5 15.501 5
c4.66699 0 9 -1.5 13 -4.5s6.33301 -8.16699 7 -15.5v-1.5v-0.5v-1.5v-1.5v-1.5v-1.5c0 -2 0.5 -3.16699 1.5 -3.5s2.16699 -0.5 3.5 -0.5c6 0 12 1.33301 18 4s12.333 6.33398 19 11.001c8.66699 6 17.5 13.667 26.5 23s17.167 19 24.5 29c6 8 11.667 16 17 24
s9.66602 15 12.999 21c22 40 37.5 77.167 46.5 111.5s13.833 58.5 14.5 72.5c0.666992 2 1 4 1 6v7v2.5v2.5c-0.666992 1.33301 -1 2.5 -1 3.5v2.5c-0.666992 12.667 -3.33398 23.834 -8.00098 33.501s-13.667 14.5 -27 14.5c-10 0 -20.667 -3.83301 -32 -11.5
s-23 -17.834 -35 -30.501c-12.667 -14 -25.167 -30.333 -37.5 -49s-23.5 -38.667 -33.5 -60v0z" />
    <glyph glyph-name="y" unicode="y" horiz-adv-x="337" 
d="M372 377l-123 -369.998c-20 -60 -41.333 -108.833 -64 -146.5s-45.667 -66.834 -69 -87.501c-20.667 -17.333 -40.834 -29.5 -60.501 -36.5s-38.167 -10.5 -55.5 -10.5c-6 0 -12.333 0.5 -19 1.5s-13.667 2.5 -21 4.5c-18.667 5.33301 -36 15.333 -52 30
s-24 36.334 -24 65.001c0 31.333 7.66699 54.166 23 68.499s32.333 22.833 51 25.5c2 0.666992 4.33301 1 7 1h7c18.667 0 33.667 -4 45 -12s20 -17 26 -27c2.66699 -4.66699 4.83398 -9.5 6.50098 -14.5s2.83398 -9.16699 3.50098 -12.5l-15 -8
c-0.666992 3.33301 -1.33398 6.16602 -2.00098 8.49902s-1.66699 4.83301 -3 7.5c-4 10.667 -10.833 20.5 -20.5 29.5s-22.834 13.5 -39.501 13.5c-25.333 0 -44 -7.66699 -56 -23s-18 -34.333 -18 -57c0 -29.333 9.83301 -51 29.5 -65s42.167 -21 67.5 -21
c13.333 0 27.666 2.66699 42.999 8s31 15.333 47 30c14.667 13.333 29 31.833 43 55.5s27.667 54.167 41 91.5l96 271h-5c-49.333 -93.333 -85.833 -151 -109.5 -173s-42.167 -33 -55.5 -33c-15.333 0 -26.666 5.33301 -33.999 16s-11.333 22.334 -12 35.001v1.5v1.5
c0 11.333 1 21.5 3 30.5s4.33301 17.167 7 24.5l4 10c1.33301 3.33301 2.33301 6.33301 3 9l68 191c0.666992 1.33301 1.33398 2.83301 2.00098 4.5s1.33398 3.5 2.00098 5.5c2.66699 7.33301 5.33398 14.5 8.00098 21.5s4 13.5 4 19.5
c0 2.66699 -0.666992 4.83398 -2 6.50098s-2.66602 3.16699 -3.99902 4.5c-0.666992 0 -1.33398 0.166992 -2.00098 0.5s-1.33398 0.5 -2.00098 0.5c-4 0 -8.5 -1.83301 -13.5 -5.5s-10.167 -8.5 -15.5 -14.5c-3.33301 -4 -6.5 -8 -9.5 -12s-6.16699 -8.33301 -9.5 -13
c-4.66699 -6.66699 -9 -13.334 -13 -20.001s-7.33301 -12 -10 -16l-51 -84l-12 6l48 79c2 3.33301 4.33301 7.16602 7 11.499s6.33398 9.83301 11.001 16.5c2 3.33301 4.33301 6.83301 7 10.5s5.33398 7.16699 8.00098 10.5c8 12 17 22.667 27 32s20.667 14 32 14h2.5
c1 0 2.16699 -0.333008 3.5 -1c6.66699 -1.33301 13.167 -5.5 19.5 -12.5s10.166 -14.833 11.499 -23.5v-2.5v-3.5v-4.5v-4.5c0 -3.33301 -0.833008 -9.16602 -2.5 -17.499s-6.16699 -21.833 -13.5 -40.5l-72 -200c-6 -16.667 -9.66699 -28.834 -11 -36.501
s-2 -13.5 -2 -17.5c0 -6 1.5 -10.5 4.5 -13.5s6.5 -4.83301 10.5 -5.5h0.5h1.5c5.33301 0 10.166 1.33301 14.499 4s8.16602 5.33398 11.499 8.00098c1.33301 2 2.83301 3.66699 4.5 5s2.83398 2.66602 3.50098 3.99902c14 16 27.667 33.5 41 52.5s25.666 38.5 36.999 58.5
c24 40 44 77.333 60 112s26 57 30 67l24 61h46v0z" />
    <glyph glyph-name="z" unicode="z" horiz-adv-x="330" 
d="M354 377l24.9971 -0.00195312c-7.33301 -34 -25.666 -63.833 -54.999 -89.5s-61 -48.5 -95 -68.5c-9.33301 -5.33301 -18.666 -10.5 -27.999 -15.5s-18.333 -9.83301 -27 -14.5c-11.333 -6.66699 -25.333 -15.167 -42 -25.5s-33.667 -22.5 -51 -36.5
c-10 -8.66699 -20 -18 -30 -28s-19.667 -20.667 -29 -32l4 -4c4 2.66699 8.33301 4.83398 13 6.50098s9.33398 3.16699 14.001 4.5c4 0.666992 8.33301 1.33398 13 2.00098s9 1 13 1c12 0 22.333 -2.5 31 -7.5s16 -10.5 22 -16.5c2.66699 -2 5 -4.16699 7 -6.5
s4 -4.5 6 -6.5l2 -2l2 -2c8 -8 16.167 -14.667 24.5 -20s18.833 -8 31.5 -8c18 0 32.833 5.5 44.5 16.5s20.167 22.833 25.5 35.5c2 5.33301 3.5 10.333 4.5 15s1.5 9 1.5 13c0 12 -3.33301 22.5 -10 31.5s-15.334 15.167 -26.001 18.5l6 14
c11.333 -2.66699 20.833 -8.66699 28.5 -18s12.834 -19.333 15.501 -30c0.666992 -2 1.16699 -4.16699 1.5 -6.5s0.5 -4.5 0.5 -6.5c0 -4 -0.166992 -7.83301 -0.5 -11.5s-1.16602 -7.5 -2.49902 -11.5c-4 -19.333 -14.333 -37 -31 -53s-41.334 -24 -74.001 -24
c-17.333 0 -31.833 1.16699 -43.5 3.5s-23.167 5.83301 -34.5 10.5c-4 2 -8.33301 4.5 -13 7.5s-9.66699 6.16699 -15 9.5c-2 1.33301 -3.83301 2.5 -5.5 3.5s-3.16699 2.16699 -4.5 3.5c-6.66699 4.66699 -13.334 9 -20.001 13s-13.334 6 -20.001 6
c-7.33301 0 -14.166 -3.33301 -20.499 -10s-11.166 -14 -14.499 -22l-4 -8c-1.33301 -2.66699 -2.33301 -5.33398 -3 -8.00098h-26c1.33301 17.333 13.5 45.833 36.5 85.5s86.833 84.834 191.5 135.501c53.333 26 89.5 47.667 108.5 65s31.5 30.666 37.5 39.999l-3 3
c-4.66699 -4.66699 -10 -8.66699 -16 -12s-12.333 -6.33301 -19 -9c-4 -1.33301 -8.16699 -2.5 -12.5 -3.5s-8.5 -1.83301 -12.5 -2.5c-1.33301 0 -2.5 -0.166992 -3.5 -0.5s-2.16699 -0.5 -3.5 -0.5h-3.5h-3.5h-2.5c-1 0 -2.16699 0.333008 -3.5 1h-2.5h-3.5
c-14 2 -25.667 5.66699 -35 11s-17.666 10.666 -24.999 15.999c-1.33301 0.666992 -2.33301 1.33398 -3 2.00098l-2 2c-12.667 9.33301 -22.667 16.333 -30 21s-14.333 7.66699 -21 9c-2.66699 0 -5.16699 0.166992 -7.5 0.5s-4.83301 0.5 -7.5 0.5
c-18 0 -32.667 -6.66699 -44 -20s-17 -28.666 -17 -45.999c0 -12.667 3.66699 -23.334 11 -32.001s16.333 -14 27 -16l-6 -16c-12 3.33301 -21.333 8.33301 -28 15s-11.667 13.667 -15 21c-2 6 -3.5 11.5 -4.5 16.5s-1.5 9.5 -1.5 13.5c0 2.66699 0.166992 5.5 0.5 8.5
s0.833008 5.83301 1.5 8.5c4 18 14.167 34.333 30.5 49s38.5 22 66.5 22c7.33301 0 16 -0.666992 26 -2s20.333 -3.33301 31 -6c8 -2.66699 16.167 -5.5 24.5 -8.5s16.166 -6.5 23.499 -10.5c2 -1.33301 4.16699 -2.5 6.5 -3.5s4.83301 -2.16699 7.5 -3.5
c6 -4 12.833 -7.33301 20.5 -10s16.5 -4 26.5 -4c10.667 0 18.667 1.83301 24 5.5s10 8.5 14 14.5c1.33301 2.66699 2.83301 5.33398 4.5 8.00098s3.5 5.66699 5.5 9v0z" />
    <glyph glyph-name="braceleft" unicode="{" horiz-adv-x="380" 
d="M103 219l-2.00391 -5.00391c26 -4 45.5 -12.167 58.5 -24.5s21.5 -25.5 25.5 -39.5c1.33301 -4.66699 2.33301 -9 3 -13s1 -8 1 -12c0 -20.667 -3.33301 -44.167 -10 -70.5s-14.667 -59.166 -24 -98.499c-12.667 -55.333 -20.167 -91.666 -22.5 -108.999
s-3.5 -29.333 -3.5 -36c0 -13.333 3.83301 -24 11.5 -32s16.167 -14 25.5 -18c6.66699 -3.33301 13.334 -5.66602 20.001 -6.99902s11.334 -2.33301 14.001 -3l-7 -29c-36.667 7.33301 -65.667 20.833 -87 40.5s-32 48.834 -32 87.501c0 17.333 3 36.666 9 57.999
s12.333 45.666 19 72.999c0.666992 1.33301 1.16699 2.83301 1.5 4.5s0.833008 3.5 1.5 5.5c1.33301 4.66699 3 10.667 5 18s4.33301 15.666 7 24.999c0.666992 2.66699 1.33398 5.66699 2.00098 9s1.33398 6.33301 2.00098 9c2.66699 10.667 4.83398 21 6.50098 31
s2.5 18.333 2.5 25c0 31.333 -6.83301 54.333 -20.5 69s-30.167 22.667 -49.5 24l6 31c52.667 4 87.167 26.5 103.5 67.5s29.166 86.5 38.499 136.5c0 1.33301 0.166992 2.5 0.5 3.5s0.5 2.16699 0.5 3.5c14 76.667 33.5 137.334 58.5 182.001s75.833 73.334 152.5 86.001
l-6 -28c-47.333 -9.33301 -78.666 -27.666 -93.999 -54.999s-27.333 -63.333 -36 -108c-1.33301 -6.66699 -2.66602 -13.5 -3.99902 -20.5s-2.66602 -14.167 -3.99902 -21.5c-0.666992 -3.33301 -1.33398 -6.83301 -2.00098 -10.5s-1.33398 -7.16699 -2.00098 -10.5
c0 -1.33301 -0.166992 -2.83301 -0.5 -4.5s-0.833008 -3.16699 -1.5 -4.5c-9.33301 -52 -23.333 -100.167 -42 -144.5s-60.334 -72.5 -125.001 -84.5v0z" />
    <glyph glyph-name="bar" unicode="|" horiz-adv-x="428" 
d="M200 -280v1053h28v-1053h-28v0z" />
    <glyph glyph-name="braceright" unicode="}" horiz-adv-x="380" 
d="M237 214l2.00293 5.00586c-26 4 -45.5 12.167 -58.5 24.5s-21.5 25.5 -25.5 39.5c-1.33301 4.66699 -2.33301 9 -3 13s-1 8 -1 12c0 20.667 3.33301 44.167 10 70.5s14.667 59.5 24 99.5c13.333 55.333 21 91.666 23 108.999s3 29.333 3 36
c0 13.333 -3.83301 24 -11.5 32s-16.167 14 -25.5 18c-6.66699 3.33301 -13.334 5.66602 -20.001 6.99902s-11.334 2.33301 -14.001 3l7 28c37.333 -6.66699 66.5 -19.834 87.5 -39.501s31.5 -48.834 31.5 -87.501c0 -17.333 -3 -36.666 -9 -57.999
s-12.333 -45.666 -19 -72.999c-0.666992 -1.33301 -1.16699 -2.83301 -1.5 -4.5s-0.833008 -3.5 -1.5 -5.5c-1.33301 -4.66699 -3 -10.834 -5 -18.501s-4.33301 -16.167 -7 -25.5c-0.666992 -2.66699 -1.33398 -5.66699 -2.00098 -9s-1.33398 -6.33301 -2.00098 -9
c-2.66699 -10.667 -4.83398 -21 -6.50098 -31s-2.5 -18.333 -2.5 -25c0 -30.667 6.83301 -53.5 20.5 -68.5s30.167 -23.167 49.5 -24.5l-6 -31c-52.667 -4 -87.167 -26.5 -103.5 -67.5s-29.166 -86.167 -38.499 -135.5c0 -1.33301 -0.166992 -2.5 -0.5 -3.5
s-0.5 -2.16699 -0.5 -3.5c-14 -76.667 -33.5 -137.334 -58.5 -182.001s-75.5 -73.334 -151.5 -86.001l5 27c48 10 79.5 28.667 94.5 56s26.833 63.333 35.5 108c1.33301 6.66699 2.66602 13.5 3.99902 20.5s2.66602 14.167 3.99902 21.5
c0.666992 3.33301 1.33398 6.83301 2.00098 10.5s1.33398 7.16699 2.00098 10.5c0 1.33301 0.166992 2.83301 0.5 4.5s0.833008 3.16699 1.5 4.5c9.33301 51.333 23.333 99.166 42 143.499s60.334 72.5 125.001 84.5v0z" />
    <glyph glyph-name="asciitilde" unicode="~" horiz-adv-x="672" 
d="M88 298h-31.999c2.66699 5.33301 5.66699 10.5 9 15.5l11 16.5c16 20.667 37 39.667 63 57s58 26 96 26c21.333 0 39.833 -2.33301 55.5 -7s30.834 -10.667 45.501 -18c5.33301 -2.66699 10.833 -5.33398 16.5 -8.00098s11.5 -5.66699 17.5 -9
c27.333 -14 50.166 -24.333 68.499 -31s34.5 -10 48.5 -10c10 0 23.667 3.33301 41 10s36 27.334 56 62.001h32c-18.667 -36.667 -40.834 -65.167 -66.501 -85.5s-55.5 -30.5 -89.5 -30.5c-19.333 0 -43.166 4.83301 -71.499 14.5s-66.5 26.5 -114.5 50.5
c-5.33301 2.66699 -10.333 5 -15 7s-9 4 -13 6c-6.66699 2 -13.334 3.66699 -20.001 5s-14.667 2 -24 2c-6.66699 0 -17.667 -1.5 -33 -4.5s-31.333 -12.167 -48 -27.5c-5.33301 -4.66699 -10.833 -10.5 -16.5 -17.5s-11.167 -14.833 -16.5 -23.5v0z" />
    <glyph glyph-name="space" 
 />
    <glyph glyph-name="F" horiz-adv-x="558" 
d="M528 520l-196 -0.00195312c-10.667 -46.667 -18 -80 -22 -100s-7 -36.667 -9 -50c11.333 8.66699 24.5 16.5 39.5 23.5s30.5 12.5 46.5 16.5c6.66699 1.33301 13.5 2.5 20.5 3.5s13.833 1.5 20.5 1.5c40 0 71.667 -20 95 -60s35 -93 35 -159
c0 -7.33301 -0.166992 -14.5 -0.5 -21.5s-1.16602 -14.167 -2.49902 -21.5c-9.33301 -81.333 -42.666 -155.833 -99.999 -223.5s-127 -101.5 -209 -101.5c-24.667 0 -43.334 2.66699 -56.001 8s-21.667 11.333 -27 18c-3.33301 3.33301 -5.5 6.5 -6.5 9.5
s-1.5 5.83301 -1.5 8.5c0 1.33301 0.166992 2.83301 0.5 4.5s0.833008 3.16699 1.5 4.5c1.33301 4 4.33301 7.83301 9 11.5s10.667 5.5 18 5.5s17.833 -2.66699 31.5 -8s28.5 -19.333 44.5 -42c71.333 6.66699 125.833 37.334 163.5 92.001s61.834 114.334 72.501 179.001
c2.66699 15.333 4.66699 30.5 6 45.5s2 29.5 2 43.5c0 54 -4.83301 93.833 -14.5 119.5s-20.167 43.167 -31.5 52.5c-5.33301 4.66699 -10.833 7.83398 -16.5 9.50098s-10.5 2.5 -14.5 2.5c-6 0 -12.333 -0.5 -19 -1.5s-13.334 -2.5 -20.001 -4.5
c-18 -5.33301 -35.5 -13.5 -52.5 -24.5s-31.833 -23.167 -44.5 -36.5c-1.33301 -6 -2.5 -11 -3.5 -15s-1.83301 -7.66699 -2.5 -11v-0.5v-1.5c-0.666992 -2.66699 -1.33398 -5.66699 -2.00098 -9s-1.33398 -7 -2.00098 -11c-3.33301 -16 -7.33301 -34 -12 -54
s-10.334 -40.333 -17.001 -61c-13.333 -44 -32 -84.167 -56 -120.5s-56 -54.5 -96 -54.5c-22.667 0 -39.167 4.83301 -49.5 14.5s-17.166 20.5 -20.499 32.5c-0.666992 2.66699 -1.16699 5.66699 -1.5 9s-0.5 6.33301 -0.5 9c0 6 0.666992 11.333 2 16s3 8.66699 5 12h18
c-0.666992 -1.33301 -1.33398 -2.5 -2.00098 -3.5s-1.33398 -2.16699 -2.00098 -3.5c-1.33301 -3.33301 -2.16602 -6.66602 -2.49902 -9.99902s-0.5 -7 -0.5 -11c0 -16.667 4.66699 -28.834 14 -36.501s22.333 -11.5 39 -11.5c12.667 0 24.834 3.5 36.501 10.5
s22.167 20.833 31.5 41.5c3.33301 8 6.66602 15.833 9.99902 23.5s6.33301 15.5 9 23.5c7.33301 22 13.166 44 17.499 66s8.5 45.333 12.5 70c6 38 13.333 79.667 22 125s22.667 97.333 42 156h-101v21h107c3.33301 9.33301 7.33301 20.166 12 32.499
s10.334 24.833 17.001 37.5s14 24.834 22 36.501s17 22.167 27 31.5l-2 7h-2h-1h-2h-2c-69.333 0 -132.666 -25.167 -189.999 -75.5s-86 -109.5 -86 -177.5c0 -8 2.16699 -21.667 6.5 -41s14.833 -39.333 31.5 -60c2 -3.33301 4.33301 -6.5 7 -9.5s5.66699 -6.16699 9 -9.5
l-11 -11c-10 9.33301 -18.667 19.166 -26 29.499s-13.666 20.833 -18.999 31.5c-5.33301 12.667 -9.33301 25 -12 37s-4 23 -4 33v10c0 3.33301 0.333008 6.66602 1 9.99902c6 60 35.167 115.5 87.5 166.5s119.166 77.833 200.499 80.5h6.5h7.5h7.5h6.5h7.5
c2.33301 0 4.83301 -0.333008 7.5 -1c1.33301 0 2.83301 -0.166992 4.5 -0.5s3.5 -0.833008 5.5 -1.5v-11l-5 -1c-7.33301 -2 -16.166 -10.667 -26.499 -26s-21.833 -54.666 -34.5 -117.999h191v-21v0z" />
    <glyph glyph-name="F" unicode="&#x402;" horiz-adv-x="558" 
d="M528 520l-196 -0.00195312c-10.667 -46.667 -18 -80 -22 -100s-7 -36.667 -9 -50c11.333 8.66699 24.5 16.5 39.5 23.5s30.5 12.5 46.5 16.5c6.66699 1.33301 13.5 2.5 20.5 3.5s13.833 1.5 20.5 1.5c40 0 71.667 -20 95 -60s35 -93 35 -159
c0 -7.33301 -0.166992 -14.5 -0.5 -21.5s-1.16602 -14.167 -2.49902 -21.5c-9.33301 -81.333 -42.666 -155.833 -99.999 -223.5s-127 -101.5 -209 -101.5c-24.667 0 -43.334 2.66699 -56.001 8s-21.667 11.333 -27 18c-3.33301 3.33301 -5.5 6.5 -6.5 9.5
s-1.5 5.83301 -1.5 8.5c0 1.33301 0.166992 2.83301 0.5 4.5s0.833008 3.16699 1.5 4.5c1.33301 4 4.33301 7.83301 9 11.5s10.667 5.5 18 5.5s17.833 -2.66699 31.5 -8s28.5 -19.333 44.5 -42c71.333 6.66699 125.833 37.334 163.5 92.001s61.834 114.334 72.501 179.001
c2.66699 15.333 4.66699 30.5 6 45.5s2 29.5 2 43.5c0 54 -4.83301 93.833 -14.5 119.5s-20.167 43.167 -31.5 52.5c-5.33301 4.66699 -10.833 7.83398 -16.5 9.50098s-10.5 2.5 -14.5 2.5c-6 0 -12.333 -0.5 -19 -1.5s-13.334 -2.5 -20.001 -4.5
c-18 -5.33301 -35.5 -13.5 -52.5 -24.5s-31.833 -23.167 -44.5 -36.5c-1.33301 -6 -2.5 -11 -3.5 -15s-1.83301 -7.66699 -2.5 -11v-0.5v-1.5c-0.666992 -2.66699 -1.33398 -5.66699 -2.00098 -9s-1.33398 -7 -2.00098 -11c-3.33301 -16 -7.33301 -34 -12 -54
s-10.334 -40.333 -17.001 -61c-13.333 -44 -32 -84.167 -56 -120.5s-56 -54.5 -96 -54.5c-22.667 0 -39.167 4.83301 -49.5 14.5s-17.166 20.5 -20.499 32.5c-0.666992 2.66699 -1.16699 5.66699 -1.5 9s-0.5 6.33301 -0.5 9c0 6 0.666992 11.333 2 16s3 8.66699 5 12h18
c-0.666992 -1.33301 -1.33398 -2.5 -2.00098 -3.5s-1.33398 -2.16699 -2.00098 -3.5c-1.33301 -3.33301 -2.16602 -6.66602 -2.49902 -9.99902s-0.5 -7 -0.5 -11c0 -16.667 4.66699 -28.834 14 -36.501s22.333 -11.5 39 -11.5c12.667 0 24.834 3.5 36.501 10.5
s22.167 20.833 31.5 41.5c3.33301 8 6.66602 15.833 9.99902 23.5s6.33301 15.5 9 23.5c7.33301 22 13.166 44 17.499 66s8.5 45.333 12.5 70c6 38 13.333 79.667 22 125s22.667 97.333 42 156h-101v21h107c3.33301 9.33301 7.33301 20.166 12 32.499
s10.334 24.833 17.001 37.5s14 24.834 22 36.501s17 22.167 27 31.5l-2 7h-2h-1h-2h-2c-69.333 0 -132.666 -25.167 -189.999 -75.5s-86 -109.5 -86 -177.5c0 -8 2.16699 -21.667 6.5 -41s14.833 -39.333 31.5 -60c2 -3.33301 4.33301 -6.5 7 -9.5s5.66699 -6.16699 9 -9.5
l-11 -11c-10 9.33301 -18.667 19.166 -26 29.499s-13.666 20.833 -18.999 31.5c-5.33301 12.667 -9.33301 25 -12 37s-4 23 -4 33v10c0 3.33301 0.333008 6.66602 1 9.99902c6 60 35.167 115.5 87.5 166.5s119.166 77.833 200.499 80.5h6.5h7.5h7.5h6.5h7.5
c2.33301 0 4.83301 -0.333008 7.5 -1c1.33301 0 2.83301 -0.166992 4.5 -0.5s3.5 -0.833008 5.5 -1.5v-11l-5 -1c-7.33301 -2 -16.166 -10.667 -26.499 -26s-21.833 -54.666 -34.5 -117.999h191v-21v0z" />
    <glyph glyph-name="asciitilde" horiz-adv-x="501" 
d="M676 734l10.999 -8.00195c-17.333 -26.667 -37.666 -45 -60.999 -55s-51 -15 -83 -15c-6 0 -13.333 0.166992 -22 0.5s-17.667 0.833008 -27 1.5c-6 0.666992 -11.667 1.33398 -17 2.00098s-10.333 1.33398 -15 2.00098c-22 -22 -38.167 -46.667 -48.5 -74
s-19.5 -61 -27.5 -101c-6 -31.333 -12.5 -67 -19.5 -107s-16.833 -86.333 -29.5 -139c3.33301 -2 6.83301 -3.83301 10.5 -5.5s7.16699 -3.5 10.5 -5.5l22 -10l22 -10c14.667 -6 28.834 -11.5 42.501 -16.5s25.5 -8.83301 35.5 -11.5l-6 -16
c-0.666992 0 -1.33398 0.166992 -2.00098 0.5l-1 0.5c-18 5.33301 -37.167 12.166 -57.5 20.499s-46.833 20.166 -79.5 35.499c-18 -96 -46.167 -159.333 -84.5 -190s-78.833 -46 -121.5 -46c-31.333 0 -55.833 10.5 -73.5 31.5s-26.5 45.833 -26.5 74.5
c0 34 11.167 62.5 33.5 85.5s50.833 34.167 85.5 33.5c6 0 12.333 -0.333008 19 -1s13.334 -2 20.001 -4v-21c-2.66699 1.33301 -5.66699 2.33301 -9 3s-6.33301 1.33398 -9 2.00098c-3.33301 0 -6.5 0.166992 -9.5 0.5s-6.16699 0.5 -9.5 0.5
c-25.333 -0.666992 -48.333 -9 -69 -25s-31 -40.667 -31 -74c0 -29.333 8.33301 -51 25 -65s36 -21 58 -21c28 0 51.167 7.33301 69.5 22s33.5 35.334 45.5 62.001c2.66699 6 5 12.167 7 18.5s4.33301 13.5 7 21.5c3.33301 13.333 6.83301 29 10.5 47
s7.83398 40.667 12.501 68c-26 13.333 -48.333 27.333 -67 42s-35 29.334 -49 44.001c-30 34 -48.833 66 -56.5 96s-11.5 51 -11.5 63c0 10.667 0.833008 21.834 2.5 33.501s4.5 23.5 8.5 35.5c10.667 34.667 32 66.667 64 96s79 44 141 44h6.5h6.5
c14.667 0 29 -0.5 43 -1.5s26.667 -1.83301 38 -2.5c8.66699 -0.666992 15.834 -1.33398 21.501 -2.00098s9.83398 -1.33398 12.501 -2.00098c8 -1.33301 15.667 -2.5 23 -3.5s14.666 -1.83301 21.999 -2.5c12.667 -2 25.667 -3.5 39 -4.5s27.666 -1.5 42.999 -1.5
c6.66699 0 13.5 0.333008 20.5 1s14.5 2 22.5 4c11.333 3.33301 22.666 8.83301 33.999 16.5s20.666 18.5 27.999 32.5v0zM438.999 660.998v5.00195c-2 0.666992 -4 1 -6 1s-3.66699 0.333008 -5 1c-1.33301 0 -2.5 0.166992 -3.5 0.5s-1.83301 0.5 -2.5 0.5
c-2 0.666992 -4 1.16699 -6 1.5s-4.33301 0.833008 -7 1.5c-0.666992 0 -1.5 0.166992 -2.5 0.5s-2.16699 0.5 -3.5 0.5c-6 1.33301 -12.667 2.5 -20 3.5s-17 1.83301 -29 2.5h-9h-9h-9.5h-9.5c-52.667 -1.33301 -93 -12.333 -121 -33s-48 -43.334 -60 -68.001
c-5.33301 -11.333 -9.16602 -22.5 -11.499 -33.5s-3.5 -21.167 -3.5 -30.5c0 -25.333 4.33301 -52.5 13 -81.5s26 -58.167 52 -87.5c12 -13.333 26.167 -27 42.5 -41s35.5 -27.667 57.5 -41c1.33301 8.66699 2.66602 16.667 3.99902 24s2.66602 14.333 3.99902 21
c0.666992 2 1.16699 3.83301 1.5 5.5s0.5 3.5 0.5 5.5c2 9.33301 4 19 6 29l7 35c3.33301 18 7.33301 36.833 12 56.5s10.334 39.834 17.001 60.501c10 29.333 23 58.166 39 86.499s36.667 53.166 62 74.499v0z" />
    <glyph glyph-name="asciitilde" unicode="&#x403;" horiz-adv-x="501" 
d="M676 734l10.999 -8.00195c-17.333 -26.667 -37.666 -45 -60.999 -55s-51 -15 -83 -15c-6 0 -13.333 0.166992 -22 0.5s-17.667 0.833008 -27 1.5c-6 0.666992 -11.667 1.33398 -17 2.00098s-10.333 1.33398 -15 2.00098c-22 -22 -38.167 -46.667 -48.5 -74
s-19.5 -61 -27.5 -101c-6 -31.333 -12.5 -67 -19.5 -107s-16.833 -86.333 -29.5 -139c3.33301 -2 6.83301 -3.83301 10.5 -5.5s7.16699 -3.5 10.5 -5.5l22 -10l22 -10c14.667 -6 28.834 -11.5 42.501 -16.5s25.5 -8.83301 35.5 -11.5l-6 -16
c-0.666992 0 -1.33398 0.166992 -2.00098 0.5l-1 0.5c-18 5.33301 -37.167 12.166 -57.5 20.499s-46.833 20.166 -79.5 35.499c-18 -96 -46.167 -159.333 -84.5 -190s-78.833 -46 -121.5 -46c-31.333 0 -55.833 10.5 -73.5 31.5s-26.5 45.833 -26.5 74.5
c0 34 11.167 62.5 33.5 85.5s50.833 34.167 85.5 33.5c6 0 12.333 -0.333008 19 -1s13.334 -2 20.001 -4v-21c-2.66699 1.33301 -5.66699 2.33301 -9 3s-6.33301 1.33398 -9 2.00098c-3.33301 0 -6.5 0.166992 -9.5 0.5s-6.16699 0.5 -9.5 0.5
c-25.333 -0.666992 -48.333 -9 -69 -25s-31 -40.667 -31 -74c0 -29.333 8.33301 -51 25 -65s36 -21 58 -21c28 0 51.167 7.33301 69.5 22s33.5 35.334 45.5 62.001c2.66699 6 5 12.167 7 18.5s4.33301 13.5 7 21.5c3.33301 13.333 6.83301 29 10.5 47
s7.83398 40.667 12.501 68c-26 13.333 -48.333 27.333 -67 42s-35 29.334 -49 44.001c-30 34 -48.833 66 -56.5 96s-11.5 51 -11.5 63c0 10.667 0.833008 21.834 2.5 33.501s4.5 23.5 8.5 35.5c10.667 34.667 32 66.667 64 96s79 44 141 44h6.5h6.5
c14.667 0 29 -0.5 43 -1.5s26.667 -1.83301 38 -2.5c8.66699 -0.666992 15.834 -1.33398 21.501 -2.00098s9.83398 -1.33398 12.501 -2.00098c8 -1.33301 15.667 -2.5 23 -3.5s14.666 -1.83301 21.999 -2.5c12.667 -2 25.667 -3.5 39 -4.5s27.666 -1.5 42.999 -1.5
c6.66699 0 13.5 0.333008 20.5 1s14.5 2 22.5 4c11.333 3.33301 22.666 8.83301 33.999 16.5s20.666 18.5 27.999 32.5v0zM438.999 660.998v5.00195c-2 0.666992 -4 1 -6 1s-3.66699 0.333008 -5 1c-1.33301 0 -2.5 0.166992 -3.5 0.5s-1.83301 0.5 -2.5 0.5
c-2 0.666992 -4 1.16699 -6 1.5s-4.33301 0.833008 -7 1.5c-0.666992 0 -1.5 0.166992 -2.5 0.5s-2.16699 0.5 -3.5 0.5c-6 1.33301 -12.667 2.5 -20 3.5s-17 1.83301 -29 2.5h-9h-9h-9.5h-9.5c-52.667 -1.33301 -93 -12.333 -121 -33s-48 -43.334 -60 -68.001
c-5.33301 -11.333 -9.16602 -22.5 -11.499 -33.5s-3.5 -21.167 -3.5 -30.5c0 -25.333 4.33301 -52.5 13 -81.5s26 -58.167 52 -87.5c12 -13.333 26.167 -27 42.5 -41s35.5 -27.667 57.5 -41c1.33301 8.66699 2.66602 16.667 3.99902 24s2.66602 14.333 3.99902 21
c0.666992 2 1.16699 3.83301 1.5 5.5s0.5 3.5 0.5 5.5c2 9.33301 4 19 6 29l7 35c3.33301 18 7.33301 36.833 12 56.5s10.334 39.834 17.001 60.501c10 29.333 23 58.166 39 86.499s36.667 53.166 62 74.499v0z" />
    <glyph glyph-name="D" horiz-adv-x="677" 
d="M379 360l-88.999 -168.992c-2 -3.33301 -3.66699 -6.33301 -5 -9l-4 -8c-2 -4.66699 -4.5 -9.83398 -7.5 -15.501s-7.16699 -13.834 -12.5 -24.501c-8 -18 -16 -34 -24 -48s-16 -26.333 -24 -37c-16.667 -23.333 -34 -39.5 -52 -48.5s-38.333 -13.5 -61 -13.5
c-23.333 0 -40.333 5.33301 -51 16s-17.334 22.667 -20.001 36c0 2 -0.166992 4.16699 -0.5 6.5s-0.5 4.5 -0.5 6.5c0 6.66699 0.666992 12.167 2 16.5s3 8.16602 5 11.499h18c-0.666992 -1.33301 -1.33398 -2.5 -2.00098 -3.5s-1.33398 -2.16699 -2.00098 -3.5
c-1.33301 -3.33301 -2.16602 -6.66602 -2.49902 -9.99902s-0.5 -7 -0.5 -11c0 -16 5.16699 -27.5 15.5 -34.5s22.833 -10.5 37.5 -10.5c18.667 0 33.667 5.33301 45 16s22 31 32 61c7.33301 23.333 15.166 53.666 23.499 90.999s18.166 83.333 29.499 138
c10 48 19.833 90.667 29.5 128s19.167 70 28.5 98c12 36 24.167 65.167 36.5 87.5s25.166 39.833 38.499 52.5v7h-2.5h-2.5c-10.667 0 -22.5 -1.16699 -35.5 -3.5s-26.5 -5.5 -40.5 -9.5c-14.667 -4 -29 -9 -43 -15s-26.333 -12.333 -37 -19
c-36 -22.667 -65.333 -51.334 -88 -86.001s-34 -74.667 -34 -120c0 -20.667 3.83301 -39.334 11.5 -56.001s16.167 -31.334 25.5 -44.001c3.33301 -4 6.33301 -7.66699 9 -11s5.33398 -6.33301 8.00098 -9l-11 -11c-13.333 12 -25.333 27.167 -36 45.5s-18 37.5 -22 57.5
l-2 14c-0.666992 4.66699 -1 9.33398 -1 14.001c0 18 2.66699 39.5 8 64.5s17.666 50.833 36.999 77.5c7.33301 10 16 20.167 26 30.5s21.667 20.5 35 30.5c8 6 16.333 11.667 25 17s17.334 10 26.001 14c24.667 12 48.667 20.333 72 25s43.333 7.33398 60 8.00098h6.5h7.5
h7.5h6.5h7.5c2.33301 0 4.83301 -0.333008 7.5 -1c1.33301 0 2.83301 -0.166992 4.5 -0.5s3.5 -0.833008 5.5 -1.5v-11l-5 -1c-2 0 -5.83301 -1.16699 -11.5 -3.5s-11.834 -9.83301 -18.501 -22.5c-0.666992 -2 -1.5 -4 -2.5 -6l-3.5 -7
c-4 -9.33301 -10.833 -34.5 -20.5 -75.5s-20.167 -86.167 -31.5 -135.5c-0.666992 -2.66699 -1.33398 -5.5 -2.00098 -8.5s-1.33398 -6.16699 -2.00098 -9.5c-12 -53.333 -23 -103 -33 -149s-15.667 -73 -17 -81h12l98 191c31.333 60 58.166 106 80.499 138
s41.833 57.333 58.5 76c43.333 50 79.833 80.5 109.5 91.5s51.834 16.5 66.501 16.5c21.333 0 38.833 -4.83301 52.5 -14.5s20.5 -25.167 20.5 -46.5c0 -18 -5.66699 -32.667 -17 -44s-26.666 -17 -45.999 -17c-9.33301 0 -16.833 1.83301 -22.5 5.5
s-10.834 8.5 -15.501 14.5c-1.33301 1.33301 -2.66602 3 -3.99902 5l-4 6l14 11c0.666992 -2 1.5 -3.66699 2.5 -5s1.83301 -2.66602 2.5 -3.99902c1.33301 -0.666992 2.33301 -1.5 3 -2.5s1.66699 -1.83301 3 -2.5l0.5 -0.5c0.333008 -0.333008 0.833008 -0.5 1.5 -0.5
c2.66699 -2.66699 5.66699 -4.83398 9 -6.50098s8.33301 -2.5 15 -2.5c12.667 0 22.167 3.66699 28.5 11s9.5 18.333 9.5 33c0 14 -5.33301 24.333 -16 31s-23 10 -37 10c-2.66699 0 -5.33398 -0.166992 -8.00098 -0.5s-5.66699 -0.5 -9 -0.5
c-29.333 -4.66699 -58 -19.5 -86 -44.5s-53.333 -51.833 -76 -80.5c-10 -12.667 -19.333 -25.167 -28 -37.5s-16.334 -23.833 -23.001 -34.5c-1.33301 -2 -2.5 -3.83301 -3.5 -5.5s-2.16699 -3.5 -3.5 -5.5c0 -0.666992 -0.333008 -1.33398 -1 -2.00098
s-1 -1.33398 -1 -2.00098c-8 -12 -16.167 -25 -24.5 -39s-17.166 -31.333 -26.499 -52c57.333 -14.667 97.166 -45.5 119.499 -92.5s35.833 -99.167 40.5 -156.5v-1.5v-0.5c0.666992 -6.66699 1.33398 -13.834 2.00098 -21.501s1.66699 -15.5 3 -23.5
c3.33301 -18.667 9.83301 -35.667 19.5 -51s25.834 -23 48.501 -23c2.66699 0 7.33398 0.5 14.001 1.5s13.334 3.83301 20.001 8.5c2.66699 2 5.33398 4.16699 8.00098 6.5s5.33398 4.83301 8.00098 7.5l11 -11c-6.66699 -8.66699 -15.334 -15.834 -26.001 -21.501
s-21.667 -9.16699 -33 -10.5c-2 -0.666992 -3.83301 -1 -5.5 -1h-5.5c-35.333 0 -61.833 11.167 -79.5 33.5s-30.5 47.5 -38.5 75.5c-4.66699 14 -8.16699 28 -10.5 42s-4.16602 26.333 -5.49902 37c-6 43.333 -14.667 81 -26 113s-36.666 56 -75.999 72v0z" />
    <glyph glyph-name="D" unicode="&#x40c;" horiz-adv-x="677" 
d="M379 360l-88.999 -168.992c-2 -3.33301 -3.66699 -6.33301 -5 -9l-4 -8c-2 -4.66699 -4.5 -9.83398 -7.5 -15.501s-7.16699 -13.834 -12.5 -24.501c-8 -18 -16 -34 -24 -48s-16 -26.333 -24 -37c-16.667 -23.333 -34 -39.5 -52 -48.5s-38.333 -13.5 -61 -13.5
c-23.333 0 -40.333 5.33301 -51 16s-17.334 22.667 -20.001 36c0 2 -0.166992 4.16699 -0.5 6.5s-0.5 4.5 -0.5 6.5c0 6.66699 0.666992 12.167 2 16.5s3 8.16602 5 11.499h18c-0.666992 -1.33301 -1.33398 -2.5 -2.00098 -3.5s-1.33398 -2.16699 -2.00098 -3.5
c-1.33301 -3.33301 -2.16602 -6.66602 -2.49902 -9.99902s-0.5 -7 -0.5 -11c0 -16 5.16699 -27.5 15.5 -34.5s22.833 -10.5 37.5 -10.5c18.667 0 33.667 5.33301 45 16s22 31 32 61c7.33301 23.333 15.166 53.666 23.499 90.999s18.166 83.333 29.499 138
c10 48 19.833 90.667 29.5 128s19.167 70 28.5 98c12 36 24.167 65.167 36.5 87.5s25.166 39.833 38.499 52.5v7h-2.5h-2.5c-10.667 0 -22.5 -1.16699 -35.5 -3.5s-26.5 -5.5 -40.5 -9.5c-14.667 -4 -29 -9 -43 -15s-26.333 -12.333 -37 -19
c-36 -22.667 -65.333 -51.334 -88 -86.001s-34 -74.667 -34 -120c0 -20.667 3.83301 -39.334 11.5 -56.001s16.167 -31.334 25.5 -44.001c3.33301 -4 6.33301 -7.66699 9 -11s5.33398 -6.33301 8.00098 -9l-11 -11c-13.333 12 -25.333 27.167 -36 45.5s-18 37.5 -22 57.5
l-2 14c-0.666992 4.66699 -1 9.33398 -1 14.001c0 18 2.66699 39.5 8 64.5s17.666 50.833 36.999 77.5c7.33301 10 16 20.167 26 30.5s21.667 20.5 35 30.5c8 6 16.333 11.667 25 17s17.334 10 26.001 14c24.667 12 48.667 20.333 72 25s43.333 7.33398 60 8.00098h6.5h7.5
h7.5h6.5h7.5c2.33301 0 4.83301 -0.333008 7.5 -1c1.33301 0 2.83301 -0.166992 4.5 -0.5s3.5 -0.833008 5.5 -1.5v-11l-5 -1c-2 0 -5.83301 -1.16699 -11.5 -3.5s-11.834 -9.83301 -18.501 -22.5c-0.666992 -2 -1.5 -4 -2.5 -6l-3.5 -7
c-4 -9.33301 -10.833 -34.5 -20.5 -75.5s-20.167 -86.167 -31.5 -135.5c-0.666992 -2.66699 -1.33398 -5.5 -2.00098 -8.5s-1.33398 -6.16699 -2.00098 -9.5c-12 -53.333 -23 -103 -33 -149s-15.667 -73 -17 -81h12l98 191c31.333 60 58.166 106 80.499 138
s41.833 57.333 58.5 76c43.333 50 79.833 80.5 109.5 91.5s51.834 16.5 66.501 16.5c21.333 0 38.833 -4.83301 52.5 -14.5s20.5 -25.167 20.5 -46.5c0 -18 -5.66699 -32.667 -17 -44s-26.666 -17 -45.999 -17c-9.33301 0 -16.833 1.83301 -22.5 5.5
s-10.834 8.5 -15.501 14.5c-1.33301 1.33301 -2.66602 3 -3.99902 5l-4 6l14 11c0.666992 -2 1.5 -3.66699 2.5 -5s1.83301 -2.66602 2.5 -3.99902c1.33301 -0.666992 2.33301 -1.5 3 -2.5s1.66699 -1.83301 3 -2.5l0.5 -0.5c0.333008 -0.333008 0.833008 -0.5 1.5 -0.5
c2.66699 -2.66699 5.66699 -4.83398 9 -6.50098s8.33301 -2.5 15 -2.5c12.667 0 22.167 3.66699 28.5 11s9.5 18.333 9.5 33c0 14 -5.33301 24.333 -16 31s-23 10 -37 10c-2.66699 0 -5.33398 -0.166992 -8.00098 -0.5s-5.66699 -0.5 -9 -0.5
c-29.333 -4.66699 -58 -19.5 -86 -44.5s-53.333 -51.833 -76 -80.5c-10 -12.667 -19.333 -25.167 -28 -37.5s-16.334 -23.833 -23.001 -34.5c-1.33301 -2 -2.5 -3.83301 -3.5 -5.5s-2.16699 -3.5 -3.5 -5.5c0 -0.666992 -0.333008 -1.33398 -1 -2.00098
s-1 -1.33398 -1 -2.00098c-8 -12 -16.167 -25 -24.5 -39s-17.166 -31.333 -26.499 -52c57.333 -14.667 97.166 -45.5 119.499 -92.5s35.833 -99.167 40.5 -156.5v-1.5v-0.5c0.666992 -6.66699 1.33398 -13.834 2.00098 -21.501s1.66699 -15.5 3 -23.5
c3.33301 -18.667 9.83301 -35.667 19.5 -51s25.834 -23 48.501 -23c2.66699 0 7.33398 0.5 14.001 1.5s13.334 3.83301 20.001 8.5c2.66699 2 5.33398 4.16699 8.00098 6.5s5.33398 4.83301 8.00098 7.5l11 -11c-6.66699 -8.66699 -15.334 -15.834 -26.001 -21.501
s-21.667 -9.16699 -33 -10.5c-2 -0.666992 -3.83301 -1 -5.5 -1h-5.5c-35.333 0 -61.833 11.167 -79.5 33.5s-30.5 47.5 -38.5 75.5c-4.66699 14 -8.16699 28 -10.5 42s-4.16602 26.333 -5.49902 37c-6 43.333 -14.667 81 -26 113s-36.666 56 -75.999 72v0z" />
    <glyph glyph-name="N" horiz-adv-x="640" 
d="M528 520l-196.002 0.00195312c-3.33301 -14 -6 -25.833 -8 -35.5s-4 -19.167 -6 -28.5v-0.5c0 -0.333008 -0.333008 -0.833008 -1 -1.5c-1.33301 -7.33301 -2.83301 -15 -4.5 -23s-3.5 -17 -5.5 -27c-3.33301 -17.333 -6 -31 -8 -41s-4 -19 -6 -27v-1v0
c-0.666992 -3.33301 -1.5 -6.83301 -2.5 -10.5s-1.83301 -7.5 -2.5 -11.5c45.333 57.333 81.666 94.5 108.999 111.5s50.333 25.5 69 25.5c22.667 0 40.334 -7.5 53.001 -22.5s19 -32.5 19 -52.5c0 -4 -0.5 -12 -1.5 -24s-4.83301 -30.667 -11.5 -56l-54 -219
c-0.666992 -2.66699 -1.33398 -5.83398 -2.00098 -9.50098s-1 -7.16699 -1 -10.5c-0.666992 -1.33301 -1 -2.83301 -1 -4.5v-5.5c0 -8.66699 1.5 -16.167 4.5 -22.5s8.5 -9.5 16.5 -9.5s16.333 2.66699 25 8s17.334 12.666 26.001 21.999
c8.66699 8.66699 17.167 18.5 25.5 29.5s16.5 22.5 24.5 34.5c6.66699 9.33301 12.834 18.666 18.501 27.999s10.834 18 15.501 26l17 -9c-0.666992 -1.33301 -1.5 -2.66602 -2.5 -3.99902s-1.83301 -2.66602 -2.5 -3.99902c-22.667 -40 -48 -76.333 -76 -109
s-57.667 -49 -89 -49c-15.333 0 -27.833 4 -37.5 12s-14.5 20.333 -14.5 37v8.5c0 3 0.333008 6.16699 1 9.5c0 6 0.5 11.833 1.5 17.5s1.83301 10.834 2.5 15.501c0.666992 3.33301 1.16699 6.16602 1.5 8.49902s0.833008 4.5 1.5 6.5l51 209
c0.666992 2.66699 1.5 6.5 2.5 11.5s2.16699 10.167 3.5 15.5c0 1.33301 0.166992 2.5 0.5 3.5s0.5 2.16699 0.5 3.5c2 7.33301 3.5 14.166 4.5 20.499s1.5 10.833 1.5 13.5c0 12 -2 21.333 -6 28s-8.33301 11.334 -13 14.001c-2 1.33301 -4 2.16602 -6 2.49902
s-3.66699 0.5 -5 0.5c-10.667 0 -22.834 -4 -36.501 -12s-27.5 -18.333 -41.5 -31c-8 -6.66699 -16 -14 -24 -22s-15.667 -16.333 -23 -25c-12.667 -13.333 -24.167 -26.5 -34.5 -39.5s-18.5 -23.833 -24.5 -32.5c-4 -15.333 -8.16699 -32.666 -12.5 -51.999
s-9.83301 -39 -16.5 -59c-12.667 -41.333 -30.334 -79 -53.001 -113s-54 -51 -94 -51c-22.667 0 -39.167 4.83301 -49.5 14.5s-17.166 20.5 -20.499 32.5c-0.666992 2.66699 -1.16699 5.66699 -1.5 9s-0.5 6.33301 -0.5 9c0 6 0.666992 11.333 2 16s3 8.66699 5 12h18
c-0.666992 -1.33301 -1.33398 -2.5 -2.00098 -3.5s-1.33398 -2.16699 -2.00098 -3.5c-1.33301 -3.33301 -2.16602 -6.66602 -2.49902 -9.99902s-0.5 -7 -0.5 -11c0 -16.667 4.66699 -28.834 14 -36.501s22.333 -11.5 39 -11.5c12.667 0 24.834 3.5 36.501 10.5
s22.167 20.833 31.5 41.5c3.33301 8 6.66602 15.833 9.99902 23.5s6.33301 15.5 9 23.5c7.33301 22 13.166 44 17.499 66s8.5 45.333 12.5 70c6 38 13.333 79.667 22 125s22.667 97.333 42 156h-101v21h107c3.33301 9.33301 7.33301 20.166 12 32.499
s10.334 24.833 17.001 37.5s14 24.834 22 36.501s17 22.167 27 31.5l-2 7h-2h-1h-2h-2c-69.333 0 -132.666 -25.167 -189.999 -75.5s-86 -109.5 -86 -177.5c0 -8 2.16699 -21.667 6.5 -41s14.833 -39.333 31.5 -60c2 -3.33301 4.33301 -6.5 7 -9.5s5.66699 -6.16699 9 -9.5
l-11 -11c-10 9.33301 -18.667 19.166 -26 29.499s-13.666 20.833 -18.999 31.5c-5.33301 12.667 -9.33301 25 -12 37s-4 23 -4 33v10c0 3.33301 0.333008 6.66602 1 9.99902c6 60 35.167 115.5 87.5 166.5s119.166 77.833 200.499 80.5h6.5h7.5h7.5h6.5h7.5
c2.33301 0 4.83301 -0.333008 7.5 -1c1.33301 0 2.83301 -0.166992 4.5 -0.5s3.5 -0.833008 5.5 -1.5v-11l-5 -1c-7.33301 -2 -16.166 -10.667 -26.499 -26s-21.833 -54.666 -34.5 -117.999h191v-21v0z" />
    <glyph glyph-name="N" unicode="&#x40b;" horiz-adv-x="640" 
d="M528 520l-196.002 0.00195312c-3.33301 -14 -6 -25.833 -8 -35.5s-4 -19.167 -6 -28.5v-0.5c0 -0.333008 -0.333008 -0.833008 -1 -1.5c-1.33301 -7.33301 -2.83301 -15 -4.5 -23s-3.5 -17 -5.5 -27c-3.33301 -17.333 -6 -31 -8 -41s-4 -19 -6 -27v-1v0
c-0.666992 -3.33301 -1.5 -6.83301 -2.5 -10.5s-1.83301 -7.5 -2.5 -11.5c45.333 57.333 81.666 94.5 108.999 111.5s50.333 25.5 69 25.5c22.667 0 40.334 -7.5 53.001 -22.5s19 -32.5 19 -52.5c0 -4 -0.5 -12 -1.5 -24s-4.83301 -30.667 -11.5 -56l-54 -219
c-0.666992 -2.66699 -1.33398 -5.83398 -2.00098 -9.50098s-1 -7.16699 -1 -10.5c-0.666992 -1.33301 -1 -2.83301 -1 -4.5v-5.5c0 -8.66699 1.5 -16.167 4.5 -22.5s8.5 -9.5 16.5 -9.5s16.333 2.66699 25 8s17.334 12.666 26.001 21.999
c8.66699 8.66699 17.167 18.5 25.5 29.5s16.5 22.5 24.5 34.5c6.66699 9.33301 12.834 18.666 18.501 27.999s10.834 18 15.501 26l17 -9c-0.666992 -1.33301 -1.5 -2.66602 -2.5 -3.99902s-1.83301 -2.66602 -2.5 -3.99902c-22.667 -40 -48 -76.333 -76 -109
s-57.667 -49 -89 -49c-15.333 0 -27.833 4 -37.5 12s-14.5 20.333 -14.5 37v8.5c0 3 0.333008 6.16699 1 9.5c0 6 0.5 11.833 1.5 17.5s1.83301 10.834 2.5 15.501c0.666992 3.33301 1.16699 6.16602 1.5 8.49902s0.833008 4.5 1.5 6.5l51 209
c0.666992 2.66699 1.5 6.5 2.5 11.5s2.16699 10.167 3.5 15.5c0 1.33301 0.166992 2.5 0.5 3.5s0.5 2.16699 0.5 3.5c2 7.33301 3.5 14.166 4.5 20.499s1.5 10.833 1.5 13.5c0 12 -2 21.333 -6 28s-8.33301 11.334 -13 14.001c-2 1.33301 -4 2.16602 -6 2.49902
s-3.66699 0.5 -5 0.5c-10.667 0 -22.834 -4 -36.501 -12s-27.5 -18.333 -41.5 -31c-8 -6.66699 -16 -14 -24 -22s-15.667 -16.333 -23 -25c-12.667 -13.333 -24.167 -26.5 -34.5 -39.5s-18.5 -23.833 -24.5 -32.5c-4 -15.333 -8.16699 -32.666 -12.5 -51.999
s-9.83301 -39 -16.5 -59c-12.667 -41.333 -30.334 -79 -53.001 -113s-54 -51 -94 -51c-22.667 0 -39.167 4.83301 -49.5 14.5s-17.166 20.5 -20.499 32.5c-0.666992 2.66699 -1.16699 5.66699 -1.5 9s-0.5 6.33301 -0.5 9c0 6 0.666992 11.333 2 16s3 8.66699 5 12h18
c-0.666992 -1.33301 -1.33398 -2.5 -2.00098 -3.5s-1.33398 -2.16699 -2.00098 -3.5c-1.33301 -3.33301 -2.16602 -6.66602 -2.49902 -9.99902s-0.5 -7 -0.5 -11c0 -16.667 4.66699 -28.834 14 -36.501s22.333 -11.5 39 -11.5c12.667 0 24.834 3.5 36.501 10.5
s22.167 20.833 31.5 41.5c3.33301 8 6.66602 15.833 9.99902 23.5s6.33301 15.5 9 23.5c7.33301 22 13.166 44 17.499 66s8.5 45.333 12.5 70c6 38 13.333 79.667 22 125s22.667 97.333 42 156h-101v21h107c3.33301 9.33301 7.33301 20.166 12 32.499
s10.334 24.833 17.001 37.5s14 24.834 22 36.501s17 22.167 27 31.5l-2 7h-2h-1h-2h-2c-69.333 0 -132.666 -25.167 -189.999 -75.5s-86 -109.5 -86 -177.5c0 -8 2.16699 -21.667 6.5 -41s14.833 -39.333 31.5 -60c2 -3.33301 4.33301 -6.5 7 -9.5s5.66699 -6.16699 9 -9.5
l-11 -11c-10 9.33301 -18.667 19.166 -26 29.499s-13.666 20.833 -18.999 31.5c-5.33301 12.667 -9.33301 25 -12 37s-4 23 -4 33v10c0 3.33301 0.333008 6.66602 1 9.99902c6 60 35.167 115.5 87.5 166.5s119.166 77.833 200.499 80.5h6.5h7.5h7.5h6.5h7.5
c2.33301 0 4.83301 -0.333008 7.5 -1c1.33301 0 2.83301 -0.166992 4.5 -0.5s3.5 -0.833008 5.5 -1.5v-11l-5 -1c-7.33301 -2 -16.166 -10.667 -26.499 -26s-21.833 -54.666 -34.5 -117.999h191v-21v0z" />
    <glyph glyph-name="bullet" horiz-adv-x="786" 
d="M523 142h16c-9.33301 -8 -18 -16.5 -26 -25.5s-15.667 -19.167 -23 -30.5c-13.333 -19.333 -27.5 -43.833 -42.5 -73.5s-33.5 -68.5 -55.5 -116.5c-3.33301 -8 -8.66602 -19.5 -15.999 -34.5s-16 -30.833 -26 -47.5c-14 -22.667 -30.667 -43.5 -50 -62.5
s-41 -28.5 -65 -28.5c-4 0 -8.66699 0.333008 -14 1l-16 2c-3.33301 1.33301 -6.66602 2.5 -9.99902 3.5s-6.66602 2.16699 -9.99902 3.5v15c2.66699 -0.666992 5.66699 -1.66699 9 -3s7 -2.33301 11 -3c3.33301 -1.33301 6.66602 -2.16602 9.99902 -2.49902
s6.33301 -0.5 9 -0.5c22.667 0 42.167 13.5 58.5 40.5s31.166 56.5 44.499 88.5c3.33301 7.33301 6.5 14.666 9.5 21.999s5.83301 14.333 8.5 21c19.333 45.333 42.166 88.333 68.499 129s62.833 74.667 109.5 102v0zM504 0l-0.00195312 18.002h37h2h2h1h2
c4.66699 0 9.5 0.666992 14.5 2s10.167 5 15.5 11l0.5 0.5l0.5 0.5v0l1 1c4.66699 5.33301 11.834 23.5 21.501 54.5s32.834 118.5 69.501 262.5l41 162l-8 4c-12.667 -25.333 -33.167 -60.5 -61.5 -105.5s-60.833 -92.167 -97.5 -141.5
c-19.333 -26 -39.666 -52 -60.999 -78s-43 -50.333 -65 -73c-36 -38 -71.5 -69.333 -106.5 -94s-66.167 -37 -93.5 -37c-20.667 0 -35 5.33301 -43 16s-13 22.334 -15 35.001c-0.666992 5.33301 -1.16699 10.333 -1.5 15s-0.5 9 -0.5 13c0 6 0.666992 12.833 2 20.5
s3 15.5 5 23.5c0.666992 4 1.5 7.83301 2.5 11.5s1.83301 7.16699 2.5 10.5c2.66699 10 5.16699 18.833 7.5 26.5s3.83301 12.167 4.5 13.5l74 238c29.333 93.333 52.666 155.5 69.999 186.5s32 52.833 44 65.5c2 2 3.5 3.66699 4.5 5s2.16699 2.66602 3.5 3.99902v0.5v0.5
l2 2l2 2v6c-4 0.666992 -8 1 -12 1h-13h-8c-2.66699 0 -5.66699 -0.333008 -9 -1c-63.333 -4 -121.333 -29.333 -174 -76s-79 -100.334 -79 -161.001v-5.5v-5.5c2 -20 7.16699 -39.833 15.5 -59.5s18.833 -37.167 31.5 -52.5l-11 -11
c-15.333 16.667 -28.166 36.167 -38.499 58.5s-15.5 47.5 -15.5 75.5c0 70.667 26.167 127.5 78.5 170.5s109.833 69.5 172.5 79.5c9.33301 2 18.666 3.33301 27.999 4s18.666 1 27.999 1c6.66699 0 13 -0.333008 19 -1s11.667 -1.33398 17 -2.00098
c3.33301 -0.666992 6.5 -1.33398 9.5 -2.00098s5.83301 -1.33398 8.5 -2.00098l-1 -13c-0.666992 0.666992 -1.5 1 -2.5 1h-3.5h-1.5c-0.333008 0 -1.16602 -0.333008 -2.49902 -1s-2.33301 -1.33398 -3 -2.00098s-1.66699 -1.33398 -3 -2.00098
c-6.66699 -6.66699 -15.667 -27.334 -27 -62.001s-33 -102.667 -65 -204l-78 -247c-10.667 -34.667 -18.5 -60.5 -23.5 -77.5s-7.5 -31.833 -7.5 -44.5c0 -1.33301 0.166992 -3.16602 0.5 -5.49902s0.833008 -4.83301 1.5 -7.5c1.33301 -3.33301 3.66602 -6.5 6.99902 -9.5
s8.33301 -4.5 15 -4.5c13.333 0 32.333 8 57 24s59.334 46.333 104.001 91c8 8 15.667 15.833 23 23.5s14.333 15.5 21 23.5c84 93.333 147.833 179.5 191.5 258.5s67.5 122.5 71.5 130.5c9.33301 19.333 17.833 36.5 25.5 51.5s15.5 27.833 23.5 38.5
c11.333 16 23.333 27.5 36 34.5s28 10.5 46 10.5h4h4c2.66699 -0.666992 5.33398 -1.66699 8.00098 -3s4 -3.66602 4 -6.99902c0 -2 -0.666992 -3.66699 -2 -5s-3.33301 -2.33301 -6 -3c-4 -1.33301 -8.83301 -3.16602 -14.5 -5.49902s-11.5 -6.83301 -17.5 -13.5l-6 -8
c-2 -2.66699 -4 -6 -6 -10c-2 -4.66699 -4.66699 -12.167 -8 -22.5s-6.66602 -21.5 -9.99902 -33.5c-1.33301 -3.33301 -2.33301 -6.5 -3 -9.5s-1.33398 -5.83301 -2.00098 -8.5c-3.33301 -12 -6.33301 -23.667 -9 -35s-5 -20.666 -7 -27.999c-10.667 -50 -20 -94 -28 -132
s-16 -72.333 -24 -103c-8 -32 -16.333 -60.833 -25 -86.5s-18.667 -50.167 -30 -73.5c-16.667 -33.333 -29.834 -54.833 -39.501 -64.5s-14.5 -16.5 -14.5 -20.5c0 -2 0.666992 -3.66699 2 -5s3 -2.66602 5 -3.99902c0.666992 0 1.16699 -0.166992 1.5 -0.5
s0.833008 -0.5 1.5 -0.5h2h2h0.5h0.5h1.5h1.5h2h2h4h4h113v-18h-243v0z" />
    </font>
</defs>
</svg>
