<?xml version="1.0" standalone="no"?>
<!DOCTYPE svg PUBLIC "-//W3C//DTD SVG 1.1//EN" "http://www.w3.org/Graphics/SVG/1.1/DTD/svg11.dtd" >
<svg xmlns="http://www.w3.org/2000/svg" xmlns:xlink="http://www.w3.org/1999/xlink" version="1.1">
<metadata>
Created by FontForge 20170910 at Fri Jan  1 01:00:00 1904
 By jimmywarting
Copyright 1991, Atech Software, Carlsbad CA 
</metadata>
<defs>
<font id="Futuris-Italic" horiz-adv-x="498" >
  <font-face 
    font-family="Futuris"
    font-weight="400"
    font-style="italic"
    font-stretch="normal"
    units-per-em="1000"
    panose-1="0 0 0 0 0 0 0 0 0 0"
    ascent="800"
    descent="-200"
    x-height="434"
    cap-height="700"
    bbox="-56 -224 1203.96 851.004"
    underline-thickness="50"
    underline-position="-105"
    slope="23853"
    unicode-range="U+0020-2219"
  />
<missing-glyph 
d="M74 0l116 434h60l-104 -386h230l104 386h60l-116 -434h-147l-34 -126h-56l34 126h-147v0v0z" />
    <glyph glyph-name=".notdef" 
d="M74 0l116 434h60l-104 -386h230l104 386h60l-116 -434h-147l-34 -126h-56l34 126h-147v0v0z" />
    <glyph glyph-name="space" unicode=" " horiz-adv-x="351" 
 />
    <glyph glyph-name="exclam" unicode="!" horiz-adv-x="232" 
d="M79 35c1.33301 6 3.83203 11.667 7.49902 17s8.16699 10.333 13.5 15c6 4.66699 12 8.16699 18 10.5s12.333 3.5 19 3.5c6 0 11.5 -1.16699 16.5 -3.5s9.16699 -5.5 12.5 -9.5c3.33301 -4.66699 5.33301 -9.66699 6 -15s0.333984 -11.333 -0.999023 -18
c-2 -6.66699 -5 -12.667 -9 -18s-8.66699 -10 -14 -14c-5.33301 -3.33301 -11 -6.16602 -17 -8.49902s-12 -3.5 -18 -3.5c-6.66699 0 -12.5 1.16699 -17.5 3.5s-9.16699 5.16602 -12.5 8.49902c-3.33301 4 -5.33301 8.66699 -6 14s0 11.333 2 18v0v0zM122.999 140l150 560
h60l-150 -560h-60v0v0z" />
    <glyph glyph-name="quotedbl" unicode="&#x22;" horiz-adv-x="338" 
d="M335 700l-83 -203h-42l27 203h98v0v0zM475 700l-83 -203h-42l27 203h98v0v0z" />
    <glyph glyph-name="numbersign" unicode="#" horiz-adv-x="796" 
d="M281 515h136l64 145h56l-64 -145h181l64 145h56l-64 -145h135l-30 -68h-135l-85 -194h134l-29 -68h-135l-64 -145h-56l64 145h-181l-64 -145h-56l64 145h-135l29 68h136l85 194h-135l29 68v0v0zM539 253l85 194h-181l-85 -194h181v0v0z" />
    <glyph glyph-name="dollar" unicode="$" horiz-adv-x="521" 
d="M280 -18l-27.0029 -101.007h-54l27 101c-19.333 2.66699 -37.5 7.16699 -54.5 13.5s-33.167 14.833 -48.5 25.5c-14.667 11.333 -26.834 26.833 -36.501 46.5s-17.167 42.834 -22.5 69.501l73 32c0 -4 0.333008 -8 1 -12s1.33398 -8.33301 2.00098 -13
c1.33301 -4.66699 2.66602 -9.16699 3.99902 -13.5s3.33301 -9.16602 6 -14.499c3.33301 -9.33301 8.5 -18.333 15.5 -27s15.167 -17 24.5 -25c8.66699 -8 19.834 -13.833 33.501 -17.5s29.5 -5.5 47.5 -5.5c22 0 43 3.66699 63 11s38.333 18.333 55 33
c17.333 14.667 31.666 30.667 42.999 48s19.666 36.333 24.999 57c5.33301 20 7.16602 37.667 5.49902 53s-7.16699 28.333 -16.5 39c-8.66699 10.667 -18.5 20.334 -29.5 29.001s-22.5 16.334 -34.5 23.001c-2.66699 2 -5.5 3.83301 -8.5 5.5s-6.16699 3.16699 -9.5 4.5
s-6.5 2.83301 -9.5 4.5s-5.83301 3.5 -8.5 5.5h-1.5h-0.5v0v1v0v0c-20.667 11.333 -39.834 23.5 -57.501 36.5s-33.834 26.5 -48.501 40.5c-14 14 -22.667 31.333 -26 52s-1.66602 44.334 5.00098 71.001c6 22 14.167 41.333 24.5 58s22.833 31 37.5 43
c5.33301 4 10.333 7.83301 15 11.5s9.66699 6.83398 15 9.50098c10 6.66699 20 12.334 30 17.001s20 8.66699 30 12c2 0.666992 4.16699 1.33398 6.5 2.00098s4.83301 1.33398 7.5 2.00098c2.66699 0 5.16699 0.333008 7.5 1s4.5 1.33398 6.5 2.00098
c4 1.33301 8.16699 2.16602 12.5 2.49902s8.83301 0.833008 13.5 1.5l23 88h54l-23 -88c4 -0.666992 8.5 -1.16699 13.5 -1.5s9.83301 -1.16602 14.5 -2.49902c4.66699 -0.666992 9.33398 -1.83398 14.001 -3.50098s9.33398 -3.5 14.001 -5.5
c5.33301 -2 10.5 -4.66699 15.5 -8s9.83301 -7 14.5 -11c2.66699 -2 5.16699 -4 7.5 -6s4.83301 -4.33301 7.5 -7c6.66699 -7.33301 12.334 -16 17.001 -26s8.66699 -21.333 12 -34l-63 -32c-2 8.66699 -4.33301 16.5 -7 23.5s-5.66699 12.833 -9 17.5
c-3.33301 5.33301 -7.16602 10 -11.499 14s-9.16602 7.33301 -14.499 10c-6 3.33301 -11.833 6 -17.5 8s-11.167 3.33301 -16.5 4c-6 1.33301 -11.333 2.16602 -16 2.49902s-8.66699 0.5 -12 0.5c-18.667 0 -35.667 -2 -51 -6s-28.666 -10 -39.999 -18
c-10.667 -8 -20.167 -16.167 -28.5 -24.5s-14.833 -17.166 -19.5 -26.499c-1.33301 -2.66699 -2.5 -5.16699 -3.5 -7.5s-2.16699 -4.5 -3.5 -6.5c-0.666992 -2.66699 -1.33398 -5.16699 -2.00098 -7.5s-1.33398 -4.5 -2.00098 -6.5
c-4.66699 -17.333 -5.66699 -32.833 -3 -46.5s9.33398 -25.5 20.001 -35.5c10 -10 21 -19.333 33 -28s24.667 -16.667 38 -24c0.666992 -0.666992 1.5 -1.16699 2.5 -1.5s1.83301 -0.833008 2.5 -1.5c1.33301 -0.666992 2.83301 -1.5 4.5 -2.5s3.5 -1.83301 5.5 -2.5
c0.666992 -0.666992 1.5 -1.16699 2.5 -1.5s1.83301 -0.833008 2.5 -1.5c1.33301 -0.666992 2.83301 -1.5 4.5 -2.5s3.5 -1.83301 5.5 -2.5c0.666992 -0.666992 1.33398 -1.16699 2.00098 -1.5s1.33398 -0.833008 2.00098 -1.5s1.5 -1.16699 2.5 -1.5s1.83301 -0.5 2.5 -0.5
c18.667 -10 35.834 -21.167 51.501 -33.5s30.5 -25.833 44.5 -40.5c13.333 -14.667 21.666 -33.167 24.999 -55.5s0.666016 -48.5 -8.00098 -78.5c-6.66699 -27.333 -17.667 -53 -33 -77s-34.666 -46 -57.999 -66c-23.333 -20.667 -48.333 -36.334 -75 -47.001
s-54.667 -17.334 -84 -20.001v-2v0z" />
    <glyph glyph-name="percent" unicode="%" horiz-adv-x="792" 
d="M145 -21l612 742h49l-612 -742h-49v0v0zM488 161c6.66699 24 16.5 45.668 29.5 65.001s29.833 36.333 50.5 51c10 7.33301 20 13.666 30 18.999s20.333 10 31 14c10 4 20 7 30 9s20 3 30 3v0h1v0v0h0.5h1.5c21.333 0 40.333 -4 57 -12s31 -19.667 43 -35
s19.5 -32.5 22.5 -51.5s1.5 -39.833 -4.5 -62.5c-6 -21.333 -15.5 -41.5 -28.5 -60.5s-29.5 -36.5 -49.5 -52.5s-40.5 -28 -61.5 -36s-42.5 -12 -64.5 -12c-22.667 -0 -42.5 3.83301 -59.5 11.5s-31.167 19.5 -42.5 35.5c-12 15.333 -19.167 32.5 -21.5 51.5
s-0.5 39.833 5.5 62.5v0v0zM544 161.001c-4 -14.667 -5.33301 -28.667 -4 -42s5.33301 -25.666 12 -36.999c7.33301 -11.333 16.5 -19.833 27.5 -25.5s23.833 -8.5 38.5 -8.5c14 0 28 2.66699 42 8s27.667 13.333 41 24c13.333 11.333 24.333 23.666 33 36.999
s15.334 28 20.001 44c4 15.333 5.16699 29.666 3.5 42.999s-6.16699 25.333 -13.5 36c-6.66699 11.333 -15.5 19.833 -26.5 25.5s-23.833 8.5 -38.5 8.5s-29 -2.83301 -43 -8.5s-27.667 -14.167 -41 -25.5c-12.667 -10.667 -23.334 -22.667 -32.001 -36
s-15 -27.666 -19 -42.999v0v0zM173 553.001c6.66699 24 16.5 45.667 29.5 65s29.833 36.333 50.5 51s41 25.667 61 33s40 11.333 60 12v0h1v0v0h0.5h1.5c21.333 0 40.5 -4 57.5 -12s31.167 -19.667 42.5 -35c12 -15.333 19.5 -32.5 22.5 -51.5s1.5 -39.833 -4.5 -62.5
c-6 -21.333 -15.5 -41.5 -28.5 -60.5s-29.5 -36.5 -49.5 -52.5s-40.5 -28 -61.5 -36s-42.5 -12 -64.5 -12c-22.667 0 -42.5 3.83301 -59.5 11.5s-31.167 19.5 -42.5 35.5c-12 15.333 -19.167 32.5 -21.5 51.5s-0.5 39.833 5.5 62.5v0v0zM229 553.001
c-4.66699 -16 -6.16797 -30.667 -4.50098 -44s6.16699 -25.666 13.5 -36.999c7.33301 -10.667 16.333 -18.667 27 -24s23.334 -8 38.001 -8c14 0 28 2.66699 42 8s27.667 13.333 41 24c13.333 11.333 24.333 23.666 33 36.999s15.334 28 20.001 44
c4 16 5.16699 30.667 3.5 44s-6.16699 25.333 -13.5 36c-7.33301 11.333 -16.5 19.666 -27.5 24.999s-23.5 8 -37.5 8c-14.667 0 -28.834 -2.66699 -42.501 -8s-27.167 -13.666 -40.5 -24.999c-13.333 -10.667 -24.333 -22.667 -33 -36s-15 -28 -19 -44v0v0z" />
    <glyph glyph-name="ampersand" unicode="&#x26;" horiz-adv-x="625" 
d="M544 0l-53.0049 100.996c-2.66699 -2.66699 -6 -5.83398 -10 -9.50098s-8.66699 -7.5 -14 -11.5c-4.66699 -4 -9.83398 -8.16699 -15.501 -12.5s-11.167 -8.83301 -16.5 -13.5c-1.33301 -0.666992 -2.66602 -1.5 -3.99902 -2.5s-2.66602 -2.16699 -3.99902 -3.5
c-1.33301 -0.666992 -2.66602 -1.5 -3.99902 -2.5s-2.66602 -2.16699 -3.99902 -3.5c-2.66699 -2 -5.16699 -4 -7.5 -6s-4.83301 -3.66699 -7.5 -5c-4.66699 -3.33301 -9.5 -6.5 -14.5 -9.5s-9.83301 -5.83301 -14.5 -8.5s-9.33398 -5.16699 -14.001 -7.5
s-8.66699 -4.16602 -12 -5.49902c-8.66699 -2.66699 -17 -5.16699 -25 -7.5s-16 -3.83301 -24 -4.5c-8.66699 -1.33301 -17.167 -2.33301 -25.5 -3s-17.166 -1 -26.499 -1c-30.667 0 -57 3.83301 -79 11.5s-38.667 19.167 -50 34.5c-12.667 16 -21.667 32.833 -27 50.5
s-7.33301 35.834 -6 54.501v4.5v5.5c0 1.33301 0.166992 2.83301 0.5 4.5s0.833008 3.16699 1.5 4.5c0 3.33301 0.5 6.66602 1.5 9.99902s1.83301 6.66602 2.5 9.99902c7.33301 26 17.333 49.5 30 70.5s28.334 39.5 47.001 55.5s39 31.5 61 46.5s46 29.833 72 44.5
c1.33301 0.666992 2.5 1.33398 3.5 2.00098s2.16699 1.33398 3.5 2.00098c0.666992 0 1.66699 0.333008 3 1s2.33301 1.33398 3 2.00098c1.33301 0.666992 2.5 1.33398 3.5 2.00098s2.16699 1.33398 3.5 2.00098s2.5 1.33398 3.5 2.00098s2.16699 1.33398 3.5 2.00098
c-2 3.33301 -4 6.83301 -6 10.5s-4 7.16699 -6 10.5c-0.666992 0.666992 -1.16699 1.33398 -1.5 2.00098l-1.5 3c-2 2 -3.66699 4.5 -5 7.5s-2.33301 5.83301 -3 8.5c-4.66699 9.33301 -8.66699 18.5 -12 27.5s-6 17.833 -8 26.5c-2 9.33301 -2.66699 19 -2 29
s2.33398 20.333 5.00098 31c5.33301 21.333 14.166 40.166 26.499 56.499s27.833 30.833 46.5 43.5c19.333 12.667 38.666 22.167 57.999 28.5s39 9.5 59 9.5c23.333 0 42.833 -3.5 58.5 -10.5s27.167 -17.167 34.5 -30.5c7.33301 -14 11.833 -29 13.5 -45
s-0.166016 -33 -5.49902 -51c-0.666992 -4.66699 -2 -9.33398 -4 -14.001s-4 -9 -6 -13c-0.666992 -2 -1.66699 -4 -3 -6s-2.33301 -4 -3 -6c-1.33301 -2.66699 -2.66602 -5 -3.99902 -7l-4 -6c-6 -8.66699 -13.667 -17.5 -23 -26.5s-19.666 -18.167 -30.999 -27.5
c-11.333 -8.66699 -24.833 -18.334 -40.5 -29.001s-33.834 -22 -54.501 -34l111 -209l124 111l33 -34l-134 -120l73 -142h-70v0v0zM467.995 141.996l-118.003 222.999c-7.33301 -4.66699 -14.666 -9.16699 -21.999 -13.5s-14.333 -8.5 -21 -12.5l-10 -6l-10 -6
c-2.66699 -2.66699 -5.5 -5 -8.5 -7s-6.16699 -4 -9.5 -6c-14.667 -9.33301 -27.834 -19 -39.501 -29s-22.167 -20.333 -31.5 -31c-10 -10.667 -18.333 -22.667 -25 -36s-12.334 -28 -17.001 -44c-4.66699 -18.667 -5.83398 -36.5 -3.50098 -53.5s8.5 -32.833 18.5 -47.5
s22.667 -25.5 38 -32.5s33.333 -10.5 54 -10.5c6 0 11.667 0.333008 17 1s10.333 1.33398 15 2.00098l8 2l8 2c2.66699 0.666992 5.33398 1.5 8.00098 2.5s5.33398 1.83301 8.00098 2.5c9.33301 4 18.833 8.83301 28.5 14.5s19.834 12.5 30.501 20.5
s22.834 17.333 36.501 28s28.834 23 45.501 37v0v0zM386.992 432.995c2 1.33301 3.83203 2.49902 5.49902 3.49902s3.5 1.83301 5.5 2.5c2 1.33301 3.83301 2.5 5.5 3.5s3.5 1.83301 5.5 2.5c2 1.33301 3.83301 2.5 5.5 3.5s3.5 2.16699 5.5 3.5
c1.33301 0.666992 2.83301 1.66699 4.5 3s3.5 2.33301 5.5 3c11.333 7.33301 22 15 32 23s18.333 16 25 24c7.33301 8 13.833 17.167 19.5 27.5s9.83398 21.5 12.501 33.5c3.33301 10.667 4.33301 21 3 31s-4.33301 19.333 -9 28
c-4.66699 9.33301 -11.334 16.166 -20.001 20.499s-18.667 6.5 -30 6.5h-1.5h-0.5v0v0h-1v0c-5.33301 0 -10.666 -0.666992 -15.999 -2s-10.666 -3 -15.999 -5c-6 -2 -11.667 -4.33301 -17 -7s-10.666 -6 -15.999 -10c-10.667 -7.33301 -19.834 -16.5 -27.501 -27.5
s-13.5 -23.5 -17.5 -37.5c0 -1.33301 -0.166992 -2.83301 -0.5 -4.5s-0.833008 -3.16699 -1.5 -4.5s-1 -2.83301 -1 -4.5s0.333008 -3.16699 1 -4.5c-0.666992 -6.66699 -0.833984 -13.5 -0.500977 -20.5s1.5 -14.167 3.5 -21.5c0.666992 -2 1.5 -4.16699 2.5 -6.5
s1.83301 -4.83301 2.5 -7.5c1.33301 -4 2.83301 -8 4.5 -12s3.5 -8 5.5 -12c0.666992 -2 1.5 -3.66699 2.5 -5s1.83301 -3 2.5 -5c0.666992 -1.33301 1.5 -2.66602 2.5 -3.99902s1.83301 -2.66602 2.5 -3.99902c2 -2.66699 4 -5.16699 6 -7.5s3.66699 -4.5 5 -6.5v0v0z" />
    <glyph glyph-name="quotesingle" unicode="'" horiz-adv-x="198" 
d="M335 700l-83 -203h-42l27 203h98v0v0z" />
    <glyph glyph-name="parenleft" unicode="(" horiz-adv-x="218" 
d="M133 -210l-51.002 -13c-0.666992 6.66699 -1.5 13 -2.5 19s-1.83301 11.667 -2.5 17c0 6 -0.333008 12 -1 18s-1 12 -1 18c-0.666992 12 -1.16699 23.833 -1.5 35.5s-0.166016 23.167 0.500977 34.5c-0.666992 30.667 0 61 2 91s5.33301 60 10 90
c4 30 8.83301 58.5 14.5 85.5s11.834 52.833 18.501 77.5c4.66699 16 9.5 32.5 14.5 49.5s10.5 33.833 16.5 50.5c6 17.333 12.333 34.5 19 51.5s13.667 34.167 21 51.5c10.667 24.667 21.834 49 33.501 73s23.834 48 36.501 72c13.333 24 26.666 47.333 39.999 70
s27.333 45 42 67l44 -13c-28.667 -50.667 -54.334 -98.5 -77.001 -143.5s-41.667 -87.5 -57 -127.5c-16 -40 -29.667 -76.667 -41 -110s-20.666 -63.666 -27.999 -90.999s-14.333 -57.833 -21 -91.5s-12.667 -70.5 -18 -110.5c-5.33301 -39.333 -8.83301 -81.333 -10.5 -126
s-1.83398 -92.334 -0.500977 -143.001v-2v0z" />
    <glyph glyph-name="parenright" unicode=")" horiz-adv-x="218" 
d="M224 735l51.9971 13.002c2.66699 -22 4.66699 -44.333 6 -67s2 -46 2 -70c-0.666992 -24 -1.5 -48 -2.5 -72s-2.83301 -48.333 -5.5 -73c-2 -17.333 -4.16699 -34.5 -6.5 -51.5s-5.16602 -34.167 -8.49902 -51.5c-2.66699 -16.667 -5.83398 -33.5 -9.50098 -50.5
s-7.83398 -33.5 -12.501 -49.5c-6.66699 -24.667 -14.667 -50.5 -24 -77.5s-19.666 -55.5 -30.999 -85.5c-12 -30 -25 -60 -39 -90s-29 -60.333 -45 -91c-6.66699 -11.333 -13.167 -22.833 -19.5 -34.5s-13.166 -23.5 -20.499 -35.5c-4 -6 -7.83301 -12 -11.5 -18
s-7.16699 -11.667 -10.5 -17c-3.33301 -6 -6.83301 -11.833 -10.5 -17.5s-7.5 -11.5 -11.5 -17.5l-44 11c32 57.333 59.667 109.666 83 156.999s42.333 90.333 57 129c14.667 39.333 27.334 74.666 38.001 105.999s19 58.333 25 81s12 49.5 18 80.5s12.333 66.167 19 105.5
s10.834 82.833 12.501 130.5s1.5 99.5 -0.5 155.5v0v0z" />
    <glyph glyph-name="asterisk" unicode="*" horiz-adv-x="407" 
d="M375 735h49l-33 -126l126 63l12 -42l-125 -63l92 -63l-36 -42l-92 63l-34 -126h-49l34 126l-125 -63l-13 42l125 63l-92 63l37 42l91 -63l33 126v0v0z" />
    <glyph glyph-name="plus" unicode="+" horiz-adv-x="600" 
d="M136 322l15 56h222l59 222h56l-59 -222h222l-15 -56h-222l-60 -222h-56l60 222h-222v0v0z" />
    <glyph glyph-name="comma" unicode="," horiz-adv-x="253" 
d="M10 -134l157 246l61 -33l-187 -230l-31 17v0v0z" />
    <glyph glyph-name="hyphen" unicode="-" horiz-adv-x="308" 
d="M119 288h224l-16 -60h-224l16 60v0v0z" />
    <glyph glyph-name="period" unicode="." horiz-adv-x="232" 
d="M79 35c1.33301 6.66699 3.83203 12.667 7.49902 18s8.5 10.333 14.5 15c5.33301 4 11 7.16699 17 9.5s12.333 3.5 19 3.5s12.5 -1.16699 17.5 -3.5s8.83301 -5.83301 11.5 -10.5c3.33301 -4.66699 5.33301 -9.66699 6 -15s0.333984 -11 -0.999023 -17
c-2 -6.66699 -4.83301 -12.667 -8.5 -18s-8.16699 -10 -13.5 -14c-5.33301 -3.33301 -11 -6.16602 -17 -8.49902s-12.333 -3.5 -19 -3.5s-12.5 1.16699 -17.5 3.5s-9.16699 5.16602 -12.5 8.49902c-3.33301 4 -5.33301 8.66699 -6 14s0 11.333 2 18v0v0z" />
    <glyph glyph-name="slash" unicode="/" horiz-adv-x="476" 
d="M-35 -210l630 945h56l-631 -945h-55v0v0z" />
    <glyph glyph-name="zero" unicode="0" horiz-adv-x="548" 
d="M268 -20c-6 1.33301 -12.334 2.32812 -19.001 2.99512s-14.667 1.66699 -24 3c-8.66699 1.33301 -17.167 3.83301 -25.5 7.5s-16.166 7.83398 -23.499 12.501c-12.667 9.33301 -23.834 22.5 -33.501 39.5s-17.167 38.5 -22.5 64.5c-6 25.333 -6.83301 58 -2.5 98
s13.833 87.333 28.5 142c14 52.667 29.333 98.5 46 137.5s34.334 71.167 53.001 96.5c19.333 25.333 37.833 46.833 55.5 64.5s34.834 31.5 51.501 41.5c13.333 7.33301 25.666 13.333 36.999 18s22 7.33398 32 8.00098c10.667 1.33301 19.667 2.33301 27 3s13.333 1 18 1
s10.5 -0.333008 17.5 -1s15.167 -1.66699 24.5 -3c10 -0.666992 19.667 -3.33398 29 -8.00098s18.333 -10.667 27 -18c11.333 -10 21.5 -23.833 30.5 -41.5s15.833 -39.167 20.5 -64.5c5.33301 -25.333 5.66602 -57.5 0.999023 -96.5s-14 -84.833 -28 -137.5
c-14.667 -54.667 -30.5 -102.167 -47.5 -142.5s-35.167 -73.166 -54.5 -98.499c-20 -25.333 -39.333 -46.666 -58 -63.999s-36.667 -30.666 -54 -39.999c-10.667 -4.66699 -21.167 -8.66699 -31.5 -12s-20.166 -5.66602 -29.499 -6.99902
c-8.66699 -1.33301 -17 -2.33301 -25 -3s-14.667 -1 -20 -1v-2v0zM282.999 34.9951l10.0029 0.000976562c3.33301 0 7 0.333008 11 1c3.33301 0.666992 7 1.5 11 2.5s8 2.16699 12 3.5c15.333 5.33301 31.166 14.666 47.499 27.999s32.833 31 49.5 53
c17.333 21.333 34 51 50 89s31.333 84 46 138c14.667 54.667 24.167 101 28.5 139s3.5 68 -2.5 90c-6.66699 21.333 -14.5 38.833 -23.5 52.5s-19.833 22.834 -32.5 27.501c-1.33301 0.666992 -2.83301 1.16699 -4.5 1.5s-3.16699 0.5 -4.5 0.5
c-2 0.666992 -3.83301 1.16699 -5.5 1.5s-3.16699 0.5 -4.5 0.5c-3.33301 0.666992 -6.5 1.16699 -9.5 1.5s-6.16699 0.5 -9.5 0.5c-4 0 -8.83301 -0.166992 -14.5 -0.5s-11.5 -1.16602 -17.5 -2.49902c-6.66699 -0.666992 -13.5 -2.5 -20.5 -5.5
s-14.167 -6.83301 -21.5 -11.5c-12.667 -8 -25.834 -19.333 -39.501 -34s-28.167 -33 -43.5 -55c-14.667 -22 -28.667 -50 -42 -84s-26.333 -74.667 -39 -122c-12.667 -46.667 -21.334 -87.334 -26.001 -122.001s-5.66699 -63 -3 -85c3.33301 -22 7.83301 -40.333 13.5 -55
s12.834 -25.667 21.501 -33c5.33301 -4.66699 10.666 -8.33398 15.999 -11.001s11 -4.66699 17 -6l16 -2c5.33301 -0.666992 10 -1 14 -1v0v0z" />
    <glyph glyph-name="one" unicode="1" horiz-adv-x="548" 
d="M265 0l172 644h-119l42 56h160l-187 -700h-68v0v0z" />
    <glyph glyph-name="two" unicode="2" horiz-adv-x="548" 
d="M502 56l-15.001 -55.9951h-437l214 179c39.333 32 73.5 60.667 102.5 86s53.5 47.333 73.5 66s37.333 36.667 52 54s27 34 37 50c3.33301 5.33301 6.16602 10.833 8.49902 16.5s4.83301 11.5 7.5 17.5c2.66699 5.33301 5 11 7 17s4 12.333 6 19
c6.66699 24.667 9.33398 46.667 8.00098 66s-6.33301 36 -15 50s-20.167 24.667 -34.5 32s-31.166 11 -50.499 11c-24 0 -45.833 -3.33301 -65.5 -10s-37.167 -16.667 -52.5 -30c-16 -13.333 -29.833 -27.333 -41.5 -42s-21.834 -30 -30.501 -46l-8 -16
c-2.66699 -5.33301 -4.66699 -10.666 -6 -15.999c-2 -4.66699 -3.66699 -9.5 -5 -14.5s-2.66602 -9.83301 -3.99902 -14.5h-68c8.66699 32 21.667 62.167 39 90.5s38.666 54.833 63.999 79.5c26 25.333 55.333 44.166 88 56.499s69.334 18.5 110.001 18.5
c31.333 0 58 -5.33301 80 -16s38.333 -26.667 49 -48c11.333 -20.667 17.833 -43.834 19.5 -69.501s-1.16602 -53.167 -8.49902 -82.5c-0.666992 -2.66699 -1.5 -5.33398 -2.5 -8.00098s-1.83301 -5 -2.5 -7c-1.33301 -5.33301 -2.83301 -10.333 -4.5 -15
s-3.5 -9.33398 -5.5 -14.001c-2.66699 -6.66699 -5.83398 -13.334 -9.50098 -20.001s-7.5 -13.334 -11.5 -20.001c-10.667 -16.667 -23 -33.5 -37 -50.5s-30.333 -34.5 -49 -52.5s-40.5 -38 -65.5 -60s-53.167 -46 -84.5 -72c-8.66699 -7.33301 -17 -14.333 -25 -21
s-15.333 -12.667 -22 -18c-7.33301 -6 -14.166 -11.5 -20.499 -16.5s-12.5 -10.167 -18.5 -15.5l-1.5 -1.5l-1.5 -1.5l-1.5 -1.5l-0.5 -0.5c-2.66699 -2 -5.16699 -4 -7.5 -6s-4.83301 -4 -7.5 -6c-2.66699 -2.66699 -5.16699 -5 -7.5 -7s-4.83301 -4 -7.5 -6
c-4.66699 -4 -9.83398 -8.33301 -15.501 -13s-11.167 -9.66699 -16.5 -15h301v0v0z" />
    <glyph glyph-name="three" unicode="3" horiz-adv-x="548" 
d="M96 175l66.9961 -0.00390625c0 -2 -0.166992 -3.83301 -0.5 -5.5s-0.833008 -3.16699 -1.5 -4.5c-0.666992 -2 -1.16699 -3.83301 -1.5 -5.5s-0.5 -3.16699 -0.5 -4.5c-0.666992 -3.33301 -1 -6.83301 -1 -10.5v-10.5c0.666992 -12.667 3.16699 -24.667 7.5 -36
s10.5 -22 18.5 -32c8.66699 -10 20.334 -17.5 35.001 -22.5s33 -7.5 55 -7.5c23.333 0 45.5 3.5 66.5 10.5s40.5 17.5 58.5 31.5c18.667 14 34.167 30 46.5 48s21.166 38 26.499 60c6 22.667 8.5 42.167 7.5 58.5s-5.5 29.833 -13.5 40.5
c-8.66699 10.667 -17.834 19.5 -27.501 26.5s-20.5 12.5 -32.5 16.5c-6 2 -12 3.5 -18 4.5s-12 1.83301 -18 2.5s-11.667 1.16699 -17 1.5s-10.666 0.5 -15.999 0.5h-4h-4h-2.5h-3.5l15 56h2h2h3.5h2.5c0.666992 -0.666992 1.33398 -1 2.00098 -1h2h3.5h2.5h10
c3.33301 0 7 0.333008 11 1c3.33301 0 6.83301 0.333008 10.5 1s7.5 1.33398 11.5 2.00098c14.667 2 29 6 43 12s28 13.667 42 23s26 21.833 36 37.5s18 34.5 24 56.5s7.83301 41.667 5.5 59s-8.16602 32 -17.499 44c-10.667 12 -23.5 21 -38.5 27s-32.167 9 -51.5 9
s-36.833 -2.5 -52.5 -7.5s-29.5 -12.167 -41.5 -21.5c-12.667 -10 -23.667 -20.333 -33 -31s-17.666 -21.667 -24.999 -33c-2 -4 -4 -7.66699 -6 -11s-3.66699 -6.66602 -5 -9.99902c-2 -3.33301 -3.66699 -6.66602 -5 -9.99902s-2.33301 -6.66602 -3 -9.99902h-63l4 12
c1.33301 4 3 8 5 12s4 8.16699 6 12.5s4.33301 8.83301 7 13.5c9.33301 17.333 21.5 34 36.5 50s31.833 31.333 50.5 46s40.334 25.667 65.001 33s52.334 11 83.001 11c27.333 0 51.5 -4 72.5 -12s38.833 -19.667 53.5 -35c14 -16 22.667 -35.5 26 -58.5s1 -49.833 -7 -80.5
c-1.33301 -4.66699 -2.83301 -9.16699 -4.5 -13.5s-3.16699 -8.83301 -4.5 -13.5c-0.666992 -2.66699 -1.5 -5.16699 -2.5 -7.5s-2.16699 -4.5 -3.5 -6.5c0 -1.33301 -0.166992 -2.33301 -0.5 -3s-0.833008 -1.33398 -1.5 -2.00098
c-0.666992 -2 -1.33398 -3.66699 -2.00098 -5s-1.33398 -3 -2.00098 -5c-6 -10.667 -13 -21.167 -21 -31.5s-17.333 -20.5 -28 -30.5s-23.167 -19.167 -37.5 -27.5s-30.833 -15.5 -49.5 -21.5l-1 -2c3.33301 -0.666992 6.83301 -1.83398 10.5 -3.50098
s7.83398 -3.16699 12.501 -4.5l12 -6c4 -2 8.33301 -4.33301 13 -7c8 -6 15.667 -13.5 23 -22.5s13.333 -19.5 18 -31.5c5.33301 -12 7.83301 -26.333 7.5 -43s-3.5 -35.667 -9.5 -57c-8 -30.667 -20.667 -58.667 -38 -84s-39 -47.666 -65 -66.999
s-54.167 -33.666 -84.5 -42.999s-62.5 -14 -96.5 -14c-34.667 0 -63.5 4.5 -86.5 13.5s-40.833 22.167 -53.5 39.5c-12 18 -20 37.167 -24 57.5s-4 41.833 0 64.5v4c0 1.33301 0.333008 2.66602 1 3.99902c0 0.666992 0.166992 1.33398 0.5 2.00098s0.5 1.66699 0.5 3
c0 0.666992 0.166992 1.5 0.5 2.5s0.5 1.83301 0.5 2.5v0v0z" />
    <glyph glyph-name="four" unicode="4" horiz-adv-x="548" 
d="M340 0l44 165h-315l511 555h16l-133 -499h74l-15 -56h-74l-44 -165h-64v0v0zM399 221l90 337l-305 -337h215v0v0z" />
    <glyph glyph-name="five" unicode="5" horiz-adv-x="548" 
d="M626 644l-226.994 -0.000976562l-110 -215c3.33301 1.33301 6.33301 2.5 9 3.5s5.33398 1.83301 8.00098 2.5c1.33301 0.666992 2.66602 1.16699 3.99902 1.5s2.66602 0.833008 3.99902 1.5c1.33301 0 2.66602 0.166992 3.99902 0.5s2.66602 0.833008 3.99902 1.5
c5.33301 1.33301 10.833 2.66602 16.5 3.99902s10.834 2.33301 15.501 3c5.33301 1.33301 10.666 2.16602 15.999 2.49902s10.333 0.5 15 0.5c27.333 0 52.333 -4.66699 75 -14s42.334 -23.666 59.001 -42.999c17.333 -18.667 27.833 -42.167 31.5 -70.5
s0.5 -61.166 -9.5 -98.499c-10 -36 -24 -68.5 -42 -97.5s-40.667 -54.833 -68 -77.5s-56.333 -39.5 -87 -50.5s-63.334 -16.5 -98.001 -16.5h-5.5h-4.5c-1.33301 0.666992 -2.83301 1 -4.5 1h-4.5c-3.33301 0 -6.66602 0.166992 -9.99902 0.5
s-6.66602 0.833008 -9.99902 1.5c-14.667 2.66699 -28.834 6.66699 -42.501 12s-26.834 13 -39.501 23s-23.5 23.167 -32.5 39.5s-16.167 35.833 -21.5 58.5l60 29c2 -8.66699 4.5 -17 7.5 -25s6.16699 -15 9.5 -21s6.66602 -11.667 9.99902 -17s7 -10 11 -14
c7.33301 -6.66699 14.5 -12.5 21.5 -17.5s14.5 -8.5 22.5 -10.5c7.33301 -2 14.833 -3.5 22.5 -4.5s14.834 -1.5 21.501 -1.5c28.667 0 54.667 4.66699 78 14s44 23.333 62 42c18 19.333 33.5 40.166 46.5 62.499s22.833 46.5 29.5 72.5
c7.33301 26.667 10.166 50.167 8.49902 70.5s-7.83398 37.833 -18.501 52.5c-10 14.667 -23.667 25.667 -41 33s-38.333 11 -63 11c-6.66699 0 -14 -0.333008 -22 -1s-16.667 -1.66699 -26 -3c-10 -0.666992 -20.167 -2.66699 -30.5 -6s-21.166 -7.66602 -32.499 -12.999
l-4 -2l-4 -2c-0.666992 -0.666992 -1.33398 -1.16699 -2.00098 -1.5s-1.33398 -0.5 -2.00098 -0.5c-2 -1.33301 -4 -2.5 -6 -3.5s-4 -2.16699 -6 -3.5c-3.33301 -2.66699 -7 -5.16699 -11 -7.5s-8 -5.16602 -12 -8.49902l-17 5l179 353h278l-15 -56v0v0z" />
    <glyph glyph-name="six" unicode="6" horiz-adv-x="548" 
d="M542 720l45.9951 -32.002l-284 -293c7.33301 3.33301 14.5 6.16602 21.5 8.49902s14.167 4.16602 21.5 5.49902s14.833 2.5 22.5 3.5s15.834 1.5 24.501 1.5c31.333 0 58.166 -5 80.499 -15s40.5 -24.667 54.5 -44c13.333 -20 21.5 -42 24.5 -66
s0.833008 -50.667 -6.5 -80l-6 -18c-2 -6 -4.33301 -12 -7 -18l-4 -10c-1.33301 -3.33301 -2.66602 -6.33301 -3.99902 -9c-2 -3.33301 -3.66699 -6.5 -5 -9.5s-2.66602 -6.16699 -3.99902 -9.5c-11.333 -19.333 -24.666 -37.833 -39.999 -55.5s-33.333 -34.5 -54 -50.5
c-20 -16 -42.833 -27.833 -68.5 -35.5s-54.167 -11.5 -85.5 -11.5c-34.667 0 -64.167 4.83301 -88.5 14.5s-43.166 24.834 -56.499 45.501c-14 20 -22.167 43 -24.5 69s0.833984 54.667 9.50098 86c6 22 13.333 42.167 22 60.5s18.334 34.833 29.001 49.5
c11.333 14.667 22.666 28.834 33.999 42.501s23.333 26.834 36 39.501c0 0.666992 0.333008 1.33398 1 2.00098l2 2l2 2l2 2l305 323v0v0zM282.995 35.998c24.667 0 47.332 3.99902 67.999 11.999s39.334 20.333 56.001 37c17.333 16 31.666 33.833 42.999 53.5
s20.333 40.834 27 63.501c5.33301 20.667 7.16602 40 5.49902 58s-6.16699 35 -13.5 51c-8.66699 15.333 -21.167 27 -37.5 35s-37.166 12 -62.499 12c-20.667 0 -40.667 -3.5 -60 -10.5s-38.333 -17.167 -57 -30.5c-18 -13.333 -33 -29.5 -45 -48.5
s-21.333 -41.167 -28 -66.5c-6 -22.667 -8.66699 -43.667 -8 -63s5 -37.333 13 -54s20.333 -29 37 -37s37.334 -12 62.001 -12v0v0z" />
    <glyph glyph-name="seven" unicode="7" horiz-adv-x="548" 
d="M101 5l477 639h-342l15 56h441l-543 -720l-48 25v0v0z" />
    <glyph glyph-name="eight" unicode="8" horiz-adv-x="548" 
d="M449 377l-1.00293 -2.00195c19.333 -5.33301 36 -13.5 50 -24.5s25.333 -24.833 34 -41.5c8 -16.667 12.667 -34.667 14 -54s-1 -39.666 -7 -60.999c-7.33301 -29.333 -19.166 -56.5 -35.499 -81.5s-36.5 -48.167 -60.5 -69.5c-24.667 -20.667 -51.5 -36 -80.5 -46
s-60.5 -15 -94.5 -15c-34.667 0 -63.834 5 -87.501 15s-41.834 25.333 -54.501 46s-20.334 43.5 -23.001 68.5s0 52.5 8 82.5c7.33301 26 17.166 49.333 29.499 70s27.833 38.334 46.5 53.001c18.667 15.333 37.5 27.666 56.5 36.999s37.833 16.333 56.5 21l1 2
c-1.33301 0 -2.83301 0.166992 -4.5 0.5s-3.16699 0.833008 -4.5 1.5s-2.5 1.33398 -3.5 2.00098s-2.16699 1.33398 -3.5 2.00098c-10.667 5.33301 -20.5 12.333 -29.5 21s-17.167 19 -24.5 31c-6.66699 12 -10.167 26.5 -10.5 43.5s2.5 36.833 8.5 59.5
c7.33301 26.667 17 50 29 70s26.667 36.667 44 50s34.666 24.5 51.999 33.5s35 15.833 53 20.5c2.66699 0.666992 5.33398 1.16699 8.00098 1.5s5.33398 0.833008 8.00098 1.5c2 0.666992 4.33301 1.16699 7 1.5s5.33398 0.833008 8.00098 1.5
c5.33301 0.666992 10.166 1.16699 14.499 1.5s8.83301 0.5 13.5 0.5c4 0 8.33301 -0.166992 13 -0.5s9.33398 -0.833008 14.001 -1.5c2 -0.666992 4.16699 -1.16699 6.5 -1.5s4.83301 -0.833008 7.5 -1.5s5.16699 -1.16699 7.5 -1.5s4.5 -0.833008 6.5 -1.5
c15.333 -4.66699 29.333 -11.5 42 -20.5s24.334 -20.167 35.001 -33.5c10 -13.333 15.833 -30 17.5 -50s-1.16602 -43.333 -8.49902 -70c-6 -22.667 -14 -42.5 -24 -59.5s-21.667 -31.5 -35 -43.5c-8.66699 -8 -17.5 -15.333 -26.5 -22s-18.167 -12.334 -27.5 -17.001
c-4.66699 -2.66699 -9.16699 -5 -13.5 -7s-8.83301 -4 -13.5 -6c-0.666992 -0.666992 -1.5 -1.16699 -2.5 -1.5s-1.83301 -0.5 -2.5 -0.5c-0.666992 -0.666992 -1.5 -1.16699 -2.5 -1.5s-1.83301 -0.5 -2.5 -0.5c-1.33301 -0.666992 -2.66602 -1.16699 -3.99902 -1.5
s-2.66602 -0.5 -3.99902 -0.5v0v0zM282.997 35.998c23.333 0 45.168 3.83301 65.501 11.5s38.833 19.167 55.5 34.5c17.333 15.333 31.833 32.333 43.5 51s20.167 38.667 25.5 60c6 22 7.83301 42.167 5.5 60.5s-8.83301 34.5 -19.5 48.5c-10 14 -22.667 24.5 -38 31.5
s-33.666 10.5 -54.999 10.5s-42 -3.5 -62 -10.5s-39 -17.5 -57 -31.5c-17.333 -14 -32 -30 -44 -48s-21 -38.333 -27 -61c-5.33301 -21.333 -7.33301 -41.333 -6 -60s6.33301 -35.667 15 -51c9.33301 -15.333 22.166 -26.833 38.499 -34.5s36.166 -11.5 59.499 -11.5v0v0z
M380.999 399.998c17.333 0 34.332 2.99707 50.999 8.99707s32.334 15 47.001 27c15.333 12 28.333 26 39 42s18.667 34 24 54c0 0.666992 0.166992 1.33398 0.5 2.00098s0.5 1.33398 0.5 2.00098l0.5 1c0.333008 0.666992 0.5 1.33398 0.5 2.00098v4
c0 1.33301 0.333008 2.66602 1 3.99902c3.33301 14.667 4 28.667 2 42s-6 26 -12 38c-6.66699 12 -17 21.167 -31 27.5s-31.667 9.5 -53 9.5c-17.333 0 -33 -2.16699 -47 -6.5s-26.667 -10.5 -38 -18.5s-21.333 -16.5 -30 -25.5s-15.667 -18.167 -21 -27.5
c-3.33301 -4.66699 -6.5 -9.5 -9.5 -14.5s-5.16699 -9.83301 -6.5 -14.5c-2.66699 -4.66699 -4.5 -9.16699 -5.5 -13.5s-2.16699 -8.16602 -3.5 -11.499c-5.33301 -20 -7 -38 -5 -54s7.66699 -30 17 -42c10 -12 21.5 -21 34.5 -27s27.833 -9 44.5 -9v0v0z" />
    <glyph glyph-name="nine" unicode="9" horiz-adv-x="548" 
d="M192 -20l-44.999 32l283 293c-7.33301 -3.33301 -14.5 -6.33301 -21.5 -9s-14.167 -4.66699 -21.5 -6s-14.833 -2.33301 -22.5 -3s-15.834 -1 -24.501 -1c-30.667 0 -57.334 4.83301 -80.001 14.5s-40.667 24.5 -54 44.5c-14 19.333 -22.333 41.333 -25 66
s-0.333984 51.334 6.99902 80.001c1.33301 5.33301 3 11 5 17s4.33301 12.333 7 19c2.66699 6 5.33398 12.167 8.00098 18.5s6 12.833 10 19.5c10.667 19.333 23.834 37.833 39.501 55.5s33.5 34.5 53.5 50.5c20.667 16 43.834 28.167 69.501 36.5s53.834 12.5 84.501 12.5
c35.333 0 65 -5.16699 89 -15.5s42.667 -25.5 56 -45.5c13.333 -20.667 21.333 -44 24 -70s-0.333008 -54.667 -9 -86c-6 -22.667 -13.333 -43.167 -22 -61.5s-18.334 -34.833 -29.001 -49.5s-21.834 -28.667 -33.501 -42s-23.5 -26.333 -35.5 -39l-2 -2l-2 -2l-2 -2
c-0.666992 -0.666992 -1 -1.33398 -1 -2.00098l-306 -323v0v0zM451.001 664c-24.667 0 -47.334 -4.16895 -68.001 -12.502s-39.667 -20.5 -57 -36.5c-16.667 -16.667 -30.667 -34.667 -42 -54s-20 -40.333 -26 -63c-5.33301 -20.667 -7.5 -40.167 -6.5 -58.5
s5.83301 -35.166 14.5 -50.499c7.33301 -16 19.5 -27.833 36.5 -35.5s37.833 -11.5 62.5 -11.5c20.667 0 40.667 3.33301 60 10s38 16.667 56 30s33.333 29.833 46 49.5s22.334 41.834 29.001 66.501c6 22.667 8.33301 43.667 7 63s-6 37.333 -14 54
c-8 16 -20.167 28.167 -36.5 36.5s-36.833 12.5 -61.5 12.5v0v0z" />
    <glyph glyph-name="colon" unicode=":" horiz-adv-x="232" 
d="M79 35c1.33301 6 3.83203 11.667 7.49902 17s8.16699 10.333 13.5 15c6 4.66699 12 8.16699 18 10.5s12.333 3.5 19 3.5c6 0 11.5 -1.16699 16.5 -3.5s9.16699 -5.5 12.5 -9.5c3.33301 -4.66699 5.33301 -9.66699 6 -15s0.333984 -11.333 -0.999023 -18
c-2 -6.66699 -5 -12.667 -9 -18s-8.66699 -10 -14 -14c-5.33301 -3.33301 -11 -6.16602 -17 -8.49902s-12 -3.5 -18 -3.5c-6.66699 0 -12.5 1.16699 -17.5 3.5s-9.16699 5.16602 -12.5 8.49902c-3.33301 4 -5.33301 8.66699 -6 14s0 11.333 2 18v0v0zM175.999 399
c2 6 4.83594 11.667 8.50293 17s8.16699 10.333 13.5 15s11.166 8.16699 17.499 10.5s12.833 3.5 19.5 3.5c6 0 11.333 -1.16699 16 -3.5s8.66699 -5.5 12 -9.5c3.33301 -4.66699 5.5 -9.66699 6.5 -15s0.5 -11.333 -1.5 -18c-1.33301 -6.66699 -4 -12.667 -8 -18
s-8.66699 -10.333 -14 -15c-6 -4.66699 -12 -8 -18 -10s-12 -3 -18 -3c-6.66699 0 -12.334 1 -17.001 3s-8.66699 5.33301 -12 10s-5.33301 9.66699 -6 15s-0.333984 11.333 0.999023 18v0v0z" />
    <glyph glyph-name="semicolon" unicode=";" horiz-adv-x="253" 
d="M10 -134l157 246l61 -33l-187 -230l-31 17v0v0zM214 399c2 6.66699 4.83594 12.667 8.50293 18s8.16699 10.333 13.5 15c5.33301 4 11.166 7.16699 17.499 9.5s12.833 3.5 19.5 3.5c6 0 11.333 -1.16699 16 -3.5s8.66699 -5.5 12 -9.5
c3.33301 -4.66699 5.5 -9.66699 6.5 -15s0.5 -11.333 -1.5 -18c-1.33301 -6.66699 -4 -12.667 -8 -18s-8.66699 -10.333 -14 -15c-6 -4.66699 -12 -8 -18 -10s-12 -3 -18 -3c-6.66699 0 -12.334 1 -17.001 3s-8.66699 5.33301 -12 10s-5.33301 9.66699 -6 15
s-0.333984 11.333 0.999023 18v0v0z" />
    <glyph glyph-name="less" unicode="&#x3c;" horiz-adv-x="500" 
d="M211 350l288 -164l-15 -56l-346 200l11 40l453 200l-15 -56l-376 -164v0v0z" />
    <glyph glyph-name="equal" unicode="=" horiz-adv-x="600" 
d="M118 256l15 56h500l-15 -56h-500v0v0zM153 388l15 56h500l-15 -56h-500v0v0z" />
    <glyph glyph-name="greater" unicode="&#x3e;" horiz-adv-x="500" 
d="M475 350l-288 164l15 56l347 -200l-11 -40l-454 -200l15 56l376 164v0v0z" />
    <glyph glyph-name="question" unicode="?" horiz-adv-x="459" 
d="M191 35c1.33301 6.66699 3.83203 12.667 7.49902 18s8.5 10.333 14.5 15c5.33301 4 11 7.16699 17 9.5s12.333 3.5 19 3.5s12.5 -1.16699 17.5 -3.5s8.83301 -5.83301 11.5 -10.5c3.33301 -4.66699 5.33301 -9.66699 6 -15s0.333984 -11 -0.999023 -17
c-2 -6.66699 -4.83301 -12.667 -8.5 -18s-8.16699 -10 -13.5 -14c-5.33301 -3.33301 -11 -6.16602 -17 -8.49902s-12.333 -3.5 -19 -3.5s-12.5 1.16699 -17.5 3.5s-9.16699 5.16602 -12.5 8.49902c-3.33301 4 -5.33301 8.66699 -6 14s0 11.333 2 18v0v0zM251.999 538
l-59 -0.00488281c1.33301 4 2.5 8 3.5 12s2.16699 8 3.5 12s3 8 5 12s4.33301 8.33301 7 13c8.66699 16.667 19.334 32.5 32.001 47.5s27.667 29.5 45 43.5c18 14 38.333 24.5 61 31.5s48.334 10.5 77.001 10.5c25.333 0 47.5 -3.5 66.5 -10.5s34.833 -17.5 47.5 -31.5
c13.333 -14 21.5 -31 24.5 -51s0.833008 -43 -6.5 -69c-4.66699 -18.667 -11.167 -35.334 -19.5 -50.001s-18.166 -27.667 -29.499 -39c-11.333 -10.667 -24.166 -21 -38.499 -31s-30.166 -19.667 -47.499 -29c-2 -1.33301 -4.16699 -2.66602 -6.5 -3.99902
s-4.83301 -2.33301 -7.5 -3c-2.66699 -1.33301 -5.16699 -2.5 -7.5 -3.5s-4.5 -2.16699 -6.5 -3.5c-4.66699 -2.66699 -9.33398 -5.16699 -14.001 -7.5s-9.66699 -4.5 -15 -6.5c-9.33301 -4 -17.833 -8 -25.5 -12s-15.167 -7.66699 -22.5 -11
c-6.66699 -4 -13.167 -7.66699 -19.5 -11s-12.166 -6.66602 -17.499 -9.99902c-8.66699 -5.33301 -16.334 -10.833 -23.001 -16.5s-12.667 -11.167 -18 -16.5c-4.66699 -5.33301 -8.66699 -11.333 -12 -18s-6.33301 -14 -9 -22v-1.5v-0.5
c-0.666992 -0.666992 -1 -1.16699 -1 -1.5v-1.5c0 -0.666992 -0.166992 -1.16699 -0.5 -1.5l-0.5 -0.5c0 -0.666992 0.166992 -1.16699 0.5 -1.5s0.5 -0.833008 0.5 -1.5c-2 -8 -2.16699 -15.667 -0.5 -23s5.16699 -14.333 10.5 -21
c4.66699 -6.66699 11.834 -11.667 21.501 -15s21.834 -5 36.501 -5c14 0 26.5 1.5 37.5 4.5s20.833 7.5 29.5 13.5s16.167 12.333 22.5 19s11.5 13.334 15.5 20.001c1.33301 2.66699 2.5 5.16699 3.5 7.5s2.16699 4.83301 3.5 7.5c0 1.33301 0.166992 2.5 0.5 3.5
s0.833008 2.16699 1.5 3.5c0.666992 0.666992 1.16699 1.66699 1.5 3s0.5 2.33301 0.5 3h55c-0.666992 -4 -1.83398 -8 -3.50098 -12s-3.16699 -8 -4.5 -12c-0.666992 -2.66699 -1.83398 -5.33398 -3.50098 -8.00098s-3.16699 -5.33398 -4.5 -8.00098l-2 -4l-2 -4
c-6.66699 -12 -15 -23.333 -25 -34s-21.667 -20.667 -35 -30c-12.667 -10 -27.834 -17.333 -45.501 -22s-37.5 -7 -59.5 -7h-5.5h-4.5h-5c-1.33301 0 -2.66602 0.333008 -3.99902 1c-16.667 1.33301 -31.667 5 -45 11s-25.666 14 -36.999 24s-18.333 22.333 -21 37
s-1.66699 31.334 3 50.001c5.33301 17.333 11.833 33 19.5 47s16.834 26 27.501 36s22.834 19.667 36.501 29s28.834 18.333 45.501 27c4 2 8.16699 4.16699 12.5 6.5s8.83301 4.83301 13.5 7.5c4.66699 2 9.66699 4.33301 15 7l16 8c9.33301 4 18 8 26 12l22 11
c6.66699 3.33301 13 6.83301 19 10.5s11.667 7.5 17 11.5c9.33301 6 17.666 12.167 24.999 18.5s13.666 12.833 18.999 19.5c4.66699 6.66699 9.16699 14.334 13.5 23.001s7.83301 18.334 10.5 29.001c3.33301 14 5 26.5 5 37.5s-2 19.833 -6 26.5
c-4.66699 7.33301 -9.33398 13.5 -14.001 18.5s-10 8.83301 -16 11.5c-4.66699 2 -9.33398 3.66699 -14.001 5s-9.33398 2.33301 -14.001 3s-8.83398 1.16699 -12.501 1.5s-6.5 0.5 -8.5 0.5c-16.667 0 -32 -1.83301 -46 -5.5s-26 -9.16699 -36 -16.5
c-10.667 -6.66699 -20.334 -14 -29.001 -22s-15.667 -16 -21 -24c-4 -6 -7.5 -11.667 -10.5 -17s-5.83301 -10.666 -8.5 -15.999c-2 -4.66699 -3.83301 -9.16699 -5.5 -13.5s-2.83398 -8.16602 -3.50098 -11.499v0v0z" />
    <glyph glyph-name="at" unicode="@" horiz-adv-x="878" 
d="M780 530l-125.99 -259.006c-0.666992 -2 -1.5 -4 -2.5 -6s-1.83301 -4 -2.5 -6s-1.33398 -3.83301 -2.00098 -5.5s-1.33398 -3.16699 -2.00098 -4.5c-1.33301 -6.66699 -2.16602 -12.5 -2.49902 -17.5s0.5 -9.16699 2.5 -12.5s4.33301 -6.33301 7 -9
s5.33398 -4.66699 8.00098 -6c0.666992 0 1.16699 -0.166992 1.5 -0.5l1.5 -1.5c0.666992 0 1.5 -0.166992 2.5 -0.5s2.16699 -0.5 3.5 -0.5c1.33301 -0.666992 2.83301 -1 4.5 -1h4.5h8c2.66699 0 5.33398 0.333008 8.00098 1c2 0 3.66699 0.166992 5 0.5s3 0.833008 5 1.5
c1.33301 0.666992 2.66602 1.16699 3.99902 1.5s3 0.833008 5 1.5c13.333 4 26.666 10.5 39.999 19.5s26.666 20.5 39.999 34.5c14 14 25.833 30.167 35.5 48.5s17.834 38.833 24.501 61.5c13.333 49.333 16.666 92.5 9.99902 129.5s-23 67.5 -49 91.5
c-26.667 24 -56.834 42.167 -90.501 54.5s-71.167 18.5 -112.5 18.5c-40.667 0 -80.834 -7 -120.501 -21s-78.834 -34.667 -117.501 -62s-70.834 -60.333 -96.501 -99s-45.167 -82.667 -58.5 -132c-14 -52 -18.5 -97.667 -13.5 -137s19.5 -72.333 43.5 -99
s51.333 -47 82 -61s64.667 -22 102 -24c1.33301 -0.666992 2.83301 -1 4.5 -1h4.5h4.5h5.5c16.667 0 32.5 1 47.5 3s29.5 5.33301 43.5 10c14.667 4.66699 28.334 9.66699 41.001 15s24.667 11.333 36 18l18 -44c-4.66699 -2.66699 -9.33398 -5.16699 -14.001 -7.5
s-9.33398 -4.5 -14.001 -6.5c-2.66699 -0.666992 -5 -1.5 -7 -2.5l-7 -3.5c-6.66699 -2.66699 -13.167 -5 -19.5 -7s-12.5 -3.66699 -18.5 -5c-10 -3.33301 -20 -6 -30 -8s-19.667 -3.33301 -29 -4c-6 -0.666992 -12.5 -1.33398 -19.5 -2.00098s-13.833 -1 -20.5 -1
c-3.33301 -0.666992 -6.66602 -1 -9.99902 -1h-10c-62.667 0 -115.167 8.83301 -157.5 26.5s-74.5 44.834 -96.5 81.501c-22.667 36 -36.167 75.667 -40.5 119s0.166992 90.333 13.5 141c15.333 56.667 38.166 107.5 68.499 152.5s68.5 84.167 114.5 117.5
c45.333 33.333 91.833 58.333 139.5 75s96.5 25 146.5 25c54.667 0 101 -6.33301 139 -19s68 -31.667 90 -57c21.333 -25.333 37.833 -52 49.5 -80s18.5 -57 20.5 -87c0 -9.33301 -0.166992 -18.5 -0.5 -27.5s-0.833008 -18.167 -1.5 -27.5
c-1.33301 -8.66699 -2.83301 -17.5 -4.5 -26.5s-3.5 -17.5 -5.5 -25.5c-8 -28.667 -18.5 -54.5 -31.5 -77.5s-28.833 -42.833 -47.5 -59.5s-37 -30.667 -55 -42s-36 -20 -54 -26c-4.66699 -1.33301 -9.16699 -2.66602 -13.5 -3.99902s-8.5 -2.66602 -12.5 -3.99902
c-2 0 -4.16699 -0.166992 -6.5 -0.5s-4.5 -0.833008 -6.5 -1.5c-6.66699 -0.666992 -12.5 -1.33398 -17.5 -2.00098s-10.167 -1 -15.5 -1c-12 0 -22 1.16699 -30 3.5s-14.333 5.83301 -19 10.5s-8.5 9.5 -11.5 14.5s-5.16699 10.167 -6.5 15.5
c0 0.666992 -0.166992 1.33398 -0.5 2.00098s-0.5 1.66699 -0.5 3c0 0.666992 -0.166992 1.33398 -0.5 2.00098s-0.5 1.33398 -0.5 2.00098c-0.666992 1.33301 -1 2.83301 -1 4.5s0.333008 3.16699 1 4.5c-8.66699 -8 -18.5 -15.667 -29.5 -23s-23.167 -14 -36.5 -20
c-12.667 -6.66699 -26.167 -11.5 -40.5 -14.5s-29.833 -4.5 -46.5 -4.5c-24.667 0 -45.334 3.83301 -62.001 11.5s-29 18.834 -37 33.501c-8 15.333 -12.5 32.166 -13.5 50.499s1.16699 37.833 6.5 58.5c1.33301 3.33301 2.66602 7 3.99902 11l4 12l2 6l2 6
c1.33301 1.33301 2.5 3 3.5 5s1.83301 4 2.5 6c11.333 24 25.666 46.833 42.999 68.5s38 42.5 62 62.5c23.333 20 48 35 74 45s53 15 81 15c16.667 0 30.667 -1.5 42 -4.5s20.333 -7.16699 27 -12.5s12.167 -11.166 16.5 -17.499s7.83301 -13.166 10.5 -20.499l21 42h60v0v0
zM455.01 199.994c17.333 0.666992 33.8379 3.99609 49.5049 9.99609s30.167 14.667 43.5 26s25.5 23.333 36.5 36s20.833 26 29.5 40c5.33301 8 10.166 16 14.499 24s8.16602 16 11.499 24s6.33301 15.333 9 22s4.66699 12.667 6 18
c3.33301 12.667 4.66602 24.5 3.99902 35.5s-2.66699 21.167 -6 30.5c-4 9.33301 -10.5 16.5 -19.5 21.5s-21.167 7.5 -36.5 7.5c-22.667 0 -44.334 -4.5 -65.001 -13.5s-40.334 -22.5 -59.001 -40.5s-34.5 -37 -47.5 -57s-23.167 -40.667 -30.5 -62
c-0.666992 -1.33301 -1.16699 -2.66602 -1.5 -3.99902s-0.5 -2.66602 -0.5 -3.99902c0 -0.666992 -0.166992 -1.16699 -0.5 -1.5s-0.5 -0.833008 -0.5 -1.5s-0.166992 -1.16699 -0.5 -1.5s-0.5 -0.833008 -0.5 -1.5c-4.66699 -17.333 -7 -32.666 -7 -45.999
s3 -24.666 9 -33.999c5.33301 -9.33301 12.833 -16.333 22.5 -21s21.5 -7 35.5 -7v0v0h0.5h1.5v0h1v0v0v0h1v0v0v0v0z" />
    <glyph glyph-name="A" unicode="A" horiz-adv-x="649" 
d="M11 0l506 720l121 -720h-70l-36 228h-293l-158 -228h-70v0v0zM278 284h245l-46 287l-199 -287v0v0z" />
    <glyph glyph-name="B" unicode="B" horiz-adv-x="564" 
d="M275 700l144.002 0.000976562h0.5h1.5h0.5h1.5c5.33301 0 11.666 -0.166992 18.999 -0.5s15.666 -0.833008 24.999 -1.5c8.66699 -0.666992 17.667 -1.66699 27 -3s19 -3.33301 29 -6c14 -4 26.833 -10 38.5 -18s22.167 -17.667 31.5 -29s14.833 -26 16.5 -44
s-0.833008 -39.333 -7.5 -64c-4.66699 -18.667 -11.834 -35.834 -21.501 -51.501s-21.167 -30.167 -34.5 -43.5s-27.5 -24.833 -42.5 -34.5s-30.833 -17.5 -47.5 -23.5l-1 -2c2 0 4.16699 -0.166992 6.5 -0.5s4.83301 -0.833008 7.5 -1.5
c2 -0.666992 4.16699 -1.16699 6.5 -1.5s4.83301 -0.5 7.5 -0.5c15.333 -4 29.333 -10.5 42 -19.5s24.334 -20.5 35.001 -34.5c9.33301 -14 14.833 -31.167 16.5 -51.5s-1.16602 -43.5 -8.49902 -69.5c-8.66699 -32.667 -20.834 -61 -36.501 -85s-35.167 -43.667 -58.5 -59
c-8 -4.66699 -15.833 -9.16699 -23.5 -13.5s-15.5 -8.5 -23.5 -12.5c-15.333 -7.33301 -30.833 -13.333 -46.5 -18s-31.5 -8 -47.5 -10c-3.33301 -0.666992 -6.83301 -1.16699 -10.5 -1.5s-7.16699 -0.5 -10.5 -0.5h-11h-10h-1.5h-0.5h-1.5h-1.5h-2h-2h-1.5h-0.5h-1.5h-1.5
h-2h-2h-184l187 700v0v0zM171.002 56.001h116c31.333 0 59 3.5 83 10.5s44.333 17.833 61 32.5c16.667 14 30.334 29 41.001 45s18.667 32.667 24 50c0.666992 0.666992 1 1.16699 1 1.5v1.5c0.666992 0.666992 1 1.16699 1 1.5v1.5c6 21.333 7.66699 40.833 5 58.5
s-9.33398 33.167 -20.001 46.5s-26.167 23.333 -46.5 30s-45.5 10 -75.5 10h-113l-77 -289v0v0zM263.002 401.001h88.999c1.33301 0 4.33301 0.166992 9 0.5s10.334 0.833008 17.001 1.5c7.33301 0.666992 15.166 2 23.499 4s16.833 4.66699 25.5 8c10 4 20 9.16699 30 15.5
s20 13.833 30 22.5c10 9.33301 18.667 20.5 26 33.5s13.333 27.833 18 44.5c4 14.667 5.16699 28.5 3.5 41.5s-6.16699 25.167 -13.5 36.5c-6.66699 11.333 -18.667 20 -36 26s-39.666 9 -66.999 9h-90l-65 -243v0v0z" />
    <glyph glyph-name="C" unicode="C" horiz-adv-x="700" 
d="M709 140l-20.9961 -78.0029l-12.5 -7.5c-5 -3 -10.167 -6.16699 -15.5 -9.5c-6 -3.33301 -12.667 -6.83301 -20 -10.5s-15.333 -7.16699 -24 -10.5c-12.667 -5.33301 -26.5 -10.5 -41.5 -15.5s-31.167 -9.16699 -48.5 -12.5c-16.667 -4.66699 -34.667 -8.16699 -54 -10.5
s-39.666 -3.5 -60.999 -3.5c-56 0 -103.667 9 -143 27s-70 45.333 -92 82c-22 37.333 -35.167 77.5 -39.5 120.5s-0.166016 89.167 12.501 138.5c15.333 57.333 38.166 108.5 68.499 153.5s68.166 83.833 113.499 116.5c45.333 33.333 91.166 58.333 137.499 75
s93.166 25 140.499 25c18 0 36.5 -1.16699 55.5 -3.5s38.5 -6.16602 58.5 -11.499c20.667 -4.66699 41 -12.834 61 -24.501s39.333 -26.5 58 -44.5l-21 -79c-12.667 16 -26.5 30.333 -41.5 43s-31.833 24 -50.5 34c-18 10 -38.167 17.5 -60.5 22.5s-46.5 7.5 -72.5 7.5
c-42.667 0 -83.334 -7.66699 -122.001 -23s-75.334 -38.666 -110.001 -69.999c-34 -30.667 -62.5 -63 -85.5 -97s-40.5 -69.667 -52.5 -107c-0.666992 -1.33301 -1.16699 -2.83301 -1.5 -4.5s-0.833008 -3.16699 -1.5 -4.5c0 -1.33301 -0.166992 -2.66602 -0.5 -3.99902
s-0.833008 -2.66602 -1.5 -3.99902c-10.667 -40 -14.167 -78 -10.5 -114s13.834 -70.333 30.501 -103c17.333 -32.667 41.5 -57 72.5 -73s68.833 -24 113.5 -24c24 0 48.167 2.33301 72.5 7s48.833 11.667 73.5 21s48.167 20.333 70.5 33s44.166 27 65.499 43v0v0z" />
    <glyph glyph-name="D" unicode="D" horiz-adv-x="700" 
d="M88 0l187.003 700.006h174c59.333 0 109.166 -7.16699 149.499 -21.5s71.166 -35.833 92.499 -64.5s37 -58.667 47 -90s14 -64 12 -98c-0.666992 -3.33301 -1.16699 -6.66602 -1.5 -9.99902s-0.5 -6.33301 -0.5 -9c-0.666992 -3.33301 -1.16699 -6.5 -1.5 -9.5
s-0.833008 -6.16699 -1.5 -9.5c-0.666992 -6.66699 -1.83398 -13.167 -3.50098 -19.5s-3.16699 -12.5 -4.5 -18.5c-0.666992 -2.66699 -1.5 -5.33398 -2.5 -8.00098s-1.83301 -5.33398 -2.5 -8.00098s-1.5 -5.33398 -2.5 -8.00098s-1.83301 -5.33398 -2.5 -8.00098
s-1.5 -5.33398 -2.5 -8.00098s-2.16699 -5 -3.5 -7c-0.666992 -2.66699 -1.5 -5.33398 -2.5 -8.00098s-2.16699 -5.33398 -3.5 -8.00098c-15.333 -36 -36.333 -70.5 -63 -103.5s-58.667 -64.5 -96 -94.5c-36.667 -30 -79.5 -52.333 -128.5 -67s-104.167 -22 -165.5 -22h-174
v0v0zM171.003 56.0059h98.999c58 0 109.5 7.5 154.5 22.5s83.5 37.5 115.5 67.5c31.333 30 57.5 62 78.5 96s36.5 70 46.5 108c11.333 43.333 14.833 82.5 10.5 117.5s-16.833 66.167 -37.5 93.5s-48.667 48 -84 62s-77.666 21 -126.999 21h-99l-157 -588v0v0z" />
    <glyph glyph-name="E" unicode="E" horiz-adv-x="519" 
d="M88 0l187 700h375l-15 -56h-307l-60 -224h296l-15 -56h-296l-82 -308h307l-15 -56h-375v0v0z" />
    <glyph glyph-name="F" unicode="F" horiz-adv-x="450" 
d="M88 0l187 700h330l-15 -56h-262l-60 -224h255l-15 -56h-255l-97 -364h-68v0v0z" />
    <glyph glyph-name="G" unicode="G" horiz-adv-x="815" 
d="M526 340l324.001 -0.00292969c-2 -7.33301 -4.33301 -14.666 -7 -21.999l-8 -22c-0.666992 -2.66699 -1.5 -5.33398 -2.5 -8.00098s-1.83301 -5.33398 -2.5 -8.00098c-2 -5.33301 -4.33301 -10.666 -7 -15.999l-8 -16c-2.66699 -6 -5.33398 -11.667 -8.00098 -17
s-5.66699 -10.666 -9 -15.999c-16.667 -29.333 -36.667 -57.5 -60 -84.5s-50.333 -52.5 -81 -76.5c-30.667 -24.667 -66.167 -42.834 -106.5 -54.501s-85.166 -17.5 -134.499 -17.5c-52.667 0 -98.834 8 -138.501 24s-72.167 40.333 -97.5 73
c-26 32.667 -41.5 71.334 -46.5 116.001s-0.166992 95.334 14.5 152.001c16 58 38.333 109.833 67 155.5s64.334 84.834 107.001 117.501c42 33.333 86 58.333 132 75s93.333 25 142 25c33.333 0 64.166 -3.66699 92.499 -11s53.833 -18 76.5 -32
c22 -14 41.167 -30.833 57.5 -50.5s29.5 -42.167 39.5 -67.5l-62 -38l-2 4l-2 4l-2 4l-2 4c-0.666992 3.33301 -1.83398 6.5 -3.50098 9.5s-3.5 5.83301 -5.5 8.5c-8 13.333 -17.833 26.333 -29.5 39s-25.5 24.667 -41.5 36s-35 19.833 -57 25.5s-47 8.5 -75 8.5
c-42.667 0 -82.834 -7.83301 -120.501 -23.5s-73.167 -39.167 -106.5 -70.5c-32.667 -31.333 -60 -65.5 -82 -102.5s-39 -77.167 -51 -120.5c-11.333 -44.667 -15.5 -85.5 -12.5 -122.5s13.5 -70.167 31.5 -99.5c18 -30 42.833 -52.333 74.5 -67s70.167 -22 115.5 -22
c41.333 0 79.833 6.33301 115.5 19s68.834 31.667 99.501 57s55.834 52.333 75.501 81s34.167 59 43.5 91h-252l15 56v0v0z" />
    <glyph glyph-name="H" unicode="H" horiz-adv-x="715" 
d="M88 0l187 700h68l-77 -287h403l77 287h68l-187 -700h-68l95 357h-403l-95 -357h-68v0v0z" />
    <glyph glyph-name="I" unicode="I" horiz-adv-x="244" 
d="M88 0l187 700h68l-187 -700h-68v0v0z" />
    <glyph glyph-name="J" unicode="J" horiz-adv-x="413" 
d="M100 47l55.0039 45.0029l0.5 -1l0.5 -1c0 -0.666992 0.166992 -1.33398 0.5 -2.00098s0.833008 -1.33398 1.5 -2.00098c0 -0.666992 0.166992 -1.16699 0.5 -1.5s0.833008 -0.5 1.5 -0.5c0 -0.666992 0.166992 -1.16699 0.5 -1.5s0.5 -0.833008 0.5 -1.5
c6 -10 12.5 -18 19.5 -24s14.167 -10.333 21.5 -13s14.5 -4.66699 21.5 -6s13.833 -2 20.5 -2c22 0 40.833 3.5 56.5 10.5s27.834 17.5 36.501 31.5c9.33301 14 18 30.167 26 48.5s15 38.833 21 61.5l137 512h68l-138 -516l-2 -6l-2 -6
c-0.666992 -2.66699 -1.33398 -5 -2.00098 -7l-2 -6c-0.666992 -2 -1.33398 -4.16699 -2.00098 -6.5s-1.33398 -4.5 -2.00098 -6.5c-0.666992 -2.66699 -1.33398 -5 -2.00098 -7l-2 -6c-6.66699 -18.667 -15.667 -36.834 -27 -54.501s-24.666 -34.5 -39.999 -50.5
c-14.667 -15.333 -34 -26.833 -58 -34.5s-52 -11.5 -84 -11.5c-12 0 -23 0.833008 -33 2.5s-19.333 4.16699 -28 7.5c-8.66699 2.66699 -16.834 6.5 -24.501 11.5s-14.834 11.5 -21.501 19.5c-2 1.33301 -3.83301 3 -5.5 5s-3.16699 4 -4.5 6s-2.83301 4 -4.5 6
s-3.16699 4.33301 -4.5 7v0v0z" />
    <glyph glyph-name="K" unicode="K" horiz-adv-x="571" 
d="M88 0l187 700h68l-87 -325l400 325h84l-423 -339l243 -361h-91l-222 340l-91 -340h-68v0v0z" />
    <glyph glyph-name="L" unicode="L" horiz-adv-x="393" 
d="M88 0l187 700h68l-172 -644h226l-15 -56h-294v0v0z" />
    <glyph glyph-name="M" unicode="M" horiz-adv-x="858" 
d="M42 0l290 728l124 -624l460 624l-100 -728h-63l71 518l-403 -546l-111 546l-205 -518h-63v0v0z" />
    <glyph glyph-name="N" unicode="N" horiz-adv-x="775" 
d="M88 0l195 728l374 -585l149 557h68l-195 -728l-374 585l-149 -557h-68v0v0z" />
    <glyph glyph-name="O" unicode="O" horiz-adv-x="868" 
d="M149 350c13.333 50 34.332 96.667 62.999 140s65 83.333 109 120s91.333 64.167 142 82.5s105 27.5 163 27.5c50 0 94.833 -8.33301 134.5 -25s74.167 -41.667 103.5 -75c29.333 -32.667 47.333 -71.5 54 -116.5s2.33398 -96.167 -12.999 -153.5
c-14.667 -56.667 -37.5 -107.5 -68.5 -152.5s-70.167 -84.167 -117.5 -117.5c-46.667 -32.667 -94.334 -57.167 -143.001 -73.5s-98 -24.5 -148 -24.5c-50.667 0 -96 8.16699 -136 24.5s-74.333 40.833 -103 73.5c-28.667 33.333 -46.167 72.5 -52.5 117.5
s-2.16602 95.833 12.501 152.5v0v0zM220.999 350c-12.667 -47.333 -16.501 -90 -11.501 -128s18.833 -71.333 41.5 -100s50 -50.167 82 -64.5s68.667 -21.5 110 -21.5s81.833 7.16699 121.5 21.5s78.5 35.833 116.5 64.5c37.333 28.667 68.833 62 94.5 100
s44.834 80.667 57.501 128c13.333 47.333 17.333 90 12 128s-19.333 71.333 -42 100s-50 50.167 -82 64.5s-68.667 21.5 -110 21.5s-81.833 -7.16699 -121.5 -21.5s-78.5 -35.833 -116.5 -64.5s-69.667 -62 -95 -100s-44.333 -80.667 -57 -128v0v0z" />
    <glyph glyph-name="P" unicode="P" horiz-adv-x="538" 
d="M88 0l187.001 699.999h194c6 0 12.333 -0.166992 19 -0.5s13.667 -0.833008 21 -1.5c6.66699 -0.666992 13.667 -1.66699 21 -3s14.666 -3 21.999 -5c14 -4.66699 27 -11.167 39 -19.5s22.667 -19.166 32 -32.499c9.33301 -12.667 14.5 -29.334 15.5 -50.001
s-2.16699 -45 -9.5 -73c-7.33301 -28.667 -17 -53.167 -29 -73.5s-26.333 -37.166 -43 -50.499c-16.667 -12.667 -33.167 -23.5 -49.5 -32.5s-32.833 -15.5 -49.5 -19.5c-8.66699 -2 -17 -3.66699 -25 -5s-15.667 -2.33301 -23 -3c-8 -0.666992 -15.333 -1.16699 -22 -1.5
s-12.667 -0.5 -18 -0.5h-126l-88 -329h-68v0v0zM328.001 643.999l-69.001 -259h123h13c4.66699 0 9.33398 0.333008 14.001 1c5.33301 0.666992 10.833 1.5 16.5 2.5s11.834 2.16699 18.501 3.5c10.667 3.33301 21.5 8 32.5 14s22.167 13.333 33.5 22
c11.333 9.33301 21.166 21.166 29.499 35.499s14.833 31.5 19.5 51.5c5.33301 19.333 7.83301 36.333 7.5 51s-3.83301 26.334 -10.5 35.001c-6.66699 9.33301 -14 17 -22 23s-16.667 10.333 -26 13c-1.33301 0.666992 -3 1 -5 1s-3.66699 0.333008 -5 1l-10 2
c-3.33301 0.666992 -6.66602 1 -9.99902 1c-4.66699 0.666992 -9.33398 1.16699 -14.001 1.5s-9 0.5 -13 0.5h-123v0v0z" />
    <glyph glyph-name="Q" unicode="Q" horiz-adv-x="868" 
d="M771 -49l-70.001 0.000976562l-50 85c-6 -3.33301 -11.833 -6.33301 -17.5 -9s-11.5 -5.33398 -17.5 -8.00098c-12 -5.33301 -23.833 -9.83301 -35.5 -13.5s-23.167 -6.83398 -34.5 -9.50098c-16.667 -4.66699 -35 -8.16699 -55 -10.5s-41 -3.5 -63 -3.5
c-50.667 0 -96 8.16699 -136 24.5s-74.333 40.833 -103 73.5c-28.667 33.333 -46.167 72.5 -52.5 117.5s-2.16602 95.833 12.501 152.5c15.333 57.333 38.333 108.5 69 153.5s69.334 83.833 116.001 116.5c46 33.333 93.5 58.333 142.5 75s98.833 25 149.5 25
c50 0 94.833 -8.33301 134.5 -25s74.167 -41.667 103.5 -75c29.333 -32.667 47.333 -71.5 54 -116.5s2.33398 -96.167 -12.999 -153.5c-6.66699 -26.667 -16.334 -53.167 -29.001 -79.5s-27.667 -52.166 -45 -77.499c-16.667 -24.667 -35.834 -47.5 -57.501 -68.5
s-45.5 -39.833 -71.5 -56.5l69 -117v0v0zM587.999 259.001l85.002 -142.999c19.333 13.333 37.333 28.5 54 45.5s32 35.833 46 56.5c13.333 20.667 25.166 42 35.499 64s18.5 44.667 24.5 68c13.333 47.333 17.333 90 12 128s-19.333 71.333 -42 100s-50 50.167 -82 64.5
s-68.667 21.5 -110 21.5s-81.833 -7.16699 -121.5 -21.5s-78.5 -35.833 -116.5 -64.5s-69.667 -62 -95 -100s-44.333 -80.667 -57 -128s-16.5 -90 -11.5 -128s18.833 -71.333 41.5 -100s50 -50.167 82 -64.5s68.667 -21.5 110 -21.5c19.333 0 37.666 1.16699 54.999 3.5
s33.333 5.83301 48 10.5c14.667 5.33301 28.5 10.666 41.5 15.999s24.833 11 35.5 17l-105 176h70v0v0z" />
    <glyph glyph-name="R" unicode="R" horiz-adv-x="516" 
d="M88 0l186.999 699.996h187c5.33301 0 11.333 -0.166992 18 -0.5s13.667 -1.16602 21 -2.49902c3.33301 -0.666992 6.5 -1.16699 9.5 -1.5s6.16699 -1.16602 9.5 -2.49902c4 -1.33301 8.33301 -2.66602 13 -3.99902s9.66699 -3 15 -5c12 -4.66699 23 -11.667 33 -21
s19 -20.666 27 -33.999c7.33301 -12.667 11.333 -29 12 -49s-2.66602 -43 -9.99902 -69c-6 -22.667 -15.667 -44.5 -29 -65.5s-30.666 -40.833 -51.999 -59.5c-20.667 -18.667 -46.834 -33.167 -78.501 -43.5s-68.5 -16.833 -110.5 -19.5l162 -323h-80l-154 322h-26
l-86 -322h-68v0v0zM256.999 377.996h69.998c34.667 0 64.5 3.33301 89.5 10s45.5 16.334 61.5 29.001c15.333 13.333 28.333 27.666 39 42.999s18.334 32.333 23.001 51c8 28.667 10.167 52 6.5 70s-12.5 31 -26.5 39c-14.667 8 -30.667 14 -48 18s-36.666 6 -57.999 6h-86
l-71 -266v0v0z" />
    <glyph glyph-name="S" unicode="S" horiz-adv-x="521" 
d="M607 614l-62.998 -32v0.5v0.5v2v2c0 0.666992 -0.166992 1.16699 -0.5 1.5s-0.5 0.833008 -0.5 1.5l-0.5 0.5c-0.333008 0.333008 -0.5 0.833008 -0.5 1.5c-2.66699 9.33301 -6.5 18 -11.5 26s-11.167 15.667 -18.5 23c-8 7.33301 -18 13 -30 17s-26 6 -42 6
c-18 0 -34 -1.83301 -48 -5.5s-26.333 -9.16699 -37 -16.5c-10.667 -6.66699 -20.334 -14 -29.001 -22s-15.667 -16 -21 -24c-2.66699 -3.33301 -5 -6.66602 -7 -9.99902s-3.66699 -6.66602 -5 -9.99902s-2.5 -6.5 -3.5 -9.5s-1.83301 -6.16699 -2.5 -9.5
c-4.66699 -18 -5.66699 -33.833 -3 -47.5s9.33398 -25.5 20.001 -35.5c10 -10 21.167 -19.333 33.5 -28s25.833 -16.667 40.5 -24l6 -4c2 -1.33301 4.33301 -2.66602 7 -3.99902c0.666992 0 1.5 -0.333008 2.5 -1s1.83301 -1 2.5 -1c0 -0.666992 0.333008 -1 1 -1h1l4 -2
l4 -2c0.666992 -0.666992 1.33398 -1.16699 2.00098 -1.5s1.33398 -0.833008 2.00098 -1.5s1.5 -1.16699 2.5 -1.5s1.83301 -0.5 2.5 -0.5c18.667 -10.667 36 -22.167 52 -34.5s31 -25.5 45 -39.5c14.667 -14.667 23.5 -33.167 26.5 -55.5s0.166992 -48.5 -8.5 -78.5
c-7.33301 -28.667 -19.5 -55.5 -36.5 -80.5s-38.5 -48.167 -64.5 -69.5c-25.333 -20.667 -53.166 -36.167 -83.499 -46.5s-62.833 -15.5 -97.5 -15.5c-24.667 0 -46.5 2.66699 -65.5 8s-34.833 12.666 -47.5 21.999c-12.667 10 -23.667 20.667 -33 32
s-16.666 23.333 -21.999 36c-0.666992 2.66699 -1.5 5.16699 -2.5 7.5s-2.16699 4.83301 -3.5 7.5c-0.666992 2 -1.33398 4.16699 -2.00098 6.5s-1.33398 4.83301 -2.00098 7.5c-2 5.33301 -3.33301 10.166 -4 14.499s-1.33398 8.83301 -2.00098 13.5l73 32
c-0.666992 -1.33301 -1 -2.83301 -1 -4.5s0.333008 -3.16699 1 -4.5c0 -0.666992 0.166992 -1.33398 0.5 -2.00098s0.5 -1.33398 0.5 -2.00098s0.166992 -1.33398 0.5 -2.00098s0.5 -1.33398 0.5 -2.00098c2 -14.667 6 -28.667 12 -42s14 -26 24 -38
c9.33301 -12 22 -21 38 -27s34.667 -9 56 -9c22.667 0 44 3.83301 64 11.5s38.333 18.834 55 33.501c17.333 15.333 31.833 32.166 43.5 50.499s20.167 37.833 25.5 58.5c4.66699 16 6.83398 30.333 6.50098 43s-3.16602 23.667 -8.49902 33
c-4.66699 9.33301 -11.334 18.666 -20.001 27.999s-19 18.333 -31 27c-4.66699 2.66699 -9.16699 5.33398 -13.5 8.00098s-8.83301 5.33398 -13.5 8.00098c-2.66699 1.33301 -5.33398 2.83301 -8.00098 4.5s-5.33398 3.16699 -8.00098 4.5s-5.33398 2.83301 -8.00098 4.5
s-5.33398 3.16699 -8.00098 4.5c-20.667 11.333 -39.834 23.333 -57.501 36s-33.834 26.334 -48.501 41.001s-23.834 32.167 -27.501 52.5s-2.16699 43.833 4.5 70.5c0.666992 1.33301 1.16699 2.5 1.5 3.5s0.5 2.16699 0.5 3.5c1.33301 3.33301 2.5 7 3.5 11s2.5 8 4.5 12
c2.66699 5.33301 5.5 10.666 8.5 15.999s6.16699 10.666 9.5 15.999c8.66699 13.333 19.167 25.833 31.5 37.5s26.833 22.834 43.5 33.501s36 18.667 58 24s47 8 75 8c5.33301 0 11.333 -0.166992 18 -0.5s13.667 -1.16602 21 -2.49902
c7.33301 -0.666992 14.5 -1.83398 21.5 -3.50098s14.167 -4.16699 21.5 -7.5c8 -3.33301 15.833 -7.66602 23.5 -12.999s14.834 -11.666 21.501 -18.999c6.66699 -6.66699 12.334 -15 17.001 -25s8.33398 -21.667 11.001 -35v0v0z" />
    <glyph glyph-name="T" unicode="T" horiz-adv-x="464" 
d="M198 0l172 644h-187l15 56h442l-15 -56h-187l-172 -644h-68v0v0z" />
    <glyph glyph-name="U" unicode="U" horiz-adv-x="651" 
d="M264 700h67.999l-120 -449c-10 -36 -14.667 -67.167 -14 -93.5s6.66699 -47.5 18 -63.5s24.166 -28.667 38.499 -38s30.833 -15.333 49.5 -18c1.33301 -0.666992 3 -1.16699 5 -1.5s4 -0.5 6 -0.5h6.5h7.5h1.5h1.5h1.5h1.5v0h1v0v0h0.5h1.5v0v0h0.5h1.5h6.5h7.5
c2.66699 0 5.33398 0.166992 8.00098 0.5s5.66699 0.833008 9 1.5c18.667 3.33301 37.5 9.66602 56.5 18.999s38.167 22 57.5 38s36.333 37 51 63s27 57 37 93l120 449h68l-118 -439c-11.333 -44 -25.5 -82 -42.5 -114s-36.833 -58 -59.5 -78
c-14.667 -13.333 -29.334 -25 -44.001 -35s-29.334 -18.667 -44.001 -26c-7.33301 -3.33301 -14.666 -6.16602 -21.999 -8.49902s-14.666 -4.5 -21.999 -6.5c-8.66699 -2 -16.834 -3.66699 -24.501 -5s-15.167 -2.33301 -22.5 -3
c-7.33301 -1.33301 -14.666 -2.16602 -21.999 -2.49902s-14 -0.5 -20 -0.5c-6.66699 0 -13.167 0.166992 -19.5 0.5s-13.166 1.16602 -20.499 2.49902c-2 0 -4.33301 0.333008 -7 1s-5 1 -7 1c-4.66699 0.666992 -9.33398 1.5 -14.001 2.5s-9.33398 2.16699 -14.001 3.5
c-19.333 4.66699 -36.666 13.5 -51.999 26.5s-28.666 29.5 -39.999 49.5s-17 46 -17 78s5.66699 70 17 114l118 439v0v0z" />
    <glyph glyph-name="V" unicode="V" horiz-adv-x="568" 
d="M276 -28l-78 728h74l51 -553l347 553h74l-468 -728v0v0z" />
    <glyph glyph-name="W" unicode="W" horiz-adv-x="938" 
d="M617 556l-369 -584l-54 728h77l25 -553l365 573l59 -573l321 553h77l-444 -728l-57 584v0v0z" />
    <glyph glyph-name="X" unicode="X" horiz-adv-x="504" 
d="M333 304l-250 -304h-76l305 357l-102 343h76l76 -286l231 286h76l-287 -343l115 -357h-75l-89 304v0v0z" />
    <glyph glyph-name="Y" unicode="Y" horiz-adv-x="526" 
d="M229 0l86 322l-121 378h76l95 -316l265 316h76l-323 -378l-86 -322h-68v0v0z" />
    <glyph glyph-name="Z" unicode="Z" horiz-adv-x="553" 
d="M14 0l572 644h-358l15 56h469l-571 -644h399l-15 -56h-511v0v0z" />
    <glyph glyph-name="bracketleft" unicode="[" horiz-adv-x="320" 
d="M235 -210h-204l253 945h204l-15 -56h-140l-223 -833h140l-15 -56v0v0z" />
    <glyph glyph-name="backslash" unicode="\" horiz-adv-x="476" 
d="M398 -210h-56l-125 945h56l125 -945v0v0z" />
    <glyph glyph-name="bracketright" unicode="]" horiz-adv-x="320" 
d="M224 735h204l-253 -945h-203l15 56h139l223 833h-140l15 56v0v0z" />
    <glyph glyph-name="asciicircum" unicode="^" horiz-adv-x="480" 
d="M418 666l-177 -166h-68l210 200h88l102 -200h-68l-87 166v0v0z" />
    <glyph glyph-name="underscore" unicode="_" horiz-adv-x="500" 
d="M-41 -154h499l-15 -56h-499l15 56v0v0z" />
    <glyph glyph-name="grave" unicode="`" horiz-adv-x="250" 
d="M188 637h98l40 -126h-56l-82 126v0v0z" />
    <glyph glyph-name="a" unicode="a" horiz-adv-x="562" 
d="M527 357l21.001 77h56l-116 -434h-56l19 74c-12.667 -16 -26.334 -29.667 -41.001 -41s-30.334 -20.666 -47.001 -27.999c-16.667 -6.66699 -33 -11.834 -49 -15.501s-31.667 -5.5 -47 -5.5c-29.333 0 -55.833 4.66699 -79.5 14s-44.167 24 -61.5 44
c-18 20 -28.833 44.5 -32.5 73.5s-0.166992 62.833 10.5 101.5c8.66699 32.667 21.667 62.834 39 90.501s39.333 52.834 66 75.501c26.667 23.333 55.5 40.666 86.5 51.999s63.833 17 98.5 17c5.33301 0 10.5 -0.166992 15.5 -0.5s10.5 -1.16602 16.5 -2.49902
c5.33301 -0.666992 10.833 -1.83398 16.5 -3.50098s11.5 -3.5 17.5 -5.5c7.33301 -3.33301 14.166 -7.5 20.499 -12.5s12.5 -10.833 18.5 -17.5c6.66699 -6.66699 12.334 -14.334 17.001 -23.001s8.33398 -18.667 11.001 -30v0v0zM280.001 30
c22 0 43.5039 3.99902 64.5039 11.999s41.5 20.333 61.5 37s37 36.5 51 59.5s25 49.167 33 78.5c6.66699 24.667 9.33398 47.834 8.00098 69.501s-6.66602 41.834 -15.999 60.501c-8.66699 19.333 -21.334 33.666 -38.001 42.999s-37.334 14 -62.001 14
s-48.167 -4.66699 -70.5 -14s-43.5 -23 -63.5 -41s-36.5 -38 -49.5 -60s-23.167 -46 -30.5 -72c-6.66699 -24.667 -9.33398 -47.667 -8.00098 -69s6.66602 -41.666 15.999 -60.999c9.33301 -18.667 22.666 -32.834 39.999 -42.501s38.666 -14.5 63.999 -14.5v0v0z" />
    <glyph glyph-name="b" unicode="b" horiz-adv-x="562" 
d="M270 735l60.001 -0.00195312l-99 -371c4 4 7.83301 8 11.5 12s7.16699 7.66699 10.5 11c3.33301 4 6.83301 7.5 10.5 10.5s7.5 5.83301 11.5 8.5s7.83301 5.33398 11.5 8.00098s7.5 5 11.5 7s7.83301 4 11.5 6s7.5 4 11.5 6c9.33301 4 18.166 7.33301 26.499 10
s16.833 4.33398 25.5 5.00098c7.33301 1.33301 14.5 2.33301 21.5 3s13.167 1 18.5 1c34 0 63 -5.66699 87 -17s43.333 -28 58 -50c14 -22 22.5 -47 25.5 -75s-0.166992 -59 -9.5 -93c-10.667 -38.667 -25.667 -72.5 -45 -101.5s-42.666 -53.5 -69.999 -73.5
c-28 -20 -56 -34.667 -84 -44s-56.667 -14 -86 -14c-16.667 0 -32.167 1.83301 -46.5 5.5s-27.833 8.83398 -40.5 15.501c-12.667 7.33301 -23.334 16.666 -32.001 27.999s-15.667 25 -21 41l-19 -74h-56l196 735v0v0zM302.001 29.998
c25.333 0 48.834 4.50098 70.501 13.501s41.834 22.833 60.501 41.5s34.5 39 47.5 61s22.833 45.667 29.5 71l2 10l2 10c0 1.33301 0.166992 2.5 0.5 3.5s0.5 1.83301 0.5 2.5c0 2.66699 0.166992 5.16699 0.5 7.5s0.833008 4.5 1.5 6.5c1.33301 18 0.333008 35.5 -3 52.5
s-9.33301 33.167 -18 48.5s-21.5 26.833 -38.5 34.5s-38.167 11.5 -63.5 11.5c-24.667 0 -47.834 -4.66699 -69.501 -14s-42.167 -23.666 -61.5 -42.999c-18.667 -18.667 -34.167 -38.834 -46.5 -60.501s-21.833 -44.834 -28.5 -69.501c-8 -29.333 -11 -55.5 -9 -78.5
s9 -42.833 21 -59.5c11.333 -16.667 25.666 -29 42.999 -37s37 -12 59 -12v0v0z" />
    <glyph glyph-name="c" unicode="c" horiz-adv-x="457" 
d="M451 84l-17.0098 -63.0029c-0.666992 -0.666992 -1.5 -1.16699 -2.5 -1.5s-1.83301 -0.5 -2.5 -0.5c-0.666992 -0.666992 -1.5 -1.16699 -2.5 -1.5s-1.83301 -0.833008 -2.5 -1.5s-1.5 -1.16699 -2.5 -1.5s-1.83301 -0.5 -2.5 -0.5l-3 -1.5l-3 -1.5
c-6 -2.66699 -12.333 -5.16699 -19 -7.5s-13.667 -4.5 -21 -6.5c-2 -0.666992 -4.33301 -1.33398 -7 -2.00098l-8 -2c-10.667 -3.33301 -21.667 -5.66602 -33 -6.99902s-23 -2 -35 -2c-36.667 0 -68.5 5.33301 -95.5 16s-49.167 27.334 -66.5 50.001
c-16.667 22 -27 47 -31 75s-1.66699 58.667 7 92c9.33301 34 23.5 65 42.5 93s42.833 53 71.5 75s59.5 38.667 92.5 50s67.833 17 104.5 17c14 0 26.833 -0.666992 38.5 -2s21.834 -3.66602 30.501 -6.99902c9.33301 -2.66699 17.5 -5.5 24.5 -8.5
s12.833 -6.16699 17.5 -9.5c0.666992 -0.666992 1.33398 -1.16699 2.00098 -1.5s1.33398 -0.833008 2.00098 -1.5s1.33398 -1.16699 2.00098 -1.5s1.33398 -0.833008 2.00098 -1.5s1.33398 -1.16699 2.00098 -1.5s1.33398 -0.833008 2.00098 -1.5l1 -0.5l1 -0.5l-16 -59
c-12 10 -23.333 18.333 -34 25s-20.667 11.334 -30 14.001c-8.66699 3.33301 -17.5 5.66602 -26.5 6.99902s-18.167 2 -27.5 2c-24.667 0 -49.167 -4.16699 -73.5 -12.5s-48.166 -20.5 -71.499 -36.5s-42.666 -35.5 -57.999 -58.5s-27 -49.5 -35 -79.5
c-8 -29.333 -10.5 -55.5 -7.5 -78.5s11.167 -42.833 24.5 -59.5s29.666 -29 48.999 -37s41.333 -12 66 -12c14.667 0 28.834 1.33301 42.501 4s26.834 6.66699 39.501 12s24.667 11.333 36 18s22.333 13.334 33 20.001v0v0z" />
    <glyph glyph-name="d" unicode="d" horiz-adv-x="562" 
d="M488 0l-56.0039 -0.00195312l19 74c-12.667 -16 -26.334 -29.667 -41.001 -41s-30.334 -20.666 -47.001 -27.999c-16.667 -6.66699 -33 -11.834 -49 -15.501s-31.667 -5.5 -47 -5.5c-29.333 0 -55.833 4.66699 -79.5 14s-44.167 24 -61.5 44
c-18 20 -28.833 44.5 -32.5 73.5s-0.166992 62.833 10.5 101.5c8.66699 32.667 21.834 62.834 39.501 90.501s39.834 52.834 66.501 75.501c27.333 23.333 56.333 40.666 87 51.999s63.334 17 98.001 17c5.33301 0 11 -0.333008 17 -1s12.667 -1.66699 20 -3
c6.66699 -0.666992 13.5 -2.33398 20.5 -5.00098s13.833 -5.66699 20.5 -9c2 -1.33301 3.83301 -2.66602 5.5 -3.99902s3.16699 -2.66602 4.5 -3.99902c3.33301 -2.66699 6.83301 -5.5 10.5 -8.5s6.83398 -6.5 9.50098 -10.5c4.66699 -5.33301 8.83398 -11.5 12.501 -18.5
s6.83398 -15.167 9.50098 -24.5l99 370h60l-196 -734v0v0zM279.996 29.998c22.667 0 44.499 4 65.499 12s41.5 20.333 61.5 37c19.333 16.667 36 36.5 50 59.5s25 49.167 33 78.5c6.66699 24.667 9.33398 47.834 8.00098 69.501s-6.66602 41.834 -15.999 60.501
c-8.66699 19.333 -21.334 33.666 -38.001 42.999s-37.334 14 -62.001 14s-48.167 -4.5 -70.5 -13.5s-43.5 -22.5 -63.5 -40.5c-19.333 -18 -35.666 -38.167 -48.999 -60.5s-23.666 -46.5 -30.999 -72.5c-6.66699 -24.667 -9.33398 -47.834 -8.00098 -69.501
s6.66602 -42.167 15.999 -61.5c8.66699 -18.667 21.834 -32.667 39.501 -42s39.167 -14 64.5 -14v0v0z" />
    <glyph glyph-name="e" unicode="e" horiz-adv-x="515" 
d="M459 137l39.9971 -22.9971c-14 -18 -29.167 -34.5 -45.5 -49.5s-34.166 -29.167 -53.499 -42.5c-19.333 -12.667 -40.333 -22.167 -63 -28.5s-47 -9.5 -73 -9.5c-35.333 0 -65.166 5.66699 -89.499 17s-43.166 29 -56.499 53c-12.667 24 -20.334 49.5 -23.001 76.5
s0.333008 55.833 9 86.5l4 16c1.33301 5.33301 3.33301 11 6 17l8 18c2.66699 6 5.66699 12 9 18c11.333 20.667 25 40.5 41 59.5s35 37.167 57 54.5c21.333 17.333 45.5 30.333 72.5 39s56.5 13 88.5 13c28.667 0 52.834 -4.16699 72.501 -12.5s34.834 -20.5 45.501 -36.5
c11.333 -16 19.666 -33 24.999 -51s8 -36.667 8 -56c0 -1.33301 -0.166992 -2.83301 -0.5 -4.5s-0.5 -3.5 -0.5 -5.5c0 -2.66699 -0.166992 -5.5 -0.5 -8.5s-0.833008 -6.16699 -1.5 -9.5l-2 -14c-0.666992 -4.66699 -1.66699 -9 -3 -13l-8 -29h-359v-1.5v-0.5v0v0v-0.5
v-0.5l-1 -1v0v0v0v-1v0c-0.666992 -2.66699 -1.33398 -5.5 -2.00098 -8.5s-1.33398 -6.16699 -2.00098 -9.5c0 -1.33301 -0.166992 -2.83301 -0.5 -4.5s-0.5 -3.16699 -0.5 -4.5c-0.666992 -2 -1.16699 -3.83301 -1.5 -5.5s-0.5 -3.16699 -0.5 -4.5
c-1.33301 -17.333 -0.166016 -34 3.50098 -50s9.83398 -31.333 18.501 -46c9.33301 -14.667 22.166 -25.667 38.499 -33s35.833 -11 58.5 -11c5.33301 0 11.333 0.333008 18 1s14.334 1.66699 23.001 3c7.33301 1.33301 15.5 3.66602 24.5 6.99902s18.5 8 28.5 14
c6.66699 4 13.5 8.5 20.5 13.5s14.5 10.833 22.5 17.5l14.5 14.5c5 5 10.167 10.5 15.5 16.5c2.66699 3.33301 5.16699 6.66602 7.5 9.99902s4.83301 6.66602 7.5 9.99902v0v0zM183.997 260.003h294.002c4 18 5 35.333 3 52s-7 32.334 -15 47.001
c-8 15.333 -19.333 26.666 -34 33.999s-32.667 11 -54 11c-20.667 0 -40.834 -3.5 -60.501 -10.5s-38.167 -17.167 -55.5 -30.5c-18 -14 -33.333 -29.5 -46 -46.5s-23.334 -35.833 -32.001 -56.5v0v0z" />
    <glyph glyph-name="f" unicode="f" horiz-adv-x="260" 
d="M88 0l103.003 386.004h-70l13 48h70l52 194v2c0 0.666992 0.333008 1.33398 1 2.00098l0.5 1c0.333008 0.666992 0.5 1.33398 0.5 2.00098c0 1.33301 0.166992 2.66602 0.5 3.99902s0.833008 2.66602 1.5 3.99902c4 12.667 9.66699 24.667 17 36s15.666 22.333 24.999 33
c10 10.667 22 18.667 36 24s30.333 8 49 8c4.66699 0 9 -0.166992 13 -0.5s7.66699 -0.833008 11 -1.5s6.5 -1.16699 9.5 -1.5s5.83301 -0.833008 8.5 -1.5c1.33301 -0.666992 2.83301 -1.16699 4.5 -1.5s3.16699 -0.833008 4.5 -1.5l0.5 -0.5
c0.333008 -0.333008 0.833008 -0.5 1.5 -0.5h1.5h0.5l-13 -51c-2.66699 1.33301 -5.5 2.66602 -8.5 3.99902s-5.83301 2.33301 -8.5 3c-2.66699 1.33301 -5.33398 2.16602 -8.00098 2.49902s-5 0.833008 -7 1.5h-1.5c-0.333008 0 -0.833008 0.333008 -1.5 1h-1.5h-1.5h-1.5
h-0.5h-1.5h-1.5c-8 0 -15 -1.16699 -21 -3.5s-11.333 -5.5 -16 -9.5c-5.33301 -4.66699 -10 -9.33398 -14 -14.001s-7 -9.66699 -9 -15c-2 -2.66699 -3.5 -5.33398 -4.5 -8.00098s-1.83301 -5 -2.5 -7c-0.666992 -2.66699 -1.33398 -5 -2.00098 -7l-2 -6l-51 -192h98
l-13 -48h-98l-103 -386h-60v0v0z" />
    <glyph glyph-name="g" unicode="g" horiz-adv-x="562" 
d="M43 -81l66.002 -0.00195312c-0.666992 -15.333 1.83301 -29 7.5 -41s14.5 -21.667 26.5 -29c11.333 -7.33301 24 -13 38 -17s29 -6 45 -6c22.667 0 43 2.66699 61 8s33.667 13.333 47 24s25.333 21.834 36 33.501s19.667 24.167 27 37.5
c5.33301 8.66699 9.66602 17 12.999 25s6.33301 16 9 24c3.33301 8 6 14.833 8 20.5s3.33301 10.834 4 15.501l14 53c-2 -2 -4.33301 -4.5 -7 -7.5s-5.66699 -6.16699 -9 -9.5c-4 -4 -8 -7.83301 -12 -11.5s-8.66699 -7.16699 -14 -10.5c-8 -6 -16.833 -11.5 -26.5 -16.5
s-20.167 -9.5 -31.5 -13.5c-11.333 -4.66699 -23.5 -8.16699 -36.5 -10.5s-26.833 -3.5 -41.5 -3.5c-28.667 0 -55 4.66699 -79 14s-44.667 24 -62 44c-18 20 -28.833 44.5 -32.5 73.5s-0.166992 62.833 10.5 101.5c8.66699 32.667 21.667 62.834 39 90.501
s39.333 52.834 66 75.501c26.667 23.333 55.667 40.666 87 51.999s64.333 17 99 17c5.33301 0 10.5 -0.166992 15.5 -0.5s10.5 -1.16602 16.5 -2.49902c5.33301 -0.666992 10.833 -1.83398 16.5 -3.50098s11.167 -3.5 16.5 -5.5c7.33301 -3.33301 14.333 -7.5 21 -12.5
s13 -10.833 19 -17.5s11.333 -14.334 16 -23.001s8.33398 -18.667 11.001 -30l21 77h56l-113 -420c-0.666992 -4 -2.33398 -9.5 -5.00098 -16.5s-6 -15.833 -10 -26.5c-3.33301 -11.333 -8.33301 -23 -15 -35s-14.334 -24.333 -23.001 -37
c-10 -15.333 -22 -29.833 -36 -43.5s-30.333 -26.834 -49 -39.501s-39.5 -22.167 -62.5 -28.5s-48.833 -9.5 -77.5 -9.5c-32.667 0 -60 3.5 -82 10.5s-38.667 17.167 -50 30.5c-12 13.333 -21 27.5 -27 42.5s-9.33301 30.5 -10 46.5
c0 0.666992 -0.166992 1.33398 -0.5 2.00098l-0.5 1v2v2v2.5v3.5v-2v0zM280.002 29.998c22 0 43.502 3.99902 64.502 11.999s41.5 20.333 61.5 37s37 36.5 51 59.5s25 49.167 33 78.5c6.66699 24.667 9.33398 47.834 8.00098 69.501s-6.66602 41.834 -15.999 60.501
c-8.66699 19.333 -21.334 33.666 -38.001 42.999s-37.334 14 -62.001 14s-48.167 -4.5 -70.5 -13.5s-43.5 -22.5 -63.5 -40.5c-19.333 -18 -35.666 -38.167 -48.999 -60.5s-23.666 -46.5 -30.999 -72.5c-6.66699 -24.667 -9.33398 -47.667 -8.00098 -69
s6.66602 -41.666 15.999 -60.999c9.33301 -18.667 22.666 -32.834 39.999 -42.501s38.666 -14.5 63.999 -14.5v0v0z" />
    <glyph glyph-name="h" unicode="h" horiz-adv-x="505" 
d="M74 0l195.995 735h60l-100 -373c2 2 4.33301 4.5 7 7.5s5.33398 6.16699 8.00098 9.5l10 10c3.33301 3.33301 7.33301 7 12 11c7.33301 6 15.5 12 24.5 18s19.167 11.667 30.5 17s23.666 9.5 36.999 12.5s27.333 4.5 42 4.5c24 0 44.333 -3.66699 61 -11
s29.334 -18.666 38.001 -33.999c9.33301 -14.667 14.333 -32.834 15 -54.501s-2.66602 -46.5 -9.99902 -74.5l-74 -278h-60l72 270c0.666992 3.33301 1.33398 6.5 2.00098 9.5s1.33398 5.83301 2.00098 8.5c0 1.33301 0.166992 2.83301 0.5 4.5s0.833008 3.5 1.5 5.5
c0 1.33301 0.166992 2.83301 0.5 4.5s0.833008 3.16699 1.5 4.5c1.33301 12 1.5 23.5 0.5 34.5s-3.16699 21.5 -6.5 31.5s-10.333 17.667 -21 23s-25 8 -43 8c-20.667 0 -40.5 -4 -59.5 -12s-36.167 -20 -51.5 -36c-16 -16 -29.667 -32.833 -41 -50.5
s-20.666 -36.167 -27.999 -55.5c0 -0.666992 -0.166992 -1.5 -0.5 -2.5s-0.833008 -2.16699 -1.5 -3.5c-0.666992 -0.666992 -1.16699 -1.5 -1.5 -2.5s-0.5 -2.16699 -0.5 -3.5c-0.666992 -2 -1.16699 -4 -1.5 -6s-0.833008 -4 -1.5 -6l-60 -226h-60v0v0z" />
    <glyph glyph-name="i" unicode="i" horiz-adv-x="208" 
d="M190 434h60l-116 -434h-60l116 434v0v0zM213 581c1.33301 6 3.83105 11.667 7.49805 17s8.16699 10.333 13.5 15s11.333 8.16699 18 10.5s13.334 3.5 20.001 3.5s12.334 -1.16699 17.001 -3.5s8.66699 -5.5 12 -9.5c3.33301 -4.66699 5.33301 -9.66699 6 -15
s0 -11.333 -2 -18s-5 -12.834 -9 -18.501s-8.66699 -10.5 -14 -14.5c-5.33301 -4.66699 -11 -8 -17 -10s-12 -3 -18 -3c-6.66699 0 -12.5 1 -17.5 3s-9.16699 5.33301 -12.5 10c-3.33301 4 -5.33301 8.83301 -6 14.5s0 11.834 2 18.501v0v0z" />
    <glyph glyph-name="j" unicode="j" horiz-adv-x="208" 
d="M190 434h60l-173 -644h-60l173 644v0v0zM213 581c1.33301 6 3.83105 11.667 7.49805 17s8.16699 10.333 13.5 15s11.333 8.16699 18 10.5s13.334 3.5 20.001 3.5s12.334 -1.16699 17.001 -3.5s8.66699 -5.5 12 -9.5c3.33301 -4.66699 5.33301 -9.66699 6 -15
s0 -11.333 -2 -18s-5 -12.834 -9 -18.501s-8.66699 -10.5 -14 -14.5c-5.33301 -4.66699 -11 -8 -17 -10s-12 -3 -18 -3c-6.66699 0 -12.5 1 -17.5 3s-9.16699 5.33301 -12.5 10c-3.33301 4 -5.33301 8.83301 -6 14.5s0 11.834 2 18.501v0v0z" />
    <glyph glyph-name="k" unicode="k" horiz-adv-x="461" 
d="M74 0l196 735h60l-127 -477l241 176h82l-263 -187l187 -247h-87l-153 210l-25 -17l-51 -193h-60v0v0z" />
    <glyph glyph-name="l" unicode="l" horiz-adv-x="208" 
d="M74 0l196 735h60l-196 -735h-60v0v0z" />
    <glyph glyph-name="m" unicode="m" horiz-adv-x="760" 
d="M230 359c8 10 16.0059 19.0039 24.0059 27.0039s16.333 15 25 21c7.33301 6 14.833 11.5 22.5 16.5s15.167 9.16699 22.5 12.5l10 4c3.33301 1.33301 7 2.66602 11 3.99902l10 2l10 2c3.33301 0.666992 6.5 1.16699 9.5 1.5s6.16699 0.833008 9.5 1.5
c2.66699 0 5.66699 0.166992 9 0.5s6.33301 0.5 9 0.5c17.333 0 32.166 -2.33301 44.499 -7s22.166 -11.667 29.499 -21s12.666 -19.333 15.999 -30s5 -21.667 5 -33c7.33301 8.66699 14.5 16.5 21.5 23.5s14.167 13.5 21.5 19.5l10 8c3.33301 2.66699 7 5 11 7l10 6l10 6
c9.33301 4.66699 18.333 8.5 27 11.5s17.334 4.83301 26.001 5.5c8 1.33301 15.5 2.33301 22.5 3s12.833 1 17.5 1c3.33301 0 7 -0.166992 11 -0.5s8.66699 -0.833008 14 -1.5s10.833 -1.83398 16.5 -3.50098s11.167 -4.16699 16.5 -7.5c7.33301 -4 14 -10 20 -18
s11.333 -17.667 16 -29c4 -11.333 5.66699 -25.833 5 -43.5s-4.33398 -38.5 -11.001 -62.5l-76 -286h-60l76 286c0.666992 1.33301 1.16699 2.83301 1.5 4.5s0.833008 3.5 1.5 5.5c0 2 0.166992 4.16699 0.5 6.5s0.833008 4.5 1.5 6.5
c1.33301 4.66699 2.16602 9.33398 2.49902 14.001s0.833008 9.33398 1.5 14.001c0 8 -1 16 -3 24s-5 15.333 -9 22c-4 7.33301 -10.167 12.666 -18.5 15.999s-19.166 5 -32.499 5c-2.66699 0 -5.5 -0.166992 -8.5 -0.5s-6.16699 -0.833008 -9.5 -1.5
c-2.66699 -0.666992 -5.5 -1.16699 -8.5 -1.5s-6.16699 -1.16602 -9.5 -2.49902c-12.667 -4 -25.834 -10.333 -39.501 -19s-27.167 -19.667 -40.5 -33s-25 -29.5 -35 -48.5s-18.333 -40.833 -25 -65.5l-62 -232h-60l75 283c0.666992 1.33301 1.16699 2.66602 1.5 3.99902
s0.5 2.66602 0.5 3.99902s0.166992 2.66602 0.5 3.99902s0.833008 2.66602 1.5 3.99902c0 0.666992 0.166992 1.5 0.5 2.5s0.5 1.83301 0.5 2.5c0 2 0.166992 3.83301 0.5 5.5s0.833008 3.5 1.5 5.5c2 11.333 2.66699 22 2 32s-2.66699 19.667 -6 29s-9.33301 16.333 -18 21
s-20.667 7 -36 7c-18 0 -35.333 -3.66699 -52 -11s-32.667 -18.666 -48 -33.999c-15.333 -14.667 -28.833 -30.334 -40.5 -47.001s-21.167 -34 -28.5 -52c0 -0.666992 -0.333008 -1.5 -1 -2.5s-1 -1.83301 -1 -2.5c-0.666992 -1.33301 -1.33398 -2.83301 -2.00098 -4.5
s-1.33398 -3.16699 -2.00098 -4.5c-0.666992 -2.66699 -1.16699 -5.16699 -1.5 -7.5s-0.833008 -4.5 -1.5 -6.5l-62 -232h-60l116 434h60l-20 -75v0v0z" />
    <glyph glyph-name="n" unicode="n" horiz-adv-x="505" 
d="M74 0l115.995 434h60l-20 -72c2 2 4.33301 4.5 7 7.5s5.33398 6.16699 8.00098 9.5l10 10c3.33301 3.33301 7.33301 7 12 11c7.33301 6 15.5 12 24.5 18s19.167 11.667 30.5 17s23.666 9.5 36.999 12.5s27.333 4.5 42 4.5c24 0 44.333 -3.66699 61 -11
s29.334 -18.666 38.001 -33.999c9.33301 -14.667 14.333 -32.834 15 -54.501s-2.66602 -46.5 -9.99902 -74.5l-74 -278h-60l72 270c0.666992 3.33301 1.33398 6.5 2.00098 9.5s1.33398 5.83301 2.00098 8.5c0 1.33301 0.166992 2.83301 0.5 4.5s0.833008 3.5 1.5 5.5
c0 1.33301 0.166992 2.83301 0.5 4.5s0.833008 3.16699 1.5 4.5c1.33301 12 1.5 23.5 0.5 34.5s-3.16699 21.5 -6.5 31.5s-10.333 17.667 -21 23s-25 8 -43 8c-20.667 0 -40.5 -4 -59.5 -12s-36.167 -20 -51.5 -36c-16 -16 -29.667 -32.833 -41 -50.5
s-20.666 -36.167 -27.999 -55.5c0 -0.666992 -0.166992 -1.5 -0.5 -2.5s-0.833008 -2.16699 -1.5 -3.5c-0.666992 -0.666992 -1.16699 -1.5 -1.5 -2.5s-0.5 -2.16699 -0.5 -3.5c-0.666992 -2 -1.16699 -4 -1.5 -6s-0.833008 -4 -1.5 -6l-60 -226h-60v0v0z" />
    <glyph glyph-name="o" unicode="o" horiz-adv-x="564" 
d="M277 -18c-31.333 1.33301 -59.4961 6.83398 -84.4961 16.501s-46.5 24.834 -64.5 45.501c-18.667 20.667 -29.834 45.5 -33.501 74.5s-0.5 61.833 9.5 98.5c8.66699 32.667 22 62.834 40 90.501s41 52.834 69 75.501c27.333 23.333 57 40.666 89 51.999s65.667 17 101 17
s65.666 -5.66699 90.999 -17s45.666 -28.666 60.999 -51.999c15.333 -22.667 24.833 -47.834 28.5 -75.501s1.16699 -57.834 -7.5 -90.501s-22.334 -62.834 -41.001 -90.501s-41.667 -52.834 -69 -75.501s-56.833 -39.5 -88.5 -50.5s-65.167 -16.5 -100.5 -16.5v-2v0z
M290.004 30.001c27.333 0 52.832 4.83203 76.499 14.499s45.5 24.167 65.5 43.5c20.667 19.333 37.5 39.833 50.5 61.5s22.833 44.167 29.5 67.5c6 23.333 8.16699 45.833 6.5 67.5s-7.5 42.167 -17.5 61.5s-24.167 33.833 -42.5 43.5s-41.166 14.5 -68.499 14.5
s-53 -4.83301 -77 -14.5s-46 -24.167 -66 -43.5s-36.667 -39.833 -50 -61.5s-23 -44.167 -29 -67.5c-6.66699 -24 -9.16699 -46.667 -7.5 -68s7.5 -41.666 17.5 -60.999s24.333 -33.833 43 -43.5s41.667 -14.5 69 -14.5v0v0z" />
    <glyph glyph-name="p" unicode="p" horiz-adv-x="562" 
d="M190 434l56.001 -0.000976562l-21 -77c10 12.667 21.5 24.5 34.5 35.5s27.167 21.167 42.5 30.5s32.333 16.5 51 21.5s38.667 7.5 60 7.5c34 0 63 -5.66699 87 -17s43.333 -28 58 -50c14 -22 22.5 -47 25.5 -75s-0.166992 -59 -9.5 -93
c-10.667 -38.667 -25.667 -72.5 -45 -101.5s-42.666 -53.5 -69.999 -73.5c-28 -20 -56 -34.667 -84 -44s-56.667 -14 -86 -14c-16.667 0 -31.834 1.5 -45.501 4.5s-25.167 6.83301 -34.5 11.5c-9.33301 6 -17.666 12.333 -24.999 19s-13.333 13.334 -18 20.001
c-1.33301 2 -2.5 3.83301 -3.5 5.5s-1.83301 3.16699 -2.5 4.5c-0.666992 0.666992 -1.16699 1.5 -1.5 2.5s-0.833008 1.83301 -1.5 2.5c-0.666992 1.33301 -1.33398 2.5 -2.00098 3.5s-1.33398 2.16699 -2.00098 3.5c0 0.666992 -0.333008 1.66699 -1 3s-1 2.33301 -1 3
l-74 -277h-60l173 644v0v0zM302.001 29.999c25.333 0 48.834 4.50098 70.501 13.501s41.834 22.833 60.501 41.5s34.5 39 47.5 61s22.833 45.667 29.5 71l2 10l2 10c0 1.33301 0.166992 2.5 0.5 3.5s0.5 1.83301 0.5 2.5c0 2.66699 0.166992 5.16699 0.5 7.5
s0.833008 4.5 1.5 6.5c1.33301 18 0.333008 35.5 -3 52.5s-9.33301 33.167 -18 48.5s-21.5 26.833 -38.5 34.5s-38.167 11.5 -63.5 11.5c-24.667 0 -47.834 -4.66699 -69.501 -14s-42.167 -23.666 -61.5 -42.999c-18.667 -18.667 -34.167 -38.834 -46.5 -60.501
s-21.833 -44.834 -28.5 -69.501c-8 -29.333 -11 -55.5 -9 -78.5s9 -42.833 21 -59.5c11.333 -16.667 25.666 -29 42.999 -37s37 -12 59 -12v0v0z" />
    <glyph glyph-name="q" unicode="q" horiz-adv-x="562" 
d="M431 -210h-60.0039l74 277c-2 -2 -4.33301 -4.5 -7 -7.5s-5.66699 -6.16699 -9 -9.5c-4 -4 -8 -7.83301 -12 -11.5s-8.66699 -7.16699 -14 -10.5c-8 -6 -16.833 -11.5 -26.5 -16.5s-20.167 -9.5 -31.5 -13.5c-11.333 -4.66699 -23.5 -8.16699 -36.5 -10.5
s-26.833 -3.5 -41.5 -3.5c-29.333 0 -55.833 4.66699 -79.5 14s-44.167 24 -61.5 44c-18 20 -28.833 44.5 -32.5 73.5s-0.166992 62.833 10.5 101.5c8.66699 32.667 21.834 62.834 39.501 90.501s39.834 52.834 66.501 75.501c27.333 23.333 56.333 40.666 87 51.999
s63.334 17 98.001 17c5.33301 0 10.5 -0.166992 15.5 -0.5s10.5 -1.16602 16.5 -2.49902c5.33301 -0.666992 10.833 -1.83398 16.5 -3.50098s11.167 -3.5 16.5 -5.5c7.33301 -3.33301 14.333 -7.5 21 -12.5s13 -10.833 19 -17.5s11.333 -14.334 16 -23.001
s8.33398 -18.667 11.001 -30l21 77h56l-173 -644v0v0zM279.996 30c22.667 0 44.499 4 65.499 12s41.5 20.333 61.5 37c19.333 16.667 36 36.5 50 59.5s25 49.167 33 78.5c6.66699 24.667 9.33398 47.834 8.00098 69.501s-6.66602 41.834 -15.999 60.501
c-8.66699 19.333 -21.334 33.666 -38.001 42.999s-37.334 14 -62.001 14s-48.167 -4.5 -70.5 -13.5s-43.5 -22.5 -63.5 -40.5c-19.333 -18 -35.666 -38.167 -48.999 -60.5s-23.666 -46.5 -30.999 -72.5c-6.66699 -24.667 -9.33398 -47.834 -8.00098 -69.501
s6.66602 -42.167 15.999 -61.5c8.66699 -18.667 21.834 -32.667 39.501 -42s39.167 -14 64.5 -14v0v0z" />
    <glyph glyph-name="r" unicode="r" horiz-adv-x="325" 
d="M74 0l115.994 434h60l-25 -91c9.33301 12 18.5 22.833 27.5 32.5s17.5 17.834 25.5 24.501c7.33301 7.33301 14.833 13.5 22.5 18.5s14.834 9.16699 21.501 12.5c4.66699 2 9.5 4 14.5 6s9.83301 3.33301 14.5 4c4.66699 1.33301 9.33398 2.16602 14.001 2.49902
s9.33398 0.5 14.001 0.5s9 -0.166992 13 -0.5s8 -0.833008 12 -1.5c1.33301 -0.666992 2.83301 -1.16699 4.5 -1.5s3.16699 -0.5 4.5 -0.5c1.33301 -0.666992 2.83301 -1.16699 4.5 -1.5s3.16699 -0.833008 4.5 -1.5c0.666992 -0.666992 1.33398 -1.16699 2.00098 -1.5
s1.33398 -0.5 2.00098 -0.5h0.5h1.5c0 -0.666992 0.166992 -1 0.5 -1h1.5l-33 -56h-0.5c-0.333008 0 -0.5 0.333008 -0.5 1h-1v0h-0.5c-0.333008 0 -0.5 0.333008 -0.5 1h-1v0c-1.33301 0.666992 -2.83301 1.33398 -4.5 2.00098s-3.5 1.33398 -5.5 2.00098
c-0.666992 0 -1.5 0.333008 -2.5 1s-1.83301 1 -2.5 1c-2.66699 1.33301 -5.83398 2.16602 -9.50098 2.49902s-7.5 0.5 -11.5 0.5h-1.5h-0.5v0v0h-1v0c-13.333 -0.666992 -27.166 -4.83398 -41.499 -12.501s-29.166 -18.834 -44.499 -33.501s-28.5 -30.167 -39.5 -46.5
s-20.167 -33.166 -27.5 -50.499c-0.666992 -0.666992 -1.16699 -1.5 -1.5 -2.5s-0.5 -1.83301 -0.5 -2.5l-1.5 -3l-1.5 -3c-0.666992 -2 -1.16699 -4 -1.5 -6s-0.5 -3.66699 -0.5 -5l-60 -224h-60v0v0z" />
    <glyph glyph-name="s" unicode="s" horiz-adv-x="382" 
d="M55 89l56 25.9951c0.666992 -10.667 3 -20.834 7 -30.501s9.33301 -19.167 16 -28.5c6.66699 -8.66699 15.334 -15.167 26.001 -19.5s23.334 -6.5 38.001 -6.5c14 0 27 1.83301 39 5.5s23.333 9.5 34 17.5c10 8 18.5 17.333 25.5 28s12.167 22.334 15.5 35.001
c3.33301 11.333 4.33301 21.5 3 30.5s-4.66602 16.5 -9.99902 22.5s-11.5 11.333 -18.5 16s-14.167 8.33398 -21.5 11.001c-1.33301 0.666992 -2.66602 1.16699 -3.99902 1.5s-2.66602 0.833008 -3.99902 1.5s-2.66602 1.16699 -3.99902 1.5s-2.66602 0.833008 -3.99902 1.5
s-2.83301 1.16699 -4.5 1.5s-3.16699 0.833008 -4.5 1.5c-1.33301 0 -2.5 0.166992 -3.5 0.5s-2.16699 0.833008 -3.5 1.5h-1.5h-1.5c-0.666992 0 -1.16699 0.166992 -1.5 0.5s-0.5 0.833008 -0.5 1.5c-14 4.66699 -27.167 10.167 -39.5 16.5s-23.5 13.833 -33.5 22.5
c-10.667 8 -17 19 -19 33s-0.666992 30.333 4 49c5.33301 19.333 13.166 36.5 23.499 51.5s23.833 27.833 40.5 38.5s34 18.667 52 24s36.667 8 56 8c4.66699 0 9.33398 -0.166992 14.001 -0.5s9.66699 -1.16602 15 -2.49902
c5.33301 -0.666992 10.666 -1.83398 15.999 -3.50098s10.666 -4.16699 15.999 -7.5c2 -0.666992 3.83301 -1.66699 5.5 -3s3.16699 -2.66602 4.5 -3.99902c3.33301 -2.66699 6.83301 -5.66699 10.5 -9s6.83398 -7 9.50098 -11c4 -6 7.66699 -13 11 -21s6.33301 -17 9 -27
l-52 -24c-0.666992 10 -3.16699 18.833 -7.5 26.5s-10.166 14.5 -17.499 20.5c-6.66699 6 -14.334 10.5 -23.001 13.5s-18.334 4.5 -29.001 4.5c-12 0 -23 -1.66699 -33 -5s-19.333 -8.33301 -28 -15c-8 -6.66699 -14.667 -14.167 -20 -22.5s-9.33301 -17.166 -12 -26.499
c-2.66699 -10.667 -3.5 -19.667 -2.5 -27s3.83301 -13.333 8.5 -18c5.33301 -4.66699 11.5 -9 18.5 -13s14.833 -7.66699 23.5 -11c0.666992 0 1.16699 -0.166992 1.5 -0.5s0.833008 -0.5 1.5 -0.5s1.5 -0.166992 2.5 -0.5s2.16699 -0.833008 3.5 -1.5
s3 -1.33398 5 -2.00098l6 -2l4 -2c1.33301 -0.666992 3 -1.33398 5 -2.00098c1.33301 0 2.33301 -0.166992 3 -0.5s1.33398 -0.5 2.00098 -0.5c0.666992 -0.666992 1.5 -1.16699 2.5 -1.5s1.83301 -0.5 2.5 -0.5c13.333 -4.66699 26.166 -10.667 38.499 -18
s23.833 -15.666 34.5 -24.999c9.33301 -9.33301 15.166 -21.5 17.499 -36.5s0.833008 -33.167 -4.5 -54.5c0 -1.33301 -0.333008 -2.83301 -1 -4.5s-1.33398 -3.16699 -2.00098 -4.5c-0.666992 -2 -1.33398 -3.83301 -2.00098 -5.5s-1.33398 -3.16699 -2.00098 -4.5
c-1.33301 -3.33301 -2.83301 -6.66602 -4.5 -9.99902s-3.16699 -6.66602 -4.5 -9.99902c-7.33301 -12.667 -16.333 -24.5 -27 -35.5s-23 -21.5 -37 -31.5c-14.667 -8.66699 -31.5 -15.5 -50.5 -20.5s-40.5 -7.5 -64.5 -7.5c-4.66699 0 -9.83398 0.166992 -15.501 0.5
s-11.834 1.16602 -18.501 2.49902c-6.66699 0.666992 -13.167 2.33398 -19.5 5.00098s-12.5 5.33398 -18.5 8.00098c-6.66699 3.33301 -12.667 7.83301 -18 13.5s-10.333 11.834 -15 18.501c-4.66699 7.33301 -8.66699 15.666 -12 24.999s-5.66602 20 -6.99902 32v0v0z" />
    <glyph glyph-name="t" unicode="t" horiz-adv-x="250" 
d="M88 0l103 386h-70l13 48h70l45 168h60l-45 -168h84l-13 -48h-84l-103 -386h-60v0v0z" />
    <glyph glyph-name="u" unicode="u" horiz-adv-x="511" 
d="M190 434h60.001l-71 -263c0 -2 -0.5 -4.5 -1.5 -7.5s-1.83301 -6.16699 -2.5 -9.5c0 -1.33301 -0.166992 -3 -0.5 -5s-0.833008 -4 -1.5 -6c-2 -6.66699 -3 -13.167 -3 -19.5s0.333008 -12.833 1 -19.5c0.666992 -9.33301 2.66699 -18.333 6 -27s8.33301 -16.667 15 -24
c6 -8 15.167 -13.833 27.5 -17.5s27.166 -5.5 44.499 -5.5s33 2 47 6s26.333 10 37 18s20.167 16.5 28.5 25.5s15.166 18.5 20.499 28.5c2 3.33301 3.66699 6.33301 5 9s2.66602 5.66699 3.99902 9c1.33301 2.66699 2.66602 5.5 3.99902 8.5s2.33301 5.83301 3 8.5
c2 5.33301 3.83301 10.333 5.5 15s2.83398 9 3.50098 13l71 263h60l-69 -256c-8 -30.667 -18.167 -57.334 -30.5 -80.001s-26.5 -40.667 -42.5 -54c-16 -14 -32 -25.167 -48 -33.5s-31.667 -14.5 -47 -18.5c-6 -1.33301 -12 -2.5 -18 -3.5s-11.667 -1.83301 -17 -2.5
s-10.5 -1.16699 -15.5 -1.5s-9.83301 -0.5 -14.5 -0.5s-9.5 0.166992 -14.5 0.5s-10.167 0.833008 -15.5 1.5c-1.33301 0 -3 0.166992 -5 0.5s-3.66699 0.5 -5 0.5l-10 2c-3.33301 0.666992 -6.66602 1.66699 -9.99902 3c-14 4 -26.667 10 -38 18s-21.666 19 -30.999 33
c-8.66699 14 -13 32.333 -13 55s4 49.334 12 80.001l69 256v0v0z" />
    <glyph glyph-name="v" unicode="v" horiz-adv-x="434" 
d="M211 -22l-88 456h67l57 -329l231 329h65l-332 -456v0v0z" />
    <glyph glyph-name="w" unicode="w" horiz-adv-x="694" 
d="M438 340l-237 -362l-78 456h70l48 -315l233 358l41 -358l218 315h70l-322 -456l-43 362v0v0z" />
    <glyph glyph-name="x" unicode="x" horiz-adv-x="417" 
d="M11 0l220 223l-97 211h77l71 -169l153 169h70l-200 -210l101 -224h-76l-75 182l-167 -182h-77v0v0z" />
    <glyph glyph-name="y" unicode="y" horiz-adv-x="453" 
d="M127 434h68l64 -367l238 367h61l-429 -644h-65l148 214l-85 430v0v0z" />
    <glyph glyph-name="z" unicode="z" horiz-adv-x="425" 
d="M154 434h355l-377 -386h280l-12 -48h-382l380 386h-257l13 48v0v0z" />
    <glyph glyph-name="braceleft" unicode="{" horiz-adv-x="331" 
d="M108 219l14.0088 52.9912c2 0 4.5 0.5 7.5 1.5s5.83301 1.83301 8.5 2.5c3.33301 1.33301 6.83301 2.5 10.5 3.5s7.16699 2.5 10.5 4.5c8.66699 4 17.5 9.66699 26.5 17s17.833 16.333 26.5 27c9.33301 10.667 17.833 24 25.5 40s14.167 34.333 19.5 55
c2.66699 10 4.83398 18.5 6.50098 25.5s2.83398 12.5 3.50098 16.5c1.33301 3.33301 2.16602 6.5 2.49902 9.5s0.833008 5.5 1.5 7.5c0 2 0.166992 4.33301 0.5 7s0.833008 5.66699 1.5 9c1.33301 3.33301 2.66602 8.16602 3.99902 14.499s3.33301 14.5 6 24.5
c0 1.33301 0.166992 2.33301 0.5 3l1.5 3c0 0.666992 0.166992 1.5 0.5 2.5s0.5 1.83301 0.5 2.5l2 6c0.666992 2 1.66699 4 3 6c5.33301 16.667 12.666 32.667 21.999 48s20.666 30.333 33.999 45s30.333 26.334 51 35.001s44.334 14.334 71.001 17.001l-12 -46
c-10.667 -1.33301 -20.5 -3.66602 -29.5 -6.99902s-16.5 -7.66602 -22.5 -12.999c-6.66699 -5.33301 -12.5 -11 -17.5 -17s-9.5 -12 -13.5 -18c-2.66699 -4.66699 -5 -9.16699 -7 -13.5s-3.66699 -8.5 -5 -12.5s-2.5 -7.66699 -3.5 -11s-1.83301 -6.33301 -2.5 -9
c0 -1.33301 -0.166992 -2.66602 -0.5 -3.99902s-0.833008 -2.33301 -1.5 -3c-0.666992 -1.33301 -1.16699 -2.5 -1.5 -3.5s-0.5 -2.16699 -0.5 -3.5c-0.666992 -2.66699 -1.16699 -5.16699 -1.5 -7.5s-0.833008 -4.5 -1.5 -6.5
c-0.666992 -2.66699 -1.33398 -5.16699 -2.00098 -7.5s-1.33398 -4.5 -2.00098 -6.5c-0.666992 -1.33301 -1.16699 -2.83301 -1.5 -4.5s-0.5 -3.5 -0.5 -5.5c0 -0.666992 -0.166992 -1.33398 -0.5 -2.00098s-0.5 -1.33398 -0.5 -2.00098
c0 -1.33301 -0.166992 -2.66602 -0.5 -3.99902s-0.833008 -2.33301 -1.5 -3c-0.666992 -1.33301 -1.16699 -2.66602 -1.5 -3.99902s-0.5 -2.66602 -0.5 -3.99902c-0.666992 -2 -1.16699 -3.83301 -1.5 -5.5s-0.5 -3.5 -0.5 -5.5
c0 -0.666992 -0.166992 -1.33398 -0.5 -2.00098s-0.5 -1.33398 -0.5 -2.00098c-0.666992 -2 -1.16699 -3.83301 -1.5 -5.5s-0.5 -3.5 -0.5 -5.5c0 -0.666992 -0.166992 -1.5 -0.5 -2.5s-0.5 -1.83301 -0.5 -2.5c-0.666992 -2.66699 -1.33398 -5.16699 -2.00098 -7.5
s-1.33398 -4.83301 -2.00098 -7.5c-2 -6 -4 -12.333 -6 -19s-4.33301 -13.667 -7 -21s-5.66699 -14.833 -9 -22.5s-7 -15.167 -11 -22.5c-6.66699 -10.667 -14.167 -21 -22.5 -31s-17.833 -19.667 -28.5 -29c-10.667 -10 -23.334 -19 -38.001 -27s-30.667 -15 -48 -21l-1 -5
c14 -6.66699 26.167 -14 36.5 -22s18.166 -16.667 23.499 -26c5.33301 -10 9.66602 -20 12.999 -30s5.33301 -20 6 -30c-0.666992 -8 -1.16699 -15.667 -1.5 -23s-1.16602 -14.666 -2.49902 -21.999s-2.83301 -14.333 -4.5 -21s-3.16699 -13 -4.5 -19
c0 -1.33301 -0.166992 -2.66602 -0.5 -3.99902s-0.833008 -2.33301 -1.5 -3c-0.666992 -1.33301 -1.16699 -2.66602 -1.5 -3.99902s-0.5 -2.66602 -0.5 -3.99902c-0.666992 -2.66699 -1.5 -5.33398 -2.5 -8.00098s-1.83301 -5 -2.5 -7
c-0.666992 -2.66699 -1.5 -5.33398 -2.5 -8.00098s-1.83301 -5.33398 -2.5 -8.00098c0 -0.666992 -0.166992 -1.5 -0.5 -2.5s-0.833008 -2.16699 -1.5 -3.5c-0.666992 -0.666992 -1.16699 -1.66699 -1.5 -3s-0.5 -2.66602 -0.5 -3.99902s-0.333008 -2.5 -1 -3.5
s-1 -2.16699 -1 -3.5c-0.666992 -0.666992 -1.33398 -1.66699 -2.00098 -3s-1 -2.66602 -1 -3.99902c-0.666992 -2 -1.16699 -4.16699 -1.5 -6.5s-1.16602 -4.83301 -2.49902 -7.5c-0.666992 -2 -1.16699 -4.16699 -1.5 -6.5s-0.833008 -4.83301 -1.5 -7.5
c-0.666992 -2 -1.33398 -4.16699 -2.00098 -6.5s-1.33398 -4.83301 -2.00098 -7.5c-0.666992 -1.33301 -1.16699 -2.66602 -1.5 -3.99902s-0.5 -3 -0.5 -5c-0.666992 -1.33301 -1.16699 -3 -1.5 -5s-0.833008 -4 -1.5 -6c-0.666992 -4 -1.16699 -8.16699 -1.5 -12.5
s-0.5 -8.83301 -0.5 -13.5c0.666992 -6 2 -12 4 -18s4.66699 -11.667 8 -17s8.66602 -9.66602 15.999 -12.999s16 -5.66602 26 -6.99902l-13 -48c-25.333 3.33301 -45.833 9.5 -61.5 18.5s-26.5 20.833 -32.5 35.5s-9.5 29.667 -10.5 45s0.166992 31.333 3.5 48
c0 2 0.166992 4 0.5 6s0.833008 4 1.5 6c0.666992 0.666992 1.16699 1.5 1.5 2.5s0.5 1.83301 0.5 2.5v1.5v0.5c0 0.666992 0.166992 1.33398 0.5 2.00098s0.5 1.33398 0.5 2.00098c3.33301 10 5.83301 18.167 7.5 24.5s2.83398 11.166 3.50098 14.499
c1.33301 2.66699 2.5 5.16699 3.5 7.5s1.83301 4.5 2.5 6.5s1.5 4.33301 2.5 7s1.83301 6 2.5 10c1.33301 3.33301 3.16602 8.5 5.49902 15.5s4.83301 15.833 7.5 26.5c5.33301 21.333 8.5 39.666 9.5 54.999s-0.166992 28.333 -3.5 39s-7.5 19.667 -12.5 27
s-10.833 13.333 -17.5 18c-2.66699 1.33301 -5.16699 2.83301 -7.5 4.5s-5.16602 2.83398 -8.49902 3.50098c-2.66699 1.33301 -5.16699 2.16602 -7.5 2.49902s-4.5 0.833008 -6.5 1.5v0v0z" />
    <glyph glyph-name="bar" unicode="|" horiz-adv-x="156" 
d="M-10 -224l282 1053h56l-283 -1053h-55v0v0z" />
    <glyph glyph-name="braceright" unicode="}" horiz-adv-x="331" 
d="M353 272l-14.0107 -52.9873c-2.66699 -0.666992 -5.33398 -1.16699 -8.00098 -1.5s-5.66699 -1.16602 -9 -2.49902c-2.66699 -0.666992 -5.66699 -1.83398 -9 -3.50098s-6.66602 -3.16699 -9.99902 -4.5c-8.66699 -4.66699 -17.5 -10.667 -26.5 -18
s-18.167 -16.333 -27.5 -27s-17.666 -23.667 -24.999 -39s-13.666 -33.666 -18.999 -54.999c-2.66699 -10.667 -5 -19.5 -7 -26.5s-3.66699 -12.167 -5 -15.5c-0.666992 -4 -1.16699 -7.33301 -1.5 -10s-0.5 -5 -0.5 -7c0 -0.666992 -0.166992 -1.33398 -0.5 -2.00098
s-0.5 -1.33398 -0.5 -2.00098c0 -2 -0.166992 -3.66699 -0.5 -5s-0.833008 -3 -1.5 -5c-0.666992 -3.33301 -1.66699 -8.16602 -3 -14.499s-3.66602 -14.5 -6.99902 -24.5c0 -0.666992 -0.166992 -1.33398 -0.5 -2.00098s-0.5 -1.33398 -0.5 -2.00098v-0.5v-1.5
c0 -0.666992 -0.166992 -1.5 -0.5 -2.5s-0.833008 -1.83301 -1.5 -2.5c0 -1.33301 -0.166992 -2.5 -0.5 -3.5s-0.833008 -1.83301 -1.5 -2.5c-0.666992 -1.33301 -1.16699 -2.5 -1.5 -3.5s-0.5 -1.83301 -0.5 -2.5c-5.33301 -16.667 -12.833 -32.667 -22.5 -48
s-21.167 -30.333 -34.5 -45s-30.166 -26.334 -50.499 -35.001s-43.5 -14.334 -69.5 -17.001l10 44c11.333 2.66699 21.166 5.66699 29.499 9s15.833 7.66602 22.5 12.999s12.667 11 18 17s9.66602 12 12.999 18c2.66699 4.66699 5 9.16699 7 13.5s3.66699 8.5 5 12.5
s2.66602 7.66699 3.99902 11s2.33301 6.33301 3 9s1.33398 5.16699 2.00098 7.5s1.33398 4.5 2.00098 6.5c0.666992 2.66699 1.16699 5.16699 1.5 7.5s0.833008 4.5 1.5 6.5c0.666992 1.33301 1.16699 2.83301 1.5 4.5s0.5 3.5 0.5 5.5
c0 0.666992 0.166992 1.33398 0.5 2.00098s0.5 1.33398 0.5 2.00098c0 1.33301 0.166992 2.66602 0.5 3.99902s0.833008 2.33301 1.5 3c0.666992 1.33301 1.16699 2.5 1.5 3.5s0.5 2.16699 0.5 3.5c0.666992 2.66699 1.16699 5 1.5 7s0.833008 4 1.5 6l2 8l2 8
c0 2 0.333008 4.33301 1 7l2 8c0 1.33301 0.166992 2.66602 0.5 3.99902s0.833008 2.66602 1.5 3.99902c0.666992 0.666992 1.16699 1.66699 1.5 3s0.5 2.66602 0.5 3.99902c1.33301 6 3 12.333 5 19s4.33301 13.667 7 21c2 7.33301 4.83301 14.666 8.5 21.999
s7.83398 15 12.501 23c5.33301 10 12.333 20 21 30s18.334 20 29.001 30c10.667 9.33301 23.167 18 37.5 26s30.833 15.333 49.5 22l1 5c-14.667 6 -27.167 13 -37.5 21s-18.166 17 -23.499 27c-5.33301 9.33301 -9.66602 19 -12.999 29s-5 20.333 -5 31
c-0.666992 7.33301 -0.666992 14.833 0 22.5s1.66699 15.167 3 22.5s2.83301 14.333 4.5 21s3.5 13 5.5 19c0.666992 2.66699 1.33398 5.16699 2.00098 7.5s1.33398 4.83301 2.00098 7.5l2 8c0.666992 2.66699 1.66699 5.33398 3 8.00098
c0.666992 2 1.33398 4.33301 2.00098 7l2 8c0 1.33301 0.333008 2.66602 1 3.99902l2 4c0 0.666992 0.333008 1.66699 1 3s1 2.66602 1 3.99902c0.666992 2 1.33398 4.16699 2.00098 6.5s1.33398 4.83301 2.00098 7.5c0.666992 2 1.5 4.16699 2.5 6.5
s1.83301 4.83301 2.5 7.5c0.666992 2 1.16699 4.16699 1.5 6.5s0.833008 4.83301 1.5 7.5c0 1.33301 0.166992 2.5 0.5 3.5s0.833008 2.16699 1.5 3.5c0.666992 0.666992 1.16699 1.66699 1.5 3s0.5 2.66602 0.5 3.99902c0.666992 2.66699 1.33398 5.66699 2.00098 9
s1.33398 7 2.00098 11c1.33301 4 2 8.16699 2 12.5v13.5c0 6 -1.16699 12 -3.5 18s-5.16602 11.667 -8.49902 17c-4 5.33301 -9.5 9.66602 -16.5 12.999s-15.167 5.66602 -24.5 6.99902l12 46c25.333 -2.66699 45.833 -8.33398 61.5 -17.001s26.5 -20.334 32.5 -35.001
s9.66699 -29.667 11 -45s0.333008 -31.333 -3 -48c-0.666992 -1.33301 -1.16699 -2.66602 -1.5 -3.99902s-0.5 -2.66602 -0.5 -3.99902c0 -0.666992 -0.166992 -1.33398 -0.5 -2.00098s-0.5 -1.33398 -0.5 -2.00098s-0.166992 -1.5 -0.5 -2.5s-0.5 -1.83301 -0.5 -2.5
l-1.5 -3c-0.333008 -0.666992 -0.5 -1.66699 -0.5 -3c-2.66699 -10 -4.83398 -18.167 -6.50098 -24.5s-3.16699 -11.166 -4.5 -14.499c-0.666992 -3.33301 -1.5 -6.33301 -2.5 -9s-1.83301 -5 -2.5 -7c-0.666992 -0.666992 -1.33398 -1.66699 -2.00098 -3
s-1 -2.66602 -1 -3.99902c-0.666992 -2 -1.33398 -3.66699 -2.00098 -5s-1.33398 -3 -2.00098 -5c-0.666992 -4 -2 -9.5 -4 -16.5s-4.33301 -15.5 -7 -25.5c-5.33301 -20.667 -8.66602 -39 -9.99902 -55s-0.333008 -29.333 3 -40s7.66602 -19.667 12.999 -27
s11.333 -13 18 -17c1.33301 -0.666992 2.5 -1.5 3.5 -2.5s2.16699 -1.83301 3.5 -2.5s2.5 -1.16699 3.5 -1.5s2.16699 -0.833008 3.5 -1.5c2 -0.666992 3.83301 -1.33398 5.5 -2.00098s3.16699 -1 4.5 -1c0.666992 -0.666992 1.5 -1 2.5 -1h2.5v0v0z" />
    <glyph glyph-name="asciitilde" unicode="~" horiz-adv-x="600" 
d="M133 312l14.998 55.999c7.33301 6 15.166 11.667 23.499 17s16.833 10 25.5 14c9.33301 4 18.166 7.5 26.499 10.5s16.833 5.16699 25.5 6.5h2.5c1 0 1.83301 0.333008 2.5 1h3.5h2.5h3.5c1 0 1.83301 0.333008 2.5 1h3.5h2.5c10.667 0 21.334 -1.16699 32.001 -3.5
s22 -5.5 34 -9.5c11.333 -4.66699 23.333 -9.5 36 -14.5s26 -10.167 40 -15.5c12.667 -5.33301 24.334 -10.333 35.001 -15s20.334 -8.66699 29.001 -12c9.33301 -3.33301 18.166 -5.83301 26.499 -7.5s16.833 -2.5 25.5 -2.5c7.33301 0 15.333 0.833008 24 2.5
s17.667 3.83398 27 6.50098c10 3.33301 21 8.33301 33 15s25 15.334 39 26.001l-15 -56c-7.33301 -6.66699 -15.166 -12.667 -23.499 -18s-16.833 -10 -25.5 -14s-17.334 -7.33301 -26.001 -10s-17 -4.66699 -25 -6c-1.33301 0 -2.66602 -0.166992 -3.99902 -0.5
s-2.66602 -0.833008 -3.99902 -1.5h-2h-2h-6h-5c-10.667 0 -21.5 1 -32.5 3s-22.167 5.33301 -33.5 10c-12 4 -24.333 8.5 -37 13.5s-25.667 10.5 -39 16.5c-12.667 5.33301 -24.334 10.166 -35.001 14.499s-20.667 8.16602 -30 11.499s-18.333 6 -27 8s-17 3 -25 3
c-7.33301 0 -15.166 -0.666992 -23.499 -2s-17.5 -3.66602 -27.5 -6.99902c-10 -2.66699 -21 -7.5 -33 -14.5s-25 -15.833 -39 -26.5v0v0z" />
    <glyph glyph-name="space" 
 />
    <glyph glyph-name="space" horiz-adv-x="689" 
d="M200 0l172.003 644h-189l15 56h473l-15 -56h-216l-65 -241c16 4.66699 31 8.5 45 11.5s26.667 5.16699 38 6.5s22 2.33301 32 3s19 1 27 1c34 0 63.833 -4.66699 89.5 -14s47.5 -23.333 65.5 -42s29.167 -41.5 33.5 -68.5s1.83301 -58.167 -7.5 -93.5
c-8.66699 -34 -21.667 -64 -39 -90s-38.666 -47.667 -63.999 -65c-24.667 -18 -53.334 -31.167 -86.001 -39.5s-69.667 -12.5 -111 -12.5l15 56h39c3.33301 0 7.16602 0.166992 11.499 0.5s8.83301 0.833008 13.5 1.5s9.5 1.66699 14.5 3s10.167 3 15.5 5
c11.333 4 22.666 9.66699 33.999 17s23 16.333 35 27c11.333 11.333 21.333 25 30 41s16 34.667 22 56c6.66699 24 8.83398 45.833 6.50098 65.5s-8.83301 36.834 -19.5 51.501c-10.667 15.333 -25.5 26.666 -44.5 33.999s-42.167 11 -69.5 11
c-8.66699 0 -17.834 -0.333008 -27.501 -1s-20.167 -1.66699 -31.5 -3s-23.833 -3.83301 -37.5 -7.5s-28.834 -8.5 -45.501 -14.5l-91 -343h-68v0v0z" />
    <glyph glyph-name="space" unicode="&#x402;" horiz-adv-x="689" 
d="M200 0l172.003 644h-189l15 56h473l-15 -56h-216l-65 -241c16 4.66699 31 8.5 45 11.5s26.667 5.16699 38 6.5s22 2.33301 32 3s19 1 27 1c34 0 63.833 -4.66699 89.5 -14s47.5 -23.333 65.5 -42s29.167 -41.5 33.5 -68.5s1.83301 -58.167 -7.5 -93.5
c-8.66699 -34 -21.667 -64 -39 -90s-38.666 -47.667 -63.999 -65c-24.667 -18 -53.334 -31.167 -86.001 -39.5s-69.667 -12.5 -111 -12.5l15 56h39c3.33301 0 7.16602 0.166992 11.499 0.5s8.83301 0.833008 13.5 1.5s9.5 1.66699 14.5 3s10.167 3 15.5 5
c11.333 4 22.666 9.66699 33.999 17s23 16.333 35 27c11.333 11.333 21.333 25 30 41s16 34.667 22 56c6.66699 24 8.83398 45.833 6.50098 65.5s-8.83301 36.834 -19.5 51.501c-10.667 15.333 -25.5 26.666 -44.5 33.999s-42.167 11 -69.5 11
c-8.66699 0 -17.834 -0.333008 -27.501 -1s-20.167 -1.66699 -31.5 -3s-23.833 -3.83301 -37.5 -7.5s-28.834 -8.5 -45.501 -14.5l-91 -343h-68v0v0z" />
    <glyph glyph-name="exclam" horiz-adv-x="407" 
d="M88 0l187 700h308l-15 -56h-240l-172 -644h-68v0v0z" />
    <glyph glyph-name="exclam" unicode="&#x403;" horiz-adv-x="407" 
d="M88 0l187 700h308l-15 -56h-240l-172 -644h-68v0v0z" />
    <glyph glyph-name="hyphen" horiz-adv-x="571" 
d="M88 0l187 700h68l-87 -325l400 325h84l-423 -339l243 -361h-91l-222 340l-91 -340h-68v0v0z" />
    <glyph glyph-name="hyphen" unicode="&#x40c;" horiz-adv-x="571" 
d="M88 0l187 700h68l-87 -325l400 325h84l-423 -339l243 -361h-91l-222 340l-91 -340h-68v0v0z" />
    <glyph glyph-name="period" horiz-adv-x="711" 
d="M200 0l171.999 643.998h-189l15 56h474l-15 -56h-217l-66 -245c18.667 1.33301 34.334 2.33301 47.001 3s22.334 1.33398 29.001 2.00098c6 0.666992 11.5 1.16699 16.5 1.5s9.5 0.5 13.5 0.5h5h6h6.5h7.5h6h6h7.5h8.5c50 0 89.167 -4.33301 117.5 -13s45.5 -22 51.5 -40
s9 -37.5 9 -58.5s-3 -43.167 -9 -66.5l-61 -228h-68l56 212c9.33301 35.333 12.833 63 10.5 83s-10.166 33 -23.499 39c-14 5.33301 -29.333 9.33301 -46 12s-34.667 4 -54 4h-1.5h-0.5h-1.5h-1.5h-2h-2h-5.5h-4.5h-4h-4h-2h-2c-1.33301 -0.666992 -2.33301 -1 -3 -1h-2h-4
h-4c-6.66699 0 -13.834 -0.166992 -21.501 -0.5s-15.834 -0.833008 -24.501 -1.5c-8 -0.666992 -17.5 -1.16699 -28.5 -1.5s-23.833 -1.16602 -38.5 -2.49902l-91 -343h-68v0v0z" />
    <glyph glyph-name="period" unicode="&#x40b;" horiz-adv-x="711" 
d="M200 0l171.999 643.998h-189l15 56h474l-15 -56h-217l-66 -245c18.667 1.33301 34.334 2.33301 47.001 3s22.334 1.33398 29.001 2.00098c6 0.666992 11.5 1.16699 16.5 1.5s9.5 0.5 13.5 0.5h5h6h6.5h7.5h6h6h7.5h8.5c50 0 89.167 -4.33301 117.5 -13s45.5 -22 51.5 -40
s9 -37.5 9 -58.5s-3 -43.167 -9 -66.5l-61 -228h-68l56 212c9.33301 35.333 12.833 63 10.5 83s-10.166 33 -23.499 39c-14 5.33301 -29.333 9.33301 -46 12s-34.667 4 -54 4h-1.5h-0.5h-1.5h-1.5h-2h-2h-5.5h-4.5h-4h-4h-2h-2c-1.33301 -0.666992 -2.33301 -1 -3 -1h-2h-4
h-4c-6.66699 0 -13.834 -0.166992 -21.501 -0.5s-15.834 -0.833008 -24.501 -1.5c-8 -0.666992 -17.5 -1.16699 -28.5 -1.5s-23.833 -1.16602 -38.5 -2.49902l-91 -343h-68v0v0z" />
    <glyph glyph-name="slash" horiz-adv-x="717" 
d="M88 0l187 700h68l-172 -644h405l172 644h68l-187 -700h-239l-46 -170h-63l46 170h-239v0v0z" />
    <glyph glyph-name="slash" unicode="&#x40f;" horiz-adv-x="717" 
d="M88 0l187 700h68l-172 -644h405l172 644h68l-187 -700h-239l-46 -170h-63l46 170h-239v0v0z" />
    <glyph glyph-name="zero" horiz-adv-x="486" 
d="M73 0l152.006 570.004h-66l13 48h66l31 117h60l-31 -117h224l-13 -48h-224l-56 -208c1.33301 1.33301 2.5 2.66602 3.5 3.99902s2.16699 2.66602 3.5 3.99902s2.66602 2.83301 3.99902 4.5s2.66602 3.5 3.99902 5.5c8.66699 9.33301 18.334 18 29.001 26
s22.334 15.667 35.001 23c13.333 7.33301 27.666 13 42.999 17s31.666 6 48.999 6c23.333 0 42.666 -3.33301 57.999 -10s26.666 -16.667 33.999 -30s13 -27.333 17 -42s6 -30 6 -46c-0.666992 -9.33301 -1.33398 -18.5 -2.00098 -27.5s-1.66699 -18.167 -3 -27.5
c-2 -8.66699 -3.83301 -16.667 -5.5 -24s-3.16699 -14 -4.5 -20c-6 -22 -13 -42.833 -21 -62.5s-17 -38.5 -27 -56.5c-10.667 -18 -22.334 -35.5 -35.001 -52.5s-26.667 -34.167 -42 -51.5c-8.66699 -8.66699 -18 -17.667 -28 -27s-20.333 -19 -31 -29s-22 -20 -34 -30
s-24.667 -20.333 -38 -31l-26 31c12 12.667 23.5 24.334 34.5 35.001s21.167 20.667 30.5 30l27.5 27.5c9 9 17.5 17.833 25.5 26.5c11.333 14 22.166 28.5 32.499 43.5s19.5 29.833 27.5 44.5c8 15.333 15.5 32.166 22.5 50.499s13.5 38.166 19.5 59.499
c7.33301 27.333 11.5 51.666 12.5 72.999s-1.16699 39.333 -6.5 54c-4.66699 14.667 -12.5 25.667 -23.5 33s-24.5 11 -40.5 11h-4.5c-1.66699 0 -3.16699 -0.333008 -4.5 -1c-2 0 -3.83301 -0.166992 -5.5 -0.5s-3.16699 -0.5 -4.5 -0.5
c-2.66699 -0.666992 -5.66699 -1.16699 -9 -1.5s-6.66602 -1.16602 -9.99902 -2.49902c-7.33301 -2.66699 -14.5 -5.66699 -21.5 -9s-14.167 -7.33301 -21.5 -12s-14.5 -9.83398 -21.5 -15.501s-14.167 -12.167 -21.5 -19.5c-14.667 -14 -27.167 -30.667 -37.5 -50
s-18.833 -41.333 -25.5 -66l-60 -226h-60v0v0z" />
    <glyph glyph-name="zero" unicode="&#x452;" horiz-adv-x="486" 
d="M73 0l152.006 570.004h-66l13 48h66l31 117h60l-31 -117h224l-13 -48h-224l-56 -208c1.33301 1.33301 2.5 2.66602 3.5 3.99902s2.16699 2.66602 3.5 3.99902s2.66602 2.83301 3.99902 4.5s2.66602 3.5 3.99902 5.5c8.66699 9.33301 18.334 18 29.001 26
s22.334 15.667 35.001 23c13.333 7.33301 27.666 13 42.999 17s31.666 6 48.999 6c23.333 0 42.666 -3.33301 57.999 -10s26.666 -16.667 33.999 -30s13 -27.333 17 -42s6 -30 6 -46c-0.666992 -9.33301 -1.33398 -18.5 -2.00098 -27.5s-1.66699 -18.167 -3 -27.5
c-2 -8.66699 -3.83301 -16.667 -5.5 -24s-3.16699 -14 -4.5 -20c-6 -22 -13 -42.833 -21 -62.5s-17 -38.5 -27 -56.5c-10.667 -18 -22.334 -35.5 -35.001 -52.5s-26.667 -34.167 -42 -51.5c-8.66699 -8.66699 -18 -17.667 -28 -27s-20.333 -19 -31 -29s-22 -20 -34 -30
s-24.667 -20.333 -38 -31l-26 31c12 12.667 23.5 24.334 34.5 35.001s21.167 20.667 30.5 30l27.5 27.5c9 9 17.5 17.833 25.5 26.5c11.333 14 22.166 28.5 32.499 43.5s19.5 29.833 27.5 44.5c8 15.333 15.5 32.166 22.5 50.499s13.5 38.166 19.5 59.499
c7.33301 27.333 11.5 51.666 12.5 72.999s-1.16699 39.333 -6.5 54c-4.66699 14.667 -12.5 25.667 -23.5 33s-24.5 11 -40.5 11h-4.5c-1.66699 0 -3.16699 -0.333008 -4.5 -1c-2 0 -3.83301 -0.166992 -5.5 -0.5s-3.16699 -0.5 -4.5 -0.5
c-2.66699 -0.666992 -5.66699 -1.16699 -9 -1.5s-6.66602 -1.16602 -9.99902 -2.49902c-7.33301 -2.66699 -14.5 -5.66699 -21.5 -9s-14.167 -7.33301 -21.5 -12s-14.5 -9.83398 -21.5 -15.501s-14.167 -12.167 -21.5 -19.5c-14.667 -14 -27.167 -30.667 -37.5 -50
s-18.833 -41.333 -25.5 -66l-60 -226h-60v0v0z" />
    <glyph glyph-name="equal" horiz-adv-x="428" 
d="M74 0l116 434h60l-52 -194l246 194h72l-263 -202l164 -232h-77l-148 217l-58 -217h-60v0v0z" />
    <glyph glyph-name="equal" unicode="&#x45c;" horiz-adv-x="428" 
d="M74 0l116 434h60l-52 -194l246 194h72l-263 -202l164 -232h-77l-148 217l-58 -217h-60v0v0z" />
    <glyph glyph-name="greater" horiz-adv-x="504" 
d="M73 0l151.995 570h-66l13 48h66l31 117h60l-31 -117h224l-13 -48h-224l-56 -208c2 2 4.33301 4.5 7 7.5s5.33398 6.16699 8.00098 9.5l10 10c3.33301 3.33301 7.33301 7 12 11c7.33301 6 15.5 12 24.5 18s19.167 11.667 30.5 17s23.666 9.5 36.999 12.5
s27.333 4.5 42 4.5c24 0 44.333 -3.66699 61 -11s29.334 -18.666 38.001 -33.999c9.33301 -14.667 14.333 -32.834 15 -54.501s-2.66602 -46.5 -9.99902 -74.5l-74 -278h-60l72 270c0.666992 3.33301 1.33398 6.5 2.00098 9.5s1.33398 5.83301 2.00098 8.5
c0 1.33301 0.166992 2.83301 0.5 4.5s0.833008 3.5 1.5 5.5c0 1.33301 0.166992 2.83301 0.5 4.5s0.833008 3.16699 1.5 4.5c1.33301 12 1.5 23.5 0.5 34.5s-3.16699 21.5 -6.5 31.5s-10.333 17.667 -21 23s-25 8 -43 8c-20.667 0 -40.5 -4 -59.5 -12s-36.167 -20 -51.5 -36
c-16 -16 -29.667 -32.833 -41 -50.5s-20.666 -36.167 -27.999 -55.5c0 -0.666992 -0.166992 -1.5 -0.5 -2.5s-0.833008 -2.16699 -1.5 -3.5c-0.666992 -0.666992 -1.16699 -1.5 -1.5 -2.5s-0.5 -2.16699 -0.5 -3.5c-0.666992 -2 -1.16699 -4 -1.5 -6s-0.833008 -4 -1.5 -6
l-60 -226h-60v0v0z" />
    <glyph glyph-name="greater" unicode="&#x45b;" horiz-adv-x="504" 
d="M73 0l151.995 570h-66l13 48h66l31 117h60l-31 -117h224l-13 -48h-224l-56 -208c2 2 4.33301 4.5 7 7.5s5.33398 6.16699 8.00098 9.5l10 10c3.33301 3.33301 7.33301 7 12 11c7.33301 6 15.5 12 24.5 18s19.167 11.667 30.5 17s23.666 9.5 36.999 12.5
s27.333 4.5 42 4.5c24 0 44.333 -3.66699 61 -11s29.334 -18.666 38.001 -33.999c9.33301 -14.667 14.333 -32.834 15 -54.501s-2.66602 -46.5 -9.99902 -74.5l-74 -278h-60l72 270c0.666992 3.33301 1.33398 6.5 2.00098 9.5s1.33398 5.83301 2.00098 8.5
c0 1.33301 0.166992 2.83301 0.5 4.5s0.833008 3.5 1.5 5.5c0 1.33301 0.166992 2.83301 0.5 4.5s0.833008 3.16699 1.5 4.5c1.33301 12 1.5 23.5 0.5 34.5s-3.16699 21.5 -6.5 31.5s-10.333 17.667 -21 23s-25 8 -43 8c-20.667 0 -40.5 -4 -59.5 -12s-36.167 -20 -51.5 -36
c-16 -16 -29.667 -32.833 -41 -50.5s-20.666 -36.167 -27.999 -55.5c0 -0.666992 -0.166992 -1.5 -0.5 -2.5s-0.833008 -2.16699 -1.5 -3.5c-0.666992 -0.666992 -1.16699 -1.5 -1.5 -2.5s-0.5 -2.16699 -0.5 -3.5c-0.666992 -2 -1.16699 -4 -1.5 -6s-0.833008 -4 -1.5 -6
l-60 -226h-60v0v0z" />
    <glyph glyph-name="at" unicode="&#xa0;" 
 />
    <glyph glyph-name="A" unicode="&#xa1;" horiz-adv-x="561" 
d="M172 0l153 212l-124 488h77l100 -417l301 417h69l-507 -700h-69v0v0zM379 829l59.998 22.0039c0 -10 1.66699 -18.5 5 -25.5s8.33301 -12.833 15 -17.5c6 -4.66699 12.833 -8.33398 20.5 -11.001s15.834 -4.33398 24.501 -5.00098h2h2h2h2c12.667 0 24 1.33301 34 4
s19.333 6.66699 28 12c8 5.33301 15.167 11 21.5 17s11.833 12.333 16.5 19v0l1 1v0.5v1.5l2 2l2 2l49 -22l-6 -8c-2 -2.66699 -4.33301 -5.33398 -7 -8.00098c-6 -8 -12.167 -15 -18.5 -21s-13.166 -11.333 -20.499 -16c-8.66699 -6 -17.5 -11.167 -26.5 -15.5
s-18.167 -7.83301 -27.5 -10.5c-6 -2 -11.833 -3.66699 -17.5 -5s-11.167 -2.33301 -16.5 -3c-4.66699 -0.666992 -9.5 -1.16699 -14.5 -1.5s-9.5 -0.5 -13.5 -0.5c-4.66699 0 -9.5 0.166992 -14.5 0.5s-10.167 0.833008 -15.5 1.5
c-4.66699 1.33301 -9.5 2.66602 -14.5 3.99902s-10.167 3 -15.5 5c-7.33301 2.66699 -14.333 6.16699 -21 10.5s-12.667 9.5 -18 15.5c-6 6 -10.5 13.5 -13.5 22.5s-5.16699 18.833 -6.5 29.5v0v0z" />
    <glyph glyph-name="A" unicode="&#x40e;" horiz-adv-x="561" 
d="M172 0l153 212l-124 488h77l100 -417l301 417h69l-507 -700h-69v0v0zM379 829l59.998 22.0039c0 -10 1.66699 -18.5 5 -25.5s8.33301 -12.833 15 -17.5c6 -4.66699 12.833 -8.33398 20.5 -11.001s15.834 -4.33398 24.501 -5.00098h2h2h2h2c12.667 0 24 1.33301 34 4
s19.333 6.66699 28 12c8 5.33301 15.167 11 21.5 17s11.833 12.333 16.5 19v0l1 1v0.5v1.5l2 2l2 2l49 -22l-6 -8c-2 -2.66699 -4.33301 -5.33398 -7 -8.00098c-6 -8 -12.167 -15 -18.5 -21s-13.166 -11.333 -20.499 -16c-8.66699 -6 -17.5 -11.167 -26.5 -15.5
s-18.167 -7.83301 -27.5 -10.5c-6 -2 -11.833 -3.66699 -17.5 -5s-11.167 -2.33301 -16.5 -3c-4.66699 -0.666992 -9.5 -1.16699 -14.5 -1.5s-9.5 -0.5 -13.5 -0.5c-4.66699 0 -9.5 0.166992 -14.5 0.5s-10.167 0.833008 -15.5 1.5
c-4.66699 1.33301 -9.5 2.66602 -14.5 3.99902s-10.167 3 -15.5 5c-7.33301 2.66699 -14.333 6.16699 -21 10.5s-12.667 9.5 -18 15.5c-6 6 -10.5 13.5 -13.5 22.5s-5.16699 18.833 -6.5 29.5v0v0z" />
    <glyph glyph-name="B" unicode="&#xa2;" horiz-adv-x="453" 
d="M127 434h68l64 -367l238 367h61l-429 -644h-65l148 214l-85 430v0v0zM264 619l60.0068 21.998v-1.5v-0.5v0v0v0v0v-1v0c0 -8.66699 1.16699 -17.334 3.5 -26.001s6.16602 -16.667 11.499 -24s12.5 -12.833 21.5 -16.5s19.833 -5.5 32.5 -5.5
c10.667 0 20.5 1.16699 29.5 3.5s17.167 5.83301 24.5 10.5s14 9.5 20 14.5s11.333 10.5 16 16.5l6 8l6 8c1.33301 2.66699 2.66602 5.16699 3.99902 7.5s2.33301 4.5 3 6.5l49 -22c-8.66699 -15.333 -19.334 -29.166 -32.001 -41.499s-26.667 -23.166 -42 -32.499
c-8 -4.66699 -16 -8.66699 -24 -12s-16 -6 -24 -8c-8.66699 -2.66699 -17 -4.5 -25 -5.5s-16 -1.5 -24 -1.5c-16.667 0 -31.834 2.33301 -45.501 7s-25.834 11.334 -36.501 20.001c-10.667 9.33301 -18.834 20 -24.501 32s-8.83398 26 -9.50098 42v0v0z" />
    <glyph glyph-name="B" unicode="&#x45e;" horiz-adv-x="453" 
d="M127 434h68l64 -367l238 367h61l-429 -644h-65l148 214l-85 430v0v0zM264 619l60.0068 21.998v-1.5v-0.5v0v0v0v0v-1v0c0 -8.66699 1.16699 -17.334 3.5 -26.001s6.16602 -16.667 11.499 -24s12.5 -12.833 21.5 -16.5s19.833 -5.5 32.5 -5.5
c10.667 0 20.5 1.16699 29.5 3.5s17.167 5.83301 24.5 10.5s14 9.5 20 14.5s11.333 10.5 16 16.5l6 8l6 8c1.33301 2.66699 2.66602 5.16699 3.99902 7.5s2.33301 4.5 3 6.5l49 -22c-8.66699 -15.333 -19.334 -29.166 -32.001 -41.499s-26.667 -23.166 -42 -32.499
c-8 -4.66699 -16 -8.66699 -24 -12s-16 -6 -24 -8c-8.66699 -2.66699 -17 -4.5 -25 -5.5s-16 -1.5 -24 -1.5c-16.667 0 -31.834 2.33301 -45.501 7s-25.834 11.334 -36.501 20.001c-10.667 9.33301 -18.834 20 -24.501 32s-8.83398 26 -9.50098 42v0v0z" />
    <glyph glyph-name="C" unicode="&#xa3;" horiz-adv-x="413" 
d="M100 47l55.0039 45.0029l0.5 -1l0.5 -1c0 -0.666992 0.166992 -1.33398 0.5 -2.00098s0.833008 -1.33398 1.5 -2.00098c0 -0.666992 0.166992 -1.16699 0.5 -1.5s0.833008 -0.5 1.5 -0.5c0 -0.666992 0.166992 -1.16699 0.5 -1.5s0.5 -0.833008 0.5 -1.5
c6 -10 12.5 -18 19.5 -24s14.167 -10.333 21.5 -13s14.5 -4.66699 21.5 -6s13.833 -2 20.5 -2c22 0 40.833 3.5 56.5 10.5s27.834 17.5 36.501 31.5c9.33301 14 18 30.167 26 48.5s15 38.833 21 61.5l137 512h68l-138 -516l-2 -6l-2 -6
c-0.666992 -2.66699 -1.33398 -5 -2.00098 -7l-2 -6c-0.666992 -2 -1.33398 -4.16699 -2.00098 -6.5s-1.33398 -4.5 -2.00098 -6.5c-0.666992 -2.66699 -1.33398 -5 -2.00098 -7l-2 -6c-6.66699 -18.667 -15.667 -36.834 -27 -54.501s-24.666 -34.5 -39.999 -50.5
c-14.667 -15.333 -34 -26.833 -58 -34.5s-52 -11.5 -84 -11.5c-12 0 -23 0.833008 -33 2.5s-19.333 4.16699 -28 7.5c-8.66699 2.66699 -16.834 6.5 -24.501 11.5s-14.834 11.5 -21.501 19.5c-2 1.33301 -3.83301 3 -5.5 5s-3.16699 4 -4.5 6s-2.83301 4 -4.5 6
s-3.16699 4.33301 -4.5 7v0v0z" />
    <glyph glyph-name="C" unicode="&#x408;" horiz-adv-x="413" 
d="M100 47l55.0039 45.0029l0.5 -1l0.5 -1c0 -0.666992 0.166992 -1.33398 0.5 -2.00098s0.833008 -1.33398 1.5 -2.00098c0 -0.666992 0.166992 -1.16699 0.5 -1.5s0.833008 -0.5 1.5 -0.5c0 -0.666992 0.166992 -1.16699 0.5 -1.5s0.5 -0.833008 0.5 -1.5
c6 -10 12.5 -18 19.5 -24s14.167 -10.333 21.5 -13s14.5 -4.66699 21.5 -6s13.833 -2 20.5 -2c22 0 40.833 3.5 56.5 10.5s27.834 17.5 36.501 31.5c9.33301 14 18 30.167 26 48.5s15 38.833 21 61.5l137 512h68l-138 -516l-2 -6l-2 -6
c-0.666992 -2.66699 -1.33398 -5 -2.00098 -7l-2 -6c-0.666992 -2 -1.33398 -4.16699 -2.00098 -6.5s-1.33398 -4.5 -2.00098 -6.5c-0.666992 -2.66699 -1.33398 -5 -2.00098 -7l-2 -6c-6.66699 -18.667 -15.667 -36.834 -27 -54.501s-24.666 -34.5 -39.999 -50.5
c-14.667 -15.333 -34 -26.833 -58 -34.5s-52 -11.5 -84 -11.5c-12 0 -23 0.833008 -33 2.5s-19.333 4.16699 -28 7.5c-8.66699 2.66699 -16.834 6.5 -24.501 11.5s-14.834 11.5 -21.501 19.5c-2 1.33301 -3.83301 3 -5.5 5s-3.16699 4 -4.5 6s-2.83301 4 -4.5 6
s-3.16699 4.33301 -4.5 7v0v0z" />
    <glyph glyph-name="D" unicode="&#xa4;" horiz-adv-x="660" 
d="M168 179c-5.33301 10.667 -9.82715 22.167 -13.4941 34.5s-6.83398 25.5 -9.50098 39.5c-2 14 -2.33301 29.167 -1 45.5s4.33301 33.5 9 51.5c5.33301 18 11.666 35 18.999 51s15.666 31 24.999 45c10 14 20.167 27.333 30.5 40s21.166 24.334 32.499 35.001l-52 71
l48 38l52 -71c13.333 8.66699 27.166 16.5 41.499 23.5s29.166 13.5 44.499 19.5s31.666 10.5 48.999 13.5s35 4.5 53 4.5s34.5 -1.5 49.5 -4.5s28.833 -7.5 41.5 -13.5s24.167 -12.5 34.5 -19.5s19.833 -14.833 28.5 -23.5l90 71l28 -38l-90 -71
c5.33301 -10.667 10 -22.334 14 -35.001s7 -26 9 -40c2.66699 -14 3.33398 -29 2.00098 -45s-4.66602 -33 -9.99902 -51c-4.66699 -18 -10.667 -35.167 -18 -51.5s-16 -31.5 -26 -45.5c-9.33301 -14 -19.333 -27.167 -30 -39.5s-21.667 -23.833 -33 -34.5l52 -71l-48 -38
l-52 71c-12.667 -8.66699 -26.334 -16.5 -41.001 -23.5s-29.667 -13.5 -45 -19.5s-31.5 -10.5 -48.5 -13.5s-34.5 -4.5 -52.5 -4.5s-34.667 1.5 -50 4.5s-29.333 7.5 -42 13.5s-24.167 12.5 -34.5 19.5s-19.833 14.833 -28.5 23.5l-90 -71l-28 38l90 71v0v0zM209.006 350
c-8 -29.333 -10.1641 -56.5 -6.49707 -81.5s12.834 -48.167 27.501 -69.5c15.333 -20.667 34.166 -36.334 56.499 -47.001s48.833 -16 79.5 -16c30 0 59.167 5.33301 87.5 16s55.5 26.334 81.5 47.001c26 21.333 47.5 44.5 64.5 69.5s29.5 52.167 37.5 81.5
s10.167 56.666 6.5 81.999s-12.834 48.333 -27.501 69c-14.667 21.333 -33.334 37.166 -56.001 47.499s-49 15.5 -79 15.5c-30.667 0 -60.167 -5.16699 -88.5 -15.5s-55.5 -26.166 -81.5 -47.499c-26.667 -20.667 -48.334 -43.667 -65.001 -69s-29 -52.666 -37 -81.999v0v0z
" />
    <glyph glyph-name="E" unicode="&#xa5;" horiz-adv-x="407" 
d="M88 0l187 700h245l32 119h63l-47 -175h-240l-172 -644h-68v0v0z" />
    <glyph glyph-name="E" unicode="&#x490;" horiz-adv-x="407" 
d="M88 0l187 700h245l32 119h63l-47 -175h-240l-172 -644h-68v0v0z" />
    <glyph glyph-name="F" unicode="&#xa6;" horiz-adv-x="232" 
d="M79 35c1.33301 6 3.83203 11.667 7.49902 17s8.16699 10.333 13.5 15c6 4.66699 12 8.16699 18 10.5s12.333 3.5 19 3.5c6 0 11.5 -1.16699 16.5 -3.5s9.16699 -5.5 12.5 -9.5c3.33301 -4.66699 5.33301 -9.66699 6 -15s0.333984 -11.333 -0.999023 -18
c-2 -6.66699 -5 -12.667 -9 -18s-8.66699 -10 -14 -14c-5.33301 -3.33301 -11 -6.16602 -17 -8.49902s-12 -3.5 -18 -3.5c-6.66699 0 -12.5 1.16699 -17.5 3.5s-9.16699 5.16602 -12.5 8.49902c-3.33301 4 -5.33301 8.66699 -6 14s0 11.333 2 18v0v0zM175.999 399
c2 6 4.83594 11.667 8.50293 17s8.16699 10.333 13.5 15s11.166 8.16699 17.499 10.5s12.833 3.5 19.5 3.5c6 0 11.333 -1.16699 16 -3.5s8.66699 -5.5 12 -9.5c3.33301 -4.66699 5.5 -9.66699 6.5 -15s0.5 -11.333 -1.5 -18c-1.33301 -6.66699 -4 -12.667 -8 -18
s-8.66699 -10.333 -14 -15c-6 -4.66699 -12 -8 -18 -10s-12 -3 -18 -3c-6.66699 0 -12.334 1 -17.001 3s-8.66699 5.33301 -12 10s-5.33301 9.66699 -6 15s-0.333984 11.333 0.999023 18v0v0z" />
    <glyph glyph-name="G" unicode="&#xa7;" horiz-adv-x="472" 
d="M65 0l62.9971 0.00390625v0v0c-0.666992 0 -1 -0.166992 -1 -0.5v-0.5v-0.5c0 -0.333008 -0.333008 -0.833008 -1 -1.5c-2.66699 -12.667 -3.5 -24.667 -2.5 -36s4.16699 -22.333 9.5 -33c6 -10 15.5 -17.667 28.5 -23s29.833 -8 50.5 -8c12.667 0 25 1.66699 37 5
s23.667 8.66602 35 15.999c12 6.66699 22 15.5 30 26.5s14 23.833 18 38.5c4 15.333 5.5 29 4.5 41s-5.16699 22 -12.5 30c-6.66699 8 -14 15 -22 21s-16.667 11 -26 15c-1.33301 0.666992 -2.66602 1.16699 -3.99902 1.5s-2.66602 0.833008 -3.99902 1.5
c-2 0.666992 -3.66699 1.16699 -5 1.5s-2.66602 0.833008 -3.99902 1.5s-2.66602 1.16699 -3.99902 1.5s-2.33301 0.833008 -3 1.5c-1.33301 0 -2.5 0.166992 -3.5 0.5s-2.16699 0.833008 -3.5 1.5s-2.83301 1.16699 -4.5 1.5s-3.5 0.833008 -5.5 1.5
c-3.33301 0.666992 -6.5 1.66699 -9.5 3s-6.5 2.66602 -10.5 3.99902c-2.66699 1.33301 -5.33398 2.5 -8.00098 3.5s-5.33398 2.16699 -8.00098 3.5l-8 4l-8 4c-11.333 6 -21.5 13.5 -30.5 22.5s-17.167 19.5 -24.5 31.5s-11.333 26.5 -12 43.5s2 36.5 8 58.5
c5.33301 18.667 12.666 36 21.999 52s21 31 35 45c13.333 13.333 28.333 25 45 35s34.334 18 53.001 24c-12.667 5.33301 -23.334 12.166 -32.001 20.499s-15 17.833 -19 28.5c-4 11.333 -6.33301 22.666 -7 33.999s0 23 2 35c0 0.666992 0.166992 1.16699 0.5 1.5
s0.5 0.833008 0.5 1.5l0.5 0.5c0.333008 0.333008 0.5 0.833008 0.5 1.5v1.5c0 0.333008 0.333008 0.833008 1 1.5v0.5v1.5c0.666992 2 1.16699 4 1.5 6s0.833008 4 1.5 6l2 4l2 4c0 0.666992 0.333008 1.33398 1 2.00098s1 1.33398 1 2.00098c6.66699 16 16 31.5 28 46.5
s26.333 29.167 43 42.5c17.333 13.333 36.333 23.5 57 30.5s43 10.5 67 10.5c26 0 47.667 -3.83301 65 -11.5s30.333 -19.167 39 -34.5c9.33301 -15.333 15.5 -31.5 18.5 -48.5s3.16699 -34.833 0.5 -53.5c-0.666992 -2 -1.16699 -4 -1.5 -6s-0.833008 -4 -1.5 -6
c-0.666992 -1.33301 -1.16699 -2.66602 -1.5 -3.99902s-0.5 -2.66602 -0.5 -3.99902c0 -0.666992 -0.166992 -1.33398 -0.5 -2.00098s-0.5 -1.33398 -0.5 -2.00098v-1.5v-0.5v0v0v-0.5v-0.5l-1 -1v0v0v0v-1v0h-63l5 18c0.666992 2.66699 1.16699 5.66699 1.5 9
s0.833008 7 1.5 11v3.5v2.5v10c0 3.33301 -0.333008 6.66602 -1 9.99902c-0.666992 7.33301 -2.66699 14.166 -6 20.499s-7.66602 12.5 -12.999 18.5s-12.666 10.5 -21.999 13.5s-20 4.5 -32 4.5c-14 0 -27.333 -2.33301 -40 -7s-25.334 -11.667 -38.001 -21
c-12.667 -8.66699 -23 -19 -31 -31s-14 -25.667 -18 -41c-3.33301 -12.667 -4.66602 -24 -3.99902 -34s3.33398 -19 8.00098 -27c5.33301 -8 15 -15.5 29 -22.5s32.333 -13.833 55 -20.5c1.33301 -0.666992 2.5 -1.16699 3.5 -1.5s2.16699 -0.5 3.5 -0.5
c0.666992 -0.666992 1.16699 -1 1.5 -1h1.5c0.666992 -0.666992 1.5 -1 2.5 -1s1.83301 -0.333008 2.5 -1c1.33301 -0.666992 2.66602 -1.16699 3.99902 -1.5s2.66602 -0.5 3.99902 -0.5c1.33301 -0.666992 2.66602 -1.16699 3.99902 -1.5s2.66602 -0.833008 3.99902 -1.5
c15.333 -6 29.5 -13.333 42.5 -22s24.833 -19 35.5 -31s17.167 -27 19.5 -45s0.166016 -39.333 -6.50098 -64c-5.33301 -20 -13.166 -38.5 -23.499 -55.5s-22.833 -32.167 -37.5 -45.5c-15.333 -14 -31.166 -26 -47.499 -36s-33.166 -18 -50.499 -24
c12 -4.66699 22.333 -11.5 31 -20.5s16 -19.5 22 -31.5c5.33301 -12 8.33301 -25.5 9 -40.5s-1.33301 -30.833 -6 -47.5c-6 -21.333 -15 -40.833 -27 -58.5s-27.333 -33.167 -46 -46.5s-38.667 -23.5 -60 -30.5s-44.333 -10.5 -69 -10.5s-45.834 2.66699 -63.501 8
s-31.167 13 -40.5 23s-16.666 20.667 -21.999 32s-8.66602 23 -9.99902 35c-0.666992 6 -1 11.833 -1 17.5s0.333008 11.167 1 16.5s1.5 10.333 2.5 15s2.16699 8.66699 3.5 12v0v0zM278.997 161.004c5.33301 0 10.3311 0.331055 14.998 0.998047
s9.66699 1.33398 15 2.00098c10 2.66699 20 6.33398 30 11.001s20 10.334 30 17.001c14.667 10 27.334 22.667 38.001 38s18.667 33.333 24 54c5.33301 20 6.83301 37.667 4.5 53s-8.16602 28 -17.499 38c-10 10 -21 17.667 -33 23s-25.667 8 -41 8
c-18 0 -34.833 -3 -50.5 -9s-30.5 -15 -44.5 -27c-14.667 -12 -26.667 -25.167 -36 -39.5s-16 -29.833 -20 -46.5c-4.66699 -16.667 -6.16699 -32.334 -4.5 -47.001s6.16699 -28 13.5 -40c8 -12 18.333 -21 31 -27s28 -9 46 -9v0v0z" />
    <glyph glyph-name="H" unicode="&#xa8;" horiz-adv-x="519" 
d="M88 0l187 700h375l-15 -56h-307l-60 -224h296l-15 -56h-296l-82 -308h307l-15 -56h-375v0v0zM368 800c2 7.33301 4.83594 13.666 8.50293 18.999s8.16699 10 13.5 14s10.666 7 15.999 9s10.666 3.33301 15.999 4v0h1v0v0h0.5h1.5c6 0 11.333 -1.16699 16 -3.5
s8.66699 -5.5 12 -9.5c3.33301 -4.66699 5.33301 -9.66699 6 -15s0.333984 -11.333 -0.999023 -18c-2 -6.66699 -5 -12.667 -9 -18s-8.66699 -10.333 -14 -15s-10.833 -8 -16.5 -10s-11.5 -3 -17.5 -3h-2h-2h-1.5c-0.333008 0 -0.833008 0.333008 -1.5 1
c-4.66699 0.666992 -8.83398 2 -12.501 4s-7.16699 5 -10.5 9c-2.66699 3.33301 -4.33398 7.83301 -5.00098 13.5s0 11.834 2 18.501v0v0zM529.003 800c1.33301 6.66699 3.83203 12.667 7.49902 18s8.5 10.333 14.5 15c5.33301 4 11 7.16699 17 9.5s12 3.5 18 3.5
s11.333 -1.16699 16 -3.5s8.66699 -5.5 12 -9.5c3.33301 -4.66699 5.33301 -9.66699 6 -15s0.333984 -11.333 -0.999023 -18c-2 -6.66699 -5 -12.667 -9 -18s-8.66699 -10.333 -14 -15s-10.833 -8 -16.5 -10s-11.5 -3 -17.5 -3s-11.5 1 -16.5 3s-9.16699 5.33301 -12.5 10
s-5.33301 9.66699 -6 15s0 11.333 2 18v0v0z" />
    <glyph glyph-name="H" unicode="&#x401;" horiz-adv-x="519" 
d="M88 0l187 700h375l-15 -56h-307l-60 -224h296l-15 -56h-296l-82 -308h307l-15 -56h-375v0v0zM368 800c2 7.33301 4.83594 13.666 8.50293 18.999s8.16699 10 13.5 14s10.666 7 15.999 9s10.666 3.33301 15.999 4v0h1v0v0h0.5h1.5c6 0 11.333 -1.16699 16 -3.5
s8.66699 -5.5 12 -9.5c3.33301 -4.66699 5.33301 -9.66699 6 -15s0.333984 -11.333 -0.999023 -18c-2 -6.66699 -5 -12.667 -9 -18s-8.66699 -10.333 -14 -15s-10.833 -8 -16.5 -10s-11.5 -3 -17.5 -3h-2h-2h-1.5c-0.333008 0 -0.833008 0.333008 -1.5 1
c-4.66699 0.666992 -8.83398 2 -12.501 4s-7.16699 5 -10.5 9c-2.66699 3.33301 -4.33398 7.83301 -5.00098 13.5s0 11.834 2 18.501v0v0zM529.003 800c1.33301 6.66699 3.83203 12.667 7.49902 18s8.5 10.333 14.5 15c5.33301 4 11 7.16699 17 9.5s12 3.5 18 3.5
s11.333 -1.16699 16 -3.5s8.66699 -5.5 12 -9.5c3.33301 -4.66699 5.33301 -9.66699 6 -15s0.333984 -11.333 -0.999023 -18c-2 -6.66699 -5 -12.667 -9 -18s-8.66699 -10.333 -14 -15s-10.833 -8 -16.5 -10s-11.5 -3 -17.5 -3s-11.5 1 -16.5 3s-9.16699 5.33301 -12.5 10
s-5.33301 9.66699 -6 15s0 11.333 2 18v0v0z" />
    <glyph glyph-name="I" unicode="&#xa9;" horiz-adv-x="840" 
d="M143 350c13.333 50 34.6621 96.666 63.9951 139.999s67 83.333 113 120s93.167 64.167 141.5 82.5s98.5 27.5 150.5 27.5c50.667 0 95.334 -9 134.001 -27s71.334 -45 98.001 -81s43.334 -75.833 50.001 -119.5s3 -91.167 -11 -142.5
c-13.333 -51.333 -35.166 -98.833 -65.499 -142.5s-68.166 -83.5 -113.499 -119.5c-46 -36 -93.167 -62.667 -141.5 -80s-97.833 -26 -148.5 -26c-52 0 -97.333 8.83301 -136 26.5s-71 44.834 -97 81.501c-26.667 36.667 -43 76.667 -49 120s-2.33301 90 11 140v0v0z
M198.996 349.999c-11.333 -42.667 -14.333 -82.334 -9 -119.001s19 -70.667 41 -102c21.333 -30.667 48.666 -53.834 81.999 -69.501s72 -23.5 116 -23.5s86.667 7.83301 128 23.5s81.333 38.834 120 69.501c38.667 31.333 70.667 65.333 96 102s43.333 76.334 54 119.001
c11.333 42.667 14.333 82.5 9 119.5s-19 70.833 -41 101.5c-21.333 31.333 -48.666 54.666 -81.999 69.999s-72 23 -116 23s-86.667 -7.66699 -128 -23s-81.333 -38.666 -120 -69.999c-38.667 -30.667 -70.5 -64.5 -95.5 -101.5s-43.167 -76.833 -54.5 -119.5v0v0z
M612.996 155.999c-12 -6 -24.0029 -11.1689 -36.0029 -15.502s-24 -8.16602 -36 -11.499c-12.667 -3.33301 -25.167 -5.83301 -37.5 -7.5s-25.166 -2.5 -38.499 -2.5c-34.667 0 -64.334 5.83301 -89.001 17.5s-44 28.834 -58 51.501
c-14.667 23.333 -23.334 48.5 -26.001 75.5s0 55.833 8 86.5c0.666992 0.666992 1 1.33398 1 2.00098v2l0.5 0.5c0.333008 0.333008 0.5 0.833008 0.5 1.5s0.166992 1.16699 0.5 1.5s0.5 0.833008 0.5 1.5c8 27.333 20.5 53.833 37.5 79.5s38.5 49.834 64.5 72.501
c26.667 23.333 55.334 40.833 86.001 52.5s63.334 17.5 98.001 17.5c6 0 11.833 -0.166992 17.5 -0.5s10.834 -0.833008 15.501 -1.5c2 0 4.33301 -0.166992 7 -0.5s5.33398 -0.833008 8.00098 -1.5c2 -0.666992 4.33301 -1.16699 7 -1.5s5 -0.833008 7 -1.5
c5.33301 -1.33301 10.666 -3 15.999 -5s10.666 -4.33301 15.999 -7s10.833 -5.5 16.5 -8.5s11.5 -6.5 17.5 -10.5l-21 -78c-2 1.33301 -4 2.83301 -6 4.5s-4 3.16699 -6 4.5c-2.66699 1.33301 -5 2.66602 -7 3.99902l-6 4l-8 4l-8 4
c-5.33301 2.66699 -10.5 5.16699 -15.5 7.5s-10.5 4.16602 -16.5 5.49902c-8 2.66699 -16.5 4.66699 -25.5 6s-18.167 2 -27.5 2c-22.667 0 -43.667 -4 -63 -12s-37.333 -19.667 -54 -35c-17.333 -16 -31.666 -33.5 -42.999 -52.5s-20 -39.5 -26 -61.5
c-6 -22.667 -8.5 -43.667 -7.5 -63s5.83301 -36.666 14.5 -51.999s20.667 -26.833 36 -34.5s34.333 -11.5 57 -11.5c6.66699 0 13.334 0.333008 20.001 1l20 2c6 1.33301 12.5 2.66602 19.5 3.99902s14.167 3.33301 21.5 6c3.33301 1.33301 6.83301 2.5 10.5 3.5
s7.5 2.16699 11.5 3.5c2 0.666992 3.83301 1.5 5.5 2.5s3.5 1.83301 5.5 2.5l17 8.5l19 9.5l-21 -76v0v0z" />
    <glyph glyph-name="J" unicode="&#xaa;" horiz-adv-x="672" 
d="M667 112l-21.0029 -76.001c-22.667 -10.667 -44.5 -19.5 -65.5 -26.5s-41.167 -12.167 -60.5 -15.5c-20 -4 -39 -7 -57 -9s-35.333 -3 -52 -3c-56.667 0 -104.5 9 -143.5 27s-69.5 45.333 -91.5 82c-22 37.333 -35.167 77.5 -39.5 120.5s-0.166016 89.167 12.501 138.5
c13.333 49.333 33.5 95.666 60.5 138.999s60.833 83.333 101.5 120c40.667 37.333 85.834 65.166 135.501 83.499s104.167 27.5 163.5 27.5h10c3.33301 0 6.66602 -0.333008 9.99902 -1c6.66699 0 13.5 -0.333008 20.5 -1s13.5 -1.33398 19.5 -2.00098
c10 -0.666992 20 -2 30 -4s19.333 -4.33301 28 -7c4 -1.33301 7.83301 -2.66602 11.5 -3.99902s7.16699 -2.66602 10.5 -3.99902s6.83301 -2.83301 10.5 -4.5s7.5 -3.5 11.5 -5.5c7.33301 -3.33301 14.5 -7 21.5 -11s13.833 -8.66699 20.5 -14l-20 -75
c-12 12 -24.833 22.5 -38.5 31.5s-28.167 16.833 -43.5 23.5c-15.333 6 -31.333 11 -48 15s-33.667 6.33301 -51 7h-4h-4h-4h-4c-38 0 -75.333 -6.5 -112 -19.5s-72.667 -32.167 -108 -57.5c-36 -25.333 -65.833 -54.333 -89.5 -87s-41.167 -68.667 -52.5 -108h423l-15 -56
h-425c-11.333 -45.333 -14.166 -86.166 -8.49902 -122.499s19.834 -68.166 42.501 -95.499c22 -27.333 47.667 -47.833 77 -61.5s62 -20.5 98 -20.5c21.333 0 42.666 1.83301 63.999 5.5s42.333 9.5 63 17.5c21.333 8 41.333 16.333 60 25s36.334 18 53.001 28v0v0z" />
    <glyph glyph-name="J" unicode="&#x404;" horiz-adv-x="672" 
d="M667 112l-21.0029 -76.001c-22.667 -10.667 -44.5 -19.5 -65.5 -26.5s-41.167 -12.167 -60.5 -15.5c-20 -4 -39 -7 -57 -9s-35.333 -3 -52 -3c-56.667 0 -104.5 9 -143.5 27s-69.5 45.333 -91.5 82c-22 37.333 -35.167 77.5 -39.5 120.5s-0.166016 89.167 12.501 138.5
c13.333 49.333 33.5 95.666 60.5 138.999s60.833 83.333 101.5 120c40.667 37.333 85.834 65.166 135.501 83.499s104.167 27.5 163.5 27.5h10c3.33301 0 6.66602 -0.333008 9.99902 -1c6.66699 0 13.5 -0.333008 20.5 -1s13.5 -1.33398 19.5 -2.00098
c10 -0.666992 20 -2 30 -4s19.333 -4.33301 28 -7c4 -1.33301 7.83301 -2.66602 11.5 -3.99902s7.16699 -2.66602 10.5 -3.99902s6.83301 -2.83301 10.5 -4.5s7.5 -3.5 11.5 -5.5c7.33301 -3.33301 14.5 -7 21.5 -11s13.833 -8.66699 20.5 -14l-20 -75
c-12 12 -24.833 22.5 -38.5 31.5s-28.167 16.833 -43.5 23.5c-15.333 6 -31.333 11 -48 15s-33.667 6.33301 -51 7h-4h-4h-4h-4c-38 0 -75.333 -6.5 -112 -19.5s-72.667 -32.167 -108 -57.5c-36 -25.333 -65.833 -54.333 -89.5 -87s-41.167 -68.667 -52.5 -108h423l-15 -56
h-425c-11.333 -45.333 -14.166 -86.166 -8.49902 -122.499s19.834 -68.166 42.501 -95.499c22 -27.333 47.667 -47.833 77 -61.5s62 -20.5 98 -20.5c21.333 0 42.666 1.83301 63.999 5.5s42.333 9.5 63 17.5c21.333 8 41.333 16.333 60 25s36.334 18 53.001 28v0v0z" />
    <glyph glyph-name="K" unicode="&#xab;" horiz-adv-x="434" 
d="M100 220l207 211l34 -28l-180 -183l82 -184l-49 -28l-94 212v0v0zM254 220l207 211l34 -28l-180 -183l82 -184l-49 -28l-94 212v0v0z" />
    <glyph glyph-name="L" unicode="&#xac;" horiz-adv-x="630" 
d="M151 378l15 56h500l-58 -216h-60l43 160h-440v0v0z" />
    <glyph glyph-name="M" unicode="&#xad;" horiz-adv-x="308" 
d="M119 288h224l-16 -60h-224l16 60v0v0z" />
    <glyph glyph-name="N" unicode="&#xae;" horiz-adv-x="846" 
d="M146 350c14 51.333 35.8301 98.833 65.4971 142.5s67.834 83.5 114.501 119.5s94 63 142 81s97 27 147 27s94.333 -9 133 -27s71.334 -45 98.001 -81c27.333 -36 44.333 -75.833 51 -119.5s3 -91.167 -11 -142.5c-14 -52 -36 -99.833 -66 -143.5s-68 -83.167 -114 -118.5
c-46.667 -36 -94 -62.667 -142 -80s-97 -26 -147 -26s-94.167 8.66699 -132.5 26s-71.166 44 -98.499 80c-27.333 35.333 -44.333 74.833 -51 118.5s-3 91.5 11 143.5v0v0zM201.997 350c-10.667 -42.667 -13.5 -82.333 -8.5 -119s18.833 -70.667 41.5 -102
c22 -30.667 49.5 -53.834 82.5 -69.501s71.167 -23.5 114.5 -23.5c42.667 0 84.5 7.5 125.5 22.5s81.167 37.833 120.5 68.5c39.333 30 71.666 63.667 96.999 101s43.666 78 54.999 122c12 44 15.333 84.5 10 121.5s-19.666 70.833 -42.999 101.5
c-22.667 30 -50.5 52.667 -83.5 68s-70.833 23 -113.5 23c-43.333 0 -85.5 -7.66699 -126.5 -23s-81.167 -38.666 -120.5 -69.999c-38.667 -30.667 -70.667 -64.5 -96 -101.5s-43.666 -76.833 -54.999 -119.5v0v0zM321.997 133.001l116.007 434h164
c3.33301 0 7 -0.166992 11 -0.5s8.33301 -0.833008 13 -1.5c3.33301 -0.666992 6.66602 -1.5 9.99902 -2.5s6.66602 -1.83301 9.99902 -2.5c1.33301 -0.666992 3 -1.33398 5 -2.00098s3.66699 -1.33398 5 -2.00098c7.33301 -3.33301 14.166 -7.83301 20.499 -13.5
s11.833 -12.5 16.5 -20.5c5.33301 -8 8.16602 -18 8.49902 -30s-1.83398 -26 -6.50098 -42c-4 -15.333 -9.83301 -29.166 -17.5 -41.499s-17.167 -23.166 -28.5 -32.499c-10.667 -8.66699 -21.5 -16 -32.5 -22s-21.833 -10.667 -32.5 -14
c-3.33301 -0.666992 -6.33301 -1.5 -9 -2.5s-5.33398 -1.5 -8.00098 -1.5c-2.66699 -0.666992 -5.33398 -1 -8.00098 -1h-7h-10l83 -202h-82l-78 200h-19l-54 -200h-70v0v0zM493.004 511.001l-32.002 -122.001h60c15.333 0 28.5 1.16699 39.5 3.5s19.833 5.83301 26.5 10.5
c6.66699 5.33301 12.334 10.666 17.001 15.999s8.33398 11 11.001 17c0.666992 1.33301 1.16699 2.5 1.5 3.5s0.833008 2.16699 1.5 3.5c0 0.666992 0.166992 1.33398 0.5 2.00098s0.5 1.33398 0.5 2.00098c0.666992 0 1 0.333008 1 1v2
c2.66699 8.66699 3.66699 16.5 3 23.5s-2.33398 13.5 -5.00098 19.5s-8.66699 10.5 -18 13.5s-21.666 4.5 -36.999 4.5h-70v0v0z" />
    <glyph glyph-name="O" unicode="&#xaf;" horiz-adv-x="244" 
d="M88 0l187 700h68l-187 -700h-68v0v0zM229 800c1.33301 6 3.83203 11.667 7.49902 17s8.16699 10.333 13.5 15c6 4.66699 12 8.16699 18 10.5s12.333 3.5 19 3.5s12.5 -1.16699 17.5 -3.5s8.83301 -5.83301 11.5 -10.5c3.33301 -4.66699 5.33301 -9.66699 6 -15
s0.333984 -11 -0.999023 -17c-2 -6.66699 -4.83301 -12.667 -8.5 -18s-8.16699 -10.333 -13.5 -15s-11 -8 -17 -10s-12.333 -3 -19 -3s-12.5 1 -17.5 3s-9.16699 5.33301 -12.5 10s-5.33301 9.66699 -6 15s0 11.333 2 18v0v0zM350.999 800
c1.33301 6 3.83203 11.667 7.49902 17s8.16699 10.333 13.5 15c6 4.66699 12 8.16699 18 10.5s12.333 3.5 19 3.5s12.5 -1.16699 17.5 -3.5s8.83301 -5.83301 11.5 -10.5c3.33301 -4.66699 5.33301 -9.66699 6 -15s0.333984 -11 -0.999023 -17
c-2 -6.66699 -4.83301 -12.667 -8.5 -18s-8.16699 -10.333 -13.5 -15s-11 -8 -17 -10s-12.333 -3 -19 -3s-12.5 1 -17.5 3s-9.16699 5.33301 -12.5 10s-5.33301 9.66699 -6 15s0 11.333 2 18v0v0z" />
    <glyph glyph-name="O" unicode="&#x407;" horiz-adv-x="244" 
d="M88 0l187 700h68l-187 -700h-68v0v0zM229 800c1.33301 6 3.83203 11.667 7.49902 17s8.16699 10.333 13.5 15c6 4.66699 12 8.16699 18 10.5s12.333 3.5 19 3.5s12.5 -1.16699 17.5 -3.5s8.83301 -5.83301 11.5 -10.5c3.33301 -4.66699 5.33301 -9.66699 6 -15
s0.333984 -11 -0.999023 -17c-2 -6.66699 -4.83301 -12.667 -8.5 -18s-8.16699 -10.333 -13.5 -15s-11 -8 -17 -10s-12.333 -3 -19 -3s-12.5 1 -17.5 3s-9.16699 5.33301 -12.5 10s-5.33301 9.66699 -6 15s0 11.333 2 18v0v0zM350.999 800
c1.33301 6 3.83203 11.667 7.49902 17s8.16699 10.333 13.5 15c6 4.66699 12 8.16699 18 10.5s12.333 3.5 19 3.5s12.5 -1.16699 17.5 -3.5s8.83301 -5.83301 11.5 -10.5c3.33301 -4.66699 5.33301 -9.66699 6 -15s0.333984 -11 -0.999023 -17
c-2 -6.66699 -4.83301 -12.667 -8.5 -18s-8.16699 -10.333 -13.5 -15s-11 -8 -17 -10s-12.333 -3 -19 -3s-12.5 1 -17.5 3s-9.16699 5.33301 -12.5 10s-5.33301 9.66699 -6 15s0 11.333 2 18v0v0z" />
    <glyph glyph-name="P" unicode="&#xb0;" horiz-adv-x="302" 
d="M202 609c4 15.333 10.499 29.666 19.499 42.999s20.5 25.333 34.5 36c14 11.333 28.333 19.666 43 24.999s29.667 8 45 8s28.833 -2.66699 40.5 -8s21.5 -13.666 29.5 -24.999c8 -10.667 13 -22.667 15 -36s1 -27.666 -3 -42.999c-4.66699 -16 -11.5 -30.5 -20.5 -43.5
s-20.5 -25.167 -34.5 -36.5c-14 -10.667 -28.167 -18.667 -42.5 -24s-29.166 -8 -44.499 -8s-29 2.66699 -41 8s-22 13.333 -30 24c-8 11.333 -13 23.5 -15 36.5s-0.666992 27.5 4 43.5v0v0zM250.999 609c-0.666992 -1.33301 -1.16602 -2.83105 -1.49902 -4.49805
s-0.833008 -3.16699 -1.5 -4.5s-0.833984 -2.66602 -0.500977 -3.99902s0.833008 -2.66602 1.5 -3.99902c0 -6 1 -11.5 3 -16.5s5 -10.167 9 -15.5c3.33301 -4.66699 8 -8.16699 14 -10.5s13.333 -3.5 22 -3.5c9.33301 0 18 1.5 26 4.5s16 7.83301 24 14.5
c7.33301 6 13.5 12.667 18.5 20s8.83301 15.333 11.5 24c2.66699 9.33301 3.33398 17.666 2.00098 24.999s-4.33301 14 -9 20s-10.167 10.5 -16.5 13.5s-13.833 4.5 -22.5 4.5s-17 -1.16699 -25 -3.5s-15 -6.16602 -21 -11.499c-6.66699 -4.66699 -12.334 -10 -17.001 -16
s-8.66699 -12 -12 -18l-0.5 -1l-0.5 -1c0 -0.666992 -0.166992 -1 -0.5 -1h-0.5c0 -0.666992 -0.166992 -1.33398 -0.5 -2.00098s-0.5 -1.33398 -0.5 -2.00098s-0.166992 -1.33398 -0.5 -2.00098l-0.5 -1c-0.666992 -0.666992 -1 -1.33398 -1 -2.00098v-2v0v0z" />
    <glyph glyph-name="Q" unicode="&#xb1;" horiz-adv-x="600" 
d="M66 60l15 56h500l-15 -56h-500v0v0zM146 362l16 56h222l59 222h56l-59 -222h222l-16 -56h-222l-51 -192h-56l51 192h-222v0v0z" />
    <glyph glyph-name="R" unicode="&#xb2;" horiz-adv-x="244" 
d="M88 0l187 700h68l-187 -700h-68v0v0z" />
    <glyph glyph-name="R" unicode="&#x406;" horiz-adv-x="244" 
d="M88 0l187 700h68l-187 -700h-68v0v0z" />
    <glyph glyph-name="S" unicode="&#xb3;" horiz-adv-x="208" 
d="M190 434h60l-116 -434h-60l116 434v0v0zM213 581c1.33301 6 3.83105 11.667 7.49805 17s8.16699 10.333 13.5 15s11.333 8.16699 18 10.5s13.334 3.5 20.001 3.5s12.334 -1.16699 17.001 -3.5s8.66699 -5.5 12 -9.5c3.33301 -4.66699 5.33301 -9.66699 6 -15
s0 -11.333 -2 -18s-5 -12.834 -9 -18.501s-8.66699 -10.5 -14 -14.5c-5.33301 -4.66699 -11 -8 -17 -10s-12 -3 -18 -3c-6.66699 0 -12.5 1 -17.5 3s-9.16699 5.33301 -12.5 10c-3.33301 4 -5.33301 8.83301 -6 14.5s0 11.834 2 18.501v0v0z" />
    <glyph glyph-name="S" unicode="&#x456;" horiz-adv-x="208" 
d="M190 434h60l-116 -434h-60l116 434v0v0zM213 581c1.33301 6 3.83105 11.667 7.49805 17s8.16699 10.333 13.5 15s11.333 8.16699 18 10.5s13.334 3.5 20.001 3.5s12.334 -1.16699 17.001 -3.5s8.66699 -5.5 12 -9.5c3.33301 -4.66699 5.33301 -9.66699 6 -15
s0 -11.333 -2 -18s-5 -12.834 -9 -18.501s-8.66699 -10.5 -14 -14.5c-5.33301 -4.66699 -11 -8 -17 -10s-12 -3 -18 -3c-6.66699 0 -12.5 1 -17.5 3s-9.16699 5.33301 -12.5 10c-3.33301 4 -5.33301 8.83301 -6 14.5s0 11.834 2 18.501v0v0z" />
    <glyph glyph-name="T" unicode="&#xb4;" horiz-adv-x="327" 
d="M74 0l116 434h186l30 112h56l-43 -160h-182l-103 -386h-60v0v0z" />
    <glyph glyph-name="T" unicode="&#x491;" horiz-adv-x="327" 
d="M74 0l116 434h186l30 112h56l-43 -160h-182l-103 -386h-60v0v0z" />
    <glyph glyph-name="U" unicode="&#xb5;" horiz-adv-x="506" 
d="M548 434l-116.003 -434.001h-60l19 72c-5.33301 -6.66699 -10.5 -12.834 -15.5 -18.501s-10.167 -10.834 -15.5 -15.501s-10.5 -8.83398 -15.5 -12.501s-9.83301 -7.16699 -14.5 -10.5c-10 -6 -19.167 -10.5 -27.5 -13.5s-16.166 -4.83301 -23.499 -5.5
c-6.66699 -1.33301 -12.667 -2.33301 -18 -3s-9 -1 -11 -1c-2.66699 0 -6 0.333008 -10 1s-9.66699 1.66699 -17 3c-2 0 -4.16699 0.333008 -6.5 1s-4.5 1.33398 -6.5 2.00098c-4.66699 1.33301 -9.16699 3.33301 -13.5 6s-8.5 6 -12.5 10
c-3.33301 3.33301 -6.5 6.83301 -9.5 10.5s-5.83301 7.83398 -8.5 12.501s-5.16699 9.83398 -7.5 15.501s-4.16602 11.834 -5.49902 18.501l-76 -282h-60l173 644h60l-59 -218c-6.66699 -26.667 -10 -50.667 -10 -72s3.33301 -40.333 10 -57c7.33301 -16.667 17 -29 29 -37
s26.333 -12 43 -12s33 4 49 12s32 20.333 48 37s29.833 35.667 41.5 57s20.834 45.333 27.501 72l59 218h60v0v0z" />
    <glyph glyph-name="V" unicode="&#xb6;" horiz-adv-x="450" 
d="M187 -210h-56l166 618c-21.333 0 -39.833 3.66699 -55.5 11s-28.834 18 -39.501 32c-10 14 -16.167 29.5 -18.5 46.5s-0.833008 35.833 4.5 56.5s13.833 39.5 25.5 56.5s26.834 32.5 45.501 46.5c18 13.333 36.5 23.5 55.5 30.5s38.5 10.833 58.5 11.5l58 1l-244 -910v0
v0zM577 700l-244 -910h-56l244 910h56v0v0z" />
    <glyph glyph-name="X" unicode="&#xb8;" horiz-adv-x="515" 
d="M459 137l39.9971 -22.9971c-14 -18 -29.167 -34.5 -45.5 -49.5s-34.166 -29.167 -53.499 -42.5c-19.333 -12.667 -40.333 -22.167 -63 -28.5s-47 -9.5 -73 -9.5c-35.333 0 -65.166 5.66699 -89.499 17s-43.166 29 -56.499 53c-12.667 24 -20.334 49.5 -23.001 76.5
s0.333008 55.833 9 86.5l4 16c1.33301 5.33301 3.33301 11 6 17l8 18c2.66699 6 5.66699 12 9 18c11.333 20.667 25 40.5 41 59.5s35 37.167 57 54.5c21.333 17.333 45.5 30.333 72.5 39s56.5 13 88.5 13c28.667 0 52.834 -4.16699 72.501 -12.5s34.834 -20.5 45.501 -36.5
c11.333 -16 19.666 -33 24.999 -51s8 -36.667 8 -56c0 -1.33301 -0.166992 -2.83301 -0.5 -4.5s-0.5 -3.5 -0.5 -5.5c0 -2.66699 -0.166992 -5.5 -0.5 -8.5s-0.833008 -6.16699 -1.5 -9.5l-2 -14c-0.666992 -4.66699 -1.66699 -9 -3 -13l-8 -29h-359v-1.5v-0.5v0v0v-0.5
v-0.5l-1 -1v0v0v0v-1v0c-0.666992 -2.66699 -1.33398 -5.5 -2.00098 -8.5s-1.33398 -6.16699 -2.00098 -9.5c0 -1.33301 -0.166992 -2.83301 -0.5 -4.5s-0.5 -3.16699 -0.5 -4.5c-0.666992 -2 -1.16699 -3.83301 -1.5 -5.5s-0.5 -3.16699 -0.5 -4.5
c-1.33301 -17.333 -0.166016 -34 3.50098 -50s9.83398 -31.333 18.501 -46c9.33301 -14.667 22.166 -25.667 38.499 -33s35.833 -11 58.5 -11c5.33301 0 11.333 0.333008 18 1s14.334 1.66699 23.001 3c7.33301 1.33301 15.5 3.66602 24.5 6.99902s18.5 8 28.5 14
c6.66699 4 13.5 8.5 20.5 13.5s14.5 10.833 22.5 17.5l14.5 14.5c5 5 10.167 10.5 15.5 16.5c2.66699 3.33301 5.16699 6.66602 7.5 9.99902s4.83301 6.66602 7.5 9.99902v0v0zM183.997 260.003h294.002c4 18 5 35.333 3 52s-7 32.334 -15 47.001
c-8 15.333 -19.333 26.666 -34 33.999s-32.667 11 -54 11c-20.667 0 -40.834 -3.5 -60.501 -10.5s-38.167 -17.167 -55.5 -30.5c-18 -14 -33.333 -29.5 -46 -46.5s-23.334 -35.833 -32.001 -56.5v0v0zM286.999 581.003c1.33301 6 3.66992 11.667 7.00293 17
s7.66602 10.333 12.999 15s11.166 8.16699 17.499 10.5s13.166 3.5 20.499 3.5c6 0 11 -1 15 -3s7.66699 -4.66699 11 -8s5.66602 -7 6.99902 -11s2 -8 2 -12v-2.5v-3.5v-1.5v-1.5c0 -0.666992 -0.166992 -1.16699 -0.5 -1.5s-0.5 -0.833008 -0.5 -1.5
c-1.33301 -6.66699 -4 -12.667 -8 -18s-8.66699 -10 -14 -14c-6.66699 -4.66699 -12.667 -8.16699 -18 -10.5s-10.666 -3.5 -15.999 -3.5h-1.5h-0.5v0v0h-1v0c-6 0 -11.333 1 -16 3s-8.66699 5 -12 9c-4 4 -6.33301 9 -7 15s0 12.333 2 19v0v0zM446.003 581.003
c1.33301 6 3.83398 11.666 7.50098 16.999s8.16699 10.333 13.5 15s11.333 8.16699 18 10.5s13.667 3.5 21 3.5c6 0 11.167 -1.16699 15.5 -3.5s8.16602 -5.5 11.499 -9.5c3.33301 -4.66699 5.5 -9.66699 6.5 -15s0.5 -11.333 -1.5 -18s-5 -13 -9 -19s-8.66699 -11 -14 -15
s-10.833 -7 -16.5 -9s-11.5 -3 -17.5 -3c-6.66699 0 -12.5 1 -17.5 3s-9.16699 5.33301 -12.5 10c-4 4 -6.33301 8.83301 -7 14.5s0 11.834 2 18.501v0v0z" />
    <glyph glyph-name="X" unicode="&#x451;" horiz-adv-x="515" 
d="M459 137l39.9971 -22.9971c-14 -18 -29.167 -34.5 -45.5 -49.5s-34.166 -29.167 -53.499 -42.5c-19.333 -12.667 -40.333 -22.167 -63 -28.5s-47 -9.5 -73 -9.5c-35.333 0 -65.166 5.66699 -89.499 17s-43.166 29 -56.499 53c-12.667 24 -20.334 49.5 -23.001 76.5
s0.333008 55.833 9 86.5l4 16c1.33301 5.33301 3.33301 11 6 17l8 18c2.66699 6 5.66699 12 9 18c11.333 20.667 25 40.5 41 59.5s35 37.167 57 54.5c21.333 17.333 45.5 30.333 72.5 39s56.5 13 88.5 13c28.667 0 52.834 -4.16699 72.501 -12.5s34.834 -20.5 45.501 -36.5
c11.333 -16 19.666 -33 24.999 -51s8 -36.667 8 -56c0 -1.33301 -0.166992 -2.83301 -0.5 -4.5s-0.5 -3.5 -0.5 -5.5c0 -2.66699 -0.166992 -5.5 -0.5 -8.5s-0.833008 -6.16699 -1.5 -9.5l-2 -14c-0.666992 -4.66699 -1.66699 -9 -3 -13l-8 -29h-359v-1.5v-0.5v0v0v-0.5
v-0.5l-1 -1v0v0v0v-1v0c-0.666992 -2.66699 -1.33398 -5.5 -2.00098 -8.5s-1.33398 -6.16699 -2.00098 -9.5c0 -1.33301 -0.166992 -2.83301 -0.5 -4.5s-0.5 -3.16699 -0.5 -4.5c-0.666992 -2 -1.16699 -3.83301 -1.5 -5.5s-0.5 -3.16699 -0.5 -4.5
c-1.33301 -17.333 -0.166016 -34 3.50098 -50s9.83398 -31.333 18.501 -46c9.33301 -14.667 22.166 -25.667 38.499 -33s35.833 -11 58.5 -11c5.33301 0 11.333 0.333008 18 1s14.334 1.66699 23.001 3c7.33301 1.33301 15.5 3.66602 24.5 6.99902s18.5 8 28.5 14
c6.66699 4 13.5 8.5 20.5 13.5s14.5 10.833 22.5 17.5l14.5 14.5c5 5 10.167 10.5 15.5 16.5c2.66699 3.33301 5.16699 6.66602 7.5 9.99902s4.83301 6.66602 7.5 9.99902v0v0zM183.997 260.003h294.002c4 18 5 35.333 3 52s-7 32.334 -15 47.001
c-8 15.333 -19.333 26.666 -34 33.999s-32.667 11 -54 11c-20.667 0 -40.834 -3.5 -60.501 -10.5s-38.167 -17.167 -55.5 -30.5c-18 -14 -33.333 -29.5 -46 -46.5s-23.334 -35.833 -32.001 -56.5v0v0zM286.999 581.003c1.33301 6 3.66992 11.667 7.00293 17
s7.66602 10.333 12.999 15s11.166 8.16699 17.499 10.5s13.166 3.5 20.499 3.5c6 0 11 -1 15 -3s7.66699 -4.66699 11 -8s5.66602 -7 6.99902 -11s2 -8 2 -12v-2.5v-3.5v-1.5v-1.5c0 -0.666992 -0.166992 -1.16699 -0.5 -1.5s-0.5 -0.833008 -0.5 -1.5
c-1.33301 -6.66699 -4 -12.667 -8 -18s-8.66699 -10 -14 -14c-6.66699 -4.66699 -12.667 -8.16699 -18 -10.5s-10.666 -3.5 -15.999 -3.5h-1.5h-0.5v0v0h-1v0c-6 0 -11.333 1 -16 3s-8.66699 5 -12 9c-4 4 -6.33301 9 -7 15s0 12.333 2 19v0v0zM446.003 581.003
c1.33301 6 3.83398 11.666 7.50098 16.999s8.16699 10.333 13.5 15s11.333 8.16699 18 10.5s13.667 3.5 21 3.5c6 0 11.167 -1.16699 15.5 -3.5s8.16602 -5.5 11.499 -9.5c3.33301 -4.66699 5.5 -9.66699 6.5 -15s0.5 -11.333 -1.5 -18s-5 -13 -9 -19s-8.66699 -11 -14 -15
s-10.833 -7 -16.5 -9s-11.5 -3 -17.5 -3c-6.66699 0 -12.5 1 -17.5 3s-9.16699 5.33301 -12.5 10c-4 4 -6.33301 8.83301 -7 14.5s0 11.834 2 18.501v0v0z" />
    <glyph glyph-name="Y" unicode="&#xb9;" horiz-adv-x="1159" 
d="M88 0l195 728l374 -585l149 557h68l-195 -728l-374 585l-149 -557h-68v0v0zM792 0l12 48h301l-12 -48h-301v0v0zM970 105c-26.667 0 -49 3.5 -67 10.5s-31.667 17.5 -41 31.5s-16 29 -20 45s-5.66699 32.333 -5 49c0 4.66699 0.166992 9.16699 0.5 13.5
s0.833008 8.83301 1.5 13.5c0.666992 2.66699 1.33398 5.5 2.00098 8.5s1.33398 5.83301 2.00098 8.5c0 1.33301 0.333008 2.83301 1 4.5s1 3.16699 1 4.5c1.33301 4 2.66602 8.16699 3.99902 12.5s2.66602 8.83301 3.99902 13.5c1.33301 2.66699 2.66602 5.5 3.99902 8.5
s2.66602 5.83301 3.99902 8.5c0.666992 2 1.33398 3.83301 2.00098 5.5s1.33398 3.16699 2.00098 4.5c8.66699 17.333 19.167 33.666 31.5 48.999s26.833 30 43.5 44c17.333 14 36.833 24.667 58.5 32s45.834 11 72.501 11c28.667 0 52.5 -4.66699 71.5 -14
s33.5 -23.333 43.5 -42s15.833 -39.167 17.5 -61.5s-1.16602 -46.166 -8.49902 -71.499c-6.66699 -26 -16.667 -50 -30 -72s-30 -42.333 -50 -61c-20.667 -18.667 -42.834 -32.667 -66.501 -42s-49.834 -14 -78.501 -14v0v0zM982 153c19.333 -0.666992 37.333 2.33301 54 9
s31.667 17 45 31c14 14 25.667 28.5 35 43.5s16.333 30.833 21 47.5v0v1v0v0v0.5v1.5c0.666992 0.666992 1 1.33398 1 2.00098v2c0.666992 0.666992 1 1.16699 1 1.5v1.5v0l1 1v0.5v0.5v0.5v1.5v0l1 1v0.5v1.5c4.66699 17.333 6.5 33.666 5.5 48.999s-4.83301 30 -11.5 44
c-6 14 -15.5 24.333 -28.5 31s-29.167 10 -48.5 10c-20 0 -38.333 -3.5 -55 -10.5s-31.667 -17.5 -45 -31.5c-14 -14 -25.5 -28.667 -34.5 -44s-15.833 -31.666 -20.5 -48.999c-0.666992 -0.666992 -1 -1.33398 -1 -2.00098v-2v-0.5v-0.5l-1 -1v0v-1.5
c0 -0.333008 -0.333008 -0.833008 -1 -1.5v-1.5v-1.5c-4.66699 -16.667 -6.66699 -33 -6 -49s4 -31 10 -45s15.5 -24.5 28.5 -31.5s29.5 -10.167 49.5 -9.5v0v0z" />
    <glyph glyph-name="Y" unicode="&#x2116;" horiz-adv-x="1159" 
d="M88 0l195 728l374 -585l149 557h68l-195 -728l-374 585l-149 -557h-68v0v0zM792 0l12 48h301l-12 -48h-301v0v0zM970 105c-26.667 0 -49 3.5 -67 10.5s-31.667 17.5 -41 31.5s-16 29 -20 45s-5.66699 32.333 -5 49c0 4.66699 0.166992 9.16699 0.5 13.5
s0.833008 8.83301 1.5 13.5c0.666992 2.66699 1.33398 5.5 2.00098 8.5s1.33398 5.83301 2.00098 8.5c0 1.33301 0.333008 2.83301 1 4.5s1 3.16699 1 4.5c1.33301 4 2.66602 8.16699 3.99902 12.5s2.66602 8.83301 3.99902 13.5c1.33301 2.66699 2.66602 5.5 3.99902 8.5
s2.66602 5.83301 3.99902 8.5c0.666992 2 1.33398 3.83301 2.00098 5.5s1.33398 3.16699 2.00098 4.5c8.66699 17.333 19.167 33.666 31.5 48.999s26.833 30 43.5 44c17.333 14 36.833 24.667 58.5 32s45.834 11 72.501 11c28.667 0 52.5 -4.66699 71.5 -14
s33.5 -23.333 43.5 -42s15.833 -39.167 17.5 -61.5s-1.16602 -46.166 -8.49902 -71.499c-6.66699 -26 -16.667 -50 -30 -72s-30 -42.333 -50 -61c-20.667 -18.667 -42.834 -32.667 -66.501 -42s-49.834 -14 -78.501 -14v0v0zM982 153c19.333 -0.666992 37.333 2.33301 54 9
s31.667 17 45 31c14 14 25.667 28.5 35 43.5s16.333 30.833 21 47.5v0v1v0v0v0.5v1.5c0.666992 0.666992 1 1.33398 1 2.00098v2c0.666992 0.666992 1 1.16699 1 1.5v1.5v0l1 1v0.5v0.5v0.5v1.5v0l1 1v0.5v1.5c4.66699 17.333 6.5 33.666 5.5 48.999s-4.83301 30 -11.5 44
c-6 14 -15.5 24.333 -28.5 31s-29.167 10 -48.5 10c-20 0 -38.333 -3.5 -55 -10.5s-31.667 -17.5 -45 -31.5c-14 -14 -25.5 -28.667 -34.5 -44s-15.833 -31.666 -20.5 -48.999c-0.666992 -0.666992 -1 -1.33398 -1 -2.00098v-2v-0.5v-0.5l-1 -1v0v-1.5
c0 -0.333008 -0.333008 -0.833008 -1 -1.5v-1.5v-1.5c-4.66699 -16.667 -6.66699 -33 -6 -49s4 -31 10 -45s15.5 -24.5 28.5 -31.5s29.5 -10.167 49.5 -9.5v0v0z" />
    <glyph glyph-name="Z" unicode="&#xba;" horiz-adv-x="421" 
d="M410 247l-12.999 -47.998h-234c-0.666992 -2 -1.16699 -4 -1.5 -6s-0.833008 -4 -1.5 -6c0 -2.66699 -0.166992 -5 -0.5 -7s-0.5 -4 -0.5 -6v-4.5v-4.5v-8.5v-8.5c0.666992 -14.667 3.66699 -28.834 9 -42.501s12.666 -26.5 21.999 -38.5c10 -12.667 24.167 -22 42.5 -28
s40.5 -9 66.5 -9c6.66699 0 13.834 0.333008 21.501 1s15.834 2 24.501 4c9.33301 1.33301 19.166 4.16602 29.499 8.49902s21.833 9.83301 34.5 16.5l-15 -56c-0.666992 -0.666992 -1.5 -1.16699 -2.5 -1.5s-1.83301 -0.5 -2.5 -0.5l-3 -1.5
c-0.666992 -0.333008 -1.66699 -0.5 -3 -0.5c-2.66699 0 -5.16699 -0.5 -7.5 -1.5s-5.16602 -1.83301 -8.49902 -2.5c-4.66699 -1.33301 -10 -2.66602 -16 -3.99902s-12.667 -2.66602 -20 -3.99902s-15 -2.33301 -23 -3s-16.667 -1 -26 -1h-6h-6
c-2.66699 0.666992 -5 1 -7 1h-6c-4 0.666992 -8 1.16699 -12 1.5s-8 0.833008 -12 1.5c-22.667 4.66699 -43.334 12.334 -62.001 23.001s-35.667 25 -51 43c-14.667 18 -23.5 40.5 -26.5 67.5s0.5 58.833 10.5 95.5c9.33301 34.667 23 66 41 94s41 53 69 75
c27.333 22 57.333 38.5 90 49.5s67.667 16.5 105 16.5c9.33301 0 17.666 -0.166992 24.999 -0.5s14.333 -1.16602 21 -2.49902c3.33301 -0.666992 6.5 -1.33398 9.5 -2.00098s5.83301 -1 8.5 -1c2 -0.666992 4.33301 -1.33398 7 -2.00098s5 -1.33398 7 -2.00098
c1.33301 -0.666992 2.5 -1.16699 3.5 -1.5s2.16699 -0.5 3.5 -0.5c0.666992 -0.666992 1.66699 -1.16699 3 -1.5s2.33301 -0.833008 3 -1.5c1.33301 -0.666992 2.83301 -1.33398 4.5 -2.00098s3.16699 -1 4.5 -1l-14 -53c-9.33301 4.66699 -18.166 8.5 -26.499 11.5
s-16.5 5.16699 -24.5 6.5c-7.33301 1.33301 -14.166 2.5 -20.499 3.5s-12.5 1.5 -18.5 1.5c-28.667 0 -55.5 -4 -80.5 -12s-47.5 -20 -67.5 -36c-20.667 -16 -37.334 -32.833 -50.001 -50.5s-22.334 -36.167 -29.001 -55.5v-1.5v-0.5v0v0v-1v0h232v0v0z" />
    <glyph glyph-name="Z" unicode="&#x454;" horiz-adv-x="421" 
d="M410 247l-12.999 -47.998h-234c-0.666992 -2 -1.16699 -4 -1.5 -6s-0.833008 -4 -1.5 -6c0 -2.66699 -0.166992 -5 -0.5 -7s-0.5 -4 -0.5 -6v-4.5v-4.5v-8.5v-8.5c0.666992 -14.667 3.66699 -28.834 9 -42.501s12.666 -26.5 21.999 -38.5c10 -12.667 24.167 -22 42.5 -28
s40.5 -9 66.5 -9c6.66699 0 13.834 0.333008 21.501 1s15.834 2 24.501 4c9.33301 1.33301 19.166 4.16602 29.499 8.49902s21.833 9.83301 34.5 16.5l-15 -56c-0.666992 -0.666992 -1.5 -1.16699 -2.5 -1.5s-1.83301 -0.5 -2.5 -0.5l-3 -1.5
c-0.666992 -0.333008 -1.66699 -0.5 -3 -0.5c-2.66699 0 -5.16699 -0.5 -7.5 -1.5s-5.16602 -1.83301 -8.49902 -2.5c-4.66699 -1.33301 -10 -2.66602 -16 -3.99902s-12.667 -2.66602 -20 -3.99902s-15 -2.33301 -23 -3s-16.667 -1 -26 -1h-6h-6
c-2.66699 0.666992 -5 1 -7 1h-6c-4 0.666992 -8 1.16699 -12 1.5s-8 0.833008 -12 1.5c-22.667 4.66699 -43.334 12.334 -62.001 23.001s-35.667 25 -51 43c-14.667 18 -23.5 40.5 -26.5 67.5s0.5 58.833 10.5 95.5c9.33301 34.667 23 66 41 94s41 53 69 75
c27.333 22 57.333 38.5 90 49.5s67.667 16.5 105 16.5c9.33301 0 17.666 -0.166992 24.999 -0.5s14.333 -1.16602 21 -2.49902c3.33301 -0.666992 6.5 -1.33398 9.5 -2.00098s5.83301 -1 8.5 -1c2 -0.666992 4.33301 -1.33398 7 -2.00098s5 -1.33398 7 -2.00098
c1.33301 -0.666992 2.5 -1.16699 3.5 -1.5s2.16699 -0.5 3.5 -0.5c0.666992 -0.666992 1.66699 -1.16699 3 -1.5s2.33301 -0.833008 3 -1.5c1.33301 -0.666992 2.83301 -1.33398 4.5 -2.00098s3.16699 -1 4.5 -1l-14 -53c-9.33301 4.66699 -18.166 8.5 -26.499 11.5
s-16.5 5.16699 -24.5 6.5c-7.33301 1.33301 -14.166 2.5 -20.499 3.5s-12.5 1.5 -18.5 1.5c-28.667 0 -55.5 -4 -80.5 -12s-47.5 -20 -67.5 -36c-20.667 -16 -37.334 -32.833 -50.001 -50.5s-22.334 -36.167 -29.001 -55.5v-1.5v-0.5v0v0v-1v0h232v0v0z" />
    <glyph glyph-name="bracketleft" unicode="&#xbb;" horiz-adv-x="434" 
d="M296 219l-206 -211l-35 28l180 183l-82 184l50 28l93 -212v0v0zM450 219l-206 -211l-35 28l180 183l-82 184l50 28l93 -212v0v0z" />
    <glyph glyph-name="backslash" unicode="&#xbc;" horiz-adv-x="208" 
d="M190 434h60l-173 -644h-60l173 644v0v0zM213 581c1.33301 6 3.83105 11.667 7.49805 17s8.16699 10.333 13.5 15s11.333 8.16699 18 10.5s13.334 3.5 20.001 3.5s12.334 -1.16699 17.001 -3.5s8.66699 -5.5 12 -9.5c3.33301 -4.66699 5.33301 -9.66699 6 -15
s0 -11.333 -2 -18s-5 -12.834 -9 -18.501s-8.66699 -10.5 -14 -14.5c-5.33301 -4.66699 -11 -8 -17 -10s-12 -3 -18 -3c-6.66699 0 -12.5 1 -17.5 3s-9.16699 5.33301 -12.5 10c-3.33301 4 -5.33301 8.83301 -6 14.5s0 11.834 2 18.501v0v0z" />
    <glyph glyph-name="backslash" unicode="&#x458;" horiz-adv-x="208" 
d="M190 434h60l-173 -644h-60l173 644v0v0zM213 581c1.33301 6 3.83105 11.667 7.49805 17s8.16699 10.333 13.5 15s11.333 8.16699 18 10.5s13.334 3.5 20.001 3.5s12.334 -1.16699 17.001 -3.5s8.66699 -5.5 12 -9.5c3.33301 -4.66699 5.33301 -9.66699 6 -15
s0 -11.333 -2 -18s-5 -12.834 -9 -18.501s-8.66699 -10.5 -14 -14.5c-5.33301 -4.66699 -11 -8 -17 -10s-12 -3 -18 -3c-6.66699 0 -12.5 1 -17.5 3s-9.16699 5.33301 -12.5 10c-3.33301 4 -5.33301 8.83301 -6 14.5s0 11.834 2 18.501v0v0z" />
    <glyph glyph-name="bracketright" unicode="&#xbd;" horiz-adv-x="521" 
d="M607 614l-62.998 -32v0.5v0.5v2v2c0 0.666992 -0.166992 1.16699 -0.5 1.5s-0.5 0.833008 -0.5 1.5l-0.5 0.5c-0.333008 0.333008 -0.5 0.833008 -0.5 1.5c-2.66699 9.33301 -6.5 18 -11.5 26s-11.167 15.667 -18.5 23c-8 7.33301 -18 13 -30 17s-26 6 -42 6
c-18 0 -34 -1.83301 -48 -5.5s-26.333 -9.16699 -37 -16.5c-10.667 -6.66699 -20.334 -14 -29.001 -22s-15.667 -16 -21 -24c-2.66699 -3.33301 -5 -6.66602 -7 -9.99902s-3.66699 -6.66602 -5 -9.99902s-2.5 -6.5 -3.5 -9.5s-1.83301 -6.16699 -2.5 -9.5
c-4.66699 -18 -5.66699 -33.833 -3 -47.5s9.33398 -25.5 20.001 -35.5c10 -10 21.167 -19.333 33.5 -28s25.833 -16.667 40.5 -24l6 -4c2 -1.33301 4.33301 -2.66602 7 -3.99902c0.666992 0 1.5 -0.333008 2.5 -1s1.83301 -1 2.5 -1c0 -0.666992 0.333008 -1 1 -1h1l4 -2
l4 -2c0.666992 -0.666992 1.33398 -1.16699 2.00098 -1.5s1.33398 -0.833008 2.00098 -1.5s1.5 -1.16699 2.5 -1.5s1.83301 -0.5 2.5 -0.5c18.667 -10.667 36 -22.167 52 -34.5s31 -25.5 45 -39.5c14.667 -14.667 23.5 -33.167 26.5 -55.5s0.166992 -48.5 -8.5 -78.5
c-7.33301 -28.667 -19.5 -55.5 -36.5 -80.5s-38.5 -48.167 -64.5 -69.5c-25.333 -20.667 -53.166 -36.167 -83.499 -46.5s-62.833 -15.5 -97.5 -15.5c-24.667 0 -46.5 2.66699 -65.5 8s-34.833 12.666 -47.5 21.999c-12.667 10 -23.667 20.667 -33 32
s-16.666 23.333 -21.999 36c-0.666992 2.66699 -1.5 5.16699 -2.5 7.5s-2.16699 4.83301 -3.5 7.5c-0.666992 2 -1.33398 4.16699 -2.00098 6.5s-1.33398 4.83301 -2.00098 7.5c-2 5.33301 -3.33301 10.166 -4 14.499s-1.33398 8.83301 -2.00098 13.5l73 32
c-0.666992 -1.33301 -1 -2.83301 -1 -4.5s0.333008 -3.16699 1 -4.5c0 -0.666992 0.166992 -1.33398 0.5 -2.00098s0.5 -1.33398 0.5 -2.00098s0.166992 -1.33398 0.5 -2.00098s0.5 -1.33398 0.5 -2.00098c2 -14.667 6 -28.667 12 -42s14 -26 24 -38
c9.33301 -12 22 -21 38 -27s34.667 -9 56 -9c22.667 0 44 3.83301 64 11.5s38.333 18.834 55 33.501c17.333 15.333 31.833 32.166 43.5 50.499s20.167 37.833 25.5 58.5c4.66699 16 6.83398 30.333 6.50098 43s-3.16602 23.667 -8.49902 33
c-4.66699 9.33301 -11.334 18.666 -20.001 27.999s-19 18.333 -31 27c-4.66699 2.66699 -9.16699 5.33398 -13.5 8.00098s-8.83301 5.33398 -13.5 8.00098c-2.66699 1.33301 -5.33398 2.83301 -8.00098 4.5s-5.33398 3.16699 -8.00098 4.5s-5.33398 2.83301 -8.00098 4.5
s-5.33398 3.16699 -8.00098 4.5c-20.667 11.333 -39.834 23.333 -57.501 36s-33.834 26.334 -48.501 41.001s-23.834 32.167 -27.501 52.5s-2.16699 43.833 4.5 70.5c0.666992 1.33301 1.16699 2.5 1.5 3.5s0.5 2.16699 0.5 3.5c1.33301 3.33301 2.5 7 3.5 11s2.5 8 4.5 12
c2.66699 5.33301 5.5 10.666 8.5 15.999s6.16699 10.666 9.5 15.999c8.66699 13.333 19.167 25.833 31.5 37.5s26.833 22.834 43.5 33.501s36 18.667 58 24s47 8 75 8c5.33301 0 11.333 -0.166992 18 -0.5s13.667 -1.16602 21 -2.49902
c7.33301 -0.666992 14.5 -1.83398 21.5 -3.50098s14.167 -4.16699 21.5 -7.5c8 -3.33301 15.833 -7.66602 23.5 -12.999s14.834 -11.666 21.501 -18.999c6.66699 -6.66699 12.334 -15 17.001 -25s8.33398 -21.667 11.001 -35v0v0z" />
    <glyph glyph-name="bracketright" unicode="&#x405;" horiz-adv-x="521" 
d="M607 614l-62.998 -32v0.5v0.5v2v2c0 0.666992 -0.166992 1.16699 -0.5 1.5s-0.5 0.833008 -0.5 1.5l-0.5 0.5c-0.333008 0.333008 -0.5 0.833008 -0.5 1.5c-2.66699 9.33301 -6.5 18 -11.5 26s-11.167 15.667 -18.5 23c-8 7.33301 -18 13 -30 17s-26 6 -42 6
c-18 0 -34 -1.83301 -48 -5.5s-26.333 -9.16699 -37 -16.5c-10.667 -6.66699 -20.334 -14 -29.001 -22s-15.667 -16 -21 -24c-2.66699 -3.33301 -5 -6.66602 -7 -9.99902s-3.66699 -6.66602 -5 -9.99902s-2.5 -6.5 -3.5 -9.5s-1.83301 -6.16699 -2.5 -9.5
c-4.66699 -18 -5.66699 -33.833 -3 -47.5s9.33398 -25.5 20.001 -35.5c10 -10 21.167 -19.333 33.5 -28s25.833 -16.667 40.5 -24l6 -4c2 -1.33301 4.33301 -2.66602 7 -3.99902c0.666992 0 1.5 -0.333008 2.5 -1s1.83301 -1 2.5 -1c0 -0.666992 0.333008 -1 1 -1h1l4 -2
l4 -2c0.666992 -0.666992 1.33398 -1.16699 2.00098 -1.5s1.33398 -0.833008 2.00098 -1.5s1.5 -1.16699 2.5 -1.5s1.83301 -0.5 2.5 -0.5c18.667 -10.667 36 -22.167 52 -34.5s31 -25.5 45 -39.5c14.667 -14.667 23.5 -33.167 26.5 -55.5s0.166992 -48.5 -8.5 -78.5
c-7.33301 -28.667 -19.5 -55.5 -36.5 -80.5s-38.5 -48.167 -64.5 -69.5c-25.333 -20.667 -53.166 -36.167 -83.499 -46.5s-62.833 -15.5 -97.5 -15.5c-24.667 0 -46.5 2.66699 -65.5 8s-34.833 12.666 -47.5 21.999c-12.667 10 -23.667 20.667 -33 32
s-16.666 23.333 -21.999 36c-0.666992 2.66699 -1.5 5.16699 -2.5 7.5s-2.16699 4.83301 -3.5 7.5c-0.666992 2 -1.33398 4.16699 -2.00098 6.5s-1.33398 4.83301 -2.00098 7.5c-2 5.33301 -3.33301 10.166 -4 14.499s-1.33398 8.83301 -2.00098 13.5l73 32
c-0.666992 -1.33301 -1 -2.83301 -1 -4.5s0.333008 -3.16699 1 -4.5c0 -0.666992 0.166992 -1.33398 0.5 -2.00098s0.5 -1.33398 0.5 -2.00098s0.166992 -1.33398 0.5 -2.00098s0.5 -1.33398 0.5 -2.00098c2 -14.667 6 -28.667 12 -42s14 -26 24 -38
c9.33301 -12 22 -21 38 -27s34.667 -9 56 -9c22.667 0 44 3.83301 64 11.5s38.333 18.834 55 33.501c17.333 15.333 31.833 32.166 43.5 50.499s20.167 37.833 25.5 58.5c4.66699 16 6.83398 30.333 6.50098 43s-3.16602 23.667 -8.49902 33
c-4.66699 9.33301 -11.334 18.666 -20.001 27.999s-19 18.333 -31 27c-4.66699 2.66699 -9.16699 5.33398 -13.5 8.00098s-8.83301 5.33398 -13.5 8.00098c-2.66699 1.33301 -5.33398 2.83301 -8.00098 4.5s-5.33398 3.16699 -8.00098 4.5s-5.33398 2.83301 -8.00098 4.5
s-5.33398 3.16699 -8.00098 4.5c-20.667 11.333 -39.834 23.333 -57.501 36s-33.834 26.334 -48.501 41.001s-23.834 32.167 -27.501 52.5s-2.16699 43.833 4.5 70.5c0.666992 1.33301 1.16699 2.5 1.5 3.5s0.5 2.16699 0.5 3.5c1.33301 3.33301 2.5 7 3.5 11s2.5 8 4.5 12
c2.66699 5.33301 5.5 10.666 8.5 15.999s6.16699 10.666 9.5 15.999c8.66699 13.333 19.167 25.833 31.5 37.5s26.833 22.834 43.5 33.501s36 18.667 58 24s47 8 75 8c5.33301 0 11.333 -0.166992 18 -0.5s13.667 -1.16602 21 -2.49902
c7.33301 -0.666992 14.5 -1.83398 21.5 -3.50098s14.167 -4.16699 21.5 -7.5c8 -3.33301 15.833 -7.66602 23.5 -12.999s14.834 -11.666 21.501 -18.999c6.66699 -6.66699 12.334 -15 17.001 -25s8.33398 -21.667 11.001 -35v0v0z" />
    <glyph glyph-name="asciicircum" unicode="&#xbe;" horiz-adv-x="382" 
d="M55 89l56 25.9951c0.666992 -10.667 3 -20.834 7 -30.501s9.33301 -19.167 16 -28.5c6.66699 -8.66699 15.334 -15.167 26.001 -19.5s23.334 -6.5 38.001 -6.5c14 0 27 1.83301 39 5.5s23.333 9.5 34 17.5c10 8 18.5 17.333 25.5 28s12.167 22.334 15.5 35.001
c3.33301 11.333 4.33301 21.5 3 30.5s-4.66602 16.5 -9.99902 22.5s-11.5 11.333 -18.5 16s-14.167 8.33398 -21.5 11.001c-1.33301 0.666992 -2.66602 1.16699 -3.99902 1.5s-2.66602 0.833008 -3.99902 1.5s-2.66602 1.16699 -3.99902 1.5s-2.66602 0.833008 -3.99902 1.5
s-2.83301 1.16699 -4.5 1.5s-3.16699 0.833008 -4.5 1.5c-1.33301 0 -2.5 0.166992 -3.5 0.5s-2.16699 0.833008 -3.5 1.5h-1.5h-1.5c-0.666992 0 -1.16699 0.166992 -1.5 0.5s-0.5 0.833008 -0.5 1.5c-14 4.66699 -27.167 10.167 -39.5 16.5s-23.5 13.833 -33.5 22.5
c-10.667 8 -17 19 -19 33s-0.666992 30.333 4 49c5.33301 19.333 13.166 36.5 23.499 51.5s23.833 27.833 40.5 38.5s34 18.667 52 24s36.667 8 56 8c4.66699 0 9.33398 -0.166992 14.001 -0.5s9.66699 -1.16602 15 -2.49902
c5.33301 -0.666992 10.666 -1.83398 15.999 -3.50098s10.666 -4.16699 15.999 -7.5c2 -0.666992 3.83301 -1.66699 5.5 -3s3.16699 -2.66602 4.5 -3.99902c3.33301 -2.66699 6.83301 -5.66699 10.5 -9s6.83398 -7 9.50098 -11c4 -6 7.66699 -13 11 -21s6.33301 -17 9 -27
l-52 -24c-0.666992 10 -3.16699 18.833 -7.5 26.5s-10.166 14.5 -17.499 20.5c-6.66699 6 -14.334 10.5 -23.001 13.5s-18.334 4.5 -29.001 4.5c-12 0 -23 -1.66699 -33 -5s-19.333 -8.33301 -28 -15c-8 -6.66699 -14.667 -14.167 -20 -22.5s-9.33301 -17.166 -12 -26.499
c-2.66699 -10.667 -3.5 -19.667 -2.5 -27s3.83301 -13.333 8.5 -18c5.33301 -4.66699 11.5 -9 18.5 -13s14.833 -7.66699 23.5 -11c0.666992 0 1.16699 -0.166992 1.5 -0.5s0.833008 -0.5 1.5 -0.5s1.5 -0.166992 2.5 -0.5s2.16699 -0.833008 3.5 -1.5
s3 -1.33398 5 -2.00098l6 -2l4 -2c1.33301 -0.666992 3 -1.33398 5 -2.00098c1.33301 0 2.33301 -0.166992 3 -0.5s1.33398 -0.5 2.00098 -0.5c0.666992 -0.666992 1.5 -1.16699 2.5 -1.5s1.83301 -0.5 2.5 -0.5c13.333 -4.66699 26.166 -10.667 38.499 -18
s23.833 -15.666 34.5 -24.999c9.33301 -9.33301 15.166 -21.5 17.499 -36.5s0.833008 -33.167 -4.5 -54.5c0 -1.33301 -0.333008 -2.83301 -1 -4.5s-1.33398 -3.16699 -2.00098 -4.5c-0.666992 -2 -1.33398 -3.83301 -2.00098 -5.5s-1.33398 -3.16699 -2.00098 -4.5
c-1.33301 -3.33301 -2.83301 -6.66602 -4.5 -9.99902s-3.16699 -6.66602 -4.5 -9.99902c-7.33301 -12.667 -16.333 -24.5 -27 -35.5s-23 -21.5 -37 -31.5c-14.667 -8.66699 -31.5 -15.5 -50.5 -20.5s-40.5 -7.5 -64.5 -7.5c-4.66699 0 -9.83398 0.166992 -15.501 0.5
s-11.834 1.16602 -18.501 2.49902c-6.66699 0.666992 -13.167 2.33398 -19.5 5.00098s-12.5 5.33398 -18.5 8.00098c-6.66699 3.33301 -12.667 7.83301 -18 13.5s-10.333 11.834 -15 18.501c-4.66699 7.33301 -8.66699 15.666 -12 24.999s-5.66602 20 -6.99902 32v0v0z" />
    <glyph glyph-name="asciicircum" unicode="&#x455;" horiz-adv-x="382" 
d="M55 89l56 25.9951c0.666992 -10.667 3 -20.834 7 -30.501s9.33301 -19.167 16 -28.5c6.66699 -8.66699 15.334 -15.167 26.001 -19.5s23.334 -6.5 38.001 -6.5c14 0 27 1.83301 39 5.5s23.333 9.5 34 17.5c10 8 18.5 17.333 25.5 28s12.167 22.334 15.5 35.001
c3.33301 11.333 4.33301 21.5 3 30.5s-4.66602 16.5 -9.99902 22.5s-11.5 11.333 -18.5 16s-14.167 8.33398 -21.5 11.001c-1.33301 0.666992 -2.66602 1.16699 -3.99902 1.5s-2.66602 0.833008 -3.99902 1.5s-2.66602 1.16699 -3.99902 1.5s-2.66602 0.833008 -3.99902 1.5
s-2.83301 1.16699 -4.5 1.5s-3.16699 0.833008 -4.5 1.5c-1.33301 0 -2.5 0.166992 -3.5 0.5s-2.16699 0.833008 -3.5 1.5h-1.5h-1.5c-0.666992 0 -1.16699 0.166992 -1.5 0.5s-0.5 0.833008 -0.5 1.5c-14 4.66699 -27.167 10.167 -39.5 16.5s-23.5 13.833 -33.5 22.5
c-10.667 8 -17 19 -19 33s-0.666992 30.333 4 49c5.33301 19.333 13.166 36.5 23.499 51.5s23.833 27.833 40.5 38.5s34 18.667 52 24s36.667 8 56 8c4.66699 0 9.33398 -0.166992 14.001 -0.5s9.66699 -1.16602 15 -2.49902
c5.33301 -0.666992 10.666 -1.83398 15.999 -3.50098s10.666 -4.16699 15.999 -7.5c2 -0.666992 3.83301 -1.66699 5.5 -3s3.16699 -2.66602 4.5 -3.99902c3.33301 -2.66699 6.83301 -5.66699 10.5 -9s6.83398 -7 9.50098 -11c4 -6 7.66699 -13 11 -21s6.33301 -17 9 -27
l-52 -24c-0.666992 10 -3.16699 18.833 -7.5 26.5s-10.166 14.5 -17.499 20.5c-6.66699 6 -14.334 10.5 -23.001 13.5s-18.334 4.5 -29.001 4.5c-12 0 -23 -1.66699 -33 -5s-19.333 -8.33301 -28 -15c-8 -6.66699 -14.667 -14.167 -20 -22.5s-9.33301 -17.166 -12 -26.499
c-2.66699 -10.667 -3.5 -19.667 -2.5 -27s3.83301 -13.333 8.5 -18c5.33301 -4.66699 11.5 -9 18.5 -13s14.833 -7.66699 23.5 -11c0.666992 0 1.16699 -0.166992 1.5 -0.5s0.833008 -0.5 1.5 -0.5s1.5 -0.166992 2.5 -0.5s2.16699 -0.833008 3.5 -1.5
s3 -1.33398 5 -2.00098l6 -2l4 -2c1.33301 -0.666992 3 -1.33398 5 -2.00098c1.33301 0 2.33301 -0.166992 3 -0.5s1.33398 -0.5 2.00098 -0.5c0.666992 -0.666992 1.5 -1.16699 2.5 -1.5s1.83301 -0.5 2.5 -0.5c13.333 -4.66699 26.166 -10.667 38.499 -18
s23.833 -15.666 34.5 -24.999c9.33301 -9.33301 15.166 -21.5 17.499 -36.5s0.833008 -33.167 -4.5 -54.5c0 -1.33301 -0.333008 -2.83301 -1 -4.5s-1.33398 -3.16699 -2.00098 -4.5c-0.666992 -2 -1.33398 -3.83301 -2.00098 -5.5s-1.33398 -3.16699 -2.00098 -4.5
c-1.33301 -3.33301 -2.83301 -6.66602 -4.5 -9.99902s-3.16699 -6.66602 -4.5 -9.99902c-7.33301 -12.667 -16.333 -24.5 -27 -35.5s-23 -21.5 -37 -31.5c-14.667 -8.66699 -31.5 -15.5 -50.5 -20.5s-40.5 -7.5 -64.5 -7.5c-4.66699 0 -9.83398 0.166992 -15.501 0.5
s-11.834 1.16602 -18.501 2.49902c-6.66699 0.666992 -13.167 2.33398 -19.5 5.00098s-12.5 5.33398 -18.5 8.00098c-6.66699 3.33301 -12.667 7.83301 -18 13.5s-10.333 11.834 -15 18.501c-4.66699 7.33301 -8.66699 15.666 -12 24.999s-5.66602 20 -6.99902 32v0v0z" />
    <glyph glyph-name="underscore" unicode="&#xbf;" horiz-adv-x="244" 
d="M208 434h60l-116 -434h-60l116 434v0v0zM170 581l-0.000976562 0.500977c0 0.333008 0.333008 0.833008 1 1.5v1.5c0 0.333008 0.333008 0.833008 1 1.5c1.33301 5.33301 3.83301 10.166 7.5 14.499s7.83398 8.83301 12.501 13.5c5.33301 4 11.166 7.16699 17.499 9.5
s12.833 3.5 19.5 3.5s12.334 -1.16699 17.001 -3.5s8.66699 -5.5 12 -9.5c3.33301 -4.66699 5.33301 -9.66699 6 -15s0 -11.333 -2 -18s-5 -12.834 -9 -18.501s-8.66699 -10.5 -14 -14.5c-5.33301 -4.66699 -11 -8 -17 -10s-12 -3 -18 -3c-6.66699 0 -12.5 1 -17.5 3
s-9.16699 5 -12.5 9s-5.33301 8.83301 -6 14.5s0 11.834 2 18.501v0v0v0v1v0v0v0v0v0v0zM291.999 581.001c1.33301 6 3.83105 11.667 7.49805 17s8.16699 10.333 13.5 15s11.333 8.16699 18 10.5s13.334 3.5 20.001 3.5s12.334 -1.16699 17.001 -3.5s8.66699 -5.5 12 -9.5
c3.33301 -4.66699 5.33301 -9.66699 6 -15s0 -11.333 -2 -18s-5 -12.834 -9 -18.501s-8.66699 -10.5 -14 -14.5c-5.33301 -4.66699 -11 -8 -17 -10s-12 -3 -18 -3c-6.66699 0 -12.5 1 -17.5 3s-9.16699 5.33301 -12.5 10c-3.33301 4 -5.33301 8.83301 -6 14.5
s0 11.834 2 18.501v0v0z" />
    <glyph glyph-name="underscore" unicode="&#x457;" horiz-adv-x="244" 
d="M208 434h60l-116 -434h-60l116 434v0v0zM170 581l-0.000976562 0.500977c0 0.333008 0.333008 0.833008 1 1.5v1.5c0 0.333008 0.333008 0.833008 1 1.5c1.33301 5.33301 3.83301 10.166 7.5 14.499s7.83398 8.83301 12.501 13.5c5.33301 4 11.166 7.16699 17.499 9.5
s12.833 3.5 19.5 3.5s12.334 -1.16699 17.001 -3.5s8.66699 -5.5 12 -9.5c3.33301 -4.66699 5.33301 -9.66699 6 -15s0 -11.333 -2 -18s-5 -12.834 -9 -18.501s-8.66699 -10.5 -14 -14.5c-5.33301 -4.66699 -11 -8 -17 -10s-12 -3 -18 -3c-6.66699 0 -12.5 1 -17.5 3
s-9.16699 5 -12.5 9s-5.33301 8.83301 -6 14.5s0 11.834 2 18.501v0v0v0v1v0v0v0v0v0v0zM291.999 581.001c1.33301 6 3.83105 11.667 7.49805 17s8.16699 10.333 13.5 15s11.333 8.16699 18 10.5s13.334 3.5 20.001 3.5s12.334 -1.16699 17.001 -3.5s8.66699 -5.5 12 -9.5
c3.33301 -4.66699 5.33301 -9.66699 6 -15s0 -11.333 -2 -18s-5 -12.834 -9 -18.501s-8.66699 -10.5 -14 -14.5c-5.33301 -4.66699 -11 -8 -17 -10s-12 -3 -18 -3c-6.66699 0 -12.5 1 -17.5 3s-9.16699 5.33301 -12.5 10c-3.33301 4 -5.33301 8.83301 -6 14.5
s0 11.834 2 18.501v0v0z" />
    <glyph glyph-name="grave" unicode="&#xc0;" horiz-adv-x="649" 
d="M11 0l506 720l121 -720h-70l-36 228h-293l-158 -228h-70v0v0zM278 284h245l-46 287l-199 -287v0v0z" />
    <glyph glyph-name="grave" unicode="&#x410;" horiz-adv-x="649" 
d="M11 0l506 720l121 -720h-70l-36 228h-293l-158 -228h-70v0v0zM278 284h245l-46 287l-199 -287v0v0z" />
    <glyph glyph-name="a" unicode="&#xc1;" horiz-adv-x="558" 
d="M88 0l187.002 700.001h352l-15 -56h-284l-62 -231h115c5.33301 0 12 -0.166992 20 -0.5s17.333 -0.833008 28 -1.5c9.33301 -0.666992 19.166 -2.16699 29.499 -4.5s20.833 -5.16602 31.5 -8.49902c14.667 -5.33301 28 -13 40 -23s22.667 -22 32 -36s14.5 -32 15.5 -54
s-2.5 -47.667 -10.5 -77c-8.66699 -31.333 -19.834 -58.5 -33.501 -81.5s-30.167 -41.5 -49.5 -55.5c-10 -7.33301 -20 -14 -30 -20s-19.667 -11.333 -29 -16c-10 -4.66699 -20 -8.83398 -30 -12.501s-20 -6.83398 -30 -9.50098c-12.667 -2.66699 -24.667 -5 -36 -7
s-22.333 -3.33301 -33 -4s-20.5 -1.16699 -29.5 -1.5s-17.167 -0.5 -24.5 -0.5h-154v0v0zM171.002 56.001l97 -0.00195312h16.5c6.33301 0 13.5 0.333008 21.5 1s16.333 1.83398 25 3.50098s17.667 3.83398 27 6.50098s18.5 6 27.5 10s17.833 8.66699 26.5 14
c4.66699 2.66699 9.16699 5.66699 13.5 9s8.83301 6.66602 13.5 9.99902c13.333 10.667 24.833 24.167 34.5 40.5s17.5 35.5 23.5 57.5c5.33301 21.333 7.83301 39.833 7.5 55.5s-3.83301 28.5 -10.5 38.5s-14.167 18.667 -22.5 26s-17.5 13 -27.5 17
c-2.66699 1.33301 -5.16699 2.33301 -7.5 3s-4.83301 1.33398 -7.5 2.00098c-5.33301 1.33301 -10.5 2.5 -15.5 3.5s-9.83301 1.5 -14.5 1.5c-8 0.666992 -14.833 1.16699 -20.5 1.5s-10.167 0.5 -13.5 0.5h-114l-80 -301v0v0z" />
    <glyph glyph-name="a" unicode="&#x411;" horiz-adv-x="558" 
d="M88 0l187.002 700.001h352l-15 -56h-284l-62 -231h115c5.33301 0 12 -0.166992 20 -0.5s17.333 -0.833008 28 -1.5c9.33301 -0.666992 19.166 -2.16699 29.499 -4.5s20.833 -5.16602 31.5 -8.49902c14.667 -5.33301 28 -13 40 -23s22.667 -22 32 -36s14.5 -32 15.5 -54
s-2.5 -47.667 -10.5 -77c-8.66699 -31.333 -19.834 -58.5 -33.501 -81.5s-30.167 -41.5 -49.5 -55.5c-10 -7.33301 -20 -14 -30 -20s-19.667 -11.333 -29 -16c-10 -4.66699 -20 -8.83398 -30 -12.501s-20 -6.83398 -30 -9.50098c-12.667 -2.66699 -24.667 -5 -36 -7
s-22.333 -3.33301 -33 -4s-20.5 -1.16699 -29.5 -1.5s-17.167 -0.5 -24.5 -0.5h-154v0v0zM171.002 56.001l97 -0.00195312h16.5c6.33301 0 13.5 0.333008 21.5 1s16.333 1.83398 25 3.50098s17.667 3.83398 27 6.50098s18.5 6 27.5 10s17.833 8.66699 26.5 14
c4.66699 2.66699 9.16699 5.66699 13.5 9s8.83301 6.66602 13.5 9.99902c13.333 10.667 24.833 24.167 34.5 40.5s17.5 35.5 23.5 57.5c5.33301 21.333 7.83301 39.833 7.5 55.5s-3.83301 28.5 -10.5 38.5s-14.167 18.667 -22.5 26s-17.5 13 -27.5 17
c-2.66699 1.33301 -5.16699 2.33301 -7.5 3s-4.83301 1.33398 -7.5 2.00098c-5.33301 1.33301 -10.5 2.5 -15.5 3.5s-9.83301 1.5 -14.5 1.5c-8 0.666992 -14.833 1.16699 -20.5 1.5s-10.167 0.5 -13.5 0.5h-114l-80 -301v0v0z" />
    <glyph glyph-name="b" unicode="&#xc2;" horiz-adv-x="564" 
d="M275 700l144.002 0.000976562h0.5h1.5h0.5h1.5c5.33301 0 11.666 -0.166992 18.999 -0.5s15.666 -0.833008 24.999 -1.5c8.66699 -0.666992 17.667 -1.66699 27 -3s19 -3.33301 29 -6c14 -4 26.833 -10 38.5 -18s22.167 -17.667 31.5 -29s14.833 -26 16.5 -44
s-0.833008 -39.333 -7.5 -64c-4.66699 -18.667 -11.834 -35.834 -21.501 -51.501s-21.167 -30.167 -34.5 -43.5s-27.5 -24.833 -42.5 -34.5s-30.833 -17.5 -47.5 -23.5l-1 -2c2 0 4.16699 -0.166992 6.5 -0.5s4.83301 -0.833008 7.5 -1.5
c2 -0.666992 4.16699 -1.16699 6.5 -1.5s4.83301 -0.5 7.5 -0.5c15.333 -4 29.333 -10.5 42 -19.5s24.334 -20.5 35.001 -34.5c9.33301 -14 14.833 -31.167 16.5 -51.5s-1.16602 -43.5 -8.49902 -69.5c-8.66699 -32.667 -20.834 -61 -36.501 -85s-35.167 -43.667 -58.5 -59
c-8 -4.66699 -15.833 -9.16699 -23.5 -13.5s-15.5 -8.5 -23.5 -12.5c-15.333 -7.33301 -30.833 -13.333 -46.5 -18s-31.5 -8 -47.5 -10c-3.33301 -0.666992 -6.83301 -1.16699 -10.5 -1.5s-7.16699 -0.5 -10.5 -0.5h-11h-10h-1.5h-0.5h-1.5h-1.5h-2h-2h-1.5h-0.5h-1.5h-1.5
h-2h-2h-184l187 700v0v0zM171.002 56.001h116c31.333 0 59 3.5 83 10.5s44.333 17.833 61 32.5c16.667 14 30.334 29 41.001 45s18.667 32.667 24 50c0.666992 0.666992 1 1.16699 1 1.5v1.5c0.666992 0.666992 1 1.16699 1 1.5v1.5c6 21.333 7.66699 40.833 5 58.5
s-9.33398 33.167 -20.001 46.5s-26.167 23.333 -46.5 30s-45.5 10 -75.5 10h-113l-77 -289v0v0zM263.002 401.001h88.999c1.33301 0 4.33301 0.166992 9 0.5s10.334 0.833008 17.001 1.5c7.33301 0.666992 15.166 2 23.499 4s16.833 4.66699 25.5 8c10 4 20 9.16699 30 15.5
s20 13.833 30 22.5c10 9.33301 18.667 20.5 26 33.5s13.333 27.833 18 44.5c4 14.667 5.16699 28.5 3.5 41.5s-6.16699 25.167 -13.5 36.5c-6.66699 11.333 -18.667 20 -36 26s-39.666 9 -66.999 9h-90l-65 -243v0v0z" />
    <glyph glyph-name="b" unicode="&#x412;" horiz-adv-x="564" 
d="M275 700l144.002 0.000976562h0.5h1.5h0.5h1.5c5.33301 0 11.666 -0.166992 18.999 -0.5s15.666 -0.833008 24.999 -1.5c8.66699 -0.666992 17.667 -1.66699 27 -3s19 -3.33301 29 -6c14 -4 26.833 -10 38.5 -18s22.167 -17.667 31.5 -29s14.833 -26 16.5 -44
s-0.833008 -39.333 -7.5 -64c-4.66699 -18.667 -11.834 -35.834 -21.501 -51.501s-21.167 -30.167 -34.5 -43.5s-27.5 -24.833 -42.5 -34.5s-30.833 -17.5 -47.5 -23.5l-1 -2c2 0 4.16699 -0.166992 6.5 -0.5s4.83301 -0.833008 7.5 -1.5
c2 -0.666992 4.16699 -1.16699 6.5 -1.5s4.83301 -0.5 7.5 -0.5c15.333 -4 29.333 -10.5 42 -19.5s24.334 -20.5 35.001 -34.5c9.33301 -14 14.833 -31.167 16.5 -51.5s-1.16602 -43.5 -8.49902 -69.5c-8.66699 -32.667 -20.834 -61 -36.501 -85s-35.167 -43.667 -58.5 -59
c-8 -4.66699 -15.833 -9.16699 -23.5 -13.5s-15.5 -8.5 -23.5 -12.5c-15.333 -7.33301 -30.833 -13.333 -46.5 -18s-31.5 -8 -47.5 -10c-3.33301 -0.666992 -6.83301 -1.16699 -10.5 -1.5s-7.16699 -0.5 -10.5 -0.5h-11h-10h-1.5h-0.5h-1.5h-1.5h-2h-2h-1.5h-0.5h-1.5h-1.5
h-2h-2h-184l187 700v0v0zM171.002 56.001h116c31.333 0 59 3.5 83 10.5s44.333 17.833 61 32.5c16.667 14 30.334 29 41.001 45s18.667 32.667 24 50c0.666992 0.666992 1 1.16699 1 1.5v1.5c0.666992 0.666992 1 1.16699 1 1.5v1.5c6 21.333 7.66699 40.833 5 58.5
s-9.33398 33.167 -20.001 46.5s-26.167 23.333 -46.5 30s-45.5 10 -75.5 10h-113l-77 -289v0v0zM263.002 401.001h88.999c1.33301 0 4.33301 0.166992 9 0.5s10.334 0.833008 17.001 1.5c7.33301 0.666992 15.166 2 23.499 4s16.833 4.66699 25.5 8c10 4 20 9.16699 30 15.5
s20 13.833 30 22.5c10 9.33301 18.667 20.5 26 33.5s13.333 27.833 18 44.5c4 14.667 5.16699 28.5 3.5 41.5s-6.16699 25.167 -13.5 36.5c-6.66699 11.333 -18.667 20 -36 26s-39.666 9 -66.999 9h-90l-65 -243v0v0z" />
    <glyph glyph-name="c" unicode="&#xc3;" horiz-adv-x="407" 
d="M88 0l187 700h308l-15 -56h-240l-172 -644h-68v0v0z" />
    <glyph glyph-name="c" unicode="&#x413;" horiz-adv-x="407" 
d="M88 0l187 700h308l-15 -56h-240l-172 -644h-68v0v0z" />
    <glyph glyph-name="d" unicode="&#xc4;" horiz-adv-x="638" 
d="M336 700h391l-172 -644h84l-53 -196h-63l38 140h-487l-38 -140h-62l52 196h0.5h1.5h0.5h1.5h0.5h1.5h0.5h1.5c20.667 0 40.5 6 59.5 18s37.5 30 55.5 54c17.333 24 33.5 53.167 48.5 87.5s28.5 73.833 40.5 118.5l98 366v0v0zM389 644l-83.001 -310
c-8.66699 -32.667 -18 -63 -28 -91s-20 -53 -30 -75c-10.667 -22 -24.167 -42.333 -40.5 -61s-35.166 -35.667 -56.499 -51h336l157 588h-255v0v0z" />
    <glyph glyph-name="d" unicode="&#x414;" horiz-adv-x="638" 
d="M336 700h391l-172 -644h84l-53 -196h-63l38 140h-487l-38 -140h-62l52 196h0.5h1.5h0.5h1.5h0.5h1.5h0.5h1.5c20.667 0 40.5 6 59.5 18s37.5 30 55.5 54c17.333 24 33.5 53.167 48.5 87.5s28.5 73.833 40.5 118.5l98 366v0v0zM389 644l-83.001 -310
c-8.66699 -32.667 -18 -63 -28 -91s-20 -53 -30 -75c-10.667 -22 -24.167 -42.333 -40.5 -61s-35.166 -35.667 -56.499 -51h336l157 588h-255v0v0z" />
    <glyph glyph-name="e" unicode="&#xc5;" horiz-adv-x="519" 
d="M88 0l187 700h375l-15 -56h-307l-60 -224h296l-15 -56h-296l-82 -308h307l-15 -56h-375v0v0z" />
    <glyph glyph-name="e" unicode="&#x415;" horiz-adv-x="519" 
d="M88 0l187 700h375l-15 -56h-307l-60 -224h296l-15 -56h-296l-82 -308h307l-15 -56h-375v0v0z" />
    <glyph glyph-name="f" unicode="&#xc6;" horiz-adv-x="846" 
d="M389 0l91 343l-378 -343h-91l408 358l-203 342h84l188 -329l88 329h68l-88 -329l364 329h84l-387 -342l218 -358h-91l-196 343l-91 -343h-68v0v0z" />
    <glyph glyph-name="f" unicode="&#x416;" horiz-adv-x="846" 
d="M389 0l91 343l-378 -343h-91l408 358l-203 342h84l188 -329l88 329h68l-88 -329l364 329h84l-387 -342l218 -358h-91l-196 343l-91 -343h-68v0v0z" />
    <glyph glyph-name="g" unicode="&#xc7;" horiz-adv-x="546" 
d="M259 579l-44.001 35.0049c12 13.333 26.167 26.166 42.5 38.499s34.5 23.833 54.5 34.5c19.333 11.333 41.333 19.666 66 24.999s51.334 8 80.001 8c25.333 0 48.166 -4 68.499 -12s37.833 -20 52.5 -36c14 -16 22.833 -34.833 26.5 -56.5
s1.83398 -46.167 -5.49902 -73.5c-5.33301 -20 -13 -38.5 -23 -55.5s-22 -32.5 -36 -46.5c-14 -14.667 -29 -26.667 -45 -36s-32.667 -16.333 -50 -21l-1 -3c18.667 -3.33301 35.167 -9.83301 49.5 -19.5s26.833 -22.5 37.5 -38.5c10 -16 15.833 -34.667 17.5 -56
s-1.16602 -45.333 -8.49902 -72c-8 -30.667 -20.833 -58.667 -38.5 -84s-39.5 -48 -65.5 -68c-26.667 -20.667 -56.334 -35.834 -89.001 -45.501s-68 -14.5 -106 -14.5c-26.667 0 -50.334 3.16699 -71.001 9.5s-38.667 15.833 -54 28.5
c-15.333 13.333 -28.166 29 -38.499 47s-18.166 38.333 -23.499 61l66 30c2.66699 -18.667 7.66699 -35.334 15 -50.001s17.333 -27.667 30 -39c12.667 -10.667 26.5 -18.834 41.5 -24.501s31.5 -8.5 49.5 -8.5c23.333 0 46 3.5 68 10.5s43.333 17.5 64 31.5
c21.333 14 39 31.167 53 51.5s24.333 43.833 31 70.5c6.66699 24.667 8.16699 46.5 4.5 65.5s-12.167 34.833 -25.5 47.5c-13.333 13.333 -29.666 23.166 -48.999 29.499s-41.666 9.5 -66.999 9.5h-71l15 56h69h8.5h8.5h4c1.33301 0 3 0.333008 5 1
c1.33301 0 2.66602 0.166992 3.99902 0.5s2.66602 0.5 3.99902 0.5c14.667 2 29.167 6 43.5 12s28.166 13.333 41.499 22c14 9.33301 26.167 21.833 36.5 37.5s18.5 34.834 24.5 57.501c4.66699 17.333 6.16699 33.5 4.5 48.5s-6.16699 28.5 -13.5 40.5c-8 12 -19 21 -33 27
s-31.333 9 -52 9h-4.5h-4.5c-2 -0.666992 -3.83301 -1 -5.5 -1h-4.5h-4.5c-1.66699 0 -3.16699 -0.333008 -4.5 -1c-2 0 -3.83301 -0.166992 -5.5 -0.5s-3.16699 -0.5 -4.5 -0.5c-10.667 -2 -21.667 -4.83301 -33 -8.5s-23 -8.5 -35 -14.5c-6 -2.66699 -11.833 -6 -17.5 -10
s-11.5 -8.66699 -17.5 -14c-6 -4.66699 -11.833 -10 -17.5 -16s-11.5 -12.333 -17.5 -19v0v0z" />
    <glyph glyph-name="g" unicode="&#x417;" horiz-adv-x="546" 
d="M259 579l-44.001 35.0049c12 13.333 26.167 26.166 42.5 38.499s34.5 23.833 54.5 34.5c19.333 11.333 41.333 19.666 66 24.999s51.334 8 80.001 8c25.333 0 48.166 -4 68.499 -12s37.833 -20 52.5 -36c14 -16 22.833 -34.833 26.5 -56.5
s1.83398 -46.167 -5.49902 -73.5c-5.33301 -20 -13 -38.5 -23 -55.5s-22 -32.5 -36 -46.5c-14 -14.667 -29 -26.667 -45 -36s-32.667 -16.333 -50 -21l-1 -3c18.667 -3.33301 35.167 -9.83301 49.5 -19.5s26.833 -22.5 37.5 -38.5c10 -16 15.833 -34.667 17.5 -56
s-1.16602 -45.333 -8.49902 -72c-8 -30.667 -20.833 -58.667 -38.5 -84s-39.5 -48 -65.5 -68c-26.667 -20.667 -56.334 -35.834 -89.001 -45.501s-68 -14.5 -106 -14.5c-26.667 0 -50.334 3.16699 -71.001 9.5s-38.667 15.833 -54 28.5
c-15.333 13.333 -28.166 29 -38.499 47s-18.166 38.333 -23.499 61l66 30c2.66699 -18.667 7.66699 -35.334 15 -50.001s17.333 -27.667 30 -39c12.667 -10.667 26.5 -18.834 41.5 -24.501s31.5 -8.5 49.5 -8.5c23.333 0 46 3.5 68 10.5s43.333 17.5 64 31.5
c21.333 14 39 31.167 53 51.5s24.333 43.833 31 70.5c6.66699 24.667 8.16699 46.5 4.5 65.5s-12.167 34.833 -25.5 47.5c-13.333 13.333 -29.666 23.166 -48.999 29.499s-41.666 9.5 -66.999 9.5h-71l15 56h69h8.5h8.5h4c1.33301 0 3 0.333008 5 1
c1.33301 0 2.66602 0.166992 3.99902 0.5s2.66602 0.5 3.99902 0.5c14.667 2 29.167 6 43.5 12s28.166 13.333 41.499 22c14 9.33301 26.167 21.833 36.5 37.5s18.5 34.834 24.5 57.501c4.66699 17.333 6.16699 33.5 4.5 48.5s-6.16699 28.5 -13.5 40.5c-8 12 -19 21 -33 27
s-31.333 9 -52 9h-4.5h-4.5c-2 -0.666992 -3.83301 -1 -5.5 -1h-4.5h-4.5c-1.66699 0 -3.16699 -0.333008 -4.5 -1c-2 0 -3.83301 -0.166992 -5.5 -0.5s-3.16699 -0.5 -4.5 -0.5c-10.667 -2 -21.667 -4.83301 -33 -8.5s-23 -8.5 -35 -14.5c-6 -2.66699 -11.833 -6 -17.5 -10
s-11.5 -8.66699 -17.5 -14c-6 -4.66699 -11.833 -10 -17.5 -16s-11.5 -12.333 -17.5 -19v0v0z" />
    <glyph glyph-name="h" unicode="&#xc8;" horiz-adv-x="722" 
d="M275 700h68l-148 -554l634 582l-195 -728h-68l148 554l-634 -582l195 728v0v0z" />
    <glyph glyph-name="h" unicode="&#x418;" horiz-adv-x="722" 
d="M275 700h68l-148 -554l634 582l-195 -728h-68l148 554l-634 -582l195 728v0v0z" />
    <glyph glyph-name="i" unicode="&#xc9;" horiz-adv-x="722" 
d="M275 700h68l-148 -554l634 582l-195 -728h-68l148 554l-634 -582l195 728v0v0zM440 829l59.998 22.0039c0 -10 1.66699 -18.5 5 -25.5s8.33301 -12.833 15 -17.5c6 -4.66699 12.833 -8.33398 20.5 -11.001s15.834 -4.33398 24.501 -5.00098h2h2h2h2
c12.667 0 24 1.33301 34 4s19.333 6.66699 28 12c8 5.33301 15.167 11 21.5 17s11.833 12.333 16.5 19v0l1 1v0.5v1.5l2 2l2 2l49 -22l-6 -8c-2 -2.66699 -4.33301 -5.33398 -7 -8.00098c-6 -8 -12.167 -15 -18.5 -21s-13.166 -11.333 -20.499 -16
c-8.66699 -6 -17.5 -11.167 -26.5 -15.5s-18.167 -7.83301 -27.5 -10.5c-6 -2 -11.833 -3.66699 -17.5 -5s-11.167 -2.33301 -16.5 -3c-4.66699 -0.666992 -9.5 -1.16699 -14.5 -1.5s-9.5 -0.5 -13.5 -0.5c-4.66699 0 -9.5 0.166992 -14.5 0.5s-10.167 0.833008 -15.5 1.5
c-4.66699 1.33301 -9.5 2.66602 -14.5 3.99902s-10.167 3 -15.5 5c-7.33301 2.66699 -14.333 6.16699 -21 10.5s-12.667 9.5 -18 15.5c-6 6 -10.5 13.5 -13.5 22.5s-5.16699 18.833 -6.5 29.5v0v0z" />
    <glyph glyph-name="i" unicode="&#x419;" horiz-adv-x="722" 
d="M275 700h68l-148 -554l634 582l-195 -728h-68l148 554l-634 -582l195 728v0v0zM440 829l59.998 22.0039c0 -10 1.66699 -18.5 5 -25.5s8.33301 -12.833 15 -17.5c6 -4.66699 12.833 -8.33398 20.5 -11.001s15.834 -4.33398 24.501 -5.00098h2h2h2h2
c12.667 0 24 1.33301 34 4s19.333 6.66699 28 12c8 5.33301 15.167 11 21.5 17s11.833 12.333 16.5 19v0l1 1v0.5v1.5l2 2l2 2l49 -22l-6 -8c-2 -2.66699 -4.33301 -5.33398 -7 -8.00098c-6 -8 -12.167 -15 -18.5 -21s-13.166 -11.333 -20.499 -16
c-8.66699 -6 -17.5 -11.167 -26.5 -15.5s-18.167 -7.83301 -27.5 -10.5c-6 -2 -11.833 -3.66699 -17.5 -5s-11.167 -2.33301 -16.5 -3c-4.66699 -0.666992 -9.5 -1.16699 -14.5 -1.5s-9.5 -0.5 -13.5 -0.5c-4.66699 0 -9.5 0.166992 -14.5 0.5s-10.167 0.833008 -15.5 1.5
c-4.66699 1.33301 -9.5 2.66602 -14.5 3.99902s-10.167 3 -15.5 5c-7.33301 2.66699 -14.333 6.16699 -21 10.5s-12.667 9.5 -18 15.5c-6 6 -10.5 13.5 -13.5 22.5s-5.16699 18.833 -6.5 29.5v0v0z" />
    <glyph glyph-name="j" unicode="&#xca;" horiz-adv-x="571" 
d="M88 0l187 700h68l-87 -325l400 325h84l-423 -339l243 -361h-91l-222 340l-91 -340h-68v0v0z" />
    <glyph glyph-name="j" unicode="&#x41a;" horiz-adv-x="571" 
d="M88 0l187 700h68l-87 -325l400 325h84l-423 -339l243 -361h-91l-222 340l-91 -340h-68v0v0z" />
    <glyph glyph-name="k" unicode="&#xcb;" horiz-adv-x="641" 
d="M351 700l389.004 -0.000976562l-187 -700h-68l172 644h-253l-101 -377c-10.667 -41.333 -23.334 -78.5 -38.001 -111.5s-30.667 -61.833 -48 -86.5s-39.166 -43 -65.499 -55s-56.833 -18 -91.5 -18h-3h-4c-2 0.666992 -4 1 -6 1h-7
c-4.66699 0 -9.83398 0.333008 -15.501 1s-11.5 1.33398 -17.5 2.00098l15 56h0.5h0.5v0v0c0 -0.666992 0.166992 -1 0.5 -1h1.5h0.5h1.5c0.666992 -0.666992 1.16699 -1 1.5 -1h1.5h0.5h1.5c0.666992 -0.666992 1.16699 -1 1.5 -1h1.5h3.5h2.5
c1.33301 -0.666992 2.66602 -1.16699 3.99902 -1.5s2.66602 -0.5 3.99902 -0.5h4.5h4.5c25.333 0 47.666 5 66.999 15s35.333 25.333 48 46c12 20 23.167 42.667 33.5 68s19.5 53.333 27.5 84l117 436v0v0z" />
    <glyph glyph-name="k" unicode="&#x41b;" horiz-adv-x="641" 
d="M351 700l389.004 -0.000976562l-187 -700h-68l172 644h-253l-101 -377c-10.667 -41.333 -23.334 -78.5 -38.001 -111.5s-30.667 -61.833 -48 -86.5s-39.166 -43 -65.499 -55s-56.833 -18 -91.5 -18h-3h-4c-2 0.666992 -4 1 -6 1h-7
c-4.66699 0 -9.83398 0.333008 -15.501 1s-11.5 1.33398 -17.5 2.00098l15 56h0.5h0.5v0v0c0 -0.666992 0.166992 -1 0.5 -1h1.5h0.5h1.5c0.666992 -0.666992 1.16699 -1 1.5 -1h1.5h0.5h1.5c0.666992 -0.666992 1.16699 -1 1.5 -1h1.5h3.5h2.5
c1.33301 -0.666992 2.66602 -1.16699 3.99902 -1.5s2.66602 -0.5 3.99902 -0.5h4.5h4.5c25.333 0 47.666 5 66.999 15s35.333 25.333 48 46c12 20 23.167 42.667 33.5 68s19.5 53.333 27.5 84l117 436v0v0z" />
    <glyph glyph-name="l" unicode="&#xcc;" horiz-adv-x="858" 
d="M42 0l290 728l124 -624l460 624l-100 -728h-63l71 518l-403 -546l-111 546l-205 -518h-63v0v0z" />
    <glyph glyph-name="l" unicode="&#x41c;" horiz-adv-x="858" 
d="M42 0l290 728l124 -624l460 624l-100 -728h-63l71 518l-403 -546l-111 546l-205 -518h-63v0v0z" />
    <glyph glyph-name="m" unicode="&#xcd;" horiz-adv-x="715" 
d="M88 0l187 700h68l-77 -287h403l77 287h68l-187 -700h-68l95 357h-403l-95 -357h-68v0v0z" />
    <glyph glyph-name="m" unicode="&#x41d;" horiz-adv-x="715" 
d="M88 0l187 700h68l-77 -287h403l77 287h68l-187 -700h-68l95 357h-403l-95 -357h-68v0v0z" />
    <glyph glyph-name="n" unicode="&#xce;" horiz-adv-x="868" 
d="M149 350c13.333 50 34.332 96.667 62.999 140s65 83.333 109 120s91.333 64.167 142 82.5s105 27.5 163 27.5c50 0 94.833 -8.33301 134.5 -25s74.167 -41.667 103.5 -75c29.333 -32.667 47.333 -71.5 54 -116.5s2.33398 -96.167 -12.999 -153.5
c-14.667 -56.667 -37.5 -107.5 -68.5 -152.5s-70.167 -84.167 -117.5 -117.5c-46.667 -32.667 -94.334 -57.167 -143.001 -73.5s-98 -24.5 -148 -24.5c-50.667 0 -96 8.16699 -136 24.5s-74.333 40.833 -103 73.5c-28.667 33.333 -46.167 72.5 -52.5 117.5
s-2.16602 95.833 12.501 152.5v0v0zM220.999 350c-12.667 -47.333 -16.501 -90 -11.501 -128s18.833 -71.333 41.5 -100s50 -50.167 82 -64.5s68.667 -21.5 110 -21.5s81.833 7.16699 121.5 21.5s78.5 35.833 116.5 64.5c37.333 28.667 68.833 62 94.5 100
s44.834 80.667 57.501 128c13.333 47.333 17.333 90 12 128s-19.333 71.333 -42 100s-50 50.167 -82 64.5s-68.667 21.5 -110 21.5s-81.833 -7.16699 -121.5 -21.5s-78.5 -35.833 -116.5 -64.5s-69.667 -62 -95 -100s-44.333 -80.667 -57 -128v0v0z" />
    <glyph glyph-name="n" unicode="&#x41e;" horiz-adv-x="868" 
d="M149 350c13.333 50 34.332 96.667 62.999 140s65 83.333 109 120s91.333 64.167 142 82.5s105 27.5 163 27.5c50 0 94.833 -8.33301 134.5 -25s74.167 -41.667 103.5 -75c29.333 -32.667 47.333 -71.5 54 -116.5s2.33398 -96.167 -12.999 -153.5
c-14.667 -56.667 -37.5 -107.5 -68.5 -152.5s-70.167 -84.167 -117.5 -117.5c-46.667 -32.667 -94.334 -57.167 -143.001 -73.5s-98 -24.5 -148 -24.5c-50.667 0 -96 8.16699 -136 24.5s-74.333 40.833 -103 73.5c-28.667 33.333 -46.167 72.5 -52.5 117.5
s-2.16602 95.833 12.501 152.5v0v0zM220.999 350c-12.667 -47.333 -16.501 -90 -11.501 -128s18.833 -71.333 41.5 -100s50 -50.167 82 -64.5s68.667 -21.5 110 -21.5s81.833 7.16699 121.5 21.5s78.5 35.833 116.5 64.5c37.333 28.667 68.833 62 94.5 100
s44.834 80.667 57.501 128c13.333 47.333 17.333 90 12 128s-19.333 71.333 -42 100s-50 50.167 -82 64.5s-68.667 21.5 -110 21.5s-81.833 -7.16699 -121.5 -21.5s-78.5 -35.833 -116.5 -64.5s-69.667 -62 -95 -100s-44.333 -80.667 -57 -128v0v0z" />
    <glyph glyph-name="o" unicode="&#xcf;" horiz-adv-x="715" 
d="M88 0l187 700h539l-187 -700h-68l172 644h-403l-172 -644h-68v0v0z" />
    <glyph glyph-name="o" unicode="&#x41f;" horiz-adv-x="715" 
d="M88 0l187 700h539l-187 -700h-68l172 644h-403l-172 -644h-68v0v0z" />
    <glyph glyph-name="p" unicode="&#xd0;" horiz-adv-x="538" 
d="M88 0l187.001 699.999h194c6 0 12.333 -0.166992 19 -0.5s13.667 -0.833008 21 -1.5c6.66699 -0.666992 13.667 -1.66699 21 -3s14.666 -3 21.999 -5c14 -4.66699 27 -11.167 39 -19.5s22.667 -19.166 32 -32.499c9.33301 -12.667 14.5 -29.334 15.5 -50.001
s-2.16699 -45 -9.5 -73c-7.33301 -28.667 -17 -53.167 -29 -73.5s-26.333 -37.166 -43 -50.499c-16.667 -12.667 -33.167 -23.5 -49.5 -32.5s-32.833 -15.5 -49.5 -19.5c-8.66699 -2 -17 -3.66699 -25 -5s-15.667 -2.33301 -23 -3c-8 -0.666992 -15.333 -1.16699 -22 -1.5
s-12.667 -0.5 -18 -0.5h-126l-88 -329h-68v0v0zM328.001 643.999l-69.001 -259h123h13c4.66699 0 9.33398 0.333008 14.001 1c5.33301 0.666992 10.833 1.5 16.5 2.5s11.834 2.16699 18.501 3.5c10.667 3.33301 21.5 8 32.5 14s22.167 13.333 33.5 22
c11.333 9.33301 21.166 21.166 29.499 35.499s14.833 31.5 19.5 51.5c5.33301 19.333 7.83301 36.333 7.5 51s-3.83301 26.334 -10.5 35.001c-6.66699 9.33301 -14 17 -22 23s-16.667 10.333 -26 13c-1.33301 0.666992 -3 1 -5 1s-3.66699 0.333008 -5 1l-10 2
c-3.33301 0.666992 -6.66602 1 -9.99902 1c-4.66699 0.666992 -9.33398 1.16699 -14.001 1.5s-9 0.5 -13 0.5h-123v0v0z" />
    <glyph glyph-name="p" unicode="&#x420;" horiz-adv-x="538" 
d="M88 0l187.001 699.999h194c6 0 12.333 -0.166992 19 -0.5s13.667 -0.833008 21 -1.5c6.66699 -0.666992 13.667 -1.66699 21 -3s14.666 -3 21.999 -5c14 -4.66699 27 -11.167 39 -19.5s22.667 -19.166 32 -32.499c9.33301 -12.667 14.5 -29.334 15.5 -50.001
s-2.16699 -45 -9.5 -73c-7.33301 -28.667 -17 -53.167 -29 -73.5s-26.333 -37.166 -43 -50.499c-16.667 -12.667 -33.167 -23.5 -49.5 -32.5s-32.833 -15.5 -49.5 -19.5c-8.66699 -2 -17 -3.66699 -25 -5s-15.667 -2.33301 -23 -3c-8 -0.666992 -15.333 -1.16699 -22 -1.5
s-12.667 -0.5 -18 -0.5h-126l-88 -329h-68v0v0zM328.001 643.999l-69.001 -259h123h13c4.66699 0 9.33398 0.333008 14.001 1c5.33301 0.666992 10.833 1.5 16.5 2.5s11.834 2.16699 18.501 3.5c10.667 3.33301 21.5 8 32.5 14s22.167 13.333 33.5 22
c11.333 9.33301 21.166 21.166 29.499 35.499s14.833 31.5 19.5 51.5c5.33301 19.333 7.83301 36.333 7.5 51s-3.83301 26.334 -10.5 35.001c-6.66699 9.33301 -14 17 -22 23s-16.667 10.333 -26 13c-1.33301 0.666992 -3 1 -5 1s-3.66699 0.333008 -5 1l-10 2
c-3.33301 0.666992 -6.66602 1 -9.99902 1c-4.66699 0.666992 -9.33398 1.16699 -14.001 1.5s-9 0.5 -13 0.5h-123v0v0z" />
    <glyph glyph-name="q" unicode="&#xd1;" horiz-adv-x="700" 
d="M709 140l-20.9961 -78.0029l-12.5 -7.5c-5 -3 -10.167 -6.16699 -15.5 -9.5c-6 -3.33301 -12.667 -6.83301 -20 -10.5s-15.333 -7.16699 -24 -10.5c-12.667 -5.33301 -26.5 -10.5 -41.5 -15.5s-31.167 -9.16699 -48.5 -12.5c-16.667 -4.66699 -34.667 -8.16699 -54 -10.5
s-39.666 -3.5 -60.999 -3.5c-56 0 -103.667 9 -143 27s-70 45.333 -92 82c-22 37.333 -35.167 77.5 -39.5 120.5s-0.166016 89.167 12.501 138.5c15.333 57.333 38.166 108.5 68.499 153.5s68.166 83.833 113.499 116.5c45.333 33.333 91.166 58.333 137.499 75
s93.166 25 140.499 25c18 0 36.5 -1.16699 55.5 -3.5s38.5 -6.16602 58.5 -11.499c20.667 -4.66699 41 -12.834 61 -24.501s39.333 -26.5 58 -44.5l-21 -79c-12.667 16 -26.5 30.333 -41.5 43s-31.833 24 -50.5 34c-18 10 -38.167 17.5 -60.5 22.5s-46.5 7.5 -72.5 7.5
c-42.667 0 -83.334 -7.66699 -122.001 -23s-75.334 -38.666 -110.001 -69.999c-34 -30.667 -62.5 -63 -85.5 -97s-40.5 -69.667 -52.5 -107c-0.666992 -1.33301 -1.16699 -2.83301 -1.5 -4.5s-0.833008 -3.16699 -1.5 -4.5c0 -1.33301 -0.166992 -2.66602 -0.5 -3.99902
s-0.833008 -2.66602 -1.5 -3.99902c-10.667 -40 -14.167 -78 -10.5 -114s13.834 -70.333 30.501 -103c17.333 -32.667 41.5 -57 72.5 -73s68.833 -24 113.5 -24c24 0 48.167 2.33301 72.5 7s48.833 11.667 73.5 21s48.167 20.333 70.5 33s44.166 27 65.499 43v0v0z" />
    <glyph glyph-name="q" unicode="&#x421;" horiz-adv-x="700" 
d="M709 140l-20.9961 -78.0029l-12.5 -7.5c-5 -3 -10.167 -6.16699 -15.5 -9.5c-6 -3.33301 -12.667 -6.83301 -20 -10.5s-15.333 -7.16699 -24 -10.5c-12.667 -5.33301 -26.5 -10.5 -41.5 -15.5s-31.167 -9.16699 -48.5 -12.5c-16.667 -4.66699 -34.667 -8.16699 -54 -10.5
s-39.666 -3.5 -60.999 -3.5c-56 0 -103.667 9 -143 27s-70 45.333 -92 82c-22 37.333 -35.167 77.5 -39.5 120.5s-0.166016 89.167 12.501 138.5c15.333 57.333 38.166 108.5 68.499 153.5s68.166 83.833 113.499 116.5c45.333 33.333 91.166 58.333 137.499 75
s93.166 25 140.499 25c18 0 36.5 -1.16699 55.5 -3.5s38.5 -6.16602 58.5 -11.499c20.667 -4.66699 41 -12.834 61 -24.501s39.333 -26.5 58 -44.5l-21 -79c-12.667 16 -26.5 30.333 -41.5 43s-31.833 24 -50.5 34c-18 10 -38.167 17.5 -60.5 22.5s-46.5 7.5 -72.5 7.5
c-42.667 0 -83.334 -7.66699 -122.001 -23s-75.334 -38.666 -110.001 -69.999c-34 -30.667 -62.5 -63 -85.5 -97s-40.5 -69.667 -52.5 -107c-0.666992 -1.33301 -1.16699 -2.83301 -1.5 -4.5s-0.833008 -3.16699 -1.5 -4.5c0 -1.33301 -0.166992 -2.66602 -0.5 -3.99902
s-0.833008 -2.66602 -1.5 -3.99902c-10.667 -40 -14.167 -78 -10.5 -114s13.834 -70.333 30.501 -103c17.333 -32.667 41.5 -57 72.5 -73s68.833 -24 113.5 -24c24 0 48.167 2.33301 72.5 7s48.833 11.667 73.5 21s48.167 20.333 70.5 33s44.166 27 65.499 43v0v0z" />
    <glyph glyph-name="r" unicode="&#xd2;" horiz-adv-x="464" 
d="M198 0l172 644h-187l15 56h442l-15 -56h-187l-172 -644h-68v0v0z" />
    <glyph glyph-name="r" unicode="&#x422;" horiz-adv-x="464" 
d="M198 0l172 644h-187l15 56h442l-15 -56h-187l-172 -644h-68v0v0z" />
    <glyph glyph-name="s" unicode="&#xd3;" horiz-adv-x="561" 
d="M172 0l153 212l-124 488h77l100 -417l301 417h69l-507 -700h-69v0v0z" />
    <glyph glyph-name="s" unicode="&#x423;" horiz-adv-x="561" 
d="M172 0l153 212l-124 488h77l100 -417l301 417h69l-507 -700h-69v0v0z" />
    <glyph glyph-name="t" unicode="&#xd4;" horiz-adv-x="866" 
d="M399 0l25.998 98.999h-30c-56.667 0 -103.667 7 -141 21s-64.666 35 -81.999 63s-28 57.833 -32 89.5s-1.33301 64.834 8 99.501c11.333 40 28.333 76.5 51 109.5s51.334 61.833 86.001 86.5c34.667 25.333 73.334 44.333 116.001 57s89.334 19 140.001 19h30l23 84h68
l-23 -84h29c41.333 0 79.166 -5.5 113.499 -16.5s64.833 -27.5 91.5 -49.5c27.333 -22 44.5 -50.167 51.5 -84.5s4.16699 -75.166 -8.5 -122.499c-9.33301 -34.667 -24.5 -67.834 -45.5 -99.501s-47.5 -61.5 -79.5 -89.5c-32.667 -28 -71.334 -49 -116.001 -63
s-95.667 -21 -153 -21h-29l-26 -98h-68v0v0zM439.998 153.999l116.002 434.001c-54.667 -0.666992 -101.834 -6.66699 -141.501 -18s-72.167 -27.666 -97.5 -48.999c-24.667 -21.333 -45.167 -44.5 -61.5 -69.5s-28.166 -51.833 -35.499 -80.5
c-12.667 -46.667 -16.334 -84.834 -11.001 -114.501s19.666 -50.834 42.999 -63.501c24 -12.667 51.667 -22.167 83 -28.5s66.333 -9.83301 105 -10.5v0v0zM624 588l-116 -433.998c38.667 1.33301 75.334 5.16602 110.001 11.499s67 15.5 97 27.5c30.667 12 56.667 33 78 63
s38.333 68.333 51 115c7.33301 28.667 9.66602 55.5 6.99902 80.5s-10.667 48.167 -24 69.5c-12.667 21.333 -36 37.666 -70 48.999s-78.333 17.333 -133 18v0v0z" />
    <glyph glyph-name="t" unicode="&#x424;" horiz-adv-x="866" 
d="M399 0l25.998 98.999h-30c-56.667 0 -103.667 7 -141 21s-64.666 35 -81.999 63s-28 57.833 -32 89.5s-1.33301 64.834 8 99.501c11.333 40 28.333 76.5 51 109.5s51.334 61.833 86.001 86.5c34.667 25.333 73.334 44.333 116.001 57s89.334 19 140.001 19h30l23 84h68
l-23 -84h29c41.333 0 79.166 -5.5 113.499 -16.5s64.833 -27.5 91.5 -49.5c27.333 -22 44.5 -50.167 51.5 -84.5s4.16699 -75.166 -8.5 -122.499c-9.33301 -34.667 -24.5 -67.834 -45.5 -99.501s-47.5 -61.5 -79.5 -89.5c-32.667 -28 -71.334 -49 -116.001 -63
s-95.667 -21 -153 -21h-29l-26 -98h-68v0v0zM439.998 153.999l116.002 434.001c-54.667 -0.666992 -101.834 -6.66699 -141.501 -18s-72.167 -27.666 -97.5 -48.999c-24.667 -21.333 -45.167 -44.5 -61.5 -69.5s-28.166 -51.833 -35.499 -80.5
c-12.667 -46.667 -16.334 -84.834 -11.001 -114.501s19.666 -50.834 42.999 -63.501c24 -12.667 51.667 -22.167 83 -28.5s66.333 -9.83301 105 -10.5v0v0zM624 588l-116 -433.998c38.667 1.33301 75.334 5.16602 110.001 11.499s67 15.5 97 27.5c30.667 12 56.667 33 78 63
s38.333 68.333 51 115c7.33301 28.667 9.66602 55.5 6.99902 80.5s-10.667 48.167 -24 69.5c-12.667 21.333 -36 37.666 -70 48.999s-78.333 17.333 -133 18v0v0z" />
    <glyph glyph-name="u" unicode="&#xd5;" horiz-adv-x="504" 
d="M333 304l-250 -304h-76l305 357l-102 343h76l76 -286l231 286h76l-287 -343l115 -357h-75l-89 304v0v0z" />
    <glyph glyph-name="u" unicode="&#x425;" horiz-adv-x="504" 
d="M333 304l-250 -304h-76l305 357l-102 343h76l76 -286l231 286h76l-287 -343l115 -357h-75l-89 304v0v0z" />
    <glyph glyph-name="v" unicode="&#xd6;" horiz-adv-x="715" 
d="M88 0l187 700h68l-172 -644h396l172 644h68l-172 -644h84l-53 -196h-63l38 140h-553v0v0z" />
    <glyph glyph-name="v" unicode="&#x426;" horiz-adv-x="715" 
d="M88 0l187 700h68l-172 -644h396l172 644h68l-172 -644h84l-53 -196h-63l38 140h-553v0v0z" />
    <glyph glyph-name="w" unicode="&#xd7;" horiz-adv-x="598" 
d="M442 0l84 314.999h-3h-3c-1.33301 -0.666992 -2.5 -1 -3.5 -1h-3.5h-3h-4c-1.33301 -0.666992 -2.5 -1 -3.5 -1h-3.5c-2.66699 0 -5.16699 -0.166992 -7.5 -0.5s-4.5 -0.5 -6.5 -0.5c-2.66699 -0.666992 -5.16699 -1 -7.5 -1h-7.5h-8h-7
c-2.66699 -0.666992 -5.33398 -1 -8.00098 -1h-8c-6.66699 -0.666992 -13.334 -1.16699 -20.001 -1.5s-13 -0.5 -19 -0.5h-17h-16c-48.667 0 -86.667 4.33301 -114 13s-44.666 21.334 -51.999 38.001c-7.33301 17.333 -11 36.666 -11 57.999s3.33301 44.666 10 69.999
l57 213h68l-53 -198c-6.66699 -23.333 -10.167 -43.666 -10.5 -60.999s2.16699 -31.666 7.5 -42.999s18.333 -19.833 39 -25.5s49 -8.5 85 -8.5h3.5h3.5h3h3h6.5h7.5c7.33301 0 14.833 0.166992 22.5 0.5s15.834 0.833008 24.501 1.5s19 1.5 31 2.5s26.333 1.83301 43 2.5
l88 329h68l-187 -700h-68v0v0z" />
    <glyph glyph-name="w" unicode="&#x427;" horiz-adv-x="598" 
d="M442 0l84 314.999h-3h-3c-1.33301 -0.666992 -2.5 -1 -3.5 -1h-3.5h-3h-4c-1.33301 -0.666992 -2.5 -1 -3.5 -1h-3.5c-2.66699 0 -5.16699 -0.166992 -7.5 -0.5s-4.5 -0.5 -6.5 -0.5c-2.66699 -0.666992 -5.16699 -1 -7.5 -1h-7.5h-8h-7
c-2.66699 -0.666992 -5.33398 -1 -8.00098 -1h-8c-6.66699 -0.666992 -13.334 -1.16699 -20.001 -1.5s-13 -0.5 -19 -0.5h-17h-16c-48.667 0 -86.667 4.33301 -114 13s-44.666 21.334 -51.999 38.001c-7.33301 17.333 -11 36.666 -11 57.999s3.33301 44.666 10 69.999
l57 213h68l-53 -198c-6.66699 -23.333 -10.167 -43.666 -10.5 -60.999s2.16699 -31.666 7.5 -42.999s18.333 -19.833 39 -25.5s49 -8.5 85 -8.5h3.5h3.5h3h3h6.5h7.5c7.33301 0 14.833 0.166992 22.5 0.5s15.834 0.833008 24.501 1.5s19 1.5 31 2.5s26.333 1.83301 43 2.5
l88 329h68l-187 -700h-68v0v0z" />
    <glyph glyph-name="x" unicode="&#xd8;" horiz-adv-x="992" 
d="M88 0l187 700h68l-172 -644h306l172 644h68l-172 -644h306l172 644h68l-187 -700h-816v0v0z" />
    <glyph glyph-name="x" unicode="&#x428;" horiz-adv-x="992" 
d="M88 0l187 700h68l-172 -644h306l172 644h68l-172 -644h306l172 644h68l-187 -700h-816v0v0z" />
    <glyph glyph-name="y" unicode="&#xd9;" horiz-adv-x="1076" 
d="M88 0l187 700h68l-172 -644h306l172 644h68l-172 -644h306l172 644h68l-172 -644h84l-53 -196h-63l38 140h-837v0v0z" />
    <glyph glyph-name="y" unicode="&#x429;" horiz-adv-x="1076" 
d="M88 0l187 700h68l-172 -644h306l172 644h68l-172 -644h306l172 644h68l-172 -644h84l-53 -196h-63l38 140h-837v0v0z" />
    <glyph glyph-name="z" unicode="&#xda;" horiz-adv-x="649" 
d="M178 0l172.004 643.999h-167l15 56h235l-79 -294h116c5.33301 0 12 -0.166992 20 -0.5s17.333 -0.833008 28 -1.5c9.33301 -0.666992 19.166 -2.16699 29.499 -4.5s20.833 -5.16602 31.5 -8.49902c14.667 -5.33301 28 -12.833 40 -22.5s23 -21.5 33 -35.5
c9.33301 -14 14.5 -31.5 15.5 -52.5s-2.5 -46.167 -10.5 -75.5c-8 -30.667 -19 -57.334 -33 -80.001s-30.667 -41 -50 -55c-18.667 -14 -37.834 -25.667 -57.501 -35s-39.5 -16.666 -59.5 -21.999c-12.667 -2.66699 -24.834 -5 -36.501 -7s-23.167 -3.33301 -34.5 -4
c-10.667 -0.666992 -20.334 -1.16699 -29.001 -1.5s-16.667 -0.5 -24 -0.5h-155v0v0zM261.004 55.999l97.998 -0.000976562h15.5c6.33301 0 13.5 0.333008 21.5 1s16.667 1.83398 26 3.50098s18.666 3.83398 27.999 6.50098c6.66699 2 13.334 4.33301 20.001 7
s13.334 6 20.001 10c6.66699 3.33301 13.334 7.16602 20.001 11.499s13.334 8.83301 20.001 13.5c13.333 10 24.833 23 34.5 39s17.167 35 22.5 57c6 21.333 8.66699 39.666 8 54.999s-4.66699 28 -12 38c-6.66699 10 -14.334 18.333 -23.001 25s-18 12 -28 16
c-3.33301 1.33301 -6.83301 2.5 -10.5 3.5s-7.5 1.83301 -11.5 2.5s-7.83301 1.33398 -11.5 2.00098s-7.16699 1 -10.5 1c-7.33301 0.666992 -13.833 1.16699 -19.5 1.5s-10.5 0.5 -14.5 0.5h-115l-78 -294v0v0z" />
    <glyph glyph-name="z" unicode="&#x42a;" horiz-adv-x="649" 
d="M178 0l172.004 643.999h-167l15 56h235l-79 -294h116c5.33301 0 12 -0.166992 20 -0.5s17.333 -0.833008 28 -1.5c9.33301 -0.666992 19.166 -2.16699 29.499 -4.5s20.833 -5.16602 31.5 -8.49902c14.667 -5.33301 28 -12.833 40 -22.5s23 -21.5 33 -35.5
c9.33301 -14 14.5 -31.5 15.5 -52.5s-2.5 -46.167 -10.5 -75.5c-8 -30.667 -19 -57.334 -33 -80.001s-30.667 -41 -50 -55c-18.667 -14 -37.834 -25.667 -57.501 -35s-39.5 -16.666 -59.5 -21.999c-12.667 -2.66699 -24.834 -5 -36.501 -7s-23.167 -3.33301 -34.5 -4
c-10.667 -0.666992 -20.334 -1.16699 -29.001 -1.5s-16.667 -0.5 -24 -0.5h-155v0v0zM261.004 55.999l97.998 -0.000976562h15.5c6.33301 0 13.5 0.333008 21.5 1s16.667 1.83398 26 3.50098s18.666 3.83398 27.999 6.50098c6.66699 2 13.334 4.33301 20.001 7
s13.334 6 20.001 10c6.66699 3.33301 13.334 7.16602 20.001 11.499s13.334 8.83301 20.001 13.5c13.333 10 24.833 23 34.5 39s17.167 35 22.5 57c6 21.333 8.66699 39.666 8 54.999s-4.66699 28 -12 38c-6.66699 10 -14.334 18.333 -23.001 25s-18 12 -28 16
c-3.33301 1.33301 -6.83301 2.5 -10.5 3.5s-7.5 1.83301 -11.5 2.5s-7.83301 1.33398 -11.5 2.00098s-7.16699 1 -10.5 1c-7.33301 0.666992 -13.833 1.16699 -19.5 1.5s-10.5 0.5 -14.5 0.5h-115l-78 -294v0v0z" />
    <glyph glyph-name="braceleft" unicode="&#xdb;" horiz-adv-x="746" 
d="M88 0l187.002 700.001h68l-79 -294h117c6 0 13 -0.166992 21 -0.5s17 -0.833008 27 -1.5c9.33301 -0.666992 19 -2 29 -4s20.333 -4.66699 31 -8c14.667 -4.66699 28.167 -11.834 40.5 -21.501s23.166 -21.5 32.499 -35.5s14.5 -31.833 15.5 -53.5
s-2.5 -47.167 -10.5 -76.5c-8 -30.667 -19 -57.5 -33 -80.5s-30.667 -41.5 -50 -55.5c-20 -14 -39.833 -25.667 -59.5 -35s-39.167 -16.333 -58.5 -21c-12.667 -2.66699 -24.667 -5 -36 -7s-22.333 -3.33301 -33 -4s-20.334 -1.16699 -29.001 -1.5s-16.667 -0.5 -24 -0.5
h-156v0v0zM171.002 56.001h99.001h16c6 0 13 0.333008 21 1s16.333 1.66699 25 3s17.334 3.33301 26.001 6c14 3.33301 27.833 8.5 41.5 15.5s26.834 15.833 39.501 26.5c13.333 10 25 23.167 35 39.5s17.667 35.5 23 57.5c6 21.333 8.66699 39.666 8 54.999
s-4.33398 28 -11.001 38s-14.334 18.333 -23.001 25s-18 12 -28 16l-6 2c-2 0.666992 -3.66699 1 -5 1c-6 2 -11.833 3.33301 -17.5 4s-10.834 1.33398 -15.501 2.00098c-7.33301 0.666992 -13.833 1.16699 -19.5 1.5s-10.5 0.5 -14.5 0.5h-116l-78 -294v0v0z
M590.003 0.000976562l187 700h68l-187 -700h-68v0v0z" />
    <glyph glyph-name="braceleft" unicode="&#x42b;" horiz-adv-x="746" 
d="M88 0l187.002 700.001h68l-79 -294h117c6 0 13 -0.166992 21 -0.5s17 -0.833008 27 -1.5c9.33301 -0.666992 19 -2 29 -4s20.333 -4.66699 31 -8c14.667 -4.66699 28.167 -11.834 40.5 -21.501s23.166 -21.5 32.499 -35.5s14.5 -31.833 15.5 -53.5
s-2.5 -47.167 -10.5 -76.5c-8 -30.667 -19 -57.5 -33 -80.5s-30.667 -41.5 -50 -55.5c-20 -14 -39.833 -25.667 -59.5 -35s-39.167 -16.333 -58.5 -21c-12.667 -2.66699 -24.667 -5 -36 -7s-22.333 -3.33301 -33 -4s-20.334 -1.16699 -29.001 -1.5s-16.667 -0.5 -24 -0.5
h-156v0v0zM171.002 56.001h99.001h16c6 0 13 0.333008 21 1s16.333 1.66699 25 3s17.334 3.33301 26.001 6c14 3.33301 27.833 8.5 41.5 15.5s26.834 15.833 39.501 26.5c13.333 10 25 23.167 35 39.5s17.667 35.5 23 57.5c6 21.333 8.66699 39.666 8 54.999
s-4.33398 28 -11.001 38s-14.334 18.333 -23.001 25s-18 12 -28 16l-6 2c-2 0.666992 -3.66699 1 -5 1c-6 2 -11.833 3.33301 -17.5 4s-10.834 1.33398 -15.501 2.00098c-7.33301 0.666992 -13.833 1.16699 -19.5 1.5s-10.5 0.5 -14.5 0.5h-116l-78 -294v0v0z
M590.003 0.000976562l187 700h68l-187 -700h-68v0v0z" />
    <glyph glyph-name="bar" unicode="&#xdc;" horiz-adv-x="559" 
d="M88 0l187.004 699.999h68l-79 -294h116c5.33301 0 12 -0.166992 20 -0.5s17.333 -0.833008 28 -1.5c9.33301 -0.666992 19.166 -2.16699 29.499 -4.5s20.833 -5.16602 31.5 -8.49902c14.667 -5.33301 28 -12.833 40 -22.5s23 -21.5 33 -35.5
c9.33301 -14 14.5 -31.5 15.5 -52.5s-2.5 -46.167 -10.5 -75.5c-8 -30.667 -19 -57.334 -33 -80.001s-30.667 -41 -50 -55c-18.667 -14 -37.834 -25.667 -57.501 -35s-39.5 -16.666 -59.5 -21.999c-12.667 -2.66699 -24.834 -5 -36.501 -7s-23.167 -3.33301 -34.5 -4
c-10.667 -0.666992 -20.334 -1.16699 -29.001 -1.5s-16.667 -0.5 -24 -0.5h-155v0v0zM171.004 55.999l97.998 -0.000976562h15.5c6.33301 0 13.5 0.333008 21.5 1s16.667 1.83398 26 3.50098s18.666 3.83398 27.999 6.50098c6.66699 2 13.334 4.33301 20.001 7
s13.334 6 20.001 10c6.66699 3.33301 13.334 7.16602 20.001 11.499s13.334 8.83301 20.001 13.5c13.333 10 24.833 23 34.5 39s17.167 35 22.5 57c6 21.333 8.66699 39.666 8 54.999s-4.66699 28 -12 38c-6.66699 10 -14.334 18.333 -23.001 25s-18 12 -28 16
c-3.33301 1.33301 -6.83301 2.5 -10.5 3.5s-7.5 1.83301 -11.5 2.5s-7.83301 1.33398 -11.5 2.00098s-7.16699 1 -10.5 1c-7.33301 0.666992 -13.833 1.16699 -19.5 1.5s-10.5 0.5 -14.5 0.5h-115l-78 -294v0v0z" />
    <glyph glyph-name="bar" unicode="&#x42c;" horiz-adv-x="559" 
d="M88 0l187.004 699.999h68l-79 -294h116c5.33301 0 12 -0.166992 20 -0.5s17.333 -0.833008 28 -1.5c9.33301 -0.666992 19.166 -2.16699 29.499 -4.5s20.833 -5.16602 31.5 -8.49902c14.667 -5.33301 28 -12.833 40 -22.5s23 -21.5 33 -35.5
c9.33301 -14 14.5 -31.5 15.5 -52.5s-2.5 -46.167 -10.5 -75.5c-8 -30.667 -19 -57.334 -33 -80.001s-30.667 -41 -50 -55c-18.667 -14 -37.834 -25.667 -57.501 -35s-39.5 -16.666 -59.5 -21.999c-12.667 -2.66699 -24.834 -5 -36.501 -7s-23.167 -3.33301 -34.5 -4
c-10.667 -0.666992 -20.334 -1.16699 -29.001 -1.5s-16.667 -0.5 -24 -0.5h-155v0v0zM171.004 55.999l97.998 -0.000976562h15.5c6.33301 0 13.5 0.333008 21.5 1s16.667 1.83398 26 3.50098s18.666 3.83398 27.999 6.50098c6.66699 2 13.334 4.33301 20.001 7
s13.334 6 20.001 10c6.66699 3.33301 13.334 7.16602 20.001 11.499s13.334 8.83301 20.001 13.5c13.333 10 24.833 23 34.5 39s17.167 35 22.5 57c6 21.333 8.66699 39.666 8 54.999s-4.66699 28 -12 38c-6.66699 10 -14.334 18.333 -23.001 25s-18 12 -28 16
c-3.33301 1.33301 -6.83301 2.5 -10.5 3.5s-7.5 1.83301 -11.5 2.5s-7.83301 1.33398 -11.5 2.00098s-7.16699 1 -10.5 1c-7.33301 0.666992 -13.833 1.16699 -19.5 1.5s-10.5 0.5 -14.5 0.5h-115l-78 -294v0v0z" />
    <glyph glyph-name="braceright" unicode="&#xdd;" horiz-adv-x="679" 
d="M51 36l21 76.001c10.667 -10 22.834 -19.333 36.501 -28s28.834 -17 45.501 -25c17.333 -8 35.5 -13.833 54.5 -17.5s39.5 -5.5 61.5 -5.5c36 0 72.167 6.83301 108.5 20.5s73.166 34.167 110.499 61.5s68.5 59.166 93.5 95.499s44.5 77.166 58.5 122.499h-425l15 56h423
c9.33301 39.333 10.666 75.333 3.99902 108s-21 61.667 -43 87c-22.667 25.333 -48.834 44.5 -78.501 57.5s-63.167 19.5 -100.5 19.5h-4h-4h-4h-4c-18 -0.666992 -36.167 -3 -54.5 -7s-36.833 -9 -55.5 -15c-18.667 -6.66699 -37.334 -14.5 -56.001 -23.5
s-37 -19.5 -55 -31.5l20 75c8 4.66699 16.167 9 24.5 13s16.833 7.33301 25.5 10c8 3.33301 16 6.33301 24 9s16.333 5.33398 25 8.00098c5.33301 1.33301 10.833 2.66602 16.5 3.99902s11.5 2.66602 17.5 3.99902s11.833 2.5 17.5 3.5s11.167 1.83301 16.5 2.5
c6 0.666992 11.833 1.16699 17.5 1.5s11.167 0.833008 16.5 1.5c5.33301 0 10.833 0.166992 16.5 0.5s11.5 0.5 17.5 0.5c59.333 0 109 -9.16699 149 -27.5s70.333 -46.166 91 -83.499c20.667 -36.667 32.834 -76.667 36.501 -120s-1.16602 -89.666 -14.499 -138.999
c-12.667 -49.333 -32.834 -95.5 -60.501 -138.5s-62.5 -83.167 -104.5 -120.5c-42 -36.667 -87.5 -64 -136.5 -82s-101.833 -27 -158.5 -27c-16.667 0 -33.5 1 -50.5 3s-34.167 5 -51.5 9c-17.333 3.33301 -34.666 8.5 -51.999 15.5s-34.333 15.833 -51 26.5v0v0z" />
    <glyph glyph-name="braceright" unicode="&#x42d;" horiz-adv-x="679" 
d="M51 36l21 76.001c10.667 -10 22.834 -19.333 36.501 -28s28.834 -17 45.501 -25c17.333 -8 35.5 -13.833 54.5 -17.5s39.5 -5.5 61.5 -5.5c36 0 72.167 6.83301 108.5 20.5s73.166 34.167 110.499 61.5s68.5 59.166 93.5 95.499s44.5 77.166 58.5 122.499h-425l15 56h423
c9.33301 39.333 10.666 75.333 3.99902 108s-21 61.667 -43 87c-22.667 25.333 -48.834 44.5 -78.501 57.5s-63.167 19.5 -100.5 19.5h-4h-4h-4h-4c-18 -0.666992 -36.167 -3 -54.5 -7s-36.833 -9 -55.5 -15c-18.667 -6.66699 -37.334 -14.5 -56.001 -23.5
s-37 -19.5 -55 -31.5l20 75c8 4.66699 16.167 9 24.5 13s16.833 7.33301 25.5 10c8 3.33301 16 6.33301 24 9s16.333 5.33398 25 8.00098c5.33301 1.33301 10.833 2.66602 16.5 3.99902s11.5 2.66602 17.5 3.99902s11.833 2.5 17.5 3.5s11.167 1.83301 16.5 2.5
c6 0.666992 11.833 1.16699 17.5 1.5s11.167 0.833008 16.5 1.5c5.33301 0 10.833 0.166992 16.5 0.5s11.5 0.5 17.5 0.5c59.333 0 109 -9.16699 149 -27.5s70.333 -46.166 91 -83.499c20.667 -36.667 32.834 -76.667 36.501 -120s-1.16602 -89.666 -14.499 -138.999
c-12.667 -49.333 -32.834 -95.5 -60.501 -138.5s-62.5 -83.167 -104.5 -120.5c-42 -36.667 -87.5 -64 -136.5 -82s-101.833 -27 -158.5 -27c-16.667 0 -33.5 1 -50.5 3s-34.167 5 -51.5 9c-17.333 3.33301 -34.666 8.5 -51.999 15.5s-34.333 15.833 -51 26.5v0v0z" />
    <glyph glyph-name="asciitilde" unicode="&#xde;" horiz-adv-x="1054" 
d="M260 391l87.9971 0.00195312c1.33301 3.33301 2.66602 7 3.99902 11l4 12c0.666992 1.33301 1.33398 2.83301 2.00098 4.5s1.33398 3.16699 2.00098 4.5c0 0.666992 0.166992 1.16699 0.5 1.5s0.5 0.833008 0.5 1.5l2.5 5c1 2 2.16699 4 3.5 6
c16.667 35.333 39.167 69.166 67.5 101.499s61.833 63.166 100.5 92.499s81.167 51.5 127.5 66.5s96.166 22.5 149.499 22.5c51.333 0 96.833 -8.33301 136.5 -25s73.834 -41.667 102.501 -75s46.334 -72.5 53.001 -117.5s2.33398 -95.833 -12.999 -152.5
c-14.667 -56.667 -37.5 -107.5 -68.5 -152.5s-69.833 -84.167 -116.5 -117.5c-46.667 -32.667 -94.167 -57.167 -142.5 -73.5s-98.166 -24.5 -149.499 -24.5c-56 0 -104 8.33301 -144 25s-72.333 42 -97 76s-40.334 72 -47.001 114s-4.66699 88 6 138h-87l-89 -335h-68
l187 700h68l-83 -309v0v0zM407.997 350.002c-12.667 -48 -16.5029 -91.167 -11.5029 -129.5s18.833 -71.5 41.5 -99.5c23.333 -28.667 50.833 -50 82.5 -64s67.834 -21 108.501 -21c41.333 0 81.833 7 121.5 21s78.5 35.333 116.5 64c37.333 28 68.833 61.167 94.5 99.5
s44.834 81.5 57.501 129.5c13.333 48 17.333 91 12 129s-19 71.333 -41 100c-22.667 28 -50.167 49.167 -82.5 63.5s-69.166 21.5 -110.499 21.5c-40.667 0 -80.667 -7.16699 -120 -21.5s-78 -35.5 -116 -63.5c-38.667 -28.667 -70.5 -62 -95.5 -100s-44.167 -81 -57.5 -129
v0v0z" />
    <glyph glyph-name="asciitilde" unicode="&#x42e;" horiz-adv-x="1054" 
d="M260 391l87.9971 0.00195312c1.33301 3.33301 2.66602 7 3.99902 11l4 12c0.666992 1.33301 1.33398 2.83301 2.00098 4.5s1.33398 3.16699 2.00098 4.5c0 0.666992 0.166992 1.16699 0.5 1.5s0.5 0.833008 0.5 1.5l2.5 5c1 2 2.16699 4 3.5 6
c16.667 35.333 39.167 69.166 67.5 101.499s61.833 63.166 100.5 92.499s81.167 51.5 127.5 66.5s96.166 22.5 149.499 22.5c51.333 0 96.833 -8.33301 136.5 -25s73.834 -41.667 102.501 -75s46.334 -72.5 53.001 -117.5s2.33398 -95.833 -12.999 -152.5
c-14.667 -56.667 -37.5 -107.5 -68.5 -152.5s-69.833 -84.167 -116.5 -117.5c-46.667 -32.667 -94.167 -57.167 -142.5 -73.5s-98.166 -24.5 -149.499 -24.5c-56 0 -104 8.33301 -144 25s-72.333 42 -97 76s-40.334 72 -47.001 114s-4.66699 88 6 138h-87l-89 -335h-68
l187 700h68l-83 -309v0v0zM407.997 350.002c-12.667 -48 -16.5029 -91.167 -11.5029 -129.5s18.833 -71.5 41.5 -99.5c23.333 -28.667 50.833 -50 82.5 -64s67.834 -21 108.501 -21c41.333 0 81.833 7 121.5 21s78.5 35.333 116.5 64c37.333 28 68.833 61.167 94.5 99.5
s44.834 81.5 57.501 129.5c13.333 48 17.333 91 12 129s-19 71.333 -41 100c-22.667 28 -50.167 49.167 -82.5 63.5s-69.166 21.5 -110.499 21.5c-40.667 0 -80.667 -7.16699 -120 -21.5s-78 -35.5 -116 -63.5c-38.667 -28.667 -70.5 -62 -95.5 -100s-44.167 -81 -57.5 -129
v0v0z" />
    <glyph glyph-name="asciitilde" unicode="&#xdf;" horiz-adv-x="550" 
d="M70 0l272.999 311.002c-27.333 -0.666992 -52 3.16602 -74 11.499s-40.667 20.833 -56 37.5c-16 16.667 -26 36.5 -30 59.5s-2 49.5 6 79.5c1.33301 5.33301 3.16602 11.166 5.49902 17.499s4.83301 12.833 7.5 19.5c3.33301 7.33301 6.83301 14.5 10.5 21.5
s7.83398 13.833 12.501 20.5c10 15.333 22.833 30 38.5 44s33.834 27.333 54.501 40s45 22.167 73 28.5s59.333 9.5 94 9.5h164l-187 -700h-68l82 308h-62l-267 -308h-77v0v0zM490.999 364.002l74.999 280h-95c-4 0 -8.83301 -0.166992 -14.5 -0.5
s-12.167 -0.833008 -19.5 -1.5c-8.66699 -0.666992 -17.167 -1.66699 -25.5 -3s-16.833 -3.33301 -25.5 -6c-12.667 -4 -25.167 -9.33301 -37.5 -16s-24.5 -14.667 -36.5 -24c-12 -10 -22.167 -22.333 -30.5 -37s-15.166 -32 -20.499 -52
c-6 -22 -8.83301 -40.833 -8.5 -56.5s4.16602 -28.167 11.499 -37.5c7.33301 -10 15.833 -18 25.5 -24s19.834 -10.667 30.501 -14c6 -2 12 -3.66699 18 -5s12 -2 18 -2c6 -0.666992 11.833 -1 17.5 -1h15.5h102v0v0z" />
    <glyph glyph-name="asciitilde" unicode="&#x42f;" horiz-adv-x="550" 
d="M70 0l272.999 311.002c-27.333 -0.666992 -52 3.16602 -74 11.499s-40.667 20.833 -56 37.5c-16 16.667 -26 36.5 -30 59.5s-2 49.5 6 79.5c1.33301 5.33301 3.16602 11.166 5.49902 17.499s4.83301 12.833 7.5 19.5c3.33301 7.33301 6.83301 14.5 10.5 21.5
s7.83398 13.833 12.501 20.5c10 15.333 22.833 30 38.5 44s33.834 27.333 54.501 40s45 22.167 73 28.5s59.333 9.5 94 9.5h164l-187 -700h-68l82 308h-62l-267 -308h-77v0v0zM490.999 364.002l74.999 280h-95c-4 0 -8.83301 -0.166992 -14.5 -0.5
s-12.167 -0.833008 -19.5 -1.5c-8.66699 -0.666992 -17.167 -1.66699 -25.5 -3s-16.833 -3.33301 -25.5 -6c-12.667 -4 -25.167 -9.33301 -37.5 -16s-24.5 -14.667 -36.5 -24c-12 -10 -22.167 -22.333 -30.5 -37s-15.166 -32 -20.499 -52
c-6 -22 -8.83301 -40.833 -8.5 -56.5s4.16602 -28.167 11.499 -37.5c7.33301 -10 15.833 -18 25.5 -24s19.834 -10.667 30.501 -14c6 -2 12 -3.66699 18 -5s12 -2 18 -2c6 -0.666992 11.833 -1 17.5 -1h15.5h102v0v0z" />
    </font>
</defs>
</svg>
