<?xml version="1.0" standalone="no"?>
<!DOCTYPE svg PUBLIC "-//W3C//DTD SVG 1.1//EN" "http://www.w3.org/Graphics/SVG/1.1/DTD/svg11.dtd" >
<svg xmlns="http://www.w3.org/2000/svg" xmlns:xlink="http://www.w3.org/1999/xlink" version="1.1">
<metadata>
Created by FontForge 20170910 at Fri Jan  1 01:00:00 1904
 By jimmywarting
Copyright 1991, Atech Software, Carlsbad CA 
</metadata>
<defs>
<font id="Futuris-BoldItalic" horiz-adv-x="538" >
  <font-face 
    font-family="Futuris"
    font-weight="700"
    font-style="italic"
    font-stretch="normal"
    units-per-em="1000"
    panose-1="0 0 0 0 0 0 0 0 0 0"
    ascent="800"
    descent="-200"
    x-height="434"
    cap-height="700"
    bbox="-56 -224 1243.96 851.002"
    underline-thickness="50"
    underline-position="-105"
    slope="23853"
    unicode-range="U+0020-2219"
  />
<missing-glyph 
d="M74 0l116 434h40h60l-104 -386h190l104 386h40h60l-116 -434h-147l-34 -126h-40h-56l34 126h-147v0v0z" />
    <glyph glyph-name=".notdef" 
d="M74 0l116 434h40h60l-104 -386h190l104 386h40h60l-116 -434h-147l-34 -126h-40h-56l34 126h-147v0v0z" />
    <glyph glyph-name="space" unicode=" " horiz-adv-x="391" 
 />
    <glyph glyph-name="exclam" unicode="!" horiz-adv-x="272" 
d="M79 35c1.33301 6 3.83203 11.667 7.49902 17s8.16699 10.333 13.5 15c6 4.66699 12 8.16699 18 10.5s12.333 3.5 19 3.5h40c6 0 11.5 -1.16699 16.5 -3.5s9.16699 -5.5 12.5 -9.5c3.33301 -4.66699 5.33301 -9.66699 6 -15s0.333984 -11.333 -0.999023 -18
c-2 -6.66699 -5 -12.667 -9 -18s-8.66699 -10 -14 -14c-5.33301 -3.33301 -11 -6.16602 -17 -8.49902s-12 -3.5 -18 -3.5l-40 -1c-6.66699 0.666992 -12.5 2.16699 -17.5 4.5s-9.16699 5.16602 -12.5 8.49902c-3.33301 4 -5.33301 8.66699 -6 14s0 11.333 2 18v0v0z
M122.999 140l150 560h40h60l-150 -560h-40h-60v0v0z" />
    <glyph glyph-name="quotedbl" unicode="&#x22;" horiz-adv-x="378" 
d="M375 700l-83 -203h-40h-42l27 203h40h98v0v0zM515 700l-83 -203h-40h-42l27 203h40h98v0v0z" />
    <glyph glyph-name="numbersign" unicode="#" horiz-adv-x="836" 
d="M281 515h136l64 145h40h56l-64 -145h141l64 145h40h56l-64 -145h135l-30 -68h-135l-85 -194h134l-29 -68h-135l-64 -145h-40h-56l64 145h-141l-64 -145h-40h-56l64 145h-135l29 68h136l85 194h-135l29 68v0v0zM539 253l85 194h-141l-85 -194h141v0v0z" />
    <glyph glyph-name="dollar" unicode="$" horiz-adv-x="561" 
d="M320 -18l-27 -101.008h-40h-54l27 101c-19.333 2.66699 -37.5 7.16699 -54.5 13.5s-33.167 14.833 -48.5 25.5c-14.667 11.333 -26.834 26.833 -36.501 46.5s-17.167 42.834 -22.5 69.501l73 32h40c0 -4 0.333008 -8 1 -12s1.33398 -8.33301 2.00098 -13
c1.33301 -4.66699 2.66602 -9.16699 3.99902 -13.5s3.33301 -9.16602 6 -14.499c3.33301 -9.33301 8.5 -18.333 15.5 -27s15.167 -17 24.5 -25c6.66699 -6.66699 15.167 -11.667 25.5 -15s21.833 -5.66602 34.5 -6.99902c18.667 1.33301 36.167 5.66602 52.5 12.999
s31.833 17.333 46.5 30c17.333 14.667 31.666 30.667 42.999 48s19.666 36.333 24.999 57c5.33301 20 7.16602 37.667 5.49902 53s-7.16699 28.333 -16.5 39c-8.66699 10.667 -18.5 20.334 -29.5 29.001s-22.5 16.334 -34.5 23.001c-2.66699 2 -5.5 3.83301 -8.5 5.5
s-6.16699 3.16699 -9.5 4.5s-6.5 2.83301 -9.5 4.5s-5.83301 3.5 -8.5 5.5h-2v1c-20.667 11.333 -39.834 23.5 -57.501 36.5s-33.834 26.5 -48.501 40.5c-14 14 -22.667 31.333 -26 52s-1.66602 44.334 5.00098 71.001c6 22 14.167 41.333 24.5 58s22.833 31 37.5 43
c5.33301 4 10.333 7.83301 15 11.5s9.66699 6.83398 15 9.50098c10 6.66699 20 12.334 30 17.001s20 8.66699 30 12c2 0.666992 4.16699 1.33398 6.5 2.00098s4.83301 1.33398 7.5 2.00098c2.66699 0 5.16699 0.333008 7.5 1s4.5 1.33398 6.5 2.00098
c4 1.33301 8.16699 2.16602 12.5 2.49902s8.83301 0.833008 13.5 1.5l23 88h40h54l-23 -88c4 -0.666992 8.5 -1.16699 13.5 -1.5s9.83301 -1.16602 14.5 -2.49902c4.66699 -0.666992 9.33398 -1.83398 14.001 -3.50098s9.33398 -3.5 14.001 -5.5
c5.33301 -2 10.5 -4.66699 15.5 -8s9.83301 -7 14.5 -11c2.66699 -2 5.16699 -4 7.5 -6s4.83301 -4.33301 7.5 -7c6.66699 -7.33301 12.334 -16 17.001 -26s8.66699 -21.333 12 -34l-63 -32h-40c-2 8.66699 -4.33301 16.5 -7 23.5s-5.66699 12.833 -9 17.5
c-3.33301 5.33301 -7.16602 10 -11.499 14s-9.16602 7.33301 -14.499 10c-6 3.33301 -11.833 6 -17.5 8s-11.167 3.33301 -16.5 4c-0.666992 0 -1.5 0.166992 -2.5 0.5s-2.16699 0.5 -3.5 0.5c-0.666992 0 -1.5 0.166992 -2.5 0.5s-2.16699 0.5 -3.5 0.5
c-13.333 -1.33301 -25.666 -4 -36.999 -8s-21.333 -9 -30 -15c-10.667 -8 -20.167 -16.167 -28.5 -24.5s-14.833 -17.166 -19.5 -26.499c-1.33301 -2.66699 -2.5 -5.16699 -3.5 -7.5s-2.16699 -4.5 -3.5 -6.5c-0.666992 -2.66699 -1.33398 -5.16699 -2.00098 -7.5
s-1.33398 -4.5 -2.00098 -6.5c-4.66699 -17.333 -5.66699 -32.833 -3 -46.5s9.33398 -25.5 20.001 -35.5c10 -10 21 -19.333 33 -28s24.667 -16.667 38 -24c0.666992 -0.666992 1.5 -1.16699 2.5 -1.5s1.83301 -0.833008 2.5 -1.5c1.33301 -0.666992 2.83301 -1.5 4.5 -2.5
s3.5 -1.83301 5.5 -2.5c0.666992 -0.666992 1.5 -1.16699 2.5 -1.5s1.83301 -0.833008 2.5 -1.5c1.33301 -0.666992 2.83301 -1.5 4.5 -2.5s3.5 -1.83301 5.5 -2.5l4 -3l5 -2c18.667 -10 35.834 -21.167 51.501 -33.5s30.5 -25.833 44.5 -40.5
c13.333 -14.667 21.666 -33.167 24.999 -55.5s0.666016 -48.5 -8.00098 -78.5c-6.66699 -27.333 -17.667 -53 -33 -77s-34.666 -46 -57.999 -66c-23.333 -20.667 -48.333 -36.334 -75 -47.001s-54.667 -17.334 -84 -20.001v-2v0z" />
    <glyph glyph-name="percent" unicode="%" horiz-adv-x="832" 
d="M145 -21l612 742h40h49l-612 -742h-40h-49v0v0zM488 161c6.66699 24 16.5 45.668 29.5 65.001s29.833 36.333 50.5 51c10 7.33301 20 13.666 30 18.999s20.333 10 31 14c10 4 20 7 30 9s20 3 30 3h40h1h2c21.333 0 40.333 -4 57 -12s31 -19.667 43 -35
s19.5 -32.5 22.5 -51.5s1.5 -39.833 -4.5 -62.5c-6 -21.333 -15.5 -41.5 -28.5 -60.5s-29.5 -36.5 -49.5 -52.5s-40.5 -28 -61.5 -36s-42.5 -12 -64.5 -12h-40c-22.667 -0 -42.5 3.83301 -59.5 11.5s-31.167 19.5 -42.5 35.5c-12 15.333 -19.167 32.5 -21.5 51.5
s-0.5 39.833 5.5 62.5v0v0zM584 161.001c-4 -14.667 -5.33301 -28.6689 -4 -42.002s5.33301 -25.666 12 -36.999c5.33301 -8.66699 12 -15.667 20 -21s17 -9 27 -11c5.33301 0.666992 10.5 1.83398 15.5 3.50098s10.167 3.83398 15.5 6.50098s10.5 5.66699 15.5 9
s10.167 7 15.5 11c13.333 11.333 24.333 23.666 33 36.999s15.334 28 20.001 44c4 15.333 5.16699 29.666 3.5 42.999s-6.16699 25.333 -13.5 36c-5.33301 8.66699 -11.833 15.667 -19.5 21s-16.5 9 -26.5 11c-10.667 -2 -21.5 -5.66699 -32.5 -11
s-21.167 -12.333 -30.5 -21c-12.667 -10.667 -23.334 -22.667 -32.001 -36s-15 -27.666 -19 -42.999v0v0zM173 552.999c6.66699 24 16.5 45.667 29.5 65s29.833 36.333 50.5 51s41 25.667 61 33s40 11.333 60 12h40h1h2c21.333 0 40.5 -4 57.5 -12s31.167 -19.667 42.5 -35
c12 -15.333 19.5 -32.5 22.5 -51.5s1.5 -39.833 -4.5 -62.5c-6 -21.333 -15.5 -41.5 -28.5 -60.5s-29.5 -36.5 -49.5 -52.5s-40.5 -28 -61.5 -36s-42.5 -12 -64.5 -12h-40c-22.667 0 -42.5 3.83301 -59.5 11.5s-31.167 19.5 -42.5 35.5c-12 15.333 -19.167 32.5 -21.5 51.5
s-0.5 39.833 5.5 62.5v0v0zM269 552.999c-4.66699 -16 -6.16797 -30.666 -4.50098 -43.999s6.16699 -25.666 13.5 -36.999c5.33301 -8.66699 11.833 -15.334 19.5 -20.001s16.167 -8 25.5 -10c7.33301 1.33301 14.5 3.16602 21.5 5.49902s13.833 5.5 20.5 9.5
c3.33301 2 6.83301 4.33301 10.5 7s7.16699 5.33398 10.5 8.00098c13.333 11.333 24.333 23.666 33 36.999s15.334 28 20.001 44c4 16 5.16699 30.667 3.5 44s-6.16699 25.333 -13.5 36c-5.33301 8.66699 -12 15.5 -20 20.5s-16.667 8.5 -26 10.5
c-10.667 -2 -21.167 -5.5 -31.5 -10.5s-20.5 -11.833 -30.5 -20.5c-13.333 -10.667 -24.333 -22.667 -33 -36s-15 -28 -19 -44v0v0z" />
    <glyph glyph-name="ampersand" unicode="&#x26;" horiz-adv-x="665" 
d="M544 0l-41.0068 76.9941c-4.66699 -3.33301 -9.16699 -7 -13.5 -11s-9.16602 -8 -14.499 -12c-1.33301 -0.666992 -2.66602 -1.5 -3.99902 -2.5s-2.66602 -2.16699 -3.99902 -3.5c-1.33301 -0.666992 -2.66602 -1.5 -3.99902 -2.5s-2.66602 -2.16699 -3.99902 -3.5
c-2.66699 -2 -5.16699 -4 -7.5 -6s-4.83301 -3.66699 -7.5 -5c-4.66699 -3.33301 -9.5 -6.5 -14.5 -9.5s-9.83301 -5.83301 -14.5 -8.5s-9.33398 -5.16699 -14.001 -7.5s-8.66699 -4.16602 -12 -5.49902c-8.66699 -2.66699 -17 -5.16699 -25 -7.5s-16 -3.83301 -24 -4.5
c-8.66699 -1.33301 -17.167 -2.33301 -25.5 -3s-17.166 -1 -26.499 -1l-40 -1c-30.667 0.666992 -57 4.83398 -79 12.501s-38.667 19.167 -50 34.5c-12.667 16 -21.667 32.833 -27 50.5s-7.33301 35.834 -6 54.501v4.5v5.5c0 1.33301 0.166992 2.83301 0.5 4.5
s0.833008 3.16699 1.5 4.5c0 3.33301 0.5 6.66602 1.5 9.99902s1.83301 6.66602 2.5 9.99902c7.33301 26 17.333 49.5 30 70.5s28.334 39.5 47.001 55.5s39 31.5 61 46.5s46 29.833 72 44.5c1.33301 0.666992 2.5 1.33398 3.5 2.00098s2.16699 1.33398 3.5 2.00098
c0.666992 0 1.66699 0.333008 3 1s2.33301 1.33398 3 2.00098c1.33301 0.666992 2.5 1.33398 3.5 2.00098s2.16699 1.33398 3.5 2.00098s2.5 1.33398 3.5 2.00098s2.16699 1.33398 3.5 2.00098c-2 3.33301 -4 6.83301 -6 10.5s-4 7.16699 -6 10.5
c-0.666992 0.666992 -1.16699 1.33398 -1.5 2.00098l-1.5 3c-2 2 -3.66699 4.5 -5 7.5s-2.33301 5.83301 -3 8.5c-4.66699 9.33301 -8.66699 18.5 -12 27.5s-6 17.833 -8 26.5c-2 9.33301 -2.66699 19 -2 29s2.33398 20.333 5.00098 31
c5.33301 21.333 14.166 40.166 26.499 56.499s27.833 30.833 46.5 43.5c19.333 12.667 38.666 22.167 57.999 28.5s39 9.5 59 9.5h40c23.333 0 42.833 -3.5 58.5 -10.5s27.167 -17.167 34.5 -30.5c7.33301 -14 11.833 -29 13.5 -45s-0.166016 -33 -5.49902 -51
c-0.666992 -4.66699 -2 -9.33398 -4 -14.001s-4 -9 -6 -13c-0.666992 -2 -1.66699 -4 -3 -6s-2.33301 -4 -3 -6c-1.33301 -2.66699 -2.66602 -5 -3.99902 -7l-4 -6c-6 -8.66699 -13.667 -17.5 -23 -26.5s-19.666 -18.167 -30.999 -27.5
c-11.333 -8.66699 -24.833 -18.334 -40.5 -29.001s-33.834 -22 -54.501 -34l99 -185l96 87h40l33 -34l-134 -120l73 -142h-40h-70v0v0zM467.993 141.994l-108.002 205.004c-0.666992 -0.666992 -1.66699 -1.33398 -3 -2.00098s-2.33301 -1.33398 -3 -2.00098
c-1.33301 -0.666992 -2.5 -1.33398 -3.5 -2.00098s-2.16699 -1.33398 -3.5 -2.00098l-10 -6l-10 -6c-2.66699 -2.66699 -5.5 -5 -8.5 -7s-6.16699 -4 -9.5 -6c-14.667 -9.33301 -27.834 -19 -39.501 -29s-22.167 -20.333 -31.5 -31c-10 -10.667 -18.333 -22.667 -25 -36
s-12.334 -28 -17.001 -44c-4.66699 -18.667 -5.83398 -36.5 -3.50098 -53.5s8.5 -32.833 18.5 -47.5c8.66699 -12 19 -21.5 31 -28.5s25.667 -11.5 41 -13.5c1.33301 0 2.5 0.166992 3.5 0.5s1.83301 0.5 2.5 0.5c1.33301 0 2.5 0.166992 3.5 0.5s1.83301 0.5 2.5 0.5l8 2
l8 2c2.66699 0.666992 5.33398 1.5 8.00098 2.5s5.33398 1.83301 8.00098 2.5c9.33301 4 18.833 8.83301 28.5 14.5s19.834 12.5 30.501 20.5s22.834 17.333 36.501 28s28.834 23 45.501 37v0v0zM414.991 448.998c2.66699 1.33301 5.16797 2.83398 7.50098 4.50098
s4.83301 3.16699 7.5 4.5c11.333 7.33301 22 15 32 23s18.333 16 25 24c7.33301 8 13.833 17.167 19.5 27.5s9.83398 21.5 12.501 33.5c3.33301 10.667 4.33301 21 3 31s-4.33301 19.333 -9 28c-3.33301 6.66699 -7.5 12 -12.5 16s-11.167 7 -18.5 9
c-7.33301 -2 -15 -4.83301 -23 -8.5s-16 -8.16699 -24 -13.5c-10.667 -7.33301 -19.834 -16.5 -27.501 -27.5s-13.5 -23.5 -17.5 -37.5c0 -1.33301 -0.166992 -2.83301 -0.5 -4.5s-0.833008 -3.16699 -1.5 -4.5s-1 -2.83301 -1 -4.5s0.333008 -3.16699 1 -4.5
c-0.666992 -6.66699 -0.833984 -13.5 -0.500977 -20.5s1.5 -14.167 3.5 -21.5c0.666992 -2 1.5 -4.16699 2.5 -6.5s1.83301 -4.83301 2.5 -7.5c1.33301 -4 2.83301 -8 4.5 -12s3.5 -8 5.5 -12c0.666992 -2 1.5 -4 2.5 -6s2.16699 -3.66699 3.5 -5l1.5 -3
c0.333008 -0.666992 0.833008 -1.33398 1.5 -2.00098v0z" />
    <glyph glyph-name="quotesingle" unicode="'" horiz-adv-x="238" 
d="M375 700l-83 -203h-40h-42l27 203h40h98v0v0z" />
    <glyph glyph-name="parenleft" unicode="(" horiz-adv-x="258" 
d="M173 -210l-51.002 -13h-40c-0.666992 6.66699 -1.5 13 -2.5 19s-1.83301 11.667 -2.5 17c0 6 -0.333008 12 -1 18s-1 12 -1 18c-0.666992 12 -1.16699 23.833 -1.5 35.5s-0.166016 23.167 0.500977 34.5c-0.666992 30.667 0 61 2 91s5.33301 60 10 90
c4 30 8.83301 58.5 14.5 85.5s11.834 52.833 18.501 77.5c4.66699 16 9.5 32.5 14.5 49.5s10.5 33.833 16.5 50.5c6 17.333 12.333 34.5 19 51.5s13.667 34.167 21 51.5c10.667 24.667 21.834 49 33.501 73s23.834 48 36.501 72c13.333 24 26.666 47.333 39.999 70
s27.333 45 42 67h40l44 -13c-28.667 -50.667 -54.334 -98.5 -77.001 -143.5s-41.667 -87.5 -57 -127.5c-16 -40 -29.667 -76.667 -41 -110s-20.666 -63.666 -27.999 -90.999s-14.333 -57.833 -21 -91.5s-12.667 -70.5 -18 -110.5
c-5.33301 -39.333 -8.83301 -81.333 -10.5 -126s-1.83398 -92.334 -0.500977 -143.001v-2v0z" />
    <glyph glyph-name="parenright" unicode=")" horiz-adv-x="258" 
d="M224 735l51.9971 13.002h40c2.66699 -22 4.66699 -44.333 6 -67s2 -46 2 -70c-0.666992 -24 -1.5 -48 -2.5 -72s-2.83301 -48.333 -5.5 -73c-2 -17.333 -4.16699 -34.5 -6.5 -51.5s-5.16602 -34.167 -8.49902 -51.5c-2.66699 -16.667 -5.83398 -33.5 -9.50098 -50.5
s-7.83398 -33.5 -12.501 -49.5c-6.66699 -24.667 -14.667 -50.5 -24 -77.5s-19.666 -55.5 -30.999 -85.5c-12 -30 -25 -60 -39 -90s-29 -60.333 -45 -91c-6.66699 -11.333 -13.167 -22.833 -19.5 -34.5s-13.166 -23.5 -20.499 -35.5c-4 -6 -7.83301 -12 -11.5 -18
s-7.16699 -11.667 -10.5 -17c-3.33301 -6 -6.83301 -11.833 -10.5 -17.5s-7.5 -11.5 -11.5 -17.5l-40 -1l-44 12c32 57.333 59.667 109.666 83 156.999s42.333 90.333 57 129c14.667 39.333 27.334 74.666 38.001 105.999s19 58.333 25 81s12 49.5 18 80.5
s12.333 66.167 19 105.5s10.834 82.833 12.501 130.5s1.5 99.5 -0.5 155.5v0v0z" />
    <glyph glyph-name="asterisk" unicode="*" horiz-adv-x="447" 
d="M415 735h49l-27 -103l80 40h40l12 -42l-125 -63l92 -63l-36 -42h-40l-58 40l-28 -103h-40h-49l28 103l-79 -40h-40l-13 42l125 63l-92 63l37 42h40l57 -40l27 103h40v0v0z" />
    <glyph glyph-name="plus" unicode="+" horiz-adv-x="640" 
d="M136 322l15 56h222l59 222h40h56l-59 -222h222l-15 -56h-222l-60 -222h-40h-56l60 222h-222v0v0z" />
    <glyph glyph-name="comma" unicode="," horiz-adv-x="293" 
d="M10 -134l157 246h40l61 -33l-187 -230h-40l-31 17v0v0z" />
    <glyph glyph-name="hyphen" unicode="-" horiz-adv-x="348" 
d="M159 288h224l-16 -60h-40h-224l16 60h40v0v0z" />
    <glyph glyph-name="period" unicode="." horiz-adv-x="272" 
d="M79 35c1.33301 6.66699 3.83203 12.667 7.49902 18s8.5 10.333 14.5 15c5.33301 4 11 7.16699 17 9.5s12.333 3.5 19 3.5h40c6.66699 0 12.5 -1.16699 17.5 -3.5s8.83301 -5.83301 11.5 -10.5c3.33301 -4.66699 5.33301 -9.66699 6 -15s0.333984 -11 -0.999023 -17
c-2 -6.66699 -4.83301 -12.667 -8.5 -18s-8.16699 -10 -13.5 -14c-5.33301 -3.33301 -11 -6.16602 -17 -8.49902s-12.333 -3.5 -19 -3.5l-40 -1c-6.66699 0.666992 -12.5 2.16699 -17.5 4.5s-9.16699 5.16602 -12.5 8.49902c-3.33301 4 -5.33301 8.66699 -6 14
s0 11.333 2 18v0v0z" />
    <glyph glyph-name="slash" unicode="/" horiz-adv-x="516" 
d="M-35 -210l630 945h40h56l-631 -945h-40h-55v0v0z" />
    <glyph glyph-name="zero" unicode="0" horiz-adv-x="588" 
d="M268 -20c-6 1.33301 -12.334 2.32812 -19.001 2.99512s-14.667 1.66699 -24 3c-8.66699 1.33301 -17.167 3.83301 -25.5 7.5s-16.166 7.83398 -23.499 12.501c-12.667 9.33301 -23.834 22.5 -33.501 39.5s-17.167 38.5 -22.5 64.5c-6 25.333 -6.83301 58 -2.5 98
s13.833 87.333 28.5 142c14 52.667 29.333 98.5 46 137.5s34.334 71.167 53.001 96.5c19.333 25.333 37.833 46.833 55.5 64.5s34.834 31.5 51.501 41.5c13.333 7.33301 25.666 13.333 36.999 18s22 7.33398 32 8.00098c10.667 1.33301 19.667 2.33301 27 3s13.333 1 18 1
h40c4.66699 0 10.5 -0.333008 17.5 -1s15.167 -1.66699 24.5 -3c10 -0.666992 19.667 -3.33398 29 -8.00098s18.333 -10.667 27 -18c11.333 -10 21.5 -23.833 30.5 -41.5s15.833 -39.167 20.5 -64.5c5.33301 -25.333 5.66602 -57.5 0.999023 -96.5s-14 -84.833 -28 -137.5
c-14.667 -54.667 -30.5 -102.167 -47.5 -142.5s-35.167 -73.166 -54.5 -98.499c-20 -25.333 -39.333 -46.666 -58 -63.999s-36.667 -30.666 -54 -39.999c-10.667 -4.66699 -21.167 -8.66699 -31.5 -12s-20.166 -5.66602 -29.499 -6.99902
c-8.66699 -1.33301 -17 -2.33301 -25 -3s-14.667 -1 -20 -1v-2h-40v0zM304.999 35.9951c3.33301 0.666992 6.83594 1.50195 10.5029 2.50195s7.5 2.16699 11.5 3.5c15.333 5.33301 31.166 14.666 47.499 27.999s32.833 31 49.5 53c17.333 21.333 34 51 50 89
s31.333 84 46 138c14.667 54.667 24.167 101 28.5 139s3.5 68 -2.5 90c-6.66699 21.333 -14.5 38.833 -23.5 52.5s-19.833 22.834 -32.5 27.501c-1.33301 0.666992 -2.83301 1.16699 -4.5 1.5s-3.16699 0.5 -4.5 0.5c-2 0.666992 -3.83301 1.16699 -5.5 1.5
s-3.16699 0.5 -4.5 0.5h-0.5h-0.5h-0.5h-0.5h-4.5c-1.66699 0 -3.16699 -0.333008 -4.5 -1c-6.66699 -0.666992 -13.5 -2.5 -20.5 -5.5s-14.167 -6.83301 -21.5 -11.5c-12.667 -8 -25.834 -19.333 -39.501 -34s-28.167 -33 -43.5 -55c-14.667 -22 -28.667 -50 -42 -84
s-26.333 -74.667 -39 -122c-12.667 -46.667 -21.334 -87.334 -26.001 -122.001s-5.66699 -63 -3 -85c3.33301 -22 7.83301 -40.333 13.5 -55s12.834 -25.667 21.501 -33c5.33301 -4.66699 10.666 -8.33398 15.999 -11.001s11 -4.66699 17 -6
c1.33301 0 2.5 -0.166992 3.5 -0.5s1.83301 -0.5 2.5 -0.5c1.33301 0 2.5 -0.166992 3.5 -0.5s1.83301 -0.5 2.5 -0.5v0z" />
    <glyph glyph-name="one" unicode="1" horiz-adv-x="588" 
d="M265 0l172 644h-119l42 56h40h160l-187 -700h-40h-68v0v0z" />
    <glyph glyph-name="two" unicode="2" horiz-adv-x="588" 
d="M542 56l-15 -55.9961h-40h-437l214 179c39.333 32 73.5 60.667 102.5 86s53.5 47.333 73.5 66s37.333 36.667 52 54s27 34 37 50c3.33301 5.33301 6.16602 10.833 8.49902 16.5s4.83301 11.5 7.5 17.5c2.66699 5.33301 5 11 7 17s4 12.333 6 19
c6.66699 24.667 9.33398 46.667 8.00098 66s-6.33301 36 -15 50c-7.33301 12 -16.5 21.5 -27.5 28.5s-24.167 11.5 -39.5 13.5c-18.667 -2 -36 -6.16699 -52 -12.5s-30.667 -15.166 -44 -26.499c-16 -13.333 -29.833 -27.333 -41.5 -42s-21.834 -30 -30.501 -46l-8 -16
c-2.66699 -5.33301 -4.66699 -10.666 -6 -15.999c-2 -4.66699 -3.66699 -9.5 -5 -14.5s-2.66602 -9.83301 -3.99902 -14.5h-40h-68c8.66699 32 21.667 62.167 39 90.5s38.666 54.833 63.999 79.5c26 25.333 55.333 44.166 88 56.499s69.334 18.5 110.001 18.5h40
c31.333 0 58 -5.33301 80 -16s38.333 -26.667 49 -48c11.333 -20.667 17.833 -43.834 19.5 -69.501s-1.16602 -53.167 -8.49902 -82.5c-0.666992 -2.66699 -1.5 -5.33398 -2.5 -8.00098s-1.83301 -5 -2.5 -7c-1.33301 -5.33301 -2.83301 -10.333 -4.5 -15
s-3.5 -9.33398 -5.5 -14.001c-2.66699 -6.66699 -5.83398 -13.334 -9.50098 -20.001s-7.5 -13.334 -11.5 -20.001c-10.667 -16.667 -23 -33.5 -37 -50.5s-30.333 -34.5 -49 -52.5s-40.5 -38 -65.5 -60s-53.167 -46 -84.5 -72c-8.66699 -7.33301 -17 -14.333 -25 -21
s-15.333 -12.667 -22 -18c-7.33301 -6 -14.166 -11.5 -20.499 -16.5s-12.5 -10.167 -18.5 -15.5l-3 -3l-2 -2c-2.66699 -2 -5.16699 -4 -7.5 -6s-4.83301 -4 -7.5 -6c-2.66699 -2.66699 -5.16699 -5 -7.5 -7s-4.83301 -4 -7.5 -6c-4.66699 -4 -9.83398 -8.33301 -15.501 -13
s-11.167 -9.66699 -16.5 -15h301v0v0z" />
    <glyph glyph-name="three" unicode="3" horiz-adv-x="588" 
d="M136 175l66.999 -0.00292969c0 -2 -0.166992 -3.83301 -0.5 -5.5s-0.833008 -3.16699 -1.5 -4.5c-0.666992 -2 -1.16699 -3.83301 -1.5 -5.5s-0.5 -3.16699 -0.5 -4.5c-0.666992 -3.33301 -1 -6.83301 -1 -10.5v-10.5c0.666992 -12.667 3.16699 -24.667 7.5 -36
s10.5 -22 18.5 -32c7.33301 -8.66699 16.666 -15.334 27.999 -20.001s25 -7.66699 41 -9c19.333 1.33301 38 5.5 56 12.5s34.667 16.5 50 28.5c18.667 14 34.167 30 46.5 48s21.166 38 26.499 60c6 22.667 8.5 42.167 7.5 58.5s-5.5 29.833 -13.5 40.5
c-8.66699 10.667 -17.834 19.5 -27.501 26.5s-20.5 12.5 -32.5 16.5c-6 2 -12 3.5 -18 4.5s-12 1.83301 -18 2.5s-11.667 1.16699 -17 1.5s-10.666 0.5 -15.999 0.5h-4h-4h-6l15 56h40h1v0v0c3.33301 0 6.83301 0.333008 10.5 1s7.5 1.33398 11.5 2.00098
c14.667 2 29 6 43 12s28 13.667 42 23s26 21.833 36 37.5s18 34.5 24 56.5s7.83301 41.667 5.5 59s-8.16602 32 -17.499 44c-8.66699 10 -18.834 18 -30.501 24s-25.167 9.66699 -40.5 11c-14.667 -1.33301 -28.167 -4.5 -40.5 -9.5s-23.166 -11.167 -32.499 -18.5
c-12.667 -10 -23.667 -20.333 -33 -31s-17.666 -21.667 -24.999 -33c-2 -4 -4 -7.66699 -6 -11s-3.66699 -6.66602 -5 -9.99902c-2 -3.33301 -3.66699 -6.66602 -5 -9.99902s-2.33301 -6.66602 -3 -9.99902h-40h-63l4 12c1.33301 4 3 8 5 12s4 8.16699 6 12.5
s4.33301 8.83301 7 13.5c9.33301 17.333 21.5 34 36.5 50s31.833 31.333 50.5 46s40.334 25.667 65.001 33s52.334 11 83.001 11h40c27.333 0 51.5 -4 72.5 -12s38.833 -19.667 53.5 -35c14 -16 22.667 -35.5 26 -58.5s1 -49.833 -7 -80.5
c-1.33301 -4.66699 -2.83301 -9.16699 -4.5 -13.5s-3.16699 -8.83301 -4.5 -13.5c-0.666992 -2.66699 -1.5 -5.16699 -2.5 -7.5s-2.16699 -4.5 -3.5 -6.5c0 -1.33301 -0.166992 -2.33301 -0.5 -3s-0.833008 -1.33398 -1.5 -2.00098
c-0.666992 -2 -1.33398 -3.66699 -2.00098 -5s-1.33398 -3 -2.00098 -5c-6 -10.667 -13 -21.167 -21 -31.5s-17.333 -20.5 -28 -30.5s-23.167 -19.167 -37.5 -27.5s-30.833 -15.5 -49.5 -21.5l-1 -2c3.33301 -0.666992 6.83301 -1.83398 10.5 -3.50098
s7.83398 -3.16699 12.501 -4.5l12 -6c4 -2 8.33301 -4.33301 13 -7c8 -6 15.667 -13.5 23 -22.5s13.333 -19.5 18 -31.5c5.33301 -12 7.83301 -26.333 7.5 -43s-3.5 -35.667 -9.5 -57c-8 -30.667 -20.667 -58.667 -38 -84s-39 -47.666 -65 -66.999
s-54.167 -33.666 -84.5 -42.999s-62.5 -14 -96.5 -14l-40 -1c-34.667 0.666992 -63.5 5.5 -86.5 14.5s-40.833 22.167 -53.5 39.5c-12 18 -20 37.167 -24 57.5s-4 41.833 0 64.5v4c0 1.33301 0.333008 2.66602 1 3.99902c0 0.666992 0.166992 1.33398 0.5 2.00098
s0.5 1.66699 0.5 3c0 0.666992 0.166992 1.5 0.5 2.5s0.5 1.83301 0.5 2.5h40v0v0z" />
    <glyph glyph-name="four" unicode="4" horiz-adv-x="588" 
d="M340 0l44 165h-315l511 555h40h16l-133 -499h74l-15 -56h-74l-44 -165h-40h-64v0v0zM399 221l73 274l-248 -274h175v0v0z" />
    <glyph glyph-name="five" unicode="5" horiz-adv-x="588" 
d="M666 644l-226.997 -0.00195312l-103 -200c2.66699 0.666992 4.83398 1.16699 6.50098 1.5s3.5 0.5 5.5 0.5c1.33301 0 2.5 0.166992 3.5 0.5s1.83301 0.5 2.5 0.5c5.33301 1.33301 10.666 2.16602 15.999 2.49902s10.333 0.5 15 0.5h40c27.333 0 52.333 -4.66699 75 -14
s42.334 -23.666 59.001 -42.999c17.333 -18.667 27.833 -42.167 31.5 -70.5s0.5 -61.166 -9.5 -98.499c-10 -36 -24 -68.5 -42 -97.5s-40.667 -54.833 -68 -77.5s-56.333 -39.5 -87 -50.5s-63.334 -16.5 -98.001 -16.5l-40 -1c-2 0.666992 -3.83301 1 -5.5 1h-4.5
c-1.33301 0.666992 -2.83301 1 -4.5 1h-4.5c-3.33301 0 -6.66602 0.166992 -9.99902 0.5s-6.66602 0.833008 -9.99902 1.5c-14.667 2.66699 -28.834 6.66699 -42.501 12s-26.834 13 -39.501 23s-23.5 23.167 -32.5 39.5s-16.167 35.833 -21.5 58.5l60 29h40
c2 -8.66699 4.5 -17 7.5 -25s6.16699 -15 9.5 -21s6.66602 -11.667 9.99902 -17s7 -10 11 -14c7.33301 -6.66699 14.5 -12.5 21.5 -17.5s14.5 -8.5 22.5 -10.5c4.66699 -0.666992 9.16699 -1.5 13.5 -2.5s8.5 -1.83301 12.5 -2.5c23.333 2 44.833 7.5 64.5 16.5
s37.5 21.833 53.5 38.5c18 19.333 33.5 40.166 46.5 62.499s22.833 46.5 29.5 72.5c7.33301 26.667 10.166 50.167 8.49902 70.5s-7.83398 37.833 -18.501 52.5c-8.66699 12.667 -19.834 22.5 -33.501 29.5s-30.167 11.5 -49.5 13.5
c-2.66699 -0.666992 -6 -1.16699 -10 -1.5s-7.66699 -0.5 -11 -0.5c-1.33301 0 -2.66602 -0.166992 -3.99902 -0.5s-2.66602 -0.5 -3.99902 -0.5c-10 -0.666992 -20.167 -2.66699 -30.5 -6s-21.166 -7.66602 -32.499 -12.999l-4 -2l-4 -2
c-0.666992 -0.666992 -1.33398 -1.16699 -2.00098 -1.5s-1.33398 -0.5 -2.00098 -0.5c-2 -1.33301 -4 -2.5 -6 -3.5s-4 -2.16699 -6 -3.5c-3.33301 -2.66699 -7 -5.16699 -11 -7.5s-8 -5.16602 -12 -8.49902h-40l-17 5l179 353h40h278l-15 -56v0v0z" />
    <glyph glyph-name="six" unicode="6" horiz-adv-x="588" 
d="M582 720l45.9971 -32.0029l-268 -277c5.33301 1.33301 10.666 2.16602 15.999 2.49902s11.333 0.5 18 0.5h40c31.333 0 58.166 -5 80.499 -15s40.5 -24.667 54.5 -44c13.333 -20 21.5 -42 24.5 -66s0.833008 -50.667 -6.5 -80l-6 -18c-2 -6 -4.33301 -12 -7 -18l-4 -10
c-1.33301 -3.33301 -2.66602 -6.33301 -3.99902 -9c-2 -3.33301 -3.66699 -6.5 -5 -9.5s-2.66602 -6.16699 -3.99902 -9.5c-11.333 -19.333 -24.666 -37.833 -39.999 -55.5s-33.333 -34.5 -54 -50.5c-20 -16 -42.833 -27.833 -68.5 -35.5s-54.167 -11.5 -85.5 -11.5l-40 -1
c-34.667 0.666992 -64.167 5.83398 -88.5 15.501s-43.166 24.834 -56.499 45.501c-14 20 -22.167 43 -24.5 69s0.833984 54.667 9.50098 86c6 22 13.333 42.167 22 60.5s18.334 34.833 29.001 49.5c11.333 14.667 22.666 28.834 33.999 42.501s23.333 26.834 36 39.501l3 4
l4 4l305 323h40v0v0zM302.997 36.9971c20 2 38.666 6.99902 55.999 14.999s33.333 19 48 33c17.333 16 31.666 33.833 42.999 53.5s20.333 40.834 27 63.501c5.33301 20.667 7.16602 40 5.49902 58s-6.16699 35 -13.5 51c-6.66699 13.333 -16.667 23.833 -30 31.5
s-29.666 12.5 -48.999 14.5c-17.333 -2 -34.166 -6.33301 -50.499 -13s-32.166 -15.667 -47.499 -27c-18 -13.333 -33 -29.5 -45 -48.5s-21.333 -41.167 -28 -66.5c-6 -22.667 -8.66699 -43.667 -8 -63s5 -37.333 13 -54c7.33301 -14 17.5 -25 30.5 -33s29.167 -13 48.5 -15
v0z" />
    <glyph glyph-name="seven" unicode="7" horiz-adv-x="588" 
d="M101 5l477 639h-342l15 56h40h441l-543 -720h-40l-48 25v0v0z" />
    <glyph glyph-name="eight" unicode="8" horiz-adv-x="588" 
d="M489 377l-1.00293 -2.00195c19.333 -5.33301 36 -13.5 50 -24.5s25.333 -24.833 34 -41.5c8 -16.667 12.667 -34.667 14 -54s-1 -39.666 -7 -60.999c-7.33301 -29.333 -19.166 -56.5 -35.499 -81.5s-36.5 -48.167 -60.5 -69.5c-24.667 -20.667 -51.5 -36 -80.5 -46
s-60.5 -15 -94.5 -15l-40 -1c-34.667 0.666992 -63.834 6 -87.501 16s-41.834 25.333 -54.501 46s-20.334 43.5 -23.001 68.5s0 52.5 8 82.5c7.33301 26 17.166 49.333 29.499 70s27.833 38.334 46.5 53.001c18.667 15.333 37.5 27.666 56.5 36.999s37.833 16.333 56.5 21
l1 2c-1.33301 0 -2.83301 0.166992 -4.5 0.5s-3.16699 0.833008 -4.5 1.5s-2.5 1.33398 -3.5 2.00098s-2.16699 1.33398 -3.5 2.00098c-10.667 5.33301 -20.5 12.333 -29.5 21s-17.167 19 -24.5 31c-6.66699 12 -10.167 26.5 -10.5 43.5s2.5 36.833 8.5 59.5
c7.33301 26.667 17 50 29 70s26.667 36.667 44 50s34.666 24.5 51.999 33.5s35 15.833 53 20.5c2.66699 0.666992 5.33398 1.16699 8.00098 1.5s5.33398 0.833008 8.00098 1.5c2 0.666992 4.33301 1.16699 7 1.5s5.33398 0.833008 8.00098 1.5
c5.33301 0.666992 10.166 1.16699 14.499 1.5s8.83301 0.5 13.5 0.5h40c4 0 8.33301 -0.166992 13 -0.5s9.33398 -0.833008 14.001 -1.5c2 -0.666992 4.16699 -1.16699 6.5 -1.5s4.83301 -0.833008 7.5 -1.5s5.16699 -1.16699 7.5 -1.5s4.5 -0.833008 6.5 -1.5
c15.333 -4.66699 29.333 -11.5 42 -20.5s24.334 -20.167 35.001 -33.5c10 -13.333 15.833 -30 17.5 -50s-1.16602 -43.333 -8.49902 -70c-6 -22.667 -14 -42.5 -24 -59.5s-21.667 -31.5 -35 -43.5c-8.66699 -8 -17.5 -15.333 -26.5 -22s-18.167 -12.334 -27.5 -17.001
c-4.66699 -2.66699 -9.16699 -5 -13.5 -7s-8.83301 -4 -13.5 -6c-0.666992 -0.666992 -1.5 -1.16699 -2.5 -1.5s-1.83301 -0.5 -2.5 -0.5c-0.666992 -0.666992 -1.5 -1.16699 -2.5 -1.5s-1.83301 -0.5 -2.5 -0.5c-1.33301 -0.666992 -2.66602 -1.16699 -3.99902 -1.5
s-2.66602 -0.5 -3.99902 -0.5v0v0zM302.997 36.998c19.333 2 37.4971 6.83301 54.4971 14.5s32.5 17.834 46.5 30.501c17.333 15.333 31.833 32.333 43.5 51s20.167 38.667 25.5 60c6 22 7.83301 42.167 5.5 60.5s-8.83301 34.5 -19.5 48.5c-8 11.333 -18.333 20.5 -31 27.5
s-27 11.5 -43 13.5c-17.333 -2 -34.166 -6.33301 -50.499 -13s-32.166 -16 -47.499 -28c-17.333 -14 -32 -30 -44 -48s-21 -38.333 -27 -61c-5.33301 -21.333 -7.33301 -41.333 -6 -60s6.33301 -35.667 15 -51c8 -12.667 18.333 -22.834 31 -30.501
s28.334 -12.5 47.001 -14.5v0zM400.994 401.998c14 1.33301 27.5 4.99707 40.5 10.9971s25.5 13.667 37.5 23c15.333 12 28.333 26 39 42s18.667 34 24 54c0 0.666992 0.166992 1.33398 0.5 2.00098s0.5 1.33398 0.5 2.00098l0.5 1
c0.333008 0.666992 0.5 1.33398 0.5 2.00098v4c0 1.33301 0.333008 2.66602 1 3.99902c3.33301 14.667 4 28.667 2 42s-6 26 -12 38c-6 10 -14.333 18 -25 24s-23.667 10 -39 12c-12.667 -1.33301 -24.5 -4 -35.5 -8s-20.833 -9.33301 -29.5 -16
c-11.333 -8 -21.333 -16.5 -30 -25.5s-15.667 -18.167 -21 -27.5c-3.33301 -4.66699 -6.5 -9.5 -9.5 -14.5s-5.16699 -9.83301 -6.5 -14.5c-2.66699 -4.66699 -4.5 -9.16699 -5.5 -13.5s-2.16699 -8.16602 -3.5 -11.499c-5.33301 -20 -7 -38 -5 -54s7.66699 -30 17 -42
c8 -9.33301 16.833 -17 26.5 -23s20.5 -9.66699 32.5 -11v0z" />
    <glyph glyph-name="nine" unicode="9" horiz-adv-x="588" 
d="M192 -20l-45 31.999l267 276c-5.33301 -0.666992 -10.833 -1.16699 -16.5 -1.5s-11.5 -0.5 -17.5 -0.5h-40c-30.667 0 -57.334 4.83301 -80.001 14.5s-40.667 24.5 -54 44.5c-14 19.333 -22.333 41.333 -25 66s-0.333984 51.334 6.99902 80.001
c1.33301 5.33301 3 11 5 17s4.33301 12.333 7 19c2.66699 6 5.33398 12.167 8.00098 18.5s6 12.833 10 19.5c10.667 19.333 23.834 37.833 39.501 55.5s33.5 34.5 53.5 50.5c20.667 16 43.834 28.167 69.501 36.5s53.834 12.5 84.501 12.5h40c35.333 0 65 -5.16699 89 -15.5
s42.667 -25.5 56 -45.5c13.333 -20.667 21.333 -44 24 -70s-0.333008 -54.667 -9 -86c-6 -22.667 -13.333 -43.167 -22 -61.5s-18.334 -34.833 -29.001 -49.5s-21.834 -28.667 -33.501 -42s-23.5 -26.333 -35.5 -39l-4 -4l-3 -4l-306 -323h-40v0v0zM471 662.999
c-20.667 -2 -39.499 -7.00195 -56.499 -15.002s-33.167 -19 -48.5 -33c-16.667 -16.667 -30.667 -34.667 -42 -54s-20 -40.333 -26 -63c-5.33301 -20.667 -7.5 -40.167 -6.5 -58.5s5.83301 -35.166 14.5 -50.499c6 -13.333 15.667 -23.833 29 -31.5
s29.666 -12.5 48.999 -14.5c17.333 1.33301 34.166 5.33301 50.499 12s31.833 15.667 46.5 27c18 13.333 33.333 29.833 46 49.5s22.334 41.834 29.001 66.501c6 22.667 8.33301 43.667 7 63s-6 37.333 -14 54c-6.66699 14 -16.5 25 -29.5 33s-29.167 13 -48.5 15v0z" />
    <glyph glyph-name="colon" unicode=":" horiz-adv-x="272" 
d="M79 35c1.33301 6 3.83203 11.667 7.49902 17s8.16699 10.333 13.5 15c6 4.66699 12 8.16699 18 10.5s12.333 3.5 19 3.5h40c6 0 11.5 -1.16699 16.5 -3.5s9.16699 -5.5 12.5 -9.5c3.33301 -4.66699 5.33301 -9.66699 6 -15s0.333984 -11.333 -0.999023 -18
c-2 -6.66699 -5 -12.667 -9 -18s-8.66699 -10 -14 -14c-5.33301 -3.33301 -11 -6.16602 -17 -8.49902s-12 -3.5 -18 -3.5l-40 -1c-6.66699 0.666992 -12.5 2.16699 -17.5 4.5s-9.16699 5.16602 -12.5 8.49902c-3.33301 4 -5.33301 8.66699 -6 14s0 11.333 2 18v0v0z
M175.999 399c2 6 4.83594 11.667 8.50293 17s8.16699 10.333 13.5 15s11.166 8.16699 17.499 10.5s12.833 3.5 19.5 3.5h40c6 0 11.333 -1.16699 16 -3.5s8.66699 -5.5 12 -9.5c3.33301 -4.66699 5.5 -9.66699 6.5 -15s0.5 -11.333 -1.5 -18
c-1.33301 -6.66699 -4 -12.667 -8 -18s-8.66699 -10.333 -14 -15c-6 -4.66699 -12 -8 -18 -10s-12 -3 -18 -3h-40c-6.66699 0 -12.334 1 -17.001 3s-8.66699 5.33301 -12 10s-5.33301 9.66699 -6 15s-0.333984 11.333 0.999023 18v0v0z" />
    <glyph glyph-name="semicolon" unicode=";" horiz-adv-x="293" 
d="M10 -134l157 246h40l61 -33l-187 -230h-40l-31 17v0v0zM214 399c2 6.66699 4.83594 12.667 8.50293 18s8.16699 10.333 13.5 15c5.33301 4 11.166 7.16699 17.499 9.5s12.833 3.5 19.5 3.5h40c6 0 11.333 -1.16699 16 -3.5s8.66699 -5.5 12 -9.5
c3.33301 -4.66699 5.5 -9.66699 6.5 -15s0.5 -11.333 -1.5 -18c-1.33301 -6.66699 -4 -12.667 -8 -18s-8.66699 -10.333 -14 -15c-6 -4.66699 -12 -8 -18 -10s-12 -3 -18 -3h-40c-6.66699 0 -12.334 1 -17.001 3s-8.66699 5.33301 -12 10s-5.33301 9.66699 -6 15
s-0.333984 11.333 0.999023 18v0v0z" />
    <glyph glyph-name="less" unicode="&#x3c;" horiz-adv-x="540" 
d="M251 350l288 -164l-15 -56h-40l-346 200l11 40l453 200h40l-15 -56l-376 -164v0v0z" />
    <glyph glyph-name="equal" unicode="=" horiz-adv-x="640" 
d="M118 256l15 56h40h500l-15 -56h-40h-500v0v0zM153 388l15 56h40h500l-15 -56h-40h-500v0v0z" />
    <glyph glyph-name="greater" unicode="&#x3e;" horiz-adv-x="540" 
d="M475 350l-288 164l15 56h40l347 -200l-11 -40l-454 -200h-40l15 56l376 164v0v0z" />
    <glyph glyph-name="question" unicode="?" horiz-adv-x="499" 
d="M191 35c1.33301 6.66699 3.83203 12.667 7.49902 18s8.5 10.333 14.5 15c5.33301 4 11 7.16699 17 9.5s12.333 3.5 19 3.5h40c6.66699 0 12.5 -1.16699 17.5 -3.5s8.83301 -5.83301 11.5 -10.5c3.33301 -4.66699 5.33301 -9.66699 6 -15s0.333984 -11 -0.999023 -17
c-2 -6.66699 -4.83301 -12.667 -8.5 -18s-8.16699 -10 -13.5 -14c-5.33301 -3.33301 -11 -6.16602 -17 -8.49902s-12.333 -3.5 -19 -3.5l-40 -1c-6.66699 0.666992 -12.5 2.16699 -17.5 4.5s-9.16699 5.16602 -12.5 8.49902c-3.33301 4 -5.33301 8.66699 -6 14
s0 11.333 2 18v0v0zM251.999 538l-58.998 -0.00585938c1.33301 4 2.5 8 3.5 12s2.16699 8 3.5 12s3 8 5 12s4.33301 8.33301 7 13c8.66699 16.667 19.334 32.5 32.001 47.5s27.667 29.5 45 43.5c18 14 38.333 24.5 61 31.5s48.334 10.5 77.001 10.5h40
c25.333 0 47.5 -3.5 66.5 -10.5s34.833 -17.5 47.5 -31.5c13.333 -14 21.5 -31 24.5 -51s0.833008 -43 -6.5 -69c-4.66699 -18.667 -11.167 -35.334 -19.5 -50.001s-18.166 -27.667 -29.499 -39c-11.333 -10.667 -24.166 -21 -38.499 -31s-30.166 -19.667 -47.499 -29
c-2 -1.33301 -4.16699 -2.66602 -6.5 -3.99902s-4.83301 -2.33301 -7.5 -3c-2.66699 -1.33301 -5.16699 -2.5 -7.5 -3.5s-4.5 -2.16699 -6.5 -3.5c-4.66699 -2.66699 -9.33398 -5.16699 -14.001 -7.5s-9.66699 -4.5 -15 -6.5c-9.33301 -4 -17.833 -8 -25.5 -12
s-15.167 -7.66699 -22.5 -11c-6.66699 -4 -13.167 -7.66699 -19.5 -11s-12.166 -6.66602 -17.499 -9.99902c-8.66699 -5.33301 -16.334 -10.833 -23.001 -16.5s-12.667 -11.167 -18 -16.5c-4.66699 -5.33301 -8.66699 -11.333 -12 -18s-6.33301 -14 -9 -22l-1 -5v-5
c-2 -8 -2.16699 -15.667 -0.5 -23s5.16699 -14.333 10.5 -21c3.33301 -5.33301 8.16602 -9.5 14.499 -12.5s14.166 -5.16699 23.499 -6.5c9.33301 1.33301 17.833 3.33301 25.5 6s14.834 6.33398 21.501 11.001c8.66699 6 16.167 12.333 22.5 19s11.5 13.334 15.5 20.001
c1.33301 2.66699 2.5 5.16699 3.5 7.5s2.16699 4.83301 3.5 7.5c0 1.33301 0.166992 2.5 0.5 3.5s0.833008 2.16699 1.5 3.5c0.666992 0.666992 1.16699 1.66699 1.5 3s0.5 2.33301 0.5 3h40h55c-0.666992 -4 -1.83398 -8 -3.50098 -12s-3.16699 -8 -4.5 -12
c-0.666992 -2.66699 -1.83398 -5.33398 -3.50098 -8.00098s-3.16699 -5.33398 -4.5 -8.00098l-2 -4l-2 -4c-6.66699 -12 -15 -23.333 -25 -34s-21.667 -20.667 -35 -30c-12.667 -10 -27.834 -17.333 -45.501 -22s-37.5 -7 -59.5 -7h-40h-5.5h-4.5h-5
c-1.33301 0 -2.66602 0.333008 -3.99902 1c-16.667 1.33301 -31.667 5 -45 11s-25.666 14 -36.999 24s-18.333 22.333 -21 37s-1.66699 31.334 3 50.001c5.33301 17.333 11.833 33 19.5 47s16.834 26 27.501 36s22.834 19.667 36.501 29s28.834 18.333 45.501 27
c4 2 8.16699 4.16699 12.5 6.5s8.83301 4.83301 13.5 7.5c4.66699 2 9.66699 4.33301 15 7l16 8c9.33301 4 18 8 26 12l22 11c6.66699 3.33301 13 6.83301 19 10.5s11.667 7.5 17 11.5c9.33301 6 17.666 12.167 24.999 18.5s13.666 12.833 18.999 19.5
c4.66699 6.66699 9.16699 14.334 13.5 23.001s7.83301 18.334 10.5 29.001c3.33301 14 5 26.5 5 37.5s-2 19.833 -6 26.5c-4.66699 7.33301 -9.33398 13.5 -14.001 18.5s-10 8.83301 -16 11.5c-4.66699 2 -9.33398 3.66699 -14.001 5s-9.33398 2.33301 -14.001 3h-1.5h-0.5
c-0.666992 0 -1.16699 0.166992 -1.5 0.5s-0.833008 0.5 -1.5 0.5c-12 -1.33301 -22.833 -3.83301 -32.5 -7.5s-18.167 -8.16699 -25.5 -13.5c-10.667 -6.66699 -20.334 -14 -29.001 -22s-15.667 -16 -21 -24c-4 -6 -7.5 -11.667 -10.5 -17s-5.83301 -10.666 -8.5 -15.999
c-2 -4.66699 -3.83301 -9.16699 -5.5 -13.5s-2.83398 -8.16602 -3.50098 -11.499h-40v0v0z" />
    <glyph glyph-name="at" unicode="@" horiz-adv-x="918" 
d="M820 530l-125.993 -259.001c-0.666992 -2 -1.5 -4 -2.5 -6s-1.83301 -4 -2.5 -6s-1.33398 -3.83301 -2.00098 -5.5s-1.33398 -3.16699 -2.00098 -4.5c-1.33301 -6.66699 -2.16602 -12.5 -2.49902 -17.5s0.5 -9.16699 2.5 -12.5s4.33301 -6.33301 7 -9
s5.33398 -4.66699 8.00098 -6h0.5h0.5c0 -0.666992 0.166992 -1 0.5 -1h0.5c1.33301 0.666992 3 1.16699 5 1.5s4 0.833008 6 1.5c13.333 4 26.666 10.5 39.999 19.5s26.666 20.5 39.999 34.5c14 14 25.833 30.167 35.5 48.5s17.834 38.833 24.501 61.5
c13.333 49.333 16.666 92.5 9.99902 129.5s-23 67.5 -49 91.5c-24 22 -51.167 39.167 -81.5 51.5s-64.166 19.166 -101.499 20.499c-36.667 -2 -73.334 -9.83301 -110.001 -23.5s-72.667 -33.167 -108 -58.5c-38.667 -27.333 -70.834 -60.333 -96.501 -99
s-45.167 -82.667 -58.5 -132c-14 -52 -18.5 -97.667 -13.5 -137s19.5 -72.333 43.5 -99s51.333 -47 82 -61s64.667 -22 102 -24v0h1v0v0c12.667 0.666992 24.667 2 36 4s22.333 4.66699 33 8c14.667 4.66699 28.334 9.66699 41.001 15s24.667 11.333 36 18h40l18 -44
c-4.66699 -2.66699 -9.33398 -5.16699 -14.001 -7.5s-9.33398 -4.5 -14.001 -6.5c-2.66699 -0.666992 -5 -1.5 -7 -2.5l-7 -3.5c-6.66699 -2.66699 -13.167 -5 -19.5 -7s-12.5 -3.66699 -18.5 -5c-10 -3.33301 -20 -6 -30 -8s-19.667 -3.33301 -29 -4
c-6 -0.666992 -12.5 -1.33398 -19.5 -2.00098s-13.833 -1 -20.5 -1c-3.33301 -0.666992 -6.66602 -1 -9.99902 -1h-10l-40 -1c-62.667 0.666992 -115.167 9.83398 -157.5 27.501s-74.5 44.834 -96.5 81.501c-22.667 36 -36.167 75.667 -40.5 119s0.166992 90.333 13.5 141
c15.333 56.667 38.166 107.5 68.499 152.5s68.5 84.167 114.5 117.5c45.333 33.333 91.833 58.333 139.5 75s96.5 25 146.5 25h40c54.667 0 101 -6.33301 139 -19s68 -31.667 90 -57c21.333 -25.333 37.833 -52 49.5 -80s18.5 -57 20.5 -87
c0 -9.33301 -0.166992 -18.5 -0.5 -27.5s-0.833008 -18.167 -1.5 -27.5c-1.33301 -8.66699 -2.83301 -17.5 -4.5 -26.5s-3.5 -17.5 -5.5 -25.5c-8 -28.667 -18.5 -54.5 -31.5 -77.5s-28.833 -42.833 -47.5 -59.5s-37 -30.667 -55 -42s-36 -20 -54 -26
c-4.66699 -1.33301 -9.16699 -2.66602 -13.5 -3.99902s-8.5 -2.66602 -12.5 -3.99902c-2 0 -4.16699 -0.166992 -6.5 -0.5s-4.5 -0.833008 -6.5 -1.5c-6.66699 -0.666992 -12.5 -1.33398 -17.5 -2.00098s-10.167 -1 -15.5 -1h-40c-12 0 -22 1.16699 -30 3.5
s-14.333 5.83301 -19 10.5c-3.33301 3.33301 -6.33301 6.83301 -9 10.5s-4.66699 7.5 -6 11.5c-4.66699 -2.66699 -9.66699 -5.5 -15 -8.5s-10.666 -5.83301 -15.999 -8.5c-12.667 -6.66699 -26.167 -11.5 -40.5 -14.5s-29.833 -4.5 -46.5 -4.5h-40
c-24.667 0 -45.334 3.83301 -62.001 11.5s-29 18.834 -37 33.501c-8 15.333 -12.5 32.166 -13.5 50.499s1.16699 37.833 6.5 58.5c1.33301 3.33301 2.66602 7 3.99902 11l4 12l2 6l2 6c1.33301 1.33301 2.5 3 3.5 5s1.83301 4 2.5 6c11.333 24 25.666 46.833 42.999 68.5
s38 42.5 62 62.5c23.333 20 48 35 74 45s53 15 81 15h40c16.667 0 30.667 -1.5 42 -4.5s20.333 -7.16699 27 -12.5c1.33301 -0.666992 2.16602 -1.16699 2.49902 -1.5l1.5 -1.5l4 7h40h60v0v0zM472.007 200.999c14.667 2.66699 28.334 6.8291 41.001 12.4961
s24.334 13.167 35.001 22.5c13.333 11.333 25.5 23.333 36.5 36s20.833 26 29.5 40c5.33301 8 10.166 16 14.499 24s8.16602 16 11.499 24s6.33301 15.333 9 22s4.66699 12.667 6 18c3.33301 12.667 4.66602 24.5 3.99902 35.5s-2.66699 21.167 -6 30.5
c-2.66699 7.33301 -7.16699 13.333 -13.5 18s-14.5 8 -24.5 10c-18.667 -2.66699 -36.5 -8.33398 -53.5 -17.001s-33.167 -20.667 -48.5 -36c-18.667 -18 -34.5 -37 -47.5 -57s-23.167 -40.667 -30.5 -62c-0.666992 -1.33301 -1.16699 -2.66602 -1.5 -3.99902
s-0.5 -2.66602 -0.5 -3.99902l-2 -6c-4.66699 -17.333 -7 -32.666 -7 -45.999s3 -24.666 9 -33.999c4 -7.33301 9.33301 -13.166 16 -17.499s14.334 -7.5 23.001 -9.5v0z" />
    <glyph glyph-name="A" unicode="A" horiz-adv-x="689" 
d="M11 0l506 720h40l121 -720h-40h-70l-36 228h-253l-158 -228h-40h-70v0v0zM318 284h205l-38 240l-167 -240v0z" />
    <glyph glyph-name="B" unicode="B" horiz-adv-x="604" 
d="M315 700l144.002 0.000976562h2h2c5.33301 0 11.666 -0.166992 18.999 -0.5s15.666 -0.833008 24.999 -1.5c8.66699 -0.666992 17.667 -1.66699 27 -3s19 -3.33301 29 -6c14 -4 26.833 -10 38.5 -18s22.167 -17.667 31.5 -29s14.833 -26 16.5 -44
s-0.833008 -39.333 -7.5 -64c-4.66699 -18.667 -11.834 -35.834 -21.501 -51.501s-21.167 -30.167 -34.5 -43.5s-27.5 -24.833 -42.5 -34.5s-30.833 -17.5 -47.5 -23.5l-1 -2c2 0 4.16699 -0.166992 6.5 -0.5s4.83301 -0.833008 7.5 -1.5
c2 -0.666992 4.16699 -1.16699 6.5 -1.5s4.83301 -0.5 7.5 -0.5c15.333 -4 29.333 -10.5 42 -19.5s24.334 -20.5 35.001 -34.5c9.33301 -14 14.833 -31.167 16.5 -51.5s-1.16602 -43.5 -8.49902 -69.5c-8.66699 -32.667 -20.834 -61 -36.501 -85s-35.167 -43.667 -58.5 -59
c-8 -4.66699 -15.833 -9.16699 -23.5 -13.5s-15.5 -8.5 -23.5 -12.5c-15.333 -7.33301 -30.833 -13.333 -46.5 -18s-31.5 -8 -47.5 -10c-3.33301 -0.666992 -6.83301 -1.16699 -10.5 -1.5s-7.16699 -0.5 -10.5 -0.5h-40h-11h-10h-5h-4h-5h-4h-184l187 700h40v0v0z
M211.002 56.001h76c31.333 0 59 3.5 83 10.5s44.333 17.833 61 32.5c16.667 14 30.334 29 41.001 45s18.667 32.667 24 50l1 3l1 3c6 21.333 7.66699 40.833 5 58.5s-9.33398 33.167 -20.001 46.5s-26.167 23.333 -46.5 30s-45.5 10 -75.5 10h-73l-77 -289v0z
M303.002 401.001h48.999c1.33301 0 4.33301 0.166992 9 0.5s10.334 0.833008 17.001 1.5c7.33301 0.666992 15.166 2 23.499 4s16.833 4.66699 25.5 8c10 4 20 9.16699 30 15.5s20 13.833 30 22.5c10 9.33301 18.667 20.5 26 33.5s13.333 27.833 18 44.5
c4 14.667 5.16699 28.5 3.5 41.5s-6.16699 25.167 -13.5 36.5c-6.66699 11.333 -18.667 20 -36 26s-39.666 9 -66.999 9h-50l-65 -243v0z" />
    <glyph glyph-name="C" unicode="C" horiz-adv-x="740" 
d="M749 140l-20.998 -78.0049l-12.5 -7.5c-5 -3 -10.167 -6.16699 -15.5 -9.5c-6 -3.33301 -12.667 -6.83301 -20 -10.5s-15.333 -7.16699 -24 -10.5c-12.667 -5.33301 -26.5 -10.5 -41.5 -15.5s-31.167 -9.16699 -48.5 -12.5c-16.667 -4.66699 -34.667 -8.16699 -54 -10.5
s-39.666 -3.5 -60.999 -3.5l-40 -1c-56 0.666992 -103.667 10 -143 28s-70 45.333 -92 82c-22 37.333 -35.167 77.5 -39.5 120.5s-0.166016 89.167 12.501 138.5c15.333 57.333 38.166 108.5 68.499 153.5s68.166 83.833 113.499 116.5
c45.333 33.333 91.166 58.333 137.499 75s93.166 25 140.499 25h40c18 0 36.5 -1.16699 55.5 -3.5s38.5 -6.16602 58.5 -11.499c20.667 -4.66699 41 -12.834 61 -24.501s39.333 -26.5 58 -44.5l-21 -79h-40c-12.667 16 -26.5 30.333 -41.5 43s-31.833 24 -50.5 34
c-15.333 8.66699 -32.5 15.5 -51.5 20.5s-39.5 7.83301 -61.5 8.5c-38.667 -2 -75.667 -10.667 -111 -26s-69 -37.333 -101 -66c-34 -30.667 -62.5 -63 -85.5 -97s-40.5 -69.667 -52.5 -107c-0.666992 -1.33301 -1.16699 -2.83301 -1.5 -4.5s-0.833008 -3.16699 -1.5 -4.5
c0 -1.33301 -0.166992 -2.66602 -0.5 -3.99902s-0.833008 -2.66602 -1.5 -3.99902c-10.667 -40 -14.167 -78 -10.5 -114s13.834 -70.333 30.501 -103c16 -30 37.833 -53 65.5 -69s61.167 -25 100.5 -27c7.33301 0.666992 14.333 1.33398 21 2.00098
s13.667 1.33398 21 2.00098c14 2.66699 28 5.83398 42 9.50098s28 8.16699 42 13.5c24.667 9.33301 48.167 20.333 70.5 33s44.166 27 65.499 43h40v0v0z" />
    <glyph glyph-name="D" unicode="D" horiz-adv-x="740" 
d="M88 0l187.003 700.006h40h174c59.333 0 109.166 -7.16699 149.499 -21.5s71.166 -35.833 92.499 -64.5s37 -58.667 47 -90s14 -64 12 -98c-0.666992 -3.33301 -1.16699 -6.66602 -1.5 -9.99902s-0.5 -6.33301 -0.5 -9c-0.666992 -3.33301 -1.16699 -6.5 -1.5 -9.5
s-0.833008 -6.16699 -1.5 -9.5c-0.666992 -6.66699 -1.83398 -13.167 -3.50098 -19.5s-3.16699 -12.5 -4.5 -18.5c-0.666992 -2.66699 -1.5 -5.33398 -2.5 -8.00098s-1.83301 -5.33398 -2.5 -8.00098s-1.5 -5.33398 -2.5 -8.00098s-1.83301 -5.33398 -2.5 -8.00098
s-1.5 -5.33398 -2.5 -8.00098s-2.16699 -5 -3.5 -7c-0.666992 -2.66699 -1.5 -5.33398 -2.5 -8.00098s-2.16699 -5.33398 -3.5 -8.00098c-15.333 -36 -36.333 -70.5 -63 -103.5s-58.667 -64.5 -96 -94.5c-36.667 -30 -79.5 -52.333 -128.5 -67s-104.167 -22 -165.5 -22h-40
h-174v0v0zM211.003 56.0059h58.999c58 0 109.5 7.5 154.5 22.5s83.5 37.5 115.5 67.5c31.333 30 57.5 62 78.5 96s36.5 70 46.5 108c11.333 43.333 14.833 82.5 10.5 117.5s-16.833 66.167 -37.5 93.5s-48.667 48 -84 62s-77.666 21 -126.999 21h-59l-157 -588v0z" />
    <glyph glyph-name="E" unicode="E" horiz-adv-x="559" 
d="M88 0l187 700h40h375l-15 -56h-307l-60 -224h296l-15 -56h-296l-82 -308h307l-15 -56h-40h-375v0v0z" />
    <glyph glyph-name="F" unicode="F" horiz-adv-x="490" 
d="M88 0l187 700h40h330l-15 -56h-262l-60 -224h255l-15 -56h-255l-97 -364h-40h-68v0v0z" />
    <glyph glyph-name="G" unicode="G" horiz-adv-x="855" 
d="M566 340l324.002 -0.00195312c-2 -7.33301 -4.33301 -14.666 -7 -21.999l-8 -22c-0.666992 -2.66699 -1.5 -5.33398 -2.5 -8.00098s-1.83301 -5.33398 -2.5 -8.00098c-2 -5.33301 -4.33301 -10.666 -7 -15.999l-8 -16c-2.66699 -6 -5.33398 -11.667 -8.00098 -17
s-5.66699 -10.666 -9 -15.999c-16.667 -29.333 -36.667 -57.5 -60 -84.5s-50.333 -52.5 -81 -76.5c-30.667 -24.667 -66.167 -42.834 -106.5 -54.501s-85.166 -17.5 -134.499 -17.5l-40 -1c-52.667 0.666992 -98.834 9 -138.501 25s-72.167 40.333 -97.5 73
c-26 32.667 -41.5 71.334 -46.5 116.001s-0.166992 95.334 14.5 152.001c16 58 38.333 109.833 67 155.5s64.334 84.834 107.001 117.501c42 33.333 86 58.333 132 75s93.333 25 142 25h40c33.333 0 64.166 -3.66699 92.499 -11s53.833 -18 76.5 -32
c22 -14 41.167 -30.833 57.5 -50.5s29.5 -42.167 39.5 -67.5l-62 -38h-40l-2 4l-2 4l-2 4l-2 4c-0.666992 3.33301 -1.83398 6.5 -3.50098 9.5s-3.5 5.83301 -5.5 8.5c-8 13.333 -17.833 26.333 -29.5 39s-25.5 24.667 -41.5 36c-14 9.33301 -30.167 17 -48.5 23
s-39.166 9.33301 -62.499 10c-38.667 -2 -75.334 -10.833 -110.001 -26.5s-67.334 -37.834 -98.001 -66.501c-32.667 -31.333 -60 -65.5 -82 -102.5s-39 -77.167 -51 -120.5c-11.333 -44.667 -15.5 -85.5 -12.5 -122.5s13.5 -70.167 31.5 -99.5
c16.667 -27.333 39 -48.333 67 -63s62.333 -23 103 -25c36.667 1.33301 71.167 8.33301 103.5 21s62.833 30.667 91.5 54c30.667 25.333 55.834 52.333 75.501 81s34.167 59 43.5 91h-252l15 56h40v0v0z" />
    <glyph glyph-name="H" unicode="H" horiz-adv-x="755" 
d="M88 0l187 700h40h68l-77 -287h363l77 287h40h68l-187 -700h-40h-68l95 357h-363l-95 -357h-40h-68v0v0z" />
    <glyph glyph-name="I" unicode="I" horiz-adv-x="284" 
d="M88 0l187 700h40h68l-187 -700h-40h-68v0v0z" />
    <glyph glyph-name="J" unicode="J" horiz-adv-x="453" 
d="M100 47l55.0068 45.002h40l3 -6l3 -5c6 -10 12.5 -18 19.5 -24s14.167 -10.333 21.5 -13c1.33301 -0.666992 2.66602 -1.16699 3.99902 -1.5s2.66602 -0.833008 3.99902 -1.5c2.66699 -0.666992 5.5 -1.33398 8.5 -2.00098s5.5 -1.33398 7.5 -2.00098
c16 2 30 6.5 42 13.5s21.667 16.167 29 27.5c9.33301 14 18 30.167 26 48.5s15 38.833 21 61.5l137 512h40h68l-138 -516l-2 -6l-2 -6c-0.666992 -2.66699 -1.33398 -5 -2.00098 -7l-2 -6c-0.666992 -2 -1.33398 -4.16699 -2.00098 -6.5s-1.33398 -4.5 -2.00098 -6.5
c-0.666992 -2.66699 -1.33398 -5 -2.00098 -7l-2 -6c-6.66699 -18.667 -15.667 -36.834 -27 -54.501s-24.666 -34.5 -39.999 -50.5c-14.667 -15.333 -34 -26.833 -58 -34.5s-52 -11.5 -84 -11.5l-40 -1c-12 0.666992 -23 1.83398 -33 3.50098s-19.333 4.16699 -28 7.5
c-8.66699 2.66699 -16.834 6.5 -24.501 11.5s-14.834 11.5 -21.501 19.5c-2 1.33301 -3.83301 3 -5.5 5s-3.16699 4 -4.5 6s-2.83301 4 -4.5 6s-3.16699 4.33301 -4.5 7v0v0z" />
    <glyph glyph-name="K" unicode="K" horiz-adv-x="611" 
d="M88 0l187 700h40h68l-76 -283l349 283h40h84l-423 -339l243 -361h-40h-91l-194 297l-79 -297h-40h-68v0v0z" />
    <glyph glyph-name="L" unicode="L" horiz-adv-x="433" 
d="M88 0l187 700h40h68l-172 -644h226l-15 -56h-40h-294v0v0z" />
    <glyph glyph-name="M" unicode="M" horiz-adv-x="898" 
d="M42 0l290 728h40l116 -581l428 581h40l-100 -728h-40h-63l62 451l-354 -479h-40l-98 479l-178 -451h-40h-63v0v0z" />
    <glyph glyph-name="N" unicode="N" horiz-adv-x="815" 
d="M88 0l195 728h40l346 -541l137 513h40h68l-195 -728h-40l-346 541l-137 -513h-40h-68v0v0z" />
    <glyph glyph-name="O" unicode="O" horiz-adv-x="908" 
d="M149 350c13.333 50 34.332 96.667 62.999 140s65 83.333 109 120s91.333 64.167 142 82.5s105 27.5 163 27.5h40c50 0 94.833 -8.33301 134.5 -25s74.167 -41.667 103.5 -75c29.333 -32.667 47.333 -71.5 54 -116.5s2.33398 -96.167 -12.999 -153.5
c-14.667 -56.667 -37.5 -107.5 -68.5 -152.5s-70.167 -84.167 -117.5 -117.5c-46.667 -32.667 -94.334 -57.167 -143.001 -73.5s-98 -24.5 -148 -24.5l-40 -1c-50.667 0.666992 -96 9.16699 -136 25.5s-74.333 40.833 -103 73.5c-28.667 33.333 -46.167 72.5 -52.5 117.5
s-2.16602 95.833 12.501 152.5v0v0zM260.999 350c-12.667 -47.333 -16.5 -90 -11.5 -128s18.833 -71.333 41.5 -100c20.667 -26.667 45.167 -47 73.5 -61s60.833 -22 97.5 -24c38 2 75.333 10 112 24s72.334 34.333 107.001 61c37.333 28.667 68.833 62 94.5 100
s44.834 80.667 57.501 128c13.333 47.333 17.333 90 12 128s-19.333 71.333 -42 100c-20.667 26 -45.334 46.167 -74.001 60.5s-61.334 22.5 -98.001 24.5c-38 -2 -75.167 -10.167 -111.5 -24.5s-71.833 -34.5 -106.5 -60.5c-38 -28.667 -69.667 -62 -95 -100
s-44.333 -80.667 -57 -128v0v0z" />
    <glyph glyph-name="P" unicode="P" horiz-adv-x="578" 
d="M88 0l187.001 699.999h40h194c6 0 12.333 -0.166992 19 -0.5s13.667 -0.833008 21 -1.5c6.66699 -0.666992 13.667 -1.66699 21 -3s14.666 -3 21.999 -5c14 -4.66699 27 -11.167 39 -19.5s22.667 -19.166 32 -32.499c9.33301 -12.667 14.5 -29.334 15.5 -50.001
s-2.16699 -45 -9.5 -73c-7.33301 -28.667 -17 -53.167 -29 -73.5s-26.333 -37.166 -43 -50.499c-16.667 -12.667 -33.167 -23.5 -49.5 -32.5s-32.833 -15.5 -49.5 -19.5c-8.66699 -2 -17 -3.66699 -25 -5s-15.667 -2.33301 -23 -3c-8 -0.666992 -15.333 -1.16699 -22 -1.5
s-12.667 -0.5 -18 -0.5h-126l-88 -329h-40h-68v0v0zM368.001 643.999l-69.001 -259h83h13c4.66699 0 9.33398 0.333008 14.001 1c5.33301 0.666992 10.833 1.5 16.5 2.5s11.834 2.16699 18.501 3.5c10.667 3.33301 21.5 8 32.5 14s22.167 13.333 33.5 22
c11.333 9.33301 21.166 21.166 29.499 35.499s14.833 31.5 19.5 51.5c5.33301 19.333 7.83301 36.333 7.5 51s-3.83301 26.334 -10.5 35.001c-6.66699 9.33301 -14 17 -22 23s-16.667 10.333 -26 13c-1.33301 0.666992 -3 1 -5 1s-3.66699 0.333008 -5 1l-10 2
c-3.33301 0.666992 -6.66602 1 -9.99902 1c-4.66699 0.666992 -9.33398 1.16699 -14.001 1.5s-9 0.5 -13 0.5h-83v0v0z" />
    <glyph glyph-name="Q" unicode="Q" horiz-adv-x="908" 
d="M771 -49h-70.001l-41 70c-6 -2.66699 -12.167 -5.33398 -18.5 -8.00098s-12.5 -5 -18.5 -7s-12.167 -3.83301 -18.5 -5.5s-12.5 -3.16699 -18.5 -4.5c-16.667 -4.66699 -35 -8.16699 -55 -10.5s-41 -3.5 -63 -3.5l-40 -1c-50.667 0.666992 -96 9.16699 -136 25.5
s-74.333 40.833 -103 73.5c-28.667 33.333 -46.167 72.5 -52.5 117.5s-2.16602 95.833 12.501 152.5c15.333 57.333 38.333 108.5 69 153.5s69.334 83.833 116.001 116.5c46 33.333 93.5 58.333 142.5 75s98.833 25 149.5 25h40c50 0 94.833 -8.33301 134.5 -25
s74.167 -41.667 103.5 -75c29.333 -32.667 47.333 -71.5 54 -116.5s2.33398 -96.167 -12.999 -153.5c-6.66699 -26.667 -16.334 -53.167 -29.001 -79.5s-27.667 -52.166 -45 -77.499c-16.667 -24.667 -35.834 -47.5 -57.501 -68.5s-45.5 -39.833 -71.5 -56.5l69 -117h-40v0
v0zM627.999 259l72.0049 -121.999c13.333 11.333 26.166 23.833 38.499 37.5s23.833 28.167 34.5 43.5c13.333 20.667 25.166 42 35.499 64s18.5 44.667 24.5 68c13.333 47.333 17.333 90 12 128s-19.333 71.333 -42 100c-20.667 26 -45.334 46.167 -74.001 60.5
s-61.334 22.5 -98.001 24.5c-38 -2 -75.167 -10.167 -111.5 -24.5s-71.833 -34.5 -106.5 -60.5c-38 -28.667 -69.667 -62 -95 -100s-44.333 -80.667 -57 -128s-16.5 -90 -11.5 -128s18.833 -71.333 41.5 -100c21.333 -26.667 46.5 -47.167 75.5 -61.5
s61.833 -22.5 98.5 -24.5c15.333 1.33301 29.666 3 42.999 5s26 5 38 9c14.667 5.33301 28.5 10.666 41.5 15.999s24.833 11 35.5 17l-105 176h40h70v0v0z" />
    <glyph glyph-name="R" unicode="R" horiz-adv-x="556" 
d="M88 0l186.999 699.996h40h187c5.33301 0 11.333 -0.166992 18 -0.5s13.667 -1.16602 21 -2.49902c3.33301 -0.666992 6.5 -1.16699 9.5 -1.5s6.16699 -1.16602 9.5 -2.49902c4 -1.33301 8.33301 -2.66602 13 -3.99902s9.66699 -3 15 -5c12 -4.66699 23 -11.667 33 -21
s19 -20.666 27 -33.999c7.33301 -12.667 11.333 -29 12 -49s-2.66602 -43 -9.99902 -69c-6 -22.667 -15.667 -44.5 -29 -65.5s-30.666 -40.833 -51.999 -59.5c-20.667 -18.667 -46.834 -33.167 -78.501 -43.5s-68.5 -16.833 -110.5 -19.5l162 -323h-40h-80l-145 303
l-81 -303h-40h-68v0v0zM296.999 377.996h29.998c34.667 0 64.5 3.33301 89.5 10s45.5 16.334 61.5 29.001c15.333 13.333 28.333 27.666 39 42.999s18.334 32.333 23.001 51c8 28.667 10.167 52 6.5 70s-12.5 31 -26.5 39c-14.667 8 -30.667 14 -48 18s-36.666 6 -57.999 6
h-46l-71 -266v0z" />
    <glyph glyph-name="S" unicode="S" horiz-adv-x="561" 
d="M647 614l-62.9971 -31.999h-40v5l-2 5c-2.66699 9.33301 -6.5 18 -11.5 26s-11.167 15.667 -18.5 23c-6.66699 6 -14.334 10.833 -23.001 14.5s-18.667 6.16699 -30 7.5c-13.333 -1.33301 -25.333 -3.83301 -36 -7.5s-20 -8.16699 -28 -13.5
c-10.667 -6.66699 -20.334 -14 -29.001 -22s-15.667 -16 -21 -24c-2.66699 -3.33301 -5 -6.66602 -7 -9.99902s-3.66699 -6.66602 -5 -9.99902s-2.5 -6.5 -3.5 -9.5s-1.83301 -6.16699 -2.5 -9.5c-4.66699 -18 -5.66699 -33.833 -3 -47.5s9.33398 -25.5 20.001 -35.5
c10 -10 21.167 -19.333 33.5 -28s25.833 -16.667 40.5 -24l6 -4c2 -1.33301 4.33301 -2.66602 7 -3.99902c0.666992 0 1.5 -0.333008 2.5 -1s1.83301 -1 2.5 -1c0 -0.666992 0.333008 -1 1 -1h1l4 -2l4 -2l4 -3l5 -2c18.667 -10.667 36 -22.167 52 -34.5s31 -25.5 45 -39.5
c14.667 -14.667 23.5 -33.167 26.5 -55.5s0.166992 -48.5 -8.5 -78.5c-7.33301 -28.667 -19.5 -55.5 -36.5 -80.5s-38.5 -48.167 -64.5 -69.5c-25.333 -20.667 -53.166 -36.167 -83.499 -46.5s-62.833 -15.5 -97.5 -15.5l-40 -1c-24.667 0.666992 -46.5 3.66699 -65.5 9
s-34.833 12.666 -47.5 21.999c-12.667 10 -23.667 20.667 -33 32s-16.666 23.333 -21.999 36c-0.666992 2.66699 -1.5 5.16699 -2.5 7.5s-2.16699 4.83301 -3.5 7.5c-0.666992 2 -1.33398 4.16699 -2.00098 6.5s-1.33398 4.83301 -2.00098 7.5
c-2 5.33301 -3.33301 10.166 -4 14.499s-1.33398 8.83301 -2.00098 13.5l73 32h40c-0.666992 -1.33301 -1 -2.83301 -1 -4.5s0.333008 -3.16699 1 -4.5c0 -0.666992 0.166992 -1.33398 0.5 -2.00098s0.5 -1.33398 0.5 -2.00098s0.166992 -1.33398 0.5 -2.00098
s0.5 -1.33398 0.5 -2.00098c2 -14.667 6 -28.667 12 -42s14 -26 24 -38c8 -10 18.167 -18 30.5 -24s26.5 -9.66699 42.5 -11c18.667 2 36.334 6.66699 53.001 14s32.334 17.333 47.001 30c17.333 15.333 31.833 32.166 43.5 50.499s20.167 37.833 25.5 58.5
c4.66699 16 6.83398 30.333 6.50098 43s-3.16602 23.667 -8.49902 33c-4.66699 9.33301 -11.334 18.666 -20.001 27.999s-19 18.333 -31 27c-4.66699 2.66699 -9.16699 5.33398 -13.5 8.00098s-8.83301 5.33398 -13.5 8.00098
c-2.66699 1.33301 -5.33398 2.83301 -8.00098 4.5s-5.33398 3.16699 -8.00098 4.5s-5.33398 2.83301 -8.00098 4.5s-5.33398 3.16699 -8.00098 4.5c-20.667 11.333 -39.834 23.333 -57.501 36s-33.834 26.334 -48.501 41.001s-23.834 32.167 -27.501 52.5
s-2.16699 43.833 4.5 70.5c0.666992 1.33301 1.16699 2.5 1.5 3.5s0.5 2.16699 0.5 3.5c1.33301 3.33301 2.5 7 3.5 11s2.5 8 4.5 12c2.66699 5.33301 5.5 10.666 8.5 15.999s6.16699 10.666 9.5 15.999c8.66699 13.333 19.167 25.833 31.5 37.5s26.833 22.834 43.5 33.501
s36 18.667 58 24s47 8 75 8h40c5.33301 0 11.333 -0.166992 18 -0.5s13.667 -1.16602 21 -2.49902c7.33301 -0.666992 14.5 -1.83398 21.5 -3.50098s14.167 -4.16699 21.5 -7.5c8 -3.33301 15.833 -7.66602 23.5 -12.999s14.834 -11.666 21.501 -18.999
c6.66699 -6.66699 12.334 -15 17.001 -25s8.33398 -21.667 11.001 -35v0v0z" />
    <glyph glyph-name="T" unicode="T" horiz-adv-x="504" 
d="M198 0l172 644h-187l15 56h40h442l-15 -56h-187l-172 -644h-40h-68v0v0z" />
    <glyph glyph-name="U" unicode="U" horiz-adv-x="691" 
d="M304 700h67.999l-120 -449c-10 -36 -14.667 -67.167 -14 -93.5s6.66699 -47.5 18 -63.5s24.166 -28.667 38.499 -38s30.833 -15.333 49.5 -18c0.666992 0 1.5 -0.166992 2.5 -0.5s1.83301 -0.5 2.5 -0.5c0.666992 -0.666992 1.5 -1 2.5 -1h2.5
c2.66699 0 5.33398 0.166992 8.00098 0.5s5.66699 0.833008 9 1.5c18.667 3.33301 37.5 9.66602 56.5 18.999s38.167 22 57.5 38s36.333 37 51 63s27 57 37 93l120 449h40h68l-118 -439c-11.333 -44 -25.5 -82 -42.5 -114s-36.833 -58 -59.5 -78
c-14.667 -13.333 -29.334 -25 -44.001 -35s-29.334 -18.667 -44.001 -26c-7.33301 -3.33301 -14.666 -6.16602 -21.999 -8.49902s-14.666 -4.5 -21.999 -6.5c-8.66699 -2 -16.834 -3.66699 -24.501 -5s-15.167 -2.33301 -22.5 -3
c-7.33301 -1.33301 -14.666 -2.16602 -21.999 -2.49902s-14 -0.5 -20 -0.5l-40 -1c-6.66699 0.666992 -13.167 1.16699 -19.5 1.5s-13.166 1.16602 -20.499 2.49902c-2 0 -4.33301 0.333008 -7 1s-5 1 -7 1c-4.66699 0.666992 -9.33398 1.5 -14.001 2.5
s-9.33398 2.16699 -14.001 3.5c-19.333 4.66699 -36.666 13.5 -51.999 26.5s-28.666 29.5 -39.999 49.5s-17 46 -17 78s5.66699 70 17 114l118 439h40v0v0z" />
    <glyph glyph-name="V" unicode="V" horiz-adv-x="608" 
d="M276 -28l-78 728h40h74l46 -497l312 497h40h74l-468 -728h-40v0v0z" />
    <glyph glyph-name="W" unicode="W" horiz-adv-x="978" 
d="M623 501l-335 -529h-40l-54 728h40h77l23 -494l327 514h40l53 -514l287 494h40h77l-444 -728h-40l-51 529v0z" />
    <glyph glyph-name="X" unicode="X" horiz-adv-x="544" 
d="M343 268l-220 -268h-40h-76l305 357l-102 343h40h76l66 -249l201 249h40h76l-287 -343l115 -357h-40h-75l-79 268v0z" />
    <glyph glyph-name="Y" unicode="Y" horiz-adv-x="566" 
d="M229 0l86 322l-121 378h40h76l85 -281l235 281h40h76l-323 -378l-86 -322h-40h-68v0v0z" />
    <glyph glyph-name="Z" unicode="Z" horiz-adv-x="593" 
d="M14 0l572 644h-358l15 56h40h469l-571 -644h399l-15 -56h-40h-511v0v0z" />
    <glyph glyph-name="bracketleft" unicode="[" horiz-adv-x="360" 
d="M235 -210h-204l253 945h40h204l-15 -56h-140l-223 -833h140l-15 -56h-40v0v0z" />
    <glyph glyph-name="backslash" unicode="\" horiz-adv-x="516" 
d="M398 -210h-56l-125 945h40h56l125 -945h-40v0v0z" />
    <glyph glyph-name="bracketright" unicode="]" horiz-adv-x="360" 
d="M264 735h204l-253 -945h-40h-203l15 56h139l223 833h-140l15 56h40v0v0z" />
    <glyph glyph-name="asciicircum" unicode="^" horiz-adv-x="520" 
d="M431 641l-150 -141h-40h-68l210 200h40h88l102 -200h-40h-68l-74 141v0z" />
    <glyph glyph-name="underscore" unicode="_" horiz-adv-x="540" 
d="M-1 -154h499l-15 -56h-40h-499l15 56h40v0v0z" />
    <glyph glyph-name="grave" unicode="`" horiz-adv-x="290" 
d="M228 637h98l40 -126h-40h-56l-82 126h40v0v0z" />
    <glyph glyph-name="a" unicode="a" horiz-adv-x="602" 
d="M541 408l7.00098 26h40h56l-116 -434h-40h-56l6 25c-5.33301 -4 -11 -7.66699 -17 -11s-12 -6.33301 -18 -9c-16.667 -6.66699 -33 -11.834 -49 -15.501s-31.667 -5.5 -47 -5.5l-40 -1c-29.333 0.666992 -55.833 5.66699 -79.5 15s-44.167 24 -61.5 44
c-18 20 -28.833 44.5 -32.5 73.5s-0.166992 62.833 10.5 101.5c8.66699 32.667 21.667 62.834 39 90.501s39.333 52.834 66 75.501c26.667 23.333 55.5 40.666 86.5 51.999s63.833 17 98.5 17h40c5.33301 0 10.5 -0.166992 15.5 -0.5s10.5 -1.16602 16.5 -2.49902
c5.33301 -0.666992 10.833 -1.83398 16.5 -3.50098s11.5 -3.5 17.5 -5.5c7.33301 -3.33301 14.166 -7.5 20.499 -12.5s12.5 -10.833 18.5 -17.5l0.5 -0.5l0.5 -0.5l0.5 -0.5l0.5 -0.5v0zM299.001 31c18.667 2 37.001 6.99707 55.001 14.9971s35.333 19 52 33
c20 16.667 37 36.5 51 59.5s25 49.167 33 78.5c6.66699 24.667 9.33398 47.834 8.00098 69.501s-6.66602 41.834 -15.999 60.501c-7.33301 16.667 -17.833 29.5 -31.5 38.5s-30.167 14.833 -49.5 17.5c-20.667 -2.66699 -40.334 -8.5 -59.001 -17.5
s-36.667 -21.167 -54 -36.5c-20 -18 -36.5 -38 -49.5 -60s-23.167 -46 -30.5 -72c-6.66699 -24.667 -9.33398 -47.667 -8.00098 -69s6.66602 -41.666 15.999 -60.999c7.33301 -16.667 18 -29.5 32 -38.5s31 -14.833 51 -17.5v0z" />
    <glyph glyph-name="b" unicode="b" horiz-adv-x="602" 
d="M310 735l60 -0.00390625l-86 -323c6 4 12 7.83301 18 11.5s12.333 6.83398 19 9.50098c9.33301 4 18.166 7.33301 26.499 10s16.833 4.33398 25.5 5.00098c7.33301 1.33301 14.5 2.33301 21.5 3s13.167 1 18.5 1h40c34 0 63 -5.66699 87 -17s43.333 -28 58 -50
c14 -22 22.5 -47 25.5 -75s-0.166992 -59 -9.5 -93c-10.667 -38.667 -25.667 -72.5 -45 -101.5s-42.666 -53.5 -69.999 -73.5c-28 -20 -56 -34.667 -84 -44s-56.667 -14 -86 -14l-40 -1c-16.667 0.666992 -32.167 2.83398 -46.5 6.50098s-27.833 8.83398 -40.5 15.501
c-4.66699 2.66699 -9.16699 5.66699 -13.5 9s-8.5 7 -12.5 11l-6 -25h-40h-56l196 735h40v0v0zM323 30.9961c21.333 2 41.1699 7.50293 59.5029 16.5029s35.166 21.5 50.499 37.5c18.667 18.667 34.5 39 47.5 61s22.833 45.667 29.5 71l2 10l2 10
c0 1.33301 0.166992 2.5 0.5 3.5s0.5 1.83301 0.5 2.5c0 2.66699 0.166992 5.16699 0.5 7.5s0.833008 4.5 1.5 6.5c1.33301 18 0.333008 35.5 -3 52.5s-9.33301 33.167 -18 48.5c-7.33301 13.333 -17.833 23.666 -31.5 30.999s-30.5 12 -50.5 14
c-20.667 -2 -40.167 -7.66699 -58.5 -17s-35.833 -22.333 -52.5 -39c-18.667 -18.667 -34.167 -38.834 -46.5 -60.501s-21.833 -44.834 -28.5 -69.501c-8 -29.333 -11 -55.5 -9 -78.5s9 -42.833 21 -59.5c9.33301 -14 21.166 -25 35.499 -33s30.166 -13 47.499 -15v0z" />
    <glyph glyph-name="c" unicode="c" horiz-adv-x="497" 
d="M491 84l-17.0107 -63.0039c-0.666992 -0.666992 -1.5 -1.16699 -2.5 -1.5s-1.83301 -0.5 -2.5 -0.5c-0.666992 -0.666992 -1.5 -1.16699 -2.5 -1.5s-1.83301 -0.833008 -2.5 -1.5s-1.5 -1.16699 -2.5 -1.5s-1.83301 -0.5 -2.5 -0.5l-3 -1.5l-3 -1.5
c-6 -2.66699 -12.333 -5.16699 -19 -7.5s-13.667 -4.5 -21 -6.5c-2 -0.666992 -4.33301 -1.33398 -7 -2.00098l-8 -2c-10.667 -3.33301 -21.667 -5.66602 -33 -6.99902s-23 -2 -35 -2l-40 -1c-36.667 0.666992 -68.5 6.33398 -95.5 17.001s-49.167 27.334 -66.5 50.001
c-16.667 22 -27 47 -31 75s-1.66699 58.667 7 92c9.33301 34 23.5 65 42.5 93s42.833 53 71.5 75s59.5 38.667 92.5 50s67.833 17 104.5 17h40c14 0 26.833 -0.666992 38.5 -2s21.834 -3.66602 30.501 -6.99902c9.33301 -2.66699 17.5 -5.5 24.5 -8.5
s12.833 -6.16699 17.5 -9.5c0.666992 -0.666992 1.33398 -1.16699 2.00098 -1.5s1.33398 -0.833008 2.00098 -1.5s1.33398 -1.16699 2.00098 -1.5s1.33398 -0.833008 2.00098 -1.5s1.33398 -1.16699 2.00098 -1.5s1.33398 -0.833008 2.00098 -1.5l1 -0.5l1 -0.5l-16 -59h-40
c-12 10 -23.333 18.333 -34 25s-20.667 11.334 -30 14.001c-6 2 -12 3.66699 -18 5s-12 2.33301 -18 3c-21.333 -2 -42.166 -7.16699 -62.499 -15.5s-40.5 -19.166 -60.5 -32.499c-23.333 -16 -42.666 -35.5 -57.999 -58.5s-27 -49.5 -35 -79.5
c-8 -29.333 -10.5 -55.5 -7.5 -78.5s11.167 -42.833 24.5 -59.5c11.333 -14.667 25 -25.834 41 -33.501s34 -12.5 54 -14.5c2.66699 0 5.33398 0.166992 8.00098 0.5s5.33398 0.833008 8.00098 1.5c8 1.33301 15.833 3.16602 23.5 5.49902s15.167 4.83301 22.5 7.5
c12.667 5.33301 24.667 11.333 36 18s22.333 13.334 33 20.001h40v0v0z" />
    <glyph glyph-name="d" unicode="d" horiz-adv-x="602" 
d="M488 0l-56.0029 0.000976562l6 25c-5.33301 -4 -11 -7.66699 -17 -11s-12 -6.33301 -18 -9c-16.667 -6.66699 -33 -11.834 -49 -15.501s-31.667 -5.5 -47 -5.5l-40 -1c-29.333 0.666992 -55.833 5.66699 -79.5 15s-44.167 24 -61.5 44c-18 20 -28.833 44.5 -32.5 73.5
s-0.166992 62.833 10.5 101.5c8.66699 32.667 21.834 62.834 39.501 90.501s39.834 52.834 66.501 75.501c27.333 23.333 56.333 40.666 87 51.999s63.334 17 98.001 17h40c5.33301 0 11 -0.333008 17 -1s12.667 -1.66699 20 -3
c6.66699 -0.666992 13.5 -2.33398 20.5 -5.00098s13.833 -5.66699 20.5 -9c2 -1.33301 4 -2.83301 6 -4.5s4.33301 -3.5 7 -5.5l6 -6l6 -6l86 322h40h60l-196 -734h-40v0v0zM298.997 31.001c19.333 2 37.999 6.99902 55.999 14.999s35.333 19 52 33
c19.333 16.667 36 36.5 50 59.5s25 49.167 33 78.5c6.66699 24.667 9.33398 47.834 8.00098 69.501s-6.66602 41.834 -15.999 60.501c-7.33301 16.667 -17.833 29.5 -31.5 38.5s-30.167 14.833 -49.5 17.5c-20.667 -2 -40.334 -7.5 -59.001 -16.5s-36.667 -21.167 -54 -36.5
c-19.333 -18 -35.666 -38.167 -48.999 -60.5s-23.666 -46.5 -30.999 -72.5c-6.66699 -24.667 -9.33398 -47.834 -8.00098 -69.501s6.66602 -42.167 15.999 -61.5c7.33301 -16.667 18 -29.5 32 -38.5s31 -14.5 51 -16.5v0z" />
    <glyph glyph-name="e" unicode="e" horiz-adv-x="555" 
d="M499 137l39.9971 -22.9971c-14 -18 -29.167 -34.5 -45.5 -49.5s-34.166 -29.167 -53.499 -42.5c-19.333 -12.667 -40.333 -22.167 -63 -28.5s-47 -9.5 -73 -9.5l-40 -1c-35.333 0.666992 -65.166 6.66699 -89.499 18s-43.166 29 -56.499 53
c-12.667 24 -20.334 49.5 -23.001 76.5s0.333008 55.833 9 86.5l4 16c1.33301 5.33301 3.33301 11 6 17l8 18c2.66699 6 5.66699 12 9 18c11.333 20.667 25 40.5 41 59.5s35 37.167 57 54.5c21.333 17.333 45.5 30.333 72.5 39s56.5 13 88.5 13h40
c28.667 0 52.834 -4.16699 72.501 -12.5s34.834 -20.5 45.501 -36.5c11.333 -16 19.666 -33 24.999 -51s8 -36.667 8 -56c0 -1.33301 -0.166992 -2.83301 -0.5 -4.5s-0.5 -3.5 -0.5 -5.5c0 -2.66699 -0.166992 -5.5 -0.5 -8.5s-0.833008 -6.16699 -1.5 -9.5l-2 -14
c-0.666992 -4.66699 -1.66699 -9 -3 -13l-8 -29h-359v-2v0l-1 -2v-1c-0.666992 -2.66699 -1.33398 -5.5 -2.00098 -8.5s-1.33398 -6.16699 -2.00098 -9.5c0 -1.33301 -0.166992 -2.83301 -0.5 -4.5s-0.5 -3.16699 -0.5 -4.5c-0.666992 -2 -1.16699 -3.83301 -1.5 -5.5
s-0.5 -3.16699 -0.5 -4.5c-1.33301 -17.333 -0.166016 -34 3.50098 -50s9.83398 -31.333 18.501 -46c8 -12.667 18.333 -22.5 31 -29.5s27.667 -11.5 45 -13.5c3.33301 0.666992 6.83301 1.16699 10.5 1.5s7.5 0.833008 11.5 1.5c7.33301 1.33301 15.5 3.66602 24.5 6.99902
s18.5 8 28.5 14c6.66699 4 13.5 8.5 20.5 13.5s14.5 10.833 22.5 17.5l14.5 14.5c5 5 10.167 10.5 15.5 16.5c2.66699 3.33301 5.16699 6.66602 7.5 9.99902s4.83301 6.66602 7.5 9.99902h40v0v0zM223.997 260.003l254.002 -0.000976562c4 18 5 35.333 3 52
s-7 32.334 -15 47.001c-6.66699 12.667 -15.834 22.667 -27.501 30s-25.5 12 -41.5 14c-16.667 -2 -33 -6.33301 -49 -13s-31.333 -15.667 -46 -27c-18 -14 -33.333 -29.5 -46 -46.5s-23.334 -35.833 -32.001 -56.5v0z" />
    <glyph glyph-name="f" unicode="f" horiz-adv-x="300" 
d="M88 0l103.005 386.003h-70l13 48h70l52 194v2c0 0.666992 0.333008 1.33398 1 2.00098l0.5 1c0.333008 0.666992 0.5 1.33398 0.5 2.00098c0 1.33301 0.166992 2.66602 0.5 3.99902s0.833008 2.66602 1.5 3.99902c4 12.667 9.66699 24.667 17 36s15.666 22.333 24.999 33
c10 10.667 22 18.667 36 24s30.333 8 49 8h40c4.66699 0 9 -0.166992 13 -0.5s7.66699 -0.833008 11 -1.5s6.5 -1.16699 9.5 -1.5s5.83301 -0.833008 8.5 -1.5c1.33301 -0.666992 2.83301 -1.16699 4.5 -1.5s3.16699 -0.833008 4.5 -1.5l4 -1l-13 -51h-40
c-2.66699 1.33301 -5.5 2.66602 -8.5 3.99902s-5.83301 2.33301 -8.5 3c-0.666992 0 -1.16699 0.166992 -1.5 0.5s-0.833008 0.5 -1.5 0.5s-1.33398 0.166992 -2.00098 0.5s-1.33398 0.5 -2.00098 0.5c-2.66699 -0.666992 -5.33398 -2 -8.00098 -4l-8 -6
c-5.33301 -4.66699 -10 -9.33398 -14 -14.001s-7 -9.66699 -9 -15c-2 -2.66699 -3.5 -5.33398 -4.5 -8.00098s-1.83301 -5 -2.5 -7c-0.666992 -2.66699 -1.33398 -5 -2.00098 -7l-2 -6l-51 -192h98l-13 -48h-98l-103 -386h-40h-60v0v0z" />
    <glyph glyph-name="g" unicode="g" horiz-adv-x="602" 
d="M83 -81l66.0039 -0.00292969c-0.666992 -15.333 1.83301 -29 7.5 -41s14.5 -21.667 26.5 -29c9.33301 -6 19.333 -11 30 -15s22 -6.33301 34 -7c18 1.33301 34.167 4.5 48.5 9.5s27.166 12.167 38.499 21.5c13.333 10.667 25.333 21.834 36 33.501s19.667 24.167 27 37.5
c5.33301 8.66699 9.66602 17 12.999 25s6.33301 16 9 24c3.33301 8 6 14.833 8 20.5s3.33301 10.834 4 15.501l2 7c-6.66699 -4.66699 -14 -9 -22 -13s-16.667 -7.33301 -26 -10c-11.333 -4.66699 -23.5 -8.16699 -36.5 -10.5s-26.833 -3.5 -41.5 -3.5l-40 -1
c-28.667 0.666992 -55 5.66699 -79 15s-44.667 24 -62 44c-18 20 -28.833 44.5 -32.5 73.5s-0.166992 62.833 10.5 101.5c8.66699 32.667 21.667 62.834 39 90.501s39.333 52.834 66 75.501c26.667 23.333 55.667 40.666 87 51.999s64.333 17 99 17h40
c5.33301 0 10.5 -0.166992 15.5 -0.5s10.5 -1.16602 16.5 -2.49902c5.33301 -0.666992 10.833 -1.83398 16.5 -3.50098s11.167 -3.5 16.5 -5.5c7.33301 -3.33301 14.333 -7.5 21 -12.5s13 -10.833 19 -17.5v0h1v-1v0l7 25h40h56l-113 -420
c-0.666992 -4 -2.33398 -9.5 -5.00098 -16.5s-6 -15.833 -10 -26.5c-3.33301 -11.333 -8.33301 -23 -15 -35s-14.334 -24.333 -23.001 -37c-10 -15.333 -22 -29.833 -36 -43.5s-30.333 -26.834 -49 -39.501s-39.5 -22.167 -62.5 -28.5s-48.833 -9.5 -77.5 -9.5l-40 -1
c-32.667 0.666992 -60 4.5 -82 11.5s-38.667 17.167 -50 30.5c-12 13.333 -21 27.5 -27 42.5s-9.33301 30.5 -10 46.5c0 0.666992 -0.166992 1.33398 -0.5 2.00098l-0.5 1v2v2v5h40v-1v0zM299.004 30.9971c18.667 2 36.999 6.99707 54.999 14.9971s35.333 19 52 33
c20 16.667 37 36.5 51 59.5s25 49.167 33 78.5c6.66699 24.667 9.33398 47.834 8.00098 69.501s-6.66602 41.834 -15.999 60.501c-7.33301 16.667 -17.833 29.5 -31.5 38.5s-30.167 14.833 -49.5 17.5c-20.667 -2 -40.334 -7.5 -59.001 -16.5s-36.667 -21.167 -54 -36.5
c-19.333 -18 -35.666 -38.167 -48.999 -60.5s-23.666 -46.5 -30.999 -72.5c-6.66699 -24.667 -9.33398 -47.667 -8.00098 -69s6.66602 -41.666 15.999 -60.999c7.33301 -16.667 18 -29.5 32 -38.5s31 -14.833 51 -17.5v0z" />
    <glyph glyph-name="h" unicode="h" horiz-adv-x="545" 
d="M74 0l195.999 735.001h40h60l-86 -322c5.33301 4 11.166 7.83301 17.499 11.5s13.166 7.16699 20.499 10.5c11.333 5.33301 23.666 9.5 36.999 12.5s27.333 4.5 42 4.5h40c24 0 44.333 -3.66699 61 -11s29.334 -18.666 38.001 -33.999
c9.33301 -14.667 14.333 -32.834 15 -54.501s-2.66602 -46.5 -9.99902 -74.5l-74 -278h-40h-60l72 270c0.666992 3.33301 1.33398 6.5 2.00098 9.5s1.33398 5.83301 2.00098 8.5c0 1.33301 0.166992 2.83301 0.5 4.5s0.833008 3.5 1.5 5.5
c0 1.33301 0.166992 2.83301 0.5 4.5s0.833008 3.16699 1.5 4.5c1.33301 12 1.5 23.5 0.5 34.5s-3.16699 21.5 -6.5 31.5c-2.66699 8 -7.83398 14.5 -15.501 19.5s-17.5 8.5 -29.5 10.5c-16.667 -2.66699 -32.5 -7.83398 -47.5 -15.501s-29.167 -18.167 -42.5 -31.5
c-16 -16 -29.667 -32.833 -41 -50.5s-20.666 -36.167 -27.999 -55.5c0 -0.666992 -0.166992 -1.5 -0.5 -2.5s-0.833008 -2.16699 -1.5 -3.5c-0.666992 -0.666992 -1.16699 -1.5 -1.5 -2.5s-0.5 -2.16699 -0.5 -3.5c-0.666992 -2 -1.16699 -4 -1.5 -6s-0.833008 -4 -1.5 -6
l-60 -226h-40h-60v0v0z" />
    <glyph glyph-name="i" unicode="i" horiz-adv-x="248" 
d="M230 434h60l-116 -434h-40h-60l116 434h40v0v0zM213 581c1.33301 6 3.83105 11.667 7.49805 17s8.16699 10.333 13.5 15s11.333 8.16699 18 10.5s13.334 3.5 20.001 3.5h40c6.66699 0 12.334 -1.16699 17.001 -3.5s8.66699 -5.5 12 -9.5
c3.33301 -4.66699 5.33301 -9.66699 6 -15s0 -11.333 -2 -18s-5 -12.834 -9 -18.501s-8.66699 -10.5 -14 -14.5c-5.33301 -4.66699 -11 -8 -17 -10s-12 -3 -18 -3h-40c-6.66699 0 -12.5 1 -17.5 3s-9.16699 5.33301 -12.5 10c-3.33301 4 -5.33301 8.83301 -6 14.5
s0 11.834 2 18.501v0v0z" />
    <glyph glyph-name="j" unicode="j" horiz-adv-x="248" 
d="M230 434h60l-173 -644h-40h-60l173 644h40v0v0zM213 581c1.33301 6 3.83105 11.667 7.49805 17s8.16699 10.333 13.5 15s11.333 8.16699 18 10.5s13.334 3.5 20.001 3.5h40c6.66699 0 12.334 -1.16699 17.001 -3.5s8.66699 -5.5 12 -9.5
c3.33301 -4.66699 5.33301 -9.66699 6 -15s0 -11.333 -2 -18s-5 -12.834 -9 -18.501s-8.66699 -10.5 -14 -14.5c-5.33301 -4.66699 -11 -8 -17 -10s-12 -3 -18 -3h-40c-6.66699 0 -12.5 1 -17.5 3s-9.16699 5.33301 -12.5 10c-3.33301 4 -5.33301 8.83301 -6 14.5
s0 11.834 2 18.501v0v0z" />
    <glyph glyph-name="k" unicode="k" horiz-adv-x="501" 
d="M74 0l196 735h40h60l-118 -441l192 140h40h82l-263 -187l187 -247h-40h-87l-139 190l-50 -190h-40h-60v0v0z" />
    <glyph glyph-name="l" unicode="l" horiz-adv-x="248" 
d="M74 0l196 735h40h60l-196 -735h-40h-60v0v0z" />
    <glyph glyph-name="m" unicode="m" horiz-adv-x="800" 
d="M284 411c3.33301 2.66699 6.6748 5.17285 10.0078 7.50586s6.66602 4.5 9.99902 6.5l10 6c3.33301 2 6.66602 3.66699 9.99902 5l10 4c3.33301 1.33301 7 2.66602 11 3.99902l10 2l10 2c3.33301 0.666992 6.5 1.16699 9.5 1.5s6.16699 0.833008 9.5 1.5
c2.66699 0 5.66699 0.166992 9 0.5s6.33301 0.5 9 0.5h40c17.333 0 32.166 -2.33301 44.499 -7s22.166 -11.667 29.499 -21c3.33301 -4.66699 6.33301 -9.16699 9 -13.5s4.66699 -8.83301 6 -13.5l2 2l2 2h1l1 1c0.666992 0 1.16699 0.333008 1.5 1s0.833008 1 1.5 1l10 8
c3.33301 2.66699 7 5 11 7l10 6l10 6c9.33301 4.66699 18.333 8.5 27 11.5s17.334 4.83301 26.001 5.5c8 1.33301 15.5 2.33301 22.5 3s12.833 1 17.5 1h40c3.33301 0 7 -0.166992 11 -0.5s8.66699 -0.833008 14 -1.5s10.833 -1.83398 16.5 -3.50098
s11.167 -4.16699 16.5 -7.5c7.33301 -4 14 -10 20 -18s11.333 -17.667 16 -29c4 -11.333 5.66699 -25.833 5 -43.5s-4.33398 -38.5 -11.001 -62.5l-76 -286h-40h-60l76 286c0.666992 1.33301 1.16699 2.83301 1.5 4.5s0.833008 3.5 1.5 5.5c0 2 0.166992 4.16699 0.5 6.5
s0.833008 4.5 1.5 6.5c1.33301 4.66699 2.16602 9.33398 2.49902 14.001s0.833008 9.33398 1.5 14.001c0 8 -1 16 -3 24s-5 15.333 -9 22c-2.66699 5.33301 -6.5 9.5 -11.5 12.5s-11.167 5.16699 -18.5 6.5c-2.66699 -0.666992 -5.33398 -1.16699 -8.00098 -1.5
s-5.66699 -1.16602 -9 -2.49902c-12.667 -4 -25.834 -10.333 -39.501 -19s-27.167 -19.667 -40.5 -33s-25 -29.5 -35 -48.5s-18.333 -40.833 -25 -65.5l-62 -232h-40h-60l75 283c0.666992 1.33301 1.16699 2.66602 1.5 3.99902s0.5 2.66602 0.5 3.99902
s0.166992 2.66602 0.5 3.99902s0.833008 2.66602 1.5 3.99902c0 0.666992 0.166992 1.5 0.5 2.5s0.5 1.83301 0.5 2.5c0 2 0.166992 3.83301 0.5 5.5s0.833008 3.5 1.5 5.5c2 11.333 2.66699 22 2 32s-2.66699 19.667 -6 29c-2.66699 7.33301 -7 13.166 -13 17.499
s-13.667 7.16602 -23 8.49902c-13.333 -2 -26.666 -6.66699 -39.999 -14s-26 -17 -38 -29c-15.333 -14.667 -28.833 -30.334 -40.5 -47.001s-21.167 -34 -28.5 -52c0 -0.666992 -0.333008 -1.5 -1 -2.5s-1 -1.83301 -1 -2.5
c-0.666992 -1.33301 -1.33398 -2.83301 -2.00098 -4.5s-1.33398 -3.16699 -2.00098 -4.5c-0.666992 -2.66699 -1.16699 -5.16699 -1.5 -7.5s-0.833008 -4.5 -1.5 -6.5l-62 -232h-40h-60l116 434h40h60l-6 -23v0z" />
    <glyph glyph-name="n" unicode="n" horiz-adv-x="545" 
d="M74 0l115.999 434.001h40h60l-6 -21c5.33301 4 11.166 7.83301 17.499 11.5s13.166 7.16699 20.499 10.5c11.333 5.33301 23.666 9.5 36.999 12.5s27.333 4.5 42 4.5h40c24 0 44.333 -3.66699 61 -11s29.334 -18.666 38.001 -33.999
c9.33301 -14.667 14.333 -32.834 15 -54.501s-2.66602 -46.5 -9.99902 -74.5l-74 -278h-40h-60l72 270c0.666992 3.33301 1.33398 6.5 2.00098 9.5s1.33398 5.83301 2.00098 8.5c0 1.33301 0.166992 2.83301 0.5 4.5s0.833008 3.5 1.5 5.5
c0 1.33301 0.166992 2.83301 0.5 4.5s0.833008 3.16699 1.5 4.5c1.33301 12 1.5 23.5 0.5 34.5s-3.16699 21.5 -6.5 31.5c-2.66699 8 -7.83398 14.5 -15.501 19.5s-17.5 8.5 -29.5 10.5c-16.667 -2.66699 -32.5 -7.83398 -47.5 -15.501s-29.167 -18.167 -42.5 -31.5
c-16 -16 -29.667 -32.833 -41 -50.5s-20.666 -36.167 -27.999 -55.5c0 -0.666992 -0.166992 -1.5 -0.5 -2.5s-0.833008 -2.16699 -1.5 -3.5c-0.666992 -0.666992 -1.16699 -1.5 -1.5 -2.5s-0.5 -2.16699 -0.5 -3.5c-0.666992 -2 -1.16699 -4 -1.5 -6s-0.833008 -4 -1.5 -6
l-60 -226h-40h-60v0v0z" />
    <glyph glyph-name="o" unicode="o" horiz-adv-x="604" 
d="M277 -18c-31.333 1.33301 -59.4961 6.83398 -84.4961 16.501s-46.5 24.834 -64.5 45.501c-18.667 20.667 -29.834 45.5 -33.501 74.5s-0.5 61.833 9.5 98.5c8.66699 32.667 22 62.834 40 90.501s41 52.834 69 75.501c27.333 23.333 57 40.666 89 51.999s65.667 17 101 17
h40c35.333 0 65.666 -5.66699 90.999 -17s45.666 -28.666 60.999 -51.999c15.333 -22.667 24.833 -47.834 28.5 -75.501s1.16699 -57.834 -7.5 -90.501s-22.334 -62.834 -41.001 -90.501s-41.667 -52.834 -69 -75.501s-56.833 -39.5 -88.5 -50.5s-65.167 -16.5 -100.5 -16.5
v-2h-40v0zM310.004 31.001c22.667 2 44.334 7.83203 65.001 17.499s39.667 22.834 57 39.501c20.667 19.333 37.5 39.833 50.5 61.5s22.833 44.167 29.5 67.5c6 23.333 8.16699 45.833 6.5 67.5s-7.5 42.167 -17.5 61.5c-8.66699 16.667 -20.667 29.834 -36 39.501
s-34 15.5 -56 17.5c-22.667 -2 -44.334 -7.83301 -65.001 -17.5s-39.667 -22.834 -57 -39.501c-20 -19.333 -36.667 -39.833 -50 -61.5s-23 -44.167 -29 -67.5c-6.66699 -24 -9.16699 -46.667 -7.5 -68s7.5 -41.666 17.5 -60.999c8.66699 -16.667 20.667 -29.834 36 -39.501
s34 -15.5 56 -17.5v0z" />
    <glyph glyph-name="p" unicode="p" horiz-adv-x="602" 
d="M230 434h56l-7 -26c3.33301 2.66699 7 5.16699 11 7.5s8 4.83301 12 7.5c15.333 9.33301 32.333 16.5 51 21.5s38.667 7.5 60 7.5h40c34 0 63 -5.66699 87 -17s43.333 -28 58 -50c14 -22 22.5 -47 25.5 -75s-0.166992 -59 -9.5 -93
c-10.667 -38.667 -25.667 -72.5 -45 -101.5s-42.666 -53.5 -69.999 -73.5c-28 -20 -56 -34.667 -84 -44s-56.667 -14 -86 -14l-40 -1c-16.667 0.666992 -31.834 2.5 -45.501 5.5s-25.167 6.83301 -34.5 11.5c-6 3.33301 -11.333 7 -16 11s-9 8 -13 12l-63 -233h-40h-60
l173 644h40v0v0zM323 31c21.333 2 41.1699 7.50293 59.5029 16.5029s35.166 21.5 50.499 37.5c18.667 18.667 34.5 39 47.5 61s22.833 45.667 29.5 71l2 10l2 10c0 1.33301 0.166992 2.5 0.5 3.5s0.5 1.83301 0.5 2.5c0 2.66699 0.166992 5.16699 0.5 7.5
s0.833008 4.5 1.5 6.5c1.33301 18 0.333008 35.5 -3 52.5s-9.33301 33.167 -18 48.5c-7.33301 13.333 -17.833 23.666 -31.5 30.999s-30.5 12 -50.5 14c-20.667 -2 -40.167 -7.66699 -58.5 -17s-35.833 -22.333 -52.5 -39c-18.667 -18.667 -34.167 -38.834 -46.5 -60.501
s-21.833 -44.834 -28.5 -69.501c-8 -29.333 -11 -55.5 -9 -78.5s9 -42.833 21 -59.5c9.33301 -14 21.166 -25 35.499 -33s30.166 -13 47.499 -15v0z" />
    <glyph glyph-name="q" unicode="q" horiz-adv-x="602" 
d="M431 -210l-60.0029 -0.000976562l62 231c-6.66699 -4.66699 -14 -9 -22 -13s-16.667 -7.33301 -26 -10c-11.333 -4.66699 -23.5 -8.16699 -36.5 -10.5s-26.833 -3.5 -41.5 -3.5l-40 -1c-29.333 0.666992 -55.833 5.66699 -79.5 15s-44.167 24 -61.5 44
c-18 20 -28.833 44.5 -32.5 73.5s-0.166992 62.833 10.5 101.5c8.66699 32.667 21.834 62.834 39.501 90.501s39.834 52.834 66.501 75.501c27.333 23.333 56.333 40.666 87 51.999s63.334 17 98.001 17h40c5.33301 0 10.5 -0.166992 15.5 -0.5s10.5 -1.16602 16.5 -2.49902
c5.33301 -0.666992 10.833 -1.83398 16.5 -3.50098s11.167 -3.5 16.5 -5.5c7.33301 -3.33301 14.333 -7.5 21 -12.5s13 -10.833 19 -17.5v0h1v-1v0l7 25h40h56l-173 -644h-40v0v0zM298.997 30.999c19.333 2 37.999 6.99902 55.999 14.999s35.333 19 52 33
c19.333 16.667 36 36.5 50 59.5s25 49.167 33 78.5c6.66699 24.667 9.33398 47.834 8.00098 69.501s-6.66602 41.834 -15.999 60.501c-7.33301 16.667 -17.833 29.5 -31.5 38.5s-30.167 14.833 -49.5 17.5c-20.667 -2 -40.334 -7.5 -59.001 -16.5s-36.667 -21.167 -54 -36.5
c-19.333 -18 -35.666 -38.167 -48.999 -60.5s-23.666 -46.5 -30.999 -72.5c-6.66699 -24.667 -9.33398 -47.834 -8.00098 -69.501s6.66602 -42.167 15.999 -61.5c7.33301 -16.667 18 -29.5 32 -38.5s31 -14.5 51 -16.5v0z" />
    <glyph glyph-name="r" unicode="r" horiz-adv-x="365" 
d="M74 0l115.999 433.996h40h60l-8 -30c7.33301 6 14.166 11.333 20.499 16s12.833 8.33398 19.5 11.001c4.66699 2 9.5 4 14.5 6s9.83301 3.33301 14.5 4c4.66699 1.33301 9.33398 2.16602 14.001 2.49902s9.33398 0.5 14.001 0.5h40c4.66699 0 9 -0.166992 13 -0.5
s8 -0.833008 12 -1.5c1.33301 -0.666992 2.83301 -1.16699 4.5 -1.5s3.16699 -0.5 4.5 -0.5c1.33301 -0.666992 2.83301 -1.16699 4.5 -1.5s3.16699 -0.833008 4.5 -1.5l4 -2l4 -1l-33 -56h-40l-2 1l-2 1c-1.33301 0.666992 -2.83301 1.33398 -4.5 2.00098
s-3.5 1.33398 -5.5 2.00098c-0.666992 0 -1.5 0.333008 -2.5 1s-1.83301 1 -2.5 1v0h-1c-10.667 -2.66699 -21.667 -7.66699 -33 -15s-23.333 -16.666 -36 -27.999c-15.333 -14.667 -28.5 -30.167 -39.5 -46.5s-20.167 -33.166 -27.5 -50.499
c-0.666992 -0.666992 -1.16699 -1.5 -1.5 -2.5s-0.5 -1.83301 -0.5 -2.5l-1.5 -3l-1.5 -3c-0.666992 -2 -1.16699 -4 -1.5 -6s-0.5 -3.66699 -0.5 -5l-60 -224h-40h-60v0v0z" />
    <glyph glyph-name="s" unicode="s" horiz-adv-x="422" 
d="M55 89l56.001 25.9941h40c0.666992 -10.667 3 -20.834 7 -30.501s9.33301 -19.167 16 -28.5c5.33301 -6.66699 11.5 -12.167 18.5 -16.5s15.5 -7.16602 25.5 -8.49902c10 1.33301 19.333 3.83301 28 7.5s17 8.5 25 14.5c10 8 18.5 17.333 25.5 28
s12.167 22.334 15.5 35.001c3.33301 11.333 4.33301 21.5 3 30.5s-4.66602 16.5 -9.99902 22.5s-11.5 11.333 -18.5 16s-14.167 8.33398 -21.5 11.001c-1.33301 0.666992 -2.66602 1.16699 -3.99902 1.5s-2.66602 0.833008 -3.99902 1.5s-2.66602 1.16699 -3.99902 1.5
s-2.66602 0.833008 -3.99902 1.5s-2.83301 1.16699 -4.5 1.5s-3.16699 0.833008 -4.5 1.5c-1.33301 0 -2.5 0.166992 -3.5 0.5s-2.16699 0.833008 -3.5 1.5h-3l-2 2c-14 4.66699 -27.167 10.167 -39.5 16.5s-23.5 13.833 -33.5 22.5c-10.667 8 -17 19 -19 33
s-0.666992 30.333 4 49c5.33301 19.333 13.166 36.5 23.499 51.5s23.833 27.833 40.5 38.5s34 18.667 52 24s36.667 8 56 8h40c4.66699 0 9.33398 -0.166992 14.001 -0.5s9.66699 -1.16602 15 -2.49902c5.33301 -0.666992 10.666 -1.83398 15.999 -3.50098
s10.666 -4.16699 15.999 -7.5c2 -0.666992 3.83301 -1.66699 5.5 -3s3.16699 -2.66602 4.5 -3.99902c3.33301 -2.66699 6.83301 -5.66699 10.5 -9s6.83398 -7 9.50098 -11c4 -6 7.66699 -13 11 -21s6.33301 -17 9 -27l-52 -24h-40c-0.666992 10 -3.16699 18.833 -7.5 26.5
s-10.166 14.5 -17.499 20.5c-4.66699 4 -9.83398 7.33301 -15.501 10s-11.5 4.66699 -17.5 6c-7.33301 -1.33301 -14.333 -3.5 -21 -6.5s-13 -6.83301 -19 -11.5c-8 -6.66699 -14.667 -14.167 -20 -22.5s-9.33301 -17.166 -12 -26.499
c-2.66699 -10.667 -3.5 -19.667 -2.5 -27s3.83301 -13.333 8.5 -18c5.33301 -4.66699 11.5 -9 18.5 -13s14.833 -7.66699 23.5 -11c0.666992 0 1.16699 -0.166992 1.5 -0.5s0.833008 -0.5 1.5 -0.5s1.5 -0.166992 2.5 -0.5s2.16699 -0.833008 3.5 -1.5
s3 -1.33398 5 -2.00098l6 -2l4 -2c1.33301 -0.666992 3 -1.33398 5 -2.00098c1.33301 0 2.33301 -0.166992 3 -0.5s1.33398 -0.5 2.00098 -0.5c0.666992 -0.666992 1.5 -1.16699 2.5 -1.5s1.83301 -0.5 2.5 -0.5c13.333 -4.66699 26.166 -10.667 38.499 -18
s23.833 -15.666 34.5 -24.999c9.33301 -9.33301 15.166 -21.5 17.499 -36.5s0.833008 -33.167 -4.5 -54.5c0 -1.33301 -0.333008 -2.83301 -1 -4.5s-1.33398 -3.16699 -2.00098 -4.5c-0.666992 -2 -1.33398 -3.83301 -2.00098 -5.5s-1.33398 -3.16699 -2.00098 -4.5
c-1.33301 -3.33301 -2.83301 -6.66602 -4.5 -9.99902s-3.16699 -6.66602 -4.5 -9.99902c-7.33301 -12.667 -16.333 -24.5 -27 -35.5s-23 -21.5 -37 -31.5c-14.667 -8.66699 -31.5 -15.5 -50.5 -20.5s-40.5 -7.5 -64.5 -7.5l-40 -1
c-4.66699 0.666992 -9.83398 1.16699 -15.501 1.5s-11.834 1.16602 -18.501 2.49902c-6.66699 0.666992 -13.167 2.33398 -19.5 5.00098s-12.5 5.33398 -18.5 8.00098c-6.66699 3.33301 -12.667 7.83301 -18 13.5s-10.333 11.834 -15 18.501
c-4.66699 7.33301 -8.66699 15.666 -12 24.999s-5.66602 20 -6.99902 32v0v0z" />
    <glyph glyph-name="t" unicode="t" horiz-adv-x="290" 
d="M88 0l103 386h-70l13 48h70l45 168h40h60l-45 -168h84l-13 -48h-84l-103 -386h-40h-60v0v0z" />
    <glyph glyph-name="u" unicode="u" horiz-adv-x="551" 
d="M230 434l60 -0.00195312l-71 -263c0 -2 -0.5 -4.5 -1.5 -7.5s-1.83301 -6.16699 -2.5 -9.5c0 -1.33301 -0.166992 -3 -0.5 -5s-0.833008 -4 -1.5 -6c-2 -6.66699 -3 -13.167 -3 -19.5s0.333008 -12.833 1 -19.5c0.666992 -9.33301 2.66699 -18.333 6 -27
s8.33301 -16.667 15 -24c5.33301 -6.66699 12.166 -11.667 20.499 -15s18.5 -5.66602 30.5 -6.99902c13.333 1.33301 25.333 3.83301 36 7.5s20.334 8.83398 29.001 15.501c10.667 8 20.167 16.5 28.5 25.5s15.166 18.5 20.499 28.5c2 3.33301 3.66699 6.33301 5 9
s2.66602 5.66699 3.99902 9c1.33301 2.66699 2.66602 5.5 3.99902 8.5s2.33301 5.83301 3 8.5c2 5.33301 3.83301 10.333 5.5 15s2.83398 9 3.50098 13l71 263h40h60l-69 -256c-8 -30.667 -18.167 -57.334 -30.5 -80.001s-26.5 -40.667 -42.5 -54
c-16 -14 -32 -25.167 -48 -33.5s-31.667 -14.5 -47 -18.5c-6 -1.33301 -12 -2.5 -18 -3.5s-11.667 -1.83301 -17 -2.5s-10.5 -1.16699 -15.5 -1.5s-9.83301 -0.5 -14.5 -0.5l-40 -1c-4.66699 0.666992 -9.5 1.16699 -14.5 1.5s-10.167 0.833008 -15.5 1.5
c-1.33301 0 -3 0.166992 -5 0.5s-3.66699 0.5 -5 0.5l-10 2c-3.33301 0.666992 -6.66602 1.66699 -9.99902 3c-14 4 -26.667 10 -38 18s-21.666 19 -30.999 33c-8.66699 14 -13 32.333 -13 55s4 49.334 12 80.001l69 256h40v0v0z" />
    <glyph glyph-name="v" unicode="v" horiz-adv-x="474" 
d="M211 -22l-88 456h40h67l49 -283l199 283h40h65l-332 -456h-40v0v0z" />
    <glyph glyph-name="w" unicode="w" horiz-adv-x="734" 
d="M444 288l-203 -310h-40l-78 456h40h70l41 -265l200 308h40l36 -308l183 265h40h70l-322 -456h-40l-37 310v0z" />
    <glyph glyph-name="x" unicode="x" horiz-adv-x="457" 
d="M11 0l220 223l-97 211h40h77l58 -139l126 139h40h70l-200 -210l101 -224h-40h-76l-63 152l-139 -152h-40h-77v0v0z" />
    <glyph glyph-name="y" unicode="y" horiz-adv-x="493" 
d="M167 434h68l56 -318l206 318h40h61l-429 -644h-40h-65l148 214l-85 430h40v0v0z" />
    <glyph glyph-name="z" unicode="z" horiz-adv-x="465" 
d="M194 434h355l-377 -386h280l-12 -48h-40h-382l380 386h-257l13 48h40v0v0z" />
    <glyph glyph-name="braceleft" unicode="{" horiz-adv-x="371" 
d="M108 219l14.0088 52.9912c2 0 4.5 0.5 7.5 1.5s5.83301 1.83301 8.5 2.5c3.33301 1.33301 6.83301 2.5 10.5 3.5s7.16699 2.5 10.5 4.5c8.66699 4 17.5 9.66699 26.5 17s17.833 16.333 26.5 27c9.33301 10.667 17.833 24 25.5 40s14.167 34.333 19.5 55
c2.66699 10 4.83398 18.5 6.50098 25.5s2.83398 12.5 3.50098 16.5c1.33301 3.33301 2.16602 6.5 2.49902 9.5s0.833008 5.5 1.5 7.5c0 2 0.166992 4.33301 0.5 7s0.833008 5.66699 1.5 9c1.33301 3.33301 2.66602 8.16602 3.99902 14.499s3.33301 14.5 6 24.5
c0 1.33301 0.166992 2.33301 0.5 3l1.5 3c0 0.666992 0.166992 1.5 0.5 2.5s0.5 1.83301 0.5 2.5l2 6c0.666992 2 1.66699 4 3 6c5.33301 16.667 12.666 32.667 21.999 48s20.666 30.333 33.999 45s30.333 26.334 51 35.001s44.334 14.334 71.001 17.001h40l-12 -46
c-10.667 -1.33301 -20.5 -3.66602 -29.5 -6.99902s-16.5 -7.66602 -22.5 -12.999c-6.66699 -5.33301 -12.5 -11 -17.5 -17s-9.5 -12 -13.5 -18c-2.66699 -4.66699 -5 -9.16699 -7 -13.5s-3.66699 -8.5 -5 -12.5s-2.5 -7.66699 -3.5 -11s-1.83301 -6.33301 -2.5 -9
c0 -1.33301 -0.166992 -2.66602 -0.5 -3.99902s-0.833008 -2.33301 -1.5 -3c-0.666992 -1.33301 -1.16699 -2.5 -1.5 -3.5s-0.5 -2.16699 -0.5 -3.5c-0.666992 -2.66699 -1.16699 -5.16699 -1.5 -7.5s-0.833008 -4.5 -1.5 -6.5
c-0.666992 -2.66699 -1.33398 -5.16699 -2.00098 -7.5s-1.33398 -4.5 -2.00098 -6.5c-0.666992 -1.33301 -1.16699 -2.83301 -1.5 -4.5s-0.5 -3.5 -0.5 -5.5c0 -0.666992 -0.166992 -1.33398 -0.5 -2.00098s-0.5 -1.33398 -0.5 -2.00098
c0 -1.33301 -0.166992 -2.66602 -0.5 -3.99902s-0.833008 -2.33301 -1.5 -3c-0.666992 -1.33301 -1.16699 -2.66602 -1.5 -3.99902s-0.5 -2.66602 -0.5 -3.99902c-0.666992 -2 -1.16699 -3.83301 -1.5 -5.5s-0.5 -3.5 -0.5 -5.5
c0 -0.666992 -0.166992 -1.33398 -0.5 -2.00098s-0.5 -1.33398 -0.5 -2.00098c-0.666992 -2 -1.16699 -3.83301 -1.5 -5.5s-0.5 -3.5 -0.5 -5.5c0 -0.666992 -0.166992 -1.5 -0.5 -2.5s-0.5 -1.83301 -0.5 -2.5c-0.666992 -2.66699 -1.33398 -5.16699 -2.00098 -7.5
s-1.33398 -4.83301 -2.00098 -7.5c-2 -6 -4 -12.333 -6 -19s-4.33301 -13.667 -7 -21s-5.66699 -14.833 -9 -22.5s-7 -15.167 -11 -22.5c-6.66699 -10.667 -14.167 -21 -22.5 -31s-17.833 -19.667 -28.5 -29c-10.667 -10 -23.334 -19 -38.001 -27s-30.667 -15 -48 -21l-1 -5
c14 -6.66699 26.167 -14 36.5 -22s18.166 -16.667 23.499 -26c5.33301 -10 9.66602 -20 12.999 -30s5.33301 -20 6 -30c-0.666992 -8 -1.16699 -15.667 -1.5 -23s-1.16602 -14.666 -2.49902 -21.999s-2.83301 -14.333 -4.5 -21s-3.16699 -13 -4.5 -19
c0 -1.33301 -0.166992 -2.66602 -0.5 -3.99902s-0.833008 -2.33301 -1.5 -3c-0.666992 -1.33301 -1.16699 -2.66602 -1.5 -3.99902s-0.5 -2.66602 -0.5 -3.99902c-0.666992 -2.66699 -1.5 -5.33398 -2.5 -8.00098s-1.83301 -5 -2.5 -7
c-0.666992 -2.66699 -1.5 -5.33398 -2.5 -8.00098s-1.83301 -5.33398 -2.5 -8.00098c0 -0.666992 -0.166992 -1.5 -0.5 -2.5s-0.833008 -2.16699 -1.5 -3.5c-0.666992 -0.666992 -1.16699 -1.66699 -1.5 -3s-0.5 -2.66602 -0.5 -3.99902s-0.333008 -2.5 -1 -3.5
s-1 -2.16699 -1 -3.5c-0.666992 -0.666992 -1.33398 -1.66699 -2.00098 -3s-1 -2.66602 -1 -3.99902c-0.666992 -2 -1.16699 -4.16699 -1.5 -6.5s-1.16602 -4.83301 -2.49902 -7.5c-0.666992 -2 -1.16699 -4.16699 -1.5 -6.5s-0.833008 -4.83301 -1.5 -7.5
c-0.666992 -2 -1.33398 -4.16699 -2.00098 -6.5s-1.33398 -4.83301 -2.00098 -7.5c-0.666992 -1.33301 -1.16699 -2.66602 -1.5 -3.99902s-0.5 -3 -0.5 -5c-0.666992 -1.33301 -1.16699 -3 -1.5 -5s-0.833008 -4 -1.5 -6c-0.666992 -4 -1.16699 -8.16699 -1.5 -12.5
s-0.5 -8.83301 -0.5 -13.5c0.666992 -6 2 -12 4 -18s4.66699 -11.667 8 -17s8.66602 -9.66602 15.999 -12.999s16 -5.66602 26 -6.99902l-13 -48h-40c-25.333 3.33301 -45.833 9.5 -61.5 18.5s-26.5 20.833 -32.5 35.5s-9.5 29.667 -10.5 45s0.166992 31.333 3.5 48
c0 2 0.166992 4 0.5 6s0.833008 4 1.5 6c0.666992 0.666992 1.16699 1.5 1.5 2.5s0.5 1.83301 0.5 2.5v1.5v0.5c0 0.666992 0.166992 1.33398 0.5 2.00098s0.5 1.33398 0.5 2.00098c3.33301 10 5.83301 18.167 7.5 24.5s2.83398 11.166 3.50098 14.499
c1.33301 2.66699 2.5 5.16699 3.5 7.5s1.83301 4.5 2.5 6.5s1.5 4.33301 2.5 7s1.83301 6 2.5 10c1.33301 3.33301 3.16602 8.5 5.49902 15.5s4.83301 15.833 7.5 26.5c5.33301 21.333 8.5 39.666 9.5 54.999s-0.166992 28.333 -3.5 39s-7.5 19.667 -12.5 27
s-10.833 13.333 -17.5 18c-2.66699 1.33301 -5.16699 2.83301 -7.5 4.5s-5.16602 2.83398 -8.49902 3.50098c-2.66699 1.33301 -5.16699 2.16602 -7.5 2.49902s-4.5 0.833008 -6.5 1.5v0v0z" />
    <glyph glyph-name="bar" unicode="|" horiz-adv-x="196" 
d="M-10 -224l282 1053h40h56l-283 -1053h-40h-55v0v0z" />
    <glyph glyph-name="braceright" unicode="}" horiz-adv-x="371" 
d="M393 272l-14.0117 -52.9873c-2.66699 -0.666992 -5.33398 -1.16699 -8.00098 -1.5s-5.66699 -1.16602 -9 -2.49902c-2.66699 -0.666992 -5.66699 -1.83398 -9 -3.50098s-6.66602 -3.16699 -9.99902 -4.5c-8.66699 -4.66699 -17.5 -10.667 -26.5 -18
s-18.167 -16.333 -27.5 -27s-17.666 -23.667 -24.999 -39s-13.666 -33.666 -18.999 -54.999c-2.66699 -10.667 -5 -19.5 -7 -26.5s-3.66699 -12.167 -5 -15.5c-0.666992 -4 -1.16699 -7.33301 -1.5 -10s-0.5 -5 -0.5 -7c0 -0.666992 -0.166992 -1.33398 -0.5 -2.00098
s-0.5 -1.33398 -0.5 -2.00098c0 -2 -0.166992 -3.66699 -0.5 -5s-0.833008 -3 -1.5 -5c-0.666992 -3.33301 -1.66699 -8.16602 -3 -14.499s-3.66602 -14.5 -6.99902 -24.5c0 -0.666992 -0.166992 -1.33398 -0.5 -2.00098s-0.5 -1.33398 -0.5 -2.00098v-0.5v-1.5
c0 -0.666992 -0.166992 -1.5 -0.5 -2.5s-0.833008 -1.83301 -1.5 -2.5c0 -1.33301 -0.166992 -2.5 -0.5 -3.5s-0.833008 -1.83301 -1.5 -2.5c-0.666992 -1.33301 -1.16699 -2.5 -1.5 -3.5s-0.5 -1.83301 -0.5 -2.5c-5.33301 -16.667 -12.833 -32.667 -22.5 -48
s-21.167 -30.333 -34.5 -45s-30.166 -26.334 -50.499 -35.001s-44.166 -14.334 -71.499 -17.001l-39 -1l11 45c11.333 2.66699 21.166 5.66699 29.499 9s15.833 7.66602 22.5 12.999s12.667 11 18 17s9.66602 12 12.999 18c2.66699 4.66699 5 9.16699 7 13.5
s3.66699 8.5 5 12.5s2.66602 7.66699 3.99902 11s2.33301 6.33301 3 9s1.33398 5.16699 2.00098 7.5s1.33398 4.5 2.00098 6.5c0.666992 2.66699 1.16699 5.16699 1.5 7.5s0.833008 4.5 1.5 6.5c0.666992 1.33301 1.16699 2.83301 1.5 4.5s0.5 3.5 0.5 5.5
c0 0.666992 0.166992 1.33398 0.5 2.00098s0.5 1.33398 0.5 2.00098c0 1.33301 0.166992 2.66602 0.5 3.99902s0.833008 2.33301 1.5 3c0.666992 1.33301 1.16699 2.5 1.5 3.5s0.5 2.16699 0.5 3.5c0.666992 2.66699 1.16699 5 1.5 7s0.833008 4 1.5 6l2 8l2 8
c0 2 0.333008 4.33301 1 7l2 8c0 1.33301 0.166992 2.66602 0.5 3.99902s0.833008 2.66602 1.5 3.99902c0.666992 0.666992 1.16699 1.66699 1.5 3s0.5 2.66602 0.5 3.99902c1.33301 6 3 12.333 5 19s4.33301 13.667 7 21c2 7.33301 4.83301 14.666 8.5 21.999
s7.83398 15 12.501 23c5.33301 10 12.333 20 21 30s18.334 20 29.001 30c10.667 9.33301 23.167 18 37.5 26s30.833 15.333 49.5 22l1 5c-14.667 6 -27.167 13 -37.5 21s-18.166 17 -23.499 27c-5.33301 9.33301 -9.66602 19 -12.999 29s-5 20.333 -5 31
c-0.666992 7.33301 -0.666992 14.833 0 22.5s1.66699 15.167 3 22.5s2.83301 14.333 4.5 21s3.5 13 5.5 19c0.666992 2.66699 1.33398 5.16699 2.00098 7.5s1.33398 4.83301 2.00098 7.5l2 8c0.666992 2.66699 1.66699 5.33398 3 8.00098
c0.666992 2 1.33398 4.33301 2.00098 7l2 8c0 1.33301 0.333008 2.66602 1 3.99902l2 4c0 0.666992 0.333008 1.66699 1 3s1 2.66602 1 3.99902c0.666992 2 1.33398 4.16699 2.00098 6.5s1.33398 4.83301 2.00098 7.5c0.666992 2 1.5 4.16699 2.5 6.5
s1.83301 4.83301 2.5 7.5c0.666992 2 1.16699 4.16699 1.5 6.5s0.833008 4.83301 1.5 7.5c0 1.33301 0.166992 2.5 0.5 3.5s0.833008 2.16699 1.5 3.5c0.666992 0.666992 1.16699 1.66699 1.5 3s0.5 2.66602 0.5 3.99902c0.666992 2.66699 1.33398 5.66699 2.00098 9
s1.33398 7 2.00098 11c1.33301 4 2 8.16699 2 12.5v13.5c0 6 -1.16699 12 -3.5 18s-5.16602 11.667 -8.49902 17c-4 5.33301 -9.5 9.66602 -16.5 12.999s-15.167 5.66602 -24.5 6.99902l12 46h40c25.333 -2.66699 45.833 -8.33398 61.5 -17.001s26.5 -20.334 32.5 -35.001
s9.66699 -29.667 11 -45s0.333008 -31.333 -3 -48c-0.666992 -1.33301 -1.16699 -2.66602 -1.5 -3.99902s-0.5 -2.66602 -0.5 -3.99902c0 -0.666992 -0.166992 -1.33398 -0.5 -2.00098s-0.5 -1.33398 -0.5 -2.00098s-0.166992 -1.5 -0.5 -2.5s-0.5 -1.83301 -0.5 -2.5
l-1.5 -3c-0.333008 -0.666992 -0.5 -1.66699 -0.5 -3c-2.66699 -10 -4.83398 -18.167 -6.50098 -24.5s-3.16699 -11.166 -4.5 -14.499c-0.666992 -3.33301 -1.5 -6.33301 -2.5 -9s-1.83301 -5 -2.5 -7c-0.666992 -0.666992 -1.33398 -1.66699 -2.00098 -3
s-1 -2.66602 -1 -3.99902c-0.666992 -2 -1.33398 -3.66699 -2.00098 -5s-1.33398 -3 -2.00098 -5c-0.666992 -4 -2 -9.5 -4 -16.5s-4.33301 -15.5 -7 -25.5c-5.33301 -20.667 -8.66602 -39 -9.99902 -55s-0.333008 -29.333 3 -40s7.66602 -19.667 12.999 -27
s11.333 -13 18 -17c1.33301 -0.666992 2.5 -1.5 3.5 -2.5s2.16699 -1.83301 3.5 -2.5s2.5 -1.16699 3.5 -1.5s2.16699 -0.833008 3.5 -1.5c2 -0.666992 3.83301 -1.33398 5.5 -2.00098s3.16699 -1 4.5 -1c0.666992 -0.666992 1.5 -1 2.5 -1h2.5v0v0z" />
    <glyph glyph-name="asciitilde" unicode="~" horiz-adv-x="640" 
d="M133 312l14.9951 55.998c7.33301 6 15.166 11.667 23.499 17s16.833 10 25.5 14c9.33301 4 18.166 7.5 26.499 10.5s16.833 5.16699 25.5 6.5h2.5c1 0 1.83301 0.333008 2.5 1h3.5h2.5h3.5c1 0 1.83301 0.333008 2.5 1h3.5h2.5h40c10.667 0 21.334 -1.16699 32.001 -3.5
s22 -5.5 34 -9.5c11.333 -4.66699 23.333 -9.5 36 -14.5s26 -10.167 40 -15.5c12.667 -5.33301 24.334 -10.333 35.001 -15s20.334 -8.66699 29.001 -12c2.66699 -0.666992 5.33398 -1.5 8.00098 -2.5s5.33398 -1.83301 8.00098 -2.5l8 -2
c2.66699 -0.666992 5.33398 -1 8.00098 -1c4.66699 0.666992 9.5 1.5 14.5 2.5s10.5 2.5 16.5 4.5c10 3.33301 21 8.33301 33 15s25 15.334 39 26.001h40l-15 -56c-7.33301 -6.66699 -15.166 -12.667 -23.499 -18s-16.833 -10 -25.5 -14s-17.334 -7.33301 -26.001 -10
s-17 -4.66699 -25 -6c-1.33301 0 -2.66602 -0.166992 -3.99902 -0.5s-2.66602 -0.833008 -3.99902 -1.5h-2h-2h-40h-6h-5c-10.667 0 -21.5 1 -32.5 3s-22.167 5.33301 -33.5 10c-12 4 -24.333 8.5 -37 13.5s-25.667 10.5 -39 16.5
c-12.667 5.33301 -24.334 10.166 -35.001 14.499s-20.667 8.16602 -30 11.499c-2 0.666992 -3.83301 1.33398 -5.5 2.00098s-3.5 1.33398 -5.5 2.00098c-4 0.666992 -7.83301 1.5 -11.5 2.5s-7.16699 1.83301 -10.5 2.5c-4.66699 -0.666992 -9.5 -1.66699 -14.5 -3
s-10.167 -2.66602 -15.5 -3.99902c-10 -2.66699 -21 -7.5 -33 -14.5s-25 -15.833 -39 -26.5h-40v0v0z" />
    <glyph glyph-name="space" 
 />
    <glyph glyph-name="space" horiz-adv-x="729" 
d="M200 0l172.002 644.002h-189l15 56h40h473l-15 -56h-216l-62 -230c7.33301 1.33301 14.333 2.66602 21 3.99902s13 2.33301 19 3c11.333 1.33301 22 2.33301 32 3s19 1 27 1h40c34 0 63.833 -4.66699 89.5 -14s47.5 -23.333 65.5 -42s29.167 -41.5 33.5 -68.5
s1.83301 -58.167 -7.5 -93.5c-8.66699 -34 -21.667 -64 -39 -90s-38.666 -47.667 -63.999 -65c-24.667 -18 -53.334 -31.167 -86.001 -39.5s-69.667 -12.5 -111 -12.5h-40l15 56h39c3.33301 0 7.16602 0.166992 11.499 0.5s8.83301 0.833008 13.5 1.5s9.5 1.66699 14.5 3
s10.167 3 15.5 5c11.333 4 22.666 9.66699 33.999 17s23 16.333 35 27c11.333 11.333 21.333 25 30 41s16 34.667 22 56c6.66699 24 8.83398 45.833 6.50098 65.5s-8.83301 36.834 -19.5 51.501c-8.66699 13.333 -21 23.666 -37 30.999s-35 11.666 -57 12.999
c-4 0 -8 -0.166992 -12 -0.5s-8.33301 -0.833008 -13 -1.5c-2 0 -4.16699 -0.166992 -6.5 -0.5s-4.83301 -0.5 -7.5 -0.5c-11.333 -1.33301 -23.833 -3.83301 -37.5 -7.5s-28.834 -8.5 -45.501 -14.5l-91 -343h-40h-68v0v0z" />
    <glyph glyph-name="space" unicode="&#x402;" horiz-adv-x="729" 
d="M200 0l172.002 644.002h-189l15 56h40h473l-15 -56h-216l-62 -230c7.33301 1.33301 14.333 2.66602 21 3.99902s13 2.33301 19 3c11.333 1.33301 22 2.33301 32 3s19 1 27 1h40c34 0 63.833 -4.66699 89.5 -14s47.5 -23.333 65.5 -42s29.167 -41.5 33.5 -68.5
s1.83301 -58.167 -7.5 -93.5c-8.66699 -34 -21.667 -64 -39 -90s-38.666 -47.667 -63.999 -65c-24.667 -18 -53.334 -31.167 -86.001 -39.5s-69.667 -12.5 -111 -12.5h-40l15 56h39c3.33301 0 7.16602 0.166992 11.499 0.5s8.83301 0.833008 13.5 1.5s9.5 1.66699 14.5 3
s10.167 3 15.5 5c11.333 4 22.666 9.66699 33.999 17s23 16.333 35 27c11.333 11.333 21.333 25 30 41s16 34.667 22 56c6.66699 24 8.83398 45.833 6.50098 65.5s-8.83301 36.834 -19.5 51.501c-8.66699 13.333 -21 23.666 -37 30.999s-35 11.666 -57 12.999
c-4 0 -8 -0.166992 -12 -0.5s-8.33301 -0.833008 -13 -1.5c-2 0 -4.16699 -0.166992 -6.5 -0.5s-4.83301 -0.5 -7.5 -0.5c-11.333 -1.33301 -23.833 -3.83301 -37.5 -7.5s-28.834 -8.5 -45.501 -14.5l-91 -343h-40h-68v0v0z" />
    <glyph glyph-name="exclam" horiz-adv-x="447" 
d="M88 0l187 700h40h308l-15 -56h-240l-172 -644h-40h-68v0v0z" />
    <glyph glyph-name="exclam" unicode="&#x403;" horiz-adv-x="447" 
d="M88 0l187 700h40h308l-15 -56h-240l-172 -644h-40h-68v0v0z" />
    <glyph glyph-name="hyphen" horiz-adv-x="611" 
d="M88 0l187 700h40h68l-76 -283l349 283h40h84l-423 -339l243 -361h-40h-91l-194 297l-79 -297h-40h-68v0v0z" />
    <glyph glyph-name="hyphen" unicode="&#x40c;" horiz-adv-x="611" 
d="M88 0l187 700h40h68l-76 -283l349 283h40h84l-423 -339l243 -361h-40h-91l-194 297l-79 -297h-40h-68v0v0z" />
    <glyph glyph-name="period" horiz-adv-x="751" 
d="M200 0l172.003 644h-189l15 56h40h474l-15 -56h-217l-65 -243c5.33301 0.666992 10 1.16699 14 1.5s8 0.5 12 0.5c1.33301 0 2.83301 0.166992 4.5 0.5s3.16699 0.5 4.5 0.5c6 0.666992 11.5 1.16699 16.5 1.5s9.5 0.5 13.5 0.5h40h5h6h6.5h7.5h6h6h7.5h8.5
c50 0 89.167 -4.33301 117.5 -13s45.5 -22 51.5 -40s9 -37.5 9 -58.5s-3 -43.167 -9 -66.5l-61 -228h-40h-68l56 212c9.33301 35.333 12.833 63 10.5 83s-10.166 33 -23.499 39c-12.667 5.33301 -26.334 9.16602 -41.001 11.499s-30.667 3.83301 -48 4.5h-2h-1
c-0.666992 -0.666992 -1.33398 -1 -2.00098 -1h-2h-4h-4c-6.66699 0 -13.834 -0.166992 -21.501 -0.5s-15.834 -0.833008 -24.501 -1.5c-8 -0.666992 -17.5 -1.16699 -28.5 -1.5s-23.833 -1.16602 -38.5 -2.49902l-91 -343h-40h-68v0v0z" />
    <glyph glyph-name="period" unicode="&#x40b;" horiz-adv-x="751" 
d="M200 0l172.003 644h-189l15 56h40h474l-15 -56h-217l-65 -243c5.33301 0.666992 10 1.16699 14 1.5s8 0.5 12 0.5c1.33301 0 2.83301 0.166992 4.5 0.5s3.16699 0.5 4.5 0.5c6 0.666992 11.5 1.16699 16.5 1.5s9.5 0.5 13.5 0.5h40h5h6h6.5h7.5h6h6h7.5h8.5
c50 0 89.167 -4.33301 117.5 -13s45.5 -22 51.5 -40s9 -37.5 9 -58.5s-3 -43.167 -9 -66.5l-61 -228h-40h-68l56 212c9.33301 35.333 12.833 63 10.5 83s-10.166 33 -23.499 39c-12.667 5.33301 -26.334 9.16602 -41.001 11.499s-30.667 3.83301 -48 4.5h-2h-1
c-0.666992 -0.666992 -1.33398 -1 -2.00098 -1h-2h-4h-4c-6.66699 0 -13.834 -0.166992 -21.501 -0.5s-15.834 -0.833008 -24.501 -1.5c-8 -0.666992 -17.5 -1.16699 -28.5 -1.5s-23.833 -1.16602 -38.5 -2.49902l-91 -343h-40h-68v0v0z" />
    <glyph glyph-name="slash" horiz-adv-x="757" 
d="M88 0l187 700h40h68l-172 -644h365l172 644h40h68l-187 -700h-239l-46 -170h-40h-63l46 170h-239v0v0z" />
    <glyph glyph-name="slash" unicode="&#x40f;" horiz-adv-x="757" 
d="M88 0l187 700h40h68l-172 -644h365l172 644h40h68l-187 -700h-239l-46 -170h-40h-63l46 170h-239v0v0z" />
    <glyph glyph-name="zero" horiz-adv-x="526" 
d="M73 0l152.007 570.003h-66l13 48h66l31 117h40h60l-31 -117h224l-13 -48h-224l-42 -157c4 3.33301 8 6.16602 12 8.49902s8.33301 4.83301 13 7.5c13.333 7.33301 27.666 13 42.999 17s31.666 6 48.999 6h40c23.333 0 42.666 -3.33301 57.999 -10
s26.666 -16.667 33.999 -30s13 -27.333 17 -42s6 -30 6 -46c-0.666992 -9.33301 -1.33398 -18.5 -2.00098 -27.5s-1.66699 -18.167 -3 -27.5c-2 -8.66699 -3.83301 -16.667 -5.5 -24s-3.16699 -14 -4.5 -20c-6 -22 -13 -42.833 -21 -62.5s-17 -38.5 -27 -56.5
c-10.667 -18 -22.334 -35.5 -35.001 -52.5s-26.667 -34.167 -42 -51.5c-8.66699 -8.66699 -18 -17.667 -28 -27s-20.333 -19 -31 -29s-22 -20 -34 -30s-24.667 -20.333 -38 -31l-40 -1l-26 32c12 12.667 23.5 24.334 34.5 35.001s21.167 20.667 30.5 30l27.5 27.5
c9 9 17.5 17.833 25.5 26.5c11.333 14 22.166 28.5 32.499 43.5s19.5 29.833 27.5 44.5c8 15.333 15.5 32.166 22.5 50.499s13.5 38.166 19.5 59.499c7.33301 27.333 11.5 51.666 12.5 72.999s-1.16699 39.333 -6.5 54c-4 11.333 -9.66699 20.5 -17 27.5
s-16.666 11.833 -27.999 14.5c-2.66699 -0.666992 -5.33398 -1.16699 -8.00098 -1.5s-5.66699 -1.16602 -9 -2.49902c-7.33301 -2.66699 -14.5 -5.66699 -21.5 -9s-14.167 -7.33301 -21.5 -12s-14.5 -9.83398 -21.5 -15.501s-14.167 -12.167 -21.5 -19.5
c-14.667 -14 -27.167 -30.667 -37.5 -50s-18.833 -41.333 -25.5 -66l-60 -226h-40h-60v0v0z" />
    <glyph glyph-name="zero" unicode="&#x452;" horiz-adv-x="526" 
d="M73 0l152.007 570.003h-66l13 48h66l31 117h40h60l-31 -117h224l-13 -48h-224l-42 -157c4 3.33301 8 6.16602 12 8.49902s8.33301 4.83301 13 7.5c13.333 7.33301 27.666 13 42.999 17s31.666 6 48.999 6h40c23.333 0 42.666 -3.33301 57.999 -10
s26.666 -16.667 33.999 -30s13 -27.333 17 -42s6 -30 6 -46c-0.666992 -9.33301 -1.33398 -18.5 -2.00098 -27.5s-1.66699 -18.167 -3 -27.5c-2 -8.66699 -3.83301 -16.667 -5.5 -24s-3.16699 -14 -4.5 -20c-6 -22 -13 -42.833 -21 -62.5s-17 -38.5 -27 -56.5
c-10.667 -18 -22.334 -35.5 -35.001 -52.5s-26.667 -34.167 -42 -51.5c-8.66699 -8.66699 -18 -17.667 -28 -27s-20.333 -19 -31 -29s-22 -20 -34 -30s-24.667 -20.333 -38 -31l-40 -1l-26 32c12 12.667 23.5 24.334 34.5 35.001s21.167 20.667 30.5 30l27.5 27.5
c9 9 17.5 17.833 25.5 26.5c11.333 14 22.166 28.5 32.499 43.5s19.5 29.833 27.5 44.5c8 15.333 15.5 32.166 22.5 50.499s13.5 38.166 19.5 59.499c7.33301 27.333 11.5 51.666 12.5 72.999s-1.16699 39.333 -6.5 54c-4 11.333 -9.66699 20.5 -17 27.5
s-16.666 11.833 -27.999 14.5c-2.66699 -0.666992 -5.33398 -1.16699 -8.00098 -1.5s-5.66699 -1.16602 -9 -2.49902c-7.33301 -2.66699 -14.5 -5.66699 -21.5 -9s-14.167 -7.33301 -21.5 -12s-14.5 -9.83398 -21.5 -15.501s-14.167 -12.167 -21.5 -19.5
c-14.667 -14 -27.167 -30.667 -37.5 -50s-18.833 -41.333 -25.5 -66l-60 -226h-40h-60v0v0z" />
    <glyph glyph-name="equal" horiz-adv-x="468" 
d="M74 0l116 434h40h60l-41 -154l195 154h40h72l-263 -202l164 -232h-40h-77l-120 175l-46 -175h-40h-60v0v0z" />
    <glyph glyph-name="equal" unicode="&#x45c;" horiz-adv-x="468" 
d="M74 0l116 434h40h60l-41 -154l195 154h40h72l-263 -202l164 -232h-40h-77l-120 175l-46 -175h-40h-60v0v0z" />
    <glyph glyph-name="greater" horiz-adv-x="544" 
d="M73 0l151.999 570.001h-66l13 48h66l31 117h40h60l-31 -117h224l-13 -48h-224l-42 -157c5.33301 4 11.166 7.83301 17.499 11.5s13.166 7.16699 20.499 10.5c11.333 5.33301 23.666 9.5 36.999 12.5s27.333 4.5 42 4.5h40c24 0 44.333 -3.66699 61 -11
s29.334 -18.666 38.001 -33.999c9.33301 -14.667 14.333 -32.834 15 -54.501s-2.66602 -46.5 -9.99902 -74.5l-74 -278h-40h-60l72 270c0.666992 3.33301 1.33398 6.5 2.00098 9.5s1.33398 5.83301 2.00098 8.5c0 1.33301 0.166992 2.83301 0.5 4.5s0.833008 3.5 1.5 5.5
c0 1.33301 0.166992 2.83301 0.5 4.5s0.833008 3.16699 1.5 4.5c1.33301 12 1.5 23.5 0.5 34.5s-3.16699 21.5 -6.5 31.5c-2.66699 8 -7.83398 14.5 -15.501 19.5s-17.5 8.5 -29.5 10.5c-16.667 -2.66699 -32.5 -7.83398 -47.5 -15.501s-29.167 -18.167 -42.5 -31.5
c-16 -16 -29.667 -32.833 -41 -50.5s-20.666 -36.167 -27.999 -55.5c0 -0.666992 -0.166992 -1.5 -0.5 -2.5s-0.833008 -2.16699 -1.5 -3.5c-0.666992 -0.666992 -1.16699 -1.5 -1.5 -2.5s-0.5 -2.16699 -0.5 -3.5c-0.666992 -2 -1.16699 -4 -1.5 -6s-0.833008 -4 -1.5 -6
l-60 -226h-40h-60v0v0z" />
    <glyph glyph-name="greater" unicode="&#x45b;" horiz-adv-x="544" 
d="M73 0l151.999 570.001h-66l13 48h66l31 117h40h60l-31 -117h224l-13 -48h-224l-42 -157c5.33301 4 11.166 7.83301 17.499 11.5s13.166 7.16699 20.499 10.5c11.333 5.33301 23.666 9.5 36.999 12.5s27.333 4.5 42 4.5h40c24 0 44.333 -3.66699 61 -11
s29.334 -18.666 38.001 -33.999c9.33301 -14.667 14.333 -32.834 15 -54.501s-2.66602 -46.5 -9.99902 -74.5l-74 -278h-40h-60l72 270c0.666992 3.33301 1.33398 6.5 2.00098 9.5s1.33398 5.83301 2.00098 8.5c0 1.33301 0.166992 2.83301 0.5 4.5s0.833008 3.5 1.5 5.5
c0 1.33301 0.166992 2.83301 0.5 4.5s0.833008 3.16699 1.5 4.5c1.33301 12 1.5 23.5 0.5 34.5s-3.16699 21.5 -6.5 31.5c-2.66699 8 -7.83398 14.5 -15.501 19.5s-17.5 8.5 -29.5 10.5c-16.667 -2.66699 -32.5 -7.83398 -47.5 -15.501s-29.167 -18.167 -42.5 -31.5
c-16 -16 -29.667 -32.833 -41 -50.5s-20.666 -36.167 -27.999 -55.5c0 -0.666992 -0.166992 -1.5 -0.5 -2.5s-0.833008 -2.16699 -1.5 -3.5c-0.666992 -0.666992 -1.16699 -1.5 -1.5 -2.5s-0.5 -2.16699 -0.5 -3.5c-0.666992 -2 -1.16699 -4 -1.5 -6s-0.833008 -4 -1.5 -6
l-60 -226h-40h-60v0v0z" />
    <glyph glyph-name="at" unicode="&#xa0;" 
 />
    <glyph glyph-name="A" unicode="&#xa1;" horiz-adv-x="601" 
d="M172 0l153 212l-124 488h40h77l91 -375l270 375h40h69l-507 -700h-40h-69v0v0zM379 829l59.999 22.002h40c0 -10 1.66699 -18.5 5 -25.5s8.33301 -12.833 15 -17.5c5.33301 -4 10.666 -7.16699 15.999 -9.5s11 -4.16602 17 -5.49902
c8.66699 1.33301 16.334 3.16602 23.001 5.49902s13 5.5 19 9.5c8 5.33301 15.167 11 21.5 17s11.833 12.333 16.5 19l1 3l4 4h40l49 -22l-6 -8c-2 -2.66699 -4.33301 -5.33398 -7 -8.00098c-6 -8 -12.167 -15 -18.5 -21s-13.166 -11.333 -20.499 -16
c-8.66699 -6 -17.5 -11.167 -26.5 -15.5s-18.167 -7.83301 -27.5 -10.5c-6 -2 -11.833 -3.66699 -17.5 -5s-11.167 -2.33301 -16.5 -3c-4.66699 -0.666992 -9.5 -1.16699 -14.5 -1.5s-9.5 -0.5 -13.5 -0.5h-40c-4.66699 0 -9.5 0.166992 -14.5 0.5
s-10.167 0.833008 -15.5 1.5c-4.66699 1.33301 -9.5 2.66602 -14.5 3.99902s-10.167 3 -15.5 5c-7.33301 2.66699 -14.333 6.16699 -21 10.5s-12.667 9.5 -18 15.5c-6 6 -10.5 13.5 -13.5 22.5s-5.16699 18.833 -6.5 29.5v0v0z" />
    <glyph glyph-name="A" unicode="&#x40e;" horiz-adv-x="601" 
d="M172 0l153 212l-124 488h40h77l91 -375l270 375h40h69l-507 -700h-40h-69v0v0zM379 829l59.999 22.002h40c0 -10 1.66699 -18.5 5 -25.5s8.33301 -12.833 15 -17.5c5.33301 -4 10.666 -7.16699 15.999 -9.5s11 -4.16602 17 -5.49902
c8.66699 1.33301 16.334 3.16602 23.001 5.49902s13 5.5 19 9.5c8 5.33301 15.167 11 21.5 17s11.833 12.333 16.5 19l1 3l4 4h40l49 -22l-6 -8c-2 -2.66699 -4.33301 -5.33398 -7 -8.00098c-6 -8 -12.167 -15 -18.5 -21s-13.166 -11.333 -20.499 -16
c-8.66699 -6 -17.5 -11.167 -26.5 -15.5s-18.167 -7.83301 -27.5 -10.5c-6 -2 -11.833 -3.66699 -17.5 -5s-11.167 -2.33301 -16.5 -3c-4.66699 -0.666992 -9.5 -1.16699 -14.5 -1.5s-9.5 -0.5 -13.5 -0.5h-40c-4.66699 0 -9.5 0.166992 -14.5 0.5
s-10.167 0.833008 -15.5 1.5c-4.66699 1.33301 -9.5 2.66602 -14.5 3.99902s-10.167 3 -15.5 5c-7.33301 2.66699 -14.333 6.16699 -21 10.5s-12.667 9.5 -18 15.5c-6 6 -10.5 13.5 -13.5 22.5s-5.16699 18.833 -6.5 29.5v0v0z" />
    <glyph glyph-name="B" unicode="&#xa2;" horiz-adv-x="493" 
d="M167 434h68l56 -318l206 318h40h61l-429 -644h-40h-65l148 214l-85 430h40v0v0zM264 619l60.0059 21.9961h40v-2v-1c0 -8.66699 1.16699 -17.334 3.5 -26.001s6.16602 -16.667 11.499 -24c3.33301 -5.33301 8 -9.66602 14 -12.999s13 -5.66602 21 -6.99902
c6 1.33301 11.833 2.83301 17.5 4.5s10.834 4.16699 15.501 7.5c7.33301 4.66699 14 9.5 20 14.5s11.333 10.5 16 16.5l6 8l6 8c1.33301 2.66699 2.66602 5.16699 3.99902 7.5s2.33301 4.5 3 6.5h40l49 -22c-8.66699 -15.333 -19.334 -29.166 -32.001 -41.499
s-26.667 -23.166 -42 -32.499c-8 -4.66699 -16 -8.66699 -24 -12s-16 -6 -24 -8c-8.66699 -2.66699 -17 -4.5 -25 -5.5s-16 -1.5 -24 -1.5h-40c-16.667 0 -31.834 2.33301 -45.501 7s-25.834 11.334 -36.501 20.001c-10.667 9.33301 -18.834 20 -24.501 32
s-8.83398 26 -9.50098 42v0v0z" />
    <glyph glyph-name="B" unicode="&#x45e;" horiz-adv-x="493" 
d="M167 434h68l56 -318l206 318h40h61l-429 -644h-40h-65l148 214l-85 430h40v0v0zM264 619l60.0059 21.9961h40v-2v-1c0 -8.66699 1.16699 -17.334 3.5 -26.001s6.16602 -16.667 11.499 -24c3.33301 -5.33301 8 -9.66602 14 -12.999s13 -5.66602 21 -6.99902
c6 1.33301 11.833 2.83301 17.5 4.5s10.834 4.16699 15.501 7.5c7.33301 4.66699 14 9.5 20 14.5s11.333 10.5 16 16.5l6 8l6 8c1.33301 2.66699 2.66602 5.16699 3.99902 7.5s2.33301 4.5 3 6.5h40l49 -22c-8.66699 -15.333 -19.334 -29.166 -32.001 -41.499
s-26.667 -23.166 -42 -32.499c-8 -4.66699 -16 -8.66699 -24 -12s-16 -6 -24 -8c-8.66699 -2.66699 -17 -4.5 -25 -5.5s-16 -1.5 -24 -1.5h-40c-16.667 0 -31.834 2.33301 -45.501 7s-25.834 11.334 -36.501 20.001c-10.667 9.33301 -18.834 20 -24.501 32
s-8.83398 26 -9.50098 42v0v0z" />
    <glyph glyph-name="C" unicode="&#xa3;" horiz-adv-x="453" 
d="M100 47l55.0068 45.002h40l3 -6l3 -5c6 -10 12.5 -18 19.5 -24s14.167 -10.333 21.5 -13c1.33301 -0.666992 2.66602 -1.16699 3.99902 -1.5s2.66602 -0.833008 3.99902 -1.5c2.66699 -0.666992 5.5 -1.33398 8.5 -2.00098s5.5 -1.33398 7.5 -2.00098
c16 2 30 6.5 42 13.5s21.667 16.167 29 27.5c9.33301 14 18 30.167 26 48.5s15 38.833 21 61.5l137 512h40h68l-138 -516l-2 -6l-2 -6c-0.666992 -2.66699 -1.33398 -5 -2.00098 -7l-2 -6c-0.666992 -2 -1.33398 -4.16699 -2.00098 -6.5s-1.33398 -4.5 -2.00098 -6.5
c-0.666992 -2.66699 -1.33398 -5 -2.00098 -7l-2 -6c-6.66699 -18.667 -15.667 -36.834 -27 -54.501s-24.666 -34.5 -39.999 -50.5c-14.667 -15.333 -34 -26.833 -58 -34.5s-52 -11.5 -84 -11.5l-40 -1c-12 0.666992 -23 1.83398 -33 3.50098s-19.333 4.16699 -28 7.5
c-8.66699 2.66699 -16.834 6.5 -24.501 11.5s-14.834 11.5 -21.501 19.5c-2 1.33301 -3.83301 3 -5.5 5s-3.16699 4 -4.5 6s-2.83301 4 -4.5 6s-3.16699 4.33301 -4.5 7v0v0z" />
    <glyph glyph-name="C" unicode="&#x408;" horiz-adv-x="453" 
d="M100 47l55.0068 45.002h40l3 -6l3 -5c6 -10 12.5 -18 19.5 -24s14.167 -10.333 21.5 -13c1.33301 -0.666992 2.66602 -1.16699 3.99902 -1.5s2.66602 -0.833008 3.99902 -1.5c2.66699 -0.666992 5.5 -1.33398 8.5 -2.00098s5.5 -1.33398 7.5 -2.00098
c16 2 30 6.5 42 13.5s21.667 16.167 29 27.5c9.33301 14 18 30.167 26 48.5s15 38.833 21 61.5l137 512h40h68l-138 -516l-2 -6l-2 -6c-0.666992 -2.66699 -1.33398 -5 -2.00098 -7l-2 -6c-0.666992 -2 -1.33398 -4.16699 -2.00098 -6.5s-1.33398 -4.5 -2.00098 -6.5
c-0.666992 -2.66699 -1.33398 -5 -2.00098 -7l-2 -6c-6.66699 -18.667 -15.667 -36.834 -27 -54.501s-24.666 -34.5 -39.999 -50.5c-14.667 -15.333 -34 -26.833 -58 -34.5s-52 -11.5 -84 -11.5l-40 -1c-12 0.666992 -23 1.83398 -33 3.50098s-19.333 4.16699 -28 7.5
c-8.66699 2.66699 -16.834 6.5 -24.501 11.5s-14.834 11.5 -21.501 19.5c-2 1.33301 -3.83301 3 -5.5 5s-3.16699 4 -4.5 6s-2.83301 4 -4.5 6s-3.16699 4.33301 -4.5 7v0v0z" />
    <glyph glyph-name="D" unicode="&#xa4;" horiz-adv-x="700" 
d="M168 179c-5.33301 10.667 -9.83008 22.168 -13.4971 34.501s-6.83398 25.5 -9.50098 39.5c-2 14 -2.33301 29.167 -1 45.5s4.33301 33.5 9 51.5c5.33301 18 11.666 35 18.999 51s15.666 31 24.999 45c10 14 20.167 27.333 30.5 40s21.166 24.334 32.499 35.001l-52 71
l48 38h40l40 -54c9.33301 5.33301 18.833 10 28.5 14s19.5 8 29.5 12c15.333 6 31.666 10.5 48.999 13.5s35 4.5 53 4.5h40c18 0 34.5 -1.5 49.5 -4.5s28.833 -7.5 41.5 -13.5c8 -4 15.667 -8.16699 23 -12.5s14.333 -8.83301 21 -13.5l69 54h40l28 -38l-90 -71
c5.33301 -10.667 10 -22.334 14 -35.001s7 -26 9 -40c2.66699 -14 3.33398 -29 2.00098 -45s-4.66602 -33 -9.99902 -51c-4.66699 -18 -10.667 -35.167 -18 -51.5s-16 -31.5 -26 -45.5c-9.33301 -14 -19.333 -27.167 -30 -39.5s-21.667 -23.833 -33 -34.5l52 -71l-48 -38
h-40l-40 55c-8.66699 -4.66699 -18 -9.33398 -28 -14.001s-20 -9 -30 -13c-15.333 -6 -31.5 -10.5 -48.5 -13.5s-34.5 -4.5 -52.5 -4.5h-40c-18 0 -34.667 1.5 -50 4.5s-29.333 7.5 -42 13.5c-8 4 -15.667 8.16699 -23 12.5s-14.333 8.83301 -21 13.5l-69 -54h-40l-28 38
l90 71v0v0zM249.003 350.001c-8 -29.333 -10.1621 -56.5 -6.49512 -81.5s12.834 -48.167 27.501 -69.5c13.333 -18.667 29.666 -33.167 48.999 -43.5s41.666 -16.5 66.999 -18.5c26 2 51.667 8.16699 77 18.5s49.333 24.833 72 43.5c26 21.333 47.5 44.5 64.5 69.5
s29.5 52.167 37.5 81.5s10.167 56.666 6.5 81.999s-12.834 48.333 -27.501 69c-12.667 18.667 -28.834 33.167 -48.501 43.5s-42.167 16.5 -67.5 18.5c-26.667 -2 -52.334 -8.16699 -77.001 -18.5s-48.667 -24.833 -72 -43.5c-26.667 -20.667 -48.334 -43.667 -65.001 -69
s-29 -52.666 -37 -81.999v0v0z" />
    <glyph glyph-name="E" unicode="&#xa5;" horiz-adv-x="447" 
d="M88 0l187 700h245l32 119h40h63l-47 -175h-240l-172 -644h-40h-68v0v0z" />
    <glyph glyph-name="E" unicode="&#x490;" horiz-adv-x="447" 
d="M88 0l187 700h245l32 119h40h63l-47 -175h-240l-172 -644h-40h-68v0v0z" />
    <glyph glyph-name="F" unicode="&#xa6;" horiz-adv-x="272" 
d="M79 35c1.33301 6 3.83203 11.667 7.49902 17s8.16699 10.333 13.5 15c6 4.66699 12 8.16699 18 10.5s12.333 3.5 19 3.5h40c6 0 11.5 -1.16699 16.5 -3.5s9.16699 -5.5 12.5 -9.5c3.33301 -4.66699 5.33301 -9.66699 6 -15s0.333984 -11.333 -0.999023 -18
c-2 -6.66699 -5 -12.667 -9 -18s-8.66699 -10 -14 -14c-5.33301 -3.33301 -11 -6.16602 -17 -8.49902s-12 -3.5 -18 -3.5l-40 -1c-6.66699 0.666992 -12.5 2.16699 -17.5 4.5s-9.16699 5.16602 -12.5 8.49902c-3.33301 4 -5.33301 8.66699 -6 14s0 11.333 2 18v0v0z
M175.999 399c2 6 4.83594 11.667 8.50293 17s8.16699 10.333 13.5 15s11.166 8.16699 17.499 10.5s12.833 3.5 19.5 3.5h40c6 0 11.333 -1.16699 16 -3.5s8.66699 -5.5 12 -9.5c3.33301 -4.66699 5.5 -9.66699 6.5 -15s0.5 -11.333 -1.5 -18
c-1.33301 -6.66699 -4 -12.667 -8 -18s-8.66699 -10.333 -14 -15c-6 -4.66699 -12 -8 -18 -10s-12 -3 -18 -3h-40c-6.66699 0 -12.334 1 -17.001 3s-8.66699 5.33301 -12 10s-5.33301 9.66699 -6 15s-0.333984 11.333 0.999023 18v0v0z" />
    <glyph glyph-name="G" unicode="&#xa7;" horiz-adv-x="512" 
d="M105 0l62.9971 0.00195312l-1 -2l-1 -2c-2.66699 -12 -3.5 -23.667 -2.5 -35s4.16699 -22.333 9.5 -33c5.33301 -8 12.5 -14.5 21.5 -19.5s20.5 -8.5 34.5 -10.5c7.33301 1.33301 14.5 3 21.5 5s13.833 4.66699 20.5 8c2 0.666992 4.16699 1.66699 6.5 3
s4.5 2.66602 6.5 3.99902c12 6.66699 22 15.5 30 26.5s14 23.833 18 38.5c4 15.333 5.5 29 4.5 41s-5.16699 22 -12.5 30c-6.66699 8 -14 15 -22 21s-16.667 11 -26 15c-1.33301 0.666992 -2.66602 1.16699 -3.99902 1.5s-2.66602 0.833008 -3.99902 1.5
c-2 0.666992 -3.66699 1.16699 -5 1.5s-2.66602 0.833008 -3.99902 1.5s-2.66602 1.16699 -3.99902 1.5s-2.33301 0.833008 -3 1.5c-1.33301 0 -2.5 0.166992 -3.5 0.5s-2.16699 0.833008 -3.5 1.5s-2.83301 1.16699 -4.5 1.5s-3.5 0.833008 -5.5 1.5
c-3.33301 0.666992 -6.5 1.66699 -9.5 3s-6.5 2.66602 -10.5 3.99902c-2.66699 1.33301 -5.33398 2.5 -8.00098 3.5s-5.33398 2.16699 -8.00098 3.5l-8 4l-8 4c-11.333 6 -21.5 13.5 -30.5 22.5s-17.167 19.5 -24.5 31.5s-11.333 26.5 -12 43.5s2 36.5 8 58.5
c5.33301 18.667 12.666 36 21.999 52s21 31 35 45c13.333 13.333 28.333 25 45 35s34.334 18 53.001 24c-12.667 5.33301 -23.334 12.166 -32.001 20.499s-15 17.833 -19 28.5c-4 11.333 -6.33301 22.666 -7 33.999s0 23 2 35l2 5l1 5c0.666992 2 1.16699 4 1.5 6
s0.833008 4 1.5 6l2 4l2 4c0 0.666992 0.333008 1.33398 1 2.00098s1 1.33398 1 2.00098c6.66699 16 16 31.5 28 46.5s26.333 29.167 43 42.5c17.333 13.333 36.333 23.5 57 30.5s43 10.5 67 10.5h40c26 0 47.667 -3.83301 65 -11.5s30.333 -19.167 39 -34.5
c9.33301 -15.333 15.5 -31.5 18.5 -48.5s3.16699 -34.833 0.5 -53.5c-0.666992 -2 -1.16699 -4 -1.5 -6s-0.833008 -4 -1.5 -6c-0.666992 -1.33301 -1.16699 -2.66602 -1.5 -3.99902s-0.5 -2.66602 -0.5 -3.99902c0 -0.666992 -0.166992 -1.33398 -0.5 -2.00098
s-0.5 -1.33398 -0.5 -2.00098v-2v0l-1 -2v-1h-40h-63l5 18c0.666992 2.66699 1.16699 5.66699 1.5 9s0.833008 7 1.5 11v3.5v2.5v10c0 3.33301 -0.333008 6.66602 -1 9.99902c-0.666992 7.33301 -2.66699 14.166 -6 20.499s-7.66602 12.5 -12.999 18.5
c-4 4 -8.66699 7.5 -14 10.5s-11.666 4.83301 -18.999 5.5c-10.667 -1.33301 -20.834 -4.16602 -30.501 -8.49902s-19.167 -10.166 -28.5 -17.499c-12.667 -8.66699 -23 -19 -31 -31s-14 -25.667 -18 -41c-3.33301 -12.667 -4.66602 -24 -3.99902 -34
s3.33398 -19 8.00098 -27c5.33301 -8 15 -15.5 29 -22.5s32.333 -13.833 55 -20.5c1.33301 -0.666992 2.5 -1.16699 3.5 -1.5s2.16699 -0.5 3.5 -0.5c0.666992 -0.666992 1.16699 -1 1.5 -1h1.5c0.666992 -0.666992 1.5 -1 2.5 -1s1.83301 -0.333008 2.5 -1
c1.33301 -0.666992 2.66602 -1.16699 3.99902 -1.5s2.66602 -0.5 3.99902 -0.5c1.33301 -0.666992 2.66602 -1.16699 3.99902 -1.5s2.66602 -0.833008 3.99902 -1.5c15.333 -6 29.5 -13.333 42.5 -22s24.833 -19 35.5 -31s17.167 -27 19.5 -45
s0.166016 -39.333 -6.50098 -64c-5.33301 -20 -13.166 -38.5 -23.499 -55.5s-22.833 -32.167 -37.5 -45.5c-15.333 -14 -31.166 -26 -47.499 -36s-33.166 -18 -50.499 -24c12 -4.66699 22.333 -11.5 31 -20.5s16 -19.5 22 -31.5c5.33301 -12 8.33301 -25.5 9 -40.5
s-1.33301 -30.833 -6 -47.5c-6 -21.333 -15 -40.833 -27 -58.5s-27.333 -33.167 -46 -46.5s-38.667 -23.5 -60 -30.5s-44.333 -10.5 -69 -10.5l-40 -1c-24.667 0.666992 -45.834 3.66699 -63.501 9s-31.167 13 -40.5 23s-16.666 20.667 -21.999 32s-8.66602 23 -9.99902 35
c-0.666992 6 -1 11.833 -1 17.5s0.333008 11.167 1 16.5s1.5 10.333 2.5 15s2.16699 8.66699 3.5 12h40v0v0zM297.997 162.002c12 2 23.9961 5.50098 35.9961 10.501s23.667 11.5 35 19.5c14.667 10 27.334 22.667 38.001 38s18.667 33.333 24 54
c5.33301 20 6.83301 37.667 4.5 53s-8.16602 28 -17.499 38c-8 8 -16.333 14.5 -25 19.5s-18.667 8.16699 -30 9.5c-13.333 -1.33301 -26.166 -5 -38.499 -11s-24.166 -13.667 -35.499 -23c-14.667 -12 -26.667 -25.167 -36 -39.5s-16 -29.833 -20 -46.5
c-4.66699 -16.667 -6.16699 -32.334 -4.5 -47.001s6.16699 -28 13.5 -40c6.66699 -9.33301 14.5 -17 23.5 -23s19.833 -10 32.5 -12v0z" />
    <glyph glyph-name="H" unicode="&#xa8;" horiz-adv-x="559" 
d="M88 0l187 700h40h375l-15 -56h-307l-60 -224h296l-15 -56h-296l-82 -308h307l-15 -56h-40h-375v0v0zM368 800c2 7.33301 4.83594 13.666 8.50293 18.999s8.16699 10 13.5 14s10.666 7 15.999 9s10.666 3.33301 15.999 4h40h1h2c6 0 11.333 -1.16699 16 -3.5
s8.66699 -5.5 12 -9.5c3.33301 -4.66699 5.33301 -9.66699 6 -15s0.333984 -11.333 -0.999023 -18c-2 -6.66699 -5 -12.667 -9 -18s-8.66699 -10.333 -14 -15s-10.833 -8 -16.5 -10s-11.5 -3 -17.5 -3h-40h-4l-3 1c-4.66699 0.666992 -8.83398 2 -12.501 4
s-7.16699 5 -10.5 9c-2.66699 3.33301 -4.33398 7.83301 -5.00098 13.5s0 11.834 2 18.501v0v0zM529.003 800c1.33301 6.66699 3.83203 12.667 7.49902 18s8.5 10.333 14.5 15c5.33301 4 11 7.16699 17 9.5s12 3.5 18 3.5h40c6 0 11.333 -1.16699 16 -3.5
s8.66699 -5.5 12 -9.5c3.33301 -4.66699 5.33301 -9.66699 6 -15s0.333984 -11.333 -0.999023 -18c-2 -6.66699 -5 -12.667 -9 -18s-8.66699 -10.333 -14 -15s-10.833 -8 -16.5 -10s-11.5 -3 -17.5 -3h-40c-6 0 -11.5 1 -16.5 3s-9.16699 5.33301 -12.5 10
s-5.33301 9.66699 -6 15s0 11.333 2 18v0v0z" />
    <glyph glyph-name="H" unicode="&#x401;" horiz-adv-x="559" 
d="M88 0l187 700h40h375l-15 -56h-307l-60 -224h296l-15 -56h-296l-82 -308h307l-15 -56h-40h-375v0v0zM368 800c2 7.33301 4.83594 13.666 8.50293 18.999s8.16699 10 13.5 14s10.666 7 15.999 9s10.666 3.33301 15.999 4h40h1h2c6 0 11.333 -1.16699 16 -3.5
s8.66699 -5.5 12 -9.5c3.33301 -4.66699 5.33301 -9.66699 6 -15s0.333984 -11.333 -0.999023 -18c-2 -6.66699 -5 -12.667 -9 -18s-8.66699 -10.333 -14 -15s-10.833 -8 -16.5 -10s-11.5 -3 -17.5 -3h-40h-4l-3 1c-4.66699 0.666992 -8.83398 2 -12.501 4
s-7.16699 5 -10.5 9c-2.66699 3.33301 -4.33398 7.83301 -5.00098 13.5s0 11.834 2 18.501v0v0zM529.003 800c1.33301 6.66699 3.83203 12.667 7.49902 18s8.5 10.333 14.5 15c5.33301 4 11 7.16699 17 9.5s12 3.5 18 3.5h40c6 0 11.333 -1.16699 16 -3.5
s8.66699 -5.5 12 -9.5c3.33301 -4.66699 5.33301 -9.66699 6 -15s0.333984 -11.333 -0.999023 -18c-2 -6.66699 -5 -12.667 -9 -18s-8.66699 -10.333 -14 -15s-10.833 -8 -16.5 -10s-11.5 -3 -17.5 -3h-40c-6 0 -11.5 1 -16.5 3s-9.16699 5.33301 -12.5 10
s-5.33301 9.66699 -6 15s0 11.333 2 18v0v0z" />
    <glyph glyph-name="I" unicode="&#xa9;" horiz-adv-x="880" 
d="M143 350c13.333 50 34.6621 96.665 63.9951 139.998s67 83.333 113 120s93.167 64.167 141.5 82.5s98.5 27.5 150.5 27.5h40c50.667 0 95.334 -9 134.001 -27s71.334 -45 98.001 -81s43.334 -75.833 50.001 -119.5s3 -91.167 -11 -142.5
c-13.333 -51.333 -35.166 -98.833 -65.499 -142.5s-68.166 -83.5 -113.499 -119.5c-46 -36 -93.167 -62.667 -141.5 -80s-97.833 -26 -148.5 -26l-40 -1c-52 0.666992 -97.333 9.83398 -136 27.501s-71 44.834 -97 81.501c-26.667 36.667 -43 76.667 -49 120
s-2.33301 90 11 140v0v0zM238.996 349.998c-11.333 -42.667 -14.335 -82.334 -9.00195 -119.001s19 -70.667 41 -102c20 -28.667 45 -50.667 75 -66s64.333 -24 103 -26c40 2 79.333 10.667 118 26s75.334 37.333 110.001 66c38.667 31.333 70.667 65.333 96 102
s43.333 76.334 54 119.001c11.333 42.667 14.333 82.5 9 119.5s-19 70.833 -41 101.5c-19.333 28.667 -44 50.667 -74 66s-64.667 24 -104 26c-40 -2 -79.167 -10.667 -117.5 -26s-75.166 -37.333 -110.499 -66c-38.667 -30.667 -70.5 -64.5 -95.5 -101.5
s-43.167 -76.833 -54.5 -119.5v0v0zM652.994 155.998c-12 -6 -24 -11.1689 -36 -15.502s-24 -8.16602 -36 -11.499c-12.667 -3.33301 -25.167 -5.83301 -37.5 -7.5s-25.166 -2.5 -38.499 -2.5h-40c-34.667 0 -64.334 5.83301 -89.001 17.5s-44 28.834 -58 51.501
c-14.667 23.333 -23.334 48.5 -26.001 75.5s0 55.833 8 86.5l1 4l2 5c8 27.333 20.5 53.833 37.5 79.5s38.5 49.834 64.5 72.501c26.667 23.333 55.334 40.833 86.001 52.5s63.334 17.5 98.001 17.5h40c6 0 11.833 -0.166992 17.5 -0.5s10.834 -0.833008 15.501 -1.5
c2 0 4.33301 -0.166992 7 -0.5s5.33398 -0.833008 8.00098 -1.5c2 -0.666992 4.33301 -1.16699 7 -1.5s5 -0.833008 7 -1.5c5.33301 -1.33301 10.666 -3 15.999 -5s10.666 -4.33301 15.999 -7s10.833 -5.5 16.5 -8.5s11.5 -6.5 17.5 -10.5l-21 -78h-40
c-2 1.33301 -4 2.83301 -6 4.5s-4 3.16699 -6 4.5c-2.66699 1.33301 -5 2.66602 -7 3.99902l-6 4l-8 4l-8 4c-5.33301 2.66699 -10.5 5.16699 -15.5 7.5s-10.5 4.16602 -16.5 5.49902c-2 0.666992 -3.83301 1.16699 -5.5 1.5s-3.5 0.833008 -5.5 1.5
c-3.33301 0.666992 -6.83301 1.5 -10.5 2.5s-7.5 1.5 -11.5 1.5c-18 -2 -35.167 -6.83301 -51.5 -14.5s-31.5 -18.167 -45.5 -31.5c-17.333 -16 -31.666 -33.5 -42.999 -52.5s-20 -39.5 -26 -61.5c-6 -22.667 -8.5 -43.667 -7.5 -63s5.83301 -36.666 14.5 -51.999
c7.33301 -13.333 17.166 -23.666 29.499 -30.999s27.166 -12 44.499 -14h4.5c1.66699 0 3.5 0.333008 5.5 1c1.33301 0 2.83301 0.166992 4.5 0.5s3.16699 0.5 4.5 0.5c6 1.33301 12.5 2.66602 19.5 3.99902s14.167 3.33301 21.5 6c3.33301 1.33301 6.83301 2.5 10.5 3.5
s7.5 2.16699 11.5 3.5c2 0.666992 3.83301 1.5 5.5 2.5s3.5 1.83301 5.5 2.5l17 8.5l19 9.5h40l-21 -76v0v0z" />
    <glyph glyph-name="J" unicode="&#xaa;" horiz-adv-x="712" 
d="M707 112l-21.0029 -75.999c-22.667 -10.667 -44.5 -19.5 -65.5 -26.5s-41.167 -12.167 -60.5 -15.5c-20 -4 -39 -7 -57 -9s-35.333 -3 -52 -3l-40 -1c-56.667 0.666992 -104.5 10 -143.5 28s-69.5 45.333 -91.5 82c-22 37.333 -35.167 77.5 -39.5 120.5
s-0.166016 89.167 12.501 138.5c13.333 49.333 33.5 95.666 60.5 138.999s60.833 83.333 101.5 120c40.667 37.333 85.834 65.166 135.501 83.499s104.167 27.5 163.5 27.5h40h10c3.33301 0 6.66602 -0.333008 9.99902 -1c6.66699 0 13.5 -0.333008 20.5 -1
s13.5 -1.33398 19.5 -2.00098c10 -0.666992 20 -2 30 -4s19.333 -4.33301 28 -7c4 -1.33301 7.83301 -2.66602 11.5 -3.99902s7.16699 -2.66602 10.5 -3.99902s6.83301 -2.83301 10.5 -4.5s7.5 -3.5 11.5 -5.5c7.33301 -3.33301 14.5 -7 21.5 -11s13.833 -8.66699 20.5 -14
l-20 -75h-40c-12 12 -24.833 22.5 -38.5 31.5s-28.167 16.833 -43.5 23.5c-14.667 5.33301 -29.667 10 -45 14s-31 6.66699 -47 8c-34.667 -2 -68.834 -9.5 -102.501 -22.5s-67.167 -31.167 -100.5 -54.5c-36 -25.333 -65.833 -54.333 -89.5 -87s-41.167 -68.667 -52.5 -108
h423l-15 -56h-425c-11.333 -45.333 -14.166 -86.166 -8.49902 -122.499s19.834 -68.166 42.501 -95.499c20.667 -24.667 44 -43.834 70 -57.501s54.667 -21.5 86 -23.5c18 1.33301 35.833 3.66602 53.5 6.99902s35.167 8.33301 52.5 15c21.333 8 41.333 16.333 60 25
s36.334 18 53.001 28h40v0v0z" />
    <glyph glyph-name="J" unicode="&#x404;" horiz-adv-x="712" 
d="M707 112l-21.0029 -75.999c-22.667 -10.667 -44.5 -19.5 -65.5 -26.5s-41.167 -12.167 -60.5 -15.5c-20 -4 -39 -7 -57 -9s-35.333 -3 -52 -3l-40 -1c-56.667 0.666992 -104.5 10 -143.5 28s-69.5 45.333 -91.5 82c-22 37.333 -35.167 77.5 -39.5 120.5
s-0.166016 89.167 12.501 138.5c13.333 49.333 33.5 95.666 60.5 138.999s60.833 83.333 101.5 120c40.667 37.333 85.834 65.166 135.501 83.499s104.167 27.5 163.5 27.5h40h10c3.33301 0 6.66602 -0.333008 9.99902 -1c6.66699 0 13.5 -0.333008 20.5 -1
s13.5 -1.33398 19.5 -2.00098c10 -0.666992 20 -2 30 -4s19.333 -4.33301 28 -7c4 -1.33301 7.83301 -2.66602 11.5 -3.99902s7.16699 -2.66602 10.5 -3.99902s6.83301 -2.83301 10.5 -4.5s7.5 -3.5 11.5 -5.5c7.33301 -3.33301 14.5 -7 21.5 -11s13.833 -8.66699 20.5 -14
l-20 -75h-40c-12 12 -24.833 22.5 -38.5 31.5s-28.167 16.833 -43.5 23.5c-14.667 5.33301 -29.667 10 -45 14s-31 6.66699 -47 8c-34.667 -2 -68.834 -9.5 -102.501 -22.5s-67.167 -31.167 -100.5 -54.5c-36 -25.333 -65.833 -54.333 -89.5 -87s-41.167 -68.667 -52.5 -108
h423l-15 -56h-425c-11.333 -45.333 -14.166 -86.166 -8.49902 -122.499s19.834 -68.166 42.501 -95.499c20.667 -24.667 44 -43.834 70 -57.501s54.667 -21.5 86 -23.5c18 1.33301 35.833 3.66602 53.5 6.99902s35.167 8.33301 52.5 15c21.333 8 41.333 16.333 60 25
s36.334 18 53.001 28h40v0v0z" />
    <glyph glyph-name="K" unicode="&#xab;" horiz-adv-x="474" 
d="M100 220l207 211h40l34 -28l-180 -183l82 -184l-49 -28h-40l-94 212v0v0zM254 220l207 211h40l34 -28l-180 -183l82 -184l-49 -28h-40l-94 212v0v0z" />
    <glyph glyph-name="L" unicode="&#xac;" horiz-adv-x="670" 
d="M151 378l15 56h40h500l-58 -216h-40h-60l43 160h-440v0v0z" />
    <glyph glyph-name="M" unicode="&#xad;" horiz-adv-x="348" 
d="M159 288h224l-16 -60h-40h-224l16 60h40v0v0z" />
    <glyph glyph-name="N" unicode="&#xae;" horiz-adv-x="886" 
d="M146 350c14 51.333 35.8301 98.833 65.4971 142.5s67.834 83.5 114.501 119.5s94 63 142 81s97 27 147 27h40c50 0 94.333 -9 133 -27s71.334 -45 98.001 -81c27.333 -36 44.333 -75.833 51 -119.5s3 -91.167 -11 -142.5c-14 -52 -36 -99.833 -66 -143.5
s-68 -83.167 -114 -118.5c-46.667 -36 -94 -62.667 -142 -80s-97 -26 -147 -26l-40 -1c-50 0.666992 -94.167 9.66699 -132.5 27s-71.166 44 -98.499 80c-27.333 35.333 -44.333 74.833 -51 118.5s-3 91.5 11 143.5v0v0zM241.997 350
c-10.667 -42.667 -13.499 -82.332 -8.49902 -118.999s18.833 -70.667 41.5 -102c20.667 -28.667 45.667 -50.667 75 -66s63.333 -24 102 -26c39.333 2 77.833 10.5 115.5 25.5s74.5 36.5 110.5 64.5c39.333 30 71.666 63.667 96.999 101s43.666 78 54.999 122
c12 44 15.333 84.5 10 121.5s-19.666 70.833 -42.999 101.5c-20.667 27.333 -45.834 48.666 -75.501 63.999s-63.5 24 -101.5 26c-39.333 -2 -78 -10.667 -116 -26s-75 -37.333 -111 -66c-38.667 -30.667 -70.667 -64.5 -96 -101.5s-43.666 -76.833 -54.999 -119.5v0v0z
M321.998 133.002l116.007 434h40h164c3.33301 0 7 -0.166992 11 -0.5s8.33301 -0.833008 13 -1.5c3.33301 -0.666992 6.66602 -1.5 9.99902 -2.5s6.66602 -1.83301 9.99902 -2.5c1.33301 -0.666992 3 -1.33398 5 -2.00098s3.66699 -1.33398 5 -2.00098
c7.33301 -3.33301 14.166 -7.83301 20.499 -13.5s11.833 -12.5 16.5 -20.5c5.33301 -8 8.16602 -18 8.49902 -30s-1.83398 -26 -6.50098 -42c-4 -15.333 -9.83301 -29.166 -17.5 -41.499s-17.167 -23.166 -28.5 -32.499c-10.667 -8.66699 -21.5 -16 -32.5 -22
s-21.833 -10.667 -32.5 -14c-3.33301 -0.666992 -6.33301 -1.5 -9 -2.5s-5.33398 -1.5 -8.00098 -1.5c-2.66699 -0.666992 -5.33398 -1 -8.00098 -1h-7h-10l83 -202h-40h-82l-66 168l-45 -168h-40h-70v0v0zM533.005 511.002l-32.002 -122.001h20
c15.333 0 28.5 1.16699 39.5 3.5s19.833 5.83301 26.5 10.5c6.66699 5.33301 12.334 10.666 17.001 15.999s8.33398 11 11.001 17c0.666992 1.33301 1.16699 2.5 1.5 3.5s0.833008 2.16699 1.5 3.5c0 0.666992 0.166992 1.33398 0.5 2.00098s0.5 1.33398 0.5 2.00098
c0.666992 0 1 0.333008 1 1v2c2.66699 8.66699 3.66699 16.5 3 23.5s-2.33398 13.5 -5.00098 19.5s-8.66699 10.5 -18 13.5s-21.666 4.5 -36.999 4.5h-30v0v0z" />
    <glyph glyph-name="O" unicode="&#xaf;" horiz-adv-x="284" 
d="M88 0l187 700h40h68l-187 -700h-40h-68v0v0zM229 800c1.33301 6 3.83203 11.667 7.49902 17s8.16699 10.333 13.5 15c6 4.66699 12 8.16699 18 10.5s12.333 3.5 19 3.5h40c6.66699 0 12.5 -1.16699 17.5 -3.5s8.83301 -5.83301 11.5 -10.5
c3.33301 -4.66699 5.33301 -9.66699 6 -15s0.333984 -11 -0.999023 -17c-2 -6.66699 -4.83301 -12.667 -8.5 -18s-8.16699 -10.333 -13.5 -15s-11 -8 -17 -10s-12.333 -3 -19 -3h-40c-6.66699 0 -12.5 1 -17.5 3s-9.16699 5.33301 -12.5 10s-5.33301 9.66699 -6 15
s0 11.333 2 18v0v0zM350.999 800c1.33301 6 3.83203 11.667 7.49902 17s8.16699 10.333 13.5 15c6 4.66699 12 8.16699 18 10.5s12.333 3.5 19 3.5h40c6.66699 0 12.5 -1.16699 17.5 -3.5s8.83301 -5.83301 11.5 -10.5c3.33301 -4.66699 5.33301 -9.66699 6 -15
s0.333984 -11 -0.999023 -17c-2 -6.66699 -4.83301 -12.667 -8.5 -18s-8.16699 -10.333 -13.5 -15s-11 -8 -17 -10s-12.333 -3 -19 -3h-40c-6.66699 0 -12.5 1 -17.5 3s-9.16699 5.33301 -12.5 10s-5.33301 9.66699 -6 15s0 11.333 2 18v0v0z" />
    <glyph glyph-name="O" unicode="&#x407;" horiz-adv-x="284" 
d="M88 0l187 700h40h68l-187 -700h-40h-68v0v0zM229 800c1.33301 6 3.83203 11.667 7.49902 17s8.16699 10.333 13.5 15c6 4.66699 12 8.16699 18 10.5s12.333 3.5 19 3.5h40c6.66699 0 12.5 -1.16699 17.5 -3.5s8.83301 -5.83301 11.5 -10.5
c3.33301 -4.66699 5.33301 -9.66699 6 -15s0.333984 -11 -0.999023 -17c-2 -6.66699 -4.83301 -12.667 -8.5 -18s-8.16699 -10.333 -13.5 -15s-11 -8 -17 -10s-12.333 -3 -19 -3h-40c-6.66699 0 -12.5 1 -17.5 3s-9.16699 5.33301 -12.5 10s-5.33301 9.66699 -6 15
s0 11.333 2 18v0v0zM350.999 800c1.33301 6 3.83203 11.667 7.49902 17s8.16699 10.333 13.5 15c6 4.66699 12 8.16699 18 10.5s12.333 3.5 19 3.5h40c6.66699 0 12.5 -1.16699 17.5 -3.5s8.83301 -5.83301 11.5 -10.5c3.33301 -4.66699 5.33301 -9.66699 6 -15
s0.333984 -11 -0.999023 -17c-2 -6.66699 -4.83301 -12.667 -8.5 -18s-8.16699 -10.333 -13.5 -15s-11 -8 -17 -10s-12.333 -3 -19 -3h-40c-6.66699 0 -12.5 1 -17.5 3s-9.16699 5.33301 -12.5 10s-5.33301 9.66699 -6 15s0 11.333 2 18v0v0z" />
    <glyph glyph-name="P" unicode="&#xb0;" horiz-adv-x="342" 
d="M202 609c4 15.333 10.499 29.666 19.499 42.999s20.5 25.333 34.5 36c14 11.333 28.333 19.666 43 24.999s29.667 8 45 8h40c15.333 0 28.833 -2.66699 40.5 -8s21.5 -13.666 29.5 -24.999c8 -10.667 13 -22.667 15 -36s1 -27.666 -3 -42.999
c-4.66699 -16 -11.5 -30.5 -20.5 -43.5s-20.5 -25.167 -34.5 -36.5c-14 -10.667 -28.167 -18.667 -42.5 -24s-29.166 -8 -44.499 -8h-40c-15.333 0 -29 2.66699 -41 8s-22 13.333 -30 24c-8 11.333 -13 23.5 -15 36.5s-0.666992 27.5 4 43.5v0v0zM290.999 609
c-0.666992 -1.33301 -1.16602 -2.83105 -1.49902 -4.49805s-0.833008 -3.16699 -1.5 -4.5s-0.833984 -2.66602 -0.500977 -3.99902s0.833008 -2.66602 1.5 -3.99902c0 -6 1 -11.5 3 -16.5s5 -10.167 9 -15.5c1.33301 -2.66699 3.5 -4.83398 6.5 -6.50098
s6.16699 -3.16699 9.5 -4.5c2 0.666992 3.83301 1.33398 5.5 2.00098s3.16699 1.33398 4.5 2.00098c3.33301 1.33301 6.83301 3 10.5 5s6.83398 4.33301 9.50098 7c7.33301 6 13.5 12.667 18.5 20s8.83301 15.333 11.5 24c2.66699 9.33301 3.33398 17.666 2.00098 24.999
s-4.33301 14 -9 20c-2.66699 3.33301 -5.83398 6.33301 -9.50098 9s-7.5 4.66699 -11.5 6c-4.66699 -0.666992 -9 -2 -13 -4s-7.66699 -4.66699 -11 -8c-6.66699 -4.66699 -12.334 -10 -17.001 -16s-8.66699 -12 -12 -18l-0.5 -1l-0.5 -1c0 -0.666992 -0.166992 -1 -0.5 -1
h-0.5c0 -0.666992 -0.166992 -1.33398 -0.5 -2.00098s-0.5 -1.33398 -0.5 -2.00098s-0.166992 -1.33398 -0.5 -2.00098l-0.5 -1c-0.666992 -0.666992 -1 -1.33398 -1 -2.00098v-2v0v0z" />
    <glyph glyph-name="Q" unicode="&#xb1;" horiz-adv-x="640" 
d="M66 60l15 56h40h500l-15 -56h-40h-500v0v0zM146 362l16 56h222l59 222h40h56l-59 -222h222l-16 -56h-222l-51 -192h-40h-56l51 192h-222v0v0z" />
    <glyph glyph-name="R" unicode="&#xb2;" horiz-adv-x="284" 
d="M88 0l187 700h40h68l-187 -700h-40h-68v0v0z" />
    <glyph glyph-name="R" unicode="&#x406;" horiz-adv-x="284" 
d="M88 0l187 700h40h68l-187 -700h-40h-68v0v0z" />
    <glyph glyph-name="S" unicode="&#xb3;" horiz-adv-x="248" 
d="M230 434h60l-116 -434h-40h-60l116 434h40v0v0zM213 581c1.33301 6 3.83105 11.667 7.49805 17s8.16699 10.333 13.5 15s11.333 8.16699 18 10.5s13.334 3.5 20.001 3.5h40c6.66699 0 12.334 -1.16699 17.001 -3.5s8.66699 -5.5 12 -9.5
c3.33301 -4.66699 5.33301 -9.66699 6 -15s0 -11.333 -2 -18s-5 -12.834 -9 -18.501s-8.66699 -10.5 -14 -14.5c-5.33301 -4.66699 -11 -8 -17 -10s-12 -3 -18 -3h-40c-6.66699 0 -12.5 1 -17.5 3s-9.16699 5.33301 -12.5 10c-3.33301 4 -5.33301 8.83301 -6 14.5
s0 11.834 2 18.501v0v0z" />
    <glyph glyph-name="S" unicode="&#x456;" horiz-adv-x="248" 
d="M230 434h60l-116 -434h-40h-60l116 434h40v0v0zM213 581c1.33301 6 3.83105 11.667 7.49805 17s8.16699 10.333 13.5 15s11.333 8.16699 18 10.5s13.334 3.5 20.001 3.5h40c6.66699 0 12.334 -1.16699 17.001 -3.5s8.66699 -5.5 12 -9.5
c3.33301 -4.66699 5.33301 -9.66699 6 -15s0 -11.333 -2 -18s-5 -12.834 -9 -18.501s-8.66699 -10.5 -14 -14.5c-5.33301 -4.66699 -11 -8 -17 -10s-12 -3 -18 -3h-40c-6.66699 0 -12.5 1 -17.5 3s-9.16699 5.33301 -12.5 10c-3.33301 4 -5.33301 8.83301 -6 14.5
s0 11.834 2 18.501v0v0z" />
    <glyph glyph-name="T" unicode="&#xb4;" horiz-adv-x="367" 
d="M74 0l116 434h186l30 112h40h56l-43 -160h-182l-103 -386h-40h-60v0v0z" />
    <glyph glyph-name="T" unicode="&#x491;" horiz-adv-x="367" 
d="M74 0l116 434h186l30 112h40h56l-43 -160h-182l-103 -386h-40h-60v0v0z" />
    <glyph glyph-name="U" unicode="&#xb5;" horiz-adv-x="546" 
d="M588 434l-116.002 -434.002h-40h-60l5 20c-1.33301 -0.666992 -2.5 -1.5 -3.5 -2.5s-2.16699 -1.83301 -3.5 -2.5c-10 -6 -19.167 -10.5 -27.5 -13.5s-16.166 -4.83301 -23.499 -5.5c-6.66699 -1.33301 -12.667 -2.33301 -18 -3s-9 -1 -11 -1l-40 -1
c-2.66699 0.666992 -6 1.33398 -10 2.00098s-9.66699 1.66699 -17 3c-2 0 -4.16699 0.333008 -6.5 1s-4.5 1.33398 -6.5 2.00098c-4.66699 1.33301 -9.16699 3.33301 -13.5 6s-8.5 6 -12.5 10l-2.5 2.5l-2.5 2.5l-62 -230h-40h-60l173 644h40h60l-59 -218
c-6.66699 -26.667 -10 -50.667 -10 -72s3.33301 -40.333 10 -57c5.33301 -12.667 12.5 -23 21.5 -31s18.833 -13.333 29.5 -16c13.333 2.66699 26.5 8 39.5 16s25.833 18.333 38.5 31c16 16.667 29.833 35.667 41.5 57s20.834 45.333 27.501 72l59 218h40h60v0v0z" />
    <glyph glyph-name="V" unicode="&#xb6;" horiz-adv-x="490" 
d="M187 -210h-56l166 618c-21.333 0 -39.833 3.66699 -55.5 11s-28.834 18 -39.501 32c-10 14 -16.167 29.5 -18.5 46.5s-0.833008 35.833 4.5 56.5s13.833 39.5 25.5 56.5s26.834 32.5 45.501 46.5c18 13.333 36.5 23.5 55.5 30.5s38.5 10.833 58.5 11.5l58 1h40l-244 -910
h-40v0v0zM617 700l-244 -910h-40h-56l244 910h40h56v0v0z" />
    <glyph glyph-name="X" unicode="&#xb8;" horiz-adv-x="555" 
d="M499 137l39.9971 -22.9971c-14 -18 -29.167 -34.5 -45.5 -49.5s-34.166 -29.167 -53.499 -42.5c-19.333 -12.667 -40.333 -22.167 -63 -28.5s-47 -9.5 -73 -9.5l-40 -1c-35.333 0.666992 -65.166 6.66699 -89.499 18s-43.166 29 -56.499 53
c-12.667 24 -20.334 49.5 -23.001 76.5s0.333008 55.833 9 86.5l4 16c1.33301 5.33301 3.33301 11 6 17l8 18c2.66699 6 5.66699 12 9 18c11.333 20.667 25 40.5 41 59.5s35 37.167 57 54.5c21.333 17.333 45.5 30.333 72.5 39s56.5 13 88.5 13h40
c28.667 0 52.834 -4.16699 72.501 -12.5s34.834 -20.5 45.501 -36.5c11.333 -16 19.666 -33 24.999 -51s8 -36.667 8 -56c0 -1.33301 -0.166992 -2.83301 -0.5 -4.5s-0.5 -3.5 -0.5 -5.5c0 -2.66699 -0.166992 -5.5 -0.5 -8.5s-0.833008 -6.16699 -1.5 -9.5l-2 -14
c-0.666992 -4.66699 -1.66699 -9 -3 -13l-8 -29h-359v-2v0l-1 -2v-1c-0.666992 -2.66699 -1.33398 -5.5 -2.00098 -8.5s-1.33398 -6.16699 -2.00098 -9.5c0 -1.33301 -0.166992 -2.83301 -0.5 -4.5s-0.5 -3.16699 -0.5 -4.5c-0.666992 -2 -1.16699 -3.83301 -1.5 -5.5
s-0.5 -3.16699 -0.5 -4.5c-1.33301 -17.333 -0.166016 -34 3.50098 -50s9.83398 -31.333 18.501 -46c8 -12.667 18.333 -22.5 31 -29.5s27.667 -11.5 45 -13.5c3.33301 0.666992 6.83301 1.16699 10.5 1.5s7.5 0.833008 11.5 1.5c7.33301 1.33301 15.5 3.66602 24.5 6.99902
s18.5 8 28.5 14c6.66699 4 13.5 8.5 20.5 13.5s14.5 10.833 22.5 17.5l14.5 14.5c5 5 10.167 10.5 15.5 16.5c2.66699 3.33301 5.16699 6.66602 7.5 9.99902s4.83301 6.66602 7.5 9.99902h40v0v0zM223.997 260.003l254.002 -0.000976562c4 18 5 35.333 3 52
s-7 32.334 -15 47.001c-6.66699 12.667 -15.834 22.667 -27.501 30s-25.5 12 -41.5 14c-16.667 -2 -33 -6.33301 -49 -13s-31.333 -15.667 -46 -27c-18 -14 -33.333 -29.5 -46 -46.5s-23.334 -35.833 -32.001 -56.5v0zM286.999 581.002c1.33301 6 3.66992 11.667 7.00293 17
s7.66602 10.333 12.999 15s11.166 8.16699 17.499 10.5s13.166 3.5 20.499 3.5h40c6 0 11 -1 15 -3s7.66699 -4.66699 11 -8s5.66602 -7 6.99902 -11s2 -8 2 -12v-6l-1 -6c-1.33301 -6.66699 -4 -12.667 -8 -18s-8.66699 -10 -14 -14
c-6.66699 -4.66699 -12.667 -8.16699 -18 -10.5s-10.666 -3.5 -15.999 -3.5h-40h-2h-1c-6 0 -11.333 1 -16 3s-8.66699 5 -12 9c-4 4 -6.33301 9 -7 15s0 12.333 2 19v0v0zM446.003 581.002c1.33301 6 3.83398 11.666 7.50098 16.999s8.16699 10.333 13.5 15
s11.333 8.16699 18 10.5s13.667 3.5 21 3.5h40c6 0 11.167 -1.16699 15.5 -3.5s8.16602 -5.5 11.499 -9.5c3.33301 -4.66699 5.5 -9.66699 6.5 -15s0.5 -11.333 -1.5 -18s-5 -13 -9 -19s-8.66699 -11 -14 -15s-10.833 -7 -16.5 -9s-11.5 -3 -17.5 -3h-40
c-6.66699 0 -12.5 1 -17.5 3s-9.16699 5.33301 -12.5 10c-4 4 -6.33301 8.83301 -7 14.5s0 11.834 2 18.501v0v0z" />
    <glyph glyph-name="X" unicode="&#x451;" horiz-adv-x="555" 
d="M499 137l39.9971 -22.9971c-14 -18 -29.167 -34.5 -45.5 -49.5s-34.166 -29.167 -53.499 -42.5c-19.333 -12.667 -40.333 -22.167 -63 -28.5s-47 -9.5 -73 -9.5l-40 -1c-35.333 0.666992 -65.166 6.66699 -89.499 18s-43.166 29 -56.499 53
c-12.667 24 -20.334 49.5 -23.001 76.5s0.333008 55.833 9 86.5l4 16c1.33301 5.33301 3.33301 11 6 17l8 18c2.66699 6 5.66699 12 9 18c11.333 20.667 25 40.5 41 59.5s35 37.167 57 54.5c21.333 17.333 45.5 30.333 72.5 39s56.5 13 88.5 13h40
c28.667 0 52.834 -4.16699 72.501 -12.5s34.834 -20.5 45.501 -36.5c11.333 -16 19.666 -33 24.999 -51s8 -36.667 8 -56c0 -1.33301 -0.166992 -2.83301 -0.5 -4.5s-0.5 -3.5 -0.5 -5.5c0 -2.66699 -0.166992 -5.5 -0.5 -8.5s-0.833008 -6.16699 -1.5 -9.5l-2 -14
c-0.666992 -4.66699 -1.66699 -9 -3 -13l-8 -29h-359v-2v0l-1 -2v-1c-0.666992 -2.66699 -1.33398 -5.5 -2.00098 -8.5s-1.33398 -6.16699 -2.00098 -9.5c0 -1.33301 -0.166992 -2.83301 -0.5 -4.5s-0.5 -3.16699 -0.5 -4.5c-0.666992 -2 -1.16699 -3.83301 -1.5 -5.5
s-0.5 -3.16699 -0.5 -4.5c-1.33301 -17.333 -0.166016 -34 3.50098 -50s9.83398 -31.333 18.501 -46c8 -12.667 18.333 -22.5 31 -29.5s27.667 -11.5 45 -13.5c3.33301 0.666992 6.83301 1.16699 10.5 1.5s7.5 0.833008 11.5 1.5c7.33301 1.33301 15.5 3.66602 24.5 6.99902
s18.5 8 28.5 14c6.66699 4 13.5 8.5 20.5 13.5s14.5 10.833 22.5 17.5l14.5 14.5c5 5 10.167 10.5 15.5 16.5c2.66699 3.33301 5.16699 6.66602 7.5 9.99902s4.83301 6.66602 7.5 9.99902h40v0v0zM223.997 260.003l254.002 -0.000976562c4 18 5 35.333 3 52
s-7 32.334 -15 47.001c-6.66699 12.667 -15.834 22.667 -27.501 30s-25.5 12 -41.5 14c-16.667 -2 -33 -6.33301 -49 -13s-31.333 -15.667 -46 -27c-18 -14 -33.333 -29.5 -46 -46.5s-23.334 -35.833 -32.001 -56.5v0zM286.999 581.002c1.33301 6 3.66992 11.667 7.00293 17
s7.66602 10.333 12.999 15s11.166 8.16699 17.499 10.5s13.166 3.5 20.499 3.5h40c6 0 11 -1 15 -3s7.66699 -4.66699 11 -8s5.66602 -7 6.99902 -11s2 -8 2 -12v-6l-1 -6c-1.33301 -6.66699 -4 -12.667 -8 -18s-8.66699 -10 -14 -14
c-6.66699 -4.66699 -12.667 -8.16699 -18 -10.5s-10.666 -3.5 -15.999 -3.5h-40h-2h-1c-6 0 -11.333 1 -16 3s-8.66699 5 -12 9c-4 4 -6.33301 9 -7 15s0 12.333 2 19v0v0zM446.003 581.002c1.33301 6 3.83398 11.666 7.50098 16.999s8.16699 10.333 13.5 15
s11.333 8.16699 18 10.5s13.667 3.5 21 3.5h40c6 0 11.167 -1.16699 15.5 -3.5s8.16602 -5.5 11.499 -9.5c3.33301 -4.66699 5.5 -9.66699 6.5 -15s0.5 -11.333 -1.5 -18s-5 -13 -9 -19s-8.66699 -11 -14 -15s-10.833 -7 -16.5 -9s-11.5 -3 -17.5 -3h-40
c-6.66699 0 -12.5 1 -17.5 3s-9.16699 5.33301 -12.5 10c-4 4 -6.33301 8.83301 -7 14.5s0 11.834 2 18.501v0v0z" />
    <glyph glyph-name="Y" unicode="&#xb9;" horiz-adv-x="1199" 
d="M88 0l195 728h40l346 -541l137 513h40h68l-195 -728h-40l-346 541l-137 -513h-40h-68v0v0zM792 0l12 48h40h301l-12 -48h-40h-301v0v0zM970 105c-26.667 0 -49 3.5 -67 10.5s-31.667 17.5 -41 31.5s-16 29 -20 45s-5.66699 32.333 -5 49
c0 4.66699 0.166992 9.16699 0.5 13.5s0.833008 8.83301 1.5 13.5c0.666992 2.66699 1.33398 5.5 2.00098 8.5s1.33398 5.83301 2.00098 8.5c0 1.33301 0.333008 2.83301 1 4.5s1 3.16699 1 4.5c1.33301 4 2.66602 8.16699 3.99902 12.5s2.66602 8.83301 3.99902 13.5
c1.33301 2.66699 2.66602 5.5 3.99902 8.5s2.66602 5.83301 3.99902 8.5c0.666992 2 1.33398 3.83301 2.00098 5.5s1.33398 3.16699 2.00098 4.5c8.66699 17.333 19.167 33.666 31.5 48.999s26.833 30 43.5 44c17.333 14 36.833 24.667 58.5 32s45.834 11 72.501 11h40
c28.667 0 52.5 -4.66699 71.5 -14s33.5 -23.333 43.5 -42s15.833 -39.167 17.5 -61.5s-1.16602 -46.166 -8.49902 -71.499c-6.66699 -26 -16.667 -50 -30 -72s-30 -42.333 -50 -61c-20.667 -18.667 -42.834 -32.667 -66.501 -42s-49.834 -14 -78.501 -14h-40v0v0zM1002 154
c15.333 1.33301 29.666 5.33301 42.999 12s25.333 15.667 36 27c14 14 25.667 28.5 35 43.5s16.333 30.833 21 47.5v1v2l1 4l1 3l1 2v2l1 1v2c4.66699 17.333 6.5 33.666 5.5 48.999s-4.83301 30 -11.5 44c-4.66699 11.333 -11.834 20.333 -21.501 27s-21.5 11 -35.5 13
c-15.333 -2 -29.666 -6.5 -42.999 -13.5s-25.666 -16.167 -36.999 -27.5c-14 -14 -25.5 -28.667 -34.5 -44s-15.833 -31.666 -20.5 -48.999l-1 -4l-1 -2l-1 -3v-3c-4.66699 -16.667 -6.66699 -33 -6 -49s4 -31 10 -45c5.33301 -11.333 12.833 -20.5 22.5 -27.5
s21.5 -11.167 35.5 -12.5v0z" />
    <glyph glyph-name="Y" unicode="&#x2116;" horiz-adv-x="1199" 
d="M88 0l195 728h40l346 -541l137 513h40h68l-195 -728h-40l-346 541l-137 -513h-40h-68v0v0zM792 0l12 48h40h301l-12 -48h-40h-301v0v0zM970 105c-26.667 0 -49 3.5 -67 10.5s-31.667 17.5 -41 31.5s-16 29 -20 45s-5.66699 32.333 -5 49
c0 4.66699 0.166992 9.16699 0.5 13.5s0.833008 8.83301 1.5 13.5c0.666992 2.66699 1.33398 5.5 2.00098 8.5s1.33398 5.83301 2.00098 8.5c0 1.33301 0.333008 2.83301 1 4.5s1 3.16699 1 4.5c1.33301 4 2.66602 8.16699 3.99902 12.5s2.66602 8.83301 3.99902 13.5
c1.33301 2.66699 2.66602 5.5 3.99902 8.5s2.66602 5.83301 3.99902 8.5c0.666992 2 1.33398 3.83301 2.00098 5.5s1.33398 3.16699 2.00098 4.5c8.66699 17.333 19.167 33.666 31.5 48.999s26.833 30 43.5 44c17.333 14 36.833 24.667 58.5 32s45.834 11 72.501 11h40
c28.667 0 52.5 -4.66699 71.5 -14s33.5 -23.333 43.5 -42s15.833 -39.167 17.5 -61.5s-1.16602 -46.166 -8.49902 -71.499c-6.66699 -26 -16.667 -50 -30 -72s-30 -42.333 -50 -61c-20.667 -18.667 -42.834 -32.667 -66.501 -42s-49.834 -14 -78.501 -14h-40v0v0zM1002 154
c15.333 1.33301 29.666 5.33301 42.999 12s25.333 15.667 36 27c14 14 25.667 28.5 35 43.5s16.333 30.833 21 47.5v1v2l1 4l1 3l1 2v2l1 1v2c4.66699 17.333 6.5 33.666 5.5 48.999s-4.83301 30 -11.5 44c-4.66699 11.333 -11.834 20.333 -21.501 27s-21.5 11 -35.5 13
c-15.333 -2 -29.666 -6.5 -42.999 -13.5s-25.666 -16.167 -36.999 -27.5c-14 -14 -25.5 -28.667 -34.5 -44s-15.833 -31.666 -20.5 -48.999l-1 -4l-1 -2l-1 -3v-3c-4.66699 -16.667 -6.66699 -33 -6 -49s4 -31 10 -45c5.33301 -11.333 12.833 -20.5 22.5 -27.5
s21.5 -11.167 35.5 -12.5v0z" />
    <glyph glyph-name="Z" unicode="&#xba;" horiz-adv-x="461" 
d="M450 247l-12.998 -47.999h-234c-0.666992 -2 -1.16699 -4 -1.5 -6s-0.833008 -4 -1.5 -6c0 -2.66699 -0.166992 -5 -0.5 -7s-0.5 -4 -0.5 -6v-4.5v-4.5v-8.5v-8.5c0.666992 -14.667 3.66699 -28.834 9 -42.501s12.666 -26.5 21.999 -38.5
c8.66699 -10.667 20.334 -19 35.001 -25s32 -9.66699 52 -11h3.5h3.5l10 2c3.33301 0.666992 7 1.33398 11 2.00098c9.33301 1.33301 19.166 4.16602 29.499 8.49902s21.833 9.83301 34.5 16.5h40l-15 -56c-0.666992 -0.666992 -1.5 -1.16699 -2.5 -1.5
s-1.83301 -0.5 -2.5 -0.5l-3 -1.5c-0.666992 -0.333008 -1.66699 -0.5 -3 -0.5c-2.66699 0 -5.16699 -0.5 -7.5 -1.5s-5.16602 -1.83301 -8.49902 -2.5c-4.66699 -1.33301 -10 -2.66602 -16 -3.99902s-12.667 -2.66602 -20 -3.99902s-15 -2.33301 -23 -3s-16.667 -1 -26 -1
l-40 -1c-2 0.666992 -4 1 -6 1h-6c-2.66699 0.666992 -5 1 -7 1h-6c-4 0.666992 -8 1.16699 -12 1.5s-8 0.833008 -12 1.5c-22.667 4.66699 -43.334 12.334 -62.001 23.001s-35.667 25 -51 43c-14.667 18 -23.5 40.5 -26.5 67.5s0.5 58.833 10.5 95.5
c9.33301 34.667 23 66 41 94s41 53 69 75c27.333 22 57.333 38.5 90 49.5s67.667 16.5 105 16.5h40c9.33301 0 17.666 -0.166992 24.999 -0.5s14.333 -1.16602 21 -2.49902c3.33301 -0.666992 6.5 -1.33398 9.5 -2.00098s5.83301 -1 8.5 -1
c2 -0.666992 4.33301 -1.33398 7 -2.00098s5 -1.33398 7 -2.00098c1.33301 -0.666992 2.5 -1.16699 3.5 -1.5s2.16699 -0.5 3.5 -0.5c0.666992 -0.666992 1.66699 -1.16699 3 -1.5s2.33301 -0.833008 3 -1.5c1.33301 -0.666992 2.83301 -1.33398 4.5 -2.00098
s3.16699 -1 4.5 -1l-14 -53h-40c-9.33301 4.66699 -18.166 8.5 -26.499 11.5s-16.5 5.16699 -24.5 6.5c-1.33301 0.666992 -2.66602 1 -3.99902 1s-2.66602 0.333008 -3.99902 1c-2.66699 0 -5.33398 0.333008 -8.00098 1s-5.33398 1 -8.00098 1
c-24 -2 -46.167 -7 -66.5 -15s-39.166 -18.667 -56.499 -32c-20.667 -16 -37.334 -32.833 -50.001 -50.5s-22.334 -36.167 -29.001 -55.5v-2v-1h232v0v0z" />
    <glyph glyph-name="Z" unicode="&#x454;" horiz-adv-x="461" 
d="M450 247l-12.998 -47.999h-234c-0.666992 -2 -1.16699 -4 -1.5 -6s-0.833008 -4 -1.5 -6c0 -2.66699 -0.166992 -5 -0.5 -7s-0.5 -4 -0.5 -6v-4.5v-4.5v-8.5v-8.5c0.666992 -14.667 3.66699 -28.834 9 -42.501s12.666 -26.5 21.999 -38.5
c8.66699 -10.667 20.334 -19 35.001 -25s32 -9.66699 52 -11h3.5h3.5l10 2c3.33301 0.666992 7 1.33398 11 2.00098c9.33301 1.33301 19.166 4.16602 29.499 8.49902s21.833 9.83301 34.5 16.5h40l-15 -56c-0.666992 -0.666992 -1.5 -1.16699 -2.5 -1.5
s-1.83301 -0.5 -2.5 -0.5l-3 -1.5c-0.666992 -0.333008 -1.66699 -0.5 -3 -0.5c-2.66699 0 -5.16699 -0.5 -7.5 -1.5s-5.16602 -1.83301 -8.49902 -2.5c-4.66699 -1.33301 -10 -2.66602 -16 -3.99902s-12.667 -2.66602 -20 -3.99902s-15 -2.33301 -23 -3s-16.667 -1 -26 -1
l-40 -1c-2 0.666992 -4 1 -6 1h-6c-2.66699 0.666992 -5 1 -7 1h-6c-4 0.666992 -8 1.16699 -12 1.5s-8 0.833008 -12 1.5c-22.667 4.66699 -43.334 12.334 -62.001 23.001s-35.667 25 -51 43c-14.667 18 -23.5 40.5 -26.5 67.5s0.5 58.833 10.5 95.5
c9.33301 34.667 23 66 41 94s41 53 69 75c27.333 22 57.333 38.5 90 49.5s67.667 16.5 105 16.5h40c9.33301 0 17.666 -0.166992 24.999 -0.5s14.333 -1.16602 21 -2.49902c3.33301 -0.666992 6.5 -1.33398 9.5 -2.00098s5.83301 -1 8.5 -1
c2 -0.666992 4.33301 -1.33398 7 -2.00098s5 -1.33398 7 -2.00098c1.33301 -0.666992 2.5 -1.16699 3.5 -1.5s2.16699 -0.5 3.5 -0.5c0.666992 -0.666992 1.66699 -1.16699 3 -1.5s2.33301 -0.833008 3 -1.5c1.33301 -0.666992 2.83301 -1.33398 4.5 -2.00098
s3.16699 -1 4.5 -1l-14 -53h-40c-9.33301 4.66699 -18.166 8.5 -26.499 11.5s-16.5 5.16699 -24.5 6.5c-1.33301 0.666992 -2.66602 1 -3.99902 1s-2.66602 0.333008 -3.99902 1c-2.66699 0 -5.33398 0.333008 -8.00098 1s-5.33398 1 -8.00098 1
c-24 -2 -46.167 -7 -66.5 -15s-39.166 -18.667 -56.499 -32c-20.667 -16 -37.334 -32.833 -50.001 -50.5s-22.334 -36.167 -29.001 -55.5v-2v-1h232v0v0z" />
    <glyph glyph-name="bracketleft" unicode="&#xbb;" horiz-adv-x="474" 
d="M336 219l-206 -211h-40l-35 28l180 183l-82 184l50 28h40l93 -212v0v0zM490 219l-206 -211h-40l-35 28l180 183l-82 184l50 28h40l93 -212v0v0z" />
    <glyph glyph-name="backslash" unicode="&#xbc;" horiz-adv-x="248" 
d="M230 434h60l-173 -644h-40h-60l173 644h40v0v0zM213 581c1.33301 6 3.83105 11.667 7.49805 17s8.16699 10.333 13.5 15s11.333 8.16699 18 10.5s13.334 3.5 20.001 3.5h40c6.66699 0 12.334 -1.16699 17.001 -3.5s8.66699 -5.5 12 -9.5
c3.33301 -4.66699 5.33301 -9.66699 6 -15s0 -11.333 -2 -18s-5 -12.834 -9 -18.501s-8.66699 -10.5 -14 -14.5c-5.33301 -4.66699 -11 -8 -17 -10s-12 -3 -18 -3h-40c-6.66699 0 -12.5 1 -17.5 3s-9.16699 5.33301 -12.5 10c-3.33301 4 -5.33301 8.83301 -6 14.5
s0 11.834 2 18.501v0v0z" />
    <glyph glyph-name="backslash" unicode="&#x458;" horiz-adv-x="248" 
d="M230 434h60l-173 -644h-40h-60l173 644h40v0v0zM213 581c1.33301 6 3.83105 11.667 7.49805 17s8.16699 10.333 13.5 15s11.333 8.16699 18 10.5s13.334 3.5 20.001 3.5h40c6.66699 0 12.334 -1.16699 17.001 -3.5s8.66699 -5.5 12 -9.5
c3.33301 -4.66699 5.33301 -9.66699 6 -15s0 -11.333 -2 -18s-5 -12.834 -9 -18.501s-8.66699 -10.5 -14 -14.5c-5.33301 -4.66699 -11 -8 -17 -10s-12 -3 -18 -3h-40c-6.66699 0 -12.5 1 -17.5 3s-9.16699 5.33301 -12.5 10c-3.33301 4 -5.33301 8.83301 -6 14.5
s0 11.834 2 18.501v0v0z" />
    <glyph glyph-name="bracketright" unicode="&#xbd;" horiz-adv-x="561" 
d="M647 614l-62.9971 -31.999h-40v5l-2 5c-2.66699 9.33301 -6.5 18 -11.5 26s-11.167 15.667 -18.5 23c-6.66699 6 -14.334 10.833 -23.001 14.5s-18.667 6.16699 -30 7.5c-13.333 -1.33301 -25.333 -3.83301 -36 -7.5s-20 -8.16699 -28 -13.5
c-10.667 -6.66699 -20.334 -14 -29.001 -22s-15.667 -16 -21 -24c-2.66699 -3.33301 -5 -6.66602 -7 -9.99902s-3.66699 -6.66602 -5 -9.99902s-2.5 -6.5 -3.5 -9.5s-1.83301 -6.16699 -2.5 -9.5c-4.66699 -18 -5.66699 -33.833 -3 -47.5s9.33398 -25.5 20.001 -35.5
c10 -10 21.167 -19.333 33.5 -28s25.833 -16.667 40.5 -24l6 -4c2 -1.33301 4.33301 -2.66602 7 -3.99902c0.666992 0 1.5 -0.333008 2.5 -1s1.83301 -1 2.5 -1c0 -0.666992 0.333008 -1 1 -1h1l4 -2l4 -2l4 -3l5 -2c18.667 -10.667 36 -22.167 52 -34.5s31 -25.5 45 -39.5
c14.667 -14.667 23.5 -33.167 26.5 -55.5s0.166992 -48.5 -8.5 -78.5c-7.33301 -28.667 -19.5 -55.5 -36.5 -80.5s-38.5 -48.167 -64.5 -69.5c-25.333 -20.667 -53.166 -36.167 -83.499 -46.5s-62.833 -15.5 -97.5 -15.5l-40 -1c-24.667 0.666992 -46.5 3.66699 -65.5 9
s-34.833 12.666 -47.5 21.999c-12.667 10 -23.667 20.667 -33 32s-16.666 23.333 -21.999 36c-0.666992 2.66699 -1.5 5.16699 -2.5 7.5s-2.16699 4.83301 -3.5 7.5c-0.666992 2 -1.33398 4.16699 -2.00098 6.5s-1.33398 4.83301 -2.00098 7.5
c-2 5.33301 -3.33301 10.166 -4 14.499s-1.33398 8.83301 -2.00098 13.5l73 32h40c-0.666992 -1.33301 -1 -2.83301 -1 -4.5s0.333008 -3.16699 1 -4.5c0 -0.666992 0.166992 -1.33398 0.5 -2.00098s0.5 -1.33398 0.5 -2.00098s0.166992 -1.33398 0.5 -2.00098
s0.5 -1.33398 0.5 -2.00098c2 -14.667 6 -28.667 12 -42s14 -26 24 -38c8 -10 18.167 -18 30.5 -24s26.5 -9.66699 42.5 -11c18.667 2 36.334 6.66699 53.001 14s32.334 17.333 47.001 30c17.333 15.333 31.833 32.166 43.5 50.499s20.167 37.833 25.5 58.5
c4.66699 16 6.83398 30.333 6.50098 43s-3.16602 23.667 -8.49902 33c-4.66699 9.33301 -11.334 18.666 -20.001 27.999s-19 18.333 -31 27c-4.66699 2.66699 -9.16699 5.33398 -13.5 8.00098s-8.83301 5.33398 -13.5 8.00098
c-2.66699 1.33301 -5.33398 2.83301 -8.00098 4.5s-5.33398 3.16699 -8.00098 4.5s-5.33398 2.83301 -8.00098 4.5s-5.33398 3.16699 -8.00098 4.5c-20.667 11.333 -39.834 23.333 -57.501 36s-33.834 26.334 -48.501 41.001s-23.834 32.167 -27.501 52.5
s-2.16699 43.833 4.5 70.5c0.666992 1.33301 1.16699 2.5 1.5 3.5s0.5 2.16699 0.5 3.5c1.33301 3.33301 2.5 7 3.5 11s2.5 8 4.5 12c2.66699 5.33301 5.5 10.666 8.5 15.999s6.16699 10.666 9.5 15.999c8.66699 13.333 19.167 25.833 31.5 37.5s26.833 22.834 43.5 33.501
s36 18.667 58 24s47 8 75 8h40c5.33301 0 11.333 -0.166992 18 -0.5s13.667 -1.16602 21 -2.49902c7.33301 -0.666992 14.5 -1.83398 21.5 -3.50098s14.167 -4.16699 21.5 -7.5c8 -3.33301 15.833 -7.66602 23.5 -12.999s14.834 -11.666 21.501 -18.999
c6.66699 -6.66699 12.334 -15 17.001 -25s8.33398 -21.667 11.001 -35v0v0z" />
    <glyph glyph-name="bracketright" unicode="&#x405;" horiz-adv-x="561" 
d="M647 614l-62.9971 -31.999h-40v5l-2 5c-2.66699 9.33301 -6.5 18 -11.5 26s-11.167 15.667 -18.5 23c-6.66699 6 -14.334 10.833 -23.001 14.5s-18.667 6.16699 -30 7.5c-13.333 -1.33301 -25.333 -3.83301 -36 -7.5s-20 -8.16699 -28 -13.5
c-10.667 -6.66699 -20.334 -14 -29.001 -22s-15.667 -16 -21 -24c-2.66699 -3.33301 -5 -6.66602 -7 -9.99902s-3.66699 -6.66602 -5 -9.99902s-2.5 -6.5 -3.5 -9.5s-1.83301 -6.16699 -2.5 -9.5c-4.66699 -18 -5.66699 -33.833 -3 -47.5s9.33398 -25.5 20.001 -35.5
c10 -10 21.167 -19.333 33.5 -28s25.833 -16.667 40.5 -24l6 -4c2 -1.33301 4.33301 -2.66602 7 -3.99902c0.666992 0 1.5 -0.333008 2.5 -1s1.83301 -1 2.5 -1c0 -0.666992 0.333008 -1 1 -1h1l4 -2l4 -2l4 -3l5 -2c18.667 -10.667 36 -22.167 52 -34.5s31 -25.5 45 -39.5
c14.667 -14.667 23.5 -33.167 26.5 -55.5s0.166992 -48.5 -8.5 -78.5c-7.33301 -28.667 -19.5 -55.5 -36.5 -80.5s-38.5 -48.167 -64.5 -69.5c-25.333 -20.667 -53.166 -36.167 -83.499 -46.5s-62.833 -15.5 -97.5 -15.5l-40 -1c-24.667 0.666992 -46.5 3.66699 -65.5 9
s-34.833 12.666 -47.5 21.999c-12.667 10 -23.667 20.667 -33 32s-16.666 23.333 -21.999 36c-0.666992 2.66699 -1.5 5.16699 -2.5 7.5s-2.16699 4.83301 -3.5 7.5c-0.666992 2 -1.33398 4.16699 -2.00098 6.5s-1.33398 4.83301 -2.00098 7.5
c-2 5.33301 -3.33301 10.166 -4 14.499s-1.33398 8.83301 -2.00098 13.5l73 32h40c-0.666992 -1.33301 -1 -2.83301 -1 -4.5s0.333008 -3.16699 1 -4.5c0 -0.666992 0.166992 -1.33398 0.5 -2.00098s0.5 -1.33398 0.5 -2.00098s0.166992 -1.33398 0.5 -2.00098
s0.5 -1.33398 0.5 -2.00098c2 -14.667 6 -28.667 12 -42s14 -26 24 -38c8 -10 18.167 -18 30.5 -24s26.5 -9.66699 42.5 -11c18.667 2 36.334 6.66699 53.001 14s32.334 17.333 47.001 30c17.333 15.333 31.833 32.166 43.5 50.499s20.167 37.833 25.5 58.5
c4.66699 16 6.83398 30.333 6.50098 43s-3.16602 23.667 -8.49902 33c-4.66699 9.33301 -11.334 18.666 -20.001 27.999s-19 18.333 -31 27c-4.66699 2.66699 -9.16699 5.33398 -13.5 8.00098s-8.83301 5.33398 -13.5 8.00098
c-2.66699 1.33301 -5.33398 2.83301 -8.00098 4.5s-5.33398 3.16699 -8.00098 4.5s-5.33398 2.83301 -8.00098 4.5s-5.33398 3.16699 -8.00098 4.5c-20.667 11.333 -39.834 23.333 -57.501 36s-33.834 26.334 -48.501 41.001s-23.834 32.167 -27.501 52.5
s-2.16699 43.833 4.5 70.5c0.666992 1.33301 1.16699 2.5 1.5 3.5s0.5 2.16699 0.5 3.5c1.33301 3.33301 2.5 7 3.5 11s2.5 8 4.5 12c2.66699 5.33301 5.5 10.666 8.5 15.999s6.16699 10.666 9.5 15.999c8.66699 13.333 19.167 25.833 31.5 37.5s26.833 22.834 43.5 33.501
s36 18.667 58 24s47 8 75 8h40c5.33301 0 11.333 -0.166992 18 -0.5s13.667 -1.16602 21 -2.49902c7.33301 -0.666992 14.5 -1.83398 21.5 -3.50098s14.167 -4.16699 21.5 -7.5c8 -3.33301 15.833 -7.66602 23.5 -12.999s14.834 -11.666 21.501 -18.999
c6.66699 -6.66699 12.334 -15 17.001 -25s8.33398 -21.667 11.001 -35v0v0z" />
    <glyph glyph-name="asciicircum" unicode="&#xbe;" horiz-adv-x="422" 
d="M55 89l56.001 25.9941h40c0.666992 -10.667 3 -20.834 7 -30.501s9.33301 -19.167 16 -28.5c5.33301 -6.66699 11.5 -12.167 18.5 -16.5s15.5 -7.16602 25.5 -8.49902c10 1.33301 19.333 3.83301 28 7.5s17 8.5 25 14.5c10 8 18.5 17.333 25.5 28
s12.167 22.334 15.5 35.001c3.33301 11.333 4.33301 21.5 3 30.5s-4.66602 16.5 -9.99902 22.5s-11.5 11.333 -18.5 16s-14.167 8.33398 -21.5 11.001c-1.33301 0.666992 -2.66602 1.16699 -3.99902 1.5s-2.66602 0.833008 -3.99902 1.5s-2.66602 1.16699 -3.99902 1.5
s-2.66602 0.833008 -3.99902 1.5s-2.83301 1.16699 -4.5 1.5s-3.16699 0.833008 -4.5 1.5c-1.33301 0 -2.5 0.166992 -3.5 0.5s-2.16699 0.833008 -3.5 1.5h-3l-2 2c-14 4.66699 -27.167 10.167 -39.5 16.5s-23.5 13.833 -33.5 22.5c-10.667 8 -17 19 -19 33
s-0.666992 30.333 4 49c5.33301 19.333 13.166 36.5 23.499 51.5s23.833 27.833 40.5 38.5s34 18.667 52 24s36.667 8 56 8h40c4.66699 0 9.33398 -0.166992 14.001 -0.5s9.66699 -1.16602 15 -2.49902c5.33301 -0.666992 10.666 -1.83398 15.999 -3.50098
s10.666 -4.16699 15.999 -7.5c2 -0.666992 3.83301 -1.66699 5.5 -3s3.16699 -2.66602 4.5 -3.99902c3.33301 -2.66699 6.83301 -5.66699 10.5 -9s6.83398 -7 9.50098 -11c4 -6 7.66699 -13 11 -21s6.33301 -17 9 -27l-52 -24h-40c-0.666992 10 -3.16699 18.833 -7.5 26.5
s-10.166 14.5 -17.499 20.5c-4.66699 4 -9.83398 7.33301 -15.501 10s-11.5 4.66699 -17.5 6c-7.33301 -1.33301 -14.333 -3.5 -21 -6.5s-13 -6.83301 -19 -11.5c-8 -6.66699 -14.667 -14.167 -20 -22.5s-9.33301 -17.166 -12 -26.499
c-2.66699 -10.667 -3.5 -19.667 -2.5 -27s3.83301 -13.333 8.5 -18c5.33301 -4.66699 11.5 -9 18.5 -13s14.833 -7.66699 23.5 -11c0.666992 0 1.16699 -0.166992 1.5 -0.5s0.833008 -0.5 1.5 -0.5s1.5 -0.166992 2.5 -0.5s2.16699 -0.833008 3.5 -1.5
s3 -1.33398 5 -2.00098l6 -2l4 -2c1.33301 -0.666992 3 -1.33398 5 -2.00098c1.33301 0 2.33301 -0.166992 3 -0.5s1.33398 -0.5 2.00098 -0.5c0.666992 -0.666992 1.5 -1.16699 2.5 -1.5s1.83301 -0.5 2.5 -0.5c13.333 -4.66699 26.166 -10.667 38.499 -18
s23.833 -15.666 34.5 -24.999c9.33301 -9.33301 15.166 -21.5 17.499 -36.5s0.833008 -33.167 -4.5 -54.5c0 -1.33301 -0.333008 -2.83301 -1 -4.5s-1.33398 -3.16699 -2.00098 -4.5c-0.666992 -2 -1.33398 -3.83301 -2.00098 -5.5s-1.33398 -3.16699 -2.00098 -4.5
c-1.33301 -3.33301 -2.83301 -6.66602 -4.5 -9.99902s-3.16699 -6.66602 -4.5 -9.99902c-7.33301 -12.667 -16.333 -24.5 -27 -35.5s-23 -21.5 -37 -31.5c-14.667 -8.66699 -31.5 -15.5 -50.5 -20.5s-40.5 -7.5 -64.5 -7.5l-40 -1
c-4.66699 0.666992 -9.83398 1.16699 -15.501 1.5s-11.834 1.16602 -18.501 2.49902c-6.66699 0.666992 -13.167 2.33398 -19.5 5.00098s-12.5 5.33398 -18.5 8.00098c-6.66699 3.33301 -12.667 7.83301 -18 13.5s-10.333 11.834 -15 18.501
c-4.66699 7.33301 -8.66699 15.666 -12 24.999s-5.66602 20 -6.99902 32v0v0z" />
    <glyph glyph-name="asciicircum" unicode="&#x455;" horiz-adv-x="422" 
d="M55 89l56.001 25.9941h40c0.666992 -10.667 3 -20.834 7 -30.501s9.33301 -19.167 16 -28.5c5.33301 -6.66699 11.5 -12.167 18.5 -16.5s15.5 -7.16602 25.5 -8.49902c10 1.33301 19.333 3.83301 28 7.5s17 8.5 25 14.5c10 8 18.5 17.333 25.5 28
s12.167 22.334 15.5 35.001c3.33301 11.333 4.33301 21.5 3 30.5s-4.66602 16.5 -9.99902 22.5s-11.5 11.333 -18.5 16s-14.167 8.33398 -21.5 11.001c-1.33301 0.666992 -2.66602 1.16699 -3.99902 1.5s-2.66602 0.833008 -3.99902 1.5s-2.66602 1.16699 -3.99902 1.5
s-2.66602 0.833008 -3.99902 1.5s-2.83301 1.16699 -4.5 1.5s-3.16699 0.833008 -4.5 1.5c-1.33301 0 -2.5 0.166992 -3.5 0.5s-2.16699 0.833008 -3.5 1.5h-3l-2 2c-14 4.66699 -27.167 10.167 -39.5 16.5s-23.5 13.833 -33.5 22.5c-10.667 8 -17 19 -19 33
s-0.666992 30.333 4 49c5.33301 19.333 13.166 36.5 23.499 51.5s23.833 27.833 40.5 38.5s34 18.667 52 24s36.667 8 56 8h40c4.66699 0 9.33398 -0.166992 14.001 -0.5s9.66699 -1.16602 15 -2.49902c5.33301 -0.666992 10.666 -1.83398 15.999 -3.50098
s10.666 -4.16699 15.999 -7.5c2 -0.666992 3.83301 -1.66699 5.5 -3s3.16699 -2.66602 4.5 -3.99902c3.33301 -2.66699 6.83301 -5.66699 10.5 -9s6.83398 -7 9.50098 -11c4 -6 7.66699 -13 11 -21s6.33301 -17 9 -27l-52 -24h-40c-0.666992 10 -3.16699 18.833 -7.5 26.5
s-10.166 14.5 -17.499 20.5c-4.66699 4 -9.83398 7.33301 -15.501 10s-11.5 4.66699 -17.5 6c-7.33301 -1.33301 -14.333 -3.5 -21 -6.5s-13 -6.83301 -19 -11.5c-8 -6.66699 -14.667 -14.167 -20 -22.5s-9.33301 -17.166 -12 -26.499
c-2.66699 -10.667 -3.5 -19.667 -2.5 -27s3.83301 -13.333 8.5 -18c5.33301 -4.66699 11.5 -9 18.5 -13s14.833 -7.66699 23.5 -11c0.666992 0 1.16699 -0.166992 1.5 -0.5s0.833008 -0.5 1.5 -0.5s1.5 -0.166992 2.5 -0.5s2.16699 -0.833008 3.5 -1.5
s3 -1.33398 5 -2.00098l6 -2l4 -2c1.33301 -0.666992 3 -1.33398 5 -2.00098c1.33301 0 2.33301 -0.166992 3 -0.5s1.33398 -0.5 2.00098 -0.5c0.666992 -0.666992 1.5 -1.16699 2.5 -1.5s1.83301 -0.5 2.5 -0.5c13.333 -4.66699 26.166 -10.667 38.499 -18
s23.833 -15.666 34.5 -24.999c9.33301 -9.33301 15.166 -21.5 17.499 -36.5s0.833008 -33.167 -4.5 -54.5c0 -1.33301 -0.333008 -2.83301 -1 -4.5s-1.33398 -3.16699 -2.00098 -4.5c-0.666992 -2 -1.33398 -3.83301 -2.00098 -5.5s-1.33398 -3.16699 -2.00098 -4.5
c-1.33301 -3.33301 -2.83301 -6.66602 -4.5 -9.99902s-3.16699 -6.66602 -4.5 -9.99902c-7.33301 -12.667 -16.333 -24.5 -27 -35.5s-23 -21.5 -37 -31.5c-14.667 -8.66699 -31.5 -15.5 -50.5 -20.5s-40.5 -7.5 -64.5 -7.5l-40 -1
c-4.66699 0.666992 -9.83398 1.16699 -15.501 1.5s-11.834 1.16602 -18.501 2.49902c-6.66699 0.666992 -13.167 2.33398 -19.5 5.00098s-12.5 5.33398 -18.5 8.00098c-6.66699 3.33301 -12.667 7.83301 -18 13.5s-10.333 11.834 -15 18.501
c-4.66699 7.33301 -8.66699 15.666 -12 24.999s-5.66602 20 -6.99902 32v0v0z" />
    <glyph glyph-name="underscore" unicode="&#xbf;" horiz-adv-x="284" 
d="M248 434h60l-116 -434h-40h-60l116 434h40v0v0zM170 581l0.999023 2.00098l1 3c1.33301 5.33301 3.83301 10.166 7.5 14.499s7.83398 8.83301 12.501 13.5c5.33301 4 11.166 7.16699 17.499 9.5s12.833 3.5 19.5 3.5h40c6.66699 0 12.334 -1.16699 17.001 -3.5
s8.66699 -5.5 12 -9.5c3.33301 -4.66699 5.33301 -9.66699 6 -15s0 -11.333 -2 -18s-5 -12.834 -9 -18.501s-8.66699 -10.5 -14 -14.5c-5.33301 -4.66699 -11 -8 -17 -10s-12 -3 -18 -3h-40c-6.66699 0 -12.5 1 -17.5 3s-9.16699 5 -12.5 9s-5.33301 8.83301 -6 14.5
s0 11.834 2 18.501v0v1v0v0v0v0zM291.999 581.001c1.33301 6 3.83105 11.667 7.49805 17s8.16699 10.333 13.5 15s11.333 8.16699 18 10.5s13.334 3.5 20.001 3.5h40c6.66699 0 12.334 -1.16699 17.001 -3.5s8.66699 -5.5 12 -9.5c3.33301 -4.66699 5.33301 -9.66699 6 -15
s0 -11.333 -2 -18s-5 -12.834 -9 -18.501s-8.66699 -10.5 -14 -14.5c-5.33301 -4.66699 -11 -8 -17 -10s-12 -3 -18 -3h-40c-6.66699 0 -12.5 1 -17.5 3s-9.16699 5.33301 -12.5 10c-3.33301 4 -5.33301 8.83301 -6 14.5s0 11.834 2 18.501v0v0z" />
    <glyph glyph-name="underscore" unicode="&#x457;" horiz-adv-x="284" 
d="M248 434h60l-116 -434h-40h-60l116 434h40v0v0zM170 581l0.999023 2.00098l1 3c1.33301 5.33301 3.83301 10.166 7.5 14.499s7.83398 8.83301 12.501 13.5c5.33301 4 11.166 7.16699 17.499 9.5s12.833 3.5 19.5 3.5h40c6.66699 0 12.334 -1.16699 17.001 -3.5
s8.66699 -5.5 12 -9.5c3.33301 -4.66699 5.33301 -9.66699 6 -15s0 -11.333 -2 -18s-5 -12.834 -9 -18.501s-8.66699 -10.5 -14 -14.5c-5.33301 -4.66699 -11 -8 -17 -10s-12 -3 -18 -3h-40c-6.66699 0 -12.5 1 -17.5 3s-9.16699 5 -12.5 9s-5.33301 8.83301 -6 14.5
s0 11.834 2 18.501v0v1v0v0v0v0zM291.999 581.001c1.33301 6 3.83105 11.667 7.49805 17s8.16699 10.333 13.5 15s11.333 8.16699 18 10.5s13.334 3.5 20.001 3.5h40c6.66699 0 12.334 -1.16699 17.001 -3.5s8.66699 -5.5 12 -9.5c3.33301 -4.66699 5.33301 -9.66699 6 -15
s0 -11.333 -2 -18s-5 -12.834 -9 -18.501s-8.66699 -10.5 -14 -14.5c-5.33301 -4.66699 -11 -8 -17 -10s-12 -3 -18 -3h-40c-6.66699 0 -12.5 1 -17.5 3s-9.16699 5.33301 -12.5 10c-3.33301 4 -5.33301 8.83301 -6 14.5s0 11.834 2 18.501v0v0z" />
    <glyph glyph-name="grave" unicode="&#xc0;" horiz-adv-x="689" 
d="M11 0l506 720h40l121 -720h-40h-70l-36 228h-253l-158 -228h-40h-70v0v0zM318 284h205l-38 240l-167 -240v0z" />
    <glyph glyph-name="grave" unicode="&#x410;" horiz-adv-x="689" 
d="M11 0l506 720h40l121 -720h-40h-70l-36 228h-253l-158 -228h-40h-70v0v0zM318 284h205l-38 240l-167 -240v0z" />
    <glyph glyph-name="a" unicode="&#xc1;" horiz-adv-x="598" 
d="M88 0l187.002 700.001h40h352l-15 -56h-284l-62 -231h115c5.33301 0 12 -0.166992 20 -0.5s17.333 -0.833008 28 -1.5c9.33301 -0.666992 19.166 -2.16699 29.499 -4.5s20.833 -5.16602 31.5 -8.49902c14.667 -5.33301 28 -13 40 -23s22.667 -22 32 -36
s14.5 -32 15.5 -54s-2.5 -47.667 -10.5 -77c-8.66699 -31.333 -19.834 -58.5 -33.501 -81.5s-30.167 -41.5 -49.5 -55.5c-10 -7.33301 -20 -14 -30 -20s-19.667 -11.333 -29 -16c-10 -4.66699 -20 -8.83398 -30 -12.501s-20 -6.83398 -30 -9.50098
c-12.667 -2.66699 -24.667 -5 -36 -7s-22.333 -3.33301 -33 -4s-20.5 -1.16699 -29.5 -1.5s-17.167 -0.5 -24.5 -0.5h-40h-154v0v0zM211.002 56.001l57 -0.00195312h16.5c6.33301 0 13.5 0.333008 21.5 1s16.333 1.83398 25 3.50098s17.667 3.83398 27 6.50098
s18.5 6 27.5 10s17.833 8.66699 26.5 14c4.66699 2.66699 9.16699 5.66699 13.5 9s8.83301 6.66602 13.5 9.99902c13.333 10.667 24.833 24.167 34.5 40.5s17.5 35.5 23.5 57.5c5.33301 21.333 7.83301 39.833 7.5 55.5s-3.83301 28.5 -10.5 38.5s-14.167 18.667 -22.5 26
s-17.5 13 -27.5 17c-2.66699 1.33301 -5.16699 2.33301 -7.5 3s-4.83301 1.33398 -7.5 2.00098c-5.33301 1.33301 -10.5 2.5 -15.5 3.5s-9.83301 1.5 -14.5 1.5c-8 0.666992 -14.833 1.16699 -20.5 1.5s-10.167 0.5 -13.5 0.5h-74l-80 -301v0z" />
    <glyph glyph-name="a" unicode="&#x411;" horiz-adv-x="598" 
d="M88 0l187.002 700.001h40h352l-15 -56h-284l-62 -231h115c5.33301 0 12 -0.166992 20 -0.5s17.333 -0.833008 28 -1.5c9.33301 -0.666992 19.166 -2.16699 29.499 -4.5s20.833 -5.16602 31.5 -8.49902c14.667 -5.33301 28 -13 40 -23s22.667 -22 32 -36
s14.5 -32 15.5 -54s-2.5 -47.667 -10.5 -77c-8.66699 -31.333 -19.834 -58.5 -33.501 -81.5s-30.167 -41.5 -49.5 -55.5c-10 -7.33301 -20 -14 -30 -20s-19.667 -11.333 -29 -16c-10 -4.66699 -20 -8.83398 -30 -12.501s-20 -6.83398 -30 -9.50098
c-12.667 -2.66699 -24.667 -5 -36 -7s-22.333 -3.33301 -33 -4s-20.5 -1.16699 -29.5 -1.5s-17.167 -0.5 -24.5 -0.5h-40h-154v0v0zM211.002 56.001l57 -0.00195312h16.5c6.33301 0 13.5 0.333008 21.5 1s16.333 1.83398 25 3.50098s17.667 3.83398 27 6.50098
s18.5 6 27.5 10s17.833 8.66699 26.5 14c4.66699 2.66699 9.16699 5.66699 13.5 9s8.83301 6.66602 13.5 9.99902c13.333 10.667 24.833 24.167 34.5 40.5s17.5 35.5 23.5 57.5c5.33301 21.333 7.83301 39.833 7.5 55.5s-3.83301 28.5 -10.5 38.5s-14.167 18.667 -22.5 26
s-17.5 13 -27.5 17c-2.66699 1.33301 -5.16699 2.33301 -7.5 3s-4.83301 1.33398 -7.5 2.00098c-5.33301 1.33301 -10.5 2.5 -15.5 3.5s-9.83301 1.5 -14.5 1.5c-8 0.666992 -14.833 1.16699 -20.5 1.5s-10.167 0.5 -13.5 0.5h-74l-80 -301v0z" />
    <glyph glyph-name="b" unicode="&#xc2;" horiz-adv-x="604" 
d="M315 700l144.002 0.000976562h2h2c5.33301 0 11.666 -0.166992 18.999 -0.5s15.666 -0.833008 24.999 -1.5c8.66699 -0.666992 17.667 -1.66699 27 -3s19 -3.33301 29 -6c14 -4 26.833 -10 38.5 -18s22.167 -17.667 31.5 -29s14.833 -26 16.5 -44
s-0.833008 -39.333 -7.5 -64c-4.66699 -18.667 -11.834 -35.834 -21.501 -51.501s-21.167 -30.167 -34.5 -43.5s-27.5 -24.833 -42.5 -34.5s-30.833 -17.5 -47.5 -23.5l-1 -2c2 0 4.16699 -0.166992 6.5 -0.5s4.83301 -0.833008 7.5 -1.5
c2 -0.666992 4.16699 -1.16699 6.5 -1.5s4.83301 -0.5 7.5 -0.5c15.333 -4 29.333 -10.5 42 -19.5s24.334 -20.5 35.001 -34.5c9.33301 -14 14.833 -31.167 16.5 -51.5s-1.16602 -43.5 -8.49902 -69.5c-8.66699 -32.667 -20.834 -61 -36.501 -85s-35.167 -43.667 -58.5 -59
c-8 -4.66699 -15.833 -9.16699 -23.5 -13.5s-15.5 -8.5 -23.5 -12.5c-15.333 -7.33301 -30.833 -13.333 -46.5 -18s-31.5 -8 -47.5 -10c-3.33301 -0.666992 -6.83301 -1.16699 -10.5 -1.5s-7.16699 -0.5 -10.5 -0.5h-40h-11h-10h-5h-4h-5h-4h-184l187 700h40v0v0z
M211.002 56.001h76c31.333 0 59 3.5 83 10.5s44.333 17.833 61 32.5c16.667 14 30.334 29 41.001 45s18.667 32.667 24 50l1 3l1 3c6 21.333 7.66699 40.833 5 58.5s-9.33398 33.167 -20.001 46.5s-26.167 23.333 -46.5 30s-45.5 10 -75.5 10h-73l-77 -289v0z
M303.002 401.001h48.999c1.33301 0 4.33301 0.166992 9 0.5s10.334 0.833008 17.001 1.5c7.33301 0.666992 15.166 2 23.499 4s16.833 4.66699 25.5 8c10 4 20 9.16699 30 15.5s20 13.833 30 22.5c10 9.33301 18.667 20.5 26 33.5s13.333 27.833 18 44.5
c4 14.667 5.16699 28.5 3.5 41.5s-6.16699 25.167 -13.5 36.5c-6.66699 11.333 -18.667 20 -36 26s-39.666 9 -66.999 9h-50l-65 -243v0z" />
    <glyph glyph-name="b" unicode="&#x412;" horiz-adv-x="604" 
d="M315 700l144.002 0.000976562h2h2c5.33301 0 11.666 -0.166992 18.999 -0.5s15.666 -0.833008 24.999 -1.5c8.66699 -0.666992 17.667 -1.66699 27 -3s19 -3.33301 29 -6c14 -4 26.833 -10 38.5 -18s22.167 -17.667 31.5 -29s14.833 -26 16.5 -44
s-0.833008 -39.333 -7.5 -64c-4.66699 -18.667 -11.834 -35.834 -21.501 -51.501s-21.167 -30.167 -34.5 -43.5s-27.5 -24.833 -42.5 -34.5s-30.833 -17.5 -47.5 -23.5l-1 -2c2 0 4.16699 -0.166992 6.5 -0.5s4.83301 -0.833008 7.5 -1.5
c2 -0.666992 4.16699 -1.16699 6.5 -1.5s4.83301 -0.5 7.5 -0.5c15.333 -4 29.333 -10.5 42 -19.5s24.334 -20.5 35.001 -34.5c9.33301 -14 14.833 -31.167 16.5 -51.5s-1.16602 -43.5 -8.49902 -69.5c-8.66699 -32.667 -20.834 -61 -36.501 -85s-35.167 -43.667 -58.5 -59
c-8 -4.66699 -15.833 -9.16699 -23.5 -13.5s-15.5 -8.5 -23.5 -12.5c-15.333 -7.33301 -30.833 -13.333 -46.5 -18s-31.5 -8 -47.5 -10c-3.33301 -0.666992 -6.83301 -1.16699 -10.5 -1.5s-7.16699 -0.5 -10.5 -0.5h-40h-11h-10h-5h-4h-5h-4h-184l187 700h40v0v0z
M211.002 56.001h76c31.333 0 59 3.5 83 10.5s44.333 17.833 61 32.5c16.667 14 30.334 29 41.001 45s18.667 32.667 24 50l1 3l1 3c6 21.333 7.66699 40.833 5 58.5s-9.33398 33.167 -20.001 46.5s-26.167 23.333 -46.5 30s-45.5 10 -75.5 10h-73l-77 -289v0z
M303.002 401.001h48.999c1.33301 0 4.33301 0.166992 9 0.5s10.334 0.833008 17.001 1.5c7.33301 0.666992 15.166 2 23.499 4s16.833 4.66699 25.5 8c10 4 20 9.16699 30 15.5s20 13.833 30 22.5c10 9.33301 18.667 20.5 26 33.5s13.333 27.833 18 44.5
c4 14.667 5.16699 28.5 3.5 41.5s-6.16699 25.167 -13.5 36.5c-6.66699 11.333 -18.667 20 -36 26s-39.666 9 -66.999 9h-50l-65 -243v0z" />
    <glyph glyph-name="c" unicode="&#xc3;" horiz-adv-x="447" 
d="M88 0l187 700h40h308l-15 -56h-240l-172 -644h-40h-68v0v0z" />
    <glyph glyph-name="c" unicode="&#x413;" horiz-adv-x="447" 
d="M88 0l187 700h40h308l-15 -56h-240l-172 -644h-40h-68v0v0z" />
    <glyph glyph-name="d" unicode="&#xc4;" horiz-adv-x="678" 
d="M376 700h391l-172 -644h84l-53 -196h-40h-63l38 140h-447l-38 -140h-40h-62l52 196h2h2h2h2c20.667 0 40.5 6 59.5 18s37.5 30 55.5 54c17.333 24 33.5 53.167 48.5 87.5s28.5 73.833 40.5 118.5l98 366h40v0v0zM429 644l-83.001 -310c-8.66699 -32.667 -18 -63 -28 -91
s-20 -53 -30 -75c-10.667 -22 -24.167 -42.333 -40.5 -61s-35.166 -35.667 -56.499 -51h296l157 588h-215v0v0z" />
    <glyph glyph-name="d" unicode="&#x414;" horiz-adv-x="678" 
d="M376 700h391l-172 -644h84l-53 -196h-40h-63l38 140h-447l-38 -140h-40h-62l52 196h2h2h2h2c20.667 0 40.5 6 59.5 18s37.5 30 55.5 54c17.333 24 33.5 53.167 48.5 87.5s28.5 73.833 40.5 118.5l98 366h40v0v0zM429 644l-83.001 -310c-8.66699 -32.667 -18 -63 -28 -91
s-20 -53 -30 -75c-10.667 -22 -24.167 -42.333 -40.5 -61s-35.166 -35.667 -56.499 -51h296l157 588h-215v0v0z" />
    <glyph glyph-name="e" unicode="&#xc5;" horiz-adv-x="559" 
d="M88 0l187 700h40h375l-15 -56h-307l-60 -224h296l-15 -56h-296l-82 -308h307l-15 -56h-40h-375v0v0z" />
    <glyph glyph-name="e" unicode="&#x415;" horiz-adv-x="559" 
d="M88 0l187 700h40h375l-15 -56h-307l-60 -224h296l-15 -56h-296l-82 -308h307l-15 -56h-40h-375v0v0z" />
    <glyph glyph-name="f" unicode="&#xc6;" horiz-adv-x="886" 
d="M389 0l79 295l-326 -295h-40h-91l408 358l-203 342h40h84l161 -281l75 281h40h68l-75 -281l311 281h40h84l-387 -342l218 -358h-40h-91l-168 295l-79 -295h-40h-68v0v0z" />
    <glyph glyph-name="f" unicode="&#x416;" horiz-adv-x="886" 
d="M389 0l79 295l-326 -295h-40h-91l408 358l-203 342h40h84l161 -281l75 281h40h68l-75 -281l311 281h40h84l-387 -342l218 -358h-40h-91l-168 295l-79 -295h-40h-68v0v0z" />
    <glyph glyph-name="g" unicode="&#xc7;" horiz-adv-x="586" 
d="M259 579l-44 35.0049c12 13.333 26.167 26.166 42.5 38.499s34.5 23.833 54.5 34.5c19.333 11.333 41.333 19.666 66 24.999s51.334 8 80.001 8h40c25.333 0 48.166 -4 68.499 -12s37.833 -20 52.5 -36c14 -16 22.833 -34.833 26.5 -56.5s1.83398 -46.167 -5.49902 -73.5
c-5.33301 -20 -13 -38.5 -23 -55.5s-22 -32.5 -36 -46.5c-14 -14.667 -29 -26.667 -45 -36s-32.667 -16.333 -50 -21l-1 -3c18.667 -3.33301 35.167 -9.83301 49.5 -19.5s26.833 -22.5 37.5 -38.5c10 -16 15.833 -34.667 17.5 -56s-1.16602 -45.333 -8.49902 -72
c-8 -30.667 -20.833 -58.667 -38.5 -84s-39.5 -48 -65.5 -68c-26.667 -20.667 -56.334 -35.834 -89.001 -45.501s-68 -14.5 -106 -14.5l-40 -1c-26.667 0.666992 -50.334 4.16699 -71.001 10.5s-38.667 15.833 -54 28.5c-15.333 13.333 -28.166 29 -38.499 47
s-18.166 38.333 -23.499 61l66 30h40c2.66699 -18.667 7.66699 -35.334 15 -50.001s17.333 -27.667 30 -39c10.667 -8.66699 22 -15.834 34 -21.501s24.667 -9.16699 38 -10.5c19.333 2 38.333 6.33301 57 13s36.667 16 54 28c21.333 14 39 31.167 53 51.5
s24.333 43.833 31 70.5c6.66699 24.667 8.16699 46.5 4.5 65.5s-12.167 34.833 -25.5 47.5c-13.333 13.333 -29.666 23.166 -48.999 29.499s-41.666 9.5 -66.999 9.5h-71l15 56h69h8.5h8.5h4c1.33301 0 3 0.333008 5 1c1.33301 0 2.66602 0.166992 3.99902 0.5
s2.66602 0.5 3.99902 0.5c14.667 2 29.167 6 43.5 12s28.166 13.333 41.499 22c14 9.33301 26.167 21.833 36.5 37.5s18.5 34.834 24.5 57.501c4.66699 17.333 6.16699 33.5 4.5 48.5s-6.16699 28.5 -13.5 40.5c-6.66699 10 -15.5 18 -26.5 24s-24.167 9.66699 -39.5 11
c-2.66699 0 -5.33398 -0.166992 -8.00098 -0.5s-5.66699 -0.833008 -9 -1.5c-10.667 -2 -21.667 -4.83301 -33 -8.5s-23 -8.5 -35 -14.5c-6 -2.66699 -11.833 -6 -17.5 -10s-11.5 -8.66699 -17.5 -14c-6 -4.66699 -11.833 -10 -17.5 -16s-11.5 -12.333 -17.5 -19h-40v0v0z
" />
    <glyph glyph-name="g" unicode="&#x417;" horiz-adv-x="586" 
d="M259 579l-44 35.0049c12 13.333 26.167 26.166 42.5 38.499s34.5 23.833 54.5 34.5c19.333 11.333 41.333 19.666 66 24.999s51.334 8 80.001 8h40c25.333 0 48.166 -4 68.499 -12s37.833 -20 52.5 -36c14 -16 22.833 -34.833 26.5 -56.5s1.83398 -46.167 -5.49902 -73.5
c-5.33301 -20 -13 -38.5 -23 -55.5s-22 -32.5 -36 -46.5c-14 -14.667 -29 -26.667 -45 -36s-32.667 -16.333 -50 -21l-1 -3c18.667 -3.33301 35.167 -9.83301 49.5 -19.5s26.833 -22.5 37.5 -38.5c10 -16 15.833 -34.667 17.5 -56s-1.16602 -45.333 -8.49902 -72
c-8 -30.667 -20.833 -58.667 -38.5 -84s-39.5 -48 -65.5 -68c-26.667 -20.667 -56.334 -35.834 -89.001 -45.501s-68 -14.5 -106 -14.5l-40 -1c-26.667 0.666992 -50.334 4.16699 -71.001 10.5s-38.667 15.833 -54 28.5c-15.333 13.333 -28.166 29 -38.499 47
s-18.166 38.333 -23.499 61l66 30h40c2.66699 -18.667 7.66699 -35.334 15 -50.001s17.333 -27.667 30 -39c10.667 -8.66699 22 -15.834 34 -21.501s24.667 -9.16699 38 -10.5c19.333 2 38.333 6.33301 57 13s36.667 16 54 28c21.333 14 39 31.167 53 51.5
s24.333 43.833 31 70.5c6.66699 24.667 8.16699 46.5 4.5 65.5s-12.167 34.833 -25.5 47.5c-13.333 13.333 -29.666 23.166 -48.999 29.499s-41.666 9.5 -66.999 9.5h-71l15 56h69h8.5h8.5h4c1.33301 0 3 0.333008 5 1c1.33301 0 2.66602 0.166992 3.99902 0.5
s2.66602 0.5 3.99902 0.5c14.667 2 29.167 6 43.5 12s28.166 13.333 41.499 22c14 9.33301 26.167 21.833 36.5 37.5s18.5 34.834 24.5 57.501c4.66699 17.333 6.16699 33.5 4.5 48.5s-6.16699 28.5 -13.5 40.5c-6.66699 10 -15.5 18 -26.5 24s-24.167 9.66699 -39.5 11
c-2.66699 0 -5.33398 -0.166992 -8.00098 -0.5s-5.66699 -0.833008 -9 -1.5c-10.667 -2 -21.667 -4.83301 -33 -8.5s-23 -8.5 -35 -14.5c-6 -2.66699 -11.833 -6 -17.5 -10s-11.5 -8.66699 -17.5 -14c-6 -4.66699 -11.833 -10 -17.5 -16s-11.5 -12.333 -17.5 -19h-40v0v0z
" />
    <glyph glyph-name="h" unicode="&#xc8;" horiz-adv-x="762" 
d="M315 700h68l-135 -505l581 533h40l-195 -728h-40h-68l135 505l-581 -533h-40l195 728h40v0v0z" />
    <glyph glyph-name="h" unicode="&#x418;" horiz-adv-x="762" 
d="M315 700h68l-135 -505l581 533h40l-195 -728h-40h-68l135 505l-581 -533h-40l195 728h40v0v0z" />
    <glyph glyph-name="i" unicode="&#xc9;" horiz-adv-x="762" 
d="M315 700h68l-135 -505l581 533h40l-195 -728h-40h-68l135 505l-581 -533h-40l195 728h40v0v0zM440 829l59.999 22.002h40c0 -10 1.66699 -18.5 5 -25.5s8.33301 -12.833 15 -17.5c5.33301 -4 10.666 -7.16699 15.999 -9.5s11 -4.16602 17 -5.49902
c8.66699 1.33301 16.334 3.16602 23.001 5.49902s13 5.5 19 9.5c8 5.33301 15.167 11 21.5 17s11.833 12.333 16.5 19l1 3l4 4h40l49 -22l-6 -8c-2 -2.66699 -4.33301 -5.33398 -7 -8.00098c-6 -8 -12.167 -15 -18.5 -21s-13.166 -11.333 -20.499 -16
c-8.66699 -6 -17.5 -11.167 -26.5 -15.5s-18.167 -7.83301 -27.5 -10.5c-6 -2 -11.833 -3.66699 -17.5 -5s-11.167 -2.33301 -16.5 -3c-4.66699 -0.666992 -9.5 -1.16699 -14.5 -1.5s-9.5 -0.5 -13.5 -0.5h-40c-4.66699 0 -9.5 0.166992 -14.5 0.5
s-10.167 0.833008 -15.5 1.5c-4.66699 1.33301 -9.5 2.66602 -14.5 3.99902s-10.167 3 -15.5 5c-7.33301 2.66699 -14.333 6.16699 -21 10.5s-12.667 9.5 -18 15.5c-6 6 -10.5 13.5 -13.5 22.5s-5.16699 18.833 -6.5 29.5v0v0z" />
    <glyph glyph-name="i" unicode="&#x419;" horiz-adv-x="762" 
d="M315 700h68l-135 -505l581 533h40l-195 -728h-40h-68l135 505l-581 -533h-40l195 728h40v0v0zM440 829l59.999 22.002h40c0 -10 1.66699 -18.5 5 -25.5s8.33301 -12.833 15 -17.5c5.33301 -4 10.666 -7.16699 15.999 -9.5s11 -4.16602 17 -5.49902
c8.66699 1.33301 16.334 3.16602 23.001 5.49902s13 5.5 19 9.5c8 5.33301 15.167 11 21.5 17s11.833 12.333 16.5 19l1 3l4 4h40l49 -22l-6 -8c-2 -2.66699 -4.33301 -5.33398 -7 -8.00098c-6 -8 -12.167 -15 -18.5 -21s-13.166 -11.333 -20.499 -16
c-8.66699 -6 -17.5 -11.167 -26.5 -15.5s-18.167 -7.83301 -27.5 -10.5c-6 -2 -11.833 -3.66699 -17.5 -5s-11.167 -2.33301 -16.5 -3c-4.66699 -0.666992 -9.5 -1.16699 -14.5 -1.5s-9.5 -0.5 -13.5 -0.5h-40c-4.66699 0 -9.5 0.166992 -14.5 0.5
s-10.167 0.833008 -15.5 1.5c-4.66699 1.33301 -9.5 2.66602 -14.5 3.99902s-10.167 3 -15.5 5c-7.33301 2.66699 -14.333 6.16699 -21 10.5s-12.667 9.5 -18 15.5c-6 6 -10.5 13.5 -13.5 22.5s-5.16699 18.833 -6.5 29.5v0v0z" />
    <glyph glyph-name="j" unicode="&#xca;" horiz-adv-x="611" 
d="M88 0l187 700h40h68l-76 -283l349 283h40h84l-423 -339l243 -361h-40h-91l-194 297l-79 -297h-40h-68v0v0z" />
    <glyph glyph-name="j" unicode="&#x41a;" horiz-adv-x="611" 
d="M88 0l187 700h40h68l-76 -283l349 283h40h84l-423 -339l243 -361h-40h-91l-194 297l-79 -297h-40h-68v0v0z" />
    <glyph glyph-name="k" unicode="&#xcb;" horiz-adv-x="681" 
d="M391 700l389.002 -0.000976562l-187 -700h-40h-68l172 644h-213l-101 -377c-10.667 -41.333 -23.334 -78.5 -38.001 -111.5s-30.667 -61.833 -48 -86.5s-39.166 -43 -65.499 -55s-56.833 -18 -91.5 -18l-40 -1c-0.666992 0.666992 -1.66699 1 -3 1h-4
c-2 0.666992 -4 1 -6 1h-7c-4.66699 0 -9.83398 0.333008 -15.501 1s-11.5 1.33398 -17.5 2.00098l15 56h40l3 -1l5 -1l5 -1h6v0h1v0v0c19.333 2.66699 36.666 9 51.999 19s28.333 23.333 39 40c12 20 23.167 42.667 33.5 68s19.5 53.333 27.5 84l117 436h40v0v0z" />
    <glyph glyph-name="k" unicode="&#x41b;" horiz-adv-x="681" 
d="M391 700l389.002 -0.000976562l-187 -700h-40h-68l172 644h-213l-101 -377c-10.667 -41.333 -23.334 -78.5 -38.001 -111.5s-30.667 -61.833 -48 -86.5s-39.166 -43 -65.499 -55s-56.833 -18 -91.5 -18l-40 -1c-0.666992 0.666992 -1.66699 1 -3 1h-4
c-2 0.666992 -4 1 -6 1h-7c-4.66699 0 -9.83398 0.333008 -15.501 1s-11.5 1.33398 -17.5 2.00098l15 56h40l3 -1l5 -1l5 -1h6v0h1v0v0c19.333 2.66699 36.666 9 51.999 19s28.333 23.333 39 40c12 20 23.167 42.667 33.5 68s19.5 53.333 27.5 84l117 436h40v0v0z" />
    <glyph glyph-name="l" unicode="&#xcc;" horiz-adv-x="898" 
d="M42 0l290 728h40l116 -581l428 581h40l-100 -728h-40h-63l62 451l-354 -479h-40l-98 479l-178 -451h-40h-63v0v0z" />
    <glyph glyph-name="l" unicode="&#x41c;" horiz-adv-x="898" 
d="M42 0l290 728h40l116 -581l428 581h40l-100 -728h-40h-63l62 451l-354 -479h-40l-98 479l-178 -451h-40h-63v0v0z" />
    <glyph glyph-name="m" unicode="&#xcd;" horiz-adv-x="755" 
d="M88 0l187 700h40h68l-77 -287h363l77 287h40h68l-187 -700h-40h-68l95 357h-363l-95 -357h-40h-68v0v0z" />
    <glyph glyph-name="m" unicode="&#x41d;" horiz-adv-x="755" 
d="M88 0l187 700h40h68l-77 -287h363l77 287h40h68l-187 -700h-40h-68l95 357h-363l-95 -357h-40h-68v0v0z" />
    <glyph glyph-name="n" unicode="&#xce;" horiz-adv-x="908" 
d="M149 350c13.333 50 34.332 96.667 62.999 140s65 83.333 109 120s91.333 64.167 142 82.5s105 27.5 163 27.5h40c50 0 94.833 -8.33301 134.5 -25s74.167 -41.667 103.5 -75c29.333 -32.667 47.333 -71.5 54 -116.5s2.33398 -96.167 -12.999 -153.5
c-14.667 -56.667 -37.5 -107.5 -68.5 -152.5s-70.167 -84.167 -117.5 -117.5c-46.667 -32.667 -94.334 -57.167 -143.001 -73.5s-98 -24.5 -148 -24.5l-40 -1c-50.667 0.666992 -96 9.16699 -136 25.5s-74.333 40.833 -103 73.5c-28.667 33.333 -46.167 72.5 -52.5 117.5
s-2.16602 95.833 12.501 152.5v0v0zM260.999 350c-12.667 -47.333 -16.5 -90 -11.5 -128s18.833 -71.333 41.5 -100c20.667 -26.667 45.167 -47 73.5 -61s60.833 -22 97.5 -24c38 2 75.333 10 112 24s72.334 34.333 107.001 61c37.333 28.667 68.833 62 94.5 100
s44.834 80.667 57.501 128c13.333 47.333 17.333 90 12 128s-19.333 71.333 -42 100c-20.667 26 -45.334 46.167 -74.001 60.5s-61.334 22.5 -98.001 24.5c-38 -2 -75.167 -10.167 -111.5 -24.5s-71.833 -34.5 -106.5 -60.5c-38 -28.667 -69.667 -62 -95 -100
s-44.333 -80.667 -57 -128v0v0z" />
    <glyph glyph-name="n" unicode="&#x41e;" horiz-adv-x="908" 
d="M149 350c13.333 50 34.332 96.667 62.999 140s65 83.333 109 120s91.333 64.167 142 82.5s105 27.5 163 27.5h40c50 0 94.833 -8.33301 134.5 -25s74.167 -41.667 103.5 -75c29.333 -32.667 47.333 -71.5 54 -116.5s2.33398 -96.167 -12.999 -153.5
c-14.667 -56.667 -37.5 -107.5 -68.5 -152.5s-70.167 -84.167 -117.5 -117.5c-46.667 -32.667 -94.334 -57.167 -143.001 -73.5s-98 -24.5 -148 -24.5l-40 -1c-50.667 0.666992 -96 9.16699 -136 25.5s-74.333 40.833 -103 73.5c-28.667 33.333 -46.167 72.5 -52.5 117.5
s-2.16602 95.833 12.501 152.5v0v0zM260.999 350c-12.667 -47.333 -16.5 -90 -11.5 -128s18.833 -71.333 41.5 -100c20.667 -26.667 45.167 -47 73.5 -61s60.833 -22 97.5 -24c38 2 75.333 10 112 24s72.334 34.333 107.001 61c37.333 28.667 68.833 62 94.5 100
s44.834 80.667 57.501 128c13.333 47.333 17.333 90 12 128s-19.333 71.333 -42 100c-20.667 26 -45.334 46.167 -74.001 60.5s-61.334 22.5 -98.001 24.5c-38 -2 -75.167 -10.167 -111.5 -24.5s-71.833 -34.5 -106.5 -60.5c-38 -28.667 -69.667 -62 -95 -100
s-44.333 -80.667 -57 -128v0v0z" />
    <glyph glyph-name="o" unicode="&#xcf;" horiz-adv-x="755" 
d="M88 0l187 700h40h539l-187 -700h-40h-68l172 644h-363l-172 -644h-40h-68v0v0z" />
    <glyph glyph-name="o" unicode="&#x41f;" horiz-adv-x="755" 
d="M88 0l187 700h40h539l-187 -700h-40h-68l172 644h-363l-172 -644h-40h-68v0v0z" />
    <glyph glyph-name="p" unicode="&#xd0;" horiz-adv-x="578" 
d="M88 0l187.001 699.999h40h194c6 0 12.333 -0.166992 19 -0.5s13.667 -0.833008 21 -1.5c6.66699 -0.666992 13.667 -1.66699 21 -3s14.666 -3 21.999 -5c14 -4.66699 27 -11.167 39 -19.5s22.667 -19.166 32 -32.499c9.33301 -12.667 14.5 -29.334 15.5 -50.001
s-2.16699 -45 -9.5 -73c-7.33301 -28.667 -17 -53.167 -29 -73.5s-26.333 -37.166 -43 -50.499c-16.667 -12.667 -33.167 -23.5 -49.5 -32.5s-32.833 -15.5 -49.5 -19.5c-8.66699 -2 -17 -3.66699 -25 -5s-15.667 -2.33301 -23 -3c-8 -0.666992 -15.333 -1.16699 -22 -1.5
s-12.667 -0.5 -18 -0.5h-126l-88 -329h-40h-68v0v0zM368.001 643.999l-69.001 -259h83h13c4.66699 0 9.33398 0.333008 14.001 1c5.33301 0.666992 10.833 1.5 16.5 2.5s11.834 2.16699 18.501 3.5c10.667 3.33301 21.5 8 32.5 14s22.167 13.333 33.5 22
c11.333 9.33301 21.166 21.166 29.499 35.499s14.833 31.5 19.5 51.5c5.33301 19.333 7.83301 36.333 7.5 51s-3.83301 26.334 -10.5 35.001c-6.66699 9.33301 -14 17 -22 23s-16.667 10.333 -26 13c-1.33301 0.666992 -3 1 -5 1s-3.66699 0.333008 -5 1l-10 2
c-3.33301 0.666992 -6.66602 1 -9.99902 1c-4.66699 0.666992 -9.33398 1.16699 -14.001 1.5s-9 0.5 -13 0.5h-83v0v0z" />
    <glyph glyph-name="p" unicode="&#x420;" horiz-adv-x="578" 
d="M88 0l187.001 699.999h40h194c6 0 12.333 -0.166992 19 -0.5s13.667 -0.833008 21 -1.5c6.66699 -0.666992 13.667 -1.66699 21 -3s14.666 -3 21.999 -5c14 -4.66699 27 -11.167 39 -19.5s22.667 -19.166 32 -32.499c9.33301 -12.667 14.5 -29.334 15.5 -50.001
s-2.16699 -45 -9.5 -73c-7.33301 -28.667 -17 -53.167 -29 -73.5s-26.333 -37.166 -43 -50.499c-16.667 -12.667 -33.167 -23.5 -49.5 -32.5s-32.833 -15.5 -49.5 -19.5c-8.66699 -2 -17 -3.66699 -25 -5s-15.667 -2.33301 -23 -3c-8 -0.666992 -15.333 -1.16699 -22 -1.5
s-12.667 -0.5 -18 -0.5h-126l-88 -329h-40h-68v0v0zM368.001 643.999l-69.001 -259h83h13c4.66699 0 9.33398 0.333008 14.001 1c5.33301 0.666992 10.833 1.5 16.5 2.5s11.834 2.16699 18.501 3.5c10.667 3.33301 21.5 8 32.5 14s22.167 13.333 33.5 22
c11.333 9.33301 21.166 21.166 29.499 35.499s14.833 31.5 19.5 51.5c5.33301 19.333 7.83301 36.333 7.5 51s-3.83301 26.334 -10.5 35.001c-6.66699 9.33301 -14 17 -22 23s-16.667 10.333 -26 13c-1.33301 0.666992 -3 1 -5 1s-3.66699 0.333008 -5 1l-10 2
c-3.33301 0.666992 -6.66602 1 -9.99902 1c-4.66699 0.666992 -9.33398 1.16699 -14.001 1.5s-9 0.5 -13 0.5h-83v0v0z" />
    <glyph glyph-name="q" unicode="&#xd1;" horiz-adv-x="740" 
d="M749 140l-20.998 -78.0049l-12.5 -7.5c-5 -3 -10.167 -6.16699 -15.5 -9.5c-6 -3.33301 -12.667 -6.83301 -20 -10.5s-15.333 -7.16699 -24 -10.5c-12.667 -5.33301 -26.5 -10.5 -41.5 -15.5s-31.167 -9.16699 -48.5 -12.5c-16.667 -4.66699 -34.667 -8.16699 -54 -10.5
s-39.666 -3.5 -60.999 -3.5l-40 -1c-56 0.666992 -103.667 10 -143 28s-70 45.333 -92 82c-22 37.333 -35.167 77.5 -39.5 120.5s-0.166016 89.167 12.501 138.5c15.333 57.333 38.166 108.5 68.499 153.5s68.166 83.833 113.499 116.5
c45.333 33.333 91.166 58.333 137.499 75s93.166 25 140.499 25h40c18 0 36.5 -1.16699 55.5 -3.5s38.5 -6.16602 58.5 -11.499c20.667 -4.66699 41 -12.834 61 -24.501s39.333 -26.5 58 -44.5l-21 -79h-40c-12.667 16 -26.5 30.333 -41.5 43s-31.833 24 -50.5 34
c-15.333 8.66699 -32.5 15.5 -51.5 20.5s-39.5 7.83301 -61.5 8.5c-38.667 -2 -75.667 -10.667 -111 -26s-69 -37.333 -101 -66c-34 -30.667 -62.5 -63 -85.5 -97s-40.5 -69.667 -52.5 -107c-0.666992 -1.33301 -1.16699 -2.83301 -1.5 -4.5s-0.833008 -3.16699 -1.5 -4.5
c0 -1.33301 -0.166992 -2.66602 -0.5 -3.99902s-0.833008 -2.66602 -1.5 -3.99902c-10.667 -40 -14.167 -78 -10.5 -114s13.834 -70.333 30.501 -103c16 -30 37.833 -53 65.5 -69s61.167 -25 100.5 -27c7.33301 0.666992 14.333 1.33398 21 2.00098
s13.667 1.33398 21 2.00098c14 2.66699 28 5.83398 42 9.50098s28 8.16699 42 13.5c24.667 9.33301 48.167 20.333 70.5 33s44.166 27 65.499 43h40v0v0z" />
    <glyph glyph-name="q" unicode="&#x421;" horiz-adv-x="740" 
d="M749 140l-20.998 -78.0049l-12.5 -7.5c-5 -3 -10.167 -6.16699 -15.5 -9.5c-6 -3.33301 -12.667 -6.83301 -20 -10.5s-15.333 -7.16699 -24 -10.5c-12.667 -5.33301 -26.5 -10.5 -41.5 -15.5s-31.167 -9.16699 -48.5 -12.5c-16.667 -4.66699 -34.667 -8.16699 -54 -10.5
s-39.666 -3.5 -60.999 -3.5l-40 -1c-56 0.666992 -103.667 10 -143 28s-70 45.333 -92 82c-22 37.333 -35.167 77.5 -39.5 120.5s-0.166016 89.167 12.501 138.5c15.333 57.333 38.166 108.5 68.499 153.5s68.166 83.833 113.499 116.5
c45.333 33.333 91.166 58.333 137.499 75s93.166 25 140.499 25h40c18 0 36.5 -1.16699 55.5 -3.5s38.5 -6.16602 58.5 -11.499c20.667 -4.66699 41 -12.834 61 -24.501s39.333 -26.5 58 -44.5l-21 -79h-40c-12.667 16 -26.5 30.333 -41.5 43s-31.833 24 -50.5 34
c-15.333 8.66699 -32.5 15.5 -51.5 20.5s-39.5 7.83301 -61.5 8.5c-38.667 -2 -75.667 -10.667 -111 -26s-69 -37.333 -101 -66c-34 -30.667 -62.5 -63 -85.5 -97s-40.5 -69.667 -52.5 -107c-0.666992 -1.33301 -1.16699 -2.83301 -1.5 -4.5s-0.833008 -3.16699 -1.5 -4.5
c0 -1.33301 -0.166992 -2.66602 -0.5 -3.99902s-0.833008 -2.66602 -1.5 -3.99902c-10.667 -40 -14.167 -78 -10.5 -114s13.834 -70.333 30.501 -103c16 -30 37.833 -53 65.5 -69s61.167 -25 100.5 -27c7.33301 0.666992 14.333 1.33398 21 2.00098
s13.667 1.33398 21 2.00098c14 2.66699 28 5.83398 42 9.50098s28 8.16699 42 13.5c24.667 9.33301 48.167 20.333 70.5 33s44.166 27 65.499 43h40v0v0z" />
    <glyph glyph-name="r" unicode="&#xd2;" horiz-adv-x="504" 
d="M198 0l172 644h-187l15 56h40h442l-15 -56h-187l-172 -644h-40h-68v0v0z" />
    <glyph glyph-name="r" unicode="&#x422;" horiz-adv-x="504" 
d="M198 0l172 644h-187l15 56h40h442l-15 -56h-187l-172 -644h-40h-68v0v0z" />
    <glyph glyph-name="s" unicode="&#xd3;" horiz-adv-x="601" 
d="M172 0l153 212l-124 488h40h77l91 -375l270 375h40h69l-507 -700h-40h-69v0v0z" />
    <glyph glyph-name="s" unicode="&#x423;" horiz-adv-x="601" 
d="M172 0l153 212l-124 488h40h77l91 -375l270 375h40h69l-507 -700h-40h-69v0v0z" />
    <glyph glyph-name="t" unicode="&#xd4;" horiz-adv-x="906" 
d="M399 0l25.998 98.999h-30c-56.667 0 -103.667 7 -141 21s-64.666 35 -81.999 63s-28 57.833 -32 89.5s-1.33301 64.834 8 99.501c11.333 40 28.333 76.5 51 109.5s51.334 61.833 86.001 86.5c34.667 25.333 73.334 44.333 116.001 57s89.334 19 140.001 19h30l23 84h40
h68l-23 -84h29c41.333 0 79.166 -5.5 113.499 -16.5s64.833 -27.5 91.5 -49.5c27.333 -22 44.5 -50.167 51.5 -84.5s4.16699 -75.166 -8.5 -122.499c-9.33301 -34.667 -24.5 -67.834 -45.5 -99.501s-47.5 -61.5 -79.5 -89.5c-32.667 -28 -71.334 -49 -116.001 -63
s-95.667 -21 -153 -21h-29l-26 -98h-40h-68v0v0zM439.998 155.999l116 430.003c-44.667 -2.66699 -83.667 -9.33398 -117 -20.001s-60.666 -25.667 -81.999 -45c-24.667 -21.333 -45.167 -44.5 -61.5 -69.5s-28.166 -51.833 -35.499 -80.5
c-12.667 -46.667 -16.334 -84.834 -11.001 -114.501s19.666 -50.834 42.999 -63.501c20 -10.667 42.167 -19 66.5 -25s51.5 -10 81.5 -12v0zM663.998 586.002l-116.001 -430.001c31.333 2.66699 60.833 7 88.5 13s53.834 14 78.501 24c30.667 12 56.667 33 78 63
s38.333 68.333 51 115c7.33301 28.667 9.66602 55.5 6.99902 80.5s-10.667 48.167 -24 69.5c-11.333 19.333 -30.666 34.333 -57.999 45s-62.333 17.334 -105 20.001v0z" />
    <glyph glyph-name="t" unicode="&#x424;" horiz-adv-x="906" 
d="M399 0l25.998 98.999h-30c-56.667 0 -103.667 7 -141 21s-64.666 35 -81.999 63s-28 57.833 -32 89.5s-1.33301 64.834 8 99.501c11.333 40 28.333 76.5 51 109.5s51.334 61.833 86.001 86.5c34.667 25.333 73.334 44.333 116.001 57s89.334 19 140.001 19h30l23 84h40
h68l-23 -84h29c41.333 0 79.166 -5.5 113.499 -16.5s64.833 -27.5 91.5 -49.5c27.333 -22 44.5 -50.167 51.5 -84.5s4.16699 -75.166 -8.5 -122.499c-9.33301 -34.667 -24.5 -67.834 -45.5 -99.501s-47.5 -61.5 -79.5 -89.5c-32.667 -28 -71.334 -49 -116.001 -63
s-95.667 -21 -153 -21h-29l-26 -98h-40h-68v0v0zM439.998 155.999l116 430.003c-44.667 -2.66699 -83.667 -9.33398 -117 -20.001s-60.666 -25.667 -81.999 -45c-24.667 -21.333 -45.167 -44.5 -61.5 -69.5s-28.166 -51.833 -35.499 -80.5
c-12.667 -46.667 -16.334 -84.834 -11.001 -114.501s19.666 -50.834 42.999 -63.501c20 -10.667 42.167 -19 66.5 -25s51.5 -10 81.5 -12v0zM663.998 586.002l-116.001 -430.001c31.333 2.66699 60.833 7 88.5 13s53.834 14 78.501 24c30.667 12 56.667 33 78 63
s38.333 68.333 51 115c7.33301 28.667 9.66602 55.5 6.99902 80.5s-10.667 48.167 -24 69.5c-11.333 19.333 -30.666 34.333 -57.999 45s-62.333 17.334 -105 20.001v0z" />
    <glyph glyph-name="u" unicode="&#xd5;" horiz-adv-x="544" 
d="M343 268l-220 -268h-40h-76l305 357l-102 343h40h76l66 -249l201 249h40h76l-287 -343l115 -357h-40h-75l-79 268v0z" />
    <glyph glyph-name="u" unicode="&#x425;" horiz-adv-x="544" 
d="M343 268l-220 -268h-40h-76l305 357l-102 343h40h76l66 -249l201 249h40h76l-287 -343l115 -357h-40h-75l-79 268v0z" />
    <glyph glyph-name="v" unicode="&#xd6;" horiz-adv-x="755" 
d="M88 0l187 700h40h68l-172 -644h356l172 644h40h68l-172 -644h84l-53 -196h-40h-63l38 140h-553v0v0z" />
    <glyph glyph-name="v" unicode="&#x426;" horiz-adv-x="755" 
d="M88 0l187 700h40h68l-172 -644h356l172 644h40h68l-172 -644h84l-53 -196h-40h-63l38 140h-553v0v0z" />
    <glyph glyph-name="w" unicode="&#xd7;" horiz-adv-x="638" 
d="M442 0l82.999 312.001c-2.66699 -0.666992 -5.16699 -1 -7.5 -1h-7.5h-8h-7c-2.66699 -0.666992 -5.33398 -1 -8.00098 -1h-8c-6.66699 -0.666992 -13.334 -1.16699 -20.001 -1.5s-13 -0.5 -19 -0.5h-40h-17h-16c-48.667 0 -86.667 4.33301 -114 13
s-44.666 21.334 -51.999 38.001c-7.33301 17.333 -11 36.666 -11 57.999s3.33301 44.666 10 69.999l57 213h40h68l-53 -198c-6.66699 -23.333 -10.167 -43.666 -10.5 -60.999s2.16699 -31.666 7.5 -42.999c4.66699 -10.667 16.834 -18.834 36.501 -24.501
s46.167 -8.83398 79.5 -9.50098c6.66699 0 13.334 0.166992 20.001 0.5s14 0.833008 22 1.5c8.66699 0.666992 19 1.5 31 2.5s26.333 1.83301 43 2.5l88 329h40h68l-187 -700h-40h-68v0v0z" />
    <glyph glyph-name="w" unicode="&#x427;" horiz-adv-x="638" 
d="M442 0l82.999 312.001c-2.66699 -0.666992 -5.16699 -1 -7.5 -1h-7.5h-8h-7c-2.66699 -0.666992 -5.33398 -1 -8.00098 -1h-8c-6.66699 -0.666992 -13.334 -1.16699 -20.001 -1.5s-13 -0.5 -19 -0.5h-40h-17h-16c-48.667 0 -86.667 4.33301 -114 13
s-44.666 21.334 -51.999 38.001c-7.33301 17.333 -11 36.666 -11 57.999s3.33301 44.666 10 69.999l57 213h40h68l-53 -198c-6.66699 -23.333 -10.167 -43.666 -10.5 -60.999s2.16699 -31.666 7.5 -42.999c4.66699 -10.667 16.834 -18.834 36.501 -24.501
s46.167 -8.83398 79.5 -9.50098c6.66699 0 13.334 0.166992 20.001 0.5s14 0.833008 22 1.5c8.66699 0.666992 19 1.5 31 2.5s26.333 1.83301 43 2.5l88 329h40h68l-187 -700h-40h-68v0v0z" />
    <glyph glyph-name="x" unicode="&#xd8;" horiz-adv-x="1032" 
d="M88 0l187 700h40h68l-172 -644h266l172 644h40h68l-172 -644h266l172 644h40h68l-187 -700h-40h-816v0v0z" />
    <glyph glyph-name="x" unicode="&#x428;" horiz-adv-x="1032" 
d="M88 0l187 700h40h68l-172 -644h266l172 644h40h68l-172 -644h266l172 644h40h68l-187 -700h-40h-816v0v0z" />
    <glyph glyph-name="y" unicode="&#xd9;" horiz-adv-x="1116" 
d="M88 0l187 700h40h68l-172 -644h266l172 644h40h68l-172 -644h266l172 644h40h68l-172 -644h84l-53 -196h-40h-63l38 140h-837v0v0z" />
    <glyph glyph-name="y" unicode="&#x429;" horiz-adv-x="1116" 
d="M88 0l187 700h40h68l-172 -644h266l172 644h40h68l-172 -644h266l172 644h40h68l-172 -644h84l-53 -196h-40h-63l38 140h-837v0v0z" />
    <glyph glyph-name="z" unicode="&#xda;" horiz-adv-x="689" 
d="M178 0l172.004 643.999h-167l15 56h40h235l-79 -294h116c5.33301 0 12 -0.166992 20 -0.5s17.333 -0.833008 28 -1.5c9.33301 -0.666992 19.166 -2.16699 29.499 -4.5s20.833 -5.16602 31.5 -8.49902c14.667 -5.33301 28 -12.833 40 -22.5s23 -21.5 33 -35.5
c9.33301 -14 14.5 -31.5 15.5 -52.5s-2.5 -46.167 -10.5 -75.5c-8 -30.667 -19 -57.334 -33 -80.001s-30.667 -41 -50 -55c-18.667 -14 -37.834 -25.667 -57.501 -35s-39.5 -16.666 -59.5 -21.999c-12.667 -2.66699 -24.834 -5 -36.501 -7s-23.167 -3.33301 -34.5 -4
c-10.667 -0.666992 -20.334 -1.16699 -29.001 -1.5s-16.667 -0.5 -24 -0.5h-40h-155v0v0zM301.004 55.999l57.998 -0.000976562h15.5c6.33301 0 13.5 0.333008 21.5 1s16.667 1.83398 26 3.50098s18.666 3.83398 27.999 6.50098c6.66699 2 13.334 4.33301 20.001 7
s13.334 6 20.001 10c6.66699 3.33301 13.334 7.16602 20.001 11.499s13.334 8.83301 20.001 13.5c13.333 10 24.833 23 34.5 39s17.167 35 22.5 57c6 21.333 8.66699 39.666 8 54.999s-4.66699 28 -12 38c-6.66699 10 -14.334 18.333 -23.001 25s-18 12 -28 16
c-3.33301 1.33301 -6.83301 2.5 -10.5 3.5s-7.5 1.83301 -11.5 2.5s-7.83301 1.33398 -11.5 2.00098s-7.16699 1 -10.5 1c-7.33301 0.666992 -13.833 1.16699 -19.5 1.5s-10.5 0.5 -14.5 0.5h-75l-78 -294v0z" />
    <glyph glyph-name="z" unicode="&#x42a;" horiz-adv-x="689" 
d="M178 0l172.004 643.999h-167l15 56h40h235l-79 -294h116c5.33301 0 12 -0.166992 20 -0.5s17.333 -0.833008 28 -1.5c9.33301 -0.666992 19.166 -2.16699 29.499 -4.5s20.833 -5.16602 31.5 -8.49902c14.667 -5.33301 28 -12.833 40 -22.5s23 -21.5 33 -35.5
c9.33301 -14 14.5 -31.5 15.5 -52.5s-2.5 -46.167 -10.5 -75.5c-8 -30.667 -19 -57.334 -33 -80.001s-30.667 -41 -50 -55c-18.667 -14 -37.834 -25.667 -57.501 -35s-39.5 -16.666 -59.5 -21.999c-12.667 -2.66699 -24.834 -5 -36.501 -7s-23.167 -3.33301 -34.5 -4
c-10.667 -0.666992 -20.334 -1.16699 -29.001 -1.5s-16.667 -0.5 -24 -0.5h-40h-155v0v0zM301.004 55.999l57.998 -0.000976562h15.5c6.33301 0 13.5 0.333008 21.5 1s16.667 1.83398 26 3.50098s18.666 3.83398 27.999 6.50098c6.66699 2 13.334 4.33301 20.001 7
s13.334 6 20.001 10c6.66699 3.33301 13.334 7.16602 20.001 11.499s13.334 8.83301 20.001 13.5c13.333 10 24.833 23 34.5 39s17.167 35 22.5 57c6 21.333 8.66699 39.666 8 54.999s-4.66699 28 -12 38c-6.66699 10 -14.334 18.333 -23.001 25s-18 12 -28 16
c-3.33301 1.33301 -6.83301 2.5 -10.5 3.5s-7.5 1.83301 -11.5 2.5s-7.83301 1.33398 -11.5 2.00098s-7.16699 1 -10.5 1c-7.33301 0.666992 -13.833 1.16699 -19.5 1.5s-10.5 0.5 -14.5 0.5h-75l-78 -294v0z" />
    <glyph glyph-name="braceleft" unicode="&#xdb;" horiz-adv-x="786" 
d="M88 0l187.002 700.001h40h68l-79 -294h117c6 0 13 -0.166992 21 -0.5s17 -0.833008 27 -1.5c9.33301 -0.666992 19 -2 29 -4s20.333 -4.66699 31 -8c14.667 -4.66699 28.167 -11.834 40.5 -21.501s23.166 -21.5 32.499 -35.5s14.5 -31.833 15.5 -53.5
s-2.5 -47.167 -10.5 -76.5c-8 -30.667 -19 -57.5 -33 -80.5s-30.667 -41.5 -50 -55.5c-20 -14 -39.833 -25.667 -59.5 -35s-39.167 -16.333 -58.5 -21c-12.667 -2.66699 -24.667 -5 -36 -7s-22.333 -3.33301 -33 -4s-20.334 -1.16699 -29.001 -1.5s-16.667 -0.5 -24 -0.5
h-40h-156v0v0zM211.002 56.001h59.001h16c6 0 13 0.333008 21 1s16.333 1.66699 25 3s17.334 3.33301 26.001 6c14 3.33301 27.833 8.5 41.5 15.5s26.834 15.833 39.501 26.5c13.333 10 25 23.167 35 39.5s17.667 35.5 23 57.5c6 21.333 8.66699 39.666 8 54.999
s-4.33398 28 -11.001 38s-14.334 18.333 -23.001 25s-18 12 -28 16l-6 2c-2 0.666992 -3.66699 1 -5 1c-6 2 -11.833 3.33301 -17.5 4s-10.834 1.33398 -15.501 2.00098c-7.33301 0.666992 -13.833 1.16699 -19.5 1.5s-10.5 0.5 -14.5 0.5h-76l-78 -294v0z
M590.003 0.000976562l187 700h40h68l-187 -700h-40h-68v0v0z" />
    <glyph glyph-name="braceleft" unicode="&#x42b;" horiz-adv-x="786" 
d="M88 0l187.002 700.001h40h68l-79 -294h117c6 0 13 -0.166992 21 -0.5s17 -0.833008 27 -1.5c9.33301 -0.666992 19 -2 29 -4s20.333 -4.66699 31 -8c14.667 -4.66699 28.167 -11.834 40.5 -21.501s23.166 -21.5 32.499 -35.5s14.5 -31.833 15.5 -53.5
s-2.5 -47.167 -10.5 -76.5c-8 -30.667 -19 -57.5 -33 -80.5s-30.667 -41.5 -50 -55.5c-20 -14 -39.833 -25.667 -59.5 -35s-39.167 -16.333 -58.5 -21c-12.667 -2.66699 -24.667 -5 -36 -7s-22.333 -3.33301 -33 -4s-20.334 -1.16699 -29.001 -1.5s-16.667 -0.5 -24 -0.5
h-40h-156v0v0zM211.002 56.001h59.001h16c6 0 13 0.333008 21 1s16.333 1.66699 25 3s17.334 3.33301 26.001 6c14 3.33301 27.833 8.5 41.5 15.5s26.834 15.833 39.501 26.5c13.333 10 25 23.167 35 39.5s17.667 35.5 23 57.5c6 21.333 8.66699 39.666 8 54.999
s-4.33398 28 -11.001 38s-14.334 18.333 -23.001 25s-18 12 -28 16l-6 2c-2 0.666992 -3.66699 1 -5 1c-6 2 -11.833 3.33301 -17.5 4s-10.834 1.33398 -15.501 2.00098c-7.33301 0.666992 -13.833 1.16699 -19.5 1.5s-10.5 0.5 -14.5 0.5h-76l-78 -294v0z
M590.003 0.000976562l187 700h40h68l-187 -700h-40h-68v0v0z" />
    <glyph glyph-name="bar" unicode="&#xdc;" horiz-adv-x="599" 
d="M88 0l187.004 699.999h40h68l-79 -294h116c5.33301 0 12 -0.166992 20 -0.5s17.333 -0.833008 28 -1.5c9.33301 -0.666992 19.166 -2.16699 29.499 -4.5s20.833 -5.16602 31.5 -8.49902c14.667 -5.33301 28 -12.833 40 -22.5s23 -21.5 33 -35.5
c9.33301 -14 14.5 -31.5 15.5 -52.5s-2.5 -46.167 -10.5 -75.5c-8 -30.667 -19 -57.334 -33 -80.001s-30.667 -41 -50 -55c-18.667 -14 -37.834 -25.667 -57.501 -35s-39.5 -16.666 -59.5 -21.999c-12.667 -2.66699 -24.834 -5 -36.501 -7s-23.167 -3.33301 -34.5 -4
c-10.667 -0.666992 -20.334 -1.16699 -29.001 -1.5s-16.667 -0.5 -24 -0.5h-40h-155v0v0zM211.004 55.999l57.998 -0.000976562h15.5c6.33301 0 13.5 0.333008 21.5 1s16.667 1.83398 26 3.50098s18.666 3.83398 27.999 6.50098c6.66699 2 13.334 4.33301 20.001 7
s13.334 6 20.001 10c6.66699 3.33301 13.334 7.16602 20.001 11.499s13.334 8.83301 20.001 13.5c13.333 10 24.833 23 34.5 39s17.167 35 22.5 57c6 21.333 8.66699 39.666 8 54.999s-4.66699 28 -12 38c-6.66699 10 -14.334 18.333 -23.001 25s-18 12 -28 16
c-3.33301 1.33301 -6.83301 2.5 -10.5 3.5s-7.5 1.83301 -11.5 2.5s-7.83301 1.33398 -11.5 2.00098s-7.16699 1 -10.5 1c-7.33301 0.666992 -13.833 1.16699 -19.5 1.5s-10.5 0.5 -14.5 0.5h-75l-78 -294v0z" />
    <glyph glyph-name="bar" unicode="&#x42c;" horiz-adv-x="599" 
d="M88 0l187.004 699.999h40h68l-79 -294h116c5.33301 0 12 -0.166992 20 -0.5s17.333 -0.833008 28 -1.5c9.33301 -0.666992 19.166 -2.16699 29.499 -4.5s20.833 -5.16602 31.5 -8.49902c14.667 -5.33301 28 -12.833 40 -22.5s23 -21.5 33 -35.5
c9.33301 -14 14.5 -31.5 15.5 -52.5s-2.5 -46.167 -10.5 -75.5c-8 -30.667 -19 -57.334 -33 -80.001s-30.667 -41 -50 -55c-18.667 -14 -37.834 -25.667 -57.501 -35s-39.5 -16.666 -59.5 -21.999c-12.667 -2.66699 -24.834 -5 -36.501 -7s-23.167 -3.33301 -34.5 -4
c-10.667 -0.666992 -20.334 -1.16699 -29.001 -1.5s-16.667 -0.5 -24 -0.5h-40h-155v0v0zM211.004 55.999l57.998 -0.000976562h15.5c6.33301 0 13.5 0.333008 21.5 1s16.667 1.83398 26 3.50098s18.666 3.83398 27.999 6.50098c6.66699 2 13.334 4.33301 20.001 7
s13.334 6 20.001 10c6.66699 3.33301 13.334 7.16602 20.001 11.499s13.334 8.83301 20.001 13.5c13.333 10 24.833 23 34.5 39s17.167 35 22.5 57c6 21.333 8.66699 39.666 8 54.999s-4.66699 28 -12 38c-6.66699 10 -14.334 18.333 -23.001 25s-18 12 -28 16
c-3.33301 1.33301 -6.83301 2.5 -10.5 3.5s-7.5 1.83301 -11.5 2.5s-7.83301 1.33398 -11.5 2.00098s-7.16699 1 -10.5 1c-7.33301 0.666992 -13.833 1.16699 -19.5 1.5s-10.5 0.5 -14.5 0.5h-75l-78 -294v0z" />
    <glyph glyph-name="braceright" unicode="&#xdd;" horiz-adv-x="719" 
d="M51 36l20.9971 75.999h40c10.667 -10 22.834 -19.333 36.501 -28s28.834 -17 45.501 -25c14.667 -6.66699 29.834 -11.667 45.501 -15s31.834 -5.66602 48.501 -6.99902c33.333 2 66.666 9.83301 99.999 23.5s67 32.834 101 57.501
c37.333 27.333 68.5 59.166 93.5 95.499s44.5 77.166 58.5 122.499h-425l15 56h423c9.33301 39.333 10.666 75.333 3.99902 108s-21 61.667 -43 87c-20.667 23.333 -44.5 41.5 -71.5 54.5s-57.167 20.5 -90.5 22.5c-10 -0.666992 -20.167 -2 -30.5 -4s-20.833 -4 -31.5 -6
c-6.66699 -2 -13.5 -4 -20.5 -6s-13.833 -4 -20.5 -6c-18.667 -6.66699 -37.334 -14.5 -56.001 -23.5s-37 -19.5 -55 -31.5h-40l20 75c8 4.66699 16.167 9 24.5 13s16.833 7.33301 25.5 10c8 3.33301 16 6.33301 24 9s16.333 5.33398 25 8.00098
c5.33301 1.33301 10.833 2.66602 16.5 3.99902s11.5 2.66602 17.5 3.99902s11.833 2.5 17.5 3.5s11.167 1.83301 16.5 2.5c6 0.666992 11.833 1.16699 17.5 1.5s11.167 0.833008 16.5 1.5c5.33301 0 10.833 0.166992 16.5 0.5s11.5 0.5 17.5 0.5h40
c59.333 0 109 -9.16699 149 -27.5s70.333 -46.166 91 -83.499c20.667 -36.667 32.834 -76.667 36.501 -120s-1.16602 -89.666 -14.499 -138.999c-12.667 -49.333 -32.834 -95.5 -60.501 -138.5s-62.5 -83.167 -104.5 -120.5c-42 -36.667 -87.5 -64 -136.5 -82
s-101.833 -27 -158.5 -27l-40 -1c-16.667 0.666992 -33.5 2 -50.5 4s-34.167 5 -51.5 9c-17.333 3.33301 -34.666 8.5 -51.999 15.5s-34.333 15.833 -51 26.5v0v0z" />
    <glyph glyph-name="braceright" unicode="&#x42d;" horiz-adv-x="719" 
d="M51 36l20.9971 75.999h40c10.667 -10 22.834 -19.333 36.501 -28s28.834 -17 45.501 -25c14.667 -6.66699 29.834 -11.667 45.501 -15s31.834 -5.66602 48.501 -6.99902c33.333 2 66.666 9.83301 99.999 23.5s67 32.834 101 57.501
c37.333 27.333 68.5 59.166 93.5 95.499s44.5 77.166 58.5 122.499h-425l15 56h423c9.33301 39.333 10.666 75.333 3.99902 108s-21 61.667 -43 87c-20.667 23.333 -44.5 41.5 -71.5 54.5s-57.167 20.5 -90.5 22.5c-10 -0.666992 -20.167 -2 -30.5 -4s-20.833 -4 -31.5 -6
c-6.66699 -2 -13.5 -4 -20.5 -6s-13.833 -4 -20.5 -6c-18.667 -6.66699 -37.334 -14.5 -56.001 -23.5s-37 -19.5 -55 -31.5h-40l20 75c8 4.66699 16.167 9 24.5 13s16.833 7.33301 25.5 10c8 3.33301 16 6.33301 24 9s16.333 5.33398 25 8.00098
c5.33301 1.33301 10.833 2.66602 16.5 3.99902s11.5 2.66602 17.5 3.99902s11.833 2.5 17.5 3.5s11.167 1.83301 16.5 2.5c6 0.666992 11.833 1.16699 17.5 1.5s11.167 0.833008 16.5 1.5c5.33301 0 10.833 0.166992 16.5 0.5s11.5 0.5 17.5 0.5h40
c59.333 0 109 -9.16699 149 -27.5s70.333 -46.166 91 -83.499c20.667 -36.667 32.834 -76.667 36.501 -120s-1.16602 -89.666 -14.499 -138.999c-12.667 -49.333 -32.834 -95.5 -60.501 -138.5s-62.5 -83.167 -104.5 -120.5c-42 -36.667 -87.5 -64 -136.5 -82
s-101.833 -27 -158.5 -27l-40 -1c-16.667 0.666992 -33.5 2 -50.5 4s-34.167 5 -51.5 9c-17.333 3.33301 -34.666 8.5 -51.999 15.5s-34.333 15.833 -51 26.5v0v0z" />
    <glyph glyph-name="asciitilde" unicode="&#xde;" horiz-adv-x="1094" 
d="M300 391l47.9971 0.000976562c1.33301 3.33301 2.66602 7 3.99902 11l4 12c0.666992 1.33301 1.33398 2.83301 2.00098 4.5s1.33398 3.16699 2.00098 4.5c0 0.666992 0.166992 1.16699 0.5 1.5s0.5 0.833008 0.5 1.5l2.5 5c1 2 2.16699 4 3.5 6
c16.667 35.333 39.167 69.166 67.5 101.499s61.833 63.166 100.5 92.499s81.167 51.5 127.5 66.5s96.166 22.5 149.499 22.5h40c51.333 0 96.833 -8.33301 136.5 -25s73.834 -41.667 102.501 -75s46.334 -72.5 53.001 -117.5s2.33398 -95.833 -12.999 -152.5
c-14.667 -56.667 -37.5 -107.5 -68.5 -152.5s-69.833 -84.167 -116.5 -117.5c-46.667 -32.667 -94.167 -57.167 -142.5 -73.5s-98.166 -24.5 -149.499 -24.5l-40 -1c-56 0.666992 -104 9.33398 -144 26.001s-72.333 42 -97 76s-40.334 72 -47.001 114s-4.66699 88 6 138h-47
l-89 -335h-40h-68l187 700h40h68l-83 -309v0zM447.997 350.001c-12.667 -48 -16.501 -91.167 -11.501 -129.5s18.833 -71.5 41.5 -99.5c21.333 -26 46 -46 74 -60s60.333 -22 97 -24c37.333 2 74.333 10 111 24s72.334 34 107.001 60c37.333 28 68.833 61.167 94.5 99.5
s44.834 81.5 57.501 129.5c13.333 48 17.333 91 12 129s-19 71.333 -41 100c-21.333 25.333 -46.333 45.166 -75 59.499s-61.334 22.5 -98.001 24.5c-36.667 -2 -73.167 -10.167 -109.5 -24.5s-71.833 -34.166 -106.5 -59.499c-38.667 -28.667 -70.5 -62 -95.5 -100
s-44.167 -81 -57.5 -129v0v0z" />
    <glyph glyph-name="asciitilde" unicode="&#x42e;" horiz-adv-x="1094" 
d="M300 391l47.9971 0.000976562c1.33301 3.33301 2.66602 7 3.99902 11l4 12c0.666992 1.33301 1.33398 2.83301 2.00098 4.5s1.33398 3.16699 2.00098 4.5c0 0.666992 0.166992 1.16699 0.5 1.5s0.5 0.833008 0.5 1.5l2.5 5c1 2 2.16699 4 3.5 6
c16.667 35.333 39.167 69.166 67.5 101.499s61.833 63.166 100.5 92.499s81.167 51.5 127.5 66.5s96.166 22.5 149.499 22.5h40c51.333 0 96.833 -8.33301 136.5 -25s73.834 -41.667 102.501 -75s46.334 -72.5 53.001 -117.5s2.33398 -95.833 -12.999 -152.5
c-14.667 -56.667 -37.5 -107.5 -68.5 -152.5s-69.833 -84.167 -116.5 -117.5c-46.667 -32.667 -94.167 -57.167 -142.5 -73.5s-98.166 -24.5 -149.499 -24.5l-40 -1c-56 0.666992 -104 9.33398 -144 26.001s-72.333 42 -97 76s-40.334 72 -47.001 114s-4.66699 88 6 138h-47
l-89 -335h-40h-68l187 700h40h68l-83 -309v0zM447.997 350.001c-12.667 -48 -16.501 -91.167 -11.501 -129.5s18.833 -71.5 41.5 -99.5c21.333 -26 46 -46 74 -60s60.333 -22 97 -24c37.333 2 74.333 10 111 24s72.334 34 107.001 60c37.333 28 68.833 61.167 94.5 99.5
s44.834 81.5 57.501 129.5c13.333 48 17.333 91 12 129s-19 71.333 -41 100c-21.333 25.333 -46.333 45.166 -75 59.499s-61.334 22.5 -98.001 24.5c-36.667 -2 -73.167 -10.167 -109.5 -24.5s-71.833 -34.166 -106.5 -59.499c-38.667 -28.667 -70.5 -62 -95.5 -100
s-44.167 -81 -57.5 -129v0v0z" />
    <glyph glyph-name="asciitilde" unicode="&#xdf;" horiz-adv-x="590" 
d="M70 0l272.999 311.002c-27.333 -0.666992 -52 3.16602 -74 11.499s-40.667 20.833 -56 37.5c-16 16.667 -26 36.5 -30 59.5s-2 49.5 6 79.5c1.33301 5.33301 3.16602 11.166 5.49902 17.499s4.83301 12.833 7.5 19.5c3.33301 7.33301 6.83301 14.5 10.5 21.5
s7.83398 13.833 12.501 20.5c10 15.333 22.833 30 38.5 44s33.834 27.333 54.501 40s45 22.167 73 28.5s59.333 9.5 94 9.5h40h164l-187 -700h-40h-68l82 308h-22l-267 -308h-40h-77v0v0zM490.999 364.002l74.999 280h-55c-4 0 -8.83301 -0.166992 -14.5 -0.5
s-12.167 -0.833008 -19.5 -1.5c-8.66699 -0.666992 -17.167 -1.66699 -25.5 -3s-16.833 -3.33301 -25.5 -6c-12.667 -4 -25.167 -9.33301 -37.5 -16s-24.5 -14.667 -36.5 -24c-12 -10 -22.167 -22.333 -30.5 -37s-15.166 -32 -20.499 -52
c-6 -22 -8.83301 -40.833 -8.5 -56.5s4.16602 -28.167 11.499 -37.5c7.33301 -10 15.833 -18 25.5 -24s19.834 -10.667 30.501 -14c6 -2 12 -3.66699 18 -5s12 -2 18 -2c6 -0.666992 11.833 -1 17.5 -1h15.5h62v0v0z" />
    <glyph glyph-name="asciitilde" unicode="&#x42f;" horiz-adv-x="590" 
d="M70 0l272.999 311.002c-27.333 -0.666992 -52 3.16602 -74 11.499s-40.667 20.833 -56 37.5c-16 16.667 -26 36.5 -30 59.5s-2 49.5 6 79.5c1.33301 5.33301 3.16602 11.166 5.49902 17.499s4.83301 12.833 7.5 19.5c3.33301 7.33301 6.83301 14.5 10.5 21.5
s7.83398 13.833 12.501 20.5c10 15.333 22.833 30 38.5 44s33.834 27.333 54.501 40s45 22.167 73 28.5s59.333 9.5 94 9.5h40h164l-187 -700h-40h-68l82 308h-22l-267 -308h-40h-77v0v0zM490.999 364.002l74.999 280h-55c-4 0 -8.83301 -0.166992 -14.5 -0.5
s-12.167 -0.833008 -19.5 -1.5c-8.66699 -0.666992 -17.167 -1.66699 -25.5 -3s-16.833 -3.33301 -25.5 -6c-12.667 -4 -25.167 -9.33301 -37.5 -16s-24.5 -14.667 -36.5 -24c-12 -10 -22.167 -22.333 -30.5 -37s-15.166 -32 -20.499 -52
c-6 -22 -8.83301 -40.833 -8.5 -56.5s4.16602 -28.167 11.499 -37.5c7.33301 -10 15.833 -18 25.5 -24s19.834 -10.667 30.501 -14c6 -2 12 -3.66699 18 -5s12 -2 18 -2c6 -0.666992 11.833 -1 17.5 -1h15.5h62v0v0z" />
    <glyph glyph-name="space" unicode="&#xe0;" horiz-adv-x="602" 
d="M541 408l7.00098 26h40h56l-116 -434h-40h-56l6 25c-5.33301 -4 -11 -7.66699 -17 -11s-12 -6.33301 -18 -9c-16.667 -6.66699 -33 -11.834 -49 -15.501s-31.667 -5.5 -47 -5.5l-40 -1c-29.333 0.666992 -55.833 5.66699 -79.5 15s-44.167 24 -61.5 44
c-18 20 -28.833 44.5 -32.5 73.5s-0.166992 62.833 10.5 101.5c8.66699 32.667 21.667 62.834 39 90.501s39.333 52.834 66 75.501c26.667 23.333 55.5 40.666 86.5 51.999s63.833 17 98.5 17h40c5.33301 0 10.5 -0.166992 15.5 -0.5s10.5 -1.16602 16.5 -2.49902
c5.33301 -0.666992 10.833 -1.83398 16.5 -3.50098s11.5 -3.5 17.5 -5.5c7.33301 -3.33301 14.166 -7.5 20.499 -12.5s12.5 -10.833 18.5 -17.5l0.5 -0.5l0.5 -0.5l0.5 -0.5l0.5 -0.5v0zM299.001 31c18.667 2 37.001 6.99707 55.001 14.9971s35.333 19 52 33
c20 16.667 37 36.5 51 59.5s25 49.167 33 78.5c6.66699 24.667 9.33398 47.834 8.00098 69.501s-6.66602 41.834 -15.999 60.501c-7.33301 16.667 -17.833 29.5 -31.5 38.5s-30.167 14.833 -49.5 17.5c-20.667 -2.66699 -40.334 -8.5 -59.001 -17.5
s-36.667 -21.167 -54 -36.5c-20 -18 -36.5 -38 -49.5 -60s-23.167 -46 -30.5 -72c-6.66699 -24.667 -9.33398 -47.667 -8.00098 -69s6.66602 -41.666 15.999 -60.999c7.33301 -16.667 18 -29.5 32 -38.5s31 -14.833 51 -17.5v0z" />
    </font>
</defs>
</svg>
