<?xml version="1.0" standalone="no"?>
<!DOCTYPE svg PUBLIC "-//W3C//DTD SVG 1.1//EN" "http://www.w3.org/Graphics/SVG/1.1/DTD/svg11.dtd" >
<svg xmlns="http://www.w3.org/2000/svg" xmlns:xlink="http://www.w3.org/1999/xlink" version="1.1">
<metadata>
Created by FontForge 20161116 at Fri Jan  1 01:00:00 1904
 By Jimmy Warting
Copyright 1991, Atech Software, Carlsbad CA 
</metadata>
<defs>
<font id="Peterburg-Bold" horiz-adv-x="561" >
  <font-face 
    font-family="Peterburg"
    font-weight="700"
    font-stretch="normal"
    units-per-em="1000"
    panose-1="0 0 0 0 0 0 0 0 0 0"
    ascent="800"
    descent="-200"
    x-height="470"
    cap-height="707.999"
    bbox="-12.999 -232.003 1468 949.006"
    underline-thickness="50"
    underline-position="-55"
    unicode-range="U+0020-2219"
  />
<missing-glyph 
d="M258 0l-236 0.000976562v33h27c13.333 0 21.5 2 24.5 6s4.5 8.33301 4.5 13v4.5v4.5v347v4.5v4.5c0 5.33301 -1.5 10 -4.5 14s-11.167 6 -24.5 6h-27v33h10h224v-33h-16h-0.5h-0.5c-8 0 -14.667 -1.16699 -20 -3.5s-8 -10.833 -8 -25.5v-347
c0 -12.667 2.16699 -20.5 6.5 -23.5s10.166 -4.5 17.499 -4.5h86h0.5h1.5c8 0 14.5 1.16699 19.5 3.5s7.5 10.5 7.5 24.5v347c0 14.667 -2.66699 23.167 -8 25.5s-12 3.5 -20 3.5h-0.5h-0.5h-16v33h10h224v-33h-27c-13.333 0 -21.5 -2.16699 -24.5 -6.5
s-4.5 -9.16602 -4.5 -14.499v-2v-2v-2v-2v-347v-2.5v-2.5v-2.5v-2.5c0 -4.66699 1.66699 -8.83398 5 -12.501s11.333 -5.5 24 -5.5h27v-33h-235l22 -130c-6.66699 -2.66699 -13.167 -4.83398 -19.5 -6.50098s-13.166 -2.5 -20.499 -2.5l-10 -1
c-6.66699 0.664062 -13.167 1.83105 -19.5 3.5c-6.33398 1.66699 -13.167 4.16699 -20.5 7.5l22 129v0z" />
    <glyph glyph-name=".notdef" 
d="M258 0l-236 0.000976562v33h27c13.333 0 21.5 2 24.5 6s4.5 8.33301 4.5 13v4.5v4.5v347v4.5v4.5c0 5.33301 -1.5 10 -4.5 14s-11.167 6 -24.5 6h-27v33h10h224v-33h-16h-0.5h-0.5c-8 0 -14.667 -1.16699 -20 -3.5s-8 -10.833 -8 -25.5v-347
c0 -12.667 2.16699 -20.5 6.5 -23.5s10.166 -4.5 17.499 -4.5h86h0.5h1.5c8 0 14.5 1.16699 19.5 3.5s7.5 10.5 7.5 24.5v347c0 14.667 -2.66699 23.167 -8 25.5s-12 3.5 -20 3.5h-0.5h-0.5h-16v33h10h224v-33h-27c-13.333 0 -21.5 -2.16699 -24.5 -6.5
s-4.5 -9.16602 -4.5 -14.499v-2v-2v-2v-2v-347v-2.5v-2.5v-2.5v-2.5c0 -4.66699 1.66699 -8.83398 5 -12.501s11.333 -5.5 24 -5.5h27v-33h-235l22 -130c-6.66699 -2.66699 -13.167 -4.83398 -19.5 -6.50098s-13.166 -2.5 -20.499 -2.5l-10 -1
c-6.66699 0.664062 -13.167 1.83105 -19.5 3.5c-6.33398 1.66699 -13.167 4.16699 -20.5 7.5l22 129v0z" />
    <glyph glyph-name="space" unicode=" " horiz-adv-x="361" 
 />
    <glyph glyph-name="exclam" unicode="!" horiz-adv-x="363" 
d="M98 64c0 20.667 5.83301 37.3311 17.5 49.998s24.5 21.334 38.5 26.001c4 0.667969 7.83301 1.33496 11.5 2.00098c3.66699 0.666992 7.16699 1 10.5 1h10c20.667 0 39 -7.66699 55 -23s24 -34 24 -56c0 -21.333 -7.83301 -39.5 -23.5 -54.5s-34.167 -22.5 -55.5 -22.5
l-10 -1c-22 0.666992 -40.5 8.16699 -55.5 22.5s-22.5 32.833 -22.5 55.5v0zM198 167.997l-42.998 0.000976562c-1.33789 17.333 -2.1709 30.5 -2.5 39.5c-0.333008 9 -0.5 16.5 -0.5 22.5c0 1.33301 -0.166992 2.5 -0.5 3.5s-0.5 2.16699 -0.5 3.5v2.5v2.5
c0 14.667 -0.5 28.667 -1.5 42s-1.83301 25 -2.5 35c-0.666992 8 -1.33398 14.833 -2.00098 20.5s-1.33398 10.167 -2.00098 13.5c-1.33398 12.667 -4.16699 33.5 -8.5 62.5s-9.16602 59.5 -14.499 91.5c-0.666992 5.33301 -1.5 10.5 -2.5 15.5s-1.83301 9.83301 -2.5 14.5
c-2 14 -4.16699 27.333 -6.5 40s-4.5 24.667 -6.5 36c-0.666992 2.66699 -1.16699 5.16699 -1.5 7.5s-0.833008 4.83301 -1.5 7.5v6.5v7.5c0 4 0.166992 9.33301 0.5 16s1.83301 13.667 4.5 21c3.33301 10.667 10.333 20.5 21 29.5s27.667 13.5 51 13.5h10
c26 0 45.5 -7 58.5 -21s19.5 -33.667 19.5 -59v-5c0 -1.35254 -0.333008 -2.68555 -1 -4c0 -2 -0.166992 -3.66699 -0.5 -5s-0.5 -3 -0.5 -5v-2.5v-2.5c-0.666992 -0.666992 -1 -1.33398 -1 -2.00098v-3c-24.667 -138.667 -39.334 -236.5 -44.001 -293.5
s-7 -94.167 -7 -111.5c0 -4 -0.166992 -7.5 -0.5 -10.5s-0.5 -5.83301 -0.5 -8.5v0v-1c0 -2.66699 -0.166992 -5.66699 -0.5 -9s-0.5 -7 -0.5 -11h-10v0z" />
    <glyph glyph-name="quotedbl" unicode="&#x22;" horiz-adv-x="450" 
d="M203 700l-42 -218h-10h-39l-42 218h10h123v0zM380 700l-43 -218h-10h-38l-43 218h10h124v0z" />
    <glyph glyph-name="numbersign" unicode="#" horiz-adv-x="744" 
d="M468 0h-79l31 172h-159l-30 -172h-10h-80l31 172h-158l16 86h157l33 184h-157l15 86h157l31 172h10h80l-31 -172h158l31 172h10h79l-30 -172h157l-15 -86h-158l-33 -184h158l-16 -86h-157l-31 -172h-10v0zM435 258l33 184h-159l-32 -184h158v0z" />
    <glyph glyph-name="dollar" unicode="$" horiz-adv-x="632" 
d="M552 524l-46.999 0.00292969v10c0 8 -2.83301 17.333 -8.5 28s-13.167 21.667 -22.5 33c-14.667 16.6689 -32.5 32.3359 -53.5 47c-21 14.6719 -43.167 25.3389 -66.5 32.001v-213l126 -66c6.66699 -3.33301 14.667 -8 24 -14s19 -13.333 29 -22
c18 -16 34.333 -36.333 49 -61s22 -54.334 22 -89.001c0 -61.333 -24.5 -113 -73.5 -155s-107.833 -64 -176.5 -66v-68h-10h-46v66c-36.667 2 -70.334 7 -101.001 15s-57.667 17 -81 27v-28h-10h-47l-17 196h10h44c1.33301 -44.667 22.666 -82 63.999 -112
s87.333 -47.667 138 -53v262l-112 59c-39.333 21.333 -69.666 45.666 -90.999 72.999s-32 61 -32 101c0 55.333 17.167 97.5 51.5 126.5s71.833 48.5 112.5 58.5c12 3.33301 24 5.66602 36 6.99902s23.667 2.33301 35 3v67h10h46v-66
c8 -0.666992 15.833 -1.33398 23.5 -2.00098s15.167 -1.66699 22.5 -3c16.667 -2.66699 33.5 -6.5 50.5 -11.5s35.167 -11.167 54.5 -18.5v21h10h47v-184h-10v0zM354.001 264.003v-229.998c26 5.33301 49 17.666 69 36.999s30 43.666 30 72.999
c0 23.333 -5.33301 42.333 -16 57c-10.668 14.667 -22.335 26.667 -35 36c-6.66699 4 -13 7.66699 -19 11s-11.333 6.33301 -16 9l-13 7v0zM298.001 490.005v188c-22 -2.66699 -42 -11.667 -60 -27s-27 -37 -27 -65c0 -22.667 5.66699 -39.667 17 -51s25.333 -21.333 42 -30
c3.33301 -2 6.5 -3.66699 9.5 -5s6.16699 -3 9.5 -5l9 -5v0z" />
    <glyph glyph-name="percent" unicode="%" horiz-adv-x="1101" 
d="M881 807l34 -21l-712 -1016h-10l-33 25l711 1012h10v0zM576 66c0 65.333 19.168 117.999 57.501 157.999s87.166 60 146.499 60h10c62 0 111.667 -20 149 -60s56 -92.667 56 -158c0 -72 -20 -125.333 -60 -160s-83.667 -53.667 -131 -57h-7.5h-6.5l-10 -1
c-60 0.666992 -109 21.334 -147 62.001s-57 92.667 -57 156v0zM715.001 65.999c0 -58.667 5.33301 -102.669 16 -132.002s28.667 -45 54 -47c26 2 44.333 17.833 55 47.5s16 73.5 16 131.5c0 58.667 -5.5 102.834 -16.5 132.501s-29.167 45.5 -54.5 47.5
c-25.333 -2 -43.333 -17.667 -54 -47s-16 -73.666 -16 -132.999v0zM106.001 514.997c0 65.333 18.832 118 56.499 158s86.834 60 147.501 60h10c60.667 0 109.834 -20 147.501 -60s56.5 -92.667 56.5 -158c0 -58 -17.333 -108.833 -52 -152.5s-85.334 -65.5 -152 -65.5h-10
c-66.667 0 -117.334 21.833 -152.001 65.5s-52 94.5 -52 152.5v0zM245 514.997c0 -70.667 6.33301 -117.999 19 -141.999s29.667 -36.667 51 -38c21.333 1.33301 38.333 13.833 51 37.5s19 71.167 19 142.5s-6.33301 118.833 -19 142.5s-29.667 36.167 -51 37.5
c-20.667 -0.666992 -37.5 -12.834 -50.5 -36.501s-19.5 -71.5 -19.5 -143.5v0z" />
    <glyph glyph-name="ampersand" unicode="&#x26;" horiz-adv-x="840" 
d="M554 268l0.000976562 41.9951h10h233v-42h-42c-18 0 -31 -3 -39 -9s-15 -15 -21 -27c-0.666992 -2 -1.5 -4 -2.5 -6s-1.83301 -4 -2.5 -6c-7.33301 -18 -17 -35.667 -29 -53s-24.667 -33 -38 -47c-3.33301 -4 -6.83301 -8 -10.5 -12s-7.16699 -7.66699 -10.5 -11
c2 -2.66699 4.33301 -5.66699 7 -9s5.66699 -7 9 -11c7.33301 -7.33301 16 -14.166 26 -20.499s21 -10.166 33 -11.499c10 0.666992 19 2.83398 27 6.50098s15 7.83398 21 12.501c3.33301 2.66699 6.33301 5.16699 9 7.5s4.66699 4.5 6 6.5h10l27 -39
c-2.66699 -2 -5.33398 -3.83301 -8.00098 -5.5s-5.33398 -3.5 -8.00098 -5.5c-20.667 -14 -41.834 -24.333 -63.501 -31s-46.167 -10 -73.5 -10l-10 -1c-11.333 0.666992 -23.833 2.33398 -37.5 5.00098s-27.834 7.33398 -42.501 14.001
c-6.66699 3.33301 -13.334 7.16602 -20.001 11.499s-13 9.5 -19 15.5c-16 -11.333 -31.667 -20 -47 -26s-30.333 -10.667 -45 -14c-9.33301 -2 -18.666 -3.33301 -27.999 -4s-18.666 -1 -27.999 -1l-10 -1c-83.333 0.666992 -147.5 19 -192.5 55s-67.5 80.333 -67.5 133
c0 49.333 18.833 91 56.5 125s83.834 63.333 138.501 88c-13.333 27.333 -22.333 50.333 -27 69s-7 36 -7 52c0 48.667 16 84.667 48 108s69 35 111 35h10c43.333 0 77.333 -9.83301 102 -29.5s37 -45.167 37 -76.5c0 -28 -9.66699 -55.333 -29 -82
s-51.666 -49.667 -96.999 -69l158 -257c20 22 34 41.833 42 59.5s12 31.5 12 41.5c0 10.667 -3.16699 18 -9.5 22c-6.33789 4 -13.1709 6.33301 -20.5 7c-3.33301 0.666992 -6.5 1 -9.5 1h-8.5h-1.5h-0.5h-28v0zM466.001 68.9951l-166.999 268.996
c-8 -7.33301 -15.333 -14.666 -22 -21.999c-6.66797 -7.33301 -12.335 -14.666 -17.001 -21.999c-9.33301 -14 -15.833 -28.333 -19.5 -43s-5.5 -29.667 -5.5 -45c0 -9.33301 0.833008 -19.5 2.5 -30.5s4.5 -22.5 8.5 -34.5c8 -24 21.833 -46.333 41.5 -67
s47.167 -31.667 82.5 -33c16.667 0.666992 33.167 3.33398 49.5 8.00098s31.833 11.334 46.5 20.001v0zM399.002 429.991c16 8.66699 29.167 18.667 39.5 30c10.335 11.335 18.168 22.668 23.5 33.999c4.66699 9.33496 8 18.335 10 27c2 8.66699 3 16.667 3 24
c0 16.667 -4.16699 30.167 -12.5 40.5s-17.5 17.166 -27.5 20.499c-2 0.685547 -3.83301 1.35254 -5.5 2.00098c-1.66699 0.666992 -3.5 1 -5.5 1c-14.668 -2 -27.835 -10 -39.5 -24c-11.667 -14 -17.5 -32.667 -17.5 -56c0 -14 2.33301 -29.167 7 -45.5
s13 -34.166 25 -53.499v0z" />
    <glyph glyph-name="quotesingle" unicode="'" horiz-adv-x="273" 
d="M203 700l-42 -218h-10h-39l-42 218h10h123v0z" />
    <glyph glyph-name="parenleft" unicode="(" horiz-adv-x="483" 
d="M405 -200l-20 -24.002h-10c-86 56.667 -157 126.167 -213 208.5s-84 171.5 -84 267.5s28 185.333 84 268s127 152 213 208h10l20 -24c-58.667 -52 -99.667 -116.667 -123 -194s-35 -162.666 -35 -255.999c0 -95.333 11.667 -181.666 35 -258.999s64.333 -142 123 -194v-1
z" />
    <glyph glyph-name="parenright" unicode=")" horiz-adv-x="483" 
d="M78 704l20 24.0049h10c87.333 -54.667 158.666 -123.834 213.999 -207.501s83 -173.167 83 -268.5c0 -94.667 -27.667 -183.834 -83 -267.501s-126.666 -152.834 -213.999 -207.501l-10 -1l-20 24c40.667 34.667 72 76 94 124s38 97.333 48 148
c6.66699 31.333 11.167 62.666 13.5 93.999s3.5 60.666 3.5 87.999c0 28 -1.33301 58.333 -4 91s-7.66699 65.667 -15 99c-10 48.667 -26 96 -48 142s-52.667 85.333 -92 118v0z" />
    <glyph glyph-name="asterisk" unicode="*" horiz-adv-x="589" 
d="M274 563l-50.001 135c6 5.33301 13.5 10.166 22.5 14.499s18.5 7.16602 28.5 8.49902c2 0.666992 3.83301 1 5.5 1h5.5h10h3h4c4 0 8 -0.333008 12 -1s8.33301 -1.66699 13 -3c6.66699 -1.33301 13.167 -3.83301 19.5 -7.5
c6.33496 -3.66699 12.168 -7.83398 17.5 -12.501l-50 -135v0h1v-0.5v-0.5l89 107h10c10.667 -3.33301 19.334 -7.33301 26.001 -12s13 -10.667 19 -18c2 -2 3.66699 -4.16699 5 -6.5s3 -4.83301 5 -7.5c0.666992 -0.666992 1.16699 -1.33398 1.5 -2.00098
s0.5 -1.33398 0.5 -2.00098c1.33301 -2.66699 2.5 -5.16699 3.5 -7.5s2.16699 -4.83301 3.5 -7.5c1.33301 -3.35156 2.33301 -6.68457 3 -10c0.666992 -3.33301 1 -6.33301 1 -9v-1.5v-1.5c0 -2.66699 -0.166992 -5.5 -0.5 -8.5s-0.5 -5.83301 -0.5 -8.5
s-0.166992 -5 -0.5 -7l-0.5 -3l-143 -25c-0.666992 -1.33301 -1 -2.83301 -1 -4.5s0.333008 -3.16699 1 -4.5l143 -24c0 -0.681641 0.166992 -1.84863 0.5 -3.5c0.333008 -1.67383 0.5 -3.84082 0.5 -6.5c0 -3.33301 0.166992 -6.66602 0.5 -9.99902
s0.5 -6.66602 0.5 -9.99902c0 -2.66699 -0.333008 -5.66699 -1 -9s-1.66699 -6.66602 -3 -9.99902c-1.33301 -2.66699 -2.5 -5.16699 -3.5 -7.5s-2.16699 -4.83301 -3.5 -7.5c0 -0.669922 -0.166992 -1.33691 -0.5 -2c-0.333008 -0.666992 -0.833008 -1.33398 -1.5 -2
c-6.66699 -12.667 -14.5 -22.167 -23.5 -28.5s-19.5 -11.5 -31.5 -15.5h-10l-89 107v-0.5v-0.5h-1v0l50 -135c-2 -2 -4.16699 -3.83301 -6.5 -5.5s-4.5 -3.16699 -6.5 -4.5c-7.33301 -5.33301 -15 -9 -23 -11s-18 -3.33301 -30 -4h-10
c-10 0.666992 -18.667 1.83398 -26 3.50098s-14.333 4.5 -21 8.5c-2.66699 2 -5.5 4 -8.5 6s-6.16699 4.33301 -9.5 7l50 135v0v0c-0.666992 0 -1 0.166992 -1 0.5v0.5l-89 -107h-10c-12 4 -22.5 9.16699 -31.5 15.5s-16.833 15.833 -23.5 28.5
c-0.666992 0.666992 -1.16699 1.33398 -1.5 2.00098s-0.5 1.33398 -0.5 2.00098c-1.33301 2.66699 -2.5 5.16699 -3.5 7.5s-2.16699 4.83301 -3.5 7.5c-1.33301 3.33984 -2.33301 6.67285 -3 9.99902c-0.666992 3.33301 -1 6.33301 -1 9c0 3.33691 0.166992 6.66992 0.5 10
c0.333008 3.33496 0.5 6.66797 0.5 9.99902c0 2.66699 0.166992 4.83398 0.5 6.50098s0.5 2.83398 0.5 3.50098l143 24c0.666992 1.33301 1 2.83301 1 4.5s-0.333008 3.16699 -1 4.5l-143 25l-0.5 3c-0.333008 2 -0.5 4.33301 -0.5 7s-0.166992 5.5 -0.5 8.5
s-0.5 5.83301 -0.5 8.5v1.5v1.5c0 2.66699 0.333008 5.66699 1 9s1.66699 6.66602 3 9.99902c1.33301 2.66699 2.5 5.16699 3.5 7.5s2.16699 4.83301 3.5 7.5c0 0.675781 0.166992 1.34277 0.5 2c0.333008 0.667969 0.833008 1.33496 1.5 2c2 2.66699 3.66699 5.16699 5 7.5
s3 4.5 5 6.5c6 7.33301 12.333 13.333 19 18s15.334 8.66699 26 12h10l89 -107v0.5c0 0.333008 0.333008 0.5 1 0.5v0v0v0z" />
    <glyph glyph-name="plus" unicode="+" horiz-adv-x="780" 
d="M84 310v84h259v259h10h84v-259h259v-84h-259v-259h-10h-84v259h-259v0z" />
    <glyph glyph-name="comma" unicode="," horiz-adv-x="366" 
d="M127 -182l-24.999 28.002c3.33398 4 7.16699 8.33301 11.5 13c4.33301 4.66602 8.83301 9.33301 13.5 14c5.33301 6.66699 10.666 13.667 15.999 21s10 14.666 14 21.999c3.33301 5.33301 5.83301 10.666 7.5 15.999c1.66895 5.33301 2.83594 10.666 3.5 15.999v2.5v2.5
v2.5v2.5c-0.666992 2 -1.16699 4 -1.5 6c-0.338867 2 -1.17188 3.66699 -2.5 5c-3.33398 4.66699 -7.16699 8.33398 -11.5 11.001c-4.33398 2.66699 -9.16699 5 -14.5 7c0 0.666992 -0.333008 1.16699 -1 1.5s-1.33398 0.5 -2.00098 0.5
c-9.33301 4.66699 -17.833 10.667 -25.5 18s-11.5 21.333 -11.5 42c0 23.333 8 42 24 56s34.667 21 56 21h10c23.333 0 42.5 -8.5 57.5 -25.5s22.5 -39.167 22.5 -66.5c0 -10 -1 -19.833 -3 -29.5s-5 -19.5 -9 -29.5c-10 -28 -25.333 -55.167 -46 -81.5
s-42.334 -48.833 -65.001 -67.5c-1.33398 -1.33301 -2.66699 -2.5 -3.99902 -3.5c-1.33398 -1 -2.66699 -2.16699 -3.99902 -3.5l-10 -1v0z" />
    <glyph glyph-name="hyphen" unicode="-" horiz-adv-x="372" 
d="M42 206v84h10h278v-84h-10h-278v0z" />
    <glyph glyph-name="period" unicode="." horiz-adv-x="363" 
d="M98 64c0 22 8.00098 40.667 24.001 56s34.333 23 55 23h10c20.667 0 38.834 -7.66699 54.5 -23c15.667 -15.333 23.5 -34 23.5 -56c0 -3.33301 -0.333008 -6.83301 -1 -10.5c-0.670898 -3.66699 -1.33789 -7.5 -2.00098 -11.5c-4.66699 -14 -13.167 -26.667 -25.5 -38
s-28.833 -17 -49.5 -17l-10 -1c-21.333 0.666992 -39.833 8.5 -55.5 23.5s-23.5 33.167 -23.5 54.5v0z" />
    <glyph glyph-name="slash" unicode="/" horiz-adv-x="774" 
d="M632 728l36 -17l-516 -918h-10l-36 21l516 914h10v0z" />
    <glyph glyph-name="zero" unicode="0" horiz-adv-x="537" 
d="M41 357c0 100.667 18.5 181.168 55.5 241.501s77.5 98.5 121.5 114.5c8 3.33301 16 5.66602 24 6.99902s15.667 2 23 2h10c64 0 117.333 -36.5 160 -109.5s64 -158.167 64 -255.5s-21.5 -182.5 -64.5 -255.5s-96.167 -109.5 -159.5 -109.5l-10 -1
c-63.333 0.666992 -116.5 37.167 -159.5 109.5s-64.5 157.833 -64.5 256.5v0zM200 357.001l-0.000976562 -6v-6c0 -16.667 0.166992 -37.334 0.5 -62.001s1.5 -50.334 3.5 -77.001c3.33301 -41.333 9.83301 -79.666 19.5 -114.999s25.167 -54.666 46.5 -57.999
c23.334 3.33301 39.667 25.5 49 66.5s15.333 85.833 18 134.5c1.34375 22 2.17676 43.5 2.5 64.5c0.333008 21 0.5 40.5 0.5 58.5c0 17.333 -0.166992 36.333 -0.5 57s-1.16602 41.667 -2.49902 63c-2 48.667 -7.83301 93.834 -17.5 135.5
c-9.66699 41.667 -26.167 64.167 -49.5 67.5c-22 -3.33301 -37.833 -23.5 -47.5 -60.5s-16.167 -77.5 -19.5 -121.5c-1.33984 -26 -2.17285 -51 -2.5 -75c-0.333008 -24 -0.5 -44.667 -0.5 -62v-2v-2v0z" />
    <glyph glyph-name="one" unicode="1" horiz-adv-x="536" 
d="M201 81v399c-19.333 -14 -35.166 -25 -47.499 -33s-23.833 -15 -34.5 -21h-10l-22 28c22 21.333 43.667 43.333 65 66c21.333 22.6689 41.666 45.3359 60.999 68c18.667 23.333 36 46.333 52 69c16 22.668 29.667 44.335 41 65h10h35v-641
c0 -19.333 3.33301 -30.666 10 -33.999s15 -5 25 -5h1.5h1.5h46v-42h-10h-308v42h46h1.5h1.5c10 0 18.333 1.66699 25 5s10 14.666 10 33.999v0z" />
    <glyph glyph-name="two" unicode="2" horiz-adv-x="536" 
d="M433 165l40 -0.000976562l-23 -165h-10h-412v44c37.333 35.333 72.166 68.5 104.499 99.5s61.166 61.5 86.499 91.5c32 38.667 57.167 77.834 75.5 117.501s27.5 83.834 27.5 132.501c0 70 -8 119.5 -24 148.5s-33.667 45.833 -53 50.5
c-1.33496 0 -2.66797 0.166992 -3.99902 0.5c-1.33496 0.333008 -2.66797 0.5 -3.99902 0.5c-6.66699 -0.666992 -12.167 -3.5 -16.5 -8.5c-4.33496 -5 -7.16797 -10.167 -8.5 -15.5c-0.666992 -1.33301 -1.16699 -2.5 -1.5 -3.5s-0.5 -2.16699 -0.5 -3.5
c-0.666992 -1.33301 -1 -2.83301 -1 -4.5v-5.5v-2c0 -0.666992 0.333008 -1.33398 1 -2.00098v-2v-2c0.667969 -3.33301 1.33496 -6.33301 2 -9c0.667969 -2.66699 1.33496 -5 2 -7c0.666992 -1.33301 1 -2.33301 1 -3s0.333008 -1.66699 1 -3s1.16699 -3 1.5 -5
s0.833008 -4 1.5 -6s1.16699 -4.16699 1.5 -6.5s0.5 -4.5 0.5 -6.5v-6.5v-6.5v-4.5c0 -1.66699 -0.333008 -3.5 -1 -5.5c-2.66699 -14.667 -10.5 -28 -23.5 -40s-30.5 -18 -52.5 -18h-10c-22.667 0.00390625 -40.334 6.83691 -53.001 20.5
c-12.667 13.667 -20.334 28.5 -23.001 44.5c-0.666992 2 -1 4 -1 6v6c0 6.66699 0.666992 13.5 2 20.5s3.33301 13.833 6 20.5c9.33301 24 28.833 45.833 58.5 65.5s73.5 29.5 131.5 29.5h10c58.667 0 104.834 -14.833 138.501 -44.5s56.834 -62.167 69.501 -97.5
c4.66699 -12 8 -24 10 -36s3 -23.333 3 -34c0 -68 -26.5 -130.5 -79.5 -187.5s-111.167 -111.167 -174.5 -162.5c-12.667 -10 -25 -19.833 -37 -29.5s-24 -19.5 -36 -29.5h168c19.333 0 35.5 1.16699 48.5 3.5c13 2.33398 25.5 8.16699 37.5 17.5l2 2l2 2l6 39h10v0z" />
    <glyph glyph-name="three" unicode="3" horiz-adv-x="536" 
d="M137 364l0.000976562 63h10c10.667 -4 21.334 -7 32 -9c10.667 -2 21.667 -3 33 -3c32 0.666992 55.333 9 70 25s24.667 33.333 30 52c3.33301 10 5.33301 20 6 30s1 18.667 1 26c0 52 -7.83301 87.667 -23.5 107s-33.834 29.666 -54.5 30.999
c-12.667 -0.666992 -21.667 -6.16699 -27 -16.5s-8 -22.833 -8 -37.5c0 -3.33301 0.166992 -5.83301 0.5 -7.5s0.5 -2.83398 0.5 -3.50098c0.666992 -1.33301 1.16699 -2.83301 1.5 -4.5l1.5 -7.5c0 -1.35156 0.166992 -2.68457 0.5 -3.99902
c0.333008 -1.35156 0.5 -2.68457 0.5 -3.99902v-5v-4c0 -20.667 -6.83301 -37.167 -20.5 -49.5s-28.834 -18.833 -45.501 -19.5h-1.5h-1.5h-10c-20.667 0 -39.167 6.5 -55.5 19.5s-24.5 32.833 -24.5 59.5c0 4.67578 0.333008 9.34277 1 14
c0.666992 4.67578 1.66699 9.34277 3 14c7.33301 23.333 25.333 44.5 54 63.5s72.334 28.5 131.001 28.5h10c66 0 116.833 -13.167 152.5 -39.5c35.667 -26.335 58.5 -55.168 68.5 -86.5c2.66699 -6.66699 4.5 -13.334 5.5 -20.001s1.5 -13.334 1.5 -20.001
c0 -4 -0.166992 -8 -0.5 -12s-0.833008 -8 -1.5 -12c-4.66699 -33.333 -20.167 -64.166 -46.5 -92.499s-63.166 -44.166 -110.499 -47.499l1 -4c48 -6 88.167 -26 120.5 -60s48.5 -78.667 48.5 -134c0 -72 -25.167 -124.5 -75.5 -157.5s-106.5 -49.5 -168.5 -49.5l-10 -1
c-56 0.666992 -100 10 -132 28s-54 38 -66 60c-3.33301 6.66699 -5.83301 13.334 -7.5 20.001s-2.5 13 -2.5 19c0 23.333 6 44.333 18 63s31.333 28 58 28h10c22 0 39.667 -6.16699 53 -18.5s22 -25.833 26 -40.5c0.666992 -3.33301 1.16699 -6.33301 1.5 -9
s0.5 -5.33398 0.5 -8.00098s-0.166992 -5.5 -0.5 -8.5s-0.5 -5.83301 -0.5 -8.5c-0.666992 -3.33301 -1.33398 -6.33301 -2.00098 -9s-1.66699 -5.66699 -3 -9c-0.666992 -2.66699 -1.5 -5.33398 -2.5 -8c-1 -2.66699 -1.83301 -5 -2.5 -7
c-0.666992 -2.66699 -1.16699 -5.33398 -1.5 -8.00098s-0.5 -5.33398 -0.5 -8.00098c0 -1.33301 0.166992 -2.83301 0.5 -4.5s0.833008 -3.16699 1.5 -4.5c2.66699 -7.33301 8.5 -14.166 17.5 -20.499s19.833 -9.83301 32.5 -10.5c26 1.33301 45.833 11.5 59.5 30.5
s23.5 39.5 29.5 61.5c2.66699 12.667 4.66699 24.834 6 36.501s2 21.834 2 30.501c0 63.333 -8.83301 108.833 -26.5 136.5s-37.167 45.167 -58.5 52.5c-6 2.66699 -12 4.5 -18 5.5s-11.667 1.5 -17 1.5c-4 0 -8.66699 -0.5 -14 -1.5c-5.33398 -1 -10.667 -2.16699 -16 -3.5
c-2 0 -4.16699 -0.333008 -6.5 -1c-2.33301 -0.669922 -4.5 -1.33691 -6.5 -2.00098c-4 -0.666992 -7.83301 -1.5 -11.5 -2.5s-6.83398 -1.83301 -9.50098 -2.5h-10v0z" />
    <glyph glyph-name="four" unicode="4" horiz-adv-x="537" 
d="M265 139l-238 -0.00292969v49c36.667 56.667 66.5 106.167 89.5 148.5c23 42.334 43.167 83.167 60.5 122.5c5.33301 12 10.333 23.833 15 35.5s9.66699 23.5 15 35.5c4 10.667 8 21.5 12 32.5s8.33301 22.167 13 33.5c6 16.667 11 30.167 15 40.5
s7.66699 20.166 11 29.499c0.666992 0.6875 1 1.35449 1 2.00098c0 0.6875 0.333008 1.35449 1 2.00098c2.66699 7.33301 5.66699 15 9 23s7.33301 17.667 12 29h10l136 -56c-8.66699 -14 -17.667 -28.167 -27 -42.5s-19 -28.833 -29 -43.5
c-10 -14 -19.833 -28.167 -29.5 -42.5s-19.5 -28.166 -29.5 -41.499c-24 -32.667 -47.333 -64 -70 -94s-43.667 -57.333 -63 -82c-8 -10 -15.167 -19.167 -21.5 -27.5s-12.833 -16.5 -19.5 -24.5c-2 -3.33301 -4.16699 -6.66602 -6.5 -9.99902
c-2.33398 -3.33301 -4.83398 -6.33301 -7.5 -9c-6.66699 -10 -13.5 -20.333 -20.5 -31s-14.5 -23 -22.5 -37h184v177l140 146h10v-323h54v-42h-54v-58c0 -19.333 3.33301 -30.666 10 -33.999s15 -5 25 -5h1.5h1.5h46v-42h-10h-308v42h45h1.5h1.5c10 0 18.5 1.66699 25.5 5
s10.5 14.666 10.5 33.999v58v0z" />
    <glyph glyph-name="five" unicode="5" horiz-adv-x="537" 
d="M414 750l35.9971 -0.00195312l-12 -142h-283l-7 -122c102 -6 184 -29.333 246 -70s93 -105.667 93 -195c0 -66.667 -22.167 -122.334 -66.5 -167.001s-101.5 -67 -171.5 -67l-10 -1c-56 0.666992 -104 12.334 -144 35.001s-60 52 -60 88c0 26 5.5 49.167 16.5 69.5
s30.167 30.5 57.5 30.5h10c22.667 0 40.5 -6 53.5 -18s21.5 -25 25.5 -39c0.666992 -3.33301 1.16699 -6.5 1.5 -9.5s0.5 -5.83301 0.5 -8.5c0 -4.66699 -0.666992 -9.16699 -2 -13.5c-1.33398 -4.33301 -2.66699 -8.83301 -4 -13.5c-0.666992 -2 -1.5 -3.83301 -2.5 -5.5
s-1.83301 -3.5 -2.5 -5.5c-1.33496 -2.66699 -2.66797 -5.66699 -4 -9c-1.33301 -3.33301 -2 -6.66602 -2 -9.99902c0 -13.333 2.83301 -25.333 8.5 -36s15.834 -16.667 30.5 -18c5.33301 0.666992 11.333 2.16699 18 4.5c6.66797 2.33301 13.335 5.83301 20.001 10.5
c14.667 10.667 28.334 29.334 41.001 56.001s19 65 19 115c0 68 -12.167 119.167 -36.5 153.5s-51.166 57.5 -80.499 69.5c-10.667 4 -21.334 7 -32.001 9s-20.667 3 -30 3h-49l22 264h147c63.333 0 102.833 4.33301 118.5 13c15.667 8.67188 23.834 18.3389 24.501 29h10v0
z" />
    <glyph glyph-name="six" unicode="6" horiz-adv-x="536" 
d="M210 426c12 3.33301 24.166 5.83398 36.499 7.50098s25.5 2.5 39.5 2.5h10c65.333 0 115.166 -21 149.499 -63s51.5 -91 51.5 -147c0 -66.667 -19.167 -123.167 -57.5 -169.5s-85.166 -69.5 -140.499 -69.5l-10 -1c-66.667 0.666992 -124.5 27.667 -173.5 81
s-73.5 143.666 -73.5 270.999c0 15.333 0.833008 31.333 2.5 48s4.16699 33 7.5 49c14.667 72 45 137.833 91 197.5s108 89.5 186 89.5h10c41.334 0 73.167 -8.5 95.5 -25.5s36.5 -35.833 42.5 -56.5c0.666992 -4 1.33398 -7.83301 2.00098 -11.5s1 -7.5 1 -11.5
c0 -24.667 -6.83301 -44 -20.5 -58c-13.668 -14 -28.835 -21 -45.501 -21h-10c-20.667 0 -39.334 5.83301 -56 17.5c-16.667 11.6689 -25 27.8359 -25 48.5v6c0 2 0.333008 4.33301 1 7c0 2 0.166992 4 0.5 6s0.833008 4 1.5 6c0.666992 1.33301 1.16699 2.5 1.5 3.5
s0.5 2.16699 0.5 3.5c1.33301 2.66699 2.33301 5.16699 3 7.5s1 4.5 1 6.5c0 8 -1.66699 15.5 -5 22.5s-9.66602 11.167 -18.999 12.5c-2.66699 -0.666992 -5.5 -1.5 -8.5 -2.5s-6.16699 -2.16699 -9.5 -3.5c-18.667 -11.333 -36.167 -37 -52.5 -77
s-25.5 -98.667 -27.5 -176v0zM208.999 382.001c-1.33301 -24.667 -2.50195 -47.667 -3.50195 -69s-1.16699 -41.333 -0.5 -60c0 -78 5.5 -133.167 16.5 -165.5s22.833 -52.5 35.5 -60.5c2.66699 -1.33301 5.16699 -2.5 7.5 -3.5s4.83301 -1.5 7.5 -1.5
c26 2.66699 42.5 21.167 49.5 55.5s10.833 71.833 11.5 112.5v11.5v10.5v1.5v1.5v20v21c-1.33301 32.667 -7.16602 63 -17.499 91s-33.166 42.667 -68.499 44c-6 -0.666992 -12 -1.5 -18 -2.5s-12.667 -3.16699 -20 -6.5v0z" />
    <glyph glyph-name="seven" unicode="7" horiz-adv-x="536" 
d="M87 545l-38.999 0.000976562l23 163h350l5 14h10h44c-56.667 -134 -96.5 -228.167 -119.5 -282.5s-39.167 -100.5 -48.5 -138.5c-2.66699 -12 -5 -24.5 -7 -37.5s-4 -27.167 -6 -42.5c-1.33301 -13.333 -3 -28 -5 -44s-4 -34 -6 -54c-4.66699 -46.667 -12 -81 -22 -103
s-30.667 -33 -62 -33l-10 -1c-28.667 0.666992 -50.334 9.16699 -65.001 25.5s-22 35.166 -22 56.499c0 33.333 11.333 78.5 34 135.5s62.334 130.167 119.001 219.5c4 6.66699 8 13.167 12 19.5s8 12.833 12 19.5l1 1c0.666992 0.666992 1 1.33398 1 2.00098
c11.333 18 23.333 37.667 36 59s28.667 50 48 86h-100c-64 0 -106.833 -3.33301 -128.5 -10s-34.834 -14.334 -39.501 -23.001c-0.666992 -1.33301 -1.33398 -3 -2 -5c-0.666992 -2 -1 -4 -1 -6l-2 -21h-10v0z" />
    <glyph glyph-name="eight" unicode="8" horiz-adv-x="537" 
d="M361 416c2 -1.33301 3.83496 -2.5 5.50195 -3.5s3.5 -2.16699 5.5 -3.5c33.333 -22.667 63.833 -48 91.5 -76s41.5 -62.667 41.5 -104c0 -12.667 -1 -26 -3 -40s-5 -28.333 -9 -43c-12 -40 -34.833 -76.5 -68.5 -109.5s-83.167 -49.5 -148.5 -49.5l-10 -1
c-58.667 0.666992 -111 17.667 -157 51s-69 81 -69 143c0 47.333 13.5 85.833 40.5 115.5s56.833 50.834 89.5 63.501c1.33301 0 2.5 0.166992 3.5 0.5s1.83301 0.833008 2.5 1.5c-2 1.33301 -3.83301 2.83301 -5.5 4.5s-3.5 3.16699 -5.5 4.5c-28 24 -52 49.167 -72 75.5
s-30 58.833 -30 97.5c0 5.33301 0.333008 10.833 1 16.5s1.66699 11.167 3 16.5c7.33301 36.667 28.166 70.167 62.499 100.5s84.5 45.5 150.5 45.5h10c63.333 0 111.166 -15.833 143.499 -47.5s48.5 -67.5 48.5 -107.5c0 -30.667 -6.66699 -55.834 -20 -75.501
s-28 -35.167 -44 -46.5c-11.333 -8.66699 -22.333 -15.167 -33 -19.5s-18.667 -7.5 -24 -9.5v0zM294.002 280l-81 54.0039c-23.333 -22 -39.333 -47.333 -48 -76s-13.667 -58 -15 -88v-8.5v-9.5c0 -36.667 11.167 -66.834 33.5 -90.501s49.5 -36.167 81.5 -37.5
c36 1.33301 64.333 14.166 85 38.499s31 52.833 31 85.5c0 23.333 -4.83301 43.166 -14.5 59.499s-20.167 30.166 -31.5 41.499c-8 8 -15.833 14.5 -23.5 19.5s-13.5 8.83301 -17.5 11.5v0zM231.002 512.004l93.001 -67.002c13.333 10.667 24 23.334 32 38.001
s13.667 29.334 17 44.001c1.33301 6 2.33301 11.833 3 17.5s1 11.167 1 16.5v2.5v3.5c-1.33301 28.667 -9.83301 55 -25.5 79s-40.834 36.667 -75.501 38c-30 -0.666992 -52.333 -10.167 -67 -28.5c-14.667 -18.335 -22 -40.168 -22 -65.5c0 -14.667 3 -27.334 9 -38.001
s12.667 -19.667 20 -27c2.66699 -2.66699 5.33398 -5.16699 8 -7.5c2.66699 -2.34863 5 -4.18164 7 -5.49902v0z" />
    <glyph glyph-name="nine" unicode="9" horiz-adv-x="535" 
d="M326 283c-8 -2 -16.668 -3.99609 -26.001 -5.99609s-18.666 -3.33301 -27.999 -4c-4 0 -7.83301 -0.166992 -11.5 -0.5c-3.66797 -0.333008 -7.50098 -0.5 -11.5 -0.5h-10c-8.66699 0 -17.834 0.666992 -27.501 2s-19.5 3.33301 -29.5 6c-36 9.33301 -69 29.833 -99 61.5
s-45 78.5 -45 140.5c0 67.333 18.833 124.166 56.5 170.499s84.834 69.5 141.501 69.5h10c68 0 126.333 -26.833 175 -80.5s73 -143.834 73 -270.501c0 -16.667 -1 -33.667 -3 -51s-5 -34.666 -9 -51.999c-15.333 -70.667 -46 -135.167 -92 -193.5
s-107.333 -87.5 -184 -87.5l-10 -1c-42 0.666992 -74 9.66699 -96 27s-35.667 36.333 -41 57c-1.33398 4 -2.16699 7.83301 -2.5 11.5s-0.5 7.16699 -0.5 10.5c0 23.333 6.5 42.333 19.5 57s28.5 22 46.5 22h10c20.667 0 39.334 -5.83301 56.001 -17.5s25 -28.167 25 -49.5
c0 -4.66699 -0.166992 -9 -0.5 -13c-0.339844 -4 -1.17285 -8 -2.5 -12c0 -1.33301 -0.333008 -2.5 -1 -3.5s-1 -2.16699 -1 -3.5c-0.666992 -2 -1.33398 -4.16699 -2.00098 -6.5s-1.33398 -4.83301 -2.00098 -7.5c0 -0.666992 -0.166992 -1.33398 -0.5 -2.00098
s-0.5 -1.33398 -0.5 -2.00098v-2v-2l1 -6c1.33301 -6 4.16602 -10.833 8.49902 -14.5s9.5 -6.16699 15.5 -7.5c3.33301 0.666992 7 1.66699 11 3s7.66699 3 11 5c16.667 10.667 32.334 34.667 47.001 72s24.334 97.666 29.001 180.999v0zM326.999 326.004
c1.34375 17.333 2.1748 33.335 2.49805 48.002c0.333008 14.667 0.5 28.667 0.5 42v18c0 6 -0.333008 11.667 -1 17c0 13.334 -0.333008 26.667 -1 39.999c-0.666992 13.333 -1.66699 27.666 -3 42.999c-3.33301 50 -9 87.333 -17 112s-22.667 38 -44 40
c-26.667 -2 -43.667 -19.833 -51 -53.5s-11 -79.167 -11 -136.5v-20c0 -6.66699 0.333008 -13.667 1 -21c0.666992 -33.333 6.33398 -64.333 17 -93c10.667 -28.667 33.334 -43.667 68.001 -45c4.66699 0.666992 10.334 1.5 17.001 2.5s14 3.16699 22 6.5v0z" />
    <glyph glyph-name="colon" unicode=":" horiz-adv-x="363" 
d="M98 64c0 22 8.00098 40.667 24.001 56s34.333 23 55 23h10c20.667 0 38.834 -7.66699 54.5 -23c15.667 -15.333 23.5 -34 23.5 -56c0 -3.33301 -0.333008 -6.83301 -1 -10.5c-0.670898 -3.66699 -1.33789 -7.5 -2.00098 -11.5c-4.66699 -14 -13.167 -26.667 -25.5 -38
s-28.833 -17 -49.5 -17l-10 -1c-21.333 0.666992 -39.833 8.5 -55.5 23.5s-23.5 33.167 -23.5 54.5v0zM98.001 398c0 21.334 7.83301 39.668 23.5 55c15.667 15.333 34.167 23 55.5 23h10c20.667 0 37.167 -5.83301 49.5 -17.5s20.833 -24.5 25.5 -38.5
c0.666992 -4 1.33398 -7.83301 2.00098 -11.5s1 -7.16699 1 -10.5c0 -22 -7.83301 -40.667 -23.5 -56s-33.834 -23 -54.501 -23h-10c-20.667 0 -39 7.66699 -55 23s-24 34 -24 56v0z" />
    <glyph glyph-name="semicolon" unicode=";" horiz-adv-x="365" 
d="M126 -182l-24.001 28.0029c1.33301 2 2.5 3.66699 3.5 5s1.83301 2.66602 2.5 3.99902h1v1c1.33301 1.33301 2.83301 2.66602 4.5 3.99902s3.83398 3.33301 6.50098 6c16.667 16.667 28.834 32.5 36.501 47.5s11.5 26.5 11.5 34.5c0 10.667 -2.5 18.5 -7.5 23.5
s-10.833 9.16699 -17.5 12.5c-0.666992 0.666992 -1.33398 1.16699 -2.00098 1.5l-3 1.5c-1.33301 0.666992 -2.66602 1.5 -3.99902 2.5c-1.33398 1 -2.66699 1.83301 -4 2.5c-10 6.66699 -17.833 14.834 -23.5 24.501s-8.5 20.5 -8.5 32.5c0 23.333 7.66699 42 23 56
s34.333 21 57 21h10h6c2 0 4 -0.333008 6 -1c16.667 -2.66699 32 -11.334 46 -26.001s21 -36.334 21 -65.001c0 -8.66699 -0.833008 -17.167 -2.5 -25.5c-1.6709 -8.33301 -3.83789 -16.833 -6.50098 -25.5c-10 -30.667 -26.167 -60.167 -48.5 -88.5
s-45.833 -52.833 -70.5 -73.5c-0.666992 0 -1.16699 -0.166992 -1.5 -0.5l-1.5 -1.5l-10 -1v0zM98.999 398.003c0 21.334 7.83301 39.667 23.5 55s34.167 23 55.5 23h10c20.667 0 37.167 -5.83301 49.5 -17.5s20.833 -24.5 25.5 -38.5
c0.666992 -4 1.33398 -7.83301 2.00098 -11.5s1 -7.16699 1 -10.5c0 -22 -7.83301 -40.667 -23.5 -56s-33.834 -23 -54.501 -23h-10c-20.667 0 -39 7.66699 -55 23s-24 34 -24 56v0z" />
    <glyph glyph-name="less" unicode="&#x3c;" horiz-adv-x="710" 
d="M38 350l598 255h10l26 -60l-462 -191v-7l462 -192l-26 -60h-10l-598 255v0z" />
    <glyph glyph-name="equal" unicode="=" horiz-adv-x="780" 
d="M84 233v84h10h602v-84h-10h-602v0zM84 387v84h10h602v-84h-10h-602v0z" />
    <glyph glyph-name="greater" unicode="&#x3e;" horiz-adv-x="710" 
d="M672 350l-598 -255h-10l-26 60l462 191v8l-462 191l26 60h10l598 -255v0z" />
    <glyph glyph-name="question" unicode="?" horiz-adv-x="559" 
d="M179 64c0 20.667 5.83301 37.334 17.5 50.001s24.5 21.334 38.5 26.001c4 0.667969 7.83301 1.33496 11.5 2.00098c3.66699 0.666992 7.16699 1 10.5 1h10c3.33301 0 6.83301 -0.333008 10.5 -1s7.5 -1.33398 11.5 -2.00098c14 -4.66699 26.833 -13.334 38.5 -26.001
s17.5 -29.334 17.5 -50.001c0 -22.667 -7.5 -41.167 -22.5 -55.5s-33.5 -21.5 -55.5 -21.5l-10 -1c-22 0.666992 -40.5 8.16699 -55.5 22.5s-22.5 32.833 -22.5 55.5v0zM278 171l-42.002 0.00390625v133c0 18 4.16699 32.667 12.5 44s17.833 22 28.5 32
c0 0.666992 0.333008 1.16699 1 1.5s1.33398 0.833008 2.00098 1.5c5.33301 5.33301 11.5 11.833 18.5 19.5s14.167 16.167 21.5 25.5c15.334 20 29.167 43 41.5 69s18.5 53 18.5 81c0 29.333 -11.167 53 -33.5 71s-46.833 28.333 -73.5 31
c-1.33301 0.666992 -2.66602 1 -3.99902 1h-4c-14 -0.666992 -25.333 -3.66699 -34 -9c-8.66699 -5.33887 -13 -12.6719 -13 -22c0 -2.66699 0.166992 -5.16699 0.5 -7.5s0.833008 -4.83301 1.5 -7.5s1.16699 -5.33398 1.5 -8.00098s0.833008 -5.33398 1.5 -8.00098
c0 -2.66699 0.166992 -5.33398 0.5 -8.00098s0.5 -5.33398 0.5 -8.00098c0 -19.333 -6.16699 -36.333 -18.5 -51c-12.334 -14.667 -29.167 -22 -50.5 -22h-10c-20.667 0 -38.834 6.5 -54.501 19.5s-23.5 30.833 -23.5 53.5v1.5v1.5c0.666992 28.667 15.667 55.167 45 79.5
s73.333 36.5 132 36.5h10c72 0 129.667 -20.667 173 -62s65 -91.333 65 -150c0 -56 -14 -103.667 -42 -143s-58.667 -73 -92 -101c-4 -3.33301 -8 -6.5 -12 -9.5s-8 -6.16699 -12 -9.5c-2.66895 -2 -5.83594 -4.33301 -9.5 -7c-3.66699 -2.66699 -7.16699 -6 -10.5 -10
c-4.66699 -4 -9.16699 -8.5 -13.5 -13.5s-7.5 -10.167 -9.5 -15.5c-1.33301 -2 -2.16602 -3.83301 -2.49902 -5.5s-0.5 -3.5 -0.5 -5.5v-19h-10v0z" />
    <glyph glyph-name="at" unicode="@" horiz-adv-x="973" 
d="M772 483l-50.001 -356.008c0 -1.33301 -0.166992 -3.5 -0.5 -6.5s-0.5 -6.16699 -0.5 -9.5c0 -1.33301 -0.166992 -2.83301 -0.5 -4.5s-0.5 -3.16699 -0.5 -4.5c0 -6.66699 -0.166992 -12.667 -0.5 -18l-0.5 -8c0 -7.33301 3.83301 -13.333 11.5 -18
s16.167 -7.66699 25.5 -9c1.33301 -0.666992 2.83301 -1.16699 4.5 -1.5s3.5 -0.5 5.5 -0.5c25.333 3.33301 46.5 29 63.5 77s25.5 101 25.5 159c0 127.333 -36.667 221.333 -110 282c-73.333 60.668 -155 91.335 -245 92c-131.333 -1.33496 -227.833 -41.668 -289.5 -121
c-61.667 -79.333 -92.5 -170.666 -92.5 -273.999c0 -122 34.667 -217.167 104 -285.5s150.333 -103.166 243 -104.499c32.667 0.666992 63.834 5.33398 93.501 14.001s56.5 18.334 80.5 29.001c5.33301 2.66699 10.833 5.33398 16.5 8.00098
c5.66895 2.66699 10.8359 5.33398 15.5 8.00098l10 -1l19 -41c-12 -6 -24 -11.833 -36 -17.5s-24 -10.834 -36 -15.501c-26.667 -10 -53.5 -17.5 -80.5 -22.5s-52.833 -7.5 -77.5 -7.5l-10 -1c-124.667 0.666992 -221 35.334 -289 104.001s-111.667 144.667 -131 228
c-4 17.333 -7 34.833 -9 52.5s-3 34.834 -3 51.5c0 6.66699 0.166992 13.5 0.5 20.5s0.833008 14.167 1.5 21.5c8.66699 100 51 191.667 127 275s189.667 125 341 125h10c122.667 0 226.167 -37.833 310.5 -113.5s126.5 -178.167 126.5 -307.5c0 -80.667 -21 -150 -63 -208
s-100.667 -87 -176 -87l-10 -1c-44.667 0.666992 -77.334 7.33398 -98.001 20.001s-35 27 -43 43c0 0.666992 -0.166992 1.5 -0.5 2.5s-0.833008 1.83301 -1.5 2.5c-30.667 -31.333 -59.667 -50.333 -87 -57s-51 -10 -71 -10l-10 -1c-54 0.666992 -96.667 18 -128 52
s-47 80.333 -47 139c0 88.667 22.333 165.334 67 230.001s107.334 97 188.001 97h10c27.334 0 49.334 -3.66699 66 -11c16.667 -7.33301 29.667 -15.333 39 -24c2 -1.33301 3.83301 -2.83301 5.5 -4.5s3.16699 -3.5 4.5 -5.5l4 24h10h168v0zM446.999 58.9922
c6 0 12.502 1 19.502 3s14.167 5 21.5 9c19.333 11.333 37.166 34 53.499 68s24.5 87 24.5 159c0 32 -4 59.5 -12 82.5s-26.667 35.167 -56 36.5c-6.66699 0 -13.667 -1.16699 -21 -3.5s-15 -5.83301 -23 -10.5c-18.668 -12 -35.835 -34.833 -51.501 -68.5
c-15.667 -33.667 -23.5 -85.834 -23.5 -156.5c0 -36 4.5 -64.5 13.5 -85.5s27.167 -32.167 54.5 -33.5v0z" />
    <glyph glyph-name="A" unicode="A" horiz-adv-x="741" 
d="M441 257h-221.999l-11 -29c-1.33301 -3.33301 -2.5 -6.33301 -3.5 -9s-1.83301 -5 -2.5 -7v0v0l-1.5 -3l-1.5 -3c-2 -5.33301 -4.33301 -11.5 -7 -18.5s-5.33398 -14.5 -8.00098 -22.5l-4 -12l-4 -12c-4 -13.333 -7.5 -26.333 -10.5 -39s-4.5 -22.667 -4.5 -30
c0 -10.667 2.16699 -18.334 6.5 -23.001s11.833 -7 22.5 -7h50v-42h-10h-230v42h28c10 0 18 3 24 9s11.667 13.667 17 23c2 2.66699 4 5.83398 6 9.50098s4 7.16699 6 10.5c2.66699 4 5.16699 8 7.5 12s4.5 8 6.5 12c14 23.333 26.5 46.666 37.5 69.999
s21.5 45.666 31.5 66.999l212 467h10h43l221 -619c0.666992 -0.666992 1 -1.5 1 -2.5s0.333008 -2.16699 1 -3.5c5.33301 -15.333 11.5 -28.333 18.5 -39s17.167 -16 30.5 -16h40v-42h-10h-290v42h37h5h7c4 0.666992 7.83301 1.83398 11.5 3.5
c3.66699 1.66699 5.5 4.83398 5.5 9.50098c0 0.666992 -0.166992 2 -0.5 4s-0.833008 4.33301 -1.5 7v0.5c0 0.333008 -0.333008 0.5 -1 0.5c0 2 -0.333008 3.83301 -1 5.5s-1 2.83398 -1 3.50098l-61 181v0zM240.001 299h185l-81 232l-104 -232v0z" />
    <glyph glyph-name="B" unicode="B" horiz-adv-x="744" 
d="M502 390l0.00390625 -3.99805c3.34082 0 6.67383 -0.166992 9.99902 -0.5c3.33301 -0.333008 7 -0.833008 11 -1.5c44.667 -4.66699 85.667 -22.5 123 -53.5s56 -75.833 56 -134.5c0 -62.667 -23.5 -111.5 -70.5 -146.5s-111.833 -52.5 -194.5 -52.5l-10 -1
c-6 0.666992 -12.167 1 -18.5 1s-12.833 0.333008 -19.5 1c-6.66699 0 -13.167 0.166992 -19.5 0.5s-12.5 0.5 -18.5 0.5s-11.833 0.166992 -17.5 0.5s-11.167 0.5 -16.5 0.5h-16.5h-17.5h-241v42h46h1.5h1.5c10 0 18.333 1.66699 25 5s10 14.666 10 33.999v546
c0 19.333 -3.33301 30.666 -10 33.999s-15 5 -25 5h-1.5h-1.5h-46v42h227h12.5c4.33301 0 8.5 0.333008 12.5 1c4 0 8.16699 0.166992 12.5 0.5s8.5 0.5 12.5 0.5c6 0 12 0.166992 18 0.5s12.333 0.5 19 0.5c6 0.666992 12 1 18 1h18h10
c88 1.33301 151.667 -10.167 191 -34.5s65 -51.5 77 -81.5c3.33301 -9.33789 5.83301 -18.6709 7.5 -28c1.66699 -9.33301 2.5 -18.333 2.5 -27c0 -46 -16.833 -81.333 -50.5 -106s-70.834 -39.334 -111.501 -44c-2.66699 0 -5.33398 -0.166992 -8.00098 -0.5
c-2.6709 -0.333008 -5.33789 -0.5 -8.00098 -0.5v0zM293.004 370.002l0.00195312 -299.999c10 -8 22.667 -15.167 38 -21.5c15.334 -6.33301 33.667 -9.83301 55 -10.5c34 1.33301 59.667 11.333 77 30c17.334 18.667 29.667 39 36.999 61
c5.34082 16.667 8.67383 32.5 9.99902 47.5c1.33301 15 2 26.5 2 34.5c0 8.66699 -0.5 19.167 -1.5 31.5s-3.5 25.166 -7.5 38.499c-7.33301 22 -20.5 42.333 -39.5 61s-49.167 28 -90.5 28h-80v0zM293.006 415.003l90 -0.000976562c4.66699 0 12.167 0.5 22.5 1.5
c10.335 1 21.168 4.16699 32.5 9.5c15.333 6 29.333 17.5 42 34.5s19 42.167 19 75.5v2.5v3.5c-0.666992 30 -10 57.667 -28 83s-49 38.333 -93 39c-18 -0.666992 -33.667 -3.16699 -47 -7.5c-13.333 -4.33789 -26 -12.1709 -38 -23.499v-218v0z" />
    <glyph glyph-name="C" unicode="C" horiz-adv-x="745" 
d="M612 496l-0.999023 29.998c-1.33594 39.333 -20.6689 74 -58 104c-37.333 30 -79.666 45.667 -126.999 47c-2.66992 0 -5.33691 -0.166992 -8 -0.5c-2.66992 -0.333008 -5.33691 -0.833008 -8 -1.5c-42.667 -6.66699 -81.667 -36 -117 -88s-53 -132 -53 -240
c0 -99.333 20.333 -171.666 61 -216.999s85.667 -71.333 135 -78c4 -0.666992 7.83301 -1.16699 11.5 -1.5s7.5 -0.5 11.5 -0.5c54 1.33301 96 20.333 126 57s54.667 80 74 130h10l48 -15c-26.667 -82.667 -62.334 -140.167 -107.001 -172.5s-91.334 -51.833 -140.001 -58.5
c-12 -1.33301 -23.667 -2.33301 -35 -3s-22.666 -1 -33.999 -1l-10 -1c-100.667 0.666992 -175.834 26.334 -225.501 77.001s-82.834 106.667 -99.501 168c-6 20 -10.167 40.167 -12.5 60.5s-3.5 39.5 -3.5 57.5c0 102 32.5 189.667 97.5 263s155.5 110 271.5 110h10
c35.333 0 66.333 -3.16699 93 -9.5c26.667 -6.33887 48.667 -13.1719 66 -20.5c2.66797 -1.33301 5.33496 -2.5 8.00098 -3.5c2.66699 -1 5 -2.16699 7 -3.5l-1 23h10h47l11 -212h-10h-48v0z" />
    <glyph glyph-name="D" unicode="D" horiz-adv-x="860" 
d="M42 708l240.999 0.00292969h9.5h9.5c2.66699 0 5.66699 0.166992 9 0.5s6.33301 0.5 9 0.5c26.667 1.33301 49.5 2.16602 68.5 2.49902s36.167 0.5 51.5 0.5h10c9.33301 0 31.833 -1.66699 67.5 -5c35.668 -3.33887 73.835 -13.6719 114.501 -31
c46.667 -20 89.334 -53.5 128 -100.5c38.667 -47 58 -115.5 58 -205.5c0 -17.333 -1 -35 -3 -53s-5 -36.333 -9 -55c-15.335 -66.667 -50.168 -127.5 -104.5 -182.5c-54.334 -55 -139.167 -82.5 -254.5 -82.5l-10 -1c-17.333 0.666992 -32 1.16699 -44 1.5
s-22.333 0.833008 -31 1.5c-7.33301 0.666992 -14 1 -20 1h-17h-4h-4h-275v42h46h1.5h1.5c10 0 18.333 1.66699 25 5s10 14.666 10 33.999v546c0 19.333 -3.33301 30.666 -10 33.999s-15 5 -25 5h-1.5h-1.5h-46v42v0zM292.999 640.003l-0.000976562 -569.999
c3.33301 -1.33301 6.5 -2.83301 9.5 -4.5s6.16699 -3.16699 9.5 -4.5c15.333 -7.33301 30.5 -12.833 45.5 -16.5s29.5 -5.83398 43.5 -6.50098c81.333 1.33301 139.5 31.333 174.5 90s52.5 133 52.5 223c0 16 -0.5 32.667 -1.5 50s-2.83301 35 -5.5 53
c-7.33301 53.333 -26 102.333 -56 147s-81.667 67.667 -155 69c-24 -0.666992 -45.667 -4 -65 -10s-36.666 -12.667 -51.999 -20v0z" />
    <glyph glyph-name="E" unicode="E" horiz-adv-x="699" 
d="M626 539h-46.0039l-4 41c-1.33301 15.333 -15 28.833 -41 40.5c-26 11.6719 -54.333 20.8389 -85 27.501c-22 5.33301 -43.167 9.33301 -63.5 12c-20.333 2.68652 -36.166 4.35352 -47.499 5c-11.333 0 -20.166 -1.33301 -26.499 -4s-11.166 -5.66699 -14.499 -9
c-2 -2 -3.33301 -4 -4 -6s-1 -3.66699 -1 -5v-244h5.5h4.5c42.667 0 75 2.5 97 7.5s38 10.833 48 17.5c6.66699 4 11.334 7.83301 14.001 11.5s4.66699 6.5 6 8.5v50h10h42v-238h-10h-42v60c-6 10.667 -19 18.834 -39 24.501s-41.667 9.83398 -65 12.501
c-12.667 1.34375 -25 2.17676 -37 2.49902c-12 0.333008 -23 0.5 -33 0.5v0v0h-1v0v-282c0 -12 3 -20 9 -24s20.667 -6 44 -6c52 0 94.667 5.5 128 16.5s59 22.833 77 35.5c12 8.66699 21 17 27 25s9.66699 14.333 11 19l11 47h10l47 -6l-33 -179h-10h-572v42h46h1.5h1.5
c10 0 18.333 1.66699 25 5s10 14.666 10 33.999v546c0 19.333 -3.33301 30.666 -10 33.999s-15 5 -25 5h-1.5h-1.5h-46v42h10h571l13 -169h-10v0z" />
    <glyph glyph-name="F" unicode="F" horiz-adv-x="674" 
d="M637 708l8.99805 -173.997h-10h-42v46c-6.66699 20 -24.667 36 -54 48s-61 21 -95 27c-22.667 4 -44.667 6.83301 -66 8.5s-39.333 2.5 -54 2.5c-11.333 -0.666992 -19.166 -3.83398 -23.499 -9.50098s-6.83301 -11.834 -7.5 -18.501c-0.666992 -2 -1 -4.33301 -1 -7v-7
v-226h25c8 0 16.5 0.333008 25.5 1s17.833 1.66699 26.5 3c25.333 3.33398 48.333 9.16699 69 17.5s31 19.5 31 33.5v41h10h44v-237h-10h-44v46c0 14.667 -9 25.667 -27 33s-37.667 12.333 -59 15c-13.333 2 -26.166 3.33301 -38.499 4s-22.5 1 -30.5 1h-22v-275
c0 -19.333 3.33301 -30.666 10 -33.999s15 -5 25 -5h1.5h1.5h46v-42h-10h-325v42h46h1.5h1.5c10 0 18.333 1.66699 25 5s10 14.666 10 33.999v546c0 19.333 -3.33301 30.666 -10 33.999s-15 5 -25 5h-1.5h-1.5h-46v42h10h585v0z" />
    <glyph glyph-name="G" unicode="G" horiz-adv-x="856" 
d="M659 496l-48.999 -0.00195312v30c0 8.66699 -2 18.5 -6 29.5s-10 22.5 -18 34.5c-14.667 22 -35.5 42.333 -62.5 61c-27 18.6719 -59.5 28.3389 -97.5 29c-10 -0.666992 -20.833 -2.66699 -32.5 -6c-11.667 -3.33887 -23.5 -8.67188 -35.5 -16
c-29.333 -18 -56.333 -51 -81 -99s-37 -118.333 -37 -211c0 -103.333 19 -182.166 57 -236.499s89.667 -82.166 155 -83.499c37.333 1.33301 69.5 11 96.5 29s40.5 42.333 40.5 73v135c0 19.334 -3.33301 30.667 -10 33.999c-6.66699 3.33301 -15 5 -25 5h-1.5h-1.5h-38v42
h10h313v-42h-42h-1.5h-1.5c-10 0 -18.333 -1.66699 -25 -5s-10 -14.666 -10 -33.999v-178c-44.667 -33.333 -90.834 -58.333 -138.501 -75s-102.167 -25 -163.5 -25l-10 -1c-147.333 0.666992 -249.833 38.667 -307.5 114s-86.5 158.333 -86.5 249
c0 102 32.167 189.667 96.5 263s154.833 110 271.5 110h10c28 0 56.5 -2.66699 85.5 -8s58.167 -15 87.5 -29v23h10h47l11 -212h-10v0z" />
    <glyph glyph-name="H" unicode="H" horiz-adv-x="850" 
d="M293 396h278v231c0 19.333 -3.33301 30.666 -10 33.999s-15 5 -25 5h-1.5h-1.5h-46v42h10h325v-42h-46h-1.5h-1.5c-10 0 -18.333 -1.66699 -25 -5c-6.66699 -3.33789 -10 -14.6709 -10 -33.999v-546c0 -19.333 3.33301 -30.666 10 -33.999s15 -5 25 -5h1.5h1.5h46v-42
h-10h-325v42h46h1.5h1.5c10 0 18.333 1.66699 25 5s10 14.666 10 33.999v273h-278v-273c0 -19.333 3.33301 -30.666 10 -33.999s15 -5 25 -5h1.5h1.5h46v-42h-10h-325v42h46h1.5h1.5c10 0 18.333 1.66699 25 5s10 14.666 10 33.999v546c0 19.333 -3.33301 30.666 -10 33.999
s-15 5 -25 5h-1.5h-1.5h-46v42h10h325v-42h-46h-1.5h-1.5c-10 0 -18.333 -1.66699 -25 -5c-6.66699 -3.33789 -10 -14.6709 -10 -33.999v-231v0z" />
    <glyph glyph-name="I" unicode="I" horiz-adv-x="419" 
d="M293 627v-546c0 -19.333 3.33301 -30.666 10 -33.999s15 -5 25 -5h1.5h1.5h46v-42h-10h-325v42h46h1.5h1.5c10 0 18.333 1.66699 25 5s10 14.666 10 33.999v546c0 19.333 -3.33301 30.666 -10 33.999s-15 5 -25 5h-1.5h-1.5h-46v42h10h325v-42h-46h-1.5h-1.5
c-10 0 -18.333 -1.66699 -25 -5c-6.66699 -3.33789 -10 -14.6709 -10 -33.999v0z" />
    <glyph glyph-name="J" unicode="J" horiz-adv-x="528" 
d="M416 627l0.00292969 -376c0 -136 -27.167 -233.5 -81.5 -292.5s-116.166 -88.5 -185.499 -88.5l-10 -1c-40 0.666992 -71.167 9.5 -93.5 26.5s-36.5 35.833 -42.5 56.5c-0.666992 4 -1.33398 7.83301 -2.00098 11.5s-1 7.5 -1 11.5c0 22 6.66699 42.333 20 61
s34.666 28 63.999 28h10c24 0 42.333 -7.5 55 -22.5s21 -31.167 25 -48.5c0.666992 -4 1.16699 -8 1.5 -12s0.5 -8 0.5 -12c0 -2 -0.333008 -4 -1 -6s-1 -4 -1 -6c-0.666992 -1.33301 -1.33398 -3 -2.00098 -5s-1 -4 -1 -6c0 -8 1.66699 -14.5 5 -19.5
s8.66602 -7.83301 15.999 -8.5c19.333 2.66699 32.833 17.667 40.5 45s12.5 57.333 14.5 90c1.33301 15.333 2 30.333 2 45v41v3.5v3.5v481c0 19.333 -3.33301 30.666 -10 33.999s-15 5 -25 5h-1.5h-1.5h-46v42h10h325v-42h-46h-1.5h-1.5c-10 0 -18.333 -1.66699 -25 -5
c-6.66699 -3.33789 -10 -14.6709 -10 -33.999v0z" />
    <glyph glyph-name="K" unicode="K" horiz-adv-x="803" 
d="M419 430l282.003 -340c1.33301 -1.33301 2.5 -2.66602 3.5 -3.99902s2.16699 -3 3.5 -5c8 -9.33301 17.167 -17.833 27.5 -25.5s26.166 -12.167 47.499 -13.5v-42h-10h-208l-272 336v-255c0 -19.333 3.33301 -30.666 10 -33.999s15 -5 25 -5h1.5h1.5h46v-42h-10h-325v42
h46h1.5h1.5c10 0 18.333 1.66699 25 5s10 14.666 10 33.999v546c0 19.333 -3.33301 30.666 -10 33.999s-15 5 -25 5h-1.5h-1.5h-46v42h10h325v-42h-46h-1.5h-1.5c-10 0 -18.333 -1.66699 -25 -5c-6.66699 -3.33789 -10 -14.6709 -10 -33.999v-260l178 195
c22.667 25.333 37.667 44.833 45 58.5s11 24.5 11 32.5c0 4.68652 -1.66699 7.85352 -5 9.5c-3.34961 1.68652 -6.68262 2.85352 -10 3.5h-3.5h-2.5h-6h-3.5h-3.5h-3.5h-3.5h-31v42h10h279v-42h-42c-8.66699 0 -26.834 -10.667 -54.501 -32s-57.167 -46 -88.5 -74
c-2.66699 -2.66699 -5.66699 -5.33398 -9 -8.00098s-6.33301 -5.33398 -9 -8.00098c-26.667 -24 -51.334 -46.667 -74.001 -68s-38.667 -36.666 -48 -45.999v0z" />
    <glyph glyph-name="L" unicode="L" horiz-adv-x="684" 
d="M293 627v-544.997c0 -16.667 2.16699 -27.334 6.5 -32.001s13.5 -7.33398 27.5 -8.00098c14.667 0 30.834 0.666992 48.501 2s35.5 3.33301 53.5 6c37.333 4.66699 72 13.167 104 25.5s51.333 29.833 58 52.5c1.33301 4.66699 2.66602 9.16699 3.99902 13.5
s2.33301 8.5 3 12.5c1.33301 4 2.5 8.33301 3.5 13s1.83301 10 2.5 16h10l42 -6l-29 -177h-10h-575v42h46h1.5h1.5c10 0 18.333 1.66699 25 5s10 14.666 10 33.999v546c0 19.333 -3.33301 30.666 -10 33.999s-15 5 -25 5h-1.5h-1.5h-46v42h10h325v-42h-46h-1.5h-1.5
c-10 0 -18.333 -1.66699 -25 -5c-6.66699 -3.33789 -10 -14.6709 -10 -33.999v0z" />
    <glyph glyph-name="M" unicode="M" horiz-adv-x="970" 
d="M493 311l198.001 396.999h10h241v-42h-46h-1.5h-1.5c-10 0 -18.333 -1.66699 -25 -5c-6.66699 -3.33789 -10 -14.6709 -10 -33.999v-546c0 -19.333 3.33301 -30.666 10 -33.999s15 -5 25 -5h1.5h1.5h46v-42h-10h-325v42h46h1.5h1.5c10 0 18.333 1.66699 25 5
s10 14.666 10 33.999v491l-224 -448h-10h-39l-238 449v-286c0 -10 0.5 -22.833 1.5 -38.5s2.16699 -31.834 3.5 -48.501c0.666992 -13.334 1.66699 -26.167 3 -38.5s2.66602 -23.166 3.99902 -32.499c0.667969 -5.33301 1.33496 -10 2 -14
c0.667969 -4 1.33496 -7.66699 2 -11c2 -8.66699 4 -16.167 6 -22.5s3.66699 -11.833 5 -16.5c3.33301 -6.66699 6.33301 -11.667 9 -15s5.33398 -6 8 -8h42v-42h-10h-214v42h42c4.66699 5.33301 8.16699 10 10.5 14s3.83301 7.33301 4.5 10
c5.33301 13.333 9.83301 30.5 13.5 51.5s6.5 42.833 8.5 65.5c2.66699 30.667 4.5 59.334 5.5 86.001s1.5 44 1.5 52v306c0 19.333 -3.33301 30.666 -10 33.999s-15 5 -25 5h-1.5h-1.5h-46v42h10h218l221 -397v0z" />
    <glyph glyph-name="N" unicode="N" horiz-adv-x="808" 
d="M643 234v170.998c0 114.667 -5.16699 186.834 -15.5 216.5c-10.3379 29.667 -22.1709 44.5 -35.5 44.5h-36v42h10h214v-42h-37c-2 0 -4.66699 -0.5 -8 -1.5c-3.34473 -1 -6.67773 -4.5 -10 -10.5c-4 -5.33301 -7.66699 -13.833 -11 -25.5s-6 -28.167 -8 -49.5
c-0.666992 -3.3418 -1.16699 -6.6748 -1.5 -9.99902c-0.333008 -3.33789 -0.5 -6.6709 -0.5 -10c-2 -20.667 -4 -43.167 -6 -67.5s-3 -53.166 -3 -86.499v-419h-10h-46l-448 534v-268c0 -88 5.16699 -145 15.5 -171s21.833 -39 34.5 -39h32v-42h-10h-215v42h28
c17.333 0 30.333 16.5 39 49.5s15 69.5 19 109.5c2 22.667 3.33301 44.667 4 66c0.666992 21.334 1 39.667 1 55v266l-97 120h10h189l402 -474v0z" />
    <glyph glyph-name="O" unicode="O" horiz-adv-x="851" 
d="M50 354c0 104 34 191.334 102 262c68 70.667 158.667 106 272 106h10c114 0 205 -35.333 273 -106s102 -158 102 -262c0 -102.667 -34 -189.5 -102 -260.5s-159 -106.5 -273 -106.5l-10 -1c-113.333 0.666992 -204 36.5 -272 107.5s-102 157.833 -102 260.5v0z
M240 354.001c0 -17.333 0.665039 -35.6689 1.99805 -55.002s3.33301 -39 6 -59c8.66699 -52 26.334 -100 53.001 -144s69.334 -66.667 128.001 -68c59.333 1.33301 102.5 24.333 129.5 69s44.5 94 52.5 148c3.33301 18.667 5.5 37.334 6.5 56.001s1.5 36.334 1.5 53.001
c0 92.667 -10.833 161.5 -32.5 206.5s-45.834 76.167 -72.501 93.5c-16 10.667 -31.667 17.667 -47 21s-28 5 -38 5c-56.667 -1.33594 -98.167 -22.1689 -124.5 -62.5c-26.333 -40.333 -44.166 -84.5 -53.499 -132.5c-4 -24 -6.83301 -47.333 -8.5 -70s-2.5 -43 -2.5 -61v0z
" />
    <glyph glyph-name="P" unicode="P" horiz-adv-x="725" 
d="M281 708c10 0 17.334 0.166992 22.001 0.5s8.66699 0.5 12 0.5c0.666992 0.666992 1.5 1 2.5 1h2.5c4.66699 0.666992 11.667 1.16699 21 1.5s25 0.5 47 0.5h10c92 0 159.333 -17.167 202 -51.5c42.667 -34.334 70 -72.167 82 -113.5
c3.33301 -10.667 5.66602 -21.334 6.99902 -32.001s2 -21 2 -31c0 -65.333 -25.667 -117.833 -77 -157.5s-126 -59.5 -224 -59.5h-10c-4.66699 0 -9.5 0.166992 -14.5 0.5s-10.167 0.5 -15.5 0.5c-7.33301 0.666992 -14.5 1.33398 -21.5 2.00098
s-13.833 1.33398 -20.5 2.00098c-2.66699 0.666992 -5.16699 1.16699 -7.5 1.5s-4.83301 0.5 -7.5 0.5v-193c0 -19.333 3.33301 -30.666 10 -33.999s15 -5 25 -5h1.5h1.5h46v-42h-10h-325v42h46h1.5h1.5c10 0 18.333 1.66699 25 5s10 14.666 10 33.999v546
c0 19.333 -3.33301 30.666 -10 33.999s-15 5 -25 5h-1.5h-1.5h-46v42h239v0zM293.001 641l-0.00195312 -319.002c6.66699 -1.33301 14.334 -2.66602 23.001 -3.99902s18.334 -2.33301 29.001 -3c6 0 12 0.333008 18 1s12.333 1.66699 19 3
c29.333 6.66699 56.5 23.334 81.5 50.001s37.5 71.667 37.5 135c0 56.667 -11.5 97 -34.5 121s-48.5 38.333 -76.5 43c-3.33301 0.666992 -6.5 1.16699 -9.5 1.5s-6.16699 0.5 -9.5 0.5c-14 -0.666992 -26 -2.66699 -36 -6s-18.667 -7.33301 -26 -12
c-3.33301 -2 -6.33301 -4 -9 -6s-5 -3.66699 -7 -5v0z" />
    <glyph glyph-name="Q" unicode="Q" horiz-adv-x="851" 
d="M445 -14l-19.999 0.00195312c-108 0.666992 -191.167 29.5 -249.5 86.5s-96.166 119.833 -113.499 188.5c-4 15.333 -7 31 -9 47s-3 31.333 -3 46c0 14 0.833008 28.167 2.5 42.5s4.16699 28.833 7.5 43.5c16 70 53.167 134.5 111.5 193.5s142.833 88.5 253.5 88.5h10
c109.333 0 193.166 -29.167 251.499 -87.5s95.833 -122.5 112.5 -192.5c3.33301 -14.667 5.83301 -29.5 7.5 -44.5s2.5 -29.5 2.5 -43.5c0 -16.667 -2.5 -42.167 -7.5 -76.5s-17.833 -70.5 -38.5 -108.5c-19.3359 -35.333 -47.6689 -69.333 -84.999 -102
c-37.333 -32.667 -88.333 -57.667 -153 -75c-4 -4.66699 -11.667 -12.334 -23 -23.001s-27 -22 -47 -34c-8.66797 -4.66699 -17.835 -9.33398 -27.5 -14.001c-9.66699 -4.66699 -20.5 -9.33398 -32.5 -14.001h17h21h4.5h5.5c8.66699 0.666992 16.5 1 23.5 1h14.5l10 -1
c14.002 0.666992 27.335 -1.66602 40 -6.99902c12.667 -5.33301 24.667 -11 36 -17l10 -6l10 -6c8 -4.66699 16.167 -8.83398 24.5 -12.501s17.166 -5.83398 26.499 -6.50098c2.66699 0 5.16699 0.5 7.5 1.5s4.83301 1.83301 7.5 2.5c4.67188 2 9.33887 4.33301 14 7
c4.66699 2.66699 9 5.66699 13 9c1.33301 1.33301 2.83301 2.66602 4.5 4c1.66699 1.33301 3.16699 2.66602 4.5 4l10 -1l24 -23c-16.667 -17.333 -34.834 -32.333 -54.501 -45s-39.834 -21.667 -60.501 -27c-8 -2.66699 -15.833 -4.5 -23.5 -5.5s-15.167 -1.5 -22.5 -1.5
l-10 -1c-20 0.666016 -38.167 4.33301 -54.5 11.001c-16.333 6.66699 -30.5 13.667 -42.5 21c-6 4 -11.333 7.83301 -16 11.5c-4.66699 3.66504 -9 6.83203 -13 9.5l-8 6c-2.66699 2 -5.66699 4 -9 6c-14.667 10 -31.834 19.167 -51.5 27.5
c-19.667 8.33301 -43.5 12.166 -71.5 11.5v26c8 2 16 4.33301 24 7s16.333 5.33398 25 8.00098c18.667 7.33301 36.667 15.833 54 25.5s32 19.5 44 29.5c2.66699 2 4.83398 3.83301 6.50098 5.5l5.5 5.5v-1zM240.001 354.002c0 -18 0.832031 -38.833 2.49902 -62.5
s5.16699 -47.834 10.5 -72.501c10 -47.333 28.333 -90.666 55 -129.999s67.334 -59.666 122.001 -60.999c55.334 1.33301 96.334 21.833 123 61.5c26.667 39.667 44.667 83.5 54 131.5c4.68555 24 7.85254 47.667 9.50098 71c1.66699 23.333 2.5 44 2.5 62
s-0.833008 38.333 -2.5 61s-4.5 46 -8.5 70c-9.33594 48 -27.1689 92.167 -53.5 132.5c-26.334 40.333 -67.834 61.166 -124.5 62.499c-56 -1.33301 -97.333 -22 -124 -62s-44.667 -84 -54 -132c-4.66699 -24 -7.83398 -47.5 -9.50098 -70.5s-2.5 -43.5 -2.5 -61.5v0z" />
    <glyph glyph-name="R" unicode="R" horiz-adv-x="786" 
d="M42 708l214.998 0.00195312c9.33301 0 18.5 0.166992 27.5 0.5s17.833 0.833008 26.5 1.5c6 0 12 0.166992 18 0.5s12.333 0.5 19 0.5c6 0.666992 12 1 18 1h18h10h12h12c66.667 -2.66699 127.834 -17.334 183.501 -44.001s83.5 -73 83.5 -139
c0 -58.667 -21.333 -104 -64 -136s-94.334 -48 -155.001 -48h-8.5h-9.5h-10.5h-8.5c-4 0 -7.83301 -0.166992 -11.5 -0.5s-8.16699 -0.5 -13.5 -0.5v-4c53.333 -4.66699 100.833 -21.834 142.5 -51.5c41.667 -29.667 71.5 -65.5 89.5 -107.5
c6.67676 -15.333 12.3438 -30.166 17.001 -44.499c4.67188 -14.333 9.33887 -27.166 14.001 -38.499c4.66699 -10.667 9.16699 -19.334 13.5 -26.001s9.5 -11 15.5 -13c6 2 10.833 7 14.5 15c3.67188 8 6.83887 16.667 9.5 26h10l36 -9c-4.66699 -34 -19 -59.833 -43 -77.5
s-50.333 -26.5 -79 -26.5l-10 -1c-41.333 0.666992 -74 15 -98 43s-43.333 59 -58 93c-4 9.33301 -7.83301 18.5 -11.5 27.5s-7.16699 17.833 -10.5 26.5c-3.33301 8 -6.5 15.667 -9.5 23s-5.83301 14.666 -8.5 21.999c-15.333 37.333 -33 67 -53 89s-50.667 33.333 -92 34
v-263c0 -19.333 3.33301 -30.666 10 -33.999s15 -5 25 -5h1.5h1.5h46v-42h-10h-325v42h46h1.5h1.5c10 0 18.333 1.66699 25 5s10 14.666 10 33.999v546c0 19.333 -3.33301 30.666 -10 33.999s-15 5 -25 5h-1.5h-1.5h-46v42v0zM292.998 647.002l-0.000976562 -264.001
c2.66699 0 6 -0.333008 10 -1s8 -1 12 -1c4.66699 -0.666992 9.66699 -1.16699 15 -1.5s11 -0.833008 17 -1.5c4.66699 0 9.5 -0.166992 14.5 -0.5s9.83301 -0.5 14.5 -0.5c36 1.33301 66.333 14.333 91 39s37 58.334 37 101.001c0 50 -11.5 88.333 -34.5 115
s-53.5 40.667 -91.5 42c-4.66699 0 -9.66699 -0.5 -15 -1.5s-10.666 -2.16699 -15.999 -3.5c-8 -2 -15.667 -4.5 -23 -7.5s-14.333 -6.16699 -21 -9.5c-2 -0.666992 -3.83301 -1.5 -5.5 -2.5s-3.16699 -1.83301 -4.5 -2.5v0z" />
    <glyph glyph-name="S" unicode="S" horiz-adv-x="632" 
d="M505 524l-0.00390625 9.99902c0 8 -2.66699 17.333 -8 28s-12.666 21.667 -21.999 33c-18 20.668 -41.167 39.835 -69.5 57.5c-28.333 17.6719 -58.166 26.8389 -89.499 27.5c-20 -0.666992 -36.833 -4.33398 -50.5 -11.001s-24.167 -14 -31.5 -22l-1.5 -1.5l-1.5 -1.5
c-4.66699 -6 -9.16699 -14 -13.5 -24s-6.5 -21.333 -6.5 -34c0 -23.3359 5.83301 -40.6689 17.5 -52c11.667 -11.3369 24.5 -20.6699 38.5 -27.999c3.33301 -1.33301 6.33301 -2.83301 9 -4.5s5.66699 -3.16699 9 -4.5c0.666992 0 1.33398 -0.166992 2.00098 -0.5
s1.33398 -0.833008 2.00098 -1.5l191 -100c6.66699 -3.33301 14.667 -8 24 -14s19 -13.333 29 -22c18 -16 34.333 -36.333 49 -61s22 -54.334 22 -89.001c0 -56.667 -23.667 -107.834 -71 -153.501s-114.333 -68.5 -201 -68.5l-10 -1
c-26.667 0.666992 -57.334 3.33398 -92 8.00098c-34.667 4.66699 -72.667 16.334 -114 35.001v-29h-10h-47l-17 196h10h44c0.666992 -46 23 -84.333 67 -115s92 -48 144 -52c3.33301 -0.666992 6.33301 -1 9 -1h8c36 1.33301 66.5 12.333 91.5 33s37.5 48.334 37.5 83.001
c0 23.333 -5.33301 42.333 -16 57c-10.668 14.667 -22.335 26.667 -35 36c-6.66699 4 -13 7.66699 -19 11s-11.333 6.33301 -16 9l-181 95c-39.333 20.667 -69.666 44.834 -90.999 72.501s-32 61.5 -32 101.5c0 6 0.333008 12 1 18l2 18c8 40 31.5 76.667 70.5 110
s100.5 50 184.5 50h10c20 0 39 -1.16699 57 -3.5s35.667 -5.83301 53 -10.5c10.667 -2.66699 21.167 -5.83398 31.5 -9.50098c10.334 -3.66699 21.167 -7.5 32.499 -11.5v21h10h47v-184h-10h-47v0z" />
    <glyph glyph-name="T" unicode="T" horiz-adv-x="631" 
d="M649 530l-44.9961 0.00683594v29c0 16.667 -9.33301 33 -28 49s-39 29 -61 39c-12 5.33301 -23.333 9.66602 -34 12.999c-10.6689 3.33301 -20.3359 5.33301 -29.001 6c-4 -0.666992 -7.33301 -2.33398 -10 -5.00098s-4.66699 -5.33398 -6 -8.00098
c-0.666992 -1.35352 -1.16699 -2.68652 -1.5 -4c-0.333008 -1.35352 -0.5 -2.68652 -0.5 -4v-564c0 -19.333 3.33301 -30.666 10 -33.999s15 -5 25 -5h1.5h1.5h46v-42h-10h-325v42h46h1.5h1.5c10 0 18.333 1.66699 25 5s10 14.666 10 33.999v564
c0 1.33301 -0.166992 2.66602 -0.5 3.99902s-0.833008 2.66602 -1.5 3.99902c-1.33301 2.68652 -3.33301 5.35352 -6 8c-2.66699 2.68652 -6.33398 4.35352 -11.001 5c-6.66699 -0.666992 -13.5 -1.83398 -20.5 -3.50098s-14.167 -3.83398 -21.5 -6.50098
c-16.667 -6.66699 -32.834 -15.167 -48.501 -25.5s-28.834 -20.833 -39.501 -31.5c-6.66699 -7.33301 -11.834 -14.333 -15.5 -21c-3.66699 -6.66699 -5.5 -13 -5.5 -19v-29h-10h-45v178h10h607v-178h-10v0z" />
    <glyph glyph-name="U" unicode="U" horiz-adv-x="850" 
d="M293 627l0.000976562 -314.998c0 -11.333 0.166992 -22.833 0.5 -34.5s0.833008 -23.167 1.5 -34.5c4 -50 19.167 -96 45.5 -138c26.334 -42 80.167 -63.667 161.5 -65c51.333 0.666992 89.333 15 114 43c24.6689 28 41.3359 58.667 50 92
c6 20.667 9.66699 40.834 11 60.5c1.33301 19.667 2 35.834 2 48.501v204c0 47.333 -2.83301 83.166 -8.5 107.499s-11.834 41.833 -18.501 52.5c-6 8.67676 -11.667 13.8438 -17 15.5c-5.33789 1.66699 -8.6709 2.5 -9.99902 2.5h-36v42h10h223v-42h-39
c-11.333 0 -20.333 -12.333 -27 -37s-11.334 -52 -14.001 -82c-2.66699 -25.334 -4.5 -49.001 -5.5 -71c-1 -22 -1.5 -36.667 -1.5 -44v-151c0 -16.667 -0.5 -35 -1.5 -55s-4.16699 -40.667 -9.5 -62c-11.333 -44.667 -37.333 -85.334 -78 -122.001
s-110.334 -55 -209.001 -55l-10 -1c-95.333 0.666992 -163.666 19.667 -204.999 57s-68.333 78.666 -81 123.999c-7.33398 24.667 -11.667 48.667 -13 72c-1.33301 23.334 -2 43.667 -2 61v327c0 19.333 -3.33301 30.666 -10 33.999s-15 5 -25 5h-1.5h-1.5h-46v42h10h325
v-42h-46h-1.5h-1.5c-10 0 -18.333 -1.66699 -25 -5c-6.66699 -3.33789 -10 -14.6709 -10 -33.999v0z" />
    <glyph glyph-name="V" unicode="V" horiz-adv-x="792" 
d="M119 606c-10.667 27.333 -19.999 44.168 -27.999 50.501s-15.667 9.5 -23 9.5h-5.5h-4.5h-30v42h10h325v-42h-43c-11.333 0 -19.5 -2.16699 -24.5 -6.5s-7.83301 -8.83301 -8.5 -13.5v-1.5v-1.5c0 -0.666992 0.5 -2.83398 1.5 -6.50098s2.16699 -7.5 3.5 -11.5v-1l1 -1
c0.666992 -4 1.66699 -7.66699 3 -11s2 -5.33301 2 -6l149 -399l78 187c4 9.33301 8.5 20.833 13.5 34.5s9.83301 28.5 14.5 44.5c2.66699 7.33301 5 14.333 7 21s4 13.667 6 21c7.33301 24 13.5 47 18.5 69s7.5 39.333 7.5 52c0 12 -2.5 19.833 -7.5 23.5
c-5 3.68652 -10.5 5.85352 -16.5 6.5h-4.5h-5.5h-0.5h-1.5h-42v42h10h247v-42h-22c-2 0 -3.66699 -0.166992 -5 -0.5s-3 -0.5 -5 -0.5c-16.667 -4.66699 -36.334 -27.5 -59.001 -68.5s-60.667 -122.833 -114 -245.5l-160 -365h-10h-43l-234 620v0z" />
    <glyph glyph-name="W" unicode="W" horiz-adv-x="1120" 
d="M566 384l-166.002 -398h-10h-44l-218 595l-2 6l-2 6c-7.33301 20 -15.5 37.167 -24.5 51.5s-23.167 21.5 -42.5 21.5h-29v42h10h303v-42h-34c-7.33301 0 -14.166 -1.16699 -20.499 -3.5c-6.33301 -2.33789 -9.5 -10.1709 -9.5 -23.499
c0 -2.66699 0.333008 -5.16699 1 -7.5s1.33398 -4.5 2.00098 -6.5c0.666992 -2.66699 1.5 -5 2.5 -7l3.5 -7c0 -0.666992 0.166992 -1.5 0.5 -2.5s0.833008 -1.83301 1.5 -2.5l149 -399l103 252l-51 147c-0.666992 1.33301 -1.16699 2.83301 -1.5 4.5
s-0.833008 3.16699 -1.5 4.5c-6 16 -12.667 28.5 -20 37.5s-18.666 13.5 -33.999 13.5h-28v42h10h303v-42h-40c-8.66699 0 -15.834 -1.83301 -21.501 -5.5s-8.5 -9.5 -8.5 -17.5c0 -3.33301 0.666992 -7.5 2 -12.5s4 -13.167 8 -24.5l139 -398l84 221
c25.333 66 40.333 113.667 45 143s7 50 7 62c0 15.333 -3 24.5 -9 27.5s-14.667 4.5 -26 4.5h-39v42h10h231v-42h-21c-12.667 0 -29 -14.833 -49 -44.5s-54.667 -104.834 -104 -225.501l-168 -410h-10h-40l-141 398v0z" />
    <glyph glyph-name="X" unicode="X" horiz-adv-x="796" 
d="M321 621l112.004 -172.996c5.33691 7.33301 12.6699 17.333 22 30c9.33301 12.667 19.333 26.334 30 41.001c2 4 4.33301 8 7 12l8 12c12 18.667 22.5 36.667 31.5 54s13.5 30.666 13.5 39.999c0 8.66699 -2.16699 15.667 -6.5 21c-4.33691 5.33301 -10.1699 8 -17.499 8
h-46v42h10h261v-42h-26h-7h-6h-2.5h-2.5c-9.33301 -0.666992 -20 -5.66699 -32 -15s-31.333 -30.333 -58 -63l-151 -182l195 -297c21.333 -31.333 40.666 -50.333 57.999 -57s31 -10 41 -10h19v-42h-10h-336v42h54h4c1.33398 0 2.66699 0.333008 3.99902 1
c2.66699 0 5.16699 0.666992 7.5 2s3.83301 3.33301 4.5 6v5l-3 7l-138 210l-19 -26c-4 -5.33301 -10.5 -15 -19.5 -29s-18.833 -29.667 -29.5 -47c-1.33301 -2.66699 -2.83301 -5.33398 -4.5 -8.00098s-3.5 -5.33398 -5.5 -8.00098
c-10.668 -19.333 -20.335 -37.5 -29.001 -54.5c-8.66699 -17 -13 -28.833 -13 -35.5s1.66699 -11.834 5 -15.501s7 -5.83398 11 -6.50098c0.666992 -0.666992 1.33398 -1 2.00098 -1h2h70v-42h-10h-287v42h29h4h4c6 0.666992 12.333 3 19 7s16.334 11.667 29.001 23
c21.333 19.333 40.166 38 56.499 56s29.166 32.667 38.499 44l118 146l-186 281c-2 3.33301 -4.33301 6.83301 -7 10.5s-5.33398 7.16699 -8.00098 10.5c-8.66699 12 -18.5 22.667 -29.5 32s-23.833 14 -38.5 14h-29v42h10h354v-42h-46c-10.667 0 -19.5 -2.33301 -26.5 -7
s-10.5 -12 -10.5 -22c0 -4 0.666992 -7.16699 2 -9.5c1.33789 -2.33301 2.6709 -4.5 3.99902 -6.5v0z" />
    <glyph glyph-name="Y" unicode="Y" horiz-adv-x="787" 
d="M312 268l-187.001 330.001c-6 10 -11.167 18.667 -15.5 26s-8.83301 13.666 -13.5 18.999c-7.33301 9.33301 -15.333 15.5 -24 18.5s-21 4.5 -37 4.5h-7v42h10h326v-42h-41c-12.668 0 -21.335 -1.66699 -26 -5c-4.66699 -3.34375 -7.66699 -8.67676 -9 -16v-2v-1v-2v-2
v-3c0.666992 -4 2.66699 -9.16699 6 -15.5c3.33789 -6.33301 6.6709 -12.833 10 -19.5c0.666992 0 1 -0.166992 1 -0.5v-1.5c1.33301 -1.33301 2.5 -2.83301 3.5 -4.5s1.83301 -3.5 2.5 -5.5l140 -252l49 79c4.66699 8 10.334 18 17.001 30c6.6709 12 13.3379 25 20.001 39
l10 22c3.33301 7.33301 6.66602 15 9.99902 23c8.6709 19.333 15.8379 38.333 21.5 57c5.66699 18.6689 8.5 34.3359 8.5 47c0 10 -1.5 17.333 -4.5 22s-6.5 7.66699 -10.5 9c-2.66699 0.666992 -5.16699 1.16699 -7.5 1.5c-2.35059 0.333008 -4.18359 0.5 -5.5 0.5h-59v42
h10h256v-42h-20h-4c-1.33887 0 -2.67188 -0.333008 -4 -1c-12.667 -2.66699 -27.167 -14.667 -43.5 -36c-16.333 -21.335 -43.5 -63.668 -81.5 -127l-134 -226v-195c0 -19.333 3.33301 -30.666 10 -33.999s15 -5 25 -5h1.5h1.5h46v-42h-10h-325v42h46h1.5h1.5
c10 0 18.333 1.66699 25 5s10 14.666 10 33.999v187v0z" />
    <glyph glyph-name="Z" unicode="Z" horiz-adv-x="656" 
d="M588 195l40 -0.000976562l-21 -195h-10h-555v42l393 624h-41c-66 0 -123.833 -9.66699 -173.5 -29s-75.5 -45.333 -77.5 -78v-6.5v-4.5c0 -1.33301 -0.166992 -2.5 -0.5 -3.5s-0.5 -2.5 -0.5 -4.5h-10h-45l18 168h10h513v-48l-394 -618h52
c117.333 0 193.333 11.833 228 35.5s56 62.834 64 117.501h10v0z" />
    <glyph glyph-name="bracketleft" unicode="[" horiz-adv-x="460" 
d="M354 728v-42h-58h-1.5h-1.5c-10 0 -18.333 -1.66699 -25 -5c-6.66699 -3.33398 -10 -14.667 -10 -34v-773c0 -18.667 3.33301 -29.667 10 -33s15 -5 25 -5h1.5h1.5l58 -1v-42h-10h-238v935h10h238v0z" />
    <glyph glyph-name="backslash" unicode="\" horiz-adv-x="1101" 
d="M901 -207l-795 935h10h84l795 -935h-10h-84v0z" />
    <glyph glyph-name="bracketright" unicode="]" horiz-adv-x="460" 
d="M116 728l238 0.00195312v-935h-10h-238v42h57c0.666992 0.666992 1.16699 1 1.5 1h1.5c10 0 18.333 1.66699 25 5s10 14.666 10 33.999v772c0 19.333 -3.33301 30.666 -10 33.999s-15 5 -25 5h-1.5h-1.5h-57v42h10v0z" />
    <glyph glyph-name="asciicircum" unicode="^" horiz-adv-x="424" 
d="M212 611l-76 -76h-10h-84l165 165h10l165 -165h-10h-84l-76 76v0z" />
    <glyph glyph-name="underscore" unicode="_" horiz-adv-x="590" 
d="M10 -112h580v-84h-10h-580v84h10v0z" />
    <glyph glyph-name="grave" unicode="`" horiz-adv-x="309" 
d="M260 600l-25.998 -17.999h-10l-120 108c-3.33301 2.66699 -7 5.66699 -11 9s-8 7 -12 11c-6 4.66699 -11.5 9.66699 -16.5 15s-8.83301 10.666 -11.5 15.999c-1.33301 2.66699 -2.33301 5.16699 -3 7.5s-1 4.83301 -1 7.5v2.5v2.5
c1.33301 13.333 7.16602 25.5 17.499 36.5s23.166 16.5 38.499 16.5h10c12.667 0 23.167 -5 31.5 -15s15.833 -20.667 22.5 -32c2 -4 4 -8.16699 6 -12.5c2 -4.34473 4 -8.17773 6 -11.5l79 -143v0z" />
    <glyph glyph-name="a" unicode="a" horiz-adv-x="524" 
d="M478 84l28.999 -11.002c-7.33301 -21.333 -18.833 -40.5 -34.5 -57.5s-38.167 -25.5 -67.5 -25.5l-10 -1c-22 0.666992 -39.667 5.83398 -53 15.501s-23.333 20.834 -30 33.501c-0.671875 1.33301 -1.33887 2.83301 -2.00098 4.5
c-0.671875 1.66699 -1.33887 3.16699 -2.00098 4.5c-18.667 -16 -39 -28.667 -61 -38s-44.333 -15.333 -67 -18c-4 0 -7.83301 -0.166992 -11.5 -0.5s-7.5 -0.5 -11.5 -0.5l-10 -1c-35.333 0.666992 -63.166 11.667 -83.499 33s-31.833 45 -34.5 71
c-0.666992 2 -1 4.16699 -1 6.5v6.5c0 56.667 26.667 97 80 121s117.666 43.333 192.999 58v71c0 28 -5.5 48.333 -16.5 61s-23.167 21 -36.5 25c-3.33301 1.33301 -6.83301 2.33301 -10.5 3s-7.16699 1 -10.5 1c-2 0 -4.16699 -0.333008 -6.5 -1
c-2.33301 -0.667969 -4.83301 -1.33496 -7.5 -2c-5.33398 -2 -10.167 -5.83301 -14.5 -11.5s-6.5 -14.5 -6.5 -26.5c0 -4.67285 0.166992 -7.83984 0.5 -9.5c0.333008 -1.67871 0.833008 -2.8457 1.5 -3.5c0.666992 -0.666992 1.16699 -1.66699 1.5 -3
s0.5 -4.66602 0.5 -9.99902c0 -22.667 -6.66699 -39.5 -20 -50.5s-28.666 -16.5 -45.999 -16.5h-10c-19.333 0 -34.833 6.33301 -46.5 19s-17.5 27.667 -17.5 45c0 6 0.833008 12.5 2.5 19.5s4.5 14.5 8.5 22.5c8.66699 16 24.834 30.667 48.501 44s59.5 20 107.5 20h10
c57.334 0 100.167 -9.5 128.5 -28.5s47.833 -40.167 58.5 -63.5c5.33301 -10.668 9 -21.335 11 -32c2 -10.668 3 -20.335 3 -29v-245c0 -6.66699 0.666992 -12.5 2 -17.5s4.33301 -8.16699 9 -9.5c3.33301 1.33301 6.83301 4.16602 10.5 8.49902s7.83398 10.5 12.501 18.5
h10v0zM300.999 92.998v156c-6.66797 -1.33301 -13.835 -3.5 -21.501 -6.5c-7.66699 -3 -15.5 -6.5 -23.5 -10.5c-18.667 -10 -35.834 -24.333 -51.501 -43s-23.5 -43.334 -23.5 -74.001c0 -14.667 2.83301 -26.167 8.5 -34.5s11.834 -14.166 18.5 -17.499
c4 -2 8 -3.5 12 -4.5l10 -2.5c4 0.666992 8.33301 1.5 13 2.5c4.66797 1 9.33496 2.5 14.001 4.5c8.66699 3.33301 16.834 7.5 24.501 12.5s14.167 10.833 19.5 17.5v0z" />
    <glyph glyph-name="b" unicode="b" horiz-adv-x="574" 
d="M206 781l-0.000976562 -333c24.667 14 46.5 23.167 65.5 27.5s37.5 6.5 55.5 6.5h10c8.66699 0 17.334 -0.666992 26.001 -2s17.334 -3 26.001 -5c38 -11.333 72.667 -35.333 104 -72s47 -90.334 47 -161v-9.5c0 -3 -0.333008 -6.16699 -1 -9.5
c-4 -58.667 -26.333 -112.167 -67 -160.5s-96 -72.5 -166 -72.5l-10 -1c-20.667 0.666992 -43.334 3.16699 -68.001 7.5s-50.667 16.833 -78 37.5l-47 -34h-10h-20v665v4v4v1.5v1.5c0 4.66699 -1.66699 9.16699 -5 13.5s-11 6.5 -23 6.5h-23v29c6 1.33301 11.667 2.5 17 3.5
s10.333 2.16699 15 3.5c8.66699 2 16.667 4 24 6l22 6c14 4 28.333 9 43 15s32.334 13.333 53 22h10v0zM205.999 404v-335.998c6.66699 -12.667 16 -22.667 28 -30s24.667 -11.666 38 -12.999c29.333 1.33301 55.833 18.166 79.5 50.499s35.5 88.166 35.5 167.499
c0 6.66699 -0.166992 13.5 -0.5 20.5s-0.833008 13.833 -1.5 20.5c-2.66797 34.667 -11.335 66.667 -26 96c-14.667 29.334 -41.334 44.667 -80 45.999h-4.5c-1.66699 0 -3.5 -0.333008 -5.5 -1c-11.333 -1.33301 -22.5 -3.83301 -33.5 -7.5s-20.833 -8.16699 -29.5 -13.5v0
z" />
    <glyph glyph-name="c" unicode="c" horiz-adv-x="522" 
d="M447 159l39 -11.0049c-14.667 -41.333 -32.5 -72.833 -53.5 -94.5s-42.5 -37.5 -64.5 -47.5c-16.667 -6.66699 -33.167 -11 -49.5 -13s-31.166 -3 -44.499 -3l-10 -1c-64.667 0.666992 -118.834 21.667 -162.501 63s-65.5 98.333 -65.5 171c0 69.333 23 129.833 69 181.5
s111 77.5 195 77.5h10c48.667 0 86.5 -11.167 113.5 -33.5s40.5 -47.833 40.5 -76.5c0 -22.667 -7 -40.334 -21 -53c-14 -12.667 -29.667 -19 -47 -19h-10c-18 0 -34.333 4.66699 -49 14s-22 22.333 -22 39v4v4v4v4v3.5v3.5c0 0.666992 0.166992 1.66699 0.5 3
s0.5 2.33301 0.5 3c0 1.33301 0.166992 2.5 0.5 3.5s0.833008 1.83301 1.5 2.5c0 0.666992 0.166992 1.33398 0.5 2.00098s0.5 1.33398 0.5 2.00098c1.33301 3.33301 2.33301 6.83301 3 10.5s1 6.83398 1 9.50098c0 1.33691 -0.166992 2.66992 -0.5 4
c-0.333008 1.33301 -0.5 3 -0.5 5c-1.33301 5.33301 -4.33301 10.333 -9 15s-10.667 7.33398 -18 8.00098c-3.33301 0 -6.5 -0.333008 -9.5 -1s-5.83301 -1.66699 -8.5 -3c-22 -7.33301 -42.167 -27.166 -60.5 -59.499s-27.5 -81.833 -27.5 -148.5
c0 -55.333 8.16699 -96.5 24.5 -123.5s34.166 -45.167 53.499 -54.5c7.33301 -3.33301 14.5 -5.83301 21.5 -7.5s13.5 -2.5 19.5 -2.5c8.66699 0.666992 17.834 2.16699 27.501 4.5s19.5 6.5 29.5 12.5c13.333 8 26.333 19.833 39 35.5s23.667 36.5 33 62.5h10v0z" />
    <glyph glyph-name="d" unicode="d" horiz-adv-x="577" 
d="M370 32c-12 -10.667 -27.002 -20.333 -45.002 -29s-40 -13 -66 -13l-10 -1c-58.667 0.666992 -109.167 22 -151.5 64s-63.5 99.333 -63.5 172c0 84 24.333 146.833 73 188.5s102.334 64.5 161.001 68.5h8h8h10c14.667 0 28 -1 40 -3s22.667 -4.66699 32 -8v206v2v2v1v2
v1.5v1.5c0 4.66699 -1.66699 9.16699 -5 13.5s-11 6.5 -23 6.5h-23v29c1.33301 0 2.83301 0.166992 4.5 0.5s3.5 0.833008 5.5 1.5c12.667 2.66699 24.834 5.5 36.501 8.5s23.167 6.16699 34.5 9.5c14 4 28.5 9 43.5 15s31.5 13 49.5 21h10v-730
c0 -13.333 2.66699 -21.333 8 -24s11 -4 17 -4h1.5h1.5h0.5h1.5h26v-34h-10h-153l-22 32v0zM365.998 75.001v330.001c-2.66699 10.667 -8.16699 19 -16.5 25s-17.5 10.333 -27.5 13c-2.66699 0.666992 -5.16699 1.33398 -7.5 2.00098s-4.83301 1 -7.5 1
c-6 -0.680664 -12.5 -1.84766 -19.5 -3.50098c-7 -1.66699 -14.167 -4.16699 -21.5 -7.5c-19.333 -10.667 -37.333 -30.834 -54 -60.5c-16.667 -29.667 -25 -75.834 -25 -138.501c0 -68.667 11.333 -117 34 -145s49 -42.667 79 -44c13.333 0.666992 24.833 3.16699 34.5 7.5
s17.5 8.83301 23.5 13.5c1.33398 1.33301 2.66699 2.5 4 3.5c1.33496 1 2.66797 2.16699 4 3.5v0z" />
    <glyph glyph-name="e" unicode="e" horiz-adv-x="518" 
d="M481 267h-291.999v-51c0 -50.667 7.5 -88.167 22.5 -112.5s31.5 -40.5 49.5 -48.5c8.66699 -4.66699 17.167 -7.83398 25.5 -9.50098s15.833 -2.5 22.5 -2.5c28 1.33301 52.667 9.5 74 24.5s42 35.5 62 61.5h10l27 -19c-18.667 -31.333 -45 -59.166 -79 -83.499
s-76.667 -36.5 -128 -36.5l-10 -1c-60.667 0.666992 -114 21.167 -160 61.5s-69 98.833 -69 175.5c0 80 23.5 142.667 70.5 188s101.833 68 164.5 68h10c8.66699 0 17.667 -0.5 27 -1.5c9.33496 -1 18.668 -2.5 28 -4.5c34.667 -8 66.667 -27.333 96 -58
c29.334 -30.667 45.667 -81 48.999 -151v0zM189.001 301l149.001 -0.000976562v9.5v8.5c-0.666992 31.333 -5.5 59.833 -14.5 85.5s-27.167 39.5 -54.5 41.5c-23.334 -1.33301 -40.667 -12.5 -52 -33.5s-19 -43.833 -23 -68.5
c-1.33301 -7.33301 -2.33301 -14.666 -3 -21.999s-1.33398 -14.333 -2.00098 -21v0z" />
    <glyph glyph-name="f" unicode="f" horiz-adv-x="402" 
d="M89 426l-60.9971 0.00488281v44h61c11.333 101.333 37.666 175.333 78.999 222s85.333 70 132 70h10c32 0 57.667 -9 77 -27s29 -38.667 29 -62c0 -16.667 -6.16699 -31.334 -18.5 -44.001s-27.833 -19 -46.5 -19h-10c-18.667 0 -33.667 5.83301 -45 17.5
s-17 24.5 -17 38.5v4v5c0 1.33301 0.166992 2.66602 0.5 3.99902s0.5 2.66602 0.5 3.99902c1.33301 6 2.33301 11.167 3 15.5s1 8.16602 1 11.499s-1.16699 6 -3.5 8s-5.83301 3.33301 -10.5 4c-12 -2.66699 -21.333 -14.167 -28 -34.5s-11.334 -42.5 -14.001 -66.5
c-2.66699 -16.667 -4.33398 -32.834 -5.00098 -48.501s-1 -28.167 -1 -37.5v-65h134v-44h-134v-364c0 -13.333 2.66699 -21.333 8 -24s11 -4 17 -4h1.5h1.5h0.5h1.5h26v-34h-10h-235v34h26h1.5h0.5h1.5h1.5c6 0 11.667 1.33301 17 4s8 10.667 8 24v364v0z" />
    <glyph glyph-name="g" unicode="g" horiz-adv-x="574" 
d="M234 97l153.992 -37.001c7.33301 -2 15.833 -4.5 25.5 -7.5s19.5 -6.83301 29.5 -11.5c20 -9.33301 38.5 -22.833 55.5 -40.5s25.5 -41.834 25.5 -72.501c0 -8.66699 -1.16699 -18.167 -3.5 -28.5c-2.34082 -10.333 -6.17383 -20.833 -11.499 -31.5
c-12.667 -24.667 -37.167 -47.334 -73.5 -68.001s-91.833 -31 -166.5 -31l-10 -1c-82 0.666992 -141 13.834 -177 39.501s-56.333 53.834 -61 84.501c0 2.66699 -0.166992 5.16699 -0.5 7.5s-0.5 4.83301 -0.5 7.5c0 28 12 51.5 36 70.5s51.333 30.167 82 33.5
c-15.333 7.33301 -27.166 17.666 -35.499 30.999s-12.5 28 -12.5 44c0 13.333 3.66699 24.666 11 33.999s15.333 16.666 24 21.999c6.66699 4.66699 13.167 8.16699 19.5 10.5s10.833 3.83301 13.5 4.5c-5.33398 2.66797 -11.167 5.83496 -17.5 9.5
c-6.33301 3.66699 -12.833 8.16699 -19.5 13.5c-17.333 12.667 -33 30 -47 52s-21 50 -21 84c0 50 20.833 90.167 62.5 120.5s95.834 45.5 162.501 45.5h10c21.333 0 40.333 -2 57 -6s32.334 -10 47.001 -18c2.66699 5.33301 5.5 10.5 8.5 15.5s5.83301 9.83301 8.5 14.5
c12 18 24.333 31.167 37 39.5s27.667 12.5 45 12.5h10c16.6709 0 29.3379 -4.33301 38.001 -13c8.6748 -8.66699 14.3418 -18.334 17 -29.001c0 -2 0.166992 -4 0.5 -6s0.5 -4 0.5 -6c0 -14 -3 -25 -9 -33s-12.667 -13.333 -20 -16
c-2 -1.33301 -4.16699 -2.16602 -6.5 -2.49902s-4.5 -0.5 -6.5 -0.5h-10c-8 0 -15.167 1.5 -21.5 4.5s-11.833 6.16699 -16.5 9.5c-0.666992 0.666992 -1.5 1.33398 -2.5 2.00098s-1.83301 1.33398 -2.5 2.00098c-2.66699 2.66699 -5.16699 4.83398 -7.5 6.50098
s-4.16602 2.83398 -5.49902 3.50098c-5.33301 -0.666992 -10.166 -3.16699 -14.499 -7.5s-7.16602 -10.166 -8.49902 -17.499c21.333 -12.667 39 -30.5 53 -53.5s21 -50.5 21 -82.5c0 -50.667 -20 -91.334 -60 -122.001s-94.333 -46 -163 -46h-10
c-11.333 0 -20.833 0.5 -28.5 1.5s-14.167 2.16699 -19.5 3.5c-4 0.667969 -7.33301 1.33496 -10 2.00098c-2.66699 0.667969 -5 1.33496 -7 2.00098c-3.33301 -0.666992 -6 -2.83398 -8 -6.50098s-3.33301 -7.5 -4 -11.5v-1.5v-1.5c0 -5.33301 2.66699 -9.5 8 -12.5
s11.333 -5.5 18 -7.5c3.33301 -0.666992 6.5 -1.33398 9.5 -2.00098s5.83301 -1.33398 8.5 -2v0zM350.992 -51.001l-172.004 44.9971c-14.667 -5.33301 -27 -13.666 -37 -24.999s-16 -23.333 -18 -36c-0.666992 -1.33301 -1 -2.83301 -1 -4.5v-4.5
c0 -3.33301 0.166992 -6.66602 0.5 -9.99902s0.5 -6.33301 0.5 -9c3.33301 -25.333 15.333 -48.666 36 -69.999s58.334 -32.333 113.001 -33c40.667 0.666992 70.834 6.5 90.501 17.5s33.167 23.167 40.5 36.5c2.66699 6 4.66699 12 6 18s2 11.333 2 16
c0 14.667 -3.66699 26 -11 34s-15.666 14 -24.999 18c-4.66699 2 -9.16699 3.66699 -13.5 5s-8.16602 2.33301 -11.499 3v-1zM191.988 297.996c0 -39.333 5.83203 -68 17.499 -86s24.5 -30 38.5 -36c4.66699 -2.66699 9.5 -4.5 14.5 -5.5s9.5 -1.5 13.5 -1.5
c30.667 1.33301 51.667 13.5 63 36.5s18 48.5 20 76.5c0.666992 4.66699 1.16699 9.5 1.5 14.5s0.5 9.83301 0.5 14.5v7.5v7.5v6.5v7.5c-1.33301 35.334 -9.66602 61.667 -24.999 79s-33.333 26.333 -54 27c-28 -1.33301 -50 -14.333 -66 -39s-24 -61 -24 -109v0z" />
    <glyph glyph-name="h" unicode="h" horiz-adv-x="583" 
d="M223 778l-0.000976562 -338.002c25.333 11.333 48.833 21 70.5 29s42.834 12 63.501 12h10c39.334 0 72.167 -12.5 98.5 -37.5s39.5 -59.5 39.5 -103.5v-278c0 -13.333 2.66699 -21.333 8 -24s11 -4 17 -4h1.5h1.5h0.5h1.5h26v-34h-10h-235v34h26h1.5h0.5h1.5h1.5
c6 0 11.667 1.33301 17 4s8 10.667 8 24v266c0 25.334 -4.66699 44.167 -14 56.5s-19.333 20.833 -30 25.5c-6 2.66699 -12 4.5 -18 5.5s-11 1.5 -15 1.5c-4.66699 0 -10 -0.666992 -16 -2s-12 -3 -18 -5c-2.66699 -0.672852 -5.16699 -1.33984 -7.5 -2
c-2.33301 -0.672852 -4.83301 -1.33984 -7.5 -2c-4.66699 -1.33301 -9 -2.66602 -13 -3.99902s-7.33301 -2.66602 -10 -3.99902v-336c0 -13.333 2.66699 -21.333 8 -24s11 -4 17 -4h1.5h1.5h0.5h1.5h26v-34h-10h-235v34h26h1.5h0.5h1.5h1.5c6 0 11.667 1.33301 17 4
s8 10.667 8 24v600v4v4v1.5v1.5c0 4.66699 -1.66699 9.16699 -5 13.5s-11 6.5 -23 6.5h-23v29c6 1.33301 11.667 2.5 17 3.5s10.333 2.16699 15 3.5c8.66699 2 16.667 4 24 6l22 6c14 4 28.333 9 43 15s32.334 13.333 53 22h10v0z" />
    <glyph glyph-name="i" unicode="i" horiz-adv-x="345" 
d="M106 62l0.000976562 302.999c0 12 -2 20 -6 24s-8.33301 6.33301 -13 7h-3.5h-3.5h-26v30c14.667 2 30.167 5 46.5 9s32.833 8.66699 49.5 14c13.333 4.66699 26.666 9.83398 39.999 15.501s26.333 11.5 39 17.5h10v-420c0 -13.333 2.66699 -21.333 8 -24s11 -4 17 -4
h1.5h1.5h0.5h1.5h26v-34h-10h-235v34h26h1.5h0.5h1.5h1.5c6 0 11.667 1.33301 17 4s8 10.667 8 24v0zM239.001 648.999c0 -20 -6.83301 -37 -20.5 -51s-30.5 -21 -50.5 -21h-10c-20 0 -36.833 7 -50.5 21s-20.5 31 -20.5 51c0 19.333 6.66699 35.833 20 49.5
s30.333 20.5 51 20.5h10c21.333 0 38.5 -6.83301 51.5 -20.5s19.5 -30.167 19.5 -49.5v0z" />
    <glyph glyph-name="j" unicode="j" horiz-adv-x="357" 
d="M287 482l0.00195312 -360.999c0 -106.667 -13.333 -184.334 -40 -233.001s-56.334 -80.667 -89.001 -96c-12 -6 -23.833 -10 -35.5 -12s-22.5 -3 -32.5 -3l-10 -1c-26 0.666992 -48 8.66699 -66 24s-27 35.333 -27 60c0 19.333 5.66699 34.666 17 45.999s25.333 17 42 17
l10 -1c13.333 0.666992 24.333 -1.66602 33 -6.99902s15.334 -11 20.001 -17c1.33301 -2 2.5 -4 3.5 -6s1.83301 -4 2.5 -6c1.33496 -2.66699 2.16797 -5.5 2.5 -8.5c0.333008 -2.99902 0.833008 -6.16602 1.5 -9.5c0 -1.33301 0.166992 -2.83301 0.5 -4.5
s0.5 -3.16699 0.5 -4.5c0.666992 -7.33301 1.66699 -14 3 -20c1.33398 -6 4.66699 -9.66699 10 -11c1.33301 0 2.66602 0.5 3.99902 1.5s2.66602 1.83301 3.99902 2.5c4 3.33301 7.5 8.66602 10.5 15.999s5.16699 17.333 6.5 30c0.666992 4.66699 1 9.16699 1 13.5v13.5v8.5
v8.5c0 3.33301 -0.166992 6.33301 -0.5 9s-0.5 5.66699 -0.5 9v2.5v3.5c-1.33301 16 -2.33301 32.5 -3 49.5s-1 37.167 -1 60.5v309c0 14.667 -2.66699 23.5 -8 26.5s-11.333 4.5 -18 4.5h-1.5h-1.5h-23v30c12 1.33301 33.167 5.83301 63.5 13.5s67.5 21.834 111.5 42.501
h10v0zM287.002 605.001c0 -21.3359 -7.33301 -39.1689 -22 -53.5c-14.667 -14.333 -32 -21.5 -52 -21.5h-10c-21.333 0 -39.166 7.5 -53.499 22.5s-21.5 32.5 -21.5 52.5s7.16699 37.333 21.5 52s32.166 22 53.499 22h10c20 0 37.333 -7 52 -21s22 -31.667 22 -53v0z" />
    <glyph glyph-name="k" unicode="k" horiz-adv-x="573" 
d="M211 228l79.001 104.994c2.66699 4 5.66699 8 9 12l10 12c1.33789 2 2.6709 3.83301 3.99902 5.5c1.33789 1.66699 2.6709 3.5 3.99902 5.5c4.66699 6.66699 9 13.334 13 20.001s6.66699 12.667 8 18c0 0.666992 0.166992 1.33398 0.5 2.00098s0.5 1.33398 0.5 2.00098v1
v2l-1 6c-1.33301 4.66699 -3.16602 8.16699 -5.49902 10.5s-4.83301 3.83301 -7.5 4.5c-2 0.666992 -3.83301 1.16699 -5.5 1.5s-3.16699 0.5 -4.5 0.5h-26v34h10h211v-34h-16c-9.33301 0 -20.333 -2.5 -33 -7.5s-32.667 -22.167 -60 -51.5l-76 -79l161 -218
c1.33301 -1.33301 2.5 -2.83301 3.5 -4.5s1.83301 -3.16699 2.5 -4.5l1.5 -1.5c0.333008 -0.333008 0.5 -0.833008 0.5 -1.5c6 -8.66699 13 -16.5 21 -23.5s20.667 -10.5 38 -10.5v-34h-10h-228v34h6h4h4c4.66699 0.666992 9.16699 1.83398 13.5 3.50098
s6.5 5.16699 6.5 10.5c0 4.66699 -0.5 8.33398 -1.5 11.001s-2.5 5.33398 -4.5 8.00098l-0.5 1c-0.333008 0.666992 -0.833008 1.33398 -1.5 2.00098l-98 138l-32 -40v-106c0 -13.333 2.66699 -21.333 8 -24s11 -4 17 -4h1.5h1.5h0.5h1.5h26v-34h-10h-235v34h26h1.5h0.5h1.5
h1.5c6 0 11.667 1.33301 17 4s8 10.667 8 24v600c0 14.667 -2.66699 23.5 -8 26.5s-11.333 4.5 -18 4.5h-1.5h-1.5h-23v29c2.66699 0.688477 5.5 1.35547 8.5 2c3 0.666992 5.83301 1 8.5 1c11.333 2.66699 22 5.16699 32 7.5s20 5.16602 30 8.49902c14 4 28.5 9 43.5 15
s32.5 13.333 52.5 22h10v-550v0z" />
    <glyph glyph-name="l" unicode="l" horiz-adv-x="328" 
d="M52 693v29.001c14.667 2.66699 28.667 5.66699 42 9s26.333 6.66602 39 9.99902c14.667 4.66699 29.5 10 44.5 16s31.5 13 49.5 21h10v-716c0 -13.333 2.66699 -21.333 8 -24s11 -4 17 -4h1.5h1.5h0.5h1.5h26v-34h-10h-235v34h26h1.5h0.5h1.5h1.5
c6 0 11.667 1.33301 17 4s8 10.667 8 24v600c0 15.333 -2.66699 24.333 -8 27s-11.333 4 -18 4h-0.5h-1.5h-24v0z" />
    <glyph glyph-name="m" unicode="m" horiz-adv-x="817" 
d="M211 482l0.00195312 -41.0029c26.667 16.667 49.5 27.667 68.5 33s34.833 8 47.5 8h10c6.66699 0 13.5 -0.5 20.5 -1.5s14.167 -2.5 21.5 -4.5c10 -3.33301 20.333 -7.83301 31 -13.5s20.334 -13.167 29.001 -22.5c2.66699 2 5.5 4 8.5 6s5.83301 4 8.5 6
c25.333 14.667 49 23.334 71 26.001s36.667 4 44 4h10h2.5h3.5c38 -1.33301 72.833 -14.5 104.5 -39.5s47.5 -66.167 47.5 -123.5v-257c0 -13.333 2.66699 -21.333 8 -24s11 -4 17 -4h1.5h1.5h0.5h1.5h26v-34h-10h-224v34h15h1.5h0.5h1.5h1.5c6 0 11.667 1.33301 17 4
s8 10.667 8 24v240c0 35.333 -6.16699 61.166 -18.5 77.499c-12.3359 16.334 -26.1689 27.167 -41.5 32.5c-6 2 -12 3.5 -18 4.5s-11.667 1.5 -17 1.5c-11.333 -0.666992 -20.5 -2.16699 -27.5 -4.5s-13.5 -6.5 -19.5 -12.5c2.66699 -5.33301 4.66699 -10.166 6 -14.499
s2.33301 -8.83301 3 -13.5c1.33301 -5.33301 2 -10.666 2 -15.999v-17v-278c0 -13.333 2.66699 -21.333 8 -24s11 -4 17 -4h1.5h1.5h0.5h1.5h15v-34h-10h-213v34h15h1.5h0.5h1.5h1.5c6 0 11.667 1.33301 17 4s8 10.667 8 24v240c0 32.667 -4.66699 59.834 -14 81.501
s-31.333 33.167 -66 34.5c-10.667 -0.666992 -19.834 -2.66699 -27.501 -6s-14.167 -7 -19.5 -11c-0.666992 -0.666992 -1.33398 -1.16699 -2.00098 -1.5s-1.33398 -0.833008 -2.00098 -1.5v-336c0 -13.333 2.66699 -21.333 8 -24s11 -4 17 -4h1.5h1.5h0.5h1.5h14v-34h-10
h-223v34h26h1.5h0.5h1.5h1.5c6 0 11.667 1.33301 17 4s8 10.667 8 24v303v4v4v1.5v1.5c0 4.66699 -1.66699 9.16699 -5 13.5s-11 6.5 -23 6.5h-23v30c17.333 2.66699 40.833 8 70.5 16s64.167 21.333 103.5 40h10v0z" />
    <glyph glyph-name="n" unicode="n" horiz-adv-x="571" 
d="M211 482l-0.00195312 -42.001c23.333 10.667 44.833 19.834 64.5 27.501s39.167 12.167 58.5 13.5h5h6h10c38.667 0 71.334 -12.5 98.001 -37.5s40 -59.5 40 -103.5v-278c0 -13.333 2.66699 -21.333 8 -24s11 -4 17 -4h1.5h1.5h0.5h1.5h26v-34h-10h-224v34h15h1.5h0.5
h1.5h1.5c6 0 11.667 1.33301 17 4s8 10.667 8 24v240c0 37.334 -5.16699 65.667 -15.5 85s-31.166 29.333 -62.499 30c-4.66699 0 -10 -0.666992 -16 -2s-12 -3 -18 -5c-3.33301 -0.666992 -6.5 -1.5 -9.5 -2.5s-5.83301 -1.83301 -8.5 -2.5
c-3.33496 -1.33301 -6.66797 -2.5 -10 -3.5c-3.33301 -1 -6.33301 -2.16699 -9 -3.5v-336c0 -13.333 2.66699 -21.333 8 -24s11 -4 17 -4h1.5h1.5h0.5h1.5h14v-34h-10h-223v34h26h1.5h0.5h1.5h1.5c6 0 11.667 1.33301 17 4s8 10.667 8 24v303v4v4v1.5v1.5
c0 4.66699 -1.66699 9.16699 -5 13.5s-11 6.5 -23 6.5h-23v30c17.333 2.66699 40.833 8 70.5 16s64.167 21.333 103.5 40h10v0z" />
    <glyph glyph-name="o" unicode="o" horiz-adv-x="570" 
d="M36 235c0 68.667 21.5 126.999 64.5 174.999s102.833 72 179.5 72h10c33.334 0 65.667 -5.5 97 -16.5c31.334 -11 60.667 -31.5 88 -61.5c17.333 -20.667 31.5 -44.667 42.5 -72s16.5 -59.666 16.5 -96.999c0 -68.667 -21.333 -126.667 -64 -174s-102.667 -71 -180 -71
l-10 -1c-76.667 0.666992 -136.5 24.667 -179.5 72s-64.5 105.333 -64.5 174v0zM189 234.999c0 -12 0.166992 -25.332 0.5 -39.999s1.5 -29.667 3.5 -45c4 -30.667 12.667 -58.834 26 -84.501s35.333 -39.167 66 -40.5c33.333 2 56.5 17.333 69.5 46s20.833 59.667 23.5 93
c1.34473 12.667 2.17773 25 2.49902 37c0.333008 12 0.5 23.333 0.5 34c0 11.333 -0.166992 23.333 -0.5 36s-1.16602 25.667 -2.49902 39c-3.33301 32.667 -11.5 63 -24.5 91s-35.833 43 -68.5 45c-30.667 -1.33301 -52.5 -14.833 -65.5 -40.5s-21.5 -53.5 -25.5 -83.5
c-2.66699 -16 -4.16699 -31.5 -4.5 -46.5s-0.5 -28.5 -0.5 -40.5v0z" />
    <glyph glyph-name="p" unicode="p" horiz-adv-x="577" 
d="M81 -162l-0.00292969 516.997c0 20 -3.66699 32 -11 36s-15.333 6 -24 6h-1.5h-1.5h-0.5h-1.5h-15v34c8.66699 1.33984 17.334 3.17285 26.001 5.5c8.66699 2.33301 17.667 4.5 27 6.5c16 4.66699 31.833 9.83398 47.5 15.501s30.834 11.5 45.501 17.5
c5.33301 2 10.833 4.33301 16.5 7s10.834 5 15.5 7h10v-35c24 12.667 46.167 20.334 66.5 23.001s34.833 4 43.5 4h10c57.333 0 106.5 -22.5 147.5 -67.5s61.5 -105.833 61.5 -182.5c0 -76 -23.833 -135.333 -71.5 -178s-102.5 -64 -164.5 -64l-10 -1
c-15.333 0.666992 -29.666 2.33398 -42.999 5.00098c-13.334 2.66699 -26.667 6.33398 -40 11.001v-167c0 -12.667 2.66699 -20.334 8 -23.001s11 -4 17 -4h1.5h1.5h0.5h1.5l26 -1v-34h-10h-235v34h26c0.666992 0.666992 1.16699 1 1.5 1h0.5h1.5h1.5
c6 0 11.667 1.33301 17 4s8 10.667 8 24v-1zM213.997 410.997l-0.00195312 -336c4 -8.66699 8.66699 -15.834 14 -21.501s11 -10.5 17 -14.5c6.66797 -4 13.168 -7 19.5 -9c6.33301 -2 11.833 -3 16.5 -3h1.5h1.5c26.667 2 51 16.333 73 43s33 78.667 33 156
c0 55.333 -7.16699 103 -21.5 143s-46.166 60.667 -95.499 62c-6 -0.666992 -12.667 -1.66699 -20 -3c-7.33398 -1.33301 -14.667 -3.66602 -21.999 -6.99902c-2.66699 -1.33301 -5.5 -2.83301 -8.5 -4.5s-5.83301 -3.5 -8.5 -5.5v0z" />
    <glyph glyph-name="q" unicode="q" horiz-adv-x="574" 
d="M360 -168l0.000976562 177.002c-10.667 -5.33301 -22.667 -9.83301 -36 -13.5s-28.333 -5.5 -45 -5.5l-10 -1c-58.667 0.666992 -112.5 23.167 -161.5 67.5s-73.5 106.166 -73.5 185.499c0 13.333 1.16699 29 3.5 47s7.16602 36.667 14.499 56
c12.667 34 35.5 65.333 68.5 94s82.833 43 149.5 43h10c33.333 0 60.833 -3.33301 82.5 -10s40.167 -15 55.5 -25l23 35h10h42v-650c0 -12.667 2.66699 -20.334 8 -23.001s11 -4 17 -4h1.5h1.5h0.5h1.5l26 -1v-34h-10h-235v34h26c0.666992 0.666992 1.16699 1 1.5 1h0.5h1.5
h1.5c6 0 11.667 1.33301 17 4s8 10.667 8 24v-1zM360.001 53.002l0.00195312 370.001c-1.33301 1.33301 -2.83301 2.5 -4.5 3.5s-3.5 2.16699 -5.5 3.5c-6 4 -13.5 7.5 -22.5 10.5s-19.5 4.83301 -31.5 5.5c-44.667 -2 -73.834 -22.333 -87.501 -61
s-20.834 -81.334 -21.501 -128.001v-6.5v-7.5c0 -60.667 6.83301 -106.167 20.5 -136.5s28.834 -51.5 45.5 -63.5c8.66699 -6.66699 17.5 -11.167 26.5 -13.5s16.5 -3.83301 22.5 -4.5c5.33301 0 11 1 17 3s12.333 4.66699 19 8c3.33301 2 7 4.5 11 7.5
s7.66699 6.16699 11 9.5v0z" />
    <glyph glyph-name="r" unicode="r" horiz-adv-x="407" 
d="M211 482l0.000976562 -87.0029c12 24.667 28 45.334 48 62.001s41.333 25 64 25h10c19.333 0 36.5 -6.33301 51.5 -19s22.5 -31.667 22.5 -57c0 -18.667 -5.33301 -33.667 -16 -45s-22.334 -18 -35 -20h-2.5h-2.5h-10c-11.333 0 -20.833 1.66699 -28.5 5
s-13.5 7 -17.5 11c-2.66699 2.66699 -5 5.16699 -7 7.5c-2 2.33887 -3.33301 4.17188 -4 5.5c-0.666992 0.666992 -1.16699 1.66699 -1.5 3s-0.833008 2.33301 -1.5 3c-1.33301 2 -2.83301 4 -4.5 6s-3.5 3.33301 -5.5 4c-2.66699 -0.666992 -5.5 -2.16699 -8.5 -4.5
s-6.16699 -4.83301 -9.5 -7.5c-10.667 -11.333 -20.334 -27.666 -29.001 -48.999s-13 -44 -13 -68v-195c0 -13.333 2.66699 -21.333 8 -24s11 -4 17 -4h1.5h1.5h0.5h1.5h26v-34h-10h-235v34h26h1.5h0.5h1.5h1.5c6 0 11.667 1.33301 17 4s8 10.667 8 24v303
c0 14.667 -2.66699 23.5 -8 26.5s-11.333 4.5 -18 4.5h-1.5h-1.5h-23v30c12 1.33301 33.167 5.83301 63.5 13.5s67.5 21.834 111.5 42.501h10v0z" />
    <glyph glyph-name="s" unicode="s" horiz-adv-x="461" 
d="M347 343c-8 25.333 -20.8291 46.5039 -38.4961 63.5039s-36.167 28.5 -55.5 34.5c-4 1.33301 -8 2.5 -12 3.5s-8 1.5 -12 1.5c-18 -0.666992 -33.667 -5.66699 -47 -15s-20 -20.666 -20 -33.999c0 -15.333 5.16699 -27.833 15.5 -37.5
c10.333 -9.66797 22.5 -18.835 36.5 -27.5c0.666992 -0.666992 1.5 -1.16699 2.5 -1.5s1.83301 -0.833008 2.5 -1.5l123 -75c14.667 -8.66699 26.667 -17.834 36 -27.501s17 -19.5 23 -29.5c7.33691 -12 12.1699 -24 14.5 -36c2.33301 -12 3.5 -23 3.5 -33
c0 -4.66699 -0.333008 -9.33398 -1 -14l-2 -14c-7.33301 -28 -24.833 -53.333 -52.5 -76s-67.5 -34 -119.5 -34l-10 -1c-20 0.666992 -39.333 2.66699 -58 6s-35.334 6.66602 -50.001 9.99902c-7.33301 2.66699 -14.166 5 -20.499 7s-11.5 3.66699 -15.5 5v-17h-10h-41v153
h10h41v-32c3.33301 -4.66699 7 -9.33398 11 -14c4 -4.66699 8.33301 -9.33398 13 -14.001c15.333 -16.667 33.666 -31.834 54.999 -45.501s44 -21.167 68 -22.5c21.334 1.33301 37.667 8 49 20s17 25.333 17 40c0 12 -3 22.333 -9 31s-12.667 16 -20 22
c-4 3.33301 -7.83301 6.16602 -11.5 8.49902s-6.83398 4.5 -9.50098 6.5l-129 80c-4 2.66699 -8.83301 6.16699 -14.5 10.5s-11.5 9.5 -17.5 15.5c-10 11.333 -19.333 25 -28 41s-13 34.333 -13 55c0 38.667 12.333 67.167 37 85.5s51.667 30.5 81 36.5
c9.33301 2 18.666 3.33301 27.999 4s18.333 1 27 1h10c10 0 19.667 -0.5 29 -1.5c9.33398 -1 18.667 -2.83301 27.999 -5.5c8.66699 -2 17.667 -4.66699 27 -8s19 -7 29 -11v14h10h41v-141h-10h-41v14v0z" />
    <glyph glyph-name="t" unicode="t" horiz-adv-x="403" 
d="M350 481l-0.000976562 -65.001h-10c-28.667 6 -52.834 10.167 -72.5 12.5c-19.667 2.33301 -38.167 3.5 -55.5 3.5v0v0h-1v0v-290v-4v-4c0 -21.333 2.83301 -41 8.5 -59s19.167 -27.667 40.5 -29c5.33301 0.666992 11.5 2.33398 18.5 5
c7 2.66699 14.167 7.33398 21.5 14.001c7.33301 7.33301 14.5 17 21.5 29s13.167 28 18.5 48h10l33 -7c-12.667 -40.667 -30.667 -75 -54 -103s-57.666 -42 -102.999 -42l-10 -1c-43.333 0.666992 -74.5 11.167 -93.5 31.5s-31.5 42.833 -37.5 67.5
c-3.33301 14 -5.33301 27.667 -6 41s-1 24.666 -1 33.999v269h-58v33c39.333 4 69.666 22.333 90.999 55s35.666 68 42.999 106c2 10.6719 3.5 21.3389 4.5 32.001c1 10.667 1.5 21 1.5 31h10h41v-224h0.5h0.5h0.5h0.5c16.667 0 35.334 1.16699 56.001 3.5
s44.334 6.5 71.001 12.5h10v0z" />
    <glyph glyph-name="u" unicode="u" horiz-adv-x="566" 
d="M207 482l-0.000976562 -335.995c0 -4.66699 0.333008 -11 1 -19s2 -16 4 -24c4 -12.667 10.667 -24.334 20 -35.001s23.666 -16.334 42.999 -17.001c16 1.33301 31.167 5.66602 45.5 12.999s25.833 17.666 34.5 30.999v270v4v4v1.5v1.5
c0 4.66699 -1.66699 9.16699 -5 13.5s-11 6.5 -23 6.5h-23v30c8.66699 1.33691 29.167 5.66992 61.5 13c32.333 7.33398 69.833 21.667 112.5 42.999h10v-420c0 -13.333 2.66699 -21.333 8 -24s11 -4 17 -4h1.5h1.5h0.5h1.5h26v-34h-10h-179v43
c-14.667 -14 -33.834 -26.333 -57.5 -37c-23.667 -10.667 -51.5 -16 -83.5 -16l-10 -1c-39.333 0.666992 -68 10.167 -86 28.5s-30 38.833 -36 61.5c-3.33301 12 -5.5 24 -6.5 36s-1.5 22.333 -1.5 31v219c0 14.667 -2.66699 23.5 -8 26.5s-11.333 4.5 -18 4.5h-1.5h-1.5
h-23v30c32.667 4.66699 63.834 12 93.501 22s56.834 21.333 81.501 34h10v0z" />
    <glyph glyph-name="v" unicode="v" 
d="M322 155l26 53.999c3.33301 7.33301 7.5 16.833 12.5 28.5s10.167 24.5 15.5 38.5c2 6 4.16699 12 6.5 18s4.5 12 6.5 18c5.33301 15.334 10 30.167 14 44.5c4 14.334 6.66699 27.167 8 38.5c0 1.33301 0.166992 2.5 0.5 3.5s0.5 2.16699 0.5 3.5v3v3v4.5
c0 1.66699 -0.333008 3.16699 -1 4.5c0 1.33301 -0.333008 2.5 -1 3.5c-0.672852 1 -1.33984 2.16699 -2 3.5c-1.33301 3.33984 -4 6.17285 -8 8.5c-4 2.33301 -9.66699 3.5 -17 3.5h-27v34h10h181v-34h-9c-8.66699 0 -20 -8.5 -34 -25.5s-40 -66.5 -78 -148.5l-127 -273
h-10h-40l-180 413c-2.66699 6 -5.66699 10.833 -9 14.5s-6.66602 6.83398 -9.99902 9.50098c-6 3.33984 -11.5 5.67285 -16.5 7c-5 1.33301 -8.16699 2 -9.5 2h-2h-2c-0.666992 0 -1.5 0.166992 -2.5 0.5s-2.16699 0.5 -3.5 0.5v34h10h235v-34h-30
c-6.66699 0 -11.834 -1.5 -15.501 -4.5s-5.5 -7.16699 -5.5 -12.5c0 -2.67285 0.333008 -5.33984 1 -8c0.666992 -2.66699 1.66699 -5.66699 3 -9l110 -247v0z" />
    <glyph glyph-name="w" unicode="w" horiz-adv-x="786" 
d="M556 157l23.999 51.9951c3.33301 6.66699 7.5 16 12.5 28s10.167 25.333 15.5 40c2 4.66699 3.83301 9.33398 5.5 14.001s3.16699 9.33398 4.5 14.001c6.66699 17.333 12.167 34.333 16.5 51s6.5 29.667 6.5 39c0 14 -1.5 24.333 -4.5 31s-10.833 10 -23.5 10h-26v34h10
h175v-34h-8h-2.5h-3.5c-9.33301 -2 -20.5 -13 -33.5 -33s-36.167 -67 -69.5 -141l-122 -273h-10h-38l-87 245l-109 -245h-10h-38l-174 413c-2.66699 6 -5.5 10.833 -8.5 14.5s-6.16699 6.83398 -9.5 9.50098c-5.33301 3.33984 -10.333 5.67285 -15 7
c-4.66699 1.33301 -8 2 -10 2h-2h-2c-0.666992 0 -1.5 0.166992 -2.5 0.5s-2.16699 0.5 -3.5 0.5v34h10h216v-34h-18c-6.66699 0 -11.667 -2 -15 -6s-5.33301 -8 -6 -12v-1.5v-1.5c0 -1.33301 0.333008 -2.83301 1 -4.5c0.667969 -1.66699 1.33496 -3.16699 2 -4.5
c0.666992 -0.672852 1.16699 -1.33984 1.5 -2c0.333008 -0.672852 0.5 -1.33984 0.5 -2l105 -246l63 143l-36 103c-3.33301 10.667 -8.66602 18.334 -15.999 23.001s-17 8.33398 -29 11.001v34h10h219v-34h-29c-7.33301 0 -12.333 -1.33301 -15 -4
c-2.68066 -2.66699 -4.34766 -6 -5 -10c-0.666992 -1.33301 -1 -2.5 -1 -3.5v-3.5c0 -0.666992 0.166992 -1.66699 0.5 -3s0.833008 -2.33301 1.5 -3v-1.5v-0.5c0.666992 -0.666992 1.16699 -1.5 1.5 -2.5s0.5 -1.83301 0.5 -2.5l80 -245v0z" />
    <glyph glyph-name="x" unicode="x" horiz-adv-x="574" 
d="M316 306l33.001 44.9971c1.33301 2 3 4.66699 5 8c2 3.33496 4.33301 6.66797 7 10c1.33301 2.66699 2.5 5.16699 3.5 7.5s2.16699 4.83301 3.5 7.5c2.66699 5.33301 4.83398 10.5 6.50098 15.5s2.5 9.16699 2.5 12.5c0 6.66699 -1.33301 12.334 -4 17.001
s-7.66699 7 -15 7h-28v34h10h202v-34h-14c-8.66699 0 -16.5 -1.5 -23.5 -4.5s-13.5 -7.16699 -19.5 -12.5c-3.33301 -3.33301 -6.83301 -6.66602 -10.5 -9.99902s-7.5 -7 -11.5 -11l-123 -125l140 -199c1.33301 -2 2.5 -3.83301 3.5 -5.5s2.16699 -3.16699 3.5 -4.5
c8 -10 16.333 -17.5 25 -22.5c8.66797 -5 20.335 -7.5 35.001 -7.5h7v-34h-10h-251v34h26c6 0 10.333 1.5 13 4.5s4 7.16699 4 12.5c0 2 -0.333008 3.66699 -1 5s-1.66699 3 -3 5c0 0.666992 -0.166992 1.33398 -0.5 2.00098s-0.833008 1.33398 -1.5 2.00098l-76 108
l-30 -46c-12.667 -20 -22.334 -36.167 -29.001 -48.5s-10 -21.833 -10 -28.5v-2v-2c1.33301 -2.66699 3 -5.33398 5 -8.00098s5 -4 9 -4h38v-34h-10h-207v34h12c5.33301 0 10.166 0.5 14.499 1.5s8.5 2.5 12.5 4.5s8.33301 5.16699 13 9.5s10 9.5 16 15.5l139 144l-139 199
c-7.33301 10.667 -16.333 18 -27 22s-22 6 -34 6h-7v34h10h259v-34h-21c-7.33301 0 -12.833 -1.16699 -16.5 -3.5s-5.83398 -4.5 -6.50098 -6.5c-1.33301 -2 -2 -3.83301 -2 -5.5v-4.5v0v0c0 -1.33301 0.5 -2.83301 1.5 -4.5c1 -1.67285 2.16699 -3.83984 3.5 -6.5l68 -99v0
z" />
    <glyph glyph-name="y" unicode="y" horiz-adv-x="573" 
d="M340 137l39.999 116.005c2 5.33398 4.83301 13.167 8.5 23.499c3.66699 10.334 7.5 22.167 11.5 35.499c1.33594 4.66699 2.66895 9.5 3.99902 14.5c1.33691 5 2.66992 9.83301 4 14.5l6 26c2 8.66699 3.66699 16.667 5 24c0 1.33301 0.166992 2.5 0.5 3.5
s0.5 2.16699 0.5 3.5v3.5v3.5v2.5v2.5c0 0.666992 -0.166992 1.5 -0.5 2.5s-0.5 1.83301 -0.5 2.5c-2.66699 8.66699 -7 14.334 -13 17.001s-13 4 -21 4h-20v34h10h178v-34h-20c-10 0 -17.333 -1.83301 -22 -5.5c-4.6709 -3.66992 -8.33789 -7.83691 -11.001 -12.5
c-0.666992 -0.672852 -1.16699 -1.33984 -1.5 -2c-0.333008 -0.672852 -0.833008 -1.33984 -1.5 -2c-10.667 -19.333 -23.167 -48.5 -37.5 -87.5s-32.166 -83.5 -53.499 -133.5l-134 -316c-13.333 -32 -29.5 -57.167 -48.5 -75.5s-43.833 -27.5 -74.5 -27.5l-10 -1
c-28.667 0.666016 -52 9.33301 -70 26s-27 35.667 -27 57c0 22 6.83301 39.333 20.5 52s28.834 19 45.501 19l10 -1c0.666992 0.666992 1.16699 1 1.5 1h1.5c14.667 -0.666992 28.334 -6.33398 41.001 -17.001s19.334 -25.334 20 -44.001v-6.5
c0 -2.33301 0.333008 -4.5 1 -6.5c0.666992 -4 2.16699 -7.83301 4.5 -11.5s6.16602 -5.83398 11.499 -6.50098c3.33301 0.664062 6.5 2.33105 9.5 5c3 2.66602 5.83301 6.33301 8.5 11c5.33301 7.33301 10.5 16.5 15.5 27.5s10.5 23.167 16.5 36.5c2.66699 6 5 11.5 7 16.5
s4 9.83301 6 14.5c0.666992 1.33301 1.16699 2.66602 1.5 3.99902s0.833008 2.66602 1.5 3.99902c2 4.66699 4 9.5 6 14.5s4 10.833 6 17.5l-197 418c-0.666992 2 -1.66699 4.16699 -3 6.5s-3.33301 4.83301 -6 7.5c-3.33301 4.66699 -8.16602 8.83398 -14.499 12.501
s-14.5 5.5 -24.5 5.5h-12v34h10h238v-34h-27c-6.66699 0 -12 -1.83301 -16 -5.5c-4 -3.66992 -6 -7.83691 -6 -12.5c0 -1.33301 0.5 -3 1.5 -5s2.16699 -5 3.5 -9l116 -267v0z" />
    <glyph glyph-name="z" unicode="z" horiz-adv-x="461" 
d="M87 340h-32.001l7 130h10h361v-37l-253 -399h35c10.667 0 23.834 1.16699 39.5 3.5c15.667 2.33301 31.5 6.16602 47.5 11.499c15.333 4.66699 30.333 11 45 19s27.334 18 38.001 30l2 31h10h36l-7 -129h-10h-388v36l258 400h-22c-8.66699 0 -18.167 -0.666992 -28.5 -2
s-20.5 -3.33301 -30.5 -6c-22.667 -5.33301 -44.167 -13.166 -64.5 -23.499s-34.5 -22.5 -42.5 -36.5l-1 -28h-10v0z" />
    <glyph glyph-name="braceleft" unicode="{" horiz-adv-x="405" 
d="M56 239v70.0039c26.667 2.66699 46.667 12 60 28s22.333 33.333 27 52c3.33301 12 5.33301 23.5 6 34.5s1 20.5 1 28.5c0 9.33301 -0.166992 18.833 -0.5 28.5s-0.833008 19.167 -1.5 28.5c0 4.6709 -0.166992 9.33789 -0.5 14.001c-0.333008 4.6748 -0.5 9.3418 -0.5 14
c-0.666992 4.66699 -1 9.33398 -1 14v14c0 60 13.333 102.667 40 128s56 41 88 47c8 1.33301 15.833 2.33301 23.5 3s15.167 1 22.5 1h10h5.5h4.5c1.33301 -0.666992 2.83301 -1 4.5 -1h4.5v-56c-18.667 -3.33301 -33.167 -10 -43.5 -20s-17.5 -20.333 -21.5 -31
c-4.66895 -10.667 -7.33594 -20.667 -8.00098 -30c-0.666992 -9.33301 -1 -16 -1 -20c0 -8.66699 0.166992 -17 0.5 -25s0.833008 -16 1.5 -24c0.666992 -1.34961 1 -2.68262 1 -4v-4c0.666992 -9.33301 1.33398 -18.833 2.00098 -28.5
c0.666992 -9.66895 1 -19.8359 1 -30.501c0 -47.333 -9.5 -86.333 -28.5 -117s-50.167 -55.667 -93.5 -75v-8c49.333 -22 82 -49.833 98 -83.5s24 -69.834 24 -108.501c0 -8 -0.333008 -16.5 -1 -25.5c-0.670898 -9 -1.33789 -18.167 -2 -27.5v-3v-4
c-0.670898 -10 -1.33789 -19.833 -2 -29.5c-0.666992 -9.66699 -1 -18.5 -1 -26.5c0 -5.33301 0.333008 -12.5 1 -21.5s3.33398 -18.167 8.00098 -27.5c4 -10.667 11.167 -20.834 21.5 -30.501s24.833 -16.834 43.5 -21.501v-57c-1.33301 0.666992 -2.83301 1 -4.5 1
s-3.16699 -0.333008 -4.5 -1h-4.5h-5.5l-10 -1c-7.33301 0.666016 -14.833 1.33301 -22.5 2s-15.5 1.66699 -23.5 3c-32 6 -61.333 21.833 -88 47.5s-40 68.167 -40 127.5c0 24 0.166992 38.833 0.5 44.5s0.833008 9.16699 1.5 10.5c0.666992 2 1.16699 5.83301 1.5 11.5
s0.5 21.167 0.5 46.5c0 42 -6.33301 73.167 -19 93.5s-26.667 34.166 -42 41.499c-6 2.66699 -11.833 4.66699 -17.5 6s-10.834 2 -15.501 2v0z" />
    <glyph glyph-name="bar" unicode="|" horiz-adv-x="142" 
d="M38 857h76v-1053h-10h-76v1053h10v0z" />
    <glyph glyph-name="braceright" unicode="}" horiz-adv-x="405" 
d="M349 309l-0.00292969 -70.001h-2.5c-1 0 -2.16699 -0.333008 -3.5 -1c-22 -2.66699 -42.167 -14.834 -60.5 -36.501s-27.5 -56.834 -27.5 -105.501v-17c0 -6 0.333008 -11.667 1 -17c0 -4.66699 0.166992 -9.16699 0.5 -13.5s0.5 -8.5 0.5 -12.5
c0.666992 -10 1.16699 -19.5 1.5 -28.5s0.5 -17.167 0.5 -24.5c0 -6.66699 -0.666992 -18.167 -2 -34.5s-6 -33.833 -14 -52.5c-10 -23.333 -27 -44.5 -51 -63.5s-60 -28.5 -108 -28.5l-10 -1c-1.33301 0.666992 -2.83301 1 -4.5 1h-4.5
c-1.33301 0.666992 -2.83301 1 -4.5 1h-4.5v55c20 6 35.167 14.333 45.5 25s17.833 22 22.5 34c2.66699 8 4.33398 15.667 5.00098 23s1 14 1 20c0 4.66699 -0.166992 9.33398 -0.5 14.001s-0.5 9 -0.5 13c0 2 -0.166992 3.66699 -0.5 5s-0.5 3 -0.5 5
s-0.166992 4.66699 -0.5 8s-0.5 6.33301 -0.5 9c-0.666992 5.33301 -1.16699 10.5 -1.5 15.5s-0.5 10.167 -0.5 15.5c-0.666992 5.33301 -1 10.5 -1 15.5v15.5c0 38.667 8 74.834 24 108.501s48.667 61.5 98 83.5v8c-43.333 19.333 -74.5 44.333 -93.5 75
s-28.5 69.667 -28.5 117c0 25.333 0.333008 41.333 1 48s1.33398 11 2.00098 13v0.5v0.5c0.666992 2 1.33398 5.83301 2.00098 11.5c0.666992 5.6709 1 19.8379 1 42.5c0 34.6689 -7.66699 59.3359 -23 74c-15.333 14.667 -32.333 23.667 -51 27v56h10h8.5h8.5
c8 0 16.5 -0.333008 25.5 -1s17.833 -2 26.5 -4c31.333 -6.66699 59.833 -22.667 85.5 -48s38.5 -67 38.5 -125c0 -7.33789 -0.166992 -15.6709 -0.5 -25c-0.333008 -9.33691 -0.833008 -18.6699 -1.5 -27.999c0 -4 -0.166992 -7.83301 -0.5 -11.5s-0.5 -7.16699 -0.5 -10.5
c0 -6.66699 -0.166992 -13.167 -0.5 -19.5s-0.5 -12.5 -0.5 -18.5c0 -40.667 6 -71 18 -91s25 -33.667 39 -41c6.66699 -4 13.167 -6.66699 19.5 -8c6.33496 -1.33301 12.168 -2.33301 17.5 -3v0z" />
    <glyph glyph-name="asciitilde" unicode="~" horiz-adv-x="626" 
d="M128 304l-44.0049 -0.00195312c9.33301 32.667 27 59.334 53 80.001s53.333 32.334 82 35.001c2 0.666992 4 1 6 1h6h10c15.333 0 29 -1.5 41 -4.5s24 -6.83301 36 -11.5c2.66699 -1.33301 5.33398 -2.5 8.00098 -3.5s5.33398 -1.83301 8.00098 -2.5
c1.33301 -0.666992 2.5 -1.16699 3.5 -1.5s2.16699 -0.833008 3.5 -1.5c4 -1.33301 9.16699 -3 15.5 -5s12.833 -4.33301 19.5 -7l8 -2l8 -2c8.66699 -2.67285 16.834 -4.83984 24.501 -6.50098c7.66699 -1.67773 14.5 -2.84473 20.5 -3.5c12.667 1.33301 23 6.33301 31 15
s14.333 18.667 19 30h10h45c-18 -40.667 -37 -70.834 -57 -90.5c-20 -19.667 -45 -29.5 -75 -29.5h-10c-18.667 0 -34.834 2 -48.5 6c-13.668 4 -26.835 8.33301 -39.5 13c-0.666992 0 -1.16699 0.166992 -1.5 0.5s-0.833008 0.5 -1.5 0.5
c-1.33301 0.666992 -2.5 1.16699 -3.5 1.5s-2.16699 0.833008 -3.5 1.5c-32 12 -55.667 19.833 -71 23.5s-27.666 5.83398 -36.999 6.50098c-10 -0.668945 -19 -4.33594 -27 -11c-8 -6.66699 -15 -13.667 -21 -21c-1.33301 -2 -2.66602 -3.83301 -3.99902 -5.5
c-1.33398 -1.66699 -2.66699 -3.5 -4 -5.5h-10v0z" />
    <glyph glyph-name="space" horiz-adv-x="10" 
 />
    <glyph glyph-name="F" horiz-adv-x="976" 
d="M650 530l-45 0.0126953v29c0 16.667 -9.33301 33 -28 49s-39 29 -61 39c-12 5.33301 -23.333 9.66602 -34 12.999c-10.668 3.33301 -20.335 5.33301 -29 6c-4 -0.666992 -7.33301 -2.33398 -10 -5.00098s-4.66699 -5.33398 -6 -8.00098
c-0.666992 -1.35352 -1.16699 -2.68652 -1.5 -4c-0.333008 -1.35352 -0.5 -2.68652 -0.5 -4v-196c5.33301 1.33984 10.833 2.67285 16.5 3.99902c5.66699 1.33984 11.834 2.67285 18.501 3.99902c13.333 2.66699 27.5 5.33398 42.5 8.00098s30.167 5 45.5 7
c14 2 28.167 3.66699 42.5 5s28.166 2 41.499 2h10c100.667 0 172.834 -23.667 216.5 -71c43.667 -47.333 65.5 -101 65.5 -161c0 -10 -0.5 -20.333 -1.5 -31s-2.83301 -21.334 -5.5 -32.001c-10.667 -48.667 -36 -93.167 -76 -133.5s-99 -60.5 -177 -60.5l-10 -1
c-48.667 0.666992 -85.167 7.33398 -109.5 20.001s-41.5 26.667 -51.5 42c-5.33301 8.66699 -8.83301 17.167 -10.5 25.5s-2.5 15.5 -2.5 21.5c0 2.66699 0.166992 5.16699 0.5 7.5s0.5 4.83301 0.5 7.5c2.66699 13.333 8.33398 25.666 17.001 36.999s22 17 40 17h10
c21.333 0 38.5 -4.83301 51.5 -14.5s19.5 -21.5 19.5 -35.5c0 -8.66699 -0.333008 -15.834 -1 -21.501s-1.66699 -11.167 -3 -16.5c-0.666992 -1.33301 -1.16699 -2.5 -1.5 -3.5s-0.833008 -2.16699 -1.5 -3.5c-0.666992 -2 -1.16699 -4.16699 -1.5 -6.5
s-0.5 -4.83301 -0.5 -7.5c0 -2 0.166992 -4.16699 0.5 -6.5s0.833008 -4.83301 1.5 -7.5c2 -4.66699 4.83301 -8.83398 8.5 -12.501s9.16699 -5.83398 16.5 -6.50098c5.33301 0.666992 10.833 1.66699 16.5 3s11.5 4 17.5 8c16 9.33301 30.5 28.833 43.5 58.5
s19.5 77.5 19.5 143.5c0 10 -0.166992 21.167 -0.5 33.5c-0.333008 12.334 -1.83301 25.167 -4.5 38.5c-4.66699 25.334 -15.167 49.167 -31.5 71.5s-44.5 35.5 -84.5 39.5c-3.33301 0.666992 -6.83301 1 -10.5 1h-10.5h-14c-4.66699 0 -9.33398 -0.333008 -14.001 -1
c-10 -0.679688 -21.333 -1.84668 -34 -3.50098c-12.667 -1.66699 -25.667 -3.5 -39 -5.5l-24 -4c-8 -1.33301 -15.667 -2.66602 -23 -3.99902c-3.33301 0 -6.66602 -0.333008 -9.99902 -1c-3.33301 -0.669922 -6.33301 -1.33691 -9 -2.00098v-303v-3.5v-2.5
c0 -14 1 -25.667 3 -35s8.66699 -14.666 20 -15.999h1.5c0.333008 0 0.833008 0.333008 1.5 1h0.5h1.5h10v-42h-10h-279v42h46h4h4c13.333 0 21.666 2.16699 24.999 6.5s5 20.833 5 49.5v547c0 1.33301 -0.166992 2.66602 -0.5 3.99902s-0.833008 2.66602 -1.5 3.99902
c-1.33301 2.68652 -3.33301 5.35352 -6 8c-2.66699 2.68652 -6.33398 4.35352 -11.001 5c-6.66699 -0.666992 -13.667 -1.83398 -21 -3.50098c-7.33398 -1.66699 -14.667 -3.83398 -22 -6.50098c-18 -6.66699 -35 -15.334 -51 -26.001s-29.333 -22 -40 -34
c-5.33301 -6 -9.66602 -12.333 -12.999 -19s-5 -12.667 -5 -18v-29h-10h-45v178h10h608v-178h-10v0z" />
    <glyph glyph-name="F" unicode="&#x402;" horiz-adv-x="976" 
d="M650 530l-45 0.0126953v29c0 16.667 -9.33301 33 -28 49s-39 29 -61 39c-12 5.33301 -23.333 9.66602 -34 12.999c-10.668 3.33301 -20.335 5.33301 -29 6c-4 -0.666992 -7.33301 -2.33398 -10 -5.00098s-4.66699 -5.33398 -6 -8.00098
c-0.666992 -1.35352 -1.16699 -2.68652 -1.5 -4c-0.333008 -1.35352 -0.5 -2.68652 -0.5 -4v-196c5.33301 1.33984 10.833 2.67285 16.5 3.99902c5.66699 1.33984 11.834 2.67285 18.501 3.99902c13.333 2.66699 27.5 5.33398 42.5 8.00098s30.167 5 45.5 7
c14 2 28.167 3.66699 42.5 5s28.166 2 41.499 2h10c100.667 0 172.834 -23.667 216.5 -71c43.667 -47.333 65.5 -101 65.5 -161c0 -10 -0.5 -20.333 -1.5 -31s-2.83301 -21.334 -5.5 -32.001c-10.667 -48.667 -36 -93.167 -76 -133.5s-99 -60.5 -177 -60.5l-10 -1
c-48.667 0.666992 -85.167 7.33398 -109.5 20.001s-41.5 26.667 -51.5 42c-5.33301 8.66699 -8.83301 17.167 -10.5 25.5s-2.5 15.5 -2.5 21.5c0 2.66699 0.166992 5.16699 0.5 7.5s0.5 4.83301 0.5 7.5c2.66699 13.333 8.33398 25.666 17.001 36.999s22 17 40 17h10
c21.333 0 38.5 -4.83301 51.5 -14.5s19.5 -21.5 19.5 -35.5c0 -8.66699 -0.333008 -15.834 -1 -21.501s-1.66699 -11.167 -3 -16.5c-0.666992 -1.33301 -1.16699 -2.5 -1.5 -3.5s-0.833008 -2.16699 -1.5 -3.5c-0.666992 -2 -1.16699 -4.16699 -1.5 -6.5
s-0.5 -4.83301 -0.5 -7.5c0 -2 0.166992 -4.16699 0.5 -6.5s0.833008 -4.83301 1.5 -7.5c2 -4.66699 4.83301 -8.83398 8.5 -12.501s9.16699 -5.83398 16.5 -6.50098c5.33301 0.666992 10.833 1.66699 16.5 3s11.5 4 17.5 8c16 9.33301 30.5 28.833 43.5 58.5
s19.5 77.5 19.5 143.5c0 10 -0.166992 21.167 -0.5 33.5c-0.333008 12.334 -1.83301 25.167 -4.5 38.5c-4.66699 25.334 -15.167 49.167 -31.5 71.5s-44.5 35.5 -84.5 39.5c-3.33301 0.666992 -6.83301 1 -10.5 1h-10.5h-14c-4.66699 0 -9.33398 -0.333008 -14.001 -1
c-10 -0.679688 -21.333 -1.84668 -34 -3.50098c-12.667 -1.66699 -25.667 -3.5 -39 -5.5l-24 -4c-8 -1.33301 -15.667 -2.66602 -23 -3.99902c-3.33301 0 -6.66602 -0.333008 -9.99902 -1c-3.33301 -0.669922 -6.33301 -1.33691 -9 -2.00098v-303v-3.5v-2.5
c0 -14 1 -25.667 3 -35s8.66699 -14.666 20 -15.999h1.5c0.333008 0 0.833008 0.333008 1.5 1h0.5h1.5h10v-42h-10h-279v42h46h4h4c13.333 0 21.666 2.16699 24.999 6.5s5 20.833 5 49.5v547c0 1.33301 -0.166992 2.66602 -0.5 3.99902s-0.833008 2.66602 -1.5 3.99902
c-1.33301 2.68652 -3.33301 5.35352 -6 8c-2.66699 2.68652 -6.33398 4.35352 -11.001 5c-6.66699 -0.666992 -13.667 -1.83398 -21 -3.50098c-7.33398 -1.66699 -14.667 -3.83398 -22 -6.50098c-18 -6.66699 -35 -15.334 -51 -26.001s-29.333 -22 -40 -34
c-5.33301 -6 -9.66602 -12.333 -12.999 -19s-5 -12.667 -5 -18v-29h-10h-45v178h10h608v-178h-10v0z" />
    <glyph glyph-name="asciitilde" horiz-adv-x="573" 
d="M563 532l-43.001 0.00195312v42c0 4 -1.16699 8.16699 -3.5 12.5s-5.83301 8.5 -10.5 12.5c-12.667 12.667 -31.5 24.5 -56.5 35.5s-51.167 19.167 -78.5 24.5c-8.66699 2 -17.5 3.66699 -26.5 5s-17.833 2 -26.5 2
c-9.33301 -0.666992 -15.666 -2.83398 -18.999 -6.50098s-5.33301 -7.5 -6 -11.5v-4.5v-4.5v-0.5v-0.5v-557c0 -19.333 3.33301 -30.666 10 -33.999s15 -5 25 -5h1.5h1.5h46v-42h-10h-325v42h46h1.5h1.5c10 0 18.333 1.66699 25 5s10 14.666 10 33.999v546
c0 19.333 -3.33301 30.666 -10 33.999s-15 5 -25 5h-1.5h-1.5h-46v42h10h516l5 -176h-10v0z" />
    <glyph glyph-name="asciitilde" unicode="&#x403;" horiz-adv-x="573" 
d="M563 532l-43.001 0.00195312v42c0 4 -1.16699 8.16699 -3.5 12.5s-5.83301 8.5 -10.5 12.5c-12.667 12.667 -31.5 24.5 -56.5 35.5s-51.167 19.167 -78.5 24.5c-8.66699 2 -17.5 3.66699 -26.5 5s-17.833 2 -26.5 2
c-9.33301 -0.666992 -15.666 -2.83398 -18.999 -6.50098s-5.33301 -7.5 -6 -11.5v-4.5v-4.5v-0.5v-0.5v-557c0 -19.333 3.33301 -30.666 10 -33.999s15 -5 25 -5h1.5h1.5h46v-42h-10h-325v42h46h1.5h1.5c10 0 18.333 1.66699 25 5s10 14.666 10 33.999v546
c0 19.333 -3.33301 30.666 -10 33.999s-15 5 -25 5h-1.5h-1.5h-46v42h10h516l5 -176h-10v0z" />
    <glyph glyph-name="D" horiz-adv-x="797" 
d="M293 400l67.0039 0.00488281c7.33301 0 14 0.5 20 1.5s11.667 3.83301 17 8.5c5.33594 4.66699 11.1689 12.167 17.499 22.5c6.33301 10.334 13.5 25.167 21.5 44.499l49 116c9.33496 22 18.668 40.5 27.999 55.5c9.33301 15 19 27.167 29 36.5
c16.667 16.667 33.167 27 49.5 31s32.166 6 47.499 6h10c33.333 0 57.333 -7.5 72 -22.5c14.6719 -15 23.3389 -31.5 26 -49.5c0.666992 -2.66699 1 -5.16699 1 -7.5v-6.5c0 -22 -7 -39.167 -21 -51.5s-29.333 -19.5 -46 -21.5h-4h-4h-10
c-16.667 0 -31.834 5.83301 -45.501 17.5c-13.667 11.6689 -22.167 26.8359 -25.5 45.5c0 1.33301 -0.166992 2.5 -0.5 3.5s-0.5 2.16699 -0.5 3.5v3v3v3.5c0 1 0.333008 1.83301 1 2.5v3.5v2.5c0.68457 5.33301 1.35156 9.33301 2 12c0.68457 2.66699 1.35156 5 2 7v0.5
v1.5c-1.33301 -2 -2.83301 -4.83301 -4.5 -8.5s-3.5 -7.5 -5.5 -11.5c-2 -4.66699 -4 -9.66699 -6 -15s-3.66699 -11 -5 -17c-4 -10.667 -7.33301 -20.834 -10 -30.501s-5 -16.834 -7 -21.501c0 -0.666992 -0.166992 -1.33398 -0.5 -2.00098s-0.5 -1.33398 -0.5 -2.00098
c-14.667 -45.334 -32.167 -85.001 -52.5 -119.001s-53.833 -56 -100.5 -66c49.333 -6.66699 89.5 -20.834 120.5 -42.5c31 -21.667 55.833 -45.167 74.5 -70.5c12.6689 -17.333 22.8359 -34.333 30.5 -51c7.66699 -16.667 13.5 -30.667 17.5 -42l4 -12l4 -12
c0.667969 -2 1.33496 -4.16699 2 -6.5c0.676758 -2.33301 1.34375 -4.5 2 -6.5c5.33301 -16.667 11 -32.334 17 -47.001s13 -23.667 21 -27c0.677734 0 1.34473 0.166992 2.00098 0.5l3 1.5c3.33301 2.66699 6.83301 6.83398 10.5 12.501s6.5 13.834 8.5 24.501h10l38 -7
c-7.33301 -34.667 -20.333 -61.167 -39 -79.5s-44.667 -27.5 -78 -27.5l-10 -1c-52.667 0.666992 -92.834 21 -120.501 61s-50.167 87 -67.5 141c-2 6.66699 -4 13.5 -6 20.5s-4 14.167 -6 21.5c-9.33301 31.333 -19.833 60 -31.5 86s-31.5 39 -59.5 39h-58v-274
c0 -19.333 3.33301 -30.666 10 -33.999s15 -5 25 -5h1.5h1.5h46v-42h-10h-325v42h46h1.5h1.5c10 0 18.333 1.66699 25 5s10 14.666 10 33.999v546c0 19.333 -3.33301 30.666 -10 33.999s-15 5 -25 5h-1.5h-1.5h-46v42h10h325v-42h-46h-1.5h-1.5
c-10 0 -18.333 -1.66699 -25 -5c-6.66699 -3.33789 -10 -14.6709 -10 -33.999v-227v0z" />
    <glyph glyph-name="D" unicode="&#x40c;" horiz-adv-x="797" 
d="M293 400l67.0039 0.00488281c7.33301 0 14 0.5 20 1.5s11.667 3.83301 17 8.5c5.33594 4.66699 11.1689 12.167 17.499 22.5c6.33301 10.334 13.5 25.167 21.5 44.499l49 116c9.33496 22 18.668 40.5 27.999 55.5c9.33301 15 19 27.167 29 36.5
c16.667 16.667 33.167 27 49.5 31s32.166 6 47.499 6h10c33.333 0 57.333 -7.5 72 -22.5c14.6719 -15 23.3389 -31.5 26 -49.5c0.666992 -2.66699 1 -5.16699 1 -7.5v-6.5c0 -22 -7 -39.167 -21 -51.5s-29.333 -19.5 -46 -21.5h-4h-4h-10
c-16.667 0 -31.834 5.83301 -45.501 17.5c-13.667 11.6689 -22.167 26.8359 -25.5 45.5c0 1.33301 -0.166992 2.5 -0.5 3.5s-0.5 2.16699 -0.5 3.5v3v3v3.5c0 1 0.333008 1.83301 1 2.5v3.5v2.5c0.68457 5.33301 1.35156 9.33301 2 12c0.68457 2.66699 1.35156 5 2 7v0.5
v1.5c-1.33301 -2 -2.83301 -4.83301 -4.5 -8.5s-3.5 -7.5 -5.5 -11.5c-2 -4.66699 -4 -9.66699 -6 -15s-3.66699 -11 -5 -17c-4 -10.667 -7.33301 -20.834 -10 -30.501s-5 -16.834 -7 -21.501c0 -0.666992 -0.166992 -1.33398 -0.5 -2.00098s-0.5 -1.33398 -0.5 -2.00098
c-14.667 -45.334 -32.167 -85.001 -52.5 -119.001s-53.833 -56 -100.5 -66c49.333 -6.66699 89.5 -20.834 120.5 -42.5c31 -21.667 55.833 -45.167 74.5 -70.5c12.6689 -17.333 22.8359 -34.333 30.5 -51c7.66699 -16.667 13.5 -30.667 17.5 -42l4 -12l4 -12
c0.667969 -2 1.33496 -4.16699 2 -6.5c0.676758 -2.33301 1.34375 -4.5 2 -6.5c5.33301 -16.667 11 -32.334 17 -47.001s13 -23.667 21 -27c0.677734 0 1.34473 0.166992 2.00098 0.5l3 1.5c3.33301 2.66699 6.83301 6.83398 10.5 12.501s6.5 13.834 8.5 24.501h10l38 -7
c-7.33301 -34.667 -20.333 -61.167 -39 -79.5s-44.667 -27.5 -78 -27.5l-10 -1c-52.667 0.666992 -92.834 21 -120.501 61s-50.167 87 -67.5 141c-2 6.66699 -4 13.5 -6 20.5s-4 14.167 -6 21.5c-9.33301 31.333 -19.833 60 -31.5 86s-31.5 39 -59.5 39h-58v-274
c0 -19.333 3.33301 -30.666 10 -33.999s15 -5 25 -5h1.5h1.5h46v-42h-10h-325v42h46h1.5h1.5c10 0 18.333 1.66699 25 5s10 14.666 10 33.999v546c0 19.333 -3.33301 30.666 -10 33.999s-15 5 -25 5h-1.5h-1.5h-46v42h10h325v-42h-46h-1.5h-1.5
c-10 0 -18.333 -1.66699 -25 -5c-6.66699 -3.33789 -10 -14.6709 -10 -33.999v-227v0z" />
    <glyph glyph-name="N" horiz-adv-x="913" 
d="M650 530l-44.998 0.00585938v29c0 16.667 -9.33301 33 -28 49s-39 29 -61 39c-12 5.33301 -23.333 9.66602 -34 12.999c-10.668 3.33301 -20.335 5.33301 -29 6c-4 -0.666992 -7.33301 -2.33398 -10 -5.00098s-4.66699 -5.33398 -6 -8.00098
c-0.666992 -1.35352 -1.16699 -2.68652 -1.5 -4c-0.333008 -1.35352 -0.5 -2.68652 -0.5 -4v-252c42 20.667 76.833 34 104.5 40s49.834 9 66.5 9h10c62.667 0 106.834 -13.167 132.5 -39.5c25.667 -26.333 41.5 -55.166 47.5 -86.499l2 -20
c0.666992 -6.66895 1 -13.3359 1 -20v-178c0 -26.667 1.66699 -42.667 5 -48s14.333 -8 33 -8h48v-42h-10h-306v42h25h4h4c13.333 0 21.666 2.16699 24.999 6.5s5 20.833 5 49.5v178c0 34 -6.83301 58.333 -20.5 73s-35.5 22.334 -65.5 23.001
c-8 0 -16.5 -0.833008 -25.5 -2.5c-9 -1.67188 -18.167 -3.83887 -27.5 -6.5c-10 -3.33301 -20 -6.83301 -30 -10.5c-10 -3.66895 -19.333 -7.83594 -28 -12.5v-242c0 -26.667 1.66699 -42.667 5 -48s14.333 -8 33 -8h46v-42h-10h-325v42h46h4h4
c13.333 0 21.666 2.16699 24.999 6.5s5 20.833 5 49.5v547c0 1.33301 -0.166992 2.66602 -0.5 3.99902s-0.833008 2.66602 -1.5 3.99902c-1.33301 2.68652 -3.33301 5.35352 -6 8c-2.66699 2.68652 -6.33398 4.35352 -11.001 5
c-6.66699 -0.666992 -13.667 -1.83398 -21 -3.50098c-7.33398 -1.66699 -14.667 -3.83398 -22 -6.50098c-18 -6.66699 -35 -15.334 -51 -26.001s-29.333 -22 -40 -34c-5.33301 -6 -9.66602 -12.333 -12.999 -19s-5 -12.667 -5 -18v-29h-10h-45v178h10h608v-178h-10v0z" />
    <glyph glyph-name="N" unicode="&#x40b;" horiz-adv-x="913" 
d="M650 530l-44.998 0.00585938v29c0 16.667 -9.33301 33 -28 49s-39 29 -61 39c-12 5.33301 -23.333 9.66602 -34 12.999c-10.668 3.33301 -20.335 5.33301 -29 6c-4 -0.666992 -7.33301 -2.33398 -10 -5.00098s-4.66699 -5.33398 -6 -8.00098
c-0.666992 -1.35352 -1.16699 -2.68652 -1.5 -4c-0.333008 -1.35352 -0.5 -2.68652 -0.5 -4v-252c42 20.667 76.833 34 104.5 40s49.834 9 66.5 9h10c62.667 0 106.834 -13.167 132.5 -39.5c25.667 -26.333 41.5 -55.166 47.5 -86.499l2 -20
c0.666992 -6.66895 1 -13.3359 1 -20v-178c0 -26.667 1.66699 -42.667 5 -48s14.333 -8 33 -8h48v-42h-10h-306v42h25h4h4c13.333 0 21.666 2.16699 24.999 6.5s5 20.833 5 49.5v178c0 34 -6.83301 58.333 -20.5 73s-35.5 22.334 -65.5 23.001
c-8 0 -16.5 -0.833008 -25.5 -2.5c-9 -1.67188 -18.167 -3.83887 -27.5 -6.5c-10 -3.33301 -20 -6.83301 -30 -10.5c-10 -3.66895 -19.333 -7.83594 -28 -12.5v-242c0 -26.667 1.66699 -42.667 5 -48s14.333 -8 33 -8h46v-42h-10h-325v42h46h4h4
c13.333 0 21.666 2.16699 24.999 6.5s5 20.833 5 49.5v547c0 1.33301 -0.166992 2.66602 -0.5 3.99902s-0.833008 2.66602 -1.5 3.99902c-1.33301 2.68652 -3.33301 5.35352 -6 8c-2.66699 2.68652 -6.33398 4.35352 -11.001 5
c-6.66699 -0.666992 -13.667 -1.83398 -21 -3.50098c-7.33398 -1.66699 -14.667 -3.83398 -22 -6.50098c-18 -6.66699 -35 -15.334 -51 -26.001s-29.333 -22 -40 -34c-5.33301 -6 -9.66602 -12.333 -12.999 -19s-5 -12.667 -5 -18v-29h-10h-45v178h10h608v-178h-10v0z" />
    <glyph glyph-name="bullet" horiz-adv-x="811" 
d="M377 708l-0.00195312 -41.998h-46h-1.5h-1.5c-10 0 -18.333 -1.66699 -25 -5c-6.66699 -3.33789 -10 -14.6709 -10 -33.999v-546c0 -18 2.83301 -29 8.5 -33s12.834 -6 21.501 -6h171h1.5h1.5c10.0039 0 18.3369 1.66699 25 5c6.66699 3.33301 10 14.666 10 33.999v546
c0 19.333 -3.33301 30.666 -10 33.999s-15 5 -25 5h-1.5h-1.5h-46v42h10h325v-42h-46h-1.5h-1.5c-10 0 -18.333 -1.66699 -25 -5c-6.66699 -3.33789 -10 -14.6709 -10 -33.999v-546c0 -19.333 3.33301 -30.666 10 -33.999s15 -5 25 -5h1.5h1.5h46v-42h-332l32 -189
c-11.333 -6.66699 -23.166 -11.667 -35.499 -15s-24.833 -5 -37.5 -5l-10 -1c-11.333 0.666992 -23 2.66699 -35 6s-24.333 8.66602 -37 15.999l32 188h-318v42h46h1.5h1.5c10 0 18.333 1.66699 25 5s10 14.666 10 33.999v546c0 19.333 -3.33301 30.666 -10 33.999
s-15 5 -25 5h-1.5h-1.5h-46v42h10h325v0z" />
    <glyph glyph-name="bullet" unicode="&#x40f;" horiz-adv-x="811" 
d="M377 708l-0.00195312 -41.998h-46h-1.5h-1.5c-10 0 -18.333 -1.66699 -25 -5c-6.66699 -3.33789 -10 -14.6709 -10 -33.999v-546c0 -18 2.83301 -29 8.5 -33s12.834 -6 21.501 -6h171h1.5h1.5c10.0039 0 18.3369 1.66699 25 5c6.66699 3.33301 10 14.666 10 33.999v546
c0 19.333 -3.33301 30.666 -10 33.999s-15 5 -25 5h-1.5h-1.5h-46v42h10h325v-42h-46h-1.5h-1.5c-10 0 -18.333 -1.66699 -25 -5c-6.66699 -3.33789 -10 -14.6709 -10 -33.999v-546c0 -19.333 3.33301 -30.666 10 -33.999s15 -5 25 -5h1.5h1.5h46v-42h-332l32 -189
c-11.333 -6.66699 -23.166 -11.667 -35.499 -15s-24.833 -5 -37.5 -5l-10 -1c-11.333 0.666992 -23 2.66699 -35 6s-24.333 8.66602 -37 15.999l32 188h-318v42h46h1.5h1.5c10 0 18.333 1.66699 25 5s10 14.666 10 33.999v546c0 19.333 -3.33301 30.666 -10 33.999
s-15 5 -25 5h-1.5h-1.5h-46v42h10h325v0z" />
    <glyph glyph-name="guilsinglleft" horiz-adv-x="618" 
d="M92 622l-0.00292969 40.0029v1.5v0.5v2v2c0 6.66699 -1.5 12.5 -4.5 17.5s-10.833 7.5 -23.5 7.5h-23v29c2.66699 0.688477 5.5 1.35547 8.5 2c3 0.666992 5.83301 1 8.5 1c11.333 2.66699 22 5.16699 32 7.5s20 5.16602 30 8.49902c14 4 28.5 9 43.5 15
s32.5 13.333 52.5 22h10v-156h200v-40h-200v-120l6 2l6 2c5.33301 2 11 3.83301 17 5.5s11.667 3.16699 17 4.5c6.66699 2 13.334 3.5 20.001 4.5s13 1.5 19 1.5h10c6 0 11.833 -0.166992 17.5 -0.5s11.5 -0.833008 17.5 -1.5c57.334 -6 110.167 -28.5 158.5 -67.5
s72.5 -99.5 72.5 -181.5c0 -72 -18.833 -140.667 -56.5 -206s-79.167 -123 -124.5 -173c-13.333 -14.667 -26.666 -28.5 -39.999 -41.5s-26 -25.167 -38 -36.5l-10 -1l-37 37c63.334 79.333 104.167 152.666 122.5 219.999s27.5 122.666 27.5 165.999
c0 79.333 -14.667 137.333 -44 174s-65.666 55.334 -108.999 56.001c-8.66699 -0.666992 -17.5 -1.5 -26.5 -2.5s-17.5 -2.83301 -25.5 -5.5v-356v-2.5v-2.5v-2.5v-2.5c0 -4.66699 1.5 -8.83398 4.5 -12.501s10.833 -5.5 23.5 -5.5h28v-34h-10h-236v34h28
c13.333 0 21.333 2 24 6s4 8.33301 4 13v4.5v4.5v520h-70v40h70v0z" />
    <glyph glyph-name="guilsinglleft" unicode="&#x452;" horiz-adv-x="618" 
d="M92 622l-0.00292969 40.0029v1.5v0.5v2v2c0 6.66699 -1.5 12.5 -4.5 17.5s-10.833 7.5 -23.5 7.5h-23v29c2.66699 0.688477 5.5 1.35547 8.5 2c3 0.666992 5.83301 1 8.5 1c11.333 2.66699 22 5.16699 32 7.5s20 5.16602 30 8.49902c14 4 28.5 9 43.5 15
s32.5 13.333 52.5 22h10v-156h200v-40h-200v-120l6 2l6 2c5.33301 2 11 3.83301 17 5.5s11.667 3.16699 17 4.5c6.66699 2 13.334 3.5 20.001 4.5s13 1.5 19 1.5h10c6 0 11.833 -0.166992 17.5 -0.5s11.5 -0.833008 17.5 -1.5c57.334 -6 110.167 -28.5 158.5 -67.5
s72.5 -99.5 72.5 -181.5c0 -72 -18.833 -140.667 -56.5 -206s-79.167 -123 -124.5 -173c-13.333 -14.667 -26.666 -28.5 -39.999 -41.5s-26 -25.167 -38 -36.5l-10 -1l-37 37c63.334 79.333 104.167 152.666 122.5 219.999s27.5 122.666 27.5 165.999
c0 79.333 -14.667 137.333 -44 174s-65.666 55.334 -108.999 56.001c-8.66699 -0.666992 -17.5 -1.5 -26.5 -2.5s-17.5 -2.83301 -25.5 -5.5v-356v-2.5v-2.5v-2.5v-2.5c0 -4.66699 1.5 -8.83398 4.5 -12.501s10.833 -5.5 23.5 -5.5h28v-34h-10h-236v34h28
c13.333 0 21.333 2 24 6s4 8.33301 4 13v4.5v4.5v520h-70v40h70v0z" />
    <glyph glyph-name="O" horiz-adv-x="557" 
d="M211 268l23.9971 -0.00195312c14.667 0 27 8 37 24s19 33.333 27 52c3.33301 7.33301 6.33301 14.333 9 21s5.33398 13 8.00098 19c13.334 28 28.667 51.333 46 70c17.334 18.667 41.667 28 73 28h10c23.333 0 41.333 -6.33301 54 -19s20.334 -26.667 23.001 -42
c0.666992 -2 1 -4 1 -6v-6c0 -16 -5.5 -29.833 -16.5 -41.5s-26.167 -17.5 -45.5 -17.5h-10c-16 0 -29.333 5.33301 -40 16c-10.6699 10.667 -16.3369 26.334 -17.001 47.001c0 -0.667969 -0.166992 -1.33496 -0.5 -2l-0.5 -1c-0.666992 -0.672852 -1 -1.33984 -1 -2v-2
c-10 -37.333 -21 -66.333 -33 -87s-24 -36 -36 -46c-7.33301 -6 -14.333 -10.5 -21 -13.5s-13 -5.5 -19 -7.5v-2c4 0 8 -0.166992 12 -0.5c4 -0.34082 8 -1.17383 12 -2.5c24 -4.66699 47 -14.334 69 -29.001s39.333 -31 52 -49c13.333 -19.333 22.833 -37.666 28.5 -54.999
s10.5 -31.666 14.5 -42.999c1.33301 -4.66699 3 -8.66699 5 -12s4.33301 -5.66602 7 -6.99902c4 1.33301 7 4.16602 9 8.49902s3.33301 9.16602 4 14.499h10h29c0 -22.667 -7.66699 -42.5 -23 -59.5s-37.666 -25.5 -66.999 -25.5l-10 -1
c-35.333 0.666992 -62.666 14.5 -81.999 41.5s-37 62.5 -53 106.5c-1.33301 3.33301 -2.5 6.5 -3.5 9.5s-2.16699 6.16699 -3.5 9.5c-2 5.33301 -3.83301 10.5 -5.5 15.5s-3.5 9.83301 -5.5 14.5c-5.33301 14.667 -11.333 26.334 -18 35.001s-15 13 -25 13h-28v-172
c0 -13.333 2.66699 -21.333 8 -24s11 -4 17 -4h1.5h1.5h0.5h1.5h26v-34h-10h-235v34h26h1.5h0.5h1.5h1.5c6 0 11.667 1.33301 17 4s8 10.667 8 24v346c0 13.333 -2.66699 21.333 -8 24s-11 4 -17 4h-1.5h-1.5h-0.5h-1.5h-26v34h10h235v-34h-26h-1.5h-0.5h-1.5h-1.5
c-6 0 -11.667 -1.33301 -17 -4s-8 -10.667 -8 -24v-140v0z" />
    <glyph glyph-name="O" unicode="&#x45c;" horiz-adv-x="557" 
d="M211 268l23.9971 -0.00195312c14.667 0 27 8 37 24s19 33.333 27 52c3.33301 7.33301 6.33301 14.333 9 21s5.33398 13 8.00098 19c13.334 28 28.667 51.333 46 70c17.334 18.667 41.667 28 73 28h10c23.333 0 41.333 -6.33301 54 -19s20.334 -26.667 23.001 -42
c0.666992 -2 1 -4 1 -6v-6c0 -16 -5.5 -29.833 -16.5 -41.5s-26.167 -17.5 -45.5 -17.5h-10c-16 0 -29.333 5.33301 -40 16c-10.6699 10.667 -16.3369 26.334 -17.001 47.001c0 -0.667969 -0.166992 -1.33496 -0.5 -2l-0.5 -1c-0.666992 -0.672852 -1 -1.33984 -1 -2v-2
c-10 -37.333 -21 -66.333 -33 -87s-24 -36 -36 -46c-7.33301 -6 -14.333 -10.5 -21 -13.5s-13 -5.5 -19 -7.5v-2c4 0 8 -0.166992 12 -0.5c4 -0.34082 8 -1.17383 12 -2.5c24 -4.66699 47 -14.334 69 -29.001s39.333 -31 52 -49c13.333 -19.333 22.833 -37.666 28.5 -54.999
s10.5 -31.666 14.5 -42.999c1.33301 -4.66699 3 -8.66699 5 -12s4.33301 -5.66602 7 -6.99902c4 1.33301 7 4.16602 9 8.49902s3.33301 9.16602 4 14.499h10h29c0 -22.667 -7.66699 -42.5 -23 -59.5s-37.666 -25.5 -66.999 -25.5l-10 -1
c-35.333 0.666992 -62.666 14.5 -81.999 41.5s-37 62.5 -53 106.5c-1.33301 3.33301 -2.5 6.5 -3.5 9.5s-2.16699 6.16699 -3.5 9.5c-2 5.33301 -3.83301 10.5 -5.5 15.5s-3.5 9.83301 -5.5 14.5c-5.33301 14.667 -11.333 26.334 -18 35.001s-15 13 -25 13h-28v-172
c0 -13.333 2.66699 -21.333 8 -24s11 -4 17 -4h1.5h1.5h0.5h1.5h26v-34h-10h-235v34h26h1.5h0.5h1.5h1.5c6 0 11.667 1.33301 17 4s8 10.667 8 24v346c0 13.333 -2.66699 21.333 -8 24s-11 4 -17 4h-1.5h-1.5h-0.5h-1.5h-26v34h10h235v-34h-26h-1.5h-0.5h-1.5h-1.5
c-6 0 -11.667 -1.33301 -17 -4s-8 -10.667 -8 -24v-140v0z" />
    <glyph glyph-name="tilde" horiz-adv-x="586" 
d="M226 582l-0.000976562 -141.998c21.333 10 41.166 18.5 59.499 25.5s36.5 11.833 54.5 14.5c3.33301 0 6.83301 0.166992 10.5 0.5s7.16699 0.5 10.5 0.5h10h7.5c2.33301 0 4.83301 -0.333008 7.5 -1c30.667 -2 58.834 -13.5 84.501 -34.5s38.5 -56.167 38.5 -105.5v-278
c0 -14 2.5 -22.167 7.5 -24.5s11.5 -3.5 19.5 -3.5h1.5h0.5h26v-34h-10h-235v34h27c13.333 0 21.5 2 24.5 6s4.5 8.33301 4.5 13v4.5v4.5v266c0 32.667 -8 55.5 -24 68.5s-34 19.833 -54 20.5c-4.66699 -0.666992 -10 -1.66699 -16 -3l-18 -4
c-3.33301 -1.33301 -6.66602 -2.33301 -9.99902 -3s-6.33301 -1.66699 -9 -3c-3.33301 -0.666992 -6.5 -1.66699 -9.5 -3s-5.83301 -2.33301 -8.5 -3v-336v-2.5v-2.5v-2.5v-2.5c0 -4.66699 1.5 -8.83398 4.5 -12.501s10.833 -5.5 23.5 -5.5h28v-34h-10h-236v34h28
c13.333 0 21.333 2 24 6s4 8.33301 4 13v4.5v4.5v520h-70v40h70v40c0 14 -1.33301 22.667 -4 26s-10.667 5 -24 5h-23v29c2.66699 0.688477 5.5 1.35547 8.5 2c3 0.666992 5.83301 1 8.5 1c11.333 2.66699 22 5.16699 32 7.5s20 5.16602 30 8.49902c14 4 28.5 9 43.5 15
s32.5 13.333 52.5 22h10v-156h200v-40h-200v0z" />
    <glyph glyph-name="tilde" unicode="&#x45b;" horiz-adv-x="586" 
d="M226 582l-0.000976562 -141.998c21.333 10 41.166 18.5 59.499 25.5s36.5 11.833 54.5 14.5c3.33301 0 6.83301 0.166992 10.5 0.5s7.16699 0.5 10.5 0.5h10h7.5c2.33301 0 4.83301 -0.333008 7.5 -1c30.667 -2 58.834 -13.5 84.501 -34.5s38.5 -56.167 38.5 -105.5v-278
c0 -14 2.5 -22.167 7.5 -24.5s11.5 -3.5 19.5 -3.5h1.5h0.5h26v-34h-10h-235v34h27c13.333 0 21.5 2 24.5 6s4.5 8.33301 4.5 13v4.5v4.5v266c0 32.667 -8 55.5 -24 68.5s-34 19.833 -54 20.5c-4.66699 -0.666992 -10 -1.66699 -16 -3l-18 -4
c-3.33301 -1.33301 -6.66602 -2.33301 -9.99902 -3s-6.33301 -1.66699 -9 -3c-3.33301 -0.666992 -6.5 -1.66699 -9.5 -3s-5.83301 -2.33301 -8.5 -3v-336v-2.5v-2.5v-2.5v-2.5c0 -4.66699 1.5 -8.83398 4.5 -12.501s10.833 -5.5 23.5 -5.5h28v-34h-10h-236v34h28
c13.333 0 21.333 2 24 6s4 8.33301 4 13v4.5v4.5v520h-70v40h70v40c0 14 -1.33301 22.667 -4 26s-10.667 5 -24 5h-23v29c2.66699 0.688477 5.5 1.35547 8.5 2c3 0.666992 5.83301 1 8.5 1c11.333 2.66699 22 5.16699 32 7.5s20 5.16602 30 8.49902c14 4 28.5 9 43.5 15
s32.5 13.333 52.5 22h10v-156h200v-40h-200v0z" />
    <glyph glyph-name="greater" unicode="&#xa0;" horiz-adv-x="10" 
 />
    <glyph glyph-name="Z" unicode="&#xa1;" horiz-adv-x="792" 
d="M475 301l44.999 104.001c25.333 57.333 42 103.833 50 139.5s12.667 61.167 14 76.5c0 1.33301 0.166992 2.5 0.5 3.5s0.5 2.16699 0.5 3.5v3.5v3.5v2.5v2.5c0 0.666992 -0.166992 1.5 -0.5 2.5s-0.5 1.83301 -0.5 2.5
c-0.666992 5.33301 -2.83398 10.166 -6.50098 14.499s-8.16699 6.5 -13.5 6.5h-61v42h10h262v-42h-45c-6 -2.66699 -11.667 -6.16699 -17 -10.5s-10.333 -9.83301 -15 -16.5c-10 -13.3359 -20.833 -32.1689 -32.5 -56.5c-11.667 -24.333 -27.167 -57.5 -46.5 -99.5
l-157 -341c-26.667 -58 -55.334 -98.333 -86 -121c-30.667 -22.667 -68.667 -34 -114 -34l-10 -1c-38.667 0.666992 -68.5 9.66699 -89.5 27s-35.5 36.333 -43.5 57c-2 7.33301 -3.66699 14.333 -5 21s-2 13 -2 19c0 26.667 8.83301 48 26.5 64s37.834 24 60.501 24h10
c21.333 0 41 -7.5 59 -22.5s27 -37.5 27 -67.5c0 -2 -0.166992 -4 -0.5 -6s-0.5 -4 -0.5 -6c-0.666992 -2.66699 -1.16699 -5 -1.5 -7s-0.5 -4 -0.5 -6c0 -8 1.5 -14.333 4.5 -19s6.16699 -8 9.5 -10c1.33496 -1.33301 2.66797 -2.33301 4 -3
c1.33398 -0.666992 2.66699 -1 4 -1c9.33301 1.33301 21 7.33301 35 18s28.333 30.667 43 60l-88 163l-160 304c-0.666992 2 -1.5 4 -2.5 6s-2.16699 4 -3.5 6c-0.666992 2 -1.5 4 -2.5 6s-1.83301 4 -2.5 6c-6 12 -12.5 22.833 -19.5 32.5s-17.167 14.5 -30.5 14.5h-49v42
h10h342v-42h-59c-6.66699 0 -12.5 -2.16699 -17.5 -6.5c-5 -4.34375 -8.16699 -9.17676 -9.5 -14.5v-2v-2v-2v-2c0.666992 -4 1.33398 -7 2.00098 -9s1.66699 -4 3 -6l1.5 -1.5c0.333008 -0.333008 0.5 -0.833008 0.5 -1.5l168 -318v0zM439.999 732.001
c-62.667 0 -114.503 14.1719 -155.503 42.5049s-61.5 60.833 -61.5 97.5c0 20.667 7 38.667 21 54s33.667 23 59 23h10c19.333 0 34.333 -4.83301 45 -14.5s18.334 -20.167 23.001 -31.5c2 -4.66699 3.33301 -9.33398 4 -14.001s1 -9 1 -13
c0 -4.66699 -0.666992 -9.16699 -2 -13.5s-3 -8.5 -5 -12.5c-0.669922 -1.33301 -1.33691 -2.83301 -2.00098 -4.5c-0.666992 -1.66699 -1.33398 -3.5 -2 -5.5c-2 -3.33301 -3.66699 -7.33301 -5 -12s-2 -9.33398 -2 -14.001c0 -10.667 6.83301 -19.834 20.5 -27.501
s32.5 -11.834 56.5 -12.501c24.667 0.666992 43.834 5 57.501 13s20.5 17 20.5 27c0 6 -1 11.667 -3 17s-4 10.333 -6 15c0 0.692383 -0.166992 1.35938 -0.5 2c-0.333008 0.692383 -0.833008 1.35938 -1.5 2c-2 4 -3.66699 8.16699 -5 12.5s-2 8.83301 -2 13.5
c0 4 0.333008 8.33301 1 13s2 9.33398 4 14c4.6709 11.333 12.3379 21.833 23.001 31.5c10.667 9.66699 25.667 14.5 45 14.5h10c22 0 40.833 -6.5 56.5 -19.5s23.5 -32.167 23.5 -57.5c0 -34.667 -12.667 -61.834 -38 -81.501s-53 -34.167 -83 -43.5
c-18.667 -5.34473 -36.667 -9.17773 -54 -11.5c-17.333 -2.33301 -31.666 -3.5 -42.999 -3.5h-10v0z" />
    <glyph glyph-name="Z" unicode="&#x40e;" horiz-adv-x="792" 
d="M475 301l44.999 104.001c25.333 57.333 42 103.833 50 139.5s12.667 61.167 14 76.5c0 1.33301 0.166992 2.5 0.5 3.5s0.5 2.16699 0.5 3.5v3.5v3.5v2.5v2.5c0 0.666992 -0.166992 1.5 -0.5 2.5s-0.5 1.83301 -0.5 2.5
c-0.666992 5.33301 -2.83398 10.166 -6.50098 14.499s-8.16699 6.5 -13.5 6.5h-61v42h10h262v-42h-45c-6 -2.66699 -11.667 -6.16699 -17 -10.5s-10.333 -9.83301 -15 -16.5c-10 -13.3359 -20.833 -32.1689 -32.5 -56.5c-11.667 -24.333 -27.167 -57.5 -46.5 -99.5
l-157 -341c-26.667 -58 -55.334 -98.333 -86 -121c-30.667 -22.667 -68.667 -34 -114 -34l-10 -1c-38.667 0.666992 -68.5 9.66699 -89.5 27s-35.5 36.333 -43.5 57c-2 7.33301 -3.66699 14.333 -5 21s-2 13 -2 19c0 26.667 8.83301 48 26.5 64s37.834 24 60.501 24h10
c21.333 0 41 -7.5 59 -22.5s27 -37.5 27 -67.5c0 -2 -0.166992 -4 -0.5 -6s-0.5 -4 -0.5 -6c-0.666992 -2.66699 -1.16699 -5 -1.5 -7s-0.5 -4 -0.5 -6c0 -8 1.5 -14.333 4.5 -19s6.16699 -8 9.5 -10c1.33496 -1.33301 2.66797 -2.33301 4 -3
c1.33398 -0.666992 2.66699 -1 4 -1c9.33301 1.33301 21 7.33301 35 18s28.333 30.667 43 60l-88 163l-160 304c-0.666992 2 -1.5 4 -2.5 6s-2.16699 4 -3.5 6c-0.666992 2 -1.5 4 -2.5 6s-1.83301 4 -2.5 6c-6 12 -12.5 22.833 -19.5 32.5s-17.167 14.5 -30.5 14.5h-49v42
h10h342v-42h-59c-6.66699 0 -12.5 -2.16699 -17.5 -6.5c-5 -4.34375 -8.16699 -9.17676 -9.5 -14.5v-2v-2v-2v-2c0.666992 -4 1.33398 -7 2.00098 -9s1.66699 -4 3 -6l1.5 -1.5c0.333008 -0.333008 0.5 -0.833008 0.5 -1.5l168 -318v0zM439.999 732.001
c-62.667 0 -114.503 14.1719 -155.503 42.5049s-61.5 60.833 -61.5 97.5c0 20.667 7 38.667 21 54s33.667 23 59 23h10c19.333 0 34.333 -4.83301 45 -14.5s18.334 -20.167 23.001 -31.5c2 -4.66699 3.33301 -9.33398 4 -14.001s1 -9 1 -13
c0 -4.66699 -0.666992 -9.16699 -2 -13.5s-3 -8.5 -5 -12.5c-0.669922 -1.33301 -1.33691 -2.83301 -2.00098 -4.5c-0.666992 -1.66699 -1.33398 -3.5 -2 -5.5c-2 -3.33301 -3.66699 -7.33301 -5 -12s-2 -9.33398 -2 -14.001c0 -10.667 6.83301 -19.834 20.5 -27.501
s32.5 -11.834 56.5 -12.501c24.667 0.666992 43.834 5 57.501 13s20.5 17 20.5 27c0 6 -1 11.667 -3 17s-4 10.333 -6 15c0 0.692383 -0.166992 1.35938 -0.5 2c-0.333008 0.692383 -0.833008 1.35938 -1.5 2c-2 4 -3.66699 8.16699 -5 12.5s-2 8.83301 -2 13.5
c0 4 0.333008 8.33301 1 13s2 9.33398 4 14c4.6709 11.333 12.3379 21.833 23.001 31.5c10.667 9.66699 25.667 14.5 45 14.5h10c22 0 40.833 -6.5 56.5 -19.5s23.5 -32.167 23.5 -57.5c0 -34.667 -12.667 -61.834 -38 -81.501s-53 -34.167 -83 -43.5
c-18.667 -5.34473 -36.667 -9.17773 -54 -11.5c-17.333 -2.33301 -31.666 -3.5 -42.999 -3.5h-10v0z" />
    <glyph glyph-name="slash" unicode="&#xa2;" horiz-adv-x="573" 
d="M340 137l39.999 116.006c2 5.33398 4.83301 13.167 8.5 23.499c3.66699 10.334 7.5 22.167 11.5 35.499c1.33594 4.66699 2.66895 9.5 3.99902 14.5c1.33691 5 2.66992 9.83301 4 14.5l6 26c2 8.66699 3.66699 16.667 5 24c0 1.33301 0.166992 2.5 0.5 3.5
s0.5 2.16699 0.5 3.5v3.5v3.5v2.5v2.5c0 0.666992 -0.166992 1.5 -0.5 2.5s-0.5 1.83301 -0.5 2.5c-2.66699 8.66699 -7 14.334 -13 17.001s-13 4 -21 4h-20v34h10h178v-34h-20c-10 0 -17.333 -1.83301 -22 -5.5c-4.6709 -3.66992 -8.33789 -7.83691 -11.001 -12.5
c-0.666992 -0.672852 -1.16699 -1.33984 -1.5 -2c-0.333008 -0.672852 -0.833008 -1.33984 -1.5 -2c-10.667 -18.667 -23.167 -47.834 -37.5 -87.5c-14.333 -39.667 -32.166 -84.167 -53.499 -133.5l-134 -317c-12 -28.667 -27.333 -52.834 -46 -72.501
s-44.334 -29.5 -77.001 -29.5l-10 -1c-28.667 0.666016 -52 9.33301 -70 26s-27 35.667 -27 57c0 22 6.83301 39.333 20.5 52s28.834 19 45.501 19l10 -1c0.666992 0.666992 1.16699 1 1.5 1h1.5c14.667 -0.666992 28.334 -6.33398 41.001 -17.001
s19.334 -25.334 20 -44.001v-6.5c0 -2.33301 0.333008 -4.5 1 -6.5c0.666992 -4 2.16699 -7.83301 4.5 -11.5s6.16602 -5.83398 11.499 -6.50098c3.33301 0.664062 6.5 2.33105 9.5 5c3 2.66602 5.83301 6.33301 8.5 11c5.33301 7.33301 10.5 16.5 15.5 27.5
s10.5 23.167 16.5 36.5c2.66699 6 5 11.5 7 16.5s4 9.83301 6 14.5c0.666992 1.33301 1.16699 2.66602 1.5 3.99902s0.833008 2.66602 1.5 3.99902c2 4.66699 4 9.5 6 14.5s4 10.833 6 17.5l-197 418c-0.666992 2 -1.66699 4.16699 -3 6.5s-3.33301 4.83301 -6 7.5
c-3.33301 4.66699 -8.16602 8.83398 -14.499 12.501s-14.5 5.5 -24.5 5.5h-12v34h10h238v-34h-27c-1.33301 0 -2.83301 -0.166992 -4.5 -0.5s-3.5 -0.833008 -5.5 -1.5c-3.33398 -1.33301 -6.16699 -3.33301 -8.49902 -6c-2.33301 -2.66699 -3.5 -6.66699 -3.5 -12
c0 -2 0.333008 -3.66699 1 -5c0.667969 -1.33301 1.33496 -2.33301 2 -3v-1v0l1.5 -1.5c0.333008 -0.333008 0.5 -0.833008 0.5 -1.5l116 -267v0zM311.999 509.006c-48 0 -86.5 12.5039 -115.5 37.5039s-45.167 52.167 -48.5 81.5c-0.666992 2 -1 3.83301 -1 5.5v5.5
c0 17.333 5.5 31.5 16.5 42.5s25.167 16.5 42.5 16.5h10c17.333 0 30 -4.5 38 -13.5s13.333 -18.833 16 -29.5c1.3418 -4 2.1748 -8.16699 2.5 -12.5c0.333008 -4.34277 0.5 -8.17578 0.5 -11.499c0 -2.66699 -0.5 -5.16699 -1.5 -7.5s-2.16699 -4.5 -3.5 -6.5
c0 -0.666992 -0.166992 -1.33398 -0.5 -2.00098s-0.833008 -1.33398 -1.5 -2.00098l-0.5 -1c-0.333008 -0.666992 -0.833008 -1.33398 -1.5 -2.00098s-1.16699 -1.5 -1.5 -2.5s-0.833008 -1.83301 -1.5 -2.5v-0.5c0 -0.333008 -0.333008 -0.5 -1 -0.5
c-2 -3.33301 -3.83301 -6.83301 -5.5 -10.5s-2.5 -7.83398 -2.5 -12.501c0.000976562 -11.3379 6.66797 -20.1709 20 -26.5c13.333 -6.33301 28.333 -9.83301 45 -10.5c3.33301 0 6.83301 0.166992 10.5 0.5s7.16699 0.833008 10.5 1.5c11.333 2 21.5 5.66699 30.5 11
s13.5 13.333 13.5 24c0 5.33301 -0.666992 9.66602 -2 12.999s-3 6.33301 -5 9c-0.666992 1.33301 -1.5 2.5 -2.5 3.5s-1.83301 2.16699 -2.5 3.5c-1.33301 2 -2.5 4.16699 -3.5 6.5s-2.16699 4.83301 -3.5 7.5c0 1.33301 -0.166992 2.5 -0.5 3.5
s-0.833008 2.16699 -1.5 3.5c-0.666992 2 -1.16699 4.16699 -1.5 6.5s-0.166016 4.83301 0.500977 7.5v6c0 2 0.333008 4 1 6l2 6c0.666992 2 1.66699 4 3 6c3.33301 7.33301 9.33301 14 18 20s20 9 34 9h10c16.667 0 29.667 -4.66699 39 -14
c9.33301 -9.33887 15.333 -19.6719 18 -31c0.666992 -2 1.16699 -4.33301 1.5 -7s0.5 -5 0.5 -7c0 -7.33789 -1.16699 -15.1709 -3.5 -23.499c-2.33301 -8.33301 -5.5 -16.833 -9.5 -25.5c-10.668 -20.667 -28.335 -39.334 -53.001 -56.001
c-24.667 -16.667 -57.667 -25 -99 -25h-10v0z" />
    <glyph glyph-name="slash" unicode="&#x45e;" horiz-adv-x="573" 
d="M340 137l39.999 116.006c2 5.33398 4.83301 13.167 8.5 23.499c3.66699 10.334 7.5 22.167 11.5 35.499c1.33594 4.66699 2.66895 9.5 3.99902 14.5c1.33691 5 2.66992 9.83301 4 14.5l6 26c2 8.66699 3.66699 16.667 5 24c0 1.33301 0.166992 2.5 0.5 3.5
s0.5 2.16699 0.5 3.5v3.5v3.5v2.5v2.5c0 0.666992 -0.166992 1.5 -0.5 2.5s-0.5 1.83301 -0.5 2.5c-2.66699 8.66699 -7 14.334 -13 17.001s-13 4 -21 4h-20v34h10h178v-34h-20c-10 0 -17.333 -1.83301 -22 -5.5c-4.6709 -3.66992 -8.33789 -7.83691 -11.001 -12.5
c-0.666992 -0.672852 -1.16699 -1.33984 -1.5 -2c-0.333008 -0.672852 -0.833008 -1.33984 -1.5 -2c-10.667 -18.667 -23.167 -47.834 -37.5 -87.5c-14.333 -39.667 -32.166 -84.167 -53.499 -133.5l-134 -317c-12 -28.667 -27.333 -52.834 -46 -72.501
s-44.334 -29.5 -77.001 -29.5l-10 -1c-28.667 0.666016 -52 9.33301 -70 26s-27 35.667 -27 57c0 22 6.83301 39.333 20.5 52s28.834 19 45.501 19l10 -1c0.666992 0.666992 1.16699 1 1.5 1h1.5c14.667 -0.666992 28.334 -6.33398 41.001 -17.001
s19.334 -25.334 20 -44.001v-6.5c0 -2.33301 0.333008 -4.5 1 -6.5c0.666992 -4 2.16699 -7.83301 4.5 -11.5s6.16602 -5.83398 11.499 -6.50098c3.33301 0.664062 6.5 2.33105 9.5 5c3 2.66602 5.83301 6.33301 8.5 11c5.33301 7.33301 10.5 16.5 15.5 27.5
s10.5 23.167 16.5 36.5c2.66699 6 5 11.5 7 16.5s4 9.83301 6 14.5c0.666992 1.33301 1.16699 2.66602 1.5 3.99902s0.833008 2.66602 1.5 3.99902c2 4.66699 4 9.5 6 14.5s4 10.833 6 17.5l-197 418c-0.666992 2 -1.66699 4.16699 -3 6.5s-3.33301 4.83301 -6 7.5
c-3.33301 4.66699 -8.16602 8.83398 -14.499 12.501s-14.5 5.5 -24.5 5.5h-12v34h10h238v-34h-27c-1.33301 0 -2.83301 -0.166992 -4.5 -0.5s-3.5 -0.833008 -5.5 -1.5c-3.33398 -1.33301 -6.16699 -3.33301 -8.49902 -6c-2.33301 -2.66699 -3.5 -6.66699 -3.5 -12
c0 -2 0.333008 -3.66699 1 -5c0.667969 -1.33301 1.33496 -2.33301 2 -3v-1v0l1.5 -1.5c0.333008 -0.333008 0.5 -0.833008 0.5 -1.5l116 -267v0zM311.999 509.006c-48 0 -86.5 12.5039 -115.5 37.5039s-45.167 52.167 -48.5 81.5c-0.666992 2 -1 3.83301 -1 5.5v5.5
c0 17.333 5.5 31.5 16.5 42.5s25.167 16.5 42.5 16.5h10c17.333 0 30 -4.5 38 -13.5s13.333 -18.833 16 -29.5c1.3418 -4 2.1748 -8.16699 2.5 -12.5c0.333008 -4.34277 0.5 -8.17578 0.5 -11.499c0 -2.66699 -0.5 -5.16699 -1.5 -7.5s-2.16699 -4.5 -3.5 -6.5
c0 -0.666992 -0.166992 -1.33398 -0.5 -2.00098s-0.833008 -1.33398 -1.5 -2.00098l-0.5 -1c-0.333008 -0.666992 -0.833008 -1.33398 -1.5 -2.00098s-1.16699 -1.5 -1.5 -2.5s-0.833008 -1.83301 -1.5 -2.5v-0.5c0 -0.333008 -0.333008 -0.5 -1 -0.5
c-2 -3.33301 -3.83301 -6.83301 -5.5 -10.5s-2.5 -7.83398 -2.5 -12.501c0.000976562 -11.3379 6.66797 -20.1709 20 -26.5c13.333 -6.33301 28.333 -9.83301 45 -10.5c3.33301 0 6.83301 0.166992 10.5 0.5s7.16699 0.833008 10.5 1.5c11.333 2 21.5 5.66699 30.5 11
s13.5 13.333 13.5 24c0 5.33301 -0.666992 9.66602 -2 12.999s-3 6.33301 -5 9c-0.666992 1.33301 -1.5 2.5 -2.5 3.5s-1.83301 2.16699 -2.5 3.5c-1.33301 2 -2.5 4.16699 -3.5 6.5s-2.16699 4.83301 -3.5 7.5c0 1.33301 -0.166992 2.5 -0.5 3.5
s-0.833008 2.16699 -1.5 3.5c-0.666992 2 -1.16699 4.16699 -1.5 6.5s-0.166016 4.83301 0.500977 7.5v6c0 2 0.333008 4 1 6l2 6c0.666992 2 1.66699 4 3 6c3.33301 7.33301 9.33301 14 18 20s20 9 34 9h10c16.667 0 29.667 -4.66699 39 -14
c9.33301 -9.33887 15.333 -19.6719 18 -31c0.666992 -2 1.16699 -4.33301 1.5 -7s0.5 -5 0.5 -7c0 -7.33789 -1.16699 -15.1709 -3.5 -23.499c-2.33301 -8.33301 -5.5 -16.833 -9.5 -25.5c-10.668 -20.667 -28.335 -39.334 -53.001 -56.001
c-24.667 -16.667 -57.667 -25 -99 -25h-10v0z" />
    <glyph glyph-name="endash" unicode="&#xa3;" horiz-adv-x="528" 
d="M416 627l0.00292969 -376c0 -136 -27.167 -233.5 -81.5 -292.5s-116.166 -88.5 -185.499 -88.5l-10 -1c-40 0.666992 -71.167 9.5 -93.5 26.5s-36.5 35.833 -42.5 56.5c-0.666992 4 -1.33398 7.83301 -2.00098 11.5s-1 7.5 -1 11.5c0 22 6.66699 42.333 20 61
s34.666 28 63.999 28h10c24 0 42.333 -7.5 55 -22.5s21 -31.167 25 -48.5c0.666992 -4 1.16699 -8 1.5 -12s0.5 -8 0.5 -12c0 -2 -0.333008 -4 -1 -6s-1 -4 -1 -6c-0.666992 -1.33301 -1.33398 -3 -2.00098 -5s-1 -4 -1 -6c0 -8 1.66699 -14.5 5 -19.5
s8.66602 -7.83301 15.999 -8.5c19.333 2.66699 32.833 17.667 40.5 45s12.5 57.333 14.5 90c1.33301 15.333 2 30.333 2 45v41v3.5v3.5v481c0 19.333 -3.33301 30.666 -10 33.999s-15 5 -25 5h-1.5h-1.5h-46v42h10h325v-42h-46h-1.5h-1.5c-10 0 -18.333 -1.66699 -25 -5
c-6.66699 -3.33789 -10 -14.6709 -10 -33.999v0z" />
    <glyph glyph-name="endash" unicode="&#x408;" horiz-adv-x="528" 
d="M416 627l0.00292969 -376c0 -136 -27.167 -233.5 -81.5 -292.5s-116.166 -88.5 -185.499 -88.5l-10 -1c-40 0.666992 -71.167 9.5 -93.5 26.5s-36.5 35.833 -42.5 56.5c-0.666992 4 -1.33398 7.83301 -2.00098 11.5s-1 7.5 -1 11.5c0 22 6.66699 42.333 20 61
s34.666 28 63.999 28h10c24 0 42.333 -7.5 55 -22.5s21 -31.167 25 -48.5c0.666992 -4 1.16699 -8 1.5 -12s0.5 -8 0.5 -12c0 -2 -0.333008 -4 -1 -6s-1 -4 -1 -6c-0.666992 -1.33301 -1.33398 -3 -2.00098 -5s-1 -4 -1 -6c0 -8 1.66699 -14.5 5 -19.5
s8.66602 -7.83301 15.999 -8.5c19.333 2.66699 32.833 17.667 40.5 45s12.5 57.333 14.5 90c1.33301 15.333 2 30.333 2 45v41v3.5v3.5v481c0 19.333 -3.33301 30.666 -10 33.999s-15 5 -25 5h-1.5h-1.5h-46v42h10h325v-42h-46h-1.5h-1.5c-10 0 -18.333 -1.66699 -25 -5
c-6.66699 -3.33789 -10 -14.6709 -10 -33.999v0z" />
    <glyph glyph-name="quotedblleft" unicode="&#xa4;" horiz-adv-x="885" 
d="M735 -14l-113.998 114c-6.66699 -5.33301 -13.5 -10.166 -20.5 -14.499s-13.833 -8.16602 -20.5 -11.499c-24.667 -12 -48.5 -20 -71.5 -24s-43.5 -6 -61.5 -6h-10c-18 0 -38.5 2 -61.5 6s-46.833 12 -71.5 24c-6.66699 3.33301 -13.5 7.16602 -20.5 11.499
s-13.833 9.16602 -20.5 14.499l-113 -114h-10l-70 70l118 118c-2.66699 4 -6.33398 9.66699 -11.001 17s-9.33398 16 -14.001 26c-8 16 -15.167 35.167 -21.5 57.5s-9.5 47.5 -9.5 75.5s3.16699 53.167 9.5 75.5s13.5 41.5 21.5 57.5c4.66699 10 9.33398 18.667 14 26
c4.66699 7.33301 8.33398 13 11 17l-118 118l70 70h10l113 -113c6.66699 5.33301 13.5 10 20.5 14s13.833 7.66699 20.5 11c24.667 12.6719 48.5 20.8389 71.5 24.501c23 3.66699 43.5 5.5 61.5 5.5h10c18 0 38.5 -1.83301 61.5 -5.5s46.833 -11.834 71.5 -24.501
c6.66699 -3.33301 13.5 -7 20.5 -11s13.833 -8.66699 20.5 -14l114 113h10l70 -70l-118 -118c3.33301 -4 7.16602 -9.5 11.499 -16.5s8.83301 -15.167 13.5 -24.5c7.33301 -16 14.333 -35.333 21 -58s10 -48.334 10 -77c0 -28.667 -3.33301 -54.334 -10 -77
c-6.66699 -22.667 -13.667 -42 -21 -58c-4.66699 -9.33301 -9.16699 -17.5 -13.5 -24.5c-4.34375 -7 -8.17676 -12.5 -11.499 -16.5l118 -118l-70 -70h-10v0zM442.002 123l5.5 0.000976562c1.66699 0 3.5 0.333008 5.5 1c52.667 4 101 26.333 145 67s66 93.667 66 159
c0 59.334 -21.5 111.667 -64.5 157s-95.5 68.666 -157.5 69.999c-60.667 -1.33301 -112.667 -24 -156 -68s-65 -97 -65 -159s21.667 -115 65 -159s95.333 -66.667 156 -68v0z" />
    <glyph glyph-name="emdash" unicode="&#xa5;" horiz-adv-x="573" 
d="M42 708l270 0.000976562h8h8c32 2 63 8.66699 93 20s53.667 23.666 71 36.999c8.66699 6.66699 15.5 13 20.5 19s7.5 11.667 7.5 17v41h10h43v-176h-242h-1.5h-1.5c-10 0 -18.333 -1.66699 -25 -5c-6.66699 -3.33789 -10 -14.6709 -10 -33.999v-546
c0 -19.333 3.33301 -30.666 10 -33.999s15 -5 25 -5h1.5h1.5h46v-42h-10h-325v42h46h1.5h1.5c10 0 18.333 1.66699 25 5s10 14.666 10 33.999v546c0 19.333 -3.33301 30.666 -10 33.999s-15 5 -25 5h-1.5h-1.5h-46v42v0z" />
    <glyph glyph-name="emdash" unicode="&#x490;" horiz-adv-x="573" 
d="M42 708l270 0.000976562h8h8c32 2 63 8.66699 93 20s53.667 23.666 71 36.999c8.66699 6.66699 15.5 13 20.5 19s7.5 11.667 7.5 17v41h10h43v-176h-242h-1.5h-1.5c-10 0 -18.333 -1.66699 -25 -5c-6.66699 -3.33789 -10 -14.6709 -10 -33.999v-546
c0 -19.333 3.33301 -30.666 10 -33.999s15 -5 25 -5h1.5h1.5h46v-42h-10h-325v42h46h1.5h1.5c10 0 18.333 1.66699 25 5s10 14.666 10 33.999v546c0 19.333 -3.33301 30.666 -10 33.999s-15 5 -25 5h-1.5h-1.5h-46v42v0z" />
    <glyph glyph-name="circumflex" unicode="&#xa6;" horiz-adv-x="363" 
d="M98 64c0 22 8.00098 40.667 24.001 56s34.333 23 55 23h10c20.667 0 38.834 -7.66699 54.5 -23c15.667 -15.333 23.5 -34 23.5 -56c0 -3.33301 -0.333008 -6.83301 -1 -10.5c-0.670898 -3.66699 -1.33789 -7.5 -2.00098 -11.5c-4.66699 -14 -13.167 -26.667 -25.5 -38
s-28.833 -17 -49.5 -17l-10 -1c-21.333 0.666992 -39.833 8.5 -55.5 23.5s-23.5 33.167 -23.5 54.5v0zM98.001 398c0 21.334 7.83301 39.668 23.5 55c15.667 15.333 34.167 23 55.5 23h10c20.667 0 37.167 -5.83301 49.5 -17.5s20.833 -24.5 25.5 -38.5
c0.666992 -4 1.33398 -7.83301 2.00098 -11.5s1 -7.16699 1 -10.5c0 -22 -7.83301 -40.667 -23.5 -56s-33.834 -23 -54.501 -23h-10c-20.667 0 -39 7.66699 -55 23s-24 34 -24 56v0z" />
    <glyph glyph-name="scaron" unicode="&#xa7;" horiz-adv-x="646" 
d="M292 528l195.997 -143.006c3.33301 -2.66699 8.83301 -7.16699 16.5 -13.5c7.6709 -6.33301 15.8379 -14.166 24.501 -23.499c10.667 -12.667 20.667 -27.5 30 -44.5s14 -35.833 14 -56.5c0 -7.33301 -0.5 -15 -1.5 -23s-2.5 -15.667 -4.5 -23
c-8.66699 -30.667 -23.167 -59.834 -43.5 -87.501s-42.833 -48.167 -67.5 -61.5c9.33301 -9.33301 17.333 -23.333 24 -42s10 -43.334 10 -74.001c0 -45.333 -19.5 -83.666 -58.5 -114.999s-87.167 -47 -144.5 -47l-10 -1c-42.667 0.666992 -78.5 11 -107.5 31
s-43.5 44 -43.5 72v6c0 2 0.333008 4 1 6c2 14 8.66699 27 20 39s27.666 18 48.999 18l10 -1c21.333 0.666992 37.666 -5.16602 48.999 -17.499c11.335 -12.333 18.668 -26.166 21.999 -41.499c0 -2.66699 0.166992 -5.16699 0.5 -7.5s0.5 -4.83301 0.5 -7.5v-5v-4
c-0.666992 -1.33203 -1 -2.66504 -1 -3.99902v-5c0 -2 0.166992 -4 0.5 -6s0.833008 -4 1.5 -6c2 -6 5.33301 -11.5 10 -16.5s11.334 -7.83301 20.001 -8.5c21.333 1.33301 38.5 10.833 51.5 28.5s19.5 39.167 19.5 64.5c0 16.667 -5 30.834 -15 42.501
s-20.667 21.834 -32 30.501c-7.33301 5.33301 -14.166 9.83301 -20.499 13.5s-11.833 7.16699 -16.5 10.5l-144 108c-4 3.33301 -8.33301 6.83301 -13 10.5s-9.33398 7.83398 -14.001 12.501c-12.667 13.333 -24.5 29.833 -35.5 49.5s-16.5 42.5 -16.5 68.5
c0 38.667 10.5 72.834 31.5 102.501s47.167 55.834 78.5 78.501c-10.667 11.335 -20 24.668 -28 40c-8 15.334 -12 34.667 -12 57.999c0 4 0.166992 7.83301 0.5 11.5s0.5 7.5 0.5 11.5c4.66699 41.333 23.334 79.333 56.001 114s86 52 160 52h10
c37.334 0 66.167 -6.16699 86.5 -18.5c20.333 -12.3389 34.5 -26.1719 42.5 -41.5c4 -6.66699 6.83301 -13.5 8.5 -20.5s2.5 -13.167 2.5 -18.5v-1.5v-1.5c-0.666992 -18 -7.16699 -34.5 -19.5 -49.5s-29.166 -22.5 -50.499 -22.5h-10
c-19.333 0 -37.166 6.16699 -53.499 18.5s-24.5 29.833 -24.5 52.5v4.5v4.5v2v2v1v2v4.5c0 1.66699 -0.333008 3.16699 -1 4.5c-0.671875 7.33301 -3.83887 14.166 -9.5 20.499c-5.66797 6.33301 -15.835 9.83301 -30.5 10.5c-16.667 -0.666992 -31.5 -7.5 -44.5 -20.5
s-19.5 -32.167 -19.5 -57.5c0 -4 0.333008 -7.83301 1 -11.5s1.66699 -7.5 3 -11.5c3.33301 -7.33301 8.33301 -14.833 15 -22.5s15.334 -15.5 26.001 -23.5v0zM235.997 234.994l193 -148c5.33301 5.33301 10 11 14 17s7.33301 12 10 18c4 9.33301 6.66699 18.333 8 27
s2 16 2 22c0 13.333 -2.5 26.666 -7.5 39.999s-18.167 28 -39.5 44l-199 151c-14.667 -14.667 -24.167 -28.5 -28.5 -41.5s-6.5 -24.5 -6.5 -34.5c0 -17.333 3.16699 -32.166 9.5 -44.499s13.5 -22.5 21.5 -30.5c4.66699 -4.66699 9 -8.66699 13 -12s7.33301 -6 10 -8v0z
" />
    <glyph glyph-name="H" unicode="&#xa8;" horiz-adv-x="699" 
d="M626 539l-46.001 0.00292969l-4 41c-1.33301 15.333 -14.833 28.666 -40.5 39.999s-53.834 20.666 -84.5 27.999c-22 5.33301 -43.167 9.5 -63.5 12.5s-36.166 4.83301 -47.499 5.5c-13.333 -0.666992 -23.333 -3 -30 -7s-11 -8.33301 -13 -13
c-2 -2.66699 -3.16699 -5.5 -3.5 -8.5s-0.5 -5.5 -0.5 -7.5v-234h17c43.333 0 75.833 2.83301 97.5 8.5s37.167 12.167 46.5 19.5c4 3.33301 7 6.5 9 9.5s3.66699 5.83301 5 8.5v50h10h42v-238h-10h-42v60c-6.66699 9.33496 -17.5 16.668 -32.5 22
c-15 5.33301 -30.5 9.33301 -46.5 12c-16.667 2.66699 -32.5 4.33398 -47.5 5.00098s-25.833 1 -32.5 1h-16v-273c0 -16.667 4.5 -27.334 13.5 -32.001s22.5 -7 40.5 -7c48.667 0.666992 89.5 6.33398 122.5 17.001s58.833 22.334 77.5 35.001
c13.333 9.33301 23.333 18.166 30 26.499s10.667 14.833 12 19.5l11 45h10l47 -6l-33 -179h-10h-572v42h46h1.5h1.5c10 0 18.333 1.66699 25 5s10 14.666 10 33.999v546c0 19.333 -3.33301 30.666 -10 33.999s-15 5 -25 5h-1.5h-1.5h-46v42h10h571l13 -169h-10v0z
M156.999 833.003c0 20 5.83301 35.499 17.5 46.499s24.5 17.5 38.5 19.5c1.33301 0.666992 3 1 5 1h6h10c18 0 33.667 -6.33301 47 -19s20 -28.667 20 -48c0 -18.667 -6.66699 -34.5 -20 -47.5s-29 -19.5 -47 -19.5h-10h-6c-2 0 -3.66699 0.333008 -5 1
c-14 2.67285 -26.833 9.33984 -38.5 20.001c-11.667 10.667 -17.5 26 -17.5 46v0zM391.999 833.002v1.5v1.5c0.666992 16 7 30.667 19 44s28 20 48 20h10c19.333 0 35.333 -6.5 48 -19.5s19 -28.833 19 -47.5s-6.5 -34.5 -19.5 -47.5s-28.833 -19.5 -47.5 -19.5h-10
c-18.667 0 -34.5 6.5 -47.5 19.5s-19.5 28.833 -19.5 47.5v0z" />
    <glyph glyph-name="H" unicode="&#x401;" horiz-adv-x="699" 
d="M626 539l-46.001 0.00292969l-4 41c-1.33301 15.333 -14.833 28.666 -40.5 39.999s-53.834 20.666 -84.5 27.999c-22 5.33301 -43.167 9.5 -63.5 12.5s-36.166 4.83301 -47.499 5.5c-13.333 -0.666992 -23.333 -3 -30 -7s-11 -8.33301 -13 -13
c-2 -2.66699 -3.16699 -5.5 -3.5 -8.5s-0.5 -5.5 -0.5 -7.5v-234h17c43.333 0 75.833 2.83301 97.5 8.5s37.167 12.167 46.5 19.5c4 3.33301 7 6.5 9 9.5s3.66699 5.83301 5 8.5v50h10h42v-238h-10h-42v60c-6.66699 9.33496 -17.5 16.668 -32.5 22
c-15 5.33301 -30.5 9.33301 -46.5 12c-16.667 2.66699 -32.5 4.33398 -47.5 5.00098s-25.833 1 -32.5 1h-16v-273c0 -16.667 4.5 -27.334 13.5 -32.001s22.5 -7 40.5 -7c48.667 0.666992 89.5 6.33398 122.5 17.001s58.833 22.334 77.5 35.001
c13.333 9.33301 23.333 18.166 30 26.499s10.667 14.833 12 19.5l11 45h10l47 -6l-33 -179h-10h-572v42h46h1.5h1.5c10 0 18.333 1.66699 25 5s10 14.666 10 33.999v546c0 19.333 -3.33301 30.666 -10 33.999s-15 5 -25 5h-1.5h-1.5h-46v42h10h571l13 -169h-10v0z
M156.999 833.003c0 20 5.83301 35.499 17.5 46.499s24.5 17.5 38.5 19.5c1.33301 0.666992 3 1 5 1h6h10c18 0 33.667 -6.33301 47 -19s20 -28.667 20 -48c0 -18.667 -6.66699 -34.5 -20 -47.5s-29 -19.5 -47 -19.5h-10h-6c-2 0 -3.66699 0.333008 -5 1
c-14 2.67285 -26.833 9.33984 -38.5 20.001c-11.667 10.667 -17.5 26 -17.5 46v0zM391.999 833.002v1.5v1.5c0.666992 16 7 30.667 19 44s28 20 48 20h10c19.333 0 35.333 -6.5 48 -19.5s19 -28.833 19 -47.5s-6.5 -34.5 -19.5 -47.5s-28.833 -19.5 -47.5 -19.5h-10
c-18.667 0 -34.5 6.5 -47.5 19.5s-19.5 28.833 -19.5 47.5v0z" />
    <glyph glyph-name="I" unicode="&#xa9;" horiz-adv-x="822" 
d="M56 350c0 95.333 33.833 177.5 101.5 246.5s150.5 103.5 248.5 103.5h10c98 0 180.833 -34.5 248.5 -103.5s101.5 -151.167 101.5 -246.5c0 -94.667 -33.833 -176.667 -101.5 -246s-150.5 -104 -248.5 -104h-10c-94.667 -0 -176.667 33.833 -246 101.5
s-104 150.5 -104 248.5v0zM122 350c0 -80 28 -148.669 84 -206.002s124.333 -86.666 205 -87.999c79.333 1.33301 147.333 30.333 204 87s85 125.667 85 207c0 88.667 -29.833 159.334 -89.5 212.001s-125.167 80 -196.5 82h-1.5h-1.5
c-81.333 -1.33301 -149.833 -30.833 -205.5 -88.5s-83.5 -126.167 -83.5 -205.5v0zM579 534.998l-0.00195312 -134.001h-10h-48c-4.66699 24 -14 45.333 -28 64s-35 28.334 -63 29.001c-35.333 -1.33301 -59.666 -16.333 -72.999 -45s-20 -60 -20 -94v-1.5v-1.5
c0 -6 0.166992 -12.333 0.5 -19c0.34375 -6.66797 1.17676 -13.335 2.5 -20c3.33301 -26 11.833 -49.833 25.5 -71.5s35.5 -33.167 65.5 -34.5c26.667 1.33301 47.334 10.5 62.001 27.5s24 35.5 28 55.5c0.666992 3.33301 1.16699 7 1.5 11s0.5 7.66699 0.5 11h10h48v-13
c0 -8 -1 -16.667 -3 -26s-5.33301 -18.666 -10 -27.999c-10 -22.667 -27.333 -43.5 -52 -62.5s-58.667 -28.5 -102 -28.5h-10c-54.667 0 -100.167 17 -136.5 51s-54.5 82.333 -54.5 145c0 51.333 15.667 96.833 47 136.5s77.333 59.5 138 59.5h10
c21.333 0 40.5 -2.83301 57.5 -8.5s33.167 -15.834 48.5 -30.501l7 28h10h48v0z" />
    <glyph glyph-name="J" unicode="&#xaa;" horiz-adv-x="745" 
d="M612 496l-0.999023 29.998c-1.33594 39.333 -20.6689 74 -58 104c-37.333 30 -79.666 45.667 -126.999 47c-46 -1.33594 -81.5 -17.6689 -106.5 -49c-25 -31.335 -43.5 -65.668 -55.5 -103c-6.66797 -23.333 -11.668 -45.666 -15 -66.999
c-3.33301 -21.333 -5.33301 -39.333 -6 -54h143c9.33301 0 21.333 0.333008 36 1s30 1.66699 46 3c12 1.33301 23.833 2.83301 35.5 4.5s22.167 3.5 31.5 5.5h10v-90h-10c-1.33301 0.666992 -2.83301 1.16699 -4.5 1.5s-3.16699 0.833008 -4.5 1.5
c-13.334 3.33398 -28.501 6.66699 -45.5 10c-17 3.33301 -34.5 6 -52.5 8c-16.667 2.66699 -33 4.66699 -49 6s-30.333 2 -43 2h-96v-10.5v-10.5c0 -92 22 -162.333 66 -211s95 -73.667 153 -75c54 1.33301 96 20.333 126 57s54.667 80 74 130h10l48 -15
c-26.667 -82.667 -62.334 -140.167 -107.001 -172.5s-91.334 -51.833 -140.001 -58.5c-12 -1.33301 -23.667 -2.33301 -35 -3s-22.666 -1 -33.999 -1l-10 -1c-100.667 0.666992 -175.834 26.334 -225.501 77.001s-82.834 106.667 -99.501 168
c-6 20 -10.167 40.167 -12.5 60.5s-3.5 39.5 -3.5 57.5c0 102 32.5 189.667 97.5 263s155.5 110 271.5 110h10c35.333 0 66.333 -3.16699 93 -9.5c26.667 -6.33887 48.667 -13.1719 66 -20.5c2.66797 -1.33301 5.33496 -2.5 8.00098 -3.5c2.66699 -1 5 -2.16699 7 -3.5
l-1 23h10h47l11 -212h-10h-48v0z" />
    <glyph glyph-name="J" unicode="&#x404;" horiz-adv-x="745" 
d="M612 496l-0.999023 29.998c-1.33594 39.333 -20.6689 74 -58 104c-37.333 30 -79.666 45.667 -126.999 47c-46 -1.33594 -81.5 -17.6689 -106.5 -49c-25 -31.335 -43.5 -65.668 -55.5 -103c-6.66797 -23.333 -11.668 -45.666 -15 -66.999
c-3.33301 -21.333 -5.33301 -39.333 -6 -54h143c9.33301 0 21.333 0.333008 36 1s30 1.66699 46 3c12 1.33301 23.833 2.83301 35.5 4.5s22.167 3.5 31.5 5.5h10v-90h-10c-1.33301 0.666992 -2.83301 1.16699 -4.5 1.5s-3.16699 0.833008 -4.5 1.5
c-13.334 3.33398 -28.501 6.66699 -45.5 10c-17 3.33301 -34.5 6 -52.5 8c-16.667 2.66699 -33 4.66699 -49 6s-30.333 2 -43 2h-96v-10.5v-10.5c0 -92 22 -162.333 66 -211s95 -73.667 153 -75c54 1.33301 96 20.333 126 57s54.667 80 74 130h10l48 -15
c-26.667 -82.667 -62.334 -140.167 -107.001 -172.5s-91.334 -51.833 -140.001 -58.5c-12 -1.33301 -23.667 -2.33301 -35 -3s-22.666 -1 -33.999 -1l-10 -1c-100.667 0.666992 -175.834 26.334 -225.501 77.001s-82.834 106.667 -99.501 168
c-6 20 -10.167 40.167 -12.5 60.5s-3.5 39.5 -3.5 57.5c0 102 32.5 189.667 97.5 263s155.5 110 271.5 110h10c35.333 0 66.333 -3.16699 93 -9.5c26.667 -6.33887 48.667 -13.1719 66 -20.5c2.66797 -1.33301 5.33496 -2.5 8.00098 -3.5c2.66699 -1 5 -2.16699 7 -3.5
l-1 23h10h47l11 -212h-10h-48v0z" />
    <glyph glyph-name="ampersand" unicode="&#xab;" horiz-adv-x="621" 
d="M467 26l-21.999 -26.002h-10c-18 15.333 -41.333 33.666 -70 54.999s-59.334 43.333 -92 66c-6.66699 4.66699 -13.5 9.33398 -20.5 14.001s-13.833 9.33398 -20.5 14c-28.667 19.333 -56.834 37.666 -84.501 54.999s-52.5 32.333 -74.5 45
c19.333 10.667 45.666 26.834 78.999 48.501s68 44.834 104 69.501c4 2.66699 8.16699 5.5 12.5 8.5s8.5 6.16699 12.5 9.5c30.667 20.667 59.667 41.167 87 61.5c27.334 20.333 49.667 37.5 67 51.5h10l22 -25c-18 -23.333 -34.333 -44.166 -49 -62.499
c-14.668 -18.333 -29.335 -35.833 -44 -52.5c-2 -2 -4 -4.16699 -6 -6.5s-4 -4.83301 -6 -7.5c-12.667 -14.667 -25.834 -29.5 -39.5 -44.5c-13.667 -15 -28.5 -31.833 -44.5 -50.5c20 -22 38.333 -42.333 55 -61s32.334 -37 47.001 -55c3.33301 -4 6.5 -7.83301 9.5 -11.5
s6.16699 -7.5 9.5 -11.5c10.667 -12.667 21.667 -26 33 -40s23 -28.667 35 -44v0zM548.001 102.998l-21.9961 -20h-10c-37.333 34.667 -67.333 61.167 -90 79.5s-40.334 32.5 -53 42.5c-2.66699 2 -5.16699 4 -7.5 6s-4.83301 3.66699 -7.5 5v1v0
c-5.33301 4 -11 8.33301 -17 13s-13.667 11 -23 19c8.66699 7.33301 16 13.333 22 18s11.333 9 16 13h1v1l8 6c2.66699 2 5.66699 4.33301 9 7c15.334 11.334 34.667 26.667 58 46c23.333 19.334 51.333 44.667 84 76h10l22 -20c-4.66699 -8 -11.334 -18.333 -20.001 -31
s-17.667 -25.667 -27 -39c-0.668945 -1.33301 -1.33594 -2.33301 -2.00098 -3c-0.670898 -0.666992 -1.33789 -1.66699 -2.00098 -3c-10.6689 -14.667 -20.8359 -28.667 -30.501 -42c-9.66797 -13.333 -16.835 -23 -21.5 -29l19.5 -26c7 -9.33301 14.167 -19 21.5 -29
c1.33301 -2.66699 2.83301 -5 4.5 -7s3.16699 -4.33301 4.5 -7c10 -14 19.667 -27.667 29 -41s17.333 -25.333 24 -36v0z" />
    <glyph glyph-name="quotesingle" unicode="&#xac;" horiz-adv-x="780" 
d="M84 310v84h10h602v-234h-10h-90v150h-512v0z" />
    <glyph glyph-name="daggerdbl" unicode="&#xad;" horiz-adv-x="372" 
d="M42 206v84h10h278v-84h-10h-278v0z" />
    <glyph glyph-name="dagger" unicode="&#xae;" horiz-adv-x="431" 
d="M56 563c0 41.333 15 77.333 45 108s66.667 46 110 46h10c43.333 0 79.833 -15.333 109.5 -46s44.5 -66.667 44.5 -108c0 -41.334 -14.833 -77.334 -44.5 -108c-29.667 -30.667 -66.167 -46 -109.5 -46h-10c-43.333 0 -80 15.333 -110 46s-45 66.667 -45 108v0zM87 563
c0 -36.667 12.833 -67.667 38.5 -93s55.834 -38.666 90.501 -39.999c34.667 1.33398 64.667 14.667 90 39.999c25.333 25.334 38 56.334 38 93c0 35.333 -12.333 66 -37 92s-55 39.667 -91 41c-36.667 -1.33496 -67.334 -15.168 -92.001 -41.5
c-24.667 -26.333 -37 -56.833 -37 -91.5v0zM143 640l108.997 0.00292969c14.667 0 25.334 -2.16699 32.001 -6.5c6.66699 -4.34277 11.334 -9.17578 14.001 -14.5c1.34277 -2 2.17578 -4.16699 2.5 -6.5c0.333008 -2.33301 0.5 -4.5 0.5 -6.5v-2.5v-2.5
c-1.33301 -8.66699 -5.66602 -16.5 -12.999 -23.5s-19.666 -10.833 -36.999 -11.5v-2h7c1.33691 0 3.16992 -0.166992 5.49902 -0.5c2.33301 -0.333008 4.5 -0.833008 6.5 -1.5c3.33301 -1.33301 6.5 -3.5 9.5 -6.5s4.5 -7.5 4.5 -13.5v-32c0 -1.33301 0.333008 -2.5 1 -3.5
s1.66699 -2.16699 3 -3.5c0.666992 1.33301 1.16699 2.5 1.5 3.5s0.5 2.83301 0.5 5.5v14h10h12v-15c0 -8.66699 -3.16699 -15 -9.5 -19s-13.833 -6 -22.5 -6h-10c-9.33301 0 -17.833 2.5 -25.5 7.5s-11.5 12.167 -11.5 21.5v27v3c0 1.33301 -0.333008 2.66602 -1 3.99902
c-0.666992 2 -2 3.83301 -4 5.5s-5 2.5 -9 2.5h-8v-46v-1c0 -0.674805 0.333008 -1.3418 1 -2.00098c0 -0.674805 0.666992 -1.3418 2 -2.00098c1.33301 -0.666992 3 -1 5 -1h9v-19h-10h-85v19h16h1.5h1.5c1.33301 0.666992 2.5 1.5 3.5 2.5s1.5 2.16699 1.5 3.5v103
c0 2 -0.5 3.5 -1.5 4.5l-2.5 2.5h-2h-2h-16v19h10v0zM210.997 575.003l7 0.000976562c9.33301 0 16 1.83301 20 5.5s6.33301 7.5 7 11.5c0.666992 1.33301 1 2.5 1 3.5v2.5c0 7.33301 -1.66699 12.666 -5 15.999s-7 5.33301 -11 6c-2.66699 0.666992 -5 1 -7 1h-5h-7v-46v0z
" />
    <glyph glyph-name="macron" unicode="&#xaf;" horiz-adv-x="418" 
d="M292 627v-546c0 -19.333 3.33301 -30.666 10 -33.999s15 -5 25 -5h1.5h1.5h46v-42h-10h-325v42h46h1.5h1.5c10 0 18.333 1.66699 25 5s10 14.666 10 33.999v546c0 19.333 -3.33301 30.666 -10 33.999s-15 5 -25 5h-1.5h-1.5h-46v42h10h325v-42h-46h-1.5h-1.5
c-10 0 -18.333 -1.66699 -25 -5c-6.66699 -3.33789 -10 -14.6709 -10 -33.999v0zM22 830c0 20 6.83398 36.6689 20.501 50.002s30.167 20 49.5 20h10c18.667 0 33.5 -5.33301 44.5 -16s18.5 -22.334 22.5 -35.001c1.33301 -3.33301 2.16602 -6.5 2.49902 -9.5
s0.5 -6.16699 0.5 -9.5c0 -2.66699 -0.166992 -5.66699 -0.5 -9c-0.338867 -3.33496 -1.17188 -6.66797 -2.5 -10c-4 -12.667 -11.5 -24.334 -22.5 -35.001s-25.833 -16 -44.5 -16h-10c-19.333 0 -35.833 6.66699 -49.5 20s-20.5 30 -20.5 50v0zM246.001 830.002
c0 20 6.83203 36.6689 20.499 50.002s30.167 20 49.5 20h10c18.667 0 33.5 -5.33301 44.5 -16s18.5 -22.334 22.5 -35.001c1.3457 -3.33301 2.17871 -6.5 2.5 -9.5c0.333008 -3 0.5 -6.16699 0.5 -9.5c0 -2.66699 -0.166992 -5.66699 -0.5 -9
c-0.333008 -3.33496 -1.16602 -6.66797 -2.49902 -10c-4 -12.667 -11.5 -24.334 -22.5 -35.001s-25.833 -16 -44.5 -16h-10c-19.333 0 -35.833 6.66699 -49.5 20s-20.5 30 -20.5 50v0z" />
    <glyph glyph-name="macron" unicode="&#x407;" horiz-adv-x="418" 
d="M292 627v-546c0 -19.333 3.33301 -30.666 10 -33.999s15 -5 25 -5h1.5h1.5h46v-42h-10h-325v42h46h1.5h1.5c10 0 18.333 1.66699 25 5s10 14.666 10 33.999v546c0 19.333 -3.33301 30.666 -10 33.999s-15 5 -25 5h-1.5h-1.5h-46v42h10h325v-42h-46h-1.5h-1.5
c-10 0 -18.333 -1.66699 -25 -5c-6.66699 -3.33789 -10 -14.6709 -10 -33.999v0zM22 830c0 20 6.83398 36.6689 20.501 50.002s30.167 20 49.5 20h10c18.667 0 33.5 -5.33301 44.5 -16s18.5 -22.334 22.5 -35.001c1.33301 -3.33301 2.16602 -6.5 2.49902 -9.5
s0.5 -6.16699 0.5 -9.5c0 -2.66699 -0.166992 -5.66699 -0.5 -9c-0.338867 -3.33496 -1.17188 -6.66797 -2.5 -10c-4 -12.667 -11.5 -24.334 -22.5 -35.001s-25.833 -16 -44.5 -16h-10c-19.333 0 -35.833 6.66699 -49.5 20s-20.5 30 -20.5 50v0zM246.001 830.002
c0 20 6.83203 36.6689 20.499 50.002s30.167 20 49.5 20h10c18.667 0 33.5 -5.33301 44.5 -16s18.5 -22.334 22.5 -35.001c1.3457 -3.33301 2.17871 -6.5 2.5 -9.5c0.333008 -3 0.5 -6.16699 0.5 -9.5c0 -2.66699 -0.166992 -5.66699 -0.5 -9
c-0.333008 -3.33496 -1.16602 -6.66797 -2.49902 -10c-4 -12.667 -11.5 -24.334 -22.5 -35.001s-25.833 -16 -44.5 -16h-10c-19.333 0 -35.833 6.66699 -49.5 20s-20.5 30 -20.5 50v0z" />
    <glyph glyph-name="zero" unicode="&#xb0;" horiz-adv-x="335" 
d="M56 616c0 29.333 10.167 54.333 30.5 75s45.833 31 76.5 31h10c29.333 0 54.333 -10 75 -30s31 -45.333 31 -76c0 -30 -10.333 -55.167 -31 -75.5s-45.667 -30.5 -75 -30.5h-10c-30.667 0 -56.167 10.5 -76.5 31.5s-30.5 45.833 -30.5 74.5v0zM117 616
c0 -14.667 4.16699 -26.4961 12.5 -35.4961s17.5 -15.167 27.5 -18.5c2 0 3.83301 -0.333008 5.5 -1s3.5 -1 5.5 -1c14 1.33301 26 7.66602 36 18.999s15 23.666 15 36.999s-5 25.666 -15 36.999s-22 17.666 -36 18.999c-2 0 -3.83301 -0.333008 -5.5 -1s-3.5 -1 -5.5 -1
c-10 -3.33301 -19.167 -9.5 -27.5 -18.5s-12.5 -20.833 -12.5 -35.5v0z" />
    <glyph glyph-name="at" unicode="&#xb1;" horiz-adv-x="780" 
d="M84 50v84h10h602v-84h-10h-602v0zM430 183h-84v160h-262v84h262v202h10h84v-202h256v-84h-256v-160h-10v0z" />
    <glyph glyph-name="P" unicode="&#xb2;" horiz-adv-x="419" 
d="M293 627v-546c0 -19.333 3.33301 -30.666 10 -33.999s15 -5 25 -5h1.5h1.5h46v-42h-10h-325v42h46h1.5h1.5c10 0 18.333 1.66699 25 5s10 14.666 10 33.999v546c0 19.333 -3.33301 30.666 -10 33.999s-15 5 -25 5h-1.5h-1.5h-46v42h10h325v-42h-46h-1.5h-1.5
c-10 0 -18.333 -1.66699 -25 -5c-6.66699 -3.33789 -10 -14.6709 -10 -33.999v0z" />
    <glyph glyph-name="P" unicode="&#x406;" horiz-adv-x="419" 
d="M293 627v-546c0 -19.333 3.33301 -30.666 10 -33.999s15 -5 25 -5h1.5h1.5h46v-42h-10h-325v42h46h1.5h1.5c10 0 18.333 1.66699 25 5s10 14.666 10 33.999v546c0 19.333 -3.33301 30.666 -10 33.999s-15 5 -25 5h-1.5h-1.5h-46v42h10h325v-42h-46h-1.5h-1.5
c-10 0 -18.333 -1.66699 -25 -5c-6.66699 -3.33789 -10 -14.6709 -10 -33.999v0z" />
    <glyph glyph-name="S" unicode="&#xb3;" horiz-adv-x="345" 
d="M106 62l0.000976562 302.999c0 12 -2 20 -6 24s-8.33301 6.33301 -13 7h-3.5h-3.5h-26v30c14.667 2 30.167 5 46.5 9s32.833 8.66699 49.5 14c13.333 4.66699 26.666 9.83398 39.999 15.501s26.333 11.5 39 17.5h10v-420c0 -13.333 2.66699 -21.333 8 -24s11 -4 17 -4
h1.5h1.5h0.5h1.5h26v-34h-10h-235v34h26h1.5h0.5h1.5h1.5c6 0 11.667 1.33301 17 4s8 10.667 8 24v0zM239.001 648.999c0 -20 -6.83301 -37 -20.5 -51s-30.5 -21 -50.5 -21h-10c-20 0 -36.833 7 -50.5 21s-20.5 31 -20.5 51c0 19.333 6.66699 35.833 20 49.5
s30.333 20.5 51 20.5h10c21.333 0 38.5 -6.83301 51.5 -20.5s19.5 -30.167 19.5 -49.5v0z" />
    <glyph glyph-name="S" unicode="&#x456;" horiz-adv-x="345" 
d="M106 62l0.000976562 302.999c0 12 -2 20 -6 24s-8.33301 6.33301 -13 7h-3.5h-3.5h-26v30c14.667 2 30.167 5 46.5 9s32.833 8.66699 49.5 14c13.333 4.66699 26.666 9.83398 39.999 15.501s26.333 11.5 39 17.5h10v-420c0 -13.333 2.66699 -21.333 8 -24s11 -4 17 -4
h1.5h1.5h0.5h1.5h26v-34h-10h-235v34h26h1.5h0.5h1.5h1.5c6 0 11.667 1.33301 17 4s8 10.667 8 24v0zM239.001 648.999c0 -20 -6.83301 -37 -20.5 -51s-30.5 -21 -50.5 -21h-10c-20 0 -36.833 7 -50.5 21s-20.5 31 -20.5 51c0 19.333 6.66699 35.833 20 49.5
s30.333 20.5 51 20.5h10c21.333 0 38.5 -6.83301 51.5 -20.5s19.5 -30.167 19.5 -49.5v0z" />
    <glyph glyph-name="T" unicode="&#xb4;" horiz-adv-x="411" 
d="M14 470l213 -0.000976562h6c29.333 0 55.833 6.33301 79.5 19s35.5 29.334 35.5 50.001v25h10h36v-128h-162h-5.5c-3 0 -5.83301 -0.666992 -8.5 -2c-4 -0.666992 -7.5 -2 -10.5 -4s-4.5 -5.33301 -4.5 -10v-358c0 -13.333 2.66699 -21.333 8 -24s11 -4 17 -4h1.5h1.5
h0.5h1.5h26v-34h-10h-235v34h26h1.5h0.5h1.5h1.5c6 0 11.667 1.33301 17 4s8 10.667 8 24v346c0 13.333 -2.66699 21.333 -8 24s-11 4 -17 4h-1.5h-1.5h-0.5h-1.5h-26v34v0z" />
    <glyph glyph-name="T" unicode="&#x491;" horiz-adv-x="411" 
d="M14 470l213 -0.000976562h6c29.333 0 55.833 6.33301 79.5 19s35.5 29.334 35.5 50.001v25h10h36v-128h-162h-5.5c-3 0 -5.83301 -0.666992 -8.5 -2c-4 -0.666992 -7.5 -2 -10.5 -4s-4.5 -5.33301 -4.5 -10v-358c0 -13.333 2.66699 -21.333 8 -24s11 -4 17 -4h1.5h1.5
h0.5h1.5h26v-34h-10h-235v34h26h1.5h0.5h1.5h1.5c6 0 11.667 1.33301 17 4s8 10.667 8 24v346c0 13.333 -2.66699 21.333 -8 24s-11 4 -17 4h-1.5h-1.5h-0.5h-1.5h-26v34v0z" />
    <glyph glyph-name="U" unicode="&#xb5;" horiz-adv-x="604" 
d="M233 470l0.000976562 -323.995c0 -4.66699 0.333008 -11 1 -19s2 -16 4 -24c4 -12.667 10.667 -24.334 20 -35.001c9.33398 -10.667 23.667 -16.334 43 -17.001c16 1.33301 31.167 5.66602 45.5 12.999s25.833 17.666 34.5 30.999v375h10h123v-386
c0 -6.66699 0.666992 -12.5 2 -17.5s4.33301 -8.16699 9 -9.5c3.33301 1.33301 7 4.16602 11 8.49902s8 10.5 12 18.5h10l29 -11c-7.33301 -21.333 -18.833 -40.5 -34.5 -57.5s-38.167 -25.5 -67.5 -25.5l-10 -1c-21.333 0.666992 -38.333 5.66699 -51 15
s-22.667 19.666 -30 30.999c-1.33301 2 -2.5 3.83301 -3.5 5.5s-1.83301 3.5 -2.5 5.5c-11.333 -14 -24.333 -25.167 -39 -33.5s-29.334 -14.166 -44 -17.499c-6.66699 -2 -13.167 -3.33301 -19.5 -4s-12.5 -1 -18.5 -1l-10 -1c-2.66699 0.666992 -5.16699 1.16699 -7.5 1.5
s-4.83301 0.5 -7.5 0.5c-17.334 2.66699 -33.667 10 -49 22s-26.333 28.333 -33 49v-2.5v-3.5c0 -23.333 2 -42.5 6 -57.5s8 -28.5 12 -40.5c0.666992 -1.33301 1.16699 -2.5 1.5 -3.5s0.833008 -2.16699 1.5 -3.5c0.666992 -2 1.33398 -3.83301 2 -5.5
c0.666992 -1.66699 1.33398 -3.5 2 -5.5c3.33301 -9.33301 6.5 -19.666 9.5 -30.999s4.5 -24 4.5 -38c0 -20.667 -4.33301 -35.834 -13 -45.501s-18.334 -16.167 -29.001 -19.5c-6 -2 -11.833 -3.33301 -17.5 -4s-10.5 -1 -14.5 -1l-10 -1
c-3.33301 0.665039 -7.16602 1.33203 -11.499 2c-4.33301 0.666992 -8.5 1.66699 -12.5 3c-10 4 -19.333 11.333 -28 22s-13 26.667 -13 48c0 4 0.166992 7.83301 0.5 11.5s0.5 7.5 0.5 11.5c2 16.667 5.16699 33.667 9.5 51s9.16602 35.333 14.499 54
c6 24.667 11.667 51.667 17 81s8 63.333 8 102v284h10h123v0z" />
    <glyph glyph-name="V" unicode="&#xb6;" horiz-adv-x="684" 
d="M240 -224l-0.000976562 568h-2.5h-3.5c-48 0.666992 -92 16 -132 46s-60 75.333 -60 136c0 6 0.333008 11.833 1 17.5s1.33398 11.5 2.00098 17.5c7.33301 36.668 26.333 70.335 57 101c30.667 30.667 76.667 46 138 46h10h392v-45h-112v-887h-10h-84v887h-102v-887h-10
h-84v0z" />
    <glyph glyph-name="quoteleft" unicode="&#xb8;" horiz-adv-x="518" 
d="M481 267h-291.999v-51c0 -50.667 7.5 -88.167 22.5 -112.5s31.5 -40.5 49.5 -48.5c8.66699 -4.66699 17.167 -7.83398 25.5 -9.50098s15.833 -2.5 22.5 -2.5c28 1.33301 52.667 9.5 74 24.5s42 35.5 62 61.5h10l27 -19c-18.667 -31.333 -45 -59.166 -79 -83.499
s-76.667 -36.5 -128 -36.5l-10 -1c-60.667 0.666992 -114 21.167 -160 61.5s-69 98.833 -69 175.5c0 80 23.5 142.667 70.5 188s101.833 68 164.5 68h10c8.66699 0 17.667 -0.5 27 -1.5c9.33496 -1 18.668 -2.5 28 -4.5c34.667 -8 66.667 -27.333 96 -58
c29.334 -30.667 45.667 -81 48.999 -151v0zM189.001 303l149 -0.00195312v13v13c-1.33301 28.667 -6.66602 54.834 -15.999 78.501s-27 36.5 -53 38.5c-22.667 -1.33301 -39.667 -12.166 -51 -32.499s-19.333 -42.5 -24 -66.5c-1.33301 -7.33301 -2.33301 -14.833 -3 -22.5
c-0.666992 -7.66797 -1.33398 -14.835 -2.00098 -21.5v0zM110.001 619.998c0 15.333 5.83301 29 17.5 41s25.834 18 42.501 18h10c17.333 0 31.5 -6 42.5 -18s16.5 -25.667 16.5 -41c0 -16 -5.66699 -30 -17 -42s-25.333 -18 -42 -18h-10
c-16.667 0 -30.834 5.83301 -42.501 17.5c-11.667 11.6709 -17.5 25.8379 -17.5 42.5v0zM281.001 619.998c0 15.333 5.83203 29.001 17.499 41.001s25.834 18 42.501 18h10c16.667 0 30.667 -5.83301 42 -17.5s17 -25.5 17 -41.5c0 -16.667 -6 -30.834 -18 -42.501
s-25.667 -17.5 -41 -17.5h-10c-16.667 0 -30.834 6 -42.5 18c-11.667 12 -17.5 26 -17.5 42v0z" />
    <glyph glyph-name="quoteleft" unicode="&#x451;" horiz-adv-x="518" 
d="M481 267h-291.999v-51c0 -50.667 7.5 -88.167 22.5 -112.5s31.5 -40.5 49.5 -48.5c8.66699 -4.66699 17.167 -7.83398 25.5 -9.50098s15.833 -2.5 22.5 -2.5c28 1.33301 52.667 9.5 74 24.5s42 35.5 62 61.5h10l27 -19c-18.667 -31.333 -45 -59.166 -79 -83.499
s-76.667 -36.5 -128 -36.5l-10 -1c-60.667 0.666992 -114 21.167 -160 61.5s-69 98.833 -69 175.5c0 80 23.5 142.667 70.5 188s101.833 68 164.5 68h10c8.66699 0 17.667 -0.5 27 -1.5c9.33496 -1 18.668 -2.5 28 -4.5c34.667 -8 66.667 -27.333 96 -58
c29.334 -30.667 45.667 -81 48.999 -151v0zM189.001 303l149 -0.00195312v13v13c-1.33301 28.667 -6.66602 54.834 -15.999 78.501s-27 36.5 -53 38.5c-22.667 -1.33301 -39.667 -12.166 -51 -32.499s-19.333 -42.5 -24 -66.5c-1.33301 -7.33301 -2.33301 -14.833 -3 -22.5
c-0.666992 -7.66797 -1.33398 -14.835 -2.00098 -21.5v0zM110.001 619.998c0 15.333 5.83301 29 17.5 41s25.834 18 42.501 18h10c17.333 0 31.5 -6 42.5 -18s16.5 -25.667 16.5 -41c0 -16 -5.66699 -30 -17 -42s-25.333 -18 -42 -18h-10
c-16.667 0 -30.834 5.83301 -42.501 17.5c-11.667 11.6709 -17.5 25.8379 -17.5 42.5v0zM281.001 619.998c0 15.333 5.83203 29.001 17.499 41.001s25.834 18 42.501 18h10c16.667 0 30.667 -5.83301 42 -17.5s17 -25.5 17 -41.5c0 -16.667 -6 -30.834 -18 -42.501
s-25.667 -17.5 -41 -17.5h-10c-16.667 0 -30.834 6 -42.5 18c-11.667 12 -17.5 26 -17.5 42v0z" />
    <glyph glyph-name="one" unicode="&#xb9;" horiz-adv-x="1244" 
d="M728 243l0.00195312 249.001c0 12.667 0.166992 27.334 0.5 44.001c0.333008 16.6689 2.16602 33.3359 5.49902 50c5.33301 34 17.5 65.167 36.5 93.5s51.5 42.5 97.5 42.5h10c36 0 62.667 -9.5 80 -28.5s26 -40.167 26 -63.5v-6c0 -2 -0.333008 -3.66699 -1 -5
c-2.66699 -14 -9.66699 -26.833 -21 -38.5c-11.3369 -11.667 -27.6699 -17.5 -49 -17.5h-10c-18.667 0 -32.667 4.33301 -42 13c-9.33496 8.6709 -15.668 18.3379 -19 29c-1.33301 4.6709 -2.33301 9.33789 -3 14c-0.666992 4.66699 -1 9 -1 13v6v3.5v2.5
c-0.666992 3.33301 -1.66699 6.5 -3 9.5c-1.3584 3 -3.69141 4.83301 -6.99902 5.5c-2 -0.666992 -4.33301 -1.83398 -7 -3.50098s-5.33398 -3.83398 -8.00098 -6.50098c-7.3457 -8 -14.1787 -22.667 -20.5 -44c-6.33301 -21.3359 -9.5 -52.6689 -9.5 -94v-525h-10h-45
l-386 512v-268v-0.5v-1.5c0 -12 -0.166992 -24.667 -0.5 -38c-0.333008 -13.334 -0.833008 -26.667 -1.5 -40c-3.33301 -41.333 -14.166 -78.833 -32.499 -112.5s-54.5 -50.5 -108.5 -50.5l-10 -1c-28.667 0.666992 -52.834 10.167 -72.501 28.5s-29.5 40.5 -29.5 66.5
c0 16.667 5 30 15 40s20.667 16.667 32 20c4 1.33301 7.83301 2.33301 11.5 3s7.16699 1 10.5 1h10c17.333 0 33 -6.33301 47 -19s21 -29.667 21 -51v-1v-4.5c0 -1.66699 0.333008 -3.16699 1 -4.5c0 -2.66699 0.666992 -5.16699 2 -7.5s3.66602 -3.83301 6.99902 -4.5
c14 2.66699 23.833 13.5 29.5 32.5s9.5 39.833 11.5 62.5c0.666992 8 1 16.167 1 24.5v23.5v377l-100 135h10h177l355 -465v0zM1120 45.001v-45h-10h-247v45h10h247v0zM821.002 280.001c0 4 0.166992 8 0.5 12s0.833008 8 1.5 12c4 36.667 19.167 70.167 45.5 100.5
s64.833 45.5 115.5 45.5h10c50.667 0 89.167 -15.167 115.5 -45.5s41.5 -63.833 45.5 -100.5c0.666992 -4 1.16699 -8 1.5 -12s0.5 -8 0.5 -12c0 -50 -15.5 -91 -46.5 -123s-69.833 -48 -116.5 -48h-10c-46.667 0 -85.5 16 -116.5 48s-46.5 73 -46.5 123v0zM944.002 280.001
l-0.000976562 -4.00098v-4v-18.5c0 -6.33301 0.333008 -12.833 1 -19.5c0.695312 -20 3.8623 -38.5 9.5 -55.5c5.66699 -17 17.167 -26.5 34.5 -28.5c17.333 2 28.833 11.5 34.5 28.5s8.83398 35.5 9.50098 55.5c0.666992 6.66699 1 13.167 1 19.5v18.5v4v4v4v4v19
c0 6.66699 -0.333008 13.334 -1 20.001c-0.666992 19.333 -4 37.333 -10 54s-17.333 26 -34 28c-16.667 -2 -28 -11.333 -34 -28s-9.33301 -34.667 -10 -54c-0.666992 -6.66797 -1 -13.335 -1 -20v-19v-4v-4v0z" />
    <glyph glyph-name="one" unicode="&#x2116;" horiz-adv-x="1244" 
d="M728 243l0.00195312 249.001c0 12.667 0.166992 27.334 0.5 44.001c0.333008 16.6689 2.16602 33.3359 5.49902 50c5.33301 34 17.5 65.167 36.5 93.5s51.5 42.5 97.5 42.5h10c36 0 62.667 -9.5 80 -28.5s26 -40.167 26 -63.5v-6c0 -2 -0.333008 -3.66699 -1 -5
c-2.66699 -14 -9.66699 -26.833 -21 -38.5c-11.3369 -11.667 -27.6699 -17.5 -49 -17.5h-10c-18.667 0 -32.667 4.33301 -42 13c-9.33496 8.6709 -15.668 18.3379 -19 29c-1.33301 4.6709 -2.33301 9.33789 -3 14c-0.666992 4.66699 -1 9 -1 13v6v3.5v2.5
c-0.666992 3.33301 -1.66699 6.5 -3 9.5c-1.3584 3 -3.69141 4.83301 -6.99902 5.5c-2 -0.666992 -4.33301 -1.83398 -7 -3.50098s-5.33398 -3.83398 -8.00098 -6.50098c-7.3457 -8 -14.1787 -22.667 -20.5 -44c-6.33301 -21.3359 -9.5 -52.6689 -9.5 -94v-525h-10h-45
l-386 512v-268v-0.5v-1.5c0 -12 -0.166992 -24.667 -0.5 -38c-0.333008 -13.334 -0.833008 -26.667 -1.5 -40c-3.33301 -41.333 -14.166 -78.833 -32.499 -112.5s-54.5 -50.5 -108.5 -50.5l-10 -1c-28.667 0.666992 -52.834 10.167 -72.501 28.5s-29.5 40.5 -29.5 66.5
c0 16.667 5 30 15 40s20.667 16.667 32 20c4 1.33301 7.83301 2.33301 11.5 3s7.16699 1 10.5 1h10c17.333 0 33 -6.33301 47 -19s21 -29.667 21 -51v-1v-4.5c0 -1.66699 0.333008 -3.16699 1 -4.5c0 -2.66699 0.666992 -5.16699 2 -7.5s3.66602 -3.83301 6.99902 -4.5
c14 2.66699 23.833 13.5 29.5 32.5s9.5 39.833 11.5 62.5c0.666992 8 1 16.167 1 24.5v23.5v377l-100 135h10h177l355 -465v0zM1120 45.001v-45h-10h-247v45h10h247v0zM821.002 280.001c0 4 0.166992 8 0.5 12s0.833008 8 1.5 12c4 36.667 19.167 70.167 45.5 100.5
s64.833 45.5 115.5 45.5h10c50.667 0 89.167 -15.167 115.5 -45.5s41.5 -63.833 45.5 -100.5c0.666992 -4 1.16699 -8 1.5 -12s0.5 -8 0.5 -12c0 -50 -15.5 -91 -46.5 -123s-69.833 -48 -116.5 -48h-10c-46.667 0 -85.5 16 -116.5 48s-46.5 73 -46.5 123v0zM944.002 280.001
l-0.000976562 -4.00098v-4v-18.5c0 -6.33301 0.333008 -12.833 1 -19.5c0.695312 -20 3.8623 -38.5 9.5 -55.5c5.66699 -17 17.167 -26.5 34.5 -28.5c17.333 2 28.833 11.5 34.5 28.5s8.83398 35.5 9.50098 55.5c0.666992 6.66699 1 13.167 1 19.5v18.5v4v4v4v4v19
c0 6.66699 -0.333008 13.334 -1 20.001c-0.666992 19.333 -4 37.333 -10 54s-17.333 26 -34 28c-16.667 -2 -28 -11.333 -34 -28s-9.33301 -34.667 -10 -54c-0.666992 -6.66797 -1 -13.335 -1 -20v-19v-4v-4v0z" />
    <glyph glyph-name="G" unicode="&#xba;" horiz-adv-x="543" 
d="M401 312v20.9922c0 6 -1.83301 13 -5.5 21c-3.66992 8 -8.83691 16.333 -15.501 25c-8 10.667 -17.667 20.834 -29 30.501s-23 17.834 -35 24.501c-6 3.33301 -12 6 -18 8s-12 3.33301 -18 4c-5.33301 0 -11.166 -0.833008 -17.499 -2.5s-12.5 -4.5 -18.5 -8.5
c-14 -8 -26.667 -23.5 -38 -46.5s-17 -59.167 -17 -108.5v-2.5v-2.5v-2.5v-2.5h90c6.66699 0 14.834 0.666992 24.501 2s19.5 3 29.5 5c2 0.666992 4.16699 1.33398 6.5 2.00098s4.5 1 6.5 1c3.33301 0.666992 6.5 1.33398 9.5 2.00098s5.83301 1.33398 8.5 2.00098h10v-62
h-10c-3.33301 1.33301 -6.66602 2.33301 -9.99902 3l-10 2c-18 4.66699 -35.167 7.5 -51.5 8.5s-27.833 1.5 -34.5 1.5h-69v-48c0 -7.33301 1 -17 3 -29s5.33301 -24.333 10 -37c7.33301 -19.333 18.5 -37.166 33.5 -53.499s35.167 -24.833 60.5 -25.5
c10.667 0 22.667 0.833008 36 2.5c13.334 1.66699 26.667 5.5 40 11.5c16 7.33301 31.5 18.833 46.5 34.5s28.167 37.834 39.5 66.501h10l39 -11c-14.668 -40.667 -32.335 -71.834 -53.001 -93.501c-20.667 -21.667 -41.667 -37.5 -63 -47.5
c-17.333 -6.66699 -34.333 -11.167 -51 -13.5s-31.667 -3.5 -45 -3.5l-10 -1c-66.667 0.666992 -124.834 24.334 -174.501 71.001s-74.5 111 -74.5 193c0 8 0.333008 16 1 24s2 16.333 4 25c8.66699 44.667 30.667 85.834 66 123.501s88.333 56.5 159 56.5h10
c18.667 0 38 -2 58 -6s41.333 -11.333 64 -22l-1 16h10h41l4 -158h-10h-41v0z" />
    <glyph glyph-name="G" unicode="&#x454;" horiz-adv-x="543" 
d="M401 312v20.9922c0 6 -1.83301 13 -5.5 21c-3.66992 8 -8.83691 16.333 -15.501 25c-8 10.667 -17.667 20.834 -29 30.501s-23 17.834 -35 24.501c-6 3.33301 -12 6 -18 8s-12 3.33301 -18 4c-5.33301 0 -11.166 -0.833008 -17.499 -2.5s-12.5 -4.5 -18.5 -8.5
c-14 -8 -26.667 -23.5 -38 -46.5s-17 -59.167 -17 -108.5v-2.5v-2.5v-2.5v-2.5h90c6.66699 0 14.834 0.666992 24.501 2s19.5 3 29.5 5c2 0.666992 4.16699 1.33398 6.5 2.00098s4.5 1 6.5 1c3.33301 0.666992 6.5 1.33398 9.5 2.00098s5.83301 1.33398 8.5 2.00098h10v-62
h-10c-3.33301 1.33301 -6.66602 2.33301 -9.99902 3l-10 2c-18 4.66699 -35.167 7.5 -51.5 8.5s-27.833 1.5 -34.5 1.5h-69v-48c0 -7.33301 1 -17 3 -29s5.33301 -24.333 10 -37c7.33301 -19.333 18.5 -37.166 33.5 -53.499s35.167 -24.833 60.5 -25.5
c10.667 0 22.667 0.833008 36 2.5c13.334 1.66699 26.667 5.5 40 11.5c16 7.33301 31.5 18.833 46.5 34.5s28.167 37.834 39.5 66.501h10l39 -11c-14.668 -40.667 -32.335 -71.834 -53.001 -93.501c-20.667 -21.667 -41.667 -37.5 -63 -47.5
c-17.333 -6.66699 -34.333 -11.167 -51 -13.5s-31.667 -3.5 -45 -3.5l-10 -1c-66.667 0.666992 -124.834 24.334 -174.501 71.001s-74.5 111 -74.5 193c0 8 0.333008 16 1 24s2 16.333 4 25c8.66699 44.667 30.667 85.834 66 123.501s88.333 56.5 159 56.5h10
c18.667 0 38 -2 58 -6s41.333 -11.333 64 -22l-1 16h10h41l4 -158h-10h-41v0z" />
    <glyph glyph-name="bracketleft" unicode="&#xbb;" horiz-adv-x="621" 
d="M155 473l20.999 24.999h10c17.333 -14 40.333 -31.5 69 -52.5s59 -42.5 91 -64.5l12 -8c4 -2.67188 7.66699 -5.33887 11 -8c34.667 -24 68.167 -46.333 100.5 -67s58.5 -37 78.5 -49c-31.334 -18.667 -59.001 -35.667 -83 -51c-24 -15.333 -46.667 -30.333 -68 -45
l-6 -4c-2 -1.33398 -3.66699 -2.66699 -5 -3.99902c-9.33301 -6 -18.5 -12 -27.5 -18s-18.167 -12.333 -27.5 -19c-12 -8 -23.167 -15.5 -33.5 -22.5s-20.166 -13.833 -29.499 -20.5c-2 -2 -4.33301 -3.83301 -7 -5.5s-5 -3.5 -7 -5.5
c-10.667 -7.33301 -21.334 -15.333 -32.001 -24s-22.667 -18.667 -36 -30h-10l-21 26c10 13.333 23.167 30 39.5 50s33.5 40.667 51.5 62c2 2 3.83301 4 5.5 6s3.16699 4 4.5 6c16.667 18.667 32.667 36.834 48 54.5c15.334 17.667 28.667 32.5 40 44.5
c-13.333 14.667 -25.166 27.667 -35.499 39c-10.333 11.334 -20.166 22.667 -29.499 34l-2 2l-2 2c-5.33301 6.66699 -10.833 13.167 -16.5 19.5c-5.66699 6.33496 -11.5 13.168 -17.5 20.5c-6 6.66699 -11.5 13.167 -16.5 19.5s-10.167 12.5 -15.5 18.5
c-0.666992 0.666992 -1.33398 1.5 -2.00098 2.5s-1.66699 2.16699 -3 3.5c-7.33301 8.66699 -15 18.167 -23 28.5s-16.667 21.833 -26 34.5v0zM72.999 395.999l22.002 19.999h10c15.333 -14 29.666 -26.833 42.999 -38.5s26.333 -23.167 39 -34.5l10 -8
c3.33301 -2.66699 6.66602 -5.66699 9.99902 -9c14.667 -12 29.834 -24.167 45.5 -36.5c15.667 -12.333 32.834 -25.833 51.501 -40.5c-21.333 -16.667 -40 -31.334 -56 -44.001s-31.333 -25.334 -46 -38.001c-2 -1.33301 -3.83301 -2.83301 -5.5 -4.5
s-3.5 -3.16699 -5.5 -4.5c-13.333 -11.333 -26.833 -22.833 -40.5 -34.5s-28.834 -25.167 -45.501 -40.5h-10l-22 20c6.66699 10.667 14.667 22.667 24 36s19 27 29 41c1.33398 2.66699 2.83398 5 4.5 7c1.66699 2 3.16699 4.33301 4.5 7c7.33301 10 14.5 19.667 21.5 29
l19.5 26c-10.667 14.667 -19.167 26.334 -25.5 35.001c-6.33398 8.66699 -12.167 16.667 -17.5 24l-0.5 0.5c-0.333008 0.333008 -0.5 0.833008 -0.5 1.5c-2 2 -3.83301 4.33301 -5.5 7s-3.5 5.33398 -5.5 8.00098l-6 8l-6 8l-1.5 3
c-0.333008 0.666992 -0.833008 1.33398 -1.5 2.00098c-4.66699 6.66699 -9.66699 14 -15 22s-11.333 17.333 -18 28v0z" />
    <glyph glyph-name="w" unicode="&#xbc;" horiz-adv-x="357" 
d="M287 482l0.00195312 -360.999c0 -106.667 -13.333 -184.334 -40 -233.001s-56.334 -80.667 -89.001 -96c-12 -6 -23.833 -10 -35.5 -12s-22.5 -3 -32.5 -3l-10 -1c-26 0.666992 -48 8.66699 -66 24s-27 35.333 -27 60c0 19.333 5.66699 34.666 17 45.999s25.333 17 42 17
l10 -1c13.333 0.666992 24.333 -1.66602 33 -6.99902s15.334 -11 20.001 -17c1.33301 -2 2.5 -4 3.5 -6s1.83301 -4 2.5 -6c1.33496 -2.66699 2.16797 -5.5 2.5 -8.5c0.333008 -2.99902 0.833008 -6.16602 1.5 -9.5c0 -1.33301 0.166992 -2.83301 0.5 -4.5
s0.5 -3.16699 0.5 -4.5c0.666992 -7.33301 1.66699 -14 3 -20c1.33398 -6 4.66699 -9.66699 10 -11c1.33301 0 2.66602 0.5 3.99902 1.5s2.66602 1.83301 3.99902 2.5c4 3.33301 7.5 8.66602 10.5 15.999s5.16699 17.333 6.5 30c0.666992 4.66699 1 9.16699 1 13.5v13.5v8.5
v8.5c0 3.33301 -0.166992 6.33301 -0.5 9s-0.5 5.66699 -0.5 9v2.5v3.5c-1.33301 16 -2.33301 32.5 -3 49.5s-1 37.167 -1 60.5v309c0 14.667 -2.66699 23.5 -8 26.5s-11.333 4.5 -18 4.5h-1.5h-1.5h-23v30c12 1.33301 33.167 5.83301 63.5 13.5s67.5 21.834 111.5 42.501
h10v0zM287.002 605.001c0 -21.3359 -7.33301 -39.1689 -22 -53.5c-14.667 -14.333 -32 -21.5 -52 -21.5h-10c-21.333 0 -39.166 7.5 -53.499 22.5s-21.5 32.5 -21.5 52.5s7.16699 37.333 21.5 52s32.166 22 53.499 22h10c20 0 37.333 -7 52 -21s22 -31.667 22 -53v0z" />
    <glyph glyph-name="w" unicode="&#x458;" horiz-adv-x="357" 
d="M287 482l0.00195312 -360.999c0 -106.667 -13.333 -184.334 -40 -233.001s-56.334 -80.667 -89.001 -96c-12 -6 -23.833 -10 -35.5 -12s-22.5 -3 -32.5 -3l-10 -1c-26 0.666992 -48 8.66699 -66 24s-27 35.333 -27 60c0 19.333 5.66699 34.666 17 45.999s25.333 17 42 17
l10 -1c13.333 0.666992 24.333 -1.66602 33 -6.99902s15.334 -11 20.001 -17c1.33301 -2 2.5 -4 3.5 -6s1.83301 -4 2.5 -6c1.33496 -2.66699 2.16797 -5.5 2.5 -8.5c0.333008 -2.99902 0.833008 -6.16602 1.5 -9.5c0 -1.33301 0.166992 -2.83301 0.5 -4.5
s0.5 -3.16699 0.5 -4.5c0.666992 -7.33301 1.66699 -14 3 -20c1.33398 -6 4.66699 -9.66699 10 -11c1.33301 0 2.66602 0.5 3.99902 1.5s2.66602 1.83301 3.99902 2.5c4 3.33301 7.5 8.66602 10.5 15.999s5.16699 17.333 6.5 30c0.666992 4.66699 1 9.16699 1 13.5v13.5v8.5
v8.5c0 3.33301 -0.166992 6.33301 -0.5 9s-0.5 5.66699 -0.5 9v2.5v3.5c-1.33301 16 -2.33301 32.5 -3 49.5s-1 37.167 -1 60.5v309c0 14.667 -2.66699 23.5 -8 26.5s-11.333 4.5 -18 4.5h-1.5h-1.5h-23v30c12 1.33301 33.167 5.83301 63.5 13.5s67.5 21.834 111.5 42.501
h10v0zM287.002 605.001c0 -21.3359 -7.33301 -39.1689 -22 -53.5c-14.667 -14.333 -32 -21.5 -52 -21.5h-10c-21.333 0 -39.166 7.5 -53.499 22.5s-21.5 32.5 -21.5 52.5s7.16699 37.333 21.5 52s32.166 22 53.499 22h10c20 0 37.333 -7 52 -21s22 -31.667 22 -53v0z" />
    <glyph glyph-name="bracketright" unicode="&#xbd;" horiz-adv-x="632" 
d="M505 524l-0.00390625 9.99902c0 8 -2.66699 17.333 -8 28s-12.666 21.667 -21.999 33c-18 20.668 -41.167 39.835 -69.5 57.5c-28.333 17.6719 -58.166 26.8389 -89.499 27.5c-20 -0.666992 -36.833 -4.33398 -50.5 -11.001s-24.167 -14 -31.5 -22l-1.5 -1.5l-1.5 -1.5
c-4.66699 -6 -9.16699 -14 -13.5 -24s-6.5 -21.333 -6.5 -34c0 -23.3359 5.83301 -40.6689 17.5 -52c11.667 -11.3369 24.5 -20.6699 38.5 -27.999c3.33301 -1.33301 6.33301 -2.83301 9 -4.5s5.66699 -3.16699 9 -4.5c0.666992 0 1.33398 -0.166992 2.00098 -0.5
s1.33398 -0.833008 2.00098 -1.5l191 -100c6.66699 -3.33301 14.667 -8 24 -14s19 -13.333 29 -22c18 -16 34.333 -36.333 49 -61s22 -54.334 22 -89.001c0 -56.667 -23.667 -107.834 -71 -153.501s-114.333 -68.5 -201 -68.5l-10 -1
c-26.667 0.666992 -57.334 3.33398 -92 8.00098c-34.667 4.66699 -72.667 16.334 -114 35.001v-29h-10h-47l-17 196h10h44c0.666992 -46 23 -84.333 67 -115s92 -48 144 -52c3.33301 -0.666992 6.33301 -1 9 -1h8c36 1.33301 66.5 12.333 91.5 33s37.5 48.334 37.5 83.001
c0 23.333 -5.33301 42.333 -16 57c-10.668 14.667 -22.335 26.667 -35 36c-6.66699 4 -13 7.66699 -19 11s-11.333 6.33301 -16 9l-181 95c-39.333 20.667 -69.666 44.834 -90.999 72.501s-32 61.5 -32 101.5c0 6 0.333008 12 1 18l2 18c8 40 31.5 76.667 70.5 110
s100.5 50 184.5 50h10c20 0 39 -1.16699 57 -3.5s35.667 -5.83301 53 -10.5c10.667 -2.66699 21.167 -5.83398 31.5 -9.50098c10.334 -3.66699 21.167 -7.5 32.499 -11.5v21h10h47v-184h-10h-47v0z" />
    <glyph glyph-name="bracketright" unicode="&#x405;" horiz-adv-x="632" 
d="M505 524l-0.00390625 9.99902c0 8 -2.66699 17.333 -8 28s-12.666 21.667 -21.999 33c-18 20.668 -41.167 39.835 -69.5 57.5c-28.333 17.6719 -58.166 26.8389 -89.499 27.5c-20 -0.666992 -36.833 -4.33398 -50.5 -11.001s-24.167 -14 -31.5 -22l-1.5 -1.5l-1.5 -1.5
c-4.66699 -6 -9.16699 -14 -13.5 -24s-6.5 -21.333 -6.5 -34c0 -23.3359 5.83301 -40.6689 17.5 -52c11.667 -11.3369 24.5 -20.6699 38.5 -27.999c3.33301 -1.33301 6.33301 -2.83301 9 -4.5s5.66699 -3.16699 9 -4.5c0.666992 0 1.33398 -0.166992 2.00098 -0.5
s1.33398 -0.833008 2.00098 -1.5l191 -100c6.66699 -3.33301 14.667 -8 24 -14s19 -13.333 29 -22c18 -16 34.333 -36.333 49 -61s22 -54.334 22 -89.001c0 -56.667 -23.667 -107.834 -71 -153.501s-114.333 -68.5 -201 -68.5l-10 -1
c-26.667 0.666992 -57.334 3.33398 -92 8.00098c-34.667 4.66699 -72.667 16.334 -114 35.001v-29h-10h-47l-17 196h10h44c0.666992 -46 23 -84.333 67 -115s92 -48 144 -52c3.33301 -0.666992 6.33301 -1 9 -1h8c36 1.33301 66.5 12.333 91.5 33s37.5 48.334 37.5 83.001
c0 23.333 -5.33301 42.333 -16 57c-10.668 14.667 -22.335 26.667 -35 36c-6.66699 4 -13 7.66699 -19 11s-11.333 6.33301 -16 9l-181 95c-39.333 20.667 -69.666 44.834 -90.999 72.501s-32 61.5 -32 101.5c0 6 0.333008 12 1 18l2 18c8 40 31.5 76.667 70.5 110
s100.5 50 184.5 50h10c20 0 39 -1.16699 57 -3.5s35.667 -5.83301 53 -10.5c10.667 -2.66699 21.167 -5.83398 31.5 -9.50098c10.334 -3.66699 21.167 -7.5 32.499 -11.5v21h10h47v-184h-10h-47v0z" />
    <glyph glyph-name="R" unicode="&#xbe;" horiz-adv-x="461" 
d="M347 343c-8 25.333 -20.8291 46.5039 -38.4961 63.5039s-36.167 28.5 -55.5 34.5c-4 1.33301 -8 2.5 -12 3.5s-8 1.5 -12 1.5c-18 -0.666992 -33.667 -5.66699 -47 -15s-20 -20.666 -20 -33.999c0 -15.333 5.16699 -27.833 15.5 -37.5
c10.333 -9.66797 22.5 -18.835 36.5 -27.5c0.666992 -0.666992 1.5 -1.16699 2.5 -1.5s1.83301 -0.833008 2.5 -1.5l123 -75c14.667 -8.66699 26.667 -17.834 36 -27.501s17 -19.5 23 -29.5c7.33691 -12 12.1699 -24 14.5 -36c2.33301 -12 3.5 -23 3.5 -33
c0 -4.66699 -0.333008 -9.33398 -1 -14l-2 -14c-7.33301 -28 -24.833 -53.333 -52.5 -76s-67.5 -34 -119.5 -34l-10 -1c-20 0.666992 -39.333 2.66699 -58 6s-35.334 6.66602 -50.001 9.99902c-7.33301 2.66699 -14.166 5 -20.499 7s-11.5 3.66699 -15.5 5v-17h-10h-41v153
h10h41v-32c3.33301 -4.66699 7 -9.33398 11 -14c4 -4.66699 8.33301 -9.33398 13 -14.001c15.333 -16.667 33.666 -31.834 54.999 -45.501s44 -21.167 68 -22.5c21.334 1.33301 37.667 8 49 20s17 25.333 17 40c0 12 -3 22.333 -9 31s-12.667 16 -20 22
c-4 3.33301 -7.83301 6.16602 -11.5 8.49902s-6.83398 4.5 -9.50098 6.5l-129 80c-4 2.66699 -8.83301 6.16699 -14.5 10.5s-11.5 9.5 -17.5 15.5c-10 11.333 -19.333 25 -28 41s-13 34.333 -13 55c0 38.667 12.333 67.167 37 85.5s51.667 30.5 81 36.5
c9.33301 2 18.666 3.33301 27.999 4s18.333 1 27 1h10c10 0 19.667 -0.5 29 -1.5c9.33398 -1 18.667 -2.83301 27.999 -5.5c8.66699 -2 17.667 -4.66699 27 -8s19 -7 29 -11v14h10h41v-141h-10h-41v14v0z" />
    <glyph glyph-name="R" unicode="&#x455;" horiz-adv-x="461" 
d="M347 343c-8 25.333 -20.8291 46.5039 -38.4961 63.5039s-36.167 28.5 -55.5 34.5c-4 1.33301 -8 2.5 -12 3.5s-8 1.5 -12 1.5c-18 -0.666992 -33.667 -5.66699 -47 -15s-20 -20.666 -20 -33.999c0 -15.333 5.16699 -27.833 15.5 -37.5
c10.333 -9.66797 22.5 -18.835 36.5 -27.5c0.666992 -0.666992 1.5 -1.16699 2.5 -1.5s1.83301 -0.833008 2.5 -1.5l123 -75c14.667 -8.66699 26.667 -17.834 36 -27.501s17 -19.5 23 -29.5c7.33691 -12 12.1699 -24 14.5 -36c2.33301 -12 3.5 -23 3.5 -33
c0 -4.66699 -0.333008 -9.33398 -1 -14l-2 -14c-7.33301 -28 -24.833 -53.333 -52.5 -76s-67.5 -34 -119.5 -34l-10 -1c-20 0.666992 -39.333 2.66699 -58 6s-35.334 6.66602 -50.001 9.99902c-7.33301 2.66699 -14.166 5 -20.499 7s-11.5 3.66699 -15.5 5v-17h-10h-41v153
h10h41v-32c3.33301 -4.66699 7 -9.33398 11 -14c4 -4.66699 8.33301 -9.33398 13 -14.001c15.333 -16.667 33.666 -31.834 54.999 -45.501s44 -21.167 68 -22.5c21.334 1.33301 37.667 8 49 20s17 25.333 17 40c0 12 -3 22.333 -9 31s-12.667 16 -20 22
c-4 3.33301 -7.83301 6.16602 -11.5 8.49902s-6.83398 4.5 -9.50098 6.5l-129 80c-4 2.66699 -8.83301 6.16699 -14.5 10.5s-11.5 9.5 -17.5 15.5c-10 11.333 -19.333 25 -28 41s-13 34.333 -13 55c0 38.667 12.333 67.167 37 85.5s51.667 30.5 81 36.5
c9.33301 2 18.666 3.33301 27.999 4s18.333 1 27 1h10c10 0 19.667 -0.5 29 -1.5c9.33398 -1 18.667 -2.83301 27.999 -5.5c8.66699 -2 17.667 -4.66699 27 -8s19 -7 29 -11v14h10h41v-141h-10h-41v14v0z" />
    <glyph glyph-name="underscore" unicode="&#xbf;" horiz-adv-x="345" 
d="M239 482l0.000976562 -420.001c0 -13.333 2.66699 -21.333 8 -24s11 -4 17 -4h1.5h1.5h0.5h1.5h26v-34h-10h-235v34h26h1.5h0.5h1.5h1.5c6 0 11.667 1.33301 17 4s8 10.667 8 24v303c0 15.333 -2.66699 24.333 -8 27s-11.333 4 -18 4h-0.5h-1.5h-24v30
c14.667 2 30.167 5 46.5 9s32.833 8.66699 49.5 14c13.333 4.66699 26.666 9.83398 39.999 15.501s26.333 11.5 39 17.5h10v0zM16.001 618.999c0 16.6689 5.83496 30.8379 17.502 42.502c11.667 11.667 25.834 17.5 42.501 17.5h10c17.333 0 31.666 -5.83301 42.999 -17.5
s17 -25.834 17 -42.501s-5.83301 -30.834 -17.5 -42.501s-25.834 -17.5 -42.501 -17.5h-10c-16.667 0 -30.834 5.83301 -42.501 17.5c-11.667 11.6709 -17.5 25.8379 -17.5 42.5v0zM199.003 619.001c0 17.333 5.83203 31.667 17.499 43s25.834 17 42.5 17h10
c16.667 0 30.834 -5.66699 42.501 -17c11.667 -11.3379 17.5 -25.6709 17.5 -42.999c0 -16.667 -5.66699 -30.834 -17 -42.501s-25.666 -17.5 -42.999 -17.5h-10c-16.667 0 -30.834 5.83301 -42.501 17.5c-11.667 11.6709 -17.5 25.8379 -17.5 42.5v0z" />
    <glyph glyph-name="underscore" unicode="&#x457;" horiz-adv-x="345" 
d="M239 482l0.000976562 -420.001c0 -13.333 2.66699 -21.333 8 -24s11 -4 17 -4h1.5h1.5h0.5h1.5h26v-34h-10h-235v34h26h1.5h0.5h1.5h1.5c6 0 11.667 1.33301 17 4s8 10.667 8 24v303c0 15.333 -2.66699 24.333 -8 27s-11.333 4 -18 4h-0.5h-1.5h-24v30
c14.667 2 30.167 5 46.5 9s32.833 8.66699 49.5 14c13.333 4.66699 26.666 9.83398 39.999 15.501s26.333 11.5 39 17.5h10v0zM16.001 618.999c0 16.6689 5.83496 30.8379 17.502 42.502c11.667 11.667 25.834 17.5 42.501 17.5h10c17.333 0 31.666 -5.83301 42.999 -17.5
s17 -25.834 17 -42.501s-5.83301 -30.834 -17.5 -42.501s-25.834 -17.5 -42.501 -17.5h-10c-16.667 0 -30.834 5.83301 -42.501 17.5c-11.667 11.6709 -17.5 25.8379 -17.5 42.5v0zM199.003 619.001c0 17.333 5.83203 31.667 17.499 43s25.834 17 42.5 17h10
c16.667 0 30.834 -5.66699 42.501 -17c11.667 -11.3379 17.5 -25.6709 17.5 -42.999c0 -16.667 -5.66699 -30.834 -17 -42.501s-25.666 -17.5 -42.999 -17.5h-10c-16.667 0 -30.834 5.83301 -42.501 17.5c-11.667 11.6709 -17.5 25.8379 -17.5 42.5v0z" />
    <glyph glyph-name="grave" unicode="&#xc0;" horiz-adv-x="741" 
d="M441 257h-221.999l-11 -29c-1.33301 -3.33301 -2.5 -6.33301 -3.5 -9s-1.83301 -5 -2.5 -7v0v0l-1.5 -3l-1.5 -3c-2 -5.33301 -4.33301 -11.5 -7 -18.5s-5.33398 -14.5 -8.00098 -22.5l-4 -12l-4 -12c-4 -13.333 -7.5 -26.333 -10.5 -39s-4.5 -22.667 -4.5 -30
c0 -10.667 2.16699 -18.334 6.5 -23.001s11.833 -7 22.5 -7h50v-42h-10h-230v42h28c10 0 18 3 24 9s11.667 13.667 17 23c2 2.66699 4 5.83398 6 9.50098s4 7.16699 6 10.5c2.66699 4 5.16699 8 7.5 12s4.5 8 6.5 12c14 23.333 26.5 46.666 37.5 69.999
s21.5 45.666 31.5 66.999l212 467h10h43l221 -619c0.666992 -0.666992 1 -1.5 1 -2.5s0.333008 -2.16699 1 -3.5c5.33301 -15.333 11.5 -28.333 18.5 -39s17.167 -16 30.5 -16h40v-42h-10h-290v42h37h5h7c4 0.666992 7.83301 1.83398 11.5 3.5
c3.66699 1.66699 5.5 4.83398 5.5 9.50098c0 0.666992 -0.166992 2 -0.5 4s-0.833008 4.33301 -1.5 7v0.5c0 0.333008 -0.333008 0.5 -1 0.5c0 2 -0.333008 3.83301 -1 5.5s-1 2.83398 -1 3.50098l-61 181v0zM240.001 299h185l-81 232l-104 -232v0z" />
    <glyph glyph-name="grave" unicode="&#x410;" horiz-adv-x="741" 
d="M441 257h-221.999l-11 -29c-1.33301 -3.33301 -2.5 -6.33301 -3.5 -9s-1.83301 -5 -2.5 -7v0v0l-1.5 -3l-1.5 -3c-2 -5.33301 -4.33301 -11.5 -7 -18.5s-5.33398 -14.5 -8.00098 -22.5l-4 -12l-4 -12c-4 -13.333 -7.5 -26.333 -10.5 -39s-4.5 -22.667 -4.5 -30
c0 -10.667 2.16699 -18.334 6.5 -23.001s11.833 -7 22.5 -7h50v-42h-10h-230v42h28c10 0 18 3 24 9s11.667 13.667 17 23c2 2.66699 4 5.83398 6 9.50098s4 7.16699 6 10.5c2.66699 4 5.16699 8 7.5 12s4.5 8 6.5 12c14 23.333 26.5 46.666 37.5 69.999
s21.5 45.666 31.5 66.999l212 467h10h43l221 -619c0.666992 -0.666992 1 -1.5 1 -2.5s0.333008 -2.16699 1 -3.5c5.33301 -15.333 11.5 -28.333 18.5 -39s17.167 -16 30.5 -16h40v-42h-10h-290v42h37h5h7c4 0.666992 7.83301 1.83398 11.5 3.5
c3.66699 1.66699 5.5 4.83398 5.5 9.50098c0 0.666992 -0.166992 2 -0.5 4s-0.833008 4.33301 -1.5 7v0.5c0 0.333008 -0.333008 0.5 -1 0.5c0 2 -0.333008 3.83301 -1 5.5s-1 2.83398 -1 3.50098l-61 181v0zM240.001 299h185l-81 232l-104 -232v0z" />
    <glyph glyph-name="a" unicode="&#xc1;" horiz-adv-x="741" 
d="M293 642l0.00195312 -204.997c13.334 3.33301 29.667 6 49 8s40.333 3 63 3h10c77.333 0 144 -19.667 200 -59s84 -96 84 -170c0 -66.667 -23.833 -120.334 -71.5 -161.001s-113.834 -61 -198.501 -61l-10 -1c-2 0.666992 -4 1 -6 1h-6
c-7.33301 0 -14.5 0.166992 -21.5 0.5s-14.5 0.833008 -22.5 1.5c-10 0.666992 -21.5 1 -34.5 1h-45.5h-241v42h46h1.5h1.5c10 0 18.333 1.66699 25 5s10 14.666 10 33.999v546c0 19.333 -3.33301 30.666 -10 33.999s-15 5 -25 5h-1.5h-1.5h-46v42h10h585l5 -176h-10h-44v41
c0 16 -12.833 30.333 -38.5 43s-53.834 23 -84.501 31c-22 6 -43 10.5 -63 13.5s-35.333 4.83301 -46 5.5c-0.666992 0 -1.5 0.166992 -2.5 0.5s-1.83301 0.5 -2.5 0.5h-2.5h-2.5h-3h-3c-1.33301 -0.666992 -2.5 -1 -3.5 -1h-3.5c-10 -0.666992 -19.167 -2.16699 -27.5 -4.5
s-12.5 -8.83301 -12.5 -19.5v0zM293.002 395.003l-0.000976562 -326.001c1.33789 -2 3.1709 -4.16699 5.5 -6.5c2.33594 -2.33301 5.16895 -4.5 8.5 -6.5c6.66699 -4.66699 15.167 -9 25.5 -13s23.833 -6 40.5 -6c41.333 1.33301 71.5 13.5 90.5 36.5s31.833 48.5 38.5 76.5
c2.66699 12 4.5 24 5.5 36s1.5 23 1.5 33c0 66.667 -14.167 112.334 -42.5 137.001s-59.166 38.667 -92.499 42c-4.66699 0.666992 -9.16699 1.16699 -13.5 1.5s-8.5 0.5 -12.5 0.5c-10.667 0 -20.5 -0.333008 -29.5 -1s-17.5 -2 -25.5 -4v0z" />
    <glyph glyph-name="a" unicode="&#x411;" horiz-adv-x="741" 
d="M293 642l0.00195312 -204.997c13.334 3.33301 29.667 6 49 8s40.333 3 63 3h10c77.333 0 144 -19.667 200 -59s84 -96 84 -170c0 -66.667 -23.833 -120.334 -71.5 -161.001s-113.834 -61 -198.501 -61l-10 -1c-2 0.666992 -4 1 -6 1h-6
c-7.33301 0 -14.5 0.166992 -21.5 0.5s-14.5 0.833008 -22.5 1.5c-10 0.666992 -21.5 1 -34.5 1h-45.5h-241v42h46h1.5h1.5c10 0 18.333 1.66699 25 5s10 14.666 10 33.999v546c0 19.333 -3.33301 30.666 -10 33.999s-15 5 -25 5h-1.5h-1.5h-46v42h10h585l5 -176h-10h-44v41
c0 16 -12.833 30.333 -38.5 43s-53.834 23 -84.501 31c-22 6 -43 10.5 -63 13.5s-35.333 4.83301 -46 5.5c-0.666992 0 -1.5 0.166992 -2.5 0.5s-1.83301 0.5 -2.5 0.5h-2.5h-2.5h-3h-3c-1.33301 -0.666992 -2.5 -1 -3.5 -1h-3.5c-10 -0.666992 -19.167 -2.16699 -27.5 -4.5
s-12.5 -8.83301 -12.5 -19.5v0zM293.002 395.003l-0.000976562 -326.001c1.33789 -2 3.1709 -4.16699 5.5 -6.5c2.33594 -2.33301 5.16895 -4.5 8.5 -6.5c6.66699 -4.66699 15.167 -9 25.5 -13s23.833 -6 40.5 -6c41.333 1.33301 71.5 13.5 90.5 36.5s31.833 48.5 38.5 76.5
c2.66699 12 4.5 24 5.5 36s1.5 23 1.5 33c0 66.667 -14.167 112.334 -42.5 137.001s-59.166 38.667 -92.499 42c-4.66699 0.666992 -9.16699 1.16699 -13.5 1.5s-8.5 0.5 -12.5 0.5c-10.667 0 -20.5 -0.333008 -29.5 -1s-17.5 -2 -25.5 -4v0z" />
    <glyph glyph-name="b" unicode="&#xc2;" horiz-adv-x="744" 
d="M502 390l0.00390625 -3.99805c3.34082 0 6.67383 -0.166992 9.99902 -0.5c3.33301 -0.333008 7 -0.833008 11 -1.5c44.667 -4.66699 85.667 -22.5 123 -53.5s56 -75.833 56 -134.5c0 -62.667 -23.5 -111.5 -70.5 -146.5s-111.833 -52.5 -194.5 -52.5l-10 -1
c-6 0.666992 -12.167 1 -18.5 1s-12.833 0.333008 -19.5 1c-6.66699 0 -13.167 0.166992 -19.5 0.5s-12.5 0.5 -18.5 0.5s-11.833 0.166992 -17.5 0.5s-11.167 0.5 -16.5 0.5h-16.5h-17.5h-241v42h46h1.5h1.5c10 0 18.333 1.66699 25 5s10 14.666 10 33.999v546
c0 19.333 -3.33301 30.666 -10 33.999s-15 5 -25 5h-1.5h-1.5h-46v42h227h12.5c4.33301 0 8.5 0.333008 12.5 1c4 0 8.16699 0.166992 12.5 0.5s8.5 0.5 12.5 0.5c6 0 12 0.166992 18 0.5s12.333 0.5 19 0.5c6 0.666992 12 1 18 1h18h10
c88 1.33301 151.667 -10.167 191 -34.5s65 -51.5 77 -81.5c3.33301 -9.33789 5.83301 -18.6709 7.5 -28c1.66699 -9.33301 2.5 -18.333 2.5 -27c0 -46 -16.833 -81.333 -50.5 -106s-70.834 -39.334 -111.501 -44c-2.66699 0 -5.33398 -0.166992 -8.00098 -0.5
c-2.6709 -0.333008 -5.33789 -0.5 -8.00098 -0.5v0zM293.004 370.002l0.00195312 -299.999c10 -8 22.667 -15.167 38 -21.5c15.334 -6.33301 33.667 -9.83301 55 -10.5c34 1.33301 59.667 11.333 77 30c17.334 18.667 29.667 39 36.999 61
c5.34082 16.667 8.67383 32.5 9.99902 47.5c1.33301 15 2 26.5 2 34.5c0 8.66699 -0.5 19.167 -1.5 31.5s-3.5 25.166 -7.5 38.499c-7.33301 22 -20.5 42.333 -39.5 61s-49.167 28 -90.5 28h-80v0zM293.006 415.003l90 -0.000976562c4.66699 0 12.167 0.5 22.5 1.5
c10.335 1 21.168 4.16699 32.5 9.5c15.333 6 29.333 17.5 42 34.5s19 42.167 19 75.5v2.5v3.5c-0.666992 30 -10 57.667 -28 83s-49 38.333 -93 39c-18 -0.666992 -33.667 -3.16699 -47 -7.5c-13.333 -4.33789 -26 -12.1709 -38 -23.499v-218v0z" />
    <glyph glyph-name="b" unicode="&#x412;" horiz-adv-x="744" 
d="M502 390l0.00390625 -3.99805c3.34082 0 6.67383 -0.166992 9.99902 -0.5c3.33301 -0.333008 7 -0.833008 11 -1.5c44.667 -4.66699 85.667 -22.5 123 -53.5s56 -75.833 56 -134.5c0 -62.667 -23.5 -111.5 -70.5 -146.5s-111.833 -52.5 -194.5 -52.5l-10 -1
c-6 0.666992 -12.167 1 -18.5 1s-12.833 0.333008 -19.5 1c-6.66699 0 -13.167 0.166992 -19.5 0.5s-12.5 0.5 -18.5 0.5s-11.833 0.166992 -17.5 0.5s-11.167 0.5 -16.5 0.5h-16.5h-17.5h-241v42h46h1.5h1.5c10 0 18.333 1.66699 25 5s10 14.666 10 33.999v546
c0 19.333 -3.33301 30.666 -10 33.999s-15 5 -25 5h-1.5h-1.5h-46v42h227h12.5c4.33301 0 8.5 0.333008 12.5 1c4 0 8.16699 0.166992 12.5 0.5s8.5 0.5 12.5 0.5c6 0 12 0.166992 18 0.5s12.333 0.5 19 0.5c6 0.666992 12 1 18 1h18h10
c88 1.33301 151.667 -10.167 191 -34.5s65 -51.5 77 -81.5c3.33301 -9.33789 5.83301 -18.6709 7.5 -28c1.66699 -9.33301 2.5 -18.333 2.5 -27c0 -46 -16.833 -81.333 -50.5 -106s-70.834 -39.334 -111.501 -44c-2.66699 0 -5.33398 -0.166992 -8.00098 -0.5
c-2.6709 -0.333008 -5.33789 -0.5 -8.00098 -0.5v0zM293.004 370.002l0.00195312 -299.999c10 -8 22.667 -15.167 38 -21.5c15.334 -6.33301 33.667 -9.83301 55 -10.5c34 1.33301 59.667 11.333 77 30c17.334 18.667 29.667 39 36.999 61
c5.34082 16.667 8.67383 32.5 9.99902 47.5c1.33301 15 2 26.5 2 34.5c0 8.66699 -0.5 19.167 -1.5 31.5s-3.5 25.166 -7.5 38.499c-7.33301 22 -20.5 42.333 -39.5 61s-49.167 28 -90.5 28h-80v0zM293.006 415.003l90 -0.000976562c4.66699 0 12.167 0.5 22.5 1.5
c10.335 1 21.168 4.16699 32.5 9.5c15.333 6 29.333 17.5 42 34.5s19 42.167 19 75.5v2.5v3.5c-0.666992 30 -10 57.667 -28 83s-49 38.333 -93 39c-18 -0.666992 -33.667 -3.16699 -47 -7.5c-13.333 -4.33789 -26 -12.1709 -38 -23.499v-218v0z" />
    <glyph glyph-name="c" unicode="&#xc3;" horiz-adv-x="573" 
d="M563 532l-43.001 0.00195312v42c0 4 -1.16699 8.16699 -3.5 12.5s-5.83301 8.5 -10.5 12.5c-12.667 12.667 -31.5 24.5 -56.5 35.5s-51.167 19.167 -78.5 24.5c-8.66699 2 -17.5 3.66699 -26.5 5s-17.833 2 -26.5 2
c-9.33301 -0.666992 -15.666 -2.83398 -18.999 -6.50098s-5.33301 -7.5 -6 -11.5v-4.5v-4.5v-0.5v-0.5v-557c0 -19.333 3.33301 -30.666 10 -33.999s15 -5 25 -5h1.5h1.5h46v-42h-10h-325v42h46h1.5h1.5c10 0 18.333 1.66699 25 5s10 14.666 10 33.999v546
c0 19.333 -3.33301 30.666 -10 33.999s-15 5 -25 5h-1.5h-1.5h-46v42h10h516l5 -176h-10v0z" />
    <glyph glyph-name="c" unicode="&#x413;" horiz-adv-x="573" 
d="M563 532l-43.001 0.00195312v42c0 4 -1.16699 8.16699 -3.5 12.5s-5.83301 8.5 -10.5 12.5c-12.667 12.667 -31.5 24.5 -56.5 35.5s-51.167 19.167 -78.5 24.5c-8.66699 2 -17.5 3.66699 -26.5 5s-17.833 2 -26.5 2
c-9.33301 -0.666992 -15.666 -2.83398 -18.999 -6.50098s-5.33301 -7.5 -6 -11.5v-4.5v-4.5v-0.5v-0.5v-557c0 -19.333 3.33301 -30.666 10 -33.999s15 -5 25 -5h1.5h1.5h46v-42h-10h-325v42h46h1.5h1.5c10 0 18.333 1.66699 25 5s10 14.666 10 33.999v546
c0 19.333 -3.33301 30.666 -10 33.999s-15 5 -25 5h-1.5h-1.5h-46v42h10h516l5 -176h-10v0z" />
    <glyph glyph-name="d" unicode="&#xc4;" horiz-adv-x="783" 
d="M176 666l-0.00195312 42h10h556v-42h-46h-1.5h-1.5c-10 0 -18.333 -1.66699 -25 -5c-6.66699 -3.33789 -10 -14.6709 -10 -33.999v-546c0 -9.33301 2.83301 -17.5 8.5 -24.5s12.167 -10.5 19.5 -10.5h69v-214h-10h-46v47c0 30.667 -20.333 55 -61 73s-85.667 31 -135 39
c-20 3.33301 -39.667 5.66602 -59 6.99902s-37.333 2 -54 2s-34.834 -0.833008 -54.5 -2.5c-19.667 -1.66699 -39.5 -4.5 -59.5 -8.5c-46 -8.66699 -88.167 -22 -126.5 -40s-58.166 -41 -59.499 -69l-2 -48h-10h-50l13 214h22c4.66699 0 9.33398 0.666992 14.001 2
s9.33398 3.33301 14.001 6c12 7.33301 24.333 21.333 37 42s27.334 52.334 44 95.001c5.33301 14.667 12.666 36.167 21.999 64.5c9.33301 28.334 19 59.167 29 92.5c2.66797 9.33301 5.33496 18.833 8 28.5c2.66895 9.66699 5.33594 19.167 8.00098 28.5
c12 42.667 22.333 83.5 31 122.5s13 68.167 13 87.5c0 16 -2.66699 27.5 -8 34.5s-11.333 11.5 -18 13.5c-4 1.33301 -7.83301 2.16602 -11.5 2.49902s-6.83398 0.5 -9.50098 0.5h-0.5h-0.5h-59v0zM218.998 46l249.004 0.00292969c1.33301 0 2.83301 0.166992 4.5 0.5
s3.16699 1.16602 4.5 2.49902c3.33301 1.33301 6.5 4.5 9.5 9.5s4.5 12.167 4.5 21.5v547v0.5v0.5c0 9.33301 -1.33301 17.5 -4 24.5s-12.334 10.5 -29 10.5h-66h-0.5h-1.5c-2.66992 0 -5.83691 -0.166992 -9.50098 -0.5c-3.66699 -0.333008 -7.16699 -0.833008 -10.5 -1.5
c-3.33301 -1.35352 -6.83301 -3.18652 -10.5 -5.5c-3.66895 -2.33301 -6.83594 -5.5 -9.5 -9.5c-1.33301 -1.35254 -2.5 -3.18555 -3.5 -5.49902c-1 -2.33301 -2.16699 -4.83301 -3.5 -7.5c-3.33301 -9.33301 -7.5 -25.833 -12.5 -49.5s-13.5 -61.834 -25.5 -114.501
c-29.333 -126.667 -52.5 -210.334 -69.5 -251.001s-29.5 -72.667 -37.5 -96c-2.66699 -6.66699 -4.83398 -13.5 -6.50098 -20.5s-3.16699 -14.833 -4.5 -23.5c0 -0.666992 -0.166992 -1.33398 -0.5 -2l-0.5 -1v-2v-2l1 -5c0.666992 -4.66699 2.66699 -8.33398 6 -11.001
s6.66602 -4.66699 9.99902 -6c3.33301 -1.33398 6.66602 -2.16699 9.99902 -2.5s5.33301 -0.5 6 -0.5v0z" />
    <glyph glyph-name="d" unicode="&#x414;" horiz-adv-x="783" 
d="M176 666l-0.00195312 42h10h556v-42h-46h-1.5h-1.5c-10 0 -18.333 -1.66699 -25 -5c-6.66699 -3.33789 -10 -14.6709 -10 -33.999v-546c0 -9.33301 2.83301 -17.5 8.5 -24.5s12.167 -10.5 19.5 -10.5h69v-214h-10h-46v47c0 30.667 -20.333 55 -61 73s-85.667 31 -135 39
c-20 3.33301 -39.667 5.66602 -59 6.99902s-37.333 2 -54 2s-34.834 -0.833008 -54.5 -2.5c-19.667 -1.66699 -39.5 -4.5 -59.5 -8.5c-46 -8.66699 -88.167 -22 -126.5 -40s-58.166 -41 -59.499 -69l-2 -48h-10h-50l13 214h22c4.66699 0 9.33398 0.666992 14.001 2
s9.33398 3.33301 14.001 6c12 7.33301 24.333 21.333 37 42s27.334 52.334 44 95.001c5.33301 14.667 12.666 36.167 21.999 64.5c9.33301 28.334 19 59.167 29 92.5c2.66797 9.33301 5.33496 18.833 8 28.5c2.66895 9.66699 5.33594 19.167 8.00098 28.5
c12 42.667 22.333 83.5 31 122.5s13 68.167 13 87.5c0 16 -2.66699 27.5 -8 34.5s-11.333 11.5 -18 13.5c-4 1.33301 -7.83301 2.16602 -11.5 2.49902s-6.83398 0.5 -9.50098 0.5h-0.5h-0.5h-59v0zM218.998 46l249.004 0.00292969c1.33301 0 2.83301 0.166992 4.5 0.5
s3.16699 1.16602 4.5 2.49902c3.33301 1.33301 6.5 4.5 9.5 9.5s4.5 12.167 4.5 21.5v547v0.5v0.5c0 9.33301 -1.33301 17.5 -4 24.5s-12.334 10.5 -29 10.5h-66h-0.5h-1.5c-2.66992 0 -5.83691 -0.166992 -9.50098 -0.5c-3.66699 -0.333008 -7.16699 -0.833008 -10.5 -1.5
c-3.33301 -1.35352 -6.83301 -3.18652 -10.5 -5.5c-3.66895 -2.33301 -6.83594 -5.5 -9.5 -9.5c-1.33301 -1.35254 -2.5 -3.18555 -3.5 -5.49902c-1 -2.33301 -2.16699 -4.83301 -3.5 -7.5c-3.33301 -9.33301 -7.5 -25.833 -12.5 -49.5s-13.5 -61.834 -25.5 -114.501
c-29.333 -126.667 -52.5 -210.334 -69.5 -251.001s-29.5 -72.667 -37.5 -96c-2.66699 -6.66699 -4.83398 -13.5 -6.50098 -20.5s-3.16699 -14.833 -4.5 -23.5c0 -0.666992 -0.166992 -1.33398 -0.5 -2l-0.5 -1v-2v-2l1 -5c0.666992 -4.66699 2.66699 -8.33398 6 -11.001
s6.66602 -4.66699 9.99902 -6c3.33301 -1.33398 6.66602 -2.16699 9.99902 -2.5s5.33301 -0.5 6 -0.5v0z" />
    <glyph glyph-name="e" unicode="&#xc5;" horiz-adv-x="699" 
d="M626 539h-46.0039l-4 41c-1.33301 15.333 -15 28.833 -41 40.5c-26 11.6719 -54.333 20.8389 -85 27.501c-22 5.33301 -43.167 9.33301 -63.5 12c-20.333 2.68652 -36.166 4.35352 -47.499 5c-11.333 0 -20.166 -1.33301 -26.499 -4s-11.166 -5.66699 -14.499 -9
c-2 -2 -3.33301 -4 -4 -6s-1 -3.66699 -1 -5v-244h5.5h4.5c42.667 0 75 2.5 97 7.5s38 10.833 48 17.5c6.66699 4 11.334 7.83301 14.001 11.5s4.66699 6.5 6 8.5v50h10h42v-238h-10h-42v60c-6 10.667 -19 18.834 -39 24.501s-41.667 9.83398 -65 12.501
c-12.667 1.34375 -25 2.17676 -37 2.49902c-12 0.333008 -23 0.5 -33 0.5v0v0h-1v0v-282c0 -12 3 -20 9 -24s20.667 -6 44 -6c52 0 94.667 5.5 128 16.5s59 22.833 77 35.5c12 8.66699 21 17 27 25s9.66699 14.333 11 19l11 47h10l47 -6l-33 -179h-10h-572v42h46h1.5h1.5
c10 0 18.333 1.66699 25 5s10 14.666 10 33.999v546c0 19.333 -3.33301 30.666 -10 33.999s-15 5 -25 5h-1.5h-1.5h-46v42h10h571l13 -169h-10v0z" />
    <glyph glyph-name="e" unicode="&#x415;" horiz-adv-x="699" 
d="M626 539h-46.0039l-4 41c-1.33301 15.333 -15 28.833 -41 40.5c-26 11.6719 -54.333 20.8389 -85 27.501c-22 5.33301 -43.167 9.33301 -63.5 12c-20.333 2.68652 -36.166 4.35352 -47.499 5c-11.333 0 -20.166 -1.33301 -26.499 -4s-11.166 -5.66699 -14.499 -9
c-2 -2 -3.33301 -4 -4 -6s-1 -3.66699 -1 -5v-244h5.5h4.5c42.667 0 75 2.5 97 7.5s38 10.833 48 17.5c6.66699 4 11.334 7.83301 14.001 11.5s4.66699 6.5 6 8.5v50h10h42v-238h-10h-42v60c-6 10.667 -19 18.834 -39 24.501s-41.667 9.83398 -65 12.501
c-12.667 1.34375 -25 2.17676 -37 2.49902c-12 0.333008 -23 0.5 -33 0.5v0v0h-1v0v-282c0 -12 3 -20 9 -24s20.667 -6 44 -6c52 0 94.667 5.5 128 16.5s59 22.833 77 35.5c12 8.66699 21 17 27 25s9.66699 14.333 11 19l11 47h10l47 -6l-33 -179h-10h-572v42h46h1.5h1.5
c10 0 18.333 1.66699 25 5s10 14.666 10 33.999v546c0 19.333 -3.33301 30.666 -10 33.999s-15 5 -25 5h-1.5h-1.5h-46v42h10h571l13 -169h-10v0z" />
    <glyph glyph-name="f" unicode="&#xc6;" horiz-adv-x="1127" 
d="M654 400l36.0078 -0.00195312c7.33301 0 14 0.5 20 1.5s11.667 3.83301 17 8.5s11.166 12.167 17.499 22.5c6.33301 10.334 13.5 25.167 21.5 44.499l49 116c11.333 26.6689 22.833 48.3359 34.5 65c11.667 16.667 23.5 29.667 35.5 39c14.667 10.667 29 17.5 43 20.5
s27.667 4.5 41 4.5h10c34.0039 0 58.1709 -7.5 72.5 -22.5c14.333 -15 22.833 -31.5 25.5 -49.5c0.666992 -2.66699 1 -5.16699 1 -7.5v-6.5c0 -22 -7 -39.167 -21 -51.5s-29.333 -19.5 -46 -21.5h-4h-4h-10c-16.667 0 -31.834 5.83301 -45.501 17.5
c-13.667 11.6689 -22.167 26.8359 -25.5 45.5c0 1.33301 -0.166992 2.5 -0.5 3.5s-0.5 2.16699 -0.5 3.5v3v3v3.5c0 1 0.333008 1.83301 1 2.5v3.5v2.5c0.694336 5.33301 1.36133 9.33301 2 12c0.695312 2.66699 1.3623 5 2.00098 7v0.5v1.5
c-2.66699 -4 -5.5 -9.5 -8.5 -16.5s-5.83301 -14.167 -8.5 -21.5c-2 -8 -4 -15.667 -6 -23c-2 -7.34277 -3.66699 -12.6758 -5 -16c-0.666992 -1.33301 -1.16699 -2.5 -1.5 -3.5s-0.5 -2.16699 -0.5 -3.5c-0.666992 -2 -1.33398 -4.16699 -2.00098 -6.5
s-1.33398 -4.5 -2.00098 -6.5c-14 -44 -31.5 -85.167 -52.5 -123.5s-56.167 -62.5 -105.5 -72.5c68 -8.66699 119.333 -30.5 154 -65.5s60.667 -72.5 78 -112.5c6 -14 11.5 -28 16.5 -42s9.5 -27.333 13.5 -40c1.33301 -3.33301 2.5 -7 3.5 -11s2.5 -8 4.5 -12
c2.66895 -8 5.83594 -15.333 9.50098 -22c3.66699 -6.66699 8.5 -10.667 14.5 -12c1.33301 0.666992 2.5 1.33398 3.5 2.00098s2.16699 1.33398 3.5 2.00098c3.33301 3.33301 6.33301 7.66602 9 12.999s5 12.666 7 21.999h10l38 -7
c-0.700195 -5.33301 -1.86719 -11.166 -3.5 -17.499c-1.68359 -6.33301 -3.85059 -12.833 -6.50098 -19.5c-7.33301 -18 -19.333 -34.167 -36 -48.5s-40.334 -21.5 -71.001 -21.5l-10 -1c-51.335 0.666992 -90.668 20.167 -118 58.5c-27.335 38.333 -48.668 80.5 -64 126.5
c-3.35742 8.66699 -6.19043 17.334 -8.5 26c-2.33301 8.66699 -4.83301 17 -7.5 25c-2.66699 10 -5.33398 19.333 -8.00098 28s-5.33398 17 -8.00098 25c-8 25.333 -17.333 45 -28 59s-27 21 -49 21h-27v-274c0 -19.333 3.33301 -30.666 10 -33.999s15 -5 25 -5h1.5h1.5h46
v-42h-10h-325v42h46h1.5h1.5c10 0 18.333 1.66699 25 5s10 14.666 10 33.999v274h-27c-22.668 0 -39.335 -7.66699 -50.001 -23c-10.667 -15.333 -20 -36.333 -28 -63c-2 -6 -4.16699 -12.667 -6.5 -20c-2.33301 -7.33398 -4.5 -14.667 -6.5 -21.999
c-4 -13.333 -8.66699 -28.5 -14 -45.5s-11.666 -34.5 -18.999 -52.5c-14.667 -35.333 -35.167 -67.833 -61.5 -97.5s-61.5 -44.5 -105.5 -44.5l-10 -1c-33.333 0.666992 -59.333 10.167 -78 28.5s-31.667 44.833 -39 79.5l38 7h10c2 -8.66699 4.33301 -15.834 7 -21.501
s5.66699 -9.83398 9 -12.501c1.33301 -1.33301 2.5 -2.33301 3.5 -3s2.16699 -1.33398 3.5 -2.00098c8 2.66699 15.167 11.334 21.5 26.001s12.166 30.334 17.499 47.001l2 8c0.666992 2.66797 1.66699 5.33496 3 8.00098c0.666992 4 1.66699 7.83301 3 11.5
s2.66602 7.16699 3.99902 10.5c4 11.333 9.83301 25.333 17.5 42s17.834 33.667 30.5 51c18.667 25.333 43.5 48.833 74.5 70.5s71.167 35.834 120.5 42.501c-46.667 10 -80.167 32 -100.5 66s-37.833 73.667 -52.5 119c0 0.683594 -0.166992 1.35059 -0.5 2
c-0.333008 0.683594 -0.5 1.35059 -0.5 2c-1.33301 4.66699 -3.5 11.834 -6.5 21.5c-3 9.6709 -6.16699 19.8379 -9.5 30.5c-2 5.33301 -3.83301 10.5 -5.5 15.5s-3.5 9.83301 -5.5 14.5c-2 4.67676 -3.83301 8.84375 -5.5 12.5c-1.66699 3.67188 -3.5 6.83887 -5.5 9.5
v-1.5v-0.5c0.666992 -2 1.33398 -4.33301 2 -7c0.667969 -2.66699 1.33496 -6.66699 2.00098 -12c0 -0.666992 0.166992 -1.66699 0.5 -3s0.5 -2.33301 0.5 -3v-3.5v-3.5v-2.5v-3.5c-0.666992 -0.666992 -1 -1.5 -1 -2.5v-3.5
c-2.66699 -18.667 -10.834 -33.834 -24.501 -45.501s-29.167 -17.5 -46.5 -17.5h-10h-4h-4c-16.667 2 -32 9.16699 -46 21.5s-21 29.5 -21 51.5v6.5c0 2.33301 0.333008 4.83301 1 7.5c2.66699 18 11.334 34.5 26.001 49.5s38.667 22.5 72 22.5h10
c15.333 0 31.166 -2 47.499 -6s32.833 -14.333 49.5 -31c10 -9.33301 19.667 -21.5 29 -36.5c9.33398 -15 18.667 -33.5 28 -55.5l49 -116c8 -19.333 15.167 -34.166 21.5 -44.499c6.33691 -10.333 12.1699 -17.833 17.5 -22.5c5.33301 -4.66699 11 -7.5 17 -8.5
s12.667 -1.5 20 -1.5h36v227c0 19.333 -3.33301 30.666 -10 33.999s-15 5 -25 5h-1.5h-1.5h-46v42h10h325v-42h-46h-1.5h-1.5c-10 0 -18.333 -1.66699 -25 -5c-6.66699 -3.33789 -10 -14.6709 -10 -33.999v-227v0z" />
    </font>
</defs>
</svg>
