<?xml version="1.0" standalone="no"?>
<!DOCTYPE svg PUBLIC "-//W3C//DTD SVG 1.1//EN" "http://www.w3.org/Graphics/SVG/1.1/DTD/svg11.dtd" >
<svg xmlns="http://www.w3.org/2000/svg" xmlns:xlink="http://www.w3.org/1999/xlink" version="1.1">
<metadata>
Created by FontForge 20161116 at Fri Jan  1 01:00:00 1904
 By Jimmy Warting
 
</metadata>
<defs>
<font id="Peterburg" horiz-adv-x="563" >
  <font-face 
    font-family="Peterburg"
    font-weight="400"
    font-stretch="normal"
    units-per-em="1000"
    panose-1="0 0 0 0 0 0 0 0 0 0"
    ascent="800"
    descent="-200"
    x-height="461.997"
    cap-height="694"
    bbox="-12.998 -248 1105 929.001"
    underline-thickness="50"
    underline-position="-55"
    unicode-range="U+0020-2219"
  />
<missing-glyph 
d="M269 0l-237.998 -0.00390625v22h39c17.333 0 27.666 1.83301 30.999 5.5s5 9.83398 5 18.501v370c0 8.66699 -1.83301 14.834 -5.5 18.501s-13.834 5.5 -30.501 5.5h-39v22h215v-22h-27c-14 0 -23.667 -1.16699 -29 -3.5s-8 -9.16602 -8 -20.499v-370
c0 -10.667 2.5 -17.334 7.5 -20.001s14.833 -4 29.5 -4h125c14 0 23.667 1.33301 29 4s8 9.33398 8 20.001v370c0 10.667 -2.5 17.334 -7.5 20.001s-14.833 4 -29.5 4h-28v22h216v-22h-39c-16.667 0 -27 -2 -31 -6s-6 -13.333 -6 -28v-350c0 -17.333 2.5 -27.333 7.5 -30
s14.167 -4 27.5 -4h0.5h1.5h39v-22h-238l25 -130c-2.66699 -1.33301 -5.66699 -2.5 -9 -3.5s-6.33301 -2.16699 -9 -3.5c-3.33301 -0.666992 -6.5 -1.16699 -9.5 -1.5s-6.16699 -0.5 -9.5 -0.5s-6.5 0.166992 -9.5 0.5s-6.16699 0.833008 -9.5 1.5
c-3.33301 1.33301 -6.5 2.5 -9.5 3.5s-6.16699 2.5 -9.5 4.5l25 129v0z" />
    <glyph glyph-name=".notdef" 
d="M269 0l-237.998 -0.00390625v22h39c17.333 0 27.666 1.83301 30.999 5.5s5 9.83398 5 18.501v370c0 8.66699 -1.83301 14.834 -5.5 18.501s-13.834 5.5 -30.501 5.5h-39v22h215v-22h-27c-14 0 -23.667 -1.16699 -29 -3.5s-8 -9.16602 -8 -20.499v-370
c0 -10.667 2.5 -17.334 7.5 -20.001s14.833 -4 29.5 -4h125c14 0 23.667 1.33301 29 4s8 9.33398 8 20.001v370c0 10.667 -2.5 17.334 -7.5 20.001s-14.833 4 -29.5 4h-28v22h216v-22h-39c-16.667 0 -27 -2 -31 -6s-6 -13.333 -6 -28v-350c0 -17.333 2.5 -27.333 7.5 -30
s14.167 -4 27.5 -4h0.5h1.5h39v-22h-238l25 -130c-2.66699 -1.33301 -5.66699 -2.5 -9 -3.5s-6.33301 -2.16699 -9 -3.5c-3.33301 -0.666992 -6.5 -1.16699 -9.5 -1.5s-6.16699 -0.5 -9.5 -0.5s-6.5 0.166992 -9.5 0.5s-6.16699 0.833008 -9.5 1.5
c-3.33301 1.33301 -6.5 2.5 -9.5 3.5s-6.16699 2.5 -9.5 4.5l25 129v0z" />
    <glyph glyph-name="space" unicode=" " horiz-adv-x="351" 
 />
    <glyph glyph-name="exclam" unicode="!" horiz-adv-x="333" 
d="M114 39c0 15.333 5.16699 28 15.5 38s22.833 15 37.5 15c14 0 26.333 -5 37 -15s16 -22.667 16 -38c0 -14.667 -5 -27 -15 -37s-22.667 -15 -38 -15s-28 5.16699 -38 15.5s-15 22.5 -15 36.5v0zM172 134l-9.99902 -0.00195312c0 4.66699 -0.166992 9.16699 -0.5 13.5
s-0.5 8.83301 -0.5 13.5c0 4 -0.166992 8.16699 -0.5 12.5s-0.5 8.83301 -0.5 13.5c-2.66699 56 -6 107.667 -10 155s-8 90 -12 128c-6.66699 56.667 -12.667 102.667 -18 138s-8 59 -8 71c0 1.33301 0.166992 2.5 0.5 3.5s0.5 1.83301 0.5 2.5c2 6 7.16699 11.333 15.5 16
s21.166 7 38.499 7h7.5c2.33301 0 4.83301 -0.333008 7.5 -1c8.66699 -0.666992 16.834 -3 24.5 -7c7.66699 -4 12.5 -11 14.5 -21c0.666992 -1.33301 1 -2.83301 1 -4.5v-4.5v-5c0 -2 -0.333008 -4 -1 -6c-16 -139.333 -27.667 -240.166 -35 -302.499
c-7.33398 -62.333 -11.667 -117.166 -13 -164.499c-0.666992 -9.33301 -1 -18.833 -1 -28.5v-29.5v0z" />
    <glyph glyph-name="quotedbl" unicode="&#x22;" horiz-adv-x="411" 
d="M165 700l-28 -218h-39l-28 218h95v0zM341 700l-28 -218h-38l-28 218h94v0z" />
    <glyph glyph-name="numbersign" unicode="#" horiz-adv-x="653" 
d="M397 17h-46l30 167h-165l-30 -167h-46l30 167h-114l10 56h114l37 207h-114l10 56h114l30 167h46l-30 -167h164l30 167h46l-29 -167h113l-10 -56h-113l-37 -207h113l-10 -56h-113l-30 -167v0zM391 240l36 207h-164l-37 -207h165v0z" />
    <glyph glyph-name="dollar" unicode="$" horiz-adv-x="591" 
d="M507 517l-35.001 0.000976562l-1 30c0 6.66699 -2.33301 14 -7 22s-11 16.333 -19 25c-8 8.6709 -17.333 17.3379 -28 26c-10.667 8.66699 -21.667 16.667 -33 24c-10.667 6.67676 -20.834 12.3438 -30.5 17c-9.66699 4.66699 -18.5 8 -26.5 10v-248l97 -58
c31.333 -18.667 58.333 -40.667 81 -66s34 -61 34 -107c0 -62.667 -20.833 -112.334 -62.5 -149.001s-91.5 -55 -149.5 -55v-60h-37v58c-2.66699 0.666992 -5.16699 1.16699 -7.5 1.5s-4.83301 0.5 -7.5 0.5c-24 2.66699 -47.5 7 -70.5 13s-43.833 12.667 -62.5 20
c-5.33301 2 -10.5 4 -15.5 6s-9.5 4 -13.5 6l2 -33h-35l-13 181h35l2 -24l1 -9c15.333 -27.333 36.333 -51.333 63 -72s54.334 -36 83.001 -46c6.66699 -2.66699 13.167 -4.66699 19.5 -6s12.833 -2.66602 19.5 -3.99902v301l-73 44l-20 12c-6.66699 4 -13 8 -19 12
c-28.667 18.667 -52.167 38.167 -70.5 58.5s-27.5 46.5 -27.5 78.5v6.5v7.5c3.33301 42 21 80.667 53 116s77.333 53 136 53h10.5c3.66699 0 7.16699 -0.333008 10.5 -1v46h37v-48c25.334 -2.66699 49.667 -7.33398 73 -14.001s46 -15.667 68 -27l-1 29h34l6 -177v0z
M326.999 299.001l-0.000976562 -281.998c41.334 1.33301 74.667 16.166 100 44.499s38 60.166 38 95.499c0 28 -7.16699 49 -21.5 63s-30.166 26.333 -47.499 37l-69 42v0zM289.998 445.003v232.002c-1.33301 0 -2.83301 0.166992 -4.5 0.5s-3.16699 0.5 -4.5 0.5h-5.5h-4.5
c-34 0 -61.167 -11 -81.5 -33s-30.5 -47 -30.5 -75c0 -14.667 3.5 -27.334 10.5 -38.001s14.833 -19.334 23.5 -26.001c4.66699 -4 9 -7.33301 13 -10s7.66699 -5 11 -7l73 -44v0z" />
    <glyph glyph-name="percent" unicode="%" horiz-adv-x="782" 
d="M704 757l-613 -843l-18 15l613 842l18 -14v0zM434 133c0 6 0.333008 12.167 1 18.5s2 12.833 4 19.5c6 27.333 19.833 52.166 41.5 74.499s52.5 33.5 92.5 33.5c41.333 0 74.333 -14.333 99 -43s37 -63 37 -103c0 -40.667 -12.167 -75.167 -36.5 -103.5
s-57.5 -42.5 -99.5 -42.5c-36.667 0 -65.167 9.33301 -85.5 28s-34.833 39.334 -43.5 62.001c-3.33301 10 -5.83301 19.833 -7.5 29.5s-2.5 18.5 -2.5 26.5v0zM506 133c0 -41.333 5.16699 -71.001 15.5 -89.001s21.833 -29 34.5 -33
c2.66797 -1.33301 5.33496 -2.16602 8.00098 -2.49902c2.66895 -0.333008 5.33594 -0.5 8 -0.5c2.66699 0 5.5 0.166992 8.5 0.5s5.83301 1.16602 8.5 2.49902c12 4.66699 23 15.834 33 33.501s15 47.167 15 88.5c0 39.333 -6 69.833 -18 91.5s-27.667 32.5 -47 32.5
c-20.667 0 -36.834 -10.833 -48.501 -32.5s-17.5 -52.167 -17.5 -91.5v0zM77 561.999c0 46.667 13.668 82.167 41.001 106.5s57.333 37.5 90 39.5h4h4c41.334 0 74.167 -14.333 98.5 -43s36.5 -63 36.5 -103c0 -44.667 -12.833 -80.334 -38.5 -107.001
s-57.834 -40 -96.501 -40c-35.333 0 -67.333 12.333 -96 37s-43 61.334 -43 110.001v0zM149.001 561.999c0 -41.334 5.00098 -70.834 15.001 -88.5c10 -17.668 21 -28.835 33 -33.5c2.66699 -1.33301 5.5 -2.16602 8.5 -2.49902s5.83301 -0.5 8.5 -0.5h4
c1.33301 0 2.66602 0.333008 3.99902 1c14 1.33496 27 10.668 39 28c12 17.334 18 49.334 18 96c0 36 -4 62.667 -12 80s-16.667 29.333 -26 36c-4.66699 3.33301 -9.5 5.5 -14.5 6.5s-9.16699 1.5 -12.5 1.5c-2.66699 0 -5.5 -0.333008 -8.5 -1
s-5.83301 -1.33398 -8.5 -2.00098c-12 -5.33301 -23 -17 -33 -35s-15 -46.667 -15 -86v0z" />
    <glyph glyph-name="ampersand" unicode="&#x26;" horiz-adv-x="770" 
d="M494 285l-0.00488281 24.9971h233v-25h-48c-14 0 -24.833 -2.16699 -32.5 -6.5s-15.167 -15.166 -22.5 -32.499c-0.666992 -2.66699 -1.5 -5.66699 -2.5 -9c-1 -3.33398 -2.16699 -6.66699 -3.5 -10c-2.66699 -8.66699 -9.33398 -26 -20.001 -52s-30.667 -55 -60 -87
c0.666992 -1.33301 1.5 -2.66602 2.5 -3.99902s1.83301 -2.33301 2.5 -3c10 -12.667 21.667 -24.167 35 -34.5s29 -15.5 47 -15.5c12.6719 0 24.3389 2.83301 35.001 8.5c10.667 5.66699 20 11.5 28 17.5l3.5 3.5l3.5 3.5l22 -25
c-1.33301 -1.33301 -2.83301 -2.66602 -4.5 -3.99902s-3.16699 -2.66602 -4.5 -3.99902c-19.333 -14.667 -38.833 -25.667 -58.5 -33s-41.5 -11 -65.5 -11c-8 0 -19.5 1.33301 -34.5 4s-30.5 9 -46.5 19c-5.33301 3.33301 -10.666 7.16602 -15.999 11.499
s-10.666 9.16602 -15.999 14.499c-17.333 -12 -34 -21.333 -50 -28s-31.667 -11.667 -47 -15c-9.33301 -2 -18.666 -3.5 -27.999 -4.5s-19 -1.5 -29 -1.5c-73.333 0 -128.166 14.5 -164.499 43.5s-59.166 61.167 -68.499 96.5c-2.66699 8 -4.5 16 -5.5 24
s-1.5 15.667 -1.5 23c0 48 16.5 89.333 49.5 124s74.833 64.334 125.5 89.001c-13.333 27.333 -22.333 50.333 -27 69s-7 36 -7 52c0 40.667 12 74.667 36 102s58.333 41 103 41c36.667 0 65.667 -9.83301 87 -29.5s32 -45.167 32 -76.5c0 -36 -12 -66 -36 -90
s-50.333 -42.667 -79 -56c-2 -0.666992 -3.83301 -1.5 -5.5 -2.5s-3.5 -1.83301 -5.5 -2.5l170 -275c8.66699 9.33301 17 19.333 25 30s15 22 21 34c5.33301 9.33301 9.66602 18.833 12.999 28.5s5.33301 18.834 6 27.5v4.5v4.5v0.5v1.5v1.5v0.5
c-1.3418 12 -5.6748 20.167 -12.999 24.5c-7.33301 4.33301 -15 6.83301 -23 7.5c-2.66699 0.666992 -5.5 1 -8.5 1h-8.5h-38v0zM452.995 60.9971l-180.999 287c-16.667 -11.333 -30.667 -23 -42 -35s-20.333 -24 -27 -36s-11.334 -24 -14.001 -36s-4 -23.667 -4 -35
c0 -6 0.333008 -12.333 1 -19s1.66699 -13 3 -19c7.33301 -36.667 24.833 -70.167 52.5 -100.5s63.5 -45.5 107.5 -45.5c20 0 37.5 3 52.5 9s27.833 12.667 38.5 20c2.66699 2 5 3.83301 7 5.5s4 3.16699 6 4.5v0zM331.996 425.997c4.66699 2 10.832 5.00098 18.499 9.00098
s15.5 9 23.5 15c12.667 10 24.334 22.667 35.001 38c10.667 15.334 16 34.334 16 57c0 24 -4.83301 42.167 -14.5 54.5s-20.5 19.833 -32.5 22.5c-1.33301 0 -2.83301 0.166992 -4.5 0.5s-3.16699 0.5 -4.5 0.5c-18 0 -34.5 -8.33301 -49.5 -25s-22.5 -39.667 -22.5 -69
c0 -4 0.166992 -8 0.5 -12s0.833008 -7.66699 1.5 -11c2.66699 -14.6689 7 -28.8359 13 -42.501c6 -13.667 12.667 -26.167 20 -37.5v0z" />
    <glyph glyph-name="quotesingle" unicode="'" horiz-adv-x="235" 
d="M165 700l-28 -218h-39l-28 218h95v0z" />
    <glyph glyph-name="parenleft" unicode="(" horiz-adv-x="475" 
d="M391 -78l-12.998 -20.0039c-5.33301 4 -10.5 7.66699 -15.5 11s-10.167 6.66602 -15.5 10c-66 44.667 -126.333 104.167 -181 178.5s-82 158.5 -82 252.5c0 4.66699 0.166992 9.33398 0.5 14.001s0.5 9.33398 0.5 14.001c6.66699 84 37.667 164.667 93 242
s122 138 200 182l13 -20c-41.333 -28 -75.333 -63 -102 -105s-47.334 -85.333 -62.001 -130c-12 -35.333 -20.667 -70.166 -26 -104.499s-8 -65.166 -8 -92.499c0 -26.667 3 -59.5 9 -98.5s16.667 -79.167 32 -120.5c15.333 -40 35.666 -78.667 60.999 -116
s57.333 -69.333 96 -96v-1z" />
    <glyph glyph-name="parenright" unicode=")" horiz-adv-x="475" 
d="M84 786l12 19.998c68.667 -37.333 127.334 -86.5 176.001 -147.5s82.667 -124.5 102 -190.5c5.33301 -19.333 9.5 -38.5 12.5 -57.5s4.5 -37.833 4.5 -56.5c0 -94 -27.667 -178.667 -83 -254s-116.333 -135 -183 -179c-5.33301 -3.33301 -10.333 -6.5 -15 -9.5
s-9.33398 -5.83301 -14 -8.5l-12 19c34.667 26 63.5 54.5 86.5 85.5s41.833 62.833 56.5 95.5c24 52 39.167 101.5 45.5 148.5s9.5 81.167 9.5 102.5c0 12.667 -2.83301 44.334 -8.5 95.001s-22.167 105.334 -49.5 164.001c-14.667 30.667 -33.334 61.167 -56.001 91.5
s-50.667 57.5 -84 81.5v0z" />
    <glyph glyph-name="asterisk" unicode="*" horiz-adv-x="513" 
d="M270 498l28.9971 -128.002c-5.33301 -4 -11.5 -7.33301 -18.5 -10s-15.167 -4 -24.5 -4c-8.66699 0 -16.5 1.33301 -23.5 4s-13.167 6 -18.5 10l28 128c-2 0.666992 -3.83301 1.5 -5.5 2.5s-3.16699 2.5 -4.5 4.5l-97 -90c-13.333 5.33301 -24 14 -32 26s-12 25 -12 39v2
c0 0.666992 0.333008 1.33398 1 2.00098v2v2l127 38v6l1 7l-127 38c-0.666992 1.33301 -1 2.83301 -1 4.5v5.5c0 14 4.33301 26.833 13 38.5c8.66699 11.6719 18.667 19.8389 30 24.501l98 -90c1.33301 2 2.83301 3.5 4.5 4.5c1.66895 1 3.83594 1.5 6.50098 1.5l-30 128
c5.33301 4 11.5 7.33301 18.5 10s14.833 4 23.5 4c9.33301 0 17.5 -1.33301 24.5 -4s13.167 -6 18.5 -10l-30 -128c2.66699 0 4.83398 -0.5 6.50098 -1.5s3.16699 -2.5 4.5 -4.5l97 90c12 -4.66699 22.333 -13 31 -25s13 -25 13 -39v-2v-2
c-0.666992 -1.33301 -1 -2.33301 -1 -3v-2l-127 -38c0 -0.666992 0.166992 -1.33398 0.5 -2.00098l0.5 -1v-2v-2v-1.5v-1.5c-0.666992 -0.666992 -1 -1.16699 -1 -1.5v-1.5l128 -38v-2v-1v-2v-2c0 -3.33301 -0.166992 -6.83301 -0.5 -10.5s-1.16602 -7.16699 -2.49902 -10.5
c-2 -9.33301 -6.16699 -18 -12.5 -26s-15.5 -14.333 -27.5 -19l-97 90c-1.33301 -1.33301 -2.83301 -2.66602 -4.5 -3.99902c-1.6709 -1.33301 -3.83789 -2.33301 -6.5 -3v0z" />
    <glyph glyph-name="plus" unicode="+" horiz-adv-x="610" 
d="M39 330v45h244v243h45v-243h243v-45h-243v-244h-45v244h-244v0z" />
    <glyph glyph-name="comma" unicode="," horiz-adv-x="340" 
d="M128 -154l-15.9941 15.002c3.33301 4 7.5 9.16699 12.5 15.5s9.83301 13.166 14.5 20.5c3.33301 5.33301 6.66602 10.833 9.99902 16.5s6.66602 11.5 9.99902 17.5c5.33301 10 9.66602 19.833 12.999 29.5s5 18.167 5 25.5c0 4.66699 -2 8.5 -6 11.5
s-8.33301 6.16699 -13 9.5c-1.33301 0.666992 -2.5 1.5 -3.5 2.5s-2.16699 1.83301 -3.5 2.5c-2 1.33301 -3.83301 2.66602 -5.5 3.99902s-3.5 2.66602 -5.5 3.99902c-3.33301 2.66699 -6.5 5.5 -9.5 8.5s-5.5 6.5 -7.5 10.5c-2.66699 4 -4.5 8.16699 -5.5 12.5
s-1.5 8.83301 -1.5 13.5c0 14 5.16699 25.5 15.5 34.5s23.166 13.5 38.499 13.5h2.5h2.5c13.333 -1.33301 25.5 -8.16602 36.5 -20.499s16.5 -30.833 16.5 -55.5c0 -10 -1 -20.5 -3 -31.5s-5 -22.167 -9 -33.5c-8.66699 -25.333 -20.834 -49.333 -36.501 -72
s-32.834 -40.334 -51.501 -53.001v-1z" />
    <glyph glyph-name="hyphen" unicode="-" horiz-adv-x="336" 
d="M291 295v-52h-246v52h246v0z" />
    <glyph glyph-name="period" unicode="." horiz-adv-x="331" 
d="M112 39c0 15.333 5.33105 28 15.998 38s23.334 15 38.001 15c14 0 26.333 -5 37 -15s16 -22.667 16 -38c0 -14.667 -5 -27 -15 -37s-22.667 -15 -38 -15s-28.166 5.16699 -38.499 15.5s-15.5 22.5 -15.5 36.5v0z" />
    <glyph glyph-name="slash" unicode="/" horiz-adv-x="850" 
d="M752 714l-636 -874l-18 15l636 873l18 -14v0z" />
    <glyph glyph-name="zero" unicode="0" horiz-adv-x="526" 
d="M44 347c0 10 0.332031 20.167 0.999023 30.5s1.33398 20.833 2.00098 31.5c8 74.667 29.833 143.167 65.5 205.5s85.834 93.5 150.501 93.5c66 0 116.667 -31.167 152 -93.5c35.334 -62.333 56.667 -130.833 63.999 -205.5
c0.666992 -10.667 1.33398 -21.167 2.00098 -31.5s1 -20.5 1 -30.5c0 -9.33301 -0.166992 -19 -0.5 -29s-1.16602 -19.667 -2.49902 -29c-6.66699 -76 -27.667 -145.333 -63 -208s-86.333 -94 -153 -94c-64.667 0 -114.834 31 -150.501 93s-57.5 130.333 -65.5 205
c-0.666992 10.667 -1.33398 21.167 -2.00098 31.5s-1 20.5 -1 30.5v0zM141.999 347c0 -98 7.33398 -170.333 22.001 -217s31 -78.334 49 -95.001c8.66699 -8.66699 17.5 -14.334 26.5 -17.001s16.833 -4 23.5 -4s14.5 1.5 23.5 4.5s18.167 9.16699 27.5 18.5
c17.333 16.667 33.333 48.334 48 95.001s22 118.334 22 215.001c0 18.667 -0.5 40.167 -1.5 64.5s-2.83301 49.5 -5.5 75.5c-6 48 -17.333 92.167 -34 132.5s-43.334 60.5 -80 60.5c-36.667 0 -63.334 -20.167 -80.001 -60.5s-28 -84.5 -34 -132.5
c-2.66699 -26 -4.5 -51.167 -5.5 -75.5s-1.5 -45.833 -1.5 -64.5v0z" />
    <glyph glyph-name="one" unicode="1" horiz-adv-x="525" 
d="M239 552c-16 -13.333 -29.835 -24.832 -41.502 -34.499s-23.167 -18.5 -34.5 -26.5l-18 -12c-6 -4 -12.667 -7.66699 -20 -11l-12 19c7.33301 6 15 12.5 23 19.5s16 14.5 24 22.5c16.667 16.667 33.167 35 49.5 55s31.166 40.667 44.499 62
c6.66699 10 12.834 20 18.501 30s10.834 20 15.501 30h32v-640c0 -15.333 2.5 -26 7.5 -32s10.5 -9.66699 16.5 -11c2.66699 -0.666992 5.16699 -1.16699 7.5 -1.5s4.5 -0.5 6.5 -0.5h40v-21h-237v21h40c9.33301 0 17.833 2.16699 25.5 6.5
c7.66797 4.33301 11.835 17.166 12.501 38.499v486v0z" />
    <glyph glyph-name="two" unicode="2" horiz-adv-x="526" 
d="M462 137l-14.002 -136.999h-406v24l167 185c18.667 20.667 36.167 40.334 52.5 59.001s30.833 37 43.5 55c20 28 35.667 56.5 47 85.5s17 61.5 17 97.5c0 47.333 -8 83.5 -24 108.5s-33.667 42.5 -53 52.5c-10.667 6 -21.167 10.167 -31.5 12.5
c-10.334 2.33301 -19.167 3.5 -26.5 3.5c-4 0 -8 -0.166992 -12 -0.5s-8.33301 -0.833008 -13 -1.5c-11.333 -2.66699 -22 -8 -32 -16s-15 -21.333 -15 -40c0 -2.66699 0.166992 -5.33398 0.5 -8.00098s0.833008 -5 1.5 -7v-0.5v-0.5c0.666992 -2 1.16699 -4 1.5 -6
s0.5 -4.33301 0.5 -7c0 -13.333 -3.5 -24 -10.5 -32s-14.833 -13.667 -23.5 -17c-2.66699 -0.666992 -5.5 -1.33398 -8.5 -2.00098s-5.83301 -1 -8.5 -1h-2.5h-2.5c-10 2 -19.333 7.83301 -28 17.5c-8.66699 9.66895 -13 22.8359 -13 39.5c0 5.33301 0.666992 10.833 2 16.5
s3.33301 11.5 6 17.5c8.66699 16.6689 24.167 32.3359 46.5 47c22.333 14.6719 53.5 23.3389 93.5 26c3.33301 0.666992 6.5 1 9.5 1h9.5h4h4c1.33301 -0.666992 2.83301 -1 4.5 -1h4.5c60.667 -2.66699 110.334 -22.334 149.001 -59.001s58 -86.334 58 -149.001
c0 -27.333 -7.5 -60.5 -22.5 -99.5s-49.167 -82.833 -102.5 -131.5l-218 -199h204c36 0 61.5 2.83301 76.5 8.5s24.833 11.834 29.5 18.501c2 2.66699 3.33301 5.33398 4 8.00098s1.33398 5 2.00098 7l5 25h24v0z" />
    <glyph glyph-name="three" unicode="3" horiz-adv-x="526" 
d="M149 373l-0.00488281 45.999c0.666992 0 4 -0.5 10 -1.5l21 -3.5c6.66699 -1.33301 13.167 -2.5 19.5 -3.5s9.83301 -1.5 10.5 -1.5c50.667 0 91.834 11.5 123.501 34.5s47.5 55.833 47.5 98.5c0 43.333 -13.167 77.833 -39.5 103.5s-59.166 38.5 -98.499 38.5
c-32 0 -53.5 -4.83301 -64.5 -14.5s-17.5 -20.167 -19.5 -31.5c-0.666992 -3.33301 -1 -6.5 -1 -9.5v-8.5c0 -20 -3.33301 -34.5 -10 -43.5s-14 -14.833 -22 -17.5c-3.33301 -1.35059 -6.66602 -2.18359 -9.99902 -2.5c-3.33301 -0.333008 -6.33301 -0.5 -9 -0.5
c-11.333 0 -21.5 4.83301 -30.5 14.5c-9 9.6709 -13.5 22.8379 -13.5 39.5c0 5.33301 0.833008 11 2.5 17s4.5 12 8.5 18c10.667 16 29.167 30.5 55.5 43.5s63.833 19.5 112.5 19.5c68 0 118.833 -11.833 152.5 -35.5s56.167 -49.5 67.5 -77.5
c4 -9.33789 6.83301 -18.6709 8.5 -28c1.66699 -9.33301 2.5 -18.333 2.5 -27c0 -34.667 -14.833 -66.334 -44.5 -95c-29.667 -28.667 -72.167 -45 -127.5 -49c47.333 -8 89 -28.667 125 -62s54 -79.333 54 -138c0 -55.333 -21.833 -104 -65.5 -146s-104.167 -63 -181.5 -63
c-52 0 -92.667 8.83301 -122 26.5s-50 37.5 -62 59.5c-4.66699 8.66699 -8.16699 17.334 -10.5 26.001s-3.5 16.667 -3.5 24c0 14 3.66699 24.5 11 31.5s15.666 11.5 24.999 13.5c2 0.666992 4.16699 1.16699 6.5 1.5s4.5 0.5 6.5 0.5c14.667 0 25.834 -4.33301 33.501 -13
s12.167 -18 13.5 -28c0.666992 -1.33301 1 -2.83301 1 -4.5v-4.5c0 -4.66699 -0.666992 -9.16699 -2 -13.5s-2.66602 -8.83301 -3.99902 -13.5c0 -0.666992 -0.166992 -1.66699 -0.5 -3s-0.5 -2.33301 -0.5 -3c-0.666992 -1.33301 -1.16699 -2.5 -1.5 -3.5
s-0.5 -2.16699 -0.5 -3.5c0 -0.666992 -0.166992 -1.33398 -0.5 -2c-0.333008 -0.666992 -0.5 -1.33398 -0.5 -2v-2v-2v-1.5c0 -0.333008 0.333008 -0.833008 1 -1.5v-1.5v-1.5c0.666992 -2.66699 1.83398 -6 3.50098 -10s4.5 -8.33301 8.5 -13
c6.66699 -7.33301 17.5 -14.166 32.5 -20.499s36.5 -9.5 64.5 -9.5c5.33301 0 15 1.16699 29 3.5s28.667 8.16602 44 17.499c19.333 10.667 37 28.334 53 53.001s24 60 24 106c0 54 -8.5 94 -25.5 120s-35.5 44.333 -55.5 55c-16 7.33594 -31.167 11.6689 -45.5 12.999
c-14.333 1.33301 -24.5 2 -30.5 2h-1.5h-1.5c-7.33301 0 -17.333 -0.833008 -30 -2.5s-27 -4.16699 -43 -7.5v0z" />
    <glyph glyph-name="four" unicode="4" horiz-adv-x="526" 
d="M306 148l-278.002 -0.000976562v33c8.66699 12.667 17.5 25.334 26.5 38c9 12.667 17.5 25.667 25.5 39c48 72 89.833 140.167 125.5 204.5s59.5 108.5 71.5 132.5c6 11.333 11.333 21.5 16 30.5s9.33398 17.5 14.001 25.5c0 0.671875 0.333008 1.33887 1 2.00098
c0.666992 0.676758 1 1.34375 1 2c4.66699 8 9.33398 16.167 14.001 24.5s10 17.833 16 28.5l81 -45l-366 -487h252v261l81 69v-330h91v-28h-91v-82c0 -15.333 2.5 -26 7.5 -32s10.5 -9.66699 16.5 -11c2.66699 -0.666992 5.16699 -1.16699 7.5 -1.5s4.5 -0.5 6.5 -0.5h53
v-21h-263v21h53c2 0 4.16699 0.166992 6.5 0.5s4.83301 0.833008 7.5 1.5c6 1.33301 11.5 5 16.5 11s7.5 16.667 7.5 32v82v0z" />
    <glyph glyph-name="five" unicode="5" horiz-adv-x="526" 
d="M150 621l-19 -152.999c105.333 1.33301 181.833 -13.5 229.5 -44.5s79.167 -65.167 94.5 -102.5c7.33691 -17.333 12.1699 -34.333 14.5 -51c2.33301 -16.667 3.5 -31.667 3.5 -45c0 -74.667 -25.667 -132.834 -77 -174.501s-107.666 -62.834 -168.999 -63.501h-1.5h-1.5
c-5.33398 0 -10.667 0.166992 -16 0.5c-5.33398 0.333008 -10.667 0.833008 -16 1.5c-37.333 4.66699 -71.666 16.834 -102.999 36.501s-47 44.167 -47 73.5c0 21.333 5 36.333 15 45s21.333 13 34 13c14 0 25.333 -5 34 -15s13 -21.333 13 -34
c0 -2 -0.333008 -4.33301 -1 -7s-1.33398 -5 -2.00098 -7c-0.666992 -0.666992 -1 -1.33398 -1 -2v-1l-2 -6l-2 -6c-0.666992 -2.66699 -1.16699 -5.83398 -1.5 -9.5c-0.333008 -3.66699 -0.5 -7.16699 -0.5 -10.5c0 -14 6 -24.167 18 -30.5s25 -10.833 39 -13.5
c8 -0.666992 15.667 -1.16699 23 -1.5s13.666 -0.5 18.999 -0.5c53.333 0 91.333 22.167 114 66.5s34 93.5 34 147.5c0 74 -20.5 126.167 -61.5 156.5s-86.167 48.833 -135.5 55.5c-13.333 2 -26.333 3.33301 -39 4s-25 1 -37 1l29 250h208c27.333 0 46.5 2 57.5 6
s17.833 8.66699 20.5 14c0 0.688477 0.166992 1.35547 0.5 2c0.333008 0.688477 0.5 1.35547 0.5 2l1 10h24l-24 -107h-269v0z" />
    <glyph glyph-name="six" unicode="6" horiz-adv-x="526" 
d="M153 388c29.333 19.333 56.498 30.999 81.498 34.999s44.167 6 57.5 6c50.667 0 96.5 -18.167 137.5 -54.5s61.5 -89.166 61.5 -158.499c0 -62 -18.833 -115.667 -56.5 -161s-90.167 -68 -157.5 -68c-79.333 0 -137.166 31.5 -173.499 94.5s-54.5 142.5 -54.5 238.5
c0 106.667 17.5 187 52.5 241s73.5 92 115.5 114c28 14.667 54.667 24.167 80 28.5s46 6.5 62 6.5c28 0 50.5 -6.5 67.5 -19.5s29.167 -27.167 36.5 -42.5c2 -6 3.66699 -11.667 5 -17s2 -10.333 2 -15c0 -14 -3.66699 -24.667 -11 -32
c-7.33301 -7.3418 -15.666 -11.6748 -24.999 -12.999c-1.33301 -0.666992 -2.5 -1 -3.5 -1h-3.5h-5.5c-1.66699 0 -3.5 0.333008 -5.5 1c-10.667 1.33301 -20.334 5.5 -29 12.5c-8.66699 7 -13 17.5 -13 31.5v8.5v8.5c0 2.66699 0.166992 5.5 0.5 8.5s0.5 5.83301 0.5 8.5
v3.5v2.5v3.5v2.5c-0.666992 6.66699 -3.16699 12.5 -7.5 17.5s-12.166 7.5 -23.499 7.5c-54.667 0 -99.834 -27.167 -135.501 -81.5c-35.667 -54.334 -54.167 -126.501 -55.5 -216.501v0zM150.998 356.999c-2.66699 -14.667 -4.66699 -31 -6 -49s-2 -36.667 -2 -56
c0 -5.33398 0.166992 -10.667 0.5 -16c0.333008 -5.33398 0.5 -10.667 0.5 -16c3.33301 -52 14.5 -99.833 33.5 -143.5s52.167 -65.5 99.5 -65.5c36 0 62.167 12.667 78.5 38c16.334 25.333 27.167 53.333 32.5 84c3.33301 15.333 5.33301 30.333 6 45s1 27.667 1 39
c0 50.667 -8.33301 88.167 -25 112.5s-35 40.833 -55 49.5c-14.667 6.66699 -28.667 10.5 -42 11.5s-23.333 1.5 -30 1.5h-0.5h-0.5c-15.333 0 -28.833 -2.16699 -40.5 -6.5s-21.5 -8.83301 -29.5 -13.5c-4.66699 -2.66699 -8.66699 -5.33398 -12 -8
c-3.33301 -2.66699 -6.33301 -5 -9 -7v0z" />
    <glyph glyph-name="seven" unicode="7" horiz-adv-x="526" 
d="M429 694l10 14.001h34l-76 -177c-52.667 -122 -88.334 -221.667 -107 -299c-18.667 -77.333 -34.334 -136 -47.001 -176c-7.33301 -24 -15.5 -41.5 -24.5 -52.5s-21.833 -16.5 -38.5 -16.5c-2.66699 0 -6 0.166992 -10 0.5s-8 1.16602 -12 2.49902
c-6.66699 2.66699 -12.834 6.5 -18.501 11.5s-8.5 12.833 -8.5 23.5c0 18 8.16699 50 24.5 96s58.833 134.333 127.5 265c16.667 31.334 31.334 59.167 44.001 83.5c12.667 24.334 24.334 47.834 35.001 70.5c3.33301 6 6.5 12.167 9.5 18.5s5.83301 12.833 8.5 19.5
c2.66699 6 5.5 12 8.5 18s5.83301 12.333 8.5 19h-221c-32.667 0 -56.5 -5.16699 -71.5 -15.5c-15 -10.3359 -24.167 -28.1689 -27.5 -53.5h-24l24 148h352v0z" />
    <glyph glyph-name="eight" unicode="8" horiz-adv-x="526" 
d="M320 401c7.33496 -4.66699 14.6631 -9.00293 21.9951 -13.0029c7.33301 -4 14.333 -8.33301 21 -13c36.667 -22.667 66.167 -47.5 88.5 -74.5s33.5 -65.167 33.5 -114.5c0 -4 -0.166992 -8.16699 -0.5 -12.5s-0.833008 -8.5 -1.5 -12.5
c-5.33301 -44 -25.666 -84 -60.999 -120s-87.333 -54 -156 -54c-78 0 -135.167 20 -171.5 60s-54.833 84.333 -55.5 133v1.5v1.5c0 43.333 13.667 82.333 41 117s63 59.334 107 74.001c-16.667 8.66699 -31.167 17.834 -43.5 27.501s-22.833 19.5 -31.5 29.5
c-16.667 19.333 -27.667 38 -33 56s-8 32.667 -8 44c0 8.66699 0.833008 17.834 2.5 27.5c1.66699 9.66699 4.16699 19.5 7.5 29.5c10.667 30 31 57.5 61 82.5s73 37.5 129 37.5c60.667 0 106.334 -14 137.001 -42s48.334 -59 53.001 -93
c0.666992 -4 1.16699 -7.83301 1.5 -11.5s0.5 -7.16699 0.5 -10.5v-2v-3c-1.33301 -30.667 -14.166 -59.667 -38.499 -87s-59.166 -46.666 -104.499 -57.999v0zM210.995 357.997c-32.667 -16 -57.335 -39.667 -74.002 -71s-25.667 -64.333 -27 -99v-4.5v-5.5
c0 -52 15.667 -93.167 47 -123.5s68.333 -45.5 111 -45.5c44.667 0 78.834 14.5 102.501 43.5s36.834 60.5 39.501 94.5c0.666992 2.66797 1 5.33496 1 8v8c0 47.333 -18.167 84.5 -54.5 111.5s-76.5 50.833 -120.5 71.5c-4 2 -8.16699 4 -12.5 6s-8.5 4 -12.5 6v0z
M295.994 416.997c33.333 11.333 58.3311 30 74.998 56c16.667 26.001 25 54.334 25 85c0 38.667 -11.667 69.5 -35 92.5s-55.666 34.5 -96.999 34.5s-71.833 -12.167 -91.5 -36.5c-19.667 -24.335 -30.5 -51.168 -32.5 -80.5v-4v-4c0 -22.667 9.83301 -44 29.5 -64
s41.167 -36.667 64.5 -50c11.333 -6.66699 22.333 -12.5 33 -17.5s20.334 -8.83301 29.001 -11.5v0z" />
    <glyph glyph-name="nine" unicode="9" horiz-adv-x="526" 
d="M380 305c-11.333 -7.33301 -22.835 -13.5 -34.502 -18.5s-23.5 -9.16699 -35.5 -12.5s-23.833 -5.83301 -35.5 -7.5s-23.167 -2.5 -34.5 -2.5c-50.667 0 -96.334 18.333 -137.001 55s-61 89.334 -61 158.001c0 62 18.667 115.833 56 161.5s90 68.5 158 68.5
c78.667 0 136.334 -31.833 173.001 -95.5s55 -143.167 55 -238.5c0 -126.667 -27.833 -220.667 -83.5 -282s-117.167 -96.333 -184.5 -105c-5.33301 -0.666992 -10.833 -1.16699 -16.5 -1.5s-11.167 -0.5 -16.5 -0.5c-35.333 0 -63.166 8.16699 -83.499 24.5
s-32.5 34.5 -36.5 54.5c0 2 -0.166992 4.16699 -0.5 6.5s-0.5 4.83301 -0.5 7.5c0 14.667 4 25.667 12 33c8 7.33398 17 11.667 27 13h2.5h2.5h5.5c1.66699 0 3.5 -0.333008 5.5 -1c10.667 -1.33301 20.334 -5.5 29.001 -12.5s13 -17.5 13 -31.5v-7.5
c0 -2.33301 -0.333008 -4.5 -1 -6.5v-1.5v-1.5c0 -2.66699 -0.166992 -5.33398 -0.5 -8.00098s-0.5 -5.66699 -0.5 -9v-6.5c0 -2.33301 0.333008 -4.5 1 -6.5c0.666992 -6 3 -11.5 7 -16.5s11.667 -7.5 23 -7.5c4 0 8.33301 0.166992 13 0.5s9 0.833008 13 1.5
c40 8 77 35.167 111 81.5s52.333 117.833 55 214.5v0zM381.998 336c1.33301 13.333 2.66504 28.8311 3.99805 46.498s2 36.167 2 55.5c0 8 -0.166992 16 -0.5 24s-0.833008 16 -1.5 24c-3.33301 49.333 -14.166 94.333 -32.499 135s-50.833 61 -97.5 61
c-35.333 0 -61.333 -12.667 -78 -38s-27.667 -53 -33 -83c-2.66699 -16 -4.5 -31.333 -5.5 -46s-1.5 -27.667 -1.5 -39c0 -59.333 10.667 -101 32 -125s45 -39 71 -45c8.66699 -2 17.167 -3.33301 25.5 -4c8.33398 -0.666992 16.167 -1 23.499 -1
c6.66699 0 13.334 0.5 20.001 1.5s13.334 2.83301 20.001 5.5c8.66699 2.66699 17.5 6.33398 26.5 11.001s17.5 10.334 25.5 17.001v0z" />
    <glyph glyph-name="colon" unicode=":" horiz-adv-x="331" 
d="M112 39c0 15.333 5.33105 28 15.998 38s23.334 15 38.001 15c14 0 26.333 -5 37 -15s16 -22.667 16 -38c0 -14.667 -5 -27 -15 -37s-22.667 -15 -38 -15s-28.166 5.16699 -38.499 15.5s-15.5 22.5 -15.5 36.5v0zM111.998 431c0 15.333 5.33105 28 15.998 38
s23.334 15 38.001 15c14 0 26.333 -5 37 -15s16 -22.667 16 -38c0 -14.667 -5 -27.167 -15 -37.5s-22.667 -15.5 -38 -15.5s-28.166 5.33301 -38.499 16s-15.5 23 -15.5 37v0z" />
    <glyph glyph-name="semicolon" unicode=";" horiz-adv-x="340" 
d="M129 -154l-16.999 15.001c8 8 15.333 16.5 22 25.5s12.667 18.167 18 27.5c8 14 14.167 27.333 18.5 40s6.5 23.334 6.5 32.001c0 4.66699 -2 8.5 -6 11.5s-8.33301 6.16699 -13 9.5c-1.33301 0.666992 -2.5 1.5 -3.5 2.5s-2.16699 1.83301 -3.5 2.5
c-2 1.33301 -3.83301 2.66602 -5.5 3.99902s-3.5 3 -5.5 5c-6 4.66699 -11.5 10.5 -16.5 17.5s-7.5 15.833 -7.5 26.5c0 14 5.16699 25.5 15.5 34.5s23.166 13.5 38.499 13.5h2.5h2.5c13.333 -1.33301 25.5 -8.16602 36.5 -20.499s16.5 -30.833 16.5 -55.5
c0 -8.66699 -0.666992 -17.334 -2 -26.001s-3.33301 -17.667 -6 -27c-8 -26.667 -20.167 -52.334 -36.5 -77.001s-34.5 -44.667 -54.5 -60v-1zM116.001 431.001c0 15.333 5.33301 28 16 38s23.334 15 38 15c14 0 26.333 -5 37 -15s16 -22.667 16 -38
c0 -14.667 -5 -27.167 -15 -37.5s-22.667 -15.5 -38 -15.5c-15.334 0 -28.167 5.33301 -38.5 16s-15.5 23 -15.5 37v0z" />
    <glyph glyph-name="less" unicode="&#x3c;" horiz-adv-x="715" 
d="M45 350l598 255l27 -60l-468 -195l468 -195l-27 -60l-598 255v0z" />
    <glyph glyph-name="equal" unicode="=" horiz-adv-x="610" 
d="M39 244v45h532v-45h-532v0zM39 414v45h532v-45h-532v0z" />
    <glyph glyph-name="greater" unicode="&#x3e;" horiz-adv-x="715" 
d="M670 350l-599 -255l-26 60l467 195l-467 195l26 60l599 -255v0z" />
    <glyph glyph-name="question" unicode="?" horiz-adv-x="552" 
d="M185 39c0 15.333 5.33301 28 16 38s23.334 15 38 15c14 0 26.333 -5 37 -15s16 -22.667 16 -38c0 -14.667 -5 -27 -15 -37s-22.667 -15 -38 -15c-15.334 0 -28.167 5.16699 -38.5 15.5s-15.5 22.5 -15.5 36.5v0zM227 130v123c0 16 2.66699 27.667 8 35
s11.333 13.333 18 18c0.666992 0.666992 1.5 1.33398 2.5 2.00098s1.83301 1.33398 2.5 2.00098c8 6 16.833 13.5 26.5 22.5s19.5 18.833 29.5 29.5c12 13.333 24 27.833 36 43.5s22 31.5 30 47.5c6 11.333 10.667 22.5 14 33.5s5 21.833 5 32.5
c0 47.333 -14.833 85 -44.5 113s-62.167 43.667 -97.5 47c-2 0.666992 -4.16699 1 -6.5 1h-6.5c-18.667 0 -32.5 -3 -41.5 -9s-15.167 -12.667 -18.5 -20c-1.33887 -3.34277 -2.17188 -6.67578 -2.5 -9.99902c-0.333008 -3.33301 -0.5 -6.33301 -0.5 -9v-3.5
c0 -1 0.333008 -1.83301 1 -2.5v-2v-2v-4c0 -1.33594 0.333008 -2.66895 1 -4v-4.5v-4.5c0 -12 -4.83301 -23 -14.5 -33s-22.167 -15 -37.5 -15c-12 0 -22.833 4.66699 -32.5 14s-14.5 22.666 -14.5 39.999c0 2.68555 0.166992 5.35254 0.5 8
c0.333008 2.68555 0.833008 5.35254 1.5 8c6 20.668 22.5 39.335 49.5 56c27 16.667 62.833 25 107.5 25c63.334 0 116.667 -21.5 160 -64.5s65 -99.167 65 -168.5c0 -48.667 -11.167 -88.334 -33.5 -119c-22.333 -30.667 -50.5 -59.334 -84.5 -86
c-9.33301 -7.33301 -18.833 -14.666 -28.5 -21.999c-9.66699 -7.33398 -19.5 -14.667 -29.5 -22c-0.666992 -0.666992 -1.5 -1.33398 -2.5 -2.00098s-1.83301 -1.33398 -2.5 -2.00098c-9.33301 -6.66699 -17.833 -14.334 -25.5 -23.001s-11.5 -18.667 -11.5 -30v-39h-23v0z
" />
    <glyph glyph-name="at" unicode="@" horiz-adv-x="890" 
d="M700 483l-52.001 -374.003c-0.666992 -2.66699 -1.16699 -5.16699 -1.5 -7.5s-0.833008 -4.5 -1.5 -6.5c0 -2 -0.166992 -4.16699 -0.5 -6.5s-0.5 -4.83301 -0.5 -7.5c0 -18 2.66699 -31.167 8 -39.5s11.333 -13.833 18 -16.5c2 -1.33301 4.33301 -2.16602 7 -2.49902
s5 -0.5 7 -0.5c6 0 14.167 1.33301 24.5 4s21.166 8.66699 32.499 18c16.667 14.667 32 41 46 79s21 95.333 21 172c0 100.667 -20.333 175.834 -61 225.501s-85 84.167 -133 103.5c-27.333 10.6768 -54 17.8438 -80 21.501c-26 3.66699 -48.333 5.5 -67 5.5
c-12.667 0 -25.667 -0.5 -39 -1.5s-27 -2.83301 -41 -5.5c-76 -14 -145.833 -50.667 -209.5 -110s-95.5 -151 -95.5 -275c0 -114.667 32.667 -209 98 -283s148 -111 248 -111c22.667 0 44.667 1.66699 66 5s42.333 8.66602 63 15.999c12.667 4 25.334 8.83301 38 14.5
c12.6689 5.66699 25.3359 12.167 38 19.5l23 -34c-44.667 -23.333 -87.167 -38.666 -127.5 -45.999s-76.166 -11 -107.499 -11c-119.333 0 -217 43 -293 129s-114 186.667 -114 302c0 118.667 41.5 219.667 124.5 303s191.833 125 326.5 125c118 0 216 -35.667 294 -107
s117 -167.666 117 -288.999c0 -14 -0.5 -28.333 -1.5 -43s-2.5 -29.667 -4.5 -45c-7.33301 -53.333 -25 -102.333 -53 -147s-74 -67 -138 -67c-41.333 0 -70.5 7 -87.5 21s-26.833 29.667 -29.5 47c0 2 -0.166992 4 -0.5 6s-0.5 4 -0.5 6l-6 1
c-24 -30.667 -50.833 -51.834 -80.5 -63.501s-64.5 -17.5 -104.5 -17.5c-46 0 -86.667 14.667 -122 44s-53 71.333 -53 126c0 16.667 1 33.834 3 51.5c2 17.667 5 35.834 9 54.5c13.333 59.333 40.833 113.833 82.5 163.5s103.834 74.5 186.501 74.5
c20.667 0 42.5 -3.5 65.5 -10.5s46.167 -24.167 69.5 -51.5l5 41h84v0zM408.999 21.9971c49.334 0 87.166 20.6641 113.499 61.9971s44.5 86.666 54.5 135.999c4 19.333 6.83301 38.333 8.5 57s2.5 36.334 2.5 53.001v1.5v1.5c-0.666992 34.667 -10.667 66.334 -30 95.001
s-48.333 43 -87 43c-47.333 0 -83.333 -17.333 -108 -52s-42.334 -72.667 -53 -114c-7.33301 -27.333 -12.166 -53.666 -14.499 -78.999s-3.5 -45.666 -3.5 -60.999c0 -36.667 9.5 -69.667 28.5 -99s48.5 -44 88.5 -44v0z" />
    <glyph glyph-name="A" unicode="A" horiz-adv-x="715" 
d="M233 273l-22.998 -62.001c-10.667 -28 -20.334 -53.667 -29.001 -77s-13 -43.333 -13 -60c0 -2.66699 0.166992 -5.5 0.5 -8.5s1.16602 -6.16699 2.49902 -9.5c1.33301 -7.33301 4 -13.833 8 -19.5s8.66699 -8.5 14 -8.5h44v-28h-203v28h24c10 0 21.167 7.33301 33.5 22
s27.5 41.334 45.5 80.001c9.33301 19.333 29.5 66.5 60.5 141.5s83.5 215.833 157.5 422.5h42l220 -605c1.33301 -3.33301 2.83301 -7.33301 4.5 -12c1.68555 -4.66699 3.85254 -9.33398 6.5 -14.001c4.66699 -8.66699 11.5 -16.667 20.5 -24s21.5 -11 37.5 -11h22v-28h-256
v28h40h5.5h5.5c7.33301 0.666992 14 2.83398 20 6.50098s9 10.167 9 19.5c0 8 -1.83301 18 -5.5 30s-9.16699 28.333 -16.5 49l-50 140h-227v0zM243.002 300.999h207l-103 283l-104 -283v0z" />
    <glyph glyph-name="B" unicode="B" horiz-adv-x="719" 
d="M67 0l0.00195312 28.001h57h6c2 0 4.33301 0.333008 7 1c6 1.33301 11.667 5 17 11s8 17 8 33v548c0 14 -2.83301 25 -8.5 33s-15.5 12 -29.5 12h-57v28h240c7.33301 0 14.833 0.166992 22.5 0.5s15.167 0.833008 22.5 1.5c7.33496 0 14.668 0.166992 22 0.5
c7.33496 0.333008 14.668 0.5 22 0.5c82 0 141.833 -16.167 179.499 -48.5c37.668 -32.333 57.835 -67.833 60.5 -106.5v-4v-4c0 -4.66699 -0.333008 -9.66699 -1 -15c-0.666992 -5.33691 -1.33398 -10.3369 -2.00098 -15c-6 -26.667 -21.167 -51.5 -45.5 -74.5
s-61.5 -37.5 -111.5 -43.5c53.333 -6.66699 98.333 -26.834 135 -60.5c36.667 -33.667 55 -76.834 55 -129.501c0 -8 -0.333008 -16 -1 -24s-2 -16 -4 -24c-8 -38 -28.167 -72.667 -60.5 -104s-83.833 -47 -154.5 -47c-20 0 -36 0.166992 -48 0.5s-22.667 0.833008 -32 1.5
h-4h-4c-8 0.666992 -16.5 1 -25.5 1h-33.5h-232v0zM254.002 368.001v-300.999c11.333 -12 23 -21 35 -27s24 -10 36 -12c8 -2 16 -3.16699 24 -3.5s16 -0.5 24 -0.5c53.333 0 93 10.5 119 31.5s43.667 44.167 53 69.5c4.68359 12.667 7.85059 25 9.5 37
c1.66699 12 2.5 22.667 2.5 32c0 47.333 -13 88.166 -39 122.499s-68.667 51.5 -128 51.5h-136v0zM254.002 398.002h125c6 0 16 0.5 30 1.5s28.667 4.5 44 10.5c20 8 38.333 21.167 55 39.5c16.667 18.334 25 46.167 25 83.5s-8.83301 65.333 -26.5 84s-36.834 32 -57.5 40
c-16.668 6 -32.335 9.5 -47.001 10.5c-14.668 1 -25.335 1.5 -32 1.5c-6.66699 0 -14 -0.333008 -22 -1s-16.333 -2 -25 -4c-17.333 -3.34375 -33.166 -8.67676 -47.499 -16c-14.333 -7.33301 -21.5 -17.333 -21.5 -30v-220v0z" />
    <glyph glyph-name="C" unicode="C" horiz-adv-x="744" 
d="M624 694l30.9971 0.00292969l14 -185h-32l-4 44c-20 39.333 -49.5 70.333 -88.5 93s-83.5 34 -133.5 34c-64 0 -113 -22.333 -147 -67s-57.333 -94 -70 -148c-5.33398 -22 -9.16699 -43.667 -11.5 -65s-3.5 -41 -3.5 -59c0 -106.667 27.333 -186.334 82 -239.001
s117.334 -79 188.001 -79c47.333 0 90.5 14.167 129.5 42.5s72.833 72.833 101.5 133.5l25 -13c-24 -52 -51.167 -92 -81.5 -120s-61.5 -48.333 -93.5 -61c-19.333 -6.66699 -38.666 -11.334 -57.999 -14.001s-37.666 -4 -54.999 -4c-112.667 0 -198.667 36 -258 108
s-89 154.333 -89 247c0 6.66699 0.166992 13.5 0.5 20.5s0.833008 13.833 1.5 20.5c8 81.334 40.5 155.834 97.5 223.5c57 67.667 144.167 101.5 261.5 101.5c10.667 0 21 -0.333008 31 -1s19.667 -1.33398 29 -2.00098c18 -2.66699 37.333 -7.16699 58 -13.5
c20.667 -6.33887 46 -15.1719 76 -26.5l-1 29v0z" />
    <glyph glyph-name="D" unicode="D" horiz-adv-x="834" 
d="M257 694c21.334 0 36.167 0.166992 44.5 0.5s15.5 0.5 21.5 0.5h1c0.666992 0 1 0.333008 1 1c6.66699 0 15.167 0.166992 25.5 0.5s28.833 0.5 55.5 0.5c104.667 0 183 -19.5 235 -58.5s88 -82.167 108 -129.5c14.667 -32.667 23.667 -64.167 27 -94.5
s5 -53.833 5 -70.5c0 -19.333 -2 -41.333 -6 -66s-11 -50 -21 -76c-20.667 -51.333 -57.667 -98.333 -111 -141s-133 -64 -239 -64c-8.66699 0 -16 0.166992 -22 0.5s-12 0.5 -18 0.5c-1.33301 0 -3 0.166992 -5 0.5s-4.33301 0.5 -7 0.5c-4 0 -8.33301 0.166992 -13 0.5
s-10 0.5 -16 0.5h-32.5h-33.5h-190v28h57h6c2 0 4.33301 0.333008 7 1c6 1.33301 11.667 5 17 11s8 17 8 33v548c0 16 -2.66699 27 -8 33s-11 9.66699 -17 11c-2.66699 0.666992 -5 1 -7 1h-6h-57v28h190v0zM254 641l-0.000976562 -588c14 -9.33301 31.833 -16.5 53.5 -21.5
s52.5 -7.5 92.5 -7.5c80 0 141 24.833 183 74.5s69 104.5 81 164.5c2.66699 13.333 4.66699 26.833 6 40.5s2 26.834 2 39.501c0 80.667 -14 143 -42 187s-58.667 76.333 -92 97c-30.667 19.333 -59.167 31.166 -85.5 35.499s-42.166 6.5 -47.499 6.5
c-20 0 -38.333 -0.666992 -55 -2s-33.334 -4 -50 -8c-7.33301 -2 -14.833 -4.5 -22.5 -7.5s-15.5 -6.5 -23.5 -10.5v0z" />
    <glyph glyph-name="E" unicode="E" horiz-adv-x="688" 
d="M254 380h45c83.333 0 133.5 5.83301 150.5 17.5s25.5 24.834 25.5 39.501v25h29v-192h-29v25c0 15.335 -8.5 28.668 -25.5 40c-17 11.333 -67.167 17 -150.5 17h-45v-279c0.00195312 -16 2.66895 -27 8 -33c5.33301 -6 11 -9.66699 17 -11c2.66699 -0.666992 5 -1 7 -1h6
h14c17.334 0 37.167 1 59.5 3s45.5 4.66699 69.5 8c42 7.33301 81 18 117 32s56.333 32 61 54l6 30h27l-33 -155h-546v28h57h6c2 0 4.33301 0.333008 7 1c6 1.33301 11.667 5 17 11s8 17 8 33v548c0 16 -2.66699 27 -8 33s-11 9.66699 -17 11c-2.66699 0.666992 -5 1 -7 1
h-6h-57v28h542l2 -140h-28l-2 52c-38.667 25.333 -77.5 41.666 -116.5 48.999s-77.5 11 -115.5 11h-57c-14 0 -23.833 -4.16699 -29.5 -12.5c-5.66895 -8.33398 -8.50195 -19.167 -8.5 -32.5v-241v0z" />
    <glyph glyph-name="F" unicode="F" horiz-adv-x="653" 
d="M254 380l45 -0.000976562c83.333 0 133.5 5.83301 150.5 17.5s25.5 24.834 25.5 39.501v25h29v-192h-29v25c0 15.335 -8.5 28.668 -25.5 40c-17 11.333 -67.167 17 -150.5 17h-45v-279c0.00195312 -16 2.66895 -27 8 -33c5.33301 -6 11 -9.66699 17 -11
c2.66699 -0.666992 5 -1 7 -1h6h57v-28h-282v28h57h6c2 0 4.33301 0.333008 7 1c6 1.33301 11.667 5 17 11s8 17 8 33v548c0 16 -2.66699 27 -8 33s-11 9.66699 -17 11c-2.66699 0.666992 -5 1 -7 1h-6h-57v28h542l2 -140h-28l-2 52c-44 30 -86.167 47.5 -126.5 52.5
s-75.5 7.5 -105.5 7.5h-28.5h-28.5c-2 0 -4.16699 -0.166992 -6.5 -0.5s-4.83301 -0.833008 -7.5 -1.5c-6 -1.33301 -11.5 -5 -16.5 -11s-7.5 -16.667 -7.5 -32v-241v0z" />
    <glyph glyph-name="G" unicode="G" horiz-adv-x="800" 
d="M672 517h-32.0059l-2 38c-10 39.333 -34.167 70 -72.5 92s-82.166 33 -131.499 33c-10 0 -26.5 -1.66699 -49.5 -5c-23 -3.33887 -47.833 -12.6719 -74.5 -28c-32.667 -20 -62.667 -53 -90 -99s-41 -113.667 -41 -203c0 -106 20.833 -184 62.5 -234
s87.5 -80.333 137.5 -91c8.66699 -2 17.334 -3.5 26.001 -4.5s17.334 -1.5 26.001 -1.5c10 0 21 0.833008 33 2.5s24.333 4.16699 37 7.5c28 8 53.667 21.5 77 40.5s35 45.167 35 78.5v126c0 16 -2.66699 27 -8 33s-11 9.66699 -17 11c-2.66699 0.666992 -5 1 -7 1h-6h-57
v28h282v-28h-57h-6c-2 0 -4.33301 -0.333008 -7 -1c-6 -1.33301 -11.667 -5 -17 -11s-8 -17 -8 -33v-177c-23.333 -26.667 -54 -48.667 -92 -66s-77.667 -28.666 -119 -33.999c-10 -2 -20.167 -3.33301 -30.5 -4s-20.5 -1 -30.5 -1c-111.333 0 -194.166 27.667 -248.499 83
s-89.166 116.333 -104.499 183c-3.33301 16 -5.83301 31.833 -7.5 47.5s-2.5 31.167 -2.5 46.5c0 94.667 32.333 178.5 97 251.5s154.334 109.5 269.001 109.5c16 0 33.167 -1 51.5 -3s36.833 -5.33301 55.5 -10c15.333 -3.33301 30.5 -7.33301 45.5 -12
s29.167 -10.334 42.5 -17.001l-1 28h34l8 -177v0z" />
    <glyph glyph-name="H" unicode="H" horiz-adv-x="846" 
d="M254 376h353v245c0 16 -2.66699 27 -8 33s-11 9.66699 -17 11c-2.66699 0.666992 -5 1 -7 1h-6h-57v28h282v-28h-57h-6c-2 0 -4.33301 -0.333008 -7 -1c-6 -1.33301 -11.667 -5 -17 -11s-8 -17 -8 -33v-548c0 -16 2.66699 -27 8 -33s11 -9.66699 17 -11
c2.66699 -0.666992 5 -1 7 -1h6h57v-28h-282v28h57h6c2 0 4.33301 0.333008 7 1c6 1.33301 11.667 5 17 11s8 17 8 33v275h-353v-275c0.00195312 -16 2.66895 -27 8 -33c5.33301 -6 11 -9.66699 17 -11c2.66699 -0.666992 5 -1 7 -1h6h57v-28h-282v28h57h6
c2 0 4.33301 0.333008 7 1c6 1.33301 11.667 5 17 11s8 17 8 33v548c0 16 -2.66699 27 -8 33s-11 9.66699 -17 11c-2.66699 0.666992 -5 1 -7 1h-6h-57v28h282v-28h-57h-6c-2 0 -4.33301 -0.333008 -7 -1c-6 -1.33301 -11.667 -5 -17 -11s-8 -17 -8 -33v-245v0z" />
    <glyph glyph-name="I" unicode="I" horiz-adv-x="401" 
d="M162 73v548c0 16 -2.66699 27 -8 33s-11 9.66699 -17 11c-2.66699 0.666992 -5 1 -7 1h-6h-57v28h282v-28h-57h-6c-2 0 -4.33301 -0.333008 -7 -1c-6 -1.33301 -11.667 -5 -17 -11s-8 -17 -8 -33v-548c0.00195312 -16 2.66895 -27 8 -33c5.33301 -6 11 -9.66699 17 -11
c2.66699 -0.666992 5 -1 7 -1h6h57v-28h-282v28h57h6c2 0 4.33301 0.333008 7 1c6 1.33301 11.667 5 17 11s8 17 8 33v0z" />
    <glyph glyph-name="J" unicode="J" horiz-adv-x="496" 
d="M349 621l0.00195312 -402.001c0 -93.333 -15.833 -163.833 -47.5 -211.5s-66.5 -80.167 -104.5 -97.5c-16 -8 -31.833 -13.5 -47.5 -16.5s-30.167 -4.5 -43.5 -4.5c-38.667 0 -68.167 9.66699 -88.5 29s-30.5 40.666 -30.5 63.999c0 2.66699 0.5 6 1.5 10
s2.5 7.66699 4.5 11c3.33301 6.66699 8.66602 12.834 15.999 18.501s17.666 8.5 30.999 8.5c14.667 0 27 -4.16699 37 -12.5s15 -20.833 15 -37.5v-6v-6c-0.666992 -1.33301 -1 -3 -1 -5v-6c0 -11.333 2.33301 -19.833 7 -25.5s9.66699 -9.16699 15 -10.5
c3.33398 -1.33301 6.66699 -2.16602 10 -2.49902s6 -0.5 8 -0.5h0.5h0.5c6.66699 0 14.5 1.16699 23.5 3.5s18.5 6.83301 28.5 13.5c18 12.667 34.667 36 50 70s23 85.667 23 155v461c0 16 -2.66699 27 -8 33s-11 9.66699 -17 11c-2.66699 0.666992 -5 1 -7 1h-6h-57v28h282
v-28h-57h-6c-2 0 -4.33301 -0.333008 -7 -1c-6 -1.33301 -11.667 -5 -17 -11s-8 -17 -8 -33v0z" />
    <glyph glyph-name="K" unicode="K" horiz-adv-x="781" 
d="M162 73v548c0 16 -2.66699 27 -8 33s-11 9.66699 -17 11c-2.66699 0.666992 -5 1 -7 1h-6h-57v28h282v-28h-57h-6c-2 0 -4.33301 -0.333008 -7 -1c-6 -1.33301 -11.667 -5 -17 -11s-8 -17 -8 -33v-548c0.00195312 -16 2.66895 -27 8 -33c5.33301 -6 11 -9.66699 17 -11
c2.66699 -0.666992 5 -1 7 -1h6h57v-28h-282v28h57h6c2 0 4.33301 0.333008 7 1c6 1.33301 11.667 5 17 11s8 17 8 33v0zM358 407l293.001 -325.998c1.33301 -1.33301 2.66602 -2.83301 3.99902 -4.5s3 -3.16699 5 -4.5c14.667 -15.333 30.167 -26.333 46.5 -33
s36.5 -10.334 60.5 -11.001v-28h-161l-329 367l149 143c5.33691 4.66699 10.6699 9.66699 16 15c5.33301 5.33301 11 10.666 17 15.999c1.33301 1.33301 3 2.83301 5 4.5s3.66699 3.5 5 5.5c19.333 18 36.333 35.333 51 52s22 30.667 22 42c0 6 -2.33301 11 -7 15
s-11.667 6 -21 6h-49v28h262v-28h-24c-12 0 -24.5 -3.33301 -37.5 -10s-26.5 -14.667 -40.5 -24c-6 -5.33301 -12.333 -10.5 -19 -15.5s-13 -10.167 -19 -15.5c-4.66699 -4 -9.16699 -7.83301 -13.5 -11.5s-8.5 -7.16699 -12.5 -10.5l-203 -172v0z" />
    <glyph glyph-name="L" unicode="L" horiz-adv-x="657" 
d="M162 73l-0.000976562 548c0 16 -2.66699 27 -8 33s-11 9.66699 -17 11c-2.66699 0.666992 -5 1 -7 1h-6h-57v28h282v-28h-57h-6c-2 0 -4.33301 -0.333008 -7 -1c-6 -1.33301 -11.667 -5 -17 -11s-8 -17 -8 -33v-548c0 -20.667 4 -33 12 -37s20 -6.66699 36 -8h3h2
c90.667 3.33301 164.334 14.5 221.001 33.5s85 42.833 85 71.5v23h30l-11 -156h-565v28h57h6c2 0 4.33301 0.333008 7 1c6 1.33301 11.667 5 17 11s8 17 8 33v0z" />
    <glyph glyph-name="M" unicode="M" horiz-adv-x="983" 
d="M485 120l-25.998 0.000976562l-266 501v-384c0 -59.333 3.16699 -103.5 9.5 -132.5s13.166 -50.167 20.499 -63.5c1.33301 -2.66699 2.66602 -5 3.99902 -7l4 -6h48v-28h-212v28h48c1.33301 2.66699 2.83301 5.5 4.5 8.5s3.5 6.5 5.5 10.5
c8 16.667 15.167 43.167 21.5 79.5s9.5 90.166 9.5 161.499v333c0 16 -2.66699 27 -8 33s-11 9.66699 -17 11c-2.66699 0.666992 -5 1 -7 1h-6h-51v28h188l247 -473l247 473h182v-28h-57h-6c-2 0 -4.33301 -0.333008 -7 -1c-6 -1.33301 -11.667 -5 -17 -11s-8 -17 -8 -33
v-548c0 -16 2.66699 -27 8 -33s11 -9.66699 17 -11c2.66699 -0.666992 5 -1 7 -1h6h57v-28h-282v28h57h6c2 0 4.33301 0.333008 7 1c6 1.33301 11.667 5 17 11s8 17 8 33v549l-259 -502v0z" />
    <glyph glyph-name="N" unicode="N" horiz-adv-x="696" 
d="M696 694l0.000976562 -28.0029h-54c-10.667 -8.66699 -19 -22.667 -25 -42s-10.667 -39.333 -14 -60c-2.66699 -20 -4.33398 -38.833 -5.00098 -56.5s-1 -31.5 -1 -41.5v-480h-36l-433 550v-312c0 -14 0.166992 -26 0.5 -36s0.833008 -19.667 1.5 -29
c0 -4 0.166992 -8.33301 0.5 -13s0.5 -9.66699 0.5 -15c0.668945 -20.667 2.33594 -37.667 5.00098 -51c2.66699 -13.333 5.66699 -24 9 -32c2 -6 4.16699 -10.5 6.5 -13.5s4.16602 -5.16699 5.49902 -6.5h54v-28h-210v28h51c6 6 11 12.833 15 20.5
s7.66699 19.834 11 36.501c0.666992 2 1.16699 4.33301 1.5 7s0.833008 5.33398 1.5 8.00098s1.5 7 2.5 13s1.83301 13.333 2.5 22c1.33301 11.333 2.66602 24.5 3.99902 39.5s2 31.5 2 49.5v362l-92 108h125l436 -563v362c0 63.333 -4.16699 106.333 -12.5 129
c-8.33496 22.6719 -18.168 37.3389 -29.499 44.001h-50v28h227v0z" />
    <glyph glyph-name="O" unicode="O" horiz-adv-x="845" 
d="M70 349c0 20 2.00195 42.333 6.00195 67s11.333 49.667 22 75c10.667 27.333 25.167 53.833 43.5 79.5s41.166 48.834 68.499 69.5c7.33301 5.33301 14.833 10.333 22.5 15s15.167 9 22.5 13c34 17.333 66.667 28.333 98 33s57.333 7 78 7c50 0 93 -6.5 129 -19.5
s66.667 -29.167 92 -48.5c27.333 -20.667 50.166 -43.834 68.499 -69.501s32.833 -52.167 43.5 -79.5c10 -25.333 17.167 -50.333 21.5 -75s6.5 -47 6.5 -67c0 -66.667 -13.333 -125 -40 -175s-60 -90 -100 -120c-31.333 -24 -65.833 -41.167 -103.5 -51.5
s-76.834 -15.5 -117.5 -15.5c-18.667 0 -42.834 1.83301 -72.5 5.5c-29.667 3.66699 -60.167 12.834 -91.5 27.501c-10 4 -19.833 8.83301 -29.5 14.5s-19.167 12.167 -28.5 19.5c-39.333 30 -72 70 -98 120s-39.667 108.333 -41 175v0zM179.002 349
c0 -12.667 0.498047 -25.667 1.49805 -39s2.5 -26.666 4.5 -39.999c10.667 -64 35.167 -122.667 73.5 -176s95.833 -80 172.5 -80s134.167 26.667 172.5 80s62.833 112 73.5 176c2 13.334 3.5 26.667 4.5 40s1.5 26.333 1.5 39c0 92 -22.167 170.167 -66.5 234.5
s-106.166 96.5 -185.499 96.5s-141.166 -32.167 -185.499 -96.5c-44.333 -64.334 -66.5 -142.501 -66.5 -234.501v0z" />
    <glyph glyph-name="P" unicode="P" horiz-adv-x="673" 
d="M249 695c9.33398 0 17.168 0.166992 23.5 0.5c6.33594 0.333008 12.1689 0.5 17.5 0.5h3.5c1 0 2.16699 0.333008 3.5 1c7.33301 0 15.5 0.166992 24.5 0.5s21.167 0.5 36.5 0.5c87.333 0 155.166 -18.833 203.499 -56.5s72.5 -89.5 72.5 -155.5
c0 -66.667 -26.5 -118.667 -79.5 -156s-122.5 -56 -208.5 -56c-5.33301 0 -11.166 0.166992 -17.499 0.5s-12.5 0.833008 -18.5 1.5s-11.667 1.16699 -17 1.5s-10.333 0.833008 -15 1.5c-4 0.666992 -8 1.16699 -12 1.5s-7.66699 0.833008 -11 1.5v-209
c0 -16 2.66699 -27 8 -33s11 -9.66699 17 -11c2.66699 -0.666992 5 -1 7 -1h6h57v-28h-282v28h57h6c2 0 4.33301 0.333008 7 1c6 1.33301 11.667 5 17 11s8 17 8 33v549c0 16 -2.66699 27 -8 33s-11 9.66699 -17 11c-2.66699 0.666992 -5 1 -7 1h-6h-58v28h182v0z
M255.001 643l-0.000976562 -331c11.333 -2.66699 25 -4.5 41 -5.5s34 -1.5 54 -1.5c56.667 0 100 18 130 54s45 78.333 45 127c0 56.667 -15.5 101.5 -46.5 134.5s-73.167 49.5 -126.5 49.5c-22.667 0 -41.667 -2.66699 -57 -8
c-15.333 -5.34375 -28.666 -11.6768 -39.999 -19v0z" />
    <glyph glyph-name="Q" unicode="Q" horiz-adv-x="845" 
d="M666 -95l25.001 -18.002c-5.34375 -7.33301 -10.6768 -14.166 -16 -20.499c-5.34375 -6.33301 -10.6768 -11.833 -16 -16.5c-16.667 -16.667 -33.334 -27.5 -50.001 -32.5s-31.667 -7.5 -45 -7.5c-23.334 0 -44.667 2.66699 -63.999 8
c-19.333 5.33301 -35.666 11.333 -48.999 18c-6.66992 2.66699 -12.3369 5.5 -17 8.5c-4.66699 3 -9 5.5 -13 7.5c-3.33301 2 -7.66602 4.5 -12.999 7.5s-11.333 6.16699 -18 9.5c-8 4 -16.833 7.66699 -26.5 11s-19.5 6 -29.5 8c-2.66699 0 -5.5 0.166992 -8.5 0.5
s-5.83301 0.5 -8.5 0.5h-6.5c-2.33301 0 -4.5 -0.333008 -6.5 -1h-6.5h-6.5l-6 -1v22c1.33789 0.666992 2.6709 1 4 1h4c8.66699 0 17.667 0.666992 27 2s19 3.33301 29 6c24 6 46.333 15 67 27s32.667 26 36 42l-21 -1c-40 0.666992 -74.667 5 -104 13
s-53.666 17 -72.999 27c-10 5.33301 -18.833 10.333 -26.5 15s-13.834 9 -18.501 13c-39.333 29.333 -70.5 66.166 -93.5 110.499s-37.167 90.166 -42.5 137.499c-1.33301 8 -2.16602 15.833 -2.49902 23.5s-0.5 15.5 -0.5 23.5c0 98.667 32.167 183.167 96.5 253.5
s152.5 105.5 264.5 105.5c92.667 0 164.334 -20.667 215 -62c50.667 -41.333 87 -87 109 -137c14 -30.667 23.667 -60.167 29 -88.5s8 -52.166 8 -71.499c0 -16.667 -2.66699 -40.667 -8 -72s-16 -64 -32 -98c-20 -43.333 -50.667 -83.666 -92 -120.999
s-98.333 -59.666 -171 -66.999c-2 -8 -5.33301 -16.333 -10 -25c-4.66895 -8.66699 -12.3359 -17.334 -23.001 -26.001c-6.66699 -5.33301 -15 -11 -25 -17s-21.667 -11.667 -35 -17c5.33496 0.666992 10.668 1.16699 16 1.5c5.33301 0.333008 10.333 0.5 15 0.5
c6.66699 0 13.334 -0.333008 20.001 -1s13 -1.66699 19 -3c12 -2 24.167 -5 36.5 -9s25.833 -9.33301 40.5 -16c11.333 -5.33301 21.833 -9.66602 31.5 -12.999c9.6709 -3.33301 18.8379 -5 27.5 -5c11.333 0 21.666 3.66699 30.999 11s17.666 15.333 24.999 24
c1.33301 1.33301 2.66602 2.83301 3.99902 4.5s2.66602 3.5 3.99902 5.5v-1zM179.001 348.998c0 -94.667 22.1689 -174.167 66.502 -238.5s106.166 -96.5 185.499 -96.5c76 0 133.333 26.667 172 80c38.668 53.333 63.335 112 74 176c2 13.334 3.5 26.667 4.5 40
s1.5 26.333 1.5 39c0 92 -22.333 170.167 -67 234.5s-106.334 96.5 -185.001 96.5c-80 0 -142 -32.333 -186 -97s-66 -142.667 -66 -234v0z" />
    <glyph glyph-name="R" unicode="R" horiz-adv-x="744" 
d="M254 340l0.00585938 -267c0.00195312 -16 2.66895 -27 8 -33c5.33301 -6 11 -9.66699 17 -11c2.66699 -0.666992 5 -1 7 -1h6h57v-28h-282v28h57h6c2 0 4.33301 0.333008 7 1c6 1.33301 11.667 5 17 11s8 17 8 33v548c0 16 -2.66699 27 -8 33s-11 9.66699 -17 11
c-2.66699 0.666992 -5 1 -7 1h-6h-57v28h129c18 0 34.5 0.666992 49.5 2s28.833 3 41.5 5c5.33594 0.677734 10.1689 1.34473 14.5 2.00098c4.33301 0.666992 8.83301 1.33398 13.5 2c8.66699 0.677734 17.167 1.34473 25.5 2.00098c8.33301 0.666992 16.833 1 25.5 1
c89.333 0 154.5 -14 195.5 -42s66.833 -58.667 77.5 -92c3.33301 -9.33301 5.66602 -18.333 6.99902 -27s2 -17.334 2 -26.001c0 -58 -24.833 -102.833 -74.5 -134.5s-105.5 -47.5 -167.5 -47.5h-5.5c-1.66699 0 -3.16699 0.333008 -4.5 1h-5.5h-5.5
c67.334 -21.333 116.167 -51 146.5 -89s55.166 -77.667 74.499 -119c1.33301 -3.33398 2.66602 -6.33398 3.99902 -9l4 -8c1.33301 -2.66699 2.66602 -5.5 3.99902 -8.5s2.66602 -5.83301 3.99902 -8.5c8 -16.667 16.5 -32 25.5 -46s18.833 -21 29.5 -21
c9.33301 0 15.666 3.33301 18.999 10s5.33301 14 6 22c0 2.66699 0.166992 5.16699 0.5 7.5s0.5 4.83301 0.5 7.5v0.5v1.5h27v-15v-4v-4c-2 -18 -10.333 -34.167 -25 -48.5s-35.667 -21.5 -63 -21.5c-36.667 0 -67.5 16 -92.5 48s-46.833 67.667 -65.5 107
c-2 4.66699 -4.16699 9.33398 -6.5 14c-2.33301 4.66699 -4.5 9.33398 -6.5 14c-4 9.33301 -8 18.166 -12 26.499s-8 16.5 -12 24.5c-17.333 35.333 -38.5 62.5 -63.5 81.5s-68.167 31.5 -129.5 37.5v0zM254.006 648l-0.00195312 -279.999
c4.66699 -0.671875 10.5 -1.33887 17.5 -2c7 -0.671875 14.5 -1.33887 22.5 -2c3.33301 -0.666992 6.83301 -1.16699 10.5 -1.5s7.16699 -0.5 10.5 -0.5c11.333 -1.33301 22.333 -2.33301 33 -3s19.334 -1 26.001 -1c57.333 0 100.166 16.333 128.499 49s42.5 71 42.5 115
v2.5v3.5c-1.33496 37.333 -14.168 71.666 -38.499 102.999c-24.333 31.333 -56.833 47 -97.5 47h-6.5h-7.5c-19.333 0 -41.166 -1.16699 -65.499 -3.5c-24.333 -2.33887 -49.5 -11.1719 -75.5 -26.5v0z" />
    <glyph glyph-name="S" unicode="S" horiz-adv-x="591" 
d="M507 517l-35 0.00390625l-1 30c0 6.66699 -3 15.167 -9 25.5s-14.333 21.166 -25 32.499c-16.667 17.333 -37.667 33.5 -63 48.5s-51.333 22.833 -78 23.5h-1.5h-1.5c-42 0 -73.167 -8.66699 -93.5 -26c-20.333 -17.335 -32.833 -36.668 -37.5 -58
c-1.33789 -4 -2.1709 -7.83301 -2.49902 -11.5c-0.333008 -3.66699 -0.5 -7.5 -0.5 -11.5c0 -14.667 3.5 -27.334 10.5 -38.001s14.833 -19.334 23.5 -26.001c4.66699 -4 9 -7.33301 13 -10s7.66699 -5 11 -7l207 -124c31.333 -18.667 58.333 -40.667 81 -66s34 -61 34 -107
c0 -52 -17.667 -99.167 -53 -141.5s-92.333 -63.5 -171 -63.5c-14 0 -38.167 2 -72.5 6s-77.5 17.333 -129.5 40l2 -33h-35l-13 181h35l3 -33c14.667 -25.333 33.167 -47.5 55.5 -66.5s45.5 -33.833 69.5 -44.5c14.667 -6.66699 29 -11.667 43 -15s27.333 -5 40 -5
c43.333 0 79.5 13.333 108.5 40s43.5 60 43.5 100c0 28 -7.16699 49 -21.5 63s-30.166 26.333 -47.499 37l-179 108l-20 12c-6.66699 4 -13 8 -19 12c-28 18.667 -51.333 38.167 -70 58.5s-28 46.5 -28 78.5c0 6.66699 0.333008 13.5 1 20.5s1.66699 13.833 3 20.5
c7.33301 35.333 26.666 67.666 57.999 96.999s80.666 44 147.999 44c36.667 0 69.5 -4.16699 98.5 -12.5s55.5 -18.5 79.5 -30.5l-1 29h34l6 -177v0z" />
    <glyph glyph-name="T" unicode="T" horiz-adv-x="650" 
d="M184 0v28.001h57h6c2 0 4.33301 0.333008 7 1c6 1.33301 11.667 5 17 11s8 17 8 33v574c0 6 -2.66699 10.333 -8 13c-5.33301 2.68652 -11.333 4.35352 -18 5c-4 0.666992 -7.66699 1 -11 1h-9c-6.66699 0 -13.334 -0.333008 -20.001 -1s-13.334 -1.66699 -20.001 -3
c-25.333 -4.66699 -49.666 -13.834 -72.999 -27.501s-41.666 -31.5 -54.999 -53.5v-43h-34v156h588v-156h-34v43c-12 20 -28.667 36.5 -50 49.5c-21.334 13 -43.334 22.5 -66 28.5c-8.66699 2.66699 -17.5 4.5 -26.5 5.5s-17.5 1.5 -25.5 1.5
c-16.667 0 -28.5 -1.83301 -35.5 -5.5s-10.5 -8.16699 -10.5 -13.5v-574c0 -16 2.66699 -27 8 -33s11 -9.66699 17 -11c2.66699 -0.666992 5 -1 7 -1h6h57v-28h-282v0z" />
    <glyph glyph-name="U" unicode="U" horiz-adv-x="849" 
d="M162 235l-0.00292969 386c0 16 -2.66699 27 -8 33s-11 9.66699 -17 11c-2.66699 0.666992 -5 1 -7 1h-6h-57v28h282v-28h-57h-6c-2 0 -4.33301 -0.333008 -7 -1c-6 -1.33301 -11.667 -5 -17 -11s-8 -17 -8 -33v-403c0 -10 1 -23.333 3 -40s6.66699 -34 14 -52
c10 -27.333 28.167 -52.333 54.5 -75s65.833 -34 118.5 -34c69.333 0 124 21.5 164 64.5s60 96.167 60 159.5v236c0 47.333 -2.16699 83.833 -6.5 109.5c-4.34375 25.667 -9.17676 44.5 -14.5 56.5c-3.34277 7.33301 -6.67578 12.666 -9.99902 15.999
c-3.33301 3.33301 -6 5.66602 -8 6.99902h-55v28h223v-28h-53c-2 -1.33301 -4.83301 -4 -8.5 -8s-7.5 -10.667 -11.5 -20c-5.33887 -12.667 -10.1719 -31.5 -14.5 -56.5c-4.33301 -25 -6.5 -59.5 -6.5 -103.5v-233c0 -88.667 -22.333 -151.667 -67 -189
s-94 -59.333 -148 -66c-7.33301 -1.33301 -14.666 -2.16602 -21.999 -2.49902s-14.666 -0.5 -21.999 -0.5c-80 0 -139.5 13.333 -178.5 40s-65.833 56.334 -80.5 89.001c-11.333 24.667 -18 48 -20 70s-3 38.333 -3 49v0z" />
    <glyph glyph-name="V" unicode="V" horiz-adv-x="764" 
d="M743 694l0.00292969 -27.9961h-9h-9h-9.5h-9.5c-0.666992 -0.666992 -1.33398 -1.16699 -2.00098 -1.5s-1 -0.833008 -1 -1.5c-14.667 -11.333 -34.167 -41.5 -58.5 -90.5s-73.5 -159.5 -147.5 -331.5l-110 -255h-29l-251 627c-1.33301 2.66699 -3 6.16699 -5 10.5
s-4.66699 9.16602 -8 14.499c-5.33301 6.66699 -13 13 -23 19s-23.333 9 -40 9h-10v28h248v-28h-41c-14.667 0 -23.834 -2.83301 -27.501 -8.5s-5.5 -12.5 -5.5 -20.5c0 -2.66699 0.5 -5.33398 1.5 -8.00098s2.16699 -5.33398 3.5 -8.00098v-0.5v-0.5
c0.666992 -1.33301 1.16699 -2.5 1.5 -3.5s0.833008 -2.16699 1.5 -3.5l203 -505l150 352c1.33301 2.66699 4.66602 11 9.99902 25c5.33301 14.001 11.333 29.334 18 46c0.666992 2 1.16699 3.66699 1.5 5s0.833008 3 1.5 5c6.66699 17.333 12.5 33.666 17.5 48.999
s7.5 25.333 7.5 30c0 12.667 -1.5 22.167 -4.5 28.5s-6.16699 10.833 -9.5 13.5c-2.66699 2 -5.16699 3.16699 -7.5 3.5c-2.35156 0.333008 -4.18457 0.5 -5.5 0.5h-47v28h205v0z" />
    <glyph glyph-name="W" unicode="W" horiz-adv-x="1086" 
d="M378 119l144.002 360.998l-44 133c-4.66699 15.333 -12.5 28 -23.5 38s-25.5 15 -43.5 15h-33v28h276v-28h-58c-10.667 0 -18.334 -2.66699 -23.001 -8c-4.66699 -5.34375 -7 -11.6768 -7 -19c0 -1.35254 0.166992 -3.18555 0.5 -5.49902
c0.333008 -2.33301 0.833008 -4.83301 1.5 -7.5c0.666992 -0.666992 1 -1.5 1 -2.5s0.333008 -1.83301 1 -2.5c0 -2 0.333008 -3.66699 1 -5s1 -2.33301 1 -3l167 -494l119 310c0.666992 1.33984 1.16699 2.67285 1.5 4c0.333008 1.33984 0.833008 2.67285 1.5 4
c0 0.666992 0.166992 1.16699 0.5 1.5s0.5 0.833008 0.5 1.5c1.33301 4.66699 3.16602 10.667 5.49902 18s6.5 19.333 12.5 36c2 4.66699 4.33301 11.167 7 19.5c2.69434 8.33301 5.36133 17.5 8.00098 27.5c1.33301 5.33301 2.83301 10.833 4.5 16.5s3.16699 11.5 4.5 17.5
c2.66699 12.668 5 24.835 7 36.5c2 11.6719 3 21.8389 3 30.501c0 8 -2.5 14 -7.5 18s-13.167 6 -24.5 6h-50v28h233v-28h-48c-8 -8.66699 -23 -30.167 -45 -64.5s-51.333 -98.833 -88 -193.5l-164 -422h-28l-156 445l-175 -445h-29l-216 627
c-6 17.333 -14.833 30.5 -26.5 39.5s-26.834 13.5 -45.501 13.5h-23v28h267v-28h-49c-14 0 -23.333 -2.66699 -28 -8c-4.66699 -5.34375 -7 -11.6768 -7 -19v-3.5c0 -1 0.333008 -2.16699 1 -3.5c0 -2 0.333008 -3.83301 1 -5.5c0.667969 -1.66699 1.33496 -3.5 2 -5.5
c0 -1.35254 0.333008 -2.68555 1 -4c0.666992 -1.35254 1 -2.68555 1 -4l168 -494v0z" />
    <glyph glyph-name="X" unicode="X" horiz-adv-x="788" 
d="M281 616l138.005 -206.997c11.335 12.667 21.168 24.5 29.5 35.5c8.33496 11 16.168 21.5 23.5 31.5c2 2.66699 3.83301 5.16699 5.5 7.5s3.5 4.5 5.5 6.5c6 8.66699 12.167 17.667 18.5 27s13.166 19.333 20.499 30c13.333 19.333 25.166 37.833 35.499 55.5
c10.333 17.6719 15.5 31.8389 15.5 42.501c0 6.66699 -2.33301 11.5 -7 14.5s-9.66699 4.83301 -15 5.5c-2.66699 0.666992 -5.33398 1 -8.00098 1h-7h-48v28h248v-28h-40c-15.3359 -8.66699 -31.6689 -20.667 -49 -36c-17.3359 -15.333 -34.6689 -32.333 -52 -51
c-11.333 -12 -22.5 -24.333 -33.5 -37s-21.5 -25.334 -31.5 -38.001c-18 -22 -35 -43.667 -51 -65s-30 -40.333 -42 -57l166 -246c12.667 -18.667 23.667 -34.667 33 -48s18.666 -24 27.999 -32c10 -10 20.5 -17.167 31.5 -21.5s24.5 -6.5 40.5 -6.5h18v-28h-284v28h57
c5.33301 0 10 1.5 14 4.5s6.33301 6.5 7 10.5c0 1.33301 0.166992 2.33301 0.5 3s0.5 1.66699 0.5 3c0 0.666992 -0.166992 1.5 -0.5 2.5s-0.5 1.83301 -0.5 2.5c-0.666992 2 -1.33398 3.83301 -2.00098 5.5s-1.66699 3.16699 -3 4.5
c-0.666992 1.33301 -1.66699 2.83301 -3 4.5c-1.3418 1.66699 -2.6748 3.5 -4 5.5l-157 232c-18 -20.667 -33.833 -40 -47.5 -58s-26.5 -35.667 -38.5 -53l-8 -12l-8 -12c-4 -6 -8.16699 -12.333 -12.5 -19s-8.83301 -13.334 -13.5 -20.001
c-16.667 -24.667 -28.334 -43 -35.001 -55s-10 -21.667 -10 -29c0 -6 1.33301 -10.5 4 -13.5s5.66699 -4.83301 9 -5.5c2 -0.666992 3.83301 -1 5.5 -1h4.5h0.5h0.5h54v-28h-236v28h41c16.667 8.66699 43.834 31.667 81.501 69s101.167 115.666 190.5 234.999l-167 249
c-2.66699 4 -5.5 8.16699 -8.5 12.5s-5.83301 8.16602 -8.5 11.499c-12.667 17.333 -26.667 31.333 -42 42s-36.666 17 -63.999 19v28h276v-28h-63c-6 0 -10.5 -1.16699 -13.5 -3.5c-3 -2.35352 -4.83301 -5.18652 -5.5 -8.5c-0.666992 -0.666992 -1 -1.5 -1 -2.5v-2.5
c0 -1.35352 0.166992 -2.68652 0.5 -4c0.333008 -1.35254 0.833008 -2.68555 1.5 -3.99902c0.666992 -2.66699 1.66699 -5.33398 3 -8.00098s3 -5 5 -7c1.33398 -2 2.66699 -3.83301 3.99902 -5.5c1.33301 -1.66699 2.33301 -3.16699 3 -4.5v0z" />
    <glyph glyph-name="Y" unicode="Y" horiz-adv-x="744" 
d="M321 280l-192 327.002c-0.666992 0.666992 -1.16699 1.5 -1.5 2.5s-0.833008 1.83301 -1.5 2.5c-0.666992 1.33301 -1.5 2.83301 -2.5 4.5s-1.83301 3.16699 -2.5 4.5c-6 10.6719 -15.5 20.3389 -28.5 29.001c-13 8.66699 -36.833 14 -71.5 16v28h271v-28h-57
c-1.33301 0 -2.83301 -0.166992 -4.5 -0.5s-3.5 -0.833008 -5.5 -1.5c-3.33398 -0.666992 -6.16699 -2.16699 -8.5 -4.5s-3.5 -5.83301 -3.5 -10.5c0 -5.33301 0.5 -9.33301 1.5 -12s2.5 -5.33398 4.5 -8.00098c0 -0.666992 0.166992 -1.16699 0.5 -1.5l1.5 -1.5l181 -307
l83 129c4.66699 7.33496 10 16.168 16 26.5c6.00391 10.333 12.3369 21.833 19 34.5c3.33301 6 6.5 12.167 9.5 18.5s5.83301 12.5 8.5 18.5c9.33301 18.6689 17 36.8359 23 54.5c6 17.6689 9 31.8359 9 42.5c0 0.666992 -0.166992 2.16699 -0.5 4.5
c-0.350586 2.33301 -1.18359 4.5 -2.5 6.5c-1.33301 3.33301 -3.83301 6.16602 -7.5 8.49902s-9.16699 3.5 -16.5 3.5h-56v28h236v-28h-32c-5.34375 0 -10.1768 -0.333008 -14.5 -1c-4.33301 -0.666992 -8.5 -2 -12.5 -4c-11.333 -6.66699 -25.5 -23.334 -42.5 -50.001
s-47.5 -74 -91.5 -142l-117 -181v-215c0 -16 2.66699 -27 8 -33s11 -9.66699 17 -11c2.66699 -0.666992 5 -1 7 -1h6h57v-28h-282v28h57h6c2 0 4.33301 0.333008 7 1c6 1.33301 11.667 5 17 11s8 17 8 33v207v0z" />
    <glyph glyph-name="Z" unicode="Z" horiz-adv-x="650" 
d="M598 144l-21 -144.002h-510v28l404 638h-101c-52 0 -93.667 -4 -125 -12c-31.334 -8 -55.667 -16.667 -73 -26c-12 -6.66699 -21.167 -13.167 -27.5 -19.5c-6.33301 -6.33594 -10.833 -11.1689 -13.5 -14.5l-5 -44h-31l12 144h470v-28l-403 -638h93
c13.334 0 33.167 1.16699 59.5 3.5s53.833 5.83301 82.5 10.5c37.333 6.66699 72 15.334 104 26.001s49.333 24.334 52 41.001l6 35h27v0z" />
    <glyph glyph-name="bracketleft" unicode="[" horiz-adv-x="417" 
d="M319 728v-23h-91h-6c-2 0 -4.33301 -0.333008 -7 -1c-6 -1.33301 -11.667 -5 -17 -11s-8 -17 -8 -33v-752c0 -15.333 2.66699 -26 8 -32s11 -9.66699 17 -11c2.66699 -0.666992 5 -1 7 -1h6l91 -1v-23h-221v888h221v0z" />
    <glyph glyph-name="backslash" unicode="\" horiz-adv-x="1007" 
d="M853 -160l-755 888h56l755 -888h-56v0z" />
    <glyph glyph-name="bracketright" unicode="]" horiz-adv-x="417" 
d="M98 -160v23h90c2 0.666992 4 1 6 1s4.33301 0.333008 7 1c6 1.33301 11.667 5 17 11s8 17 8 33v751c0 16 -2.66699 27 -8 33s-11 9.66699 -17 11c-2.66699 0.666992 -5 1 -7 1h-6h-90v23h221v-888h-221v0z" />
    <glyph glyph-name="asciicircum" unicode="^" horiz-adv-x="364" 
d="M182 616l-81 -81h-84l165 165l165 -165h-84l-81 81v0z" />
    <glyph glyph-name="underscore" unicode="_" horiz-adv-x="580" 
d="M0 -196v48h580v-48h-580v0z" />
    <glyph glyph-name="grave" unicode="`" horiz-adv-x="340" 
d="M226 543l-115 140.001c-8.66699 10.667 -15 19.167 -19 25.5s-6.66699 12.166 -8 17.499v2.5v3.5c0 12.6719 3.83301 23.3389 11.5 32c7.66699 8.66699 16.5 13 26.5 13c16 0 28 -4 36 -12s14 -17 18 -27c0.666992 -2.66699 1.5 -5.16699 2.5 -7.5
s1.83301 -4.83301 2.5 -7.5l64 -169l-19 -11v0z" />
    <glyph glyph-name="a" unicode="a" horiz-adv-x="489" 
d="M321 276l-0.00292969 41.998c0 7.33301 -0.5 16.5 -1.5 27.5s-3.16699 22.5 -6.5 34.5c-6 18.667 -17 35.667 -33 51s-40.667 23 -74 23c-16.667 0 -29.667 -2.5 -39 -7.5s-14 -12.167 -14 -21.5c0 -2 0.166992 -3.66699 0.5 -5s0.5 -2.66602 0.5 -3.99902
s0.166992 -2.5 0.5 -3.5s0.5 -2.16699 0.5 -3.5c0.666992 -2.67285 1.33398 -5.83984 2 -9.5c0.666992 -3.66699 1 -8.16699 1 -13.5c0 -16 -4.16699 -27.833 -12.5 -35.5s-19.166 -11.5 -32.499 -11.5s-23.833 4.66699 -31.5 14c-7.66699 9.33398 -11.5 20.667 -11.5 34
c0 21.333 11.5 41 34.5 59s57.5 27 103.5 27c6.66797 0 13.335 -0.166992 20.001 -0.5c6.66797 -0.333008 13.335 -1.16602 20.001 -2.49902c37.333 -5.33301 71.5 -19.5 102.5 -42.5s46.5 -59.5 46.5 -109.5v-251v-4.5v-5.5c0.666992 -7.33301 2.33398 -14 5.00098 -20
s7.33398 -9 14.001 -9c8 0 14.5 2.33301 19.5 7s9.16699 10 12.5 16c2 2.66699 3.66699 5.5 5 8.5s2.33301 5.5 3 7.5l22 -9c-1.33301 -4 -2.83301 -8 -4.5 -12c-1.67383 -4 -3.84082 -8.33301 -6.5 -13c-6 -10.667 -15 -20.5 -27 -29.5s-28 -13.5 -48 -13.5
c-22.667 0 -39.5 7.16699 -50.5 21.5s-17.5 30.166 -19.5 47.499v5.5v4.5v2v2v1v2c-36.667 -40 -69 -64.333 -97 -73s-51.667 -13 -71 -13c-38.667 0 -67 10.167 -85 30.5s-27 42.833 -27 67.5c0 58.667 28.167 100.834 84.5 126.501s118.166 45.5 185.499 59.5
c2 0.666992 3.66699 1.16699 5 1.5c1.33789 0.333008 2.6709 0.5 3.99902 0.5v0zM320.997 104.998l0.000976562 149.002c-56.667 -10.667 -102.834 -27.334 -138.501 -50.001s-53.5 -56 -53.5 -100c0 -2.66699 0.166992 -5.33398 0.5 -8.00098s0.5 -5.66699 0.5 -9
c2.66699 -14.667 9.33398 -28.167 20.001 -40.5s26.334 -18.5 47 -18.5c23.333 0 45.666 7.83301 66.999 23.5s40.333 33.5 57 53.5v0z" />
    <glyph glyph-name="b" unicode="b" 
d="M148 39l-25 -50.002h-22v687c0 6.66699 -3.83301 11.5 -11.5 14.5s-16.167 4.83301 -25.5 5.5c-4.66699 0.666992 -9.16699 1 -13.5 1h-11.5h-8v19c17.333 2 32.333 4.33301 45 7s25 5.66699 37 9c9.33301 2.66699 19.166 6 29.499 10s21.833 8.66699 34.5 14v-310
c2.66699 1.33301 6.16699 3 10.5 5s9.5 4.33301 15.5 7c10 3.34082 22.667 6.67383 38 10c15.333 3.33301 33 5 53 5c70.667 0 124.334 -21.167 161.001 -63.5s58 -88.833 64 -139.5c0.666992 -5.33301 1.16699 -10.666 1.5 -15.999
c0.333008 -5.33398 0.5 -10.667 0.5 -15.999c0 -64.667 -15.667 -115.5 -47 -152.5s-65.666 -63.167 -102.999 -78.5c-15.333 -5.33301 -30.333 -9.5 -45 -12.5s-28.334 -4.5 -41 -4.5c-21.333 0 -39.833 2 -55.5 6s-28.167 8.66699 -37.5 14
c-6 2.66699 -10.833 5.33398 -14.5 8.00098s-6.83398 5 -9.50098 7c-1.33301 0.666992 -2.5 1.5 -3.5 2.5l-2.5 2.5v0h-1c-1.33301 1.33301 -3 2.66602 -5 3.99902s-4.66699 3 -8 5v0zM177 423.998l0.00195312 -310.998c0 -27.333 8.66699 -49.333 26 -66
s36.333 -27.667 57 -33c4.66699 -0.666992 9.16699 -1.33398 13.5 -2.00098s8.5 -1 12.5 -1c41.333 0 76.333 20.667 105 62s43 96 43 164c0 57.333 -14.333 106.666 -43 147.999s-68.667 62 -120 62c-6.66797 0 -13.335 -0.333008 -20.001 -1
c-6.66699 -0.666992 -13.334 -1.66699 -20.001 -3c-8.66699 -2 -17.5 -4.5 -26.5 -7.5s-18.167 -6.83301 -27.5 -11.5v0z" />
    <glyph glyph-name="c" unicode="c" horiz-adv-x="461" 
d="M410 136l19.9961 -5c-10.667 -36.667 -31.667 -69.334 -63 -98.001s-72.666 -43 -123.999 -43c-58.667 0 -107.834 20.5 -147.501 61.5s-59.5 98.833 -59.5 173.5c0 66.667 19.833 124.667 59.5 174s96.834 74 171.501 74c42 0 75.5 -8 100.5 -24s37.5 -36.333 37.5 -61
c0 -14.667 -4 -26.834 -12 -36.5c-8 -9.66699 -17.667 -14.5 -29 -14.5c-2.66699 0 -5.66699 0.166992 -9 0.5c-3.33301 0.34375 -6.66602 1.17676 -9.99902 2.5c-8 2 -15.167 6.5 -21.5 13.5s-9.5 17.833 -9.5 32.5v7.5c0 2.33301 0.333008 4.83301 1 7.5
s1.16699 5.16699 1.5 7.5s0.5 4.83301 0.5 7.5v1.5v1.5c-0.666992 8 -5.66699 15.333 -15 22s-22.666 10 -39.999 10c-42.667 0 -74.5 -17.833 -95.5 -53.5s-34.167 -74.834 -39.5 -117.5c-1.33301 -9.33301 -2.33301 -18.666 -3 -27.999s-1 -18.333 -1 -27
c0 -60 13.167 -108.833 39.5 -146.5s62.166 -56.5 107.499 -56.5c4 0 8.16699 0.166992 12.5 0.5s8.5 0.833008 12.5 1.5c22.667 4 44.334 14.167 65.001 30.5s37.334 43.5 50.001 81.5v0z" />
    <glyph glyph-name="d" unicode="d" horiz-adv-x="569" 
d="M394 39c-5.33301 -4 -10.502 -7.66895 -15.502 -11.002s-9.83301 -6.66602 -14.5 -9.99902c-15.333 -9.33301 -31 -16.333 -47 -21s-35 -7 -57 -7c-8 0 -16.167 0.5 -24.5 1.5s-16.5 2.16699 -24.5 3.5c-42.667 8.66699 -81.5 31.167 -116.5 67.5
s-52.5 90.833 -52.5 163.5c0 65.333 21.167 122.833 63.5 172.5s100.5 74.5 174.5 74.5c8.66699 0 17.5 -0.5 26.5 -1.5s18.167 -2.16699 27.5 -3.5c8.66699 -1.33301 17.5 -3.16602 26.5 -5.49902s17.833 -5.16602 26.5 -8.49902v217c0 15.333 -4 24.333 -12 27
s-19.333 4 -34 4h-1.5h-1.5h-22v20c21.333 1.33301 40.333 4.16602 57 8.49902s32.667 9.5 48 15.5c6.66699 2.67773 13.5 5.34473 20.5 8c7 2.67773 14.167 5.34473 21.5 8v-648c0 -32.667 7 -56.167 21 -70.5c14.001 -14.333 30.334 -21.5 49 -21.5h2.5h2.5l-1 -22h-117
c-3.33301 4 -6.5 8.16699 -9.5 12.5s-5.83301 8.83301 -8.5 13.5c-1.33301 2 -2.66602 4.16699 -3.99902 6.5s-2.66602 4.5 -3.99902 6.5v0zM386.998 68.998l-0.00195312 325c-8 18.667 -21 32.834 -39 42.501s-38 14.5 -60 14.5c-46.667 0 -84.834 -20.333 -114.501 -61
s-44.5 -95 -44.5 -163c0 -64.667 16.5 -114.834 49.5 -150.501s71.5 -53.5 115.5 -53.5c5.33301 0 11.333 0.333008 18 1s13.334 1.66699 20.001 3c12.667 2.66699 24.334 7.16699 35.001 13.5s17.334 15.833 20.001 28.5v0z" />
    <glyph glyph-name="e" unicode="e" horiz-adv-x="458" 
d="M427 264l-303.001 0.00195312c-0.666992 -6.66699 -1 -13.334 -1 -20.001v-19c0 -72.667 13.5 -123.334 40.5 -152.001s56.833 -44.334 89.5 -47.001c2 -0.666992 4.16699 -1 6.5 -1h6.5c35.333 0 63.5 8.83301 84.5 26.5s39.167 39.834 54.5 66.501l18 -10
c-10.667 -22.667 -22.334 -41.167 -35 -55.5c-12.667 -14.333 -25.667 -25.833 -39 -34.5c-19.333 -12.667 -38.166 -20.5 -56.499 -23.5s-33.5 -4.5 -45.5 -4.5c-52.667 0 -101 18.833 -145 56.5s-66 96.167 -66 175.5c0 64 17.333 121.833 52 173.5s87.667 77.5 159 77.5
c59.334 0 104.167 -20.833 134.5 -62.5s45.5 -89.167 45.5 -142.5v-0.5v-1.5v-1.5v-0.5v0zM344.999 286.002v13.999c0 52 -8.5 88.833 -25.5 110.5s-35.833 34.5 -56.5 38.5c-2.66699 0.666992 -5.66699 1.16699 -9 1.5s-6.33301 0.5 -9 0.5
c-6.66699 0 -13.5 -0.666992 -20.5 -2s-14.5 -3.66602 -22.5 -6.99902c-17.334 -8.66699 -33.667 -24.667 -49 -48s-25 -59.333 -29 -108h221v0z" />
    <glyph glyph-name="f" unicode="f" horiz-adv-x="363" 
d="M117 429l-74.001 0.00195312v33h74v15c0 71.333 16.833 134.666 50.5 189.999s75.834 83 126.501 83c20.667 0 37.167 -5 49.5 -15s18.833 -21 19.5 -33v-1.5v-1.5c0 -2 -0.166992 -4 -0.5 -6s-0.5 -4 -0.5 -6c-2 -9.33301 -6 -18 -12 -26s-15.333 -12 -28 -12
c-12 0 -21.5 3 -28.5 9s-12.167 12.667 -15.5 20l-2 8c-0.666992 2.67676 -1 5.34375 -1 8v0.5v0.5v4v5c-0.666992 3.33301 -2.16699 6.66602 -4.5 9.99902s-6.83301 5 -13.5 5c-20 0 -34.333 -12.667 -43 -38s-14.667 -53.333 -18 -84
c-1.33887 -16.667 -2.17188 -33 -2.49902 -49c-0.333008 -16 -0.5 -30 -0.5 -42v-44h129v-33h-129v-383c0 -10.667 3.33301 -17.334 10 -20.001s15.334 -4 26 -4h39v-22h-226v22h39c11.333 0 20.166 1.33301 26.499 4s9.5 9.33398 9.5 20.001v383v0z" />
    <glyph glyph-name="g" unicode="g" horiz-adv-x="535" 
d="M176 179c-42 12 -72.832 30.3359 -92.499 55.0029s-30.167 50.667 -31.5 78v2.5v2.5c0 47.333 19.167 83.666 57.5 108.999s80.833 40.333 127.5 45c5.33301 0.666992 10.833 1.16699 16.5 1.5s11.167 0.5 16.5 0.5c8 0 16.833 -0.833008 26.5 -2.5
c9.66699 -1.67383 19.5 -3.84082 29.5 -6.5c5.33594 -1.33301 10.6689 -2.83301 16 -4.5c5.33594 -1.66699 10.6689 -3.5 16 -5.5c1.33301 4 3.33301 8.33301 6 13s6 9.66699 10 15c7.33496 10.667 17.168 20.334 29.5 29.001c12.334 8.66699 27.167 13 44.499 13
c16 0 28 -3.83301 36 -11.5c8 -7.66895 12.333 -15.8359 13 -24.501v-1.5v-1.5c0 -8.66699 -3 -16.667 -9 -24s-13.667 -11 -23 -11c-7.33301 0 -13.5 1 -18.5 3s-9.16699 4.33301 -12.5 7l-3.5 3.5l-2.5 2.5c-2.66699 3.34082 -5.5 6.17383 -8.5 8.5
c-3 2.33301 -7.5 3.5 -13.5 3.5c-8 0 -14.833 -3.16699 -20.5 -9.5s-11.167 -13.166 -16.5 -20.499c26 -9.33301 49 -25 69 -47s30 -48 30 -78c0 -42 -12.5 -74.167 -37.5 -96.5c-25 -22.334 -52.5 -38.167 -82.5 -47.5c-17.333 -6 -34.333 -10 -51 -12s-30.667 -3 -42 -3
h-8.5c-3 0 -5.5 0.333008 -7.5 1c-2.66699 0 -5.33398 0.166992 -8.00098 0.5s-5.66699 0.5 -9 0.5h-5.5h-4.5h-4.5h-5.5c-14 -0.666992 -25.167 -3.33398 -33.5 -8.00098s-12.5 -12.334 -12.5 -23.001c0 -14 8.83301 -24 26.5 -30s39.834 -11.333 66.5 -16
c11.333 -2 23.333 -4 36 -6s25.667 -4.33301 39 -7c7.33496 -1.33301 15.168 -2.83301 23.5 -4.5c8.33301 -1.66699 16.5 -3.5 24.5 -5.5c34 -8.66699 65 -21.834 93 -39.501s42 -47.167 42 -88.5c0 -8.66699 -1.16699 -18.5 -3.5 -29.5s-6.83301 -22.167 -13.5 -33.5
c-13.333 -23.333 -37.666 -44.666 -72.999 -63.999s-88.333 -29 -159 -29h-8h-8c-57.333 2 -109.666 14.833 -156.999 38.5s-71 59.834 -71 108.501c0 32.667 13.667 60.5 41 83.5s59.666 36.167 96.999 39.5c-16 5.33301 -28.833 13.666 -38.5 24.999
s-14.5 23.666 -14.5 36.999c0 3.33301 0.5 7 1.5 11s2.5 8 4.5 12c4.66699 8.66699 12.5 16.834 23.5 24.5c11 7.66699 26.833 13.5 47.5 17.5v0zM329.001 11.0029l-151.001 31c-28 -4 -50.667 -14.833 -68 -32.5s-28.666 -36.834 -33.999 -57.501
c-0.666992 -4 -1.33398 -8.16699 -2 -12.5c-0.666992 -4.33301 -1 -8.5 -1 -12.5c0 -4.66699 1 -12.667 3 -24s7.66699 -23.666 17 -36.999c10.667 -16 28.667 -30.667 54 -44s62.333 -20 111 -20c54.667 0 95.834 8.16699 123.501 24.5s46.167 34.166 55.5 53.499
c3.33984 6 5.67285 12.167 6.99902 18.5c1.33301 6.33301 2 12.5 2 18.5c0 22 -7 39.333 -21 52s-29.333 22.334 -46 29.001c-9.33301 3.33301 -18.333 6 -27 8c-8.66797 2 -16.335 3.66699 -23 5v0zM259 453.003c-36.667 0 -65.833 -12.832 -87.5 -38.499
s-32.5 -58.5 -32.5 -98.5c0 -45.333 10.667 -77.833 32 -97.5s45 -30.834 71 -33.501c2.66699 -0.666992 5.16699 -1 7.5 -1h7.5c37.333 0 67.333 12.667 90 38s34 58.333 34 99c0 38 -10.5 69.5 -31.5 94.5s-51.167 37.5 -90.5 37.5v0z" />
    <glyph glyph-name="h" unicode="h" horiz-adv-x="568" 
d="M106 46l0.000976562 630c0 6.66699 -4 11.5 -12 14.5s-16.667 4.83301 -26 5.5c-4.66699 0.666992 -9.16699 1 -13.5 1h-11.5h-7v19c16 2 30.5 4.33301 43.5 7s25.833 5.66699 38.5 9c10 3.33301 20.167 6.83301 30.5 10.5s21.5 8.16699 33.5 13.5v-324
c9.33301 6 18.666 11.333 27.999 16s18.333 8.66699 27 12c12.667 4.66699 25.167 8 37.5 10s24.833 3 37.5 3c42.667 0 74.334 -10.5 95.001 -31.5s35 -43.833 43 -68.5c5.33984 -18 8.67285 -35.333 9.99902 -52c1.33301 -16.667 2 -29.334 2 -38v-237
c0 -10.667 3.33301 -17.334 10 -20.001s15.334 -4 26.001 -4h39v-22h-226v22h39c11.335 0 20.168 1.33301 26.5 4c6.33301 2.66699 9.5 9.33398 9.5 20.001v263c0 35.333 -6 62 -18 80s-25.333 30.667 -40 38c-11.333 5.33691 -22 8.66992 -32 10
c-10 1.33301 -17.333 2 -22 2c-11.333 0 -21.833 -1 -31.5 -3s-19.167 -5 -28.5 -9c-5.33398 -2.66699 -10.667 -5.5 -16 -8.5c-5.33398 -3 -10.667 -6.5 -16 -10.5v-362c0 -10.667 3.33301 -17.334 10 -20.001s15.334 -4 26 -4h39v-22h-226v22h39
c11.333 0 20.166 1.33301 26.499 4s9.5 9.33398 9.5 20.001v0z" />
    <glyph glyph-name="i" unicode="i" horiz-adv-x="310" 
d="M117 46v347.998c0 6.66699 -4 11.334 -12 14.001s-16.667 4.33398 -26 5.00098c-4.66699 0.666992 -9.16699 1 -13.5 1h-11.5h-7v19c10 1.33984 20.833 3.17285 32.5 5.5c11.667 2.33691 23.5 5.16992 35.5 8.5c14 4 27.833 8.16699 41.5 12.5
s25.834 8.83301 36.501 13.5v-427c0 -10.667 3.33301 -17.334 10 -20.001s15.334 -4 26 -4h39v-22h-226v22h39c11.333 0 20.166 1.33301 26.499 4s9.5 9.33398 9.5 20.001v0zM92 610.998c0 13.333 5.16797 25 15.501 35s21.833 15 34.5 15
c13.333 0 25.166 -4.83301 35.499 -14.5s15.5 -21.5 15.5 -35.5c0 -13.334 -5 -25.167 -15 -35.499c-10 -10.333 -22 -15.5 -36 -15.5s-25.833 5.16699 -35.5 15.5s-14.5 22.166 -14.5 35.499v0z" />
    <glyph glyph-name="j" unicode="j" horiz-adv-x="363" 
d="M251 473v-480c0 -65.333 -15.5 -116.833 -46.5 -154.5s-65.167 -59.834 -102.5 -66.501c-4 -1.32617 -8.16699 -2.15918 -12.5 -2.5c-4.33301 -0.333008 -8.83301 -0.5 -13.5 -0.5c-23.333 0 -41.666 6.83301 -54.999 20.5c-13.333 13.666 -20.333 28.833 -21 45.5v1.5
v1.5c0 11.333 3.5 20.833 10.5 28.5s14.833 12.5 23.5 14.5c1.33301 0.666992 2.5 1 3.5 1h3.5c2 0 4 -0.166992 6 -0.5s4.33301 -0.833008 7 -1.5c8 -2 15.333 -6.66699 22 -14s10 -18.333 10 -33c0 -1.33203 -0.166992 -2.66504 -0.5 -4
c-0.333008 -1.33301 -0.5 -2.33301 -0.5 -3v-1v-1c-0.666992 -0.666992 -1 -1.5 -1 -2.5v-2.5c0 -6.66699 1.66699 -12.334 5 -17.001s8.33301 -7 15 -7c3.33301 0 6.83301 0.333008 10.5 1s7.5 2 11.5 4c12 6 23.167 20 33.5 42s15.5 57.667 15.5 107v445
c0 6.66699 -3.83301 11.334 -11.5 14.001s-15.834 4.33398 -24.501 5.00098c-4 0.666992 -8 1 -12 1h-11h-1.5h-1.5h-8v19c6 0.666992 11.833 1.5 17.5 2.5s11.5 2.16699 17.5 3.5c20.667 4 40.5 9 59.5 15s36.167 12.333 51.5 19v0zM150 611
c0 13.333 4.83398 24.998 14.501 34.998s21.834 15 36.5 15c13.333 0 25 -5 35 -15s15 -21.667 15 -35c0 -13.334 -4.83301 -25.167 -14.5 -35.499c-9.66699 -10.333 -21.5 -15.5 -35.5 -15.5c-14.667 0 -26.834 5.33301 -36.501 16
c-9.66699 10.668 -14.5 22.335 -14.5 35.001v0z" />
    <glyph glyph-name="k" unicode="k" horiz-adv-x="564" 
d="M187 756v-569.001c59.333 68.667 102.333 120.334 129 155.001s40 59.667 40 75c0 10 -4 16.333 -12 19s-16.667 4 -26 4h-1.5h-1.5h-20v22h202v-22h-21v0v0c-8 0 -19.833 -4.83301 -35.5 -14.5s-49.5 -43.167 -101.5 -100.5c-4 -4 -7.33301 -7.5 -10 -10.5
c-2.67188 -3 -5.33887 -6.16699 -8.00098 -9.5c-4 -3.33301 -8 -7.16602 -12 -11.499s-8.66699 -9.5 -14 -15.5l170 -220c10.667 -13.333 19.834 -22.333 27.501 -27s15.167 -7.33398 22.5 -8.00098c2 -0.666992 4.16699 -1 6.5 -1h7.5h13v-22h-226v22h35
c9.33301 0 16.833 1.66699 22.5 5s8.5 8 8.5 14c0 2.66699 -0.5 5.5 -1.5 8.5s-2.83301 5.83301 -5.5 8.5l-124 165l-64 -71v-106c0 -10.667 3.33301 -17.334 10 -20.001s15.334 -4 26.001 -4h39v-22h-226v22h39c11.333 0 20.166 1.33301 26.499 4s9.5 9.33398 9.5 20.001
v620c0 12.6719 -4.16699 20.8389 -12.5 24.5c-8.33301 3.6875 -17.5 5.85449 -27.5 6.5h-3.5h-3.5h-8h-8h-8v19c18 2 34 4.33301 48 7c14 2.67773 27.667 6.34473 41 11c8.66699 2.67773 17.834 5.84473 27.5 9.5c9.66699 3.67773 19.834 7.84473 30.5 12.5v0z" />
    <glyph glyph-name="l" unicode="l" horiz-adv-x="341" 
d="M131 46l0.000976562 630c0 6.66699 -3.5 11.5 -10.5 14.5s-14.5 4.83301 -22.5 5.5c-5.33301 0.666992 -10.333 1 -15 1h-12h-1.5h-1.5h-7v19c16 2 30.5 4.33301 43.5 7s25.833 5.66699 38.5 9c10 3.33301 20.167 6.83301 30.5 10.5s21.5 8.16699 33.5 13.5v-710
c0 -10.667 3.33301 -17.334 10 -20.001s15.334 -4 26 -4h39v-22h-226v22h39c11.333 0 20.166 1.33301 26.499 4s9.5 9.33398 9.5 20.001v0z" />
    <glyph glyph-name="m" unicode="m" horiz-adv-x="814" 
d="M182 473v-39.0029c10 7.33301 20.833 13.833 32.5 19.5s23.5 9.83398 35.5 12.501c8 2.66699 16 4.5 24 5.5s15.667 1.5 23 1.5c27.333 0 50.5 -4.33301 69.5 -13s35.167 -22 48.5 -40c12 10 24.667 18.667 38 26s27 13.333 41 18
c9.33301 2.66699 18.5 4.83398 27.5 6.50098s17.833 2.5 26.5 2.5c58.668 0 99.835 -16.5 123.5 -49.5c23.6719 -33 35.8389 -76.167 36.5 -129.5v-248c0 -10.667 3.33301 -17.334 10 -20.001c6.67188 -2.66699 15.3389 -4 26 -4h39v-22h-215v22h28
c11.333 0 20.166 1.33301 26.499 4s9.5 9.33398 9.5 20.001v248c0 57.333 -11.167 96 -33.5 116c-22.334 20 -48.167 30 -77.499 30c-17.333 0 -34 -3.33301 -50 -10s-30.333 -15.667 -43 -27c8.66699 -16.667 13.667 -31.667 15 -45s2 -26 2 -38v-274
c0 -10.667 3.33301 -17.334 10 -20.001s15.334 -4 26.001 -4h28v-22h-205v22h29c11.335 0 20.168 1.33301 26.5 4c6.33301 2.66699 9.5 9.33398 9.5 20.001v274c0 38.667 -7.33301 66.5 -22 83.5s-31 27.833 -49 32.5c-6 1.33301 -11.833 2.33301 -17.5 3s-11.167 1 -16.5 1
c-6 0 -11.667 -0.5 -17 -1.5c-5.33398 -1 -10.667 -2.16699 -15.999 -3.5c-7.33301 -2.66699 -14.833 -6.16699 -22.5 -10.5s-16.5 -9.5 -26.5 -15.5v-363c0 -10.667 3.33301 -17.334 10 -20.001s15.334 -4 26 -4h28v-22h-215v22h39c11.333 0 20.166 1.33301 26.499 4
s9.5 9.33398 9.5 20.001v337c0 12.667 -4.33301 21 -13 25s-18 6 -28 6h-2.5h-2.5h-8.5h-8.5h-8v19c16.667 2 33 4.83301 49 8.5s30.667 7.83398 44 12.501c12 3.33301 22.667 6.83301 32 10.5s16.666 6.5 21.999 8.5v0z" />
    <glyph glyph-name="n" unicode="n" horiz-adv-x="568" 
d="M182 473l-0.00195312 -43.001c21.333 11.335 39.333 20.168 54 26.5c14.667 6.33301 28.667 10.833 42 13.5c5.33594 1.34766 10.6689 2.18066 16 2.5c5.33301 0.333008 11 0.5 17 0.5c40 0 70.833 -9.5 92.5 -28.5s36.834 -39.833 45.501 -62.5
c4.66699 -12 8 -23.5 10 -34.5s3 -20.833 3 -29.5v-272c0 -10.667 3.33301 -17.334 10 -20.001s15.334 -4 26.001 -4h39v-22h-226v22h39c11.335 0 20.168 1.33301 26.5 4c6.33301 2.66699 9.5 9.33398 9.5 20.001v264c0 5.33301 -0.5 13.833 -1.5 25.5
s-3.83301 24.167 -8.5 37.5c-6 16.667 -16.667 32 -32 46s-38.666 21 -69.999 21c-10.667 0 -24 -2 -40 -6s-33.333 -13.667 -52 -29v-359c0 -10.667 3.33301 -17.334 10 -20.001s15.334 -4 26 -4h39v-22h-226v22h39c11.333 0 20.166 1.33301 26.499 4
s9.5 9.33398 9.5 20.001v337c0 12 -3.83301 20 -11.5 24s-16.167 6.33301 -25.5 7h-10h-10h-3h-3h-8v19c7.33301 0.666992 15 1.83398 23 3.50098s16 3.16699 24 4.5c14.667 3.33691 29 7.16992 43 11.5c14 4.33301 27.333 8.83301 40 13.5c2.66699 1.33301 5.5 2.5 8.5 3.5
s5.83301 2.16699 8.5 3.5v0z" />
    <glyph glyph-name="o" unicode="o" horiz-adv-x="520" 
d="M36 231c0 65.333 18.833 122 56.5 170s93.5 72 167.5 72c75.333 0 131.5 -24.333 168.5 -73s55.5 -105 55.5 -169s-18.5 -120.167 -55.5 -168.5s-93.167 -72.5 -168.5 -72.5c-74.667 0 -130.667 24 -168 72s-56 104.333 -56 169v0zM123 231
c0 -68.667 9.5 -118.672 28.5 -150.005s39.833 -51.666 62.5 -60.999c8 -3.33301 16 -5.66602 24 -6.99902s15.333 -2 22 -2c7.33398 0 15.667 0.833008 24.999 2.5c9.33301 1.66699 19 4.83398 29 9.50098c20.667 10.667 39.667 31.5 57 62.5s26 79.5 26 145.5
s-8.66699 114.5 -26 145.5s-36.333 51.833 -57 62.5c-10 4.66699 -19.667 7.83398 -29 9.50098s-17.666 2.5 -24.999 2.5c-6.66699 0 -14 -0.666992 -22 -2s-16 -3.66602 -24 -6.99902c-22.667 -9.33301 -43.5 -29.5 -62.5 -60.5s-28.5 -81.167 -28.5 -150.5v0z" />
    <glyph glyph-name="p" unicode="p" horiz-adv-x="564" 
d="M31 400l0.00195312 26.001c16.667 2 30.667 4.66699 42 8c11.333 3.33984 22.333 6.67285 33 9.99902c3.33398 0.666992 6.66699 1.5 10 2.5c3.33398 1 6.66699 2.16699 10 3.5c4.66699 1.33496 8.83398 2.66797 12.5 4c3.66699 1.33301 7.16699 2.33301 10.5 3
c2.66699 1.33301 5.16699 2.33301 7.5 3s4.5 1.66699 6.5 3c3.33301 1.33301 6.5 2.83301 9.5 4.5s6.5 3.5 10.5 5.5v-47c3.33301 2.66699 7 5.5 11 8.5s8.66699 6.16699 14 9.5c12 7.33301 26.5 14 43.5 20s35.5 9 55.5 9h6.5h7.5c50 -3.33301 96 -24.166 138 -62.499
s63 -97.833 63 -178.5c0 -70.667 -20.833 -128.667 -62.5 -174s-94.5 -68 -158.5 -68c-14 0 -26.667 0.666992 -38 2s-22.333 3.66602 -33 6.99902c-7.33301 1.33301 -14.833 3.66602 -22.5 6.99902s-15.834 7.33301 -24.501 12v-188c0 -10 3.33301 -16.333 10 -19
s15.334 -4 26 -4l39 -1v-22h-226v22h39c11.333 0.664062 20.166 2.33105 26.499 5.00098c6.33301 2.66602 9.5 9.33301 9.5 20v534v0.5v0.5c0 10.667 -3.16699 19.167 -9.5 25.5c-6.33301 6.33984 -28.5 9.17285 -66.5 8.5v0zM183.002 400.001l0.000976562 -319.005
c0 -3.33301 0.5 -7.16602 1.5 -11.499s2.83301 -8.5 5.5 -12.5c6.66699 -11.333 18 -21.833 34 -31.5s38 -14.5 66 -14.5c46 0 81.667 22.333 107 67s38 95.334 38 152.001c0 60.667 -10 105.834 -30 135.501s-42 49.834 -66 60.501c-10.667 4.66699 -21 8 -31 10
s-19.333 3 -28 3c-7.33301 0 -15.5 -0.666992 -24.5 -2s-18.167 -3.66602 -27.5 -6.99902c-8 -2.66699 -15.833 -6.5 -23.5 -11.5s-14.834 -11.167 -21.501 -18.5v0z" />
    <glyph glyph-name="q" unicode="q" 
d="M381 -181l-0.00292969 197.998c-22.667 -11.333 -44.334 -18.666 -65 -21.999c-20.667 -3.33301 -37.667 -5 -51 -5c-62.667 0 -115.5 21.5 -158.5 64.5s-64.5 101.833 -64.5 176.5c0 76 22.667 134.5 68 175.5s95 63.167 149 66.5h7.5h6.5c26.667 0 47.167 -2 61.5 -6
s27.833 -9.66699 40.5 -17c4.66699 -3.33301 9.83398 -7.16602 15.501 -11.499s11.834 -8.83301 18.501 -13.5l27 48h21v-654c0 -10 3.33301 -16.333 10 -19s15.334 -4 26.001 -4l39 -1v-22h-226v22h39c11.335 0.663086 20.168 2.33008 26.5 5
c6.33301 2.66602 9.5 9.33301 9.5 20v-1zM380.997 42.998l0.00292969 324.999c0 21.333 -9.33301 40.5 -28 57.5s-45.334 25.5 -80.001 25.5c-46.667 0 -82.334 -21.833 -107.001 -65.5s-37 -96.167 -37 -157.5c0 -65.333 15.667 -116.666 47 -153.999
s70.666 -56 117.999 -56c6 0 13.5 0.666992 22.5 2s18.5 3.33301 28.5 6c6 2 12.167 4.33301 18.5 7c6.33496 2.66699 12.168 6 17.5 10v0z" />
    <glyph glyph-name="r" unicode="r" horiz-adv-x="398" 
d="M182 473v-96.001c15.333 34 33 58.5 53 73.5s40.333 22.5 61 22.5c22.667 0 39.5 -4 50.5 -12s18.833 -17 23.5 -27c2 -4.66699 3.5 -9.5 4.5 -14.5s1.5 -9.5 1.5 -13.5v-2.5v-2.5c-1.33301 -10 -5.66602 -19 -12.999 -27s-17 -12 -29 -12c-12.667 0 -23 4.5 -31 13.5
s-12 19.833 -12 32.5c0 9.33301 -2 15.833 -6 19.5s-8.33301 5.83398 -13 6.50098h-3.5h-3.5c-17.334 0 -33.167 -11 -47.5 -33s-24.5 -46.333 -30.5 -73c-1.33301 -6.66895 -2.5 -13.3359 -3.5 -20c-1 -6.66895 -1.5 -13.3359 -1.5 -20v-242
c0 -10.667 3.33301 -17.334 10 -20.001s15.334 -4 26 -4h39v-22h-226v22h39c11.333 0 20.166 1.33301 26.499 4s9.5 9.33398 9.5 20.001v348c0 6 -3.5 10.5 -10.5 13.5s-14.5 4.83301 -22.5 5.5c-5.33301 0.666992 -10.333 1 -15 1h-11h-2h-2h-7v19
c6 0.666992 11.833 1.5 17.5 2.5s11.5 2.16699 17.5 3.5c20.667 4 40.5 9 59.5 15s36.167 12.333 51.5 19v0z" />
    <glyph glyph-name="s" unicode="s" horiz-adv-x="396" 
d="M330 462l4.00391 -125.002h-23v20c0 5.33594 -1.66699 11.1689 -5 17.499c-3.33301 6.33301 -8 12.833 -14 19.5c-10.667 12 -25 23.5 -43 34.5s-36.667 18.167 -56 21.5c-2.66699 0 -5.5 0.166992 -8.5 0.5s-5.83301 0.5 -8.5 0.5h-5.5
c-1.66699 0 -3.5 -0.333008 -5.5 -1c-5.33301 0 -10.5 -0.833008 -15.5 -2.5c-5 -1.67383 -9.83301 -3.84082 -14.5 -6.50098c-10.667 -6 -18.834 -14.667 -24.501 -26s-8.5 -23.666 -8.5 -36.999c0 -19.333 7.83301 -34.666 23.5 -45.999s34.167 -22 55.5 -32
c4 -2 8.16699 -4 12.5 -6s8.5 -4 12.5 -6c0.666992 0 1.16699 -0.166992 1.5 -0.5s0.833008 -0.5 1.5 -0.5c3.33301 -1.33301 6.66602 -2.83301 9.99902 -4.5s6.66602 -3.5 9.99902 -5.5c38 -18.667 68.833 -39 92.5 -61s35.5 -52 35.5 -90c0 -6 -0.5 -12 -1.5 -18
s-2.5 -12 -4.5 -18c-7.33301 -25.333 -23.333 -48.333 -48 -69s-59.334 -31 -104.001 -31c-22.667 0 -44.5 2.66699 -65.5 8s-39.167 11 -54.5 17c-2.66699 1.33301 -5.33398 2.5 -8 3.5c-2.66699 1 -5 2.16699 -7 3.5v-22h-19l-6 131h25
c0.666992 -27.333 11.167 -51 31.5 -71s42.5 -34 66.5 -42c6.66699 -2 13.5 -3.66699 20.5 -5s13.833 -2 20.5 -2c28 0 49.833 9 65.5 27s23.5 38.333 23.5 61c0 18.667 -5 34 -15 46s-21 21.667 -33 29c-4.66699 3.33301 -9.33398 6.16602 -14.001 8.49902l-13 6.5
c-20.667 10.667 -39.5 20.334 -56.5 29c-17 8.66699 -32.167 17.334 -45.5 26c-22 14.667 -39 29.834 -51 45.501s-18 35.834 -18 60.501c0 34.667 12.333 63.834 37 87.501s57.334 35.5 98.001 35.5c11.333 0 23.5 -0.666992 36.5 -2s26.167 -4 39.5 -8
c8.66699 -2 17.167 -4.66699 25.5 -8s16.5 -7 24.5 -11v18h23v0z" />
    <glyph glyph-name="t" unicode="t" horiz-adv-x="389" 
d="M17 437l-0.00195312 26c33.333 3.33398 58.833 15.667 76.5 36.999c17.667 21.333 30.167 44.333 37.5 69c6 19.333 9.66699 37.666 11 54.999s2 30.666 2 39.999v11h24v-212c14.667 0 28.834 0.333008 42.5 1c13.667 0.666992 27.167 1.66699 40.5 3
c12 0.666992 24.167 1.83398 36.5 3.50098c12.334 1.66699 25.167 3.83398 38.5 6.50098v-40h-158v-321c0 -28.667 5.33301 -49.5 16 -62.5s22.334 -21.167 35 -24.5c4 -1.33301 8 -2.33301 12 -3s8 -1 12 -1c20.667 0 37.667 5.16699 51 15.5s24 21.833 32 34.5
c5.33301 8 9.5 15.667 12.5 23s5.16699 13.333 6.5 18l22 -7c-11.333 -34 -25.166 -59.333 -41.499 -76s-33.166 -28 -50.499 -34c-9.33301 -3.33301 -18.5 -5.66602 -27.5 -6.99902s-17.833 -2 -26.5 -2c-34 0 -59.833 7.5 -77.5 22.5s-30.5 31.5 -38.5 49.5
c-6.66699 16 -10.5 31 -11.5 45s-1.5 23 -1.5 27v303h-75v0z" />
    <glyph glyph-name="u" unicode="u" horiz-adv-x="564" 
d="M379 0l-0.000976562 42.9971c-32.667 -24.667 -60.167 -39.667 -82.5 -45s-42.5 -8 -60.5 -8c-50.667 0 -85.334 14.333 -104.001 43s-28.667 60.334 -30 95.001v4v4v247c0 14 -4.83301 22.667 -14.5 26s-20.167 5 -31.5 5h-8.5h-8.5h-8v19c16.667 2 33 4.83301 49 8.5
s30.667 7.83398 44 12.501c12 3.33301 22.667 6.83301 32 10.5s16.666 6.5 21.999 8.5v-337c0 -2.66699 0.5 -9.33398 1.5 -20.001s3.83301 -22 8.5 -34c6 -14 15.667 -26.667 29 -38s33.333 -17 60 -17c16 0 30.833 2.83301 44.5 8.5s25.5 11.834 35.5 18.501
c4.66699 3.33301 8.83398 6.33301 12.501 9s6.83398 5.33398 9.50098 8.00098v312c0 13.333 -4.33301 21.833 -13 25.5s-25.334 5.5 -50 5.5h-8v19c16.667 2 33 4.83301 49 8.5s30.667 7.83398 44 12.501c12 3.33301 22.667 6.83301 32 10.5
c9.33691 3.66699 16.6699 6.5 22 8.5v-427c0 -10.667 3.33301 -17.334 10 -20.001s15.334 -4 26.001 -4h39v-22h-151v0z" />
    <glyph glyph-name="v" unicode="v" horiz-adv-x="544" 
d="M294 98l63 159.996c2 6 5.16699 14.667 9.5 26s8.5 23.333 12.5 36l2 6l2 6c6 16 11.167 31.5 15.5 46.5s6.5 25.167 6.5 30.5c0 13.333 -4.33301 21.833 -13 25.5s-20.334 5.5 -35 5.5h-22v22h184v-22h-36c-3.33301 -3.33301 -6.5 -6.66602 -9.5 -9.99902
s-5.83301 -6.66602 -8.5 -9.99902c-10.667 -14 -22 -33 -34 -57s-27.333 -59 -46 -105l-108 -269h-18l-170 410c-0.666992 0.666992 -1.16699 1.5 -1.5 2.5s-0.5 2.16699 -0.5 3.5c-0.666992 0.666992 -1 1.33398 -1 2.00098s-0.333008 1.33398 -1 2.00098
c-2.66699 8 -6.66699 15.167 -12 21.5s-15.333 9.5 -30 9.5h-26v22h217v-22h-35h-2.5h-2.5c-7.33301 -0.673828 -14 -2.84082 -20 -6.50098c-6 -3.66992 -9 -9.83691 -9 -18.5c0 -2.66699 0.333008 -5.16699 1 -7.5s1.66699 -5.16602 3 -8.49902l125 -301v0z" />
    <glyph glyph-name="w" unicode="w" horiz-adv-x="787" 
d="M394 293l-111.997 -304.006h-25l-162 417c-4 10 -8.83301 17.333 -14.5 22s-11.167 8 -16.5 10c-2.66699 0.666992 -5.33398 1.16699 -8.00098 1.5s-5.33398 0.5 -8.00098 0.5h-17v22h186v-22h-8c-16 0 -26.5 -2.16699 -31.5 -6.5s-7.5 -9.16602 -7.5 -14.499
c0 -0.666992 0.166992 -1.66699 0.5 -3s0.5 -2.33301 0.5 -3s0.166992 -1.16699 0.5 -1.5s0.5 -0.833008 0.5 -1.5c0 -0.672852 0.166992 -1.33984 0.5 -2c0.333008 -0.672852 0.5 -1.33984 0.5 -2l121 -310l87 227l-30 83c-4 10.667 -10.5 19 -19.5 25s-19.5 9 -31.5 9h-11
v22h186v-22h-20c-20.668 0 -31.335 -3.33301 -32 -10c-0.666992 -6.66797 1 -14.335 5 -23v-0.5v-0.5l115 -310l65 167c1.33301 2.66699 4.33301 9.83398 9 21.501s9.66699 24.834 15 39.501c1.33301 2 2.5 4.33301 3.5 7s1.83301 5.33398 2.5 8.00098
c5.33301 14 9.83301 27.333 13.5 40s5.5 22.334 5.5 29.001c0 15.333 -1.83301 24.5 -5.5 27.5s-12.5 4.5 -26.5 4.5h-31v22h162v-22h-32c-4.66699 -4.66992 -9.33398 -9.83691 -14.001 -15.5c-4.66699 -5.66699 -9 -11.834 -13 -18.5
c-10 -15.333 -20.5 -35.666 -31.5 -60.999s-24.5 -59.333 -40.5 -102l-97 -254h-20l-114 304v0z" />
    <glyph glyph-name="x" unicode="x" horiz-adv-x="566" 
d="M254 219l-131.001 171.997c-2 2 -3.66699 4 -5 6s-3 4 -5 6c-8 10 -17.5 18.167 -28.5 24.5s-28.833 10.5 -53.5 12.5v22h223v-22h-34h-4.5h-5.5c-2.66699 0 -5.33398 -0.5 -8.00098 -1.5s-4 -3.16699 -4 -6.5c0 -4.66992 0.666992 -8.83691 2 -12.5
c1.33301 -3.66699 3 -7.16699 5 -10.5l92 -130c3.33301 4 9 11.333 17 22s16.333 23 25 37c2 2 3.83301 4.33301 5.5 7s3.16699 5 4.5 7c9.33301 14.667 17.5 28.5 24.5 41.5s10.5 22.5 10.5 28.5c0 6.66699 -1.66699 11.167 -5 13.5s-7 3.83301 -11 4.5h-2h-2h-37v22h184
v-22h-18h-2.5h-2.5c-13.333 -1.33301 -28.666 -10.166 -45.999 -26.499s-46.333 -49.833 -87 -100.5c-4 -5.33301 -7.66699 -10 -11 -14s-6.66602 -7.66699 -9.99902 -11v-1h-1c-2.67188 -4 -5.83887 -8.16699 -9.50098 -12.5
c-3.66895 -4.33301 -7.83594 -9.16602 -12.5 -14.499l138 -198c7.33301 -10.667 18 -19.834 32 -27.501s32 -11.834 54 -12.501v-22h-233v22h42c8.66699 0 15.334 2 20.001 6s7 9 7 15c0 3.33301 -0.5 6.5 -1.5 9.5s-2.83301 6.16699 -5.5 9.5l-97 138
c-10 -10.667 -18.5 -20.5 -25.5 -29.5s-13.5 -17.5 -19.5 -25.5c-2 -2.66699 -3.66699 -5 -5 -7s-3 -4 -5 -6c-2 -3.33301 -4.16699 -6.66602 -6.5 -9.99902s-4.83301 -7 -7.5 -11c-8.66699 -12 -15.5 -22.167 -20.5 -30.5s-8.16699 -16.166 -9.5 -23.499
c-0.666992 -1.33301 -1 -2.66602 -1 -3.99902v-4v-2c0 -0.666992 0.333008 -1.33398 1 -2.00098v-1.5v-1.5c3.33301 -10 9 -15.833 17 -17.5s17 -2.5 27 -2.5h22v-22h-203v22h29c6.66699 0 19 8.5 37 25.5s37.333 36.5 58 58.5c2.66699 2.66699 5 5.16699 7 7.5
s4.33301 4.83301 7 7.5c20.667 22.667 39.334 43.834 56 63.501c16.667 19.667 26.334 31.167 29 34.5v0z" />
    <glyph glyph-name="y" unicode="y" horiz-adv-x="538" 
d="M513 462l0.00195312 -22.0049h-15c-5.33301 0 -10.5 -1.16699 -15.5 -3.5s-9.83301 -6.16602 -14.5 -11.499c-16.668 -20 -36.835 -63.667 -60.501 -131c-23.667 -67.333 -65.167 -172 -124.5 -314c-4.66699 -10.667 -9 -21 -13 -31l-12 -30
c-18.667 -43.333 -39 -79.666 -61 -108.999s-52 -44 -90 -44c-24.667 0 -43.834 6.33301 -57.501 19s-21.5 26.667 -23.5 42v2.5v2.5c0 14.667 4.33301 26.167 13 34.5s18.667 12.5 30 12.5c12 0 21.167 -2.5 27.5 -7.5s10.833 -10.5 13.5 -16.5c2 -4 3.33301 -8 4 -12
s1 -7 1 -9s0.333008 -4 1 -6s1 -4 1 -6c1.33398 -4.66699 3.66699 -9.16699 7 -13.5s8.66602 -6.5 15.999 -6.5c2.66699 0 5.16699 0.333008 7.5 1s4.83301 1.66699 7.5 3c12 6.66602 24 19.333 36 38s23 38.334 33 59.001c8 18 15.333 35.333 22 52
c6.66797 16.667 11.668 29.334 15 38.001l-173 411c-0.666992 2 -1.83398 4.33301 -3.5 7c-1.66699 2.66699 -3.83398 5.33398 -6.5 8.00098c-4.66699 5.33691 -10.667 10.1699 -18 14.5c-7.33301 4.33301 -16 6.5 -26 6.5h-20v22h206v-22h-34
c-8.66699 0 -15.167 -1.83301 -19.5 -5.5c-4.33301 -3.66797 -6.5 -8.83496 -6.5 -15.5c0 -2 0.5 -4.16699 1.5 -6.5s1.83301 -5.16602 2.5 -8.49902l136 -321c37.333 99.333 62.333 170.666 75 213.999s20.334 73.333 23.001 90c0.666992 3.33301 1.16699 6.5 1.5 9.5
s0.5 5.83301 0.5 8.5v3.5c0 1 -0.333008 2.16699 -1 3.5c0 1.33301 -0.166992 2.5 -0.5 3.5s-0.5 2.16699 -0.5 3.5c-1.33301 6 -4 11 -8 15s-9.66699 6 -17 6h-32v22h172v0z" />
    <glyph glyph-name="z" unicode="z" horiz-adv-x="429" 
d="M398 123l-9.00098 -123.001h-358v22l273 418h-34c-7.33301 0 -19.666 -1.16699 -36.999 -3.5c-17.334 -2.33301 -35.667 -5.5 -55 -9.5c-24.667 -4.66797 -47.167 -10.835 -67.5 -18.5c-20.333 -7.66699 -30.833 -16.167 -31.5 -25.5l-4 -44h-21l7 123h335v-22l-280 -418
h48c10.667 0 24.667 0.333008 42 1s35 2.33398 53 5.00098c28 3.33301 53.667 9.33301 77 18s35.333 21.667 36 39l2 38h24v0z" />
    <glyph glyph-name="braceleft" unicode="{" horiz-adv-x="356" 
d="M295 739l5.00488 -34.002c-22 -2.66699 -40.333 -12.834 -55 -30.501s-22 -39.167 -22 -64.5c0 -10.667 0.333008 -22 1 -34c0.667969 -12 1.33496 -24.667 2 -38c0.666992 -4.66699 1.16699 -9.16699 1.5 -13.5s0.5 -8.83301 0.5 -13.5c0 -2 0.166992 -4.16699 0.5 -6.5
s0.5 -4.83301 0.5 -7.5v-7.5v-6.5v-6.5v-6.5c-0.666992 -2 -1 -4.16699 -1 -6.5v-6.5c-2.66699 -44 -12.834 -80.833 -30.501 -110.5s-47.834 -54.5 -90.501 -74.5c41.333 -20.667 71.166 -45.167 89.499 -73.5s28.833 -65.833 31.5 -112.5c0 -2 0.166992 -4.16699 0.5 -6.5
s0.5 -4.83301 0.5 -7.5v-7.5v-6.5v-6.5v-6.5c-0.666992 -2 -1 -4.16699 -1 -6.5v-6.5c0 -4.66699 -0.166992 -9.16699 -0.5 -13.5s-0.833008 -8.83301 -1.5 -13.5c-0.666992 -12.667 -1.33398 -25 -2.00098 -37s-1 -23.333 -1 -34c0 -24 4.83301 -42.5 14.5 -55.5
s20.167 -22.5 31.5 -28.5c5.33301 -3.33301 10.833 -5.83301 16.5 -7.5s10.5 -2.83398 14.5 -3.50098l-5 -35c-41.333 5.33301 -72.333 18 -93 38s-35 41.667 -43 65c-6.66699 18.667 -10.5 36.667 -11.5 54s-1.5 30.333 -1.5 39v1.5v2.5c0 5.33301 0.166992 11 0.5 17
s0.833008 12.333 1.5 19v2.5v2.5c0 5.33301 0.166992 10.833 0.5 16.5s0.5 10.834 0.5 15.501c0 56.667 -7.33301 97.334 -22 122.001s-31 40.334 -49 47c-3.33301 1.33301 -7 2.33301 -11 3c-4 0.667969 -7.66699 1.33496 -11 2.00098v41
c25.333 2 47.166 15.833 65.499 41.5s27.5 69.834 27.5 132.501c0 6 -0.166992 12 -0.5 18s-0.5 12.333 -0.5 19c-0.666992 6 -1.16699 12 -1.5 18s-0.5 12 -0.5 18v2.5v2.5c0 8.66699 0.5 21.667 1.5 39s4.83301 35.333 11.5 54c8 23.333 22.333 45 43 65
s51.667 32.333 93 37v0z" />
    <glyph glyph-name="bar" unicode="|" horiz-adv-x="160" 
d="M56 -196v1053h48v-1053h-48v0z" />
    <glyph glyph-name="braceright" unicode="}" horiz-adv-x="356" 
d="M61 -196l-4.99902 33.998c4 1.33301 8.83301 2.83301 14.5 4.5s11.167 4.16699 16.5 7.5c11.333 6 21.833 15.667 31.5 29s14.5 31.666 14.5 54.999c0 10 -0.166992 19.167 -0.5 27.5s-0.833008 16.5 -1.5 24.5c0 3.33301 -0.166992 6.66602 -0.5 9.99902s-0.5 7 -0.5 11
c-0.666992 4 -1.16699 8 -1.5 12s-0.5 8.33301 -0.5 13c0 2 -0.166992 4.16699 -0.5 6.5s-0.5 4.83301 -0.5 7.5v7.5v6.5v6.5c0 2.33301 0.333008 4.5 1 6.5v6.5v6.5c0.666992 11.333 2 23.166 4 35.499s5 24.833 9 37.5c7.33301 20.667 19.333 40.834 36 60.5
c16.667 19.667 41 37.167 73 52.5c-28 12.667 -50 27.5 -66 44.5s-28 34.167 -36 51.5c-7.33301 16.667 -12.333 32.667 -15 48s-4.33398 29 -5.00098 41c0 2 -0.166992 4.16699 -0.5 6.5s-0.5 4.83301 -0.5 7.5v7.5v6.5v6.5c0 2.33301 0.333008 4.5 1 6.5v6.5v6.5
c0 4.66699 0.166992 9 0.5 13s0.833008 8 1.5 12c0 4 0.166992 7.83301 0.5 11.5s0.5 7.16699 0.5 10.5c0.666992 8 1.16699 16.167 1.5 24.5s0.5 17.5 0.5 27.5c0 25.333 -7.33301 46.833 -22 64.5c-14.667 17.6719 -33 27.8389 -55 30.5l5 34
c46.667 -5.33594 80.167 -19.6689 100.5 -42.999c20.333 -23.333 33.833 -48.333 40.5 -75c4 -14.667 6.33301 -29.167 7 -43.5c0.666992 -14.3379 1 -27.1709 1 -38.5c0 -6.66699 -0.166992 -13 -0.5 -19s-0.5 -12 -0.5 -18v-0.5v-1.5
c0 -5.33301 -0.166992 -10.666 -0.5 -15.999s-0.5 -11.333 -0.5 -18v-1.5v-1.5c0 -8 0.333008 -19.333 1 -34s2.66699 -30.334 6 -47c4.66699 -22 13.5 -42.167 26.5 -60.5s32.5 -28.166 58.5 -29.499v-41c-24.667 -2 -46.167 -15.167 -64.5 -39.5
s-27.5 -69.166 -27.5 -134.499c0 -7.33301 0.166992 -14 0.5 -20s0.5 -11.667 0.5 -17v-2v-1c0 -5.33301 0.166992 -10.666 0.5 -15.999s0.5 -11 0.5 -17c0 -10.667 -0.333008 -23.167 -1 -37.5s-3 -28.833 -7 -43.5c-6.66699 -26.667 -20.167 -51.667 -40.5 -75
s-53.833 -37.666 -100.5 -43v-1z" />
    <glyph glyph-name="asciitilde" unicode="~" horiz-adv-x="500" 
d="M81 305l-42.002 -0.00195312c9.33301 29.333 26.333 55 51 77s53.667 33 87 33c14.667 0 28.667 -1.83301 42 -5.5s25.666 -7.5 36.999 -11.5c2.66699 -1.33301 5.33398 -2.5 8.00098 -3.5s5.33398 -1.83301 8.00098 -2.5c31.334 -10.667 53.667 -17.167 67 -19.5
c13.335 -2.33301 22.668 -3.5 28 -3.5c13.333 0 23.833 4.5 31.5 13.5s14.5 19.833 20.5 32.5h42c-2 -4 -3.83301 -8 -5.5 -12s-3.5 -7.66699 -5.5 -11c-15.333 -30.667 -31.666 -53.167 -48.999 -67.5s-38.666 -21.5 -63.999 -21.5c-15.333 0 -28.833 1.33301 -40.5 4
s-22.834 5.66699 -33.5 9c-3.33301 1.33301 -6.5 2.5 -9.5 3.5s-6.16699 2.16699 -9.5 3.5c-33.333 12 -57.333 19.5 -72 22.5s-26.667 4.5 -36 4.5c-8.66699 0 -15.667 -2 -21 -6s-10 -8.33301 -14 -13c-0.666992 0 -1 -0.166992 -1 -0.5v-0.5
c-1.33301 -0.666992 -2.33301 -1.5 -3 -2.5s-1.33398 -1.83301 -2.00098 -2.5l-3.5 -3.5c-1 -1 -1.83301 -2.16699 -2.5 -3.5c-1.33301 -1.33301 -2.33301 -2.66602 -3 -3.99902s-1.66699 -2.66602 -3 -3.99902c0 -0.666992 -0.166992 -1.5 -0.5 -2.5
s-0.833008 -1.83301 -1.5 -2.5v0z" />
    <glyph glyph-name="space" 
 />
    <glyph glyph-name="F" horiz-adv-x="872" 
d="M619 538h-34.002v43c-12 20 -28.667 36.5 -50 49.5c-21.334 13 -43.334 22.5 -66 28.5c-8.66699 2 -17.5 3.66699 -26.5 5s-17.5 2 -25.5 2c-15.333 0 -26.166 -1.33301 -32.499 -4s-10.166 -5.66699 -11.499 -9c-1.33301 -2 -2 -3.83301 -2 -5.5v-4.5v-0.5v-0.5v-232
c16.667 5.33691 33.834 10.1699 51.501 14.5c17.667 4.33301 35.5 7.83301 53.5 10.5c9.33301 1.33301 18.5 2.33301 27.5 3s17.833 1 26.5 1c94 0 165.667 -21.667 215 -65s74 -93 74 -149v-4.5v-5.5c-2 -43.333 -16.667 -84.833 -44 -124.5
c-27.335 -39.667 -67.668 -68.834 -121 -87.501c-10.667 -2.66699 -23 -5 -37 -7s-28.667 -3 -44 -3c-6 0 -12.167 0.166992 -18.5 0.5s-12.5 1.16602 -18.5 2.49902c-14.667 2 -29.334 5.83301 -44.001 11.5c-14.668 5.66699 -28.335 13.834 -41.001 24.501
c-5.33301 5.33301 -9.83301 11 -13.5 17s-6.5 12 -8.5 18c-1.33301 4.66699 -2.5 9.5 -3.5 14.5s-1.5 9.83301 -1.5 14.5c0 12.667 3.66699 24 11 34s16.333 15 27 15c4 0 8.16699 -0.333008 12.5 -1s8.83301 -1.33398 13.5 -2.00098
c11.333 -3.33301 22 -9.16602 32 -17.499s15 -20.5 15 -36.5c0 -4 -0.5 -8 -1.5 -12l-3.5 -14c3.33301 -14 9.33301 -24.333 18 -31c8.6709 -6.66699 21.3379 -10 38 -10c36 0 65.667 18.167 89 54.5s35 86.833 35 151.5c0 68 -19.5 114.333 -58.5 139
s-81.833 37.667 -128.5 39h-5.5h-5.5c-24.668 0 -48.835 -2.16699 -72.501 -6.5c-23.667 -4.33301 -43.834 -8.83301 -60.5 -13.5c-1.33301 -0.666992 -2.66602 -1.16699 -3.99902 -1.5s-2.66602 -0.833008 -3.99902 -1.5v-309c0 -17.333 3.5 -29.166 10.5 -35.499
s15.167 -9.5 24.5 -9.5h1.5h1.5v-28h-226v28h57c2 0 4.5 0.166992 7.5 0.5s6.16699 1.16602 9.5 2.49902c5.33301 2 10.333 6 15 12s7 16 7 30v569c0 10 -4 16.5 -12 19.5s-19.667 4.5 -35 4.5c-7.33301 0 -15 -0.5 -23 -1.5s-16 -2.5 -24 -4.5
c-23.333 -5.33789 -46 -14.6709 -68 -27.999c-22 -13.333 -39.333 -30.333 -52 -51v-43h-34v156h588v-156v0z" />
    <glyph glyph-name="F" unicode="&#x402;" horiz-adv-x="872" 
d="M619 538h-34.002v43c-12 20 -28.667 36.5 -50 49.5c-21.334 13 -43.334 22.5 -66 28.5c-8.66699 2 -17.5 3.66699 -26.5 5s-17.5 2 -25.5 2c-15.333 0 -26.166 -1.33301 -32.499 -4s-10.166 -5.66699 -11.499 -9c-1.33301 -2 -2 -3.83301 -2 -5.5v-4.5v-0.5v-0.5v-232
c16.667 5.33691 33.834 10.1699 51.501 14.5c17.667 4.33301 35.5 7.83301 53.5 10.5c9.33301 1.33301 18.5 2.33301 27.5 3s17.833 1 26.5 1c94 0 165.667 -21.667 215 -65s74 -93 74 -149v-4.5v-5.5c-2 -43.333 -16.667 -84.833 -44 -124.5
c-27.335 -39.667 -67.668 -68.834 -121 -87.501c-10.667 -2.66699 -23 -5 -37 -7s-28.667 -3 -44 -3c-6 0 -12.167 0.166992 -18.5 0.5s-12.5 1.16602 -18.5 2.49902c-14.667 2 -29.334 5.83301 -44.001 11.5c-14.668 5.66699 -28.335 13.834 -41.001 24.501
c-5.33301 5.33301 -9.83301 11 -13.5 17s-6.5 12 -8.5 18c-1.33301 4.66699 -2.5 9.5 -3.5 14.5s-1.5 9.83301 -1.5 14.5c0 12.667 3.66699 24 11 34s16.333 15 27 15c4 0 8.16699 -0.333008 12.5 -1s8.83301 -1.33398 13.5 -2.00098
c11.333 -3.33301 22 -9.16602 32 -17.499s15 -20.5 15 -36.5c0 -4 -0.5 -8 -1.5 -12l-3.5 -14c3.33301 -14 9.33301 -24.333 18 -31c8.6709 -6.66699 21.3379 -10 38 -10c36 0 65.667 18.167 89 54.5s35 86.833 35 151.5c0 68 -19.5 114.333 -58.5 139
s-81.833 37.667 -128.5 39h-5.5h-5.5c-24.668 0 -48.835 -2.16699 -72.501 -6.5c-23.667 -4.33301 -43.834 -8.83301 -60.5 -13.5c-1.33301 -0.666992 -2.66602 -1.16699 -3.99902 -1.5s-2.66602 -0.833008 -3.99902 -1.5v-309c0 -17.333 3.5 -29.166 10.5 -35.499
s15.167 -9.5 24.5 -9.5h1.5h1.5v-28h-226v28h57c2 0 4.5 0.166992 7.5 0.5s6.16699 1.16602 9.5 2.49902c5.33301 2 10.333 6 15 12s7 16 7 30v569c0 10 -4 16.5 -12 19.5s-19.667 4.5 -35 4.5c-7.33301 0 -15 -0.5 -23 -1.5s-16 -2.5 -24 -4.5
c-23.333 -5.33789 -46 -14.6709 -68 -27.999c-22 -13.333 -39.333 -30.333 -52 -51v-43h-34v156h588v-156v0z" />
    <glyph glyph-name="asciitilde" horiz-adv-x="558" 
d="M162 61v570.999c0 9.33301 -3.5 17.333 -10.5 24s-16.167 10 -27.5 10h-57v28h488l3 -145h-29v42c-9.33496 14.6709 -26.335 27.3379 -51 38c-24.667 10.6719 -51 19.3389 -79 26.001c-16.667 3.33301 -33 6 -49 8s-30.333 3 -43 3h-15
c-11.333 0 -20.5 -3.33301 -27.5 -10s-10.5 -14.667 -10.5 -24v-571c0 -2 0.333008 -4.33301 1 -7s1.66699 -5.33398 3 -8.00098c2 -4.66699 5.66699 -8.83398 11 -12.501s13 -5.5 23 -5.5h57v-28h-282v28h57c10 0 17.667 1.83301 23 5.5s9 7.83398 11 12.501
c1.33301 2.66699 2.33301 5.33398 3 8.00098s1 5 1 7v0z" />
    <glyph glyph-name="asciitilde" unicode="&#x403;" horiz-adv-x="558" 
d="M162 61v570.999c0 9.33301 -3.5 17.333 -10.5 24s-16.167 10 -27.5 10h-57v28h488l3 -145h-29v42c-9.33496 14.6709 -26.335 27.3379 -51 38c-24.667 10.6719 -51 19.3389 -79 26.001c-16.667 3.33301 -33 6 -49 8s-30.333 3 -43 3h-15
c-11.333 0 -20.5 -3.33301 -27.5 -10s-10.5 -14.667 -10.5 -24v-571c0 -2 0.333008 -4.33301 1 -7s1.66699 -5.33398 3 -8.00098c2 -4.66699 5.66699 -8.83398 11 -12.501s13 -5.5 23 -5.5h57v-28h-282v28h57c10 0 17.667 1.83301 23 5.5s9 7.83398 11 12.501
c1.33301 2.66699 2.33301 5.33398 3 8.00098s1 5 1 7v0z" />
    <glyph glyph-name="D" horiz-adv-x="769" 
d="M254 393l98.001 0.00390625c5.33398 0 10.667 0.333008 16 1c5.33398 0.666992 10.667 1.66699 16 3c14.667 4.66699 29.834 16.167 45.501 34.5s34.5 49.833 56.5 94.5c16.667 33.333 31.334 61.5 44.001 84.5s25 41.833 37 56.5c12 14 24.333 24.333 37 31
c12.668 6.66699 27.335 10 44 10c24 0 41.667 -6.33301 53 -19s17.333 -26.334 18 -41.001v-1.5v-1.5c0 -2 -0.166992 -4 -0.5 -6s-0.5 -4 -0.5 -6c-2.66699 -10 -8.16699 -19.167 -16.5 -27.5s-19.833 -12.5 -34.5 -12.5s-26.334 5 -35.001 15s-13 21 -13 33
c0 2.66699 0.166992 5.16699 0.5 7.5s0.833008 4.83301 1.5 7.5c0.666992 1.33301 1 2.83301 1 4.5v4.5c0 3.33301 -0.5 5.33301 -1.5 6s-2.5 1 -4.5 1c-2.66699 0 -9.33398 -4.5 -20.001 -13.5s-23.334 -35.833 -38.001 -80.5c-4 -11.333 -9 -25 -15 -41
s-14 -32.667 -24 -50c-13.333 -22 -30.166 -43 -50.499 -63s-46.166 -34.667 -77.499 -44c58 -14 103.333 -37.333 136 -70s58.667 -67 78 -103c8 -16 15.167 -31.5 21.5 -46.5s12.166 -29.5 17.499 -43.5c6.67676 -16 12.3438 -29.833 17 -41.5
c4.66699 -11.667 9 -20.834 13 -27.501s7.83301 -11.5 11.5 -14.5s8.16699 -4.5 13.5 -4.5c7.33301 0 13.5 3.66699 18.5 11s8.16699 15.333 9.5 24c0 1.33301 0.166992 2.83301 0.5 4.5s0.5 3.16699 0.5 4.5h27c-2.66699 -34.667 -12.667 -57.667 -30 -69
c-17.3359 -11.333 -36.6689 -17 -58 -17c-30 0 -54.333 10.667 -73 32s-36.334 48.666 -53.001 81.999c-5.33301 11.333 -10.833 23 -16.5 35s-11.5 24.333 -17.5 37c-11.333 23.333 -21.333 44.666 -30 63.999c-8.66699 19.334 -17 36.667 -25 52
c-13.333 23.333 -27.333 41.333 -42 54s-34 19 -58 19h-98v-289c0.00195312 -16 2.66895 -27 8 -33c5.33301 -6 11 -9.66699 17 -11c2.66699 -0.666992 5 -1 7 -1h6h57v-28h-282v28h57h6c2 0 4.33301 0.333008 7 1c6 1.33301 11.667 5 17 11s8 17 8 33v548
c0 16 -2.66699 27 -8 33s-11 9.66699 -17 11c-2.66699 0.666992 -5 1 -7 1h-6h-57v28h282v-28h-57h-6c-2 0 -4.33301 -0.333008 -7 -1c-6 -1.33301 -11.667 -5 -17 -11s-8 -17 -8 -33v-228v0z" />
    <glyph glyph-name="D" unicode="&#x40c;" horiz-adv-x="769" 
d="M254 393l98.001 0.00390625c5.33398 0 10.667 0.333008 16 1c5.33398 0.666992 10.667 1.66699 16 3c14.667 4.66699 29.834 16.167 45.501 34.5s34.5 49.833 56.5 94.5c16.667 33.333 31.334 61.5 44.001 84.5s25 41.833 37 56.5c12 14 24.333 24.333 37 31
c12.668 6.66699 27.335 10 44 10c24 0 41.667 -6.33301 53 -19s17.333 -26.334 18 -41.001v-1.5v-1.5c0 -2 -0.166992 -4 -0.5 -6s-0.5 -4 -0.5 -6c-2.66699 -10 -8.16699 -19.167 -16.5 -27.5s-19.833 -12.5 -34.5 -12.5s-26.334 5 -35.001 15s-13 21 -13 33
c0 2.66699 0.166992 5.16699 0.5 7.5s0.833008 4.83301 1.5 7.5c0.666992 1.33301 1 2.83301 1 4.5v4.5c0 3.33301 -0.5 5.33301 -1.5 6s-2.5 1 -4.5 1c-2.66699 0 -9.33398 -4.5 -20.001 -13.5s-23.334 -35.833 -38.001 -80.5c-4 -11.333 -9 -25 -15 -41
s-14 -32.667 -24 -50c-13.333 -22 -30.166 -43 -50.499 -63s-46.166 -34.667 -77.499 -44c58 -14 103.333 -37.333 136 -70s58.667 -67 78 -103c8 -16 15.167 -31.5 21.5 -46.5s12.166 -29.5 17.499 -43.5c6.67676 -16 12.3438 -29.833 17 -41.5
c4.66699 -11.667 9 -20.834 13 -27.501s7.83301 -11.5 11.5 -14.5s8.16699 -4.5 13.5 -4.5c7.33301 0 13.5 3.66699 18.5 11s8.16699 15.333 9.5 24c0 1.33301 0.166992 2.83301 0.5 4.5s0.5 3.16699 0.5 4.5h27c-2.66699 -34.667 -12.667 -57.667 -30 -69
c-17.3359 -11.333 -36.6689 -17 -58 -17c-30 0 -54.333 10.667 -73 32s-36.334 48.666 -53.001 81.999c-5.33301 11.333 -10.833 23 -16.5 35s-11.5 24.333 -17.5 37c-11.333 23.333 -21.333 44.666 -30 63.999c-8.66699 19.334 -17 36.667 -25 52
c-13.333 23.333 -27.333 41.333 -42 54s-34 19 -58 19h-98v-289c0.00195312 -16 2.66895 -27 8 -33c5.33301 -6 11 -9.66699 17 -11c2.66699 -0.666992 5 -1 7 -1h6h57v-28h-282v28h57h6c2 0 4.33301 0.333008 7 1c6 1.33301 11.667 5 17 11s8 17 8 33v548
c0 16 -2.66699 27 -8 33s-11 9.66699 -17 11c-2.66699 0.666992 -5 1 -7 1h-6h-57v28h282v-28h-57h-6c-2 0 -4.33301 -0.333008 -7 -1c-6 -1.33301 -11.667 -5 -17 -11s-8 -17 -8 -33v-228v0z" />
    <glyph glyph-name="N" horiz-adv-x="875" 
d="M619 538l-34.0068 -0.00195312v43c-12 20 -28.667 36.5 -50 49.5c-21.334 13 -43.334 22.5 -66 28.5c-8.66699 2 -17.5 3.66699 -26.5 5s-17.5 2 -25.5 2c-15.333 0 -26.166 -1.33301 -32.499 -4s-10.166 -5.66699 -11.499 -9c-1.33301 -2 -2 -3.83301 -2 -5.5v-4.5v-0.5
v-0.5v-278c28 16.667 59.167 31.334 93.5 44.001s69.5 21 105.5 25c6.66699 0.666992 13.167 1.16699 19.5 1.5s12.833 0.5 19.5 0.5c46 0 78.333 -9.66699 97 -29c18.6719 -19.333 30.3389 -40.666 35 -63.999c2 -9.33301 3.33301 -18.333 4 -27s1 -17 1 -25v-217
c0 -16 2.66699 -27 8 -33s11 -9.66699 17 -11c2.66699 -0.666992 5 -1 7 -1h6h57v-28h-275v28h50h4.5c1.66699 0 3.5 0.333008 5.5 1c6.67188 0.666992 12.8389 4 18.501 10c5.67188 6 8.83887 17.333 9.50098 34v233c0 4.66699 -0.333008 9.66699 -1 15
c-0.666992 5.33594 -1.66699 10.6689 -3 16c-4 13.335 -13 25.668 -27 37c-14 11.333 -37 17 -69 17c-15.334 0 -35.667 -2.5 -60.999 -7.5c-25.333 -5 -51.666 -13.833 -78.999 -26.5c-7.33301 -2.66699 -14.666 -6 -21.999 -10s-14.333 -8 -21 -12v-262
c0 -16 2.66699 -27 8 -33s11 -9.66699 17 -11c2.66699 -0.666992 5 -1 7 -1h6h57v-28h-283v28h57c2 0 4.5 0.166992 7.5 0.5s6.16699 1.16602 9.5 2.49902c5.33301 2 10.333 6 15 12s7 16 7 30v569c0 10 -4 16.5 -12 19.5s-19.667 4.5 -35 4.5c-7.33301 0 -15 -0.5 -23 -1.5
s-16 -2.5 -24 -4.5c-23.333 -5.33789 -46 -14.6709 -68 -27.999c-22 -13.333 -39.333 -30.333 -52 -51v-43h-34v156h588v-156v0z" />
    <glyph glyph-name="N" unicode="&#x40b;" horiz-adv-x="875" 
d="M619 538l-34.0068 -0.00195312v43c-12 20 -28.667 36.5 -50 49.5c-21.334 13 -43.334 22.5 -66 28.5c-8.66699 2 -17.5 3.66699 -26.5 5s-17.5 2 -25.5 2c-15.333 0 -26.166 -1.33301 -32.499 -4s-10.166 -5.66699 -11.499 -9c-1.33301 -2 -2 -3.83301 -2 -5.5v-4.5v-0.5
v-0.5v-278c28 16.667 59.167 31.334 93.5 44.001s69.5 21 105.5 25c6.66699 0.666992 13.167 1.16699 19.5 1.5s12.833 0.5 19.5 0.5c46 0 78.333 -9.66699 97 -29c18.6719 -19.333 30.3389 -40.666 35 -63.999c2 -9.33301 3.33301 -18.333 4 -27s1 -17 1 -25v-217
c0 -16 2.66699 -27 8 -33s11 -9.66699 17 -11c2.66699 -0.666992 5 -1 7 -1h6h57v-28h-275v28h50h4.5c1.66699 0 3.5 0.333008 5.5 1c6.67188 0.666992 12.8389 4 18.501 10c5.67188 6 8.83887 17.333 9.50098 34v233c0 4.66699 -0.333008 9.66699 -1 15
c-0.666992 5.33594 -1.66699 10.6689 -3 16c-4 13.335 -13 25.668 -27 37c-14 11.333 -37 17 -69 17c-15.334 0 -35.667 -2.5 -60.999 -7.5c-25.333 -5 -51.666 -13.833 -78.999 -26.5c-7.33301 -2.66699 -14.666 -6 -21.999 -10s-14.333 -8 -21 -12v-262
c0 -16 2.66699 -27 8 -33s11 -9.66699 17 -11c2.66699 -0.666992 5 -1 7 -1h6h57v-28h-283v28h57c2 0 4.5 0.166992 7.5 0.5s6.16699 1.16602 9.5 2.49902c5.33301 2 10.333 6 15 12s7 16 7 30v569c0 10 -4 16.5 -12 19.5s-19.667 4.5 -35 4.5c-7.33301 0 -15 -0.5 -23 -1.5
s-16 -2.5 -24 -4.5c-23.333 -5.33789 -46 -14.6709 -68 -27.999c-22 -13.333 -39.333 -30.333 -52 -51v-43h-34v156h588v-156v0z" />
    <glyph glyph-name="bullet" horiz-adv-x="807" 
d="M377 0l-310.001 0.00292969v28h57h6c2 0 4.33301 0.333008 7 1c6 1.33301 11.667 5 17 11s8 17 8 33v549c-0.666992 14 -3.5 25 -8.5 33s-14.833 12 -29.5 12h-57v27h282v-27h-57c-11.333 0 -20.5 -3.33301 -27.5 -10s-10.5 -18.334 -10.5 -35.001v-549
c0.666992 -16.667 3.83398 -28 9.50098 -34s11.834 -9.33301 18.501 -10c2 -0.666992 3.83301 -1 5.5 -1h4.5h238h6c2 0 4.33301 0.333008 7 1c6 1.33301 11.667 5 17 11s8 17 8 33v549c-0.666992 14 -3.33398 25 -8.00098 33s-14.667 12 -30 12h-57v27h282v-27h-57
c-11.333 0 -20.5 -3.33301 -27.5 -10s-10.5 -18.334 -10.5 -35.001v-549c0.676758 -16.667 3.84375 -28 9.5 -34c5.67676 -6 11.8438 -9.33301 18.5 -10c2 -0.666992 3.83301 -1 5.5 -1h4.5h57v-28h-325l32 -196c-4.66699 -2 -9.5 -3.83301 -14.5 -5.5
s-9.83301 -3.16699 -14.5 -4.5c-5.33301 -0.666992 -10.333 -1.33398 -15 -2.00098s-9.66699 -1 -15 -1c-10 0 -19.833 1.16699 -29.5 3.5s-19.167 5.83301 -28.5 10.5l32 195v0z" />
    <glyph glyph-name="bullet" unicode="&#x40f;" horiz-adv-x="807" 
d="M377 0l-310.001 0.00292969v28h57h6c2 0 4.33301 0.333008 7 1c6 1.33301 11.667 5 17 11s8 17 8 33v549c-0.666992 14 -3.5 25 -8.5 33s-14.833 12 -29.5 12h-57v27h282v-27h-57c-11.333 0 -20.5 -3.33301 -27.5 -10s-10.5 -18.334 -10.5 -35.001v-549
c0.666992 -16.667 3.83398 -28 9.50098 -34s11.834 -9.33301 18.501 -10c2 -0.666992 3.83301 -1 5.5 -1h4.5h238h6c2 0 4.33301 0.333008 7 1c6 1.33301 11.667 5 17 11s8 17 8 33v549c-0.666992 14 -3.33398 25 -8.00098 33s-14.667 12 -30 12h-57v27h282v-27h-57
c-11.333 0 -20.5 -3.33301 -27.5 -10s-10.5 -18.334 -10.5 -35.001v-549c0.676758 -16.667 3.84375 -28 9.5 -34c5.67676 -6 11.8438 -9.33301 18.5 -10c2 -0.666992 3.83301 -1 5.5 -1h4.5h57v-28h-325l32 -196c-4.66699 -2 -9.5 -3.83301 -14.5 -5.5
s-9.83301 -3.16699 -14.5 -4.5c-5.33301 -0.666992 -10.333 -1.33398 -15 -2.00098s-9.66699 -1 -15 -1c-10 0 -19.833 1.16699 -29.5 3.5s-19.167 5.83301 -28.5 10.5l32 195v0z" />
    <glyph glyph-name="guilsinglleft" horiz-adv-x="579" 
d="M125 610l-0.000976562 55.9961v1.5v0.5v3.5v3.5c-0.666992 4 -2.66699 8 -6 12s-10.333 6.66699 -21 8c-0.666992 0 -3.16699 0.166992 -7.5 0.5s-8.83301 0.5 -13.5 0.5h-1h-1c-4.66699 0 -9.16699 0.166992 -13.5 0.5l-6.5 0.5v19c8 0.688477 16.333 1.85547 25 3.5
c8.66699 1.66699 17.334 3.5 26.001 5.5c9.33301 2.66699 18.333 5.16699 27 7.5s17 4.83301 25 7.5c8.66699 3.33301 16.667 6.33301 24 9s13.666 5 18.999 7v-146h188v-30h-188v-148c24 15.333 45.5 25.833 64.5 31.5s36.167 8.83398 51.5 9.50098
c3.33301 0.666992 6.83301 1 10.5 1h10.5c69.333 -0.666992 120.833 -31.334 154.5 -92c33.667 -60.667 50.5 -134.667 50.5 -222c0 -98.667 -20.167 -182.5 -60.5 -251.5s-87.833 -103.5 -142.5 -103.5c-28.667 0 -53.834 8.66699 -75.5 26
c-21.667 17.333 -32.5 37.333 -32.5 60c0 10.667 3.16699 19.667 9.5 27s13.166 12 20.499 14c1.33398 0 2.66699 0.166992 4 0.5c1.33398 0.333008 2.66699 0.5 3.99902 0.5h2.5h2.5c11.334 -1.33301 21.667 -5.5 30.999 -12.5c9.33301 -7 14 -17.5 14 -31.5v-3.5
c0 -1 -0.333008 -2.16699 -1 -3.5c0 -1.33301 -0.166992 -2.5 -0.5 -3.5s-0.5 -2.16699 -0.5 -3.5s-0.166992 -2.66602 -0.5 -3.99902c-0.333008 -1.33203 -0.5 -2.66504 -0.5 -3.99902v-4v-4c0 -7.33301 3 -13.5 9 -18.5s12.667 -8.16699 20 -9.5h2.5h2.5
c4.66699 0 9.33398 0.833008 14.001 2.5s9.33398 4.16699 14.001 7.5c19.333 14 37 45.333 53 94s24 122.667 24 222v17.5c0 5.66699 -0.333008 11.5 -1 17.5c-3.33301 62 -17.166 118.667 -41.499 170s-65.166 77 -122.499 77c-15.333 0 -30.5 -2.5 -45.5 -7.5
s-29.833 -12.833 -44.5 -23.5v-362v-0.5v-1.5c0 -6.66699 1.5 -12 4.5 -16s13.5 -6 31.5 -6h39v-22h-226v22h38c14 0 23.667 1.33301 29 4s8 9.33398 8 20.001v534h-97v30h97v0z" />
    <glyph glyph-name="guilsinglleft" unicode="&#x452;" horiz-adv-x="579" 
d="M125 610l-0.000976562 55.9961v1.5v0.5v3.5v3.5c-0.666992 4 -2.66699 8 -6 12s-10.333 6.66699 -21 8c-0.666992 0 -3.16699 0.166992 -7.5 0.5s-8.83301 0.5 -13.5 0.5h-1h-1c-4.66699 0 -9.16699 0.166992 -13.5 0.5l-6.5 0.5v19c8 0.688477 16.333 1.85547 25 3.5
c8.66699 1.66699 17.334 3.5 26.001 5.5c9.33301 2.66699 18.333 5.16699 27 7.5s17 4.83301 25 7.5c8.66699 3.33301 16.667 6.33301 24 9s13.666 5 18.999 7v-146h188v-30h-188v-148c24 15.333 45.5 25.833 64.5 31.5s36.167 8.83398 51.5 9.50098
c3.33301 0.666992 6.83301 1 10.5 1h10.5c69.333 -0.666992 120.833 -31.334 154.5 -92c33.667 -60.667 50.5 -134.667 50.5 -222c0 -98.667 -20.167 -182.5 -60.5 -251.5s-87.833 -103.5 -142.5 -103.5c-28.667 0 -53.834 8.66699 -75.5 26
c-21.667 17.333 -32.5 37.333 -32.5 60c0 10.667 3.16699 19.667 9.5 27s13.166 12 20.499 14c1.33398 0 2.66699 0.166992 4 0.5c1.33398 0.333008 2.66699 0.5 3.99902 0.5h2.5h2.5c11.334 -1.33301 21.667 -5.5 30.999 -12.5c9.33301 -7 14 -17.5 14 -31.5v-3.5
c0 -1 -0.333008 -2.16699 -1 -3.5c0 -1.33301 -0.166992 -2.5 -0.5 -3.5s-0.5 -2.16699 -0.5 -3.5s-0.166992 -2.66602 -0.5 -3.99902c-0.333008 -1.33203 -0.5 -2.66504 -0.5 -3.99902v-4v-4c0 -7.33301 3 -13.5 9 -18.5s12.667 -8.16699 20 -9.5h2.5h2.5
c4.66699 0 9.33398 0.833008 14.001 2.5s9.33398 4.16699 14.001 7.5c19.333 14 37 45.333 53 94s24 122.667 24 222v17.5c0 5.66699 -0.333008 11.5 -1 17.5c-3.33301 62 -17.166 118.667 -41.499 170s-65.166 77 -122.499 77c-15.333 0 -30.5 -2.5 -45.5 -7.5
s-29.833 -12.833 -44.5 -23.5v-362v-0.5v-1.5c0 -6.66699 1.5 -12 4.5 -16s13.5 -6 31.5 -6h39v-22h-226v22h38c14 0 23.667 1.33301 29 4s8 9.33398 8 20.001v534h-97v30h97v0z" />
    <glyph glyph-name="O" horiz-adv-x="546" 
d="M182 259l55.998 -0.00195312c23.333 0 40.833 9.16699 52.5 27.5s21.5 38.5 29.5 60.5c0.666992 0.666992 1.16699 1.5 1.5 2.5s0.5 2.16699 0.5 3.5c0.666992 0.666992 1.16699 1.33398 1.5 2.00098s0.5 1.33398 0.5 2.00098c10 24 19.333 43.5 28 58.5
s17.334 26.5 26.001 34.5c9.33301 9.33301 18.833 15.5 28.5 18.5s19.834 4.5 30.501 4.5c14.667 0 26 -3 34 -9s13.667 -12.667 17 -20c1.33301 -3.33301 2.33301 -6.66602 3 -9.99902s1 -6.33301 1 -9v-4c0 -1.33301 -0.333008 -3 -1 -5c-1.33301 -8 -5 -15.5 -11 -22.5
s-15.667 -10.5 -29 -10.5c-10 0 -18 2.33301 -24 7s-10.333 9.66699 -13 15c-0.672852 2.66699 -1.33984 5.16699 -2 7.5c-0.666992 2.33301 -1 4.5 -1 6.5v6c0 2 0.333008 4 1 6c0.666992 1.33301 1 2.83301 1 4.5v4.5c0 1.33301 -0.333008 2.33301 -1 3s-1.66699 1 -3 1
h-0.5h-1.5c-2.66699 0 -6.16699 -4 -10.5 -12s-12.166 -29 -23.499 -63c-12.667 -38 -26.834 -65.5 -42.5 -82.5c-15.667 -17 -36.834 -30.167 -63.5 -39.5c44 -10.667 76.833 -28.334 98.5 -53.001s41.167 -54.334 58.5 -89.001c2 -4 4 -8.16699 6 -12.5s4 -8.5 6 -12.5
c1.33691 -2.66699 2.66992 -6 4 -10c1.33301 -4 3 -7.66699 5 -11c3.33301 -8 7.33301 -15.167 12 -21.5s10 -9.5 16 -9.5c5.33301 0 10 2.66699 14 8s6.66699 11.333 8 18v1.5v1.5c0 1.33301 0.166992 2.33301 0.5 3s0.5 1.33398 0.5 2.00098v1.5v1.5
c0.666992 0.666992 1 1.5 1 2.5s0.333008 2.16699 1 3.5h20v-8c0 -20 -5.83301 -37.167 -17.5 -51.5s-28.167 -21.5 -49.5 -21.5c-31.333 0 -56.833 14.333 -76.5 43s-37.167 60 -52.5 94c-3.33301 7.33301 -6.5 14.666 -9.5 21.999s-6.16699 14.333 -9.5 21
c-1.33301 2.66699 -2.5 5.16699 -3.5 7.5s-2.16699 4.83301 -3.5 7.5c-6.66699 12.667 -15.667 24.5 -27 35.5s-27.333 16.5 -48 16.5h-39v-191c0 -10.667 3.33301 -17.334 10 -20.001s15.334 -4 26 -4h39v-22h-226v22h39c11.333 0 20.166 1.33301 26.499 4
s9.5 9.33398 9.5 20.001v370c0 10.667 -3.16699 17.334 -9.5 20.001s-15.166 4 -26.499 4h-39v22h226v-22h-39c-10.667 0 -19.334 -1.33301 -26.001 -4c-6.66699 -2.66992 -10 -9.33691 -10 -20v-157v0z" />
    <glyph glyph-name="O" unicode="&#x45c;" horiz-adv-x="546" 
d="M182 259l55.998 -0.00195312c23.333 0 40.833 9.16699 52.5 27.5s21.5 38.5 29.5 60.5c0.666992 0.666992 1.16699 1.5 1.5 2.5s0.5 2.16699 0.5 3.5c0.666992 0.666992 1.16699 1.33398 1.5 2.00098s0.5 1.33398 0.5 2.00098c10 24 19.333 43.5 28 58.5
s17.334 26.5 26.001 34.5c9.33301 9.33301 18.833 15.5 28.5 18.5s19.834 4.5 30.501 4.5c14.667 0 26 -3 34 -9s13.667 -12.667 17 -20c1.33301 -3.33301 2.33301 -6.66602 3 -9.99902s1 -6.33301 1 -9v-4c0 -1.33301 -0.333008 -3 -1 -5c-1.33301 -8 -5 -15.5 -11 -22.5
s-15.667 -10.5 -29 -10.5c-10 0 -18 2.33301 -24 7s-10.333 9.66699 -13 15c-0.672852 2.66699 -1.33984 5.16699 -2 7.5c-0.666992 2.33301 -1 4.5 -1 6.5v6c0 2 0.333008 4 1 6c0.666992 1.33301 1 2.83301 1 4.5v4.5c0 1.33301 -0.333008 2.33301 -1 3s-1.66699 1 -3 1
h-0.5h-1.5c-2.66699 0 -6.16699 -4 -10.5 -12s-12.166 -29 -23.499 -63c-12.667 -38 -26.834 -65.5 -42.5 -82.5c-15.667 -17 -36.834 -30.167 -63.5 -39.5c44 -10.667 76.833 -28.334 98.5 -53.001s41.167 -54.334 58.5 -89.001c2 -4 4 -8.16699 6 -12.5s4 -8.5 6 -12.5
c1.33691 -2.66699 2.66992 -6 4 -10c1.33301 -4 3 -7.66699 5 -11c3.33301 -8 7.33301 -15.167 12 -21.5s10 -9.5 16 -9.5c5.33301 0 10 2.66699 14 8s6.66699 11.333 8 18v1.5v1.5c0 1.33301 0.166992 2.33301 0.5 3s0.5 1.33398 0.5 2.00098v1.5v1.5
c0.666992 0.666992 1 1.5 1 2.5s0.333008 2.16699 1 3.5h20v-8c0 -20 -5.83301 -37.167 -17.5 -51.5s-28.167 -21.5 -49.5 -21.5c-31.333 0 -56.833 14.333 -76.5 43s-37.167 60 -52.5 94c-3.33301 7.33301 -6.5 14.666 -9.5 21.999s-6.16699 14.333 -9.5 21
c-1.33301 2.66699 -2.5 5.16699 -3.5 7.5s-2.16699 4.83301 -3.5 7.5c-6.66699 12.667 -15.667 24.5 -27 35.5s-27.333 16.5 -48 16.5h-39v-191c0 -10.667 3.33301 -17.334 10 -20.001s15.334 -4 26 -4h39v-22h-226v22h39c11.333 0 20.166 1.33301 26.499 4
s9.5 9.33398 9.5 20.001v370c0 10.667 -3.16699 17.334 -9.5 20.001s-15.166 4 -26.499 4h-39v22h226v-22h-39c-10.667 0 -19.334 -1.33301 -26.001 -4c-6.66699 -2.66992 -10 -9.33691 -10 -20v-157v0z" />
    <glyph glyph-name="tilde" horiz-adv-x="587" 
d="M125 610l-0.00292969 55.998v1.5v0.5v3.5v3.5c-0.666992 4 -2.66699 8 -6 12s-10.333 6.66699 -21 8c-0.666992 0 -3.16699 0.166992 -7.5 0.5s-8.83301 0.5 -13.5 0.5h-1h-1c-4.66699 0 -9.16699 0.166992 -13.5 0.5l-6.5 0.5v19c8 0.688477 16.333 1.85547 25 3.5
c8.66699 1.66699 17.334 3.5 26.001 5.5c9.33301 2.66699 18.333 5.16699 27 7.5s17 4.83301 25 7.5c8.66699 3.33301 16.667 6.33301 24 9s13.666 5 18.999 7v-146h188v-30h-188v-148c11.333 7.33301 22.333 13.5 33 18.5s21.334 9.16699 32 12.5
c10.667 3.33301 21.334 5.83301 32.001 7.5s21.667 2.5 33 2.5c42.667 0 74.334 -10.5 95.001 -31.5s35 -43.833 43 -68.5c6 -18 9.5 -35.333 10.5 -52s1.5 -29.334 1.5 -38v-237v-0.5v-1.5c0 -6.66699 1.5 -12 4.5 -16s13.5 -6 31.5 -6h39v-22h-226v22h38
c14 0 23.667 1.33301 29 4s8 9.33398 8 20.001v263c0 35.333 -6 62 -18 80s-25.333 30.667 -40 38c-11.333 5.33691 -22 8.66992 -32 10c-10 1.33301 -17.333 2 -22 2c-11.333 0 -21.833 -1 -31.5 -3s-19.167 -5 -28.5 -9c-5.33398 -2.66699 -10.667 -5.5 -15.999 -8.5
c-5.33398 -3 -10.667 -6.5 -16 -10.5v-362v-0.5v-1.5c0 -6.66699 1.5 -12 4.5 -16s13.5 -6 31.5 -6h39v-22h-226v22h38c14 0 23.667 1.33301 29 4s8 9.33398 8 20.001v534h-97v30h97v0z" />
    <glyph glyph-name="tilde" unicode="&#x45b;" horiz-adv-x="587" 
d="M125 610l-0.00292969 55.998v1.5v0.5v3.5v3.5c-0.666992 4 -2.66699 8 -6 12s-10.333 6.66699 -21 8c-0.666992 0 -3.16699 0.166992 -7.5 0.5s-8.83301 0.5 -13.5 0.5h-1h-1c-4.66699 0 -9.16699 0.166992 -13.5 0.5l-6.5 0.5v19c8 0.688477 16.333 1.85547 25 3.5
c8.66699 1.66699 17.334 3.5 26.001 5.5c9.33301 2.66699 18.333 5.16699 27 7.5s17 4.83301 25 7.5c8.66699 3.33301 16.667 6.33301 24 9s13.666 5 18.999 7v-146h188v-30h-188v-148c11.333 7.33301 22.333 13.5 33 18.5s21.334 9.16699 32 12.5
c10.667 3.33301 21.334 5.83301 32.001 7.5s21.667 2.5 33 2.5c42.667 0 74.334 -10.5 95.001 -31.5s35 -43.833 43 -68.5c6 -18 9.5 -35.333 10.5 -52s1.5 -29.334 1.5 -38v-237v-0.5v-1.5c0 -6.66699 1.5 -12 4.5 -16s13.5 -6 31.5 -6h39v-22h-226v22h38
c14 0 23.667 1.33301 29 4s8 9.33398 8 20.001v263c0 35.333 -6 62 -18 80s-25.333 30.667 -40 38c-11.333 5.33691 -22 8.66992 -32 10c-10 1.33301 -17.333 2 -22 2c-11.333 0 -21.833 -1 -31.5 -3s-19.167 -5 -28.5 -9c-5.33398 -2.66699 -10.667 -5.5 -15.999 -8.5
c-5.33398 -3 -10.667 -6.5 -16 -10.5v-362v-0.5v-1.5c0 -6.66699 1.5 -12 4.5 -16s13.5 -6 31.5 -6h39v-22h-226v22h38c14 0 23.667 1.33301 29 4s8 9.33398 8 20.001v534h-97v30h97v0z" />
    <glyph glyph-name="greater" unicode="&#xa0;" 
 />
    <glyph glyph-name="Z" unicode="&#xa1;" horiz-adv-x="787" 
d="M56 694l263.999 0.000976562v-27h-52c-6.66699 0 -11.667 -2 -15 -6s-5 -8.66699 -5 -14v-3c0 -1.33301 0.333008 -2.33301 1 -3c0 -1.33301 0.166992 -2.5 0.5 -3.5s0.833008 -2.16699 1.5 -3.5l201 -383c8.66699 17.334 16 32.167 22 44.499
c6 12.334 11.667 24.167 17 35.5c2.66699 4.66699 5.33398 9.66699 8.00098 15s5.33398 11 8.00098 17c37.333 73.333 64.333 133.5 81 180.5s25 81.833 25 104.5c0 9.33301 -2.5 14.833 -7.5 16.5s-10.5 2.5 -16.5 2.5h-1.5h-0.5h-51v27h217v-27h-32
c-6 -3.34375 -11.5 -7.17676 -16.5 -11.5c-5 -4.34277 -9.83301 -9.17578 -14.5 -14.499c-13.333 -16.667 -28.333 -41.167 -45 -73.5c-16.667 -32.334 -40.334 -79.501 -71.001 -141.501c-46 -90.667 -83.333 -165.667 -112 -225s-55.334 -105.666 -80 -138.999
c-20.667 -26.667 -41.834 -45.834 -63.5 -57.501c-21.667 -11.667 -47.834 -17.5 -78.5 -17.5c-31.333 0 -55.5 6.66699 -72.5 20s-28.5 28.333 -34.5 45c-1.33301 4.66699 -2.33301 9.16699 -3 13.5s-1 8.5 -1 12.5c0 18 5.5 31.667 16.5 41s23.167 14.666 36.5 15.999h4h4
c15.333 0 27.333 -5 36 -15s13 -22 13 -36v-5.5c0 -1.66699 -0.333008 -3.5 -1 -5.5c0 -2 -0.166992 -3.83301 -0.5 -5.5s-0.5 -3.5 -0.5 -5.5c-0.666992 -2 -1.16699 -3.83301 -1.5 -5.5s-0.5 -3.5 -0.5 -5.5v-5.5v-5.5v-1.5v-1.5c1.33301 -4 5 -8 11 -12s13.333 -6 22 -6
c24.667 0 46.667 10.333 66 31s36.333 43.334 51 68.001c2.66699 4.66699 5.5 9.66699 8.5 15s5.83301 10.333 8.5 15l-249 468c-1.33496 2.66699 -3.16797 6 -5.5 10c-2.33301 4 -5.5 8.33301 -9.5 13c-6 6.66699 -13.833 13 -23.5 19s-22.167 9 -37.5 9h-21v27v0z
M441.999 714.001c-54.667 0 -97.334 13.167 -128 39.5c-30.667 26.333 -46 55.833 -46 88.5c0 15.333 3.16699 27 9.5 35c6.33398 8 13.167 13.333 20.499 16c3.33301 1.33301 6.33301 2.16602 9 2.49902s5.33398 0.5 8.00098 0.5c14 0 24.833 -4.83301 32.5 -14.5
s11.834 -20.167 12.501 -31.5v-1.5v-1.5c0 -2 -0.166992 -3.83301 -0.5 -5.5s-0.5 -3.16699 -0.5 -4.5c-0.666992 -1.33301 -1.16699 -2.83301 -1.5 -4.5s-0.833008 -3.5 -1.5 -5.5c-2 -5.33301 -3.83301 -9.5 -5.5 -12.5s-3.16699 -5.5 -4.5 -7.5
c-2 -2.66699 -3.66699 -5.66699 -5 -9s-2 -7.33301 -2 -12c0 -2 1 -5 3 -9s5.33301 -8.33301 10 -13c7.33301 -6 18 -11.5 32 -16.5s33.333 -7.5 58 -7.5s44 2.5 58 7.5s24.333 10.5 31 16.5c5.33301 4.66699 8.83301 9 10.5 13s2.5 7 2.5 9
c0 4.66699 -0.666992 8.66699 -2 12s-3 6.33301 -5 9c0 0.666992 -0.166992 1.16699 -0.5 1.5l-1.5 1.5c-2 2.66699 -3.83301 6 -5.5 10s-3.16699 8.33301 -4.5 13c-0.666992 2.66699 -1.16699 5.16699 -1.5 7.5s-0.5 4.5 -0.5 6.5v1.5v1.5
c0.674805 11.333 4.8418 21.833 12.5 31.5c7.66699 9.66699 18.5 14.5 32.5 14.5c2.6709 0 5.33789 -0.166992 8 -0.5c2.66699 -0.360352 5.66699 -1.19336 9 -2.49902c7.33301 -2.66699 14.166 -8 20.499 -16s9.5 -19.667 9.5 -35c0 -32.667 -15.333 -62.167 -46 -88.5
s-73 -39.5 -127 -39.5v0z" />
    <glyph glyph-name="Z" unicode="&#x40e;" horiz-adv-x="787" 
d="M56 694l263.999 0.000976562v-27h-52c-6.66699 0 -11.667 -2 -15 -6s-5 -8.66699 -5 -14v-3c0 -1.33301 0.333008 -2.33301 1 -3c0 -1.33301 0.166992 -2.5 0.5 -3.5s0.833008 -2.16699 1.5 -3.5l201 -383c8.66699 17.334 16 32.167 22 44.499
c6 12.334 11.667 24.167 17 35.5c2.66699 4.66699 5.33398 9.66699 8.00098 15s5.33398 11 8.00098 17c37.333 73.333 64.333 133.5 81 180.5s25 81.833 25 104.5c0 9.33301 -2.5 14.833 -7.5 16.5s-10.5 2.5 -16.5 2.5h-1.5h-0.5h-51v27h217v-27h-32
c-6 -3.34375 -11.5 -7.17676 -16.5 -11.5c-5 -4.34277 -9.83301 -9.17578 -14.5 -14.499c-13.333 -16.667 -28.333 -41.167 -45 -73.5c-16.667 -32.334 -40.334 -79.501 -71.001 -141.501c-46 -90.667 -83.333 -165.667 -112 -225s-55.334 -105.666 -80 -138.999
c-20.667 -26.667 -41.834 -45.834 -63.5 -57.501c-21.667 -11.667 -47.834 -17.5 -78.5 -17.5c-31.333 0 -55.5 6.66699 -72.5 20s-28.5 28.333 -34.5 45c-1.33301 4.66699 -2.33301 9.16699 -3 13.5s-1 8.5 -1 12.5c0 18 5.5 31.667 16.5 41s23.167 14.666 36.5 15.999h4h4
c15.333 0 27.333 -5 36 -15s13 -22 13 -36v-5.5c0 -1.66699 -0.333008 -3.5 -1 -5.5c0 -2 -0.166992 -3.83301 -0.5 -5.5s-0.5 -3.5 -0.5 -5.5c-0.666992 -2 -1.16699 -3.83301 -1.5 -5.5s-0.5 -3.5 -0.5 -5.5v-5.5v-5.5v-1.5v-1.5c1.33301 -4 5 -8 11 -12s13.333 -6 22 -6
c24.667 0 46.667 10.333 66 31s36.333 43.334 51 68.001c2.66699 4.66699 5.5 9.66699 8.5 15s5.83301 10.333 8.5 15l-249 468c-1.33496 2.66699 -3.16797 6 -5.5 10c-2.33301 4 -5.5 8.33301 -9.5 13c-6 6.66699 -13.833 13 -23.5 19s-22.167 9 -37.5 9h-21v27v0z
M441.999 714.001c-54.667 0 -97.334 13.167 -128 39.5c-30.667 26.333 -46 55.833 -46 88.5c0 15.333 3.16699 27 9.5 35c6.33398 8 13.167 13.333 20.499 16c3.33301 1.33301 6.33301 2.16602 9 2.49902s5.33398 0.5 8.00098 0.5c14 0 24.833 -4.83301 32.5 -14.5
s11.834 -20.167 12.501 -31.5v-1.5v-1.5c0 -2 -0.166992 -3.83301 -0.5 -5.5s-0.5 -3.16699 -0.5 -4.5c-0.666992 -1.33301 -1.16699 -2.83301 -1.5 -4.5s-0.833008 -3.5 -1.5 -5.5c-2 -5.33301 -3.83301 -9.5 -5.5 -12.5s-3.16699 -5.5 -4.5 -7.5
c-2 -2.66699 -3.66699 -5.66699 -5 -9s-2 -7.33301 -2 -12c0 -2 1 -5 3 -9s5.33301 -8.33301 10 -13c7.33301 -6 18 -11.5 32 -16.5s33.333 -7.5 58 -7.5s44 2.5 58 7.5s24.333 10.5 31 16.5c5.33301 4.66699 8.83301 9 10.5 13s2.5 7 2.5 9
c0 4.66699 -0.666992 8.66699 -2 12s-3 6.33301 -5 9c0 0.666992 -0.166992 1.16699 -0.5 1.5l-1.5 1.5c-2 2.66699 -3.83301 6 -5.5 10s-3.16699 8.33301 -4.5 13c-0.666992 2.66699 -1.16699 5.16699 -1.5 7.5s-0.5 4.5 -0.5 6.5v1.5v1.5
c0.674805 11.333 4.8418 21.833 12.5 31.5c7.66699 9.66699 18.5 14.5 32.5 14.5c2.6709 0 5.33789 -0.166992 8 -0.5c2.66699 -0.360352 5.66699 -1.19336 9 -2.49902c7.33301 -2.66699 14.166 -8 20.499 -16s9.5 -19.667 9.5 -35c0 -32.667 -15.333 -62.167 -46 -88.5
s-73 -39.5 -127 -39.5v0z" />
    <glyph glyph-name="slash" unicode="&#xa2;" horiz-adv-x="538" 
d="M513 462l0.00195312 -22.0049h-15c-5.33301 0 -10.5 -1.16699 -15.5 -3.5s-9.83301 -6.16602 -14.5 -11.499c-16.668 -20 -36.835 -63.667 -60.501 -131c-23.667 -67.333 -65.167 -172 -124.5 -314c-4.66699 -10.667 -9 -21 -13 -31l-12 -30
c-18.667 -43.333 -39 -79.666 -61 -108.999s-52 -44 -90 -44c-24.667 0 -43.834 6.33301 -57.501 19s-21.5 26.667 -23.5 42v2.5v2.5c0 14.667 4.33301 26.167 13 34.5s18.667 12.5 30 12.5c12 0 21.167 -2.5 27.5 -7.5s10.833 -10.5 13.5 -16.5c2 -4 3.33301 -8 4 -12
s1 -7 1 -9s0.333008 -4 1 -6s1 -4 1 -6c1.33398 -4.66699 3.66699 -9.16699 7 -13.5s8.66602 -6.5 15.999 -6.5c2.66699 0 5.16699 0.333008 7.5 1s4.83301 1.66699 7.5 3c12 6.66602 24 19.333 36 38s23 38.334 33 59.001c8 18 15.333 35.333 22 52
c6.66797 16.667 11.668 29.334 15 38.001l-173 411c-0.666992 2 -1.83398 4.33301 -3.5 7c-1.66699 2.66699 -3.83398 5.33398 -6.5 8.00098c-4.66699 5.33691 -10.667 10.1699 -18 14.5c-7.33301 4.33301 -16 6.5 -26 6.5h-20v22h206v-22h-34
c-8.66699 0 -15.167 -1.83301 -19.5 -5.5c-4.33301 -3.66797 -6.5 -8.83496 -6.5 -15.5c0 -2 0.5 -4.16699 1.5 -6.5s1.83301 -5.16602 2.5 -8.49902l136 -321c37.333 99.333 62.333 170.666 75 213.999s20.334 73.333 23.001 90c0.666992 3.33301 1.16699 6.5 1.5 9.5
s0.5 5.83301 0.5 8.5v3.5c0 1 -0.333008 2.16699 -1 3.5c0 1.33301 -0.166992 2.5 -0.5 3.5s-0.5 2.16699 -0.5 3.5c-1.33301 6 -4 11 -8 15s-9.66699 6 -17 6h-32v22h172v0zM280.002 534.995c-37.333 0 -67.668 8.16992 -91.001 24.5029s-39.333 34.166 -48 53.499
c-3.33398 6 -5.66699 12.167 -6.99902 18.5c-1.33301 6.33301 -2 12.166 -2 17.499c0 15.333 4.5 27.666 13.5 36.999s20.833 14 35.5 14c12 0 21 -3.66699 27 -11s9.66699 -15.333 11 -24c0.666992 -1.33301 1 -2.83301 1 -4.5v-4.5c0 -3.33301 -0.666992 -6.5 -2 -9.5
c-1.33398 -3 -2.66699 -6.16699 -4 -9.5c-0.666992 -2 -1.66699 -3.83301 -3 -5.5s-2.33301 -3.16699 -3 -4.5c-3.33496 -5.33301 -6.16797 -10.333 -8.5 -15c-2.33301 -4.66699 -3.5 -9.33398 -3.5 -14.001c0 -1.33789 0.166992 -2.6709 0.5 -4
c0.333008 -1.33398 0.833008 -2.66699 1.5 -3.99902c4.66699 -8 14.167 -15.333 28.5 -22s32.166 -10 53.499 -10c22.667 0 41.167 3.33301 55.5 10s23.5 14 27.5 22c0.666992 1.33301 1.16699 2.66602 1.5 3.99902s0.5 2.66602 0.5 3.99902c0 4 -0.666992 7.83301 -2 11.5
c-1.33301 3.68555 -3 6.85254 -5 9.5c0 0.666992 -0.166992 1.16699 -0.5 1.5l-1.5 1.5l-1.5 1.5c-0.333008 0.333008 -0.5 0.833008 -0.5 1.5c-0.666992 0.675781 -1.16699 1.34277 -1.5 2c-0.333008 0.671875 -0.833008 1.33887 -1.5 2.00098c-2.66699 3.33301 -5 7 -7 11
s-3 9.33301 -3 16c0 15.333 4 26.5 12 33.5s17 10.5 27 10.5h1.5h1.5c11.333 -0.666992 21.833 -5 31.5 -13s14.5 -20.667 14.5 -38c0 -5.33301 -0.666992 -11.166 -2 -17.499s-3.66602 -12.5 -6.99902 -18.5c-8.66699 -19.3359 -24.667 -37.1689 -48 -53.5
c-23.333 -16.333 -54 -24.5 -92 -24.5v0z" />
    <glyph glyph-name="slash" unicode="&#x45e;" horiz-adv-x="538" 
d="M513 462l0.00195312 -22.0049h-15c-5.33301 0 -10.5 -1.16699 -15.5 -3.5s-9.83301 -6.16602 -14.5 -11.499c-16.668 -20 -36.835 -63.667 -60.501 -131c-23.667 -67.333 -65.167 -172 -124.5 -314c-4.66699 -10.667 -9 -21 -13 -31l-12 -30
c-18.667 -43.333 -39 -79.666 -61 -108.999s-52 -44 -90 -44c-24.667 0 -43.834 6.33301 -57.501 19s-21.5 26.667 -23.5 42v2.5v2.5c0 14.667 4.33301 26.167 13 34.5s18.667 12.5 30 12.5c12 0 21.167 -2.5 27.5 -7.5s10.833 -10.5 13.5 -16.5c2 -4 3.33301 -8 4 -12
s1 -7 1 -9s0.333008 -4 1 -6s1 -4 1 -6c1.33398 -4.66699 3.66699 -9.16699 7 -13.5s8.66602 -6.5 15.999 -6.5c2.66699 0 5.16699 0.333008 7.5 1s4.83301 1.66699 7.5 3c12 6.66602 24 19.333 36 38s23 38.334 33 59.001c8 18 15.333 35.333 22 52
c6.66797 16.667 11.668 29.334 15 38.001l-173 411c-0.666992 2 -1.83398 4.33301 -3.5 7c-1.66699 2.66699 -3.83398 5.33398 -6.5 8.00098c-4.66699 5.33691 -10.667 10.1699 -18 14.5c-7.33301 4.33301 -16 6.5 -26 6.5h-20v22h206v-22h-34
c-8.66699 0 -15.167 -1.83301 -19.5 -5.5c-4.33301 -3.66797 -6.5 -8.83496 -6.5 -15.5c0 -2 0.5 -4.16699 1.5 -6.5s1.83301 -5.16602 2.5 -8.49902l136 -321c37.333 99.333 62.333 170.666 75 213.999s20.334 73.333 23.001 90c0.666992 3.33301 1.16699 6.5 1.5 9.5
s0.5 5.83301 0.5 8.5v3.5c0 1 -0.333008 2.16699 -1 3.5c0 1.33301 -0.166992 2.5 -0.5 3.5s-0.5 2.16699 -0.5 3.5c-1.33301 6 -4 11 -8 15s-9.66699 6 -17 6h-32v22h172v0zM280.002 534.995c-37.333 0 -67.668 8.16992 -91.001 24.5029s-39.333 34.166 -48 53.499
c-3.33398 6 -5.66699 12.167 -6.99902 18.5c-1.33301 6.33301 -2 12.166 -2 17.499c0 15.333 4.5 27.666 13.5 36.999s20.833 14 35.5 14c12 0 21 -3.66699 27 -11s9.66699 -15.333 11 -24c0.666992 -1.33301 1 -2.83301 1 -4.5v-4.5c0 -3.33301 -0.666992 -6.5 -2 -9.5
c-1.33398 -3 -2.66699 -6.16699 -4 -9.5c-0.666992 -2 -1.66699 -3.83301 -3 -5.5s-2.33301 -3.16699 -3 -4.5c-3.33496 -5.33301 -6.16797 -10.333 -8.5 -15c-2.33301 -4.66699 -3.5 -9.33398 -3.5 -14.001c0 -1.33789 0.166992 -2.6709 0.5 -4
c0.333008 -1.33398 0.833008 -2.66699 1.5 -3.99902c4.66699 -8 14.167 -15.333 28.5 -22s32.166 -10 53.499 -10c22.667 0 41.167 3.33301 55.5 10s23.5 14 27.5 22c0.666992 1.33301 1.16699 2.66602 1.5 3.99902s0.5 2.66602 0.5 3.99902c0 4 -0.666992 7.83301 -2 11.5
c-1.33301 3.68555 -3 6.85254 -5 9.5c0 0.666992 -0.166992 1.16699 -0.5 1.5l-1.5 1.5l-1.5 1.5c-0.333008 0.333008 -0.5 0.833008 -0.5 1.5c-0.666992 0.675781 -1.16699 1.34277 -1.5 2c-0.333008 0.671875 -0.833008 1.33887 -1.5 2.00098c-2.66699 3.33301 -5 7 -7 11
s-3 9.33301 -3 16c0 15.333 4 26.5 12 33.5s17 10.5 27 10.5h1.5h1.5c11.333 -0.666992 21.833 -5 31.5 -13s14.5 -20.667 14.5 -38c0 -5.33301 -0.666992 -11.166 -2 -17.499s-3.66602 -12.5 -6.99902 -18.5c-8.66699 -19.3359 -24.667 -37.1689 -48 -53.5
c-23.333 -16.333 -54 -24.5 -92 -24.5v0z" />
    <glyph glyph-name="endash" unicode="&#xa3;" horiz-adv-x="496" 
d="M349 621l0.00195312 -402.001c0 -93.333 -15.833 -163.833 -47.5 -211.5s-66.5 -80.167 -104.5 -97.5c-16 -8 -31.833 -13.5 -47.5 -16.5s-30.167 -4.5 -43.5 -4.5c-38.667 0 -68.167 9.66699 -88.5 29s-30.5 40.666 -30.5 63.999c0 2.66699 0.5 6 1.5 10
s2.5 7.66699 4.5 11c3.33301 6.66699 8.66602 12.834 15.999 18.501s17.666 8.5 30.999 8.5c14.667 0 27 -4.16699 37 -12.5s15 -20.833 15 -37.5v-6v-6c-0.666992 -1.33301 -1 -3 -1 -5v-6c0 -11.333 2.33301 -19.833 7 -25.5s9.66699 -9.16699 15 -10.5
c3.33398 -1.33301 6.66699 -2.16602 10 -2.49902s6 -0.5 8 -0.5h0.5h0.5c6.66699 0 14.5 1.16699 23.5 3.5s18.5 6.83301 28.5 13.5c18 12.667 34.667 36 50 70s23 85.667 23 155v461c0 16 -2.66699 27 -8 33s-11 9.66699 -17 11c-2.66699 0.666992 -5 1 -7 1h-6h-57v28h282
v-28h-57h-6c-2 0 -4.33301 -0.333008 -7 -1c-6 -1.33301 -11.667 -5 -17 -11s-8 -17 -8 -33v0z" />
    <glyph glyph-name="endash" unicode="&#x408;" horiz-adv-x="496" 
d="M349 621l0.00195312 -402.001c0 -93.333 -15.833 -163.833 -47.5 -211.5s-66.5 -80.167 -104.5 -97.5c-16 -8 -31.833 -13.5 -47.5 -16.5s-30.167 -4.5 -43.5 -4.5c-38.667 0 -68.167 9.66699 -88.5 29s-30.5 40.666 -30.5 63.999c0 2.66699 0.5 6 1.5 10
s2.5 7.66699 4.5 11c3.33301 6.66699 8.66602 12.834 15.999 18.501s17.666 8.5 30.999 8.5c14.667 0 27 -4.16699 37 -12.5s15 -20.833 15 -37.5v-6v-6c-0.666992 -1.33301 -1 -3 -1 -5v-6c0 -11.333 2.33301 -19.833 7 -25.5s9.66699 -9.16699 15 -10.5
c3.33398 -1.33301 6.66699 -2.16602 10 -2.49902s6 -0.5 8 -0.5h0.5h0.5c6.66699 0 14.5 1.16699 23.5 3.5s18.5 6.83301 28.5 13.5c18 12.667 34.667 36 50 70s23 85.667 23 155v461c0 16 -2.66699 27 -8 33s-11 9.66699 -17 11c-2.66699 0.666992 -5 1 -7 1h-6h-57v28h282
v-28h-57h-6c-2 0 -4.33301 -0.333008 -7 -1c-6 -1.33301 -11.667 -5 -17 -11s-8 -17 -8 -33v0z" />
    <glyph glyph-name="quotedblleft" unicode="&#xa4;" horiz-adv-x="774" 
d="M664 662l40.001 -39.999l-101 -100c15.333 -18 27.666 -37 36.999 -57s16 -40 20 -60c2.66699 -10 4.5 -20 5.5 -30s1.5 -20 1.5 -30s-0.5 -20 -1.5 -30s-2.83301 -20 -5.5 -30c-4 -20 -10.667 -40 -20 -60c-9.33496 -20 -21.668 -39 -37 -57l101 -100l-40 -40l-100 101
c-18 -14.667 -37 -26.834 -57 -36.501s-40 -16.5 -60 -20.5c-10 -2.66699 -20 -4.5 -30 -5.5s-20 -1.5 -30 -1.5s-20 0.5 -30 1.5s-20 2.83301 -30 5.5c-20 4 -40 10.833 -60 20.5s-39 21.834 -57 36.501l-100 -101l-40 40l101 100c-14.667 18 -26.834 37 -36.501 57
s-16.5 40 -20.5 60c-2.66699 10 -4.5 20 -5.5 30s-1.5 20 -1.5 30s0.5 20 1.5 30s2.83301 20 5.5 30c4 20 10.833 40 20.5 60s21.834 39 36.501 57l-101 100l40 40l100 -101c18 15.333 37 27.666 57 36.999s40 16 60 20c10 2.66699 20 4.5 30 5.5s20 1.5 30 1.5
s20 -0.5 30 -1.5s20 -2.83301 30 -5.5c20 -4 40 -10.667 60 -20c20 -9.33594 39 -21.6689 57 -37l100 101v0zM163.001 345.001c0 -68 22.667 -123 68 -165s95.333 -63.667 150 -65h3.5h2.5c61.333 0 114 22.333 158 67s66 99 66 163s-22 118.333 -66 163s-96.667 67 -158 67
c-60.667 0 -113.167 -22.333 -157.5 -67s-66.5 -99 -66.5 -163v0z" />
    <glyph glyph-name="emdash" unicode="&#xa5;" horiz-adv-x="528" 
d="M162 74l-0.00195312 547.999c0 16 -2.66699 27 -8 33s-11 9.66699 -17 11c-2.66699 0.666992 -5 1 -7 1h-6h-57v28h210c12 0 27 1.33301 45 4c18 2.67773 36.667 6.34473 56 11.001c25.334 6 49.667 14.167 73 24.5s39.333 22.5 48 36.5v42h29v-146h-236v0h-1
c-1.33301 0 -3.66602 -0.166992 -6.99902 -0.5c-3.33301 -0.34375 -6.66602 -1.17676 -9.99902 -2.5c-5.33301 -2 -10 -6.16699 -14 -12.5c-4 -6.33398 -6 -16.167 -6 -29.5v-548c0.00195312 -16 2.66895 -27 8 -33c5.33301 -6 11 -9.66699 17 -11
c2.66699 -0.666992 5 -1 7 -1h6h57v-28h-282v28h57h6c2 0 4.33301 0.333008 7 1c6 1.33301 11.667 5 17 11s8 17 8 33v0z" />
    <glyph glyph-name="emdash" unicode="&#x490;" horiz-adv-x="528" 
d="M162 74l-0.00195312 547.999c0 16 -2.66699 27 -8 33s-11 9.66699 -17 11c-2.66699 0.666992 -5 1 -7 1h-6h-57v28h210c12 0 27 1.33301 45 4c18 2.67773 36.667 6.34473 56 11.001c25.334 6 49.667 14.167 73 24.5s39.333 22.5 48 36.5v42h29v-146h-236v0h-1
c-1.33301 0 -3.66602 -0.166992 -6.99902 -0.5c-3.33301 -0.34375 -6.66602 -1.17676 -9.99902 -2.5c-5.33301 -2 -10 -6.16699 -14 -12.5c-4 -6.33398 -6 -16.167 -6 -29.5v-548c0.00195312 -16 2.66895 -27 8 -33c5.33301 -6 11 -9.66699 17 -11
c2.66699 -0.666992 5 -1 7 -1h6h57v-28h-282v28h57h6c2 0 4.33301 0.333008 7 1c6 1.33301 11.667 5 17 11s8 17 8 33v0z" />
    <glyph glyph-name="circumflex" unicode="&#xa6;" horiz-adv-x="331" 
d="M112 39c0 15.333 5.33105 28 15.998 38s23.334 15 38.001 15c14 0 26.333 -5 37 -15s16 -22.667 16 -38c0 -14.667 -5 -27 -15 -37s-22.667 -15 -38 -15s-28.166 5.16699 -38.499 15.5s-15.5 22.5 -15.5 36.5v0zM111.998 431c0 15.333 5.33105 28 15.998 38
s23.334 15 38.001 15c14 0 26.333 -5 37 -15s16 -22.667 16 -38c0 -14.667 -5 -27.167 -15 -37.5s-22.667 -15.5 -38 -15.5s-28.166 5.33301 -38.499 16s-15.5 23 -15.5 37v0z" />
    <glyph glyph-name="scaron" unicode="&#xa7;" horiz-adv-x="539" 
d="M248 493l146.999 -109.999c4.66699 -3.33301 9.66699 -7.16602 15 -11.499s10.333 -8.83301 15 -13.5c14.667 -14 28 -31.333 40 -52s18 -45.334 18 -74c0 -34.667 -10 -66.334 -30 -95.001s-46 -55.334 -78 -80.001c5.33301 -5.33301 9.83301 -11 13.5 -17
s6.83398 -12 9.50098 -18c5.33301 -12 9 -23.667 11 -35s3 -21.666 3 -30.999c0 -6 -0.5 -12.333 -1.5 -19s-2.83301 -13.334 -5.5 -20.001c-8.66699 -26 -25.834 -49.833 -51.5 -71.5c-25.667 -21.667 -59.5 -32.5 -101.5 -32.5c-40.667 0 -72.834 8 -96.501 24
s-38.167 33.667 -43.5 53c-0.666992 2.66699 -1.16699 5.33398 -1.5 8.00098s-0.5 5.33398 -0.5 8.00098v1.5v1.5c0.666992 10 5 19.167 13 27.5s19.667 12.5 35 12.5c2 0 4.33301 -0.166992 7 -0.5c2.66797 -0.333008 5.33496 -1.16602 8 -2.5
c8 -2.66699 15.333 -8.16699 22 -16.5s10.334 -20.833 11 -37.5c0 -2.66699 0.166992 -5.33398 0.5 -8.00098s0.5 -5 0.5 -7c2 -9.33301 6 -17.666 12 -25c6 -7.33301 17 -11 33 -11c28 0 49.833 7 65.5 21s25.167 29.333 28.5 46
c0.666992 2.66699 1.16699 5.33398 1.5 8.00098s0.5 5.33398 0.5 8.00098v7.5c0 2.33301 -0.333008 4.83301 -1 7.5c-2 14 -6 27.333 -12 40s-14.333 22.667 -25 30l-171 133c-9.33301 7.33301 -17.833 15 -25.5 23s-14.5 16 -20.5 24c-14 18.667 -23.667 37.334 -29 56
c-5.33301 18.667 -8 35.334 -8 50.001c0 8 0.833008 16 2.5 24s3.83398 16 6.50098 24c8 22.667 20.333 44.667 37 66c16.667 21.334 35.334 39.667 56.001 54.999c-6.66699 8.66699 -12.167 17.667 -16.5 27s-7.83301 19 -10.5 29c-2 6.6748 -3.5 13.3418 -4.5 20
c-1 6.6748 -1.5 13.3418 -1.5 20c0 7.33301 0.666992 14.666 2 21.999s3.66602 15 6.99902 23c9.33301 26 27.333 49.667 54 71s62.667 32 108 32c35.333 0 66.5 -8 93.5 -24s40.5 -36.333 40.5 -61c0 -17.333 -5 -30.333 -15 -39s-21 -13 -33 -13
c-14 0 -24.333 3.83301 -31 11.5c-6.66895 7.66699 -11.3359 16.167 -14 25.5c-1.33301 6 -2.33301 11.833 -3 17.5s-1 10.167 -1 13.5c0 2 -0.333008 4.33301 -1 7l-2 8c-3.33301 6.66699 -9.33301 12.667 -18 18s-23 8 -43 8c-2.66699 0 -5.5 -0.166992 -8.5 -0.5
s-5.83301 -0.833008 -8.5 -1.5c-16 -4.66699 -30.5 -13.834 -43.5 -27.501s-19.5 -28.834 -19.5 -45.501c0 -11.333 1.5 -23.833 4.5 -37.5s9.83301 -27.5 20.5 -41.5c4 -5.33301 8.83301 -10.833 14.5 -16.5s12.167 -11.167 19.5 -16.5v0zM348.999 316.001
l-173.001 130.997c-18.667 -12.667 -33.334 -28 -44.001 -46s-17.667 -36.333 -21 -55c0 -3.33301 -0.166992 -6.66602 -0.5 -9.99902s-0.5 -6.66602 -0.5 -9.99902c0 -26.667 8 -49.5 24 -68.5s35.333 -37.167 58 -54.5l166 -128c6 4 11.667 8.33301 17 13
s10 9.33398 14 14.001c10.667 12.667 18.334 24.5 23.001 35.5s7 18.833 7 23.5c0 31.333 -4.83301 57.833 -14.5 79.5s-20.167 39.167 -31.5 52.5c-4 4.66699 -8.16699 9 -12.5 13s-8.16602 7.33301 -11.499 10v0z" />
    <glyph glyph-name="H" unicode="&#xa8;" horiz-adv-x="688" 
d="M254 380l46 -0.000976562c82 0 131.667 5.83301 149 17.5s26 24.834 26 39.501v25h29v-192h-29v25c0 15.335 -8.66699 28.668 -26 40c-17.333 11.333 -67 17 -149 17h-46v-279c0.00195312 -16 2.66895 -27 8 -33c5.33301 -6 11 -9.66699 17 -11
c2.66699 -0.666992 5 -1 7 -1h6h15c16.667 0 36.334 1 59.001 3s46 5 70 9c42 6.66699 80.833 17 116.499 31c35.6689 14 55.8359 32 60.5 54l6 30h27l-33 -155h-546v28h57h6c2 0 4.33301 0.333008 7 1c6 1.33301 11.667 5 17 11s8 17 8 33v548c0 16 -2.66699 27 -8 33
s-11 9.66699 -17 11c-2.66699 0.666992 -5 1 -7 1h-6h-57v28h542l3 -140h-28l-3 52c-26 18 -51.833 31.167 -77.5 39.5s-51.167 13.833 -76.5 16.5c-12.667 2 -25.5 3.16699 -38.5 3.5s-25.833 0.5 -38.5 0.5h-58h-6c-2 0 -4.33301 -0.333008 -7 -1
c-6 -1.33301 -11.667 -5 -17 -11s-8 -17 -8 -33v-241v0zM207 801.999c0 2.67871 0.167969 5.3457 0.500977 8c0.333008 2.67871 1.16602 5.3457 2.49902 8c2.66699 9.33301 8.33398 17.833 17 25.5c8.66699 7.66699 19.667 11.5 33 11.5c14 0 26.333 -5 37 -15
s16 -22.667 16 -38s-5.33301 -28 -16 -38s-23 -15 -37 -15s-26.333 5.16699 -37 15.5s-16 22.833 -16 37.5v0zM397.001 801.999c0 15.333 5.16699 28 15.5 38s22.833 15 37.5 15c15.333 0 28 -5 38 -15s15 -22.667 15 -38s-5.16699 -28 -15.5 -38s-22.833 -15 -37.5 -15
s-27.167 5 -37.5 15s-15.5 22.667 -15.5 38v0z" />
    <glyph glyph-name="H" unicode="&#x401;" horiz-adv-x="688" 
d="M254 380l46 -0.000976562c82 0 131.667 5.83301 149 17.5s26 24.834 26 39.501v25h29v-192h-29v25c0 15.335 -8.66699 28.668 -26 40c-17.333 11.333 -67 17 -149 17h-46v-279c0.00195312 -16 2.66895 -27 8 -33c5.33301 -6 11 -9.66699 17 -11
c2.66699 -0.666992 5 -1 7 -1h6h15c16.667 0 36.334 1 59.001 3s46 5 70 9c42 6.66699 80.833 17 116.499 31c35.6689 14 55.8359 32 60.5 54l6 30h27l-33 -155h-546v28h57h6c2 0 4.33301 0.333008 7 1c6 1.33301 11.667 5 17 11s8 17 8 33v548c0 16 -2.66699 27 -8 33
s-11 9.66699 -17 11c-2.66699 0.666992 -5 1 -7 1h-6h-57v28h542l3 -140h-28l-3 52c-26 18 -51.833 31.167 -77.5 39.5s-51.167 13.833 -76.5 16.5c-12.667 2 -25.5 3.16699 -38.5 3.5s-25.833 0.5 -38.5 0.5h-58h-6c-2 0 -4.33301 -0.333008 -7 -1
c-6 -1.33301 -11.667 -5 -17 -11s-8 -17 -8 -33v-241v0zM207 801.999c0 2.67871 0.167969 5.3457 0.500977 8c0.333008 2.67871 1.16602 5.3457 2.49902 8c2.66699 9.33301 8.33398 17.833 17 25.5c8.66699 7.66699 19.667 11.5 33 11.5c14 0 26.333 -5 37 -15
s16 -22.667 16 -38s-5.33301 -28 -16 -38s-23 -15 -37 -15s-26.333 5.16699 -37 15.5s-16 22.833 -16 37.5v0zM397.001 801.999c0 15.333 5.16699 28 15.5 38s22.833 15 37.5 15c15.333 0 28 -5 38 -15s15 -22.667 15 -38s-5.16699 -28 -15.5 -38s-22.833 -15 -37.5 -15
s-27.167 5 -37.5 15s-15.5 22.667 -15.5 38v0z" />
    <glyph glyph-name="I" unicode="&#xa9;" horiz-adv-x="742" 
d="M21 336v8.50098v8.5c4.66699 83.333 38.334 159.666 101.001 228.999s145.667 104 249 104c98 0 180.833 -34.5 248.499 -103.5c67.667 -69 101.5 -151.167 101.5 -246.5c0 -94.667 -33.833 -176.5 -101.5 -245.5s-150.5 -103.5 -248.5 -103.5
s-180.833 34.5 -248.5 103.5s-101.5 150.833 -101.5 245.5v0zM63 336.001c0 -84 29.665 -156.333 88.998 -217s132.333 -91 219 -91s159.667 30.333 219 91s89 133 89 217s-29.667 156.333 -89 217c-59.334 60.667 -132.334 91 -219 91
c-91.333 0 -164.666 -30.833 -219.999 -92.5s-84.666 -129.834 -87.999 -204.5v-5v-6v0zM539.998 523.001l-0.00195312 -142.003h-30c-2.66895 32 -14.8359 60.5 -36.501 85.5c-21.667 25 -50.167 37.5 -85.5 37.5c-38 0 -66.667 -14.167 -86 -42.5
s-31.333 -59.166 -36 -92.499c-0.666992 -6 -1.16699 -12 -1.5 -18s-0.5 -11.667 -0.5 -17c0 -9.33301 0.666992 -20.166 2 -32.499c1.33789 -12.333 3.6709 -24.833 7 -37.5c6.66699 -24.667 18.834 -47 36.501 -67s44.5 -30 80.5 -30c39.333 0 69.333 11.667 90 35
s32 49.333 34 78h30c-4 -38 -19.5 -70.833 -46.5 -98.5s-66.167 -41.5 -117.5 -41.5c-60.667 0 -106 19.333 -136 58s-45.667 81.334 -47 128.001v3.5v2.5c0 6 0.166992 12 0.5 18s1.16602 12 2.49902 18c6 41.333 23.333 79 52 113s69.667 51 123 51
c6.66699 0 13.334 -0.333008 20.001 -1s13.334 -1.66699 20.001 -3c12.667 -2 25.834 -6 39.501 -12s28.167 -14.333 43.5 -25l19 32h23v0z" />
    <glyph glyph-name="J" unicode="&#xaa;" horiz-adv-x="744" 
d="M669 509l-32.001 0.00195312l-4 44c-20 39.333 -49.5 70.333 -88.5 93s-83.5 34 -133.5 34c-57.333 0 -101.833 -18 -133.5 -54s-54.834 -75.667 -69.501 -119c-8.66699 -24.667 -15 -48.667 -19 -72s-6.66699 -43.333 -8 -60h95h7.5h6.5c6 0 13.333 0.333008 22 1
s22.667 1.33398 42 2.00098h5h5c4 0.666992 8.16699 1 12.5 1s8.5 0.333008 12.5 1c16 0.666992 33.667 2.16699 53 4.5c19.333 2.33594 48.333 6.16895 87 11.499v-65c-12 2 -26.333 3.83301 -43 5.5s-34 3.16699 -52 4.5c-20 2 -39.333 3.5 -58 4.5s-33.667 1.5 -45 1.5
h-152c-0.666992 -113.333 25.833 -194.833 79.5 -244.5s112.5 -76.167 176.5 -79.5h7.5h6.5c47.333 0 90.5 14.167 129.5 42.5s72.833 72.833 101.5 133.5l25 -13c-24 -52 -51.167 -92 -81.5 -120s-61.5 -48.333 -93.5 -61
c-19.333 -6.66699 -38.666 -11.334 -57.999 -14.001s-37.666 -4 -54.999 -4c-112.667 0 -198.667 36 -258 108s-89 154.333 -89 247c0 6.66699 0.166992 13.5 0.5 20.5s0.833008 13.833 1.5 20.5c8 81.334 40.5 155.834 97.5 223.5c57 67.667 144.167 101.5 261.5 101.5
c10.667 0 21 -0.333008 31 -1s19.667 -1.33398 29 -2.00098c18 -2.66699 37.333 -7.16699 58 -13.5c20.667 -6.33887 46 -15.1719 76 -26.5l-1 29h31l14 -185v0z" />
    <glyph glyph-name="J" unicode="&#x404;" horiz-adv-x="744" 
d="M669 509l-32.001 0.00195312l-4 44c-20 39.333 -49.5 70.333 -88.5 93s-83.5 34 -133.5 34c-57.333 0 -101.833 -18 -133.5 -54s-54.834 -75.667 -69.501 -119c-8.66699 -24.667 -15 -48.667 -19 -72s-6.66699 -43.333 -8 -60h95h7.5h6.5c6 0 13.333 0.333008 22 1
s22.667 1.33398 42 2.00098h5h5c4 0.666992 8.16699 1 12.5 1s8.5 0.333008 12.5 1c16 0.666992 33.667 2.16699 53 4.5c19.333 2.33594 48.333 6.16895 87 11.499v-65c-12 2 -26.333 3.83301 -43 5.5s-34 3.16699 -52 4.5c-20 2 -39.333 3.5 -58 4.5s-33.667 1.5 -45 1.5
h-152c-0.666992 -113.333 25.833 -194.833 79.5 -244.5s112.5 -76.167 176.5 -79.5h7.5h6.5c47.333 0 90.5 14.167 129.5 42.5s72.833 72.833 101.5 133.5l25 -13c-24 -52 -51.167 -92 -81.5 -120s-61.5 -48.333 -93.5 -61
c-19.333 -6.66699 -38.666 -11.334 -57.999 -14.001s-37.666 -4 -54.999 -4c-112.667 0 -198.667 36 -258 108s-89 154.333 -89 247c0 6.66699 0.166992 13.5 0.5 20.5s0.833008 13.833 1.5 20.5c8 81.334 40.5 155.834 97.5 223.5c57 67.667 144.167 101.5 261.5 101.5
c10.667 0 21 -0.333008 31 -1s19.667 -1.33398 29 -2.00098c18 -2.66699 37.333 -7.16699 58 -13.5c20.667 -6.33887 46 -15.1719 76 -26.5l-1 29h31l14 -185v0z" />
    <glyph glyph-name="ampersand" unicode="&#xab;" horiz-adv-x="576" 
d="M411 1l-12.999 -11.998c-35.333 30.667 -65.833 56.5 -91.5 77.5s-50.167 40.5 -73.5 58.5c-4.66699 3.33301 -9.16699 6.66602 -13.5 9.99902s-8.83301 6.66602 -13.5 9.99902c-18 12.667 -36.667 25.5 -56 38.5s-41.333 27.833 -66 44.5
c18.667 11.333 38.667 24.333 60 39s43 30 65 46c10 8 20 15.833 30 23.5s20 15.5 30 23.5c12.667 10 25.334 20.167 38.001 30.5s24.667 20.5 36 30.5c10 9.33301 19.833 17.833 29.5 25.5s18.167 14.834 25.5 21.501l13 -16c-38.667 -42.667 -68.334 -76.334 -89 -101
c-20.667 -24.667 -39.667 -46.667 -57 -66c-2.6709 -2.66699 -5.33789 -5.5 -8.00098 -8.5c-2.66699 -3 -5.33398 -5.83301 -8.00098 -8.5c-6 -6.66699 -12.333 -13.167 -19 -19.5c-6.66699 -6.33398 -14 -13.167 -22 -20.5c44 -44.667 82.667 -86.334 116 -125.001
s62.333 -72.667 87 -102v0zM492.001 80.002l-17.0049 -11.998c-18 16 -33.333 29.833 -46 41.5s-24.667 22.5 -36 32.5c-2 2 -4 3.83301 -6 5.5s-4 3.16699 -6 4.5c-12.667 10.667 -26.667 22 -42 34s-34.333 26 -57 42c7.33301 5.33301 14.5 10.666 21.5 15.999
s14.167 10.666 21.5 15.999c10 8 19.833 16.167 29.5 24.5s19.5 16.5 29.5 24.5c14.667 12.667 29.334 25.834 44.001 39.501s30.334 28.5 47.001 44.5l17 -14c-4.66699 -6.66699 -12.5 -17.334 -23.5 -32c-11 -14.667 -22.833 -30 -35.5 -46
c-1.33301 -0.666992 -2.5 -1.66699 -3.5 -3s-1.83301 -2.66602 -2.5 -3.99902c-10.667 -13.333 -21 -26 -31 -38s-18.333 -21.333 -25 -28c8.66699 -9.33301 18.334 -20.333 29.001 -33s21.667 -25.667 33 -39c2 -2.66699 4.16699 -5.33398 6.5 -8.00098
s4.5 -5.33398 6.5 -8.00098c8.66699 -10.667 16.834 -21 24.501 -31s14.834 -19.667 21.501 -29v0z" />
    <glyph glyph-name="quotesingle" unicode="&#xac;" horiz-adv-x="610" 
d="M39 330v45h532v-195h-45v150h-487v0z" />
    <glyph glyph-name="daggerdbl" unicode="&#xad;" horiz-adv-x="336" 
d="M291 295v-52h-246v52h246v0z" />
    <glyph glyph-name="dagger" unicode="&#xae;" horiz-adv-x="384" 
d="M28 567c0 46 16.167 84.833 48.5 116.5s70.833 47.5 115.5 47.5s83.167 -15.833 115.5 -47.5s48.5 -70.5 48.5 -116.5s-16.167 -84.833 -48.5 -116.5s-70.833 -47.5 -115.5 -47.5s-83.167 15.833 -115.5 47.5s-48.5 70.5 -48.5 116.5v0zM49 567
c0 -40 14.167 -73.833 42.5 -101.5s61.833 -41.5 100.5 -41.5c41.333 0 75.5 14.167 102.5 42.5c27 28.334 40.5 61.834 40.5 100.5c0 39.333 -13.667 73 -41 101s-61.333 42 -102 42c-38.667 0 -72.167 -13.5 -100.5 -40.5s-42.5 -61.167 -42.5 -102.5v0zM114 644
l89.999 -0.000976562c18.667 0 31.834 -2.66699 39.5 -8c7.66699 -5.33301 12.167 -11 13.5 -17c0.666992 -2.66699 1.16699 -5.16699 1.5 -7.5s0.5 -4.5 0.5 -6.5c0 -11.3379 -3 -20.1709 -9 -26.5c-6 -6.3418 -13 -10.1748 -21 -11.499v-1
c6 -0.666992 10.833 -2.66699 14.5 -6c3.66699 -3.35059 6.5 -6.68359 8.5 -10c0.666992 -2 1.16699 -4 1.5 -6s0.5 -3.66699 0.5 -5v-22v-3c0 -1.33301 0.333008 -2.66602 1 -3.99902c0.666992 -2 1.66699 -3.83301 3 -5.5s3.33301 -2.5 6 -2.5c2 0 3.5 0.666992 4.5 2
s1.83301 3 2.5 5c0 1.33301 0.166992 2.5 0.5 3.5s0.5 1.83301 0.5 2.5v18h12v-20c0 -7.33301 -1.5 -13 -4.5 -17s-6.16699 -7 -9.5 -9c-2.66699 -0.666992 -5 -1.16699 -7 -1.5s-3.66699 -0.5 -5 -0.5c-8.66699 0 -15 2.33301 -19 7s-6.66699 10 -8 16
c-0.666992 4 -1.16699 7.83301 -1.5 11.5s-0.5 6.5 -0.5 8.5v2.5v2.5c0 10.667 -1.66699 18.167 -5 22.5c-3.33398 4.33301 -9.66699 6.5 -18.999 6.5h-41v-54c0 -1.33301 0.5 -2.5 1.5 -3.5s2.16699 -1.83301 3.5 -2.5h1.5h1.5h17v-12h-75v12h17h1.5h1.5
c1.33301 0.666992 2.5 1.5 3.5 2.5s1.5 2.16699 1.5 3.5v118c0 1.33301 -0.333008 2.66602 -1 3.99902s-3 2 -7 2h-17v12v0zM163.999 631.999v-57h45c6 0 11.333 2.66699 16 8s7.66699 11 9 17v2.5v2.5c0 1.33301 -0.166992 3 -0.5 5s-0.833008 4 -1.5 6
c-2 4 -5.16699 7.66699 -9.5 11s-11.5 5 -21.5 5h-37v0z" />
    <glyph glyph-name="macron" unicode="&#xaf;" horiz-adv-x="401" 
d="M162 73v548c0 16 -2.66699 27 -8 33s-11 9.66699 -17 11c-2.66699 0.666992 -5 1 -7 1h-6h-57v28h282v-28h-57h-6c-2 0 -4.33301 -0.333008 -7 -1c-6 -1.33301 -11.667 -5 -17 -11s-8 -17 -8 -33v-548c0.00195312 -16 2.66895 -27 8 -33c5.33301 -6 11 -9.66699 17 -11
c2.66699 -0.666992 5 -1 7 -1h6h57v-28h-282v28h57h6c2 0 4.33301 0.333008 7 1c6 1.33301 11.667 5 17 11s8 17 8 33v0zM38 862c0 18 6.33105 33.668 18.998 47.001s28.334 20 47.001 20s34.5 -6.66699 47.5 -20s19.5 -29 19.5 -47c0 -18.667 -6.66699 -34.334 -20 -47.001
s-29 -19 -47 -19c-17.333 0 -32.666 6.33301 -45.999 19c-13.333 12.6699 -20 28.3369 -20 47v0zM243.998 862.001c0 18 6.33203 33.667 18.999 47s28.334 20 47.001 20c19.333 0 35.333 -6.83301 48 -20.5s19 -29.167 19 -46.5c0 -17.3369 -6.33301 -32.6699 -19 -46
c-12.667 -13.333 -28.667 -20 -48 -20c-18.667 0 -34.334 6.5 -47 19.5c-12.667 13 -19 28.5 -19 46.5v0z" />
    <glyph glyph-name="macron" unicode="&#x407;" horiz-adv-x="401" 
d="M162 73v548c0 16 -2.66699 27 -8 33s-11 9.66699 -17 11c-2.66699 0.666992 -5 1 -7 1h-6h-57v28h282v-28h-57h-6c-2 0 -4.33301 -0.333008 -7 -1c-6 -1.33301 -11.667 -5 -17 -11s-8 -17 -8 -33v-548c0.00195312 -16 2.66895 -27 8 -33c5.33301 -6 11 -9.66699 17 -11
c2.66699 -0.666992 5 -1 7 -1h6h57v-28h-282v28h57h6c2 0 4.33301 0.333008 7 1c6 1.33301 11.667 5 17 11s8 17 8 33v0zM38 862c0 18 6.33105 33.668 18.998 47.001s28.334 20 47.001 20s34.5 -6.66699 47.5 -20s19.5 -29 19.5 -47c0 -18.667 -6.66699 -34.334 -20 -47.001
s-29 -19 -47 -19c-17.333 0 -32.666 6.33301 -45.999 19c-13.333 12.6699 -20 28.3369 -20 47v0zM243.998 862.001c0 18 6.33203 33.667 18.999 47s28.334 20 47.001 20c19.333 0 35.333 -6.83301 48 -20.5s19 -29.167 19 -46.5c0 -17.3369 -6.33301 -32.6699 -19 -46
c-12.667 -13.333 -28.667 -20 -48 -20c-18.667 0 -34.334 6.5 -47 19.5c-12.667 13 -19 28.5 -19 46.5v0z" />
    <glyph glyph-name="zero" unicode="&#xb0;" horiz-adv-x="325" 
d="M56 602c0 29.333 10.167 54.333 30.5 75s45.833 31 76.5 31c29.333 0 54.333 -10 75 -30s31 -45.333 31 -76c0 -30 -10.333 -55.167 -31 -75.5s-45.667 -30.5 -75 -30.5c-30.667 0 -56.167 10.5 -76.5 31.5s-30.5 45.833 -30.5 74.5v0zM95 602
c0 -18.667 6.66699 -34.5 20 -47.5s29.333 -19.5 48 -19.5c18 0 33.667 6.5 47 19.5s20 28.833 20 47.5c0 19.333 -6.66699 35.333 -20 48s-29 19 -47 19c-18.667 0 -34.667 -6.33301 -48 -19s-20 -28.667 -20 -48v0z" />
    <glyph glyph-name="at" unicode="&#xb1;" horiz-adv-x="672" 
d="M70 56v45h532v-45h-532v0zM359 175h-45v150h-244v45h244v193h45v-193h243v-45h-243v-150v0z" />
    <glyph glyph-name="P" unicode="&#xb2;" horiz-adv-x="401" 
d="M162 73v548c0 16 -2.66699 27 -8 33s-11 9.66699 -17 11c-2.66699 0.666992 -5 1 -7 1h-6h-57v28h282v-28h-57h-6c-2 0 -4.33301 -0.333008 -7 -1c-6 -1.33301 -11.667 -5 -17 -11s-8 -17 -8 -33v-548c0.00195312 -16 2.66895 -27 8 -33c5.33301 -6 11 -9.66699 17 -11
c2.66699 -0.666992 5 -1 7 -1h6h57v-28h-282v28h57h6c2 0 4.33301 0.333008 7 1c6 1.33301 11.667 5 17 11s8 17 8 33v0z" />
    <glyph glyph-name="P" unicode="&#x406;" horiz-adv-x="401" 
d="M162 73v548c0 16 -2.66699 27 -8 33s-11 9.66699 -17 11c-2.66699 0.666992 -5 1 -7 1h-6h-57v28h282v-28h-57h-6c-2 0 -4.33301 -0.333008 -7 -1c-6 -1.33301 -11.667 -5 -17 -11s-8 -17 -8 -33v-548c0.00195312 -16 2.66895 -27 8 -33c5.33301 -6 11 -9.66699 17 -11
c2.66699 -0.666992 5 -1 7 -1h6h57v-28h-282v28h57h6c2 0 4.33301 0.333008 7 1c6 1.33301 11.667 5 17 11s8 17 8 33v0z" />
    <glyph glyph-name="S" unicode="&#xb3;" horiz-adv-x="310" 
d="M117 46v347.998c0 6.66699 -4 11.334 -12 14.001s-16.667 4.33398 -26 5.00098c-4.66699 0.666992 -9.16699 1 -13.5 1h-11.5h-7v19c10 1.33984 20.833 3.17285 32.5 5.5c11.667 2.33691 23.5 5.16992 35.5 8.5c14 4 27.833 8.16699 41.5 12.5
s25.834 8.83301 36.501 13.5v-427c0 -10.667 3.33301 -17.334 10 -20.001s15.334 -4 26 -4h39v-22h-226v22h39c11.333 0 20.166 1.33301 26.499 4s9.5 9.33398 9.5 20.001v0zM92 610.998c0 13.333 5.16797 25 15.501 35s21.833 15 34.5 15
c13.333 0 25.166 -4.83301 35.499 -14.5s15.5 -21.5 15.5 -35.5c0 -13.334 -5 -25.167 -15 -35.499c-10 -10.333 -22 -15.5 -36 -15.5s-25.833 5.16699 -35.5 15.5s-14.5 22.166 -14.5 35.499v0z" />
    <glyph glyph-name="S" unicode="&#x456;" horiz-adv-x="310" 
d="M117 46v347.998c0 6.66699 -4 11.334 -12 14.001s-16.667 4.33398 -26 5.00098c-4.66699 0.666992 -9.16699 1 -13.5 1h-11.5h-7v19c10 1.33984 20.833 3.17285 32.5 5.5c11.667 2.33691 23.5 5.16992 35.5 8.5c14 4 27.833 8.16699 41.5 12.5
s25.834 8.83301 36.501 13.5v-427c0 -10.667 3.33301 -17.334 10 -20.001s15.334 -4 26 -4h39v-22h-226v22h39c11.333 0 20.166 1.33301 26.499 4s9.5 9.33398 9.5 20.001v0zM92 610.998c0 13.333 5.16797 25 15.501 35s21.833 15 34.5 15
c13.333 0 25.166 -4.83301 35.499 -14.5s15.5 -21.5 15.5 -35.5c0 -13.334 -5 -25.167 -15 -35.499c-10 -10.333 -22 -15.5 -36 -15.5s-25.833 5.16699 -35.5 15.5s-14.5 22.166 -14.5 35.499v0z" />
    <glyph glyph-name="T" unicode="&#xb4;" horiz-adv-x="395" 
d="M349 562l20.998 -0.00292969v-122h-168c-7.33301 0 -12.666 -1.66699 -15.999 -5s-5.33301 -6.66602 -6 -9.99902c-0.666992 -2 -1 -3.66699 -1 -5v-4v-370c0 -10.667 3.33301 -17.334 10 -20.001s15.334 -4 26 -4h39v-22h-226v22h39c11.333 0 20.166 1.33301 26.499 4
s9.5 9.33398 9.5 20.001v370c0 10.667 -3.16699 17.334 -9.5 20.001s-15.166 4 -26.499 4h-39v22h156c47.333 0 82.5 5.5 105.5 16.5s38.833 23.167 47.5 36.5c4.66699 6.6709 7.83398 13.3379 9.50098 20.001c1.66699 6.66699 2.5 12.667 2.5 18v9v0z" />
    <glyph glyph-name="T" unicode="&#x491;" horiz-adv-x="395" 
d="M349 562l20.998 -0.00292969v-122h-168c-7.33301 0 -12.666 -1.66699 -15.999 -5s-5.33301 -6.66602 -6 -9.99902c-0.666992 -2 -1 -3.66699 -1 -5v-4v-370c0 -10.667 3.33301 -17.334 10 -20.001s15.334 -4 26 -4h39v-22h-226v22h39c11.333 0 20.166 1.33301 26.499 4
s9.5 9.33398 9.5 20.001v370c0 10.667 -3.16699 17.334 -9.5 20.001s-15.166 4 -26.499 4h-39v22h156c47.333 0 82.5 5.5 105.5 16.5s38.833 23.167 47.5 36.5c4.66699 6.6709 7.83398 13.3379 9.50098 20.001c1.66699 6.66699 2.5 12.667 2.5 18v9v0z" />
    <glyph glyph-name="U" unicode="&#xb5;" horiz-adv-x="554" 
d="M463 462l0.00390625 -394.999v-2v-2v-5v-6c0.666992 -6 2.16699 -11.5 4.5 -16.5s6.83301 -7.5 13.5 -7.5c8 0 14.5 2.33301 19.5 7s9.16699 10 12.5 16c2 2.66699 3.66699 5.5 5 8.5s2.33301 5.5 3 7.5l22 -9c-1.33301 -4 -3 -8.16699 -5 -12.5
s-4.33301 -8.83301 -7 -13.5c-6.66699 -10.667 -15.834 -20.334 -27.501 -29.001s-27.167 -13 -46.5 -13c-20 0 -35 6.66699 -45 20s-16 28.333 -18 45c-0.666992 2 -1 4.33301 -1 7v8v3.5v2.5h-6c-11.333 -22.667 -28.5 -42.5 -51.5 -59.5s-48.167 -25.5 -75.5 -25.5
c-26.667 0 -49 7.33301 -67 22s-29.667 33.334 -35 56.001h-8c-0.666992 -21.333 0.166016 -39.5 2.49902 -54.5s4.83301 -28.167 7.5 -39.5c0.666992 -4 1.5 -7.66699 2.5 -11s1.83301 -6.66602 2.5 -9.99902c0.666992 -2 1.16699 -3.83301 1.5 -5.5
s0.833008 -3.5 1.5 -5.5c2.66699 -10.667 5.16699 -21.667 7.5 -33s3.5 -24.333 3.5 -39c0 -19.333 -2.83301 -33.833 -8.5 -43.5s-11.834 -16.5 -18.501 -20.5c-4 -2.66699 -8 -4.33398 -12 -5.00098s-7.33301 -1 -10 -1s-6 0.5 -10 1.5s-8.33301 3.16699 -13 6.5
c-6.66699 4 -12.834 11.167 -18.5 21.5c-5.66699 10.333 -8.5 25.166 -8.5 44.499c0 22 1 40.833 3 56.5s4.33301 30.5 7 44.5c0.666992 4.66699 1.5 9.5 2.5 14.5s1.83301 9.5 2.5 13.5c4 20 7.5 43.833 10.5 71.5s4.5 64.5 4.5 110.5v276h76v-326
c0 -35.333 8.33301 -60.5 25 -75.5s34.667 -24.167 54 -27.5c3.33496 0 6.66797 -0.166992 9.99902 -0.5c3.33398 -0.333008 6.66699 -0.5 10 -0.5c21.333 0 40.333 7.33301 57 22s29.667 31 39 49c1.33301 2 2.5 4 3.5 6s1.83301 4 2.5 6v347h76v0z" />
    <glyph glyph-name="V" unicode="&#xb6;" horiz-adv-x="576" 
d="M198 -248l0.000976562 662.001c-8 0 -16.667 0.5 -26 1.5c-9.33398 1 -18.667 2.83301 -28 5.5c-26 6.66699 -49.5 20.167 -70.5 40.5s-31.5 51.166 -31.5 92.499c0 35.333 11.667 67.5 35 96.5s63.666 43.5 120.999 43.5h336v-36h-112v-906h-56v906h-112v-906h-56v0z
" />
    <glyph glyph-name="quoteleft" unicode="&#xb8;" horiz-adv-x="457" 
d="M426 264l-302 0.000976562c-0.666992 -6.66797 -1 -13.001 -1 -19v-18c0 -69.333 11.667 -118.333 35 -147s49 -46 77 -52c5.33301 -0.666992 10.5 -1.33398 15.5 -2.00098s10.167 -1 15.5 -1c31.333 0 57.5 7.66699 78.5 23s37.167 32.333 48.5 51
c2 3.33301 4 6.5 6 9.5s3.66699 6.16699 5 9.5l18 -10c-10.668 -22.667 -22.335 -41.167 -35 -55.5c-12.667 -14.333 -25.667 -25.833 -39 -34.5c-19.333 -12.667 -38.166 -20.5 -56.499 -23.5s-33.5 -4.5 -45.5 -4.5c-52.667 0 -100.834 18.833 -144.501 56.5
s-65.5 96.167 -65.5 175.5c0 78 20 139.333 60 184s90 67 150 67s105 -20.5 135 -61.5s45 -87.833 45 -140.5v-2v-1v-2v-2v0zM124 286.001l221 0.000976562c0 1.33301 -0.166992 2.66602 -0.5 3.99902c-0.333008 1.33398 -0.5 2.66699 -0.5 3.99902v2v3
c0 2 -0.166992 4.33301 -0.5 7s-0.5 6.33398 -0.5 11.001c0 6 -0.5 14.833 -1.5 26.5s-3.83301 24.167 -8.5 37.5c-5.33301 17.333 -14.833 33.333 -28.5 48s-33.834 22 -60.5 22c-4.66699 0 -9.5 -0.333008 -14.5 -1s-10.167 -2 -15.5 -4
c-21.333 -7.33301 -41.333 -23.5 -60 -48.5s-28.667 -62.167 -30 -111.5v0zM116 622.002c0 2 0.168945 4 0.501953 6s0.833008 4 1.5 6c2 9.33301 7.16699 18 15.5 26s19.166 12 32.499 12s24.166 -4 32.499 -12s13.5 -16.667 15.5 -26c0.666992 -2 1.16699 -4 1.5 -6
s0.5 -4 0.5 -6s-0.166992 -4 -0.5 -6s-0.833008 -4 -1.5 -6c-2 -9.33301 -7.16699 -18 -15.5 -26c-8.33398 -8 -19.167 -12 -32.5 -12c-13.334 0 -24.167 4 -32.5 12s-13.5 16.667 -15.5 26c-0.666992 2 -1.16699 4 -1.5 6s-0.5 4 -0.5 6v0zM276.002 622.002
c0 14.667 4.66699 26.667 14 36s21.333 14 36 14s26.667 -4.66699 36 -14s14 -21.333 14 -36s-4.66699 -26.667 -14 -36s-21.333 -14 -36 -14s-26.667 4.66699 -36 14s-14 21.333 -14 36v0z" />
    <glyph glyph-name="quoteleft" unicode="&#x451;" horiz-adv-x="457" 
d="M426 264l-302 0.000976562c-0.666992 -6.66797 -1 -13.001 -1 -19v-18c0 -69.333 11.667 -118.333 35 -147s49 -46 77 -52c5.33301 -0.666992 10.5 -1.33398 15.5 -2.00098s10.167 -1 15.5 -1c31.333 0 57.5 7.66699 78.5 23s37.167 32.333 48.5 51
c2 3.33301 4 6.5 6 9.5s3.66699 6.16699 5 9.5l18 -10c-10.668 -22.667 -22.335 -41.167 -35 -55.5c-12.667 -14.333 -25.667 -25.833 -39 -34.5c-19.333 -12.667 -38.166 -20.5 -56.499 -23.5s-33.5 -4.5 -45.5 -4.5c-52.667 0 -100.834 18.833 -144.501 56.5
s-65.5 96.167 -65.5 175.5c0 78 20 139.333 60 184s90 67 150 67s105 -20.5 135 -61.5s45 -87.833 45 -140.5v-2v-1v-2v-2v0zM124 286.001l221 0.000976562c0 1.33301 -0.166992 2.66602 -0.5 3.99902c-0.333008 1.33398 -0.5 2.66699 -0.5 3.99902v2v3
c0 2 -0.166992 4.33301 -0.5 7s-0.5 6.33398 -0.5 11.001c0 6 -0.5 14.833 -1.5 26.5s-3.83301 24.167 -8.5 37.5c-5.33301 17.333 -14.833 33.333 -28.5 48s-33.834 22 -60.5 22c-4.66699 0 -9.5 -0.333008 -14.5 -1s-10.167 -2 -15.5 -4
c-21.333 -7.33301 -41.333 -23.5 -60 -48.5s-28.667 -62.167 -30 -111.5v0zM116 622.002c0 2 0.168945 4 0.501953 6s0.833008 4 1.5 6c2 9.33301 7.16699 18 15.5 26s19.166 12 32.499 12s24.166 -4 32.499 -12s13.5 -16.667 15.5 -26c0.666992 -2 1.16699 -4 1.5 -6
s0.5 -4 0.5 -6s-0.166992 -4 -0.5 -6s-0.833008 -4 -1.5 -6c-2 -9.33301 -7.16699 -18 -15.5 -26c-8.33398 -8 -19.167 -12 -32.5 -12c-13.334 0 -24.167 4 -32.5 12s-13.5 16.667 -15.5 26c-0.666992 2 -1.16699 4 -1.5 6s-0.5 4 -0.5 6v0zM276.002 622.002
c0 14.667 4.66699 26.667 14 36s21.333 14 36 14s26.667 -4.66699 36 -14s14 -21.333 14 -36s-4.66699 -26.667 -14 -36s-21.333 -14 -36 -14s-26.667 4.66699 -36 14s-14 21.333 -14 36v0z" />
    <glyph glyph-name="one" unicode="&#xb9;" horiz-adv-x="1125" 
d="M234 533l0.00390625 -397.002c0 -46.667 -7.16699 -80.5 -21.5 -101.5s-29.833 -34.5 -46.5 -40.5c-7.33301 -2.66699 -14.333 -4.5 -21 -5.5s-13 -1.5 -19 -1.5c-29.333 0 -52.833 8.33301 -70.5 25s-26.834 35.334 -27.501 56.001v1.5v1.5
c0 2 0.166992 4.16699 0.5 6.5s0.833008 4.5 1.5 6.5c2.66699 7.33301 7.5 14 14.5 20s16.833 9 29.5 9c14 0 25.5 -4.5 34.5 -13.5s13.5 -22.167 13.5 -39.5v-0.5v-1.5v-6v-6c0.666992 -6 2.5 -10.833 5.5 -14.5s6.16699 -6.16699 9.5 -7.5
c0.666992 0 1.16699 -0.166992 1.5 -0.5s0.833008 -0.5 1.5 -0.5s1.5 -0.166992 2.5 -0.5s1.83301 -0.5 2.5 -0.5s1.5 0.166992 2.5 0.5s1.83301 0.5 2.5 0.5c21.333 4 35.666 16.5 42.999 37.5s11.666 43.833 12.999 68.5c0.666992 4.66699 1 9.5 1 14.5v14.5v414l-89 122
h91l431 -570v445c0 7.33301 0.333008 16.333 1 27s2.66699 21.667 6 33c5.33301 20 16 38.167 32 54.5s41.667 24.5 77 24.5c24 0 42.5 -5.83301 55.5 -17.5s21.167 -24.5 24.5 -38.5c0.666992 -2.66699 1.16699 -5.16699 1.5 -7.5s0.5 -4.83301 0.5 -7.5
c0 -13.333 -3.83301 -24.333 -11.5 -33s-16.167 -14 -25.5 -16c-1.33301 0 -2.83301 -0.166992 -4.5 -0.5s-3.16699 -0.5 -4.5 -0.5c-13.333 0 -23.333 3.33301 -30 10s-11.334 14 -14.001 22c-2 6 -3.33301 11.667 -4 17s-1 9.33301 -1 12v1.5v1.5
c0 5.33301 -1.16699 10.333 -3.5 15s-8.5 7 -18.5 7c-2.66699 0 -6.16699 -0.666992 -10.5 -2c-4.33301 -1.35352 -8.83301 -3.68652 -13.5 -6.99902c-7.34375 -6 -14.1768 -16.167 -20.5 -30.5c-6.33301 -14.333 -9.5 -35.833 -9.5 -64.5v-583h-27l-406 547v0z
M977.004 34.998v-35h-206v35h206v0zM729.004 281.998c0 3.33301 0.165039 6.83008 0.498047 10.4971s0.833008 7.5 1.5 11.5c4 31.333 17.833 60 41.5 86s57.5 39 101.5 39c41.333 0 75.833 -13.667 103.5 -41s41.5 -62.666 41.5 -105.999
c0 -41.333 -10.5 -73.166 -31.5 -95.499s-44.5 -37.166 -70.5 -44.499c-7.34668 -2.66699 -14.6797 -4.5 -21.999 -5.5c-7.33301 -1 -14.333 -1.5 -21 -1.5c-8 0 -17.333 1 -28 3s-21.667 5.33301 -33 10c-21.3359 9.33301 -40.6689 24.5 -57.999 45.5
c-17.333 21 -26 50.5 -26 88.5v0zM801.002 281.995c0 -6.66699 0.335938 -14.001 1.00293 -22.001s1.66699 -16 3 -24c3.33301 -19.333 10.166 -37 20.499 -53s26.5 -24 48.5 -24c21.333 0 37.166 7.83301 47.499 23.5s17.5 32.834 21.5 51.5
c1.33301 8.66699 2.33301 17.167 3 25.5s1 15.833 1 22.5c0 6 -0.333008 14.167 -1 24.5c-0.666992 10.335 -2.33398 21.168 -5.00098 32.5c-4 16.667 -11.167 31.834 -21.5 45.501s-25.5 20.5 -45.5 20.5c-22 0 -38.167 -8.16699 -48.5 -24.5
c-10.3398 -16.333 -17.1729 -34.166 -20.5 -53.499c-1.33301 -8 -2.33301 -15.833 -3 -23.5c-0.666992 -7.66797 -1 -14.835 -1 -21.501v0z" />
    <glyph glyph-name="one" unicode="&#x2116;" horiz-adv-x="1125" 
d="M234 533l0.00390625 -397.002c0 -46.667 -7.16699 -80.5 -21.5 -101.5s-29.833 -34.5 -46.5 -40.5c-7.33301 -2.66699 -14.333 -4.5 -21 -5.5s-13 -1.5 -19 -1.5c-29.333 0 -52.833 8.33301 -70.5 25s-26.834 35.334 -27.501 56.001v1.5v1.5
c0 2 0.166992 4.16699 0.5 6.5s0.833008 4.5 1.5 6.5c2.66699 7.33301 7.5 14 14.5 20s16.833 9 29.5 9c14 0 25.5 -4.5 34.5 -13.5s13.5 -22.167 13.5 -39.5v-0.5v-1.5v-6v-6c0.666992 -6 2.5 -10.833 5.5 -14.5s6.16699 -6.16699 9.5 -7.5
c0.666992 0 1.16699 -0.166992 1.5 -0.5s0.833008 -0.5 1.5 -0.5s1.5 -0.166992 2.5 -0.5s1.83301 -0.5 2.5 -0.5s1.5 0.166992 2.5 0.5s1.83301 0.5 2.5 0.5c21.333 4 35.666 16.5 42.999 37.5s11.666 43.833 12.999 68.5c0.666992 4.66699 1 9.5 1 14.5v14.5v414l-89 122
h91l431 -570v445c0 7.33301 0.333008 16.333 1 27s2.66699 21.667 6 33c5.33301 20 16 38.167 32 54.5s41.667 24.5 77 24.5c24 0 42.5 -5.83301 55.5 -17.5s21.167 -24.5 24.5 -38.5c0.666992 -2.66699 1.16699 -5.16699 1.5 -7.5s0.5 -4.83301 0.5 -7.5
c0 -13.333 -3.83301 -24.333 -11.5 -33s-16.167 -14 -25.5 -16c-1.33301 0 -2.83301 -0.166992 -4.5 -0.5s-3.16699 -0.5 -4.5 -0.5c-13.333 0 -23.333 3.33301 -30 10s-11.334 14 -14.001 22c-2 6 -3.33301 11.667 -4 17s-1 9.33301 -1 12v1.5v1.5
c0 5.33301 -1.16699 10.333 -3.5 15s-8.5 7 -18.5 7c-2.66699 0 -6.16699 -0.666992 -10.5 -2c-4.33301 -1.35352 -8.83301 -3.68652 -13.5 -6.99902c-7.34375 -6 -14.1768 -16.167 -20.5 -30.5c-6.33301 -14.333 -9.5 -35.833 -9.5 -64.5v-583h-27l-406 547v0z
M977.004 34.998v-35h-206v35h206v0zM729.004 281.998c0 3.33301 0.165039 6.83008 0.498047 10.4971s0.833008 7.5 1.5 11.5c4 31.333 17.833 60 41.5 86s57.5 39 101.5 39c41.333 0 75.833 -13.667 103.5 -41s41.5 -62.666 41.5 -105.999
c0 -41.333 -10.5 -73.166 -31.5 -95.499s-44.5 -37.166 -70.5 -44.499c-7.34668 -2.66699 -14.6797 -4.5 -21.999 -5.5c-7.33301 -1 -14.333 -1.5 -21 -1.5c-8 0 -17.333 1 -28 3s-21.667 5.33301 -33 10c-21.3359 9.33301 -40.6689 24.5 -57.999 45.5
c-17.333 21 -26 50.5 -26 88.5v0zM801.002 281.995c0 -6.66699 0.335938 -14.001 1.00293 -22.001s1.66699 -16 3 -24c3.33301 -19.333 10.166 -37 20.499 -53s26.5 -24 48.5 -24c21.333 0 37.166 7.83301 47.499 23.5s17.5 32.834 21.5 51.5
c1.33301 8.66699 2.33301 17.167 3 25.5s1 15.833 1 22.5c0 6 -0.333008 14.167 -1 24.5c-0.666992 10.335 -2.33398 21.168 -5.00098 32.5c-4 16.667 -11.167 31.834 -21.5 45.501s-25.5 20.5 -45.5 20.5c-22 0 -38.167 -8.16699 -48.5 -24.5
c-10.3398 -16.333 -17.1729 -34.166 -20.5 -53.499c-1.33301 -8 -2.33301 -15.833 -3 -23.5c-0.666992 -7.66797 -1 -14.835 -1 -21.501v0z" />
    <glyph glyph-name="G" unicode="&#xba;" horiz-adv-x="477" 
d="M123 240c0 -12 0.666016 -25.498 1.99902 -40.498s4 -30.167 8 -45.5c8 -32.667 22.667 -62.834 44 -90.501s53 -41.5 95 -41.5c36.667 0 66.5 6.83301 89.5 20.5s44.5 41.834 64.5 84.501l20 -6c-14 -36.667 -36.667 -67.667 -68 -93s-70 -38 -116 -38h-2.5h-3.5
c-54.667 1.33301 -105 23.666 -151 66.999s-69 104.666 -69 183.999c0 67.333 18.667 122.833 56 166.5s88.333 65.5 153 65.5c9.33301 0 19 -0.5 29 -1.5s20.333 -2.5 31 -4.5s21.167 -4.83301 31.5 -8.5s19.833 -8.5 28.5 -14.5l-1 18h25l6 -121h-26v12
c0 5.33301 -1.5 12 -4.5 20s-7.5 16.333 -13.5 25c-10 14 -23.833 26.667 -41.5 38s-39.167 17 -64.5 17c-46 0 -77.333 -17.167 -94 -51.5s-26 -71.833 -28 -112.5v-11.5v-11.5c45.333 -0.666992 76.833 -0.5 94.5 0.5s32.5 1.83301 44.5 2.5c2.66699 0.666992 5 1 7 1h6
c3.33398 0.666992 6.66699 1.16699 10 1.5s7 0.5 11 0.5c6 0 11.167 0.166992 15.5 0.5s8.5 0.833008 12.5 1.5c2.66699 0.666992 5.5 1.16699 8.5 1.5s6.16699 0.833008 9.5 1.5v-52c-9.33301 2 -19.166 3.83301 -29.499 5.5s-20.833 3.16699 -31.5 4.5
c-26 2.66699 -50.333 4.16699 -73 4.5s-37.667 0.5 -45 0.5h-40v0z" />
    <glyph glyph-name="G" unicode="&#x454;" horiz-adv-x="477" 
d="M123 240c0 -12 0.666016 -25.498 1.99902 -40.498s4 -30.167 8 -45.5c8 -32.667 22.667 -62.834 44 -90.501s53 -41.5 95 -41.5c36.667 0 66.5 6.83301 89.5 20.5s44.5 41.834 64.5 84.501l20 -6c-14 -36.667 -36.667 -67.667 -68 -93s-70 -38 -116 -38h-2.5h-3.5
c-54.667 1.33301 -105 23.666 -151 66.999s-69 104.666 -69 183.999c0 67.333 18.667 122.833 56 166.5s88.333 65.5 153 65.5c9.33301 0 19 -0.5 29 -1.5s20.333 -2.5 31 -4.5s21.167 -4.83301 31.5 -8.5s19.833 -8.5 28.5 -14.5l-1 18h25l6 -121h-26v12
c0 5.33301 -1.5 12 -4.5 20s-7.5 16.333 -13.5 25c-10 14 -23.833 26.667 -41.5 38s-39.167 17 -64.5 17c-46 0 -77.333 -17.167 -94 -51.5s-26 -71.833 -28 -112.5v-11.5v-11.5c45.333 -0.666992 76.833 -0.5 94.5 0.5s32.5 1.83301 44.5 2.5c2.66699 0.666992 5 1 7 1h6
c3.33398 0.666992 6.66699 1.16699 10 1.5s7 0.5 11 0.5c6 0 11.167 0.166992 15.5 0.5s8.5 0.833008 12.5 1.5c2.66699 0.666992 5.5 1.16699 8.5 1.5s6.16699 0.833008 9.5 1.5v-52c-9.33301 2 -19.166 3.83301 -29.499 5.5s-20.833 3.16699 -31.5 4.5
c-26 2.66699 -50.333 4.16699 -73 4.5s-37.667 0.5 -45 0.5h-40v0z" />
    <glyph glyph-name="bracketleft" unicode="&#xbb;" horiz-adv-x="576" 
d="M165 456l12.999 11.999c16 -13.333 33.667 -28.166 53 -44.499s39.333 -32.833 60 -49.5c4.66699 -3.33301 9.33398 -7 14.001 -11s9.33398 -7.66699 14.001 -11c33.334 -26.667 65.667 -51.334 97 -74c31.334 -22.667 56.667 -39 76 -49
c-20 -12 -39.5 -24.5 -58.5 -37.5s-37.833 -26.167 -56.5 -39.5c-32.667 -24.667 -62.834 -48.334 -90.5 -71.001c-27.667 -22.667 -50.167 -41.667 -67.5 -57c-3.33301 -3.33301 -6.5 -6.16602 -9.5 -8.49902s-5.83301 -4.83301 -8.5 -7.5h-0.5h-0.5
c-2.66699 -2.66699 -5.83398 -5.33398 -9.50098 -8.00098s-7.83398 -6 -12.501 -10l-13 15c33.333 36.667 60.333 67.167 81 91.5s40.334 46.833 59.001 67.5c3.33301 3.33301 6.5 6.83301 9.5 10.5s6.16699 7.16699 9.5 10.5c6.66699 7.33301 13.667 14.5 21 21.5
s15 14.5 23 22.5c-28 28.667 -52.5 54.5 -73.5 77.5s-41.167 45.5 -60.5 67.5c0 0.666992 -0.166992 1.16699 -0.5 1.5l-0.5 0.5c-6 6.66699 -12 13.5 -18 20.5s-12 13.833 -18 20.5c-3.33301 3.33301 -6.33301 6.5 -9 9.5s-5 5.83301 -7 8.5l-2.5 2.5
c-1 1 -1.83301 2.16699 -2.5 3.5c-2 2 -3.83301 4.33301 -5.5 7s-3.5 5.33398 -5.5 8.00098v0zM83.999 375.999l16.998 12.9971c3.33301 -3.33301 6.83301 -6.66602 10.5 -9.99902s7.5 -6.66602 11.5 -9.99902c12.667 -12 25.5 -23.667 38.5 -35s26.167 -22.333 39.5 -33
c16 -13.333 31.833 -26 47.5 -38s30.834 -23.333 45.501 -34c-26.667 -20 -49.5 -37.833 -68.5 -53.5s-36.833 -30.834 -53.5 -45.501c-2.66699 -2.66699 -5.33398 -5.16699 -8.00098 -7.5s-5.33398 -4.83301 -8.00098 -7.5c-8.66699 -8 -17.5 -16.167 -26.5 -24.5
s-18.5 -17.166 -28.5 -26.499l-17 14c2 3.33301 4 6.33301 6 9l6 8c0.666992 0.666992 1.33398 1.5 2.00098 2.5s1.33398 1.83301 2.00098 2.5c6 8.66699 13.333 18.167 22 28.5s21 25.833 37 46.5c4.66699 6 8.66699 11.167 12 15.5s7 8.5 11 12.5
c0 0.666992 0.333008 1.33398 1 2c0.666992 0.666992 1 1.33398 1 2c3.33301 3.33301 6.5 6.83301 9.5 10.5s6.5 7.5 10.5 11.5c-18 20.667 -31.833 36.834 -41.5 48.501s-18.5 22.167 -26.5 31.5c-0.666992 0.666992 -1 1.16699 -1 1.5s-0.333008 0.5 -1 0.5
c-1.33398 1.33301 -2.66699 2.83301 -4 4.5s-2.66602 3.5 -3.99902 5.5c-6.66699 8 -12.167 14.667 -16.5 20s-8.5 10.333 -12.5 15c-0.666992 1.33594 -1.5 2.66895 -2.5 4c-1 1.33594 -1.83301 2.66895 -2.5 4l-4 6l-4 6v0z" />
    <glyph glyph-name="w" unicode="&#xbc;" horiz-adv-x="363" 
d="M251 473v-480c0 -65.333 -15.5 -116.833 -46.5 -154.5s-65.167 -59.834 -102.5 -66.501c-4 -1.32617 -8.16699 -2.15918 -12.5 -2.5c-4.33301 -0.333008 -8.83301 -0.5 -13.5 -0.5c-23.333 0 -41.666 6.83301 -54.999 20.5c-13.333 13.666 -20.333 28.833 -21 45.5v1.5
v1.5c0 11.333 3.5 20.833 10.5 28.5s14.833 12.5 23.5 14.5c1.33301 0.666992 2.5 1 3.5 1h3.5c2 0 4 -0.166992 6 -0.5s4.33301 -0.833008 7 -1.5c8 -2 15.333 -6.66699 22 -14s10 -18.333 10 -33c0 -1.33203 -0.166992 -2.66504 -0.5 -4
c-0.333008 -1.33301 -0.5 -2.33301 -0.5 -3v-1v-1c-0.666992 -0.666992 -1 -1.5 -1 -2.5v-2.5c0 -6.66699 1.66699 -12.334 5 -17.001s8.33301 -7 15 -7c3.33301 0 6.83301 0.333008 10.5 1s7.5 2 11.5 4c12 6 23.167 20 33.5 42s15.5 57.667 15.5 107v445
c0 6.66699 -3.83301 11.334 -11.5 14.001s-15.834 4.33398 -24.501 5.00098c-4 0.666992 -8 1 -12 1h-11h-1.5h-1.5h-8v19c6 0.666992 11.833 1.5 17.5 2.5s11.5 2.16699 17.5 3.5c20.667 4 40.5 9 59.5 15s36.167 12.333 51.5 19v0zM150 611
c0 13.333 4.83398 24.998 14.501 34.998s21.834 15 36.5 15c13.333 0 25 -5 35 -15s15 -21.667 15 -35c0 -13.334 -4.83301 -25.167 -14.5 -35.499c-9.66699 -10.333 -21.5 -15.5 -35.5 -15.5c-14.667 0 -26.834 5.33301 -36.501 16
c-9.66699 10.668 -14.5 22.335 -14.5 35.001v0z" />
    <glyph glyph-name="w" unicode="&#x458;" horiz-adv-x="363" 
d="M251 473v-480c0 -65.333 -15.5 -116.833 -46.5 -154.5s-65.167 -59.834 -102.5 -66.501c-4 -1.32617 -8.16699 -2.15918 -12.5 -2.5c-4.33301 -0.333008 -8.83301 -0.5 -13.5 -0.5c-23.333 0 -41.666 6.83301 -54.999 20.5c-13.333 13.666 -20.333 28.833 -21 45.5v1.5
v1.5c0 11.333 3.5 20.833 10.5 28.5s14.833 12.5 23.5 14.5c1.33301 0.666992 2.5 1 3.5 1h3.5c2 0 4 -0.166992 6 -0.5s4.33301 -0.833008 7 -1.5c8 -2 15.333 -6.66699 22 -14s10 -18.333 10 -33c0 -1.33203 -0.166992 -2.66504 -0.5 -4
c-0.333008 -1.33301 -0.5 -2.33301 -0.5 -3v-1v-1c-0.666992 -0.666992 -1 -1.5 -1 -2.5v-2.5c0 -6.66699 1.66699 -12.334 5 -17.001s8.33301 -7 15 -7c3.33301 0 6.83301 0.333008 10.5 1s7.5 2 11.5 4c12 6 23.167 20 33.5 42s15.5 57.667 15.5 107v445
c0 6.66699 -3.83301 11.334 -11.5 14.001s-15.834 4.33398 -24.501 5.00098c-4 0.666992 -8 1 -12 1h-11h-1.5h-1.5h-8v19c6 0.666992 11.833 1.5 17.5 2.5s11.5 2.16699 17.5 3.5c20.667 4 40.5 9 59.5 15s36.167 12.333 51.5 19v0zM150 611
c0 13.333 4.83398 24.998 14.501 34.998s21.834 15 36.5 15c13.333 0 25 -5 35 -15s15 -21.667 15 -35c0 -13.334 -4.83301 -25.167 -14.5 -35.499c-9.66699 -10.333 -21.5 -15.5 -35.5 -15.5c-14.667 0 -26.834 5.33301 -36.501 16
c-9.66699 10.668 -14.5 22.335 -14.5 35.001v0z" />
    <glyph glyph-name="bracketright" unicode="&#xbd;" horiz-adv-x="591" 
d="M507 517l-35 0.00390625l-1 30c0 6.66699 -3 15.167 -9 25.5s-14.333 21.166 -25 32.499c-16.667 17.333 -37.667 33.5 -63 48.5s-51.333 22.833 -78 23.5h-1.5h-1.5c-42 0 -73.167 -8.66699 -93.5 -26c-20.333 -17.335 -32.833 -36.668 -37.5 -58
c-1.33789 -4 -2.1709 -7.83301 -2.49902 -11.5c-0.333008 -3.66699 -0.5 -7.5 -0.5 -11.5c0 -14.667 3.5 -27.334 10.5 -38.001s14.833 -19.334 23.5 -26.001c4.66699 -4 9 -7.33301 13 -10s7.66699 -5 11 -7l207 -124c31.333 -18.667 58.333 -40.667 81 -66s34 -61 34 -107
c0 -52 -17.667 -99.167 -53 -141.5s-92.333 -63.5 -171 -63.5c-14 0 -38.167 2 -72.5 6s-77.5 17.333 -129.5 40l2 -33h-35l-13 181h35l3 -33c14.667 -25.333 33.167 -47.5 55.5 -66.5s45.5 -33.833 69.5 -44.5c14.667 -6.66699 29 -11.667 43 -15s27.333 -5 40 -5
c43.333 0 79.5 13.333 108.5 40s43.5 60 43.5 100c0 28 -7.16699 49 -21.5 63s-30.166 26.333 -47.499 37l-179 108l-20 12c-6.66699 4 -13 8 -19 12c-28 18.667 -51.333 38.167 -70 58.5s-28 46.5 -28 78.5c0 6.66699 0.333008 13.5 1 20.5s1.66699 13.833 3 20.5
c7.33301 35.333 26.666 67.666 57.999 96.999s80.666 44 147.999 44c36.667 0 69.5 -4.16699 98.5 -12.5s55.5 -18.5 79.5 -30.5l-1 29h34l6 -177v0z" />
    <glyph glyph-name="bracketright" unicode="&#x405;" horiz-adv-x="591" 
d="M507 517l-35 0.00390625l-1 30c0 6.66699 -3 15.167 -9 25.5s-14.333 21.166 -25 32.499c-16.667 17.333 -37.667 33.5 -63 48.5s-51.333 22.833 -78 23.5h-1.5h-1.5c-42 0 -73.167 -8.66699 -93.5 -26c-20.333 -17.335 -32.833 -36.668 -37.5 -58
c-1.33789 -4 -2.1709 -7.83301 -2.49902 -11.5c-0.333008 -3.66699 -0.5 -7.5 -0.5 -11.5c0 -14.667 3.5 -27.334 10.5 -38.001s14.833 -19.334 23.5 -26.001c4.66699 -4 9 -7.33301 13 -10s7.66699 -5 11 -7l207 -124c31.333 -18.667 58.333 -40.667 81 -66s34 -61 34 -107
c0 -52 -17.667 -99.167 -53 -141.5s-92.333 -63.5 -171 -63.5c-14 0 -38.167 2 -72.5 6s-77.5 17.333 -129.5 40l2 -33h-35l-13 181h35l3 -33c14.667 -25.333 33.167 -47.5 55.5 -66.5s45.5 -33.833 69.5 -44.5c14.667 -6.66699 29 -11.667 43 -15s27.333 -5 40 -5
c43.333 0 79.5 13.333 108.5 40s43.5 60 43.5 100c0 28 -7.16699 49 -21.5 63s-30.166 26.333 -47.499 37l-179 108l-20 12c-6.66699 4 -13 8 -19 12c-28 18.667 -51.333 38.167 -70 58.5s-28 46.5 -28 78.5c0 6.66699 0.333008 13.5 1 20.5s1.66699 13.833 3 20.5
c7.33301 35.333 26.666 67.666 57.999 96.999s80.666 44 147.999 44c36.667 0 69.5 -4.16699 98.5 -12.5s55.5 -18.5 79.5 -30.5l-1 29h34l6 -177v0z" />
    <glyph glyph-name="R" unicode="&#xbe;" horiz-adv-x="396" 
d="M330 462l4.00391 -125.002h-23v20c0 5.33594 -1.66699 11.1689 -5 17.499c-3.33301 6.33301 -8 12.833 -14 19.5c-10.667 12 -25 23.5 -43 34.5s-36.667 18.167 -56 21.5c-2.66699 0 -5.5 0.166992 -8.5 0.5s-5.83301 0.5 -8.5 0.5h-5.5
c-1.66699 0 -3.5 -0.333008 -5.5 -1c-5.33301 0 -10.5 -0.833008 -15.5 -2.5c-5 -1.67383 -9.83301 -3.84082 -14.5 -6.50098c-10.667 -6 -18.834 -14.667 -24.501 -26s-8.5 -23.666 -8.5 -36.999c0 -19.333 7.83301 -34.666 23.5 -45.999s34.167 -22 55.5 -32
c4 -2 8.16699 -4 12.5 -6s8.5 -4 12.5 -6c0.666992 0 1.16699 -0.166992 1.5 -0.5s0.833008 -0.5 1.5 -0.5c3.33301 -1.33301 6.66602 -2.83301 9.99902 -4.5s6.66602 -3.5 9.99902 -5.5c38 -18.667 68.833 -39 92.5 -61s35.5 -52 35.5 -90c0 -6 -0.5 -12 -1.5 -18
s-2.5 -12 -4.5 -18c-7.33301 -25.333 -23.333 -48.333 -48 -69s-59.334 -31 -104.001 -31c-22.667 0 -44.5 2.66699 -65.5 8s-39.167 11 -54.5 17c-2.66699 1.33301 -5.33398 2.5 -8 3.5c-2.66699 1 -5 2.16699 -7 3.5v-22h-19l-6 131h25
c0.666992 -27.333 11.167 -51 31.5 -71s42.5 -34 66.5 -42c6.66699 -2 13.5 -3.66699 20.5 -5s13.833 -2 20.5 -2c28 0 49.833 9 65.5 27s23.5 38.333 23.5 61c0 18.667 -5 34 -15 46s-21 21.667 -33 29c-4.66699 3.33301 -9.33398 6.16602 -14.001 8.49902l-13 6.5
c-20.667 10.667 -39.5 20.334 -56.5 29c-17 8.66699 -32.167 17.334 -45.5 26c-22 14.667 -39 29.834 -51 45.501s-18 35.834 -18 60.501c0 34.667 12.333 63.834 37 87.501s57.334 35.5 98.001 35.5c11.333 0 23.5 -0.666992 36.5 -2s26.167 -4 39.5 -8
c8.66699 -2 17.167 -4.66699 25.5 -8s16.5 -7 24.5 -11v18h23v0z" />
    <glyph glyph-name="R" unicode="&#x455;" horiz-adv-x="396" 
d="M330 462l4.00391 -125.002h-23v20c0 5.33594 -1.66699 11.1689 -5 17.499c-3.33301 6.33301 -8 12.833 -14 19.5c-10.667 12 -25 23.5 -43 34.5s-36.667 18.167 -56 21.5c-2.66699 0 -5.5 0.166992 -8.5 0.5s-5.83301 0.5 -8.5 0.5h-5.5
c-1.66699 0 -3.5 -0.333008 -5.5 -1c-5.33301 0 -10.5 -0.833008 -15.5 -2.5c-5 -1.67383 -9.83301 -3.84082 -14.5 -6.50098c-10.667 -6 -18.834 -14.667 -24.501 -26s-8.5 -23.666 -8.5 -36.999c0 -19.333 7.83301 -34.666 23.5 -45.999s34.167 -22 55.5 -32
c4 -2 8.16699 -4 12.5 -6s8.5 -4 12.5 -6c0.666992 0 1.16699 -0.166992 1.5 -0.5s0.833008 -0.5 1.5 -0.5c3.33301 -1.33301 6.66602 -2.83301 9.99902 -4.5s6.66602 -3.5 9.99902 -5.5c38 -18.667 68.833 -39 92.5 -61s35.5 -52 35.5 -90c0 -6 -0.5 -12 -1.5 -18
s-2.5 -12 -4.5 -18c-7.33301 -25.333 -23.333 -48.333 -48 -69s-59.334 -31 -104.001 -31c-22.667 0 -44.5 2.66699 -65.5 8s-39.167 11 -54.5 17c-2.66699 1.33301 -5.33398 2.5 -8 3.5c-2.66699 1 -5 2.16699 -7 3.5v-22h-19l-6 131h25
c0.666992 -27.333 11.167 -51 31.5 -71s42.5 -34 66.5 -42c6.66699 -2 13.5 -3.66699 20.5 -5s13.833 -2 20.5 -2c28 0 49.833 9 65.5 27s23.5 38.333 23.5 61c0 18.667 -5 34 -15 46s-21 21.667 -33 29c-4.66699 3.33301 -9.33398 6.16602 -14.001 8.49902l-13 6.5
c-20.667 10.667 -39.5 20.334 -56.5 29c-17 8.66699 -32.167 17.334 -45.5 26c-22 14.667 -39 29.834 -51 45.501s-18 35.834 -18 60.501c0 34.667 12.333 63.834 37 87.501s57.334 35.5 98.001 35.5c11.333 0 23.5 -0.666992 36.5 -2s26.167 -4 39.5 -8
c8.66699 -2 17.167 -4.66699 25.5 -8s16.5 -7 24.5 -11v18h23v0z" />
    <glyph glyph-name="underscore" unicode="&#xbf;" horiz-adv-x="311" 
d="M118 46l-0.000976562 348c0 5.33301 -3.66699 10 -11 14s-24.666 6 -51.999 6h-7v19c10 1.33984 20.833 3.17285 32.5 5.5c11.667 2.33691 23.5 5.16992 35.5 8.5c14 4 27.833 8.16699 41.5 12.5s25.834 8.83301 36.501 13.5v-427c0 -10.667 3.33301 -17.334 10 -20.001
s15.334 -4 26 -4h39v-22h-226v22h39c11.333 0 20.166 1.33301 26.499 4s9.5 9.33398 9.5 20.001v0zM18.999 608c0 16 5.33301 29.333 16 40s24 16 40 16c14.667 0 26.5 -4.33301 35.5 -13s15.167 -18 18.5 -28c0.666992 -2.66699 1.16699 -5.16699 1.5 -7.5
s0.5 -4.83301 0.5 -7.5c0 -14.667 -5.5 -27.667 -16.5 -39s-24.167 -17 -39.5 -17c-2.66699 0 -5.16699 0.166992 -7.5 0.5s-4.83301 0.833008 -7.5 1.5c-10 3.33301 -19.333 9.5 -28 18.5s-13 20.833 -13 35.5v0zM180.999 608c0 16 5.33301 29.333 16 40s24 16 40 16
c14.667 0 26.5 -4.33301 35.5 -13s15.167 -18 18.5 -28c0.666992 -2.66699 1.16699 -5.16699 1.5 -7.5s0.5 -4.83301 0.5 -7.5c0 -14.667 -5.66699 -27.667 -17 -39s-24.333 -17 -39 -17c-2.66699 0 -5.16699 0.166992 -7.5 0.5s-4.83301 0.833008 -7.5 1.5
c-10 3.33301 -19.333 9.5 -28 18.5s-13 20.833 -13 35.5v0z" />
    <glyph glyph-name="underscore" unicode="&#x457;" horiz-adv-x="311" 
d="M118 46l-0.000976562 348c0 5.33301 -3.66699 10 -11 14s-24.666 6 -51.999 6h-7v19c10 1.33984 20.833 3.17285 32.5 5.5c11.667 2.33691 23.5 5.16992 35.5 8.5c14 4 27.833 8.16699 41.5 12.5s25.834 8.83301 36.501 13.5v-427c0 -10.667 3.33301 -17.334 10 -20.001
s15.334 -4 26 -4h39v-22h-226v22h39c11.333 0 20.166 1.33301 26.499 4s9.5 9.33398 9.5 20.001v0zM18.999 608c0 16 5.33301 29.333 16 40s24 16 40 16c14.667 0 26.5 -4.33301 35.5 -13s15.167 -18 18.5 -28c0.666992 -2.66699 1.16699 -5.16699 1.5 -7.5
s0.5 -4.83301 0.5 -7.5c0 -14.667 -5.5 -27.667 -16.5 -39s-24.167 -17 -39.5 -17c-2.66699 0 -5.16699 0.166992 -7.5 0.5s-4.83301 0.833008 -7.5 1.5c-10 3.33301 -19.333 9.5 -28 18.5s-13 20.833 -13 35.5v0zM180.999 608c0 16 5.33301 29.333 16 40s24 16 40 16
c14.667 0 26.5 -4.33301 35.5 -13s15.167 -18 18.5 -28c0.666992 -2.66699 1.16699 -5.16699 1.5 -7.5s0.5 -4.83301 0.5 -7.5c0 -14.667 -5.66699 -27.667 -17 -39s-24.333 -17 -39 -17c-2.66699 0 -5.16699 0.166992 -7.5 0.5s-4.83301 0.833008 -7.5 1.5
c-10 3.33301 -19.333 9.5 -28 18.5s-13 20.833 -13 35.5v0z" />
    <glyph glyph-name="grave" unicode="&#xc0;" horiz-adv-x="715" 
d="M233 273l-22.998 -62.001c-10.667 -28 -20.334 -53.667 -29.001 -77s-13 -43.333 -13 -60c0 -2.66699 0.166992 -5.5 0.5 -8.5s1.16602 -6.16699 2.49902 -9.5c1.33301 -7.33301 4 -13.833 8 -19.5s8.66699 -8.5 14 -8.5h44v-28h-203v28h24c10 0 21.167 7.33301 33.5 22
s27.5 41.334 45.5 80.001c9.33301 19.333 29.5 66.5 60.5 141.5s83.5 215.833 157.5 422.5h42l220 -605c1.33301 -3.33301 2.83301 -7.33301 4.5 -12c1.68555 -4.66699 3.85254 -9.33398 6.5 -14.001c4.66699 -8.66699 11.5 -16.667 20.5 -24s21.5 -11 37.5 -11h22v-28h-256
v28h40h5.5h5.5c7.33301 0.666992 14 2.83398 20 6.50098s9 10.167 9 19.5c0 8 -1.83301 18 -5.5 30s-9.16699 28.333 -16.5 49l-50 140h-227v0zM243.002 300.999h207l-103 283l-104 -283v0z" />
    <glyph glyph-name="grave" unicode="&#x410;" horiz-adv-x="715" 
d="M233 273l-22.998 -62.001c-10.667 -28 -20.334 -53.667 -29.001 -77s-13 -43.333 -13 -60c0 -2.66699 0.166992 -5.5 0.5 -8.5s1.16602 -6.16699 2.49902 -9.5c1.33301 -7.33301 4 -13.833 8 -19.5s8.66699 -8.5 14 -8.5h44v-28h-203v28h24c10 0 21.167 7.33301 33.5 22
s27.5 41.334 45.5 80.001c9.33301 19.333 29.5 66.5 60.5 141.5s83.5 215.833 157.5 422.5h42l220 -605c1.33301 -3.33301 2.83301 -7.33301 4.5 -12c1.68555 -4.66699 3.85254 -9.33398 6.5 -14.001c4.66699 -8.66699 11.5 -16.667 20.5 -24s21.5 -11 37.5 -11h22v-28h-256
v28h40h5.5h5.5c7.33301 0.666992 14 2.83398 20 6.50098s9 10.167 9 19.5c0 8 -1.83301 18 -5.5 30s-9.16699 28.333 -16.5 49l-50 140h-227v0zM243.002 300.999h207l-103 283l-104 -283v0z" />
    <glyph glyph-name="a" unicode="&#xc1;" horiz-adv-x="714" 
d="M255 620l0.00195312 -200.002c2.66699 0.666992 5.16699 1.33398 7.5 2.00098s4.83301 1.33398 7.5 2.00098c14.667 4 30 7 46 9s34.667 3 56 3c92 0 159.833 -17.333 203.499 -52c43.667 -34.667 70.5 -72.667 80.5 -114c1.33301 -8 2.5 -15.667 3.5 -23
c1 -7.33398 1.5 -14.667 1.5 -22c0 -6.66699 -0.333008 -13.667 -1 -21c-0.666992 -7.33398 -1.66699 -14.667 -3 -22c-8.66699 -46 -34.834 -88.333 -78.501 -127s-112.834 -58 -207.501 -58c-6 0 -12.667 0.166992 -20 0.5s-14.666 0.833008 -21.999 1.5h-1h-2
c-6.66797 0.666992 -13.335 1 -20 1h-19h-219v28h57h6c2 0 4.33301 0.333008 7 1c6 1.33301 11.667 5 17 11s8 17 8 33v548c0 16 -2.66699 27 -8 33s-11 9.66699 -17 11c-2.66699 0.666992 -5 1 -7 1h-6h-57v28h532l12 -142h-32l-1 31l-1 13l-2.5 2.5l-2.5 2.5
c-16 16.667 -41.833 31.667 -77.5 45s-98.167 20 -187.5 20h-15c-13.333 0 -23 -3.83301 -29 -11.5s-9 -19.167 -9 -34.5v0zM255.002 391.998v-339.002c0 -8.66699 7.66699 -15.667 23 -21c15.334 -5.33301 49.667 -8 103 -8c58 0 101 20.833 129 62.5s42 88.5 42 140.5
c0 64.667 -19.333 109.834 -58 135.501s-81.334 39.5 -128 41.5h-8h-8c-16.667 0 -33.167 -1.16699 -49.5 -3.5s-31.5 -5.16602 -45.5 -8.49902v0z" />
    <glyph glyph-name="a" unicode="&#x411;" horiz-adv-x="714" 
d="M255 620l0.00195312 -200.002c2.66699 0.666992 5.16699 1.33398 7.5 2.00098s4.83301 1.33398 7.5 2.00098c14.667 4 30 7 46 9s34.667 3 56 3c92 0 159.833 -17.333 203.499 -52c43.667 -34.667 70.5 -72.667 80.5 -114c1.33301 -8 2.5 -15.667 3.5 -23
c1 -7.33398 1.5 -14.667 1.5 -22c0 -6.66699 -0.333008 -13.667 -1 -21c-0.666992 -7.33398 -1.66699 -14.667 -3 -22c-8.66699 -46 -34.834 -88.333 -78.501 -127s-112.834 -58 -207.501 -58c-6 0 -12.667 0.166992 -20 0.5s-14.666 0.833008 -21.999 1.5h-1h-2
c-6.66797 0.666992 -13.335 1 -20 1h-19h-219v28h57h6c2 0 4.33301 0.333008 7 1c6 1.33301 11.667 5 17 11s8 17 8 33v548c0 16 -2.66699 27 -8 33s-11 9.66699 -17 11c-2.66699 0.666992 -5 1 -7 1h-6h-57v28h532l12 -142h-32l-1 31l-1 13l-2.5 2.5l-2.5 2.5
c-16 16.667 -41.833 31.667 -77.5 45s-98.167 20 -187.5 20h-15c-13.333 0 -23 -3.83301 -29 -11.5s-9 -19.167 -9 -34.5v0zM255.002 391.998v-339.002c0 -8.66699 7.66699 -15.667 23 -21c15.334 -5.33301 49.667 -8 103 -8c58 0 101 20.833 129 62.5s42 88.5 42 140.5
c0 64.667 -19.333 109.834 -58 135.501s-81.334 39.5 -128 41.5h-8h-8c-16.667 0 -33.167 -1.16699 -49.5 -3.5s-31.5 -5.16602 -45.5 -8.49902v0z" />
    <glyph glyph-name="b" unicode="&#xc2;" horiz-adv-x="719" 
d="M67 0l0.00195312 28.001h57h6c2 0 4.33301 0.333008 7 1c6 1.33301 11.667 5 17 11s8 17 8 33v548c0 14 -2.83301 25 -8.5 33s-15.5 12 -29.5 12h-57v28h240c7.33301 0 14.833 0.166992 22.5 0.5s15.167 0.833008 22.5 1.5c7.33496 0 14.668 0.166992 22 0.5
c7.33496 0.333008 14.668 0.5 22 0.5c82 0 141.833 -16.167 179.499 -48.5c37.668 -32.333 57.835 -67.833 60.5 -106.5v-4v-4c0 -4.66699 -0.333008 -9.66699 -1 -15c-0.666992 -5.33691 -1.33398 -10.3369 -2.00098 -15c-6 -26.667 -21.167 -51.5 -45.5 -74.5
s-61.5 -37.5 -111.5 -43.5c53.333 -6.66699 98.333 -26.834 135 -60.5c36.667 -33.667 55 -76.834 55 -129.501c0 -8 -0.333008 -16 -1 -24s-2 -16 -4 -24c-8 -38 -28.167 -72.667 -60.5 -104s-83.833 -47 -154.5 -47c-20 0 -36 0.166992 -48 0.5s-22.667 0.833008 -32 1.5
h-4h-4c-8 0.666992 -16.5 1 -25.5 1h-33.5h-232v0zM254.002 368.001v-300.999c11.333 -12 23 -21 35 -27s24 -10 36 -12c8 -2 16 -3.16699 24 -3.5s16 -0.5 24 -0.5c53.333 0 93 10.5 119 31.5s43.667 44.167 53 69.5c4.68359 12.667 7.85059 25 9.5 37
c1.66699 12 2.5 22.667 2.5 32c0 47.333 -13 88.166 -39 122.499s-68.667 51.5 -128 51.5h-136v0zM254.002 398.002h125c6 0 16 0.5 30 1.5s28.667 4.5 44 10.5c20 8 38.333 21.167 55 39.5c16.667 18.334 25 46.167 25 83.5s-8.83301 65.333 -26.5 84s-36.834 32 -57.5 40
c-16.668 6 -32.335 9.5 -47.001 10.5c-14.668 1 -25.335 1.5 -32 1.5c-6.66699 0 -14 -0.333008 -22 -1s-16.333 -2 -25 -4c-17.333 -3.34375 -33.166 -8.67676 -47.499 -16c-14.333 -7.33301 -21.5 -17.333 -21.5 -30v-220v0z" />
    <glyph glyph-name="b" unicode="&#x412;" horiz-adv-x="719" 
d="M67 0l0.00195312 28.001h57h6c2 0 4.33301 0.333008 7 1c6 1.33301 11.667 5 17 11s8 17 8 33v548c0 14 -2.83301 25 -8.5 33s-15.5 12 -29.5 12h-57v28h240c7.33301 0 14.833 0.166992 22.5 0.5s15.167 0.833008 22.5 1.5c7.33496 0 14.668 0.166992 22 0.5
c7.33496 0.333008 14.668 0.5 22 0.5c82 0 141.833 -16.167 179.499 -48.5c37.668 -32.333 57.835 -67.833 60.5 -106.5v-4v-4c0 -4.66699 -0.333008 -9.66699 -1 -15c-0.666992 -5.33691 -1.33398 -10.3369 -2.00098 -15c-6 -26.667 -21.167 -51.5 -45.5 -74.5
s-61.5 -37.5 -111.5 -43.5c53.333 -6.66699 98.333 -26.834 135 -60.5c36.667 -33.667 55 -76.834 55 -129.501c0 -8 -0.333008 -16 -1 -24s-2 -16 -4 -24c-8 -38 -28.167 -72.667 -60.5 -104s-83.833 -47 -154.5 -47c-20 0 -36 0.166992 -48 0.5s-22.667 0.833008 -32 1.5
h-4h-4c-8 0.666992 -16.5 1 -25.5 1h-33.5h-232v0zM254.002 368.001v-300.999c11.333 -12 23 -21 35 -27s24 -10 36 -12c8 -2 16 -3.16699 24 -3.5s16 -0.5 24 -0.5c53.333 0 93 10.5 119 31.5s43.667 44.167 53 69.5c4.68359 12.667 7.85059 25 9.5 37
c1.66699 12 2.5 22.667 2.5 32c0 47.333 -13 88.166 -39 122.499s-68.667 51.5 -128 51.5h-136v0zM254.002 398.002h125c6 0 16 0.5 30 1.5s28.667 4.5 44 10.5c20 8 38.333 21.167 55 39.5c16.667 18.334 25 46.167 25 83.5s-8.83301 65.333 -26.5 84s-36.834 32 -57.5 40
c-16.668 6 -32.335 9.5 -47.001 10.5c-14.668 1 -25.335 1.5 -32 1.5c-6.66699 0 -14 -0.333008 -22 -1s-16.333 -2 -25 -4c-17.333 -3.34375 -33.166 -8.67676 -47.499 -16c-14.333 -7.33301 -21.5 -17.333 -21.5 -30v-220v0z" />
    <glyph glyph-name="c" unicode="&#xc3;" horiz-adv-x="558" 
d="M162 61v570.999c0 9.33301 -3.5 17.333 -10.5 24s-16.167 10 -27.5 10h-57v28h488l3 -145h-29v42c-9.33496 14.6709 -26.335 27.3379 -51 38c-24.667 10.6719 -51 19.3389 -79 26.001c-16.667 3.33301 -33 6 -49 8s-30.333 3 -43 3h-15
c-11.333 0 -20.5 -3.33301 -27.5 -10s-10.5 -14.667 -10.5 -24v-571c0 -2 0.333008 -4.33301 1 -7s1.66699 -5.33398 3 -8.00098c2 -4.66699 5.66699 -8.83398 11 -12.501s13 -5.5 23 -5.5h57v-28h-282v28h57c10 0 17.667 1.83301 23 5.5s9 7.83398 11 12.501
c1.33301 2.66699 2.33301 5.33398 3 8.00098s1 5 1 7v0z" />
    <glyph glyph-name="c" unicode="&#x413;" horiz-adv-x="558" 
d="M162 61v570.999c0 9.33301 -3.5 17.333 -10.5 24s-16.167 10 -27.5 10h-57v28h488l3 -145h-29v42c-9.33496 14.6709 -26.335 27.3379 -51 38c-24.667 10.6719 -51 19.3389 -79 26.001c-16.667 3.33301 -33 6 -49 8s-30.333 3 -43 3h-15
c-11.333 0 -20.5 -3.33301 -27.5 -10s-10.5 -14.667 -10.5 -24v-571c0 -2 0.333008 -4.33301 1 -7s1.66699 -5.33398 3 -8.00098c2 -4.66699 5.66699 -8.83398 11 -12.501s13 -5.5 23 -5.5h57v-28h-282v28h57c10 0 17.667 1.83301 23 5.5s9 7.83398 11 12.501
c1.33301 2.66699 2.33301 5.33398 3 8.00098s1 5 1 7v0z" />
    <glyph glyph-name="d" unicode="&#xc4;" horiz-adv-x="787" 
d="M67 -157l13.001 172.997c40.667 4.66699 70.5 22.834 89.5 54.501s36.167 72.167 51.5 121.5c1.33301 5.33301 2.83301 10.833 4.5 16.5s3.5 11.5 5.5 17.5c4.66699 16.667 10.5 37 17.5 61s13.833 49.667 20.5 77c2 6 3.83301 12.333 5.5 19s3.16699 13 4.5 19
c11.333 42.667 21 82.834 29 120.501s12 64.5 12 80.5c0 26.6689 -5.5 43.8359 -16.5 51.5c-11 7.66699 -26.167 11.5 -45.5 11.5h-41v28h510v-28h-57h-6c-2 0 -4.33301 -0.333008 -7 -1c-6 -1.33301 -11.667 -5 -17 -11s-8 -17 -8 -33v-548c0 -16 2.66699 -27 8 -33
s11 -9.66699 17 -11c2.66699 -0.666992 5 -1 7 -1h6h57l8 -185h-29v42c0 24 -19.5 46.333 -58.5 67s-81.833 35 -128.5 43c-10.667 2 -21.5 3.33301 -32.5 4s-21.5 1 -31.5 1h-101c-13.333 0 -27.333 -0.666992 -42 -2s-29.334 -3.66602 -44 -6.99902
c-42.667 -9.33301 -81.834 -24 -117.501 -44s-53.5 -44 -53.5 -72v-32h-30v0zM258.001 27.9971h244h6c2.00781 0 4.34082 0.333008 7 1c6 1.33301 11.667 5 17 11s8 17 8 33v548c0 14.667 -2.33301 25.167 -7 31.5s-10 10.166 -16 11.499
c-2 0.666992 -4.33301 1.16699 -7 1.5s-5 0.5 -7 0.5h-90c-22 0 -37 -7.66699 -45 -23s-14.667 -37.333 -20 -66c-1.33301 -7.33789 -2.83301 -15.1709 -4.5 -23.5c-1.66699 -8.33301 -3.16699 -16.833 -4.5 -25.5c-5.33301 -30 -11 -58.167 -17 -84.5
s-12 -51.166 -18 -74.499c-22.667 -88 -43.334 -156 -62 -204c-18.667 -48 -28 -83 -28 -105c0 -12 3.33301 -20.167 10 -24.5s14.334 -6.83301 23 -7.5h5h6v0z" />
    <glyph glyph-name="d" unicode="&#x414;" horiz-adv-x="787" 
d="M67 -157l13.001 172.997c40.667 4.66699 70.5 22.834 89.5 54.501s36.167 72.167 51.5 121.5c1.33301 5.33301 2.83301 10.833 4.5 16.5s3.5 11.5 5.5 17.5c4.66699 16.667 10.5 37 17.5 61s13.833 49.667 20.5 77c2 6 3.83301 12.333 5.5 19s3.16699 13 4.5 19
c11.333 42.667 21 82.834 29 120.501s12 64.5 12 80.5c0 26.6689 -5.5 43.8359 -16.5 51.5c-11 7.66699 -26.167 11.5 -45.5 11.5h-41v28h510v-28h-57h-6c-2 0 -4.33301 -0.333008 -7 -1c-6 -1.33301 -11.667 -5 -17 -11s-8 -17 -8 -33v-548c0 -16 2.66699 -27 8 -33
s11 -9.66699 17 -11c2.66699 -0.666992 5 -1 7 -1h6h57l8 -185h-29v42c0 24 -19.5 46.333 -58.5 67s-81.833 35 -128.5 43c-10.667 2 -21.5 3.33301 -32.5 4s-21.5 1 -31.5 1h-101c-13.333 0 -27.333 -0.666992 -42 -2s-29.334 -3.66602 -44 -6.99902
c-42.667 -9.33301 -81.834 -24 -117.501 -44s-53.5 -44 -53.5 -72v-32h-30v0zM258.001 27.9971h244h6c2.00781 0 4.34082 0.333008 7 1c6 1.33301 11.667 5 17 11s8 17 8 33v548c0 14.667 -2.33301 25.167 -7 31.5s-10 10.166 -16 11.499
c-2 0.666992 -4.33301 1.16699 -7 1.5s-5 0.5 -7 0.5h-90c-22 0 -37 -7.66699 -45 -23s-14.667 -37.333 -20 -66c-1.33301 -7.33789 -2.83301 -15.1709 -4.5 -23.5c-1.66699 -8.33301 -3.16699 -16.833 -4.5 -25.5c-5.33301 -30 -11 -58.167 -17 -84.5
s-12 -51.166 -18 -74.499c-22.667 -88 -43.334 -156 -62 -204c-18.667 -48 -28 -83 -28 -105c0 -12 3.33301 -20.167 10 -24.5s14.334 -6.83301 23 -7.5h5h6v0z" />
    <glyph glyph-name="e" unicode="&#xc5;" horiz-adv-x="688" 
d="M254 380h45c83.333 0 133.5 5.83301 150.5 17.5s25.5 24.834 25.5 39.501v25h29v-192h-29v25c0 15.335 -8.5 28.668 -25.5 40c-17 11.333 -67.167 17 -150.5 17h-45v-279c0.00195312 -16 2.66895 -27 8 -33c5.33301 -6 11 -9.66699 17 -11c2.66699 -0.666992 5 -1 7 -1h6
h14c17.334 0 37.167 1 59.5 3s45.5 4.66699 69.5 8c42 7.33301 81 18 117 32s56.333 32 61 54l6 30h27l-33 -155h-546v28h57h6c2 0 4.33301 0.333008 7 1c6 1.33301 11.667 5 17 11s8 17 8 33v548c0 16 -2.66699 27 -8 33s-11 9.66699 -17 11c-2.66699 0.666992 -5 1 -7 1
h-6h-57v28h542l2 -140h-28l-2 52c-38.667 25.333 -77.5 41.666 -116.5 48.999s-77.5 11 -115.5 11h-57c-14 0 -23.833 -4.16699 -29.5 -12.5c-5.66895 -8.33398 -8.50195 -19.167 -8.5 -32.5v-241v0z" />
    <glyph glyph-name="e" unicode="&#x415;" horiz-adv-x="688" 
d="M254 380h45c83.333 0 133.5 5.83301 150.5 17.5s25.5 24.834 25.5 39.501v25h29v-192h-29v25c0 15.335 -8.5 28.668 -25.5 40c-17 11.333 -67.167 17 -150.5 17h-45v-279c0.00195312 -16 2.66895 -27 8 -33c5.33301 -6 11 -9.66699 17 -11c2.66699 -0.666992 5 -1 7 -1h6
h14c17.334 0 37.167 1 59.5 3s45.5 4.66699 69.5 8c42 7.33301 81 18 117 32s56.333 32 61 54l6 30h27l-33 -155h-546v28h57h6c2 0 4.33301 0.333008 7 1c6 1.33301 11.667 5 17 11s8 17 8 33v548c0 16 -2.66699 27 -8 33s-11 9.66699 -17 11c-2.66699 0.666992 -5 1 -7 1
h-6h-57v28h542l2 -140h-28l-2 52c-38.667 25.333 -77.5 41.666 -116.5 48.999s-77.5 11 -115.5 11h-57c-14 0 -23.833 -4.16699 -29.5 -12.5c-5.66895 -8.33398 -8.50195 -19.167 -8.5 -32.5v-241v0z" />
    <glyph glyph-name="f" unicode="&#xc6;" horiz-adv-x="1105" 
d="M507 362l-69.0039 0.00195312c-24 0 -43.333 -6.33301 -58 -19s-28.667 -30.667 -42 -54c-8 -15.333 -16.333 -32.666 -25 -51.999s-18.667 -40.666 -30 -63.999c-4 -9.33301 -8.33301 -19 -13 -29l-14 -30c-14.667 -32 -32.334 -61.167 -53.001 -87.5
s-47.334 -39.5 -80.001 -39.5c-4.66699 0 -9.66699 0.166992 -15 0.5s-11 1.5 -17 3.5c-13.333 3.33301 -25.666 10.833 -36.999 22.5s-18 31.5 -20 59.5h28c0 -1.33301 0.166992 -2.83301 0.5 -4.5s0.5 -3.16699 0.5 -4.5c1.33301 -8.66699 4.5 -16.667 9.5 -24
s11.167 -11 18.5 -11c5.33301 0 9.83301 1.5 13.5 4.5s7.5 7.83301 11.5 14.5s8.33301 15.834 13 27.501s10.334 25.5 17.001 41.5c5.33301 14 11.166 28.5 17.499 43.5s13.5 30.5 21.5 46.5c19.333 36 45.333 70.333 78 103s78 56 136 70
c-31.333 9.33301 -57.166 24 -77.499 44s-37.166 41 -50.499 63c-10 17.333 -18 34 -24 50s-11 29.667 -15 41c-14.667 44.667 -27.167 71.5 -37.5 80.5c-10.334 9 -17.167 13.5 -20.5 13.5c-2 0 -3.5 -0.333008 -4.5 -1s-1.5 -2.66699 -1.5 -6v-4.5
c0 -1.66699 0.333008 -3.16699 1 -4.5c0.666992 -2.66699 1.16699 -5.16699 1.5 -7.5s0.5 -4.83301 0.5 -7.5c0 -12 -4.16699 -23 -12.5 -33s-20.166 -15 -35.499 -15c-14.667 0 -26.167 4.16699 -34.5 12.5s-13.833 17.5 -16.5 27.5c0 2 -0.166992 4 -0.5 6s-0.5 4 -0.5 6
v1.5v1.5c0.666992 14.6689 6.66699 28.3359 18 41c11.333 12.667 29 19 53 19c16.667 0 31.334 -3.33301 44 -10c12.667 -6.66699 25 -17 37 -31c12 -14.667 24.333 -33.5 37 -56.5s27.334 -51.167 44.001 -84.5c23.334 -46.667 43.167 -79 59.5 -97s31.833 -29 46.5 -33
c4.66699 -1.33301 9.33398 -2.16602 14.001 -2.49902s9.33398 -0.5 14.001 -0.5h69v228c0 16 -2.66699 27 -8 33s-11 9.66699 -17 11c-2.66699 0.666992 -5 1 -7 1h-6h-57v28h282v-28h-57h-6c-2 0 -4.33301 -0.333008 -7 -1c-6 -1.33301 -11.667 -5 -17 -11s-8 -17 -8 -33
v-228h68c14.667 0 32 5.33301 52 16s43 41 69 91c18.667 36.667 35 68.167 49 94.5s27.333 48.166 40 65.499c12 16.6719 24.833 28.8389 38.5 36.5c13.667 7.66699 29.5 11.5 47.5 11.5c25.333 0 43.666 -6.33301 54.999 -19s17 -27.334 17 -44.001
c0 -12.667 -4.33301 -24.5 -13 -35.5s-21.667 -16.5 -39 -16.5c-13.3408 0 -24.6738 4.33301 -34 13c-9.33301 8.6709 -14 20.3379 -14 35v4c0 1.33301 0.333008 2.66602 1 3.99902v3v4v2c0 0.666992 0.333008 1.66699 1 3v2v2v0.5v0.5v0.5v0.5v1.5v0.5
c-0.666992 1.33301 -1.5 2.16602 -2.5 2.49902s-2.16699 0.5 -3.5 0.5c-4.66699 0 -12.167 -5.66699 -22.5 -17c-10.3398 -11.333 -22.1729 -37 -35.499 -77c-4 -11.333 -8.83301 -24.5 -14.5 -39.5s-12.834 -30.5 -21.501 -46.5c-13.333 -22.667 -30.333 -44.5 -51 -65.5
s-47 -36.5 -79 -46.5c55.333 -14 99.333 -36.333 132 -67c32.668 -30.667 58.335 -63 77 -97c11.333 -20.667 21 -40.834 29 -60.501s15 -37.5 21 -53.5c1.33301 -2.66699 2.5 -5.5 3.5 -8.5s2.16699 -6.16699 3.5 -9.5c4.66699 -14 10.167 -26.667 16.5 -38
s14.5 -17 24.5 -17h1.5h1.5c6 1.33301 11.667 5.5 17 12.5s8.33301 17.5 9 31.5h28c-4.66699 -29.333 -13.667 -51 -27 -65s-34 -21 -62 -21c-33.333 0 -60.333 13.667 -81 41s-38.667 57.333 -54 90c-4.66699 9.33301 -9 18.666 -13 27.999s-8 18.333 -12 27
c-10 22 -19.333 42.333 -28 61s-17 35.334 -25 50.001c-13.3389 25.333 -27.6719 44.666 -43 57.999c-15.333 13.333 -35 20 -59 20h-68v-289c0 -16 2.66699 -27 8 -33s11 -9.66699 17 -11c2.66699 -0.666992 5 -1 7 -1h6h57v-28h-282v28h57h6c2 0 4.33301 0.333008 7 1
c6 1.33301 11.667 5 17 11s8 17 8 33v289v0z" />
    <glyph glyph-name="f" unicode="&#x416;" horiz-adv-x="1105" 
d="M507 362l-69.0039 0.00195312c-24 0 -43.333 -6.33301 -58 -19s-28.667 -30.667 -42 -54c-8 -15.333 -16.333 -32.666 -25 -51.999s-18.667 -40.666 -30 -63.999c-4 -9.33301 -8.33301 -19 -13 -29l-14 -30c-14.667 -32 -32.334 -61.167 -53.001 -87.5
s-47.334 -39.5 -80.001 -39.5c-4.66699 0 -9.66699 0.166992 -15 0.5s-11 1.5 -17 3.5c-13.333 3.33301 -25.666 10.833 -36.999 22.5s-18 31.5 -20 59.5h28c0 -1.33301 0.166992 -2.83301 0.5 -4.5s0.5 -3.16699 0.5 -4.5c1.33301 -8.66699 4.5 -16.667 9.5 -24
s11.167 -11 18.5 -11c5.33301 0 9.83301 1.5 13.5 4.5s7.5 7.83301 11.5 14.5s8.33301 15.834 13 27.501s10.334 25.5 17.001 41.5c5.33301 14 11.166 28.5 17.499 43.5s13.5 30.5 21.5 46.5c19.333 36 45.333 70.333 78 103s78 56 136 70
c-31.333 9.33301 -57.166 24 -77.499 44s-37.166 41 -50.499 63c-10 17.333 -18 34 -24 50s-11 29.667 -15 41c-14.667 44.667 -27.167 71.5 -37.5 80.5c-10.334 9 -17.167 13.5 -20.5 13.5c-2 0 -3.5 -0.333008 -4.5 -1s-1.5 -2.66699 -1.5 -6v-4.5
c0 -1.66699 0.333008 -3.16699 1 -4.5c0.666992 -2.66699 1.16699 -5.16699 1.5 -7.5s0.5 -4.83301 0.5 -7.5c0 -12 -4.16699 -23 -12.5 -33s-20.166 -15 -35.499 -15c-14.667 0 -26.167 4.16699 -34.5 12.5s-13.833 17.5 -16.5 27.5c0 2 -0.166992 4 -0.5 6s-0.5 4 -0.5 6
v1.5v1.5c0.666992 14.6689 6.66699 28.3359 18 41c11.333 12.667 29 19 53 19c16.667 0 31.334 -3.33301 44 -10c12.667 -6.66699 25 -17 37 -31c12 -14.667 24.333 -33.5 37 -56.5s27.334 -51.167 44.001 -84.5c23.334 -46.667 43.167 -79 59.5 -97s31.833 -29 46.5 -33
c4.66699 -1.33301 9.33398 -2.16602 14.001 -2.49902s9.33398 -0.5 14.001 -0.5h69v228c0 16 -2.66699 27 -8 33s-11 9.66699 -17 11c-2.66699 0.666992 -5 1 -7 1h-6h-57v28h282v-28h-57h-6c-2 0 -4.33301 -0.333008 -7 -1c-6 -1.33301 -11.667 -5 -17 -11s-8 -17 -8 -33
v-228h68c14.667 0 32 5.33301 52 16s43 41 69 91c18.667 36.667 35 68.167 49 94.5s27.333 48.166 40 65.499c12 16.6719 24.833 28.8389 38.5 36.5c13.667 7.66699 29.5 11.5 47.5 11.5c25.333 0 43.666 -6.33301 54.999 -19s17 -27.334 17 -44.001
c0 -12.667 -4.33301 -24.5 -13 -35.5s-21.667 -16.5 -39 -16.5c-13.3408 0 -24.6738 4.33301 -34 13c-9.33301 8.6709 -14 20.3379 -14 35v4c0 1.33301 0.333008 2.66602 1 3.99902v3v4v2c0 0.666992 0.333008 1.66699 1 3v2v2v0.5v0.5v0.5v0.5v1.5v0.5
c-0.666992 1.33301 -1.5 2.16602 -2.5 2.49902s-2.16699 0.5 -3.5 0.5c-4.66699 0 -12.167 -5.66699 -22.5 -17c-10.3398 -11.333 -22.1729 -37 -35.499 -77c-4 -11.333 -8.83301 -24.5 -14.5 -39.5s-12.834 -30.5 -21.501 -46.5c-13.333 -22.667 -30.333 -44.5 -51 -65.5
s-47 -36.5 -79 -46.5c55.333 -14 99.333 -36.333 132 -67c32.668 -30.667 58.335 -63 77 -97c11.333 -20.667 21 -40.834 29 -60.501s15 -37.5 21 -53.5c1.33301 -2.66699 2.5 -5.5 3.5 -8.5s2.16699 -6.16699 3.5 -9.5c4.66699 -14 10.167 -26.667 16.5 -38
s14.5 -17 24.5 -17h1.5h1.5c6 1.33301 11.667 5.5 17 12.5s8.33301 17.5 9 31.5h28c-4.66699 -29.333 -13.667 -51 -27 -65s-34 -21 -62 -21c-33.333 0 -60.333 13.667 -81 41s-38.667 57.333 -54 90c-4.66699 9.33301 -9 18.666 -13 27.999s-8 18.333 -12 27
c-10 22 -19.333 42.333 -28 61s-17 35.334 -25 50.001c-13.3389 25.333 -27.6719 44.666 -43 57.999c-15.333 13.333 -35 20 -59 20h-68v-289c0 -16 2.66699 -27 8 -33s11 -9.66699 17 -11c2.66699 -0.666992 5 -1 7 -1h6h57v-28h-282v28h57h6c2 0 4.33301 0.333008 7 1
c6 1.33301 11.667 5 17 11s8 17 8 33v289v0z" />
    <glyph glyph-name="g" unicode="&#xc7;" horiz-adv-x="662" 
d="M238 351l0.00585938 54.9961c3.33301 -0.666992 6.66602 -1.5 9.99902 -2.5s7.33301 -1.83301 12 -2.5c6.66699 -1.33301 14.167 -2.66602 22.5 -3.99902s16.833 -2.33301 25.5 -3h3.5h3.5c51.333 0 93.5 11.5 126.5 34.5s49.5 59.5 49.5 109.5
c0 40.667 -11.833 74.5 -35.5 101.5s-59.167 40.5 -106.5 40.5c-11.333 0 -23.5 -1.16699 -36.5 -3.5s-26.167 -5.83301 -39.5 -10.5c-30.667 -10.667 -58.834 -26.167 -84.501 -46.5c-25.667 -20.3359 -39.5 -44.1689 -41.5 -71.5l-1 -27h-29l12 173h32l-2 -32
c35.333 19.333 69.166 31.833 101.499 37.5c32.334 5.66699 62.167 8.5 89.5 8.5c68.667 0 120.667 -11.167 156 -33.5s59.666 -46.833 72.999 -73.5c5.33301 -11.333 9.16602 -22.333 11.499 -33s3.5 -20.667 3.5 -30c0 -41.333 -15.5 -76.666 -46.5 -105.999
s-69.167 -45.666 -114.5 -48.999c9.33301 -1.33301 19.166 -3.5 29.499 -6.5s20.833 -6.5 31.5 -10.5c28.667 -12.667 55 -32 79 -58s36 -62 36 -108c0 -59.333 -24.333 -109.666 -73 -150.999s-112.667 -62 -192 -62c-80.667 0 -144.667 13.333 -192 40s-75 56 -83 88
c-0.666992 3.33301 -1.16699 6.5 -1.5 9.5s-0.5 5.83301 -0.5 8.5c0 19.333 5.83301 34.666 17.5 45.999s25.5 17 41.5 17c18 0 31.333 -5.83301 40 -17.5s13 -24.5 13 -38.5c0 -6.66699 -0.5 -11.667 -1.5 -15s-2.16699 -6.66602 -3.5 -9.99902
c-1.33301 -2.66699 -2.5 -5.83398 -3.5 -9.5c-1 -3.66699 -1.5 -8.5 -1.5 -14.5c0 -20.667 14.5 -38.667 43.5 -54s63.833 -23 104.5 -23c51.334 0 94.667 17.167 130 51.5s53 80.833 53 139.5c0 47.333 -15 86 -45 116s-74.333 45 -133 45c-6 0 -12.167 -0.333008 -18.5 -1
s-12.833 -1.66699 -19.5 -3c-4.66699 -1.33301 -9.16699 -2.5 -13.5 -3.5s-8.5 -1.83301 -12.5 -2.5s-7.5 -1.5 -10.5 -2.5s-6.16699 -1.83301 -9.5 -2.5v0z" />
    <glyph glyph-name="g" unicode="&#x417;" horiz-adv-x="662" 
d="M238 351l0.00585938 54.9961c3.33301 -0.666992 6.66602 -1.5 9.99902 -2.5s7.33301 -1.83301 12 -2.5c6.66699 -1.33301 14.167 -2.66602 22.5 -3.99902s16.833 -2.33301 25.5 -3h3.5h3.5c51.333 0 93.5 11.5 126.5 34.5s49.5 59.5 49.5 109.5
c0 40.667 -11.833 74.5 -35.5 101.5s-59.167 40.5 -106.5 40.5c-11.333 0 -23.5 -1.16699 -36.5 -3.5s-26.167 -5.83301 -39.5 -10.5c-30.667 -10.667 -58.834 -26.167 -84.501 -46.5c-25.667 -20.3359 -39.5 -44.1689 -41.5 -71.5l-1 -27h-29l12 173h32l-2 -32
c35.333 19.333 69.166 31.833 101.499 37.5c32.334 5.66699 62.167 8.5 89.5 8.5c68.667 0 120.667 -11.167 156 -33.5s59.666 -46.833 72.999 -73.5c5.33301 -11.333 9.16602 -22.333 11.499 -33s3.5 -20.667 3.5 -30c0 -41.333 -15.5 -76.666 -46.5 -105.999
s-69.167 -45.666 -114.5 -48.999c9.33301 -1.33301 19.166 -3.5 29.499 -6.5s20.833 -6.5 31.5 -10.5c28.667 -12.667 55 -32 79 -58s36 -62 36 -108c0 -59.333 -24.333 -109.666 -73 -150.999s-112.667 -62 -192 -62c-80.667 0 -144.667 13.333 -192 40s-75 56 -83 88
c-0.666992 3.33301 -1.16699 6.5 -1.5 9.5s-0.5 5.83301 -0.5 8.5c0 19.333 5.83301 34.666 17.5 45.999s25.5 17 41.5 17c18 0 31.333 -5.83301 40 -17.5s13 -24.5 13 -38.5c0 -6.66699 -0.5 -11.667 -1.5 -15s-2.16699 -6.66602 -3.5 -9.99902
c-1.33301 -2.66699 -2.5 -5.83398 -3.5 -9.5c-1 -3.66699 -1.5 -8.5 -1.5 -14.5c0 -20.667 14.5 -38.667 43.5 -54s63.833 -23 104.5 -23c51.334 0 94.667 17.167 130 51.5s53 80.833 53 139.5c0 47.333 -15 86 -45 116s-74.333 45 -133 45c-6 0 -12.167 -0.333008 -18.5 -1
s-12.833 -1.66699 -19.5 -3c-4.66699 -1.33301 -9.16699 -2.5 -13.5 -3.5s-8.5 -1.83301 -12.5 -2.5s-7.5 -1.5 -10.5 -2.5s-6.16699 -1.83301 -9.5 -2.5v0z" />
    <glyph glyph-name="h" unicode="&#xc8;" horiz-adv-x="848" 
d="M254 123l354.998 499.001v11c0 9.33301 -3.5 16.833 -10.5 22.5s-14.5 9.16699 -22.5 10.5h-2.5h-2.5h-57v28h282v-28h-57h-6c-2 0 -4.33301 -0.333008 -7 -1c-6 -1.33301 -11.667 -5 -17 -11s-8 -17 -8 -33v-548c0 -16 2.66699 -27 8 -33s11 -9.66699 17 -11
c2.66699 -0.666992 5 -1 7 -1h6h57v-28h-282v28h57h6c2 0 4.33301 0.333008 7 1c6 1.33301 11.667 5 17 11s8 17 8 33v501l-355 -501c0.666992 -17.333 3.83398 -28.833 9.50098 -34.5s11.834 -8.83398 18.501 -9.50098c2 -0.666992 3.83301 -1 5.5 -1h4.5h57v-28h-282v28
h57h6c2 0 4.33301 0.333008 7 1c6 1.33301 11.667 5 17 11s8 17 8 33v548c0 16 -2.66699 27 -8 33s-11 9.66699 -17 11c-2.66699 0.666992 -5 1 -7 1h-6h-57v28h282v-28h-57h-6c-2 0 -4.33301 -0.333008 -7 -1c-6 -1.33301 -11.667 -5 -17 -11s-8 -17 -8 -33v-498v0z" />
    <glyph glyph-name="h" unicode="&#x418;" horiz-adv-x="848" 
d="M254 123l354.998 499.001v11c0 9.33301 -3.5 16.833 -10.5 22.5s-14.5 9.16699 -22.5 10.5h-2.5h-2.5h-57v28h282v-28h-57h-6c-2 0 -4.33301 -0.333008 -7 -1c-6 -1.33301 -11.667 -5 -17 -11s-8 -17 -8 -33v-548c0 -16 2.66699 -27 8 -33s11 -9.66699 17 -11
c2.66699 -0.666992 5 -1 7 -1h6h57v-28h-282v28h57h6c2 0 4.33301 0.333008 7 1c6 1.33301 11.667 5 17 11s8 17 8 33v501l-355 -501c0.666992 -17.333 3.83398 -28.833 9.50098 -34.5s11.834 -8.83398 18.501 -9.50098c2 -0.666992 3.83301 -1 5.5 -1h4.5h57v-28h-282v28
h57h6c2 0 4.33301 0.333008 7 1c6 1.33301 11.667 5 17 11s8 17 8 33v548c0 16 -2.66699 27 -8 33s-11 9.66699 -17 11c-2.66699 0.666992 -5 1 -7 1h-6h-57v28h282v-28h-57h-6c-2 0 -4.33301 -0.333008 -7 -1c-6 -1.33301 -11.667 -5 -17 -11s-8 -17 -8 -33v-498v0z" />
    </font>
</defs>
</svg>
