<?xml version="1.0" standalone="no"?>
<!DOCTYPE svg PUBLIC "-//W3C//DTD SVG 1.1//EN" "http://www.w3.org/Graphics/SVG/1.1/DTD/svg11.dtd" >
<svg xmlns="http://www.w3.org/2000/svg" xmlns:xlink="http://www.w3.org/1999/xlink" version="1.1">
<metadata>
Created by FontForge 20161116 at Tue Nov  1 21:22:40 1927
 By Jimmy Wärting
(C) Copyright SoftUnion Ltd, 1993.  Created by N.Vsesvetskii
</metadata>
<defs>
<font id="PopularScript" horiz-adv-x="380" >
  <font-face 
    font-family="PopularScript"
    font-weight="400"
    font-stretch="normal"
    units-per-em="1000"
    panose-1="0 0 0 0 0 0 0 0 0 0"
    ascent="800"
    descent="-200"
    x-height="342.999"
    cap-height="596.004"
    bbox="-321 -337 1311.88 791.003"
    underline-thickness="20"
    underline-position="-143"
    unicode-range="U+0020-2122"
  />
<missing-glyph horiz-adv-x="731" 
d="M45 0v731h641v-731h-641zM641 45v641h-551v-641h551z" />
    <glyph glyph-name=".notdef" horiz-adv-x="731" 
d="M45 0v731h641v-731h-641zM641 45v641h-551v-641h551z" />
    <glyph glyph-name="space" unicode=" " horiz-adv-x="216" 
 />
    <glyph glyph-name="exclam" unicode="!" horiz-adv-x="240" 
d="M95 142l-20.001 -0.000976562c24 66 45.333 127.333 64 184c12 36 25 78 39 126c12 42 23.333 81.833 34 119.5s21.667 62.834 33 75.501s25.333 19 42 19c15.333 0 26 -3.83301 32 -11.5s9 -17.5 9 -29.5c0 -16 -7 -39 -21 -69c-4 -8 -18.333 -35.333 -43 -82
c-37.333 -70 -61.666 -116 -72.999 -138c-30.667 -60 -62.667 -124.667 -96 -194zM60.999 72.999c7.33301 0 13.666 -3.33105 18.999 -9.99805s8 -14 8 -22c0 -14.667 -2.66699 -26.334 -8 -35.001c-8 -13.333 -21 -20 -39 -20c-20.667 0 -31 10 -31 30
c0 11.333 5.33301 23.666 16 36.999s22.334 20 35.001 20z" />
    <glyph glyph-name="quotedbl" unicode="&#x22;" horiz-adv-x="210" 
d="M131 488c20 0 29.999 -9.33301 29.999 -28c0 -10 -4.33301 -19.333 -13 -28c-25.333 -25.333 -42.666 -53.333 -51.999 -84c-1.33301 -4 -4.33301 -6 -9 -6c-6 0 -8.33301 2 -7 6c4 14.667 6.66699 27 8 37s2 18.667 2 26c0 6 -1.16699 13 -3.5 21s-3.5 14.667 -3.5 20
c0 24 16 36 48 36zM227.999 488c20 0 29.999 -9.33301 29.999 -28c0 -10 -4.33301 -19.333 -13 -28c-25.333 -25.333 -42.666 -53.333 -51.999 -84c-1.33301 -4 -4.33301 -6 -9 -6c-6 0 -8.33301 2 -7 6c4 14.667 6.66699 27 8 37s2 18.667 2 26c0 6 -1.16699 13 -3.5 21
s-3.5 14.667 -3.5 20c0 24 16 36 48 36z" />
    <glyph glyph-name="numbersign" unicode="#" horiz-adv-x="367" 
d="M197 207h-52l-64 -211c-3.33301 -6.66699 -8.33301 -10 -15 -10s-9 3.33301 -7 10l64 211h-95c-5.33301 0 -8 4 -8 12s2.66699 12 8 12h102l14 45h-100c-5.33301 0 -8 4 -8 12s2.66699 12 8 12h107l56 180c1.33301 5.33301 6 8 14 8c6.66699 0 9 -2.66699 7 -8l-55 -180
h52l55 180c1.33301 5.33301 5.66602 8 12.999 8c6.66699 0 9.33398 -2.66699 8.00098 -8l-54 -180h91c4.66699 0 7 -4 7 -12s-2.33301 -12 -7 -12h-98l-14 -45h96c4.66699 0 7 -4 7 -12s-2.33301 -12 -7 -12h-103l-64 -211c-3.33301 -6.66699 -8.33301 -10 -15 -10
c-6 0 -8.33301 3.33301 -7 10zM166 276l-14 -45h52l14 45h-52z" />
    <glyph glyph-name="dollar" unicode="$" horiz-adv-x="457" 
d="M433 388c0 -19.333 -3.8291 -35.0049 -11.4961 -47.0049s-18.834 -18 -33.501 -18s-25.5 3.5 -32.5 10.5s-10.5 16.5 -10.5 28.5c0 7.33301 2.66699 14 8 20s11.333 9 18 9c4.66699 0 9.33398 -1 14.001 -3s9 -3 13 -3c6.66699 0 10 7 10 21
c0 17.333 -6.16699 30.833 -18.5 40.5s-28.833 14.5 -49.5 14.5c-11.333 -23.333 -21.833 -49.166 -31.5 -77.499s-19.834 -61.833 -30.501 -100.5c32 -24 59.333 -50.333 82 -79s34 -51.667 34 -69c0 -36 -18.333 -68.667 -55 -98c-42.667 -34 -97 -51 -163 -51
c-14.667 -24 -26.334 -42.333 -35.001 -55c-16 -23.333 -35.667 -47.666 -59 -72.999c-2.66699 -2.66699 -7 -4 -13 -4c-6.66699 0 -12.5 1.66699 -17.5 5s-5.5 7 -1.5 11c24 24 43.333 44.667 58 62c17.333 20 30.333 38 39 54c-36.667 0 -64.334 4 -83.001 12
c-32.667 14 -49 40.333 -49 79c0 35.333 14.167 61.5 42.5 78.5s63.833 25.5 106.5 25.5l58 -4l15 43c-23.333 16.667 -43.333 37.334 -60 62.001s-25 46 -25 64c0 37.333 17 69 51 95s75.333 39 124 39c10 20 19.667 37.5 29 52.5s19.666 29.833 30.999 44.5
c1.33301 2 4.66602 3 9.99902 3c4.66699 0 8.33398 -0.666992 11.001 -2s3.33398 -3.33301 2.00098 -6c-21.333 -31.333 -33.333 -48.666 -36 -51.999c-12.667 -19.333 -21 -32.666 -25 -39.999c25.333 -2 45.666 -10.167 60.999 -24.5s23 -36.833 23 -67.5z
M316.004 460.995c-29.333 0 -54.167 -8.16992 -74.5 -24.5029s-30.5 -36.166 -30.5 -59.499c0 -13.333 3 -25.333 9 -36c2 -3.33301 14 -16.666 36 -39.999c9.33301 36 19 66.667 29 92c8 20.667 18.333 43.334 31 68.001zM256.003 203.992l-12.001 -33
c37.333 -9.33301 56 -27.333 56 -54c0 -19.333 -5.83301 -34.833 -17.5 -46.5s-26.167 -17.5 -43.5 -17.5c-7.33301 0 -12.666 1.66699 -15.999 5c0.666992 1.33301 1.33398 3 2.00098 5c26 8.66699 39 25 39 49c0 13.333 -3.33301 23 -10 29c-2 1.33301 -7.33301 4 -16 8
c-10.667 -32.667 -19 -57.667 -25 -75c-8.66699 -24.667 -18.334 -48 -29.001 -70c40.667 0 79 9.66699 115 29c30.667 16.667 46 37.667 46 63c0 20 -9 40 -27 60c-14 16 -34.667 32 -62 48zM213.002 156.992c-14.667 4 -27.667 5.99902 -39 5.99902
c-30.667 0 -56 -8.33301 -76 -25s-30 -37 -30 -61c0 -18 10.5 -34.667 31.5 -50s39.5 -23 55.5 -23c12.667 26 24 51.333 34 76s18 50.334 24 77.001z" />
    <glyph glyph-name="percent" unicode="%" horiz-adv-x="459" 
d="M132 212c-27.333 0 -46.167 6.33301 -56.5 19s-15.5 30.667 -15.5 54c0 50 17 95 51 135s69 60 105 60c20.667 0 36.667 -4.66699 48 -14c14 -12 21 -32.333 21 -61c0 -34 -14 -72.667 -42 -116c-33.333 -51.333 -70.333 -77 -111 -77zM128.999 226
c25.333 0 50.667 30.667 76 92c21.333 52 32 90.667 32 116c0 11.333 -1.83301 19.5 -5.5 24.5s-8.83398 7.5 -15.501 7.5c-23.333 0 -48.666 -30.333 -75.999 -91c-24.667 -54 -37 -92.667 -37 -116c0 -10 2.66699 -18 8 -24s11.333 -9 18 -9zM85 0
c-4.66699 0 -8 1.99805 -10 5.99805s-2 7 0 9l334 448l5 3c3.33301 0 6.33301 -1.66699 9 -5s3 -6.66602 1 -9.99902l-332 -447c-0.666992 -1.33301 -3 -2.66602 -7 -3.99902zM288 -14.002c-27.333 0 -46.167 6.33301 -56.5 19s-15.5 30.667 -15.5 54c0 50 17 95 51 135
s69 60 105 60c20.667 0 36.667 -4.66699 48 -14c14 -12 21 -32.333 21 -61c0 -34 -14 -72.667 -42 -116c-33.333 -51.333 -70.333 -77 -111 -77zM284.999 -0.00195312c25.333 0 50.667 30.667 76 92c21.333 52 32 90.667 32 116c0 11.333 -1.83301 19.5 -5.5 24.5
s-8.83398 7.5 -15.501 7.5c-23.333 0 -48.666 -30.333 -75.999 -91c-24.667 -54 -37 -92.667 -37 -116c0 -10 2.66699 -18 8 -24s11.333 -9 18 -9z" />
    <glyph glyph-name="ampersand" unicode="&#x26;" horiz-adv-x="533" 
d="M194 -14c-46.667 0 -86.332 10.667 -118.999 32c-36.667 24 -55 56.333 -55 97c0 49.333 26.333 90.666 79 123.999c36.667 23.333 76 38.333 118 45c-22.667 9.33301 -39.834 21.333 -51.501 36s-17.5 33.334 -17.5 56.001c0 28.667 15.167 53.167 45.5 73.5
s67.166 30.5 110.499 30.5c28.667 0 53.167 -7 73.5 -21s30.5 -31.333 30.5 -52c0 -16 -4.66699 -29.667 -14 -41s-21 -17 -35 -17c-11.333 0 -20.5 3.16699 -27.5 9.5s-10.5 14.5 -10.5 24.5c0 14 9.16699 22.333 27.5 25s27.5 6.66699 27.5 12c0 12 -6.33301 22 -19 30
s-28.334 12 -47.001 12c-27.333 0 -50.5 -11.833 -69.5 -35.5s-28.5 -52.5 -28.5 -86.5c0 -20.667 5.66699 -34.667 17 -42c8 -5.33301 22 -8 42 -8c25.333 0 42.666 -0.333008 51.999 -1s14 -2.33398 14 -5.00098c0 -16 -7.33301 -24 -22 -24
c-4.66699 0 -11.334 1 -20.001 3c-20 4.66699 -35 7 -45 7c-12.667 0 -24 -1.5 -34 -4.5s-22 -9.16699 -36 -18.5c-19.333 -12.667 -38 -31.667 -56 -57c-23.333 -32.667 -35 -63.334 -35 -92.001c0 -32 10.333 -56.333 31 -73s46.667 -25 78 -25c40 0 75.167 14 105.5 42
s45.5 56.667 45.5 86c0 22 -9 39.833 -27 53.5s-37 20.5 -57 20.5c-22 0 -40.833 -6.5 -56.5 -19.5s-23.5 -29.167 -23.5 -48.5c0 -12.667 5.66699 -19 17 -19c7.33301 0 12.333 3.33301 15 10c6.66699 16.667 17.667 25 33 25c8.66699 0 16 -2.66699 22 -8
s9 -12.666 9 -21.999c0 -13.333 -4.5 -24.5 -13.5 -33.5s-19.833 -13.5 -32.5 -13.5c-19.333 0 -35.5 5.83301 -48.5 17.5s-19.5 26.167 -19.5 43.5c0 24 11.667 46.333 35 67c28 24.667 65.667 37 113 37c26.667 0 49.834 -1.16699 69.501 -3.5
s36.834 -4.16602 51.501 -5.49902c14 0 26.667 3.33301 38 10c14.667 8.66699 22 19 22 31c0 13.333 -5.66699 20 -17 20c-4.66699 0 -10 -3.33301 -16 -10s-11.667 -10 -17 -10c-9.33301 0 -16.5 3.33301 -21.5 10s-7.5 14.667 -7.5 24s3.83301 18.166 11.5 26.499
s17.5 12.5 29.5 12.5c15.333 0 28.5 -5.5 39.5 -16.5s16.5 -25.167 16.5 -42.5c0 -36.667 -13.333 -62.667 -40 -78c-19.333 -11.333 -45.666 -17 -78.999 -17c-12.667 0 -23.167 0.333008 -31.5 1s-16.166 1.33398 -23.499 2.00098c12.667 -6.66699 22.667 -17 30 -31
s11 -25.333 11 -34c0 -34.667 -16.667 -66 -50 -94c-37.333 -31.333 -83 -47 -137 -47z" />
    <glyph glyph-name="quotesingle" unicode="'" horiz-adv-x="120" 
d="M131 399c0 4.66699 -5.16699 8.5 -15.5 11.5s-15.5 10.167 -15.5 21.5c0 14.667 5.66699 27.667 17 39s22 17 32 17c8.66699 0 15.667 -3.66699 21 -11s8 -16 8 -26c0 -19.333 -6.33301 -38.333 -19 -57c-15.333 -22 -38 -40.667 -68 -56l-4 -1
c-6.66699 0 -10 2.66699 -10 8l1 3c10 6 20.333 12 31 18c14.667 10 22 21 22 33z" />
    <glyph glyph-name="parenleft" unicode="(" horiz-adv-x="184" 
d="M60 -79l-8.99805 1.99902c-10.667 19.333 -18 35.333 -22 48c-7.33301 21.333 -11 45 -11 71s10.333 70.667 31 134c25.333 76.667 55.666 142.667 90.999 198c26 40.667 52.667 71.334 80 92.001c19.333 14.667 52.333 33.334 99 56.001l7 1
c3.33301 0 5.83301 -0.5 7.5 -1.5s1.5 -2.16699 -0.5 -3.5c-18.667 -10.667 -37.5 -23.5 -56.5 -38.5s-37.167 -33.167 -54.5 -54.5c-20.667 -25.333 -49.5 -79 -86.5 -161s-60.167 -143.667 -69.5 -185c-4 -18.667 -6.83301 -33.334 -8.5 -44.001
s-2.5 -23.334 -2.5 -38.001s0.666992 -26.667 2 -36s4.66602 -21.666 9.99902 -36.999z" />
    <glyph glyph-name="parenright" unicode=")" horiz-adv-x="184" 
d="M-114 -79c-3.33301 0 -5.83496 0.500977 -7.50195 1.50098s-1.5 2.16699 0.5 3.5c18.667 10.667 37.5 23.5 56.5 38.5s37.167 33.167 54.5 54.5c20.667 25.333 49.5 79 86.5 161s60.167 143.667 69.5 185c4 18.667 6.83301 33.334 8.5 44.001s2.5 23.334 2.5 38.001
s-0.666992 26.667 -2 36s-4.66602 21.666 -9.99902 36.999l7 3l9 -2c10.667 -19.333 18 -35.333 22 -48c7.33301 -21.333 11 -45 11 -71s-10.333 -70.667 -31 -134c-25.333 -76.667 -55.666 -142.667 -90.999 -198c-26 -40.667 -52.667 -71.334 -80 -92.001
c-19.333 -14.667 -52.333 -33.334 -99 -56.001z" />
    <glyph glyph-name="asterisk" unicode="*" horiz-adv-x="227" 
d="M155 488c13.333 0 20 -7.99902 20 -23.999c0 -5.33301 -2.66699 -16 -8 -32s-8 -27.667 -8 -35c6 2.66699 15.833 11.5 29.5 26.5s25.167 22.5 34.5 22.5c13.333 0 20 -6.66699 20 -20c0 -10.667 -9.16699 -18.667 -27.5 -24s-35.166 -10 -50.499 -14
c3.33301 -2 19 -6.33301 47 -13c20.667 -4.66699 31 -13.667 31 -27c0 -12 -6.66699 -18 -20 -18c-8.66699 0 -17.334 4 -26.001 12c-12.667 12 -25.334 24.333 -38.001 37c0 -8 2.66699 -19.667 8 -35s8 -26 8 -32c0 -16 -6.33301 -24 -19 -24
c-13.333 0 -20 7.33301 -20 22c0 7.33301 1.33301 15.333 4 24c7.33301 24 11 39 11 45c-5.33301 -2.66699 -15.666 -12 -30.999 -28c-12.667 -14 -23.667 -21 -33 -21c-3.33301 0 -6.66602 1 -9.99902 3c-6.66699 4 -10 9.33301 -10 16c0 12 9 20.5 27 25.5s35 9.5 51 13.5
c-4.66699 2.66699 -16 6 -34 10c-29.333 6 -44 15.333 -44 28c0 13.333 7 20 21 20c7.33301 0 15 -4 23 -12c23.333 -23.333 36.666 -35.666 39.999 -36.999c0 7.33301 -2.5 19.166 -7.5 35.499s-7.5 27.166 -7.5 32.499c0 6 1.66699 11.333 5 16s8 7 14 7z" />
    <glyph glyph-name="plus" unicode="+" horiz-adv-x="277" 
d="M148 300v-108h111v-24h-111v-108h-24v108h-109v24h109v108h24z" />
    <glyph glyph-name="comma" unicode="," horiz-adv-x="159" 
d="M45 -14c0 4.66699 -5.16699 8.5 -15.5 11.5s-15.5 10.167 -15.5 21.5c0 14.667 5.66699 27.667 17 39s22 17 32 17c8.66699 0 15.667 -3.66699 21 -11s8 -16 8 -26c0 -19.333 -6.33301 -38.333 -19 -57c-15.333 -22 -38 -40.667 -68 -56l-4 -1
c-6.66699 0 -10 2.66699 -10 8l1 3c10 6 20.333 12 31 18c14.667 10 22 21 22 33z" />
    <glyph glyph-name="hyphen" unicode="-" horiz-adv-x="165" 
d="M20 192h122v-24h-122v24z" />
    <glyph glyph-name="period" unicode="." horiz-adv-x="124" 
d="M61 73c7.33301 0 13.666 -3.33105 18.999 -9.99805s8 -14 8 -22c0 -14.667 -2.66699 -26.334 -8 -35.001c-8 -13.333 -21 -20 -39 -20c-20.667 0 -31 10 -31 30c0 11.333 5.33301 23.666 16 36.999s22.334 20 35.001 20z" />
    <glyph glyph-name="slash" unicode="/" horiz-adv-x="217" 
d="M10 -14c-3.33301 0 -6.66699 1.49902 -10 4.49902s-4.33301 5.83301 -3 8.5l251 485l5 4c8 0 12 -3 12 -9l-2 -6l-247 -482c-0.666992 -1.33301 -1.66699 -2.66602 -3 -3.99902c-1.33301 0 -2.33301 -0.333008 -3 -1z" />
    <glyph glyph-name="zero" unicode="0" 
d="M127 -14c-38 0 -66.1641 13.332 -84.4971 39.999s-27.5 60.334 -27.5 101.001c0 54.667 16.833 114 50.5 178s69.834 109.333 108.501 136c14.667 11.333 32.667 20.666 54 27.999s41.666 11 60.999 11c34.667 0 61 -12.667 79 -38c16 -22.667 24 -52 24 -88
c0 -33.333 -12.333 -80 -37 -140c-20.667 -50 -39.334 -87 -56.001 -111c-26.667 -39.333 -54.334 -68.666 -83.001 -87.999s-58.334 -29 -89.001 -29zM126.003 -0.000976562c25.333 0 51 18.998 77 56.998c19.333 27.333 42.333 72.333 69 135c24 56 40.667 103.333 50 142
c6.66699 28.667 10 56.334 10 83.001c0 14 -2.33301 24.667 -7 32c-7.33301 11.333 -21.333 17 -42 17c-28.667 0 -58.667 -24 -90 -72c-22 -34 -41 -72.333 -57 -115c-12.667 -33.333 -27.167 -76.333 -43.5 -129s-24.5 -83.667 -24.5 -93
c0 -15.333 5.33301 -28.666 16 -39.999s24.667 -17 42 -17z" />
    <glyph glyph-name="one" unicode="1" 
d="M108 47l126.999 329.998c3.33301 8.66699 5 16.334 5 23.001c0 12.667 -3.33301 22 -10 28s-14.667 9 -24 9h-25c-2 0 -3.5 0.666992 -4.5 2s-1.5 2.66602 -1.5 3.99902c0 6.66699 3.33301 10 10 10h43c30 0 52.5 2.33301 67.5 7s28.167 12.334 39.5 23.001
c2.66699 2 5.16699 3.33301 7.5 4s4.16602 1 5.49902 1l6 -3l-2 -7l-163 -431c-1.33301 -5.33301 -2 -9.33301 -2 -12c0 -12 4.66699 -18.333 14 -19l38 -3c2 0 3.66699 -1 5 -3c0 -1.33301 0.333008 -2.33301 1 -3c0 -8 -4.66699 -12 -14 -12
c-18 1.33301 -36.667 2.5 -56 3.5s-34 1.5 -44 1.5c-15.333 0 -34.166 -0.833008 -56.499 -2.5s-37.166 -2.5 -44.499 -2.5c-4.66699 0 -7 3 -7 9s2.33301 9 7 9c17.333 0 29.333 0.666992 36 2s13.667 3.33301 21 6s14.333 11.334 21 26.001z" />
    <glyph glyph-name="two" unicode="2" 
d="M388 376c0 -80.667 -49.3311 -140.333 -147.998 -179c-34 -10.667 -62 -20.167 -84 -28.5s-39.5 -17.333 -52.5 -27s-26.667 -23.167 -41 -40.5s-24.833 -32.666 -31.5 -45.999c8.66699 7.33301 18.334 13.333 29.001 18c16 6.66699 33.667 10 53 10
c19.333 -4 40.166 -7.66699 62.499 -11s42.5 -5 60.5 -5c31.333 0 53 8.33301 65 25c4 5.33301 9 19.666 15 42.999c0.666992 4.66699 3.33398 7 8.00098 7c5.33301 0 7.33301 -2.66699 6 -8c-5.33301 -32 -14 -60.333 -26 -85c-20.667 -42 -48.334 -63 -83.001 -63
c-21.333 0 -42 7 -62 21c-46 32 -75 48 -87 48c-22 0 -37.667 -6.33301 -47 -19c-6.66699 -9.33301 -11.667 -24.666 -15 -45.999c0 -3.33301 -2.66699 -5 -8 -5c-6.66699 0 -9.33398 2.33301 -8.00098 7c3.33301 24 12.333 49.667 27 77c18 33.333 42 60.666 72 81.999
c48.667 28 97.667 56 147 84c18.667 18 36 44.5 52 79.5s24 67.833 24 98.5c0 14.667 -5.5 27.167 -16.5 37.5s-23.833 15.5 -38.5 15.5c-24 0 -44.5 -6.83301 -61.5 -20.5s-25.5 -30.167 -25.5 -49.5c0 -5.33301 7.16699 -11 21.5 -17s21.5 -14 21.5 -24
c0 -11.333 -4.5 -21.833 -13.5 -31.5s-20.167 -14.5 -33.5 -14.5c-11.333 0 -21.333 5 -30 15s-13 20.333 -13 31c0 35.333 16.667 66.333 50 93c26.667 21.333 59.667 32 99 32c27.333 0 51.666 -8 72.999 -24c26 -19.333 39 -46 39 -80z" />
    <glyph glyph-name="three" unicode="3" 
d="M393 391c0 -39.333 -14.3311 -71.333 -42.998 -96c-25.333 -21.333 -58.666 -36 -99.999 -44c20.667 -8.66699 36.667 -19.667 48 -33c15.333 -18 23 -41.667 23 -71c0 -41.333 -16.333 -77.666 -49 -108.999c-36 -34.667 -82.333 -52 -139 -52
c-34 0 -62.167 7.33301 -84.5 22s-33.5 36 -33.5 64c0 18.667 6 35.667 18 51s27 23 45 23c30 0 45 -11.333 45 -34c0 -12 -3.33301 -21.667 -10 -29s-15 -11 -25 -11c-3.33301 0 -8.5 2.16699 -15.5 6.5s-10.833 6.5 -11.5 6.5c-4.66699 0 -9 -2.66699 -13 -8
s-6 -12.666 -6 -21.999c0 -16.667 7.16699 -30 21.5 -40s32.833 -15 55.5 -15c41.333 0 75 25.667 101 77c20 39.333 30 75.666 30 108.999c0 25.333 -7 42 -21 50c-9.33301 5.33301 -26.333 8 -51 8h-13c-17.333 0 -33 1 -47 3c0 3.33301 0.333008 7 1 11
c10.667 1.33301 18.667 2 24 2c8.66699 0 20.167 -0.833008 34.5 -2.5s23.166 -2.5 26.499 -2.5c13.333 0 24.666 2.5 33.999 7.5s17.666 11.167 24.999 18.5c12.667 12 25.5 32.333 38.5 61s19.5 54.667 19.5 78c0 14 -5.66699 25.167 -17 33.5s-23 12.5 -35 12.5
c-19.333 0 -38.333 -5.33301 -57 -16c-23.333 -13.333 -35 -30.333 -35 -51c0 -8 7.33301 -14.333 22 -19s22 -13 22 -25c0 -12.667 -4.5 -22.834 -13.5 -30.501s-19.5 -11.5 -31.5 -11.5c-13.333 0 -24.5 4.83301 -33.5 14.5s-13.5 21.167 -13.5 34.5
c0 26 13.333 51.333 40 76c30.667 28 66.667 42 108 42c32 0 59.333 -7.83301 82 -23.5s34 -37.5 34 -65.5z" />
    <glyph glyph-name="four" unicode="4" 
d="M391 488l-119.001 -298.001h68v-42h-81l-38 -101c-1.33301 -5.33301 -2 -9.33301 -2 -12c0 -12 4.66699 -18.333 14 -19l38 -3c2 0 3.66699 -1 5 -3c0 -1.33301 0.333008 -2.33301 1 -3c0 -8 -4.66699 -12 -14 -12c-18 1.33301 -36.667 2.5 -56 3.5s-34 1.5 -44 1.5
c-15.333 0 -34.166 -0.833008 -56.499 -2.5s-37.166 -2.5 -44.499 -2.5c-4.66699 0 -7 3 -7 9s2.33301 9 7 9c17.333 0 29.333 0.666992 36 2s13.667 3.33301 21 6s14.333 11.334 21 26.001l39 101h-139c-6 0 -9 4 -9 12c0 3.33301 1 6 3 8
c21.333 26.667 51.666 60.667 90.999 102c34 35.333 68.833 71.5 104.5 108.5s68.167 73.5 97.5 109.5h64zM193.999 189.999l88.001 216c-14 -16.667 -56.667 -61.667 -128 -135c-28.667 -29.333 -52.334 -56.333 -71.001 -81h111z" />
    <glyph glyph-name="five" unicode="5" 
d="M415 498l14.0029 -0.00390625c-4.66699 -23.333 -11.667 -43 -21 -59c-12.667 -21.333 -28 -32 -46 -32h-147c-4 -1.33301 -6 -2.66602 -6 -3.99902l-44 -117c-0.666992 -2 -0.666992 -3.33301 0 -4l2 -2c8.66699 6.66699 15.667 11.334 21 14.001
c18.667 10 35.667 15 51 15c21.333 0 41.333 -7 60 -21c26 -19.333 39 -47 39 -83c0 -56 -20.833 -106.5 -62.5 -151.5s-84.834 -67.5 -129.501 -67.5c-26.667 0 -50.167 7.83301 -70.5 23.5s-30.5 36.167 -30.5 61.5c0 16.667 5.5 32.667 16.5 48s25.167 23 42.5 23
c24.667 0 37 -12.333 37 -37c0 -11.333 -3.33301 -20.666 -10 -27.999s-15 -11 -25 -11c-4 0 -8.5 1.83301 -13.5 5.5s-8.83301 5.5 -11.5 5.5c-6 0 -9.83301 -2 -11.5 -6s-2.5 -10.667 -2.5 -20c0 -10.667 6.16699 -21.834 18.5 -33.501s28.833 -17.5 49.5 -17.5
c36 0 68.667 32.667 98 98c24 54 36 100 36 138c0 14 -3 26.333 -9 37c-8 14 -18.667 21 -32 21c-22 0 -44.667 -15.667 -68 -47c-12.667 -20 -25.334 -39.667 -38.001 -59c-4.66699 -5.33301 -9 -7.5 -13 -6.5s-5.33301 3.16699 -4 6.5
c24.667 58.667 47 116.334 67 173.001c15.333 42.667 27 78.334 35 107.001c2 8 6.66699 12 14 12h157c17.333 0 29.666 6 36.999 18z" />
    <glyph glyph-name="six" unicode="6" 
d="M160 -14c-40.667 0 -70.6631 12.002 -89.9961 36.002c-16.667 20.667 -25 50 -25 88c0 37.333 7 75.666 21 114.999c10.667 30 28.167 65.833 52.5 107.5s56 76.667 95 105s74.833 42.5 107.5 42.5c25.333 0 45.666 -7.33301 60.999 -22s23 -34.667 23 -60
c0 -20.667 -4.66699 -38.834 -14 -54.501s-23 -23.5 -41 -23.5c-11.333 0 -20.5 3.83301 -27.5 11.5s-10.5 15.5 -10.5 23.5c0 13.333 4.66699 22.833 14 28.5s21 8.5 35 8.5c10 0 15 8.33301 15 25c0 18 -5.83301 30.667 -17.5 38s-26.5 11 -44.5 11
c-28 0 -57.333 -22.333 -88 -67c-34 -49.333 -64.333 -115 -91 -197c27.333 40 49.666 66.167 66.999 78.5s34.666 18.5 51.999 18.5c19.333 0 36.666 -8 51.999 -24c18 -18.667 27 -43 27 -73c0 -56 -17.667 -106 -53 -150s-75.333 -66 -120 -66zM144.004 0.00195312
c28 0 57.334 33.667 88.001 101c27.333 60.667 41 107 41 139c0 16 -3.33301 26.667 -10 32s-15.334 8 -26.001 8s-22 -5.33301 -34 -16c-16 -14 -31.333 -34 -46 -60c-16.667 -28.667 -29.667 -55 -39 -79c-12 -30.667 -18 -53.667 -18 -69c0 -14.667 4 -27.667 12 -39
s18.667 -17 32 -17z" />
    <glyph glyph-name="seven" unicode="7" 
d="M85 -14c-14 0 -24.1641 4.16699 -30.4971 12.5s-9.5 19.5 -9.5 33.5c0 19.333 7.66699 42 23 68c13.333 22.667 30 44.334 50 65.001s51.333 43.667 94 69c46 28 77.333 49.667 94 65c24 22.667 44.333 51.334 61 86.001c-6 -2 -12.167 -3.33301 -18.5 -4
s-16.5 -1 -30.5 -1c-12 0 -32 2.5 -60 7.5s-56.667 10.5 -86 16.5c-17.333 0 -31.666 -8 -42.999 -24c-8.66699 -12 -14.334 -26 -17.001 -42c-0.666992 -2.66699 -2.33398 -3.5 -5.00098 -2.5s-5.33398 1.83301 -8.00098 2.5c0 18 9.33301 44 28 78
c23.333 42.667 50.333 64 81 64c28 0 56.333 -12.667 85 -38s48.667 -38 60 -38c14.667 0 25 7.33301 31 22c4 10 6 23 6 39c0 15.333 5.33301 23 16 23c3.33301 0 6.66602 -2 9.99902 -6s5 -8.33301 5 -13c0 -12 -6 -31 -18 -57c-18 -38 -44.667 -77 -80 -117
c-8.66699 -10 -20 -20.667 -34 -32l-70 -58c-24 -22 -44 -50 -60 -84c-12.667 -26.667 -21.5 -51.834 -26.5 -75.501s-9.83301 -38.834 -14.5 -45.501c-6.66699 -9.33301 -17.667 -14 -33 -14z" />
    <glyph glyph-name="eight" unicode="8" 
d="M165 -14c-40.667 0 -75 7.99707 -103 23.9971c-31.333 18 -47 43.333 -47 76c0 40.667 21.667 74.334 65 101.001c17.333 10.667 50 24.334 98 41.001c-30.667 34.667 -46 71.667 -46 111c0 40 15.5 73.5 46.5 100.5s67.5 40.5 109.5 40.5c34 0 61 -8 81 -24
s30 -37.333 30 -64c0 -38 -19 -71.333 -57 -100c-42.667 -24.667 -68 -39.334 -76 -44.001c20.667 -16.667 37.167 -36.167 49.5 -58.5s18.5 -47.166 18.5 -74.499c0 -37.333 -14.833 -68.166 -44.5 -92.499s-71.167 -36.5 -124.5 -36.5zM287 465.997
c-24.667 0 -46.668 -8 -66.001 -24s-29 -36.667 -29 -62c0 -18.667 5.66699 -38.667 17 -60s25.333 -40.333 42 -57c34 17.333 59 37.833 75 61.5s24 48.5 24 74.5c0 20.667 -6.16699 37 -18.5 49s-27.166 18 -44.499 18zM164.999 -0.00292969
c28 0 51.833 8.49902 71.5 25.499s29.5 40.167 29.5 69.5c0 30.667 -24.667 69.667 -74 117c-24.667 -12.667 -49 -30.667 -73 -54c-30 -29.333 -45 -55 -45 -77c0 -23.333 8.66699 -42.666 26 -57.999s39 -23 65 -23z" />
    <glyph glyph-name="nine" unicode="9" 
d="M98 -14c-36 0 -63.835 7.83203 -83.502 23.499s-29.5 35.834 -29.5 60.501c0 18.667 5.66699 34.667 17 48s25 20 41 20c11.333 0 21.333 -3.66699 30 -11s13 -16 13 -26c0 -12 -3.33301 -22 -10 -30s-15 -12 -25 -12c-4 0 -9.16699 2.16699 -15.5 6.5
s-10.833 6.5 -13.5 6.5c-8.66699 0 -13 -6.33301 -13 -19c0 -14.667 7.16699 -27.167 21.5 -37.5s31.833 -15.5 52.5 -15.5c50 0 94 32 132 96c6 10 26 54.667 60 134l-3 1c-15.333 -15.333 -31.166 -28 -47.499 -38s-31.5 -15 -45.5 -15c-22.667 0 -41.667 4.66699 -57 14
c-24 14.667 -36 38.667 -36 72c0 51.333 19.5 100.166 58.5 146.499s84.5 69.5 136.5 69.5c64.667 0 97 -39 97 -117c0 -40 -9.66699 -86 -29 -138s-43 -95.167 -71 -129.5s-57.167 -61.166 -87.5 -80.499s-61.166 -29 -92.499 -29zM181.998 191.999
c26.667 0 56 26.668 88 80.001s48 100.666 48 141.999c0 17.333 -3.16699 30.333 -9.5 39s-15.833 13 -28.5 13c-28 0 -56.833 -27.5 -86.5 -82.5s-44.5 -105.5 -44.5 -151.5c0 -10.667 2.5 -20 7.5 -28s13.5 -12 25.5 -12z" />
    <glyph glyph-name="colon" unicode=":" horiz-adv-x="167" 
d="M99 225c7.33301 0 13.666 -3.33105 18.999 -9.99805s8 -14 8 -22c0 -14.667 -2.66699 -26.334 -8 -35.001c-8 -13.333 -21 -20 -39 -20c-20.667 0 -31 10 -31 30c0 11.333 5.33301 23.666 16 36.999s22.334 20 35.001 20zM44 73.002
c7.33301 0 13.666 -3.33105 18.999 -9.99805s8 -14 8 -22c0 -14.667 -2.66699 -26.334 -8 -35.001c-8 -13.333 -21 -20 -39 -20c-20.667 0 -31 10 -31 30c0 11.333 5.33301 23.666 16 36.999s22.334 20 35.001 20z" />
    <glyph glyph-name="semicolon" unicode=";" horiz-adv-x="167" 
d="M99 225c7.33301 0 13.666 -3.33105 18.999 -9.99805s8 -14 8 -22c0 -14.667 -2.66699 -26.334 -8 -35.001c-8 -13.333 -21 -20 -39 -20c-20.667 0 -31 10 -31 30c0 11.333 5.33301 23.666 16 36.999s22.334 20 35.001 20zM24 -13.998c0 4.66699 -5.16699 8.5 -15.5 11.5
s-15.5 10.167 -15.5 21.5c0 14.667 5.66699 27.667 17 39s22 17 32 17c8.66699 0 15.667 -3.66699 21 -11s8 -16 8 -26c0 -19.333 -6.33301 -38.333 -19 -57c-15.333 -22 -38 -40.667 -68 -56l-4 -1c-6.66699 0 -10 2.66699 -10 8l1 3c10.667 6 21 12 31 18
c14.667 10 22 21 22 33z" />
    <glyph glyph-name="less" unicode="&#x3c;" horiz-adv-x="340" 
d="M26 198l-0.00292969 25.998c0 7.33301 4.66699 12.666 14 15.999c56.667 22.667 102 43.334 136 62.001c28.667 15.333 70.334 41.333 125.001 78c10 6.66699 17 10 21 10c4.66699 0 9.33398 -4.33301 14.001 -13s7 -16 7 -22c0 -5.33301 -1.83301 -9.16602 -5.5 -11.499
s-6.83398 -4.16602 -9.50098 -5.49902c-48 -30.667 -99 -59.334 -153 -86.001c-31.333 -15.333 -66.333 -32 -105 -50c34.667 -26 70.334 -50.333 107.001 -73c25.333 -15.333 58.333 -34.666 99 -57.999c4 -2 6.33301 -4 7 -6s1.33398 -3.33301 2.00098 -4
c0 -6 -1 -11.667 -3 -17s-4.66699 -8 -8 -8l-5 1c-40.667 22.667 -77.667 45 -111 67c-18 12 -58 40 -120 84c-8 6 -12 9.33301 -12 10z" />
    <glyph glyph-name="equal" unicode="=" horiz-adv-x="335" 
d="M40 192h244v-24h-244v24zM40 257h244v-24h-244v24z" />
    <glyph glyph-name="greater" unicode="&#x3e;" horiz-adv-x="340" 
d="M316 228l0.00292969 -26c0 -7.33301 -4.66699 -12.666 -14 -15.999c-56.667 -22.667 -102 -43.334 -136 -62.001c-28.667 -15.333 -70.334 -41.333 -125.001 -78c-10 -6.66699 -17 -10 -21 -10c-4.66699 0 -9.33398 4.33301 -14.001 13s-7 16 -7 22
c0 5.33301 1.66699 9 5 11l10 6c48 30.667 99 59.334 153 86.001c31.333 15.333 66.333 32 105 50c-34.667 26 -70.334 50.333 -107.001 73c-25.333 15.333 -58.333 34.666 -99 57.999c-3.33301 2 -5.33301 3.66699 -6 5s-1.66699 3 -3 5c0 6 1 11.667 3 17s4.66699 8 8 8
l5 -1c40.667 -22.667 77.667 -45 111 -67c18 -12 58 -40 120 -84c8 -6 12 -9.33301 12 -10z" />
    <glyph glyph-name="question" unicode="?" horiz-adv-x="285" 
d="M60 147c0 28 23.002 66.999 69.002 116.999c79.333 86 122.666 134 129.999 144c46.667 62 70 120.667 70 176c0 17.333 -7 32.333 -21 45s-30.667 19 -50 19c-24.667 0 -45.834 -5.5 -63.501 -16.5s-26.5 -24.5 -26.5 -40.5c0 -4 6.33301 -9 19 -15s19 -15.667 19 -29
c0 -14 -5.5 -25.833 -16.5 -35.5s-23.833 -14.5 -38.5 -14.5c-12.667 0 -23.167 4.5 -31.5 13.5s-12.5 19.833 -12.5 32.5c0 25.333 13.333 51 40 77c31.333 30.667 68.333 46 111 46c36.667 0 68.667 -11.833 96 -35.5s41 -53.167 41 -88.5
c0 -53.333 -26.333 -106 -79 -158c-50 -40.667 -99.667 -81 -149 -121c-53.333 -44.667 -80 -84 -80 -118c0 -2.66699 1 -6 3 -10s3 -8.33301 3 -13c0 -5.33301 -5 -8 -15 -8c-8 0 -13 2.33301 -15 7s-3 13.334 -3 26.001zM51.002 72.999
c7.33301 0 13.666 -3.33105 18.999 -9.99805s8 -14 8 -22c0 -14.667 -2.66699 -26.334 -8 -35.001c-8 -13.333 -21 -20 -39 -20c-20.667 0 -31 10 -31 30c0 11.333 5.33301 23.666 16 36.999s22.334 20 35.001 20z" />
    <glyph glyph-name="at" unicode="@" horiz-adv-x="588" 
d="M393 336l62.0039 0.00195312l-108 -266c-2.66699 -6.66699 -4.5 -14 -5.5 -22s-1.5 -12.333 -1.5 -13c0 -8.66699 2.66699 -16 8 -22s11.666 -9 18.999 -9c47.333 0 91.333 33.667 132 101c38 63.333 57 126.666 57 189.999c0 72.667 -13 122 -39 148
c-19.333 19.333 -51.333 29 -96 29c-26 0 -54.833 -5.83301 -86.5 -17.5s-60.834 -27.834 -87.501 -48.501c-58 -44 -107 -101.667 -147 -173s-60 -136.666 -60 -195.999c0 -66 14.667 -112.333 44 -139c25.333 -22.667 65 -34 119 -34c35.333 0 68 7.33301 98 22
c22 10.667 52 31.667 90 63c2.66699 2.66699 5.66699 2.33398 9 -0.999023s3.66602 -6 0.999023 -8c-36.667 -34.667 -69 -58.334 -97 -71.001s-65.333 -19 -112 -19c-59.333 0 -103.5 16.333 -132.5 49s-43.5 79.667 -43.5 141c0 79.333 17.667 152.833 53 220.5
s82.333 121.5 141 161.5c31.333 21.333 66.5 37.666 105.5 48.999s77.833 17 116.5 17c42.667 0 76 -13.333 100 -40c28 -31.333 42 -80.333 42 -147s-17.333 -132 -52 -196c-41.333 -76.667 -93 -115 -155 -115c-15.333 0 -28.5 7.5 -39.5 22.5s-16.5 33.833 -16.5 56.5
c0 6 0.833008 15.667 2.5 29s5.16699 28.666 10.5 45.999c-38 -56.667 -58 -86 -60 -88c-34.667 -44 -64.334 -66 -89.001 -66c-17.333 0 -30.833 8.33301 -40.5 25s-14.5 36.667 -14.5 60c0 54.667 24.667 113 74 175s95.333 93 138 93c15.333 0 26.333 -4.66699 33 -14
s10 -20.666 10 -33.999zM359.004 285.002c0 16 -2.16602 27.3311 -6.49902 33.998s-9.83301 10 -16.5 10c-10 0 -21 -7.66699 -33 -23c-14 -18 -40 -60.667 -78 -128c-12.667 -23.333 -26.334 -52.166 -41.001 -86.499s-22 -56.166 -22 -65.499c0 -4 1.5 -8.66699 4.5 -14
s6.5 -8 10.5 -8c11.333 0 27.666 11.333 48.999 34c24 26 47.333 56.333 70 91c18.667 31.333 34.334 63.333 47.001 96c10.667 28 16 48 16 60z" />
    <glyph glyph-name="A" unicode="A" horiz-adv-x="870" 
d="M560 259l0.00390625 19.9971h61c12.667 16.667 25.667 33.334 39 50.001c25.333 31.333 55 61.333 89 90c48 40.667 107 81.334 177 122.001c-16 5.33301 -47.833 11.333 -95.5 18s-95.834 10 -144.501 10c-82.667 0 -161 -17.667 -235 -53
c-92.667 -44 -139 -103.333 -139 -178c0 -20.667 9.66699 -38.334 29 -53.001s42 -22 68 -22c52.667 0 99.334 22.667 140.001 68c36.667 40.667 55 80.334 55 119.001c0 17.333 -2.33301 28.333 -7 33c-1.33301 2 -1.33301 4.33301 0 7s3.33301 3.66699 6 3
c12.667 -4 21 -8.33301 25 -13c6.66699 -8 10 -24.333 10 -49c0 -37.333 -19.667 -76.333 -59 -117c-45.333 -46.667 -97.666 -70 -156.999 -70c-44 0 -78 12.667 -102 38s-36 58 -36 98c0 60 29 109.667 87 149c65.333 44.667 156 67 272 67
c53.333 0 105.833 -3.5 157.5 -10.5s104.5 -16.833 158.5 -29.5c13.333 -1.33301 32.166 3.33398 56.499 14.001s42.5 16 54.5 16c6 0 12.167 -2.5 18.5 -7.5s9.5 -10.167 9.5 -15.5c0 -12.667 -10 -21.5 -30 -26.5s-50.333 -7.5 -91 -7.5
c-12.667 -3.33301 -25.334 -10.333 -38.001 -21c-10 -8 -21.667 -20 -35 -36c-16.667 -18 -38 -49 -64 -93c-14.667 -24.667 -33 -58 -55 -100h80v-20h-87c-10.667 -16 -23.334 -43.333 -38.001 -82c-18 -48.667 -28.667 -91 -32 -127c0 -14.667 2.5 -26.334 7.5 -35.001
s14.167 -13 27.5 -13c24 0 46.333 18.667 67 56c10 18 21.333 46 34 84c0.666992 2 3 2.5 7 1.5s5.33301 -4.83301 4 -11.5c-11.333 -46 -27 -81.833 -47 -107.5s-43.667 -38.5 -71 -38.5c-19.333 0 -36.333 10.667 -51 32c-16.667 24 -25 54 -25 90
c0 20.667 4.33301 45.334 13 74.001c6.66699 22 16.334 47.667 29.001 77h-62c-28.667 -34 -57.334 -67.667 -86.001 -101c-26 -26 -61.667 -56 -107 -90c-32.667 -24 -67 -43 -103 -57c-42.667 -16.667 -85.334 -25 -128.001 -25c-54.667 0 -101.334 11.333 -140.001 34
c-44.667 26 -67 62.333 -67 109c0 16 7 32.333 21 49s28.667 25 44 25c16 0 27.167 -3.16699 33.5 -9.5s9.5 -14.833 9.5 -25.5c0 -10 -3.33301 -19 -10 -27s-15.667 -12 -27 -12c-7.33301 0 -13.833 2.5 -19.5 7.5s-9.16699 7.5 -10.5 7.5c-4 0 -7.16699 -3 -9.5 -9
s-3.5 -12.667 -3.5 -20c0 -32 16 -58.833 48 -80.5s75.667 -32.5 131 -32.5c53.333 0 104.333 12.667 153 38c39.333 20.667 81 52.667 125 96c28.667 28.667 65 69.667 109 123h-44zM891.004 498.997c-41.333 -21.333 -85.667 -55.667 -133 -103
c-18.667 -18.667 -53.667 -57.667 -105 -117h62c24.667 41.333 45.667 73.333 63 96c30.667 40.667 68.667 81 114 121z" />
    <glyph glyph-name="B" unicode="B" horiz-adv-x="757" 
d="M432 -14c-11.333 0 -29.1689 0.333984 -53.502 1.00098s-42.166 1 -53.499 1h-22c-6.66699 0 -13.667 -0.666992 -21 -2c-48 -6.66699 -86.333 -16.334 -115 -29.001l-68 -36c-4.66699 0 -9.83398 2.83301 -15.501 8.5s-8.5 11.167 -8.5 16.5
c0 18.667 22 34.334 66 47.001c36 8.66699 72 17.667 108 27c18.667 6.66699 37 19.667 55 39c26.667 28.667 50.667 69.667 72 123c11.333 30.667 20.666 56.334 27.999 77.001c13.333 36 28 70.667 44 104c32 66.667 72.667 123.334 122 170.001
c-12 3.33301 -26.667 5.66602 -44 6.99902s-34.333 2 -51 2c-99.333 0 -193 -35.333 -281 -106c-79.333 -64 -119 -123 -119 -177c0 -22 7.5 -39.833 22.5 -53.5s35.167 -20.5 60.5 -20.5c56.667 0 106.334 26.333 149.001 79c36 44.667 54 85.667 54 123
c0 18 -6.33301 33.333 -19 46c-2 2 -1.66699 4.5 1 7.5s5.33398 3.5 8.00098 1.5c15.333 -11.333 25.666 -22.833 30.999 -34.5s8 -25.5 8 -41.5c0 -61.333 -26.333 -111.333 -79 -150c-44 -32.667 -89.333 -49 -136 -49c-28.667 0 -54.667 7.66699 -78 23
c-34.667 22.667 -52 57.334 -52 104.001c0 59.333 29 115.666 87 168.999c72 66.667 166 100 282 100c41.333 0 76.833 -1.33301 106.5 -4s51.5 -5.66699 65.5 -9c48.667 29.333 84 48.333 106 57c36 14 69.667 21 101 21c18 0 35.667 -4.16699 53 -12.5
s26 -20.166 26 -35.499c0 -12.667 -3 -22.667 -9 -30s-16.333 -11 -31 -11c-12.667 0 -21.5 2.83301 -26.5 8.5s-7.5 12.167 -7.5 19.5c0 3.33301 1.33301 8 4 14s4 10.333 4 13c0 5.33301 -4.16699 8.66602 -12.5 9.99902s-19.166 2 -32.499 2
c-22 0 -46.667 -7.66699 -74 -23c-21.333 -12 -39.666 -26.333 -54.999 -43c52.667 -18.667 89.667 -39 111 -61c18 -18.667 27 -40.334 27 -65.001c0 -46 -23.333 -82.667 -70 -110c-18 -10.667 -51.667 -23.334 -101 -38.001c34.667 -8 60 -17.333 76 -28
c28 -18 42 -43.333 42 -76c0 -54 -30 -97.667 -90 -131c-54 -30 -119 -45 -195 -45zM616.997 519.001c-34.667 -42 -76.332 -120.668 -124.999 -236.001c2.66699 -1.33301 5.66699 -2.16602 9 -2.49902s9.33301 -0.5 18 -0.5c41.333 0 76.666 8.33301 105.999 25
c43.333 24.667 65 64 65 118c0 26 -7.16699 47 -21.5 63s-31.5 27 -51.5 33zM245.999 0l0.000976562 -4c40.667 2.66699 81.667 5.66699 123 9c74.667 6.66699 132.667 20 174 40c59.333 28 89 69.333 89 124c0 28.667 -11.667 51 -35 67c-19.333 13.333 -43 20 -71 20
c-14.667 0 -28.334 2.66699 -41.001 8c-28 -79.333 -68.333 -143 -121 -191c-34 -30.667 -73.333 -55 -118 -73z" />
    <glyph glyph-name="C" unicode="C" horiz-adv-x="532" 
d="M199 -117c-72 0 -122.333 17.333 -151 52c-25.333 30.667 -38 79.667 -38 147c0 54 16.333 115 49 183c29.333 60.667 65.666 116.667 108.999 168c54 58.667 112.167 105.834 174.5 141.501s118.833 53.5 169.5 53.5c33.333 0 61.333 -10 84 -30
c25.333 -22.667 38 -53.667 38 -93c0 -58.667 -28.667 -121.334 -86 -188.001c-62 -72 -127 -108 -195 -108c-26 0 -48.667 8.5 -68 25.5s-29 38.5 -29 64.5c0 57.333 26.667 107 80 149c45.333 36 88 54 128 54c12 0 21.333 -1.5 28 -4.5s12.334 -8.5 17.001 -16.5
c-1.33301 -2 -2 -3.33301 -2 -4c-2 -3.33301 -3.66699 -4.66602 -5 -3.99902c-4.66699 3.33301 -7.66699 5.33301 -9 6c-7.33301 4 -14.333 6 -21 6c-34.667 0 -73.167 -24.167 -115.5 -72.5s-63.5 -92.833 -63.5 -133.5c0 -16.667 5.83301 -29.834 17.5 -39.501
s25.834 -14.5 42.501 -14.5c44 0 94.333 39 151 117s85 146 85 204c0 23.333 -7.66699 40.5 -23 51.5s-35.666 16.5 -60.999 16.5s-63 -17.667 -113 -53c-66.667 -47.333 -131 -113.333 -193 -198c-34.667 -46.667 -66.5 -102 -95.5 -166s-43.5 -117.333 -43.5 -160
c0 -89.333 47 -134 141 -134c32.667 0 63 7 91 21c35.333 17.333 72.666 49 111.999 95c16.667 20 33.667 42.667 51 68l52 76c2 2 4.66699 1.33301 8 -2s4.33301 -6.33301 3 -9c-12 -22.667 -21.333 -39.334 -28 -50.001c-17.333 -26.667 -40.5 -57.667 -69.5 -93
s-60.167 -63.666 -93.5 -84.999c-42.667 -27.333 -85.334 -41 -128.001 -41z" />
    <glyph glyph-name="D" unicode="D" horiz-adv-x="735" 
d="M308 5c24 19.333 45.334 43.3291 64.001 71.9961c16 24.667 34.667 61 56 109c41.333 91.333 76 159.333 104 204c17.333 27.333 42 60 74 98c-19.333 14 -38.333 24 -57 30c-25.333 8 -58.666 12 -99.999 12c-112.667 0 -207 -35 -283 -105
c-66.667 -61.333 -100 -126.666 -100 -195.999c0 -23.333 8.33301 -43.333 25 -60s38 -25 64 -25c40 0 83 23.667 129 71c50 51.333 75 102.666 75 153.999c0 8 -2 17 -6 27s-11.667 19.667 -23 29c-2.66699 2.66699 -2.5 5.33398 0.5 8.00098s6.83301 3.33398 11.5 2.00098
c14.667 -8 25.667 -16.333 33 -25c14.667 -16.667 22 -37.667 22 -63c0 -36.667 -18.667 -78.667 -56 -126c-48.667 -61.333 -108.667 -92 -180 -92c-36 0 -66.833 12.833 -92.5 38.5s-38.5 58.834 -38.5 99.501c0 62.667 31.333 123.667 94 183
c73.333 69.333 164.333 104 273 104c63.333 0 114.666 -6 153.999 -18c22.667 -7.33301 45.667 -18.666 69 -33.999c21.333 22.667 49.333 43 84 61c43.333 22 85 33 125 33c20 0 36.5 -3.33301 49.5 -10s19.5 -16.667 19.5 -30c0 -14 -3.5 -24.167 -10.5 -30.5
s-17.167 -9.5 -30.5 -9.5c-12.667 0 -21.334 2.33301 -26.001 7s-7 11.334 -7 20.001c2.66699 8.66699 4 15 4 19c0 10.667 -6.66699 16 -20 16c-24 0 -50.833 -9.5 -80.5 -28.5s-55.167 -42.167 -76.5 -69.5c18 -14.667 33.333 -34.667 46 -60
c15.333 -30.667 23 -63 23 -97c0 -48.667 -18.667 -98 -56 -148c-39.333 -52.667 -94.666 -99.334 -165.999 -140.001c-12.667 -7.33301 -33.834 -14.5 -63.501 -21.5s-72.167 -16.167 -127.5 -27.5c-22.667 -12.667 -48.5 -25 -77.5 -37s-46.833 -18 -53.5 -18
c-10 0 -15 4.33301 -15 13c0 40.667 49 61 147 61zM692.001 326.996c0 36 -6 66.6699 -18 92.0029c-8.66699 18 -20.667 33.333 -36 46c-22.667 -32.667 -42.334 -64.334 -59.001 -95.001c-12 -22 -28 -55 -48 -99c-30 -63.333 -61.667 -117.833 -95 -163.5
s-65.333 -79.834 -96 -102.501c66 9.33301 118.667 25.666 158 48.999c58.667 36 106.334 81 143.001 135c34 50 51 96 51 138z" />
    <glyph glyph-name="E" unicode="E" horiz-adv-x="600" 
d="M686 550c0 -19.333 -5.33691 -36.3311 -16.0039 -50.998c-12.667 -17.333 -30 -26 -52 -26c-14 0 -25.833 4.16699 -35.5 12.5s-14.5 18.833 -14.5 31.5c0 10 3.33301 18.667 10 26s15.667 11 27 11c6.66699 0 12.334 -1.16699 17.001 -3.5s10 -4.83301 16 -7.5
c10 0 15 9 15 27c0 17.333 -9.66699 34 -29 50c-22.667 18.667 -52.667 28 -90 28c-59.333 0 -112.166 -17.667 -158.499 -53s-69.5 -77.333 -69.5 -126c0 -32 11 -54.333 33 -67c16.667 -9.33301 41.667 -14 75 -14c14 0 27.333 0.333008 40 1l38 2
c26.667 0 40 -6.66699 40 -20c0 -9.33301 -7.66699 -15.333 -23 -18c-4.66699 -0.666992 -12 -1 -22 -1c-17.333 0 -34.166 0.833008 -50.499 2.5s-37.166 4.16699 -62.499 7.5c-95.333 -12 -169.333 -51.333 -222 -118c-43.333 -54.667 -65 -114.667 -65 -180
c0 -42.667 15 -74.667 45 -96c25.333 -18 58 -27 98 -27c82.667 0 155.334 38 218.001 114c53.333 64.667 80 123.667 80 177c0 21.333 -7.33301 39 -22 53s-32.667 21 -54 21c-42 0 -86.333 -22 -133 -66c-50.667 -48 -76 -98.667 -76 -152c0 -16.667 5 -31.334 15 -44.001
c6 -7.33301 16.667 -16.333 32 -27c1.33301 -1.33301 0.666016 -2.83301 -2.00098 -4.5s-4.66699 -2.16699 -6 -1.5c-21.333 7.33301 -39.666 18.333 -54.999 33c-18 17.333 -27 36 -27 56c0 44 22 89.667 66 137c51.333 55.333 111.666 83 180.999 83
c38.667 0 70.667 -12.667 96 -38c21.333 -21.333 32 -48.333 32 -81c0 -56 -27.667 -113.333 -83 -172c-67.333 -72 -151 -108 -251 -108c-60 0 -110.667 15 -152 45c-46 33.333 -69 79.666 -69 138.999c0 64.667 24.667 119.667 74 165c35.333 32.667 84 59.667 146 81
c10.667 4 43 13 97 27c-28 10 -50 22 -66 36c-25.333 22.667 -38 51.667 -38 87c0 44 24.333 82 73 114c51.333 34 114.333 51 189 51c57.333 0 102 -8.33301 134 -25c38 -20 57 -50.333 57 -91z" />
    <glyph glyph-name="F" unicode="F" horiz-adv-x="817" 
d="M911 536l6.00098 -8.99805c-30 -7.33301 -59.333 -25.666 -88 -54.999c-33.333 -33.333 -60.666 -76 -81.999 -128h96v-20h-102c-24.667 -87.333 -46.834 -157.666 -66.501 -210.999s-46.834 -104.666 -81.501 -153.999c-40 -54 -90.167 -95.333 -150.5 -124
s-128.5 -43 -204.5 -43c-68.667 0 -124.667 15.333 -168 46c-46.667 33.333 -70 79 -70 137c0 52 24.667 105 74 159c62 67.333 141.333 101 238 101c40.667 0 76 -8.33301 106 -25c36 -20 54 -48.667 54 -86c0 -34.667 -15.333 -68.334 -46 -101.001
c-38.667 -40.667 -89.334 -61 -152.001 -61c-28.667 0 -53 5.33301 -73 16c-25.333 13.333 -38 31.666 -38 54.999c0 8 1.66699 16.333 5 25h11l-1 -12c0 -24.667 8 -41.334 24 -50.001c12.667 -6.66699 33.334 -10 62.001 -10c46.667 0 86.667 15.667 120 47s50 66 50 104
c0 26 -11.5 46.667 -34.5 62s-49.167 23 -78.5 23c-70.667 0 -131.667 -23.5 -183 -70.5s-77 -101.833 -77 -164.5c0 -56.667 20.667 -100.667 62 -132c38.667 -29.333 87.334 -44 146.001 -44c80 0 149.667 33 209 99c42.667 47.333 83.667 118.333 123 213
c26.667 66.667 53.334 133.667 80.001 201h-93v20h104c31.333 52 60.666 91.667 87.999 119c33.333 33.333 73 58.666 119 75.999c-84 14 -139.333 23 -166 27c-75.333 11.333 -126.333 17 -153 17c-63.333 0 -118 -14 -164 -42c-52.667 -32 -79 -75.667 -79 -131
c0 -41.333 18 -76 54 -104c32.667 -25.333 68.667 -38 108 -38c20 0 37.5 2.5 52.5 7.5s28.833 11.833 41.5 20.5c2 1.33301 3.83301 1.33301 5.5 0s1.5 -3.33301 -0.5 -6c-7.33301 -12.667 -21.333 -22.334 -42 -29.001s-44.334 -10 -71.001 -10
c-55.333 0 -99.833 12 -133.5 36s-50.5 56.333 -50.5 97c0 86 44.667 151 134 195c66.667 32.667 141.334 49 224.001 49c43.333 0 92 -3.66699 146 -11c128 -17.333 201.667 -26 221 -26c24 0 44.167 2.83301 60.5 8.5s33.166 15.167 50.499 28.5c2.66699 2 5.5 0 8.5 -6
s2.83301 -10.667 -0.5 -14c-49.333 -54 -99.333 -81 -150 -81c-15.333 0 -27 0.5 -35 1.5s-24.333 3.5 -49 7.5z" />
    <glyph glyph-name="G" unicode="G" horiz-adv-x="720" 
d="M807 589c0 -48.667 -34.0039 -101.674 -102.004 -159.007c-65.333 -55.333 -121.333 -83 -168 -83c-14.667 0 -28.834 3.5 -42.501 10.5s-26.5 18.167 -38.5 33.5c-2 2 -1.66699 4.66699 1 8s4.66699 4.33301 6 3c12 -12.667 22 -21.667 30 -27c12 -8 24 -12 36 -12
c44.667 0 97.334 30.667 158.001 92s91 113.333 91 156c0 14.667 -5.16699 24.834 -15.5 30.501s-21.166 8.5 -32.499 8.5c-27.333 0 -72 -21 -134 -63c-72.667 -49.333 -132.667 -105.666 -180 -168.999c-60.667 -81.333 -91 -162 -91 -242c0 -23.333 8 -43.666 24 -60.999
s35.667 -26 59 -26c25.333 0 52.333 9.33301 81 28c34 22 71.667 56.667 113 104c15.333 17.333 30.833 36.333 46.5 57s26.5 36.334 32.5 47.001c10.667 18.667 20 38.334 28 59.001s16 31 24 31c6.66699 0 11.667 -4.33301 15 -13c1.33301 -3.33301 2 -7 2 -11
c0 -10.667 -4.33301 -21.334 -13 -32.001c-17.333 -21.333 -29 -36.833 -35 -46.5s-12.667 -24.5 -20 -44.5s-15.666 -42.667 -24.999 -68c-12 -40 -20.333 -69 -25 -87c-9.33301 -31.333 -21.333 -66 -36 -104c-18.667 -51.333 -48.667 -93 -90 -125
c-58.667 -45.333 -137.667 -68 -237 -68c-69.333 0 -128.666 13 -177.999 39c-60.667 32 -91 77 -91 135c0 31.333 8.33301 58 25 80s36.667 33 60 33c14 0 26.167 -4.16699 36.5 -12.5s15.5 -18.833 15.5 -31.5c0 -13.333 -4.16699 -25.333 -12.5 -36
s-18.833 -16 -31.5 -16c-14 0 -22 7.33301 -24 22s-6.66699 22 -14 22c-9.33301 0 -17.333 -6.16699 -24 -18.5s-10 -27.5 -10 -45.5c0 -47.333 24.333 -85 73 -113c42.667 -24.667 91.667 -37 147 -37c66 0 125 17.667 177 53c45.333 30.667 85.333 74 120 130
c14 22.667 29 50.334 45 83.001c8.66699 17.333 29.667 64.333 63 141c-41.333 -50 -75.666 -86.667 -102.999 -110c-48 -41.333 -92.333 -62 -133 -62c-28 0 -54 8 -78 24c-39.333 26 -59 68 -59 126c0 48.667 24.167 108.834 72.5 180.501s105.833 131.834 172.5 180.501
c76 55.333 146.667 83 212 83c15.333 0 30 -4.33301 44 -13c22 -14 33 -35.333 33 -64z" />
    <glyph glyph-name="H" unicode="H" horiz-adv-x="907" 
d="M733 316l-142.008 -0.000976562c-13.333 -33.333 -23.333 -56.666 -30 -69.999c-16 -32.667 -36 -65.667 -60 -99c-38 -54.667 -86.333 -96 -145 -124c-51.333 -24.667 -104.333 -37 -159 -37c-52 0 -94.333 9.66699 -127 29c-40 23.333 -60 57.333 -60 102
c0 23.333 7 44.5 21 63.5s31.333 28.5 52 28.5c18.667 0 31.667 -5 39 -15c4.66699 -6.66699 7 -15.334 7 -26.001c0 -12 -3.5 -22.333 -10.5 -31s-16.833 -13 -29.5 -13c-8 0 -15 5.33301 -21 16c-3.33301 6.66699 -8 12 -14 16c-10.667 -8 -17 -14.167 -19 -18.5
s-3 -14.833 -3 -31.5c0 -35.333 15 -61.333 45 -78s70 -25 120 -25c90.667 0 165 40 223 120c9.33301 12.667 42.333 77 99 193h-36v20h45c25.333 54 47.333 93.667 66 119c26 35.333 62.333 69.666 109 102.999c-15.333 2.66699 -40.833 6 -76.5 10s-63.167 6 -82.5 6
c-77.333 0 -146.666 -15.333 -207.999 -46c-75.333 -38 -113 -90 -113 -156c0 -22 8.16699 -38.833 24.5 -50.5s37.166 -17.5 62.499 -17.5c48 0 90 23 126 69c30 38.667 45 74.667 45 108c0 5.33301 -1 10.833 -3 16.5s-4.66699 10.834 -8 15.501
c-1.33301 2.66699 -0.666016 5.16699 2.00098 7.5s5.33398 2.5 8.00098 0.5c14 -9.33301 23.167 -17.833 27.5 -25.5s6.5 -18.5 6.5 -32.5c0 -36 -16.667 -72 -50 -108c-40.667 -44 -91 -66 -151 -66c-37.333 0 -67.666 11 -90.999 33s-35 51 -35 87
c0 58.667 28 105.667 84 141c46.667 29.333 99.334 44 158.001 44c52 0 98 -1.66699 138 -5s83.333 -7 130 -11c8.66699 0 16.667 1 24 3c8 3.33301 13.333 5.33301 16 6l50 34c9.33301 4.66699 21.333 7 36 7c12.667 0 19 -4 19 -12c0 -7.33301 -8.33301 -14 -25 -20
c-34.667 -12.667 -54 -20 -58 -22c-38.667 -15.333 -74.667 -52.666 -108 -111.999c-17.333 -31.333 -35.333 -73.333 -54 -126h144c17.333 33.333 42 71 74 113c44 57.333 88 102.666 132 135.999c58 44 113.667 66 167 66c14.667 0 27.334 -3 38.001 -9s16 -15.667 16 -29
c0 -11.333 -3.66699 -20.666 -11 -27.999s-15.666 -11 -24.999 -11c-12 0 -20.667 2.66699 -26 8s-8 11.333 -8 18c0 3.33301 0.666992 7.66602 2 12.999s2 8.33301 2 9c0 7.33301 -5.33301 11 -16 11c-29.333 0 -68.666 -24.667 -117.999 -74
c-54.667 -54.667 -102 -121.667 -142 -201c-30 -58.667 -54.333 -115.167 -73 -169.5s-28 -98.166 -28 -131.499c0 -16 2.66699 -29 8 -39s15 -15 29 -15c25.333 0 51.333 23 78 69c12 21.333 26.333 52.666 43 93.999c1.33301 3.33301 3.83301 4 7.5 2
s4.83398 -6 3.50098 -12c-5.33301 -23.333 -19.666 -54.333 -42.999 -93c-31.333 -51.333 -61 -77 -89 -77s-48.333 11.833 -61 35.5s-19 56.834 -19 99.501c0 20.667 6.66699 54.334 20 101.001c9.33301 33.333 19.666 64.666 30.999 93.999z" />
    <glyph glyph-name="I" unicode="I" horiz-adv-x="615" 
d="M706 546c-23.333 9.33301 -51.3311 17.3369 -83.998 24.0039s-58.667 10 -78 10c-66 0 -131.667 -17.333 -197 -52c-79.333 -42 -119 -94.667 -119 -158c0 -21.333 8.33301 -38.5 25 -51.5s36.667 -19.5 60 -19.5c30 0 62 15.333 96 46
c37.333 33.333 56 68.666 56 105.999c0 19.333 -4.66699 33 -14 41c-0.666992 1.33301 0.166016 3 2.49902 5s4.83301 2.33301 7.5 1c10.667 -5.33301 18.834 -13.666 24.501 -24.999s8.5 -24.666 8.5 -39.999c0 -30 -14 -60.667 -42 -92c-34 -38.667 -77 -58 -129 -58
c-34.667 0 -64.5 11.5 -89.5 34.5s-37.5 51.5 -37.5 85.5c0 59.333 26 105.666 78 138.999c56 36 123.667 54 203 54c37.333 0 79 -4 125 -12c20 -3.33301 60 -12 120 -26c37.333 25.333 65.333 38 84 38c18 0 27 -6.33301 27 -19c0 -10.667 -34.333 -20.334 -103 -29.001
c-13.333 -6.66699 -23.666 -13.334 -30.999 -20.001c-9.33301 -10.667 -17.333 -19.667 -24 -27c-24 -26.667 -45.667 -65.334 -65 -116.001c-16 -45.333 -31.667 -90.666 -47 -135.999c-32.667 -82 -77.334 -145.667 -134.001 -191c-60 -48 -130.667 -72 -212 -72
c-54 0 -100 10.333 -138 31c-46 24.667 -69 59.334 -69 104.001c0 22.667 6.5 42.5 19.5 59.5s29.5 25.5 49.5 25.5c11.333 0 21.5 -3.33301 30.5 -10s13.5 -15.667 13.5 -27c0 -12 -3.83301 -21.5 -11.5 -28.5s-16.5 -10.5 -26.5 -10.5c-11.333 0 -18.833 3.33301 -22.5 10
s-7.16699 10 -10.5 10c-6.66699 0 -11.834 -4.5 -15.501 -13.5s-5.5 -18.167 -5.5 -27.5c0 -36.667 18.667 -64.334 56 -83.001c31.333 -16 70.333 -24 117 -24s86.667 8.66699 120 26s62.5 42.166 87.5 74.499s51.167 77.833 78.5 136.5
c37.333 80.667 58.666 126 63.999 136c22.667 41.333 49.667 78.666 81 111.999c28 29.333 51.667 49 71 59z" />
    <glyph glyph-name="J" unicode="J" horiz-adv-x="787" 
d="M249 -223c-63.333 0 -116.669 13.332 -160.002 39.999c-59.333 36.667 -89 92.667 -89 168c0 84.667 42.667 158.667 128 222c71.333 52.667 135.666 79 192.999 79c38.667 0 69.334 -11 92.001 -33s34 -51.333 34 -88c0 -48.667 -19 -96 -57 -142
c-43.333 -52 -94.333 -78 -153 -78c-24.667 0 -43.5 4.5 -56.5 13.5s-26.5 24.833 -40.5 47.5c-2 3.33301 -1 6.66602 3 9.99902c2.66699 0.666992 5.66699 1.33398 9 2.00098c10.667 -20 20.334 -33.667 29.001 -41c12.667 -10.667 28.667 -16 48 -16
c44.667 0 86 24.833 124 74.5s57 100.834 57 153.501c0 31.333 -9 53.333 -27 66c-14 10 -34 15 -60 15c-55.333 0 -114.833 -36.833 -178.5 -110.5s-95.5 -145.5 -95.5 -215.5c0 -48 20.333 -86 61 -114c37.333 -25.333 83.333 -38 138 -38c76.667 0 144.667 34 204 102
c42 48 82 118 120 210c23.333 58 46.666 116.333 69.999 175c-36.667 18.667 -73 37.667 -109 57c-32 28.667 -48 62.334 -48 101.001c0 64.667 32.333 114.334 97 149.001c52 28 112.333 42 181 42c15.333 0 40.5 -1.66699 75.5 -5s62.5 -5 82.5 -5
c32.667 19.333 50.667 30 54 32c20.667 10.667 38.334 16 53.001 16c6 0 12.167 -2.16699 18.5 -6.5s9.5 -8.83301 9.5 -13.5c0 -14.667 -19.333 -25.334 -58 -32.001c-12.667 -2 -32 -4 -58 -6c-35.333 -12.667 -68 -35.334 -98 -68.001
c-25.333 -28 -50.666 -66.333 -75.999 -115c-18.667 -35.333 -39.667 -81.666 -63 -138.999c16 -2 30 -3 42 -3c13.333 0 26.666 1 39.999 3c4.66699 0.666992 7 -2 7 -8c0 -5.33301 -2 -8 -6 -8c-15.333 -2 -31 -3 -47 -3c-13.333 0 -27 1 -41 3
c-18 -48.667 -37.333 -99 -58 -151c-29.333 -72.667 -49.333 -117.667 -60 -135c-38.667 -68.667 -86.667 -120.334 -144 -155.001s-119.666 -52 -186.999 -52zM883.997 606.999c-122.667 0 -213.667 -21.666 -273 -64.999c-46.667 -34 -70 -77 -70 -129
c0 -29.333 13 -56 39 -80c21.333 -20 45 -33 71 -39c39.333 89.333 79.333 159.666 120 210.999c31.333 39.333 69 73.333 113 102z" />
    <glyph glyph-name="K" unicode="K" horiz-adv-x="900" 
d="M224 -14c-60.667 0 -109.831 12.001 -147.498 36.001s-56.5 54 -56.5 90c0 22.667 6.33301 42 19 58s27.667 24 45 24c12.667 0 23.667 -4.33301 33 -13s14 -18.667 14 -30c0 -9.33301 -3 -17.333 -9 -24s-14 -10 -24 -10c-9.33301 0 -17.333 4 -24 12
c-3.33301 4 -6 6 -8 6c-2.66699 0 -6.33398 -3.33301 -11.001 -10s-7 -14 -7 -22c0 -29.333 16.333 -53.5 49 -72.5s73.667 -28.5 123 -28.5c48 0 89 11.333 123 34c27.333 18 53.666 47 78.999 87c16 25.333 35.333 62.333 58 111c5.33301 12.667 11 26.334 17 41.001
c24 57.333 43.667 97.666 59 120.999c32 50 59.333 88 82 114c18.667 21.333 39.334 39.666 62.001 54.999c-33.333 4.66699 -60.166 7.83398 -80.499 9.50098s-44.5 2.5 -72.5 2.5c-80.667 0 -153 -19.667 -217 -59c-68.667 -42.667 -103 -94.334 -103 -155.001
c0 -24.667 7 -43 21 -55s33 -18 57 -18c47.333 0 89.333 22.333 126 67c30.667 38 46 72.667 46 104c0 11.333 -0.833008 18.666 -2.5 21.999s-5.83398 9 -12.501 17c-1.33301 2 -0.5 3.83301 2.5 5.5s5.16699 1.83398 6.5 0.500977c10 -5.33301 17.333 -11.333 22 -18
c8 -11.333 12 -26 12 -44c0 -34.667 -15 -69.667 -45 -105c-37.333 -43.333 -84.666 -65 -141.999 -65c-37.333 0 -67.833 12.5 -91.5 37.5s-35.5 56.5 -35.5 94.5c0 73.333 36 126 108 158c47.333 21.333 102 32 164 32c37.333 0 82.5 -2.83301 135.5 -8.5
s92.167 -9.83398 117.5 -12.501c11.333 6 25.666 14.333 42.999 25c30.667 18.667 50.667 28 60 28c14.667 0 22 -3.33301 22 -10c0 -12.667 -10.667 -23.667 -32 -33s-49.333 -17 -84 -23c-8 -7.33301 -17.5 -18 -28.5 -32s-20.833 -28 -29.5 -42
c-12.667 -20.667 -26.667 -46 -42 -76c-18.667 -37.333 -33 -70.333 -43 -99c5.33301 -1.33301 16.333 -2.83301 33 -4.5s31.667 -2.5 45 -2.5c34.667 0 68 25.333 100 76c50.667 80.667 88.334 133 113.001 157c17.333 16.667 37.666 30.334 60.999 41.001s48 16 74 16
c13.333 0 24.333 -3.33301 33 -10s13 -15.334 13 -26.001c0 -26 -13.667 -39 -41 -39c-11.333 0 -19.166 2.5 -23.499 7.5s-6.5 11.833 -6.5 20.5c0 6.66699 -1.33301 13 -4 19s-5.66699 9 -9 9c-20.667 0 -42.5 -17.667 -65.5 -53s-45.167 -70 -66.5 -104
c-56 -75.333 -111.333 -116.333 -166 -123c28 -12.667 48.333 -30 61 -52c10 -17.333 15 -36.333 15 -57c0 -8 -1 -19.333 -3 -34c-4.66699 -34 -7 -60.667 -7 -80c0 -21.333 2.5 -38.666 7.5 -51.999s15.5 -20 31.5 -20c18 0 34.667 14.333 50 43
c11.333 21.333 20.666 47.666 27.999 78.999c0.666992 3.33301 3.16699 3.5 7.5 0.5s6.5 -6.83301 6.5 -11.5c-6 -28 -16.667 -54.333 -32 -79c-20 -32 -41.333 -48 -64 -48c-36.667 0 -63.334 11.667 -80.001 35c-14 20 -21 47.667 -21 83c0 12 1 27.333 3 46
c4.66699 43.333 7 67.333 7 72c0 26.667 -3.66699 44.667 -11 54s-19 14 -35 14c-14 0 -27.5 0.833008 -40.5 2.5s-19.167 4.83398 -18.5 9.50098c-21.333 -47.333 -37.333 -80.666 -48 -99.999c-18.667 -33.333 -40 -65.333 -64 -96
c-30 -36.667 -65.833 -65.834 -107.5 -87.501s-86.167 -32.5 -133.5 -32.5z" />
    <glyph glyph-name="L" unicode="L" horiz-adv-x="727" 
d="M4 -14c-2 0 -4.83105 0.998047 -8.49805 2.99805s-5.5 4.66699 -5.5 8c0 20.667 18.167 33.667 54.5 39s63.833 12.333 82.5 21c13.333 6 26 13.667 38 23s23.667 21.666 35 36.999c17.333 22 35.333 60.667 54 116c12.667 40 22.334 70 29.001 90
c10 34.667 18.667 61.334 26 80.001c10.667 27.333 22.667 53 36 77c30 56 67 100 111 132c50 36 106.667 54 170 54c46.667 0 84.167 -16.167 112.5 -48.5s42.5 -72.833 42.5 -121.5c0 -21.333 -6 -49.5 -18 -84.5s-25.333 -64.167 -40 -87.5
c-18.667 -30 -43 -57.667 -73 -83c-41.333 -34.667 -81.333 -52 -120 -52c-36 0 -63 10.333 -81 31s-27 47.667 -27 81c0 58.667 26 111.667 78 159c45.333 41.333 86 62 122 62c9.33301 0 16.833 -0.833008 22.5 -2.5s11.834 -4.16699 18.501 -7.5
c2 -1.33301 3 -3.66602 3 -6.99902s-1.33301 -4.66602 -4 -3.99902c-10.667 3.33301 -23 5 -37 5c-38.667 0 -76.834 -26.667 -114.501 -80s-56.5 -104 -56.5 -152c0 -26 7.33301 -44.667 22 -56c11.333 -8.66699 27.333 -13 48 -13c33.333 0 62.333 12.333 87 37
c14.667 14.667 33.334 42 56.001 82c19.333 40 34.333 78.667 45 116s16 70 16 98c0 32.667 -10.167 59.5 -30.5 80.5s-45.5 31.5 -75.5 31.5c-40 0 -77 -14.333 -111 -43c-28.667 -24 -55.334 -58.333 -80.001 -103c-15.333 -28 -34.666 -69.333 -57.999 -124
c-17.333 -39.333 -34.333 -78.333 -51 -117c-12.667 -28 -24 -50.667 -34 -68c-18.667 -30.667 -39.334 -57.334 -62.001 -80.001c-18.667 -18.667 -42.334 -39 -71.001 -61c11.333 2 22.666 3 33.999 3h11c27.333 0 64.833 -7.5 112.5 -22.5s96.167 -30.167 145.5 -45.5
s87.333 -23 114 -23c20.667 0 38.667 7 54 21c20.667 18.667 39.334 51 56.001 97c1.33301 2.66699 3.66602 2.83398 6.99902 0.500977s5 -5.83301 5 -10.5c-2.66699 -25.333 -17.667 -59 -45 -101c-35.333 -54.667 -72.333 -82 -111 -82
c-33.333 0 -71.833 12.333 -115.5 37s-85.834 48.667 -126.501 72c-50 26 -94 39 -132 39c-20 0 -42 -5.33301 -66 -16c-56 -24.667 -87.333 -37 -94 -37z" />
    <glyph glyph-name="M" unicode="M" horiz-adv-x="952" 
d="M735 566l-2.99805 2.00293c-26 -28.667 -58 -70.334 -96 -125.001s-75.667 -109 -113 -163c-49.333 -68 -99 -131 -149 -189c-34 -40.667 -74.667 -69.667 -122 -87c-32.667 -12 -66.667 -18 -102 -18c-36.667 0 -69.167 9.33301 -97.5 28s-42.5 44 -42.5 76
c0 18 6.16699 34.833 18.5 50.5s27.166 23.5 44.499 23.5c11.333 0 21.833 -3.83301 31.5 -11.5s14.5 -17.167 14.5 -28.5c0 -10 -3.66699 -19.333 -11 -28s-17.333 -13 -30 -13c-9.33301 0 -15.333 3.33301 -18 10s-6.66699 10 -12 10c-4.66699 0 -8.5 -2.5 -11.5 -7.5
s-4.5 -10.5 -4.5 -16.5c5.33301 -17.333 11.666 -30 18.999 -38c22.667 -26 56 -39 100 -39c52 0 103.333 19.167 154 57.5s105.667 98.833 165 181.5c30 42 71 100 123 174c34 48.667 59.333 84 76 106c22 29.333 43 54.333 63 75c-20.667 0 -48.334 1 -83.001 3
c-80.667 4.66699 -127.334 7 -140.001 7c-80 0 -152.333 -26 -217 -78s-97 -110.667 -97 -176c0 -16 9.33301 -32 28 -48s39.667 -24 63 -24c40.667 0 81.667 23.333 123 70c37.333 42 56 78 56 108c0 10.667 -0.833008 17.667 -2.5 21s-6.16699 9.33301 -13.5 18
c-0.666992 1.33301 0.333008 3 3 5s5 2.66699 7 2c12.667 -8.66699 21.834 -18.334 27.501 -29.001s8.5 -23 8.5 -37c0 -34.667 -16.667 -70 -50 -106c-40 -43.333 -89.667 -65 -149 -65c-40.667 0 -72.5 12.167 -95.5 36.5s-34.5 56.166 -34.5 95.499
c0 77.333 35.667 137.333 107 180c54 32.667 109.333 49 166 49c34 0 85.333 -2.66699 154 -8s119 -8 151 -8c15.333 18.667 27.333 31.334 36 38.001c13.333 10.667 28 16 44 16c10 0 15 -4.66699 15 -14c0 -4.66699 -10.333 -13 -31 -25c-16.667 -10 -31 -20.333 -43 -31
c-20.667 -60 -35.334 -102 -44.001 -126c-13.333 -37.333 -27.333 -74 -42 -110c-30 -74.667 -58 -139.334 -84 -194.001c-32.667 -68.667 -49 -115 -49 -139c0 -6 0.833008 -11.667 2.5 -17s4.16699 -8 7.5 -8c5.33301 0 16 17.333 32 52
c39.333 84 60.666 129.333 63.999 136c34 73.333 67.333 134.666 100 183.999c47.333 70 101 129.833 161 179.5s113.667 74.5 161 74.5c42 0 63 -15.333 63 -46c0 -10.667 -3.83301 -20.167 -11.5 -28.5s-17.834 -12.5 -30.501 -12.5c-24.667 0 -37 10.333 -37 31
c0 8 8 14.667 24 20c8 2.66699 12 5.33398 12 8.00098c0 4.66699 -2 7.83398 -6 9.50098s-9.66699 2.5 -17 2.5c-28 0 -61 -25 -99 -75c-32 -42 -65.667 -100.333 -101 -175c-28.667 -61.333 -51 -113 -67 -155c-23.333 -62.667 -35 -111.334 -35 -146.001
c0 -17.333 3 -31.5 9 -42.5s16 -16.5 30 -16.5c19.333 0 39.833 15 61.5 45s42.5 71.667 62.5 125c1.33301 3.33301 4 4 8 2s5.33301 -6 4 -12c-6 -26 -20.667 -58.333 -44 -97c-31.333 -52.667 -61.666 -79 -90.999 -79s-50.333 12.333 -63 37s-19 59 -19 103
c0 34.667 13 85.334 39 152.001c28.667 74 64.334 141.333 107.001 202c17.333 25.333 34 45.666 50 60.999c8 8 21.667 20 41 36l-1 3c-31.333 -22.667 -54.666 -41.334 -69.999 -56.001c-18 -18 -39.667 -42.667 -65 -74c-30 -37.333 -60.833 -83.166 -92.5 -137.499
s-60.5 -111.166 -86.5 -170.499c-45.333 -104 -77.333 -156 -96 -156c-10.667 0 -17.5 6.16699 -20.5 18.5s-4.5 30.166 -4.5 53.499v17c0 32.667 6.33301 72 19 118s28.667 88 48 126c10.667 21.333 34.334 63 71.001 125c34 58 57 98.667 69 122z" />
    <glyph glyph-name="N" unicode="N" horiz-adv-x="874" 
d="M689 550l-2.00488 2.00098c-26.667 -38 -55.667 -82.333 -87 -133l-86 -144c-35.333 -58.667 -66.666 -107.667 -93.999 -147c-64 -94.667 -145.667 -142 -245 -142c-42.667 0 -80 10.333 -112 31c-35.333 22.667 -53 51.667 -53 87c0 24.667 6 46.334 18 65.001
s29.333 28 52 28c12.667 0 24.334 -4.66699 35.001 -14s16 -21 16 -35c0 -8 -4.16699 -16.167 -12.5 -24.5s-17.833 -12.5 -28.5 -12.5s-17.667 5.5 -21 16.5s-6.66602 16.5 -9.99902 16.5c-10 0 -17.167 -4.66699 -21.5 -14s-6.5 -20.666 -6.5 -33.999
c0 -30.667 16.333 -54.667 49 -72c27.333 -14.667 61.333 -22 102 -22c43.333 0 87.666 17 132.999 51c56.667 42.667 111.667 109.334 165 200.001c30 52.667 54.667 95 74 127c26.667 45.333 50.334 83 71.001 113c24.667 36.667 50 71 76 103
c-17.333 0 -51.333 2.66699 -102 8s-85.667 8 -105 8c-79.333 0 -153.833 -27.5 -223.5 -82.5s-104.5 -114.833 -104.5 -179.5c0 -14.667 9.5 -29.334 28.5 -44.001s40.167 -22 63.5 -22c40.667 0 81.334 22.333 122.001 67c37.333 40.667 56 75.667 56 105
c0 10.667 -0.833008 17.5 -2.5 20.5s-6.16699 9.5 -13.5 19.5c-1.33301 2 -0.5 4 2.5 6s5.5 2.33301 7.5 1c9.33301 -6 16.666 -12.667 21.999 -20c8.66699 -12.667 13 -28.334 13 -47.001c0 -34.667 -16.333 -69.334 -49 -104.001c-40 -42.667 -90 -64 -150 -64
c-39.333 0 -70.666 12 -93.999 36s-35 55.333 -35 94c0 76.667 36.333 136.667 109 180c55.333 33.333 111 50 167 50c47.333 0 95.5 -1.66699 144.5 -5s101.833 -7 158.5 -11c31.333 36 58.333 54 81 54c10.667 0 16 -4.33301 16 -13
c0 -6.66699 -7.5 -15.334 -22.5 -26.001s-35.167 -22.667 -60.5 -36c-8.66699 -11.333 -14.167 -23.5 -16.5 -36.5s-3.5 -27.833 -3.5 -44.5c0 -34 8.33301 -97.667 25 -191c8 -44.667 12 -82.667 12 -114c0 -43.333 -4 -90.666 -12 -141.999
c10.667 36.667 21.334 73.667 32.001 111c21.333 68 43.333 129 66 183c30.667 72.667 63 132.667 97 180c17.333 24 38.166 45.167 62.499 63.5s45.833 27.5 64.5 27.5c42 0 63 -15 63 -45c0 -10.667 -4 -20.334 -12 -29.001s-18 -13 -30 -13c-25.333 0 -38 10.667 -38 32
c0 7.33301 6.16699 13.333 18.5 18s18.5 8.33398 18.5 11.001c0 4.66699 -1.66699 7.5 -5 8.5s-9.66602 1.5 -18.999 1.5c-44 0 -95 -53.333 -153 -160c-51.333 -94 -92.333 -196.667 -123 -308c-9.33301 -32 -17.833 -65 -25.5 -99s-12.167 -52.667 -13.5 -56
c-4 -2 -7 -3 -9 -3c-12.667 0 -19 3.33301 -19 10v59c0 28.667 -13.667 94 -41 196c-13.333 50 -20 92.333 -20 127c0 40.667 3.33301 74.167 10 100.5s16.667 50.166 30 71.499z" />
    <glyph glyph-name="O" unicode="O" horiz-adv-x="567" 
d="M600 482c0 -46.667 -9.5 -97.333 -28.5 -152s-45.833 -108.667 -80.5 -162c-37.333 -58 -76.666 -102 -117.999 -132c-46 -33.333 -95.333 -50 -148 -50c-58.667 0 -105.834 18.833 -141.501 56.5s-53.5 85.167 -53.5 142.5c0 62 20.667 125.333 62 190
c30.667 48 64.667 86 102 114c58.667 43.333 119.667 68 183 74c21.333 20.667 41.666 36 60.999 46c23.333 12.667 47.333 19 72 19c28.667 0 50.834 -14 66.501 -42s23.5 -62.667 23.5 -104zM558 532.001c0 24 -4.50098 43.333 -13.501 58s-22.167 22 -39.5 22
c-30.667 0 -65.334 -20.333 -104.001 -61c-32 -33.333 -64 -77.666 -96 -132.999c-27.333 -45.333 -49 -88 -65 -128s-24 -73 -24 -99c0 -28.667 12 -50 36 -64c-0.666992 -2.66699 -1 -5 -1 -7c-4 -4 -7.33301 -5.33301 -10 -4c-22 10.667 -39 28.334 -51 53.001
c-9.33301 19.333 -14 37.666 -14 54.999c0 56.667 24.667 120.667 74 192c24.667 35.333 61.334 79 110.001 131c-37.333 -10 -77 -37.667 -119 -83c-33.333 -36 -58 -70.333 -74 -103c-22 -45.333 -39.667 -89.833 -53 -133.5s-20 -75.834 -20 -96.501
c0 -36 11.167 -66.5 33.5 -91.5s51.833 -37.5 88.5 -37.5c44.667 0 87 21.333 127 64c30.667 32.667 62.334 80.667 95.001 144c37.333 74 67.333 142.667 90 206c20 56 30 94.667 30 116z" />
    <glyph glyph-name="P" unicode="P" horiz-adv-x="697" 
d="M613 579c-36 -50.667 -67.3418 -110.004 -94.0088 -178.004l-36 -92c-23.333 -54.667 -51.666 -102.834 -84.999 -144.501s-70.666 -76.5 -111.999 -104.5c46 0 95 -8.66699 147 -26s87.667 -26 107 -26c27.333 0 49.333 12 66 36c14.667 30 25 50.333 31 61
c2 4.66699 5.33301 5.33398 10 2.00098s6.33398 -7 5.00098 -11c-22 -62.667 -43.167 -104.167 -63.5 -124.5s-44.166 -30.5 -71.499 -30.5c-34 0 -72 10 -114 30l-146 74l-66 -36c-31.333 -15.333 -56 -23 -74 -23c-13.333 0 -20 6 -20 18
c0 14.667 11.333 26.334 34 35.001c4 1.33301 47 10.333 129 27c25.333 17.333 48 38.333 68 63c24 29.333 43 62.333 57 99c35.333 96.667 59 159 71 187c30 70 70 129 120 177c-13.333 4 -35.666 8.33301 -66.999 13s-54.333 7 -69 7c-96 0 -179 -36.667 -249 -110
c-62.667 -65.333 -94 -132.666 -94 -201.999c0 -21.333 6.33301 -39.333 19 -54s30.667 -22 54 -22c40 0 80 24.667 120 74c37.333 46 56 86 56 120c0 22 -5.66699 38.667 -17 50c-2 2 -1.66699 4.5 1 7.5s5.33398 3.5 8.00098 1.5c15.333 -10.667 26 -22 32 -34
s9 -25.333 9 -40c0 -59.333 -24.333 -108.333 -73 -147c-40 -32 -81 -48 -123 -48c-34.667 0 -62.667 10 -84 30c-26 24 -39 59.667 -39 107c0 62.667 26.667 121.334 80 176.001c69.333 71.333 165.666 107 288.999 107c34 0 66 -2.33301 96 -7
c18 -2.66699 41 -7.66699 69 -15c24.667 17.333 48 30.333 70 39c34 14 68.333 21 103 21c18 0 35.333 -4.16699 52 -12.5s25 -20.166 25 -35.499c0 -14 -2.66699 -24.833 -8 -32.5s-15.333 -11.5 -30 -11.5c-13.333 0 -22.333 3.16699 -27 9.5s-7 13.5 -7 21.5
c0 3.33301 1.33301 8 4 14s4 10.333 4 13c0 5.33301 -4.66699 9.66602 -14 12.999s-19.666 5 -30.999 5c-18.667 0 -37.667 -4.5 -57 -13.5s-37.666 -22.5 -54.999 -40.5c32.667 -10.667 60 -24.667 82 -42c39.333 -31.333 59 -70.333 59 -117s-18.333 -85.167 -55 -115.5
s-80.667 -45.5 -132 -45.5c-13.333 0 -25.333 1.33301 -36 4c-17.333 4.66699 -33.666 12.334 -48.999 23.001c-2 1.33301 -1.5 3.5 1.5 6.5s5.5 3.83301 7.5 2.5c8.66699 -4.66699 19 -9.16699 31 -13.5s22.667 -6.5 32 -6.5c32 0 62.333 15.333 91 46c32 34 48 75 48 123
c0 25.333 -9.16699 49.333 -27.5 72s-39.166 38 -62.499 46z" />
    <glyph glyph-name="Q" unicode="Q" horiz-adv-x="585" 
d="M604 482c0 -46.667 -9.5 -97.333 -28.5 -152s-45.833 -108.667 -80.5 -162c-37.333 -58 -76.666 -102 -117.999 -132c-46 -33.333 -95.333 -50 -148 -50c-58.667 0 -105.834 18.833 -141.501 56.5s-53.5 85.167 -53.5 142.5c0 62 20.667 125.333 62 190
c30.667 48 64.667 86 102 114c58.667 43.333 119.667 68 183 74c21.333 20.667 41.666 36 60.999 46c23.333 12.667 47.333 19 72 19c28.667 0 50.834 -14 66.501 -42s23.5 -62.667 23.5 -104zM562 532.001c0 24 -4.50098 43.333 -13.501 58s-22.167 22 -39.5 22
c-30.667 0 -65.334 -20.333 -104.001 -61c-32 -33.333 -64 -77.666 -96 -132.999c-27.333 -45.333 -49 -88 -65 -128s-24 -73 -24 -99c0 -28.667 12 -50 36 -64c-0.666992 -2.66699 -1 -5 -1 -7c-4 -4 -7.33301 -5.33301 -10 -4c-22 10.667 -39 28.334 -51 53.001
c-9.33301 19.333 -14 37.666 -14 54.999c0 56.667 24.667 120.667 74 192c24.667 35.333 61.334 79 110.001 131c-37.333 -10 -77 -37.667 -119 -83c-33.333 -36 -58 -70.333 -74 -103c-22 -45.333 -39.667 -89.833 -53 -133.5s-20 -75.834 -20 -96.501
c0 -36 11.167 -66.5 33.5 -91.5s51.833 -37.5 88.5 -37.5c44.667 0 87 21.333 127 64c30.667 32.667 62.334 80.667 95.001 144c37.333 74 67.333 142.667 90 206c20 56 30 94.667 30 116zM-0.000976562 -114.999c0 22 11.999 43.001 35.999 63.001
c30 25.333 68.333 38 115 38c32.667 0 81.667 -14.333 147 -43s108.333 -43 129 -43c27.333 0 49.333 13 66 39c8 12 17.667 34.333 29 67c1.33301 2.66699 4.5 3 9.5 1s7.16699 -4.33301 6.5 -7c-6.66699 -30.667 -20 -61 -40 -91c-29.333 -44 -64.333 -66 -105 -66
c-27.333 0 -77 19.833 -149 59.5s-118.333 59.5 -139 59.5c-12.667 0 -26.5 -5 -41.5 -15s-22.5 -20 -22.5 -30c0 -5.33301 6.5 -9.33301 19.5 -12s19.5 -10.334 19.5 -23.001c0 -12 -4.16699 -21.5 -12.5 -28.5s-18.166 -10.5 -29.499 -10.5c-25.333 0 -38 14 -38 42z" />
    <glyph glyph-name="R" unicode="R" horiz-adv-x="900" 
d="M741 605c34.667 -10.667 63.3301 -26.0039 85.9971 -46.0039c32.667 -29.333 49 -65.333 49 -108c0 -46.667 -14.333 -83 -43 -109c-35.333 -32 -91 -48 -167 -48c38.667 -16 63.334 -30.667 74.001 -44c14.667 -18 22 -49 22 -93v-22
c0 -36.667 1.66699 -64.334 5 -83.001c6 -33.333 17.333 -50 34 -50c20.667 0 37.667 18.667 51 56c5.33301 16 11 32 17 48c1.33301 3.33301 4 3.66602 8 0.999023s5.33301 -6.66699 4 -12c-12.667 -41.333 -23.334 -68 -32.001 -80c-14 -19.333 -30.667 -29 -50 -29
c-41.333 0 -70.333 17.667 -87 53c-12.667 26.667 -19 64.334 -19 113.001c0 21.333 -1.16699 40.666 -3.5 57.999s-5.16602 32.333 -8.49902 45s-8.83301 21.834 -16.5 27.501s-16.834 8.5 -27.501 8.5h-39c-2.66699 0 -3.5 3.5 -2.5 10.5s4.16699 10.5 9.5 10.5
s14.833 -0.833008 28.5 -2.5s23.5 -2.5 29.5 -2.5c41.333 0 77 19 107 57c26.667 34 40 69.667 40 107c0 36.667 -9 65.667 -27 87c-13.333 16 -31.333 27.667 -54 35c-27.333 -31.333 -54 -74.333 -80 -129c-20.667 -43.333 -39.167 -89.833 -55.5 -139.5
s-26.166 -79.167 -29.499 -88.5c-10.667 -28 -22.334 -54.333 -35.001 -79c-33.333 -64 -82 -110.333 -146 -139c-48 -21.333 -103.333 -32 -166 -32c-52 0 -95.667 10.333 -131 31c-44 26 -66 64 -66 114c0 21.333 6.33301 39 19 53s28.667 21 48 21
c11.333 0 22.166 -4.16699 32.499 -12.5s15.5 -18.166 15.5 -29.499c0 -10.667 -4 -20.334 -12 -29.001s-17.333 -13 -28 -13c-6 0 -12 4.66699 -18 14c-3.33301 4.66699 -6.66602 7 -9.99902 7c-6.66699 0 -11.334 -2.5 -14.001 -7.5s-4 -14.167 -4 -27.5
c0 -22 12 -43.333 36 -64c32 -27.333 76 -41 132 -41c30.667 0 49.667 0.333008 57 1c28 2.66699 52.667 11 74 25c32 20.667 60.667 50 86 88c19.333 29.333 40 70 62 122c18.667 45.333 37.334 91 56.001 137c16.667 36 38.667 74 66 114s55.666 77 84.999 111
c-21.333 4.66699 -38.166 7.83398 -50.499 9.50098s-26.5 2.5 -42.5 2.5c-84 0 -162.667 -24 -236 -72c-84.667 -55.333 -127 -124.666 -127 -207.999c0 -13.333 6 -26.333 18 -39c15.333 -16.667 35.333 -25 60 -25c34.667 0 71 18 109 54s57 73 57 111
c0 11.333 -4.33301 25.666 -13 42.999c-1.33301 2.66699 -0.666016 4.16699 2.00098 4.5s4.33398 0.5 5.00098 0.5c9.33301 -7.33301 16.833 -17.166 22.5 -29.499s8.5 -27.166 8.5 -44.499c0 -32.667 -13.667 -64.667 -41 -96c-34.667 -40 -79.667 -60 -135 -60
c-36.667 0 -66.834 10.833 -90.501 32.5s-35.5 49.834 -35.5 84.501c0 68.667 36.833 129.167 110.5 181.5s159.834 78.5 258.501 78.5c26.667 0 49.667 -1 69 -3s40.666 -6.33301 63.999 -13c16.667 14.667 35.667 26.334 57 35.001c30.667 12.667 64.334 19 101.001 19
c16.667 0 33.667 -4.33301 51 -13s26 -20.334 26 -35.001c0 -12.667 -2.66699 -22.334 -8 -29.001s-15.333 -10 -30 -10c-12 0 -20.667 3.33301 -26 10s-8 14.334 -8 23.001c5.33301 8.66699 8 16 8 22c0 5.33301 -4.66699 9.33301 -14 12s-19.666 4 -30.999 4
c-14 0 -30.667 -4.16699 -50 -12.5s-36.333 -19.166 -51 -32.499z" />
    <glyph glyph-name="S" unicode="S" horiz-adv-x="622" 
d="M671 488c0 -21.333 -6.33105 -40.6729 -18.998 -58.0059s-29 -26 -49 -26c-14 0 -26.333 4.33301 -37 13s-16 20.334 -16 35.001c0 11.333 3.16699 20.5 9.5 27.5s14.833 10.5 25.5 10.5c8.66699 0 16.167 -2.83301 22.5 -8.5s10.166 -8.5 11.499 -8.5
c7.33301 0 12.166 1.5 14.499 4.5s3.5 7.83301 3.5 14.5v11c0 30.667 -14.667 56.5 -44 77.5s-69.666 31.5 -120.999 31.5c-49.333 0 -91.666 -11.333 -126.999 -34c-39.333 -25.333 -59 -58.666 -59 -99.999c0 -38 26.667 -74.667 80 -110
c49.333 -30.667 98.666 -61 147.999 -91c54 -40.667 81 -86 81 -136c0 -73.333 -34 -133.333 -102 -180c-64 -44 -140 -66 -228 -66c-68 0 -125.333 13 -172 39c-55.333 30.667 -83 74 -83 130c0 55.333 26.333 101 79 137c48.667 33.333 106.334 50 173.001 50
c41.333 0 77.666 -8 108.999 -24c38.667 -20 58 -47 58 -81c0 -34.667 -15.333 -64.667 -46 -90s-67.334 -38 -110.001 -38c-20.667 0 -37.167 3 -49.5 9s-26.833 17.333 -43.5 34c-2 2.66699 -1.5 6.33398 1.5 11.001s5.83301 5.33398 8.5 2.00098
c22 -26.667 48.333 -40 79 -40c32 0 59 10.333 81 31s33 45.334 33 74.001c0 22.667 -9 43.334 -27 62.001c-23.333 24 -55.666 36 -96.999 36c-52.667 0 -98.334 -14.667 -137.001 -44c-42 -32 -63 -72.333 -63 -121c0 -40 17.333 -75.333 52 -106
c42 -36.667 98.667 -55 170 -55c65.333 0 123.333 17.667 174 53c55.333 38.667 83 87 83 145c0 50.667 -27 94 -81 130c-50.667 28 -101 56 -151 84c-54 36 -81 79 -81 129c0 46.667 22.333 87 67 121c48 36.667 109 55 183 55c53.333 0 98 -11.333 134 -34
c41.333 -26 62 -61.333 62 -106z" />
    <glyph glyph-name="T" unicode="T" horiz-adv-x="727" 
d="M800 536c-29.333 4 -81.832 10.168 -157.499 18.501s-118.834 12.5 -129.501 12.5c-42 0 -77.333 -6 -106 -18c-36.667 -15.333 -53.667 -38.333 -51 -69c0.666992 -3.33301 -1.83301 -5.16602 -7.5 -5.49902s-9 3.16699 -10 10.5s-1.5 15 -1.5 23
c0 42 16.333 72.5 49 91.5s79.334 28.5 140.001 28.5c36 0 101 -5 195 -15s159.667 -15 197 -15c23.333 0 43.333 7 60 21c6 5.33301 18.667 20.333 38 45l4 2c4 0 7 -2 9 -6s2.33301 -7.33301 1 -10c-4 -11.333 -7.33301 -21.333 -10 -30c-5.33301 -16 -11 -28.667 -17 -38
c-12.667 -20 -33 -33.333 -61 -40c-16.667 -4 -41.667 -6 -75 -6l-38 2c2 -2 4.16699 -4 6.5 -6s2.16602 -4 -0.500977 -6c-10.667 -2.66699 -19 -5 -25 -7c-39.333 -15.333 -71.333 -39.5 -96 -72.5s-50 -82.167 -76 -147.5c-36 -89.333 -67.333 -156 -94 -200
c-34.667 -56.667 -73.667 -98.5 -117 -125.5s-98 -40.5 -164 -40.5c-75.333 0 -134.333 23.667 -177 71c-37.333 42 -56 94 -56 156c0 81.333 34 152 102 212c62 54.667 127.667 82 197 82c40.667 0 72.5 -11.833 95.5 -35.5s34.5 -54.5 34.5 -92.5
c0 -58.667 -28.333 -111 -85 -157c-48.667 -39.333 -91.334 -59 -128.001 -59c-26.667 0 -47 4.33301 -61 13c-19.333 12 -29 31.667 -29 59c0 12.667 3.66699 24.667 11 36c0.666992 1.33301 2.33398 1.16602 5.00098 -0.500977s3.66699 -3.16699 3 -4.5
c-4 -11.333 -6 -23 -6 -35c0 -16 5.33301 -28.333 16 -37s26 -13 46 -13c30.667 0 67.334 19.667 110.001 59c53.333 49.333 80 107.666 80 174.999c0 26 -7.33301 45.333 -22 58s-33 19 -55 19c-20 0 -50.333 -12.667 -91 -38c-50 -31.333 -90.333 -68.333 -121 -111
c-40 -56 -60 -115.667 -60 -179c0 -52 18.333 -92 55 -120c32.667 -25.333 74.667 -38 126 -38c28 0 55 5.66699 81 17c37.333 16.667 71.833 44.5 103.5 83.5s62.167 88.167 91.5 147.5c22.667 47.333 45.667 94.666 69 141.999c27.333 51.333 56.666 92 87.999 122
c18 15.333 35 28.333 51 39c19.333 12.667 40.333 23.334 63 32.001z" />
    <glyph glyph-name="U" unicode="U" horiz-adv-x="870" 
d="M802 550l61.0029 0.00390625l-150 -300c-11.333 -22.667 -20.833 -52.834 -28.5 -90.501s-11.5 -70.834 -11.5 -99.501c0 -15.333 3.66699 -28.833 11 -40.5s17.666 -17.5 30.999 -17.5c18.667 0 38.5 14.833 59.5 44.5s41.833 71.5 62.5 125.5
c1.33301 4 4.16602 4.5 8.49902 1.5s5.83301 -7.5 4.5 -13.5c-11.333 -44 -31.333 -85.667 -60 -125c-24 -32.667 -47.667 -49 -71 -49c-32.667 0 -55.834 12.167 -69.501 36.5s-20.5 58.833 -20.5 103.5c0 36 12.667 81 38 135l-2 3
c-30.667 -43.333 -61 -86.666 -91 -129.999c-35.333 -46.667 -68.333 -81.667 -99 -105c-38 -28.667 -77.333 -43 -118 -43c-34.667 0 -62.667 15 -84 45c-18.667 26.667 -28 57.334 -28 92.001c0 48 14.333 94.667 43 140c23.333 36.667 58.666 75.667 105.999 117
s94.666 82 141.999 122c-20.667 -4.66699 -39.5 -8 -56.5 -10s-37.5 -3 -61.5 -3c-10.667 0 -28.334 0.833008 -53.001 2.5s-42 2.5 -52 2.5c-54.667 0 -106.167 -15.5 -154.5 -46.5s-72.5 -67.5 -72.5 -109.5c0 -34.667 9.16699 -60 27.5 -76s51.5 -24 99.5 -24
c2.66699 0 3.83398 -3 3.50098 -9s-3.83301 -9 -10.5 -9c-45.333 0 -81.666 12 -108.999 36c-24.667 21.333 -37 46.666 -37 75.999c0 56.667 29.667 107.167 89 151.5s121 66.5 185 66.5c24 0 51 -2.66699 81 -8c75.333 -13.333 116.666 -20 123.999 -20
c6.66699 0 11.667 0.333008 15 1c28.667 23.333 49 39.666 61 48.999c20.667 16 39 24 55 24c12.667 0 19 -4.33301 19 -13c0 -19.333 -17 -35 -51 -47c-47.333 -16.667 -75 -28.334 -83 -35.001c-27.333 -26 -69.666 -74 -126.999 -144c-40 -48.667 -72 -101.667 -96 -159
c-19.333 -46 -29 -87 -29 -123c0 -22 7.33301 -39.667 22 -53s32.334 -20 53.001 -20c40 0 92.667 38.667 158 116c51.333 61.333 96.333 126.666 135 195.999z" />
    <glyph glyph-name="V" unicode="V" horiz-adv-x="750" 
d="M349 19c28.667 9.33301 61.6631 31.3359 98.9961 66.0029c44 40.667 96 101 156 181c38 51.333 74.333 95.666 109 132.999s71.667 72.666 111 105.999c-9.33301 3.33301 -20 5.66602 -32 6.99902s-24 2 -36 2c-14.667 0 -30.334 -5.33301 -47.001 -16s-39 -30 -67 -58
c-3.33301 -2.66699 -6.33301 -0.833984 -9 5.49902s-2.66699 10.833 0 13.5c30 42.667 52.667 70.334 68 83.001c25.333 21.333 56.666 32 93.999 32c10.667 0 23.834 -1.33301 39.501 -4s27.834 -4.66699 36.501 -6l42 40c20 16 39.667 24 59 24
c10.667 0 18.167 -1.33301 22.5 -4s6.5 -8.66699 6.5 -18c0 -32.667 -13.167 -59 -39.5 -79s-56.5 -30 -90.5 -30c-9.33301 0 -18 1 -26 3c-37.333 -31.333 -65 -56 -83 -74c-30 -29.333 -61 -64.333 -93 -105c-56.667 -76 -103.334 -134.667 -140.001 -176
c-32.667 -36.667 -64 -67.667 -94 -93c-14.667 -12.667 -30.334 -23.334 -47.001 -32.001s-36.334 -16.667 -59.001 -24c-3.33301 -1.33301 -9.83301 -3.33301 -19.5 -6s-15.834 -4 -18.501 -4c-2 0 -3.66699 1.16699 -5 3.5s-1 3.83301 1 4.5
c5.33301 2 10.333 4.33301 15 7s9.33398 6 14.001 10c18.667 15.333 36 40 52 74c18.667 39.333 41.334 106 68.001 200c24 82.667 49.667 146.667 77 192c24.667 41.333 60.334 82.333 107.001 123c-23.333 4 -53.5 7 -90.5 9s-69.833 3 -98.5 3
c-77.333 0 -151.333 -22 -222 -66c-75.333 -46.667 -113 -99.667 -113 -159c0 -22 8.83301 -40.833 26.5 -56.5s38.5 -23.5 62.5 -23.5c48.667 0 96 22.333 142 67c43.333 42 65 80.333 65 115c0 12 -0.666992 19.333 -2 22s-5.33301 7.66699 -12 15
c-1.33301 1.33301 -0.666016 3 2.00098 5s5 2.33301 7 1c9.33301 -5.33301 16 -11 20 -17c8 -11.333 12 -26 12 -44c0 -48 -23.167 -90 -69.5 -126s-96.166 -54 -149.499 -54c-41.333 0 -74.833 13.5 -100.5 40.5s-38.5 60.5 -38.5 100.5c0 70 39.333 123 118 159
c54 24.667 111 37 171 37c44 0 93.167 -1 147.5 -3s99.833 -5.33301 136.5 -10l56 34c20.667 11.333 37.667 17 51 17c12 0 18 -4.33301 18 -13c0 -14 -11.167 -24.167 -33.5 -30.5s-44.833 -12.5 -67.5 -18.5c-8 -5.33301 -17.667 -14.666 -29 -27.999
s-21.666 -28.333 -30.999 -45c-16.667 -30 -43.667 -94.667 -81 -194c-17.333 -46 -35.666 -92.667 -54.999 -140c-16 -38.667 -31.333 -69.667 -46 -93c-17.333 -28.667 -39.666 -57 -66.999 -85zM891.996 558.003c10 -3.33301 19 -5 27 -5c16 0 31 5.16699 45 15.5
s21 20.5 21 30.5c0 8.66699 -3.33301 13 -10 13c-18 0 -34.667 -7 -50 -21c-4.66699 -4 -15.667 -15 -33 -33z" />
    <glyph glyph-name="W" unicode="W" horiz-adv-x="900" 
d="M743 584c-23.333 -23.333 -48.9912 -57.0059 -76.9912 -101.006c-8.66699 -14 -37.667 -65.333 -87 -154c-36.667 -66 -78.334 -138 -125.001 -216c-11.333 -18.667 -24 -36 -38 -52c-16.667 -18.667 -38.334 -39 -65.001 -61
c-5.33301 -4.66699 -11.333 -7.83398 -18 -9.50098s-14.667 -3.16699 -24 -4.5c-2.66699 0 -4.66699 1.66699 -6 5s-1 5.33301 1 6c7.33301 2.66699 12.833 5 16.5 7s7.5 5.66699 11.5 11c8 10.667 15.667 25.834 23 45.501s15.333 46.834 24 81.501
c5.33301 20 11.166 42.333 17.499 67s12.833 51.667 19.5 81c14 62.667 33.333 119.334 58 170.001c30 60.667 65.667 108 107 142l-82 3c-89.333 0 -175 -18 -257 -54c-98.667 -43.333 -148 -99.666 -148 -168.999c0 -21.333 8.66699 -39.666 26 -54.999s38 -23 62 -23
c48 0 94.333 21.667 139 65c42 40.667 63 78.334 63 113.001c0 12 -1.83301 20.333 -5.5 25s-6.5 8.33398 -8.5 11.001c-0.666992 1.33301 0.333008 3 3 5s4.66699 2.33301 6 1c7.33301 -4 13.666 -10 18.999 -18c8 -12 12 -26 12 -42c0 -48 -23.333 -90 -70 -126
c-43.333 -33.333 -91.333 -50 -144 -50c-40 0 -72.667 12.667 -98 38s-38 58.666 -38 99.999c0 68.667 38.667 122 116 160c56.667 28 112.667 42 168 42c25.333 0 56.666 -1 93.999 -3c87.333 -4.66699 139.666 -7 156.999 -7c34 20 57.167 33 69.5 39s23.833 9 34.5 9
c12.667 0 19 -4.33301 19 -13c0 -13.333 -10.667 -23.666 -32 -30.999c-29.333 -8 -51 -14 -65 -18c-26 -24.667 -51 -64 -75 -118c-12.667 -28.667 -28.334 -70 -47.001 -124c-27.333 -82 -45.666 -135.333 -54.999 -160c-20.667 -56.667 -43.667 -112 -69 -166
c16.667 19.333 35 43.666 55 72.999c17.333 26 34 53.333 50 82c38.667 70 77.334 140.333 116.001 211c47.333 80.667 92.666 143.667 135.999 189c17.333 17.333 35.333 33.333 54 48c3.33301 2.66699 6.83301 2.33398 10.5 -0.999023s3.83398 -6.66602 0.500977 -9.99902
c-30.667 -38 -51.667 -96.333 -63 -175c-6 -40.667 -11.667 -81.334 -17 -122.001c-15.333 -88 -32 -156 -50 -204c-6 -16 -21.333 -47.333 -46 -94l2 -2c36 40.667 67.667 81.667 95 123c3.33301 5.33301 21 34.333 53 87c38.667 64.667 74 122.667 106 174
c35.333 57.333 57 88 65 92c-9.33301 2.66699 -20.333 4.66699 -33 6s-23.667 2 -33 2c-14.667 0 -30.834 -5.66699 -48.501 -17s-39.5 -30 -65.5 -56c-2.66699 1.33301 -5 3 -7 5c-2.66699 6 -3 10.667 -1 14c30 42 52.667 69.333 68 82c24.667 20.667 54.667 31 90 31
c11.333 0 23.333 -1.16699 36 -3.5s25.667 -4.5 39 -6.5c13.333 13.333 27 26.666 41 39.999c19.333 16 38.666 24 57.999 24c18 0 27 -7.66699 27 -23c0 -32 -13.333 -58.333 -40 -79c-24 -18.667 -52.667 -28 -86 -28l-26 3c-25.333 -35.333 -49.333 -73 -72 -113
c-34.667 -60.667 -56.334 -98 -65.001 -112c-30.667 -49.333 -71 -107.333 -121 -174c-10.667 -14.667 -24.334 -30 -41.001 -46c-18.667 -18.667 -39.667 -36.334 -63 -53.001c-6.66699 -4.66699 -11.334 -8 -14.001 -10c-6 -4.66699 -9.66699 -7 -11 -7l-9 9
c1.33301 2 2.33301 3.33301 3 4c5.33301 8 8.33301 13 9 15c14.667 24.667 27.334 58.834 38.001 102.501s20.5 102.834 29.5 177.501s24.167 138.667 45.5 192c10 24 27.667 56.667 53 98zM1005.01 555.994c12 -3.33301 21.332 -4.99805 27.999 -4.99805
c16 0 30.667 5.16699 44 15.5s20 20.166 20 29.499c0 10.667 -3.33301 16 -10 16c-11.333 0 -21.666 -3 -30.999 -9c-4.66699 -2.66699 -21.667 -18.334 -51 -47.001z" />
    <glyph glyph-name="X" unicode="X" horiz-adv-x="952" 
d="M545 316l-53.999 -0.00683594v20h64c14.667 30 27 62.5 37 97.5s15 64.833 15 89.5c0 29.333 -8.16699 51.5 -24.5 66.5s-37.5 22.5 -63.5 22.5c-55.333 0 -109.666 -23.667 -162.999 -71c-63.333 -56.667 -95 -127 -95 -211c0 -17.333 6 -31.833 18 -43.5
s28.333 -17.5 49 -17.5c28 0 59.333 15.667 94 47c46 41.333 69 94.666 69 159.999c0 16 -4.33301 28.333 -13 37c-1.33301 2 -0.333008 4 3 6s6 2.66699 8 2c9.33301 -3.33301 17.166 -11.166 23.499 -23.499s9.5 -25.5 9.5 -39.5c0 -57.333 -25 -107.333 -75 -150
c-42.667 -36.667 -82.334 -55 -119.001 -55c-28 0 -52.333 10 -73 30c-22.667 22 -34 49.667 -34 83c0 54.667 29 110.667 87 168c63.333 62.667 133 94 209 94c38 0 66.667 -8.33301 86 -25c23.333 -20 35 -52.333 35 -97c0 -28.667 -6.66699 -67.334 -20 -116.001
c26 43.333 51 79.333 75 108c34 40.667 68.667 71.334 104 92.001c43.333 25.333 90.666 38 141.999 38c20 0 39.833 -6.5 59.5 -19.5s29.5 -30.167 29.5 -51.5c0 -20 -5.66699 -34.667 -17 -44c-8.66699 -7.33301 -19.667 -11 -33 -11c-10 0 -18.333 3.33301 -25 10
s-10 15.334 -10 26.001c0 12.667 7.5 20.334 22.5 23.001s22.5 8 22.5 16c0 23.333 -18.667 35 -56 35c-18 0 -34.333 -1.66699 -49 -5c-32.667 -7.33301 -64.334 -22 -95.001 -44c-26.667 -19.333 -53.334 -47.666 -80.001 -84.999c-28.667 -40.667 -54.667 -88 -78 -142
h80v-20h-88c-19.333 -41.333 -33.5 -78.5 -42.5 -111.5s-13.5 -60.833 -13.5 -83.5c0 -34 9.5 -62.333 28.5 -85s44.833 -34 77.5 -34c48 0 95.167 33 141.5 99s69.5 131 69.5 195c0 23.333 -5.66699 39.333 -17 48c-7.33301 5.33301 -17.666 8 -30.999 8
c-24 0 -56 -24.333 -96 -73c-46 -56 -69 -112.333 -69 -169c0 -7.33301 2 -16.166 6 -26.499s7.66699 -17.5 11 -21.5c0.666992 -1.33301 -0.333008 -2.66602 -3 -3.99902s-5 -1 -7 1c-26 22.667 -39 50 -39 82c0 16.667 6.66699 40 20 70
c17.333 39.333 40.333 73.333 69 102c12.667 13.333 31.334 25.833 56.001 37.5s43.667 17.5 57 17.5c23.333 0 43.5 -10.5 60.5 -31.5s25.5 -48.5 25.5 -82.5c0 -53.333 -21 -108.333 -63 -165c-51.333 -68.667 -114.666 -103 -189.999 -103c-48.667 0 -84 20 -106 60
c-16.667 30 -25 67.667 -25 113c0 16.667 1 31 3 43l-3 1c-42.667 -65.333 -88.334 -116 -137.001 -152c-58.667 -43.333 -121.667 -65 -189 -65c-51.333 0 -95.666 11.667 -132.999 35c-42 26.667 -63 61.667 -63 105c0 28 9.16699 53.167 27.5 75.5s39.833 33.5 64.5 33.5
c16.667 0 29.5 -4.5 38.5 -13.5s13.5 -19.5 13.5 -31.5s-4.16699 -21.5 -12.5 -28.5s-18.5 -10.5 -30.5 -10.5c-20 0 -30 6.66699 -30 20c0 4 1 8.33301 3 13s3 7.33398 3 8.00098c0 2.66699 -2.66699 5.33398 -8 8.00098c-8 0 -17.667 -6.66699 -29 -20
c-13.333 -16 -20 -33.667 -20 -53c0 -35.333 16.167 -65 48.5 -89s73.833 -36 124.5 -36c72.667 0 140.667 33.333 204 100c53.333 56 96 127.333 128 214z" />
    <glyph glyph-name="Y" unicode="Y" horiz-adv-x="877" 
d="M600 -7c18.667 24.667 40.332 59.3359 64.999 104.003c37.333 68 66.333 119.333 87 154c48.667 82.667 104.667 170.667 168 264c-21.333 0 -50 4 -86 12s-65 12 -87 12c-46.667 0 -78.334 -14 -95.001 -42c-4.66699 -9.33301 -9 -18.666 -13 -27.999h-8l-2 12
c0 22 19.333 48.667 58 80c28.667 23.333 61.334 35 98.001 35c24 0 60.333 -5 109 -15c26 -5.33301 46.667 -8 62 -8c24 26 46.667 46.667 68 62c28.667 20.667 54 31 76 31c8 0 14.833 -2.5 20.5 -7.5s8.5 -11.833 8.5 -20.5c0 -50 -22.667 -84.667 -68 -104
c-29.333 -12.667 -66 -19 -110 -19c-31.333 -40.667 -111 -169 -239 -385c-56 -93.333 -98.667 -159.333 -128 -198c-49.333 -66 -99.333 -114.333 -150 -145c-61.333 -37.333 -131.333 -56 -210 -56c-65.333 0 -121.333 17 -168 51c-50.667 36.667 -76 84 -76 142
c0 70 28.667 133 86 189c64 62.667 145.333 94 244 94c46.667 0 87.834 -11.833 123.501 -35.5s53.5 -55.834 53.5 -96.501c0 -40 -19.667 -79.333 -59 -118c-46.667 -46 -103.667 -69 -171 -69c-36.667 0 -69.667 9 -99 27c-33.333 20 -50 45.667 -50 77
c0 13.333 2.33301 24.666 7 33.999s14.667 20.333 30 33c2 1.33301 5 0.666016 9 -2.00098s4.66699 -5.33398 2 -8.00098c-19.333 -15.333 -29 -34.333 -29 -57c0 -19.333 9 -37 27 -53c22.667 -20.667 54 -31 94 -31c52.667 0 98.667 16 138 48s59 71.333 59 118
c0 27.333 -11.333 51.666 -34 72.999c-26 24 -60.667 36 -104 36c-72.667 0 -136.167 -23.167 -190.5 -69.5s-81.5 -104.833 -81.5 -175.5c0 -61.333 22.333 -109.666 67 -144.999c38.667 -30.667 85.667 -46 141 -46c60 0 119 19 177 57c42 27.333 76.333 59 103 95
c24 32.667 43.333 70.667 58 114c17.333 52 26 107.333 26 166c0 114.667 -29 212.834 -87 294.501s-131.333 122.5 -220 122.5c-36 0 -66.167 -11.5 -90.5 -34.5s-36.5 -52.167 -36.5 -87.5c0 -37.333 20.333 -74 61 -110c46 -40.667 100.333 -61 163 -61
c26 0 47.333 5.66699 64 17c8.66699 6 20.667 17.667 36 35c1.33301 2 3 2 5 0c4.66699 -5.33301 5.66699 -10.333 3 -15c-15.333 -26 -38.333 -44.333 -69 -55c-22.667 -8 -47.667 -12 -75 -12c-57.333 0 -107.166 18.833 -149.499 56.5s-63.5 80.5 -63.5 128.5
c0 49.333 17.667 90 53 122s83.666 48 144.999 48c78.667 0 146 -26.333 202 -79c68.667 -64.667 103 -157 103 -277c0 -68.667 -4.66699 -124 -14 -166c-4.66699 -20.667 -17 -58.334 -37 -113.001zM990.998 573.002c31.333 0 59 6.16797 83 18.501s36 27.166 36 44.499
c0 9.33301 -4.33301 14 -13 14c-16 0 -35.333 -9 -58 -27c-20 -16 -36 -32.667 -48 -50z" />
    <glyph glyph-name="Z" unicode="Z" horiz-adv-x="592" 
d="M392 276l-93.999 0.00585938v16h110c13.333 12.667 46.166 43.167 98.499 91.5s83.833 77.833 94.5 88.5c28 27.333 55 56.666 81 87.999c-63.333 8 -110.666 14 -141.999 18c-57.333 7.33301 -105 11 -143 11c-67.333 0 -128.333 -12.667 -183 -38
c-69.333 -32 -104 -77 -104 -135c0 -22 9.33301 -40.5 28 -55.5s45.667 -22.5 81 -22.5c11.333 0 27.666 3.66699 48.999 11s36.666 13.666 45.999 18.999c22 15.333 41.667 33.666 59 54.999c22.667 27.333 34 51.666 34 72.999c0 6.66699 -0.666992 11.667 -2 15
s-0.333008 6.5 3 9.5s6 3.83301 8 2.5c9.33301 -12 14 -28.667 14 -50c0 -14 -3.83301 -30 -11.5 -48s-19.834 -35.667 -36.501 -53s-37.834 -31.333 -63.501 -42s-54.834 -16 -87.501 -16c-40 0 -73.667 11.833 -101 35.5s-41 54.5 -41 92.5
c0 53.333 21.667 97.666 65 132.999s100 53 170 53c33.333 0 95.333 -8.16699 186 -24.5s153 -24.5 187 -24.5c26.667 40.667 45.334 66 56.001 76c8 7.33301 17.333 11 28 11c11.333 0 17 -5 17 -15c0 -5.33301 -12.667 -18.666 -38 -39.999
c-18.667 -16 -35 -31.333 -49 -46c-55.333 -58.667 -99.333 -105 -132 -139c-35.333 -36.667 -80 -81.334 -134 -134.001h103v-16h-119c-43.333 -40 -82.666 -74.333 -117.999 -103c-41.333 -33.333 -84.666 -64.666 -129.999 -93.999c10.667 1.33301 18.334 2 23.001 2
c28 0 53.667 -7.33301 77 -22c35.333 -22.667 79 -60.667 131 -114c63.333 -66 104.333 -106.667 123 -122c46 -38.667 86.667 -58 122 -58c26 0 47.333 8.66699 64 26s25 39 25 65c0 18.667 -6.5 34.5 -19.5 47.5s-24.833 19.5 -35.5 19.5
c-3.33301 -1.33301 -5.66602 -2.33301 -6.99902 -3c-5.33301 -3.33301 -8 -7 -8 -11c0 -3.33301 1.83301 -7.83301 5.5 -13.5s5.5 -10.5 5.5 -14.5c0 -10.667 -3.66699 -19.667 -11 -27s-16.333 -11 -27 -11c-13.333 0 -24.666 4.83301 -33.999 14.5s-14 21.834 -14 36.501
c0 15.333 6.66699 29 20 41s28.666 18 45.999 18c26 0 48.167 -9.5 66.5 -28.5s27.5 -41.5 27.5 -67.5c0 -34.667 -14.667 -64.334 -44 -89.001s-65 -37 -107 -37c-44.667 0 -87 16.333 -127 49c-22 18 -57.667 55.667 -107 113s-91 98.666 -125 123.999
c-12.667 9.33301 -27.5 17.166 -44.5 23.499s-35.833 10.833 -56.5 13.5c-24 -14 -45 -29 -63 -45c-6.66699 -6 -24 -23 -52 -51c-3.33301 -3.33301 -8.33301 -5 -15 -5c-8.66699 0 -15.834 1.16699 -21.501 3.5s-8.5 6.5 -8.5 12.5c0 22.667 11.333 41.5 34 56.5
s63.667 32.5 123 52.5c47.333 34 95.333 70.667 144 110c41.333 34 75 63.333 101 88z" />
    <glyph glyph-name="bracketleft" unicode="[" horiz-adv-x="190" 
d="M106 -79c-24.667 6.66699 -42.335 11.668 -53.002 15.001c-18 5.33301 -34.667 12 -50 20c-2 1.33301 -4.33301 4.83301 -7 10.5s-4 10.5 -4 14.5c0 22 8 58.667 24 110c14 45.333 33 96.666 57 153.999c40 95.333 86 183.333 138 264c3.33301 5.33301 8.5 9 15.5 11
s14.5 3 22.5 3h115c6.66699 0 10 -5.66699 10 -17c-3.33301 -3.33301 -5.66602 -5 -6.99902 -5c-14.667 0 -29.334 -0.166992 -44.001 -0.5s-32.667 -2.16602 -54 -5.49902c-2.66699 -0.666992 -7.16699 -4.16699 -13.5 -10.5s-11.833 -12.5 -16.5 -18.5
c-14.667 -20 -33 -52.833 -55 -98.5s-43 -94 -63 -145s-36.667 -95.833 -50 -134.5c-16 -47.333 -24 -79.333 -24 -96c0 -12.667 2.66699 -22.167 8 -28.5s12.833 -10.833 22.5 -13.5s18.334 -4.66699 26.001 -6s12.167 -2.33301 13.5 -3s2.33301 -1.66699 3 -3
c0 -2.66699 -2.33301 -6.33398 -7 -11.001c-1.33301 -1.33301 -3.66602 -3.33301 -6.99902 -6z" />
    <glyph glyph-name="backslash" unicode="\" horiz-adv-x="244" 
d="M205 -14c-3.33301 2.66699 -5 4.66699 -5 6l-131 483c-2 8.66699 2.33301 13 13 13c3.33301 -2 5 -3.66699 5 -5l134 -487c1.33301 -6.66699 -4 -10 -16 -10z" />
    <glyph glyph-name="bracketright" unicode="]" horiz-adv-x="190" 
d="M-34 -79l-114.994 -0.00292969c-6.66699 0 -10 5.66699 -10 17c3.33301 3.33301 5.66602 5 6.99902 5c23.333 0 41.5 0.5 54.5 1.5s28.833 4.5 47.5 10.5c7.33301 2.66699 16 10.334 26 23.001c14.667 20 33 52.833 55 98.5s43 94 63 145s36.667 95.833 50 134.5
c16 47.333 24 79.333 24 96c0 4 -0.333008 9.16699 -1 15.5s-3.83398 11.5 -9.50098 15.5s-13.334 7.66699 -23.001 11s-17.834 5.5 -24.501 6.5s-10.667 1.83301 -12 2.5s-2.33301 1.66699 -3 3c0 2.66699 2.33301 6.33398 7 11.001
c1.33301 1.33301 3.66602 3.33301 6.99902 6c31.333 -6.66699 65.666 -18.334 102.999 -35.001c3.33301 -2 5 -7.66699 5 -17c0 -20.667 -7.16699 -55.167 -21.5 -103.5s-31.833 -99.166 -52.5 -152.499c-33.333 -84.667 -59.833 -146.167 -79.5 -184.5
s-39.5 -70.166 -59.5 -95.499c-4 -5.33301 -9.5 -9 -16.5 -11s-14.167 -3 -21.5 -3z" />
    <glyph glyph-name="asciicircum" unicode="^" horiz-adv-x="355" 
d="M187 343l26 0.00195312c7.33301 0 12.666 -4.66699 15.999 -14c15.333 -40.667 32 -78 50 -112c12.667 -24 31 -55 55 -93c6.66699 -10 10 -17 10 -21c0 -4.66699 -4.33301 -9.33398 -13 -14.001s-16 -7 -22 -7s-11.667 5 -17 15c-22 38.667 -39 70 -51 94
s-28.667 60 -50 108c-26 -34.667 -50.333 -70.334 -73 -107.001c-15.333 -25.333 -34.666 -58.333 -57.999 -99c-2 -4 -4 -6.5 -6 -7.5s-3.33301 -1.5 -4 -1.5c-6 0 -11.667 1 -17 3s-8 4.66699 -8 8l1 5c22.667 40.667 45 77.667 67 111c12 18 40 58 84 120
c6 8 9.33301 12 10 12z" />
    <glyph glyph-name="underscore" unicode="_" horiz-adv-x="488" 
d="M0 -55h488v-24h-488v24z" />
    <glyph glyph-name="grave" unicode="`" horiz-adv-x="153" 
d="M116 337c-8.66699 0 -15.666 3.66699 -20.999 11s-8 16 -8 26c0 19.333 6.33301 38.333 19 57c15.333 22 38 40.667 68 56l4 1c4 0 7.16699 -1.33301 9.5 -4s2.16602 -5 -0.500977 -7c-10.667 -6 -21 -12 -31 -18c-14.667 -10 -22 -21 -22 -33
c0 -4.66699 5.16699 -8.5 15.5 -11.5s15.5 -10.167 15.5 -21.5c0 -14.667 -5.66699 -27.667 -17 -39s-22 -17 -32 -17z" />
    <glyph glyph-name="a" unicode="a" horiz-adv-x="362" 
d="M265 295l18.002 41h62l-115 -301c0 -20.667 6.33301 -31 19 -31c19.333 0 37.666 14 54.999 42c10 16 19 36 27 60c2 4.66699 4.66699 7 8 7c5.33301 0 7.33301 -2.66699 6 -8c-6 -24 -15.333 -46.333 -28 -67c-20 -32 -42.667 -48 -68 -48c-16 0 -28 7.5 -36 22.5
s-12 33.833 -12 56.5c0 6 0.833008 15.667 2.5 29s5.16699 28.666 10.5 45.999c-38 -56.667 -58 -86 -60 -88c-34.667 -44 -64.334 -66 -89.001 -66c-17.333 0 -30.833 8.33301 -40.5 25s-14.5 36.667 -14.5 60c0 54.667 24.667 113 74 175s95.333 93 138 93
c15.333 0 26.333 -4.66699 33 -14s10 -20.666 10 -33.999zM249.002 285c0 16 -2.16602 27.3311 -6.49902 33.998s-9.83301 10 -16.5 10c-10 0 -21 -7.66699 -33 -23c-14 -18 -40 -60.667 -78 -128c-12.667 -23.333 -26.334 -52.166 -41.001 -86.499s-22 -56.166 -22 -65.499
c0 -4 1.5 -8.66699 4.5 -14s6.5 -8 10.5 -8c11.333 0 27.666 11.333 48.999 34c24 26 47.333 56.333 70 91c18.667 31.333 34.334 63.333 47.001 96c10.667 28 16 48 16 60z" />
    <glyph glyph-name="b" unicode="b" horiz-adv-x="301" 
d="M488 620c0 -8.66699 -3.83008 -16.166 -11.4971 -22.499s-16.167 -9.5 -25.5 -9.5c-17.333 0 -26 6 -26 18c0 4 0.833008 9.66699 2.5 17s2.5 11.666 2.5 12.999c0 6 -2.83301 9.83301 -8.5 11.5s-12.5 2.5 -20.5 2.5c-26 0 -55 -14.667 -87 -44
c-38 -35.333 -71 -84 -99 -146l-99 -222c15.333 21.333 30.666 43 45.999 65c22 26.667 43.667 40 65 40s36.666 -8.66699 45.999 -26c7.33301 -14 11 -34.333 11 -61c0 -50.667 -19.667 -106.334 -59 -167.001c-42.667 -66 -87 -99 -133 -99
c-34.667 0 -57 6.83301 -67 20.5s-15 34.834 -15 63.501c0 34 12.333 84.333 37 151c18 48.667 46.333 114.667 85 198c16.667 35.333 34.334 67 53.001 95c24 36 47.167 62.833 69.5 80.5s43.166 31.5 62.499 41.5c33.333 17.333 66.666 26 99.999 26
c18 0 34.333 -4.66699 49 -14s22 -20 22 -32zM87.0029 4.00098c20 0 39.6689 15.999 59.002 47.999c10 16.667 23.333 45 40 85c14 33.333 25.5 65.333 34.5 96s13.5 53.334 13.5 68.001c0 17.333 -5 26 -15 26c-14 0 -34 -18.667 -60 -56
c-18.667 -26.667 -34.334 -52.667 -47.001 -78c-38.667 -79.333 -58 -129 -58 -149c0 -11.333 3.16699 -20.833 9.5 -28.5s14.166 -11.5 23.499 -11.5z" />
    <glyph glyph-name="c" unicode="c" horiz-adv-x="288" 
d="M278 284c0 -22 -4.33496 -40.5029 -13.002 -55.5029s-22 -22.5 -40 -22.5c-8 0 -14.833 2.5 -20.5 7.5s-8.5 11.167 -8.5 18.5c0 10 2.83301 18.5 8.5 25.5s12.834 10.5 21.501 10.5c21.333 0 32 10.667 32 32c0 7.33301 -3.33301 13.666 -10 18.999s-15 8 -25 8
c-15.333 0 -32.333 -10 -51 -30c-21.333 -23.333 -41.333 -55.333 -60 -96c-14.667 -33.333 -26.167 -63.166 -34.5 -89.499s-12.5 -47.166 -12.5 -62.499c0 -11.333 3.33301 -21 10 -29s18.334 -12 35.001 -12c25.333 0 48.333 13 69 39c8 10.667 18 26.334 30 47.001
c9.33301 17.333 15.333 28.333 18 33c0.666992 2 3 2.33301 7 1s5.66699 -3.33301 5 -6c-8 -17.333 -16.5 -33.666 -25.5 -48.999s-18.167 -29 -27.5 -41c-21.333 -28 -48.333 -42 -81 -42c-19.333 0 -38.333 7.33301 -57 22c-25.333 20 -38 48.333 -38 85
c0 22 4.16699 44.333 12.5 67s19.833 45 34.5 67c22.667 32.667 49 59.5 79 80.5s57 31.5 81 31.5c16.667 0 31 -5.66699 43 -17s18 -25.333 18 -42z" />
    <glyph glyph-name="d" unicode="d" horiz-adv-x="364" 
d="M265 295l77 184.998c18.667 54.667 51.5 99.334 98.5 134.001s100.833 52 161.5 52c20 0 37.333 -3.66699 52 -11s22 -18.666 22 -33.999c0 -10 -3.5 -18.167 -10.5 -24.5s-16.833 -9.5 -29.5 -9.5c-9.33301 0 -17.5 2.83301 -24.5 8.5s-10.5 13.167 -10.5 22.5
c0 4 1.33301 7.33301 4 10c6 6.66699 9 11 9 13c0 3.33301 -3.33301 6 -10 8s-13.667 3 -21 3c-33.333 0 -65.666 -14.167 -96.999 -42.5s-58.666 -71.5 -81.999 -129.5l-174 -445c0 -20.667 6.33301 -31 19 -31c19.333 0 37.666 14 54.999 42c10 16 19 36 27 60
c2 4.66699 4.66699 7 8 7c5.33301 0 7.33301 -2.66699 6 -8c-6 -24 -15.333 -46.333 -28 -67c-20 -32 -42.667 -48 -68 -48c-16 0 -28 7.5 -36 22.5s-12 33.833 -12 56.5c0 6 0.833008 15.667 2.5 29s5.16699 28.666 10.5 45.999c-38 -56.667 -58 -86 -60 -88
c-34.667 -44 -64.334 -66 -89.001 -66c-17.333 0 -30.833 8.33301 -40.5 25s-14.5 36.667 -14.5 60c0 54.667 24.667 113 74 175s95.333 93 138 93c15.333 0 26.333 -4.66699 33 -14s10 -20.666 10 -33.999zM249 284.998c0 16 -2.16602 27.3311 -6.49902 33.998
s-9.83301 10 -16.5 10c-10 0 -21 -7.66699 -33 -23c-14 -18 -40 -60.667 -78 -128c-12.667 -23.333 -26.334 -52.166 -41.001 -86.499s-22 -56.166 -22 -65.499c0 -4 1.5 -8.66699 4.5 -14s6.5 -8 10.5 -8c11.333 0 27.666 11.333 48.999 34c24 26 47.333 56.333 70 91
c18.667 31.333 34.334 63.333 47.001 96c10.667 28 16 48 16 60z" />
    <glyph glyph-name="e" unicode="e" horiz-adv-x="275" 
d="M276 291c0 -41.333 -17.001 -72.668 -51.001 -94.001c-27.333 -17.333 -59.666 -26 -96.999 -26l-28 2c-12 -25.333 -21.5 -48.333 -28.5 -69s-10.5 -36.334 -10.5 -47.001c0 -32.667 16.333 -49 49 -49c25.333 0 48.333 13 69 39c8 10.667 18 26.334 30 47.001
c9.33301 17.333 15.333 28.333 18 33c0.666992 2 3 2.33301 7 1s5.66699 -3.33301 5 -6c-8 -17.333 -16.5 -33.666 -25.5 -48.999s-18.167 -29 -27.5 -41c-21.333 -28 -48.333 -42 -81 -42c-29.333 0 -52.5 9.5 -69.5 28.5s-25.5 43.5 -25.5 73.5
c0 58 22.333 114.333 67 169s91.667 82 141 82c38.667 0 58 -17.333 58 -52zM222.999 306.998c0 14.667 -5 22 -15 22c-16.667 0 -36.667 -19.667 -60 -59c-5.33301 -8.66699 -19 -36 -41 -82l17 -1c34.667 0 61 16 79 48c13.333 23.333 20 47.333 20 72z" />
    <glyph glyph-name="f" unicode="f" horiz-adv-x="231" 
d="M125 322l-83.002 -0.00195312v14h89l56 144c18.667 54.667 51.5 99.334 98.5 134.001s100.833 52 161.5 52c20 0 37.333 -3.66699 52 -11s22 -18.666 22 -33.999c0 -10 -3.5 -18.167 -10.5 -24.5s-16.833 -9.5 -29.5 -9.5c-9.33301 0 -17.5 2.83301 -24.5 8.5
s-10.5 13.167 -10.5 22.5c0 4 1.33301 7.33301 4 10c6 6.66699 9 11 9 13c0 3.33301 -3.33301 6 -10 8s-13.667 3 -21 3c-33.333 0 -65.666 -14.167 -96.999 -42.5s-58.666 -71.5 -81.999 -129.5l-56 -144h80v-14h-86l-155 -396
c-21.333 -53.333 -55.833 -97.666 -103.5 -132.999s-99.834 -53 -156.501 -53c-20 0 -37.333 3.66699 -52 11s-22 18.666 -22 33.999c0 10 3.5 18.167 10.5 24.5s16.833 9.5 29.5 9.5c9.33301 0 17.5 -2.83301 24.5 -8.5s10.5 -13.167 10.5 -22.5
c0 -4 -1.33301 -7.33301 -4 -10c-6 -6.66699 -9 -11 -9 -13c0 -3.33301 3.33301 -6 10 -8s13.667 -3 21 -3c31.333 0 63.833 16.333 97.5 49s60.834 73.667 81.501 123z" />
    <glyph glyph-name="g" unicode="g" horiz-adv-x="340" 
d="M269 295l11.001 27c3.33301 9.33301 9 14 17 14h76c3.33301 0 4.33301 -2.33301 3 -7s-4.33301 -7 -9 -7c-14.667 0 -24.667 -6.33301 -30 -19l-155 -382c-20.667 -52 -47.334 -91.667 -80.001 -119c-44.667 -37.333 -102.667 -56 -174 -56c-40.667 0 -72 10 -94 30
c-18.667 16.667 -28 36 -28 58c0 10.667 5 22.334 15 35.001c12.667 15.333 27 23 43 23c10 0 19.5 -3.33301 28.5 -10s13.5 -16.334 13.5 -29.001c0 -24 -9.33301 -36 -28 -36c-5.33301 0 -10.666 1.16699 -15.999 3.5s-10.333 4.16602 -15 5.49902
c-4 0 -6 -3.66699 -6 -11c0 -12.667 6 -24 18 -34c16.667 -14 39.667 -21 69 -21c44 0 82.667 15.333 116 46c28.667 26.667 54 65 76 115l98 223c-38 -56.667 -58 -86 -60 -88c-34.667 -44 -64.334 -66 -89.001 -66c-17.333 0 -30.833 8.33301 -40.5 25
s-14.5 36.667 -14.5 60c0 54.667 24.667 113 74 175s95.333 93 138 93c15.333 0 26.333 -4.66699 33 -14s10 -20.666 10 -33.999zM253.001 285c0 16 -2.16602 27.3311 -6.49902 33.998s-9.83301 10 -16.5 10c-10 0 -21 -7.66699 -33 -23c-14 -18 -40 -60.667 -78 -128
c-12.667 -23.333 -26.334 -52.166 -41.001 -86.499s-22 -56.166 -22 -65.499c0 -4 1.5 -8.66699 4.5 -14s6.5 -8 10.5 -8c11.333 0 27.666 11.333 48.999 34c24 26 47.333 56.333 70 91c18.667 31.333 34.334 63.333 47.001 96c10.667 28 16 48 16 60z" />
    <glyph glyph-name="h" unicode="h" horiz-adv-x="350" 
d="M52 0l-62 -0.00390625l194 480c18.667 54.667 51.5 99.334 98.5 134.001s100.833 52 161.5 52c20 0 37.333 -3.66699 52 -11s22 -18.666 22 -33.999c0 -10 -3.5 -18.167 -10.5 -24.5s-16.833 -9.5 -29.5 -9.5c-9.33301 0 -17.5 2.83301 -24.5 8.5
s-10.5 13.167 -10.5 22.5c0 4 1.33301 7.33301 4 10c6 6.66699 9 11 9 13c0 3.33301 -3.33301 6 -10 8s-13.667 3 -21 3c-33.333 0 -65.666 -14.167 -96.999 -42.5s-58.666 -71.5 -81.999 -129.5l-120 -289c27.333 43.333 51 77 71 101c28.667 34 52 51 70 51
c14 0 24.5 -8.16699 31.5 -24.5s10.5 -36.166 10.5 -59.499c0 -30.667 -8 -62 -24 -94c-20.667 -32 -41 -64 -61 -96c-2.66699 -6 -4.33398 -12 -5.00098 -18s-1 -11.333 -1 -16c0 -20.667 6.33301 -31 19 -31c19.333 0 37.666 14 54.999 42c10 16 19 36 27 60
c2 4.66699 4.66699 7 8 7c5.33301 0 7.33301 -2.66699 6 -8c-6 -24 -15.333 -46.333 -28 -67c-20 -32 -42.667 -48 -68 -48c-16 0 -28 7.5 -36 22.5s-12 33.833 -12 56.5c0 30 14.667 75 44 135s44 96.667 44 110c0 10 -4 15 -12 15c-12 0 -32 -17.667 -60 -53
s-57.667 -78.666 -89 -129.999z" />
    <glyph glyph-name="i" unicode="i" horiz-adv-x="194" 
d="M82 -10c-19.333 0 -33.168 9.83301 -41.501 29.5s-12.5 41.834 -12.5 66.501c0 28.667 14.667 69.667 44 123s44 89 44 107c0 8.66699 -3.33301 13 -10 13c-15.333 0 -34.666 -19.333 -57.999 -58c-9.33301 -16 -17.333 -31.333 -24 -46c-1.33301 -2 -4 -2 -8 0
s-5.66699 4.66699 -5 8c4 16.667 14.333 37 31 61c22.667 32.667 44.334 49 65.001 49c14.667 0 26.167 -6.83301 34.5 -20.5s12.5 -31.5 12.5 -53.5c0 -39.333 -11 -79.333 -33 -120c-14.667 -22.667 -29 -45.334 -43 -68.001c-6.66699 -12.667 -10 -27 -10 -43
c0 -22.667 4.66699 -34 14 -34c19.333 0 37.666 14 54.999 42c10 16 19 36 27 60c2 4.66699 4.66699 7 8 7c5.33301 0 7.33301 -2.66699 6 -8c-6 -24 -15.333 -46.333 -28 -67c-20 -32 -42.667 -48 -68 -48zM205.998 458c0 -14.667 -5 -29.333 -15 -44s-21 -22 -33 -22
c-8.66699 0 -14.5 3.16699 -17.5 9.5s-4.5 13.5 -4.5 21.5c0 10.667 5.33301 24.167 16 40.5s21 24.5 31 24.5c7.33301 0 13 -3 17 -9s6 -13 6 -21z" />
    <glyph glyph-name="j" unicode="j" horiz-adv-x="178" 
d="M206 458c0 -14.667 -5 -29.333 -15 -44s-21 -22 -33 -22c-8.66699 0 -14.5 3.16699 -17.5 9.5s-4.5 13.5 -4.5 21.5c0 10.667 5.33301 24.167 16 40.5s21 24.5 31 24.5c7.33301 0 13 -3 17 -9s6 -13 6 -21zM161 269.001c0 -32.667 -11.501 -82.832 -34.501 -150.499
s-50.5 -133.5 -82.5 -197.5c-27.333 -55.333 -56 -96.333 -86 -123c-38.667 -34.667 -84.667 -52 -138 -52c-28.667 0 -51.5 7.83301 -68.5 23.5s-25.5 33.5 -25.5 53.5c0 16.667 6.66699 31.667 20 45c9.33301 9.33301 20.666 14 33.999 14c10 0 19.5 -3.33301 28.5 -10
s13.5 -16.334 13.5 -29.001c0 -24 -9.33301 -36 -28 -36c-5.33301 0 -10.666 1.16699 -15.999 3.5s-10.333 4.16602 -15 5.49902c-4.66699 0 -7 -4 -7 -12c0 -9.33301 4 -17.666 12 -24.999c11.333 -10 27.666 -15 48.999 -15c33.333 0 67 19.667 101 59
c20.667 24 42 56.667 64 98s44.333 91.333 67 150c26.667 68 49 136 67 204c2 8 3.66699 15.167 5 21.5s2 12.833 2 19.5c0 8.66699 -3.33301 13 -10 13c-15.333 0 -34.666 -19.333 -57.999 -58c-9.33301 -16 -17.333 -31.333 -24 -46c-1.33301 -2 -4 -2 -8 0
s-5.66699 4.66699 -5 8c4 16.667 14.333 37 31 61c22.667 32.667 44.334 49 65.001 49c14.667 0 26.167 -6.83301 34.5 -20.5s12.5 -31.5 12.5 -53.5z" />
    <glyph glyph-name="k" unicode="k" horiz-adv-x="346" 
d="M52 0l-62.002 0.000976562l190 480c18.667 54.667 51.5 99.334 98.5 134.001s100.833 52 161.5 52c20 0 37.333 -3.66699 52 -11s22 -18.666 22 -33.999c0 -10 -3.5 -18.167 -10.5 -24.5s-16.833 -9.5 -29.5 -9.5c-9.33301 0 -17.5 2.83301 -24.5 8.5
s-10.5 13.167 -10.5 22.5c0 4 1.33301 7.33301 4 10c6 6.66699 9 11 9 13c0 3.33301 -3.33301 6 -10 8s-13.667 3 -21 3c-33.333 0 -65.666 -14.167 -96.999 -42.5s-58.666 -71.5 -81.999 -129.5l-90 -229c10 11.333 20.333 22.666 31 33.999c40 38.667 80 58 120 58
c8 0 15.833 -4 23.5 -12s11.5 -17.667 11.5 -29c0 -38 -19.667 -66 -59 -84c-20 -8.66699 -49.667 -15.667 -89 -21c18.667 -2.66699 31.5 -9.16699 38.5 -19.5s10.5 -25.833 10.5 -46.5c0 -8.66699 -0.833008 -23.834 -2.5 -45.501s-2.5 -36.834 -2.5 -45.501
c0 -9.33301 1.16699 -17 3.5 -23s7.5 -9 15.5 -9c12.667 0 26 14 40 42c14 32.667 23 53.334 27 62.001c1.33301 2.66699 4 2.66699 8 0s5.66699 -5.33398 5 -8.00098c-9.33301 -34 -20.666 -60.667 -33.999 -80c-16 -22.667 -33 -34 -51 -34
c-20.667 0 -37.834 7.83301 -51.501 23.5s-20.5 36.167 -20.5 61.5c0 11.333 0.833008 26.333 2.5 45s2.5 28.667 2.5 30c0 28 -10.333 42 -31 42h-22zM133.998 208.001h29.001c44 0 76.667 8.66699 98 26c15.333 12.667 23 27.667 23 45c0 9.33301 -2.83301 16.5 -8.5 21.5
s-11.834 7.5 -18.501 7.5c-14.667 0 -33.667 -10.333 -57 -31c-18 -16 -40 -39 -66 -69z" />
    <glyph glyph-name="l" unicode="l" horiz-adv-x="204" 
d="M87 -10c-22 0 -39.668 11.499 -53.001 34.499s-20 51.833 -20 86.5c0 22.667 8 58.667 24 108c21.333 65.333 52.666 137.333 93.999 216c33.333 62.667 68.333 112.334 105 149.001c55.333 54.667 115.333 82 180 82c22.667 0 42.5 -5.33301 59.5 -16s25.5 -24 25.5 -40
c0 -11.333 -3.5 -21.166 -10.5 -29.499s-15.833 -12.5 -26.5 -12.5c-10 0 -18.333 2.66699 -25 8s-10 12.666 -10 21.999c0 7.33301 4 13.666 12 18.999s12 10 12 14c0 4.66699 -4.16699 9.33398 -12.5 14.001s-16.833 7 -25.5 7c-29.333 0 -61.666 -16 -96.999 -48
c-51.333 -46 -100.666 -119.333 -147.999 -220c-36 -77.333 -63 -140 -81 -188c-22.667 -61.333 -34 -108 -34 -140c0 -12 2.83301 -23 8.5 -33s13.5 -15 23.5 -15c12 0 27 14.333 45 43s31.667 56.667 41 84c0.666992 2 3.16699 1.83301 7.5 -0.5
s5.83301 -5.83301 4.5 -10.5c-10 -34.667 -25.667 -66.667 -47 -96c-18.667 -25.333 -36 -38 -52 -38z" />
    <glyph glyph-name="m" unicode="m" horiz-adv-x="494" 
d="M72 0l-61.999 0.000976562l78 192c2 5.33301 7.33301 20.666 16 45.999c14 41.333 21 64 21 68c0 15.333 -4 23 -12 23c-12.667 0 -28 -14.667 -46 -44s-28.667 -52.666 -32 -69.999l-7 -3c-6 0 -8.33301 2 -7 6c3.33301 22 13.666 47 30.999 75
c20.667 33.333 40.667 50 60 50c31.333 0 47 -16.667 47 -50c0 -16 -1.16699 -32 -3.5 -48s-6.5 -33.667 -12.5 -53c35.333 62 55.666 96.667 60.999 104c22 31.333 42.333 47 61 47c16 0 27.333 -9.33301 34 -28c2 -6 4 -15.667 6 -29c0 -8.66699 -1.16699 -20 -3.5 -34
s-6.16602 -34 -11.499 -60l62 100c23.333 34 43.666 51 60.999 51c14 0 25.167 -6.83301 33.5 -20.5s12.5 -31.5 12.5 -53.5c0 -39.333 -11 -79.333 -33 -120c-14.667 -22.667 -29 -45.334 -43 -68.001c-6.66699 -12.667 -10 -27 -10 -43c0 -22.667 4.66699 -34 14 -34
c19.333 0 37.666 14 54.999 42c10 16 19 36 27 60c2 4.66699 4.66699 7 8 7c5.33301 0 7.33301 -2.66699 6 -8c-6 -24 -15.333 -46.333 -28 -67c-20 -32 -42.667 -48 -68 -48c-19.333 0 -33.166 9.83301 -41.499 29.5s-12.5 41.834 -12.5 66.501
c0 28.667 14.667 69.667 44 123s44 89 44 107c0 8.66699 -3.33301 13 -10 13c-10.667 0 -33 -27 -67 -81c-4 -6.66699 -24.667 -40.667 -62 -102l-64 -146h-62l83 211c6 16 12.833 36.167 20.5 60.5s11.5 39.166 11.5 44.499c0 8.66699 -3.66699 13 -11 13
c-8.66699 0 -23.167 -15.5 -43.5 -46.5s-44.166 -72.167 -71.499 -123.5z" />
    <glyph glyph-name="n" unicode="n" horiz-adv-x="348" 
d="M72 0l-61.998 -0.000976562l79 192c2 5.33301 7.33301 20.666 16 45.999c14 41.333 21 64 21 68c0 15.333 -4 23 -12 23c-12.667 0 -28 -14.667 -46 -44s-28.667 -52.666 -32 -69.999l-7 -3c-6 0 -8.33301 2 -7 6c3.33301 22 13.666 47 30.999 75
c20.667 33.333 40.667 50 60 50c31.333 0 47 -16.667 47 -50c0 -16 -1.16699 -32 -3.5 -48s-6.5 -33.667 -12.5 -53c31.333 54.667 51.333 88 60 100c24 34 45 51 63 51c14 0 25.167 -6.83301 33.5 -20.5s12.5 -31.5 12.5 -53.5c0 -39.333 -11 -79.333 -33 -120
c-14.667 -22.667 -29 -45.334 -43 -68.001c-6.66699 -12.667 -10 -27 -10 -43c0 -22.667 4.66699 -34 14 -34c19.333 0 37.666 14 54.999 42c10 16 19 36 27 60c2 4.66699 4.66699 7 8 7c5.33301 0 7.33301 -2.66699 6 -8c-6 -24 -15.333 -46.333 -28 -67
c-20 -32 -42.667 -48 -68 -48c-19.333 0 -33.166 9.83301 -41.499 29.5s-12.5 41.834 -12.5 66.501c0 28.667 14.667 69.667 44 123s44 89 44 107c0 8.66699 -3.33301 13 -10 13c-10.667 0 -28.334 -18.667 -53.001 -56s-48.667 -79.666 -72 -126.999z" />
    <glyph glyph-name="o" unicode="o" horiz-adv-x="325" 
d="M119 -10c-35.333 0 -62.332 10.832 -80.999 32.499s-28 48.167 -28 79.5c0 44.667 17 92.667 51 144c42.667 64.667 95.667 97 159 97c30.667 0 53.667 -8.66699 69 -26s23 -39.666 23 -66.999c0 -46 -14.667 -96.333 -44 -151
c-38.667 -72.667 -88.334 -109 -149.001 -109zM111.001 3.99902c32.667 0 66.667 44 102 132c30 74.667 45 124.667 45 150c0 12.667 -1.66699 21.667 -5 27c-6.66699 10.667 -18.667 16 -36 16c-32 0 -66 -40.333 -102 -121c-31.333 -70.667 -47 -120.667 -47 -150
c0 -16 3.33301 -29 10 -39s17.667 -15 33 -15z" />
    <glyph glyph-name="p" unicode="p" horiz-adv-x="331" 
d="M81 26l-92.999 -238.999c-1.33301 -5.33301 -2 -9.33301 -2 -12c0 -11.333 3.83301 -17.333 11.5 -18s14.5 -1.5 20.5 -2.5s12.667 -1.5 20 -1.5c2 0 3.33301 -0.666992 4 -2l2 -4c0 -8 -4.66699 -12 -14 -12c-10 0 -25 1 -45 3s-35 3 -45 3
c-13.333 0 -23.666 -0.333008 -30.999 -1c-36.667 -3.33301 -59.334 -5 -68.001 -5c-4.66699 0 -7 3 -7 9s2.33301 9 7 9c20 0 36.833 2.66699 50.5 8s22.834 14 27.501 26l164 405c2 5.33301 7.33301 20.666 16 45.999c14 41.333 21 64 21 68c0 15.333 -4 23 -12 23
c-12.667 0 -28 -14.667 -46 -44s-28.667 -52.666 -32 -69.999l-7 -3c-6 0 -8.33301 2 -7 6c3.33301 22 13.666 47 30.999 75c20.667 33.333 40.667 50 60 50c31.333 0 47 -16.667 47 -50c0 -16 -1.16699 -32 -3.5 -48s-6.5 -33.667 -12.5 -53
c28.667 53.333 47 85.666 55 96.999c24 36 46.333 54 67 54c16 0 29.833 -8.5 41.5 -25.5s17.5 -38.167 17.5 -63.5c0 -40 -16 -90 -48 -150c-40.667 -76 -87.334 -114 -140.001 -114c-14 0 -25.833 3.5 -35.5 10.5s-14.5 15.5 -14.5 25.5zM269.001 307.001
c0 4.66699 -1.5 8.83203 -4.5 12.499s-6.16699 5.5 -9.5 5.5c-9.33301 0 -22.166 -11.667 -38.499 -35s-35.833 -56 -58.5 -98l-59 -128c-4 -8 -6 -14.667 -6 -20c0 -11.333 2.66699 -20.166 8 -26.499s14.666 -9.5 27.999 -9.5c16 0 33.333 16 52 48
c14 23.333 26.667 51 38 83c18 48 30.833 85.5 38.5 112.5s11.5 45.5 11.5 55.5z" />
    <glyph glyph-name="q" unicode="q" horiz-adv-x="334" 
d="M333 310l-201 -523.002c-1.33301 -5.33301 -2 -9.66602 -2 -12.999c0 -13.333 4.66699 -20.333 14 -21l38 -3c4 0 6 -2 6 -6c0 -6 -4.66699 -9 -14 -9c-12.667 0 -29.834 0.833008 -51.501 2.5s-35.167 2.5 -40.5 2.5c-14 0 -31.833 -0.833008 -53.5 -2.5
s-35.5 -2.5 -41.5 -2.5c-4.66699 0 -7 3 -7 9s2.33301 9 7 9c20 0 36.833 2.66699 50.5 8s22.834 14 27.501 26l148 356c-20.667 -29.333 -41 -58.333 -61 -87c-35.333 -44 -65 -66 -89 -66c-17.333 0 -30.833 8.33301 -40.5 25s-14.5 36.667 -14.5 60
c0 54.667 24.667 113 74 175s95.333 93 138 93c15.333 0 26.333 -4.66699 33 -14s10 -20.666 10 -33.999l13 34c3.33301 9.33301 9 14 17 14h76c3.33301 0 4.33301 -2.33301 3 -7s-4.33301 -7 -9 -7c-14.667 0 -24.667 -6.33301 -30 -19zM247 284.998
c0 16 -2.16602 27.3311 -6.49902 33.998s-9.83301 10 -16.5 10c-10 0 -21 -7.66699 -33 -23c-14 -18 -40 -60.667 -78 -128c-12.667 -23.333 -26.334 -52.166 -41.001 -86.499s-22 -56.166 -22 -65.499c0 -4 1.5 -8.66699 4.5 -14s6.5 -8 10.5 -8
c11.333 0 27.666 11.333 48.999 34c24 26 47.333 56.333 70 91c18.667 31.333 34.334 63.333 47.001 96c10.667 28 16 48 16 60z" />
    <glyph glyph-name="r" unicode="r" horiz-adv-x="279" 
d="M10 0l72 191.999c2 5.33301 7.33301 20.666 16 45.999c14 41.333 21 64 21 68c0 15.333 -4 23 -12 23c-12.667 0 -28 -14.667 -46 -44s-28.667 -52.666 -32 -69.999l-7 -3c-6 0 -8.33301 2 -7 6c3.33301 22 13.666 47 30.999 75c20.667 33.333 40.667 50 60 50
c31.333 0 47 -16.667 47 -50c0 -16 -1.16699 -32 -3.5 -48s-6.5 -33.667 -12.5 -53c24 57.333 44.667 96.833 62 118.5s38 32.5 62 32.5c12.667 0 21.334 -3.16699 26.001 -9.5s7 -14.166 7 -23.499c0 -13.333 -4.33301 -26.5 -13 -39.5s-19.667 -19.5 -33 -19.5
c-9.33301 0 -15.333 2.5 -18 7.5s-4 12.167 -4 21.5c-4 2 -6.66699 3 -8 3c-4.66699 0 -17 -15.667 -37 -47c-22 -34.667 -38 -65 -48 -91l-61 -145h-62z" />
    <glyph glyph-name="s" unicode="s" horiz-adv-x="278" 
d="M112 -10c-26.667 0 -51.168 7.33008 -73.501 21.9971s-33.5 33.334 -33.5 56.001c0 14.667 5 27.667 15 39s21.667 17 35 17c24 0 36 -11 36 -33c0 -7.33301 -2.5 -14.5 -7.5 -21.5s-11.5 -10.5 -19.5 -10.5c-9.33301 4 -16.666 6 -21.999 6c-6 0 -9 -4.33301 -9 -13
c0 -12 6.66699 -23 20 -33s30 -15 50 -15c21.333 0 40.333 5.83301 57 17.5s25 27.167 25 46.5c0 18.667 -18.333 45.334 -55 80.001s-55 67 -55 97c0 36 16 62.667 48 80c22 12 43.333 18 64 18c29.333 0 51.666 -6.16699 66.999 -18.5s23 -28.166 23 -47.499
c0 -14 -3.83301 -25.5 -11.5 -34.5s-18.167 -13.5 -31.5 -13.5c-10 0 -17.667 2.66699 -23 8s-8 12 -8 20c0 6.66699 2.5 13.167 7.5 19.5s10.833 9.5 17.5 9.5c7.33301 -4 13 -6 17 -6c5.33301 0 8 4 8 12c0 13.333 -6.5 22.833 -19.5 28.5s-26.5 8.5 -40.5 8.5
c-19.333 0 -35.166 -6.83301 -47.499 -20.5s-18.5 -25.167 -18.5 -34.5c0 -18 17.667 -43.667 53 -77s53 -65.333 53 -96c0 -33.333 -13.333 -61.333 -40 -84c-21.333 -18 -48.333 -27 -81 -27z" />
    <glyph glyph-name="t" unicode="t" horiz-adv-x="200" 
d="M104 322h-76v14h82l59 144h62l-59 -144h73v-14h-79l-104 -233c-2.66699 -5.33301 -5 -13.666 -7 -24.999s-3 -20 -3 -26c0 -8 2.66699 -15.333 8 -22s11 -10 17 -10c14.667 0 29.167 8.66699 43.5 26s26.833 42 37.5 74c2 4.66699 4.66699 7 8 7
c5.33301 0 7.33301 -2.66699 6 -8c-6 -24 -15.333 -46.333 -28 -67c-20 -32 -42.667 -48 -68 -48c-16 0 -29.333 10.167 -40 30.5s-16 41.5 -16 63.5c0 21.333 2.66699 39.666 8 54.999z" />
    <glyph glyph-name="u" unicode="u" horiz-adv-x="339" 
d="M266 336l62.002 0.000976562l-115 -301c0 -20.667 6.33301 -31 19 -31c19.333 0 37.666 14 54.999 42c10 16 19 36 27 60c2 4.66699 4.66699 7 8 7c5.33301 0 7.33301 -2.66699 6 -8c-6 -24 -15.333 -46.333 -28 -67c-20 -32 -42.667 -48 -68 -48c-16 0 -28 7.5 -36 22.5
s-12 33.833 -12 56.5c0 17.333 2 34.333 6 51c4 12.667 6.66699 21.334 8 26.001c-25.333 -44.667 -45.333 -77.667 -60 -99c-26.667 -38 -47.667 -57 -63 -57s-27.833 7.16699 -37.5 21.5s-14.5 31.833 -14.5 52.5c0 27.333 15.333 70.666 46 129.999s46 96.666 46 111.999
s-4 23 -12 23c-14 0 -29 -13.167 -45 -39.5s-27 -51.166 -33 -74.499c-0.666992 -2.66699 -3.33398 -3.66699 -8.00098 -3s-6.66699 2.66699 -6 6c6 28 16 53.667 30 77c19.333 32 40.333 48 63 48c13.333 0 23.333 -5.66699 30 -17c9.33301 -15.333 14 -39 14 -71
c0 -30.667 -9.33301 -64.667 -28 -102c-41.333 -82.667 -62 -125 -62 -127c0 -14.667 5.33301 -22 16 -22c12 0 31 19.333 57 58c24 35.333 44.667 71.666 62 108.999z" />
    <glyph glyph-name="v" unicode="v" horiz-adv-x="294" 
d="M103 -10c-18.667 0 -35.666 6.99512 -50.999 20.9951c-20 18 -30 42.333 -30 73c0 22 15.5 59.833 46.5 113.5s46.5 89.834 46.5 108.501c0 15.333 -4 23 -12 23c-14 0 -29 -13.167 -45 -39.5s-27 -51.166 -33 -74.499c-0.666992 -2.66699 -3.33398 -3.66699 -8.00098 -3
s-6.66699 2.66699 -6 6c6 28 16 53.667 30 77c19.333 32 40.333 48 63 48c13.333 0 23.333 -5.66699 30 -17c9.33301 -15.333 14 -39 14 -71c0 -29.333 -8.33301 -59.666 -25 -90.999c-36.667 -69.333 -55 -109.666 -55 -120.999c0 -9.33301 2.66699 -17.333 8 -24
c8.66699 -10 19.667 -15 33 -15c30 0 61 28.167 93 84.5s48 106.833 48 151.5c0 10.667 -1.66699 17.167 -5 19.5s-8.66602 3.5 -15.999 3.5c-8.66699 0 -15.667 2.33301 -21 7s-8 12.667 -8 24c0 16 4.83301 28.167 14.5 36.5s19.5 12.5 29.5 12.5
c10.667 0 20.667 -4.66699 30 -14s14 -20.666 14 -33.999c0 -50.667 -17 -110.667 -51 -180c-40.667 -83.333 -85.334 -125 -134.001 -125z" />
    <glyph glyph-name="w" unicode="w" horiz-adv-x="441" 
d="M260 336l62.001 -0.00292969l-75 -182c-8 -19.333 -14.5 -40 -19.5 -62s-7.5 -38.333 -7.5 -49c0 -13.333 3.16699 -23.166 9.5 -29.499s15.166 -9.5 26.499 -9.5c30 0 61 28.167 93 84.5s48 106.833 48 151.5c0 10.667 -1.66699 17.167 -5 19.5
s-8.66602 3.5 -15.999 3.5c-8.66699 0 -15.667 2.33301 -21 7s-8 12.667 -8 24c0 16 4.83301 28.167 14.5 36.5s19.5 12.5 29.5 12.5c10.667 0 20.667 -4.66699 30 -14s14 -20.666 14 -33.999c0 -50.667 -17 -110.667 -51 -180c-40.667 -83.333 -85.334 -125 -134.001 -125
c-24 0 -40.833 7.5 -50.5 22.5s-14.5 34.833 -14.5 59.5c0 11.333 1.5 25.833 4.5 43.5s5.16699 30.167 6.5 37.5l-50 -98c-25.333 -43.333 -47.666 -65 -66.999 -65c-14.667 0 -26.667 7 -36 21c-11.333 16.667 -17 40.667 -17 72c0 27.333 9.33301 59 28 95
c40.667 78 61 120.667 61 128c0 15.333 -4 23 -12 23c-14 0 -29 -13.167 -45 -39.5s-27 -51.166 -33 -74.499c-0.666992 -2.66699 -3.33398 -3.66699 -8.00098 -3s-6.66699 2.66699 -6 6c6 28 16 53.667 30 77c19.333 32 40.333 48 63 48c13.333 0 23.333 -5.66699 30 -17
c9.33301 -15.333 14 -39 14 -71c0 -28.667 -9 -59 -27 -91c-38.667 -68.667 -58 -108.667 -58 -120s1 -20.833 3 -28.5s8.33301 -11.5 19 -11.5c8 0 21.5 14.5 40.5 43.5s39.5 68.833 61.5 119.5z" />
    <glyph glyph-name="x" unicode="x" horiz-adv-x="440" 
d="M339 178l-0.000976562 -14.001h-73c-6 -18.667 -11 -35.334 -15 -50.001c-6 -23.333 -9 -41.666 -9 -54.999c0 -22 4 -37.333 12 -46c5.33301 -6 13.333 -9 24 -9c24 0 46.333 16.667 67 50c12 18.667 22.333 41.334 31 68.001c0.666992 2.66699 3.66699 4 9 4
c4.66699 0 6.33398 -1.66699 5.00098 -5c-8 -28.667 -18.333 -53 -31 -73c-24 -38.667 -53 -58 -87 -58c-17.333 0 -30 7.16699 -38 21.5s-12 31.5 -12 51.5c0 17.333 1.66699 31.666 5 42.999c-32 -42.667 -51 -67 -57 -73c-28.667 -28.667 -59 -43 -91 -43
c-18 0 -34.333 4.33301 -49 13c-20 12 -30 29 -30 51c-0 20 5.83301 35.167 17.5 45.5s24.834 15.5 39.501 15.5c9.33301 0 17.5 -3.5 24.5 -10.5s10.5 -14.5 10.5 -22.5c0 -10 -2.66699 -18.333 -8 -25s-13 -10 -23 -10c-6 0 -11.333 3 -16 9s-9.66699 9 -15 9
c-2.66699 0 -5 -1.5 -7 -4.5s-3 -8.5 -3 -16.5c0 -10.667 5.5 -20 16.5 -28s21.167 -12 30.5 -12c19.333 0 42.333 19 69 57c19.333 27.333 38.333 61.666 57 102.999h-57v14h63c11.333 24.667 20.333 46.834 27 66.501s10 36.834 10 51.501
c0 8.66699 -2.66699 16.334 -8 23.001s-12 10 -20 10c-15.333 0 -30.333 -8.33301 -45 -25c-17.333 -19.333 -32 -44.333 -44 -75c-1.33301 -4 -4.33301 -6 -9 -6c-2 2 -3.66699 4.33301 -5 7c9.33301 24.667 21.333 46.667 36 66c23.333 31.333 47.333 47 72 47
c44 0 66 -26 66 -78c0 -12 -2 -26 -6 -42c19.333 39.333 34 64.666 44 75.999c24.667 29.333 56.667 44 96 44c12 0 22.167 -3.5 30.5 -10.5s12.5 -15.5 12.5 -25.5c0 -12 -3.33301 -22 -10 -30s-14.667 -12 -24 -12c-18.667 0 -28 8.66699 -28 26l3 21
c0 8 -3.33301 12 -10 12c-16.667 0 -34.334 -11 -53.001 -33c-21.333 -25.333 -42.333 -63 -63 -113h68z" />
    <glyph glyph-name="y" unicode="y" horiz-adv-x="322" 
d="M270 336l62.002 0.00195312l-161 -415c-28.667 -71.333 -66.334 -122 -113.001 -152c-39.333 -25.333 -86.333 -38 -141 -38c-40 0 -71.333 10.667 -94 32c-18.667 18 -28 38 -28 60c0 10.667 5 22.334 15 35.001c12.667 15.333 27 23 43 23c10 0 19.5 -3.33301 28.5 -10
s13.5 -16.334 13.5 -29.001c0 -24 -9.33301 -36 -28 -36c-5.33301 0 -10.666 1.16699 -15.999 3.5s-10.333 4.16602 -15 5.49902c-4 0 -6 -3.66699 -6 -11c0 -14 6 -26.333 18 -37c16 -14.667 39 -22 69 -22c42.667 0 81.334 18 116.001 54
c27.333 28.667 52.666 69.334 75.999 122.001l92 225c-19.333 -36 -33.333 -60.667 -42 -74c-34.667 -54.667 -61.334 -82 -80.001 -82c-15.333 0 -27.833 7.16699 -37.5 21.5s-14.5 31.833 -14.5 52.5c0 27.333 15.333 70.666 46 129.999s46 96.666 46 111.999
s-4 23 -12 23c-14 0 -29 -13.167 -45 -39.5s-27 -51.166 -33 -74.499c-0.666992 -2.66699 -3.33398 -3.66699 -8.00098 -3s-6.66699 2.66699 -6 6c6 28 16 53.667 30 77c19.333 32 40.333 48 63 48c13.333 0 23.333 -5.66699 30 -17c9.33301 -15.333 14 -39 14 -71
c0 -30.667 -9.33301 -64.667 -28 -102c-41.333 -82.667 -62 -125 -62 -127c0 -14.667 5.33301 -22 16 -22c12 0 31 19.333 57 58c24 35.333 44.667 71.666 62 108.999z" />
    <glyph glyph-name="z" unicode="z" horiz-adv-x="287" 
d="M135 144h-81v14h90l92 109c-12.667 0 -39.667 3.66699 -81 11c-13.333 2 -32.666 5.66699 -57.999 11c-19.333 0 -33.333 -6.66699 -42 -20c-6.66699 -16.667 -11.167 -27.834 -13.5 -33.501s-5.5 -8.5 -9.5 -8.5c-4.66699 0 -6.33398 2.66699 -5.00098 8
c4 20 13.333 42.667 28 68c20.667 36 42.667 54 66 54c16 0 32.667 -7 50 -21c39.333 -31.333 61.666 -47 66.999 -47c16.667 0 28.334 13.667 35.001 41s16.667 41 30 41c7.33301 0 11.5 -1.5 12.5 -4.5s1.5 -6.83301 1.5 -11.5c0 -9.33301 -3.5 -19.166 -10.5 -29.499
s-18.5 -24.5 -34.5 -42.5l-104 -125h80v-14h-90l-121 -123c17.333 0 32.666 -2.66699 45.999 -8c22 -9.33301 47.333 -28.333 76 -57c20.667 -25.333 37.667 -45.333 51 -60c24.667 -27.333 45 -41 61 -41c12 0 22.667 5 32 15s14 18.333 14 25c0 7.33301 -2.33301 11 -7 11
c-5.33301 0 -10.166 -1.5 -14.499 -4.5s-8.83301 -4.5 -13.5 -4.5c-7.33301 0 -14 2.66699 -20 8s-9 13.333 -9 24c0 8 4 16 12 24s18 12 30 12c10.667 0 21 -4.33301 31 -13s15 -20.334 15 -35.001c0 -21.333 -6.66699 -39.666 -20 -54.999c-16 -18 -38.667 -27 -68 -27
c-40.667 0 -85.5 27.5 -134.5 82.5s-80.167 82.5 -93.5 82.5c-10 0 -29.333 -15 -58 -45c-14 -14.667 -25.333 -22 -34 -22c-1.33301 0 -3.33301 1.83301 -6 5.5s-4 6.5 -4 8.5c0 15.333 12.333 29.333 37 42c34 16.667 55.333 29.667 64 39z" />
    <glyph glyph-name="braceleft" unicode="{" horiz-adv-x="302" 
d="M397 523c3.33301 0 5.83203 -0.496094 7.49902 -1.49609s1.5 -2.16699 -0.5 -3.5c-18.667 -10.667 -37.5 -23.5 -56.5 -38.5s-37.167 -33.167 -54.5 -54.5c-11.333 -14 -21.666 -30 -30.999 -48c-12.667 -24 -25.667 -54.333 -39 -91
c-6 -16.667 -16.167 -30.334 -30.5 -41.001s-28.5 -17 -42.5 -19c7.33301 -4 13.666 -10.333 18.999 -19s8 -20.334 8 -35.001s-5.33301 -31 -16 -49c-14.667 -24.667 -22.667 -39.334 -24 -44.001c-5.33301 -16.667 -8.83301 -30.834 -10.5 -42.501
s-2.5 -23.167 -2.5 -34.5c0 -22.667 4.66699 -48.667 14 -78l-7 -3l-9 2c-10.667 19.333 -18 35.333 -22 48c-7.33301 21.333 -11 45 -11 71c0 22.667 2.16699 42.5 6.5 59.5s13.5 36.167 27.5 57.5c4.66699 7.33301 8.16699 15 10.5 23s3.5 14.333 3.5 19
c0 13.333 -8 20 -24 20h-37h-14c-14.667 0 -22 1 -22 3c0 16 7.66699 24 23 24c6.66699 0 15.167 -1 25.5 -3s20.5 -4 30.5 -6c10 -1.33301 19.333 0.833984 28 6.50098s15 13.167 19 22.5c16.667 42 33.667 84 51 126c24.667 38 50.334 65.333 77.001 82
c36.667 17.333 68.667 32.666 96 45.999z" />
    <glyph glyph-name="bar" unicode="|" horiz-adv-x="164" 
d="M94 -14c-8 0 -12 2.66699 -12 8v489c0 3.33301 4 5 12 5c3.33301 0 6 -0.666992 8 -2s3.33301 -2.33301 4 -3v-489c0 -5.33301 -4 -8 -12 -8z" />
    <glyph glyph-name="braceright" unicode="}" horiz-adv-x="285" 
d="M-91 -79c-3.33301 0 -5.83203 0.495117 -7.49902 1.49512s-1.5 2.16699 0.5 3.5c18.667 10.667 37.5 23.5 56.5 38.5s37.167 33.167 54.5 54.5c10.667 13.333 20.667 29 30 47c12 24 24.667 53.667 38 89c6 16.667 16.167 30.334 30.5 41.001s28.5 17 42.5 19
c-7.33301 4 -13.666 10.333 -18.999 19s-8 20.334 -8 35.001s5.66699 31.667 17 51c15.333 26.667 23.666 41.667 24.999 45c5.33301 16.667 8.83301 30.834 10.5 42.501s2.5 23.167 2.5 34.5c0 22.667 -4.66699 48.667 -14 78l7 3l9 -2c10.667 -19.333 18 -35.333 22 -48
c7.33301 -21.333 11 -45 11 -71v-15c0 -22 -1.33301 -40.167 -4 -54.5s-9.66699 -30.166 -21 -47.499c-4.66699 -7.33301 -8.16699 -15 -10.5 -23s-3.5 -14.333 -3.5 -19c0 -13.333 8 -20 24 -20h48.5c16.333 0 24.5 -1 24.5 -3c0 -16 -7.66699 -24 -23 -24
c-6.66699 0 -15.167 1 -25.5 3s-20.5 4 -30.5 6c-10 1.33301 -19.333 -0.833984 -28 -6.50098s-15 -13.167 -19 -22.5c-9.33301 -22 -18.5 -43.667 -27.5 -65s-19.833 -41.666 -32.5 -60.999c-24.667 -38 -50.334 -65.333 -77.001 -82
c-36.667 -17.333 -68.667 -32.666 -96 -45.999z" />
    <glyph glyph-name="asciitilde" unicode="~" horiz-adv-x="607" 
d="M417 135c-27.333 0 -76.999 19.833 -148.999 59.5s-118.333 59.5 -139 59.5c-10.667 0 -23 -5.83301 -37 -17.5s-26.333 -25.167 -37 -40.5c-2.66699 -3.33301 -6.5 -3 -11.5 1s-6.5 7 -4.5 9c23.333 28.667 42.333 47 57 55c21.333 11.333 47.666 17 78.999 17
c32.667 0 81.667 -14.333 147 -43s108.333 -43 129 -43c27.333 0 49.333 13 66 39c8 12 17.667 34.333 29 67c1.33301 2.66699 4.5 3 9.5 1s7.16699 -4.33301 6.5 -7c-6.66699 -30.667 -20 -61 -40 -91c-29.333 -44 -64.333 -66 -105 -66z" />
    <glyph glyph-name="nonbreakingspace" unicode="&#xa0;" horiz-adv-x="500" 
 />
    <glyph glyph-name="exclamdown" unicode="&#xa1;" horiz-adv-x="211" 
d="M108 187l20.001 0.000976562c-24 -66 -45.333 -127.333 -64 -184c-12 -36 -24.5 -76.5 -37.5 -121.5s-24.833 -86.333 -35.5 -124s-21.667 -62.834 -33 -75.501s-25.333 -19 -42 -19c-15.333 0 -26 3.83301 -32 11.5s-9 17.5 -9 29.5c0 16 7 39 21 69
c4 8 18.333 35.333 43 82c37.333 70 61.666 116 72.999 138c30.667 60 62.667 124.667 96 194zM142.001 256.001c-7.33301 0 -13.666 3.33105 -18.999 9.99805s-8 14 -8 22c0 14.667 2.66699 26.334 8 35.001c8 13.333 21 20 39 20c20.667 0 31 -10 31 -30
c0 -11.333 -5.33301 -23.666 -16 -36.999s-22.334 -20 -35.001 -20z" />
    <glyph glyph-name="exclamdown" unicode="&#x40e;" horiz-adv-x="211" 
d="M108 187l20.001 0.000976562c-24 -66 -45.333 -127.333 -64 -184c-12 -36 -24.5 -76.5 -37.5 -121.5s-24.833 -86.333 -35.5 -124s-21.667 -62.834 -33 -75.501s-25.333 -19 -42 -19c-15.333 0 -26 3.83301 -32 11.5s-9 17.5 -9 29.5c0 16 7 39 21 69
c4 8 18.333 35.333 43 82c37.333 70 61.666 116 72.999 138c30.667 60 62.667 124.667 96 194zM142.001 256.001c-7.33301 0 -13.666 3.33105 -18.999 9.99805s-8 14 -8 22c0 14.667 2.66699 26.334 8 35.001c8 13.333 21 20 39 20c20.667 0 31 -10 31 -30
c0 -11.333 -5.33301 -23.666 -16 -36.999s-22.334 -20 -35.001 -20z" />
    <glyph glyph-name="cent" unicode="&#xa2;" horiz-adv-x="287" 
d="M31 -79c-3.33301 0 -6.66895 1.49707 -10.002 4.49707s-4.33301 5.83301 -3 8.5l37 72c-13.333 8.66699 -23.666 19.667 -30.999 33c-9.33301 16.667 -14 36 -14 58s4.16699 44.333 12.5 67s19.833 45 34.5 67c22.667 32.667 49 59.5 79 80.5s57 31.5 81 31.5l12 -1
l40 77l5 4c8 0 12 -3 12 -9l-2 -6l-37 -72c23.333 -12 35 -29 35 -51s-3.66699 -40.667 -11 -56s-18.333 -23 -33 -23c-7.33301 0 -13.833 2.5 -19.5 7.5s-8.5 11.167 -8.5 18.5c0 10 2.83301 18.5 8.5 25.5s12.834 10.5 21.501 10.5c14.667 0 22 10.667 22 32
c0 10 -7 18 -21 24l-159 -309c8 -4.66699 17.333 -7 28 -7c25.333 0 48.333 13 69 39c8 10.667 18 26.334 30 47.001c9.33301 17.333 15.333 28.333 18 33c0.666992 2 3 2.33301 7 1s5.66699 -3.33301 5 -6c-8 -17.333 -16.5 -33.666 -25.5 -48.999s-18.167 -29 -27.5 -41
c-21.333 -28 -48.333 -42 -81 -42c-9.33301 0 -20 2.33301 -32 7l-36 -71c-0.666992 -1.33301 -1.66699 -2.66602 -3 -3.99902c-1.33301 0 -2.33301 -0.333008 -3 -1zM64.9971 48.9971l2.99902 -18.001l153 296c-15.333 0 -32.666 -10.833 -51.999 -32.5
s-38.333 -52.834 -57 -93.501c-14.667 -33.333 -26.167 -63.166 -34.5 -89.499s-12.5 -47.166 -12.5 -62.499z" />
    <glyph glyph-name="cent" unicode="&#x45e;" horiz-adv-x="287" 
d="M31 -79c-3.33301 0 -6.66895 1.49707 -10.002 4.49707s-4.33301 5.83301 -3 8.5l37 72c-13.333 8.66699 -23.666 19.667 -30.999 33c-9.33301 16.667 -14 36 -14 58s4.16699 44.333 12.5 67s19.833 45 34.5 67c22.667 32.667 49 59.5 79 80.5s57 31.5 81 31.5l12 -1
l40 77l5 4c8 0 12 -3 12 -9l-2 -6l-37 -72c23.333 -12 35 -29 35 -51s-3.66699 -40.667 -11 -56s-18.333 -23 -33 -23c-7.33301 0 -13.833 2.5 -19.5 7.5s-8.5 11.167 -8.5 18.5c0 10 2.83301 18.5 8.5 25.5s12.834 10.5 21.501 10.5c14.667 0 22 10.667 22 32
c0 10 -7 18 -21 24l-159 -309c8 -4.66699 17.333 -7 28 -7c25.333 0 48.333 13 69 39c8 10.667 18 26.334 30 47.001c9.33301 17.333 15.333 28.333 18 33c0.666992 2 3 2.33301 7 1s5.66699 -3.33301 5 -6c-8 -17.333 -16.5 -33.666 -25.5 -48.999s-18.167 -29 -27.5 -41
c-21.333 -28 -48.333 -42 -81 -42c-9.33301 0 -20 2.33301 -32 7l-36 -71c-0.666992 -1.33301 -1.66699 -2.66602 -3 -3.99902c-1.33301 0 -2.33301 -0.333008 -3 -1zM64.9971 48.9971l2.99902 -18.001l153 296c-15.333 0 -32.666 -10.833 -51.999 -32.5
s-38.333 -52.834 -57 -93.501c-14.667 -33.333 -26.167 -63.166 -34.5 -89.499s-12.5 -47.166 -12.5 -62.499z" />
    <glyph glyph-name="sterling" unicode="&#xa3;" horiz-adv-x="511" 
d="M534 397c0 -29.333 -7.00195 -54.332 -21.002 -74.999s-31 -31 -51 -31c-15.333 0 -27.166 3.66699 -35.499 11s-12.5 15.666 -12.5 24.999c0 17.333 4.33301 28.833 13 34.5s20.334 8.5 35.001 8.5c19.333 0 32.166 3.16699 38.499 9.5s9.5 16.166 9.5 29.499
c0 14.667 -7 28 -21 40s-31.333 18 -52 18c-30 0 -54.5 -8.83301 -73.5 -26.5s-35.5 -44.167 -49.5 -79.5c-11.333 -28.667 -22.666 -66.667 -33.999 -114h87v-18h-91c-8.66699 -29.333 -22.334 -57 -41.001 -83c-22 -30 -52 -58.333 -90 -85c14 0 27.833 -0.666992 41.5 -2
s28.5 -4 44.5 -8c26.667 -8 47 -13.667 61 -17c42.667 -11.333 68 -17 76 -17c18.667 0 33.334 6.66699 44.001 20c6.66699 8 14.334 23.667 23.001 47l6 -2c4 -3.33301 6 -7 6 -11c0 -28.667 -9.66699 -56 -29 -82c-21.333 -29.333 -46.666 -44 -75.999 -44
c-27.333 0 -58.333 10 -93 30l-114 66c-9.33301 0 -25.666 -7.66699 -48.999 -23c-17.333 -11.333 -34.333 -21 -51 -29c-4 -2 -8.66699 -3 -14 -3c-6 0 -11 1.33301 -15 4s-6 6.33398 -6 11.001c0 10.667 26 25.334 78 44.001c29.333 10.667 49.666 22.334 60.999 35.001
c14 15.333 27.333 36.5 40 63.5s22.667 55.5 30 85.5h-89v18h91c10 45.333 22.167 84.166 36.5 116.499s32.166 58.166 53.499 77.499c33.333 31.333 76.666 47 129.999 47c27.333 0 51.333 -8.66699 72 -26s31 -39 31 -65z" />
    <glyph glyph-name="sterling" unicode="&#x408;" horiz-adv-x="511" 
d="M534 397c0 -29.333 -7.00195 -54.332 -21.002 -74.999s-31 -31 -51 -31c-15.333 0 -27.166 3.66699 -35.499 11s-12.5 15.666 -12.5 24.999c0 17.333 4.33301 28.833 13 34.5s20.334 8.5 35.001 8.5c19.333 0 32.166 3.16699 38.499 9.5s9.5 16.166 9.5 29.499
c0 14.667 -7 28 -21 40s-31.333 18 -52 18c-30 0 -54.5 -8.83301 -73.5 -26.5s-35.5 -44.167 -49.5 -79.5c-11.333 -28.667 -22.666 -66.667 -33.999 -114h87v-18h-91c-8.66699 -29.333 -22.334 -57 -41.001 -83c-22 -30 -52 -58.333 -90 -85c14 0 27.833 -0.666992 41.5 -2
s28.5 -4 44.5 -8c26.667 -8 47 -13.667 61 -17c42.667 -11.333 68 -17 76 -17c18.667 0 33.334 6.66699 44.001 20c6.66699 8 14.334 23.667 23.001 47l6 -2c4 -3.33301 6 -7 6 -11c0 -28.667 -9.66699 -56 -29 -82c-21.333 -29.333 -46.666 -44 -75.999 -44
c-27.333 0 -58.333 10 -93 30l-114 66c-9.33301 0 -25.666 -7.66699 -48.999 -23c-17.333 -11.333 -34.333 -21 -51 -29c-4 -2 -8.66699 -3 -14 -3c-6 0 -11 1.33301 -15 4s-6 6.33398 -6 11.001c0 10.667 26 25.334 78 44.001c29.333 10.667 49.666 22.334 60.999 35.001
c14 15.333 27.333 36.5 40 63.5s22.667 55.5 30 85.5h-89v18h91c10 45.333 22.167 84.166 36.5 116.499s32.166 58.166 53.499 77.499c33.333 31.333 76.666 47 129.999 47c27.333 0 51.333 -8.66699 72 -26s31 -39 31 -65z" />
    <glyph glyph-name="currency" unicode="&#xa4;" horiz-adv-x="654" 
d="M324 468c-63.333 0 -117.5 -22.5 -162.5 -67.5s-67.5 -99.167 -67.5 -162.5s22.333 -117.666 67 -162.999s99 -68 163 -68c63.333 0 117.666 22.667 162.999 68s68 99.666 68 162.999c0 62.667 -22.667 116.667 -68 162s-99.666 68 -162.999 68zM575 0l-13.9971 -13.999
l-67 67c-22.667 -21.333 -48.667 -37.833 -78 -49.5s-60 -17.5 -92 -17.5c-32.667 0 -63.334 5.66699 -92.001 17s-54.667 27.666 -78 48.999l-66 -66l-14 14l66 66c-20.667 22.667 -36.834 48.667 -48.501 78s-17.5 60.333 -17.5 93s5.66699 63.334 17 92.001
s27.666 55 48.999 79l-66 66l14 14l66 -66c22.667 20.667 48.667 36.834 78 48.501s60 17.5 92 17.5c34 0 64.833 -5.5 92.5 -16.5s53.5 -27.833 77.5 -50.5l67 67l14 -14l-67 -67c21.333 -23.333 37.833 -49.333 49.5 -78s17.5 -59.334 17.5 -92.001
s-5.83301 -63.334 -17.5 -92.001s-28.167 -54.667 -49.5 -78z" />
    <glyph glyph-name="yen" unicode="&#xa5;" horiz-adv-x="986" 
d="M611 3c12 14.667 24.333 32.333 37 53c2 3.33301 23.667 41.333 65 114h-57c-4 -34 -9.66699 -63.667 -17 -89c-4 -13.333 -13.333 -39.333 -28 -78zM659 226.999l-1 -35h68l20 35h-87zM505 226.999l-0.00195312 22h109c-11.333 97.333 -43 178.666 -95 243.999
c-54.667 68.667 -119.667 103 -195 103c-34 0 -62.667 -11 -86 -33s-35 -49.667 -35 -83c0 -36 19.333 -71.333 58 -106c44 -39.333 96 -59 156 -59c25.333 0 46 5.33301 62 16c10 6.66699 21.333 18 34 34c1.33301 2 3 2 5 0c4.66699 -5.33301 5.66699 -10.333 3 -15
c-14.667 -25.333 -36.667 -43 -66 -53c-19.333 -6.66699 -43.333 -10 -72 -10c-55.333 0 -103.333 18 -144 54s-61 77 -61 123c0 47.333 17.167 86.5 51.5 117.5s80.5 46.5 138.5 46.5c74.667 0 139.334 -27.333 194.001 -82c65.333 -65.333 98 -156.666 98 -273.999v-23h99
c19.333 33.333 42.5 70.833 69.5 112.5s59.833 90.834 98.5 147.501c-28.667 6 -57.167 10.833 -85.5 14.5s-57.833 5.5 -88.5 5.5c-38.667 0 -66.334 -9.66699 -83.001 -29c-11.333 -22 -18 -35 -20 -39h-8l-2 12c0 20.667 18.667 46 56 76c28 22.667 59.333 34 94 34
c23.333 0 52 -3.66699 86 -11s60 -11 78 -11c41.333 43.333 69 70.333 83 81c21.333 16 40 24 56 24c6.66699 0 12.834 -2.83301 18.501 -8.5s8.5 -12.5 8.5 -20.5c0 -48 -22.667 -83.667 -68 -107c-32 -16.667 -67 -25 -105 -25
c-27.333 -35.333 -81 -120.666 -161 -255.999h131v-22h-144l-20 -35h164v-22h-177l-21 -34c-58 -96.667 -98.667 -161.334 -122 -194.001c-47.333 -65.333 -95.333 -113.666 -144 -144.999c-58.667 -38 -125.667 -57 -201 -57c-62.667 0 -116.667 16.333 -162 49
c-48.667 35.333 -73 80.666 -73 135.999c0 66.667 27.667 127 83 181c62 60.667 140 91 234 91c44.667 0 84.334 -11.5 119.001 -34.5s52 -53.833 52 -92.5s-19 -76.334 -57 -113.001c-45.333 -44 -100.333 -66 -165 -66c-34.667 0 -66.334 8.66699 -95.001 26
c-32 19.333 -48 44 -48 74c0 12.667 2.33301 23.5 7 32.5s14 19.167 28 30.5c2 1.33301 4.83301 0.666016 8.5 -2.00098s4.5 -5 2.5 -7c-10 -7.33301 -17.167 -15.166 -21.5 -23.499s-6.5 -18.5 -6.5 -30.5c0 -18.667 8.66699 -36 26 -52c22 -20 52 -30 90 -30
c50.667 0 94.834 15.5 132.501 46.5s56.5 68.833 56.5 113.5c0 26.667 -10.667 50 -32 70c-24.667 23.333 -58 35 -100 35c-70.667 0 -132 -22.167 -184 -66.5s-78 -100.5 -78 -168.5c0 -59.333 21.667 -105 65 -137c36.667 -27.333 81.667 -41 135 -41
c58.667 0 115.667 17 171 51c42 26 75 55.333 99 88c22 30 40 67 54 111c16.667 52 25 105 25 159h-113v22h113l-2 35h-111zM987.998 560.999c29.333 0 55.667 8 79 24s35 33 35 51c0 8.66699 -4 13 -12 13c-15.333 0 -34.333 -11 -57 -33
c-16.667 -16.667 -31.667 -35 -45 -55z" />
    <glyph glyph-name="yen" unicode="&#x490;" horiz-adv-x="986" 
d="M611 3c12 14.667 24.333 32.333 37 53c2 3.33301 23.667 41.333 65 114h-57c-4 -34 -9.66699 -63.667 -17 -89c-4 -13.333 -13.333 -39.333 -28 -78zM659 226.999l-1 -35h68l20 35h-87zM505 226.999l-0.00195312 22h109c-11.333 97.333 -43 178.666 -95 243.999
c-54.667 68.667 -119.667 103 -195 103c-34 0 -62.667 -11 -86 -33s-35 -49.667 -35 -83c0 -36 19.333 -71.333 58 -106c44 -39.333 96 -59 156 -59c25.333 0 46 5.33301 62 16c10 6.66699 21.333 18 34 34c1.33301 2 3 2 5 0c4.66699 -5.33301 5.66699 -10.333 3 -15
c-14.667 -25.333 -36.667 -43 -66 -53c-19.333 -6.66699 -43.333 -10 -72 -10c-55.333 0 -103.333 18 -144 54s-61 77 -61 123c0 47.333 17.167 86.5 51.5 117.5s80.5 46.5 138.5 46.5c74.667 0 139.334 -27.333 194.001 -82c65.333 -65.333 98 -156.666 98 -273.999v-23h99
c19.333 33.333 42.5 70.833 69.5 112.5s59.833 90.834 98.5 147.501c-28.667 6 -57.167 10.833 -85.5 14.5s-57.833 5.5 -88.5 5.5c-38.667 0 -66.334 -9.66699 -83.001 -29c-11.333 -22 -18 -35 -20 -39h-8l-2 12c0 20.667 18.667 46 56 76c28 22.667 59.333 34 94 34
c23.333 0 52 -3.66699 86 -11s60 -11 78 -11c41.333 43.333 69 70.333 83 81c21.333 16 40 24 56 24c6.66699 0 12.834 -2.83301 18.501 -8.5s8.5 -12.5 8.5 -20.5c0 -48 -22.667 -83.667 -68 -107c-32 -16.667 -67 -25 -105 -25
c-27.333 -35.333 -81 -120.666 -161 -255.999h131v-22h-144l-20 -35h164v-22h-177l-21 -34c-58 -96.667 -98.667 -161.334 -122 -194.001c-47.333 -65.333 -95.333 -113.666 -144 -144.999c-58.667 -38 -125.667 -57 -201 -57c-62.667 0 -116.667 16.333 -162 49
c-48.667 35.333 -73 80.666 -73 135.999c0 66.667 27.667 127 83 181c62 60.667 140 91 234 91c44.667 0 84.334 -11.5 119.001 -34.5s52 -53.833 52 -92.5s-19 -76.334 -57 -113.001c-45.333 -44 -100.333 -66 -165 -66c-34.667 0 -66.334 8.66699 -95.001 26
c-32 19.333 -48 44 -48 74c0 12.667 2.33301 23.5 7 32.5s14 19.167 28 30.5c2 1.33301 4.83301 0.666016 8.5 -2.00098s4.5 -5 2.5 -7c-10 -7.33301 -17.167 -15.166 -21.5 -23.499s-6.5 -18.5 -6.5 -30.5c0 -18.667 8.66699 -36 26 -52c22 -20 52 -30 90 -30
c50.667 0 94.834 15.5 132.501 46.5s56.5 68.833 56.5 113.5c0 26.667 -10.667 50 -32 70c-24.667 23.333 -58 35 -100 35c-70.667 0 -132 -22.167 -184 -66.5s-78 -100.5 -78 -168.5c0 -59.333 21.667 -105 65 -137c36.667 -27.333 81.667 -41 135 -41
c58.667 0 115.667 17 171 51c42 26 75 55.333 99 88c22 30 40 67 54 111c16.667 52 25 105 25 159h-113v22h113l-2 35h-111zM987.998 560.999c29.333 0 55.667 8 79 24s35 33 35 51c0 8.66699 -4 13 -12 13c-15.333 0 -34.333 -11 -57 -33
c-16.667 -16.667 -31.667 -35 -45 -55z" />
    <glyph glyph-name="brokenbar" unicode="&#xa6;" horiz-adv-x="164" 
d="M111 -14c-3.33301 0 -6 1.16699 -8 3.5s-3.33301 3.83301 -4 4.5v215c0 4 4 6 12 6s12 -2 12 -6v-215c-4.66699 -5.33301 -8.66699 -8 -12 -8zM111 259c-3.33301 0 -6.66602 1.66699 -9.99902 5c-0.666992 0.666992 -1.33398 1.66699 -2.00098 3v215c0 4 4 6 12 6
s12 -2 12 -6v-215c-4.66699 -5.33301 -8.66699 -8 -12 -8z" />
    <glyph glyph-name="section" unicode="&#xa7;" horiz-adv-x="349" 
d="M112 -10c-26.667 0 -51.168 7.33301 -73.501 22s-33.5 33.334 -33.5 56.001c0 14.667 5 27.667 15 39s21.667 17 35 17c24 0 36 -11 36 -33c0 -7.33301 -2.5 -14.5 -7.5 -21.5s-11.5 -10.5 -19.5 -10.5c-9.33301 4 -16.666 6 -21.999 6c-6 0 -9 -4.33301 -9 -13
c0 -12 6.66699 -23 20 -33s30 -15 50 -15c21.333 0 40.333 5.83301 57 17.5s25 27.167 25 46.5c0 15.333 -4.66699 29.5 -14 42.5s-23.333 25.667 -42 38s-32.334 26.166 -41.001 41.499s-13 33.666 -13 54.999c0 30.667 12.333 55 37 73c16.667 12 37.334 20 62.001 24
c-6 12 -9 25.333 -9 40c0 36 16 62.667 48 80c22 12 43.333 18 64 18c29.333 0 51.666 -6.16699 66.999 -18.5s23 -28.166 23 -47.499c0 -14 -3.83301 -25.5 -11.5 -34.5s-18.167 -13.5 -31.5 -13.5c-10 0 -17.667 2.66699 -23 8s-8 12 -8 20c0 6.66699 2.5 13.167 7.5 19.5
s10.833 9.5 17.5 9.5c7.33301 -4 13 -6 17 -6c5.33301 0 8 4 8 12c0 13.333 -6.5 22.833 -19.5 28.5s-26.5 8.5 -40.5 8.5c-19.333 0 -35.166 -6.83301 -47.499 -20.5s-18.5 -25.167 -18.5 -34.5c0 -18 17.667 -43.667 53 -77s53 -65.333 53 -96c0 -20 -6.33301 -40 -19 -60
c-17.333 -26.667 -42.333 -43 -75 -49c2.66699 -8 4 -17.333 4 -28c0 -33.333 -13.333 -61.333 -40 -84c-21.333 -18 -48.333 -27 -81 -27zM126.999 274c0 -18 17.667 -44.001 53 -78.001c20.667 -20 34.667 -37 42 -51c15.333 4.66699 28 12.334 38 23.001s15 23 15 37
c0 18 -11.667 38.333 -35 61c-33.333 32 -53 52.667 -59 62c-16 -2.66699 -29 -10.167 -39 -22.5s-15 -22.833 -15 -31.5z" />
    <glyph glyph-name="dieresis" unicode="&#xa8;" horiz-adv-x="600" 
d="M686 550c0 -19.333 -5.33691 -36.3311 -16.0039 -50.998c-12.667 -17.333 -30 -26 -52 -26c-14 0 -25.833 4.16699 -35.5 12.5s-14.5 18.833 -14.5 31.5c0 10 3.33301 18.667 10 26s15.667 11 27 11c6.66699 0 12.334 -1.16699 17.001 -3.5s10 -4.83301 16 -7.5
c10 0 15 9 15 27c0 17.333 -9.66699 34 -29 50c-22.667 18.667 -52.667 28 -90 28c-59.333 0 -112.166 -17.667 -158.499 -53s-69.5 -77.333 -69.5 -126c0 -32 11 -54.333 33 -67c16.667 -9.33301 41.667 -14 75 -14c14 0 27.333 0.333008 40 1l38 2
c26.667 0 40 -6.66699 40 -20c0 -9.33301 -7.66699 -15.333 -23 -18c-4.66699 -0.666992 -12 -1 -22 -1c-17.333 0 -34.166 0.833008 -50.499 2.5s-37.166 4.16699 -62.499 7.5c-95.333 -12 -169.333 -51.333 -222 -118c-43.333 -54.667 -65 -114.667 -65 -180
c0 -42.667 15 -74.667 45 -96c25.333 -18 58 -27 98 -27c82.667 0 155.334 38 218.001 114c53.333 64.667 80 123.667 80 177c0 21.333 -7.33301 39 -22 53s-32.667 21 -54 21c-42 0 -86.333 -22 -133 -66c-50.667 -48 -76 -98.667 -76 -152c0 -16.667 5 -31.334 15 -44.001
c6 -7.33301 16.667 -16.333 32 -27c1.33301 -1.33301 0.666016 -2.83301 -2.00098 -4.5s-4.66699 -2.16699 -6 -1.5c-21.333 7.33301 -39.666 18.333 -54.999 33c-18 17.333 -27 36 -27 56c0 44 22 89.667 66 137c51.333 55.333 111.666 83 180.999 83
c38.667 0 70.667 -12.667 96 -38c21.333 -21.333 32 -48.333 32 -81c0 -56 -27.667 -113.333 -83 -172c-67.333 -72 -151 -108 -251 -108c-60 0 -110.667 15 -152 45c-46 33.333 -69 79.666 -69 138.999c0 64.667 24.667 119.667 74 165c35.333 32.667 84 59.667 146 81
c10.667 4 43 13 97 27c-28 10 -50 22 -66 36c-25.333 22.667 -38 51.667 -38 87c0 44 24.333 82 73 114c51.333 34 114.333 51 189 51c57.333 0 102 -8.33301 134 -25c38 -20 57 -50.333 57 -91zM525.996 761.002c0 -14.667 -5 -29.333 -15 -44s-21 -22 -33 -22
c-8.66699 0 -14.5 3.16699 -17.5 9.5s-4.5 13.5 -4.5 21.5c0 10.667 5.33301 24.167 16 40.5s21 24.5 31 24.5c7.33301 0 13 -3 17 -9s6 -13 6 -21zM614.996 761.003c0 -14.667 -5 -29.333 -15 -44s-21 -22 -33 -22c-8.66699 0 -14.5 3.16699 -17.5 9.5s-4.5 13.5 -4.5 21.5
c0 10.667 5.33301 24.167 16 40.5s21 24.5 31 24.5c7.33301 0 13 -3 17 -9s6 -13 6 -21z" />
    <glyph glyph-name="dieresis" unicode="&#x401;" horiz-adv-x="600" 
d="M686 550c0 -19.333 -5.33691 -36.3311 -16.0039 -50.998c-12.667 -17.333 -30 -26 -52 -26c-14 0 -25.833 4.16699 -35.5 12.5s-14.5 18.833 -14.5 31.5c0 10 3.33301 18.667 10 26s15.667 11 27 11c6.66699 0 12.334 -1.16699 17.001 -3.5s10 -4.83301 16 -7.5
c10 0 15 9 15 27c0 17.333 -9.66699 34 -29 50c-22.667 18.667 -52.667 28 -90 28c-59.333 0 -112.166 -17.667 -158.499 -53s-69.5 -77.333 -69.5 -126c0 -32 11 -54.333 33 -67c16.667 -9.33301 41.667 -14 75 -14c14 0 27.333 0.333008 40 1l38 2
c26.667 0 40 -6.66699 40 -20c0 -9.33301 -7.66699 -15.333 -23 -18c-4.66699 -0.666992 -12 -1 -22 -1c-17.333 0 -34.166 0.833008 -50.499 2.5s-37.166 4.16699 -62.499 7.5c-95.333 -12 -169.333 -51.333 -222 -118c-43.333 -54.667 -65 -114.667 -65 -180
c0 -42.667 15 -74.667 45 -96c25.333 -18 58 -27 98 -27c82.667 0 155.334 38 218.001 114c53.333 64.667 80 123.667 80 177c0 21.333 -7.33301 39 -22 53s-32.667 21 -54 21c-42 0 -86.333 -22 -133 -66c-50.667 -48 -76 -98.667 -76 -152c0 -16.667 5 -31.334 15 -44.001
c6 -7.33301 16.667 -16.333 32 -27c1.33301 -1.33301 0.666016 -2.83301 -2.00098 -4.5s-4.66699 -2.16699 -6 -1.5c-21.333 7.33301 -39.666 18.333 -54.999 33c-18 17.333 -27 36 -27 56c0 44 22 89.667 66 137c51.333 55.333 111.666 83 180.999 83
c38.667 0 70.667 -12.667 96 -38c21.333 -21.333 32 -48.333 32 -81c0 -56 -27.667 -113.333 -83 -172c-67.333 -72 -151 -108 -251 -108c-60 0 -110.667 15 -152 45c-46 33.333 -69 79.666 -69 138.999c0 64.667 24.667 119.667 74 165c35.333 32.667 84 59.667 146 81
c10.667 4 43 13 97 27c-28 10 -50 22 -66 36c-25.333 22.667 -38 51.667 -38 87c0 44 24.333 82 73 114c51.333 34 114.333 51 189 51c57.333 0 102 -8.33301 134 -25c38 -20 57 -50.333 57 -91zM525.996 761.002c0 -14.667 -5 -29.333 -15 -44s-21 -22 -33 -22
c-8.66699 0 -14.5 3.16699 -17.5 9.5s-4.5 13.5 -4.5 21.5c0 10.667 5.33301 24.167 16 40.5s21 24.5 31 24.5c7.33301 0 13 -3 17 -9s6 -13 6 -21zM614.996 761.003c0 -14.667 -5 -29.333 -15 -44s-21 -22 -33 -22c-8.66699 0 -14.5 3.16699 -17.5 9.5s-4.5 13.5 -4.5 21.5
c0 10.667 5.33301 24.167 16 40.5s21 24.5 31 24.5c7.33301 0 13 -3 17 -9s6 -13 6 -21z" />
    <glyph glyph-name="copyright" unicode="&#xa9;" horiz-adv-x="560" 
d="M222 63c-33.333 0 -56.499 7.83398 -69.499 23.501s-19.5 39.167 -19.5 70.5c0 26 7.33301 54.333 22 85s32.334 58 53.001 82c14.667 18 34.667 35.667 60 53c38 26.667 72.333 40 103 40c16 0 29.667 -5 41 -15s17 -24.667 17 -44c0 -29.333 -13.333 -59.333 -40 -90
c-29.333 -34 -60.333 -51 -93 -51c-12.667 0 -23.5 4.16699 -32.5 12.5s-13.5 18.833 -13.5 31.5c0 26.667 12.667 50 38 70c22 17.333 42 26 60 26c9.33301 0 16.666 -3.66699 21.999 -11c0.666992 -1.33301 -1 -4 -5 -8c-6 3.33301 -11 5 -15 5
c-16.667 0 -34.5 -9.83301 -53.5 -29.5s-28.5 -38.834 -28.5 -57.501c0 -8.66699 2.5 -15 7.5 -19s11.833 -6 20.5 -6c20.667 0 44.5 17.833 71.5 53.5s40.5 66.834 40.5 93.501c0 8 -2.5 14.167 -7.5 18.5s-15.833 6.5 -32.5 6.5c-14 0 -32 -7 -54 -21
c-31.333 -20 -62 -50.333 -92 -91c-14 -17.333 -29 -44.333 -45 -81c-13.333 -30.667 -20 -55.334 -20 -74.001c0 -39.333 22.333 -59 67 -59c19.333 0 37 5.33301 53 16c12.667 8 26 20.667 40 38c9.33301 11.333 19.666 25.666 30.999 42.999
c9.33301 14 14.333 21.667 15 23c0.666992 0.666992 2 0.333984 4 -0.999023s4.33301 -3 7 -5c-3.33301 -7.33301 -8 -15.5 -14 -24.5s-17 -23.833 -33 -44.5c-12 -15.333 -26.333 -28.333 -43 -39c-21.333 -13.333 -42 -20 -62 -20zM290.001 -13.999
c-70 0 -129.333 24.333 -178 73s-73 108 -73 178s24.333 129.333 73 178s108 73 178 73s129.333 -24.333 178 -73s73 -108 73 -178s-24.333 -129.333 -73 -178s-108 -73 -178 -73zM290.001 8.00098c63.333 0 117.333 22.333 162 67s67 98.667 67 162
s-22.333 117.333 -67 162s-98.667 67 -162 67s-117.333 -22.333 -162 -67s-67 -98.667 -67 -162s22.333 -117.333 67 -162s98.667 -67 162 -67z" />
    <glyph glyph-name="ordfeminine" unicode="&#xaa;" horiz-adv-x="287" 
d="M228 461l13 31h47l-84 -199c-2.66699 -6 -4 -14.667 -4 -26c0 -7.33301 1.16699 -13 3.5 -17s6.5 -6 12.5 -6c14.667 0 28.334 10 41.001 30c8 12 14.667 26.667 20 44c2 4 4.33301 6 7 6c4 0 5.33301 -2.33301 4 -7c-4.66699 -24 -15 -45.333 -31 -64
c-12.667 -15.333 -26.334 -23 -41.001 -23c-12.667 0 -22.167 5.83301 -28.5 17.5s-9.5 25.5 -9.5 41.5c0 7.33301 0.5 15 1.5 23s3.83301 19.667 8.5 35c-24.667 -38 -39.667 -60.333 -45 -67c-26 -33.333 -48.333 -50 -67 -50c-14 0 -24.5 6 -31.5 18s-10.5 27 -10.5 45
c0 42 18.667 86.667 56 134s72 71 104 71c12 0 20.333 -3.33301 25 -10s7.66699 -15.667 9 -27zM77 244c10.667 0 27.667 13.665 51 40.998c18 20.667 31 37.667 39 51c15.333 25.333 27 48.5 35 69.5s12 35.833 12 44.5c0 12.667 -1.83301 21.5 -5.5 26.5
s-8.5 7.5 -14.5 7.5c-6.66699 0 -14 -5.33301 -22 -16c-12 -15.333 -31.333 -47 -58 -95c-11.333 -19.333 -22.333 -40.666 -33 -63.999s-16 -39.666 -16 -48.999c0 -10.667 4 -16 12 -16z" />
    <glyph glyph-name="ordfeminine" unicode="&#x404;" horiz-adv-x="287" 
d="M228 461l13 31h47l-84 -199c-2.66699 -6 -4 -14.667 -4 -26c0 -7.33301 1.16699 -13 3.5 -17s6.5 -6 12.5 -6c14.667 0 28.334 10 41.001 30c8 12 14.667 26.667 20 44c2 4 4.33301 6 7 6c4 0 5.33301 -2.33301 4 -7c-4.66699 -24 -15 -45.333 -31 -64
c-12.667 -15.333 -26.334 -23 -41.001 -23c-12.667 0 -22.167 5.83301 -28.5 17.5s-9.5 25.5 -9.5 41.5c0 7.33301 0.5 15 1.5 23s3.83301 19.667 8.5 35c-24.667 -38 -39.667 -60.333 -45 -67c-26 -33.333 -48.333 -50 -67 -50c-14 0 -24.5 6 -31.5 18s-10.5 27 -10.5 45
c0 42 18.667 86.667 56 134s72 71 104 71c12 0 20.333 -3.33301 25 -10s7.66699 -15.667 9 -27zM77 244c10.667 0 27.667 13.665 51 40.998c18 20.667 31 37.667 39 51c15.333 25.333 27 48.5 35 69.5s12 35.833 12 44.5c0 12.667 -1.83301 21.5 -5.5 26.5
s-8.5 7.5 -14.5 7.5c-6.66699 0 -14 -5.33301 -22 -16c-12 -15.333 -31.333 -47 -58 -95c-11.333 -19.333 -22.333 -40.666 -33 -63.999s-16 -39.666 -16 -48.999c0 -10.667 4 -16 12 -16z" />
    <glyph glyph-name="guillemotleft" unicode="&#xab;" horiz-adv-x="340" 
d="M37 175l-0.00292969 25.999c0 7.33301 4.66699 12.666 14 15.999c20.667 9.33301 37.334 18 50.001 26s35 25 67 51l9.5 9.5c3 3 5.83301 4.5 8.5 4.5c4.66699 0 9.33398 -5.5 14.001 -16.5s7 -19.5 7 -25.5c0 -8 -2.66699 -14.667 -8 -20
c-13.333 -10.667 -31 -21.667 -53 -33c-42 -22 -63.667 -33.333 -65 -34c10 -17.333 20.667 -33.666 32 -48.999c16 -21.333 32.333 -37.666 49 -48.999c4 -2.66699 6.66699 -5 8 -7c0 -1.33301 0.333008 -2.33301 1 -3c0 -6 -1 -11.667 -3 -17s-4.66699 -8 -8 -8l-8 4
c-30 24.667 -51.667 44.667 -65 60s-26.666 31.333 -39.999 48c-6.66699 8 -10 13.667 -10 17zM159.997 161.999l-0.000976562 26.002c0 4 2.16699 7.5 6.5 10.5s6.83301 4.83301 7.5 5.5c26 15.333 42.667 25.333 50 30c10.667 7.33301 24.334 18 41.001 32l9.5 9.5
c3 3 5.83301 4.5 8.5 4.5c4.66699 0 9.33398 -5.5 14.001 -16.5s7 -19.5 7 -25.5c0 -8 -2.66699 -14.667 -8 -20c-14.667 -11.333 -34.334 -22.333 -59.001 -33c-20 -8.66699 -34.667 -15 -44 -19c7.33301 -14 21 -31.333 41 -52c12.667 -13.333 22 -23 28 -29l8 -8
c0 -0.666992 0.333008 -1.33398 1 -2.00098c0 -6 -1 -11.667 -3 -17s-4.66699 -8 -8 -8l-8 4c-19.333 19.333 -35 35.666 -47 48.999c-9.33301 10.667 -21 24.667 -35 42c-6.66699 8 -10 13.667 -10 17z" />
    <glyph glyph-name="logicalnot" unicode="&#xac;" horiz-adv-x="277" 
d="M15 168v24h244v-122h-24v98h-220z" />
    <glyph glyph-name="minus" unicode="&#xad;" horiz-adv-x="159" 
d="M20 192h122v-24h-122v24z" />
    <glyph glyph-name="registered" unicode="&#xae;" horiz-adv-x="549" 
d="M273 -14c-70 0 -129.333 24.333 -178 73s-73 108 -73 178s24.333 129.333 73 178s108 73 178 73s129.333 -24.333 178 -73s73 -108 73 -178s-24.333 -129.333 -73 -178s-108 -73 -178 -73zM273 8c63.333 0 117.333 22.333 162 67s67 98.667 67 162
s-22.333 117.333 -67 162s-98.667 67 -162 67s-117.333 -22.333 -162 -67s-67 -98.667 -67 -162s22.333 -117.333 67 -162s98.667 -67 162 -67zM360 351c11.333 -3.33301 21.6699 -8.6748 31.0029 -16.0078c14 -11.333 21 -25.666 21 -42.999
c0 -23.333 -9 -40.666 -27 -51.999c-12.667 -8 -26 -12 -40 -12c7.33301 -3.33301 13.166 -8.16602 17.499 -14.499s6.5 -17.833 6.5 -34.5v-35c1.33301 -18 5 -27 11 -27c6.66699 0 12.334 4.33301 17.001 13s8 18.334 10 29.001
c0.666992 3.33301 2.33398 4.66602 5.00098 3.99902s4 -3 4 -7c0 -10.667 -3.33301 -22.167 -10 -34.5s-15.334 -18.5 -26.001 -18.5c-12 0 -22 5.5 -30 16.5s-12 29.833 -12 56.5c0 34.667 -5.33301 52 -16 52h-11c-0.666992 1.33301 -0.5 4 0.5 8s2.83301 6 5.5 6l14 -1
c15.333 0 27.666 6.33301 36.999 19s14 26 14 40c0 12.667 -3.33301 22.667 -10 30c-4 4.66699 -10.333 8.33398 -19 11.001c-22 -20.667 -39.667 -53.334 -53 -98.001c-9.33301 -31.333 -17 -53.333 -23 -66c-11.333 -24.667 -29.666 -43.667 -54.999 -57
c-21.333 -11.333 -43.333 -17 -66 -17c-20.667 0 -38.334 4.33301 -53.001 13c-18 10.667 -27 26.334 -27 47.001c0 8 3 15.333 9 22s12.667 10 20 10c4.66699 0 9.5 -2.16699 14.5 -6.5s7.5 -9.16602 7.5 -14.499c0 -4 -2 -8 -6 -12s-8.33301 -6 -13 -6
c-4 0 -6.83301 1 -8.5 3s-2.5 3.33301 -2.5 4c-2 -2 -3 -5 -3 -9c0 -8 5 -16.167 15 -24.5s25.667 -12.5 47 -12.5c17.333 0 33.666 4.33301 48.999 13c12.667 8.66699 24 21.667 34 39c2 3.33301 16 35 42 95c6.66699 14 15 28.333 25 43s20.333 27.334 31 38.001
c-10 2.66699 -20 4 -30 4c-30.667 0 -60 -9 -88 -27c-32 -20.667 -48 -45.667 -48 -75c0 -5.33301 2 -10.5 6 -15.5s10.667 -7.5 20 -7.5c12.667 0 25.167 5.83301 37.5 17.5s18.5 24.5 18.5 38.5c0 10 -1.66699 17.667 -5 23c-1.33301 2 -0.833008 3.83301 1.5 5.5
s4.5 1.83398 6.5 0.500977c9.33301 -6 14 -16 14 -30c0 -14.667 -4.66699 -28.667 -14 -42c-12.667 -18 -30.334 -27 -53.001 -27c-14.667 0 -27 4.66699 -37 14s-15 21.333 -15 36c0 28 13.5 51.833 40.5 71.5s59.833 29.5 98.5 29.5c8 0 16.833 -0.666992 26.5 -2
s19.167 -2.66602 28.5 -3.99902c11.333 10 22 17.5 32 22.5s20.333 7.5 31 7.5c7.33301 0 14.833 -2 22.5 -6s11.5 -9.33301 11.5 -16c0 -13.333 -6 -20 -18 -20c-11.333 0 -17 4.66699 -17 14c0 2.66699 0.833008 5 2.5 7s2.5 3.33301 2.5 4c-4 2 -8 3 -12 3
c-6 0 -12.333 -1.5 -19 -4.5s-13.667 -8.16699 -21 -15.5z" />
    <glyph glyph-name="macron" unicode="&#xaf;" horiz-adv-x="153" 
d="M82 480h122v-24h-122v24z" />
    <glyph glyph-name="macron" unicode="&#x407;" horiz-adv-x="153" 
d="M82 480h122v-24h-122v24z" />
    <glyph glyph-name="degree" unicode="&#xb0;" horiz-adv-x="321" 
d="M191 220c-36.667 0 -68 13 -94 39s-39 57.667 -39 95s13 69 39 95s57.333 39 94 39c36 0 67.333 -13 94 -39s40 -57.667 40 -95s-13 -69 -39 -95s-57.667 -39 -95 -39zM191 234c34 0 62.499 11.502 85.499 34.502s34.5 51.5 34.5 85.5
c0 33.333 -11.667 61.666 -35 84.999s-51.666 35 -84.999 35c-34 0 -62.333 -11.333 -85 -34s-34 -51.334 -34 -86.001c0 -34 11.5 -62.5 34.5 -85.5s51.167 -34.5 84.5 -34.5z" />
    <glyph glyph-name="plusminus" unicode="&#xb1;" horiz-adv-x="277" 
d="M148 300v-108h111v-24h-111v-108h-24v108h-109v24h109v108h24zM15 24h244v-24h-244v24z" />
    <glyph glyph-name="twosuperior" unicode="&#xb2;" horiz-adv-x="266" 
d="M197 360c-12.667 0 -29.668 8 -51.001 24c-10.667 8 -19.667 12 -27 12c-10.667 0 -17.667 -2.16699 -21 -6.5s-6 -11.833 -8 -22.5c0 -4.66699 -2.33301 -7 -7 -7c-6 0 -9 2.66699 -9 8c2 13.333 7.5 28.333 16.5 45s21.5 30.334 37.5 41.001
c4.66699 3.33301 17 10.166 37 20.499s32.667 18.166 38 23.499c10 8 19.167 21.333 27.5 40s12.5 35.667 12.5 51s-8.33301 23 -25 23c-11.333 0 -21 -3 -29 -9s-12 -13.667 -12 -23c0 -0.666992 3.66699 -2.66699 11 -6s11 -8.66602 11 -15.999
c0 -6 -2.83301 -12.167 -8.5 -18.5s-12.167 -9.5 -19.5 -9.5c-6.66699 0 -12.834 3.16699 -18.501 9.5s-8.5 12.5 -8.5 18.5c0 20 9.33301 37.333 28 52c15.333 12 33.333 18 54 18c14.667 0 28.834 -5.16699 42.501 -15.5s20.5 -24.833 20.5 -43.5
c0 -44 -26.667 -76.333 -80 -97c-18 -6 -32.333 -11 -43 -15s-19.667 -8.66699 -27 -14s-14.666 -12 -21.999 -20l-7 -7c0 -0.666992 2.5 -0.166992 7.5 1.5s12.833 2.5 23.5 2.5c10 -2 21.167 -4.16699 33.5 -6.5s22.166 -3.5 29.499 -3.5c14.667 0 25 4 31 12
c2.66699 4 5 9.66699 7 17s5 11 9 11c6.66699 0 9.33398 -3 8.00098 -9c-4 -20 -8.66699 -35.333 -14 -46c-12 -23.333 -28 -35 -48 -35z" />
    <glyph glyph-name="twosuperior" unicode="&#x406;" horiz-adv-x="266" 
d="M197 360c-12.667 0 -29.668 8 -51.001 24c-10.667 8 -19.667 12 -27 12c-10.667 0 -17.667 -2.16699 -21 -6.5s-6 -11.833 -8 -22.5c0 -4.66699 -2.33301 -7 -7 -7c-6 0 -9 2.66699 -9 8c2 13.333 7.5 28.333 16.5 45s21.5 30.334 37.5 41.001
c4.66699 3.33301 17 10.166 37 20.499s32.667 18.166 38 23.499c10 8 19.167 21.333 27.5 40s12.5 35.667 12.5 51s-8.33301 23 -25 23c-11.333 0 -21 -3 -29 -9s-12 -13.667 -12 -23c0 -0.666992 3.66699 -2.66699 11 -6s11 -8.66602 11 -15.999
c0 -6 -2.83301 -12.167 -8.5 -18.5s-12.167 -9.5 -19.5 -9.5c-6.66699 0 -12.834 3.16699 -18.501 9.5s-8.5 12.5 -8.5 18.5c0 20 9.33301 37.333 28 52c15.333 12 33.333 18 54 18c14.667 0 28.834 -5.16699 42.501 -15.5s20.5 -24.833 20.5 -43.5
c0 -44 -26.667 -76.333 -80 -97c-18 -6 -32.333 -11 -43 -15s-19.667 -8.66699 -27 -14s-14.666 -12 -21.999 -20l-7 -7c0 -0.666992 2.5 -0.166992 7.5 1.5s12.833 2.5 23.5 2.5c10 -2 21.167 -4.16699 33.5 -6.5s22.166 -3.5 29.499 -3.5c14.667 0 25 4 31 12
c2.66699 4 5 9.66699 7 17s5 11 9 11c6.66699 0 9.33398 -3 8.00098 -9c-4 -20 -8.66699 -35.333 -14 -46c-12 -23.333 -28 -35 -48 -35z" />
    <glyph glyph-name="threesuperior" unicode="&#xb3;" horiz-adv-x="266" 
d="M140 360c-18.667 0 -34.3311 4.16797 -46.998 12.501s-19 20.5 -19 36.5c0 10.667 3.5 20.667 10.5 30s15.833 14 26.5 14c18.667 0 28 -7.66699 28 -23c0 -6.66699 -2.33301 -12.5 -7 -17.5s-10 -7.5 -16 -7.5c-3.33301 0 -6 0.666992 -8 2s-4 3 -6 5
c-4.66699 0 -7 -4 -7 -12s3.33301 -14 10 -18s16 -6 28 -6c20.667 0 37 12.667 49 38c9.33301 19.333 14 38 14 56c0 11.333 -2.5 18.5 -7.5 21.5s-13.167 4.5 -24.5 4.5l-32 1c-2.66699 0 -4 2 -4 6s1.33301 6.66699 4 8c2.66699 0.666992 7 1 13 1s11.5 -0.333008 16.5 -1
s10.167 -1.33398 15.5 -2.00098c9.33301 0 18.666 4.33301 27.999 13c6 5.33301 12.5 15.333 19.5 30s10.5 28 10.5 40c0 6 -2.5 10.833 -7.5 14.5s-10.5 5.5 -16.5 5.5c-9.33301 0 -19 -2.66699 -29 -8s-15 -12.666 -15 -21.999c0 -1.33301 3.83301 -3.33301 11.5 -6
s11.5 -8.66699 11.5 -18c0 -7.33301 -2.83301 -13.5 -8.5 -18.5s-11.834 -7.5 -18.501 -7.5c-8 0 -14.833 3.16699 -20.5 9.5s-8.5 13.166 -8.5 20.499c0 14 7.33301 28 22 42c17.333 16 37 24 59 24c17.333 0 32.5 -4.5 45.5 -13.5s19.5 -21.167 19.5 -36.5
c0 -22 -6.83301 -39.5 -20.5 -52.5s-28.5 -20.833 -44.5 -23.5c8 -3.33301 14.667 -10 20 -20s8 -21 8 -33c0 -22.667 -9.5 -43.167 -28.5 -61.5s-43.833 -27.5 -74.5 -27.5z" />
    <glyph glyph-name="threesuperior" unicode="&#x456;" horiz-adv-x="266" 
d="M140 360c-18.667 0 -34.3311 4.16797 -46.998 12.501s-19 20.5 -19 36.5c0 10.667 3.5 20.667 10.5 30s15.833 14 26.5 14c18.667 0 28 -7.66699 28 -23c0 -6.66699 -2.33301 -12.5 -7 -17.5s-10 -7.5 -16 -7.5c-3.33301 0 -6 0.666992 -8 2s-4 3 -6 5
c-4.66699 0 -7 -4 -7 -12s3.33301 -14 10 -18s16 -6 28 -6c20.667 0 37 12.667 49 38c9.33301 19.333 14 38 14 56c0 11.333 -2.5 18.5 -7.5 21.5s-13.167 4.5 -24.5 4.5l-32 1c-2.66699 0 -4 2 -4 6s1.33301 6.66699 4 8c2.66699 0.666992 7 1 13 1s11.5 -0.333008 16.5 -1
s10.167 -1.33398 15.5 -2.00098c9.33301 0 18.666 4.33301 27.999 13c6 5.33301 12.5 15.333 19.5 30s10.5 28 10.5 40c0 6 -2.5 10.833 -7.5 14.5s-10.5 5.5 -16.5 5.5c-9.33301 0 -19 -2.66699 -29 -8s-15 -12.666 -15 -21.999c0 -1.33301 3.83301 -3.33301 11.5 -6
s11.5 -8.66699 11.5 -18c0 -7.33301 -2.83301 -13.5 -8.5 -18.5s-11.834 -7.5 -18.501 -7.5c-8 0 -14.833 3.16699 -20.5 9.5s-8.5 13.166 -8.5 20.499c0 14 7.33301 28 22 42c17.333 16 37 24 59 24c17.333 0 32.5 -4.5 45.5 -13.5s19.5 -21.167 19.5 -36.5
c0 -22 -6.83301 -39.5 -20.5 -52.5s-28.5 -20.833 -44.5 -23.5c8 -3.33301 14.667 -10 20 -20s8 -21 8 -33c0 -22.667 -9.5 -43.167 -28.5 -61.5s-43.833 -27.5 -74.5 -27.5z" />
    <glyph glyph-name="mu" unicode="&#xb5;" horiz-adv-x="336" 
d="M266 336l62.0029 -0.00195312l-109 -267c-2.66699 -6 -4.33398 -12 -5.00098 -18s-1 -11.333 -1 -16c0 -20.667 6.33301 -31 19 -31c19.333 0 37.666 14 54.999 42c10 16 19 36 27 60c2 4.66699 4.66699 7 8 7c5.33301 0 7.33301 -2.66699 6 -8
c-6 -24 -15.333 -46.333 -28 -67c-20 -32 -42.667 -48 -68 -48c-16 0 -28 7.5 -36 22.5s-12 33.833 -12 56.5c0 17.333 2 34.333 6 51c4 12.667 6.66699 21.334 8 26.001c-32 -56.667 -51 -89.667 -57 -99c-25.333 -38 -47 -57 -65 -57c-10.667 0 -20 4.66699 -28 14
l-35 -78c-21.333 -53.333 -55.833 -97.666 -103.5 -132.999s-99.834 -53 -156.501 -53c-20 0 -37.333 3.66699 -52 11s-22 18.666 -22 33.999c0 10 3.5 18.167 10.5 24.5s16.833 9.5 29.5 9.5c9.33301 0 17.5 -2.83301 24.5 -8.5s10.5 -13.167 10.5 -22.5
c0 -4 -1.33301 -7.33301 -4 -10c-6 -6.66699 -9 -11 -9 -13c0 -3.33301 3.33301 -6 10 -8s13.667 -3 21 -3c31.333 0 63.833 16.333 97.5 49s60.834 73.667 81.501 123l140 308c6.66699 14.667 12.334 28.5 17.001 41.5s7 23.167 7 30.5c0 15.333 -4 23 -12 23
c-14 0 -29 -13.167 -45 -39.5s-27 -51.166 -33 -74.499c-0.666992 -2.66699 -3.33398 -3.66699 -8.00098 -3s-6.66699 2.66699 -6 6c6 28 16 53.667 30 77c19.333 32 40.333 48 63 48c13.333 0 23.333 -5.66699 30 -17c9.33301 -15.333 14 -39 14 -71
c0 -18 -2.33301 -34.833 -7 -50.5s-12 -33.5 -22 -53.5l-52 -117c-2 -5.33301 -3 -9.66602 -3 -12.999c0 -11.333 6 -17 18 -17c11.333 0 29 19.333 53 58c19.333 31.333 38.666 67.666 57.999 108.999z" />
    <glyph glyph-name="paragraph" unicode="&#xb6;" horiz-adv-x="312" 
d="M229 268l16.001 46.998c8 23.333 20 45.333 36 66c1.33301 2 5 3 11 3c4 -2.66699 5.66699 -4.66699 5 -6c-8 -11.333 -14 -21.166 -18 -29.499s-8 -18.166 -12 -29.499l-17 -53c2.66699 -0.666992 6.66699 -1 12 -1c4 0 9.66699 0.333008 17 1s12.666 1 15.999 1
c2 0.666992 3.33301 -0.666016 4 -3.99902s-0.333008 -5 -3 -5c-6.66699 -1.33301 -16 -2 -28 -2c-9.33301 0 -16.333 0.333008 -21 1l-113 -331c-0.666992 -1.33301 -1.5 -2.33301 -2.5 -3s-1.83301 -1.33398 -2.5 -2.00098c-4 0 -7.83301 1.33301 -11.5 4
s-4.83398 5.66699 -3.50098 9l112 323c-4.66699 0 -9.66699 0.166992 -15 0.5s-12.666 1.5 -21.999 3.5l-113 -335l-5 -5c-4 0 -7.83301 1.33301 -11.5 4s-4.83398 5.66699 -3.50098 9l112 331c-25.333 8.66699 -43.666 16.667 -54.999 24c-30.667 20.667 -46 47 -46 79
c0 40.667 20.667 72 62 94c32.667 17.333 71 26 115 26c21.333 0 39.833 -0.333008 55.5 -1s31.5 -1.33398 47.5 -2.00098c10 6.66699 20.333 13.334 31 20.001s23 10 37 10c4 0 8 -1.33301 12 -4s6 -5.66699 6 -9c0 -9.33301 -12.333 -16 -37 -20
c-8 -1.33301 -20.333 -2.33301 -37 -3c-77.333 -22 -132.666 -91 -165.999 -207c6 -1.33301 11.667 -2.33301 17 -3s11.666 -1 18.999 -1zM324.001 474.998c-80 0 -139 -13.335 -177 -40.002c-30 -21.333 -45 -48.666 -45 -81.999c0 -19.333 8.33301 -36.666 25 -51.999
c13.333 -12 28.333 -20.333 45 -25c20.667 60 44.667 106 72 138c20 22.667 46.667 43 80 61z" />
    <glyph glyph-name="cedilla" unicode="&#xb8;" horiz-adv-x="278" 
d="M276 291c0 -41.333 -17.001 -72.668 -51.001 -94.001c-27.333 -17.333 -59.666 -26 -96.999 -26l-28 2c-12 -25.333 -21.5 -48.333 -28.5 -69s-10.5 -36.334 -10.5 -47.001c0 -32.667 16.333 -49 49 -49c25.333 0 48.333 13 69 39c8 10.667 18 26.334 30 47.001
c9.33301 17.333 15.333 28.333 18 33c0.666992 2 3 2.33301 7 1s5.66699 -3.33301 5 -6c-8 -17.333 -16.5 -33.666 -25.5 -48.999s-18.167 -29 -27.5 -41c-21.333 -28 -48.333 -42 -81 -42c-29.333 0 -52.5 9.5 -69.5 28.5s-25.5 43.5 -25.5 73.5
c0 58 22.333 114.333 67 169s91.667 82 141 82c38.667 0 58 -17.333 58 -52zM222.999 306.998c0 14.667 -5 22 -15 22c-16.667 0 -36.667 -19.667 -60 -59c-5.33301 -8.66699 -19 -36 -41 -82l17 -1c34.667 0 61 16 79 48c13.333 23.333 20 47.333 20 72zM222.999 457.998
c0 -14.667 -5 -29.333 -15 -44s-21 -22 -33 -22c-8.66699 0 -14.5 3.16699 -17.5 9.5s-4.5 13.5 -4.5 21.5c0 10.667 5.33301 24.167 16 40.5s21 24.5 31 24.5c7.33301 0 13 -3 17 -9s6 -13 6 -21zM311.999 457.999c0 -14.667 -5 -29.333 -15 -44s-21 -22 -33 -22
c-8.66699 0 -14.5 3.16699 -17.5 9.5s-4.5 13.5 -4.5 21.5c0 10.667 5.33301 24.167 16 40.5s21 24.5 31 24.5c7.33301 0 13 -3 17 -9s6 -13 6 -21z" />
    <glyph glyph-name="cedilla" unicode="&#x451;" horiz-adv-x="278" 
d="M276 291c0 -41.333 -17.001 -72.668 -51.001 -94.001c-27.333 -17.333 -59.666 -26 -96.999 -26l-28 2c-12 -25.333 -21.5 -48.333 -28.5 -69s-10.5 -36.334 -10.5 -47.001c0 -32.667 16.333 -49 49 -49c25.333 0 48.333 13 69 39c8 10.667 18 26.334 30 47.001
c9.33301 17.333 15.333 28.333 18 33c0.666992 2 3 2.33301 7 1s5.66699 -3.33301 5 -6c-8 -17.333 -16.5 -33.666 -25.5 -48.999s-18.167 -29 -27.5 -41c-21.333 -28 -48.333 -42 -81 -42c-29.333 0 -52.5 9.5 -69.5 28.5s-25.5 43.5 -25.5 73.5
c0 58 22.333 114.333 67 169s91.667 82 141 82c38.667 0 58 -17.333 58 -52zM222.999 306.998c0 14.667 -5 22 -15 22c-16.667 0 -36.667 -19.667 -60 -59c-5.33301 -8.66699 -19 -36 -41 -82l17 -1c34.667 0 61 16 79 48c13.333 23.333 20 47.333 20 72zM222.999 457.998
c0 -14.667 -5 -29.333 -15 -44s-21 -22 -33 -22c-8.66699 0 -14.5 3.16699 -17.5 9.5s-4.5 13.5 -4.5 21.5c0 10.667 5.33301 24.167 16 40.5s21 24.5 31 24.5c7.33301 0 13 -3 17 -9s6 -13 6 -21zM311.999 457.999c0 -14.667 -5 -29.333 -15 -44s-21 -22 -33 -22
c-8.66699 0 -14.5 3.16699 -17.5 9.5s-4.5 13.5 -4.5 21.5c0 10.667 5.33301 24.167 16 40.5s21 24.5 31 24.5c7.33301 0 13 -3 17 -9s6 -13 6 -21z" />
    <glyph glyph-name="onesuperior" unicode="&#xb9;" horiz-adv-x="1095" 
d="M689 550l-2.00488 2.00098c-26.667 -38 -55.667 -82.333 -87 -133l-86 -144c-35.333 -58.667 -66.666 -107.667 -93.999 -147c-64 -94.667 -145.667 -142 -245 -142c-42.667 0 -80 10.333 -112 31c-35.333 22.667 -53 51.667 -53 87c0 24.667 6 46.334 18 65.001
s29.333 28 52 28c12.667 0 24.334 -4.66699 35.001 -14s16 -21 16 -35c0 -8 -4.16699 -16.167 -12.5 -24.5s-17.833 -12.5 -28.5 -12.5s-17.667 5.5 -21 16.5s-6.66602 16.5 -9.99902 16.5c-10 0 -17.167 -4.66699 -21.5 -14s-6.5 -20.666 -6.5 -33.999
c0 -30.667 16.333 -54.667 49 -72c27.333 -14.667 61.333 -22 102 -22c43.333 0 87.666 17 132.999 51c56.667 42.667 111.667 109.334 165 200.001c30 52.667 54.667 95 74 127c26.667 45.333 50.334 83 71.001 113c24.667 36.667 50 71 76 103
c-17.333 0 -51.333 2.66699 -102 8s-85.667 8 -105 8c-79.333 0 -153.833 -27.5 -223.5 -82.5s-104.5 -114.833 -104.5 -179.5c0 -14.667 9.5 -29.334 28.5 -44.001s40.167 -22 63.5 -22c40.667 0 81.334 22.333 122.001 67c37.333 40.667 56 75.667 56 105
c0 10.667 -0.833008 17.5 -2.5 20.5s-6.16699 9.5 -13.5 19.5c-1.33301 2 -0.5 4 2.5 6s5.5 2.33301 7.5 1c9.33301 -6 16.666 -12.667 21.999 -20c8.66699 -12.667 13 -28.334 13 -47.001c0 -34.667 -16.333 -69.334 -49 -104.001c-40 -42.667 -90 -64 -150 -64
c-39.333 0 -70.666 12 -93.999 36s-35 55.333 -35 94c0 76.667 36.333 136.667 109 180c55.333 33.333 111 50 167 50c47.333 0 95.5 -1.66699 144.5 -5s101.833 -7 158.5 -11c31.333 36 58.333 54 81 54c10.667 0 16 -4.33301 16 -13
c0 -6.66699 -7.5 -15.334 -22.5 -26.001s-35.167 -22.667 -60.5 -36c-8.66699 -11.333 -14.167 -23.5 -16.5 -36.5s-3.5 -27.833 -3.5 -44.5c0 -34 8.33301 -97.667 25 -191c8 -44.667 12 -82.667 12 -114c0 -43.333 -4 -90.666 -12 -141.999
c10.667 36.667 21.334 73.667 32.001 111c21.333 68 43.333 129 66 183c30.667 72.667 63 132.667 97 180c17.333 24 38.166 45.167 62.499 63.5s45.833 27.5 64.5 27.5c42 0 63 -15 63 -45c0 -10.667 -4 -20.334 -12 -29.001s-18 -13 -30 -13c-25.333 0 -38 10.667 -38 32
c0 7.33301 6.16699 13.333 18.5 18s18.5 8.33398 18.5 11.001c0 4.66699 -1.66699 7.5 -5 8.5s-9.66602 1.5 -18.999 1.5c-44 0 -95 -53.333 -153 -160c-51.333 -94 -92.333 -196.667 -123 -308c-9.33301 -32 -17.833 -65 -25.5 -99s-12.167 -52.667 -13.5 -56
c-4 -2 -7 -3 -9 -3c-12.667 0 -19 3.33301 -19 10v59c0 28.667 -13.667 94 -41 196c-13.333 50 -20 92.333 -20 127c0 40.667 3.33301 74.167 10 100.5s16.667 50.166 30 71.499zM905.995 64.001c-27.333 0 -46.167 6.33301 -56.5 19s-15.5 30.667 -15.5 54
c0 50 17 95 51 135s69 60 105 60c20.667 0 36.667 -4.66699 48 -14c14 -12 21 -32.333 21 -61c0 -34 -14 -72.667 -42 -116c-33.333 -51.333 -70.333 -77 -111 -77zM902.994 78.001c25.333 0 50.667 30.667 76 92c21.333 52 32 90.667 32 116
c0 11.333 -1.83301 19.5 -5.5 24.5s-8.83398 7.5 -15.501 7.5c-23.333 0 -48.666 -30.333 -75.999 -91c-24.667 -54 -37 -92.667 -37 -116c0 -10 2.66699 -18 8 -24s11.333 -9 18 -9zM817.995 24.001h198v-24h-198v24z" />
    <glyph glyph-name="onesuperior" unicode="&#x2116;" horiz-adv-x="1095" 
d="M689 550l-2.00488 2.00098c-26.667 -38 -55.667 -82.333 -87 -133l-86 -144c-35.333 -58.667 -66.666 -107.667 -93.999 -147c-64 -94.667 -145.667 -142 -245 -142c-42.667 0 -80 10.333 -112 31c-35.333 22.667 -53 51.667 -53 87c0 24.667 6 46.334 18 65.001
s29.333 28 52 28c12.667 0 24.334 -4.66699 35.001 -14s16 -21 16 -35c0 -8 -4.16699 -16.167 -12.5 -24.5s-17.833 -12.5 -28.5 -12.5s-17.667 5.5 -21 16.5s-6.66602 16.5 -9.99902 16.5c-10 0 -17.167 -4.66699 -21.5 -14s-6.5 -20.666 -6.5 -33.999
c0 -30.667 16.333 -54.667 49 -72c27.333 -14.667 61.333 -22 102 -22c43.333 0 87.666 17 132.999 51c56.667 42.667 111.667 109.334 165 200.001c30 52.667 54.667 95 74 127c26.667 45.333 50.334 83 71.001 113c24.667 36.667 50 71 76 103
c-17.333 0 -51.333 2.66699 -102 8s-85.667 8 -105 8c-79.333 0 -153.833 -27.5 -223.5 -82.5s-104.5 -114.833 -104.5 -179.5c0 -14.667 9.5 -29.334 28.5 -44.001s40.167 -22 63.5 -22c40.667 0 81.334 22.333 122.001 67c37.333 40.667 56 75.667 56 105
c0 10.667 -0.833008 17.5 -2.5 20.5s-6.16699 9.5 -13.5 19.5c-1.33301 2 -0.5 4 2.5 6s5.5 2.33301 7.5 1c9.33301 -6 16.666 -12.667 21.999 -20c8.66699 -12.667 13 -28.334 13 -47.001c0 -34.667 -16.333 -69.334 -49 -104.001c-40 -42.667 -90 -64 -150 -64
c-39.333 0 -70.666 12 -93.999 36s-35 55.333 -35 94c0 76.667 36.333 136.667 109 180c55.333 33.333 111 50 167 50c47.333 0 95.5 -1.66699 144.5 -5s101.833 -7 158.5 -11c31.333 36 58.333 54 81 54c10.667 0 16 -4.33301 16 -13
c0 -6.66699 -7.5 -15.334 -22.5 -26.001s-35.167 -22.667 -60.5 -36c-8.66699 -11.333 -14.167 -23.5 -16.5 -36.5s-3.5 -27.833 -3.5 -44.5c0 -34 8.33301 -97.667 25 -191c8 -44.667 12 -82.667 12 -114c0 -43.333 -4 -90.666 -12 -141.999
c10.667 36.667 21.334 73.667 32.001 111c21.333 68 43.333 129 66 183c30.667 72.667 63 132.667 97 180c17.333 24 38.166 45.167 62.499 63.5s45.833 27.5 64.5 27.5c42 0 63 -15 63 -45c0 -10.667 -4 -20.334 -12 -29.001s-18 -13 -30 -13c-25.333 0 -38 10.667 -38 32
c0 7.33301 6.16699 13.333 18.5 18s18.5 8.33398 18.5 11.001c0 4.66699 -1.66699 7.5 -5 8.5s-9.66602 1.5 -18.999 1.5c-44 0 -95 -53.333 -153 -160c-51.333 -94 -92.333 -196.667 -123 -308c-9.33301 -32 -17.833 -65 -25.5 -99s-12.167 -52.667 -13.5 -56
c-4 -2 -7 -3 -9 -3c-12.667 0 -19 3.33301 -19 10v59c0 28.667 -13.667 94 -41 196c-13.333 50 -20 92.333 -20 127c0 40.667 3.33301 74.167 10 100.5s16.667 50.166 30 71.499zM905.995 64.001c-27.333 0 -46.167 6.33301 -56.5 19s-15.5 30.667 -15.5 54
c0 50 17 95 51 135s69 60 105 60c20.667 0 36.667 -4.66699 48 -14c14 -12 21 -32.333 21 -61c0 -34 -14 -72.667 -42 -116c-33.333 -51.333 -70.333 -77 -111 -77zM902.994 78.001c25.333 0 50.667 30.667 76 92c21.333 52 32 90.667 32 116
c0 11.333 -1.83301 19.5 -5.5 24.5s-8.83398 7.5 -15.501 7.5c-23.333 0 -48.666 -30.333 -75.999 -91c-24.667 -54 -37 -92.667 -37 -116c0 -10 2.66699 -18 8 -24s11.333 -9 18 -9zM817.995 24.001h198v-24h-198v24z" />
    <glyph glyph-name="ordmasculine" unicode="&#xba;" horiz-adv-x="261" 
d="M134 230c-27.333 0 -48 8.16699 -62 24.5s-21 36.833 -21 61.5c0 33.333 13 69.666 39 108.999c32.667 48.667 73 73 121 73c23.333 0 40.833 -6.5 52.5 -19.5s17.5 -29.833 17.5 -50.5c0 -35.333 -11 -73.666 -33 -114.999c-29.333 -55.333 -67.333 -83 -114 -83z
M209 484c-24.667 0 -50.666 -29.334 -77.999 -88.001c-24 -51.333 -36 -88.333 -36 -111c0 -11.333 2.66699 -21 8 -29s13.666 -12 24.999 -12c25.333 0 51.333 32.333 78 97c22.667 54.667 34 91.334 34 110.001c0 9.33301 -1.33301 16.333 -4 21
c-4.66699 8 -13.667 12 -27 12z" />
    <glyph glyph-name="ordmasculine" unicode="&#x454;" horiz-adv-x="261" 
d="M134 230c-27.333 0 -48 8.16699 -62 24.5s-21 36.833 -21 61.5c0 33.333 13 69.666 39 108.999c32.667 48.667 73 73 121 73c23.333 0 40.833 -6.5 52.5 -19.5s17.5 -29.833 17.5 -50.5c0 -35.333 -11 -73.666 -33 -114.999c-29.333 -55.333 -67.333 -83 -114 -83z
M209 484c-24.667 0 -50.666 -29.334 -77.999 -88.001c-24 -51.333 -36 -88.333 -36 -111c0 -11.333 2.66699 -21 8 -29s13.666 -12 24.999 -12c25.333 0 51.333 32.333 78 97c22.667 54.667 34 91.334 34 110.001c0 9.33301 -1.33301 16.333 -4 21
c-4.66699 8 -13.667 12 -27 12z" />
    <glyph glyph-name="guillemotright" unicode="&#xbb;" horiz-adv-x="283" 
d="M268 188l0.000976562 -26.001c0 -4 -2.16699 -7.5 -6.5 -10.5s-6.83301 -4.83301 -7.5 -5.5c-16.667 -8.66699 -32.334 -19.334 -47.001 -32.001s-31.334 -30 -50.001 -52c-3.33301 -4.66699 -6.33301 -8.5 -9 -11.5s-5.66699 -4.5 -9 -4.5s-7 4 -11 12
c-6.66699 14 -10 26.667 -10 38c0 3.33301 1 7 3 11s3.66699 7 5 9c13.333 14.667 27.333 27 42 37c10 6.66699 28.667 17 56 31c-6 17.333 -13.333 32 -22 44s-22.667 26.333 -42 43l-6.5 6.5c-1.66699 1.66699 -2.5 2.83398 -2.5 3.50098c0 6 1 11.667 3 17s4.66699 8 8 8
l8 -4c22.667 -20 41.334 -39 56.001 -57c7.33301 -9.33301 18 -22.666 32 -39.999c6.66699 -8 10 -13.667 10 -17zM167.001 206.999l0.00292969 -25.999c0 -4 -2.16699 -7.5 -6.5 -10.5s-6.83301 -4.83301 -7.5 -5.5c-26 -15.333 -42.667 -25.333 -50 -30
c-10.667 -7.33301 -24.334 -18 -41.001 -32l-9.5 -9.5c-3 -3 -5.83301 -4.5 -8.5 -4.5c-4.66699 0 -9.33398 5.5 -14.001 16.5s-7 19.5 -7 25.5c0 8 2.66699 14.667 8 20c14.667 11.333 33.167 21.833 55.5 31.5s38.166 16.5 47.499 20.5c-8 14 -14.167 23.333 -18.5 28
s-12.833 12 -25.5 22c-4 3.33301 -6.5 5.66602 -7.5 6.99902s-1.5 2.33301 -1.5 3c0 6 1 11.667 3 17s4.66699 8 8 8l8 -4c13.333 -12 24 -22 32 -30c6 -6 14.333 -16 25 -30c6.66699 -8 10 -13.667 10 -17z" />
    <glyph glyph-name="onequarter" unicode="&#xbc;" horiz-adv-x="454" 
d="M59 0c-4.66699 0 -8 1.99805 -10 5.99805s-2 7 0 9l334 448l5 3c3.33301 0 6.33301 -1.66699 9 -5s3 -6.66602 1 -9.99902l-332 -447c-0.666992 -1.33301 -3 -2.66602 -7 -3.99902zM298 -0.00195312l-54.001 -3.00098c-5.33301 0 -8 2.66699 -8 8c0 6 2.66699 9 8 9
c14.667 0 25 1.66699 31 5c2.66699 3.33301 4.66699 7 6 11l19 47h-68c-3.33301 0 -5.66602 2.33301 -6.99902 7s-1 8.33398 1 11.001c13.333 16.667 31.333 36.667 54 60c54.667 56.667 88.667 93 102 109h41l-62 -156h33v-31h-43l-19 -49c-2 -8 -1 -12.333 3 -13l19 -1
c4 -1.33301 6 -4 6 -8c0 -6 -3.33301 -9 -10 -9c-4 0 -13 0.5 -27 1.5s-22.333 1.5 -25 1.5zM310.999 107.997l35 87c-28 -29.333 -55.667 -58.333 -83 -87h48zM96.999 222.997l-52 -3.00195c-4.66699 0 -7 2.66699 -7 8s2.33301 8 7 8c14.667 0 24.667 1.66699 30 5
c2.66699 3.33301 4.66699 7 6 11l65 168l3 11c0 10 -4.66699 15 -14 15h-13c-4 0 -6 2 -6 6c0 6 2.66699 9 8 9h22c16 0 27.833 2 35.5 6s15.167 8 22.5 12l4 1c4.66699 -1.33301 7 -3.33301 7 -6l-2 -4l-82 -220c-3.33301 -7.33301 -2.33301 -11.666 3 -12.999l18 -1
c4 -1.33301 6 -3.66602 6 -6.99902c0 -6 -3.33301 -9 -10 -9c-3.33301 0 -12 0.5 -26 1.5s-22.333 1.5 -25 1.5z" />
    <glyph glyph-name="onequarter" unicode="&#x458;" horiz-adv-x="454" 
d="M59 0c-4.66699 0 -8 1.99805 -10 5.99805s-2 7 0 9l334 448l5 3c3.33301 0 6.33301 -1.66699 9 -5s3 -6.66602 1 -9.99902l-332 -447c-0.666992 -1.33301 -3 -2.66602 -7 -3.99902zM298 -0.00195312l-54.001 -3.00098c-5.33301 0 -8 2.66699 -8 8c0 6 2.66699 9 8 9
c14.667 0 25 1.66699 31 5c2.66699 3.33301 4.66699 7 6 11l19 47h-68c-3.33301 0 -5.66602 2.33301 -6.99902 7s-1 8.33398 1 11.001c13.333 16.667 31.333 36.667 54 60c54.667 56.667 88.667 93 102 109h41l-62 -156h33v-31h-43l-19 -49c-2 -8 -1 -12.333 3 -13l19 -1
c4 -1.33301 6 -4 6 -8c0 -6 -3.33301 -9 -10 -9c-4 0 -13 0.5 -27 1.5s-22.333 1.5 -25 1.5zM310.999 107.997l35 87c-28 -29.333 -55.667 -58.333 -83 -87h48zM96.999 222.997l-52 -3.00195c-4.66699 0 -7 2.66699 -7 8s2.33301 8 7 8c14.667 0 24.667 1.66699 30 5
c2.66699 3.33301 4.66699 7 6 11l65 168l3 11c0 10 -4.66699 15 -14 15h-13c-4 0 -6 2 -6 6c0 6 2.66699 9 8 9h22c16 0 27.833 2 35.5 6s15.167 8 22.5 12l4 1c4.66699 -1.33301 7 -3.33301 7 -6l-2 -4l-82 -220c-3.33301 -7.33301 -2.33301 -11.666 3 -12.999l18 -1
c4 -1.33301 6 -3.66602 6 -6.99902c0 -6 -3.33301 -9 -10 -9c-3.33301 0 -12 0.5 -26 1.5s-22.333 1.5 -25 1.5z" />
    <glyph glyph-name="onehalf" unicode="&#xbd;" horiz-adv-x="454" 
d="M59 0c-4.66699 0 -8 1.99805 -10 5.99805s-2 7 0 9l334 448l5 3c3.33301 0 6.33301 -1.66699 9 -5s3 -6.66602 1 -9.99902l-332 -447c-0.666992 -1.33301 -3 -2.66602 -7 -3.99902zM322 -14.002c-12.667 0 -29.668 8 -51.001 24c-10.667 8 -19.667 12 -27 12
c-10.667 0 -17.667 -2.16699 -21 -6.5s-6 -11.833 -8 -22.5c0 -4.66699 -2.33301 -7 -7 -7c-6 0 -9 2.66699 -9 8c2 13.333 7.5 28.333 16.5 45s21.5 30.334 37.5 41.001c4.66699 3.33301 17 10.166 37 20.499s32.667 18.166 38 23.499c10 8 19.167 21.333 27.5 40
s12.5 35.667 12.5 51s-8.33301 23 -25 23c-11.333 0 -21 -3 -29 -9s-12 -13.667 -12 -23c0 -0.666992 3.66699 -2.66699 11 -6s11 -8.66602 11 -15.999c0 -6 -2.83301 -12.167 -8.5 -18.5s-12.167 -9.5 -19.5 -9.5c-6.66699 0 -12.834 3.16699 -18.501 9.5
s-8.5 12.5 -8.5 18.5c0 20 9.33301 37.333 28 52c15.333 12 33.333 18 54 18c14.667 0 28.834 -5.16699 42.501 -15.5s20.5 -24.833 20.5 -43.5c0 -44 -26.667 -76.333 -80 -97c-18 -6 -32.333 -11 -43 -15s-19.667 -8.66699 -27 -14s-14.666 -12 -21.999 -20l-7 -7
c0 -0.666992 2.5 -0.166992 7.5 1.5s12.833 2.5 23.5 2.5c10 -2 21.167 -4.16699 33.5 -6.5s22.166 -3.5 29.499 -3.5c14.667 0 25 4 31 12c2.66699 4 5 9.66699 7 17s5 11 9 11c6.66699 0 9.33398 -3 8.00098 -9c-4 -20 -8.66699 -35.333 -14 -46
c-12 -23.333 -28 -35 -48 -35zM96.999 222.998l-52 -3.00195c-4.66699 0 -7 2.66699 -7 8s2.33301 8 7 8c14.667 0 24.667 1.66699 30 5c2.66699 3.33301 4.66699 7 6 11l65 168l3 11c0 10 -4.66699 15 -14 15h-13c-4 0 -6 2 -6 6c0 6 2.66699 9 8 9h22
c16 0 27.833 2 35.5 6s15.167 8 22.5 12l4 1c4.66699 -1.33301 7 -3.33301 7 -6l-2 -4l-82 -220c-3.33301 -7.33301 -2.33301 -11.666 3 -12.999l18 -1c4 -1.33301 6 -3.66602 6 -6.99902c0 -6 -3.33301 -9 -10 -9c-3.33301 0 -12 0.5 -26 1.5s-22.333 1.5 -25 1.5z" />
    <glyph glyph-name="onehalf" unicode="&#x405;" horiz-adv-x="454" 
d="M59 0c-4.66699 0 -8 1.99805 -10 5.99805s-2 7 0 9l334 448l5 3c3.33301 0 6.33301 -1.66699 9 -5s3 -6.66602 1 -9.99902l-332 -447c-0.666992 -1.33301 -3 -2.66602 -7 -3.99902zM322 -14.002c-12.667 0 -29.668 8 -51.001 24c-10.667 8 -19.667 12 -27 12
c-10.667 0 -17.667 -2.16699 -21 -6.5s-6 -11.833 -8 -22.5c0 -4.66699 -2.33301 -7 -7 -7c-6 0 -9 2.66699 -9 8c2 13.333 7.5 28.333 16.5 45s21.5 30.334 37.5 41.001c4.66699 3.33301 17 10.166 37 20.499s32.667 18.166 38 23.499c10 8 19.167 21.333 27.5 40
s12.5 35.667 12.5 51s-8.33301 23 -25 23c-11.333 0 -21 -3 -29 -9s-12 -13.667 -12 -23c0 -0.666992 3.66699 -2.66699 11 -6s11 -8.66602 11 -15.999c0 -6 -2.83301 -12.167 -8.5 -18.5s-12.167 -9.5 -19.5 -9.5c-6.66699 0 -12.834 3.16699 -18.501 9.5
s-8.5 12.5 -8.5 18.5c0 20 9.33301 37.333 28 52c15.333 12 33.333 18 54 18c14.667 0 28.834 -5.16699 42.501 -15.5s20.5 -24.833 20.5 -43.5c0 -44 -26.667 -76.333 -80 -97c-18 -6 -32.333 -11 -43 -15s-19.667 -8.66699 -27 -14s-14.666 -12 -21.999 -20l-7 -7
c0 -0.666992 2.5 -0.166992 7.5 1.5s12.833 2.5 23.5 2.5c10 -2 21.167 -4.16699 33.5 -6.5s22.166 -3.5 29.499 -3.5c14.667 0 25 4 31 12c2.66699 4 5 9.66699 7 17s5 11 9 11c6.66699 0 9.33398 -3 8.00098 -9c-4 -20 -8.66699 -35.333 -14 -46
c-12 -23.333 -28 -35 -48 -35zM96.999 222.998l-52 -3.00195c-4.66699 0 -7 2.66699 -7 8s2.33301 8 7 8c14.667 0 24.667 1.66699 30 5c2.66699 3.33301 4.66699 7 6 11l65 168l3 11c0 10 -4.66699 15 -14 15h-13c-4 0 -6 2 -6 6c0 6 2.66699 9 8 9h22
c16 0 27.833 2 35.5 6s15.167 8 22.5 12l4 1c4.66699 -1.33301 7 -3.33301 7 -6l-2 -4l-82 -220c-3.33301 -7.33301 -2.33301 -11.666 3 -12.999l18 -1c4 -1.33301 6 -3.66602 6 -6.99902c0 -6 -3.33301 -9 -10 -9c-3.33301 0 -12 0.5 -26 1.5s-22.333 1.5 -25 1.5z" />
    <glyph glyph-name="threequarters" unicode="&#xbe;" horiz-adv-x="454" 
d="M83 0c-4.66699 0 -8 1.99805 -10 5.99805s-2 7 0 9l334 448l5 3c3.33301 0 6.33301 -1.66699 9 -5s3 -6.66602 1 -9.99902l-332 -447c-0.666992 -1.33301 -3 -2.66602 -7 -3.99902zM309 -0.00195312l-54.001 -3.00098c-5.33301 0 -8 2.66699 -8 8c0 6 2.66699 9 8 9
c14.667 0 25 1.66699 31 5c2.66699 3.33301 4.66699 7 6 11l19 47h-68c-3.33301 0 -5.66602 2.33301 -6.99902 7s-1 8.33398 1 11.001c13.333 16.667 31.333 36.667 54 60c54.667 56.667 88.667 93 102 109h41l-62 -156h33v-31h-43l-19 -49c-2 -8 -1 -12.333 3 -13l19 -1
c4 -1.33301 6 -4 6 -8c0 -6 -3.33301 -9 -10 -9c-4 0 -13 0.5 -27 1.5s-22.333 1.5 -25 1.5zM321.999 107.997l35 87c-28 -29.333 -55.667 -58.333 -83 -87h48zM107.999 211.997c-18.667 0 -34.3311 4.16797 -46.998 12.501s-19 20.5 -19 36.5c0 10.667 3.5 20.667 10.5 30
s15.833 14 26.5 14c18.667 0 28 -7.66699 28 -23c0 -6.66699 -2.33301 -12.5 -7 -17.5s-10 -7.5 -16 -7.5c-3.33301 0 -6 0.666992 -8 2s-4 3 -6 5c-4.66699 0 -7 -4 -7 -12s3.33301 -14 10 -18s16 -6 28 -6c20.667 0 37 12.667 49 38c9.33301 19.333 14 38 14 56
c0 11.333 -2.5 18.5 -7.5 21.5s-13.167 4.5 -24.5 4.5l-32 1c-2.66699 0 -4 2 -4 6s1.33301 6.66699 4 8c2.66699 0.666992 7 1 13 1s11.5 -0.333008 16.5 -1s10.167 -1.33398 15.5 -2.00098c9.33301 0 18.666 4.33301 27.999 13c6 5.33301 12.5 15.333 19.5 30
s10.5 28 10.5 40c0 6 -2.5 10.833 -7.5 14.5s-10.5 5.5 -16.5 5.5c-9.33301 0 -19 -2.66699 -29 -8s-15 -12.666 -15 -21.999c0 -1.33301 3.83301 -3.33301 11.5 -6s11.5 -8.66699 11.5 -18c0 -7.33301 -2.83301 -13.5 -8.5 -18.5s-11.834 -7.5 -18.501 -7.5
c-8 0 -14.833 3.16699 -20.5 9.5s-8.5 13.166 -8.5 20.499c0 14 7.33301 28 22 42c17.333 16 37 24 59 24c17.333 0 32.5 -4.5 45.5 -13.5s19.5 -21.167 19.5 -36.5c0 -22 -6.83301 -39.5 -20.5 -52.5s-28.5 -20.833 -44.5 -23.5c8 -3.33301 14.667 -10 20 -20s8 -21 8 -33
c0 -22.667 -9.5 -43.167 -28.5 -61.5s-43.833 -27.5 -74.5 -27.5z" />
    <glyph glyph-name="threequarters" unicode="&#x455;" horiz-adv-x="454" 
d="M83 0c-4.66699 0 -8 1.99805 -10 5.99805s-2 7 0 9l334 448l5 3c3.33301 0 6.33301 -1.66699 9 -5s3 -6.66602 1 -9.99902l-332 -447c-0.666992 -1.33301 -3 -2.66602 -7 -3.99902zM309 -0.00195312l-54.001 -3.00098c-5.33301 0 -8 2.66699 -8 8c0 6 2.66699 9 8 9
c14.667 0 25 1.66699 31 5c2.66699 3.33301 4.66699 7 6 11l19 47h-68c-3.33301 0 -5.66602 2.33301 -6.99902 7s-1 8.33398 1 11.001c13.333 16.667 31.333 36.667 54 60c54.667 56.667 88.667 93 102 109h41l-62 -156h33v-31h-43l-19 -49c-2 -8 -1 -12.333 3 -13l19 -1
c4 -1.33301 6 -4 6 -8c0 -6 -3.33301 -9 -10 -9c-4 0 -13 0.5 -27 1.5s-22.333 1.5 -25 1.5zM321.999 107.997l35 87c-28 -29.333 -55.667 -58.333 -83 -87h48zM107.999 211.997c-18.667 0 -34.3311 4.16797 -46.998 12.501s-19 20.5 -19 36.5c0 10.667 3.5 20.667 10.5 30
s15.833 14 26.5 14c18.667 0 28 -7.66699 28 -23c0 -6.66699 -2.33301 -12.5 -7 -17.5s-10 -7.5 -16 -7.5c-3.33301 0 -6 0.666992 -8 2s-4 3 -6 5c-4.66699 0 -7 -4 -7 -12s3.33301 -14 10 -18s16 -6 28 -6c20.667 0 37 12.667 49 38c9.33301 19.333 14 38 14 56
c0 11.333 -2.5 18.5 -7.5 21.5s-13.167 4.5 -24.5 4.5l-32 1c-2.66699 0 -4 2 -4 6s1.33301 6.66699 4 8c2.66699 0.666992 7 1 13 1s11.5 -0.333008 16.5 -1s10.167 -1.33398 15.5 -2.00098c9.33301 0 18.666 4.33301 27.999 13c6 5.33301 12.5 15.333 19.5 30
s10.5 28 10.5 40c0 6 -2.5 10.833 -7.5 14.5s-10.5 5.5 -16.5 5.5c-9.33301 0 -19 -2.66699 -29 -8s-15 -12.666 -15 -21.999c0 -1.33301 3.83301 -3.33301 11.5 -6s11.5 -8.66699 11.5 -18c0 -7.33301 -2.83301 -13.5 -8.5 -18.5s-11.834 -7.5 -18.501 -7.5
c-8 0 -14.833 3.16699 -20.5 9.5s-8.5 13.166 -8.5 20.499c0 14 7.33301 28 22 42c17.333 16 37 24 59 24c17.333 0 32.5 -4.5 45.5 -13.5s19.5 -21.167 19.5 -36.5c0 -22 -6.83301 -39.5 -20.5 -52.5s-28.5 -20.833 -44.5 -23.5c8 -3.33301 14.667 -10 20 -20s8 -21 8 -33
c0 -22.667 -9.5 -43.167 -28.5 -61.5s-43.833 -27.5 -74.5 -27.5z" />
    <glyph glyph-name="questiondown" unicode="&#xbf;" horiz-adv-x="287" 
d="M222 182c0 -28 -23.0029 -67 -69.0029 -117c-79.333 -86 -122.666 -134 -129.999 -144c-46.667 -62 -70 -120.667 -70 -176c0 -17.333 7 -32.333 21 -45s30.667 -19 50 -19c24.667 0 45.834 5.5 63.501 16.5s26.5 24.5 26.5 40.5c0 4 -6.33301 9 -19 15
s-19 15.667 -19 29c0 14 5.5 25.833 16.5 35.5s23.833 14.5 38.5 14.5c12.667 0 23.167 -4.5 31.5 -13.5s12.5 -19.833 12.5 -32.5c0 -25.333 -13.333 -51 -40 -77c-31.333 -30.667 -68.333 -46 -111 -46c-36.667 0 -68.667 11.833 -96 35.5s-41 53.167 -41 88.5
c0 54 26.333 107 79 159c49.333 40 99 80.333 149 121c53.333 44.667 80 83.667 80 117c0 2.66699 -1 6 -3 10s-3 8.33301 -3 13c0 5.33301 5 8 15 8c8.66699 0 13.834 -2 15.501 -6s2.5 -13 2.5 -27zM230.997 256c-7.33301 0 -13.666 3.33105 -18.999 9.99805s-8 14 -8 22
c0 14.667 2.66699 26.334 8 35.001c8 13.333 21 20 39 20c20.667 0 31 -10 31 -30c0 -11.333 -5.33301 -23.666 -16 -36.999s-22.334 -20 -35.001 -20z" />
    <glyph glyph-name="questiondown" unicode="&#x457;" horiz-adv-x="287" 
d="M222 182c0 -28 -23.0029 -67 -69.0029 -117c-79.333 -86 -122.666 -134 -129.999 -144c-46.667 -62 -70 -120.667 -70 -176c0 -17.333 7 -32.333 21 -45s30.667 -19 50 -19c24.667 0 45.834 5.5 63.501 16.5s26.5 24.5 26.5 40.5c0 4 -6.33301 9 -19 15
s-19 15.667 -19 29c0 14 5.5 25.833 16.5 35.5s23.833 14.5 38.5 14.5c12.667 0 23.167 -4.5 31.5 -13.5s12.5 -19.833 12.5 -32.5c0 -25.333 -13.333 -51 -40 -77c-31.333 -30.667 -68.333 -46 -111 -46c-36.667 0 -68.667 11.833 -96 35.5s-41 53.167 -41 88.5
c0 54 26.333 107 79 159c49.333 40 99 80.333 149 121c53.333 44.667 80 83.667 80 117c0 2.66699 -1 6 -3 10s-3 8.33301 -3 13c0 5.33301 5 8 15 8c8.66699 0 13.834 -2 15.501 -6s2.5 -13 2.5 -27zM230.997 256c-7.33301 0 -13.666 3.33105 -18.999 9.99805s-8 14 -8 22
c0 14.667 2.66699 26.334 8 35.001c8 13.333 21 20 39 20c20.667 0 31 -10 31 -30c0 -11.333 -5.33301 -23.666 -16 -36.999s-22.334 -20 -35.001 -20z" />
    <glyph glyph-name="Agrave" unicode="&#xc0;" horiz-adv-x="870" 
d="M560 259l0.00390625 19.9971h61c12.667 16.667 25.667 33.334 39 50.001c25.333 31.333 55 61.333 89 90c48 40.667 107 81.334 177 122.001c-16 5.33301 -47.833 11.333 -95.5 18s-95.834 10 -144.501 10c-82.667 0 -161 -17.667 -235 -53
c-92.667 -44 -139 -103.333 -139 -178c0 -20.667 9.66699 -38.334 29 -53.001s42 -22 68 -22c52.667 0 99.334 22.667 140.001 68c36.667 40.667 55 80.334 55 119.001c0 17.333 -2.33301 28.333 -7 33c-1.33301 2 -1.33301 4.33301 0 7s3.33301 3.66699 6 3
c12.667 -4 21 -8.33301 25 -13c6.66699 -8 10 -24.333 10 -49c0 -37.333 -19.667 -76.333 -59 -117c-45.333 -46.667 -97.666 -70 -156.999 -70c-44 0 -78 12.667 -102 38s-36 58 -36 98c0 60 29 109.667 87 149c65.333 44.667 156 67 272 67
c53.333 0 105.833 -3.5 157.5 -10.5s104.5 -16.833 158.5 -29.5c13.333 -1.33301 32.166 3.33398 56.499 14.001s42.5 16 54.5 16c6 0 12.167 -2.5 18.5 -7.5s9.5 -10.167 9.5 -15.5c0 -12.667 -10 -21.5 -30 -26.5s-50.333 -7.5 -91 -7.5
c-12.667 -3.33301 -25.334 -10.333 -38.001 -21c-10 -8 -21.667 -20 -35 -36c-16.667 -18 -38 -49 -64 -93c-14.667 -24.667 -33 -58 -55 -100h80v-20h-87c-10.667 -16 -23.334 -43.333 -38.001 -82c-18 -48.667 -28.667 -91 -32 -127c0 -14.667 2.5 -26.334 7.5 -35.001
s14.167 -13 27.5 -13c24 0 46.333 18.667 67 56c10 18 21.333 46 34 84c0.666992 2 3 2.5 7 1.5s5.33301 -4.83301 4 -11.5c-11.333 -46 -27 -81.833 -47 -107.5s-43.667 -38.5 -71 -38.5c-19.333 0 -36.333 10.667 -51 32c-16.667 24 -25 54 -25 90
c0 20.667 4.33301 45.334 13 74.001c6.66699 22 16.334 47.667 29.001 77h-62c-28.667 -34 -57.334 -67.667 -86.001 -101c-26 -26 -61.667 -56 -107 -90c-32.667 -24 -67 -43 -103 -57c-42.667 -16.667 -85.334 -25 -128.001 -25c-54.667 0 -101.334 11.333 -140.001 34
c-44.667 26 -67 62.333 -67 109c0 16 7 32.333 21 49s28.667 25 44 25c16 0 27.167 -3.16699 33.5 -9.5s9.5 -14.833 9.5 -25.5c0 -10 -3.33301 -19 -10 -27s-15.667 -12 -27 -12c-7.33301 0 -13.833 2.5 -19.5 7.5s-9.16699 7.5 -10.5 7.5c-4 0 -7.16699 -3 -9.5 -9
s-3.5 -12.667 -3.5 -20c0 -32 16 -58.833 48 -80.5s75.667 -32.5 131 -32.5c53.333 0 104.333 12.667 153 38c39.333 20.667 81 52.667 125 96c28.667 28.667 65 69.667 109 123h-44zM891.004 498.997c-41.333 -21.333 -85.667 -55.667 -133 -103
c-18.667 -18.667 -53.667 -57.667 -105 -117h62c24.667 41.333 45.667 73.333 63 96c30.667 40.667 68.667 81 114 121z" />
    <glyph glyph-name="Agrave" unicode="&#x410;" horiz-adv-x="870" 
d="M560 259l0.00390625 19.9971h61c12.667 16.667 25.667 33.334 39 50.001c25.333 31.333 55 61.333 89 90c48 40.667 107 81.334 177 122.001c-16 5.33301 -47.833 11.333 -95.5 18s-95.834 10 -144.501 10c-82.667 0 -161 -17.667 -235 -53
c-92.667 -44 -139 -103.333 -139 -178c0 -20.667 9.66699 -38.334 29 -53.001s42 -22 68 -22c52.667 0 99.334 22.667 140.001 68c36.667 40.667 55 80.334 55 119.001c0 17.333 -2.33301 28.333 -7 33c-1.33301 2 -1.33301 4.33301 0 7s3.33301 3.66699 6 3
c12.667 -4 21 -8.33301 25 -13c6.66699 -8 10 -24.333 10 -49c0 -37.333 -19.667 -76.333 -59 -117c-45.333 -46.667 -97.666 -70 -156.999 -70c-44 0 -78 12.667 -102 38s-36 58 -36 98c0 60 29 109.667 87 149c65.333 44.667 156 67 272 67
c53.333 0 105.833 -3.5 157.5 -10.5s104.5 -16.833 158.5 -29.5c13.333 -1.33301 32.166 3.33398 56.499 14.001s42.5 16 54.5 16c6 0 12.167 -2.5 18.5 -7.5s9.5 -10.167 9.5 -15.5c0 -12.667 -10 -21.5 -30 -26.5s-50.333 -7.5 -91 -7.5
c-12.667 -3.33301 -25.334 -10.333 -38.001 -21c-10 -8 -21.667 -20 -35 -36c-16.667 -18 -38 -49 -64 -93c-14.667 -24.667 -33 -58 -55 -100h80v-20h-87c-10.667 -16 -23.334 -43.333 -38.001 -82c-18 -48.667 -28.667 -91 -32 -127c0 -14.667 2.5 -26.334 7.5 -35.001
s14.167 -13 27.5 -13c24 0 46.333 18.667 67 56c10 18 21.333 46 34 84c0.666992 2 3 2.5 7 1.5s5.33301 -4.83301 4 -11.5c-11.333 -46 -27 -81.833 -47 -107.5s-43.667 -38.5 -71 -38.5c-19.333 0 -36.333 10.667 -51 32c-16.667 24 -25 54 -25 90
c0 20.667 4.33301 45.334 13 74.001c6.66699 22 16.334 47.667 29.001 77h-62c-28.667 -34 -57.334 -67.667 -86.001 -101c-26 -26 -61.667 -56 -107 -90c-32.667 -24 -67 -43 -103 -57c-42.667 -16.667 -85.334 -25 -128.001 -25c-54.667 0 -101.334 11.333 -140.001 34
c-44.667 26 -67 62.333 -67 109c0 16 7 32.333 21 49s28.667 25 44 25c16 0 27.167 -3.16699 33.5 -9.5s9.5 -14.833 9.5 -25.5c0 -10 -3.33301 -19 -10 -27s-15.667 -12 -27 -12c-7.33301 0 -13.833 2.5 -19.5 7.5s-9.16699 7.5 -10.5 7.5c-4 0 -7.16699 -3 -9.5 -9
s-3.5 -12.667 -3.5 -20c0 -32 16 -58.833 48 -80.5s75.667 -32.5 131 -32.5c53.333 0 104.333 12.667 153 38c39.333 20.667 81 52.667 125 96c28.667 28.667 65 69.667 109 123h-44zM891.004 498.997c-41.333 -21.333 -85.667 -55.667 -133 -103
c-18.667 -18.667 -53.667 -57.667 -105 -117h62c24.667 41.333 45.667 73.333 63 96c30.667 40.667 68.667 81 114 121z" />
    <glyph glyph-name="Aacute" unicode="&#xc1;" horiz-adv-x="1084" 
d="M706 175l-8.99805 -25.999c-10 -33.333 -21.667 -64 -35 -92c-16.667 -34.667 -36.334 -68.667 -59.001 -102c-40 -54.667 -91 -96.667 -153 -126s-131 -44 -207 -44c-70.667 0 -128 15.333 -172 46c-47.333 33.333 -71 80 -71 140c0 52.667 25 106.667 75 162
c63.333 69.333 143.666 104 240.999 104c42 0 78.333 -8.66699 109 -26c37.333 -21.333 56 -51 56 -89c0 -34.667 -16 -69 -48 -103c-40 -42.667 -91.667 -64 -155 -64c-27.333 0 -52 6 -74 18c-25.333 14 -38 32.667 -38 56c0 8.66699 1.66699 17 5 25
c3.33301 1.33301 7 1.33301 11 0l-1 -11c0 -26 8 -42.667 24 -50c10 -4.66699 31 -7 63 -7c46.667 0 87.334 15.5 122.001 46.5s52 64.833 52 101.5c0 26 -11.833 47 -35.5 63s-50.5 24 -80.5 24c-71.333 0 -133.166 -23.833 -185.499 -71.5s-78.5 -103.5 -78.5 -167.5
c0 -57.333 21 -102.333 63 -135c39.333 -30.667 88.666 -46 147.999 -46c82 0 153 33.667 213 101c44 49.333 86 122.333 126 219c26.667 68 53.667 136 81 204c31.333 68.667 64.333 119 99 151c26.667 24.667 67.334 47.667 122.001 69
c-38.667 8.66699 -94.5 18.167 -167.5 28.5s-125.167 15.5 -156.5 15.5c-64.667 0 -120.334 -14.333 -167.001 -43c-53.333 -32.667 -80 -77 -80 -133c0 -42.667 18.333 -78.334 55 -107.001c33.333 -26 69.666 -39 108.999 -39c20.667 0 40 3.33301 58 10
c11.333 4 24 10.667 38 20c1.33301 1.33301 3 1.33301 5 0s2 -3.66602 0 -6.99902c-4.66699 -9.33301 -14 -17.333 -28 -24c-21.333 -10 -50.333 -15 -87 -15c-54.667 0 -99.5 12.333 -134.5 37s-52.5 57.334 -52.5 98.001c0 87.333 45.667 152.333 137 195
c66.667 31.333 142.334 47 227.001 47c46.667 0 112.334 -5.33301 197.001 -16s143.667 -16 177 -16c26.667 0 46.667 1.16699 60 3.5s27.333 8.5 42 18.5c2 1.33301 4.66699 3.33301 8 6s5.66602 4 6.99902 4l4 -6c1.33301 -2 2 -5 2 -9
c-1.33301 -2 -2.33301 -3.83301 -3 -5.5s-1.66699 -3.16699 -3 -4.5c-25.333 -28 -49.166 -47.333 -71.499 -58s-48.5 -16 -78.5 -16c-14.667 0 -29 1.16699 -43 3.5s-28 5.5 -42 9.5l7 -11c-31.333 -6.66699 -61.666 -26.334 -90.999 -59.001
c-34 -36.667 -63 -85.667 -87 -147l-9 -23c21.333 32.667 52.666 60.667 93.999 84s81.333 35 120 35c34 0 62.5 -10.167 85.5 -30.5s34.5 -46.166 34.5 -77.499c0 -92.667 -24.667 -170.334 -74 -233.001s-110 -94 -182 -94c-29.333 0 -51.833 8.5 -67.5 25.5
s-23.5 40.5 -23.5 70.5c0 60 18.333 111.333 55 154s80.667 64 132 64c6.66699 0 13.667 -1.5 21 -4.5s12.666 -5.16699 15.999 -6.5c2 -1.33301 2.66699 -3.33301 2 -6s-1.66699 -3.66699 -3 -3c-11.333 2.66699 -22.333 4 -33 4c-42 0 -77.833 -22.5 -107.5 -67.5
s-44.5 -99.5 -44.5 -163.5c0 -34 17 -51 51 -51c55.333 0 102.166 29.5 140.499 88.5s57.5 133.167 57.5 222.5c0 24 -7.5 44.5 -22.5 61.5s-34.167 25.5 -57.5 25.5c-43.333 0 -87.833 -21.833 -133.5 -65.5s-79.167 -96.834 -100.5 -159.501z" />
    <glyph glyph-name="Aacute" unicode="&#x411;" horiz-adv-x="1084" 
d="M706 175l-8.99805 -25.999c-10 -33.333 -21.667 -64 -35 -92c-16.667 -34.667 -36.334 -68.667 -59.001 -102c-40 -54.667 -91 -96.667 -153 -126s-131 -44 -207 -44c-70.667 0 -128 15.333 -172 46c-47.333 33.333 -71 80 -71 140c0 52.667 25 106.667 75 162
c63.333 69.333 143.666 104 240.999 104c42 0 78.333 -8.66699 109 -26c37.333 -21.333 56 -51 56 -89c0 -34.667 -16 -69 -48 -103c-40 -42.667 -91.667 -64 -155 -64c-27.333 0 -52 6 -74 18c-25.333 14 -38 32.667 -38 56c0 8.66699 1.66699 17 5 25
c3.33301 1.33301 7 1.33301 11 0l-1 -11c0 -26 8 -42.667 24 -50c10 -4.66699 31 -7 63 -7c46.667 0 87.334 15.5 122.001 46.5s52 64.833 52 101.5c0 26 -11.833 47 -35.5 63s-50.5 24 -80.5 24c-71.333 0 -133.166 -23.833 -185.499 -71.5s-78.5 -103.5 -78.5 -167.5
c0 -57.333 21 -102.333 63 -135c39.333 -30.667 88.666 -46 147.999 -46c82 0 153 33.667 213 101c44 49.333 86 122.333 126 219c26.667 68 53.667 136 81 204c31.333 68.667 64.333 119 99 151c26.667 24.667 67.334 47.667 122.001 69
c-38.667 8.66699 -94.5 18.167 -167.5 28.5s-125.167 15.5 -156.5 15.5c-64.667 0 -120.334 -14.333 -167.001 -43c-53.333 -32.667 -80 -77 -80 -133c0 -42.667 18.333 -78.334 55 -107.001c33.333 -26 69.666 -39 108.999 -39c20.667 0 40 3.33301 58 10
c11.333 4 24 10.667 38 20c1.33301 1.33301 3 1.33301 5 0s2 -3.66602 0 -6.99902c-4.66699 -9.33301 -14 -17.333 -28 -24c-21.333 -10 -50.333 -15 -87 -15c-54.667 0 -99.5 12.333 -134.5 37s-52.5 57.334 -52.5 98.001c0 87.333 45.667 152.333 137 195
c66.667 31.333 142.334 47 227.001 47c46.667 0 112.334 -5.33301 197.001 -16s143.667 -16 177 -16c26.667 0 46.667 1.16699 60 3.5s27.333 8.5 42 18.5c2 1.33301 4.66699 3.33301 8 6s5.66602 4 6.99902 4l4 -6c1.33301 -2 2 -5 2 -9
c-1.33301 -2 -2.33301 -3.83301 -3 -5.5s-1.66699 -3.16699 -3 -4.5c-25.333 -28 -49.166 -47.333 -71.499 -58s-48.5 -16 -78.5 -16c-14.667 0 -29 1.16699 -43 3.5s-28 5.5 -42 9.5l7 -11c-31.333 -6.66699 -61.666 -26.334 -90.999 -59.001
c-34 -36.667 -63 -85.667 -87 -147l-9 -23c21.333 32.667 52.666 60.667 93.999 84s81.333 35 120 35c34 0 62.5 -10.167 85.5 -30.5s34.5 -46.166 34.5 -77.499c0 -92.667 -24.667 -170.334 -74 -233.001s-110 -94 -182 -94c-29.333 0 -51.833 8.5 -67.5 25.5
s-23.5 40.5 -23.5 70.5c0 60 18.333 111.333 55 154s80.667 64 132 64c6.66699 0 13.667 -1.5 21 -4.5s12.666 -5.16699 15.999 -6.5c2 -1.33301 2.66699 -3.33301 2 -6s-1.66699 -3.66699 -3 -3c-11.333 2.66699 -22.333 4 -33 4c-42 0 -77.833 -22.5 -107.5 -67.5
s-44.5 -99.5 -44.5 -163.5c0 -34 17 -51 51 -51c55.333 0 102.166 29.5 140.499 88.5s57.5 133.167 57.5 222.5c0 24 -7.5 44.5 -22.5 61.5s-34.167 25.5 -57.5 25.5c-43.333 0 -87.833 -21.833 -133.5 -65.5s-79.167 -96.834 -100.5 -159.501z" />
    <glyph glyph-name="Acircumflex" unicode="&#xc2;" horiz-adv-x="754" 
d="M432 -14c-11.333 0 -29.1689 0.333984 -53.502 1.00098s-42.166 1 -53.499 1h-22c-6.66699 0 -13.667 -0.666992 -21 -2c-48 -6.66699 -86.333 -16.334 -115 -29.001l-68 -36c-4.66699 0 -9.83398 2.83301 -15.501 8.5s-8.5 11.167 -8.5 16.5
c0 18.667 22 34.334 66 47.001c36 8.66699 72 17.667 108 27c18.667 6.66699 37 19.667 55 39c26.667 28.667 50.667 69.667 72 123c11.333 30.667 20.666 56.334 27.999 77.001c13.333 36 28 70.667 44 104c32 66.667 72.667 123.334 122 170.001
c-12 3.33301 -26.667 5.66602 -44 6.99902s-34.333 2 -51 2c-99.333 0 -193 -35.333 -281 -106c-79.333 -64 -119 -123 -119 -177c0 -22 7.5 -39.833 22.5 -53.5s35.167 -20.5 60.5 -20.5c56.667 0 106.334 26.333 149.001 79c36 44.667 54 85.667 54 123
c0 18 -6.33301 33.333 -19 46c-2 2 -1.66699 4.5 1 7.5s5.33398 3.5 8.00098 1.5c15.333 -11.333 25.666 -22.833 30.999 -34.5s8 -25.5 8 -41.5c0 -61.333 -26.333 -111.333 -79 -150c-44 -32.667 -89.333 -49 -136 -49c-28.667 0 -54.667 7.66699 -78 23
c-34.667 22.667 -52 57.334 -52 104.001c0 59.333 29 115.666 87 168.999c72 66.667 166 100 282 100c41.333 0 76.833 -1.33301 106.5 -4s51.5 -5.66699 65.5 -9c48.667 29.333 84 48.333 106 57c36 14 69.667 21 101 21c18 0 35.667 -4.16699 53 -12.5
s26 -20.166 26 -35.499c0 -12.667 -3 -22.667 -9 -30s-16.333 -11 -31 -11c-12.667 0 -21.5 2.83301 -26.5 8.5s-7.5 12.167 -7.5 19.5c0 3.33301 1.33301 8 4 14s4 10.333 4 13c0 5.33301 -4.16699 8.66602 -12.5 9.99902s-19.166 2 -32.499 2
c-22 0 -46.667 -7.66699 -74 -23c-21.333 -12 -39.666 -26.333 -54.999 -43c52.667 -18.667 89.667 -39 111 -61c18 -18.667 27 -40.334 27 -65.001c0 -46 -23.333 -82.667 -70 -110c-18 -10.667 -51.667 -23.334 -101 -38.001c34.667 -8 60 -17.333 76 -28
c28 -18 42 -43.333 42 -76c0 -54 -30 -97.667 -90 -131c-54 -30 -119 -45 -195 -45zM616.997 519.001c-34.667 -42 -76.332 -120.668 -124.999 -236.001c2.66699 -1.33301 5.66699 -2.16602 9 -2.49902s9.33301 -0.5 18 -0.5c41.333 0 76.666 8.33301 105.999 25
c43.333 24.667 65 64 65 118c0 26 -7.16699 47 -21.5 63s-31.5 27 -51.5 33zM245.999 0l0.000976562 -4c40.667 2.66699 81.667 5.66699 123 9c74.667 6.66699 132.667 20 174 40c59.333 28 89 69.333 89 124c0 28.667 -11.667 51 -35 67c-19.333 13.333 -43 20 -71 20
c-14.667 0 -28.334 2.66699 -41.001 8c-28 -79.333 -68.333 -143 -121 -191c-34 -30.667 -73.333 -55 -118 -73z" />
    <glyph glyph-name="Acircumflex" unicode="&#x412;" horiz-adv-x="754" 
d="M432 -14c-11.333 0 -29.1689 0.333984 -53.502 1.00098s-42.166 1 -53.499 1h-22c-6.66699 0 -13.667 -0.666992 -21 -2c-48 -6.66699 -86.333 -16.334 -115 -29.001l-68 -36c-4.66699 0 -9.83398 2.83301 -15.501 8.5s-8.5 11.167 -8.5 16.5
c0 18.667 22 34.334 66 47.001c36 8.66699 72 17.667 108 27c18.667 6.66699 37 19.667 55 39c26.667 28.667 50.667 69.667 72 123c11.333 30.667 20.666 56.334 27.999 77.001c13.333 36 28 70.667 44 104c32 66.667 72.667 123.334 122 170.001
c-12 3.33301 -26.667 5.66602 -44 6.99902s-34.333 2 -51 2c-99.333 0 -193 -35.333 -281 -106c-79.333 -64 -119 -123 -119 -177c0 -22 7.5 -39.833 22.5 -53.5s35.167 -20.5 60.5 -20.5c56.667 0 106.334 26.333 149.001 79c36 44.667 54 85.667 54 123
c0 18 -6.33301 33.333 -19 46c-2 2 -1.66699 4.5 1 7.5s5.33398 3.5 8.00098 1.5c15.333 -11.333 25.666 -22.833 30.999 -34.5s8 -25.5 8 -41.5c0 -61.333 -26.333 -111.333 -79 -150c-44 -32.667 -89.333 -49 -136 -49c-28.667 0 -54.667 7.66699 -78 23
c-34.667 22.667 -52 57.334 -52 104.001c0 59.333 29 115.666 87 168.999c72 66.667 166 100 282 100c41.333 0 76.833 -1.33301 106.5 -4s51.5 -5.66699 65.5 -9c48.667 29.333 84 48.333 106 57c36 14 69.667 21 101 21c18 0 35.667 -4.16699 53 -12.5
s26 -20.166 26 -35.499c0 -12.667 -3 -22.667 -9 -30s-16.333 -11 -31 -11c-12.667 0 -21.5 2.83301 -26.5 8.5s-7.5 12.167 -7.5 19.5c0 3.33301 1.33301 8 4 14s4 10.333 4 13c0 5.33301 -4.16699 8.66602 -12.5 9.99902s-19.166 2 -32.499 2
c-22 0 -46.667 -7.66699 -74 -23c-21.333 -12 -39.666 -26.333 -54.999 -43c52.667 -18.667 89.667 -39 111 -61c18 -18.667 27 -40.334 27 -65.001c0 -46 -23.333 -82.667 -70 -110c-18 -10.667 -51.667 -23.334 -101 -38.001c34.667 -8 60 -17.333 76 -28
c28 -18 42 -43.333 42 -76c0 -54 -30 -97.667 -90 -131c-54 -30 -119 -45 -195 -45zM616.997 519.001c-34.667 -42 -76.332 -120.668 -124.999 -236.001c2.66699 -1.33301 5.66699 -2.16602 9 -2.49902s9.33301 -0.5 18 -0.5c41.333 0 76.666 8.33301 105.999 25
c43.333 24.667 65 64 65 118c0 26 -7.16699 47 -21.5 63s-31.5 27 -51.5 33zM245.999 0l0.000976562 -4c40.667 2.66699 81.667 5.66699 123 9c74.667 6.66699 132.667 20 174 40c59.333 28 89 69.333 89 124c0 28.667 -11.667 51 -35 67c-19.333 13.333 -43 20 -71 20
c-14.667 0 -28.334 2.66699 -41.001 8c-28 -79.333 -68.333 -143 -121 -191c-34 -30.667 -73.333 -55 -118 -73z" />
    <glyph glyph-name="Atilde" unicode="&#xc3;" horiz-adv-x="712" 
d="M1088 668c-4.66699 -7.33301 -9.00391 -14.6729 -13.0039 -22.0059c-6.66699 -11.333 -14 -21.666 -22 -30.999c-15.333 -19.333 -37.666 -32.666 -66.999 -39.999c-20.667 -5.33301 -46.667 -8 -78 -8l-41 2c2 -2 4.33301 -4.16699 7 -6.5s2.66699 -4.5 0 -6.5
c-4 -2 -9.33301 -3.66699 -16 -5s-10.667 -2.33301 -12 -3c-42 -16.667 -75.833 -42.334 -101.5 -77.001s-52.834 -88 -81.501 -160c-38 -94 -71.667 -165 -101 -213c-37.333 -60.667 -78 -104.667 -122 -132c-48.667 -30 -108.667 -45 -180 -45
c-81.333 0 -144.666 25.333 -189.999 76c-40 44.667 -60 100.334 -60 167.001c0 86.667 36.333 162.334 109 227.001c66.667 59.333 137 89 211 89c44 0 78.333 -12.667 103 -38s37 -58.666 37 -99.999c0 -64 -30.333 -120.667 -91 -170
c-51.333 -42 -97.666 -63 -138.999 -63c-26.667 0 -48 5 -64 15c-21.333 13.333 -32 34.333 -32 63c0 12.667 4.33301 25.667 13 39c0.666992 1.33301 2.5 1.33301 5.5 0s4.16699 -3 3.5 -5c-4 -14 -6 -26.667 -6 -38c0 -35.333 21.667 -53 65 -53c32.667 0 72 21 118 63
c57.333 52.667 86 115.334 86 188.001c0 27.333 -7.83301 47.333 -23.5 60s-35.834 19 -60.501 19c-19.333 0 -50.333 -13.333 -93 -40c-52.667 -32.667 -96 -72 -130 -118c-44 -59.333 -66 -123 -66 -191c0 -56 19.333 -99 58 -129c35.333 -27.333 80.333 -41 135 -41
c29.333 0 58.333 6.33301 87 19c40.667 17.333 77.334 46.5 110.001 87.5s65.334 94.167 98.001 159.5c25.333 50.667 50.666 101.667 75.999 153c30 56 61.833 99.833 95.5 131.5s73.834 56.834 120.501 75.501c-8.66699 4 -59.167 10.5 -151.5 19.5
s-144.5 13.5 -156.5 13.5c-45.333 0 -82.333 -6 -111 -18c-38 -16 -57 -40.333 -57 -73c0 -5.33301 -2 -8 -6 -8c-9.33301 0 -14.333 3.5 -15 10.5s-1 14.833 -1 23.5c0 45.333 17.667 78.5 53 99.5s85.333 31.5 150 31.5c36.667 0 88 -3.33301 154 -10
c146 -14.667 235 -22 267 -22c26.667 0 48.334 4 65.001 12c10.667 5.33301 25.667 16.666 45 33.999c2.66699 2 6.5 1.33301 11.5 -2s6.5 -6.66602 4.5 -9.99902z" />
    <glyph glyph-name="Atilde" unicode="&#x413;" horiz-adv-x="712" 
d="M1088 668c-4.66699 -7.33301 -9.00391 -14.6729 -13.0039 -22.0059c-6.66699 -11.333 -14 -21.666 -22 -30.999c-15.333 -19.333 -37.666 -32.666 -66.999 -39.999c-20.667 -5.33301 -46.667 -8 -78 -8l-41 2c2 -2 4.33301 -4.16699 7 -6.5s2.66699 -4.5 0 -6.5
c-4 -2 -9.33301 -3.66699 -16 -5s-10.667 -2.33301 -12 -3c-42 -16.667 -75.833 -42.334 -101.5 -77.001s-52.834 -88 -81.501 -160c-38 -94 -71.667 -165 -101 -213c-37.333 -60.667 -78 -104.667 -122 -132c-48.667 -30 -108.667 -45 -180 -45
c-81.333 0 -144.666 25.333 -189.999 76c-40 44.667 -60 100.334 -60 167.001c0 86.667 36.333 162.334 109 227.001c66.667 59.333 137 89 211 89c44 0 78.333 -12.667 103 -38s37 -58.666 37 -99.999c0 -64 -30.333 -120.667 -91 -170
c-51.333 -42 -97.666 -63 -138.999 -63c-26.667 0 -48 5 -64 15c-21.333 13.333 -32 34.333 -32 63c0 12.667 4.33301 25.667 13 39c0.666992 1.33301 2.5 1.33301 5.5 0s4.16699 -3 3.5 -5c-4 -14 -6 -26.667 -6 -38c0 -35.333 21.667 -53 65 -53c32.667 0 72 21 118 63
c57.333 52.667 86 115.334 86 188.001c0 27.333 -7.83301 47.333 -23.5 60s-35.834 19 -60.501 19c-19.333 0 -50.333 -13.333 -93 -40c-52.667 -32.667 -96 -72 -130 -118c-44 -59.333 -66 -123 -66 -191c0 -56 19.333 -99 58 -129c35.333 -27.333 80.333 -41 135 -41
c29.333 0 58.333 6.33301 87 19c40.667 17.333 77.334 46.5 110.001 87.5s65.334 94.167 98.001 159.5c25.333 50.667 50.666 101.667 75.999 153c30 56 61.833 99.833 95.5 131.5s73.834 56.834 120.501 75.501c-8.66699 4 -59.167 10.5 -151.5 19.5
s-144.5 13.5 -156.5 13.5c-45.333 0 -82.333 -6 -111 -18c-38 -16 -57 -40.333 -57 -73c0 -5.33301 -2 -8 -6 -8c-9.33301 0 -14.333 3.5 -15 10.5s-1 14.833 -1 23.5c0 45.333 17.667 78.5 53 99.5s85.333 31.5 150 31.5c36.667 0 88 -3.33301 154 -10
c146 -14.667 235 -22 267 -22c26.667 0 48.334 4 65.001 12c10.667 5.33301 25.667 16.666 45 33.999c2.66699 2 6.5 1.33301 11.5 -2s6.5 -6.66602 4.5 -9.99902z" />
    <glyph glyph-name="Adieresis" unicode="&#xc4;" horiz-adv-x="724" 
d="M308 5c24 19.333 45.334 43.3291 64.001 71.9961c16 24.667 34.667 61 56 109c41.333 91.333 76 159.333 104 204c17.333 27.333 42 60 74 98c-19.333 14 -38.333 24 -57 30c-25.333 8 -58.666 12 -99.999 12c-112.667 0 -207 -35 -283 -105
c-66.667 -61.333 -100 -126.666 -100 -195.999c0 -23.333 8.33301 -43.333 25 -60s38 -25 64 -25c40 0 83 23.667 129 71c50 51.333 75 102.666 75 153.999c0 8 -2 17 -6 27s-11.667 19.667 -23 29c-2.66699 2.66699 -2.5 5.33398 0.5 8.00098s6.83301 3.33398 11.5 2.00098
c14.667 -8 25.667 -16.333 33 -25c14.667 -16.667 22 -37.667 22 -63c0 -36.667 -18.667 -78.667 -56 -126c-48.667 -61.333 -108.667 -92 -180 -92c-36 0 -66.833 12.833 -92.5 38.5s-38.5 58.834 -38.5 99.501c0 62.667 31.333 123.667 94 183
c73.333 69.333 164.333 104 273 104c63.333 0 114.666 -6 153.999 -18c22.667 -7.33301 45.667 -18.666 69 -33.999c21.333 22.667 49.333 43 84 61c43.333 22 85 33 125 33c20 0 36.5 -3.33301 49.5 -10s19.5 -16.667 19.5 -30c0 -14 -3.5 -24.167 -10.5 -30.5
s-17.167 -9.5 -30.5 -9.5c-12.667 0 -21.334 2.33301 -26.001 7s-7 11.334 -7 20.001c2.66699 8.66699 4 15 4 19c0 10.667 -6.66699 16 -20 16c-24 0 -50.833 -9.5 -80.5 -28.5s-55.167 -42.167 -76.5 -69.5c18 -14.667 33.333 -34.667 46 -60
c15.333 -30.667 23 -63 23 -97c0 -48.667 -18.667 -98 -56 -148c-39.333 -52.667 -94.666 -99.334 -165.999 -140.001c-12.667 -7.33301 -33.834 -14.5 -63.501 -21.5s-72.167 -16.167 -127.5 -27.5c-22.667 -12.667 -48.5 -25 -77.5 -37s-46.833 -18 -53.5 -18
c-10 0 -15 4.33301 -15 13c0 40.667 49 61 147 61zM692.001 326.996c0 36 -6 66.6699 -18 92.0029c-8.66699 18 -20.667 33.333 -36 46c-22.667 -32.667 -42.334 -64.334 -59.001 -95.001c-12 -22 -28 -55 -48 -99c-30 -63.333 -61.667 -117.833 -95 -163.5
s-65.333 -79.834 -96 -102.501c66 9.33301 118.667 25.666 158 48.999c58.667 36 106.334 81 143.001 135c34 50 51 96 51 138z" />
    <glyph glyph-name="Adieresis" unicode="&#x414;" horiz-adv-x="724" 
d="M308 5c24 19.333 45.334 43.3291 64.001 71.9961c16 24.667 34.667 61 56 109c41.333 91.333 76 159.333 104 204c17.333 27.333 42 60 74 98c-19.333 14 -38.333 24 -57 30c-25.333 8 -58.666 12 -99.999 12c-112.667 0 -207 -35 -283 -105
c-66.667 -61.333 -100 -126.666 -100 -195.999c0 -23.333 8.33301 -43.333 25 -60s38 -25 64 -25c40 0 83 23.667 129 71c50 51.333 75 102.666 75 153.999c0 8 -2 17 -6 27s-11.667 19.667 -23 29c-2.66699 2.66699 -2.5 5.33398 0.5 8.00098s6.83301 3.33398 11.5 2.00098
c14.667 -8 25.667 -16.333 33 -25c14.667 -16.667 22 -37.667 22 -63c0 -36.667 -18.667 -78.667 -56 -126c-48.667 -61.333 -108.667 -92 -180 -92c-36 0 -66.833 12.833 -92.5 38.5s-38.5 58.834 -38.5 99.501c0 62.667 31.333 123.667 94 183
c73.333 69.333 164.333 104 273 104c63.333 0 114.666 -6 153.999 -18c22.667 -7.33301 45.667 -18.666 69 -33.999c21.333 22.667 49.333 43 84 61c43.333 22 85 33 125 33c20 0 36.5 -3.33301 49.5 -10s19.5 -16.667 19.5 -30c0 -14 -3.5 -24.167 -10.5 -30.5
s-17.167 -9.5 -30.5 -9.5c-12.667 0 -21.334 2.33301 -26.001 7s-7 11.334 -7 20.001c2.66699 8.66699 4 15 4 19c0 10.667 -6.66699 16 -20 16c-24 0 -50.833 -9.5 -80.5 -28.5s-55.167 -42.167 -76.5 -69.5c18 -14.667 33.333 -34.667 46 -60
c15.333 -30.667 23 -63 23 -97c0 -48.667 -18.667 -98 -56 -148c-39.333 -52.667 -94.666 -99.334 -165.999 -140.001c-12.667 -7.33301 -33.834 -14.5 -63.501 -21.5s-72.167 -16.167 -127.5 -27.5c-22.667 -12.667 -48.5 -25 -77.5 -37s-46.833 -18 -53.5 -18
c-10 0 -15 4.33301 -15 13c0 40.667 49 61 147 61zM692.001 326.996c0 36 -6 66.6699 -18 92.0029c-8.66699 18 -20.667 33.333 -36 46c-22.667 -32.667 -42.334 -64.334 -59.001 -95.001c-12 -22 -28 -55 -48 -99c-30 -63.333 -61.667 -117.833 -95 -163.5
s-65.333 -79.834 -96 -102.501c66 9.33301 118.667 25.666 158 48.999c58.667 36 106.334 81 143.001 135c34 50 51 96 51 138z" />
    <glyph glyph-name="Aring" unicode="&#xc5;" horiz-adv-x="577" 
d="M676 550c0 -19.333 -5.33691 -36.3311 -16.0039 -50.998c-12.667 -17.333 -30 -26 -52 -26c-14 0 -25.833 4.16699 -35.5 12.5s-14.5 18.833 -14.5 31.5c0 10 3.33301 18.667 10 26s15.667 11 27 11c6.66699 0 12.334 -1.16699 17.001 -3.5s10 -4.83301 16 -7.5
c10 0 15 9 15 27c0 17.333 -9.66699 34 -29 50c-22.667 18.667 -52.667 28 -90 28c-59.333 0 -112.166 -17.667 -158.499 -53s-69.5 -77.333 -69.5 -126c0 -32 11 -54.333 33 -67c16.667 -9.33301 41.667 -14 75 -14c14 0 27.333 0.333008 40 1l38 2
c26.667 0 40 -6.66699 40 -20c0 -9.33301 -7.66699 -15.333 -23 -18c-4.66699 -0.666992 -12 -1 -22 -1c-17.333 0 -34.166 0.833008 -50.499 2.5s-37.166 4.16699 -62.499 7.5c-95.333 -12 -169.333 -51.333 -222 -118c-43.333 -54.667 -65 -114.667 -65 -180
c0 -42.667 15 -74.667 45 -96c25.333 -18 58 -27 98 -27c82.667 0 155.334 38 218.001 114c53.333 64.667 80 123.667 80 177c0 21.333 -7.33301 39 -22 53s-32.667 21 -54 21c-42 0 -86.333 -22 -133 -66c-50.667 -48 -76 -98.667 -76 -152c0 -16.667 5 -31.334 15 -44.001
c6 -7.33301 16.667 -16.333 32 -27c1.33301 -1.33301 0.666016 -2.83301 -2.00098 -4.5s-4.66699 -2.16699 -6 -1.5c-21.333 7.33301 -39.666 18.333 -54.999 33c-18 17.333 -27 36 -27 56c0 44 22 89.667 66 137c51.333 55.333 111.666 83 180.999 83
c38.667 0 70.667 -12.667 96 -38c21.333 -21.333 32 -48.333 32 -81c0 -56 -27.667 -113.333 -83 -172c-67.333 -72 -151 -108 -251 -108c-60 0 -110.667 15 -152 45c-46 33.333 -69 79.666 -69 138.999c0 64.667 24.667 119.667 74 165c35.333 32.667 84 59.667 146 81
c10.667 4 43 13 97 27c-28 10 -50 22 -66 36c-25.333 22.667 -38 51.667 -38 87c0 44 24.333 82 73 114c51.333 34 114.333 51 189 51c57.333 0 102 -8.33301 134 -25c38 -20 57 -50.333 57 -91z" />
    <glyph glyph-name="Aring" unicode="&#x415;" horiz-adv-x="577" 
d="M676 550c0 -19.333 -5.33691 -36.3311 -16.0039 -50.998c-12.667 -17.333 -30 -26 -52 -26c-14 0 -25.833 4.16699 -35.5 12.5s-14.5 18.833 -14.5 31.5c0 10 3.33301 18.667 10 26s15.667 11 27 11c6.66699 0 12.334 -1.16699 17.001 -3.5s10 -4.83301 16 -7.5
c10 0 15 9 15 27c0 17.333 -9.66699 34 -29 50c-22.667 18.667 -52.667 28 -90 28c-59.333 0 -112.166 -17.667 -158.499 -53s-69.5 -77.333 -69.5 -126c0 -32 11 -54.333 33 -67c16.667 -9.33301 41.667 -14 75 -14c14 0 27.333 0.333008 40 1l38 2
c26.667 0 40 -6.66699 40 -20c0 -9.33301 -7.66699 -15.333 -23 -18c-4.66699 -0.666992 -12 -1 -22 -1c-17.333 0 -34.166 0.833008 -50.499 2.5s-37.166 4.16699 -62.499 7.5c-95.333 -12 -169.333 -51.333 -222 -118c-43.333 -54.667 -65 -114.667 -65 -180
c0 -42.667 15 -74.667 45 -96c25.333 -18 58 -27 98 -27c82.667 0 155.334 38 218.001 114c53.333 64.667 80 123.667 80 177c0 21.333 -7.33301 39 -22 53s-32.667 21 -54 21c-42 0 -86.333 -22 -133 -66c-50.667 -48 -76 -98.667 -76 -152c0 -16.667 5 -31.334 15 -44.001
c6 -7.33301 16.667 -16.333 32 -27c1.33301 -1.33301 0.666016 -2.83301 -2.00098 -4.5s-4.66699 -2.16699 -6 -1.5c-21.333 7.33301 -39.666 18.333 -54.999 33c-18 17.333 -27 36 -27 56c0 44 22 89.667 66 137c51.333 55.333 111.666 83 180.999 83
c38.667 0 70.667 -12.667 96 -38c21.333 -21.333 32 -48.333 32 -81c0 -56 -27.667 -113.333 -83 -172c-67.333 -72 -151 -108 -251 -108c-60 0 -110.667 15 -152 45c-46 33.333 -69 79.666 -69 138.999c0 64.667 24.667 119.667 74 165c35.333 32.667 84 59.667 146 81
c10.667 4 43 13 97 27c-28 10 -50 22 -66 36c-25.333 22.667 -38 51.667 -38 87c0 44 24.333 82 73 114c51.333 34 114.333 51 189 51c57.333 0 102 -8.33301 134 -25c38 -20 57 -50.333 57 -91z" />
    <glyph glyph-name="AE" unicode="&#xc6;" horiz-adv-x="1100" 
d="M628 336l-109.005 -152.003c-40.667 -60 -86.667 -107 -138 -141c-58 -38 -119.667 -57 -185 -57c-51.333 0 -95.666 11.667 -132.999 35c-42 26 -63 61 -63 105c0 28.667 9.16699 53.834 27.5 75.501s39.833 32.5 64.5 32.5c16.667 0 29.334 -4.33301 38.001 -13
s13 -19 13 -31s-4 -21.667 -12 -29s-18 -11 -30 -11c-10 0 -17.5 2.16699 -22.5 6.5s-7.5 9.5 -7.5 15.5c0 3.33301 1 7.33301 3 12s3 7.33398 3 8.00098c0 5.33301 -2.66699 8 -8 8c-12 0 -24 -10 -36 -30c-8.66699 -14 -13 -28.333 -13 -43
c0 -36 16.167 -65.833 48.5 -89.5s73.833 -35.5 124.5 -35.5c64 0 127.333 31.667 190 95c53.333 54 100.333 123.333 141 208c19.333 40.667 34.666 80 45.999 118s17 71.333 17 100c0 29.333 -9 51.5 -27 66.5s-40.333 22.5 -67 22.5c-54.667 0 -108 -23.667 -160 -71
c-62 -56.667 -93 -127 -93 -211c0 -18 6.16699 -33.167 18.5 -45.5s28.833 -18.5 49.5 -18.5c27.333 0 58.333 16 93 48c46.667 43.333 70 97.666 70 162.999c0 15.333 -4.33301 27.333 -13 36c0.666992 2 1.66699 4 3 6c3.33301 2 6 2.66699 8 2
c8.66699 -2.66699 16.334 -10.334 23.001 -23.001s10 -26 10 -40c0 -57.333 -25 -107.666 -75 -150.999c-42.667 -36.667 -82.334 -55 -119.001 -55c-28.667 0 -53.667 10.667 -75 32s-32 49 -32 83c0 54 29 109.667 87 167c63.333 62.667 133 94 209 94
c38 0 66.667 -8.33301 86 -25c23.333 -20 35 -52.333 35 -97c0 -38.667 -3 -77.167 -9 -115.5s-15.667 -70.5 -29 -96.5l3 -2l74 112c24.667 40.667 50 79.334 76 116.001c38 54 63 90 75 108c2 2.66699 5.66699 4 11 4c4 0 6.66699 -0.333008 8 -1s1.33301 -1.66699 0 -3
c-29.333 -42 -58.666 -95 -87.999 -159c-20 -43.333 -40.333 -92.666 -61 -147.999l-21 -55l110 150c40 61.333 86 110.333 138 147c61.333 43.333 126 65 194 65c20 0 39.833 -6.5 59.5 -19.5s29.5 -30.167 29.5 -51.5c0 -20.667 -4.83301 -35.5 -14.5 -44.5
s-21.5 -13.5 -35.5 -13.5c-10 0 -18.333 3.66699 -25 11s-10 16.333 -10 27c0 13.333 7.5 21.333 22.5 24s22.5 8.33398 22.5 17.001c0 10.667 -5 19 -15 25s-23.667 9 -41 9c-20 0 -47 -8.66699 -81 -26c-43.333 -22 -83.333 -51.333 -120 -88
c-46.667 -46.667 -83 -100.667 -109 -162c-18 -41.333 -30.667 -74 -38 -98c-12.667 -40.667 -19 -79.667 -19 -117c0 -34 9.66699 -62.333 29 -85s45 -34 77 -34c47.333 0 94.5 33.167 141.5 99.5s70.5 131.166 70.5 194.499c0 18 -3.66699 31.667 -11 41
s-19.666 14 -36.999 14c-23.333 0 -55.333 -24.333 -96 -73c-46.667 -56 -70 -112 -70 -168c0 -6 1.66699 -13.333 5 -22s7.33301 -18 12 -28h-8c-15.333 12.667 -25.833 24.667 -31.5 36s-8.5 26 -8.5 44c0 16.667 6.66699 40.334 20 71.001
c16.667 38.667 39.667 72.667 69 102c12 12.667 30.333 24.5 55 35.5s43.334 16.5 56.001 16.5c24 0 44.667 -10 62 -30s26 -47.333 26 -82c0 -53.333 -21 -108 -63 -164c-51.333 -68.667 -115 -103 -191 -103c-52 0 -91 18.333 -117 55c-22 31.333 -33 72.666 -33 123.999
c0 26 2.33301 50.833 7 74.5s11.334 46.167 20.001 67.5l-3 2l-79 -109c-33.333 -52.667 -64 -98.667 -92 -138s-64 -86.333 -108 -141c-2 -2.66699 -6 -4 -12 -4c-2 0 -4 0.166992 -6 0.5s-2.33301 1.5 -1 3.5c51.333 76 95 147.833 131 215.5s65.667 134.167 89 199.5z
" />
    </font>
</defs>
</svg>
