<?xml version="1.0" standalone="no"?>
<!DOCTYPE svg PUBLIC "-//W3C//DTD SVG 1.1//EN" "http://www.w3.org/Graphics/SVG/1.1/DTD/svg11.dtd" >
<svg>
<metadata>
Created by FontForge 20120731 at Tue Apr  4 09:59:58 2017
 By convertio
Typeface (c) The Monotype Corporation plc. Data (c) The Monotype Corporation plc/Type Solutions Inc. 1990-1992. All Rights Reserved
</metadata>
<defs>
<font id="TimesNewRomanBoldItalic" horiz-adv-x="1024" >
  <font-face 
    font-family="Times New Roman"
    font-weight="700"
    font-style="italic"
    font-stretch="normal"
    units-per-em="2048"
    panose-1="2 2 7 3 6 5 5 9 3 4"
    ascent="1638"
    descent="-410"
    x-height="899"
    cap-height="1356"
    bbox="-377 -628 2470 2114"
    underline-thickness="195"
    underline-position="-126"
    slope="-16.333"
    unicode-range="U+0020-F005"
  />
<missing-glyph 
d="M128 0v1825h768v-1825h-768zM256 128h512v1569h-512v-1569z" />
    <glyph glyph-name=".notdef" 
d="M128 0v1825h768v-1825h-768zM256 128h512v1569h-512v-1569z" />
    <glyph glyph-name=".null" horiz-adv-x="0" 
 />
    <glyph glyph-name="nonmarkingreturn" horiz-adv-x="512" 
 />
    <glyph glyph-name="space" unicode=" " horiz-adv-x="512" 
 />
    <glyph glyph-name="exclam" unicode="!" horiz-adv-x="797" 
d="M368 387h-38q1 8 62 477q45 353 86 429q50 94 131 94q48 0 81 -42q30 -39 30 -88q0 -78 -122 -333q-145 -302 -230 -537zM276 298q68 0 115.5 -47.5t47.5 -115.5t-47.5 -115.5t-115.5 -47.5t-115.5 47.5t-47.5 115.5t47.5 115.5t115.5 47.5z" />
    <glyph glyph-name="quotedbl" unicode="&#x22;" horiz-adv-x="1137" 
d="M868 721h-49l8 384q2 105 21 150q24 57 77 94.5t114 37.5q46 0 76 -28.5t30 -74.5q0 -30 -8 -52q-11 -29 -63 -127zM386 721h-49l6 385q2 115 48 190q57 91 164 91q44 0 76 -28t32 -72q0 -56 -69 -183z" />
    <glyph glyph-name="numbersign" unicode="#" 
d="M130 -28l86 424h-136v133h162l59 292h-221v130h247l87 433h132l-88 -433h295l86 433h132l-88 -433h140v-130h-165l-60 -292h225v-133h-250l-86 -424h-133l86 424h-291l-90 -424h-129zM375 529h294l58 292h-294z" />
    <glyph glyph-name="dollar" unicode="$" 
d="M640 841q189 -189 223 -242q63 -98 63 -217q0 -192 -144 -307q-133 -105 -330 -105q-22 0 -64 2l-37 -127h-77l40 138q-106 21 -235 86l93 323h38q6 -121 25 -177q29 -86 108 -135l152 526q-114 108 -166 186q-76 115 -76 232q0 101 53 185.5t144 129.5q96 48 204 48
q22 0 66 -3l17 58h77l-20 -69q136 -30 229 -90l-94 -293h-38q11 66 11 107q0 68 -39 126q-28 41 -92 74zM699 1315q-94 4 -157 -52.5t-63 -150.5q0 -108 100 -212zM413 59q31 -4 50 -4q93 0 159 74q63 71 63 165q0 125 -131 256z" />
    <glyph glyph-name="percent" unicode="%" horiz-adv-x="1706" 
d="M1595 1387l-1246 -1442h-120l1242 1442h124zM452 649q-113 0 -174 78q-57 71 -57 187q0 195 132 344q108 121 255 121q114 0 179 -72q62 -69 62 -185q0 -178 -107 -319q-117 -154 -290 -154zM458 702q69 0 106 94q11 27 78 266q38 135 38 189q0 75 -65 75q-32 0 -50 -14
q-33 -26 -57 -82q-15 -36 -81 -274q-35 -126 -35 -181q0 -73 66 -73zM1196 -58q-110 0 -172 82q-56 73 -56 187q0 168 107 310q116 153 280 153q111 0 177 -72t66 -184q0 -174 -112 -319q-120 -157 -290 -157zM1202 0q66 0 109 100q16 37 81 263q36 125 36 180q0 79 -72 79
q-55 0 -95 -87q-14 -28 -45 -131q-75 -246 -75 -332q0 -72 61 -72z" />
    <glyph glyph-name="ampersand" unicode="&#x26;" horiz-adv-x="1593" 
d="M593 748q-15 116 -15 174q0 187 114 322q120 143 303 143q97 0 165 -54q74 -58 74 -153q0 -106 -64 -184q-96 -116 -304 -205q51 -163 68 -212q42 -117 91 -203q107 118 107 220q0 70 -81 91l12 36h384l-15 -36q-69 -17 -131 -83q-17 -19 -97 -126q-73 -98 -141 -169
q79 -110 146 -153q43 -28 96 -28t110 48h32q-96 -207 -306 -207q-155 0 -293 147q-207 -147 -418 -147q-136 0 -232 74q-104 81 -104 214q0 105 51 183q41 63 136 135q109 82 312 173zM848 866q82 59 121 121q53 86 53 181q0 140 -91 140q-109 0 -109 -203q0 -101 26 -239z
M608 673q-214 -117 -214 -292q0 -102 63 -184q68 -88 168 -88q74 0 184 67q-139 209 -201 497z" />
    <glyph glyph-name="quotesingle" unicode="'" horiz-adv-x="569" 
d="M367 722h-48l5 382q2 115 47 191q56 92 164 92q46 0 77.5 -28.5t31.5 -73.5q0 -55 -68 -180z" />
    <glyph glyph-name="parenleft" unicode="(" horiz-adv-x="682" 
d="M890 1387l-18 -55q-144 -102 -237 -237q-146 -210 -236 -511q-89 -294 -89 -556q0 -167 79 -360l-17 -58q-269 360 -269 718q0 234 113 456q105 207 291 371q159 140 383 232z" />
    <glyph glyph-name="parenright" unicode=")" horiz-adv-x="682" 
d="M-231 -390l18 55q213 152 358 452q85 175 137 371q68 256 68 481q0 167 -79 361l16 57q269 -360 269 -717q0 -235 -112 -456q-106 -207 -292 -371q-160 -140 -383 -233z" />
    <glyph glyph-name="asterisk" unicode="*" 
d="M625 992q-5 88 -52 181q-33 63 -33 98q0 43 31 79.5t73 36.5q47 0 76.5 -34.5t29.5 -82.5q0 -38 -29 -95q-36 -72 -41 -92q-9 -31 -14 -91q82 34 151 107q63 67 121 67q42 0 73 -28t31 -70q0 -50 -43 -81q-38 -28 -90 -28q-20 0 -60.5 2t-60.5 2q-37 0 -112 -4
q63 -72 150 -116q102 -53 102 -128q0 -42 -28.5 -72t-70.5 -30q-102 0 -125 162q-12 88 -58 165q-51 -82 -63 -165q-23 -159 -123 -159q-40 0 -70 27.5t-30 67.5q0 78 106 137q87 48 150 111l-107 4q-22 1 -53 -1q-67 -4 -81 -4q-51 0 -88 28q-41 31 -41 80q0 43 30.5 71.5
t73.5 28.5q56 0 108 -49l88 -84q22 -16 79 -41z" />
    <glyph glyph-name="plus" unicode="+" horiz-adv-x="1167" 
d="M80 744h481v480h131v-480h481v-132h-481v-476h-131v476h-481v132z" />
    <glyph glyph-name="comma" unicode="," horiz-adv-x="512" 
d="M-35 -329l-23 42q153 87 190 132q29 35 29 70q0 34 -49 85q-61 64 -71 82q-13 25 -13 64q0 67 49 113t117 46q72 0 121 -57q45 -54 45 -128q0 -154 -127 -281q-103 -102 -268 -168z" />
    <glyph glyph-name="hyphen" unicode="-" horiz-adv-x="682" 
d="M78 553h582l-62 -208h-585z" />
    <glyph glyph-name="hyphen" unicode="&#x2010;" horiz-adv-x="682" 
d="M78 553h582l-62 -208h-585z" />
    <glyph glyph-name="period" unicode="." horiz-adv-x="512" 
d="M137 300q69 0 117 -47.5t48 -116.5q0 -68 -48 -116t-117 -48q-68 0 -116 48t-48 116t48 116t116 48z" />
    <glyph glyph-name="slash" unicode="/" horiz-adv-x="569" 
d="M849 1384l-873 -1415h-142l874 1415h141z" />
    <glyph glyph-name="zero" unicode="0" 
d="M725 1384q198 0 266 -207q30 -94 30 -186q0 -338 -157 -639q-75 -143 -164 -238q-134 -142 -305 -142q-169 0 -245 188q-37 92 -37 197q0 230 83 461q54 150 142 288q107 169 217 231q84 47 170 47zM732 1316q-57 0 -99 -58q-25 -33 -64 -149q-75 -222 -157 -508
q-65 -228 -79 -296q-19 -94 -19 -163q0 -105 92 -105q41 0 67 22q53 45 88 152q82 252 207 691q55 194 55 305q0 109 -91 109z" />
    <glyph glyph-name="one" unicode="1" 
d="M911 1384l-331 -1138q-26 -89 -26 -113t18 -49.5t40 -33t130 -13.5l-11 -37h-683l11 37q80 2 113 9q62 14 95 57q26 35 57 143l243 839q6 26 6 49q0 98 -106 98q-25 0 -99 -8l-8 37l509 123h42z" />
    <glyph glyph-name="two" unicode="2" 
d="M728 0h-720v37q276 255 474 478q124 139 169 213q76 126 76 256q0 89 -56 147t-145 58q-139 0 -238 -153l-37 17q116 331 405 331q132 0 229 -80q104 -86 104 -215t-71 -250q-50 -85 -165 -206q-110 -116 -446 -403h261q115 0 164 23q60 28 107 120h47z" />
    <glyph glyph-name="three" unicode="3" 
d="M261 737l13 43q136 20 224 59q218 97 218 261q0 68 -47.5 114t-116.5 46q-105 0 -204 -130l-40 20q156 234 358 234q119 0 204 -66q92 -71 92 -187q0 -158 -158 -249q-57 -33 -179 -67q111 -48 156 -108q67 -89 67 -215q0 -236 -204 -390q-172 -130 -396 -130
q-223 0 -223 127q0 47 32 76.5t79 29.5q23 0 46 -10q14 -6 119 -71q77 -48 121 -48q62 0 109 63q69 93 69 233q0 223 -157 313q-69 39 -182 52z" />
    <glyph glyph-name="four" unicode="4" 
d="M479 286h-443l49 168l812 930h131l-272 -930h157l-53 -168h-153l-92 -314h-227zM530 454l167 593l-514 -593h347z" />
    <glyph glyph-name="five" unicode="5" 
d="M520 1356h512l-67 -234h-475l-60 -122q285 -45 391 -233q58 -103 58 -223q0 -151 -80 -284t-213 -209q-138 -80 -292 -80q-81 0 -139 27q-77 37 -77 109q0 44 31 75.5t75 31.5q37 0 64 -12q16 -7 102 -77q54 -44 111 -44q75 0 128 66q70 87 70 219q0 119 -56 219
q-58 105 -160 159q-77 41 -199 44z" />
    <glyph glyph-name="six" unicode="6" 
d="M1045 1395v-39q-328 -91 -521 -523q93 31 161 31q130 0 201 -100q63 -89 63 -224q0 -201 -112 -366q-137 -202 -366 -202q-172 0 -265 122q-83 110 -83 288q0 204 91 404q88 194 240 338q264 247 591 271zM491 757q-68 -177 -112 -364q-30 -126 -30 -209q0 -150 114 -150
q98 0 165 212q69 217 69 363q0 74 -41 124q-32 39 -76 39q-35 0 -89 -15z" />
    <glyph glyph-name="seven" unicode="7" 
d="M424 1356h710v-45l-796 -1339l-80 45l653 1098h-327q-113 0 -170 -19q-77 -25 -135 -100h-38z" />
    <glyph glyph-name="eight" unicode="8" 
d="M421 708q-126 168 -126 318q0 161 107 261q105 97 267 97q140 0 234 -75q102 -81 102 -217q0 -157 -147 -260q-45 -32 -141 -66q93 -123 118 -166q55 -96 55 -191q0 -189 -127.5 -313t-316.5 -124q-158 0 -260 82q-110 89 -110 243q0 189 172 320q61 47 173 91zM675 812
q53 38 70 80q38 95 38 253q0 179 -102 179q-53 0 -81 -39q-49 -68 -49 -186q0 -132 124 -287zM457 663q-51 -44 -72 -78q-87 -140 -87 -365q0 -183 132 -183q71 0 124 66q73 92 73 219q0 98 -50 186q-34 60 -120 155z" />
    <glyph glyph-name="nine" unicode="9" 
d="M87 -29v41q327 90 522 521q-94 -32 -161 -32q-130 0 -202 101q-63 89 -63 224q0 200 113 366q137 202 366 202q172 0 264 -123q83 -110 83 -288q0 -204 -91 -403q-88 -194 -240 -337q-264 -249 -591 -272zM641 609q70 184 113 364q29 122 29 209q0 150 -114 150
q-98 0 -165 -212q-69 -217 -69 -363q0 -73 42 -124q32 -39 76 -39q35 0 88 15z" />
    <glyph glyph-name="colon" unicode=":" horiz-adv-x="682" 
d="M428 925q68 0 116 -48t48 -117t-48 -116.5t-117 -47.5q-68 0 -116 48t-48 116q0 69 48 117t117 48zM246 300q69 0 117 -47.5t48 -116.5q0 -68 -48 -116t-117 -48q-68 0 -116 48t-48 116t48 116t116 48z" />
    <glyph glyph-name="semicolon" unicode=";" horiz-adv-x="682" 
d="M431 926q70 0 118.5 -48.5t48.5 -118.5q0 -69 -49 -117.5t-118 -48.5q-68 0 -117 49t-49 117q0 70 48.5 118.5t117.5 48.5zM24 -329l-23 42q153 87 190 132q29 35 29 70q0 34 -49 85q-61 64 -71 82q-13 25 -13 64q0 67 49 113t117 46q72 0 121 -57q45 -54 45 -128
q0 -154 -127 -281q-103 -102 -268 -168z" />
    <glyph glyph-name="less" unicode="&#x3c;" horiz-adv-x="1167" 
d="M1172 185l-1092 446v81l1092 451v-138l-845 -353l845 -347v-140z" />
    <glyph glyph-name="equal" unicode="=" horiz-adv-x="1167" 
d="M80 904h1094v-130h-1094v130zM80 577h1094v-130h-1094v130z" />
    <glyph glyph-name="greater" unicode="&#x3e;" horiz-adv-x="1167" 
d="M80 1163l1092 -445v-82l-1092 -451v139l845 352l-845 347v140z" />
    <glyph glyph-name="question" unicode="?" 
d="M385 382h-41q0 127 63 235q33 56 153 198q105 124 146 220q27 63 27 134q0 73 -33 121q-38 55 -108 55q-35 0 -62 -18q-32 -21 -32 -54q0 -18 18 -50q35 -62 35 -110q0 -53 -40.5 -90t-94.5 -37q-64 0 -103 47q-36 44 -36 109q0 121 110 188q93 57 223 57q233 0 323 -137
q42 -66 42 -137q0 -102 -51 -181q-65 -101 -236 -208q-184 -115 -238 -182q-50 -61 -65 -160zM345 298q68 0 115.5 -47.5t47.5 -115.5t-47.5 -116t-115.5 -48t-116 48t-48 116q0 69 47.5 116t116.5 47z" />
    <glyph glyph-name="at" unicode="@" horiz-adv-x="1704" 
d="M1079 925l244 10l-183 -628q-31 -106 -31 -156q0 -33 24 -56t57 -23q99 0 213 109q95 91 147 198q71 147 71 314q0 281 -179 456t-461 175q-249 0 -449 -116.5t-317.5 -335.5t-117.5 -471q0 -345 218.5 -566t563.5 -221q276 0 498 146q227 150 322 405h61
q-118 -290 -344 -447q-230 -160 -539 -160q-385 0 -635 246.5t-250 631.5q0 262 121 481q126 228 350.5 349t496.5 121q207 0 368 -79q178 -87 267 -258q83 -160 83 -338q0 -187 -78 -356q-85 -183 -234 -274q-134 -82 -288 -82q-89 0 -143 42q-60 47 -60 133q0 54 24 141
q-84 -140 -129 -191q-62 -71 -125 -104q-40 -21 -91 -21q-85 0 -130 71q-38 61 -38 151q0 335 251 591q72 74 165 124q48 26 101 26q119 0 142 -157zM928 891q-83 0 -182 -232q-102 -239 -102 -384q0 -92 59 -92q64 0 164 160q132 212 132 416q0 132 -71 132z" />
    <glyph glyph-name="A" unicode="A" horiz-adv-x="1366" 
d="M830 437h-420l-84 -104l-96 -115q-25 -30 -41 -67q-10 -23 -10 -46q0 -62 110 -68v-37h-405l10 37q55 9 96 38q55 39 161 165l961 1147h45l-45 -1110q-3 -82 -3 -105q0 -126 119 -135l-10 -37h-587l11 37q88 8 100 14q70 34 79 213zM830 519l26 442l-377 -442h351z" />
    <glyph glyph-name="B" unicode="B" horiz-adv-x="1366" 
d="M317 1356h536q177 0 256 -19q95 -23 152 -88q60 -68 60 -163q0 -173 -175 -270q-88 -49 -269 -90q334 -94 334 -329q0 -113 -79 -213q-74 -95 -184 -137q-119 -47 -436 -47h-564l13 37q133 0 175 62q21 31 50 131l242 834q37 128 37 170q0 79 -158 85zM624 757
q252 4 341 178q47 93 47 176q0 80 -50 128.5t-130 45.5l-55 -2zM600 682l-173 -603q50 -2 75 -2q185 0 291 103t106 288q0 147 -120 194q-53 20 -179 20z" />
    <glyph glyph-name="C" unicode="C" horiz-adv-x="1366" 
d="M1476 1387l-100 -431h-39q-14 349 -294 349q-173 0 -319 -161q-113 -126 -188 -318q-77 -197 -77 -389q0 -161 76 -253q83 -100 240 -100q226 0 415 221h48q-116 -174 -233 -250q-134 -86 -327 -86q-243 0 -393.5 146.5t-150.5 389.5q0 238 127 441q123 196 335 316
q223 125 444 125q83 0 209 -36q63 -18 89 -18q50 0 101 54h37z" />
    <glyph glyph-name="D" unicode="D" horiz-adv-x="1479" 
d="M-74 0l12 37q103 0 155 47q47 41 77 145l246 855q24 83 24 138q0 62 -58 83q-27 9 -113 14l12 37h464q692 0 692 -565q0 -189 -75 -317q-151 -257 -361 -368q-200 -106 -507 -106h-568zM773 1276l-298 -1028q-21 -72 -21 -102q0 -68 112 -68q141 0 252 88
q140 111 219 308q72 181 72 375q0 289 -176 391q-62 36 -160 36z" />
    <glyph glyph-name="E" unicode="E" horiz-adv-x="1366" 
d="M774 1281l-151 -526h46q164 0 245 38q99 47 162 180h37l-152 -528h-35q9 53 9 86q0 106 -117 140q-34 10 -141 10h-78l-130 -455q-17 -59 -17 -89q0 -57 143 -57q355 0 593 292h41l-141 -372h-1160l12 37q111 0 161 50q39 40 73 158l255 873q21 72 21 115q0 52 -53 71
q-26 10 -97 15l11 37h1081l-87 -339h-36q-4 100 -31 141q-52 79 -149 106q-63 17 -188 17h-127z" />
    <glyph glyph-name="F" unicode="F" horiz-adv-x="1366" 
d="M838 1280l-150 -512q150 2 199 12q159 33 238 198h39l-155 -535h-40q10 52 10 83q0 119 -91 150q-40 13 -220 17l-146 -508q-5 -18 -5 -49q0 -65 57 -86q30 -12 114 -13l-11 -37h-677l11 37q106 0 153 47q38 37 71 149l242 830q38 130 40 168q-5 82 -155 88l10 37h1108
l-91 -358h-37q-5 98 -27 148q-29 69 -103 104q-67 30 -213 30h-171z" />
    <glyph glyph-name="G" unicode="G" horiz-adv-x="1479" 
d="M1530 1387l-94 -435h-38q-15 357 -303 357q-173 0 -323 -129q-126 -109 -210 -285q-102 -212 -102 -445q0 -160 68 -274q82 -137 233 -137q51 0 124 29l104 358q26 90 26 118q0 88 -140 88l10 38h585l-9 -38q-95 -5 -128 -68q-5 -9 -31 -98l-123 -417q-210 -80 -442 -80
q-354 0 -512 271q-83 141 -83 321q0 385 341 633q265 193 606 193q62 0 109 -6q35 -4 130 -28q60 -15 82 -15q44 0 83 49h37z" />
    <glyph glyph-name="H" unicode="H" horiz-adv-x="1593" 
d="M609 732h496l110 379q22 76 22 119q0 55 -55 75q-26 9 -102 14l11 37h674l-11 -37q-108 0 -161 -52q-43 -44 -76 -156l-252 -868q-25 -86 -25 -122q0 -81 154 -84l-10 -37h-661l15 37q107 0 155 51q37 39 70 155l117 404h-494l-116 -404q-25 -87 -25 -123q0 -80 151 -83
l-10 -37h-652l11 37q106 0 154 52q35 38 69 154l252 868q22 76 22 118q0 55 -52 75q-26 10 -101 15l11 37h663l-15 -37q-103 0 -153 -54q-38 -41 -72 -154z" />
    <glyph glyph-name="I" unicode="I" horiz-adv-x="797" 
d="M283 1319l11 37h662l-13 -37q-102 0 -152 -55q-37 -41 -69 -152l-248 -868q-27 -94 -27 -123q0 -81 164 -84l-10 -37h-673l11 37q110 0 160 50q39 41 73 157l250 868q23 80 23 121q0 53 -59 72q-27 9 -103 14z" />
    <glyph glyph-name="J" unicode="J" 
d="M547 1319l11 37h666l-11 -37q-101 0 -153 -52q-44 -43 -74 -149l-145 -508q-65 -229 -104 -315q-77 -169 -203 -253q-110 -73 -279 -73q-113 0 -185 44q-86 53 -86 159q0 66 41 116q43 54 108 54q51 0 87 -32t36 -82q0 -43 -43 -95q-26 -31 -26 -51q0 -16 14 -27
q24 -18 55 -18q89 0 169 204q16 41 84 271l178 606q23 78 23 115q0 53 -60 72q-27 9 -103 14z" />
    <glyph glyph-name="K" unicode="K" horiz-adv-x="1366" 
d="M1256 0h-587l11 37q114 10 114 104q0 44 -31 143l-144 462l-143 -495q-24 -83 -24 -120q0 -92 152 -94l-11 -37h-659l11 37q136 3 180 80q22 38 55 153l228 789q39 135 39 173q0 82 -151 87l11 37h638l-11 -37q-117 0 -171 -95q-17 -30 -52 -153l-92 -324l353 324
q102 94 115 114q16 25 16 53q0 68 -96 81l11 37h511l-11 -37q-59 -5 -96 -17q-49 -16 -112 -54q-44 -27 -128 -91l-93 -86l-215 -193l160 -500q61 -191 72 -212q59 -123 161 -129z" />
    <glyph glyph-name="L" unicode="L" horiz-adv-x="1251" 
d="M1017 0h-1083l11 37q107 0 155 51q35 39 69 155l252 871q21 73 21 113q0 85 -148 92l11 37h651l-11 -37q-103 -2 -152 -54q-39 -41 -71 -151l-230 -797q-44 -152 -44 -185q0 -55 95 -55q367 0 582 303h42z" />
    <glyph glyph-name="M" unicode="M" horiz-adv-x="1821" 
d="M775 1356l100 -932l645 932h475l-12 -37q-107 0 -160 -53q-44 -43 -76 -155l-250 -868q-24 -83 -24 -122q0 -81 148 -84l-9 -37h-677l12 37q114 0 168 48q48 43 81 158l255 879l-776 -1122h-41l-122 1144l-259 -901q-16 -56 -16 -92q0 -109 152 -114l-10 -37h-448l9 37
q82 3 124 34q76 56 110 172l293 1002q-44 49 -83 62q-32 12 -105 12l12 37h484z" />
    <glyph glyph-name="N" unicode="N" horiz-adv-x="1479" 
d="M730 1356l424 -904l191 656q15 52 15 96q0 106 -140 115l11 37h430l-10 -37q-98 -6 -151 -61q-44 -46 -75 -150l-331 -1123h-38l-544 1156l-263 -901q-13 -45 -13 -84q0 -119 149 -119l-9 -37h-442l9 37q56 0 81 10q103 40 147 193l287 985q-51 57 -86 74q-38 19 -111 20
l11 37h458z" />
    <glyph glyph-name="O" unicode="O" horiz-adv-x="1479" 
d="M576 -32q-308 0 -416 250q-51 116 -51 226q0 236 134 462q130 217 336 347q215 135 425 135q126 0 235.5 -63t170.5 -173t61 -223q0 -243 -155 -501q-154 -254 -368 -375q-151 -85 -372 -85zM971 1306q-139 0 -250 -124q-145 -162 -238 -530q-55 -214 -55 -357
q0 -103 42 -169q49 -78 147 -78q110 0 187 73q151 143 252 430q94 266 94 495q0 260 -179 260z" />
    <glyph glyph-name="P" unicode="P" horiz-adv-x="1251" 
d="M581 623l-110 -378q-23 -79 -23 -113q0 -62 56 -82q31 -12 110 -13l-13 -37h-662l11 37q132 2 177 67q17 25 51 141l251 861q26 89 26 123q0 86 -153 90l11 37h537q222 0 318 -56q150 -87 150 -264q0 -203 -181 -324q-159 -105 -371 -105q-76 0 -185 16zM601 700
q65 -8 108 -8q136 0 221 131q75 114 75 258q0 196 -192 196q-19 0 -47 -2z" />
    <glyph glyph-name="Q" unicode="Q" horiz-adv-x="1479" 
d="M612 -31l-176 -160q99 20 162 20q84 0 247 -42t247 -42q99 0 185 36q54 22 109 75l30 -28q-209 -254 -583 -254q-92 0 -264 33.5t-257 33.5q-73 0 -156 -22l-19 25l369 325q-129 22 -199 70q-94 65 -147 178q-51 107 -51 227q0 235 135 461q130 218 335 347
q214 135 425 135q126 0 235.5 -62.5t169.5 -170.5q61 -112 61 -232q0 -187 -92 -379q-87 -182 -230 -317q-148 -140 -300 -203q-103 -43 -236 -54zM971 1306q-139 0 -250 -124q-145 -162 -238 -530q-55 -214 -55 -357q0 -103 42 -169q49 -78 147 -78q110 0 187 73
q151 143 252 430q94 266 94 495q0 260 -179 260z" />
    <glyph glyph-name="R" unicode="R" horiz-adv-x="1366" 
d="M588 662l-120 -411q-26 -89 -26 -128q0 -83 160 -86l-14 -37h-653l12 37q108 0 157 52q36 39 70 156l252 870q21 72 21 115q0 54 -50 74q-26 10 -97 15l10 37h562q437 0 437 -300q0 -139 -114 -251q-71 -70 -255 -121l122 -411q40 -136 60 -166q44 -66 147 -70v-37h-422
l-192 662l-33 -2q-6 0 -34 2zM602 722q35 -2 59 -2q153 0 246 106q88 101 88 256q0 196 -182 196q-20 0 -47 -1z" />
    <glyph glyph-name="S" unicode="S" horiz-adv-x="1139" 
d="M1195 1387l-113 -460h-33q-11 110 -39 173q-86 196 -262 196q-77 0 -136 -58.5t-59 -135.5q0 -98 79 -201q38 -51 153 -160q102 -97 145 -168q59 -96 59 -210q0 -240 -226 -343q-111 -51 -251 -51q-70 0 -201 25.5t-189 25.5q-60 0 -128 -51h-39l121 517h38
q27 -279 175 -380q78 -54 178 -54q94 0 163 62.5t69 156.5q0 96 -68 191q-37 51 -140 154q-135 133 -185 236q-37 76 -37 164q0 169 133 274q124 97 297 97q87 0 229 -39q83 -23 117 -23q54 0 106 62h44z" />
    <glyph glyph-name="T" unicode="T" horiz-adv-x="1251" 
d="M328 1356h1091l-103 -365h-36q2 29 2 51q0 212 -267 227l-302 -1021q-25 -85 -25 -126q0 -82 157 -85l-9 -37h-673l12 37q113 0 162 51q38 39 74 160l302 1021q-161 -5 -267 -72q-102 -64 -186 -206h-39z" />
    <glyph glyph-name="U" unicode="U" horiz-adv-x="1479" 
d="M1197 1356h459l-9 -37q-79 -6 -122 -38q-69 -51 -103 -168l-180 -622q-75 -258 -199 -380q-146 -142 -395 -142q-246 0 -363 117q-93 93 -93 223q0 72 40 210l172 594q23 79 23 119q0 53 -58 73q-28 9 -103 14l11 37h676l-12 -37q-107 0 -160 -52q-44 -43 -76 -154
l-173 -594q-43 -148 -43 -239q0 -97 79 -154q70 -50 171 -50q204 0 309 150q68 97 118 272l177 615q15 52 15 88q0 62 -44 95q-31 23 -128 23z" />
    <glyph glyph-name="V" unicode="V" horiz-adv-x="1366" 
d="M320 -31l44 1134q3 77 3 104q0 103 -124 112l12 37h570l-11 -37q-92 0 -127 -71q-22 -46 -27 -155l-32 -707l529 614q151 175 151 245q0 57 -106 74l14 37h374v-37q-47 -12 -78 -35q-44 -34 -136 -140l-1012 -1175h-44z" />
    <glyph glyph-name="W" unicode="W" horiz-adv-x="1821" 
d="M267 -31l92 1160q4 50 4 84q0 101 -111 106l15 37h548l-11 -37h-27q-115 0 -128 -168l-53 -688l409 559l10 129q4 52 4 64q0 98 -114 104l10 37h552l-11 -37q-81 0 -115 -45q-29 -37 -36 -123l-52 -688l394 542q100 137 125 189q17 35 17 58q0 55 -109 67l10 37h362
l-9 -37q-49 -9 -81 -34q-45 -35 -117 -134l-861 -1182h-59l69 915l-667 -915h-60z" />
    <glyph glyph-name="X" unicode="X" horiz-adv-x="1366" 
d="M616 627l-211 492q-47 109 -69 137q-44 55 -130 63v37h599l-11 -37q-107 -8 -107 -78q0 -39 35 -122l120 -284l167 153q142 130 179 190q23 37 23 67q0 68 -103 74l12 37h443l-9 -37q-50 -9 -92 -36q-67 -43 -224 -187l-365 -335l205 -477q56 -129 74 -157
q50 -72 138 -90l-10 -37h-601l12 37q121 2 121 86q0 47 -56 177l-110 255l-250 -233q-90 -84 -97 -92q-61 -66 -61 -115q0 -74 120 -78l-12 -37h-470l10 37q53 10 91 33q88 53 229 182z" />
    <glyph glyph-name="Y" unicode="Y" horiz-adv-x="1251" 
d="M542 599l-114 494q-30 128 -70 175q-31 36 -113 51l11 37h651l-12 -37q-182 0 -182 -130q0 -33 18 -115l88 -401l219 302q126 174 126 247q0 84 -114 97l11 37h407v-37q-77 -8 -146 -85q-12 -13 -105 -141l-385 -530l-90 -314q-29 -101 -29 -113q0 -99 144 -99h38
l-11 -37h-694l10 37q139 -2 191 76q17 26 47 128z" />
    <glyph glyph-name="Z" unicode="Z" horiz-adv-x="1251" 
d="M1390 1319l-1037 -1245h81q229 0 374 65q156 69 288 243h42l-142 -382h-1052v37l1036 1241h-127q-215 0 -327 -46q-143 -58 -237 -220h-40l116 344h1025v-37z" />
    <glyph glyph-name="bracketleft" unicode="[" horiz-adv-x="682" 
d="M-59 -377l504 1733h433l-11 -37h-33q-121 0 -167 -65q-25 -34 -52 -126l-371 -1270q-31 -106 -31 -142q0 -32 41 -48q15 -6 68 -6h61l-11 -39h-431z" />
    <glyph glyph-name="backslash" unicode="\" horiz-adv-x="569" 
d="M280 1384l136 -1415h-122l-134 1415h120z" />
    <glyph glyph-name="bracketright" unicode="]" horiz-adv-x="682" 
d="M710 1356l-504 -1733h-433l11 39h33q120 0 167 64q25 34 52 126l371 1270q31 106 31 142q0 32 -41 48q-18 7 -68 7h-61l11 37h431z" />
    <glyph glyph-name="asciicircum" unicode="^" horiz-adv-x="1167" 
d="M208 666l411 718h82l404 -718h-159l-295 512l-290 -512h-153z" />
    <glyph glyph-name="underscore" unicode="_" 
d="M-180 -311h1062v-131h-1062v131z" />
    <glyph glyph-name="grave" unicode="`" horiz-adv-x="682" 
d="M244 1387h294l107 -347h-78z" />
    <glyph glyph-name="a" unicode="a" 
d="M981 913l-214 -746q-3 -12 -3 -22q0 -30 26 -30q21 0 58 32q15 13 72 92l35 -18q-136 -249 -325 -249q-117 0 -117 104q0 37 32 145l24 81q-116 -199 -223 -282q-62 -48 -132 -48q-91 0 -137 81q-37 66 -37 165q0 159 93 340q91 175 219 277q116 92 216 92
q112 0 140 -151l36 123zM661 723q0 142 -74 142q-93 0 -208 -281q-78 -190 -78 -328q0 -100 56 -100q45 0 91 52q66 74 119 181q94 189 94 334z" />
    <glyph glyph-name="b" unicode="b" 
d="M647 1387l-173 -603q131 143 247 143t181 -87q58 -79 58 -199q0 -271 -196 -482q-173 -187 -396 -187q-165 0 -349 97l306 1061q22 76 22 103q0 61 -105 55l11 40l334 59h60zM263 59q47 -30 85 -30q53 0 89 21q139 82 224 338q42 126 42 251q0 56 -24 97q-29 48 -82 48
q-69 0 -122 -68q-35 -45 -76 -187z" />
    <glyph glyph-name="c" unicode="c" horiz-adv-x="909" 
d="M769 241l30 -27q-97 -116 -191 -170q-125 -72 -259 -72q-192 0 -262 147q-33 69 -33 142q0 168 91 327q89 155 234 247t286 92q94 0 155 -39q72 -46 72 -135q0 -61 -38 -109q-42 -52 -101 -52q-44 0 -75.5 29t-31.5 72q0 54 54 94q37 28 37 49q0 45 -67 45
q-84 0 -158 -68q-94 -86 -149 -225q-53 -132 -53 -265q0 -86 45 -147q51 -68 134 -68q147 0 280 133z" />
    <glyph glyph-name="d" unicode="d" 
d="M1117 1387l-325 -1119q-31 -107 -31 -127q0 -27 25 -27q45 0 129 123l36 -19q-141 -246 -310 -246q-125 0 -125 112q0 46 26 134l30 102q-126 -223 -217 -294q-69 -54 -136 -54q-91 0 -138 78q-40 65 -40 161q0 138 62 286q59 141 157 250q160 180 319 180q72 0 139 -76
l74 249q27 91 27 132q0 58 -66 58q-14 0 -35 -3l10 39l329 61h60zM677 753q0 117 -80 117q-101 0 -217 -290q-78 -194 -78 -326q0 -94 55 -94q34 0 70 32q86 78 168 261.5t82 299.5z" />
    <glyph glyph-name="e" unicode="e" horiz-adv-x="909" 
d="M320 375q-9 -65 -9 -107q0 -74 43 -119.5t117 -45.5q137 0 304 153l30 -27q-213 -257 -465 -257q-295 0 -295 265q0 175 102 340q98 157 254 251q164 99 330 99q170 0 170 -141q0 -74 -42 -142q-107 -174 -343 -239q-73 -20 -196 -30zM329 427q152 22 232 108
q114 121 114 266q0 60 -55 60q-48 0 -108 -67q-110 -122 -183 -367z" />
    <glyph glyph-name="f" unicode="f" horiz-adv-x="682" 
d="M536 782l-117 -462q-64 -254 -115 -378q-93 -223 -227 -314q-105 -70 -240 -70q-165 0 -165 109q0 47 38 75q34 26 82 26q93 0 93 -81q0 -29 -15 -48t-15 -20l5 -7q6 -5 14 -5q30 0 51 19q53 47 79 114q20 52 69 243l204 799h-139l33 117q76 -1 110 20t71 89
q205 379 504 379q183 0 183 -133q0 -48 -26 -79q-28 -34 -75 -34q-38 0 -65 24t-27 61q0 22 16.5 52.5t16.5 38.5q0 25 -27 25q-58 0 -121 -73q-102 -119 -164 -370h145l-35 -117h-141z" />
    <glyph glyph-name="g" unicode="g" 
d="M792 866h266l-32 -110h-138q32 -59 32 -112q0 -198 -195 -291q-97 -46 -215 -46q-56 0 -150 17q-95 -49 -95 -83q0 -45 92 -65q204 -44 269 -71q180 -75 180 -235q0 -165 -163 -248q-126 -64 -308 -64q-243 0 -358 80q-83 58 -83 138q0 141 288 205q-61 34 -82 62
q-29 38 -29 79q0 127 233 219q-185 74 -185 244q0 194 208 293q102 49 235 49q85 0 151 -19q34 -10 79 -42zM583 878q-48 0 -83 -32q-60 -55 -100 -178q-35 -110 -35 -204q0 -106 99 -106q84 0 148 147q11 26 22 57q42 120 42 218q0 42 -26 70t-67 28zM238 -42
q-164 -64 -164 -173q0 -92 105 -137q77 -33 182 -33q92 0 154 30q83 39 83 122q0 68 -96 112q-38 17 -153 47q-60 16 -111 32z" />
    <glyph glyph-name="h" unicode="h" horiz-adv-x="1139" 
d="M673 1387l-260 -901q139 205 196 269q153 172 282 172q57 0 92 -43q32 -40 32 -98q0 -54 -24 -135l-127 -426q-17 -57 -17 -75q0 -24 23 -24q11 0 24 10q33 26 68 80q11 16 29 42l39 -22q-150 -248 -309 -248q-56 0 -92 28q-40 30 -40 84q0 43 24 125l124 426
q12 41 12 64q0 28 -28 28q-36 0 -99 -60q-130 -123 -260 -386l-89 -297h-248l328 1130q20 69 20 103q0 61 -100 55l7 40l333 59h60z" />
    <glyph glyph-name="i" unicode="i" horiz-adv-x="569" 
d="M460 1387q62 0 104.5 -42.5t42.5 -104.5q0 -61 -43 -104t-104 -43t-103.5 43t-42.5 104t42.5 104t103.5 43zM522 927l-205 -711q-17 -59 -17 -80q0 -30 28 -30q16 0 34 15q46 39 108 134l34 -20q-151 -263 -321 -263q-61 0 -100 34q-42 35 -42 95q0 36 17 94l139 478
q20 69 20 104q0 56 -71 56q-15 0 -36 -1l13 40l339 55h60z" />
    <glyph glyph-name="j" unicode="j" horiz-adv-x="569" 
d="M461 1387q62 0 105 -43.5t43 -105.5q0 -61 -43.5 -104.5t-104.5 -43.5q-62 0 -105.5 43t-43.5 105t43.5 105.5t105.5 43.5zM545 927l-213 -787q-64 -238 -148 -381q-54 -93 -147.5 -147t-201.5 -54q-62 0 -107 23q-58 28 -58 85q0 47 36 77t83 30q86 0 86 -73
q0 -29 -27 -58q-11 -12 -11 -18q0 -18 26 -18q43 0 76 50q21 32 78 248l204 770q22 83 22 104q0 26 -28 43q-24 14 -52 14q-11 0 -26 -1l11 38l337 55h60z" />
    <glyph glyph-name="k" unicode="k" 
d="M667 1387l-276 -946l305 280q29 25 46 58q8 15 8 28q0 46 -117 54l11 38h407l-10 -38q-72 -17 -117 -39q-36 -18 -86 -56q-66 -51 -109 -91l-44 -41l61 -276q36 -162 52 -185q10 -15 26 -15q35 0 83 82q5 9 19 31l37 -23q-75 -140 -169 -213q-63 -49 -114 -49
q-74 0 -112 82q-16 34 -41 146l-50 227l-110 -98l-100 -343h-255l332 1129q21 71 21 97q0 44 -37 59q-18 7 -70 7l9 37l340 58h60z" />
    <glyph glyph-name="l" unicode="l" horiz-adv-x="569" 
d="M648 1387l-331 -1126q-29 -99 -29 -125q0 -31 27 -31q17 0 34 14q49 41 107 132l39 -18q-163 -261 -321 -261q-59 0 -99 31q-45 33 -45 90q0 37 24 119l270 922q22 75 22 101q0 61 -106 55l11 38l337 59h60z" />
    <glyph glyph-name="m" unicode="m" horiz-adv-x="1593" 
d="M544 927l-128 -430q130 199 188 267q140 163 257 163q123 0 123 -125q0 -47 -27 -144l-45 -161q130 200 187 266q87 101 153 138q46 26 96 26q55 0 89.5 -36.5t34.5 -91.5q0 -65 -30 -166l-111 -373q-25 -84 -25 -107q0 -22 21 -22q10 0 19 7q36 29 76 85q8 10 27 37
l34 -22q-133 -249 -304 -249q-53 0 -92 29q-43 31 -43 83q0 44 25 130l113 390q23 79 23 101q0 20 -21 20q-14 0 -26 -6q-51 -26 -172 -202q-110 -161 -159 -328l-61 -206h-253l187 653q15 52 15 73q0 19 -20 19q-38 0 -117 -97q-121 -148 -222 -361l-81 -287h-255l188 643
q28 96 28 135q0 33 -34 46q-18 6 -69 6l10 38l341 59h60z" />
    <glyph glyph-name="n" unicode="n" horiz-adv-x="1139" 
d="M547 927l-124 -429q126 190 187 257q156 172 281 172q57 0 91.5 -40.5t34.5 -98.5q0 -56 -24 -136l-128 -427q-16 -53 -16 -73q0 -26 23 -26q11 0 21 8q35 28 71 82q8 12 29 42l38 -23q-147 -247 -309 -247q-56 0 -92 28q-40 30 -40 84q0 43 24 125l125 427q13 44 13 62
q0 28 -30 28q-38 0 -92 -52q-138 -132 -267 -393l-82 -297h-255l187 642q27 93 27 135q0 34 -34 47q-18 6 -68 6l11 38l337 59h61z" />
    <glyph glyph-name="o" unicode="o" 
d="M673 927q178 0 254 -138q35 -65 35 -144q0 -168 -93 -330q-92 -158 -236 -249q-148 -94 -298 -94q-127 0 -206 76t-79 203q0 265 197 473q192 203 426 203zM632 874q-53 0 -88 -31q-92 -83 -173 -335q-73 -230 -73 -377q0 -42 26 -74t68 -32q39 0 69 24q59 48 129 205
q54 124 84 234q41 151 41 277q0 109 -83 109z" />
    <glyph glyph-name="p" unicode="p" 
d="M124 871l331 56h60l-45 -163q178 163 305 163q97 0 150 -79q46 -69 46 -171q0 -287 -199 -509q-176 -196 -384 -196q-62 0 -136 38l-52 -180q-28 -97 -28 -149q0 -62 125 -82l-9 -37h-538l10 37q83 3 128 67q29 41 58 142l244 841q27 93 27 133q0 35 -32 45q-16 5 -72 5z
M280 103q50 -82 110 -82q63 0 138 88q106 124 153 325q25 105 25 201q0 147 -94 147q-73 0 -172 -115z" />
    <glyph glyph-name="q" unicode="q" 
d="M990 899l-295 -1011q-30 -103 -36 -131q-9 -43 -9 -74q0 -73 129 -84l-11 -37h-529l10 37q100 15 138 89q16 32 50 148l133 453q-185 -317 -355 -317q-73 0 -117 54q-59 72 -59 195q0 133 63 279q58 136 154.5 243t195.5 158q50 26 113 26q126 0 154 -154l38 126h233z
M590 863q-104 0 -207 -266q-82 -212 -82 -337q0 -102 63 -102q34 0 70 32q85 76 165 249t80 285q0 51 -19 89q-24 50 -70 50z" />
    <glyph glyph-name="r" unicode="r" horiz-adv-x="797" 
d="M485 927l-151 -562q186 411 280 506q55 56 116 56q94 0 94 -117q0 -97 -47 -163q-30 -42 -67 -42t-57 32q-29 47 -31 49q-8 6 -17 6q-29 0 -78 -64q-77 -100 -169 -340q-29 -76 -81 -288h-242l165 663q18 72 18 98q0 49 -35 64q-17 7 -69 7l9 29l302 66h60z" />
    <glyph glyph-name="s" unicode="s" horiz-adv-x="797" 
d="M762 927l-44 -309h-37q-7 98 -60 172q-61 86 -154 86q-42 0 -73 -24q-33 -27 -33 -68q0 -60 71 -136q124 -133 149 -167q77 -106 77 -204q0 -177 -159 -262q-80 -43 -166 -43q-60 0 -143 23q-58 16 -84 16q-42 0 -70 -39h-37l49 333h32q29 -100 50 -143q37 -76 97 -111
q51 -31 98 -31q52 0 89.5 33t37.5 84q0 84 -132 228q-119 129 -154 196q-26 49 -26 114q0 122 91 190q82 62 208 62q62 0 152 -22q45 -11 72 -11q39 0 63 33h36z" />
    <glyph glyph-name="t" unicode="t" horiz-adv-x="569" 
d="M587 1171l-80 -272h131l-35 -115h-129l-167 -580q-16 -56 -16 -82q0 -32 29 -32q17 0 35 14q46 35 107 122l35 -22q-133 -232 -315 -232q-143 0 -143 122q0 60 26 149l158 541h-136l20 74q138 51 236 125q80 61 192 188h52z" />
    <glyph glyph-name="u" unicode="u" horiz-adv-x="1139" 
d="M544 927l-194 -680q-14 -49 -14 -65q0 -9 7 -14q8 -8 19 -8q47 0 123 82q109 117 231 342l91 306l253 9l-192 -660q-24 -82 -24 -96q0 -25 23 -25q13 0 27 12q38 32 95 117l34 -24q-139 -251 -306 -251q-133 0 -133 114q0 51 25 137l49 169q-132 -192 -189 -255
q-149 -165 -269 -165q-56 0 -93 40.5t-37 97.5q0 49 25 137l113 400q28 99 28 132q0 32 -34 45q-19 6 -69 6l10 38l341 59h60z" />
    <glyph glyph-name="v" unicode="v" horiz-adv-x="909" 
d="M282 -28h-36q3 82 3 124q0 132 -14 315q-18 220 -43 302q-29 93 -94 93q-17 0 -41 -4v36l333 89q100 -273 97 -699q258 246 258 372q0 42 -30 86q-42 63 -47 75q-9 20 -9 44q0 52 34 87t86 35q55 0 85 -35q42 -49 42 -116q0 -127 -108 -292q-60 -91 -133 -165
q-134 -136 -383 -347z" />
    <glyph glyph-name="w" unicode="w" horiz-adv-x="1366" 
d="M881 927l74 -702q243 240 243 380q0 40 -50 105q-30 40 -34 49q-7 18 -7 46q0 52 35.5 87t87.5 35q53 0 84 -36q44 -52 44 -120q0 -287 -590 -799h-40l-62 614l-432 -614h-43q15 278 15 520q0 158 -17 228q-20 83 -91 83q-16 0 -41 -4v37l344 91q27 -75 38 -147
q17 -110 17 -247q0 -50 -4 -152l387 546h42z" />
    <glyph glyph-name="x" unicode="x" 
d="M93 867l349 60q95 -149 134 -328q98 144 148 203q108 125 203 125q114 0 114 -111q0 -46 -28.5 -77.5t-74.5 -31.5q-26 0 -69.5 11.5t-61.5 11.5q-42 0 -80 -30q-52 -41 -128 -175q85 -300 136 -366q30 -39 61 -39q27 0 45 13q28 20 89 105l36 -21q-152 -245 -298 -245
q-120 0 -182 122q-33 64 -78 206q-88 -112 -136 -166q-100 -113 -158 -141q-44 -21 -94 -21q-113 0 -113 108q0 51 33 84t84 33q27 0 61 -16q50 -24 72 -24q58 0 128 77q27 29 103 132q-96 355 -150 426q-34 45 -86 45q-27 0 -66 -8z" />
    <glyph glyph-name="y" unicode="y" horiz-adv-x="909" 
d="M52 837l308 90q36 -45 52 -87q27 -73 38 -196q21 -242 29 -525q106 139 245 373q42 70 42 132q0 36 -44 70q-57 45 -65 59q-12 19 -12 50q0 51 37 87.5t88 36.5q56 0 96 -42t40 -99q0 -93 -79 -241q-31 -57 -134 -218q-178 -276 -347 -476q-181 -213 -315 -274
q-42 -19 -85 -19q-56 0 -97 39.5t-41 95.5q0 53 35 92t87 39q61 0 112 -64q34 -43 56 -43q48 0 129 87q6 125 6 189q0 63 -8 242l-17 381q-4 100 -45 151q-27 34 -73 34q-17 0 -38 -3v39z" />
    <glyph glyph-name="z" unicode="z" horiz-adv-x="797" 
d="M813 899l-568 -671q73 -22 109 -76q28 -44 44 -130q28 -153 88 -153q44 0 44 47q0 19 -12 62q-8 29 -8 56q0 54 34 93t87 39q49 0 77.5 -35.5t28.5 -85.5q0 -95 -86 -160q-79 -59 -177 -59q-127 0 -251 118q-50 47 -81 64q-17 9 -46 9q-24 0 -53 -17h-64l580 688h-208
q-83 0 -121 -19q-45 -22 -82 -89h-43l83 319h625z" />
    <glyph glyph-name="braceleft" unicode="{" horiz-adv-x="713" 
d="M934 1387l-13 -45q-183 -34 -239 -162q-26 -60 -35 -199.5t-38 -203.5q-67 -147 -232 -230q-55 -27 -174 -58q120 -41 169 -87q75 -71 75 -176q0 -75 -80.5 -227.5t-80.5 -222.5q0 -113 145 -143l-13 -47q-97 -1 -150 17q-181 62 -181 237q0 80 85.5 236.5t85.5 235.5
q0 122 -145 145l17 61q176 29 242 173q30 66 37.5 209.5t37.5 208.5q35 76 114 144q75 65 158 96q92 34 215 38z" />
    <glyph glyph-name="bar" unicode="|" horiz-adv-x="451" 
d="M159 -442v1829h130v-1829h-130z" />
    <glyph glyph-name="braceright" unicode="}" horiz-adv-x="713" 
d="M-191 -414l13 46q184 34 239 161q26 61 35 200.5t38 204.5q66 145 232 229q53 27 174 58q-120 41 -169 87q-75 71 -75 175q0 75 80.5 227.5t80.5 223.5q0 113 -145 143l13 46q99 1 150 -16q181 -60 181 -237q0 -80 -85.5 -236.5t-85.5 -235.5q0 -122 145 -145l-17 -61
q-176 -29 -242 -173q-30 -66 -37 -209.5t-37 -208.5q-36 -76 -115 -144q-75 -65 -157 -96q-93 -34 -216 -39z" />
    <glyph glyph-name="asciitilde" unicode="~" horiz-adv-x="1167" 
d="M1071 709h57q-5 -136 -68 -223q-72 -100 -201 -100q-91 0 -375 119q-146 61 -211 61q-144 0 -176 -179h-58q7 136 64 221q69 102 196 102q55 0 104 -14q103 -29 279 -105q101 -44 147 -56q29 -8 65 -8q158 0 177 182z" />
    <glyph glyph-name="exclamdown" unicode="&#xa1;" horiz-adv-x="797" 
d="M484 974q68 0 115.5 -47.5t47.5 -115.5t-47.5 -115.5t-115.5 -47.5q-67 0 -115 48t-48 115q0 68 47.5 115.5t115.5 47.5zM392 559h38q-2 -9 -62 -478q-46 -353 -85 -428q-51 -95 -132 -95q-48 0 -81 42q-30 39 -30 89q0 78 122 333q145 302 230 537z" />
    <glyph glyph-name="cent" unicode="&#xa2;" 
d="M824 1319l-118 -392q116 -2 168 -39q73 -52 73 -138q0 -60 -40 -107q-41 -51 -100 -51q-43 0 -74.5 28.5t-31.5 70.5q0 56 56 98q35 26 35 48q0 23 -29 36q-16 7 -37 7q-14 0 -36 -3l-224 -748q61 -22 91 -22q63 0 145 44q72 39 122 91l29 -30q-147 -169 -280 -213
q-63 -21 -153 -24l-106 -356h-70l108 356q-163 35 -214 152q-29 64 -29 134q0 165 83 317q79 147 216 247q89 65 228 102l119 392h69zM613 847q-59 -38 -94 -82q-154 -193 -154 -444q0 -68 47 -148z" />
    <glyph glyph-name="sterling" unicode="&#xa3;" 
d="M621 759h214l-46 -147h-203q-59 -177 -116 -315q87 -40 173 -80q116 -53 172 -53q51 0 94 63h38q-104 -255 -326 -255q-105 0 -261 94q-56 -94 -143 -94q-62 0 -103 44.5t-41 107.5q0 101 72 155q64 47 170 48q3 86 15 285h-181l45 147h148q117 625 511 625q86 0 147 -35
q75 -43 75 -123q0 -49 -35 -85t-84 -36q-46 0 -78.5 28.5t-32.5 74.5q0 23 9 41q15 30 15 38q0 32 -49 32q-48 0 -76 -48q-17 -29 -56 -212q-48 -224 -67 -300zM282 119q-54 38 -85 38q-54 0 -54 -58q0 -62 57 -62q42 0 82 82z" />
    <glyph glyph-name="currency" unicode="&#xa4;" 
d="M819 1027l138 135l89 -87l-140 -140q87 -122 87 -260q0 -135 -87 -265l129 -128l-92 -91l-130 129q-136 -85 -263 -85q-133 0 -263 85l-133 -129l-88 91l131 128q-88 117 -88 261q0 156 88 264l-136 135l93 92l133 -135q124 90 261 90q134 0 271 -90zM550 987
q-130 0 -221.5 -91t-91.5 -221t91.5 -221.5t221.5 -91.5q131 0 222 91t91 222q0 130 -91.5 221t-221.5 91z" />
    <glyph glyph-name="yen" unicode="&#xa5;" 
d="M768 685h334l-22 -67h-357l-41 -61l-39 -142h394l-22 -67h-391l-27 -98q-25 -91 -25 -123q0 -54 62 -78q28 -12 102 -12l-10 -37h-646l12 37q113 0 160 42q42 37 75 152l34 117h-380l21 67h379l55 193l-2 10h-388l21 67h354l-84 444q-23 119 -54 158q-21 26 -74 32l12 37
h515l-10 -37q-135 -10 -135 -100q0 -43 15 -124l76 -410l238 365q90 138 90 202q0 61 -100 67l10 37h338l-11 -37q-30 -2 -54 -19q-30 -22 -85 -104z" />
    <glyph glyph-name="brokenbar" unicode="&#xa6;" horiz-adv-x="451" 
d="M159 657v730h130v-730h-130zM159 -442v731h130v-731h-130z" />
    <glyph glyph-name="section" unicode="&#xa7;" 
d="M371 857q-61 96 -61 179q0 159 123 259q114 92 277 92q140 0 250 -73q125 -83 125 -217q0 -49 -32 -83.5t-81 -34.5q-111 0 -111 118q0 27 5 52q9 45 9 60q0 54 -53 84q-43 24 -101 24q-86 0 -147 -46q-68 -51 -68 -134q0 -85 69 -165q35 -39 139 -123q232 -187 232 -375
q0 -224 -261 -406q54 -104 54 -178q0 -149 -130 -245q-118 -87 -272 -87q-132 0 -240 70q-125 79 -125 205q0 52 31.5 87.5t82.5 35.5q49 0 78.5 -33.5t29.5 -83.5q0 -24 -6 -51q-10 -45 -10 -63q0 -51 53 -80q44 -23 99 -23q85 0 146 43q68 49 68 131q0 87 -65 163
q-33 39 -136 121q-230 182 -230 366q0 234 258 411zM402 813q-121 -108 -121 -221q0 -87 66 -172q36 -46 135 -134q88 -78 168 -165q133 109 133 222q0 93 -73 181q-39 47 -148 137q-90 74 -160 152z" />
    <glyph glyph-name="dieresis" unicode="&#xa8;" horiz-adv-x="682" 
d="M318 1347q55 0 94 -39t39 -94t-39 -94t-94 -39t-94 39t-39 94t39 94t94 39zM690 1346q55 0 93.5 -38.5t38.5 -93.5t-38.5 -93.5t-93.5 -38.5t-93.5 38.5t-38.5 93.5t38.5 93.5t93.5 38.5z" />
    <glyph glyph-name="copyright" unicode="&#xa9;" horiz-adv-x="1530" 
d="M819 1387q189 0 356 -95t259 -258q95 -171 95 -356q0 -190 -96 -357t-261 -258q-169 -94 -353 -94q-190 0 -356.5 95.5t-258.5 260.5q-94 169 -94 353q0 191 97.5 359.5t263.5 258.5q170 91 348 91zM819 1298q-165 0 -311 -83.5t-225 -225.5q-84 -150 -84 -311
q0 -166 84 -312t228 -226q148 -82 308 -82q166 0 312 84t227 229.5t81 306.5q0 167 -85 314.5t-229 225.5q-149 80 -306 80zM1154 1106v-264h-38q-19 96 -83 155q-67 61 -163 61q-138 0 -205 -119q-53 -95 -53 -245q0 -374 253 -374q148 0 261 138v-70q-121 -127 -318 -127
q-185 0 -303 111.5t-118 295.5q0 191 124 315t316 124q87 0 197 -40q33 -12 46 -12q40 0 46 51h38z" />
    <glyph glyph-name="ordfeminine" unicode="&#xaa;" horiz-adv-x="545" 
d="M751 1375l-124 -396q-16 -51 -16 -63q0 -18 18 -18q8 0 18 7q25 18 65 67l23 -13q-90 -148 -206 -148q-85 0 -85 67q0 24 14 67l21 64q-59 -93 -92 -128q-66 -70 -135 -70q-112 0 -112 139q0 134 103 278q110 156 239 156q73 0 90 -87l21 70zM495 1347q-47 0 -85 -66
q-9 -15 -47 -104q-54 -127 -54 -194q0 -28 15 -48q9 -12 23 -12q68 0 135 142q60 125 60 206q0 76 -47 76z" />
    <glyph glyph-name="guillemotleft" unicode="&#xab;" 
d="M589 911l-257 -461l59 -460h-59l-249 460l442 461h64zM1010 911l-256 -461l64 -460h-64l-246 460l441 461h61z" />
    <glyph glyph-name="logicalnot" unicode="&#xac;" horiz-adv-x="1241" 
d="M73 902h1094v-455h-129v329l-965 -2v128z" />
    <glyph glyph-name="registered" unicode="&#xae;" horiz-adv-x="1530" 
d="M819 1387q189 0 356 -95t259 -258q95 -171 95 -356q0 -190 -96 -357t-261 -258q-169 -94 -353 -94q-190 0 -356.5 95.5t-258.5 260.5q-94 169 -94 353q0 191 97.5 359.5t263.5 258.5q170 91 348 91zM819 1298q-165 0 -311 -83.5t-225 -225.5q-84 -150 -84 -311
q0 -166 84 -312t228 -226q148 -82 308 -82q166 0 312 84t227 229.5t81 306.5q0 167 -85 314.5t-229 225.5q-149 80 -306 80zM440 1090h362q183 0 254 -44q101 -63 101 -175q0 -157 -179 -207l137 -250q29 -53 62 -81q15 -13 43 -18v-34h-242l-205 368h-46v-198
q0 -80 20 -105q23 -28 100 -31v-34h-423v34q62 0 80 21q25 29 25 115v472q0 71 -11 93q-17 33 -78 40v34zM727 700q34 -5 57 -5q72 0 117 55q41 51 41 125q0 171 -177 171h-38v-346z" />
    <glyph glyph-name="overscore" unicode="&#xaf;" 
d="M257 1593h1062v-131h-1062v131z" />
    <glyph glyph-name="degree" unicode="&#xb0;" horiz-adv-x="819" 
d="M526 1384q145 0 245.5 -100.5t100.5 -245.5q0 -144 -101 -245t-245 -101t-245 101t-101 245q0 145 100.5 245.5t245.5 100.5zM526 1254q-90 0 -152.5 -62.5t-62.5 -152.5t62.5 -152.5t152.5 -62.5t152.5 62.5t62.5 152.5t-62.5 152.5t-152.5 62.5z" />
    <glyph glyph-name="plusminus" unicode="&#xb1;" horiz-adv-x="1124" 
d="M31 744h481v480h131v-480h481v-132h-481l1 -344h480v-132h-1093l-1 131h482v345h-481v132z" />
    <glyph glyph-name="twosuperior" unicode="&#xb2;" horiz-adv-x="614" 
d="M547 664h-446v27q304 243 384 357q40 57 40 122q0 101 -107 101q-76 0 -135 -81l-40 16q73 178 251 178q79 0 140 -40q70 -45 70 -120q0 -105 -153 -246q-47 -42 -238 -184h131q66 0 90 10q32 13 61 63h52z" />
    <glyph glyph-name="threesuperior" unicode="&#xb3;" horiz-adv-x="614" 
d="M249 1041l11 33q259 31 259 157q0 77 -85 77q-57 0 -116 -70l-42 18q98 128 225 128q69 0 123 -32q64 -38 64 -103q0 -55 -40 -94q-54 -53 -148 -68q62 -29 85 -59q36 -47 36 -106q0 -126 -123 -205q-107 -68 -240 -68q-147 0 -147 72q0 60 78 60q32 0 96 -38
q45 -27 74 -27q30 0 56 33q35 45 35 111q0 90 -63 140q-41 32 -138 41z" />
    <glyph glyph-name="acute" unicode="&#xb4;" horiz-adv-x="682" 
d="M521 1387h308l-337 -350h-90z" />
    <glyph glyph-name="mu1" unicode="&#xb5;" horiz-adv-x="1180" 
d="M304 899h255l-187 -647q-7 -33 -7 -61q0 -73 70 -73q98 0 189 164q58 106 98 244l107 373h255l-179 -616q-33 -114 -33 -143q0 -56 50 -56q17 0 38 20q41 39 76 120l36 -19q-81 -233 -266 -233q-75 0 -121 45t-46 120q0 36 7 87q-112 -156 -199 -210q-67 -42 -145 -42
q-57 0 -99 25q-26 15 -54 63q-42 -128 -49 -280q-5 -93 -16 -127q-31 -96 -115 -96q-43 0 -70 32t-27 76q0 57 70 179q95 167 101 181q26 61 66 199z" />
    <glyph glyph-name="paragraph" unicode="&#xb6;" 
d="M598 1280v-1722h-100v871q-362 16 -477 227q-61 110 -61 247q0 179 105 296q102 114 242 139q99 18 321 18h440v-44h-44q-103 0 -134 -70q-11 -25 -11 -133v-1551h-99v1722h-182z" />
    <glyph glyph-name="middot" unicode="&#xb7;" horiz-adv-x="683" 
d="M626 817q54 0 92.5 -38.5t38.5 -92.5t-38.5 -92.5t-92.5 -38.5t-92.5 38.5t-38.5 92.5q0 55 38 93t93 38z" />
    <glyph glyph-name="cedilla" unicode="&#xb8;" horiz-adv-x="682" 
d="M298 0h76l-69 -52q161 -22 161 -152q0 -93 -90 -138q-69 -34 -172 -34q-111 0 -193 30l12 31q75 -14 112 -14q55 0 93 24q46 28 46 79q0 33 -22 57.5t-54 24.5q-22 0 -55 -8l-13 30z" />
    <glyph glyph-name="onesuperior" unicode="&#xb9;" horiz-adv-x="614" 
d="M661 1384l-199 -591q-14 -42 -14 -54q0 -29 25 -36q9 -4 52 -6l36 -2l-11 -31h-427l11 31q80 2 103 16q28 17 52 88l116 346q30 89 30 105q0 43 -49 43q-18 0 -70 -5l-8 31z" />
    <glyph glyph-name="ordmasculine" unicode="&#xba;" horiz-adv-x="614" 
d="M579 1384q82 0 134 -44q55 -47 55 -128q0 -100 -62 -198q-59 -93 -148 -145q-99 -58 -194 -58q-83 0 -134 43q-54 45 -54 127q0 102 61 200q59 94 151 147q98 56 191 56zM554 1352q-36 0 -59 -20q-58 -51 -110 -198q-48 -137 -48 -225q0 -66 63 -66q28 0 48 19
q65 61 114 197q46 128 46 226q0 67 -54 67z" />
    <glyph glyph-name="guillemotright" unicode="&#xbb;" 
d="M435 -10l257 461l-59 460h59l249 -460l-443 -461h-63zM14 -10l256 461l-64 460h64l246 -460l-441 -461h-61z" />
    <glyph glyph-name="onequarter" unicode="&#xbc;" horiz-adv-x="1536" 
d="M1364 1384l-963 -1443h-132l959 1443h136zM659 1384l-199 -591q-14 -42 -14 -54q0 -29 25 -36q9 -4 52 -6l36 -2l-11 -31h-427l11 31q80 2 103 16q28 17 52 88l116 346q30 89 30 105q0 43 -49 43q-18 0 -70 -5l-8 31zM1098 101h-268l32 94l484 480h98l-160 -480h92
l-35 -94h-90l-55 -160h-152zM1132 195l84 270l-271 -270h187z" />
    <glyph glyph-name="onehalf" unicode="&#xbd;" horiz-adv-x="1536" 
d="M1316 1384l-963 -1443h-132l959 1443h136zM659 1384l-199 -591q-14 -42 -14 -54q0 -29 25 -36q15 -6 52 -6q6 0 36 -2l-11 -31h-427l11 31q80 2 103 16q28 17 52 88l116 346q30 89 30 105q0 43 -49 43q-18 0 -70 -5l-8 31zM1263 -45h-447v27q252 201 358 325
q67 78 67 155q0 101 -107 101q-76 0 -135 -82l-40 17q70 177 251 177q79 0 140 -39q70 -46 70 -121q0 -105 -154 -245q-49 -45 -238 -184h131q66 0 90 10q32 13 62 63h51z" />
    <glyph glyph-name="threequarters" unicode="&#xbe;" horiz-adv-x="1536" 
d="M1364 1384l-963 -1443h-133l959 1443h137zM247 1041l11 33q259 31 259 157q0 77 -85 77q-57 0 -116 -70l-42 18q98 128 225 128q69 0 123 -32q64 -38 64 -103q0 -55 -40 -94q-54 -53 -148 -68q62 -29 85 -59q36 -47 36 -106q0 -126 -123 -205q-107 -68 -240 -68
q-147 0 -147 72q0 60 78 60q32 0 96 -38q45 -27 74 -27q30 0 56 33q35 45 35 111q0 90 -63 140q-41 32 -138 41zM1097 101h-267l31 94l484 480h98l-160 -480h93l-36 -94h-90l-54 -160h-153zM1131 195l84 270l-271 -270h187z" />
    <glyph glyph-name="questiondown" unicode="&#xbf;" 
d="M640 975q68 0 115.5 -48t47.5 -116t-47.5 -116t-115.5 -48t-116 48t-48 116q0 69 47.5 116.5t116.5 47.5zM600 564h40q0 -128 -63 -235q-32 -54 -153 -198q-104 -122 -145 -220q-27 -64 -27 -134q0 -73 33 -121q37 -55 107 -55q35 0 62 18q32 21 32 54q0 18 -18 50
q-35 63 -35 109q0 54 40.5 91t94.5 37q64 0 103 -47q36 -44 36 -110q0 -122 -110 -189q-93 -56 -223 -56q-233 0 -322 138q-43 66 -43 137q0 103 51 181q66 101 236 208q184 115 239 182q49 61 65 160z" />
    <glyph glyph-name="Agrave" unicode="&#xc0;" horiz-adv-x="1366" 
d="M830 437h-420l-84 -104l-96 -115q-25 -30 -41 -67q-10 -23 -10 -46q0 -62 110 -68v-37h-405l10 37q55 9 96 38q55 39 161 165l961 1147h45l-45 -1110q-3 -82 -3 -105q0 -126 119 -135l-10 -37h-587l11 37q88 8 100 14q70 34 79 213zM830 519l26 442l-377 -442h351z" />
    <glyph glyph-name="Aacute" unicode="&#xc1;" horiz-adv-x="1301" 
d="M287 1319l10 37h1048l-105 -366h-38q3 43 3 62q0 139 -106 192q-75 37 -233 37h-102l-155 -549q148 -2 210 -10q117 -14 200 -60q162 -91 162 -263q0 -124 -87 -229q-83 -100 -206 -136q-117 -34 -292 -34h-633l11 37q101 6 150 90q22 36 62 178l219 772q34 120 34 152
q0 54 -53 74q-26 10 -99 16zM424 85q44 -10 83 -10q159 0 260 110q98 107 98 267q0 58 -32 109.5t-84 68.5t-164 17z" />
    <glyph glyph-name="Acircumflex" unicode="&#xc2;" horiz-adv-x="1366" 
d="M317 1356h536q177 0 256 -19q95 -23 152 -88q60 -68 60 -163q0 -173 -175 -270q-88 -49 -269 -90q334 -94 334 -329q0 -113 -79 -213q-74 -95 -184 -137q-119 -47 -436 -47h-564l13 37q133 0 175 62q21 31 50 131l242 834q37 128 37 170q0 79 -158 85zM624 757
q252 4 341 178q47 93 47 176q0 80 -50 128.5t-130 45.5l-55 -2zM600 682l-173 -603q50 -2 75 -2q185 0 291 103t106 288q0 147 -120 194q-53 20 -179 20z" />
    <glyph glyph-name="Atilde" unicode="&#xc3;" horiz-adv-x="1237" 
d="M587 0h-652l11 37q112 2 162 69q32 41 70 173l216 754q46 161 46 201q0 73 -152 85l10 37h1103l-105 -366h-37q2 38 2 60q0 162 -148 209q-69 22 -211 22h-135l-282 -991q-37 -130 -37 -170q0 -83 150 -83z" />
    <glyph glyph-name="Adieresis" unicode="&#xc4;" horiz-adv-x="1399" 
d="M424 1356h1142l-10 -37q-133 0 -191 -90q-25 -40 -76 -217l-210 -735q-29 -102 -29 -150q0 -59 47 -77q23 -9 100 -12l-123 -430h-38q14 63 14 125q0 267 -264 267h-390q-143 0 -227 -25q-104 -32 -191 -118.5t-176 -248.5h-37l122 430q91 0 168 62q48 38 123 136
q212 276 349 725q57 186 57 257q0 70 -54 90q-30 11 -117 11zM703 1281l-78 -271q-86 -300 -249 -594q-98 -177 -218 -341h393q127 0 164 44q20 23 62 171l284 991h-358z" />
    <glyph glyph-name="Aring" unicode="&#xc5;" horiz-adv-x="1366" 
d="M774 1281l-151 -526h46q164 0 245 38q99 47 162 180h37l-152 -528h-35q9 53 9 86q0 106 -117 140q-34 10 -141 10h-78l-130 -455q-17 -59 -17 -89q0 -57 143 -57q355 0 593 292h41l-141 -372h-1160l12 37q111 0 161 50q39 40 73 158l255 873q21 72 21 115q0 52 -53 71
q-26 10 -97 15l11 37h1081l-87 -339h-36q-4 100 -31 141q-52 79 -149 106q-63 17 -188 17h-127z" />
    <glyph glyph-name="AE" unicode="&#xc6;" horiz-adv-x="1880" 
d="M850 1356h627l-11 -37q-101 -8 -154 -103q-25 -43 -66 -187l-90 -314q198 22 279 147q36 55 97 219q50 134 105 198q78 93 194 93q70 0 117 -36q51 -40 51 -108q0 -55 -40 -95t-95 -40q-67 0 -109 59q-29 41 -56 41q-40 0 -80 -89l-44 -122q-42 -116 -81 -170
q-55 -75 -148 -112q96 -27 151 -161q17 -43 62 -225q35 -144 49 -174q44 -100 129 -103l-11 -37h-380l-126 513q-15 63 -24 80q-21 46 -61 46l-104 -362q-35 -122 -35 -154q0 -72 97 -86l-11 -37h-597l11 37q121 0 175 85q25 39 71 201l91 319q-56 0 -97 -40
q-10 -10 -68 -89l-377 -513h-419l10 34q101 7 286 264q117 163 140 190q85 104 175 156q87 51 195 56q-78 60 -78 186q0 37 12 120q14 96 14 125q0 55 -37 55q-22 0 -53 -36q-49 -58 -101 -58q-53 0 -90 36t-37 89q0 73 58 116q52 39 127 39q95 0 153 -61t58 -156
q0 -46 -16 -166q-10 -75 -10 -112q0 -126 84 -152q32 -10 92 -10l95 331q41 143 41 190q0 67 -151 83z" />
    <glyph glyph-name="Ccedilla" unicode="&#xc7;" horiz-adv-x="1042" 
d="M359 1387h38q28 -42 62 -42q15 0 68 13q119 29 203 29q131 0 214 -62q93 -69 93 -196q0 -260 -383 -398q123 -19 198 -99t75 -203q0 -200 -166 -335q-155 -125 -360 -125q-269 0 -453 260l34 37q164 -184 334 -184q139 0 232 109q88 104 88 245q0 123 -76 188
q-72 62 -197 62q-12 0 -32 -1l18 64q165 8 284 108q127 108 127 269q0 165 -151 165q-210 0 -313 -257h-38z" />
    <glyph glyph-name="Egrave" unicode="&#xc8;" horiz-adv-x="1593" 
d="M1090 1356h653l-11 -37q-123 -2 -173 -87q-30 -51 -69 -188l-219 -776q-31 -110 -31 -145q0 -83 152 -86l-10 -37h-658l11 37q118 0 173 80q30 44 72 191l191 668l-714 -770q-15 -53 -15 -84q0 -85 154 -85l-10 -37h-653l11 37q110 0 167 78q35 49 73 182l220 771
q38 133 38 165q0 80 -152 86l11 37h658l-11 -37q-119 0 -177 -85q-32 -46 -75 -196l-189 -658l714 770q13 50 13 77q0 92 -154 92z" />
    <glyph glyph-name="Eacute" unicode="&#xc9;" horiz-adv-x="1593" 
d="M783 1680q0 84 81 84q69 0 105 -98q24 -65 53 -90q33 -29 98 -29q68 0 108 30q34 26 65 92q44 95 120 95q31 0 54 -21t23 -51q0 -103 -147 -161q-113 -45 -232 -45q-113 0 -206 40q-122 54 -122 154zM1090 1356h653l-11 -37q-123 -2 -173 -87q-30 -51 -69 -188l-219 -776
q-31 -110 -31 -145q0 -83 152 -86l-10 -37h-658l11 37q118 0 173 80q30 44 72 191l191 668l-714 -770q-15 -53 -15 -84q0 -85 154 -85l-10 -37h-653l11 37q110 0 167 78q35 49 73 182l220 771q38 133 38 165q0 80 -152 86l11 37h658l-11 -37q-119 0 -177 -85
q-32 -46 -75 -196l-189 -658l714 770q13 50 13 77q0 92 -154 92z" />
    <glyph glyph-name="Ecircumflex" unicode="&#xca;" horiz-adv-x="1389" 
d="M602 713q160 13 250 96q71 66 147 233q55 122 81 163q54 89 123 131q60 36 134 36q75 0 122 -37q51 -41 51 -114q0 -54 -36.5 -89t-90.5 -35q-43 0 -109 56q-46 39 -73 39q-40 0 -75 -57q-7 -13 -42 -92q-58 -130 -99 -193q-66 -98 -156 -146q92 -35 148 -166
q10 -24 70 -221q48 -160 62 -185q47 -84 152 -95l-11 -37h-408l-157 505q-21 67 -32 86q-27 43 -74 43l-103 -360q-36 -126 -36 -161q0 -68 120 -76l-10 -37h-622l11 37q76 8 99 16q44 15 74.5 60t64.5 165l226 791q35 123 35 164q0 83 -151 86l11 37h626l-11 -37
q-106 -20 -158 -112q-23 -41 -67 -194z" />
    <glyph glyph-name="Edieresis" unicode="&#xcb;" horiz-adv-x="1405" 
d="M1572 1356l-10 -37q-124 -4 -182 -85q-34 -47 -77 -197l-221 -772q-28 -98 -28 -137q0 -82 152 -91l-11 -37h-653l11 37q133 0 180 95q21 44 68 206l271 943h-375l-138 -471q-89 -304 -121 -393q-95 -259 -195 -349q-93 -84 -200 -84q-65 0 -113 38q-51 41 -51 104
q0 56 39 94t95 38q63 0 108 -66q30 -45 54 -45q82 0 185 280q54 171 108 343q122 386 122 459q0 90 -144 90h-37l11 37h1152z" />
    <glyph glyph-name="Igrave" unicode="&#xcc;" horiz-adv-x="1821" 
d="M775 1356l100 -932l645 932h475l-12 -37q-107 0 -160 -53q-44 -43 -76 -155l-250 -868q-24 -83 -24 -122q0 -81 148 -84l-9 -37h-677l12 37q114 0 168 48q48 43 81 158l255 879l-776 -1122h-41l-122 1144l-259 -901q-16 -56 -16 -92q0 -109 152 -114l-10 -37h-448l9 37
q82 3 124 34q76 56 110 172l293 1002q-44 49 -83 62q-32 12 -105 12l12 37h484z" />
    <glyph glyph-name="Iacute" unicode="&#xcd;" horiz-adv-x="1593" 
d="M609 732h496l110 379q22 76 22 119q0 55 -55 75q-26 9 -102 14l11 37h674l-11 -37q-108 0 -161 -52q-43 -44 -76 -156l-252 -868q-25 -86 -25 -122q0 -81 154 -84l-10 -37h-661l15 37q107 0 155 51q37 39 70 155l117 404h-494l-116 -404q-25 -87 -25 -123q0 -80 151 -83
l-10 -37h-652l11 37q106 0 154 52q35 38 69 154l252 868q22 76 22 118q0 55 -52 75q-26 10 -101 15l11 37h663l-15 -37q-103 0 -153 -54q-38 -41 -72 -154z" />
    <glyph glyph-name="Icircumflex" unicode="&#xce;" horiz-adv-x="1479" 
d="M576 -32q-308 0 -416 250q-51 116 -51 226q0 236 134 462q130 217 336 347q215 135 425 135q126 0 235.5 -63t170.5 -173t61 -223q0 -243 -155 -501q-154 -254 -368 -375q-151 -85 -372 -85zM971 1306q-139 0 -250 -124q-145 -162 -238 -530q-55 -214 -55 -357
q0 -103 42 -169q49 -78 147 -78q110 0 187 73q151 143 252 430q94 266 94 495q0 260 -179 260z" />
    <glyph glyph-name="Idieresis" unicode="&#xcf;" horiz-adv-x="1593" 
d="M298 1356h1464l-10 -37q-133 -5 -193 -100q-28 -43 -78 -219l-208 -724q-32 -111 -32 -154q0 -77 150 -85l-10 -37h-661l11 37q124 0 177 76q26 38 71 194l279 974h-490l-286 -991q-37 -128 -37 -172q0 -76 145 -81l-11 -37h-651l11 37q117 2 168 71q28 40 70 182
l225 770q38 130 38 169q0 90 -153 90z" />
    <glyph glyph-name="Eth" unicode="&#xd0;" horiz-adv-x="1251" 
d="M581 623l-110 -378q-23 -79 -23 -113q0 -62 56 -82q31 -12 110 -13l-13 -37h-662l11 37q132 2 177 67q17 25 51 141l251 861q26 89 26 123q0 86 -153 90l11 37h537q222 0 318 -56q150 -87 150 -264q0 -203 -181 -324q-159 -105 -371 -105q-76 0 -185 16zM601 700
q65 -8 108 -8q136 0 221 131q75 114 75 258q0 196 -192 196q-19 0 -47 -2z" />
    <glyph glyph-name="Ntilde" unicode="&#xd1;" horiz-adv-x="1366" 
d="M1476 1387l-100 -431h-39q-14 349 -294 349q-173 0 -319 -161q-113 -126 -188 -318q-77 -197 -77 -389q0 -161 76 -253q83 -100 240 -100q226 0 415 221h48q-116 -174 -233 -250q-134 -86 -327 -86q-243 0 -393.5 146.5t-150.5 389.5q0 238 127 441q123 196 335 316
q223 125 444 125q83 0 209 -36q63 -18 89 -18q50 0 101 54h37z" />
    <glyph glyph-name="Ograve" unicode="&#xd2;" horiz-adv-x="1251" 
d="M328 1356h1091l-103 -365h-36q2 29 2 51q0 212 -267 227l-302 -1021q-25 -85 -25 -126q0 -82 157 -85l-9 -37h-673l12 37q113 0 162 51q38 39 74 160l302 1021q-161 -5 -267 -72q-102 -64 -186 -206h-39z" />
    <glyph glyph-name="Oacute" unicode="&#xd3;" horiz-adv-x="1425" 
d="M1190 1356h470l-10 -37q-105 -4 -187 -79q-57 -52 -126 -167l-519 -860q-79 -130 -138 -178q-82 -66 -211 -66q-100 0 -176 47q-90 54 -90 148q0 58 37.5 94t95.5 36q120 0 140 -163q9 -79 67 -79q49 0 99 53q18 18 71 93l-267 889q-37 123 -61 159q-46 70 -142 73l11 37
h643l-11 -37q-163 0 -163 -105q0 -35 25 -118l169 -563l349 577q57 94 57 139q0 70 -143 70z" />
    <glyph glyph-name="Ocircumflex" unicode="&#xd4;" horiz-adv-x="1741" 
d="M783 1356h656l-13 -37q-86 0 -131 -28q-50 -31 -73 -110q191 -3 324 -94q154 -105 154 -287q0 -130 -66 -256q-64 -122 -170 -202q-215 -163 -532 -168q-6 -31 -6 -50q0 -87 150 -87l-11 -37h-655l10 37q91 0 132 26q45 28 75 111q-196 0 -329 94q-151 106 -151 294
q0 281 251 460q225 159 517 159q5 25 5 42q0 96 -148 96zM899 1124q-166 0 -260 -98q-67 -70 -140 -252q-84 -208 -84 -341q0 -129 102 -179q42 -21 126 -22zM949 232q166 0 265 100q77 78 141 256q75 207 75 333q0 203 -226 203z" />
    <glyph glyph-name="Otilde" unicode="&#xd5;" horiz-adv-x="1366" 
d="M616 627l-211 492q-47 109 -69 137q-44 55 -130 63v37h599l-11 -37q-107 -8 -107 -78q0 -39 35 -122l120 -284l167 153q142 130 179 190q23 37 23 67q0 68 -103 74l12 37h443l-9 -37q-50 -9 -92 -36q-67 -43 -224 -187l-365 -335l205 -477q56 -129 74 -157
q50 -72 138 -90l-10 -37h-601l12 37q121 2 121 86q0 47 -56 177l-110 255l-250 -233q-90 -84 -97 -92q-61 -66 -61 -115q0 -74 120 -78l-12 -37h-470l10 37q53 10 91 33q88 53 229 182z" />
    <glyph glyph-name="Odieresis" unicode="&#xd6;" horiz-adv-x="1593" 
d="M1757 1356l-10 -37q-136 0 -186 -90q-28 -50 -72 -204l-217 -754q-34 -118 -34 -147q0 -87 153 -87l-123 -429h-37q11 83 11 139q0 189 -145 234q-62 19 -168 19h-994l10 37q73 0 104 12q44 17 72 72q24 47 70 209l209 729q36 126 36 170q0 86 -152 90l10 37h659l-11 -37
q-119 0 -166 -62q-27 -34 -67 -175l-230 -801q-35 -122 -35 -150q0 -56 126 -56h198q71 0 90 5q40 11 64 56q20 38 58 172l227 790q28 97 28 133q0 88 -156 88l10 37h668z" />
    <glyph glyph-name="multiply" unicode="&#xd7;" horiz-adv-x="1532" 
d="M1025 1356h672l-10 -37q-132 -4 -186 -93q-31 -50 -67 -176l-225 -784q-30 -105 -30 -147q0 -55 52 -72q25 -8 100 -10l-11 -37h-657l11 37q121 2 171 72q27 37 70 186l99 343q-258 -121 -449 -121q-120 0 -202 55q-96 63 -96 177q0 56 28 153l57 198q29 101 29 136
q0 78 -135 83l11 37h636l-11 -37q-122 -9 -173 -81q-28 -39 -71 -191l-37 -130q-32 -112 -32 -167q0 -114 157 -114q113 0 314 94l96 333q34 118 34 160q0 89 -156 96z" />
    <glyph glyph-name="Oslash" unicode="&#xd8;" horiz-adv-x="2306" 
d="M-67 0l11 37q135 0 183 94q19 38 64 195l209 730q36 126 36 179q0 83 -149 84l11 37h633l-11 -37q-104 -9 -158 -101q-27 -45 -68 -187l-219 -765q-30 -105 -30 -136q0 -55 126 -55h162q111 0 146 46q16 22 56 161l233 816q29 102 29 138q0 65 -106 83l10 37h587l-11 -37
q-112 -14 -163 -102q-20 -36 -66 -195l-214 -747q-33 -115 -33 -146q0 -54 124 -54h154q68 0 90 6q41 12 65 58q20 38 56 164l229 792q29 100 29 132q0 80 -107 92l11 37h618l-11 -37q-121 0 -175 -72q-31 -42 -73 -187l-226 -785q-34 -118 -34 -153q0 -83 153 -85l-11 -37
h-2160z" />
    <glyph glyph-name="Ugrave" unicode="&#xd9;" horiz-adv-x="2306" 
d="M-67 0l11 37q135 0 183 94q19 38 64 195l209 730q36 126 36 179q0 83 -149 84l11 37h633l-11 -37q-104 -9 -158 -101q-27 -45 -68 -187l-219 -765q-30 -105 -30 -136q0 -55 126 -55h162q111 0 146 46q16 22 56 161l233 816q29 102 29 138q0 65 -106 83l10 37h587l-11 -37
q-112 -14 -163 -102q-20 -36 -66 -195l-214 -747q-33 -115 -33 -146q0 -54 124 -54h154q68 0 90 6q41 12 65 58q20 38 56 164l229 792q29 100 29 132q0 80 -107 92l11 37h618l-11 -37q-121 0 -175 -72q-31 -42 -73 -187l-226 -785q-34 -118 -34 -153q0 -83 153 -85
l-125 -429h-37q13 83 13 140q0 252 -291 252h-1731z" />
    <glyph glyph-name="Uacute" unicode="&#xda;" horiz-adv-x="1557" 
d="M230 37q102 5 150 89q20 35 62 179l281 976h-32q-273 0 -433 -291h-38l104 366h890l-11 -37q-72 -2 -103 -15q-40 -17 -70 -70.5t-73 -196.5l-91 -305q149 -2 210 -10q117 -14 199 -60q163 -91 163 -263q0 -124 -87 -229q-84 -100 -207 -136q-117 -34 -292 -34h-632z
M681 85q44 -10 83 -10q158 0 259 110q98 107 98 267q0 58 -30 108q-33 53 -85 70t-165 17z" />
    <glyph glyph-name="Ucircumflex" unicode="&#xdb;" horiz-adv-x="1985" 
d="M608 732q148 -2 210 -10q117 -14 200 -60q162 -91 162 -263q0 -124 -87 -229q-83 -100 -206 -136q-117 -34 -292 -34h-633l11 37q101 5 150 89q21 37 62 179l211 737q44 154 44 190q0 51 -54 71q-24 9 -98 16l10 37h657l-11 -37q-77 -2 -112 -20q-42 -22 -72 -85
q-32 -67 -77 -223zM423 85q44 -10 83 -10q159 0 260 110q98 107 98 267q0 58 -32 109.5t-84 68.5t-164 17zM1464 1319l11 37h662l-13 -37q-102 -2 -151 -55q-39 -42 -70 -152l-248 -868q-26 -91 -26 -123q0 -82 163 -84l-10 -37h-673l12 37q110 2 159 51q40 40 73 156
l248 861q25 87 25 126q0 54 -58 74q-30 10 -104 14z" />
    <glyph glyph-name="Udieresis" unicode="&#xdc;" horiz-adv-x="1298" 
d="M607 732q148 -2 210 -10q117 -14 200 -60q162 -91 162 -263q0 -124 -87 -229q-83 -100 -206 -136q-117 -34 -292 -34h-633l11 37q101 5 150 89q21 37 62 179l211 737q44 154 44 190q0 51 -54 71q-24 9 -98 16l10 37h657l-11 -37q-77 -2 -112 -20q-42 -22 -72 -85
q-32 -67 -77 -223zM422 85q44 -10 83 -10q159 0 260 110q98 107 98 267q0 58 -32 109.5t-84 68.5t-164 17z" />
    <glyph glyph-name="Yacute" unicode="&#xdd;" horiz-adv-x="1333" 
d="M345 1387h37q1 -59 49 -59q42 0 142 26q127 33 212 33q236 0 380 -166q137 -157 137 -397q0 -332 -223 -588q-232 -267 -560 -267q-312 0 -511 275l32 26q196 -200 410 -200q204 0 345 194q111 154 158 383h-520l25 85h508q9 104 9 161q0 400 -291 400q-125 0 -253 -110
q-115 -98 -171 -224h-38z" />
    <glyph glyph-name="Thorn" unicode="&#xde;" horiz-adv-x="2163" 
d="M819 638h-238l-112 -394q-27 -95 -27 -123q0 -82 164 -84l-10 -37h-673l11 37q111 2 159 51q40 40 74 156l248 861q25 87 25 126q0 82 -162 88l11 37h662l-13 -37q-102 -2 -151 -55q-38 -42 -70 -152l-111 -388h239q97 268 323 458q243 205 513 205q199 0 337.5 -132.5
t138.5 -330.5q0 -352 -261 -648q-271 -307 -617 -307q-223 0 -353.5 128t-130.5 350q0 87 24 191zM1644 1307q-190 0 -340 -284q-76 -144 -131 -353q-58 -217 -58 -372q0 -102 43 -170q50 -79 147 -79q150 0 274 175q73 103 156 307q102 251 102 515q0 261 -193 261z" />
    <glyph glyph-name="germandbls" unicode="&#xdf;" horiz-adv-x="1411" 
d="M1576 1356l-11 -37q-73 -10 -101 -20q-42 -16 -80 -59q-26 -29 -67 -173l-234 -816q-28 -98 -28 -132q0 -80 150 -82l-11 -37h-605l16 37q76 15 116 67q30 39 55 126l117 409l-22 1q-57 3 -95.5 -23t-90.5 -94l-399 -523h-420l11 37q105 7 220 170q165 234 213 286
q134 144 297 182q-300 63 -300 304q0 194 180 295q146 82 354 82h735zM1072 1263q-55 16 -101 16q-146 0 -241 -101t-95 -248q0 -66 30 -121q34 -61 93 -81q47 -16 155 -19z" />
    <glyph glyph-name="agrave" unicode="&#xe0;" 
d="M981 913l-214 -746q-3 -12 -3 -22q0 -30 26 -30q21 0 58 32q15 13 72 92l35 -18q-136 -249 -325 -249q-117 0 -117 104q0 37 32 145l24 81q-116 -199 -223 -282q-62 -48 -132 -48q-91 0 -137 81q-37 66 -37 165q0 159 93 340q91 175 219 277q116 92 216 92
q112 0 140 -151l36 123zM661 723q0 142 -74 142q-93 0 -208 -281q-78 -190 -78 -328q0 -100 56 -100q45 0 91 52q66 74 119 181q94 189 94 334z" />
    <glyph glyph-name="aacute" unicode="&#xe1;" horiz-adv-x="1022" 
d="M1014 1387h37q-55 -248 -340 -271q-111 -9 -156 -22q-72 -19 -137 -73q-117 -97 -198 -335q199 241 448 241q130 0 211 -77t81 -206q0 -249 -184 -457q-190 -215 -436 -215q-129 0 -202 75.5t-73 205.5q0 180 96 438q92 249 208 400q100 131 209 182q99 48 272 57
q81 4 92 7q50 11 72 50zM629 874q-85 0 -162 -152q-32 -64 -85 -220q-76 -222 -76 -368q0 -109 87 -109q120 0 229 310q92 263 92 417q0 122 -85 122z" />
    <glyph glyph-name="acircumflex" unicode="&#xe2;" horiz-adv-x="915" 
d="M525 483q249 -26 249 -202q0 -143 -138 -232q-121 -77 -272 -77q-312 0 -312 285q0 165 88 330t226 252q142 88 292 88q82 0 139 -33q70 -40 70 -116q0 -102 -126 -190q-90 -65 -216 -105zM363 476q126 21 215 115q92 98 92 224q0 61 -51 61q-130 0 -256 -400zM344 414
q-51 -190 -51 -281q0 -109 70 -109q71 0 120 132q40 105 40 192q0 91 -79 91q-37 0 -100 -25z" />
    <glyph glyph-name="atilde" unicode="&#xe3;" horiz-adv-x="756" 
d="M190 750l-21 30q172 147 355 147q95 0 159 -37q78 -45 78 -133q0 -89 -71 -151q-43 -38 -151 -89q-142 -68 -198 -110q-109 -83 -109 -186q0 -71 51 -110q46 -36 119 -36q110 0 226 102l29 -25q-186 -180 -400 -180q-111 0 -185 40q-93 50 -93 151q0 99 104 176
q48 36 191 103q249 117 249 260q0 124 -139 124q-91 0 -194 -76z" />
    <glyph glyph-name="adieresis" unicode="&#xe4;" horiz-adv-x="1016" 
d="M465 1348l16 39q222 -89 352.5 -279.5t130.5 -428.5q0 -261 -178 -477q-188 -230 -444 -230q-137 0 -216.5 78.5t-79.5 214.5q0 220 174 435q182 227 397 227q55 0 103 -28q-34 311 -255 449zM627 873q-126 0 -237 -303q-95 -258 -95 -419q0 -124 95 -124q119 0 232 303
q96 261 96 414q0 129 -91 129z" />
    <glyph glyph-name="aring" unicode="&#xe5;" horiz-adv-x="909" 
d="M324 375q-9 -65 -9 -107q0 -74 43 -119.5t117 -45.5q137 0 304 153l30 -27q-213 -257 -465 -257q-295 0 -295 265q0 175 102 340q98 157 254 251q164 99 330 99q170 0 170 -141q0 -74 -42 -142q-107 -174 -343 -239q-73 -20 -196 -30zM333 427q152 22 232 108
q114 121 114 266q0 60 -55 60q-48 0 -108 -67q-110 -122 -183 -367z" />
    <glyph glyph-name="ae" unicode="&#xe6;" horiz-adv-x="1950" 
d="M853 476l121 423h250l-121 -423h170q56 177 183 305q145 146 315 146q76 0 126 -40q53 -43 53 -117q0 -69 -40 -121q-44 -56 -111 -56q-43 0 -72.5 26t-29.5 68q0 46 53 99.5t53 67.5q0 30 -40 30q-132 0 -217 -228q-66 -179 -66 -337q0 -79 30 -132q37 -66 111 -66
q83 0 189 111l30 -24q-213 -236 -379 -236q-112 0 -172 87q-54 76 -54 192q0 75 23 174h-169l-122 -425h-250l122 425h-169q-64 -184 -184 -307q-142 -146 -317 -146q-76 0 -125 40q-53 43 -53 117q0 69 40 121q44 56 111 56q43 0 72.5 -26t29.5 -69q0 -49 -69 -113
q-38 -35 -38 -53q0 -31 41 -31q130 0 216 229q68 181 68 338q0 79 -30 131q-38 65 -111 65q-83 0 -189 -110l-30 24q213 236 380 236q112 0 172 -88q53 -76 53 -193q0 -72 -23 -170h169z" />
    <glyph glyph-name="ccedilla" unicode="&#xe7;" horiz-adv-x="799" 
d="M110 673l41 254h42q22 -33 51 -33q20 0 55 7q130 26 183 26q103 0 174 -42q86 -50 86 -146q0 -94 -95 -162q-74 -54 -180 -78q194 -42 194 -212q0 -143 -132 -234q-117 -81 -267 -81q-224 0 -303 217l31 15q79 -141 195 -141q96 0 162 90q61 83 61 183q0 140 -151 142
l14 48q98 0 165.5 63.5t67.5 161.5q0 113 -110 113q-152 0 -241 -191h-43z" />
    <glyph glyph-name="egrave" unicode="&#xe8;" horiz-adv-x="1139" 
d="M540 927l-194 -680q-14 -49 -14 -65q0 -9 7 -14q8 -8 19 -8q47 0 123 82q109 117 231 342l91 306l253 9l-192 -660q-24 -82 -24 -96q0 -25 23 -25q13 0 27 12q38 32 95 117l34 -24q-139 -251 -306 -251q-133 0 -133 114q0 51 25 137l49 169q-132 -192 -189 -255
q-149 -165 -269 -165q-56 0 -93 40.5t-37 97.5q0 49 25 137l113 400q28 99 28 132q0 32 -34 45q-19 6 -69 6l10 38l341 59h60z" />
    <glyph glyph-name="eacute" unicode="&#xe9;" horiz-adv-x="1139" 
d="M977 1335h38q-118 -253 -353 -253q-83 0 -150 35q-81 44 -81 120q0 43 29 71t72 28q62 0 115 -82.5t108 -82.5q117 0 222 164zM544 927l-194 -680q-13 -46 -13 -64q0 -23 28 -23q68 0 200 183q82 114 151 241l91 306l253 9l-203 -697q-12 -41 -12 -58q0 -25 23 -25
q37 0 121 128l34 -24q-52 -98 -123 -165q-90 -86 -180 -86q-136 0 -136 123q0 42 25 128l49 169q-283 -420 -452 -420q-59 0 -97.5 40t-38.5 99q0 48 25 136l113 400q28 99 28 130q0 53 -103 53l10 38l341 59h60z" />
    <glyph glyph-name="ecircumflex" unicode="&#xea;" horiz-adv-x="1038" 
d="M541 927l-122 -426q123 0 178 37q51 35 107.5 148t87.5 154q66 87 143 87q109 0 109 -101q0 -44 -28 -75.5t-72 -31.5q-28 0 -61.5 22.5t-42.5 22.5q-31 0 -92 -118q-68 -131 -142 -166q80 -33 140 -132q44 -90 88 -179l42 -84q27 -41 73 -48l-11 -37h-251l-143 281
q-49 97 -53 103q-41 62 -88 62l-128 -446h-250l190 663q23 80 23 107q0 55 -102 59l11 37l339 61h55z" />
    <glyph glyph-name="edieresis" unicode="&#xeb;" horiz-adv-x="1051" 
d="M249 899h723l-194 -678q-21 -73 -21 -86q0 -23 20 -23q40 0 127 133l35 -24q-146 -249 -305 -249q-56 0 -94 34t-38 90q0 37 34 155l169 587h-123q-93 0 -127.5 -28t-61.5 -121l-108 -378q-97 -339 -262 -339q-52 0 -86.5 30t-34.5 81q0 47 30.5 80.5t77.5 33.5
q39 0 75 -33q28 -25 45 -25q46 0 92 161l98 344q26 91 26 127q0 82 -108 90z" />
    <glyph glyph-name="igrave" unicode="&#xec;" horiz-adv-x="1403" 
d="M1023 724l-505 -752h-38l-58 803l-147 -487q-42 -138 -81 -202q-69 -114 -171 -114q-52 0 -85 28q-36 30 -36 81q0 48 32 81t80 33q36 0 71 -34q26 -25 45 -25q38 0 93 180l106 349q20 66 20 93q0 60 -100 71l11 37l348 61h44l43 -590l379 562h250l-192 -669
q-20 -70 -20 -89q0 -29 22 -29q35 0 124 132l37 -23q-143 -249 -313 -249q-57 0 -92.5 33.5t-35.5 89.5q0 39 25 126z" />
    <glyph glyph-name="iacute" unicode="&#xed;" horiz-adv-x="1137" 
d="M807 899h250l-190 -664q-20 -70 -20 -88q0 -24 22 -24q41 0 123 133l39 -25q-73 -113 -128 -164q-86 -78 -186 -78q-55 0 -89 31q-37 32 -37 86q0 39 32 150l56 194h-274l-129 -450h-250l185 646q27 94 27 127q0 36 -34 48q-15 5 -66 8l10 37l339 61h55l-122 -427h273z
" />
    <glyph glyph-name="icircumflex" unicode="&#xee;" 
d="M673 927q178 0 254 -138q35 -65 35 -144q0 -168 -93 -330q-92 -158 -236 -249q-148 -94 -298 -94q-127 0 -206 76t-79 203q0 265 197 473q192 203 426 203zM632 874q-53 0 -88 -31q-92 -83 -173 -335q-73 -230 -73 -377q0 -42 26 -74t68 -32q39 0 69 24q59 48 129 205
q54 124 84 234q41 151 41 277q0 109 -83 109z" />
    <glyph glyph-name="idieresis" unicode="&#xef;" horiz-adv-x="1139" 
d="M543 927l-124 -429q126 190 187 257q156 172 281 172q57 0 91.5 -40.5t34.5 -98.5q0 -56 -24 -136l-128 -427q-16 -53 -16 -73q0 -26 23 -26q11 0 21 8q35 28 71 82q8 12 29 42l38 -23q-147 -247 -309 -247q-56 0 -92 28q-40 30 -40 84q0 43 24 125l125 427q13 44 13 62
q0 28 -30 28q-38 0 -92 -52q-138 -132 -267 -393l-82 -297h-255l187 642q27 93 27 135q0 34 -34 47q-18 6 -68 6l11 38l337 59h61z" />
    <glyph glyph-name="eth" unicode="&#xf0;" 
d="M124 871l331 56h60l-45 -163q178 163 305 163q97 0 150 -79q46 -69 46 -171q0 -287 -199 -509q-176 -196 -384 -196q-62 0 -136 38l-52 -180q-28 -97 -28 -149q0 -62 125 -82l-9 -37h-538l10 37q83 3 128 67q29 41 58 142l244 841q27 93 27 133q0 35 -32 45q-16 5 -72 5z
M280 103q50 -82 110 -82q63 0 138 88q106 124 153 325q25 105 25 201q0 147 -94 147q-73 0 -172 -115z" />
    <glyph glyph-name="ntilde" unicode="&#xf1;" horiz-adv-x="909" 
d="M773 241l30 -27q-97 -116 -191 -170q-125 -72 -259 -72q-192 0 -262 147q-33 69 -33 142q0 168 91 327q89 155 234 247t286 92q94 0 155 -39q72 -46 72 -135q0 -61 -38 -109q-42 -52 -101 -52q-44 0 -75.5 29t-31.5 72q0 54 54 94q37 28 37 49q0 45 -67 45
q-84 0 -158 -68q-94 -86 -149 -225q-53 -132 -53 -265q0 -86 45 -147q51 -68 134 -68q147 0 280 133z" />
    <glyph glyph-name="ograve" unicode="&#xf2;" horiz-adv-x="1593" 
d="M547 927l-128 -430q130 199 188 267q140 163 257 163q123 0 123 -125q0 -47 -27 -144l-45 -161q130 200 187 266q87 101 153 138q46 26 96 26q55 0 89.5 -36.5t34.5 -91.5q0 -65 -30 -166l-111 -373q-25 -84 -25 -107q0 -22 21 -22q10 0 19 7q36 29 76 85q8 10 27 37
l34 -22q-133 -249 -304 -249q-53 0 -92 29q-43 31 -43 83q0 44 25 130l113 390q23 79 23 101q0 20 -21 20q-14 0 -26 -6q-51 -26 -172 -202q-110 -161 -159 -328l-61 -206h-253l187 653q15 52 15 73q0 19 -20 19q-38 0 -117 -97q-121 -148 -222 -361l-81 -287h-255l188 643
q28 96 28 135q0 33 -34 46q-18 6 -69 6l10 38l341 59h60z" />
    <glyph glyph-name="oacute" unicode="&#xf3;" horiz-adv-x="909" 
d="M56 837l308 90q36 -45 52 -87q27 -73 38 -196q21 -242 29 -525q106 139 245 373q42 70 42 132q0 36 -44 70q-57 45 -65 59q-12 19 -12 50q0 51 37 87.5t88 36.5q56 0 96 -42t40 -99q0 -93 -79 -241q-31 -57 -134 -218q-178 -276 -347 -476q-181 -213 -315 -274
q-42 -19 -85 -19q-56 0 -97 39.5t-41 95.5q0 53 35 92t87 39q61 0 112 -64q34 -43 56 -43q48 0 129 87q6 125 6 189q0 63 -8 242l-17 381q-4 100 -45 151q-27 34 -73 34q-17 0 -38 -3v39z" />
    <glyph glyph-name="ocircumflex" unicode="&#xf4;" horiz-adv-x="1466" 
d="M714 1290l10 37l339 60h55l-167 -581q94 121 213 121q110 0 175 -93q58 -82 58 -196q0 -219 -142 -431q-157 -235 -367 -235q-117 0 -142 119l-65 -225q-36 -125 -36 -172q0 -88 125 -95l-11 -37h-538l11 37q84 5 129 73q27 41 57 147l79 277q-95 -124 -208 -124
q-112 0 -176 96q-56 83 -56 201q0 265 188 478q159 180 314 180q110 0 145 -110l83 289q28 97 28 126q0 52 -101 58zM1094 840q-126 0 -247 -390q-67 -217 -67 -306q0 -39 25 -68t63 -29q82 0 151 154q21 45 77 221q71 224 71 338q0 80 -73 80zM592 840q-109 0 -215 -301
q-91 -259 -91 -404q0 -87 70 -87q128 0 249 403q66 222 66 303q0 86 -79 86z" />
    <glyph glyph-name="otilde" unicode="&#xf5;" 
d="M93 867l349 60q95 -149 134 -328q98 144 148 203q108 125 203 125q114 0 114 -111q0 -46 -28.5 -77.5t-74.5 -31.5q-26 0 -69.5 11.5t-61.5 11.5q-42 0 -80 -30q-52 -41 -128 -175q85 -300 136 -366q30 -39 61 -39q27 0 45 13q28 20 89 105l36 -21q-152 -245 -298 -245
q-120 0 -182 122q-33 64 -78 206q-88 -112 -136 -166q-100 -113 -158 -141q-44 -21 -94 -21q-113 0 -113 108q0 51 33 84t84 33q27 0 61 -16q50 -24 72 -24q58 0 128 77q27 29 103 132q-96 355 -150 426q-34 45 -86 45q-27 0 -66 -8z" />
    <glyph glyph-name="odieresis" unicode="&#xf6;" horiz-adv-x="1139" 
d="M855 21q-66 -49 -135 -49q-136 0 -136 123q0 42 25 128l49 169q-283 -420 -452 -420q-59 0 -97.5 40t-38.5 99q0 48 25 136l113 400q28 99 28 130q0 53 -103 53l10 38l341 59h60l-194 -680q-13 -46 -13 -64q0 -23 28 -23q68 0 200 183q82 114 151 241l91 306l253 9
l-203 -697q-12 -41 -12 -58q0 -25 23 -25q37 0 121 128l34 -24q-13 -26 -52 -85q-71 -109 -71 -158q0 -30 27 -83q21 -42 21 -73q0 -97 -129 -206l-29 19q28 58 28 86q0 23 -19 76q-15 41 -15 67q0 67 71 155z" />
    <glyph glyph-name="divide" unicode="&#xf7;" horiz-adv-x="1075" 
d="M99 829l11 37l339 61h54l-102 -355q-19 -66 -19 -92q0 -82 92 -82q44 0 141 44l131 457h250l-191 -669q-20 -70 -20 -89q0 -29 23 -29q33 0 123 132l37 -23q-145 -249 -313 -249q-57 0 -92.5 33t-35.5 89q0 43 26 132l47 161q-174 -102 -286 -102q-75 0 -130 39
q-61 44 -61 117q0 32 22 109l34 119q21 74 21 102q0 53 -101 58z" />
    <glyph glyph-name="oslash" unicode="&#xf8;" horiz-adv-x="1706" 
d="M1631 899l-194 -678q-17 -59 -17 -80q0 -29 23 -29q32 0 123 132l36 -23q-162 -249 -312 -249q-57 0 -92.5 33t-35.5 89q0 39 25 127l57 200q-304 -449 -485 -449q-63 0 -100 38.5t-37 101.5q0 47 26 139l48 170q-304 -449 -485 -449q-63 0 -100 38t-37 101q0 49 26 140
l114 400q27 95 27 120q0 52 -102 58l11 37l339 61h54l-190 -663q-13 -45 -13 -67q0 -39 37 -39q51 0 196 183q99 125 168 237l90 312l252 9l-178 -623q-17 -60 -17 -78q0 -40 36 -40q52 0 197 184q100 126 168 236l89 312z" />
    <glyph glyph-name="ugrave" unicode="&#xf9;" horiz-adv-x="1706" 
d="M1443 33q-76 -61 -153 -61q-57 0 -92.5 33t-35.5 89q0 39 25 127l57 200q-304 -449 -485 -449q-63 0 -100 38.5t-37 101.5q0 47 26 139l48 170q-304 -449 -485 -449q-63 0 -100 38t-37 101q0 49 26 140l114 400q27 95 27 120q0 52 -102 58l11 37l339 61h54l-190 -663
q-13 -45 -13 -67q0 -39 37 -39q51 0 196 183q99 125 168 237l90 312l252 9l-178 -623q-17 -60 -17 -78q0 -40 36 -40q52 0 197 184q100 126 168 236l89 312l253 9l-194 -678q-17 -59 -17 -80q0 -29 23 -29q32 0 123 132l36 -23q-124 -185 -124 -240q0 -28 26 -85
q21 -46 21 -75q0 -90 -128 -202l-29 18q28 59 28 86q0 23 -17 70.5t-17 73.5q0 70 81 166z" />
    <glyph glyph-name="uacute" unicode="&#xfa;" horiz-adv-x="1079" 
d="M396 805h-39q-106 0 -162 -38t-98 -137h-37l77 269h536l-121 -422q101 118 228 118q89 0 143 -65q51 -62 51 -153q0 -182 -147 -298q-136 -107 -322 -107q-115 0 -188 46q-86 55 -86 164q0 45 30 150zM668 500q-80 0 -151 -162q-63 -140 -63 -234q0 -77 70 -77
q78 0 147 165q59 143 59 237q0 71 -62 71z" />
    <glyph glyph-name="ucircumflex" unicode="&#xfb;" horiz-adv-x="1421" 
d="M134 829l11 37l339 61h55l-129 -450q100 118 227 118q90 0 144 -65q50 -61 50 -153q0 -221 -216 -344q-106 -61 -252 -61q-115 0 -188 47q-86 55 -86 164q0 47 31 155l93 325q23 80 23 107q0 53 -102 59zM525 500q-79 0 -151 -162q-63 -141 -63 -234q0 -77 71 -77
q79 0 147 167q58 142 58 238q0 68 -62 68zM1350 927l-205 -711q-18 -62 -18 -77q0 -33 30 -33q47 0 140 149l35 -20q-149 -263 -322 -263q-56 0 -97 33q-44 36 -44 91q0 44 16 99l140 478q19 65 19 101q0 59 -73 59q-11 0 -34 -1l13 40l340 55h60z" />
    <glyph glyph-name="udieresis" unicode="&#xfc;" horiz-adv-x="936" 
d="M134 829l11 37l339 61h55l-129 -450q100 118 227 118q90 0 144 -65q50 -61 50 -153q0 -221 -216 -344q-106 -61 -252 -61q-115 0 -188 47q-86 55 -86 164q0 47 31 155l93 325q23 80 23 107q0 53 -102 59zM525 500q-79 0 -151 -162q-63 -141 -63 -234q0 -77 71 -77
q79 0 147 167q58 142 58 238q0 68 -62 68z" />
    <glyph glyph-name="yacute" unicode="&#xfd;" horiz-adv-x="850" 
d="M117 641l45 286h37q15 -33 47 -33q24 0 83 14q79 19 122 19q144 0 226.5 -77t82.5 -220q0 -227 -135 -430q-152 -228 -368 -228q-203 0 -282 217l32 14q80 -137 177 -137q175 0 286 384h-258l13 50h259q33 128 33 206q0 64 -28 109q-32 53 -92 53q-141 0 -243 -227h-37z
" />
    <glyph glyph-name="thorn" unicode="&#xfe;" horiz-adv-x="1495" 
d="M566 486q74 180 222 304q164 137 345 137q133 0 215 -75q85 -78 85 -210q0 -247 -187 -456q-193 -214 -437 -214q-136 0 -212 79t-76 215q0 81 27 169h-148l-125 -435h-250l186 649q27 94 27 122q0 54 -102 58l11 37l339 61h55l-127 -441h152zM1097 874q-127 0 -236 -309
q-92 -260 -92 -425q0 -46 23 -79q26 -36 71 -36q144 0 263 410q60 209 60 323q0 116 -89 116z" />
    <glyph glyph-name="ydieresis" unicode="&#xff;" horiz-adv-x="1055" 
d="M911 244l36 -23q-146 -249 -312 -249q-56 0 -92 33t-36 89q0 39 30 144l58 203l-16 1q-42 3 -92 -65l-281 -377h-332l11 37q71 3 139 68q22 21 103 122l69 86q52 65 73 84q38 36 94 57q-186 23 -186 186q0 259 399 259h400l-192 -672q-19 -66 -19 -86q0 -29 22 -29
q33 0 124 132zM708 836q-44 12 -78 12q-90 0 -151 -80q-55 -74 -55 -167q0 -104 142 -104q15 0 45 2z" />
    <glyph glyph-name="Amacron" unicode="&#x100;" horiz-adv-x="1366" 
d="M830 437h-420l-84 -104l-96 -115q-25 -30 -41 -67q-10 -23 -10 -46q0 -62 110 -68v-37h-405l10 37q55 9 96 38q55 39 161 165l961 1147h45l-45 -1110q-3 -82 -3 -105q0 -126 119 -135l-10 -37h-587l11 37q88 8 100 14q70 34 79 213zM830 519l26 442l-377 -442h351z
M835 1671h694l-49 -163h-692z" />
    <glyph glyph-name="amacron" unicode="&#x101;" 
d="M981 913l-214 -746q-3 -12 -3 -22q0 -30 26 -30q21 0 58 32q15 13 72 92l35 -18q-136 -249 -325 -249q-117 0 -117 104q0 37 32 145l24 81q-116 -199 -223 -282q-62 -48 -132 -48q-91 0 -137 81q-37 66 -37 165q0 159 93 340q91 175 219 277q116 92 216 92
q112 0 140 -151l36 123zM661 723q0 142 -74 142q-93 0 -208 -281q-78 -190 -78 -328q0 -100 56 -100q45 0 91 52q66 74 119 181q94 189 94 334zM386 1254h694l-49 -163h-692z" />
    <glyph glyph-name="Abreve" unicode="&#x102;" horiz-adv-x="1366" 
d="M830 437h-420l-84 -104l-96 -115q-25 -30 -41 -67q-10 -23 -10 -46q0 -62 110 -68v-37h-405l10 37q55 9 96 38q55 39 161 165l961 1147h45l-45 -1110q-3 -82 -3 -105q0 -126 119 -135l-10 -37h-587l11 37q88 8 100 14q70 34 79 213zM830 519l26 442l-377 -442h351z
M970 1813h32q29 -165 205 -165q166 0 257 165h39q-96 -348 -332 -348q-101 0 -162 66t-61 168q0 48 22 114z" />
    <glyph glyph-name="abreve" unicode="&#x103;" 
d="M981 913l-214 -746q-3 -12 -3 -22q0 -30 26 -30q21 0 58 32q15 13 72 92l35 -18q-136 -249 -325 -249q-117 0 -117 104q0 37 32 145l24 81q-116 -199 -223 -282q-62 -48 -132 -48q-91 0 -137 81q-37 66 -37 165q0 159 93 340q91 175 219 277q116 92 216 92
q112 0 140 -151l36 123zM661 723q0 142 -74 142q-93 0 -208 -281q-78 -190 -78 -328q0 -100 56 -100q45 0 91 52q66 74 119 181q94 189 94 334zM414 1387h32q29 -165 205 -165q166 0 257 165h39q-96 -348 -332 -348q-101 0 -162 66t-61 168q0 48 22 114z" />
    <glyph glyph-name="Aogonek" unicode="&#x104;" horiz-adv-x="1366" 
d="M830 437h-420l-84 -104l-96 -115q-25 -30 -41 -67q-10 -23 -10 -46q0 -62 110 -68v-37h-405l10 37q55 9 96 38q55 39 161 165l961 1147h45l-45 -1110q-3 -82 -3 -105q0 -126 119 -135l-10 -37h-587l11 37q88 8 100 14q70 34 79 213zM830 519l26 442l-377 -442h351z
M968 19h82q-48 -74 -48 -120q0 -84 66 -141.5t151 -57.5q15 0 36 1l20 -55q-103 -54 -185 -54q-101 0 -177 61q-82 66 -82 164q0 111 137 202z" />
    <glyph glyph-name="aogonek" unicode="&#x105;" 
d="M981 913l-214 -746q-3 -12 -3 -22q0 -30 26 -30q21 0 58 32q15 13 72 92l35 -18q-136 -249 -325 -249q-117 0 -117 104q0 37 32 145l24 81q-116 -199 -223 -282q-62 -48 -132 -48q-91 0 -137 81q-37 66 -37 165q0 159 93 340q91 175 219 277q116 92 216 92
q112 0 140 -151l36 123zM661 723q0 142 -74 142q-93 0 -208 -281q-78 -190 -78 -328q0 -100 56 -100q45 0 91 52q66 74 119 181q94 189 94 334zM613 8h82q-48 -74 -48 -120q0 -84 66 -141.5t151 -57.5q15 0 36 1l20 -55q-103 -54 -185 -54q-101 0 -177 61q-82 66 -82 164
q0 111 137 202z" />
    <glyph glyph-name="Cacute" unicode="&#x106;" horiz-adv-x="1366" 
d="M1476 1387l-100 -431h-39q-14 349 -294 349q-173 0 -319 -161q-113 -126 -188 -318q-77 -197 -77 -389q0 -161 76 -253q83 -100 240 -100q226 0 415 221h48q-116 -174 -233 -250q-134 -86 -327 -86q-243 0 -393.5 146.5t-150.5 389.5q0 238 127 441q123 196 335 316
q223 125 444 125q83 0 209 -36q63 -18 89 -18q50 0 101 54h37zM1044 1787h308l-337 -350h-90z" />
    <glyph glyph-name="cacute" unicode="&#x107;" horiz-adv-x="909" 
d="M773 241l30 -27q-97 -116 -191 -170q-125 -72 -259 -72q-192 0 -262 147q-33 69 -33 142q0 168 91 327q89 155 234 247t286 92q94 0 155 -39q72 -46 72 -135q0 -61 -38 -109q-42 -52 -101 -52q-44 0 -75.5 29t-31.5 72q0 54 54 94q37 28 37 49q0 45 -67 45
q-84 0 -158 -68q-94 -86 -149 -225q-53 -132 -53 -265q0 -86 45 -147q51 -68 134 -68q147 0 280 133zM662 1387h308l-337 -350h-90z" />
    <glyph glyph-name="Ccircumflex" unicode="&#x108;" horiz-adv-x="1366" 
d="M1476 1387l-100 -431h-39q-14 349 -294 349q-173 0 -319 -161q-113 -126 -188 -318q-77 -197 -77 -389q0 -161 76 -253q83 -100 240 -100q226 0 415 221h48q-116 -174 -233 -250q-134 -86 -327 -86q-243 0 -393.5 146.5t-150.5 389.5q0 238 127 441q123 196 335 316
q223 125 444 125q83 0 209 -36q63 -18 89 -18q50 0 101 54h37zM1008 1831h227l102 -340h-102l-134 203l-294 -203h-105z" />
    <glyph glyph-name="ccircumflex" unicode="&#x109;" horiz-adv-x="909" 
d="M773 241l30 -27q-97 -116 -191 -170q-125 -72 -259 -72q-192 0 -262 147q-33 69 -33 142q0 168 91 327q89 155 234 247t286 92q94 0 155 -39q72 -46 72 -135q0 -61 -38 -109q-42 -52 -101 -52q-44 0 -75.5 29t-31.5 72q0 54 54 94q37 28 37 49q0 45 -67 45
q-84 0 -158 -68q-94 -86 -149 -225q-53 -132 -53 -265q0 -86 45 -147q51 -68 134 -68q147 0 280 133zM584 1387h227l102 -340h-102l-134 203l-294 -203h-105z" />
    <glyph glyph-name="Cdot" unicode="&#x10a;" horiz-adv-x="1366" 
d="M1476 1387l-100 -431h-39q-14 349 -294 349q-173 0 -319 -161q-113 -126 -188 -318q-77 -197 -77 -389q0 -161 76 -253q83 -100 240 -100q226 0 415 221h48q-116 -174 -233 -250q-134 -86 -327 -86q-243 0 -393.5 146.5t-150.5 389.5q0 238 127 441q123 196 335 316
q223 125 444 125q83 0 209 -36q63 -18 89 -18q50 0 101 54h37zM1053 1783q62 0 104.5 -43t42.5 -105q0 -61 -43 -104t-104 -43t-104.5 43t-43.5 104q0 62 43 105t105 43z" />
    <glyph glyph-name="cdot" unicode="&#x10b;" horiz-adv-x="909" 
d="M773 241l30 -27q-97 -116 -191 -170q-125 -72 -259 -72q-192 0 -262 147q-33 69 -33 142q0 168 91 327q89 155 234 247t286 92q94 0 155 -39q72 -46 72 -135q0 -61 -38 -109q-42 -52 -101 -52q-44 0 -75.5 29t-31.5 72q0 54 54 94q37 28 37 49q0 45 -67 45
q-84 0 -158 -68q-94 -86 -149 -225q-53 -132 -53 -265q0 -86 45 -147q51 -68 134 -68q147 0 280 133zM684 1357q62 0 104.5 -43t42.5 -105q0 -61 -43 -104t-104 -43t-104.5 43t-43.5 104q0 62 43 105t105 43z" />
    <glyph glyph-name="Ccaron" unicode="&#x10c;" horiz-adv-x="1366" 
d="M1476 1387l-100 -431h-39q-14 349 -294 349q-173 0 -319 -161q-113 -126 -188 -318q-77 -197 -77 -389q0 -161 76 -253q83 -100 240 -100q226 0 415 221h48q-116 -174 -233 -250q-134 -86 -327 -86q-243 0 -393.5 146.5t-150.5 389.5q0 238 127 441q123 196 335 316
q223 125 444 125q83 0 209 -36q63 -18 89 -18q50 0 101 54h37zM1376 1796l-264 -343h-263l-107 343h120l141 -206l245 206h128z" />
    <glyph glyph-name="ccaron" unicode="&#x10d;" horiz-adv-x="909" 
d="M773 241l30 -27q-97 -116 -191 -170q-125 -72 -259 -72q-192 0 -262 147q-33 69 -33 142q0 168 91 327q89 155 234 247t286 92q94 0 155 -39q72 -46 72 -135q0 -61 -38 -109q-42 -52 -101 -52q-44 0 -75.5 29t-31.5 72q0 54 54 94q37 28 37 49q0 45 -67 45
q-84 0 -158 -68q-94 -86 -149 -225q-53 -132 -53 -265q0 -86 45 -147q51 -68 134 -68q147 0 280 133zM1042 1387l-264 -343h-263l-107 343h120l141 -206l245 206h128z" />
    <glyph glyph-name="Dcaron" unicode="&#x10e;" horiz-adv-x="1479" 
d="M-74 0l12 37q103 0 155 47q47 41 77 145l246 855q24 83 24 138q0 62 -58 83q-27 9 -113 14l12 37h464q692 0 692 -565q0 -189 -75 -317q-151 -257 -361 -368q-200 -106 -507 -106h-568zM773 1276l-298 -1028q-21 -72 -21 -102q0 -68 112 -68q141 0 252 88
q140 111 219 308q72 181 72 375q0 289 -176 391q-62 36 -160 36zM1193 1796l-264 -343h-263l-107 343h120l141 -206l245 206h128z" />
    <glyph glyph-name="dcaron" unicode="&#x10f;" horiz-adv-x="1533" 
d="M1143 753l-23 42q153 86 191 132q28 34 28 70q0 34 -49 86q-62 64 -71 81q-13 24 -13 64q0 67 49.5 113t116.5 46q72 0 121 -57q46 -54 46 -127q0 -155 -127 -282q-103 -102 -269 -168zM1117 1387l-325 -1119q-31 -107 -31 -127q0 -27 25 -27q45 0 129 123l36 -19
q-141 -246 -310 -246q-125 0 -125 112q0 46 26 134l30 102q-126 -223 -217 -294q-69 -54 -136 -54q-91 0 -138 78q-40 65 -40 161q0 138 62 286q59 141 157 250q160 180 319 180q72 0 139 -76l74 249q27 91 27 132q0 58 -66 58q-14 0 -35 -3l10 39l329 61h60zM677 753
q0 117 -80 117q-101 0 -217 -290q-78 -194 -78 -326q0 -94 55 -94q34 0 70 32q86 78 168 261.5t82 299.5z" />
    <glyph glyph-name="Dslash" unicode="&#x110;" horiz-adv-x="1479" 
d="M295 1356h458q697 0 697 -565q0 -189 -77 -318q-154 -257 -364 -367q-201 -106 -509 -106h-566l10 38q103 0 152 45q43 40 73 145l126 448h-176l22 76h179l95 334q31 109 31 149q0 86 -163 88zM774 1279l-154 -527h308l-23 -76h-306l-125 -429q-19 -65 -19 -95
q0 -77 120 -77q230 0 394 263q142 228 142 513q0 181 -76 297q-90 137 -261 131z" />
    <glyph glyph-name="dcroat" unicode="&#x111;" 
d="M804 1146q15 55 15 86q0 58 -66 58q-14 0 -35 -3l10 39l329 61h60l-70 -241h158l-16 -66h-161l-236 -812q-31 -107 -31 -127q0 -27 25 -27q45 0 129 123l36 -19q-141 -246 -310 -246q-125 0 -125 112q0 46 26 134l30 102q-126 -223 -217 -294q-69 -54 -136 -54
q-91 0 -138 78q-40 65 -40 161q0 138 62 286q59 141 157 250q160 180 319 180q72 0 139 -76l68 229h-328l17 66h329zM677 753q0 117 -80 117q-101 0 -217 -290q-78 -194 -78 -326q0 -94 55 -94q34 0 70 32q86 78 168 261.5t82 299.5z" />
    <glyph glyph-name="Emacron" unicode="&#x112;" horiz-adv-x="1366" 
d="M774 1281l-151 -526h46q164 0 245 38q99 47 162 180h37l-152 -528h-35q9 53 9 86q0 106 -117 140q-34 10 -141 10h-78l-130 -455q-17 -59 -17 -89q0 -57 143 -57q355 0 593 292h41l-141 -372h-1160l12 37q111 0 161 50q39 40 73 158l255 873q21 72 21 115q0 52 -53 71
q-26 10 -97 15l11 37h1081l-87 -339h-36q-4 100 -31 141q-52 79 -149 106q-63 17 -188 17h-127zM645 1671h694l-49 -163h-692z" />
    <glyph glyph-name="emacron" unicode="&#x113;" horiz-adv-x="909" 
d="M324 375q-9 -65 -9 -107q0 -74 43 -119.5t117 -45.5q137 0 304 153l30 -27q-213 -257 -465 -257q-295 0 -295 265q0 175 102 340q98 157 254 251q164 99 330 99q170 0 170 -141q0 -74 -42 -142q-107 -174 -343 -239q-73 -20 -196 -30zM333 427q152 22 232 108
q114 121 114 266q0 60 -55 60q-48 0 -108 -67q-110 -122 -183 -367zM329 1254h694l-49 -163h-692z" />
    <glyph glyph-name="Ebreve" unicode="&#x114;" horiz-adv-x="1366" 
d="M774 1281l-151 -526h46q164 0 245 38q99 47 162 180h37l-152 -528h-35q9 53 9 86q0 106 -117 140q-34 10 -141 10h-78l-130 -455q-17 -59 -17 -89q0 -57 143 -57q355 0 593 292h41l-141 -372h-1160l12 37q111 0 161 50q39 40 73 158l255 873q21 72 21 115q0 52 -53 71
q-26 10 -97 15l11 37h1081l-87 -339h-36q-4 100 -31 141q-52 79 -149 106q-63 17 -188 17h-127zM744 1838h32q29 -165 205 -165q166 0 257 165h39q-96 -348 -332 -348q-101 0 -162 66t-61 168q0 48 22 114z" />
    <glyph glyph-name="ebreve" unicode="&#x115;" horiz-adv-x="909" 
d="M324 375q-9 -65 -9 -107q0 -74 43 -119.5t117 -45.5q137 0 304 153l30 -27q-213 -257 -465 -257q-295 0 -295 265q0 175 102 340q98 157 254 251q164 99 330 99q170 0 170 -141q0 -74 -42 -142q-107 -174 -343 -239q-73 -20 -196 -30zM333 427q152 22 232 108
q114 121 114 266q0 60 -55 60q-48 0 -108 -67q-110 -122 -183 -367zM477 1387h32q29 -165 205 -165q166 0 257 165h39q-96 -348 -332 -348q-101 0 -162 66t-61 168q0 48 22 114z" />
    <glyph glyph-name="Edot" unicode="&#x116;" horiz-adv-x="1366" 
d="M774 1281l-151 -526h46q164 0 245 38q99 47 162 180h37l-152 -528h-35q9 53 9 86q0 106 -117 140q-34 10 -141 10h-78l-130 -455q-17 -59 -17 -89q0 -57 143 -57q355 0 593 292h41l-141 -372h-1160l12 37q111 0 161 50q39 40 73 158l255 873q21 72 21 115q0 52 -53 71
q-26 10 -97 15l11 37h1081l-87 -339h-36q-4 100 -31 141q-52 79 -149 106q-63 17 -188 17h-127zM953 1783q62 0 104.5 -43t42.5 -105q0 -61 -43 -104t-104 -43t-104.5 43t-43.5 104q0 62 43 105t105 43z" />
    <glyph glyph-name="edot" unicode="&#x117;" horiz-adv-x="909" 
d="M324 375q-9 -65 -9 -107q0 -74 43 -119.5t117 -45.5q137 0 304 153l30 -27q-213 -257 -465 -257q-295 0 -295 265q0 175 102 340q98 157 254 251q164 99 330 99q170 0 170 -141q0 -74 -42 -142q-107 -174 -343 -239q-73 -20 -196 -30zM333 427q152 22 232 108
q114 121 114 266q0 60 -55 60q-48 0 -108 -67q-110 -122 -183 -367zM656 1357q62 0 104.5 -43t42.5 -105q0 -61 -43 -104t-104 -43t-104.5 43t-43.5 104q0 62 43 105t105 43z" />
    <glyph glyph-name="Eogonek" unicode="&#x118;" horiz-adv-x="1366" 
d="M774 1281l-151 -526h46q164 0 245 38q99 47 162 180h37l-152 -528h-35q9 53 9 86q0 106 -117 140q-34 10 -141 10h-78l-130 -455q-17 -59 -17 -89q0 -57 143 -57q355 0 593 292h41l-141 -372h-1160l12 37q111 0 161 50q39 40 73 158l255 873q21 72 21 115q0 52 -53 71
q-26 10 -97 15l11 37h1081l-87 -339h-36q-4 100 -31 141q-52 79 -149 106q-63 17 -188 17h-127zM761 19h82q-48 -74 -48 -120q0 -84 66 -141.5t151 -57.5q15 0 36 1l20 -55q-103 -54 -185 -54q-101 0 -177 61q-82 66 -82 164q0 111 137 202z" />
    <glyph glyph-name="eogonek" unicode="&#x119;" horiz-adv-x="909" 
d="M324 375q-9 -65 -9 -107q0 -74 43 -119.5t117 -45.5q137 0 304 153l30 -27q-213 -257 -465 -257q-295 0 -295 265q0 175 102 340q98 157 254 251q164 99 330 99q170 0 170 -141q0 -74 -42 -142q-107 -174 -343 -239q-73 -20 -196 -30zM333 427q152 22 232 108
q114 121 114 266q0 60 -55 60q-48 0 -108 -67q-110 -122 -183 -367zM324 19h82q-48 -74 -48 -120q0 -84 66 -141.5t151 -57.5q15 0 36 1l20 -55q-103 -54 -185 -54q-101 0 -177 61q-82 66 -82 164q0 111 137 202z" />
    <glyph glyph-name="Ecaron" unicode="&#x11a;" horiz-adv-x="1366" 
d="M774 1281l-151 -526h46q164 0 245 38q99 47 162 180h37l-152 -528h-35q9 53 9 86q0 106 -117 140q-34 10 -141 10h-78l-130 -455q-17 -59 -17 -89q0 -57 143 -57q355 0 593 292h41l-141 -372h-1160l12 37q111 0 161 50q39 40 73 158l255 873q21 72 21 115q0 52 -53 71
q-26 10 -97 15l11 37h1081l-87 -339h-36q-4 100 -31 141q-52 79 -149 106q-63 17 -188 17h-127zM1187 1796l-264 -343h-263l-107 343h120l141 -206l245 206h128z" />
    <glyph glyph-name="ecaron" unicode="&#x11b;" horiz-adv-x="909" 
d="M324 375q-9 -65 -9 -107q0 -74 43 -119.5t117 -45.5q137 0 304 153l30 -27q-213 -257 -465 -257q-295 0 -295 265q0 175 102 340q98 157 254 251q164 99 330 99q170 0 170 -141q0 -74 -42 -142q-107 -174 -343 -239q-73 -20 -196 -30zM333 427q152 22 232 108
q114 121 114 266q0 60 -55 60q-48 0 -108 -67q-110 -122 -183 -367zM1033 1387l-264 -343h-263l-107 343h120l141 -206l245 206h128z" />
    <glyph glyph-name="Gcircumflex" unicode="&#x11c;" horiz-adv-x="1479" 
d="M1530 1387l-94 -435h-38q-15 357 -303 357q-173 0 -323 -129q-126 -109 -210 -285q-102 -212 -102 -445q0 -160 68 -274q82 -137 233 -137q51 0 124 29l104 358q26 90 26 118q0 88 -140 88l10 38h585l-9 -38q-95 -5 -128 -68q-5 -9 -31 -98l-123 -417q-210 -80 -442 -80
q-354 0 -512 271q-83 141 -83 321q0 385 341 633q265 193 606 193q62 0 109 -6q35 -4 130 -28q60 -15 82 -15q44 0 83 49h37zM1057 1831h227l102 -340h-102l-134 203l-294 -203h-105z" />
    <glyph glyph-name="gcircumflex" unicode="&#x11d;" 
d="M792 866h266l-32 -110h-138q32 -59 32 -112q0 -198 -195 -291q-97 -46 -215 -46q-56 0 -150 17q-95 -49 -95 -83q0 -45 92 -65q204 -44 269 -71q180 -75 180 -235q0 -165 -163 -248q-126 -64 -308 -64q-243 0 -358 80q-83 58 -83 138q0 141 288 205q-61 34 -82 62
q-29 38 -29 79q0 127 233 219q-185 74 -185 244q0 194 208 293q102 49 235 49q85 0 151 -19q34 -10 79 -42zM583 878q-48 0 -83 -32q-60 -55 -100 -178q-35 -110 -35 -204q0 -106 99 -106q84 0 148 147q11 26 22 57q42 120 42 218q0 42 -26 70t-67 28zM238 -42
q-164 -64 -164 -173q0 -92 105 -137q77 -33 182 -33q92 0 154 30q83 39 83 122q0 68 -96 112q-38 17 -153 47q-60 16 -111 32zM642 1387h227l102 -340h-102l-134 203l-294 -203h-105z" />
    <glyph glyph-name="Gbreve" unicode="&#x11e;" horiz-adv-x="1479" 
d="M1530 1387l-94 -435h-38q-15 357 -303 357q-173 0 -323 -129q-126 -109 -210 -285q-102 -212 -102 -445q0 -160 68 -274q82 -137 233 -137q51 0 124 29l104 358q26 90 26 118q0 88 -140 88l10 38h585l-9 -38q-95 -5 -128 -68q-5 -9 -31 -98l-123 -417q-210 -80 -442 -80
q-354 0 -512 271q-83 141 -83 321q0 385 341 633q265 193 606 193q62 0 109 -6q35 -4 130 -28q60 -15 82 -15q44 0 83 49h37zM909 1813h32q29 -165 205 -165q166 0 257 165h39q-96 -348 -332 -348q-101 0 -162 66t-61 168q0 48 22 114z" />
    <glyph glyph-name="gbreve" unicode="&#x11f;" 
d="M792 866h266l-32 -110h-138q32 -59 32 -112q0 -198 -195 -291q-97 -46 -215 -46q-56 0 -150 17q-95 -49 -95 -83q0 -45 92 -65q204 -44 269 -71q180 -75 180 -235q0 -165 -163 -248q-126 -64 -308 -64q-243 0 -358 80q-83 58 -83 138q0 141 288 205q-61 34 -82 62
q-29 38 -29 79q0 127 233 219q-185 74 -185 244q0 194 208 293q102 49 235 49q85 0 151 -19q34 -10 79 -42zM583 878q-48 0 -83 -32q-60 -55 -100 -178q-35 -110 -35 -204q0 -106 99 -106q84 0 148 147q11 26 22 57q42 120 42 218q0 42 -26 70t-67 28zM238 -42
q-164 -64 -164 -173q0 -92 105 -137q77 -33 182 -33q92 0 154 30q83 39 83 122q0 68 -96 112q-38 17 -153 47q-60 16 -111 32zM428 1387h32q29 -165 205 -165q166 0 257 165h39q-96 -348 -332 -348q-101 0 -162 66t-61 168q0 48 22 114z" />
    <glyph glyph-name="Gdot" unicode="&#x120;" horiz-adv-x="1479" 
d="M1530 1387l-94 -435h-38q-15 357 -303 357q-173 0 -323 -129q-126 -109 -210 -285q-102 -212 -102 -445q0 -160 68 -274q82 -137 233 -137q51 0 124 29l104 358q26 90 26 118q0 88 -140 88l10 38h585l-9 -38q-95 -5 -128 -68q-5 -9 -31 -98l-123 -417q-210 -80 -442 -80
q-354 0 -512 271q-83 141 -83 321q0 385 341 633q265 193 606 193q62 0 109 -6q35 -4 130 -28q60 -15 82 -15q44 0 83 49h37zM1102 1783q62 0 104.5 -43t42.5 -105q0 -61 -43 -104t-104 -43t-104.5 43t-43.5 104q0 62 43 105t105 43z" />
    <glyph glyph-name="gdot" unicode="&#x121;" 
d="M792 866h266l-32 -110h-138q32 -59 32 -112q0 -198 -195 -291q-97 -46 -215 -46q-56 0 -150 17q-95 -49 -95 -83q0 -45 92 -65q204 -44 269 -71q180 -75 180 -235q0 -165 -163 -248q-126 -64 -308 -64q-243 0 -358 80q-83 58 -83 138q0 141 288 205q-61 34 -82 62
q-29 38 -29 79q0 127 233 219q-185 74 -185 244q0 194 208 293q102 49 235 49q85 0 151 -19q34 -10 79 -42zM583 878q-48 0 -83 -32q-60 -55 -100 -178q-35 -110 -35 -204q0 -106 99 -106q84 0 148 147q11 26 22 57q42 120 42 218q0 42 -26 70t-67 28zM238 -42
q-164 -64 -164 -173q0 -92 105 -137q77 -33 182 -33q92 0 154 30q83 39 83 122q0 68 -96 112q-38 17 -153 47q-60 16 -111 32zM693 1357q62 0 104.5 -43t42.5 -105q0 -61 -43 -104t-104 -43t-104.5 43t-43.5 104q0 62 43 105t105 43z" />
    <glyph glyph-name="Gcedilla" unicode="&#x122;" horiz-adv-x="1479" 
d="M732 -31l-28 -21q160 -22 160 -152q0 -172 -262 -172q-117 0 -192 30l12 31q73 -14 112 -14q54 0 92 24q46 28 46 79q0 33 -21.5 57.5t-53.5 24.5q-22 0 -55 -8l-14 30l130 94q-232 16 -377 188q-139 165 -139 401q0 361 299 601q279 225 648 225q100 0 239 -34
q62 -15 82 -15q46 0 83 49h37l-94 -435h-38q-12 357 -303 357q-281 0 -470 -300q-165 -263 -165 -560q0 -159 69 -274q82 -136 232 -136q51 0 124 29l104 358q26 90 26 118q0 88 -140 88l9 38h586l-9 -38q-74 -4 -103 -34q-25 -27 -56 -132l-123 -417q-199 -80 -447 -80z
" />
    <glyph glyph-name="gcedilla" unicode="&#x123;" 
d="M852 1455l17 -26q-166 -77 -166 -130q0 -25 42 -57q59 -45 59 -89q0 -46 -41 -76q-37 -27 -85 -27q-50 0 -88 33.5t-38 83.5q0 103 103 186q80 64 197 102zM792 866h266l-32 -110h-138q32 -52 32 -114q0 -157 -130 -251q-117 -84 -280 -84q-67 0 -150 17q-95 -47 -95 -84
t89 -64l116 -28q121 -30 162 -46q87 -36 132 -99q42 -59 42 -133q0 -166 -163 -248q-126 -64 -309 -64q-151 0 -269 39q-171 57 -171 179q0 91 104 146q59 31 184 59q-111 58 -111 145q0 126 233 215q-185 67 -185 244q0 162 146 258q126 84 297 84q155 0 230 -61zM576 878
q-94 0 -159 -164q-52 -132 -52 -244t100 -112q91 0 157 171q54 139 54 249q0 100 -100 100zM238 -42q-164 -60 -164 -171q0 -93 104 -138q77 -34 182 -34q92 0 155 30q83 39 83 121q0 70 -98 114q-38 17 -157 48q-85 22 -105 30z" />
    <glyph glyph-name="Hcircumflex" unicode="&#x124;" horiz-adv-x="1593" 
d="M609 732h496l110 379q22 76 22 119q0 55 -55 75q-26 9 -102 14l11 37h674l-11 -37q-108 0 -161 -52q-43 -44 -76 -156l-252 -868q-25 -86 -25 -122q0 -81 154 -84l-10 -37h-661l15 37q107 0 155 51q37 39 70 155l117 404h-494l-116 -404q-25 -87 -25 -123q0 -80 151 -83
l-10 -37h-652l11 37q106 0 154 52q35 38 69 154l252 868q22 76 22 118q0 55 -52 75q-26 10 -101 15l11 37h663l-15 -37q-103 0 -153 -54q-38 -41 -72 -154zM1051 1831h227l102 -340h-102l-134 203l-294 -203h-105z" />
    <glyph glyph-name="hcircumflex" unicode="&#x125;" horiz-adv-x="1139" 
d="M669 1387l-260 -901q139 205 196 269q153 172 282 172q57 0 92 -43q32 -40 32 -98q0 -54 -24 -135l-127 -426q-17 -57 -17 -75q0 -24 23 -24q11 0 24 10q33 26 68 80q11 16 29 42l39 -22q-150 -248 -309 -248q-56 0 -92 28q-40 30 -40 84q0 43 24 125l124 426
q12 41 12 64q0 28 -28 28q-36 0 -99 -60q-130 -123 -260 -386l-89 -297h-248l328 1130q20 69 20 103q0 61 -100 55l7 40l333 59h60zM847 1831h227l102 -340h-102l-134 203l-294 -203h-105z" />
    <glyph glyph-name="Hbar" unicode="&#x126;" horiz-adv-x="1593" 
d="M1224 1146q13 53 13 82q0 56 -54 77q-30 10 -103 14l11 37h674l-11 -37q-98 -2 -147 -41q-44 -36 -79 -132h162l-20 -66h-162l-243 -837q-25 -86 -25 -120q0 -86 154 -86l-10 -37h-661l15 37q106 0 155 52q37 39 70 154l117 404h-494l-116 -404q-25 -87 -25 -120
q0 -83 151 -86l-10 -37h-652l11 37q107 2 153 52q36 38 70 154l243 837h-158l20 66h156q13 56 13 83q0 56 -52 76q-30 11 -101 14l11 37h663l-15 -37q-96 -2 -141 -42q-38 -34 -73 -131h490zM1206 1080h-492l-105 -348h496z" />
    <glyph glyph-name="hbar" unicode="&#x127;" horiz-adv-x="1139" 
d="M604 1146h308l-20 -66h-308l-171 -594q122 185 199 271q152 170 275 170q58 0 93 -40.5t35 -99.5q0 -57 -28 -151l-123 -411q-17 -57 -17 -73q0 -26 23 -26q30 0 121 132l39 -22q-149 -247 -306 -247q-135 0 -135 113q0 40 24 123l123 426q13 45 13 61q0 31 -30 31
q-73 0 -205 -191q-93 -133 -152 -255l-89 -297h-248l313 1080h-120l20 66h119q16 63 16 87q0 56 -84 56q-6 0 -16 -1l7 40l333 59h60z" />
    <glyph glyph-name="Itilde" unicode="&#x128;" horiz-adv-x="797" 
d="M283 1319l11 37h662l-13 -37q-102 0 -152 -55q-37 -41 -69 -152l-248 -868q-27 -94 -27 -123q0 -81 164 -84l-10 -37h-673l11 37q110 0 160 50q39 41 73 157l250 868q23 80 23 121q0 53 -59 72q-27 9 -103 14zM941 1768h63q-2 -105 -43 -182q-53 -96 -149 -96
q-70 0 -212 65q-59 27 -87 27q-63 0 -76 -91h-66q6 109 48 183q54 94 153 94q78 0 212 -64q55 -26 81 -26q65 0 76 90z" />
    <glyph glyph-name="itilde" unicode="&#x129;" horiz-adv-x="569" 
d="M526 927l-205 -711q-17 -59 -17 -80q0 -30 28 -30q16 0 34 15q46 39 108 134l34 -20q-151 -263 -321 -263q-61 0 -100 34q-42 35 -42 95q0 36 17 94l139 478q20 69 20 104q0 56 -71 56q-15 0 -36 -1l13 40l339 55h60zM696 1356h63q-2 -105 -43 -182q-53 -96 -149 -96
q-70 0 -212 65q-59 27 -87 27q-63 0 -76 -91h-66q6 109 48 183q54 94 153 94q78 0 212 -64q55 -26 81 -26q65 0 76 90z" />
    <glyph glyph-name="Imacron" unicode="&#x12a;" horiz-adv-x="797" 
d="M283 1319l11 37h662l-13 -37q-102 0 -152 -55q-37 -41 -69 -152l-248 -868q-27 -94 -27 -123q0 -81 164 -84l-10 -37h-673l11 37q110 0 160 50q39 41 73 157l250 868q23 80 23 121q0 53 -59 72q-27 9 -103 14zM363 1671h694l-49 -163h-692z" />
    <glyph glyph-name="imacron" unicode="&#x12b;" horiz-adv-x="569" 
d="M526 927l-205 -711q-17 -59 -17 -80q0 -30 28 -30q16 0 34 15q46 39 108 134l34 -20q-151 -263 -321 -263q-61 0 -100 34q-42 35 -42 95q0 36 17 94l139 478q20 69 20 104q0 56 -71 56q-15 0 -36 -1l13 40l339 55h60zM116 1254h694l-49 -163h-692z" />
    <glyph glyph-name="Ibreve" unicode="&#x12c;" horiz-adv-x="797" 
d="M283 1319l11 37h662l-13 -37q-102 0 -152 -55q-37 -41 -69 -152l-248 -868q-27 -94 -27 -123q0 -81 164 -84l-10 -37h-673l11 37q110 0 160 50q39 41 73 157l250 868q23 80 23 121q0 53 -59 72q-27 9 -103 14zM479 1838h32q29 -165 205 -165q166 0 257 165h39
q-96 -348 -332 -348q-101 0 -162 66t-61 168q0 48 22 114z" />
    <glyph glyph-name="ibreve" unicode="&#x12d;" horiz-adv-x="569" 
d="M526 927l-205 -711q-17 -59 -17 -80q0 -30 28 -30q16 0 34 15q46 39 108 134l34 -20q-151 -263 -321 -263q-61 0 -100 34q-42 35 -42 95q0 36 17 94l139 478q20 69 20 104q0 56 -71 56q-15 0 -36 -1l13 40l339 55h60zM237 1387h32q29 -165 205 -165q166 0 257 165h39
q-96 -348 -332 -348q-101 0 -162 66t-61 168q0 48 22 114z" />
    <glyph glyph-name="Iogonek" unicode="&#x12e;" horiz-adv-x="797" 
d="M327 0q-37 -59 -37 -100q0 -84 67 -143q64 -57 150 -57q15 0 36 1l20 -55q-98 -54 -184 -54q-100 0 -177 61q-83 66 -83 164q0 108 110 183h-298l12 37q110 2 159 51q40 40 73 156l248 861q25 87 25 125q0 83 -162 89l11 37h662l-13 -37q-109 -3 -159 -67
q-29 -38 -71 -169q-55 -174 -149 -501q-116 -407 -116 -461q0 -82 163 -84l-10 -37h-277z" />
    <glyph glyph-name="iogonek" unicode="&#x12f;" horiz-adv-x="569" 
d="M461 1387q61 0 104 -42.5t43 -103.5t-43 -104t-104 -43t-104 43t-43 104t43 103.5t104 42.5zM215 -26q-21 -40 -21 -74q0 -84 66 -142t151 -58q15 0 36 1l20 -55q-98 -54 -185 -54q-101 0 -177 61q-82 66 -82 164q0 102 91 169q-72 37 -72 110q0 44 16 99l140 478
q20 68 20 101q0 59 -74 59q-11 0 -34 -1l14 40l339 55h60l-205 -711q-18 -62 -18 -77q0 -33 30 -33q48 0 140 149l35 -20q-138 -242 -290 -261z" />
    <glyph glyph-name="Idotaccent" unicode="&#x130;" horiz-adv-x="797" 
d="M283 1319l11 37h662l-13 -37q-102 0 -152 -55q-37 -41 -69 -152l-248 -868q-27 -94 -27 -123q0 -81 164 -84l-10 -37h-673l11 37q110 0 160 50q39 41 73 157l250 868q23 80 23 121q0 53 -59 72q-27 9 -103 14zM665 1783q62 0 104.5 -43t42.5 -105q0 -61 -43 -104
t-104 -43t-104.5 43t-43.5 104q0 62 43 105t105 43z" />
    <glyph glyph-name="dotlessi" unicode="&#x131;" horiz-adv-x="569" 
d="M526 927l-205 -711q-17 -59 -17 -80q0 -30 28 -30q16 0 34 15q46 39 108 134l34 -20q-151 -263 -321 -263q-61 0 -100 34q-42 35 -42 95q0 36 17 94l139 478q20 69 20 104q0 56 -71 56q-15 0 -36 -1l13 40l339 55h60z" />
    <glyph glyph-name="IJ" unicode="&#x132;" horiz-adv-x="1685" 
d="M283 1319l11 37h662l-13 -37q-102 0 -152 -55q-37 -41 -69 -152l-248 -868q-27 -94 -27 -123q0 -81 164 -84l-10 -37h-673l11 37q110 0 160 50q39 41 73 157l250 868q23 80 23 121q0 53 -59 72q-27 9 -103 14zM1221 1319l11 37h666l-11 -37q-101 0 -153 -52
q-44 -43 -74 -149l-145 -508q-65 -229 -104 -315q-77 -169 -203 -253q-110 -73 -279 -73q-113 0 -185 44q-86 53 -86 159q0 66 41 116q43 54 108 54q51 0 87 -32t36 -82q0 -43 -43 -95q-26 -31 -26 -51q0 -16 14 -27q24 -18 55 -18q89 0 169 204q16 41 84 271l178 606
q23 78 23 115q0 53 -60 72q-27 9 -103 14z" />
    <glyph glyph-name="ij" unicode="&#x133;" horiz-adv-x="1131" 
d="M498 1387q62 0 104.5 -42.5t42.5 -104.5q0 -61 -43 -104t-104 -43t-103.5 43t-42.5 104t42.5 104t103.5 43zM560 927l-205 -711q-17 -59 -17 -80q0 -30 28 -30q16 0 34 15q46 39 108 134l34 -20q-151 -263 -321 -263q-61 0 -100 34q-42 35 -42 95q0 36 17 94l139 478
q20 69 20 104q0 56 -71 56q-15 0 -36 -1l13 40l339 55h60zM995 1387q62 0 105 -43.5t43 -105.5q0 -61 -43.5 -104.5t-104.5 -43.5q-62 0 -105.5 43t-43.5 105t43.5 105.5t105.5 43.5zM1079 927l-213 -787q-64 -238 -148 -381q-54 -93 -147.5 -147t-201.5 -54q-62 0 -107 23
q-58 28 -58 85q0 47 36 77t83 30q86 0 86 -73q0 -29 -27 -58q-11 -12 -11 -18q0 -18 26 -18q43 0 76 50q21 32 78 248l204 770q22 83 22 104q0 26 -28 43q-24 14 -52 14q-11 0 -26 -1l11 38l337 55h60z" />
    <glyph glyph-name="Jcircumflex" unicode="&#x134;" 
d="M547 1319l11 37h666l-11 -37q-101 0 -153 -52q-44 -43 -74 -149l-145 -508q-65 -229 -104 -315q-77 -169 -203 -253q-110 -73 -279 -73q-113 0 -185 44q-86 53 -86 159q0 66 41 116q43 54 108 54q51 0 87 -32t36 -82q0 -43 -43 -95q-26 -31 -26 -51q0 -16 14 -27
q24 -18 55 -18q89 0 169 204q16 41 84 271l178 606q23 78 23 115q0 53 -60 72q-27 9 -103 14zM894 1831h227l102 -340h-102l-134 203l-294 -203h-105z" />
    <glyph glyph-name="jcircumflex" unicode="&#x135;" horiz-adv-x="569" 
d="M385 1387h227l102 -340h-102l-134 203l-294 -203h-105zM547 927l-213 -787q-72 -265 -153 -388q-128 -194 -343 -194q-63 0 -108 22q-58 29 -58 86q0 46 35.5 76.5t82.5 30.5q87 0 87 -73q0 -29 -27 -58q-11 -12 -11 -18q0 -18 26 -18q64 0 108 124l46 174l204 770
q22 83 22 104q0 26 -28 43q-24 14 -52 14q-10 0 -26 -1l11 38l337 55h60z" />
    <glyph glyph-name="Kcedilla" unicode="&#x136;" horiz-adv-x="1366" 
d="M1256 0h-587l11 37q114 10 114 104q0 44 -31 143l-144 462l-143 -495q-24 -83 -24 -120q0 -92 152 -94l-11 -37h-659l11 37q136 3 180 80q22 38 55 153l228 789q39 135 39 173q0 82 -151 87l11 37h638l-11 -37q-117 0 -171 -95q-17 -30 -52 -153l-92 -324l353 324
q102 94 115 114q16 25 16 53q0 68 -96 81l11 37h511l-11 -37q-59 -5 -96 -17q-49 -16 -112 -54q-44 -27 -128 -91l-93 -86l-215 -193l160 -500q61 -191 72 -212q59 -123 161 -129zM281 -346l12 31q74 -14 112 -14q54 0 93 24q46 28 46 79q0 83 -97 83q-19 0 -45 -2l29 101
q63 4 103 4q85 0 139 -38q63 -43 63 -124q0 -174 -263 -174q-117 0 -192 30z" />
    <glyph glyph-name="kcedilla" unicode="&#x137;" 
d="M667 1387l-276 -946l305 280q29 25 46 58q8 15 8 28q0 46 -117 54l11 38h407l-10 -38q-72 -17 -117 -39q-36 -18 -86 -56q-66 -51 -109 -91l-44 -41l61 -276q36 -162 52 -185q10 -15 26 -15q35 0 83 82q5 9 19 31l37 -23q-75 -140 -169 -213q-63 -49 -114 -49
q-74 0 -112 82q-16 34 -41 146l-50 227l-110 -98l-100 -343h-255l332 1129q21 71 21 97q0 44 -37 59q-18 7 -70 7l9 37l340 58h60zM98 -346l12 31q74 -14 112 -14q54 0 93 24q46 28 46 79q0 83 -97 83q-19 0 -45 -2l29 101q63 4 103 4q85 0 139 -38q63 -43 63 -124
q0 -174 -263 -174q-117 0 -192 30z" />
    <glyph glyph-name="kgreenlandic" unicode="&#x138;" 
d="M1051 899l-11 -38q-141 -27 -312 -186l-44 -41l61 -276q44 -200 78 -200q36 0 84 82q5 9 19 31l36 -23q-48 -94 -115 -166q-89 -96 -169 -96q-74 0 -111 82q-15 32 -40 146l-50 227l-111 -98l-99 -343h-255l187 642q27 93 27 132q0 56 -102 56l11 38l337 59h60l-141 -486
l255 235q103 91 103 131q0 47 -116 54l11 38h407z" />
    <glyph glyph-name="Lacute" unicode="&#x139;" horiz-adv-x="1251" 
d="M1027 0h-1083l11 37q107 0 155 51q35 39 69 155l252 871q21 73 21 113q0 85 -148 92l11 37h651l-11 -37q-103 -2 -152 -54q-39 -41 -71 -151l-230 -797q-44 -152 -44 -185q0 -55 95 -55q367 0 582 303h42zM769 1787h308l-337 -350h-90z" />
    <glyph glyph-name="lacute" unicode="&#x13a;" horiz-adv-x="569" 
d="M651 1387l-331 -1126q-29 -99 -29 -125q0 -31 27 -31q17 0 34 14q49 41 107 132l39 -18q-163 -261 -321 -261q-59 0 -99 31q-45 33 -45 90q0 37 24 119l270 922q22 75 22 101q0 61 -106 55l11 38l337 59h60zM537 1787h308l-337 -350h-90z" />
    <glyph glyph-name="Lcedilla" unicode="&#x13b;" horiz-adv-x="1251" 
d="M1027 0h-1083l11 37q107 0 155 51q35 39 69 155l252 871q21 73 21 113q0 85 -148 92l11 37h651l-11 -37q-103 -2 -152 -54q-39 -41 -71 -151l-230 -797q-44 -152 -44 -185q0 -55 95 -55q367 0 582 303h42zM211 -346l12 31q74 -14 112 -14q54 0 93 24q46 28 46 79
q0 83 -97 83q-19 0 -45 -2l29 101q63 4 103 4q85 0 139 -38q63 -43 63 -124q0 -174 -263 -174q-117 0 -192 30z" />
    <glyph glyph-name="lcedilla" unicode="&#x13c;" horiz-adv-x="569" 
d="M651 1387l-331 -1126q-29 -99 -29 -125q0 -31 27 -31q17 0 34 14q49 41 107 132l39 -18q-163 -261 -321 -261q-59 0 -99 31q-45 33 -45 90q0 37 24 119l270 922q22 75 22 101q0 61 -106 55l11 38l337 59h60zM-161 -346l12 31q74 -14 112 -14q54 0 93 24q46 28 46 79
q0 83 -97 83q-19 0 -45 -2l29 101q63 4 103 4q85 0 139 -38q63 -43 63 -124q0 -174 -263 -174q-117 0 -192 30z" />
    <glyph glyph-name="Lcaron" unicode="&#x13d;" horiz-adv-x="1251" 
d="M967 753l-23 42q153 86 191 132q28 34 28 70q0 34 -49 86q-62 64 -71 81q-13 24 -13 64q0 67 49.5 113t116.5 46q73 0 120 -55.5t47 -129.5q0 -155 -127 -281q-104 -102 -269 -168zM1027 0h-1083l11 37q107 0 155 51q35 39 69 155l252 871q21 73 21 113q0 85 -148 92
l11 37h651l-11 -37q-103 -2 -152 -54q-39 -41 -71 -151l-230 -797q-44 -152 -44 -185q0 -55 95 -55q367 0 582 303h42z" />
    <glyph glyph-name="lcaron" unicode="&#x13e;" horiz-adv-x="1067" 
d="M677 753l-23 42q153 86 191 132q28 34 28 70q0 34 -49 85q-61 64 -71 82q-13 25 -13 64q0 67 49 113t117 46q73 0 120 -55.5t47 -129.5q0 -155 -127 -281q-104 -102 -269 -168zM651 1387l-331 -1126q-29 -99 -29 -125q0 -31 27 -31q17 0 34 14q49 41 107 132l39 -18
q-163 -261 -321 -261q-59 0 -99 31q-45 33 -45 90q0 37 24 119l270 922q22 75 22 101q0 61 -106 55l11 38l337 59h60z" />
    <glyph glyph-name="Ldot" unicode="&#x13f;" horiz-adv-x="1251" 
d="M1027 0h-1083l11 37q107 0 155 51q35 39 69 155l252 871q21 73 21 113q0 85 -148 92l11 37h651l-11 -37q-103 -2 -152 -54q-39 -41 -71 -151l-230 -797q-44 -152 -44 -185q0 -55 95 -55q367 0 582 303h42zM833 834q54 0 92.5 -38.5t38.5 -92.5t-38.5 -92.5t-92.5 -38.5
t-92.5 38.5t-38.5 92.5q0 55 38 93t93 38z" />
    <glyph glyph-name="ldot" unicode="&#x140;" horiz-adv-x="768" 
d="M651 1387l-331 -1126q-29 -99 -29 -125q0 -31 27 -31q17 0 34 14q49 41 107 132l39 -18q-163 -261 -321 -261q-59 0 -99 31q-45 33 -45 90q0 37 24 119l270 922q22 75 22 101q0 61 -106 55l11 38l337 59h60zM615 817q54 0 92.5 -38.5t38.5 -92.5t-38.5 -92.5t-92.5 -38.5
t-92.5 38.5t-38.5 92.5q0 55 38 93t93 38z" />
    <glyph glyph-name="Lslash" unicode="&#x141;" horiz-adv-x="1251" 
d="M1025 0h-1081l11 37q107 0 154 52q35 38 68 154l74 258l-239 -161l32 114l239 159l145 501q22 76 22 113q0 88 -149 92l10 37h652l-11 -37q-107 0 -155 -51q-36 -38 -69 -154l-72 -250l264 179l-34 -116l-261 -174l-126 -435q-42 -145 -42 -186q0 -55 95 -55
q356 0 583 307h42z" />
    <glyph glyph-name="lslash" unicode="&#x142;" horiz-adv-x="569" 
d="M651 1387l-165 -554l137 88l-29 -95l-136 -89l-138 -475q-29 -100 -29 -126q0 -30 26 -30q18 0 33 12q42 35 108 136l38 -21q-159 -261 -319 -261q-59 0 -99 31q-45 33 -45 90q0 39 23 118l97 332l-153 -97l29 97l154 96l144 494q22 75 22 101q0 59 -106 54l11 40l340 59
h57z" />
    <glyph glyph-name="Nacute" unicode="&#x143;" horiz-adv-x="1479" 
d="M730 1356l424 -904l191 656q15 52 15 96q0 106 -140 115l11 37h430l-10 -37q-98 -6 -151 -61q-44 -46 -75 -150l-331 -1123h-38l-544 1156l-263 -901q-13 -45 -13 -84q0 -119 149 -119l-9 -37h-442l9 37q56 0 81 10q103 40 147 193l287 985q-51 57 -86 74q-38 19 -111 20
l11 37h458zM987 1787h308l-337 -350h-90z" />
    <glyph glyph-name="nacute" unicode="&#x144;" horiz-adv-x="1139" 
d="M543 927l-124 -429q126 190 187 257q156 172 281 172q57 0 91.5 -40.5t34.5 -98.5q0 -56 -24 -136l-128 -427q-16 -53 -16 -73q0 -26 23 -26q11 0 21 8q35 28 71 82q8 12 29 42l38 -23q-147 -247 -309 -247q-56 0 -92 28q-40 30 -40 84q0 43 24 125l125 427q13 44 13 62
q0 28 -30 28q-38 0 -92 -52q-138 -132 -267 -393l-82 -297h-255l187 642q27 93 27 135q0 34 -34 47q-18 6 -68 6l11 38l337 59h61zM684 1387h308l-337 -350h-90z" />
    <glyph glyph-name="Ncedilla" unicode="&#x145;" horiz-adv-x="1479" 
d="M730 1356l424 -904l191 656q15 52 15 96q0 106 -140 115l11 37h430l-10 -37q-98 -6 -151 -61q-44 -46 -75 -150l-331 -1123h-38l-544 1156l-263 -901q-13 -45 -13 -84q0 -119 149 -119l-9 -37h-442l9 37q56 0 81 10q103 40 147 193l287 985q-51 57 -86 74q-38 19 -111 20
l11 37h458zM288 -346l12 31q74 -14 112 -14q54 0 93 24q46 28 46 79q0 83 -97 83q-19 0 -45 -2l29 101q63 4 103 4q85 0 139 -38q63 -43 63 -124q0 -174 -263 -174q-117 0 -192 30z" />
    <glyph glyph-name="ncedilla" unicode="&#x146;" horiz-adv-x="1139" 
d="M543 927l-124 -429q126 190 187 257q156 172 281 172q57 0 91.5 -40.5t34.5 -98.5q0 -56 -24 -136l-128 -427q-16 -53 -16 -73q0 -26 23 -26q11 0 21 8q35 28 71 82q8 12 29 42l38 -23q-147 -247 -309 -247q-56 0 -92 28q-40 30 -40 84q0 43 24 125l125 427q13 44 13 62
q0 28 -30 28q-38 0 -92 -52q-138 -132 -267 -393l-82 -297h-255l187 642q27 93 27 135q0 34 -34 47q-18 6 -68 6l11 38l337 59h61zM144 -346l12 31q74 -14 112 -14q54 0 93 24q46 28 46 79q0 83 -97 83q-19 0 -45 -2l29 101q63 4 103 4q85 0 139 -38q63 -43 63 -124
q0 -174 -263 -174q-117 0 -192 30z" />
    <glyph glyph-name="Ncaron" unicode="&#x147;" horiz-adv-x="1479" 
d="M730 1356l424 -904l191 656q15 52 15 96q0 106 -140 115l11 37h430l-10 -37q-98 -6 -151 -61q-44 -46 -75 -150l-331 -1123h-38l-544 1156l-263 -901q-13 -45 -13 -84q0 -119 149 -119l-9 -37h-442l9 37q56 0 81 10q103 40 147 193l287 985q-51 57 -86 74q-38 19 -111 20
l11 37h458zM1348 1796l-264 -343h-263l-107 343h120l141 -206l245 206h128z" />
    <glyph glyph-name="ncaron" unicode="&#x148;" horiz-adv-x="1139" 
d="M543 927l-124 -429q126 190 187 257q156 172 281 172q57 0 91.5 -40.5t34.5 -98.5q0 -56 -24 -136l-128 -427q-16 -53 -16 -73q0 -26 23 -26q11 0 21 8q35 28 71 82q8 12 29 42l38 -23q-147 -247 -309 -247q-56 0 -92 28q-40 30 -40 84q0 43 24 125l125 427q13 44 13 62
q0 28 -30 28q-38 0 -92 -52q-138 -132 -267 -393l-82 -297h-255l187 642q27 93 27 135q0 34 -34 47q-18 6 -68 6l11 38l337 59h61zM1040 1387l-264 -343h-263l-107 343h120l141 -206l245 206h128z" />
    <glyph glyph-name="napostrophe" unicode="&#x149;" horiz-adv-x="1472" 
d="M882 927l-124 -429q126 190 187 257q156 172 281 172q57 0 91.5 -40.5t34.5 -98.5q0 -56 -24 -136l-128 -427q-16 -53 -16 -73q0 -26 23 -26q11 0 21 8q35 28 71 82q8 12 29 42l38 -23q-147 -247 -309 -247q-56 0 -92 28q-40 30 -40 84q0 43 24 125l125 427q13 44 13 62
q0 28 -30 28q-38 0 -92 -52q-138 -132 -267 -393l-82 -297h-255l187 642q27 93 27 135q0 34 -34 47q-18 6 -68 6l11 38l337 59h61zM113 753l-23 42q151 85 190 132q29 35 29 70q0 34 -49 85q-61 64 -71 82q-13 25 -13 64q0 67 49 113t117 46q72 0 121 -57q45 -54 45 -128
q0 -154 -127 -281q-103 -102 -268 -168z" />
    <glyph glyph-name="Eng" unicode="&#x14a;" horiz-adv-x="1605" 
d="M719 1106q266 281 511 281q174 0 270 -143q83 -123 83 -306q0 -493 -374 -821q-169 -149 -337 -149q-77 0 -126 39q-52 42 -52 117q0 70 50 126.5t119 56.5q95 0 95 -91q0 -30 -15 -82q-11 -38 -11 -54q0 -33 28 -33q52 0 88 85q9 21 39 127l176 621q45 159 45 268
q0 66 -39.5 105t-105.5 39q-214 0 -488 -341l-198 -707q-27 -96 -27 -123q0 -81 164 -84l-10 -37h-673l11 37q110 0 160 50q39 40 73 157l250 868q23 80 23 120q0 79 -162 87l11 37h492z" />
    <glyph glyph-name="eng" unicode="&#x14b;" horiz-adv-x="1107" 
d="M361 297l-82 -297h-255l187 642q27 93 27 132q0 56 -102 56l11 38l337 59h61l-125 -429q282 429 466 429q55 0 92 -39.5t37 -95.5q0 -60 -24 -140l-159 -530q-77 -256 -162 -377q-132 -187 -342 -187q-65 0 -112 23q-62 30 -62 88q0 46 36 75.5t82 29.5q88 0 88 -73
q0 -33 -30 -61q-11 -10 -11 -17q0 -19 29 -19q61 0 110 122q25 86 51 171l225 743q16 53 16 72q0 30 -33 30q-72 0 -205 -191q-90 -130 -151 -254z" />
    <glyph glyph-name="Omacron" unicode="&#x14c;" horiz-adv-x="1479" 
d="M576 -32q-308 0 -416 250q-51 116 -51 226q0 236 134 462q130 217 336 347q215 135 425 135q126 0 235.5 -63t170.5 -173t61 -223q0 -243 -155 -501q-154 -254 -368 -375q-151 -85 -372 -85zM971 1306q-139 0 -250 -124q-145 -162 -238 -530q-55 -214 -55 -357
q0 -103 42 -169q49 -78 147 -78q110 0 187 73q151 143 252 430q94 266 94 495q0 260 -179 260zM729 1671h694l-49 -163h-692z" />
    <glyph glyph-name="omacron" unicode="&#x14d;" 
d="M673 927q178 0 254 -138q35 -65 35 -144q0 -168 -93 -330q-92 -158 -236 -249q-148 -94 -298 -94q-127 0 -206 76t-79 203q0 265 197 473q192 203 426 203zM632 874q-53 0 -88 -31q-92 -83 -173 -335q-73 -230 -73 -377q0 -42 26 -74t68 -32q39 0 69 24q59 48 129 205
q54 124 84 234q41 151 41 277q0 109 -83 109zM386 1254h694l-49 -163h-692z" />
    <glyph glyph-name="Obreve" unicode="&#x14e;" horiz-adv-x="1479" 
d="M576 -32q-308 0 -416 250q-51 116 -51 226q0 236 134 462q130 217 336 347q215 135 425 135q126 0 235.5 -63t170.5 -173t61 -223q0 -243 -155 -501q-154 -254 -368 -375q-151 -85 -372 -85zM971 1306q-139 0 -250 -124q-145 -162 -238 -530q-55 -214 -55 -357
q0 -103 42 -169q49 -78 147 -78q110 0 187 73q151 143 252 430q94 266 94 495q0 260 -179 260zM812 1838h32q29 -165 205 -165q166 0 257 165h39q-96 -348 -332 -348q-101 0 -162 66t-61 168q0 48 22 114z" />
    <glyph glyph-name="obreve" unicode="&#x14f;" 
d="M673 927q178 0 254 -138q35 -65 35 -144q0 -168 -93 -330q-92 -158 -236 -249q-148 -94 -298 -94q-127 0 -206 76t-79 203q0 265 197 473q192 203 426 203zM632 874q-53 0 -88 -31q-92 -83 -173 -335q-73 -230 -73 -377q0 -42 26 -74t68 -32q39 0 69 24q59 48 129 205
q54 124 84 234q41 151 41 277q0 109 -83 109zM464 1387h32q29 -165 205 -165q166 0 257 165h39q-96 -348 -332 -348q-101 0 -162 66t-61 168q0 48 22 114z" />
    <glyph glyph-name="Odblacute" unicode="&#x150;" horiz-adv-x="1479" 
d="M576 -32q-308 0 -416 250q-51 116 -51 226q0 236 134 462q130 217 336 347q215 135 425 135q126 0 235.5 -63t170.5 -173t61 -223q0 -243 -155 -501q-154 -254 -368 -375q-151 -85 -372 -85zM971 1306q-139 0 -250 -124q-145 -162 -238 -530q-55 -214 -55 -357
q0 -103 42 -169q49 -78 147 -78q110 0 187 73q151 143 252 430q94 266 94 495q0 260 -179 260zM898 1813h308l-337 -350h-90zM1228 1813h308l-337 -350h-90z" />
    <glyph glyph-name="odblacute" unicode="&#x151;" 
d="M673 927q178 0 254 -138q35 -65 35 -144q0 -168 -93 -330q-92 -158 -236 -249q-148 -94 -298 -94q-127 0 -206 76t-79 203q0 265 197 473q192 203 426 203zM632 874q-53 0 -88 -31q-92 -83 -173 -335q-73 -230 -73 -377q0 -42 26 -74t68 -32q39 0 69 24q59 48 129 205
q54 124 84 234q41 151 41 277q0 109 -83 109zM602 1387h308l-337 -350h-90zM930 1387h308l-337 -350h-90z" />
    <glyph glyph-name="OE" unicode="&#x152;" horiz-adv-x="1933" 
d="M1281 681l-112 -387q-34 -117 -34 -156q0 -55 74 -55q155 0 305 82q139 76 244 205h42l-142 -370h-579q-194 0 -245 -2l-229 -9q-136 0 -245 57q-117 62 -176 176q-57 109 -57 242q0 236 126 449q123 209 330 330q211 124 429 124q80 0 187 -7q61 -4 224 -4h540l-86 -339
h-38q0 264 -337 264h-44l-154 -525q152 2 228 43q82 45 151 173h37l-153 -525h-35q9 47 9 82q0 97 -98 134q-53 20 -162 18zM1104 1067q9 32 9 86q0 139 -137 139q-96 0 -161 -56q-166 -142 -279 -425q-107 -268 -107 -501q0 -101 48 -167q53 -75 150 -75q188 0 278 311z
" />
    <glyph glyph-name="oe" unicode="&#x153;" horiz-adv-x="1479" 
d="M889 376q-16 -61 -16 -99q0 -71 49.5 -122.5t119.5 -51.5q140 0 299 157l34 -29q-216 -259 -464 -259q-96 0 -161 37q-50 28 -98 103q-62 -68 -119 -96q-90 -44 -191 -44q-137 0 -216.5 75t-79.5 211q0 166 94 326q90 154 234.5 248.5t288.5 94.5q97 0 152 -33.5
t98 -119.5q190 153 363 153q193 0 193 -140q0 -97 -77 -194q-70 -85 -165 -132q-115 -56 -338 -85zM622 870q-119 0 -236 -314q-95 -255 -95 -419q0 -112 99 -112q135 0 253 387q72 238 72 348t-93 110zM897 422q115 28 178 70q76 50 122 146q43 90 43 164q0 59 -52 59
q-50 0 -121 -79q-107 -119 -170 -360z" />
    <glyph glyph-name="Racute" unicode="&#x154;" horiz-adv-x="1366" 
d="M588 662l-120 -411q-26 -89 -26 -128q0 -83 160 -86l-14 -37h-653l12 37q108 0 157 52q36 39 70 156l252 870q21 72 21 115q0 54 -50 74q-26 10 -97 15l10 37h562q437 0 437 -300q0 -139 -114 -251q-71 -70 -255 -121l122 -411q40 -136 60 -166q44 -66 147 -70v-37h-422
l-192 662l-33 -2q-6 0 -34 2zM602 722q35 -2 59 -2q153 0 246 106q88 101 88 256q0 196 -182 196q-20 0 -47 -1zM836 1787h308l-337 -350h-90z" />
    <glyph glyph-name="racute" unicode="&#x155;" horiz-adv-x="797" 
d="M485 927l-151 -562q186 411 280 506q55 56 116 56q94 0 94 -117q0 -97 -47 -163q-30 -42 -67 -42t-57 32q-29 47 -31 49q-8 6 -17 6q-29 0 -78 -64q-77 -100 -169 -340q-29 -76 -81 -288h-242l165 663q18 72 18 98q0 49 -35 64q-17 7 -69 7l9 29l302 66h60zM589 1387h308
l-337 -350h-90z" />
    <glyph glyph-name="Rcedilla" unicode="&#x156;" horiz-adv-x="1366" 
d="M588 662l-120 -411q-26 -89 -26 -128q0 -83 160 -86l-14 -37h-653l12 37q108 0 157 52q36 39 70 156l252 870q21 72 21 115q0 54 -50 74q-26 10 -97 15l10 37h562q437 0 437 -300q0 -139 -114 -251q-71 -70 -255 -121l122 -411q40 -136 60 -166q44 -66 147 -70v-37h-422
l-192 662l-33 -2q-6 0 -34 2zM602 722q35 -2 59 -2q153 0 246 106q88 101 88 256q0 196 -182 196q-20 0 -47 -1zM294 -346l12 31q74 -14 112 -14q54 0 93 24q46 28 46 79q0 83 -97 83q-19 0 -45 -2l29 101q63 4 103 4q85 0 139 -38q63 -43 63 -124q0 -174 -263 -174
q-117 0 -192 30z" />
    <glyph glyph-name="rcedilla" unicode="&#x157;" horiz-adv-x="797" 
d="M485 927l-151 -562q186 411 280 506q55 56 116 56q94 0 94 -117q0 -97 -47 -163q-30 -42 -67 -42t-57 32q-29 47 -31 49q-8 6 -17 6q-29 0 -78 -64q-77 -100 -169 -340q-29 -76 -81 -288h-242l165 663q18 72 18 98q0 49 -35 64q-17 7 -69 7l9 29l302 66h60zM-25 -346
l12 31q74 -14 112 -14q54 0 93 24q46 28 46 79q0 83 -97 83q-19 0 -45 -2l29 101q63 4 103 4q85 0 139 -38q63 -43 63 -124q0 -174 -263 -174q-117 0 -192 30z" />
    <glyph glyph-name="Rcaron" unicode="&#x158;" horiz-adv-x="1366" 
d="M588 662l-120 -411q-26 -89 -26 -128q0 -83 160 -86l-14 -37h-653l12 37q108 0 157 52q36 39 70 156l252 870q21 72 21 115q0 54 -50 74q-26 10 -97 15l10 37h562q437 0 437 -300q0 -139 -114 -251q-71 -70 -255 -121l122 -411q40 -136 60 -166q44 -66 147 -70v-37h-422
l-192 662l-33 -2q-6 0 -34 2zM602 722q35 -2 59 -2q153 0 246 106q88 101 88 256q0 196 -182 196q-20 0 -47 -1zM1208 1796l-264 -343h-263l-107 343h120l141 -206l245 206h128z" />
    <glyph glyph-name="rcaron" unicode="&#x159;" horiz-adv-x="797" 
d="M485 927l-151 -562q186 411 280 506q55 56 116 56q94 0 94 -117q0 -97 -47 -163q-30 -42 -67 -42t-57 32q-29 47 -31 49q-8 6 -17 6q-29 0 -78 -64q-77 -100 -169 -340q-29 -76 -81 -288h-242l165 663q18 72 18 98q0 49 -35 64q-17 7 -69 7l9 29l302 66h60zM861 1387
l-264 -343h-263l-107 343h120l141 -206l245 206h128z" />
    <glyph glyph-name="Sacute" unicode="&#x15a;" horiz-adv-x="1139" 
d="M1195 1387l-113 -460h-33q-11 110 -39 173q-86 196 -262 196q-77 0 -136 -58.5t-59 -135.5q0 -98 79 -201q38 -51 153 -160q102 -97 145 -168q59 -96 59 -210q0 -240 -226 -343q-111 -51 -251 -51q-70 0 -201 25.5t-189 25.5q-60 0 -128 -51h-39l121 517h38
q27 -279 175 -380q78 -54 178 -54q94 0 163 62.5t69 156.5q0 96 -68 191q-37 51 -140 154q-135 133 -185 236q-37 76 -37 164q0 169 133 274q124 97 297 97q87 0 229 -39q83 -23 117 -23q54 0 106 62h44zM756 1787h308l-337 -350h-90z" />
    <glyph glyph-name="sacute" unicode="&#x15b;" horiz-adv-x="797" 
d="M758 927l-44 -309h-37q-7 98 -60 172q-61 86 -154 86q-42 0 -73 -24q-33 -27 -33 -68q0 -60 71 -136q124 -133 149 -167q77 -106 77 -204q0 -177 -159 -262q-80 -43 -166 -43q-60 0 -143 23q-58 16 -84 16q-42 0 -70 -39h-37l49 333h32q29 -100 50 -143q37 -76 97 -111
q51 -31 98 -31q52 0 89.5 33t37.5 84q0 84 -132 228q-119 129 -154 196q-26 49 -26 114q0 122 91 190q82 62 208 62q62 0 152 -22q45 -11 72 -11q39 0 63 33h36zM556 1387h308l-337 -350h-90z" />
    <glyph glyph-name="Scircumflex" unicode="&#x15c;" horiz-adv-x="1139" 
d="M1195 1387l-113 -460h-33q-11 110 -39 173q-86 196 -262 196q-77 0 -136 -58.5t-59 -135.5q0 -98 79 -201q38 -51 153 -160q102 -97 145 -168q59 -96 59 -210q0 -240 -226 -343q-111 -51 -251 -51q-70 0 -201 25.5t-189 25.5q-60 0 -128 -51h-39l121 517h38
q27 -279 175 -380q78 -54 178 -54q94 0 163 62.5t69 156.5q0 96 -68 191q-37 51 -140 154q-135 133 -185 236q-37 76 -37 164q0 169 133 274q124 97 297 97q87 0 229 -39q83 -23 117 -23q54 0 106 62h44zM810 1831h227l102 -340h-102l-134 203l-294 -203h-105z" />
    <glyph glyph-name="scircumflex" unicode="&#x15d;" horiz-adv-x="797" 
d="M758 927l-44 -309h-37q-7 98 -60 172q-61 86 -154 86q-42 0 -73 -24q-33 -27 -33 -68q0 -60 71 -136q124 -133 149 -167q77 -106 77 -204q0 -177 -159 -262q-80 -43 -166 -43q-60 0 -143 23q-58 16 -84 16q-42 0 -70 -39h-37l49 333h32q29 -100 50 -143q37 -76 97 -111
q51 -31 98 -31q52 0 89.5 33t37.5 84q0 84 -132 228q-119 129 -154 196q-26 49 -26 114q0 122 91 190q82 62 208 62q62 0 152 -22q45 -11 72 -11q39 0 63 33h36zM515 1387h227l102 -340h-102l-134 203l-294 -203h-105z" />
    <glyph glyph-name="Scedilla" unicode="&#x15e;" horiz-adv-x="1139" 
d="M1195 1387l-113 -460h-33q-11 110 -39 173q-86 196 -262 196q-77 0 -136 -58.5t-59 -135.5q0 -98 79 -201q38 -51 153 -160q102 -97 145 -168q59 -96 59 -210q0 -240 -226 -343q-111 -51 -251 -51q-70 0 -201 25.5t-189 25.5q-60 0 -128 -51h-39l121 517h38
q27 -279 175 -380q78 -54 178 -54q94 0 163 62.5t69 156.5q0 96 -68 191q-37 51 -140 154q-135 133 -185 236q-37 76 -37 164q0 169 133 274q124 97 297 97q87 0 229 -39q83 -23 117 -23q54 0 106 62h44zM447 0h76l-69 -52q161 -22 161 -152q0 -93 -90 -138
q-69 -34 -172 -34q-111 0 -193 30l12 31q75 -14 112 -14q55 0 93 24q46 28 46 79q0 33 -22 57.5t-54 24.5q-22 0 -55 -8l-13 30z" />
    <glyph glyph-name="scedilla" unicode="&#x15f;" horiz-adv-x="797" 
d="M758 927l-44 -309h-37q-7 98 -60 172q-61 86 -154 86q-42 0 -73 -24q-33 -27 -33 -68q0 -60 71 -136q124 -133 149 -167q77 -106 77 -204q0 -177 -159 -262q-80 -43 -166 -43q-60 0 -143 23q-58 16 -84 16q-42 0 -70 -39h-37l49 333h32q29 -100 50 -143q37 -76 97 -111
q51 -31 98 -31q52 0 89.5 33t37.5 84q0 84 -132 228q-119 129 -154 196q-26 49 -26 114q0 122 91 190q82 62 208 62q62 0 152 -22q45 -11 72 -11q39 0 63 33h36zM309 0h76l-69 -52q161 -22 161 -152q0 -93 -90 -138q-69 -34 -172 -34q-111 0 -193 30l12 31q75 -14 112 -14
q55 0 93 24q46 28 46 79q0 33 -22 57.5t-54 24.5q-22 0 -55 -8l-13 30z" />
    <glyph glyph-name="Scaron" unicode="&#x160;" horiz-adv-x="1139" 
d="M1195 1387l-113 -460h-33q-11 110 -39 173q-86 196 -262 196q-77 0 -136 -58.5t-59 -135.5q0 -98 79 -201q38 -51 153 -160q102 -97 145 -168q59 -96 59 -210q0 -240 -226 -343q-111 -51 -251 -51q-70 0 -201 25.5t-189 25.5q-60 0 -128 -51h-39l121 517h38
q27 -279 175 -380q78 -54 178 -54q94 0 163 62.5t69 156.5q0 96 -68 191q-37 51 -140 154q-135 133 -185 236q-37 76 -37 164q0 169 133 274q124 97 297 97q87 0 229 -39q83 -23 117 -23q54 0 106 62h44zM1100 1796l-264 -343h-263l-107 343h120l141 -206l245 206h128z" />
    <glyph glyph-name="scaron" unicode="&#x161;" horiz-adv-x="797" 
d="M758 927l-44 -309h-37q-7 98 -60 172q-61 86 -154 86q-42 0 -73 -24q-33 -27 -33 -68q0 -60 71 -136q124 -133 149 -167q77 -106 77 -204q0 -177 -159 -262q-80 -43 -166 -43q-60 0 -143 23q-58 16 -84 16q-42 0 -70 -39h-37l49 333h32q29 -100 50 -143q37 -76 97 -111
q51 -31 98 -31q52 0 89.5 33t37.5 84q0 84 -132 228q-119 129 -154 196q-26 49 -26 114q0 122 91 190q82 62 208 62q62 0 152 -22q45 -11 72 -11q39 0 63 33h36zM826 1387l-264 -343h-263l-107 343h120l141 -206l245 206h128z" />
    <glyph glyph-name="Tcedilla" unicode="&#x162;" horiz-adv-x="1251" 
d="M328 1356h1091l-103 -365h-36q2 29 2 51q0 212 -267 227l-302 -1021q-25 -85 -25 -126q0 -82 157 -85l-9 -37h-673l12 37q113 0 162 51q38 39 74 160l302 1021q-161 -5 -267 -72q-102 -64 -186 -206h-39zM290 -525l-18 28q120 60 146 89q20 22 20 46q0 27 -42 60
q-59 47 -59 92q0 48 41 79q37 28 86 28q51 0 88.5 -35.5t37.5 -86.5q0 -193 -300 -300z" />
    <glyph glyph-name="tcedilla" unicode="&#x163;" horiz-adv-x="569" 
d="M589 1171l-79 -272h131l-35 -115h-130l-167 -580q-15 -52 -15 -82q0 -32 28 -32q18 0 36 14q45 35 106 122l35 -22q-133 -232 -315 -232q-61 0 -100 30q-43 33 -43 92q0 56 27 149l157 541h-136l21 74q138 51 236 125q80 62 191 188h52zM8 -525l-17 28q118 59 145 89
q21 23 21 46q0 27 -42 60q-59 47 -59 92q0 48 41 79q37 28 86 28q51 0 88.5 -35.5t37.5 -86.5q0 -193 -301 -300z" />
    <glyph glyph-name="Tcaron" unicode="&#x164;" horiz-adv-x="1251" 
d="M328 1356h1091l-103 -365h-36q2 29 2 51q0 212 -267 227l-302 -1021q-25 -85 -25 -126q0 -82 157 -85l-9 -37h-673l12 37q113 0 162 51q38 39 74 160l302 1021q-161 -5 -267 -72q-102 -64 -186 -206h-39zM1282 1796l-264 -343h-263l-107 343h120l141 -206l245 206h128z
" />
    <glyph glyph-name="tcaron" unicode="&#x165;" horiz-adv-x="1088" 
d="M719 753l-23 42q153 86 191 132q28 34 28 70q0 34 -49 86q-62 64 -71 81q-13 24 -13 64q0 67 49.5 113t116.5 46q73 0 120 -55.5t47 -129.5q0 -155 -127 -281q-104 -102 -269 -168zM589 1171l-80 -272h131l-35 -115h-129l-167 -580q-16 -56 -16 -82q0 -32 29 -32
q17 0 35 14q46 35 107 122l35 -22q-133 -232 -315 -232q-143 0 -143 122q0 60 26 149l158 541h-136l20 74q138 51 236 125q80 61 192 188h52z" />
    <glyph glyph-name="Tbar" unicode="&#x166;" horiz-adv-x="1251" 
d="M536 684h-291l20 66h291l153 519q-295 0 -453 -278h-39l107 365h1091l-103 -365h-36q2 29 2 51q0 213 -267 227l-153 -519h291l-19 -66h-292l-129 -436q-25 -84 -25 -123q0 -86 157 -88l-9 -37h-673l12 37q113 2 162 52q39 39 74 159z" />
    <glyph glyph-name="tbar" unicode="&#x167;" horiz-adv-x="569" 
d="M392 504l-86 -300q-15 -52 -15 -80q0 -34 29 -34q47 0 141 136l35 -22q-134 -232 -314 -232q-62 0 -101 31q-43 33 -43 93q0 53 27 147l75 261h-136l19 66h137l62 214h-136l21 74q222 74 427 313h52l-80 -272h132l-35 -115h-130l-62 -214h127l-19 -66h-127z" />
    <glyph glyph-name="Utilde" unicode="&#x168;" horiz-adv-x="1479" 
d="M1197 1356h459l-9 -37q-79 -6 -122 -38q-69 -51 -103 -168l-180 -622q-75 -258 -199 -380q-146 -142 -395 -142q-246 0 -363 117q-93 93 -93 223q0 72 40 210l172 594q23 79 23 119q0 53 -58 73q-28 9 -103 14l11 37h676l-12 -37q-107 0 -160 -52q-44 -43 -76 -154
l-173 -594q-43 -148 -43 -239q0 -97 79 -154q70 -50 171 -50q204 0 309 150q68 97 118 272l177 615q15 52 15 88q0 62 -44 95q-31 23 -128 23zM1319 1768h63q-2 -105 -43 -182q-53 -96 -149 -96q-70 0 -212 65q-59 27 -87 27q-63 0 -76 -91h-66q6 109 48 183q54 94 153 94
q78 0 212 -64q55 -26 81 -26q65 0 76 90z" />
    <glyph glyph-name="utilde" unicode="&#x169;" horiz-adv-x="1139" 
d="M540 927l-194 -680q-14 -49 -14 -65q0 -9 7 -14q8 -8 19 -8q47 0 123 82q109 117 231 342l91 306l253 9l-192 -660q-24 -82 -24 -96q0 -25 23 -25q13 0 27 12q38 32 95 117l34 -24q-139 -251 -306 -251q-133 0 -133 114q0 51 25 137l49 169q-132 -192 -189 -255
q-149 -165 -269 -165q-56 0 -93 40.5t-37 97.5q0 49 25 137l113 400q28 99 28 132q0 32 -34 45q-19 6 -69 6l10 38l341 59h60zM980 1356h63q-2 -105 -43 -182q-53 -96 -149 -96q-70 0 -212 65q-59 27 -87 27q-63 0 -76 -91h-66q6 109 48 183q54 94 153 94q78 0 212 -64
q55 -26 81 -26q65 0 76 90z" />
    <glyph glyph-name="Umacron" unicode="&#x16a;" horiz-adv-x="1479" 
d="M1197 1356h459l-9 -37q-79 -6 -122 -38q-69 -51 -103 -168l-180 -622q-75 -258 -199 -380q-146 -142 -395 -142q-246 0 -363 117q-93 93 -93 223q0 72 40 210l172 594q23 79 23 119q0 53 -58 73q-28 9 -103 14l11 37h676l-12 -37q-107 0 -160 -52q-44 -43 -76 -154
l-173 -594q-43 -148 -43 -239q0 -97 79 -154q70 -50 171 -50q204 0 309 150q68 97 118 272l177 615q15 52 15 88q0 62 -44 95q-31 23 -128 23zM730 1671h694l-49 -163h-692z" />
    <glyph glyph-name="umacron" unicode="&#x16b;" horiz-adv-x="1139" 
d="M540 927l-194 -680q-14 -49 -14 -65q0 -9 7 -14q8 -8 19 -8q47 0 123 82q109 117 231 342l91 306l253 9l-192 -660q-24 -82 -24 -96q0 -25 23 -25q13 0 27 12q38 32 95 117l34 -24q-139 -251 -306 -251q-133 0 -133 114q0 51 25 137l49 169q-132 -192 -189 -255
q-149 -165 -269 -165q-56 0 -93 40.5t-37 97.5q0 49 25 137l113 400q28 99 28 132q0 32 -34 45q-19 6 -69 6l10 38l341 59h60zM401 1254h694l-49 -163h-692z" />
    <glyph glyph-name="Ubreve" unicode="&#x16c;" horiz-adv-x="1479" 
d="M1197 1356h459l-9 -37q-79 -6 -122 -38q-69 -51 -103 -168l-180 -622q-75 -258 -199 -380q-146 -142 -395 -142q-246 0 -363 117q-93 93 -93 223q0 72 40 210l172 594q23 79 23 119q0 53 -58 73q-28 9 -103 14l11 37h676l-12 -37q-107 0 -160 -52q-44 -43 -76 -154
l-173 -594q-43 -148 -43 -239q0 -97 79 -154q70 -50 171 -50q204 0 309 150q68 97 118 272l177 615q15 52 15 88q0 62 -44 95q-31 23 -128 23zM869 1838h32q29 -165 205 -165q166 0 257 165h39q-96 -348 -332 -348q-101 0 -162 66t-61 168q0 48 22 114z" />
    <glyph glyph-name="ubreve" unicode="&#x16d;" horiz-adv-x="1139" 
d="M540 927l-194 -680q-14 -49 -14 -65q0 -9 7 -14q8 -8 19 -8q47 0 123 82q109 117 231 342l91 306l253 9l-192 -660q-24 -82 -24 -96q0 -25 23 -25q13 0 27 12q38 32 95 117l34 -24q-139 -251 -306 -251q-133 0 -133 114q0 51 25 137l49 169q-132 -192 -189 -255
q-149 -165 -269 -165q-56 0 -93 40.5t-37 97.5q0 49 25 137l113 400q28 99 28 132q0 32 -34 45q-19 6 -69 6l10 38l341 59h60zM507 1387h32q29 -165 205 -165q166 0 257 165h39q-96 -348 -332 -348q-101 0 -162 66t-61 168q0 48 22 114z" />
    <glyph glyph-name="Uring" unicode="&#x16e;" horiz-adv-x="1479" 
d="M1197 1356h459l-9 -37q-79 -6 -122 -38q-69 -51 -103 -168l-180 -622q-75 -258 -199 -380q-146 -142 -395 -142q-246 0 -363 117q-93 93 -93 223q0 72 40 210l172 594q23 79 23 119q0 53 -58 73q-28 9 -103 14l11 37h676l-12 -37q-107 0 -160 -52q-44 -43 -76 -154
l-173 -594q-43 -148 -43 -239q0 -97 79 -154q70 -50 171 -50q204 0 309 150q68 97 118 272l177 615q15 52 15 88q0 62 -44 95q-31 23 -128 23zM1032 1798q87 0 147.5 -60.5t60.5 -147.5t-60.5 -147.5t-147.5 -60.5t-147.5 60.5t-60.5 147.5t60.5 147.5t147.5 60.5z
M1032 1723q-55 0 -94 -39t-39 -94t39 -94t94 -39q56 0 95 38.5t39 94.5t-39 94.5t-95 38.5z" />
    <glyph glyph-name="uring" unicode="&#x16f;" horiz-adv-x="1139" 
d="M540 927l-194 -680q-14 -49 -14 -65q0 -9 7 -14q8 -8 19 -8q47 0 123 82q109 117 231 342l91 306l253 9l-192 -660q-24 -82 -24 -96q0 -25 23 -25q13 0 27 12q38 32 95 117l34 -24q-139 -251 -306 -251q-133 0 -133 114q0 51 25 137l49 169q-132 -192 -189 -255
q-149 -165 -269 -165q-56 0 -93 40.5t-37 97.5q0 49 25 137l113 400q28 99 28 132q0 32 -34 45q-19 6 -69 6l10 38l341 59h60zM692 1426q87 0 147.5 -60.5t60.5 -147.5t-60.5 -147.5t-147.5 -60.5t-147.5 60.5t-60.5 147.5t60.5 147.5t147.5 60.5zM692 1351q-55 0 -94 -39
t-39 -94t39 -94t94 -39q56 0 95 38.5t39 94.5t-39 94.5t-95 38.5z" />
    <glyph glyph-name="Udblacute" unicode="&#x170;" horiz-adv-x="1479" 
d="M1197 1356h459l-9 -37q-79 -6 -122 -38q-69 -51 -103 -168l-180 -622q-75 -258 -199 -380q-146 -142 -395 -142q-246 0 -363 117q-93 93 -93 223q0 72 40 210l172 594q23 79 23 119q0 53 -58 73q-28 9 -103 14l11 37h676l-12 -37q-107 0 -160 -52q-44 -43 -76 -154
l-173 -594q-43 -148 -43 -239q0 -97 79 -154q70 -50 171 -50q204 0 309 150q68 97 118 272l177 615q15 52 15 88q0 62 -44 95q-31 23 -128 23zM812 1813h308l-337 -350h-90zM1142 1813h308l-337 -350h-90z" />
    <glyph glyph-name="udblacute" unicode="&#x171;" horiz-adv-x="1139" 
d="M540 927l-194 -680q-14 -49 -14 -65q0 -9 7 -14q8 -8 19 -8q47 0 123 82q109 117 231 342l91 306l253 9l-192 -660q-24 -82 -24 -96q0 -25 23 -25q13 0 27 12q38 32 95 117l34 -24q-139 -251 -306 -251q-133 0 -133 114q0 51 25 137l49 169q-132 -192 -189 -255
q-149 -165 -269 -165q-56 0 -93 40.5t-37 97.5q0 49 25 137l113 400q28 99 28 132q0 32 -34 45q-19 6 -69 6l10 38l341 59h60zM594 1387h308l-337 -350h-90zM919 1387h308l-337 -350h-90z" />
    <glyph glyph-name="Uogonek" unicode="&#x172;" horiz-adv-x="1479" 
d="M722 -28q-21 -39 -21 -72q0 -83 68 -143q64 -57 149 -57q15 0 36 1l20 -55q-97 -54 -184 -54q-101 0 -177 61q-82 66 -82 164q0 88 71 153q-406 40 -406 339q0 72 40 210l172 594q23 79 23 119q0 82 -161 87l11 37h676l-12 -37q-106 0 -160 -52q-44 -43 -76 -154
l-173 -594q-43 -148 -43 -239q0 -97 79 -153q70 -51 170 -51q209 0 321 166q58 87 107 256l177 615q15 52 15 88q0 73 -53 99q-37 19 -119 19l11 37h459l-9 -37q-166 -3 -225 -206l-180 -622q-69 -238 -174 -355q-127 -140 -350 -164z" />
    <glyph glyph-name="uogonek" unicode="&#x173;" horiz-adv-x="1139" 
d="M720 -28q-21 -38 -21 -76q0 -82 69 -140q65 -56 148 -56q15 0 36 1l20 -55q-98 -54 -185 -54q-101 0 -177 61q-82 66 -82 164q0 105 104 178q-48 31 -48 100q0 42 25 128l49 169q-282 -420 -452 -420q-59 0 -97.5 40t-38.5 99q0 52 24 136l114 400q28 98 28 130
q0 53 -104 53l11 38l341 59h60l-194 -680q-14 -49 -14 -64q0 -23 29 -23q67 0 198 181q89 122 153 243l91 306l253 9l-203 -697q-12 -41 -12 -58q0 -25 23 -25q38 0 121 128l34 -24q-51 -97 -123 -165q-90 -86 -180 -86z" />
    <glyph glyph-name="Wcircumflex" unicode="&#x174;" horiz-adv-x="1821" 
d="M267 -31l92 1160q4 50 4 84q0 101 -111 106l15 37h548l-11 -37h-27q-115 0 -128 -168l-53 -688l409 559l10 129q4 52 4 64q0 98 -114 104l10 37h552l-11 -37q-81 0 -115 -45q-29 -37 -36 -123l-52 -688l394 542q100 137 125 189q17 35 17 58q0 55 -109 67l10 37h362
l-9 -37q-49 -9 -81 -34q-45 -35 -117 -134l-861 -1182h-59l69 915l-667 -915h-60zM1207 1831h227l102 -340h-102l-134 203l-294 -203h-105z" />
    <glyph glyph-name="wcircumflex" unicode="&#x175;" horiz-adv-x="1366" 
d="M881 927l74 -702q243 240 243 380q0 40 -50 105q-30 40 -34 49q-7 18 -7 46q0 52 35.5 87t87.5 35q53 0 84 -36q44 -52 44 -120q0 -287 -590 -799h-40l-62 614l-432 -614h-43q15 278 15 520q0 158 -17 228q-20 83 -91 83q-16 0 -41 -4v37l344 91q27 -75 38 -147
q17 -110 17 -247q0 -50 -4 -152l387 546h42zM893 1387h227l102 -340h-102l-134 203l-294 -203h-105z" />
    <glyph glyph-name="Ycircumflex" unicode="&#x176;" horiz-adv-x="1251" 
d="M542 599l-114 494q-30 128 -70 175q-31 36 -113 51l11 37h651l-12 -37q-182 0 -182 -130q0 -33 18 -115l88 -401l219 302q126 174 126 247q0 84 -114 97l11 37h407v-37q-77 -8 -146 -85q-12 -13 -105 -141l-385 -530l-90 -314q-29 -101 -29 -113q0 -99 144 -99h38
l-11 -37h-694l10 37q139 -2 191 76q17 26 47 128zM951 1831h227l102 -340h-102l-134 203l-294 -203h-105z" />
    <glyph glyph-name="ycircumflex" unicode="&#x177;" horiz-adv-x="909" 
d="M56 837l308 90q36 -45 52 -87q27 -73 38 -196q21 -242 29 -525q106 139 245 373q42 70 42 132q0 36 -44 70q-57 45 -65 59q-12 19 -12 50q0 51 37 87.5t88 36.5q56 0 96 -42t40 -99q0 -93 -79 -241q-31 -57 -134 -218q-178 -276 -347 -476q-181 -213 -315 -274
q-42 -19 -85 -19q-56 0 -97 39.5t-41 95.5q0 53 35 92t87 39q61 0 112 -64q34 -43 56 -43q48 0 129 87q6 125 6 189q0 63 -8 242l-17 381q-4 100 -45 151q-27 34 -73 34q-17 0 -38 -3v39zM555 1387h227l102 -340h-102l-134 203l-294 -203h-105z" />
    <glyph glyph-name="Ydieresis" unicode="&#x178;" horiz-adv-x="1251" 
d="M542 599l-114 494q-30 128 -70 175q-31 36 -113 51l11 37h651l-12 -37q-182 0 -182 -130q0 -33 18 -115l88 -401l219 302q126 174 126 247q0 84 -114 97l11 37h407v-37q-77 -8 -146 -85q-12 -13 -105 -141l-385 -530l-90 -314q-29 -101 -29 -113q0 -99 144 -99h38
l-11 -37h-694l10 37q139 -2 191 76q17 26 47 128zM756 1743q55 0 94 -39t39 -94t-39 -94t-94 -39t-94 39t-39 94t39 94t94 39zM1128 1742q55 0 93.5 -38.5t38.5 -93.5t-38.5 -93.5t-93.5 -38.5t-93.5 38.5t-38.5 93.5t38.5 93.5t93.5 38.5z" />
    <glyph glyph-name="Zacute" unicode="&#x179;" horiz-adv-x="1251" 
d="M1390 1319l-1037 -1245h81q229 0 374 65q156 69 288 243h42l-142 -382h-1052v37l1036 1241h-127q-215 0 -327 -46q-143 -58 -237 -220h-40l116 344h1025v-37zM821 1787h308l-337 -350h-90z" />
    <glyph glyph-name="zacute" unicode="&#x17a;" horiz-adv-x="797" 
d="M809 899l-568 -671q73 -22 109 -76q28 -44 44 -130q28 -153 88 -153q44 0 44 47q0 19 -12 62q-8 29 -8 56q0 54 34 93t87 39q49 0 77.5 -35.5t28.5 -85.5q0 -95 -86 -160q-79 -59 -177 -59q-127 0 -251 118q-50 47 -81 64q-17 9 -46 9q-24 0 -53 -17h-64l580 688h-208
q-83 0 -121 -19q-45 -22 -82 -89h-43l83 319h625zM565 1387h308l-337 -350h-90z" />
    <glyph glyph-name="Zdot" unicode="&#x17b;" horiz-adv-x="1251" 
d="M1390 1319l-1037 -1245h81q229 0 374 65q156 69 288 243h42l-142 -382h-1052v37l1036 1241h-127q-215 0 -327 -46q-143 -58 -237 -220h-40l116 344h1025v-37zM807 1727q62 0 104.5 -43t42.5 -105q0 -61 -43 -104t-104 -43t-104.5 43t-43.5 104q0 62 43 105t105 43z" />
    <glyph glyph-name="zdot" unicode="&#x17c;" horiz-adv-x="797" 
d="M809 899l-568 -671q73 -22 109 -76q28 -44 44 -130q28 -153 88 -153q44 0 44 47q0 19 -12 62q-8 29 -8 56q0 54 34 93t87 39q49 0 77.5 -35.5t28.5 -85.5q0 -95 -86 -160q-79 -59 -177 -59q-127 0 -251 118q-50 47 -81 64q-17 9 -46 9q-24 0 -53 -17h-64l580 688h-208
q-83 0 -121 -19q-45 -22 -82 -89h-43l83 319h625zM526 1357q62 0 104.5 -43t42.5 -105q0 -61 -43 -104t-104 -43t-104.5 43t-43.5 104q0 62 43 105t105 43z" />
    <glyph glyph-name="Zcaron" unicode="&#x17d;" horiz-adv-x="1251" 
d="M1390 1319l-1037 -1245h81q229 0 374 65q156 69 288 243h42l-142 -382h-1052v37l1036 1241h-127q-215 0 -327 -46q-143 -58 -237 -220h-40l116 344h1025v-37zM1225 1796l-264 -343h-263l-107 343h120l141 -206l245 206h128z" />
    <glyph glyph-name="zcaron" unicode="&#x17e;" horiz-adv-x="797" 
d="M809 899l-568 -671q73 -22 109 -76q28 -44 44 -130q28 -153 88 -153q44 0 44 47q0 19 -12 62q-8 29 -8 56q0 54 34 93t87 39q49 0 77.5 -35.5t28.5 -85.5q0 -95 -86 -160q-79 -59 -177 -59q-127 0 -251 118q-50 47 -81 64q-17 9 -46 9q-24 0 -53 -17h-64l580 688h-208
q-83 0 -121 -19q-45 -22 -82 -89h-43l83 319h625zM857 1387l-264 -343h-263l-107 343h120l141 -206l245 206h128z" />
    <glyph glyph-name="longs" unicode="&#x17f;" horiz-adv-x="682" 
d="M419 320q-65 -254 -113 -371q-87 -210 -219 -312q-103 -79 -242 -79q-173 0 -173 109q0 47 39 75q34 26 83 26q91 0 91 -83q0 -29 -25 -57q-5 -5 -5 -9q0 -12 23 -12q60 0 116 112q24 49 79 264l196 766q163 638 586 638q184 0 184 -133q0 -48 -26 -79q-28 -34 -75 -34
q-37 0 -64.5 24t-27.5 61q0 23 16.5 53t16.5 39q0 24 -31 24q-99 0 -187 -180q-56 -113 -94 -263z" />
    <glyph glyph-name="florin" unicode="&#x192;" 
d="M711 784l-101 -500q-54 -267 -81 -352q-68 -207 -185 -301q-92 -73 -189 -73q-59 0 -104 27q-52 33 -52 89q0 41 31 70t72 29q93 0 93 -78q0 -13 -4 -24q-9 -24 -9 -30q0 -22 29 -22q39 0 60 45q17 34 17 78q0 22 -6 102q-3 40 -3 82q0 125 40 322l109 536h-142l25 122
q112 0 167 59q38 41 85 165q95 258 301 258q67 0 111 -30q50 -34 50 -98q0 -48 -30 -81t-78 -33q-36 0 -62 24t-26 59q0 21 27 75q5 10 5 16q0 21 -27 21q-48 0 -74 -48q-21 -39 -21 -91q0 -29 4.5 -86t4.5 -86q0 -46 -14 -124h154l-24 -122h-153z" />
    <glyph glyph-name="Aringacute" unicode="&#x1fa;" horiz-adv-x="1366" 
d="M773 1281l-151 -526h46q164 0 245 38q99 47 162 180h37l-152 -528h-35q9 53 9 86q0 106 -117 140q-34 10 -141 10h-78l-130 -455q-17 -59 -17 -89q0 -57 143 -57q355 0 593 292h41l-141 -372h-1160l12 37q111 0 161 50q39 40 73 158l255 873q21 72 21 115q0 52 -53 71
q-26 10 -97 15l11 37h1081l-87 -339h-36q-4 100 -31 141q-52 79 -149 106q-63 17 -188 17h-127zM1239 2114h308l-337 -350h-90z" />
    <glyph glyph-name="aringacute" unicode="&#x1fb;" 
d="M324 375q-9 -65 -9 -107q0 -74 43 -119.5t117 -45.5q137 0 304 153l30 -27q-213 -257 -465 -257q-295 0 -295 265q0 175 102 340q98 157 254 251q164 99 330 99q170 0 170 -141q0 -74 -42 -142q-107 -174 -343 -239q-73 -20 -196 -30zM333 427q152 22 232 108
q114 121 114 266q0 60 -55 60q-48 0 -108 -67q-110 -122 -183 -367zM802 1841h308l-337 -350h-90z" />
    <glyph glyph-name="AEacute" unicode="&#x1fc;" horiz-adv-x="1933" 
d="M850 1356h627l-11 -37q-101 -8 -154 -103q-25 -43 -66 -187l-90 -314q198 22 279 147q36 55 97 219q50 134 105 198q78 93 194 93q70 0 117 -36q51 -40 51 -108q0 -55 -40 -95t-95 -40q-67 0 -109 59q-29 41 -56 41q-40 0 -80 -89l-44 -122q-42 -116 -81 -170
q-55 -75 -148 -112q96 -27 151 -161q17 -43 62 -225q35 -144 49 -174q44 -100 129 -103l-11 -37h-380l-126 513q-15 63 -24 80q-21 46 -61 46l-104 -362q-35 -122 -35 -154q0 -72 97 -86l-11 -37h-597l11 37q121 0 175 85q25 39 71 201l91 319q-56 0 -97 -40
q-10 -10 -68 -89l-377 -513h-419l10 34q101 7 286 264q117 163 140 190q85 104 175 156q87 51 195 56q-78 60 -78 186q0 37 12 120q14 96 14 125q0 55 -37 55q-22 0 -53 -36q-49 -58 -101 -58q-53 0 -90 36t-37 89q0 73 58 116q52 39 127 39q95 0 153 -61t58 -156
q0 -46 -16 -166q-10 -75 -10 -112q0 -126 84 -152q32 -10 92 -10l95 331q41 143 41 190q0 67 -151 83zM1309 1841h308l-337 -350h-90z" />
    <glyph glyph-name="aeacute" unicode="&#x1fd;" horiz-adv-x="1479" 
d="M853 476l121 423h250l-121 -423h170q56 177 183 305q145 146 315 146q76 0 126 -40q53 -43 53 -117q0 -69 -40 -121q-44 -56 -111 -56q-43 0 -72.5 26t-29.5 68q0 46 53 99.5t53 67.5q0 30 -40 30q-132 0 -217 -228q-66 -179 -66 -337q0 -79 30 -132q37 -66 111 -66
q83 0 189 111l30 -24q-213 -236 -379 -236q-112 0 -172 87q-54 76 -54 192q0 75 23 174h-169l-122 -425h-250l122 425h-169q-64 -184 -184 -307q-142 -146 -317 -146q-76 0 -125 40q-53 43 -53 117q0 69 40 121q44 56 111 56q43 0 72.5 -26t29.5 -69q0 -49 -69 -113
q-38 -35 -38 -53q0 -31 41 -31q130 0 216 229q68 181 68 338q0 79 -30 131q-38 65 -111 65q-83 0 -189 -110l-30 24q213 236 380 236q112 0 172 -88q53 -76 53 -193q0 -72 -23 -170h169zM919 1387h308l-337 -350h-90z" />
    <glyph glyph-name="Oslashacute" unicode="&#x1fe;" horiz-adv-x="1479" 
d="M-67 0l11 37q135 0 183 94q19 38 64 195l209 730q36 126 36 179q0 83 -149 84l11 37h633l-11 -37q-104 -9 -158 -101q-27 -45 -68 -187l-219 -765q-30 -105 -30 -136q0 -55 126 -55h162q111 0 146 46q16 22 56 161l233 816q29 102 29 138q0 65 -106 83l10 37h587l-11 -37
q-112 -14 -163 -102q-20 -36 -66 -195l-214 -747q-33 -115 -33 -146q0 -54 124 -54h154q68 0 90 6q41 12 65 58q20 38 56 164l229 792q29 100 29 132q0 80 -107 92l11 37h618l-11 -37q-121 0 -175 -72q-31 -42 -73 -187l-226 -785q-34 -118 -34 -153q0 -83 153 -85l-11 -37
h-2160zM1012 1841h308l-337 -350h-90z" />
    <glyph glyph-name="oslashacute" unicode="&#x1ff;" 
d="M1631 899l-194 -678q-17 -59 -17 -80q0 -29 23 -29q32 0 123 132l36 -23q-162 -249 -312 -249q-57 0 -92.5 33t-35.5 89q0 39 25 127l57 200q-304 -449 -485 -449q-63 0 -100 38.5t-37 101.5q0 47 26 139l48 170q-304 -449 -485 -449q-63 0 -100 38t-37 101q0 49 26 140
l114 400q27 95 27 120q0 52 -102 58l11 37l339 61h54l-190 -663q-13 -45 -13 -67q0 -39 37 -39q51 0 196 183q99 125 168 237l90 312l252 9l-178 -623q-17 -60 -17 -78q0 -40 36 -40q52 0 197 184q100 126 168 236l89 312zM692 1387h308l-337 -350h-90z" />
    <glyph glyph-name="circumflex" unicode="&#x2c6;" horiz-adv-x="682" 
d="M457 1387h227l102 -340h-102l-134 203l-294 -203h-105z" />
    <glyph glyph-name="caron" unicode="&#x2c7;" horiz-adv-x="682" 
d="M857 1387l-264 -343h-263l-107 343h120l141 -206l245 206h128z" />
    <glyph glyph-name="macron" unicode="&#x2c9;" horiz-adv-x="682" 
d="M215 1254h694l-49 -163h-692z" />
    <glyph glyph-name="breve" unicode="&#x2d8;" horiz-adv-x="682" 
d="M293 1387h32q29 -165 205 -165q166 0 257 165h39q-96 -348 -332 -348q-101 0 -162 66t-61 168q0 48 22 114z" />
    <glyph glyph-name="dotaccent" unicode="&#x2d9;" horiz-adv-x="682" 
d="M543 1357q62 0 104.5 -43t42.5 -105q0 -61 -43 -104t-104 -43t-104.5 43t-43.5 104q0 62 43 105t105 43z" />
    <glyph glyph-name="ring" unicode="&#x2da;" horiz-adv-x="682" 
d="M544 1426q87 0 147.5 -60.5t60.5 -147.5t-60.5 -147.5t-147.5 -60.5t-147.5 60.5t-60.5 147.5t60.5 147.5t147.5 60.5zM544 1351q-55 0 -94 -39t-39 -94t39 -94t94 -39q56 0 95 38.5t39 94.5t-39 94.5t-95 38.5z" />
    <glyph glyph-name="ogonek" unicode="&#x2db;" horiz-adv-x="682" 
d="M-40 19h82q-48 -74 -48 -120q0 -84 66 -141.5t151 -57.5q15 0 36 1l20 -55q-103 -54 -185 -54q-101 0 -177 61q-82 66 -82 164q0 111 137 202z" />
    <glyph glyph-name="tilde" unicode="&#x2dc;" horiz-adv-x="682" 
d="M752 1356h63q-2 -105 -43 -182q-53 -96 -149 -96q-70 0 -212 65q-59 27 -87 27q-63 0 -76 -91h-66q6 109 48 183q54 94 153 94q78 0 212 -64q55 -26 81 -26q65 0 76 90z" />
    <glyph glyph-name="hungarumlaut" unicode="&#x2dd;" horiz-adv-x="682" 
d="M601 1387l-234 -346h-80l62 346h252zM923 1387l-232 -346h-81l70 346h243z" />
    <glyph glyph-name="tonos" unicode="&#x384;" horiz-adv-x="682" 
d="M521 1387h308l-337 -350h-90z" />
    <glyph glyph-name="dieresistonos" unicode="&#x385;" horiz-adv-x="682" 
d="M491 1387h308l-337 -350h-90zM203 1303q55 0 94 -39t39 -94t-39 -94t-94 -39t-94 39t-39 94q0 56 38.5 94.5t94.5 38.5zM863 1303q56 0 94.5 -38.5t38.5 -94.5q0 -55 -39 -94t-94 -39t-93.5 39t-38.5 94t38.5 94t93.5 39z" />
    <glyph glyph-name="Alphatonos" unicode="&#x386;" horiz-adv-x="1366" 
d="M830 437h-420l-172 -212q-59 -72 -59 -117q0 -66 110 -71v-37h-405l10 37q73 13 145 78q33 31 112 125l961 1147h45l-45 -1110q-3 -74 -3 -104q0 -132 119 -136l-10 -37h-587l11 37q73 5 93 13q41 16 62 66q19 46 24 148zM830 519l26 442l-377 -442h351zM557 1387h308
l-337 -350h-90z" />
    <glyph glyph-name="anoteleia" unicode="&#x387;" horiz-adv-x="682" 
d="M428 925q69 0 116.5 -48t47.5 -117q0 -68 -48 -116t-116 -48q-69 0 -117 48t-48 116t48.5 116.5t116.5 48.5z" />
    <glyph glyph-name="Epsilontonos" unicode="&#x388;" horiz-adv-x="1591" 
d="M183 1387h308l-337 -350h-90zM1000 1281l-151 -526h46q165 0 246 38q101 46 161 180h37l-151 -528h-36q9 52 9 85q0 114 -108 141q-44 10 -150 10h-78l-130 -455q-17 -59 -17 -87q0 -59 145 -59q353 0 592 292h40l-141 -372h-1160l12 37q111 2 160 51q40 40 74 157
l252 865q24 82 24 122q0 82 -149 87l10 37h1081l-87 -339h-35q-1 159 -111 219q-82 45 -258 45h-127z" />
    <glyph glyph-name="Etatonos" unicode="&#x389;" horiz-adv-x="1833" 
d="M183 1387h308l-337 -350h-90zM847 732h495l107 370q25 86 25 129q0 82 -157 88l11 37h675l-12 -37q-107 -2 -160 -53q-45 -44 -77 -155l-252 -868q-24 -83 -24 -121q0 -83 153 -85l-9 -37h-662l15 37q108 2 155 52q37 38 70 154l117 404h-493l-117 -404q-24 -83 -24 -121
q0 -83 151 -85l-10 -37h-653l12 37q106 1 153 52q36 39 69 154l252 868q22 76 22 117q0 57 -52 77q-28 10 -101 14l11 37h663l-14 -37q-104 -2 -154 -55q-38 -41 -72 -153z" />
    <glyph glyph-name="Iotatonos" unicode="&#x38a;" horiz-adv-x="1036" 
d="M183 1387h308l-337 -350h-90zM526 1319l11 37h662l-13 -37q-102 -2 -151 -55q-39 -42 -70 -152l-248 -868q-27 -94 -27 -123q0 -82 164 -84l-10 -37h-673l11 37q111 2 159 51q40 40 74 156l248 861q25 87 25 126q0 82 -162 88z" />
    <glyph glyph-name="Omicrontonos" unicode="&#x38c;" horiz-adv-x="1497" 
d="M614 -31q-223 0 -353.5 128.5t-130.5 350.5q0 240 144 472q139 224 353 350q201 117 389 117q199 0 337.5 -132.5t138.5 -330.5q0 -352 -261 -648q-271 -307 -617 -307zM979 1307q-190 0 -340 -284q-76 -143 -132 -353q-57 -216 -57 -372q0 -103 43 -170q50 -79 147 -79
q150 0 274 175q73 103 156 307q102 251 102 515q0 261 -193 261zM183 1387h308l-337 -350h-90z" />
    <glyph glyph-name="Upsilontonos" unicode="&#x38e;" horiz-adv-x="1536" 
d="M183 1387h308l-337 -350h-90zM823 599l-113 494q-25 109 -52 149q-40 61 -132 77l11 37h652l-12 -37q-71 0 -121 -27q-62 -34 -62 -100q0 -37 18 -118l89 -401l218 302q126 175 126 244q0 85 -114 100l12 37h406v-37q-77 -10 -146 -85q-14 -15 -105 -141l-384 -530
l-91 -314q-27 -93 -27 -121q0 -91 143 -91h38l-12 -37h-693l10 37q129 0 186 68q18 22 51 136z" />
    <glyph glyph-name="Omegatonos" unicode="&#x38f;" horiz-adv-x="1608" 
d="M941 240h268q101 0 147 28q51 31 85 122h37l-118 -390h-560l108 354q167 58 267 300q82 201 82 411q0 98 -58 167q-61 72 -158 72q-210 0 -343 -253q-110 -210 -110 -441q0 -229 154 -256l-103 -354h-577l116 390h38q-8 -43 -8 -64q0 -86 171 -86h265l17 61
q-189 36 -280 119q-107 97 -107 277q0 296 239 498q227 192 527 192q234 0 379 -106q162 -119 162 -345q0 -246 -194 -425q-174 -162 -428 -210zM183 1387h308l-337 -350h-90z" />
    <glyph glyph-name="iotadieresistonos" unicode="&#x390;" horiz-adv-x="569" 
d="M526 927l-205 -711q-17 -59 -17 -80q0 -30 28 -30q16 0 34 15q46 39 108 134l34 -20q-151 -263 -321 -263q-61 0 -100 34q-42 35 -42 95q0 36 17 94l139 478q20 69 20 104q0 56 -71 56q-15 0 -36 -1l13 40l339 55h60zM410 1387h308l-337 -350h-90zM122 1303q55 0 94 -39
t39 -94t-39 -94t-94 -39t-94 39t-39 94q0 56 38.5 94.5t94.5 38.5zM782 1303q56 0 94.5 -38.5t38.5 -94.5q0 -55 -39 -94t-94 -39t-93.5 39t-38.5 94t38.5 94t93.5 39z" />
    <glyph glyph-name="Alpha" unicode="&#x391;" horiz-adv-x="1366" 
d="M830 437h-420l-84 -104l-96 -115q-25 -30 -41 -67q-10 -23 -10 -46q0 -62 110 -68v-37h-405l10 37q55 9 96 38q55 39 161 165l961 1147h45l-45 -1110q-3 -82 -3 -105q0 -126 119 -135l-10 -37h-587l11 37q88 8 100 14q70 34 79 213zM830 519l26 442l-377 -442h351z" />
    <glyph glyph-name="Beta" unicode="&#x392;" horiz-adv-x="1366" 
d="M317 1356h536q177 0 256 -19q95 -23 152 -88q60 -68 60 -163q0 -173 -175 -270q-88 -49 -269 -90q334 -94 334 -329q0 -113 -79 -213q-74 -95 -184 -137q-119 -47 -436 -47h-564l13 37q133 0 175 62q21 31 50 131l242 834q37 128 37 170q0 79 -158 85zM624 757
q252 4 341 178q47 93 47 176q0 80 -50 128.5t-130 45.5l-55 -2zM600 682l-173 -603q50 -2 75 -2q185 0 291 103t106 288q0 147 -120 194q-53 20 -179 20z" />
    <glyph glyph-name="Gamma" unicode="&#x393;" horiz-adv-x="1237" 
d="M587 0h-652l11 37q112 2 162 69q32 41 70 173l216 754q46 161 46 201q0 73 -152 85l10 37h1103l-105 -366h-37q2 38 2 60q0 162 -148 209q-69 22 -211 22h-135l-282 -991q-37 -130 -37 -170q0 -83 150 -83z" />
    <glyph glyph-name="Delta" horiz-adv-x="1253" 
d="M1226 0h-1200l628 1387zM990 82l-399 967l-440 -967h839z" />
    <glyph glyph-name="Epsilon" unicode="&#x395;" horiz-adv-x="1366" 
d="M774 1281l-151 -526h46q164 0 245 38q99 47 162 180h37l-152 -528h-35q9 53 9 86q0 106 -117 140q-34 10 -141 10h-78l-130 -455q-17 -59 -17 -89q0 -57 143 -57q355 0 593 292h41l-141 -372h-1160l12 37q111 0 161 50q39 40 73 158l255 873q21 72 21 115q0 52 -53 71
q-26 10 -97 15l11 37h1081l-87 -339h-36q-4 100 -31 141q-52 79 -149 106q-63 17 -188 17h-127z" />
    <glyph glyph-name="Zeta" unicode="&#x396;" horiz-adv-x="1251" 
d="M1390 1319l-1037 -1245h81q229 0 374 65q156 69 288 243h42l-142 -382h-1052v37l1036 1241h-127q-215 0 -327 -46q-143 -58 -237 -220h-40l116 344h1025v-37z" />
    <glyph glyph-name="Eta" unicode="&#x397;" horiz-adv-x="1593" 
d="M609 732h496l110 379q22 76 22 119q0 55 -55 75q-26 9 -102 14l11 37h674l-11 -37q-108 0 -161 -52q-43 -44 -76 -156l-252 -868q-25 -86 -25 -122q0 -81 154 -84l-10 -37h-661l15 37q107 0 155 51q37 39 70 155l117 404h-494l-116 -404q-25 -87 -25 -123q0 -80 151 -83
l-10 -37h-652l11 37q106 0 154 52q35 38 69 154l252 868q22 76 22 118q0 55 -52 75q-26 10 -101 15l11 37h663l-15 -37q-103 0 -153 -54q-38 -41 -72 -154z" />
    <glyph glyph-name="Theta" unicode="&#x398;" horiz-adv-x="1563" 
d="M1541 876q0 -221 -150 -446q-139 -210 -340 -331q-217 -130 -442 -130q-215 0 -356 137.5t-141 352.5q0 238 143 459q131 204 347 340q205 129 429 129q237 0 373.5 -137t136.5 -374zM1222 1017q0 119 -46 196q-57 93 -168 93q-254 0 -430 -369q-147 -309 -147 -597
q0 -124 51 -200q61 -90 178 -90q278 0 463 496q99 266 99 471zM1064 884h37l-135 -438h-38q2 20 2 32q0 91 -130 91q-14 0 -81 -2q-96 -14 -137 -121h-37l132 438h38q1 -69 47 -92q31 -16 110 -16q82 0 118 18q43 22 74 90z" />
    <glyph glyph-name="Theta" unicode="&#x472;" horiz-adv-x="1563" 
d="M1541 876q0 -221 -150 -446q-139 -210 -340 -331q-217 -130 -442 -130q-215 0 -356 137.5t-141 352.5q0 238 143 459q131 204 347 340q205 129 429 129q237 0 373.5 -137t136.5 -374zM1222 1017q0 119 -46 196q-57 93 -168 93q-254 0 -430 -369q-147 -309 -147 -597
q0 -124 51 -200q61 -90 178 -90q278 0 463 496q99 266 99 471zM1064 884h37l-135 -438h-38q2 20 2 32q0 91 -130 91q-14 0 -81 -2q-96 -14 -137 -121h-37l132 438h38q1 -69 47 -92q31 -16 110 -16q82 0 118 18q43 22 74 90z" />
    <glyph glyph-name="Iota" unicode="&#x399;" horiz-adv-x="797" 
d="M283 1319l11 37h662l-13 -37q-102 0 -152 -55q-37 -41 -69 -152l-248 -868q-27 -94 -27 -123q0 -81 164 -84l-10 -37h-673l11 37q110 0 160 50q39 41 73 157l250 868q23 80 23 121q0 53 -59 72q-27 9 -103 14z" />
    <glyph glyph-name="Kappa" unicode="&#x39a;" horiz-adv-x="1366" 
d="M1256 0h-587l11 37q114 10 114 104q0 44 -31 143l-144 462l-143 -495q-24 -83 -24 -120q0 -92 152 -94l-11 -37h-659l11 37q136 3 180 80q22 38 55 153l228 789q39 135 39 173q0 82 -151 87l11 37h638l-11 -37q-117 0 -171 -95q-17 -30 -52 -153l-92 -324l353 324
q102 94 115 114q16 25 16 53q0 68 -96 81l11 37h511l-11 -37q-59 -5 -96 -17q-49 -16 -112 -54q-44 -27 -128 -91l-93 -86l-215 -193l160 -500q61 -191 72 -212q59 -123 161 -129z" />
    <glyph glyph-name="Lambda" unicode="&#x39b;" horiz-adv-x="1366" 
d="M1139 1387l-48 -1243q0 -58 35 -83q26 -18 90 -24l-12 -37h-570l11 37q72 3 102 29.5t41 97.5q9 65 11 99l32 707l-530 -614q-150 -174 -150 -244q0 -57 106 -75l-14 -37h-374v37q80 13 216 172l1010 1178h44z" />
    <glyph glyph-name="Mu" unicode="&#x39c;" horiz-adv-x="1821" 
d="M775 1356l100 -932l645 932h475l-12 -37q-107 0 -160 -53q-44 -43 -76 -155l-250 -868q-24 -83 -24 -122q0 -81 148 -84l-9 -37h-677l12 37q114 0 168 48q48 43 81 158l255 879l-776 -1122h-41l-122 1144l-259 -901q-16 -56 -16 -92q0 -109 152 -114l-10 -37h-448l9 37
q82 3 124 34q76 56 110 172l293 1002q-44 49 -83 62q-32 12 -105 12l12 37h484z" />
    <glyph glyph-name="Nu" unicode="&#x39d;" horiz-adv-x="1479" 
d="M730 1356l424 -904l191 656q15 52 15 96q0 106 -140 115l11 37h430l-10 -37q-98 -6 -151 -61q-44 -46 -75 -150l-331 -1123h-38l-544 1156l-263 -901q-13 -45 -13 -84q0 -119 149 -119l-9 -37h-442l9 37q56 0 81 10q103 40 147 193l287 985q-51 57 -86 74q-38 19 -111 20
l11 37h458z" />
    <glyph glyph-name="Xi" unicode="&#x39e;" horiz-adv-x="1350" 
d="M390 1356h1071l-125 -405h-37q11 44 11 65q0 66 -60 86q-33 11 -117 11h-588q-111 0 -158 -28q-54 -33 -83 -134h-37zM1113 926l-140 -456h-37q3 19 3 33q0 60 -55 79q-32 11 -107 11h-163q-99 0 -143 -18q-61 -26 -89 -105h-38l139 456h38q-4 -20 -4 -33q0 -89 144 -89
h195q97 0 137 18q55 25 83 104h37zM1224 454l-140 -454h-1131l140 454h37q-25 -88 -25 -115q0 -59 46 -79q29 -12 98 -12h696q149 0 188 66q20 34 54 140h37z" />
    <glyph glyph-name="Omicron" unicode="&#x39f;" horiz-adv-x="1479" 
d="M576 -32q-308 0 -416 250q-51 116 -51 226q0 236 134 462q130 217 336 347q215 135 425 135q126 0 235.5 -63t170.5 -173t61 -223q0 -243 -155 -501q-154 -254 -368 -375q-151 -85 -372 -85zM971 1306q-139 0 -250 -124q-145 -162 -238 -530q-55 -214 -55 -357
q0 -103 42 -169q49 -78 147 -78q110 0 187 73q151 143 252 430q94 266 94 495q0 260 -179 260z" />
    <glyph glyph-name="Pi" unicode="&#x3a0;" horiz-adv-x="1593" 
d="M298 1356h1464l-10 -37q-133 -5 -193 -100q-28 -43 -78 -219l-208 -724q-32 -111 -32 -154q0 -81 150 -85l-10 -37h-661l11 37q124 0 177 76q26 38 71 194l279 974h-490l-286 -991q-37 -128 -37 -172q0 -76 145 -81l-11 -37h-651l11 37q117 2 168 71q28 40 70 182
l225 770q38 130 38 169q0 90 -153 90z" />
    <glyph glyph-name="Rho" unicode="&#x3a1;" horiz-adv-x="1251" 
d="M581 623l-110 -378q-23 -79 -23 -113q0 -62 56 -82q31 -12 110 -13l-13 -37h-662l11 37q132 2 177 67q17 25 51 141l251 861q26 89 26 123q0 86 -153 90l11 37h537q222 0 318 -56q150 -87 150 -264q0 -203 -181 -324q-159 -105 -371 -105q-76 0 -185 16zM601 700
q65 -8 108 -8q136 0 221 131q75 114 75 258q0 196 -192 196q-19 0 -47 -2z" />
    <glyph glyph-name="Sigma" unicode="&#x3a3;" horiz-adv-x="1268" 
d="M1299 1018h-36q-8 191 -145 239q-71 24 -224 24h-275l243 -479l-623 -557h551q256 0 322 177h38l-143 -422h-1113v36l725 648l-320 631v41h1085z" />
    <glyph glyph-name="Tau" unicode="&#x3a4;" horiz-adv-x="1251" 
d="M328 1356h1091l-103 -365h-36q2 29 2 51q0 212 -267 227l-302 -1021q-25 -85 -25 -126q0 -82 157 -85l-9 -37h-673l12 37q113 0 162 51q38 39 74 160l302 1021q-161 -5 -267 -72q-102 -64 -186 -206h-39z" />
    <glyph glyph-name="Upsilon" unicode="&#x3a5;" horiz-adv-x="1251" 
d="M542 599l-114 494q-30 128 -70 175q-31 36 -113 51l11 37h651l-12 -37q-182 0 -182 -130q0 -33 18 -115l88 -401l219 302q126 174 126 247q0 84 -114 97l11 37h407v-37q-77 -8 -146 -85q-12 -13 -105 -141l-385 -530l-90 -314q-29 -101 -29 -113q0 -99 144 -99h38
l-11 -37h-694l10 37q139 -2 191 76q17 26 47 128z" />
    <glyph glyph-name="Phi" unicode="&#x3a6;" horiz-adv-x="1616" 
d="M727 1356h668l-10 -37h-36q-88 0 -130 -34t-69 -121l-14 -45q443 -55 443 -381q0 -259 -239 -390q-184 -101 -472 -113q-25 -82 -25 -116q0 -82 134 -82h39l-12 -37h-703l12 37h28q105 0 151 48q35 37 67 150q-180 9 -296 94q-134 97 -134 268q0 225 193 369
q107 80 240 115q95 25 266 38l17 49q13 37 13 60q0 91 -142 91zM885 298q192 28 307 195q106 154 106 357q0 178 -179 214zM812 1064q-179 -23 -296 -205q-105 -164 -105 -355q0 -82 41 -141q45 -65 123 -74z" />
    <glyph glyph-name="Chi" unicode="&#x3a7;" horiz-adv-x="1366" 
d="M616 627l-211 492q-47 109 -69 137q-44 55 -130 63v37h599l-11 -37q-107 -8 -107 -78q0 -39 35 -122l120 -284l167 153q142 130 179 190q23 37 23 67q0 68 -103 74l12 37h443l-9 -37q-50 -9 -92 -36q-67 -43 -224 -187l-365 -335l205 -477q56 -129 74 -157
q50 -72 138 -90l-10 -37h-601l12 37q121 2 121 86q0 47 -56 177l-110 255l-250 -233q-90 -84 -97 -92q-61 -66 -61 -115q0 -74 120 -78l-12 -37h-470l10 37q53 10 91 33q88 53 229 182z" />
    <glyph glyph-name="Psi" unicode="&#x3a8;" horiz-adv-x="1638" 
d="M710 1356h638l-11 -37q-85 0 -131 -47q-36 -38 -64 -129l-172 -556q168 25 247 168q35 64 76 203q70 235 154 321q106 108 328 108q24 0 55 -2v-37q-78 -9 -124 -120q-2 -3 -53 -180q-41 -141 -64 -189q-40 -82 -122 -154q-163 -144 -509 -162l-96 -319q-20 -66 -20 -102
q0 -85 128 -85h34l-12 -37h-673l11 37q108 0 154 45q37 36 72 149l96 312q-171 16 -281 103q-125 100 -125 262q0 88 46 204q38 96 38 142q0 78 -74 94v37l59 2q142 5 224 -64q76 -65 76 -161q0 -71 -53 -237q-32 -100 -32 -157q0 -136 135 -181l171 551q19 61 19 91
q0 85 -156 90z" />
    <glyph glyph-name="Psi" unicode="&#x470;" horiz-adv-x="1638" 
d="M710 1356h638l-11 -37q-85 0 -131 -47q-36 -38 -64 -129l-172 -556q168 25 247 168q35 64 76 203q70 235 154 321q106 108 328 108q24 0 55 -2v-37q-78 -9 -124 -120q-2 -3 -53 -180q-41 -141 -64 -189q-40 -82 -122 -154q-163 -144 -509 -162l-96 -319q-20 -66 -20 -102
q0 -85 128 -85h34l-12 -37h-673l11 37q108 0 154 45q37 36 72 149l96 312q-171 16 -281 103q-125 100 -125 262q0 88 46 204q38 96 38 142q0 78 -74 94v37l59 2q142 5 224 -64q76 -65 76 -161q0 -71 -53 -237q-32 -100 -32 -157q0 -136 135 -181l171 551q19 61 19 91
q0 85 -156 90z" />
    <glyph glyph-name="Omega" unicode="&#x3a9;" horiz-adv-x="1528" 
d="M861 240h268q101 0 147 28q51 31 85 122h37l-118 -390h-560l108 354q167 58 267 300q82 201 82 411q0 98 -58 167q-61 72 -158 72q-210 0 -343 -253q-110 -210 -110 -441q0 -229 154 -256l-103 -354h-577l116 390h38q-8 -43 -8 -64q0 -86 171 -86h265l17 61
q-189 36 -280 119q-107 97 -107 277q0 296 239 498q227 192 527 192q234 0 379 -106q162 -119 162 -345q0 -246 -194 -425q-174 -162 -428 -210z" />
    <glyph glyph-name="Iotadieresis" unicode="&#x3aa;" horiz-adv-x="797" 
d="M283 1319l11 37h662l-13 -37q-102 0 -152 -55q-37 -41 -69 -152l-248 -868q-27 -94 -27 -123q0 -81 164 -84l-10 -37h-673l11 37q110 0 160 50q39 41 73 157l250 868q23 80 23 121q0 53 -59 72q-27 9 -103 14zM506 1742q55 0 94 -39t39 -94t-39 -94t-94 -39t-94 39
t-39 94t39 94t94 39zM878 1741q55 0 93.5 -38.5t38.5 -93.5t-38.5 -93.5t-93.5 -38.5t-93.5 38.5t-38.5 93.5t38.5 93.5t93.5 38.5z" />
    <glyph glyph-name="Upsilondieresis" unicode="&#x3ab;" horiz-adv-x="1251" 
d="M542 599l-114 494q-30 128 -70 175q-31 36 -113 51l11 37h651l-12 -37q-182 0 -182 -130q0 -33 18 -115l88 -401l219 302q126 174 126 247q0 84 -114 97l11 37h407v-37q-77 -8 -146 -85q-12 -13 -105 -141l-385 -530l-90 -314q-29 -101 -29 -113q0 -99 144 -99h38
l-11 -37h-694l10 37q139 -2 191 76q17 26 47 128zM759 1742q55 0 94 -39t39 -94t-39 -94t-94 -39t-94 39t-39 94t39 94t94 39zM1131 1741q55 0 93.5 -38.5t38.5 -93.5t-38.5 -93.5t-93.5 -38.5t-93.5 38.5t-38.5 93.5t38.5 93.5t93.5 38.5z" />
    <glyph glyph-name="alphatonos" unicode="&#x3ac;" horiz-adv-x="1133" 
d="M838 899h261l-196 -425q-55 -119 -92 -183q5 -160 103 -160q94 0 94 100h47q0 -259 -147 -259q-134 0 -144 248q-169 -248 -431 -248q-130 0 -209 95q-74 89 -74 222q0 151 95 314q93 160 224 244q125 80 238 80q132 0 157 -195zM722 638q0 196 -102 196
q-129 0 -247 -259q-104 -226 -104 -376q0 -154 85 -154q61 0 140 130q26 43 92 180zM735 1387h308l-337 -350h-90z" />
    <glyph glyph-name="epsilontonos" unicode="&#x3ad;" horiz-adv-x="840" 
d="M353 498q-72 17 -124 67q-58 56 -58 125q0 123 126 187q98 50 234 50q108 0 197 -36q119 -48 119 -141q0 -42 -29.5 -72t-71.5 -30q-85 0 -92 99q-8 124 -100 124q-80 0 -133 -89q-46 -76 -46 -162q0 -45 31 -76t76 -31q20 0 77 15q30 8 45 8q43 0 43 -38q0 -40 -43 -40
q-13 0 -25 2q-49 8 -67 8q-115 0 -182 -99q-59 -87 -59 -207q0 -135 113 -135q102 0 130 112q36 147 134 147q42 0 69.5 -27.5t27.5 -69.5q0 -111 -145 -171q-110 -46 -238 -46q-137 0 -229 51q-116 63 -116 189q0 234 336 286zM595 1387h308l-337 -350h-90z" />
    <glyph glyph-name="etatonos" unicode="&#x3ae;" horiz-adv-x="1124" 
d="M447 498q119 180 194 264q148 165 270 165q58 0 94 -40.5t36 -99.5q0 -56 -24 -135l-195 -638q-95 -311 -101 -452h-253q3 158 62 346l233 744q13 42 13 59q0 31 -32 31q-73 0 -205 -189q-94 -135 -152 -256l-82 -297h-255l190 654q25 86 25 114q0 33 -31 33
q-36 0 -118 -120l-31 21q140 225 292 225q64 0 103 -42t39 -106q0 -78 -72 -281zM742 1387h308l-337 -350h-90z" />
    <glyph glyph-name="iotatonos" unicode="&#x3af;" horiz-adv-x="569" 
d="M526 927l-205 -711q-17 -59 -17 -80q0 -30 28 -30q16 0 34 15q46 39 108 134l34 -20q-151 -263 -321 -263q-61 0 -100 34q-42 35 -42 95q0 36 17 94l139 478q20 69 20 104q0 56 -71 56q-15 0 -36 -1l13 40l339 55h60zM454 1387h308l-337 -350h-90z" />
    <glyph glyph-name="upsilondieresistonos" unicode="&#x3b0;" horiz-adv-x="1003" 
d="M611 892l8 35q147 -15 226 -110.5t79 -244.5q0 -225 -148 -407q-157 -193 -376 -193q-126 0 -202 59q-84 65 -84 187q0 97 45 246q39 118 79 237q15 46 15 66q0 34 -31 34q-35 0 -117 -120l-32 21q140 225 291 225q65 0 104 -42t39 -107t-50 -208q-125 -359 -125 -442
q0 -104 91 -104t186 134q72 101 109 214q55 165 55 282q0 175 -162 238zM614 1387h308l-337 -350h-90zM326 1303q55 0 94 -39t39 -94t-39 -94t-94 -39t-94 39t-39 94q0 56 38.5 94.5t94.5 38.5zM986 1303q56 0 94.5 -38.5t38.5 -94.5q0 -55 -39 -94t-94 -39t-93.5 39
t-38.5 94t38.5 94t93.5 39z" />
    <glyph glyph-name="alpha" unicode="&#x3b1;" horiz-adv-x="1133" 
d="M838 899h261l-196 -425q-55 -119 -92 -183q5 -160 103 -160q94 0 94 100h47q0 -259 -147 -259q-134 0 -144 248q-169 -248 -431 -248q-130 0 -209 95q-74 89 -74 222q0 151 95 314q93 160 224 244q125 80 238 80q132 0 157 -195zM722 638q0 196 -102 196
q-129 0 -247 -259q-104 -226 -104 -376q0 -154 85 -154q61 0 140 130q26 43 92 180z" />
    <glyph glyph-name="beta" unicode="&#x3b2;" horiz-adv-x="1049" 
d="M85 -438h-257q73 96 138 312l308 1027q52 173 91 244q65 117 182 182q109 60 238 60q122 0 206 -58q96 -66 96 -183q0 -128 -90 -233q-82 -96 -210 -142q148 -107 148 -276q0 -129 -61 -256q-65 -134 -168.5 -200.5t-214.5 -66.5q-121 0 -209 101l-56 -199
q-59 -210 -141 -312zM302 135q52 -66 118 -66q133 0 213 235q61 180 61 345q0 56 -10 97q-29 -5 -46 -5q-60 0 -60 54q0 53 55 53q33 0 74 -27q60 79 106 199q49 127 49 219q0 94 -90 94q-87 0 -144 -125q-13 -27 -64 -198z" />
    <glyph glyph-name="gamma" unicode="&#x3b3;" horiz-adv-x="852" 
d="M402 58q-9 -500 -217 -500q-55 0 -88.5 35.5t-33.5 90.5q0 154 275 412q18 116 18 255q0 152 -13 222q-30 153 -124 153q-55 0 -86 -51q-25 -42 -25 -101l-38 -2q0 238 76 312q44 43 107 43q183 0 183 -341q0 -169 -25 -416q103 112 138 164q70 104 70 199q0 40 -28 114
t-28 114q0 166 146 166q130 0 130 -155q0 -260 -437 -714z" />
    <glyph glyph-name="delta" unicode="&#x3b4;" horiz-adv-x="1049" 
d="M636 852q-169 202 -169 324q0 101 69 158q64 53 167 53q102 0 188 -36q114 -47 114 -135q0 -35 -24.5 -60t-59.5 -25q-46 0 -120 79q-100 108 -168 108q-34 0 -56.5 -23t-22.5 -57q0 -63 90 -140q174 -148 226 -215q97 -126 97 -286q0 -251 -185.5 -438t-435.5 -187
q-136 0 -221 77q-88 80 -88 214q0 238 190 392q140 114 409 197zM663 807q-116 -46 -190 -129q-63 -71 -118 -199q-67 -153 -67 -295q0 -154 103 -154q117 0 227 244q96 213 96 351q0 89 -51 182z" />
    <glyph glyph-name="epsilon" unicode="&#x3b5;" horiz-adv-x="840" 
d="M353 498q-72 17 -124 67q-58 56 -58 125q0 123 126 187q98 50 234 50q108 0 197 -36q119 -48 119 -141q0 -42 -29.5 -72t-71.5 -30q-85 0 -92 99q-8 124 -100 124q-80 0 -133 -89q-46 -76 -46 -162q0 -45 31 -76t76 -31q20 0 77 15q30 8 45 8q43 0 43 -38q0 -40 -43 -40
q-13 0 -25 2q-49 8 -67 8q-115 0 -182 -99q-59 -87 -59 -207q0 -135 113 -135q102 0 130 112q36 147 134 147q42 0 69.5 -27.5t27.5 -69.5q0 -111 -145 -171q-110 -46 -238 -46q-137 0 -229 51q-116 63 -116 189q0 234 336 286z" />
    <glyph glyph-name="zeta" unicode="&#x3b6;" horiz-adv-x="903" 
d="M707 1460l11 -46q-111 -35 -111 -129q0 -70 67 -99q233 185 348 185q82 0 82 -69q0 -92 -124 -152q-102 -49 -204 -49q-39 0 -89 7q-155 -120 -293 -319q-160 -230 -160 -392q0 -122 91 -152q42 -15 126 -15q103 -1 148 -11q76 -19 119 -77.5t43 -146.5q0 -134 -84 -232
q-89 -102 -221 -102q-69 0 -119 26q-63 33 -63 96q0 79 90 79q41 0 101 -25q70 -29 114 -29q95 0 95 81q0 61 -72 81q-35 9 -120 9q-59 0 -83 -1q-73 -3 -77 -3q-182 0 -257 111q-37 54 -37 128q0 212 199 504q174 255 375 409q-128 36 -128 130q0 146 233 203z" />
    <glyph glyph-name="eta" unicode="&#x3b7;" horiz-adv-x="1124" 
d="M447 498q119 180 194 264q148 165 270 165q58 0 94 -40.5t36 -99.5q0 -56 -24 -135l-195 -638q-95 -311 -101 -452h-253q3 158 62 346l233 744q13 42 13 59q0 31 -32 31q-73 0 -205 -189q-94 -135 -152 -256l-82 -297h-255l190 654q25 86 25 114q0 33 -31 33
q-36 0 -118 -120l-31 21q140 225 292 225q64 0 103 -42t39 -106q0 -78 -72 -281z" />
    <glyph glyph-name="theta" unicode="&#x3b8;" horiz-adv-x="1063" 
d="M790 1387q143 0 223 -104q73 -94 73 -241q0 -219 -108 -483.5t-261 -418.5q-168 -168 -340 -168q-143 0 -223 103q-73 94 -73 241q0 172 80 406q78 226 182 375q203 290 447 290zM773 729l66 246q35 130 35 209q0 146 -109 146q-117 0 -227 -254q-40 -93 -116 -347h351z
M405 673q-117 -383 -117 -509q0 -55 29 -92q32 -42 85 -42q118 0 233 273q47 111 123 370h-353z" />
    <glyph glyph-name="theta" unicode="&#x473;" horiz-adv-x="1063" 
d="M790 1387q143 0 223 -104q73 -94 73 -241q0 -219 -108 -483.5t-261 -418.5q-168 -168 -340 -168q-143 0 -223 103q-73 94 -73 241q0 172 80 406q78 226 182 375q203 290 447 290zM773 729l66 246q35 130 35 209q0 146 -109 146q-117 0 -227 -254q-40 -93 -116 -347h351z
M405 673q-117 -383 -117 -509q0 -55 29 -92q32 -42 85 -42q118 0 233 273q47 111 123 370h-353z" />
    <glyph glyph-name="iota" unicode="&#x3b9;" horiz-adv-x="569" 
d="M526 927l-205 -711q-17 -59 -17 -80q0 -30 28 -30q16 0 34 15q46 39 108 134l34 -20q-151 -263 -321 -263q-61 0 -100 34q-42 35 -42 95q0 36 17 94l139 478q20 69 20 104q0 56 -71 56q-15 0 -36 -1l13 40l339 55h60z" />
    <glyph glyph-name="kappa" unicode="&#x3ba;" horiz-adv-x="1085" 
d="M406 441l457 415q78 71 146 71q107 0 107 -116q0 -114 -106 -114q-46 0 -88 38q-26 23 -46 23q-36 0 -89 -49q-27 -25 -88 -77l62 -274q12 -56 24 -111q25 -89 56 -89t100 113l37 -23q-45 -89 -116 -166q-91 -98 -166 -98t-113 82q-16 34 -41 148l-50 227l-110 -98
l-100 -343h-255l195 664q22 75 22 105q0 61 -72 61q-15 0 -35 -2l13 41l340 58h60z" />
    <glyph glyph-name="lambda" unicode="&#x3bb;" horiz-adv-x="909" 
d="M202 0h-311l714 905l3 70q1 23 1 44q0 191 -133 191q-93 0 -136 -103h-38q15 106 62 182q61 98 155 98q80 0 121 -69q34 -56 34 -142q0 -34 -5 -102l-53 -721q-2 -27 -2 -53q0 -148 112 -148q68 0 93 75h37q0 -93 -37 -160q-46 -83 -132 -83q-133 0 -133 206q0 15 2 43
l20 280z" />
    <glyph glyph-name="mu" unicode="&#x3bc;" horiz-adv-x="1139" 
d="M289 899h257l-189 -660q-13 -45 -13 -63q0 -25 32 -25q82 0 193 142q75 97 134 215l113 391h251l-192 -663q-23 -79 -23 -97q0 -23 22 -23q38 0 122 129l34 -24q-138 -249 -307 -249q-132 0 -132 114q0 57 25 137l29 93q-225 -344 -403 -344q-69 0 -96 44
q-34 -156 -43 -288q-5 -69 -7 -81q-9 -44 -38 -66.5t-70 -22.5q-44 0 -79 27.5t-35 70.5q0 44 63 164q95 180 165 425z" />
    <glyph glyph-name="nu" unicode="&#x3bd;" horiz-adv-x="909" 
d="M286 -28h-36q3 82 3 124q0 132 -14 315q-18 220 -43 302q-29 93 -94 93q-17 0 -41 -4v36l333 89q100 -273 97 -699q258 246 258 372q0 42 -30 86q-42 63 -47 75q-9 20 -9 44q0 52 34 87t86 35q55 0 85 -35q42 -49 42 -116q0 -127 -108 -292q-60 -91 -133 -165
q-134 -136 -383 -347z" />
    <glyph glyph-name="xi" unicode="&#x3be;" horiz-adv-x="920" 
d="M607 1419v-38q-94 -9 -94 -95q0 -76 93 -95q220 186 365 186q72 0 72 -67q0 -89 -130 -138q-99 -38 -204 -38q-42 0 -85 7q-114 -111 -114 -191q0 -40 21 -74q164 72 282 72q138 0 138 -89q0 -61 -80 -91q-56 -21 -130 -21q-120 0 -222 62q-127 -50 -211 -150
q-93 -111 -93 -239q0 -110 100 -154q63 -29 196 -35q87 -4 125 -17q61 -19 96.5 -74t35.5 -147q0 -132 -78 -228q-84 -104 -213 -104q-71 0 -125 26q-69 33 -69 97q0 79 92 79q36 0 94 -22q84 -32 119 -32q94 0 94 84q0 86 -144 86h-115q-125 0 -183 17q-90 25 -143 106
q-51 78 -51 186q0 358 434 566q-23 40 -23 82q0 104 109 217q-160 30 -160 127q0 67 70 106q59 33 131 33z" />
    <glyph glyph-name="omicron" unicode="&#x3bf;" 
d="M673 927q178 0 254 -138q35 -65 35 -144q0 -168 -93 -330q-92 -158 -236 -249q-148 -94 -298 -94q-127 0 -206 76t-79 203q0 265 197 473q192 203 426 203zM632 874q-53 0 -88 -31q-92 -83 -173 -335q-73 -230 -73 -377q0 -42 26 -74t68 -32q39 0 69 24q59 48 129 205
q54 124 84 234q41 151 41 277q0 109 -83 109z" />
    <glyph glyph-name="pi" unicode="&#x3c0;" horiz-adv-x="1118" 
d="M912 683l-83 -260q-44 -138 -44 -196q0 -95 83 -95q69 0 104 88h46q-67 -248 -276 -248q-191 0 -191 159q0 74 74 276l101 276h-198l-103 -324q-61 -192 -86 -241q-74 -146 -184 -146q-51 0 -89 32t-38 83q0 56 86 140q174 170 265 456h-105q-140 0 -195 -100l-26 12
q68 222 185 278q54 26 132 26h800l-59 -216h-199z" />
    <glyph glyph-name="rho" unicode="&#x3c1;" horiz-adv-x="1055" 
d="M101 -438h-261q64 135 138 385l122 412q57 192 99 281q75 162 182 229q92 58 217 58q167 0 267 -81q108 -87 108 -250q0 -238 -153 -425q-163 -199 -396 -199q-107 0 -172 46l-50 -173q-45 -157 -101 -283zM276 96q48 -51 112 -51q168 0 276 344q63 200 63 320
q0 64 -29 108q-33 52 -94 52q-80 0 -132 -119q-11 -24 -58 -185z" />
    <glyph glyph-name="sigma1" unicode="&#x3c2;" horiz-adv-x="913" 
d="M652 927q97 0 181 -32q115 -43 115 -125q0 -87 -81 -87q-42 0 -131 56q-115 72 -219 72q-137 0 -246 -127q-105 -121 -105 -261q0 -56 31 -103q33 -50 86 -65t166 -18t167 -17q67 -19 105 -82q34 -57 34 -132q0 -132 -93 -237q-97 -108 -228 -108q-54 0 -94 22
q-49 27 -49 76q0 81 91 81q23 0 71 -13q73 -20 113 -20q95 0 95 82q0 85 -161 85q-149 0 -212 16q-108 28 -165 122q-53 86 -53 221q0 254 164.5 424t417.5 170z" />
    <glyph glyph-name="sigma" unicode="&#x3c3;" horiz-adv-x="1104" 
d="M1155 899l-62 -216h-342q166 -147 166 -283q0 -184 -157 -310q-147 -118 -335 -118q-166 0 -262.5 102t-96.5 269q0 154 104 300q102 143 248 202q135 54 367 54h370zM696 683q-131 0 -210.5 -50t-142.5 -167q-68 -126 -68 -262q0 -173 126 -173q127 0 227 220
q86 188 86 334q0 44 -18 98z" />
    <glyph glyph-name="tau" unicode="&#x3c4;" horiz-adv-x="909" 
d="M609 683l-95 -271q-41 -117 -41 -177q0 -95 80 -95q75 0 112 90h46q-87 -258 -264 -258q-212 0 -212 174q0 95 63 255l111 282h-100q-92 0 -134 -14q-61 -21 -97 -86l-26 12q67 218 181 276q55 28 130 28h597l-59 -216h-292z" />
    <glyph glyph-name="upsilon" unicode="&#x3c5;" horiz-adv-x="1003" 
d="M611 892l8 35q147 -15 226 -110.5t79 -244.5q0 -225 -148 -407q-157 -193 -376 -193q-126 0 -202 59q-84 65 -84 187q0 97 45 246q39 118 79 237q15 46 15 66q0 34 -31 34q-35 0 -117 -120l-32 21q140 225 291 225q65 0 104 -42t39 -107t-50 -208q-125 -359 -125 -442
q0 -104 91 -104t186 134q72 101 109 214q55 165 55 282q0 175 -162 238z" />
    <glyph glyph-name="phi" unicode="&#x3c6;" horiz-adv-x="1198" 
d="M599 927l-18 -46q-67 -25 -105 -75q-23 -29 -63 -117q-47 -101 -87 -248q-46 -163 -46 -256q0 -123 106 -162l168 575q44 151 98 223q78 106 206 106q124 0 196 -107q63 -94 63 -224q0 -258 -167 -440q-172 -186 -427 -188l-118 -406h-154l118 413q-312 63 -312 335
q0 240 152.5 415t389.5 202zM540 19q159 14 264 271q87 209 87 400q0 110 -61 110q-47 0 -79 -68q-9 -20 -34 -106z" />
    <glyph glyph-name="chi" unicode="&#x3c7;" horiz-adv-x="952" 
d="M748 899h274l-543 -774q13 -166 32 -237q44 -158 146 -158q79 0 110 87h37q-25 -240 -182 -240q-122 0 -166 194q-19 84 -26 288l-323 -455h-282l588 829q-17 164 -32 215q-41 134 -141 134q-76 0 -107 -83h-43q44 228 191 228q133 0 159 -149q11 -67 22 -277z" />
    <glyph glyph-name="psi" unicode="&#x3c8;" horiz-adv-x="1368" 
d="M709 899h161l-258 -864q148 17 210 140q31 63 94 254q163 498 436 498q45 0 86 -17l-5 -38q-84 -2 -147 -169q-42 -121 -85 -242q-55 -148 -113 -238q-76 -119 -178 -177q-124 -71 -317 -71l-120 -413h-158l124 425q-136 28 -223 112q-95 93 -95 225q0 87 56 278
q44 150 44 210q0 61 -66 61q-10 0 -24 -1l14 38q50 17 97 17q95 0 152 -62t57 -158q0 -84 -58 -274q-54 -176 -54 -240q0 -111 117 -149z" />
    <glyph glyph-name="psi" unicode="&#x471;" horiz-adv-x="1368" 
d="M709 899h161l-258 -864q148 17 210 140q31 63 94 254q163 498 436 498q45 0 86 -17l-5 -38q-84 -2 -147 -169q-42 -121 -85 -242q-55 -148 -113 -238q-76 -119 -178 -177q-124 -71 -317 -71l-120 -413h-158l124 425q-136 28 -223 112q-95 93 -95 225q0 87 56 278
q44 150 44 210q0 61 -66 61q-10 0 -24 -1l14 38q50 17 97 17q95 0 152 -62t57 -158q0 -84 -58 -274q-54 -176 -54 -240q0 -111 117 -149z" />
    <glyph glyph-name="omega" unicode="&#x3c9;" horiz-adv-x="1481" 
d="M1086 875l17 52q291 -64 291 -360q0 -152 -63 -293q-69 -154 -185.5 -228t-238.5 -74q-199 0 -258 199q-166 -199 -336 -199q-254 0 -254 317q0 254 160 441q169 197 419 197q10 0 34 -1l-17 -54q-158 -30 -265 -271q-91 -203 -91 -391q0 -149 110 -149q100 0 230 168
q-8 77 -8 143q0 136 45 268q60 180 171 180q88 0 88 -109q0 -190 -242 -490q28 -154 151 -154q149 0 247 230q79 186 79 359q0 150 -84 219z" />
    <glyph glyph-name="iotadieresis" unicode="&#x3ca;" horiz-adv-x="569" 
d="M526 927l-205 -711q-17 -59 -17 -80q0 -30 28 -30q16 0 34 15q46 39 108 134l34 -20q-151 -263 -321 -263q-61 0 -100 34q-42 35 -42 95q0 36 17 94l139 478q20 69 20 104q0 56 -71 56q-15 0 -36 -1l13 40l339 55h60zM249 1303q55 0 94 -39t39 -94t-39 -94t-94 -39
t-94 39t-39 94t39 94t94 39zM621 1302q55 0 93.5 -38.5t38.5 -93.5t-38.5 -93.5t-93.5 -38.5t-93.5 38.5t-38.5 93.5t38.5 93.5t93.5 38.5z" />
    <glyph glyph-name="upsilondieresis" unicode="&#x3cb;" horiz-adv-x="1003" 
d="M611 892l8 35q147 -15 226 -110.5t79 -244.5q0 -225 -148 -407q-157 -193 -376 -193q-126 0 -202 59q-84 65 -84 187q0 97 45 246q39 118 79 237q15 46 15 66q0 34 -31 34q-35 0 -117 -120l-32 21q140 225 291 225q65 0 104 -42t39 -107t-50 -208q-125 -359 -125 -442
q0 -104 91 -104t186 134q72 101 109 214q55 165 55 282q0 175 -162 238zM466 1303q55 0 94 -39t39 -94t-39 -94t-94 -39t-94 39t-39 94t39 94t94 39zM838 1302q55 0 93.5 -38.5t38.5 -93.5t-38.5 -93.5t-93.5 -38.5t-93.5 38.5t-38.5 93.5t38.5 93.5t93.5 38.5z" />
    <glyph glyph-name="omicrontonos" unicode="&#x3cc;" 
d="M673 927q178 0 254 -138q35 -65 35 -144q0 -168 -93 -330q-92 -158 -236 -249q-148 -94 -298 -94q-127 0 -206 76t-79 203q0 265 197 473q192 203 426 203zM632 874q-53 0 -88 -31q-92 -83 -173 -335q-73 -230 -73 -377q0 -42 26 -74t68 -32q39 0 69 24q59 48 129 205
q54 124 84 234q41 151 41 277q0 109 -83 109zM692 1387h308l-337 -350h-90z" />
    <glyph glyph-name="upsilontonos" unicode="&#x3cd;" horiz-adv-x="1003" 
d="M611 892l8 35q147 -15 226 -110.5t79 -244.5q0 -225 -148 -407q-157 -193 -376 -193q-126 0 -202 59q-84 65 -84 187q0 97 45 246q39 118 79 237q15 46 15 66q0 34 -31 34q-35 0 -117 -120l-32 21q140 225 291 225q65 0 104 -42t39 -107t-50 -208q-125 -359 -125 -442
q0 -104 91 -104t186 134q72 101 109 214q55 165 55 282q0 175 -162 238zM681 1387h308l-337 -350h-90z" />
    <glyph glyph-name="omegatonos" unicode="&#x3ce;" horiz-adv-x="1481" 
d="M1086 875l17 52q291 -64 291 -360q0 -152 -63 -293q-69 -154 -185.5 -228t-238.5 -74q-199 0 -258 199q-166 -199 -336 -199q-254 0 -254 317q0 254 160 441q169 197 419 197q10 0 34 -1l-17 -54q-158 -30 -265 -271q-91 -203 -91 -391q0 -149 110 -149q100 0 230 168
q-8 77 -8 143q0 136 45 268q60 180 171 180q88 0 88 -109q0 -190 -242 -490q28 -154 151 -154q149 0 247 230q79 186 79 359q0 150 -84 219zM920 1387h308l-337 -350h-90z" />
    <glyph glyph-name="afii10023" unicode="&#x401;" horiz-adv-x="1366" 
d="M774 1281l-151 -526h46q164 0 245 38q99 47 162 180h37l-152 -528h-35q9 53 9 86q0 106 -117 140q-34 10 -141 10h-78l-130 -455q-17 -59 -17 -89q0 -57 143 -57q355 0 593 292h41l-141 -372h-1160l12 37q111 0 161 50q39 40 73 158l255 873q21 72 21 115q0 52 -53 71
q-26 10 -97 15l11 37h1081l-87 -339h-36q-4 100 -31 141q-52 79 -149 106q-63 17 -188 17h-127zM768 1742q55 0 94 -39t39 -94t-39 -94t-94 -39t-94 39t-39 94t39 94t94 39zM1140 1741q55 0 93.5 -38.5t38.5 -93.5t-38.5 -93.5t-93.5 -38.5t-93.5 38.5t-38.5 93.5t38.5 93.5
t93.5 38.5z" />
    <glyph glyph-name="afii10051" unicode="&#x402;" horiz-adv-x="1675" 
d="M325 1356h1136l-95 -332h-38q-2 176 -139 230q-69 27 -212 27l-165 -578q245 209 451 209q148 0 245 -90q99 -93 99 -240q0 -224 -135 -403q-147 -195 -364 -195q-100 0 -202 53l13 40q56 -32 102 -32q128 0 214 199q70 161 70 310q0 85 -48 144q-51 62 -134 62
q-80 0 -188 -63q-92 -54 -160 -124l-89 -311q-29 -101 -29 -139q0 -86 126 -86l-11 -37h-626l11 37q111 0 160 62q32 40 69 169l290 1013q-255 -11 -409 -257h-37z" />
    <glyph glyph-name="afii10052" unicode="&#x403;" horiz-adv-x="1237" 
d="M587 0h-652l11 37q112 2 162 69q32 41 70 173l216 754q46 161 46 201q0 73 -152 85l10 37h1103l-105 -366h-37q2 38 2 60q0 162 -148 209q-69 22 -211 22h-135l-282 -991q-37 -130 -37 -170q0 -83 150 -83zM949 1806h308l-337 -350h-90z" />
    <glyph glyph-name="afii10053" unicode="&#x404;" horiz-adv-x="1346" 
d="M1510 1387l-123 -428h-38q8 54 8 93q0 107 -63.5 173.5t-170.5 66.5q-196 0 -374 -192q-136 -147 -233 -368h523l-25 -85h-531q-76 -182 -76 -339q0 -105 54 -165q57 -63 160 -63q212 0 553 202l21 -32q-181 -134 -315 -196q-182 -85 -358 -85q-187 0 -306 102
q-126 108 -126 291q0 235 148 478q144 236 368 388q237 159 473 159q99 0 220 -41q68 -23 88 -23q51 0 85 64h38z" />
    <glyph glyph-name="afii10054" unicode="&#x405;" horiz-adv-x="1139" 
d="M1195 1387l-113 -460h-33q-11 110 -39 173q-86 196 -262 196q-77 0 -136 -58.5t-59 -135.5q0 -98 79 -201q38 -51 153 -160q102 -97 145 -168q59 -96 59 -210q0 -240 -226 -343q-111 -51 -251 -51q-70 0 -201 25.5t-189 25.5q-60 0 -128 -51h-39l121 517h38
q27 -279 175 -380q78 -54 178 -54q94 0 163 62.5t69 156.5q0 96 -68 191q-37 51 -140 154q-135 133 -185 236q-37 76 -37 164q0 169 133 274q124 97 297 97q87 0 229 -39q83 -23 117 -23q54 0 106 62h44z" />
    <glyph glyph-name="afii10055" unicode="&#x406;" horiz-adv-x="797" 
d="M283 1319l11 37h662l-13 -37q-102 0 -152 -55q-37 -41 -69 -152l-248 -868q-27 -94 -27 -123q0 -81 164 -84l-10 -37h-673l11 37q110 0 160 50q39 41 73 157l250 868q23 80 23 121q0 53 -59 72q-27 9 -103 14z" />
    <glyph glyph-name="afii10056" unicode="&#x407;" horiz-adv-x="797" 
d="M283 1319l11 37h662l-13 -37q-102 0 -152 -55q-37 -41 -69 -152l-248 -868q-27 -94 -27 -123q0 -81 164 -84l-10 -37h-673l11 37q110 0 160 50q39 41 73 157l250 868q23 80 23 121q0 53 -59 72q-27 9 -103 14zM506 1742q55 0 94 -39t39 -94t-39 -94t-94 -39t-94 39
t-39 94t39 94t94 39zM878 1741q55 0 93.5 -38.5t38.5 -93.5t-38.5 -93.5t-93.5 -38.5t-93.5 38.5t-38.5 93.5t38.5 93.5t93.5 38.5z" />
    <glyph glyph-name="afii10057" unicode="&#x408;" 
d="M547 1319l11 37h666l-11 -37q-101 0 -153 -52q-44 -43 -74 -149l-145 -508q-65 -229 -104 -315q-77 -169 -203 -253q-110 -73 -279 -73q-113 0 -185 44q-86 53 -86 159q0 66 41 116q43 54 108 54q51 0 87 -32t36 -82q0 -43 -43 -95q-26 -31 -26 -51q0 -16 14 -27
q24 -18 55 -18q89 0 169 204q16 41 84 271l178 606q23 78 23 115q0 53 -60 72q-27 9 -103 14z" />
    <glyph glyph-name="afii10058" unicode="&#x409;" horiz-adv-x="1860" 
d="M1024 1281h-326l-138 -471q-89 -304 -121 -393q-95 -259 -195 -349q-93 -84 -200 -84q-65 0 -113 38q-51 41 -51 104q0 56 39 94t95 38q63 0 108 -66q30 -45 54 -45q80 0 180 268q12 31 103 324q132 424 132 490q0 90 -144 90h-37l11 37h1093l-10 -37q-78 -2 -113 -20
q-42 -21 -71.5 -83.5t-76.5 -224.5l-75 -259q148 -2 210 -10q117 -14 200 -60q162 -91 162 -263q0 -124 -87 -229q-84 -100 -206 -136q-117 -34 -293 -34h-661l11 37q113 9 168 84q33 47 72 184zM983 85q44 -10 83 -10q158 0 259 110q98 107 98 267q0 58 -30 108
q-33 53 -85 70t-165 17z" />
    <glyph glyph-name="afii10059" unicode="&#x40a;" horiz-adv-x="1999" 
d="M982 647h-399l-103 -362q-36 -127 -36 -159q0 -82 112 -89l-10 -37h-612l11 37q118 0 170 77q26 39 69 190l219 764q36 126 36 158q0 54 -55 75q-29 11 -101 18l11 37h626l-11 -37q-100 -10 -150 -98q-21 -37 -63 -183l-88 -306h399l89 310q43 150 43 191q0 49 -41 69
q-23 11 -85 17l10 37h631l-10 -37q-78 -2 -113 -20q-42 -21 -71.5 -83.5t-76.5 -224.5l-75 -259q148 -2 210 -10q117 -14 200 -60q162 -91 162 -263q0 -124 -87 -229q-84 -100 -206 -136q-117 -34 -293 -34h-633l11 37q101 5 150 89q22 37 62 178zM1123 85q40 -10 83 -10
q158 0 259 110q98 107 98 267q0 58 -30 108q-33 53 -85 70t-165 17z" />
    <glyph glyph-name="afii10060" unicode="&#x40b;" horiz-adv-x="1661" 
d="M813 705q236 207 447 207q114 0 189 -55q84 -62 84 -172q0 -52 -30 -157l-73 -256q-34 -119 -34 -148q0 -79 120 -87l-11 -37h-596l11 37q100 4 149 79q27 41 63 168l62 219q32 113 32 153q0 100 -128 100q-120 0 -322 -180l-92 -320q-27 -94 -27 -129q0 -87 126 -90
l-11 -37h-626l11 37q123 0 175 86q22 35 70 203l274 955q-257 -12 -409 -257h-37l95 332h1081l-95 -332h-38q-4 253 -295 257z" />
    <glyph glyph-name="afii10061" unicode="&#x40c;" horiz-adv-x="1389" 
d="M602 713q160 13 250 96q71 66 147 233q55 122 81 163q54 89 123 131q60 36 134 36q75 0 122 -37q51 -41 51 -114q0 -54 -36.5 -89t-90.5 -35q-43 0 -109 56q-46 39 -73 39q-40 0 -75 -57q-7 -13 -42 -92q-58 -130 -99 -193q-66 -98 -156 -146q92 -35 148 -166
q10 -24 70 -221q48 -160 62 -185q47 -84 152 -95l-11 -37h-408l-157 505q-21 67 -32 86q-27 43 -74 43l-103 -360q-36 -126 -36 -161q0 -68 120 -76l-10 -37h-622l11 37q76 8 99 16q44 15 74.5 60t64.5 165l226 791q35 122 35 164q0 83 -151 86l11 37h626l-11 -37
q-106 -20 -158 -112q-23 -41 -67 -194zM1024 1815h308l-337 -350h-90z" />
    <glyph glyph-name="afii10062" unicode="&#x40e;" horiz-adv-x="1425" 
d="M655 1680q0 84 81 84q68 0 105 -98q25 -65 53 -90q33 -29 97 -29q69 0 108 29q34 26 65 93q44 95 120 95q31 0 54 -20.5t23 -51.5q0 -103 -147 -161q-112 -45 -231 -45q-113 0 -206 40q-122 54 -122 154zM1190 1356h470l-10 -37q-105 -4 -187 -79q-57 -52 -126 -167
l-519 -860q-79 -130 -138 -178q-82 -66 -211 -66q-100 0 -176 47q-90 54 -90 148q0 58 37.5 94t95.5 36q120 0 140 -163q9 -79 67 -79q49 0 99 53q18 18 71 93l-267 889q-37 123 -61 159q-46 70 -142 73l11 37h643l-11 -37q-163 0 -163 -105q0 -35 25 -118l169 -563l349 577
q57 94 57 139q0 70 -143 70z" />
    <glyph glyph-name="afii10145" unicode="&#x40f;" horiz-adv-x="1593" 
d="M1088 1356h669l-10 -37q-151 -8 -199 -112q-25 -54 -64 -191l-207 -723q-38 -133 -38 -171q0 -84 152 -84l-10 -38h-385q-118 0 -176 -22q-72 -26 -137.5 -109t-133.5 -261h-37q21 87 21 158q0 174 -113 216q-49 18 -155 18h-332l11 38q113 1 162 63q31 39 69 170
l230 798q38 132 38 169q0 76 -156 81l11 37h662l-10 -37q-80 -5 -115 -22q-47 -23 -76 -84.5t-64 -184.5l-212 -742q-34 -119 -34 -145q0 -46 46 -59q23 -7 84 -7h157q126 0 168 45q30 32 70 170l227 790q33 115 33 150q0 84 -156 89z" />
    <glyph glyph-name="afii10017" unicode="&#x410;" horiz-adv-x="1366" 
d="M830 437h-420l-84 -104l-96 -115q-25 -30 -41 -67q-10 -23 -10 -46q0 -62 110 -68v-37h-405l10 37q55 9 96 38q55 39 161 165l961 1147h45l-45 -1110q-3 -82 -3 -105q0 -126 119 -135l-10 -37h-587l11 37q88 8 100 14q70 34 79 213zM830 519l26 442l-377 -442h351z" />
    <glyph glyph-name="afii10018" unicode="&#x411;" horiz-adv-x="1301" 
d="M287 1319l10 37h1048l-105 -366h-38q3 43 3 62q0 139 -106 192q-75 37 -233 37h-102l-155 -549q148 -2 210 -10q117 -14 200 -60q162 -91 162 -263q0 -124 -87 -229q-83 -100 -206 -136q-117 -34 -292 -34h-633l11 37q101 6 150 90q22 36 62 178l219 772q34 120 34 152
q0 54 -53 74q-26 10 -99 16zM424 85q44 -10 83 -10q159 0 260 110q98 107 98 267q0 58 -32 109.5t-84 68.5t-164 17z" />
    <glyph glyph-name="afii10019" unicode="&#x412;" horiz-adv-x="1366" 
d="M317 1356h536q177 0 256 -19q95 -23 152 -88q60 -68 60 -163q0 -173 -175 -270q-88 -49 -269 -90q334 -94 334 -329q0 -113 -79 -213q-74 -95 -184 -137q-119 -47 -436 -47h-564l13 37q133 0 175 62q21 31 50 131l242 834q37 128 37 170q0 79 -158 85zM624 757
q252 4 341 178q47 93 47 176q0 80 -50 128.5t-130 45.5l-55 -2zM600 682l-173 -603q50 -2 75 -2q185 0 291 103t106 288q0 147 -120 194q-53 20 -179 20z" />
    <glyph glyph-name="afii10020" unicode="&#x413;" horiz-adv-x="1237" 
d="M587 0h-652l11 37q112 2 162 69q32 41 70 173l216 754q46 161 46 201q0 73 -152 85l10 37h1103l-105 -366h-37q2 38 2 60q0 162 -148 209q-69 22 -211 22h-135l-282 -991q-37 -130 -37 -170q0 -83 150 -83z" />
    <glyph glyph-name="afii10021" unicode="&#x414;" horiz-adv-x="1399" 
d="M424 1356h1142l-10 -37q-133 0 -191 -90q-25 -40 -76 -217l-210 -735q-29 -101 -29 -150q0 -59 47 -77q23 -9 100 -12l-123 -430h-38q14 63 14 125q0 267 -264 267h-390q-143 0 -227 -25q-104 -32 -191 -118.5t-176 -248.5h-37l122 430q91 0 168 62q48 38 123 136
q212 276 349 725q57 186 57 257q0 70 -54 90q-30 11 -117 11zM703 1281l-78 -271q-86 -300 -249 -594q-98 -177 -218 -341h393q127 0 164 44q20 23 62 171l284 991h-358z" />
    <glyph glyph-name="afii10022" unicode="&#x415;" horiz-adv-x="1366" 
d="M774 1281l-151 -526h46q164 0 245 38q99 47 162 180h37l-152 -528h-35q9 53 9 86q0 106 -117 140q-34 10 -141 10h-78l-130 -455q-17 -59 -17 -89q0 -57 143 -57q355 0 593 292h41l-141 -372h-1160l12 37q111 0 161 50q39 40 73 158l255 873q21 72 21 115q0 52 -53 71
q-26 10 -97 15l11 37h1081l-87 -339h-36q-4 100 -31 141q-52 79 -149 106q-63 17 -188 17h-127z" />
    <glyph glyph-name="afii10024" unicode="&#x416;" horiz-adv-x="1880" 
d="M850 1356h627l-11 -37q-101 -8 -154 -103q-25 -43 -66 -187l-90 -314q198 22 279 147q36 55 97 219q50 134 105 198q78 93 194 93q70 0 117 -36q51 -40 51 -108q0 -55 -40 -95t-95 -40q-67 0 -109 59q-29 41 -56 41q-40 0 -80 -89l-44 -122q-42 -116 -81 -170
q-55 -75 -148 -112q96 -27 151 -161q17 -43 62 -225q35 -144 49 -174q44 -100 129 -103l-11 -37h-380l-126 513q-15 63 -24 80q-21 46 -61 46l-104 -362q-35 -122 -35 -154q0 -72 97 -86l-11 -37h-597l11 37q121 0 175 85q25 39 71 201l91 319q-56 0 -97 -40
q-10 -10 -68 -89l-377 -513h-419l10 34q101 7 286 264q117 163 140 190q85 104 175 156q87 51 195 56q-78 60 -78 186q0 37 12 120q14 96 14 125q0 55 -37 55q-22 0 -53 -36q-49 -58 -101 -58q-53 0 -90 36t-37 89q0 73 58 116q52 39 127 39q95 0 153 -61t58 -156
q0 -46 -16 -166q-10 -75 -10 -112q0 -126 84 -152q32 -10 92 -10l95 331q41 143 41 190q0 67 -151 83z" />
    <glyph glyph-name="afii10025" unicode="&#x417;" horiz-adv-x="1042" 
d="M359 1387h38q28 -42 62 -42q15 0 68 13q119 29 203 29q131 0 214 -62q93 -69 93 -196q0 -260 -383 -398q123 -19 198 -99t75 -203q0 -200 -166 -335q-155 -125 -360 -125q-269 0 -453 260l34 37q164 -184 334 -184q139 0 232 109q88 104 88 245q0 123 -76 188
q-72 62 -197 62q-12 0 -32 -1l18 64q165 8 284 108q127 108 127 269q0 165 -151 165q-210 0 -313 -257h-38z" />
    <glyph glyph-name="afii10026" unicode="&#x418;" horiz-adv-x="1593" 
d="M1090 1356h653l-11 -37q-123 -2 -173 -87q-30 -51 -69 -188l-219 -776q-31 -110 -31 -145q0 -83 152 -86l-10 -37h-658l11 37q118 0 173 80q30 44 72 191l191 668l-714 -770q-15 -53 -15 -84q0 -85 154 -85l-10 -37h-653l11 37q110 0 167 78q35 49 73 182l220 771
q38 133 38 165q0 80 -152 86l11 37h658l-11 -37q-119 0 -177 -85q-32 -46 -75 -196l-189 -658l714 770q13 50 13 77q0 92 -154 92z" />
    <glyph glyph-name="afii10027" unicode="&#x419;" horiz-adv-x="1593" 
d="M783 1680q0 84 81 84q69 0 105 -98q24 -65 53 -90q33 -29 98 -29q68 0 108 30q34 26 65 92q44 95 120 95q31 0 54 -21t23 -51q0 -103 -147 -161q-113 -45 -232 -45q-113 0 -206 40q-122 54 -122 154zM1090 1356h653l-11 -37q-123 -2 -173 -87q-30 -51 -69 -188l-219 -776
q-31 -110 -31 -145q0 -83 152 -86l-10 -37h-658l11 37q118 0 173 80q30 44 72 191l191 668l-714 -770q-15 -53 -15 -84q0 -85 154 -85l-10 -37h-653l11 37q110 0 167 78q35 49 73 182l220 771q38 133 38 165q0 80 -152 86l11 37h658l-11 -37q-119 0 -177 -85
q-32 -46 -75 -196l-189 -658l714 770q13 50 13 77q0 92 -154 92z" />
    <glyph glyph-name="afii10028" unicode="&#x41a;" horiz-adv-x="1389" 
d="M602 713q160 13 250 96q71 66 147 233q55 122 81 163q54 89 123 131q60 36 134 36q75 0 122 -37q51 -41 51 -114q0 -54 -36.5 -89t-90.5 -35q-43 0 -109 56q-46 39 -73 39q-40 0 -75 -57q-7 -13 -42 -92q-58 -130 -99 -193q-66 -98 -156 -146q92 -35 148 -166
q10 -24 70 -221q48 -160 62 -185q47 -84 152 -95l-11 -37h-408l-157 505q-21 67 -32 86q-27 43 -74 43l-103 -360q-36 -126 -36 -161q0 -68 120 -76l-10 -37h-622l11 37q76 8 99 16q44 15 74.5 60t64.5 165l226 791q35 122 35 164q0 83 -151 86l11 37h626l-11 -37
q-106 -20 -158 -112q-23 -41 -67 -194z" />
    <glyph glyph-name="afii10029" unicode="&#x41b;" horiz-adv-x="1405" 
d="M1572 1356l-10 -37q-124 -4 -182 -85q-34 -47 -77 -197l-221 -772q-28 -98 -28 -137q0 -82 152 -91l-11 -37h-653l11 37q133 0 180 95q21 44 68 206l271 943h-375l-138 -471q-89 -304 -121 -393q-95 -259 -195 -349q-93 -84 -200 -84q-65 0 -113 38q-51 41 -51 104
q0 56 39 94t95 38q63 0 108 -66q30 -45 54 -45q82 0 185 280q54 171 108 343q122 386 122 459q0 90 -144 90h-37l11 37h1152z" />
    <glyph glyph-name="afii10030" unicode="&#x41c;" horiz-adv-x="1821" 
d="M775 1356l100 -932l645 932h475l-12 -37q-107 0 -160 -53q-44 -43 -76 -155l-250 -868q-24 -83 -24 -122q0 -81 148 -84l-9 -37h-677l12 37q114 0 168 48q48 43 81 158l255 879l-776 -1122h-41l-122 1144l-259 -901q-16 -56 -16 -92q0 -109 152 -114l-10 -37h-448l9 37
q82 3 124 34q76 56 110 172l293 1002q-44 49 -83 62q-32 12 -105 12l12 37h484z" />
    <glyph glyph-name="afii10031" unicode="&#x41d;" horiz-adv-x="1593" 
d="M609 732h496l110 379q22 76 22 119q0 55 -55 75q-26 9 -102 14l11 37h674l-11 -37q-108 0 -161 -52q-43 -44 -76 -156l-252 -868q-25 -86 -25 -122q0 -81 154 -84l-10 -37h-661l15 37q107 0 155 51q37 39 70 155l117 404h-494l-116 -404q-25 -87 -25 -123q0 -80 151 -83
l-10 -37h-652l11 37q106 0 154 52q35 38 69 154l252 868q22 76 22 118q0 55 -52 75q-26 10 -101 15l11 37h663l-15 -37q-103 0 -153 -54q-38 -41 -72 -154z" />
    <glyph glyph-name="afii10032" unicode="&#x41e;" horiz-adv-x="1479" 
d="M576 -32q-308 0 -416 250q-51 116 -51 226q0 236 134 462q130 217 336 347q215 135 425 135q126 0 235.5 -63t170.5 -173t61 -223q0 -243 -155 -501q-154 -254 -368 -375q-151 -85 -372 -85zM971 1306q-139 0 -250 -124q-145 -162 -238 -530q-55 -214 -55 -357
q0 -103 42 -169q49 -78 147 -78q110 0 187 73q151 143 252 430q94 266 94 495q0 260 -179 260z" />
    <glyph glyph-name="afii10033" unicode="&#x41f;" horiz-adv-x="1593" 
d="M298 1356h1464l-10 -37q-133 -5 -193 -100q-28 -43 -78 -219l-208 -724q-32 -111 -32 -154q0 -77 150 -85l-10 -37h-661l11 37q124 0 177 76q26 38 71 194l279 974h-490l-286 -991q-37 -128 -37 -172q0 -76 145 -81l-11 -37h-651l11 37q117 2 168 71q28 40 70 182
l225 770q38 130 38 169q0 90 -153 90z" />
    <glyph glyph-name="afii10034" unicode="&#x420;" horiz-adv-x="1251" 
d="M581 623l-110 -378q-23 -79 -23 -113q0 -62 56 -82q31 -12 110 -13l-13 -37h-662l11 37q132 2 177 67q17 25 51 141l251 861q26 89 26 123q0 86 -153 90l11 37h537q222 0 318 -56q150 -87 150 -264q0 -203 -181 -324q-159 -105 -371 -105q-76 0 -185 16zM601 700
q65 -8 108 -8q136 0 221 131q75 114 75 258q0 196 -192 196q-19 0 -47 -2z" />
    <glyph glyph-name="afii10035" unicode="&#x421;" horiz-adv-x="1366" 
d="M1476 1387l-100 -431h-39q-14 349 -294 349q-173 0 -319 -161q-113 -126 -188 -318q-77 -197 -77 -389q0 -161 76 -253q83 -100 240 -100q226 0 415 221h48q-116 -174 -233 -250q-134 -86 -327 -86q-243 0 -393.5 146.5t-150.5 389.5q0 238 127 441q123 196 335 316
q223 125 444 125q83 0 209 -36q63 -18 89 -18q50 0 101 54h37z" />
    <glyph glyph-name="afii10036" unicode="&#x422;" horiz-adv-x="1251" 
d="M328 1356h1091l-103 -365h-36q2 29 2 51q0 212 -267 227l-302 -1021q-25 -85 -25 -126q0 -82 157 -85l-9 -37h-673l12 37q113 0 162 51q38 39 74 160l302 1021q-161 -5 -267 -72q-102 -64 -186 -206h-39z" />
    <glyph glyph-name="afii10037" unicode="&#x423;" horiz-adv-x="1425" 
d="M1190 1356h470l-10 -37q-105 -4 -187 -79q-57 -52 -126 -167l-519 -860q-79 -130 -138 -178q-82 -66 -211 -66q-100 0 -176 47q-90 54 -90 148q0 58 37.5 94t95.5 36q120 0 140 -163q9 -79 67 -79q49 0 99 53q18 18 71 93l-267 889q-37 123 -61 159q-46 70 -142 73l11 37
h643l-11 -37q-163 0 -163 -105q0 -35 25 -118l169 -563l349 577q57 94 57 139q0 70 -143 70z" />
    <glyph glyph-name="afii10038" unicode="&#x424;" horiz-adv-x="1741" 
d="M783 1356h656l-13 -37q-86 0 -131 -28q-50 -31 -73 -110q191 -3 324 -94q154 -105 154 -287q0 -130 -66 -256q-64 -122 -170 -202q-215 -163 -532 -168q-6 -31 -6 -50q0 -87 150 -87l-11 -37h-655l10 37q91 0 132 26q45 28 75 111q-196 0 -329 94q-151 106 -151 294
q0 281 251 460q225 159 517 159q5 25 5 42q0 96 -148 96zM899 1124q-166 0 -260 -98q-67 -70 -140 -252q-84 -208 -84 -341q0 -129 102 -179q42 -21 126 -22zM949 232q166 0 265 100q77 78 141 256q75 207 75 333q0 203 -226 203z" />
    <glyph glyph-name="afii10039" unicode="&#x425;" horiz-adv-x="1366" 
d="M616 627l-211 492q-47 109 -69 137q-44 55 -130 63v37h599l-11 -37q-107 -8 -107 -78q0 -39 35 -122l120 -284l167 153q142 130 179 190q23 37 23 67q0 68 -103 74l12 37h443l-9 -37q-50 -9 -92 -36q-67 -43 -224 -187l-365 -335l205 -477q56 -129 74 -157
q50 -72 138 -90l-10 -37h-601l12 37q121 2 121 86q0 47 -56 177l-110 255l-250 -233q-90 -84 -97 -92q-61 -66 -61 -115q0 -74 120 -78l-12 -37h-470l10 37q53 10 91 33q88 53 229 182z" />
    <glyph glyph-name="afii10040" unicode="&#x426;" horiz-adv-x="1593" 
d="M1757 1356l-10 -37q-136 0 -186 -90q-28 -50 -72 -204l-217 -754q-34 -118 -34 -147q0 -87 153 -87l-123 -429h-37q11 83 11 139q0 189 -145 234q-62 19 -168 19h-994l10 37q73 0 104 12q44 17 72 72q24 47 70 209l209 729q36 126 36 170q0 86 -152 90l10 37h659l-11 -37
q-119 0 -166 -62q-27 -34 -67 -175l-230 -801q-35 -122 -35 -150q0 -56 126 -56h198q71 0 90 5q40 11 64 56q20 38 58 172l227 790q28 97 28 133q0 88 -156 88l10 37h668z" />
    <glyph glyph-name="afii10041" unicode="&#x427;" horiz-adv-x="1532" 
d="M1025 1356h672l-10 -37q-132 -4 -186 -93q-31 -50 -67 -176l-225 -784q-30 -105 -30 -147q0 -55 52 -72q25 -8 100 -10l-11 -37h-657l11 37q121 2 171 72q27 37 70 186l99 343q-258 -121 -449 -121q-120 0 -202 55q-96 63 -96 177q0 56 28 153l57 198q29 101 29 136
q0 78 -135 83l11 37h636l-11 -37q-122 -9 -173 -81q-28 -39 -71 -191l-37 -130q-32 -112 -32 -167q0 -114 157 -114q113 0 314 94l96 333q34 118 34 160q0 89 -156 96z" />
    <glyph glyph-name="afii10042" unicode="&#x428;" horiz-adv-x="2306" 
d="M-67 0l11 37q135 0 183 94q19 38 64 195l209 730q36 126 36 179q0 83 -149 84l11 37h633l-11 -37q-104 -9 -158 -101q-27 -45 -68 -187l-219 -765q-30 -105 -30 -136q0 -55 126 -55h162q111 0 146 46q16 22 56 161l233 816q29 102 29 138q0 65 -106 83l10 37h587l-11 -37
q-112 -14 -163 -102q-20 -36 -66 -195l-214 -747q-33 -115 -33 -146q0 -54 124 -54h154q68 0 90 6q41 12 65 58q20 38 56 164l229 792q29 100 29 132q0 80 -107 92l11 37h618l-11 -37q-121 0 -175 -72q-31 -42 -73 -187l-226 -785q-34 -118 -34 -153q0 -83 153 -85l-11 -37
h-2160z" />
    <glyph glyph-name="afii10043" unicode="&#x429;" horiz-adv-x="2306" 
d="M-67 0l11 37q135 0 183 94q19 38 64 195l209 730q36 126 36 179q0 83 -149 84l11 37h633l-11 -37q-104 -9 -158 -101q-27 -45 -68 -187l-219 -765q-30 -105 -30 -136q0 -55 126 -55h162q111 0 146 46q16 22 56 161l233 816q29 102 29 138q0 65 -106 83l10 37h587l-11 -37
q-112 -14 -163 -102q-20 -36 -66 -195l-214 -747q-33 -115 -33 -146q0 -54 124 -54h154q68 0 90 6q41 12 65 58q20 38 56 164l229 792q29 100 29 132q0 80 -107 92l11 37h618l-11 -37q-121 0 -175 -72q-31 -42 -73 -187l-226 -785q-34 -118 -34 -153q0 -83 153 -85
l-125 -429h-37q13 83 13 140q0 252 -291 252h-1731z" />
    <glyph glyph-name="afii10044" unicode="&#x42a;" horiz-adv-x="1557" 
d="M230 37q102 5 150 89q20 35 62 179l281 976h-32q-273 0 -433 -291h-38l104 366h890l-11 -37q-72 -2 -103 -15q-40 -17 -70 -70.5t-73 -196.5l-91 -305q149 -2 210 -10q117 -14 199 -60q163 -91 163 -263q0 -124 -87 -229q-84 -100 -207 -136q-117 -34 -292 -34h-632z
M681 85q44 -10 83 -10q158 0 259 110q98 107 98 267q0 58 -30 108q-33 53 -85 70t-165 17z" />
    <glyph glyph-name="afii10045" unicode="&#x42b;" horiz-adv-x="1985" 
d="M608 732q148 -2 210 -10q117 -14 200 -60q162 -91 162 -263q0 -124 -87 -229q-83 -100 -206 -136q-117 -34 -292 -34h-633l11 37q101 5 150 89q21 37 62 179l211 737q44 154 44 190q0 51 -54 71q-24 9 -98 16l10 37h657l-11 -37q-77 -2 -112 -20q-42 -22 -72 -85
q-32 -67 -77 -223zM423 85q44 -10 83 -10q159 0 260 110q98 107 98 267q0 58 -32 109.5t-84 68.5t-164 17zM1464 1319l11 37h662l-13 -37q-102 -2 -151 -55q-39 -42 -70 -152l-248 -868q-26 -91 -26 -123q0 -82 163 -84l-10 -37h-673l12 37q110 2 159 51q40 40 73 156
l248 861q25 87 25 126q0 54 -58 74q-30 10 -104 14z" />
    <glyph glyph-name="afii10046" unicode="&#x42c;" horiz-adv-x="1298" 
d="M607 732q148 -2 210 -10q117 -14 200 -60q162 -91 162 -263q0 -124 -87 -229q-83 -100 -206 -136q-117 -34 -292 -34h-633l11 37q101 5 150 89q21 37 62 179l211 737q44 154 44 190q0 51 -54 71q-24 9 -98 16l10 37h657l-11 -37q-77 -2 -112 -20q-42 -22 -72 -85
q-32 -67 -77 -223zM422 85q44 -10 83 -10q159 0 260 110q98 107 98 267q0 58 -32 109.5t-84 68.5t-164 17z" />
    <glyph glyph-name="afii10047" unicode="&#x42d;" horiz-adv-x="1333" 
d="M345 1387h37q1 -59 49 -59q42 0 142 26q127 33 212 33q236 0 380 -166q137 -157 137 -397q0 -332 -223 -588q-232 -267 -560 -267q-312 0 -511 275l32 26q196 -200 410 -200q204 0 345 194q111 154 158 383h-520l25 85h508q9 104 9 161q0 400 -291 400q-125 0 -253 -110
q-115 -98 -171 -224h-38z" />
    <glyph glyph-name="afii10048" unicode="&#x42e;" horiz-adv-x="2163" 
d="M819 638h-238l-112 -394q-27 -95 -27 -123q0 -82 164 -84l-10 -37h-673l11 37q111 2 159 51q40 40 74 156l248 861q25 87 25 126q0 82 -162 88l11 37h662l-13 -37q-102 -2 -151 -55q-38 -42 -70 -152l-111 -388h239q97 268 323 458q243 205 513 205q199 0 337.5 -132.5
t138.5 -330.5q0 -352 -261 -648q-271 -307 -617 -307q-223 0 -353.5 128t-130.5 350q0 87 24 191zM1644 1307q-190 0 -340 -284q-76 -144 -131 -353q-58 -217 -58 -372q0 -102 43 -170q50 -79 147 -79q150 0 274 175q73 103 156 307q102 251 102 515q0 261 -193 261z" />
    <glyph glyph-name="afii10049" unicode="&#x42f;" horiz-adv-x="1411" 
d="M1576 1356l-11 -37q-73 -10 -101 -20q-42 -16 -80 -59q-26 -29 -67 -173l-234 -816q-28 -98 -28 -132q0 -80 150 -82l-11 -37h-605l16 37q76 15 116 67q30 39 55 126l117 409l-22 1q-57 3 -95.5 -23t-90.5 -94l-399 -523h-420l11 37q105 7 220 170q165 234 213 286
q134 144 297 182q-300 63 -300 304q0 194 180 295q146 82 354 82h735zM1072 1263q-55 16 -101 16q-146 0 -241 -101t-95 -248q0 -66 30 -121q34 -61 93 -81q47 -16 155 -19z" />
    <glyph glyph-name="afii10065" unicode="&#x430;" 
d="M981 913l-214 -746q-3 -12 -3 -22q0 -30 26 -30q21 0 58 32q15 13 72 92l35 -18q-136 -249 -325 -249q-117 0 -117 104q0 37 32 145l24 81q-116 -199 -223 -282q-62 -48 -132 -48q-91 0 -137 81q-37 66 -37 165q0 159 93 340q91 175 219 277q116 92 216 92
q112 0 140 -151l36 123zM661 723q0 142 -74 142q-93 0 -208 -281q-78 -190 -78 -328q0 -100 56 -100q45 0 91 52q66 74 119 181q94 189 94 334z" />
    <glyph glyph-name="afii10066" unicode="&#x431;" horiz-adv-x="1022" 
d="M1014 1387h37q-55 -248 -340 -271q-111 -9 -156 -22q-72 -19 -137 -73q-117 -97 -198 -335q199 241 448 241q130 0 211 -77t81 -206q0 -249 -184 -457q-190 -215 -436 -215q-129 0 -202 75.5t-73 205.5q0 180 96 438q92 249 208 400q100 131 209 182q99 48 272 57
q81 4 92 7q50 11 72 50zM629 874q-85 0 -162 -152q-32 -64 -85 -220q-76 -222 -76 -368q0 -109 87 -109q120 0 229 310q92 263 92 417q0 122 -85 122z" />
    <glyph glyph-name="afii10067" unicode="&#x432;" horiz-adv-x="915" 
d="M525 483q249 -26 249 -202q0 -143 -138 -232q-121 -77 -272 -77q-312 0 -312 285q0 165 88 330t226 252q142 88 292 88q82 0 139 -33q70 -40 70 -116q0 -102 -126 -190q-90 -65 -216 -105zM363 476q126 21 215 115q92 98 92 224q0 61 -51 61q-130 0 -256 -400zM344 414
q-51 -190 -51 -281q0 -109 70 -109q71 0 120 132q40 105 40 192q0 91 -79 91q-37 0 -100 -25z" />
    <glyph glyph-name="afii10068" unicode="&#x433;" horiz-adv-x="756" 
d="M190 750l-21 30q172 147 355 147q95 0 159 -37q78 -45 78 -133q0 -89 -71 -151q-43 -38 -151 -89q-142 -68 -198 -110q-109 -83 -109 -186q0 -71 51 -110q46 -36 119 -36q110 0 226 102l29 -25q-186 -180 -400 -180q-111 0 -185 40q-93 50 -93 151q0 99 104 176
q48 36 191 103q249 117 249 260q0 124 -139 124q-91 0 -194 -76z" />
    <glyph glyph-name="afii10069" unicode="&#x434;" horiz-adv-x="1016" 
d="M465 1348l16 39q222 -89 352.5 -279.5t130.5 -428.5q0 -261 -178 -477q-188 -230 -444 -230q-137 0 -216.5 78.5t-79.5 214.5q0 220 174 435q182 227 397 227q55 0 103 -28q-34 311 -255 449zM627 873q-126 0 -237 -303q-95 -258 -95 -419q0 -124 95 -124q119 0 232 303
q96 261 96 414q0 129 -91 129z" />
    <glyph glyph-name="afii10070" unicode="&#x435;" horiz-adv-x="909" 
d="M324 375q-9 -65 -9 -107q0 -74 43 -119.5t117 -45.5q137 0 304 153l30 -27q-213 -257 -465 -257q-295 0 -295 265q0 175 102 340q98 157 254 251q164 99 330 99q170 0 170 -141q0 -74 -42 -142q-107 -174 -343 -239q-73 -20 -196 -30zM333 427q152 22 232 108
q114 121 114 266q0 60 -55 60q-48 0 -108 -67q-110 -122 -183 -367z" />
    <glyph glyph-name="afii10072" unicode="&#x436;" horiz-adv-x="1950" 
d="M853 476l121 423h250l-121 -423h170q56 177 183 305q145 146 315 146q76 0 126 -40q53 -43 53 -117q0 -69 -40 -121q-44 -56 -111 -56q-43 0 -72.5 26t-29.5 68q0 46 53 99.5t53 67.5q0 30 -40 30q-132 0 -217 -228q-66 -179 -66 -337q0 -79 30 -132q37 -66 111 -66
q83 0 189 111l30 -24q-213 -236 -379 -236q-112 0 -172 87q-54 76 -54 192q0 75 23 174h-169l-122 -425h-250l122 425h-169q-64 -184 -184 -307q-142 -146 -317 -146q-76 0 -125 40q-53 43 -53 117q0 69 40 121q44 56 111 56q43 0 72.5 -26t29.5 -69q0 -49 -69 -113
q-38 -35 -38 -53q0 -31 41 -31q130 0 216 229q68 181 68 338q0 79 -30 131q-38 65 -111 65q-83 0 -189 -110l-30 24q213 236 380 236q112 0 172 -88q53 -76 53 -193q0 -72 -23 -170h169z" />
    <glyph glyph-name="afii10073" unicode="&#x437;" horiz-adv-x="799" 
d="M110 673l41 254h42q22 -33 51 -33q20 0 55 7q130 26 183 26q103 0 174 -42q86 -50 86 -146q0 -94 -95 -162q-74 -54 -180 -78q194 -42 194 -212q0 -143 -132 -234q-117 -81 -267 -81q-224 0 -303 217l31 15q79 -141 195 -141q96 0 162 90q61 83 61 183q0 140 -151 142
l14 48q98 0 165.5 63.5t67.5 161.5q0 113 -110 113q-152 0 -241 -191h-43z" />
    <glyph glyph-name="afii10074" unicode="&#x438;" horiz-adv-x="1139" 
d="M540 927l-194 -680q-14 -49 -14 -65q0 -9 7 -14q8 -8 19 -8q47 0 123 82q109 117 231 342l91 306l253 9l-192 -660q-24 -82 -24 -96q0 -25 23 -25q13 0 27 12q38 32 95 117l34 -24q-139 -251 -306 -251q-133 0 -133 114q0 51 25 137l49 169q-132 -192 -189 -255
q-149 -165 -269 -165q-56 0 -93 40.5t-37 97.5q0 49 25 137l113 400q28 99 28 132q0 32 -34 45q-19 6 -69 6l10 38l341 59h60z" />
    <glyph glyph-name="afii10075" unicode="&#x439;" horiz-adv-x="1139" 
d="M977 1335h38q-118 -253 -353 -253q-83 0 -150 35q-81 44 -81 120q0 43 29 71t72 28q62 0 115 -82.5t108 -82.5q117 0 222 164zM544 927l-194 -680q-13 -46 -13 -64q0 -23 28 -23q68 0 200 183q82 114 151 241l91 306l253 9l-203 -697q-12 -41 -12 -58q0 -25 23 -25
q37 0 121 128l34 -24q-52 -98 -123 -165q-90 -86 -180 -86q-136 0 -136 123q0 42 25 128l49 169q-283 -420 -452 -420q-59 0 -97.5 40t-38.5 99q0 48 25 136l113 400q28 99 28 130q0 53 -103 53l10 38l341 59h60z" />
    <glyph glyph-name="afii10076" unicode="&#x43a;" horiz-adv-x="1038" 
d="M541 927l-122 -426q123 0 178 37q51 35 107.5 148t87.5 154q66 87 143 87q109 0 109 -101q0 -44 -28 -75.5t-72 -31.5q-28 0 -61.5 22.5t-42.5 22.5q-31 0 -92 -118q-68 -131 -142 -166q80 -33 140 -132q44 -90 88 -179l42 -84q27 -41 73 -48l-11 -37h-251l-143 281
q-49 97 -53 103q-41 62 -88 62l-128 -446h-250l190 663q23 80 23 107q0 55 -102 59l11 37l339 61h55z" />
    <glyph glyph-name="afii10077" unicode="&#x43b;" horiz-adv-x="1051" 
d="M249 899h723l-194 -678q-21 -73 -21 -86q0 -23 20 -23q40 0 127 133l35 -24q-146 -249 -305 -249q-56 0 -94 34t-38 90q0 37 34 155l169 587h-123q-93 0 -127.5 -28t-61.5 -121l-108 -378q-97 -339 -262 -339q-52 0 -86.5 30t-34.5 81q0 47 30.5 80.5t77.5 33.5
q39 0 75 -33q28 -25 45 -25q46 0 92 161l98 344q26 91 26 127q0 82 -108 90z" />
    <glyph glyph-name="afii10078" unicode="&#x43c;" horiz-adv-x="1403" 
d="M1023 724l-505 -752h-38l-58 803l-147 -487q-42 -138 -81 -202q-69 -114 -171 -114q-52 0 -85 28q-36 30 -36 81q0 48 32 81t80 33q36 0 71 -34q26 -25 45 -25q38 0 93 180l106 349q20 66 20 93q0 60 -100 71l11 37l348 61h44l43 -590l379 562h250l-192 -669
q-20 -70 -20 -89q0 -29 22 -29q35 0 124 132l37 -23q-143 -249 -313 -249q-57 0 -92.5 33.5t-35.5 89.5q0 39 25 126z" />
    </font>
</defs>
</svg>
