<?xml version="1.0" standalone="no"?>
<!DOCTYPE svg PUBLIC "-//W3C//DTD SVG 1.1//EN" "http://www.w3.org/Graphics/SVG/1.1/DTD/svg11.dtd" >
<svg>
<metadata>
Created by FontForge 20120731 at Tue Apr  4 10:00:24 2017
 By convertio
Typeface (c) The Monotype Corporation plc. Data (c) The Monotype Corporation plc/Type Solutions Inc. 1990-1992. All Rights Reserved
</metadata>
<defs>
<font id="TimesNewRomanBold" horiz-adv-x="1024" >
  <font-face 
    font-family="Times New Roman"
    font-weight="700"
    font-stretch="normal"
    units-per-em="2048"
    panose-1="2 2 8 3 7 5 5 2 3 4"
    ascent="1638"
    descent="-410"
    x-height="935"
    cap-height="1356"
    bbox="-377 -628 2230 2101"
    underline-thickness="195"
    underline-position="-126"
    unicode-range="U+0020-F005"
  />
<missing-glyph 
d="M128 0v1825h768v-1825h-768zM256 128h512v1569h-512v-1569z" />
    <glyph glyph-name=".notdef" 
d="M128 0v1825h768v-1825h-768zM256 128h512v1569h-512v-1569z" />
    <glyph glyph-name=".null" horiz-adv-x="0" 
 />
    <glyph glyph-name="nonmarkingreturn" horiz-adv-x="512" 
 />
    <glyph glyph-name="space" unicode=" " horiz-adv-x="512" 
 />
    <glyph glyph-name="exclam" unicode="!" horiz-adv-x="682" 
d="M364 441h-44q-7 112 -46 276l-52 218q-47 197 -47 281q0 76 45 123.5t121 47.5q73 0 120 -47.5t47 -120.5q0 -78 -50 -284l-53 -218q-28 -115 -41 -276zM343 298q68 0 115 -47.5t47 -115.5q0 -67 -47.5 -114.5t-114.5 -47.5t-114.5 47.5t-47.5 114.5q0 68 47 115.5
t115 47.5z" />
    <glyph glyph-name="quotedbl" unicode="&#x22;" horiz-adv-x="1137" 
d="M349 721h-49l-104 385q-20 74 -20 132q0 62 43 105.5t105 43.5t105 -41t43 -103q0 -46 -24 -139zM832 721h-50l-101 384q-24 91 -24 136q0 60 45 103t106 43t103.5 -41t42.5 -102q0 -35 -26 -139z" />
    <glyph glyph-name="numbersign" unicode="#" 
d="M90 -28l86 424h-136v133h162l59 292h-221v130h247l87 433h132l-88 -433h295l86 433h132l-88 -433h140v-130h-165l-60 -292h225v-133h-250l-86 -424h-133l86 424h-291l-90 -424h-129zM335 529h294l58 292h-294z" />
    <glyph glyph-name="dollar" unicode="$" 
d="M566 835q240 -152 305 -228q88 -103 88 -245q0 -167 -115 -271q-107 -97 -278 -112v-117h-87v110q-194 4 -376 74v323h42q38 -210 172 -280q65 -35 162 -43v494q-200 125 -261 181q-139 127 -139 271q0 156 126 252q107 81 274 102v47h87v-47q170 -12 342 -105v-289h-39
q-55 187 -174 269q-47 32 -129 55v-441zM479 1279q-72 -6 -117 -40q-70 -53 -70 -128q0 -66 66 -130q34 -33 121 -91v389zM566 46q166 39 166 190q0 121 -166 243v-433z" />
    <glyph glyph-name="percent" unicode="%" horiz-adv-x="2048" 
d="M1573 1387l-963 -1444h-134l962 1444h135zM478 1387q150 0 245 -106q92 -102 92 -254q0 -155 -92 -259q-96 -107 -249 -107q-151 0 -243 104q-89 99 -89 252q0 155 89 260q95 110 247 110zM478 1334q-53 0 -73 -92q-13 -57 -13 -234q0 -238 51 -284q14 -13 35 -13
q51 0 69 80q17 75 17 213q0 168 -16 243q-11 53 -36 76q-12 11 -34 11zM1566 671q153 0 248 -105q92 -101 92 -255q0 -153 -92 -258q-95 -109 -246 -109q-149 0 -244 109q-90 104 -90 255q0 153 88 255q93 108 244 108zM1569 619q-50 0 -71 -88q-13 -55 -13 -209
q0 -165 15 -236q11 -50 37 -74q13 -12 34 -12q48 0 68 86q17 73 17 221q0 255 -52 301q-12 11 -35 11z" />
    <glyph glyph-name="ampersand" unicode="&#x26;" horiz-adv-x="1706" 
d="M1166 811h416v-39q-83 -12 -131 -62q-30 -30 -83 -126q-64 -115 -180 -257q170 -153 254 -153q74 0 134 97l41 -22q-143 -280 -337 -280q-145 0 -320 159q-237 -159 -464 -159q-166 0 -284 88q-130 96 -130 257q0 287 418 453q-52 130 -52 247q0 167 118 272
q113 101 282 101q118 0 205 -57q101 -66 101 -178q0 -212 -352 -341q113 -199 331 -429q147 165 147 283q0 95 -114 107v39zM768 871q177 66 177 191q0 112 -59 189q-39 51 -96 51q-54 0 -85 -43q-29 -39 -29 -94q0 -90 92 -294zM528 703q-81 -34 -113 -72q-47 -55 -47 -125
q0 -93 53.5 -185.5t131.5 -144.5t155 -52t189 66q-241 247 -369 513z" />
    <glyph glyph-name="quotesingle" unicode="'" horiz-adv-x="569" 
d="M313 722h-48l-105 382q-20 73 -20 131q0 64 41.5 108t105.5 44q63 0 105.5 -41.5t42.5 -104.5q0 -47 -23 -136z" />
    <glyph glyph-name="parenleft" unicode="(" horiz-adv-x="682" 
d="M658 1387v-46q-104 -68 -153 -133q-67 -89 -106 -231q-48 -176 -48 -489q0 -507 162 -725q52 -70 145 -123v-50q-267 90 -427 359q-149 250 -149 545q0 293 149 540q161 265 427 353z" />
    <glyph glyph-name="parenright" unicode=")" horiz-adv-x="682" 
d="M25 -410v46q105 69 153 134q68 90 106 230q48 174 48 490q0 506 -162 724q-52 70 -145 123v50q267 -90 427 -359q149 -250 149 -545q0 -292 -150 -539q-161 -265 -426 -354z" />
    <glyph glyph-name="asterisk" unicode="*" 
d="M493 992q-5 88 -52 181q-33 63 -33 98q0 43 31 79.5t73 36.5q47 0 76.5 -34.5t29.5 -82.5q0 -38 -29 -95q-36 -72 -41 -92q-9 -31 -14 -91q82 34 151 107q63 67 121 67q42 0 73 -28t31 -70q0 -50 -43 -81q-39 -28 -90 -28q-20 0 -61 2t-62 2q-37 0 -112 -4
q63 -72 150 -116q104 -53 104 -128q0 -42 -28.5 -72t-70.5 -30q-102 0 -125 162q-12 88 -58 165q-51 -82 -63 -165q-23 -159 -123 -159q-40 0 -70 27.5t-30 67.5q0 78 106 137q87 48 150 111l-107 4q-22 1 -53 -1q-67 -4 -81 -4q-51 0 -88 28q-41 31 -41 80q0 43 30.5 71.5
t73.5 28.5q56 0 108 -49l88 -84q22 -16 79 -41z" />
    <glyph glyph-name="plus" unicode="+" horiz-adv-x="1167" 
d="M40 744h481v480h131v-480h481v-132h-481v-476h-131v476h-481v132z" />
    <glyph glyph-name="comma" unicode="," horiz-adv-x="512" 
d="M102 -359v44q221 95 221 292q0 34 -21 34q-6 0 -18 -7q-29 -17 -72 -17q-61 0 -103.5 46.5t-42.5 107.5q0 69 51 117.5t120 48.5q99 0 156 -77q52 -70 52 -172q0 -156 -97 -267q-90 -102 -246 -150z" />
    <glyph glyph-name="hyphen" unicode="-" horiz-adv-x="682" 
d="M633 367h-583v207h583v-207z" />
    <glyph glyph-name="hyphen" unicode="&#x2010;" horiz-adv-x="682" 
d="M633 367h-583v207h583v-207z" />
    <glyph glyph-name="period" unicode="." horiz-adv-x="512" 
d="M256 308q70 0 118.5 -48.5t48.5 -118.5q0 -69 -48.5 -117.5t-118.5 -48.5q-69 0 -117.5 48.5t-48.5 117.5q0 70 48.5 118.5t117.5 48.5z" />
    <glyph glyph-name="slash" unicode="/" horiz-adv-x="569" 
d="M575 1387l-445 -1418h-128l447 1418h126z" />
    <glyph glyph-name="zero" unicode="0" 
d="M949 678q0 -201 -57 -379q-64 -199 -222 -286q-73 -41 -159 -41q-191 0 -317 193q-45 69 -77 181q-43 150 -43 316q0 221 62 406q45 135 138 220q104 96 237 96q127 0 231 -89q95 -81 140 -208q67 -188 67 -409zM641 680q3 317 -4 415q-10 139 -48 188q-25 32 -81 32
q-96 0 -118 -147q-13 -89 -13 -618q0 -289 20 -386q25 -119 117 -119q51 0 75 32q47 62 48 173z" />
    <glyph glyph-name="one" unicode="1" 
d="M667 1384v-1109q0 -102 2 -118q10 -70 55 -98q35 -22 112 -22h31v-37h-714v37h36q146 0 174 75q13 35 13 163v703q0 73 -2 86q-7 49 -40 72q-25 16 -57 16q-51 0 -124 -32l-18 36l499 228h33z" />
    <glyph glyph-name="two" unicode="2" 
d="M848 0h-798v22q284 339 332 406q192 274 192 477q0 101 -61 171q-64 73 -163 73q-154 0 -239 -154l-37 13q106 376 418 376q218 0 321 -179q48 -84 48 -157q0 -134 -74 -270q-100 -184 -441 -516h293q155 0 194 40q21 21 55 90h36z" />
    <glyph glyph-name="three" unicode="3" 
d="M303 680v35q98 28 135 49q63 34 99 100q32 58 32 118q0 87 -62 144.5t-149 57.5q-140 0 -238 -148l-37 13q144 335 435 335q129 0 224 -78q100 -82 100 -209q0 -164 -176 -267q240 -117 240 -350t-169 -375q-159 -134 -396 -134q-308 0 -308 160q0 45 32 78t77 33
q33 0 62 -14q22 -11 137 -103q81 -64 159 -64q81 0 132 64q48 60 48 143q0 158 -113 271q-102 102 -264 141z" />
    <glyph glyph-name="four" unicode="4" 
d="M51 511l644 873h122v-873h124v-207h-124v-304h-275v304h-491v207zM148 511h394v535z" />
    <glyph glyph-name="five" unicode="5" 
d="M312 1356h635l-101 -258h-534l-51 -135q345 -13 531 -172q153 -131 153 -326q0 -134 -75 -251t-196 -177q-129 -65 -283 -65q-167 0 -255 62q-62 44 -62 100q0 43 32.5 76t75.5 33q72 0 216 -100q58 -41 105 -58q32 -12 70 -12q83 0 140 60t57 144q0 203 -221 311
q-173 85 -399 85q-27 0 -81 -1z" />
    <glyph glyph-name="six" unicode="6" 
d="M962 1384v-28q-335 -85 -463 -294q-64 -104 -99 -257q44 30 73 39q65 20 131 20q168 0 266 -125q89 -114 89 -287q0 -292 -211 -419q-101 -61 -216 -61q-133 0 -239 74q-101 71 -157 195q-60 132 -60 287q0 232 110.5 427t311 311t464.5 118zM387 724q-8 -138 -8 -202
q0 -118 20 -234q27 -155 79 -214q33 -37 78 -37q118 0 118 271q0 449 -183 449q-40 0 -104 -33z" />
    <glyph glyph-name="seven" unicode="7" 
d="M363 -28l369 1119h-281q-165 0 -248 -43q-58 -30 -96 -113h-38l98 421h808l-455 -1384h-157z" />
    <glyph glyph-name="eight" unicode="8" 
d="M698 766q126 -92 181 -170q73 -102 73 -233q0 -184 -141 -292q-128 -99 -318 -99q-173 0 -289 82q-132 93 -132 259q0 215 275 341q-131 100 -178 161q-74 96 -74 221q0 162 140 258q123 85 292 85q162 0 273 -73q130 -84 130 -238q0 -187 -232 -302zM622 817
q73 99 73 248q0 129 -56 199q-43 53 -116 53q-70 0 -115.5 -49.5t-45.5 -119.5q0 -162 260 -331zM422 606q-31 -28 -44 -51q-52 -91 -52 -242q0 -191 93 -249q44 -28 91 -28q82 0 129 61q44 55 44 139q0 194 -261 370z" />
    <glyph glyph-name="nine" unicode="9" 
d="M63 -28v28q328 75 465 295q67 109 94 251q-110 -57 -197 -57q-171 0 -269 125q-90 115 -90 290q0 291 214 419q103 61 214 61q128 0 235 -75q100 -70 159 -190q63 -129 63 -294q0 -227 -106 -418q-108 -194 -302 -306q-203 -119 -480 -129zM637 630q10 112 10 197
q0 184 -42 339q-23 86 -71 128q-25 22 -65 22q-117 0 -117 -268q0 -450 182 -450q39 0 103 32z" />
    <glyph glyph-name="colon" unicode=":" horiz-adv-x="682" 
d="M342 962q69 0 117.5 -48.5t48.5 -117.5t-48.5 -117.5t-117.5 -48.5t-117.5 48.5t-48.5 117.5t48.5 117.5t117.5 48.5zM341 308q70 0 118.5 -48.5t48.5 -118.5q0 -69 -48.5 -117.5t-118.5 -48.5q-69 0 -117.5 48.5t-48.5 117.5q0 70 48.5 118.5t117.5 48.5z" />
    <glyph glyph-name="semicolon" unicode=";" horiz-adv-x="682" 
d="M341 962q69 0 117 -48t48 -117t-48 -117.5t-117 -48.5t-117.5 48.5t-48.5 117.5q0 70 48 117.5t118 47.5zM188 -359v44q221 95 221 292q0 34 -21 34q-6 0 -18 -7q-29 -17 -72 -17q-61 0 -103.5 46.5t-42.5 107.5q0 69 51 117.5t120 48.5q99 0 156 -77q52 -70 52 -172
q0 -156 -97 -267q-90 -102 -246 -150z" />
    <glyph glyph-name="less" unicode="&#x3c;" horiz-adv-x="1167" 
d="M1133 185l-1092 446v81l1092 451v-138l-845 -353l845 -347v-140z" />
    <glyph glyph-name="equal" unicode="=" horiz-adv-x="1167" 
d="M40 904h1094v-130h-1094v130zM40 577h1094v-130h-1094v130z" />
    <glyph glyph-name="greater" unicode="&#x3e;" horiz-adv-x="1167" 
d="M41 1163l1092 -445v-82l-1092 -451v139l845 352l-845 347v140z" />
    <glyph glyph-name="question" unicode="?" 
d="M486 442h-41q-2 110 11 165q14 59 65 153q85 157 85 299q0 101 -36 171q-46 88 -139 88q-54 0 -91 -29q-28 -22 -28 -46q0 -16 19 -50q43 -77 43 -131q0 -50 -33.5 -82.5t-83.5 -32.5q-60 0 -96 41.5t-36 102.5q0 143 127 225q109 71 260 71q163 0 272 -74
q125 -86 125 -242q0 -116 -77 -209q-55 -65 -176 -145q-96 -63 -127 -112q-36 -55 -43 -163zM475 296q67 0 114 -47t47 -114t-47 -114.5t-114 -47.5t-114 47.5t-47 114.5t47 114t114 47z" />
    <glyph glyph-name="at" unicode="@" horiz-adv-x="1905" 
d="M1179 925l244 10l-183 -628q-31 -106 -31 -156q0 -33 24 -56t57 -23q99 0 213 109q95 91 147 198q71 147 71 314q0 281 -179 456t-461 175q-249 0 -449 -116.5t-317.5 -335.5t-117.5 -471q0 -345 218.5 -566t563.5 -221q276 0 498 146q227 150 322 405h61
q-118 -290 -344 -447q-230 -160 -539 -160q-385 0 -635 246.5t-250 631.5q0 262 121 481q126 228 350.5 349t496.5 121q207 0 368 -79q178 -87 267 -258q83 -160 83 -338q0 -187 -78 -356q-85 -183 -234 -274q-134 -82 -288 -82q-89 0 -143 42q-60 47 -60 133q0 54 24 141
q-84 -140 -129 -191q-62 -71 -125 -104q-40 -21 -91 -21q-85 0 -130 71q-38 61 -38 151q0 335 251 591q72 74 165 124q48 26 101 26q119 0 142 -157zM1028 891q-83 0 -182 -232q-102 -239 -102 -384q0 -92 59 -92q64 0 164 160q132 212 132 416q0 132 -71 132z" />
    <glyph glyph-name="A" unicode="A" horiz-adv-x="1479" 
d="M852 386h-479l-57 -132q-28 -65 -28 -109q0 -57 46 -84q27 -16 133 -24v-37h-451v37q89 13 150 98q30 41 86 167l485 1082h19l489 -1112q69 -157 115 -199q34 -31 96 -36v-37h-656v37h27q133 0 133 68q0 16 -6 37q-4 14 -30 75zM818 460l-202 467l-208 -467h410z" />
    <glyph glyph-name="B" unicode="B" horiz-adv-x="1366" 
d="M911 719q192 -45 271 -109q112 -91 112 -236q0 -154 -123 -253q-150 -121 -439 -121h-689v37q144 0 175 63q13 28 13 138v880q0 84 -4 104q-11 57 -57 80q-34 17 -127 17v37h650q178 0 267 -22q143 -36 216 -143q56 -83 56 -176q0 -215 -321 -296zM547 746q237 0 313 122
q36 58 36 148q0 173 -137 235q-66 30 -212 29v-534zM547 668l-1 -485q-2 -109 109 -109q177 0 251 139q36 67 36 150q0 91 -40 165q-45 80 -123.5 110.5t-231.5 29.5z" />
    <glyph glyph-name="C" unicode="C" horiz-adv-x="1479" 
d="M1367 1387v-470h-39q-40 168 -151 270q-118 110 -285 110q-127 0 -233 -72.5t-155 -191.5q-63 -151 -63 -336q0 -409 190 -557q98 -77 254 -77q245 0 459 249v-117q-217 -226 -526 -226q-208 0 -371 80q-179 87 -274 257q-92 163 -92 347q0 196 102 369t274 269t366 96
q143 0 302 -62q92 -36 117 -36q73 0 86 98h39z" />
    <glyph glyph-name="D" unicode="D" horiz-adv-x="1479" 
d="M27 0v37h45q106 0 137 69q9 20 9 126v892q0 83 -3 99q-9 51 -52 77q-34 19 -91 19h-45v37h607q243 0 391 -66q182 -81 278 -250q90 -159 90 -366q0 -285 -165 -462q-139 -150 -402 -200q-63 -12 -192 -12h-607zM544 1279v-1058q0 -64 1 -73q6 -44 34 -59t78 -15
q167 0 255 114q120 155 120 478q0 476 -249 583q-72 31 -239 30z" />
    <glyph glyph-name="E" unicode="E" horiz-adv-x="1366" 
d="M558 1278v-552h27q135 0 198 97q48 73 63 223h38v-710h-38q-24 231 -140 290q-51 25 -148 25v-382q0 -89 1 -97q7 -58 44 -81q26 -16 84 -16h81q370 0 469 356h37l-61 -431h-1172v37h45q105 0 135 69q11 26 11 126v892q0 94 -5 113q-9 34 -37 54q-39 28 -104 28h-45v37
h1135v-401h-38q-25 128 -68 191q-53 79 -162 114q-57 18 -210 18h-140z" />
    <glyph glyph-name="F" unicode="F" horiz-adv-x="1251" 
d="M563 1278v-557h39q171 0 244 118q39 64 51 173h35v-681h-35q-31 316 -295 316h-39v-415q0 -82 3 -99q10 -51 54 -76q33 -20 90 -20h45v-37h-709v37h45q105 0 135 69q11 26 11 126v892q0 83 -3 99q-9 51 -52 77q-34 19 -91 19h-45v37h1144v-389h-41q-13 126 -64 194
q-56 73 -174 102q-60 15 -222 15h-126z" />
    <glyph glyph-name="G" unicode="G" horiz-adv-x="1593" 
d="M1413 1387v-478h-37q-60 177 -183 283q-134 117 -311 117q-307 0 -396 -324q-42 -153 -42 -314q0 -427 195 -558q102 -69 243 -69q95 0 206 41v282q0 66 -5 85q-10 38 -51 61q-35 19 -84 19h-35v37h659v-37q-62 -4 -88 -14q-43 -15 -62 -58q-9 -20 -9 -93v-282
q-262 -117 -562 -117q-328 0 -545 191q-223 195 -223 501q0 317 221 524q216 204 535 204q99 0 182 -16q31 -6 140 -46q101 -37 119 -37q62 0 96 98h37z" />
    <glyph glyph-name="H" unicode="H" horiz-adv-x="1593" 
d="M560 652v-420q0 -82 3 -99q10 -51 54 -76q33 -20 90 -20h45v-37h-709v37h45q105 0 135 69q11 26 11 126v892q0 83 -3 99q-9 51 -52 77q-34 19 -91 19h-45v37h709v-37h-45q-105 0 -136 -69q-11 -25 -11 -126v-384h479v384q0 83 -3 99q-10 52 -53 77q-34 19 -91 19h-44v37
h708v-37h-44q-58 0 -95 -21q-26 -15 -41 -48q-11 -25 -11 -126v-892q0 -83 3 -99q10 -52 53 -76q34 -20 91 -20h44v-37h-708v37h44q58 0 95 21q26 15 41 48q11 25 11 126v420h-479z" />
    <glyph glyph-name="I" unicode="I" horiz-adv-x="797" 
d="M750 37v-37h-709v37h45q105 0 135 69q11 26 11 126v892q0 83 -3 99q-9 51 -52 77q-34 19 -91 19h-45v37h709v-37h-45q-105 0 -136 -69q-11 -25 -11 -126v-892q0 -82 3 -99q10 -51 54 -76q33 -20 90 -20h45z" />
    <glyph glyph-name="J" unicode="J" 
d="M291 1319v37h721v-37h-44q-105 0 -136 -69q-11 -25 -11 -126v-664q0 -166 -26 -246q-37 -117 -151 -185q-100 -60 -240 -60t-253 72q-129 83 -129 217q0 67 41 112t107 45q60 0 102 -38t42 -97q0 -29 -7 -49q-4 -11 -34 -54q-25 -36 -25 -54q0 -26 26 -45q38 -28 99 -28
q88 0 111 91q11 46 11 258v725q0 82 -3 99q-10 51 -53 77q-34 19 -91 19h-57z" />
    <glyph glyph-name="K" unicode="K" horiz-adv-x="1593" 
d="M853 837l477 -597q101 -126 174 -171q52 -32 112 -32v-37h-706v37q106 9 106 58q0 42 -92 158l-311 391l-50 -42v-370q0 -83 3 -100q10 -52 55 -76q34 -19 109 -19v-37h-684v37h45q105 0 135 69q11 26 11 126v892q0 83 -3 99q-9 51 -52 77q-34 19 -91 19h-45v37h675v-37
q-115 0 -146 -67q-12 -26 -12 -128v-422l503 407q105 85 105 136q0 38 -43 60q-22 11 -109 14v37h529v-37q-85 -6 -161 -56q-11 -7 -137 -108z" />
    <glyph glyph-name="L" unicode="L" horiz-adv-x="1366" 
d="M1293 476l-51 -476h-1204v37h45q105 0 135 69q11 26 11 126v892q0 83 -3 99q-9 51 -52 77q-34 19 -91 19h-45v37h723v-37h-59q-105 0 -136 -69q-11 -25 -11 -126v-864q0 -82 3 -100q11 -58 56 -75q23 -9 121 -9h113q203 0 305 158q52 82 99 242h41z" />
    <glyph glyph-name="M" unicode="M" horiz-adv-x="1933" 
d="M976 462l368 894h552v-37h-44q-105 0 -136 -68q-11 -24 -11 -125v-894q0 -83 3 -99q10 -52 53 -76q34 -20 91 -20h44v-37h-708v37h44q105 0 136 69q11 25 11 126v1005l-520 -1237h-24l-528 1228v-955q0 -103 5 -123q28 -113 193 -113v-37h-464v37h14q100 0 143 56
q21 27 31 73q2 9 2 102v858q0 82 -3 98q-10 51 -53 76q-34 19 -91 19h-43v37h554z" />
    <glyph glyph-name="N" unicode="N" horiz-adv-x="1479" 
d="M510 1356l669 -841v583q0 122 -35 165q-48 58 -161 56v37h448v-37q-70 -9 -96 -19q-46 -19 -65 -66q-17 -40 -17 -136v-1129h-34l-917 1129v-862q0 -199 176 -199h32v-37h-481v37q110 1 155 45.5t45 153.5v957l-29 36q-42 52 -73 69q-35 19 -98 21v37h481z" />
    <glyph glyph-name="O" unicode="O" horiz-adv-x="1593" 
d="M791 1375q336 0 527 -189q202 -201 202 -503q0 -258 -151 -454q-200 -260 -565 -260q-366 0 -566 248q-158 196 -158 465q0 302 206 504q193 189 505 189zM803 1311q-211 0 -300 -230q-62 -158 -62 -408q0 -347 122 -513q85 -116 238 -116q220 0 309 255q49 140 49 366
q0 465 -177 591q-78 55 -179 55z" />
    <glyph glyph-name="P" unicode="P" horiz-adv-x="1251" 
d="M553 614v-376q0 -84 4 -105q11 -56 58 -79q34 -17 126 -17v-37h-689v37q144 0 175 63q13 28 13 138v880q0 84 -4 104q-11 57 -57 80q-34 17 -127 17v37h591q224 0 363 -70q183 -92 183 -294q0 -138 -88 -233q-81 -88 -220 -121q-100 -24 -328 -24zM553 1278v-586
q33 -2 50 -2q254 0 254 297q0 291 -263 291h-41z" />
    <glyph glyph-name="Q" unicode="Q" horiz-adv-x="1593" 
d="M979 -12q92 -267 386 -267q40 0 85 8v-61q-151 -38 -270 -38q-190 0 -335 92.5t-218 265.5q-251 53 -400 245q-147 188 -147 447q0 310 207 510q204 197 515 197q310 0 514.5 -199t204.5 -508q0 -249 -148 -446q-154 -205 -394 -246zM801 1311q-206 0 -297 -230
q-63 -160 -63 -404q0 -348 123 -516q86 -117 237 -117q152 0 237 115q123 166 123 496q0 325 -77 472q-96 184 -283 184z" />
    <glyph glyph-name="R" unicode="R" horiz-adv-x="1479" 
d="M544 618v-380q0 -84 4 -104q11 -57 57 -80q34 -17 127 -17v-37h-694v37q144 0 175 63q13 28 13 138v880q0 84 -4 104q-11 57 -57 80q-34 17 -127 17v37h630q204 0 296 -18q165 -34 250 -141q72 -92 72 -215q0 -266 -301 -341l326 -459q64 -90 91 -111q40 -31 95 -34v-37
h-427l-437 618h-89zM544 1283v-594h57q118 0 178 16q93 25 139 102q39 66 39 173q0 303 -306 303h-107z" />
    <glyph glyph-name="S" unicode="S" horiz-adv-x="1139" 
d="M962 1387l11 -452h-41q-26 152 -128 260q-112 117 -260 117q-87 0 -150 -45q-71 -51 -71 -135q0 -92 114 -173q46 -33 217 -117q192 -95 275 -173q128 -120 128 -286q0 -185 -145 -304q-135 -111 -324 -111q-116 0 -264 62q-48 20 -79 20q-66 0 -102 -81h-37v512h37
q37 -182 144 -303q123 -140 296 -140q97 0 167 52q78 57 78 151q0 98 -103 179q-52 40 -184 105q-151 74 -219 121q-118 80 -171 177q-44 79 -44 174q0 171 125 283q121 107 294 107q66 0 128 -16q23 -6 111 -44q76 -33 98 -33q49 0 69 93h30z" />
    <glyph glyph-name="T" unicode="T" horiz-adv-x="1366" 
d="M1292 1356v-367h-36q-27 107 -57 159q-42 74 -121 112q-37 18 -133 18h-101v-1046q0 -82 3 -99q10 -51 54 -76q33 -20 91 -20h45v-37h-710v37h45q105 0 136 69q11 25 11 126v1046h-98q-137 0 -199 -58q-87 -81 -110 -231h-38v367h1218z" />
    <glyph glyph-name="U" unicode="U" horiz-adv-x="1479" 
d="M48 1356h700v-37h-35q-124 0 -150 -62q-13 -29 -13 -145v-664q0 -140 12 -190q23 -98 106 -149q63 -39 159 -39q221 0 304 186q38 87 38 303v553q0 150 -67 184q-45 23 -127 23v37h469v-37h-28q-115 0 -150 -92q-13 -34 -13 -115v-515q0 -220 -20 -300
q-35 -145 -165 -240q-122 -89 -333 -89q-176 0 -272 47q-135 66 -191 175q-48 96 -48 258v664q0 89 -3 107q-10 60 -55 84q-32 17 -118 16v37z" />
    <glyph glyph-name="V" unicode="V" horiz-adv-x="1479" 
d="M1458 1356v-37q-75 -12 -132 -79q-40 -47 -125 -235l-467 -1036h-33l-465 1078q-37 87 -75 175q-51 86 -145 97v37h650v-37h-22q-143 0 -143 -66q0 -29 62 -174l289 -675l268 601q70 157 70 209q0 63 -63 88q-43 17 -114 17v37h445z" />
    <glyph glyph-name="W" unicode="W" horiz-adv-x="2048" 
d="M2030 1356v-37q-73 -6 -110 -76q-15 -27 -63 -155l-425 -1119h-39l-336 874l-370 -874h-37l-446 1107q-59 147 -62 153q-47 83 -124 90v37h588v-37q-118 -3 -118 -70q0 -40 49 -161l266 -658l213 514l-56 144q-36 92 -49 118q-37 74 -79 96q-33 17 -96 17v37h657v-37
q-50 -1 -71 -4q-44 -7 -61 -30q-12 -17 -12 -38q0 -24 45 -141l247 -642l221 581q51 134 51 184q0 87 -135 90v37h352z" />
    <glyph glyph-name="X" unicode="X" horiz-adv-x="1479" 
d="M865 795l374 -555q71 -105 92 -129q61 -66 134 -74v-37h-661v37q125 9 125 68q0 17 -7 32q-14 29 -70 112l-198 293l-207 -253q-93 -114 -93 -156q0 -66 95 -90q24 -6 86 -6v-37h-521v37q89 13 140 48q68 46 187 192l269 328l-345 507q-84 123 -97 139q-47 56 -125 68v37
h673v-37h-34q-104 0 -104 -65q0 -22 7 -38l69 -104l168 -256l143 175q110 135 110 189q0 59 -60 86q-29 13 -90 13v37h499v-37q-103 -2 -172 -65q-26 -24 -130 -149z" />
    <glyph glyph-name="Y" unicode="Y" horiz-adv-x="1479" 
d="M1456 1356v-37q-67 -9 -103 -39q-42 -35 -158 -229l-294 -491v-328q0 -83 3 -99q9 -51 52 -76q32 -20 86 -20h76v-37h-761v37h71q58 0 95 21q26 15 41 48q11 25 11 126v272l-319 581q-74 135 -90 155q-61 78 -148 79v37h650v-37h-29q-106 0 -106 -53q0 -34 80 -181
l245 -449l244 409q91 153 91 199q0 67 -151 75v37h414z" />
    <glyph glyph-name="Z" unicode="Z" horiz-adv-x="1366" 
d="M1250 1356l-797 -1280h258q181 0 256 23q261 80 324 391h39l-55 -490h-1242l798 1282h-201q-117 0 -154 -7q-154 -29 -233 -154q-41 -64 -64 -162h-37l37 397h1071z" />
    <glyph glyph-name="bracketleft" unicode="[" horiz-adv-x="682" 
d="M214 -374v1730h402v-42h-45q-99 0 -122 -53q-12 -27 -12 -128v-1291q0 -95 4 -110q12 -46 49 -60q24 -10 81 -10h45v-36h-402z" />
    <glyph glyph-name="backslash" unicode="\" horiz-adv-x="569" 
d="M2 1387h126l447 -1418h-129z" />
    <glyph glyph-name="bracketright" unicode="]" horiz-adv-x="682" 
d="M469 1356v-1730h-402v38h45q100 0 123 53q11 27 11 127v1292q0 95 -4 110q-19 70 -130 70h-45v40h402z" />
    <glyph glyph-name="asciicircum" unicode="^" horiz-adv-x="1190" 
d="M147 666l411 718h82l404 -718h-159l-295 512l-290 -512h-153z" />
    <glyph glyph-name="underscore" unicode="_" 
d="M-19 -311h1062v-131h-1062v131z" />
    <glyph glyph-name="grave" unicode="`" horiz-adv-x="682" 
d="M38 1402h301l116 -347h-85z" />
    <glyph glyph-name="a" unicode="a" 
d="M585 138q-171 -151 -307 -151q-80 0 -133 52t-53 132q0 141 187 265q70 47 306 155v94q0 83 -3 101q-10 54 -52 81q-32 20 -72 20q-65 0 -107 -29q-26 -18 -26 -42q0 -21 28 -52q38 -43 38 -83q0 -53 -38.5 -85.5t-93.5 -32.5q-58 0 -101 34q-47 37 -47 93q0 83 70 151
q58 57 146 87q102 35 212 35q103 0 185 -42q95 -48 126 -137q14 -41 14 -193v-363q0 -89 20 -105q10 -8 23 -8q26 0 53 37l30 -24q-95 -141 -225 -141q-160 0 -180 151zM585 211v313q-219 -129 -219 -261q0 -46 33 -81q25 -27 70 -27q50 0 116 56z" />
    <glyph glyph-name="b" unicode="b" horiz-adv-x="1139" 
d="M431 1356v-515q118 122 258 122q103 0 189 -62q80 -58 125 -155q48 -104 48 -240q0 -142 -54 -263q-60 -135 -170 -205q-102 -66 -233 -66q-143 0 -251 102l-155 -101h-34v1189q0 81 -7 100q-19 54 -104 57v37h388zM431 752v-416q0 -127 6 -162q22 -132 145 -132
q107 0 149 144q24 86 24 310q0 353 -159 353q-86 0 -165 -97z" />
    <glyph glyph-name="c" unicode="c" horiz-adv-x="909" 
d="M832 241l31 -24q-130 -245 -374 -245q-191 0 -306 148q-105 136 -105 332q0 191 102 336q123 175 339 175q117 0 209 -58q107 -67 107 -178q0 -125 -125 -125q-129 0 -145 178q-10 113 -83 113q-48 0 -82 -51q-52 -77 -52 -236q0 -121 36 -234q42 -135 121 -198
q54 -43 130 -43q94 0 197 110z" />
    <glyph glyph-name="d" unicode="d" horiz-adv-x="1139" 
d="M978 1356v-1076q0 -106 6 -129q16 -62 109 -69v-33l-395 -77v148q-122 -148 -252 -148q-179 0 -283 160q-84 130 -84 319q0 320 195 451q90 61 194 61q124 0 230 -117v282q0 107 -9 129q-23 57 -126 57v42h415zM698 722q-74 142 -181 142q-83 0 -121 -129
q-24 -78 -24 -239q0 -304 97 -385q23 -19 63 -19q88 0 166 138v492z" />
    <glyph glyph-name="e" unicode="e" horiz-adv-x="909" 
d="M861 501h-513q9 -186 99 -294q69 -83 166 -83q115 0 214 154l34 -22q-139 -284 -381 -284q-208 0 -315 160q-86 129 -86 320q0 204 107 349q119 162 316 162q174 0 271 -150q81 -125 88 -312zM615 568q0 119 -6 165q-15 104 -66 147q-21 18 -56 18q-51 0 -85 -51
q-59 -90 -59 -244v-35h272z" />
    <glyph glyph-name="f" unicode="f" horiz-adv-x="682" 
d="M479 837v-649q0 -95 20 -118q32 -37 118 -34v-36h-551v36q105 2 126 52q10 24 10 100v649h-136v98h136v69l-1 47q-3 141 106 240q105 96 285 96q88 0 154 -30q88 -40 88 -118q0 -52 -43 -83q-39 -28 -92 -28q-42 0 -75 22q-38 24 -38 65q0 10 6 37q4 18 4 32q0 20 -12 31
q-17 15 -39 15q-69 0 -68 -101l2 -294h138v-98h-138z" />
    <glyph glyph-name="g" unicode="g" 
d="M669 924h315v-110h-179q92 -92 92 -202q0 -199 -206 -288q-96 -42 -170 -42q1 0 -33 2q-41 2 -87 3q-43 1 -74.5 -28.5t-31.5 -71.5q0 -83 117 -82l173 2q205 2 289 -46q113 -65 113 -197q0 -87 -53 -156t-136 -101q-128 -49 -297 -49q-283 0 -379 92q-45 44 -45 92
q0 101 163 144q-130 64 -130 178q0 155 221 247q-254 93 -254 314q0 154 126 250q116 88 274 88q93 0 192 -39zM496 901q-138 0 -138 -301q0 -260 133 -260q140 0 140 269q0 292 -135 292zM437 -138q-103 0 -135 -17q-57 -30 -57 -84q0 -134 281 -134q298 0 298 141
q0 64 -96 83q-55 11 -291 11z" />
    <glyph glyph-name="h" unicode="h" horiz-adv-x="1139" 
d="M451 1356v-541q141 148 274 148q80 0 145.5 -46t88.5 -121q20 -68 20 -228v-365q0 -90 10 -114q19 -45 91 -53v-36h-474v36q51 7 75 40q18 25 18 127v417q0 88 -1 102q-7 65 -38 90q-22 16 -49 16q-81 0 -160 -124v-501q0 -99 15 -125q20 -34 78 -42v-36h-474v36
q59 6 84 38q17 22 17 129v950q0 90 -10 114q-19 43 -91 52v37h381z" />
    <glyph glyph-name="i" unicode="i" horiz-adv-x="569" 
d="M294 1388q65 0 110 -45t45 -110q0 -64 -45.5 -109t-109.5 -45t-109 45t-45 109t45 109.5t109 45.5zM434 935v-741q0 -86 15 -114q22 -39 98 -44v-36h-505v36q62 2 92 36q20 23 20 122v546q0 86 -15 113q-22 40 -97 45v37h392z" />
    <glyph glyph-name="j" unicode="j" horiz-adv-x="682" 
d="M356 1387q64 0 108.5 -44t44.5 -108t-44.5 -109t-108.5 -45t-108.5 45t-44.5 109t44.5 108t108.5 44zM496 935v-968q0 -137 -17 -201q-55 -208 -296 -208q-97 0 -161 36q-79 45 -79 135q0 43 29.5 76t72.5 33q82 0 82 -90q0 -10 -1.5 -29t-1.5 -28q0 -69 57 -69
q56 0 56 77q0 16 -6 81q-11 116 -11 134l-3 237l1 630q1 64 -23 87t-89 30v37h390z" />
    <glyph glyph-name="k" unicode="k" horiz-adv-x="1139" 
d="M449 1356v-892l217 213q100 98 100 150q0 57 -108 71v37h419v-37q-78 -4 -155 -64q-24 -18 -126 -118l-102 -100l220 -322q135 -197 158 -220q35 -34 86 -38v-36h-483v36q61 0 61 38q0 23 -42 85l-185 271l-60 -59v-168q0 -90 11 -115q18 -44 91 -52v-36h-483v36
q59 6 84 38q17 22 17 129v950q0 90 -10 114q-19 43 -91 52v37h381z" />
    <glyph glyph-name="l" unicode="l" horiz-adv-x="569" 
d="M435 1356v-1162q0 -86 15 -114q22 -39 98 -44v-36h-505v36q62 2 92 36q20 23 20 122v968q0 85 -15 113q-22 39 -97 44v37h392z" />
    <glyph glyph-name="m" unicode="m" horiz-adv-x="1706" 
d="M457 935v-123q138 151 286 151q180 0 245 -170q151 170 307 170q183 0 235 -157q22 -69 22 -219v-383q0 -91 10 -115q18 -44 91 -53v-36h-483v36q57 5 84 44q18 26 18 124v402q0 178 -41 210q-22 16 -51 16q-86 0 -176 -126v-502q0 -100 17 -127q24 -37 88 -41v-36h-484
v36q74 4 92 62q7 24 7 106v402q0 96 -2 111q-7 72 -41 98q-24 18 -51 18q-83 0 -173 -127v-502q0 -86 11 -114q20 -47 90 -54v-36h-482v36q59 6 84 38q17 22 17 130v528q0 90 -10 114q-19 43 -91 52v37h381z" />
    <glyph glyph-name="n" unicode="n" horiz-adv-x="1139" 
d="M451 935v-121q138 149 280 149q183 0 231 -176q16 -59 16 -219v-364q0 -91 10 -115q18 -45 91 -53v-36h-473v36q53 7 76 44q16 25 16 124v416q0 87 -1 101q-7 67 -38 91q-22 16 -48 16q-86 0 -160 -123v-501q0 -85 9 -111q18 -48 83 -57v-36h-473v36q59 6 84 38
q17 22 17 130v528q0 90 -10 114q-19 43 -91 52v37h381z" />
    <glyph glyph-name="o" unicode="o" 
d="M510 963q126 0 229.5 -64.5t157.5 -177.5q54 -116 54 -254q0 -199 -101 -333q-122 -162 -337 -162q-203 0 -325 146q-114 138 -114 345q0 206 113 347q122 153 323 153zM514 892q-116 0 -135 -190q-12 -114 -12 -316q0 -108 14 -200q22 -145 129 -145q102 0 127 120
q20 95 20 384q0 266 -75 326q-26 21 -68 21z" />
    <glyph glyph-name="p" unicode="p" horiz-adv-x="1139" 
d="M431 95v-348q0 -113 47 -136q24 -12 94 -12v-37h-533v37q63 2 92 35q20 22 20 119v987q0 86 -15 113q-22 40 -97 45v37h392v-123q48 71 100 104q74 47 159 47q109 0 196 -71q79 -66 120 -173q44 -115 44 -247q0 -312 -177 -438q-87 -62 -193 -62q-142 0 -249 123z
M431 196q86 -122 184 -122q141 0 141 377q0 390 -159 390q-101 0 -166 -146v-499z" />
    <glyph glyph-name="q" unicode="q" horiz-adv-x="1139" 
d="M697 98q-60 -63 -114 -90q-71 -36 -146 -36q-176 0 -278 157q-81 125 -81 299q0 141 57 264q62 134 174 204q107 67 227 67q161 0 250 -109l157 109h34v-1211q0 -92 16 -115q26 -37 105 -38v-37h-540v37q105 0 129 51q10 23 10 94v354zM697 189v385q0 125 -7 164
q-15 91 -75 139q-24 19 -61 19q-184 0 -184 -450q0 -361 158 -361q88 0 169 104z" />
    <glyph glyph-name="r" unicode="r" horiz-adv-x="909" 
d="M457 935v-212q154 240 298 240q123 0 123 -132q0 -57 -26 -96q-31 -45 -85 -45q-46 0 -77 24t-61 48q-10 6 -23 6q-29 0 -55 -22q-41 -35 -62 -97q-32 -97 -32 -214l1 -271q1 -60 7 -73q22 -50 115 -55v-36h-505v36q76 6 95 59q9 26 9 125v517q0 80 -8 102q-18 51 -96 59
v37h382z" />
    <glyph glyph-name="s" unicode="s" horiz-adv-x="797" 
d="M660 961l15 -319h-34q-106 246 -257 246q-39 0 -69 -26.5t-30 -64.5q0 -27 20 -52q41 -52 187 -148q138 -91 185 -161t47 -156q0 -81 -40 -155t-110 -113.5t-156 -39.5q-66 0 -179 42q-29 11 -41 11q-33 0 -55 -50h-33l-16 336h34q34 -101 100 -174q80 -90 172 -90
q45 0 77 28t32 73q0 58 -58 112q-18 16 -106 77q-152 105 -198 162q-66 82 -66 181q0 125 82 204t208 79q77 0 147 -37q28 -15 44 -15q30 0 64 50h34z" />
    <glyph glyph-name="t" unicode="t" horiz-adv-x="682" 
d="M440 1277v-342h222v-99h-222v-577q0 -117 34 -142q19 -15 35 -15q65 0 123 99l30 -22q-81 -192 -263 -192q-77 0 -141 43q-67 45 -88 117q-10 35 -10 184v505h-122v35q240 170 369 406h33z" />
    <glyph glyph-name="u" unicode="u" horiz-adv-x="1139" 
d="M972 935v-732q0 -90 10 -114q19 -45 91 -53v-36h-381v125q-128 -153 -284 -153q-74 0 -137 45.5t-86 116.5q-21 65 -21 227v371q0 90 -10 114q-19 43 -91 52v37h381v-639q0 -144 40 -173q20 -15 47 -15q73 0 161 124v500q0 90 -10 114q-19 43 -91 52v37h381z" />
    <glyph glyph-name="v" unicode="v" 
d="M491 -28l-315 725q-56 130 -89 166q-24 26 -68 35v37h497v-37q-46 0 -64 -17q-24 -23 -24 -52q0 -39 44 -139l154 -351l123 303q53 131 53 184q0 68 -102 72v37h306v-37q-61 -8 -101 -72q-12 -19 -55 -120l-312 -734h-47z" />
    <glyph glyph-name="w" unicode="w" horiz-adv-x="1479" 
d="M996 -28l-256 686l-251 -686h-52l-249 678q-57 155 -95 202q-26 32 -76 46v37h472v-37q-84 0 -84 -46q0 -17 32 -102l137 -365l132 365l-10 24q-27 66 -42 83q-26 32 -80 41v37h479v-37q-86 -5 -86 -51q0 -17 29 -97l132 -365l120 336q26 73 26 98q0 72 -93 79v37h277
v-37q-62 -8 -97 -66q-12 -21 -46 -117l-262 -743h-57z" />
    <glyph glyph-name="x" unicode="x" 
d="M622 573l162 -308q86 -163 133 -204q26 -23 74 -25v-36h-521v36q90 7 90 46q0 28 -32 88l-81 152l-69 -101q-48 -70 -53 -82q-8 -18 -8 -34q0 -45 36 -61q16 -8 60 -8v-36h-366v36q92 0 171 78q39 38 118 156l77 114l-161 298q-58 108 -79 135q-57 75 -126 81v37h518v-37
l-27 -1l-52 -18q-8 -7 -8 -23q0 -15 5 -31q4 -9 28 -54l73 -136l38 54q80 114 80 154q0 46 -80 55v37h331v-37q-121 -4 -233 -175z" />
    <glyph glyph-name="y" unicode="y" 
d="M498 -38l-302 693q-53 121 -66 143q-47 80 -113 100v37h497v-37q-89 -4 -89 -60q0 -36 50 -150l160 -366l109 283q59 153 59 210q0 79 -111 83v37h313v-37q-68 -7 -114 -95q-4 -8 -58 -148l-267 -693q-100 -258 -150 -320q-69 -84 -173 -84q-76 0 -129 42q-57 46 -57 120
q0 56 34 95t89 39q110 0 112 -131q1 -60 32 -60q24 0 51 29q37 40 94 192z" />
    <glyph glyph-name="z" unicode="z" horiz-adv-x="909" 
d="M835 0h-814v22l514 852h-150q-157 0 -207 -73q-26 -39 -54 -138h-35v272h787v-27l-510 -844h64q177 0 259 45q100 55 146 211h28z" />
    <glyph glyph-name="braceleft" unicode="{" horiz-adv-x="807" 
d="M720 1387v-45q-195 -37 -195 -188q0 -58 24 -170t24 -170q0 -156 -157 -259q-53 -35 -169 -66q125 -39 180 -77q148 -101 148 -251q0 -55 -24.5 -165t-24.5 -169q0 -156 194 -194v-47h-35q-99 0 -188 44q-94 46 -143 126q-47 76 -47 147q0 69 31 189q23 89 23 159
q0 173 -196 206v61q196 33 196 215q0 68 -22 153q-31 119 -31 181q0 143 137 241q59 42 129 61q55 15 146 18z" />
    <glyph glyph-name="bar" unicode="|" horiz-adv-x="451" 
d="M159 -442v1829h130v-1829h-130z" />
    <glyph glyph-name="braceright" unicode="}" horiz-adv-x="807" 
d="M91 -414v46q195 37 195 188q0 57 -24 169t-24 170q0 159 157 260q52 34 169 66q-124 39 -180 77q-149 101 -149 251q0 55 24.5 165t24.5 168q0 156 -193 195v46l35 1q95 3 187 -44q96 -48 145 -126q46 -76 46 -148q0 -68 -31 -188q-23 -89 -23 -159q0 -176 196 -206v-61
q-196 -32 -196 -215q0 -67 22 -153q30 -118 30 -181q0 -144 -136 -241q-59 -42 -129 -61q-55 -15 -146 -19z" />
    <glyph glyph-name="asciitilde" unicode="~" horiz-adv-x="1065" 
d="M1044 709h57q-5 -136 -68 -223q-72 -100 -201 -100q-91 0 -375 119q-146 61 -211 61q-144 0 -176 -179h-58q7 136 64 221q69 102 196 102q55 0 104 -14q103 -29 279 -105q101 -44 147 -56q29 -8 65 -8q158 0 177 182z" />
    <glyph glyph-name="exclamdown" unicode="&#xa1;" horiz-adv-x="682" 
d="M340 973q68 0 115 -47.5t47 -115.5q0 -67 -47.5 -114.5t-114.5 -47.5t-114.5 47.5t-47.5 114.5q0 68 47 115.5t115 47.5zM319 505h45q6 -112 45 -276l52 -218q47 -197 47 -281q0 -76 -45 -124t-121 -48q-73 0 -120 48t-47 121q0 78 50 284l53 218q28 115 41 276z" />
    <glyph glyph-name="cent" unicode="&#xa2;" 
d="M880 243l32 -23q-134 -248 -383 -248q-87 0 -168 43l-153 -392h-69l164 431q-175 145 -175 402q0 200 111 345q120 158 314 158q39 0 94 -4l150 393h72l-158 -413q172 -66 172 -208q0 -55 -33.5 -90t-88.5 -35q-100 0 -137 105l-159 -418q87 -157 215 -157q110 0 200 111
zM602 839q-32 55 -72 55q-46 0 -82 -52q-52 -76 -52 -218q0 -104 33 -241z" />
    <glyph glyph-name="sterling" unicode="&#xa3;" 
d="M534 783h219v-152h-206q2 -51 2 -77q0 -146 -49 -294q106 -24 218 -24q182 0 223 109h41q0 -155 -75 -258q-83 -115 -233 -115q-113 0 -253 116q-86 -116 -204 -116q-74 0 -128 46.5t-54 119.5q0 84 65 134q60 45 146 45q47 0 100 -17q-6 74 -16 106l-71 225h-217v152
h185q-15 111 -15 171q0 162 93 287q112 151 290 151q112 0 204 -66q101 -73 101 -181q0 -60 -35.5 -99t-95.5 -39q-62 0 -98 38t-36 100q0 11 2 51q1 20 1 34q0 95 -81 95q-83 0 -83 -120q0 -76 25 -210q30 -162 35 -212zM333 163q-66 48 -119 48q-99 0 -99 -80
q0 -33 26 -55t60 -22q87 0 132 109z" />
    <glyph glyph-name="currency" unicode="&#xa4;" 
d="M779 1027l138 135l89 -87l-140 -140q87 -122 87 -260q0 -135 -87 -265l129 -128l-92 -91l-130 129q-136 -85 -263 -85q-133 0 -263 85l-133 -129l-88 91l131 128q-88 117 -88 261q0 156 88 264l-136 135l93 92l133 -135q124 90 261 90q134 0 271 -90zM510 987
q-130 0 -221.5 -91t-91.5 -221t91.5 -221.5t221.5 -91.5q131 0 222 91t91 222q0 130 -91.5 221t-221.5 91z" />
    <glyph glyph-name="yen" unicode="&#xa5;" 
d="M701 617h321v-76h-348l-13 -40v-136h361v-76h-361v-44q0 -92 8 -118q28 -90 154 -90h36v-37h-710v37h34q141 0 172 73q13 32 13 139v40h-368v76h368v136l-14 40h-354v76h327l-183 509q-43 120 -80 159q-22 23 -64 27v44h493v-44q-99 -2 -99 -46q0 -21 29 -101l199 -548
l164 475q39 113 39 162q0 55 -96 58v44h293v-44q-61 -17 -99 -78q-20 -33 -50 -120z" />
    <glyph glyph-name="brokenbar" unicode="&#xa6;" horiz-adv-x="451" 
d="M159 657v730h130v-730h-130zM159 -442v731h130v-731h-130z" />
    <glyph glyph-name="section" unicode="&#xa7;" 
d="M306 807q-152 135 -152 271q0 139 117 228q107 81 250 81q120 0 219 -59q117 -70 117 -183q0 -52 -31.5 -87t-83.5 -35q-46 0 -78.5 29.5t-32.5 75.5q0 16 6 48.5t6 48.5q0 95 -124 95q-66 0 -119 -41q-58 -44 -58 -108q0 -63 41 -117q43 -57 189 -148q360 -224 360 -447
q0 -172 -215 -320q151 -146 151 -281q0 -180 -171 -260q-85 -40 -196 -40q-126 0 -218 56q-110 66 -110 185q0 51 33.5 86.5t84.5 35.5q44 0 78.5 -30t34.5 -73q0 -20 -12.5 -58.5t-12.5 -58.5q0 -73 123 -73q73 0 125 34q60 40 60 110q0 67 -33 111q-44 58 -190 147
q-181 111 -287 237q-85 101 -85 197q0 171 214 343zM360 763q-95 -82 -95 -173q0 -49 29 -99q34 -59 98 -107l274 -204q97 90 97 174q0 104 -133 209q-43 34 -270 200z" />
    <glyph glyph-name="dieresis" unicode="&#xa8;" horiz-adv-x="682" 
d="M529 1368q56 0 94.5 -38.5t38.5 -94.5q0 -55 -39 -94t-94 -39t-94 39t-39 94t39 94t94 39zM155 1368q56 0 94.5 -38.5t38.5 -94.5q0 -55 -39 -94t-94 -39t-94 39t-39 94t39 94t94 39z" />
    <glyph glyph-name="copyright" unicode="&#xa9;" horiz-adv-x="1530" 
d="M768 1387q189 0 356 -95t259 -258q95 -171 95 -356q0 -190 -96 -357t-261 -258q-169 -94 -353 -94q-190 0 -356.5 95.5t-258.5 260.5q-94 169 -94 353q0 191 97.5 359.5t263.5 258.5q170 91 348 91zM768 1298q-165 0 -311 -83.5t-225 -225.5q-84 -150 -84 -311
q0 -166 84 -312t228 -226q148 -82 308 -82q166 0 312 84t227 229.5t81 306.5q0 167 -85 314.5t-229 225.5q-149 80 -306 80zM1103 1106v-264h-38q-19 96 -83 155q-67 61 -163 61q-138 0 -205 -119q-53 -95 -53 -245q0 -374 253 -374q148 0 261 138v-70q-121 -127 -318 -127
q-185 0 -303 111.5t-118 295.5q0 191 124 315t316 124q87 0 197 -40q33 -12 46 -12q40 0 46 51h38z" />
    <glyph glyph-name="ordfeminine" unicode="&#xaa;" horiz-adv-x="614" 
d="M366 889q-110 -91 -198 -91q-52 0 -87 31t-35 82q0 52 43 97q56 59 277 153v56q0 87 -34 109q-21 13 -50 13q-40 0 -69 -19q-16 -11 -16 -24q0 -11 19 -31q24 -25 24 -49q0 -72 -85 -72q-37 0 -65 20q-31 22 -31 58q0 56 59 100q82 62 209 62q167 0 206 -92
q15 -36 15 -131v-218q0 -53 13 -63q6 -5 15 -5q17 0 34 22l20 -14q-63 -85 -147 -85q-103 0 -117 91zM366 933v187q-77 -41 -117 -92q-25 -32 -25 -62q0 -67 66 -67q34 0 76 34z" />
    <glyph glyph-name="guillemotleft" unicode="&#xab;" 
d="M910 8l-419 461l424 458h72l-235 -458l235 -461h-77zM459 8l-423 461l423 458h79l-239 -453l239 -466h-79z" />
    <glyph glyph-name="logicalnot" unicode="&#xac;" horiz-adv-x="1167" 
d="M41 902h1094v-455h-129v329l-965 -2v128z" />
    <glyph glyph-name="registered" unicode="&#xae;" horiz-adv-x="1530" 
d="M768 1387q189 0 356 -95t259 -258q95 -171 95 -356q0 -190 -96 -357t-261 -258q-169 -94 -353 -94q-190 0 -356.5 95.5t-258.5 260.5q-94 169 -94 353q0 191 97.5 359.5t263.5 258.5q170 91 348 91zM768 1298q-165 0 -311 -83.5t-225 -225.5q-84 -150 -84 -311
q0 -166 84 -312t228 -226q148 -82 308 -82q166 0 312 84t227 229.5t81 306.5q0 167 -85 314.5t-229 225.5q-149 80 -306 80zM389 1090h362q183 0 254 -44q101 -63 101 -175q0 -157 -179 -207l137 -250q29 -53 62 -81q15 -13 43 -18v-34h-242l-205 368h-46v-198
q0 -80 20 -105q23 -28 100 -31v-34h-423v34q62 0 80 21q25 29 25 115v472q0 71 -11 93q-17 33 -78 40v34zM676 700q34 -5 57 -5q72 0 117 55q41 51 41 125q0 171 -177 171h-38v-346z" />
    <glyph glyph-name="overscore" unicode="&#xaf;" 
d="M-19 1593h1062v-131h-1062v131z" />
    <glyph glyph-name="degree" unicode="&#xb0;" horiz-adv-x="819" 
d="M405 1384q92 0 173.5 -46.5t126.5 -125.5q46 -84 46 -174q0 -144 -101 -245t-245 -101t-245 101t-101 245q0 93 47.5 175.5t129.5 126.5t169 44zM405 1254q-90 0 -152.5 -62.5t-62.5 -152.5t62.5 -152.5t152.5 -62.5t152.5 62.5t62.5 152.5t-62.5 152.5t-152.5 62.5z" />
    <glyph glyph-name="plusminus" unicode="&#xb1;" horiz-adv-x="1124" 
d="M16 744h481v480h131v-480h481v-132h-481l1 -344h480v-132h-1093l-1 131h482v345h-481v132z" />
    <glyph glyph-name="twosuperior" unicode="&#xb2;" horiz-adv-x="614" 
d="M519 664h-495v18q164 170 191 203q118 145 118 246q0 52 -34 86t-86 34q-85 0 -134 -82l-42 13q64 202 258 202q87 0 155 -47q77 -53 77 -136q0 -141 -295 -390h152q62 0 75 4q31 9 52 48q6 11 8 14h46z" />
    <glyph glyph-name="threesuperior" unicode="&#xb3;" horiz-adv-x="614" 
d="M175 1013v27q86 21 110 41q46 39 46 90q0 45 -33.5 71.5t-79.5 26.5q-76 0 -134 -79l-41 14q90 180 269 180q76 0 136 -38q69 -43 69 -116q0 -83 -97 -135q134 -63 134 -180q0 -127 -112 -202q-98 -64 -231 -64q-196 0 -196 88q0 63 78 63q20 0 43 -9q17 -7 79 -50
q46 -33 88 -33q41 0 67.5 29.5t26.5 70.5q0 161 -222 205z" />
    <glyph glyph-name="acute" unicode="&#xb4;" horiz-adv-x="682" 
d="M645 1402l-331 -347h-86l116 347h301z" />
    <glyph glyph-name="mu1" unicode="&#xb5;" horiz-adv-x="1180" 
d="M152 935h278v-694q0 -132 85 -132q90 0 165 121v705h277l1 -678q3 -134 68 -134q62 0 76 144h43q-4 -125 -67 -206q-70 -89 -191 -89q-152 0 -200 157q-142 -157 -291 -157q-71 0 -149 56q0 -93 35 -218q24 -85 24 -119q0 -132 -119 -132q-108 0 -108 117q0 44 24 138
q49 192 49 445v676z" />
    <glyph glyph-name="paragraph" unicode="&#xb6;" horiz-adv-x="1106" 
d="M639 1280v-1722h-100v871q-362 16 -477 227q-61 110 -61 247q0 179 105 296q102 114 242 139q99 18 321 18h440v-44h-44q-103 0 -134 -70q-11 -25 -11 -133v-1551h-99v1722h-182z" />
    <glyph glyph-name="middot" unicode="&#xb7;" horiz-adv-x="683" 
d="M571 838q55 0 93.5 -38t38.5 -93t-38.5 -93.5t-93.5 -38.5t-93.5 38.5t-38.5 93.5t38.5 93t93.5 38z" />
    <glyph glyph-name="cedilla" unicode="&#xb8;" horiz-adv-x="682" 
d="M343 12h66l-47 -73q123 -21 123 -145q0 -51 -31 -95t-79 -60q-74 -25 -230 -24v47q171 7 171 111q0 70 -91 70z" />
    <glyph glyph-name="onesuperior" unicode="&#xb9;" horiz-adv-x="614" 
d="M414 1384v-573q0 -67 7 -85q12 -30 81 -30h30v-32h-446v32h33q78 0 90 28q9 21 9 87v359q0 63 -19 75q-11 7 -28 7q-28 0 -79 -20l-18 31l305 121h35z" />
    <glyph glyph-name="ordmasculine" unicode="&#xba;" horiz-adv-x="676" 
d="M339 1384q129 0 208 -84t79 -213q0 -130 -76 -213q-79 -85 -208 -85q-128 0 -207 83t-79 212q0 128 78 214t205 86zM343 1341q-67 0 -83 -73q-14 -65 -14 -235q0 -203 94 -203q66 0 82 72q13 57 13 227q0 93 -9 130q-19 82 -83 82z" />
    <glyph glyph-name="guillemotright" unicode="&#xbb;" 
d="M115 927l418 -461l-423 -458h-72l234 458l-234 461h77zM566 927l423 -461l-423 -458h-79l238 453l-238 466h79z" />
    <glyph glyph-name="onequarter" unicode="&#xbc;" horiz-adv-x="1536" 
d="M412 1384v-573q0 -67 7 -85q12 -30 81 -30h30v-32h-446v32h33q78 0 90 28q9 21 9 87v359q0 63 -19 75q-11 7 -28 7q-28 0 -79 -20l-18 31l305 121h35zM1340 1384l-963 -1443h-132l959 1443h136zM945 221l385 454h91v-454h74v-113h-74v-155h-180v155h-296v113zM1028 221
h213v249z" />
    <glyph glyph-name="onehalf" unicode="&#xbd;" horiz-adv-x="1536" 
d="M412 1384v-573q0 -67 7 -85q12 -30 81 -30h30v-32h-446v32h33q78 0 90 28q9 21 9 87v359q0 63 -19 75q-11 7 -28 7q-28 0 -79 -20l-18 31l305 121h35zM1316 1384l-963 -1443h-137l964 1443h136zM1439 -47h-495v19q165 171 191 202q118 145 118 246q0 52 -34 86t-86 34
q-85 0 -135 -82l-41 14q64 201 258 201q87 0 155 -46q77 -53 77 -136q0 -142 -295 -391h152q62 0 76 4q30 9 51 49q5 10 8 14h46z" />
    <glyph glyph-name="threequarters" unicode="&#xbe;" horiz-adv-x="1536" 
d="M173 1013v27q86 21 110 41q46 39 46 90q0 45 -33.5 71.5t-79.5 26.5q-76 0 -134 -79l-41 14q90 180 269 180q76 0 136 -38q69 -43 69 -116q0 -83 -97 -135q134 -63 134 -180q0 -127 -112 -202q-98 -64 -231 -64q-196 0 -196 88q0 63 78 63q20 0 43 -9q17 -7 79 -50
q46 -33 88 -33q41 0 67.5 29.5t26.5 70.5q0 161 -222 205zM1340 1384l-963 -1443h-132l959 1443h136zM945 221l385 454h91v-454h74v-113h-74v-155h-180v155h-296v113zM1028 221h213v249z" />
    <glyph glyph-name="questiondown" unicode="&#xbf;" 
d="M549 972q67 0 114 -47t47 -114t-47 -114t-114 -47t-114.5 47t-47.5 114q0 68 47 114.5t115 46.5zM538 503h41q2 -108 -11.5 -165t-64.5 -151q-85 -158 -85 -300q0 -101 36 -171q46 -88 139 -88q54 0 91 29q28 22 28 46q0 16 -19 50q-43 77 -43 132q0 50 33.5 82.5
t83.5 32.5q60 0 96 -41.5t36 -102.5q0 -144 -126 -227q-110 -71 -261 -71q-163 0 -272 75q-125 86 -125 242q0 116 77 209q54 65 176 145q95 63 127 112q35 54 43 162z" />
    <glyph glyph-name="Agrave" unicode="&#xc0;" horiz-adv-x="1479" 
d="M852 386h-479l-57 -132q-28 -65 -28 -109q0 -57 46 -84q27 -16 133 -24v-37h-451v37q89 13 150 98q30 41 86 167l485 1082h19l489 -1112q69 -157 115 -199q34 -31 96 -36v-37h-656v37h27q133 0 133 68q0 16 -6 37q-4 14 -30 75zM818 460l-202 467l-208 -467h410z" />
    <glyph glyph-name="Aacute" unicode="&#xc1;" horiz-adv-x="1354" 
d="M34 1356h1170v-368h-38q-38 203 -171 256q-62 24 -190 24h-248v-528h179q552 0 552 -374q0 -230 -233 -325q-101 -41 -294 -41h-727v37q118 2 153 28q44 33 44 143v928q0 117 -38.5 150t-158.5 33v37zM557 652v-409q0 -88 20 -125q28 -51 107 -51q116 0 179 82
q57 74 57 194q0 94 -43 173q-49 91 -131 116q-67 20 -189 20z" />
    <glyph glyph-name="Acircumflex" unicode="&#xc2;" horiz-adv-x="1366" 
d="M911 719q192 -45 271 -109q112 -91 112 -236q0 -154 -123 -253q-150 -121 -439 -121h-689v37q144 0 175 63q13 28 13 138v880q0 84 -4 104q-11 57 -57 80q-34 17 -127 17v37h650q178 0 267 -22q143 -36 216 -143q56 -83 56 -176q0 -215 -321 -296zM547 746q237 0 313 122
q36 58 36 148q0 173 -137 235q-66 30 -212 29v-534zM547 668l-1 -485q-2 -109 109 -109q177 0 251 139q36 67 36 150q0 91 -40 165q-45 80 -123.5 110.5t-231.5 29.5z" />
    <glyph glyph-name="Atilde" unicode="&#xc3;" horiz-adv-x="1303" 
d="M41 1356h1196v-368h-37q-41 231 -153 264q-54 16 -214 16h-276v-1054q0 -103 27 -137q31 -40 129 -40h35v-37h-707v37h38q95 0 126 42q26 35 26 135v936q0 95 -26 129q-30 40 -121 40h-43v37z" />
    <glyph glyph-name="Adieresis" unicode="&#xc4;" horiz-adv-x="1409" 
d="M250 1356h1121v-37q-118 -4 -153 -33q-40 -33 -40 -146v-906q0 -75 7 -102q14 -50 64 -73q44 -22 122 -22v-433h-37q-13 188 -136 294q-119 102 -310 102h-369q-203 0 -328 -96q-133 -103 -154 -300h-37v433q460 91 460 1095q0 118 -46 155q-40 31 -164 32v37zM888 1268
h-341v-116q0 -555 -123 -840q-57 -133 -152 -224h483q90 0 106 9q27 15 27 92v1079z" />
    <glyph glyph-name="Aring" unicode="&#xc5;" horiz-adv-x="1366" 
d="M558 1278v-552h27q135 0 198 97q48 73 63 223h38v-710h-38q-24 231 -140 290q-51 25 -148 25v-382q0 -89 1 -97q7 -58 44 -81q26 -16 84 -16h81q370 0 469 356h37l-61 -431h-1172v37h45q105 0 135 69q11 26 11 126v892q0 94 -5 113q-9 34 -37 54q-39 28 -104 28h-45v37
h1135v-401h-38q-25 128 -68 191q-53 79 -162 114q-57 18 -210 18h-140z" />
    <glyph glyph-name="AE" unicode="&#xc6;" horiz-adv-x="2025" 
d="M1359 1356v-37q-113 -1 -148 -28q-43 -32 -43 -139v-413q89 3 115 9q54 14 90 65q31 45 62 166q34 133 59 191q45 107 118 158q64 44 161 44q89 0 148 -49q64 -52 64 -139q0 -61 -36.5 -98t-97.5 -37q-115 0 -124 131q-5 66 -50 66q-76 0 -143 -233q-42 -147 -49 -165
q-39 -100 -97 -133q124 -40 183 -123q22 -31 114 -201l116 -213q44 -80 73 -105q42 -36 119 -36v-37h-422l-263 534q-35 70 -50 85q-26 24 -90 27v-438q0 -73 5 -92q11 -38 58 -63q28 -16 128 -16v-37h-693v37q142 0 173 53q17 29 17 111v445q-59 -1 -84 -21
q-18 -15 -48 -76l-271 -549h-422v37q113 0 194 127q57 114 114 227q85 161 114 199q69 89 183 125q-58 33 -96 134q-5 13 -49 164q-67 233 -144 233q-44 0 -49 -66q-10 -131 -124 -131q-61 0 -98 37.5t-37 98.5q0 86 64 138q60 49 148 49q182 0 263 -166q36 -74 75 -227
q37 -144 79 -187q52 -53 188 -53v413q0 104 -44 138q-37 29 -146 29v37h693z" />
    <glyph glyph-name="Ccedilla" unicode="&#xc7;" horiz-adv-x="1081" 
d="M107 970v417h37q11 -72 55 -72q19 0 70 20q132 52 254 52q171 0 294 -82q141 -94 141 -258q0 -148 -124 -244q-68 -53 -217 -92q169 -28 271 -108q122 -97 122 -254q0 -112 -66 -202q-63 -85 -169 -130q-115 -48 -290 -48q-155 0 -250 39q-110 44 -194 158l42 42
q139 -150 292 -150q128 0 201 84q70 80 70 210q0 87 -38 160q-44 83 -119 111q-65 23 -193 26v88q35 -1 58 -1q257 0 257 304q0 112 -44 182q-52 83 -158 83q-127 0 -196 -109q-55 -88 -62 -226h-44z" />
    <glyph glyph-name="Egrave" unicode="&#xc8;" horiz-adv-x="1593" 
d="M1036 1132q-1 109 -23 143q-30 44 -131 44h-45v37h727v-37h-47q-101 0 -132 -47q-23 -36 -23 -147v-892q0 -112 23 -148q30 -48 132 -48h47v-37h-727v37h45q101 0 132 49q22 36 22 147v736l-478 -750q0 -105 24 -139q31 -43 130 -43h47v-37h-727v37h45q101 0 132 49
q23 36 23 147v892q0 119 -20 150q-27 44 -135 44h-45v37h727v-37h-47q-98 0 -130 -50q-24 -38 -24 -144v-743z" />
    <glyph glyph-name="Eacute" unicode="&#xc9;" horiz-adv-x="1593" 
d="M794 1487q-389 0 -389 189q0 42 29 68.5t71 26.5q81 0 124 -104t160 -104q71 0 107.5 22.5t66.5 85.5q47 99 125 99q101 0 101 -101q0 -182 -395 -182zM1036 1132q-1 109 -23 143q-30 44 -131 44h-45v37h727v-37h-47q-101 0 -132 -47q-23 -36 -23 -147v-892
q0 -112 23 -148q30 -48 132 -48h47v-37h-727v37h45q101 0 132 49q22 36 22 147v736l-478 -750q0 -105 24 -139q31 -43 130 -43h47v-37h-727v37h45q101 0 132 49q23 36 23 147v892q0 119 -20 150q-27 44 -135 44h-45v37h727v-37h-47q-98 0 -130 -50q-24 -38 -24 -144v-743z
" />
    <glyph glyph-name="Ecircumflex" unicode="&#xca;" horiz-adv-x="1485" 
d="M42 1356h706v-37h-23q-99 0 -133 -37t-34 -138v-405q124 0 141 2q78 11 119 63q36 45 69 175q34 134 59 191q45 107 118 158q64 44 161 44q89 0 148 -49q64 -53 64 -140q0 -60 -38 -97t-98 -37q-114 0 -123 132q-4 66 -46 66q-81 0 -146 -234q-35 -124 -49 -161
q-36 -94 -87 -141q105 -26 161 -109q11 -17 120 -211l138 -246q61 -108 184 -108v-37h-454l-279 520q-43 80 -60 96q-30 29 -102 32v-459q0 -99 47 -129q36 -23 143 -23v-37h-706v37q113 2 149 32q41 34 41 142v907q0 114 -24 152q-32 49 -137 49h-29v37z" />
    <glyph glyph-name="Edieresis" unicode="&#xcb;" horiz-adv-x="1526" 
d="M1468 1319q-103 0 -137 -31q-37 -34 -37 -134v-943q0 -109 34 -140.5t145 -33.5v-37h-684v37q136 0 164 58q15 31 15 110v1063h-326v-405q0 -252 -6 -326q-15 -185 -75 -313q-114 -240 -343 -240q-88 0 -144 45q-62 49 -62 134q0 144 128 144q115 0 127 -143
q5 -64 50 -64q88 0 158 120q54 93 70 197q23 148 23 429v256q0 87 -5 112q-12 66 -60 87q-39 16 -138 18v37h1103v-37z" />
    <glyph glyph-name="Igrave" unicode="&#xcc;" horiz-adv-x="1933" 
d="M976 462l368 894h552v-37h-44q-105 0 -136 -68q-11 -24 -11 -125v-894q0 -83 3 -99q10 -52 53 -76q34 -20 91 -20h44v-37h-708v37h44q105 0 136 69q11 25 11 126v1005l-520 -1237h-24l-528 1228v-955q0 -103 5 -123q28 -113 193 -113v-37h-464v37h14q100 0 143 56
q21 27 31 73q2 9 2 102v858q0 82 -3 98q-10 51 -53 76q-34 19 -91 19h-43v37h554z" />
    <glyph glyph-name="Iacute" unicode="&#xcd;" horiz-adv-x="1593" 
d="M560 652v-420q0 -82 3 -99q10 -51 54 -76q33 -20 90 -20h45v-37h-709v37h45q105 0 135 69q11 26 11 126v892q0 83 -3 99q-9 51 -52 77q-34 19 -91 19h-45v37h709v-37h-45q-105 0 -136 -69q-11 -25 -11 -126v-384h479v384q0 83 -3 99q-10 52 -53 77q-34 19 -91 19h-44v37
h708v-37h-44q-58 0 -95 -21q-26 -15 -41 -48q-11 -25 -11 -126v-892q0 -83 3 -99q10 -52 53 -76q34 -20 91 -20h44v-37h-708v37h44q58 0 95 21q26 15 41 48q11 25 11 126v420h-479z" />
    <glyph glyph-name="Icircumflex" unicode="&#xce;" horiz-adv-x="1593" 
d="M791 1375q336 0 527 -189q202 -201 202 -503q0 -258 -151 -454q-200 -260 -565 -260q-366 0 -566 248q-158 196 -158 465q0 302 206 504q193 189 505 189zM803 1311q-211 0 -300 -230q-62 -158 -62 -408q0 -347 122 -513q85 -116 238 -116q220 0 309 255q49 140 49 366
q0 465 -177 591q-78 55 -179 55z" />
    <glyph glyph-name="Idieresis" unicode="&#xcf;" horiz-adv-x="1593" 
d="M846 0v37h43q99 0 128 51q19 34 19 145v1035h-479v-1035q0 -113 21 -148q30 -48 131 -48h41v-37h-709v37h43q99 0 128 50q19 34 19 146v891q0 111 -20 145q-28 50 -127 50h-43v37h1513v-37h-36q-101 0 -132 -48q-24 -37 -24 -147v-891q0 -114 24 -150q31 -46 136 -46h32
v-37h-708z" />
    <glyph glyph-name="Eth" unicode="&#xd0;" horiz-adv-x="1251" 
d="M553 614v-376q0 -84 4 -105q11 -56 58 -79q34 -17 126 -17v-37h-689v37q144 0 175 63q13 28 13 138v880q0 84 -4 104q-11 57 -57 80q-34 17 -127 17v37h591q224 0 363 -70q183 -92 183 -294q0 -138 -88 -233q-81 -88 -220 -121q-100 -24 -328 -24zM553 1278v-586
q33 -2 50 -2q254 0 254 297q0 291 -263 291h-41z" />
    <glyph glyph-name="Ntilde" unicode="&#xd1;" horiz-adv-x="1479" 
d="M1367 1387v-470h-39q-40 168 -151 270q-118 110 -285 110q-127 0 -233 -72.5t-155 -191.5q-63 -151 -63 -336q0 -409 190 -557q98 -77 254 -77q245 0 459 249v-117q-217 -226 -526 -226q-208 0 -371 80q-179 87 -274 257q-92 163 -92 347q0 196 102 369t274 269t366 96
q143 0 302 -62q92 -36 117 -36q73 0 86 98h39z" />
    <glyph glyph-name="Ograve" unicode="&#xd2;" horiz-adv-x="1366" 
d="M1292 1356v-367h-36q-27 107 -57 159q-42 74 -121 112q-37 18 -133 18h-101v-1046q0 -82 3 -99q10 -51 54 -76q33 -20 91 -20h45v-37h-710v37h45q105 0 136 69q11 25 11 126v1046h-98q-137 0 -199 -58q-87 -81 -110 -231h-38v367h1218z" />
    <glyph glyph-name="Oacute" unicode="&#xd3;" horiz-adv-x="1503" 
d="M1031 1356h454v-37q-83 -7 -143 -85q-28 -35 -87 -151l-422 -828q-76 -150 -129 -203q-83 -83 -215 -83q-92 0 -153 49q-67 53 -67 142q0 58 39 97t97 39q59 0 85 -36q20 -27 29 -93q12 -86 71 -86q70 0 134 134l19 40l-485 881q-54 98 -93 131q-52 45 -147 52v37h676
v-37h-26q-118 0 -118 -56q0 -22 22 -62l339 -618l257 506q53 104 53 149q0 55 -74 72q-31 7 -116 9v37z" />
    <glyph glyph-name="Ocircumflex" unicode="&#xd4;" horiz-adv-x="1759" 
d="M529 1356h701v-37q-109 -2 -141 -25q-39 -29 -46 -130q193 0 307 -37q147 -48 249 -176q85 -107 85 -260q0 -258 -201 -383q-165 -103 -440 -103q0 -124 65 -149q32 -13 122 -19v-37h-701v37q111 3 146 31q42 33 42 137q-420 0 -572 242q-70 110 -70 244q0 141 83.5 260
t215.5 167q129 46 343 46q0 97 -47 129q-36 24 -141 26v37zM1043 279q106 0 164 31q65 35 105 127q42 96 42 265q0 280 -138 354q-62 33 -173 34v-811zM717 1090q-116 -4 -175 -38q-66 -40 -103 -142q-33 -91 -33 -233q0 -296 147 -365q66 -32 164 -33v811z" />
    <glyph glyph-name="Otilde" unicode="&#xd5;" horiz-adv-x="1479" 
d="M865 795l374 -555q71 -105 92 -129q61 -66 134 -74v-37h-661v37q125 9 125 68q0 17 -7 32q-14 29 -70 112l-198 293l-207 -253q-93 -114 -93 -156q0 -66 95 -90q24 -6 86 -6v-37h-521v37q89 13 140 48q68 46 187 192l269 328l-345 507q-84 123 -97 139q-47 56 -125 68v37
h673v-37h-34q-104 0 -104 -65q0 -22 7 -38l69 -104l168 -256l143 175q110 135 110 189q0 59 -60 86q-29 13 -90 13v37h499v-37q-103 -2 -172 -65q-26 -24 -130 -149z" />
    <glyph glyph-name="Odieresis" unicode="&#xd6;" horiz-adv-x="1593" 
d="M41 0v37h36q103 0 133 48q21 35 21 148v892q0 108 -21 144q-29 50 -126 50h-43v37h709v-37h-27q-108 0 -140 -43q-26 -35 -26 -151v-902q0 -100 17 -117.5t116 -17.5h200q107 0 124 13q22 17 22 117v907q0 109 -20 144q-29 50 -126 50h-44v37h690v-37h-27q-98 0 -127 -49
q-20 -35 -20 -145v-892q0 -109 20 -145q30 -51 127 -51h27v-433h-37q-76 396 -448 396h-1010z" />
    <glyph glyph-name="multiply" unicode="&#xd7;" horiz-adv-x="1503" 
d="M807 1356h653v-37q-119 0 -149 -19q-40 -27 -40 -135v-957q0 -65 4 -86q10 -46 47 -66q31 -18 93 -18q11 0 45 -1v-37h-705v37q73 2 97 6q58 12 78 51q16 31 16 93v438q-238 -123 -430 -123q-221 0 -286 134q-32 64 -32 188v317q0 109 -38 143.5t-148 34.5v37h652v-37
q-76 0 -108 -32.5t-32 -109.5v-364q0 -60 7 -84q12 -39 51.5 -64t101.5 -25q126 0 262 70v417q0 77 -3 95q-8 55 -44 78q-30 19 -92 19v37z" />
    <glyph glyph-name="Oslash" unicode="&#xd8;" horiz-adv-x="2249" 
d="M86 1319v37h618v-37h-24q-85 0 -109 -58q-13 -33 -13 -136v-917q0 -84 24 -104q20 -16 108 -16h126q104 0 122 12q24 17 24 108v917q0 104 -14 136q-24 58 -109 58h-23v37h618v-37h-24q-85 0 -109 -58q-13 -32 -13 -136v-895q0 -105 13 -121q17 -21 119 -21h159
q84 0 101 24q12 17 12 106v907q0 102 -14 136q-24 58 -109 58h-23v37h617v-37h-23q-85 0 -109 -58q-14 -33 -14 -136v-895q0 -105 13 -136q24 -57 110 -57h23v-37h-2077v37h23q90 0 113 63q10 29 10 144v881q0 103 -14 136q-24 58 -109 58h-23z" />
    <glyph glyph-name="Ugrave" unicode="&#xd9;" horiz-adv-x="2249" 
d="M86 0v37h23q90 0 113 63q10 29 10 144v881q0 103 -14 136q-24 58 -109 58h-23v37h618v-37h-24q-85 0 -109 -58q-13 -33 -13 -136v-917q0 -84 24 -104q20 -16 108 -16h126q104 0 122 12q24 17 24 108v917q0 104 -14 136q-24 58 -109 58h-23v37h618v-37h-24q-85 0 -109 -58
q-13 -32 -13 -136v-895q0 -105 13 -121q17 -21 119 -21h159q84 0 101 24q12 17 12 106v907q0 102 -14 136q-24 58 -109 58h-23v37h617v-37h-23q-85 0 -109 -58q-14 -33 -14 -136v-895q0 -105 13 -136q24 -57 110 -57h23v-433h-37q-21 117 -82 213q-70 112 -168 149
q-87 34 -222 34h-1568z" />
    <glyph glyph-name="Uacute" unicode="&#xda;" horiz-adv-x="1567" 
d="M770 740h179q551 0 551 -374q0 -230 -232 -325q-101 -41 -294 -41h-727v37q118 2 153 28q44 33 44 143v1060q-106 0 -162 -19q-78 -25 -123 -96.5t-48 -164.5h-37v368h892v-37q-157 0 -183 -67q-13 -34 -13 -123v-389zM770 652v-409q0 -88 20 -125q27 -51 106 -51
q116 0 180 82q57 74 57 194q0 94 -43 174q-49 90 -132 115q-67 20 -188 20z" />
    <glyph glyph-name="Ucircumflex" unicode="&#xdb;" horiz-adv-x="2011" 
d="M558 740h179q552 0 552 -374q0 -230 -233 -325q-101 -41 -294 -41h-727v37q118 2 153 28q44 33 44 143v901q0 137 -26 169q-31 39 -160 41v37h698v-37q-66 -1 -96 -8q-55 -13 -76 -52q-14 -25 -14 -124v-395zM558 652v-409q0 -88 20 -125q28 -51 107 -51q116 0 179 82
q57 74 57 194q0 94 -43 173q-49 91 -131 116q-67 20 -189 20zM1971 37v-37h-708v37h44q114 0 138 72q9 29 9 123v892q0 82 -2 96q-9 50 -48 77q-35 22 -97 22h-44v37h708v-37h-44q-114 0 -137 -71q-10 -30 -10 -124v-892q0 -82 2 -96q9 -50 49 -76q34 -23 96 -23h44z" />
    <glyph glyph-name="Udieresis" unicode="&#xdc;" horiz-adv-x="1354" 
d="M557 740h179q552 0 552 -374q0 -230 -233 -325q-101 -41 -294 -41h-727v37q118 2 153 28q44 33 44 143v901q0 137 -26 169q-31 39 -160 41v37h698v-37q-66 -1 -96 -8q-55 -13 -76 -52q-14 -25 -14 -124v-395zM557 652v-409q0 -88 20 -125q28 -51 107 -51q116 0 179 82
q57 74 57 194q0 94 -43 173q-49 91 -131 116q-67 20 -189 20z" />
    <glyph glyph-name="Yacute" unicode="&#xdd;" horiz-adv-x="1389" 
d="M107 1387v-436h36q30 159 139.5 256t268.5 97q209 0 314 -187q83 -146 90 -377h-543v-88h543q0 -594 -413 -594q-129 0 -222 52q-71 40 -177 149l-46 -40q109 -134 227 -192t288 -58q307 0 504 200t197 507q0 204 -93 371q-97 176 -274 263q-156 77 -318 77
q-133 0 -297 -60q-71 -26 -100 -26q-62 0 -88 86h-36z" />
    <glyph glyph-name="Thorn" unicode="&#xde;" horiz-adv-x="2306" 
d="M791 652h-234v-420q0 -81 3 -96q8 -50 49 -76q34 -23 95 -23h45v-37h-709v37h45q115 0 137 72q9 29 9 123v892q0 82 -2 96q-9 50 -48 77q-35 22 -96 22h-45v37h709v-37h-45q-114 0 -137 -71q-10 -30 -10 -124v-384h234q24 289 229 470q202 177 494 177q202 0 366 -89
q171 -94 264 -266q86 -160 86 -349q0 -313 -201.5 -513.5t-514.5 -200.5q-310 0 -509.5 187t-213.5 496zM1513 1311q-362 0 -362 -638q0 -247 62 -403q90 -226 298 -226q359 0 359 621q0 646 -357 646z" />
    <glyph glyph-name="germandbls" unicode="&#xdf;" horiz-adv-x="1479" 
d="M935 618v-380q0 -84 -4 -104q-11 -57 -57 -80q-34 -17 -127 -17v-37h694v37q-144 0 -175 63q-13 28 -13 138v880q0 84 4 104q11 57 57 80q34 17 127 17v37h-630q-204 0 -296 -18q-165 -34 -250 -141q-72 -92 -72 -215q0 -266 301 -341l-326 -459q-64 -90 -91 -111
q-40 -31 -95 -34v-37h427l437 618h89zM935 1283v-594h-57q-118 0 -178 16q-93 25 -139 102q-39 66 -39 173q0 303 306 303h107z" />
    <glyph glyph-name="agrave" unicode="&#xe0;" 
d="M585 138q-171 -151 -307 -151q-80 0 -133 52t-53 132q0 141 187 265q70 47 306 155v94q0 83 -3 101q-10 54 -52 81q-32 20 -72 20q-65 0 -107 -29q-26 -18 -26 -42q0 -21 28 -52q38 -43 38 -83q0 -53 -38.5 -85.5t-93.5 -32.5q-58 0 -101 34q-47 37 -47 93q0 83 70 151
q58 57 146 87q102 35 212 35q103 0 185 -42q95 -48 126 -137q14 -41 14 -193v-363q0 -89 20 -105q10 -8 23 -8q26 0 53 37l30 -24q-95 -141 -225 -141q-160 0 -180 151zM585 211v313q-219 -129 -219 -261q0 -46 33 -81q25 -27 70 -27q50 0 116 56z" />
    <glyph glyph-name="aacute" unicode="&#xe1;" 
d="M900 1387h34q-15 -112 -108 -193.5t-205 -81.5q-22 0 -66.5 3.5t-66.5 3.5q-161 0 -250 -125q-74 -104 -86 -276q129 245 358 245q202 0 325 -150q115 -140 115 -347q0 -212 -111 -348q-119 -146 -326 -146q-440 0 -440 591q0 203 50 384q64 230 191 328q112 87 337 87
q21 0 63 -2.5t63 -2.5q58 0 123 30zM512 893q-104 0 -133 -178q-11 -66 -11 -253q0 -200 8 -251q28 -170 138 -170q112 0 133 181q10 95 10 341q0 141 -16 204q-31 126 -129 126z" />
    <glyph glyph-name="acircumflex" unicode="&#xe2;" horiz-adv-x="1106" 
d="M73 935h516q144 0 240 -45q128 -60 128 -187q0 -155 -214 -209q289 -34 289 -242q0 -252 -438 -252h-521v37q68 7 87 35q15 22 15 95v557q0 97 -9 120q-18 48 -93 54v37zM469 518q238 7 238 177q0 174 -238 177v-354zM469 455v-307q0 -49 16 -67.5t64 -18.5
q88 0 145 60.5t57 148.5q0 111 -91 154q-64 30 -191 30z" />
    <glyph glyph-name="atilde" unicode="&#xe3;" horiz-adv-x="930" 
d="M72 37q65 4 86 39q18 27 18 97v594q0 67 -19 94q-22 32 -85 37v37h822v-244h-37q-23 112 -63 146.5t-153 34.5h-185v-705q0 -70 23.5 -99t92.5 -31v-37h-500v37z" />
    <glyph glyph-name="adieresis" unicode="&#xe4;" horiz-adv-x="1036" 
d="M963 935v-37q-103 0 -103 -124v-605q0 -69 17 -96q22 -34 86 -36v-283h-37q-23 246 -311 246h-271q-278 0 -307 -246h-37v283q143 11 216 290q50 194 50 397q0 136 -42 161q-21 12 -75 13v37h814zM581 872h-247v-147q0 -431 -158 -663h308q97 0 97 119v691z" />
    <glyph glyph-name="aring" unicode="&#xe5;" horiz-adv-x="909" 
d="M861 501h-513q9 -186 99 -294q69 -83 166 -83q115 0 214 154l34 -22q-139 -284 -381 -284q-208 0 -315 160q-86 129 -86 320q0 204 107 349q119 162 316 162q174 0 271 -150q81 -125 88 -312zM615 568q0 119 -6 165q-15 104 -66 147q-21 18 -56 18q-51 0 -85 -51
q-59 -90 -59 -244v-35h272z" />
    <glyph glyph-name="ae" unicode="&#xe6;" horiz-adv-x="1485" 
d="M501 0v37q62 1 85 41q17 29 17 98v279q-37 0 -65 -56l-198 -399h-328v37q42 0 63 16q17 14 38 56l130 263q36 73 79 101q39 24 124 37q-54 61 -98 206q-40 133 -75 133q-25 0 -29 -64q-9 -126 -96 -126q-109 0 -109 132q0 70 47.5 115t118.5 45q82 0 134 -69
q34 -45 67 -144q43 -126 61 -153q44 -67 136 -67v247q0 129 -102 133v37h484v-37q-68 -4 -88 -41q-14 -26 -14 -103v-236q101 0 141 77q18 36 62 163q66 193 195 193q70 0 118 -45.5t48 -114.5q0 -54 -28 -90q-30 -41 -82 -41q-96 0 -97 134q-1 55 -25 55q-40 0 -81 -140
q-43 -145 -94 -199q91 -13 130 -42.5t81 -113.5l122 -245q21 -42 38.5 -56t61.5 -16v-37h-328l-198 399q-27 55 -64 56v-298q0 -68 18 -90t84 -30v-37h-484z" />
    <glyph glyph-name="ccedilla" unicode="&#xe7;" horiz-adv-x="823" 
d="M499 503q126 -32 187 -80q81 -64 81 -176q0 -140 -125 -214q-104 -61 -254 -61q-250 0 -361 194l31 18q115 -113 234 -113q91 0 143 55t52 146q0 174 -207 186v63q181 0 181 185q0 80 -36 130q-41 56 -118 56q-151 0 -193 -221h-38l14 292h38q17 -40 42 -40q12 0 49 10
q111 30 190 30q124 0 209 -53q101 -63 101 -180q0 -171 -220 -227z" />
    <glyph glyph-name="egrave" unicode="&#xe8;" horiz-adv-x="1180" 
d="M633 0v37q90 0 90 134v458l-268 -458q1 -131 91 -134v-37h-476v37q105 0 105 144v577q0 140 -105 140v37h476v-37q-60 -2 -79 -43q-12 -27 -12 -97v-456l268 464q-2 132 -90 132v37h476v-37q-106 -2 -106 -127v-595q0 -73 17 -101q23 -38 89 -38v-37h-476z" />
    <glyph glyph-name="eacute" unicode="&#xe9;" horiz-adv-x="1180" 
d="M597 1080q-125 0 -220 34q-135 48 -135 151q0 97 88 97q79 0 117 -124q31 -100 137 -100q70 0 95 16q30 17 49 79q41 129 120 129q89 0 89 -97q0 -104 -127 -151q-89 -34 -213 -34zM633 0v37q90 0 90 134v458l-268 -458q1 -131 91 -134v-37h-476v37q105 0 105 144v577
q0 140 -105 140v37h476v-37q-60 -2 -79 -43q-12 -27 -12 -97v-456l268 464q-2 132 -90 132v37h476v-37q-106 -2 -106 -127v-595q0 -73 17 -101q23 -38 89 -38v-37h-476z" />
    <glyph glyph-name="ecircumflex" unicode="&#xea;" horiz-adv-x="1180" 
d="M71 935h476v-37q-63 -2 -81 -47q-10 -25 -10 -102v-230q107 0 154 38q40 32 79 138q46 126 87 176q63 80 169 80q78 0 134 -41q63 -46 63 -121q0 -56 -34.5 -95.5t-89.5 -39.5q-113 0 -115 116q-1 81 -35 81q-51 0 -103 -137q-37 -98 -43 -111q-27 -55 -70 -94
q101 -20 147 -54q43 -32 119 -155l89 -143q71 -114 147 -120v-37h-360l-278 455h-60v-260q0 -152 91 -158v-37h-476v37q66 1 89 43q16 30 16 104v552q0 80 -14 112q-23 50 -91 50v37z" />
    <glyph glyph-name="edieresis" unicode="&#xeb;" horiz-adv-x="1149" 
d="M579 0v37q115 2 115 130v705h-264v-409q0 -178 -8 -233q-20 -145 -99 -201q-63 -45 -134 -45q-72 0 -123 43q-54 46 -54 117q0 59 34.5 98.5t92.5 39.5q107 0 107 -130q0 -59 23 -59q92 0 92 370v272q0 79 -17 112q-24 48 -94 51v37h824v-37q-100 -2 -100 -126v-601
q0 -131 100 -134v-37h-495z" />
    <glyph glyph-name="igrave" unicode="&#xec;" horiz-adv-x="1395" 
d="M73 935h391l237 -580l237 580h381v-37q-61 -3 -84 -41q-17 -30 -17 -97v-581q0 -71 16 -100q22 -39 85 -42v-37h-493v37q66 1 92 40q20 31 20 102v599l-326 -778h-51l-316 767v-604q0 -65 22.5 -94t85.5 -32v-37h-280v37q103 4 103 133v597q0 126 -103 131v37z" />
    <glyph glyph-name="iacute" unicode="&#xed;" horiz-adv-x="1180" 
d="M70 0v37q65 0 88 40q17 30 17 102v574q0 76 -16 104q-22 41 -89 41v37h476v-37q-60 -2 -79 -40q-12 -25 -12 -95v-247h268v247q0 70 -11 95q-19 40 -79 40v37h475v-37q-105 0 -105 -124v-595q0 -76 16 -103q21 -37 89 -39v-37h-475v37q61 1 79 39q11 24 11 96v281h-268
v-274q0 -72 11 -99q19 -43 80 -43v-37h-476z" />
    <glyph glyph-name="icircumflex" unicode="&#xee;" 
d="M510 963q126 0 229.5 -64.5t157.5 -177.5q54 -116 54 -254q0 -199 -101 -333q-122 -162 -337 -162q-203 0 -325 146q-114 138 -114 345q0 206 113 347q122 153 323 153zM514 892q-116 0 -135 -190q-12 -114 -12 -316q0 -108 14 -200q22 -145 129 -145q102 0 127 120
q20 95 20 384q0 266 -75 326q-26 21 -68 21z" />
    <glyph glyph-name="idieresis" unicode="&#xef;" horiz-adv-x="1180" 
d="M1109 935v-37q-72 -8 -92 -47q-14 -27 -14 -109v-557q0 -78 15 -106q22 -40 91 -42v-37h-476v37q62 0 80 42q10 24 10 99v694h-268v-687q0 -78 10 -103q18 -45 81 -45v-37h-476v37q71 1 92 47q13 29 13 112v559q0 76 -15 104q-22 39 -90 39v37h1039z" />
    <glyph glyph-name="eth" unicode="&#xf0;" horiz-adv-x="1139" 
d="M431 95v-348q0 -113 47 -136q24 -12 94 -12v-37h-533v37q63 2 92 35q20 22 20 119v987q0 86 -15 113q-22 40 -97 45v37h392v-123q48 71 100 104q74 47 159 47q109 0 196 -71q79 -66 120 -173q44 -115 44 -247q0 -312 -177 -438q-87 -62 -193 -62q-142 0 -249 123z
M431 196q86 -122 184 -122q141 0 141 377q0 390 -159 390q-101 0 -166 -146v-499z" />
    <glyph glyph-name="ntilde" unicode="&#xf1;" horiz-adv-x="909" 
d="M832 241l31 -24q-130 -245 -374 -245q-191 0 -306 148q-105 136 -105 332q0 191 102 336q123 175 339 175q117 0 209 -58q107 -67 107 -178q0 -125 -125 -125q-129 0 -145 178q-10 113 -83 113q-48 0 -82 -51q-52 -77 -52 -236q0 -121 36 -234q42 -135 121 -198
q54 -43 130 -43q94 0 197 110z" />
    <glyph glyph-name="ograve" unicode="&#xf2;" horiz-adv-x="1006" 
d="M258 0v37q68 0 90 45q15 30 15 109v681h-93q-101 0 -141 -41q-34 -35 -55 -140h-37v244h932v-244h-37q-19 104 -53 140q-40 41 -141 41h-95v-681q0 -80 14 -109q22 -44 91 -45v-37h-490z" />
    <glyph glyph-name="oacute" unicode="&#xf3;" 
d="M498 -38l-302 693q-53 121 -66 143q-47 80 -113 100v37h497v-37q-89 -4 -89 -60q0 -36 50 -150l160 -366l109 283q59 153 59 210q0 79 -111 83v37h313v-37q-68 -7 -114 -95q-4 -8 -58 -148l-267 -693q-100 -258 -150 -320q-69 -84 -173 -84q-76 0 -129 42q-57 46 -57 120
q0 56 34 95t89 39q110 0 112 -131q1 -60 32 -60q24 0 51 29q37 40 94 192z" />
    <glyph glyph-name="ocircumflex" unicode="&#xf4;" horiz-adv-x="1417" 
d="M466 -438v37q74 2 93 47q10 24 10 116v291q-75 -81 -159 -81q-170 0 -258 172q-70 136 -70 323q0 180 72 321q90 175 254 175q95 0 161 -84v283q0 82 -12 109q-21 44 -91 48v37h383v-477q65 84 156 84q166 0 257 -174q74 -141 74 -322q0 -183 -71 -321
q-90 -174 -257 -174q-82 0 -159 81v-291q0 -88 11 -114q19 -47 91 -49v-37h-485zM569 135v663q-24 46 -67 46q-140 0 -140 -401q0 -360 137 -360q39 0 70 52zM849 798v-663q28 -52 72 -52q135 0 135 383q0 378 -144 378q-44 0 -63 -46z" />
    <glyph glyph-name="otilde" unicode="&#xf5;" 
d="M622 573l162 -308q86 -163 133 -204q26 -23 74 -25v-36h-521v36q90 7 90 46q0 28 -32 88l-81 152l-69 -101q-48 -70 -53 -82q-8 -18 -8 -34q0 -45 36 -61q16 -8 60 -8v-36h-366v36q92 0 171 78q39 38 118 156l77 114l-161 298q-58 108 -79 135q-57 75 -126 81v37h518v-37
l-27 -1l-52 -18q-8 -7 -8 -23q0 -15 5 -31q4 -9 28 -54l73 -136l38 54q80 114 80 154q0 46 -80 55v37h331v-37q-121 -4 -233 -175z" />
    <glyph glyph-name="odieresis" unicode="&#xf6;" horiz-adv-x="1180" 
d="M1109 37v-283h-38q-12 141 -107 199q-77 47 -230 47h-664v37q69 0 91 47q14 30 14 111v554q0 81 -14 108q-21 40 -91 41v37h476v-37q-63 -2 -80 -41q-11 -23 -11 -98v-548q0 -87 14 -112q20 -37 97 -37h54q71 0 91 37q12 24 12 107v543q0 79 -9 103q-18 46 -81 46v37h476
v-37q-65 -2 -88 -40q-18 -29 -18 -99v-568q0 -82 14 -110q21 -43 92 -44z" />
    <glyph glyph-name="divide" unicode="&#xf7;" horiz-adv-x="1155" 
d="M1077 935v-37q-63 -6 -83 -45q-15 -28 -15 -99v-553q0 -89 10 -112q17 -40 88 -52v-37h-478v37q74 11 91 50q9 21 9 114v235q-201 -64 -315 -64q-66 0 -127 30q-69 35 -89 92q-17 45 -17 124v126q0 84 -11 107q-18 38 -88 47v37h467v-37q-58 -9 -76 -48q-12 -26 -12 -96
v-136q0 -81 12 -108q21 -44 90 -44q58 0 166 31v247q0 77 -11 102q-17 41 -79 52v37h468z" />
    <glyph glyph-name="oslash" unicode="&#xf8;" horiz-adv-x="1729" 
d="M71 0v37q63 0 87 37q18 29 18 97v579q0 77 -15 105q-22 40 -90 43v37h471v-37q-56 -9 -74 -52q-12 -29 -12 -96v-589q0 -53 13 -73q16 -26 65 -26h102q54 0 72 23q16 19 16 76v574q0 77 -10 105q-18 48 -78 58v37h455v-37q-59 -9 -77 -55q-10 -27 -10 -101v-581
q0 -58 15 -77q17 -22 72 -22h95q54 0 71 21q15 18 15 74v585q0 75 -10 101q-17 45 -76 55v37h472v-37q-71 -2 -92 -45q-14 -28 -14 -111v-571q0 -69 19 -98q23 -36 87 -36v-37h-1587z" />
    <glyph glyph-name="ugrave" unicode="&#xf9;" horiz-adv-x="1729" 
d="M71 0v37q64 0 87 38q18 29 18 97v578q0 77 -15 105q-22 40 -90 43v37h471v-37q-56 -9 -74 -52q-12 -29 -12 -96v-589q0 -53 13 -73q16 -26 65 -26h102q54 0 72 23q16 19 16 76v574q0 77 -10 105q-18 48 -78 58v37h455v-37q-59 -9 -77 -55q-10 -27 -10 -101v-581
q0 -58 15 -77q17 -22 72 -22h95q54 0 71 21q15 18 15 74v585q0 75 -10 101q-17 45 -76 55v37h472v-37q-71 -2 -92 -45q-14 -28 -14 -111v-562q0 -73 17 -103q23 -40 89 -40v-283h-38q-23 246 -327 246h-1222z" />
    <glyph glyph-name="uacute" unicode="&#xfa;" horiz-adv-x="1194" 
d="M567 516h72q492 0 492 -262q0 -163 -203 -224q-97 -30 -234 -30h-506v37q64 9 84 49q15 29 15 102v684h-22q-91 0 -136 -46q-40 -41 -56 -135h-37v244h630v-37q-64 -10 -84 -52q-15 -29 -15 -103v-227zM567 453v-291q0 -100 77 -100q85 0 139 56.5t54 141.5
q0 193 -270 193z" />
    <glyph glyph-name="ucircumflex" unicode="&#xfb;" horiz-adv-x="1599" 
d="M1524 935v-37q-101 -7 -101 -136v-587q0 -131 101 -138v-37h-481v37q100 8 100 138v587q0 127 -100 136v37h481zM78 0v37q64 9 84 49q15 29 15 102v565q0 68 -17 98q-21 37 -82 47v37h478v-37q-65 -10 -85 -53q-14 -29 -14 -106v-223h72q492 0 492 -262q0 -144 -157 -208
q-111 -46 -279 -46h-507zM457 453v-291q0 -100 77 -100q85 0 139 56.5t54 141.5q0 193 -270 193z" />
    <glyph glyph-name="udieresis" unicode="&#xfc;" horiz-adv-x="1083" 
d="M77 0v37q64 9 84 49q15 29 15 102v565q0 68 -17 98q-21 37 -82 47v37h478v-37q-65 -10 -85 -53q-14 -29 -14 -106v-223h72q492 0 492 -262q0 -144 -157 -208q-111 -46 -279 -46h-507zM456 453v-291q0 -100 77 -100q85 0 139 56.5t54 141.5q0 193 -270 193z" />
    <glyph glyph-name="yacute" unicode="&#xfd;" horiz-adv-x="885" 
d="M110 963h-37l-14 -297h37q80 216 240 216q64 0 111 -45q44 -43 57.5 -108.5t13.5 -209.5h-214v-69h214q-1 -135 -8 -189q-16 -121 -71 -168q-46 -40 -126 -40q-119 0 -254 127l-31 -18q81 -100 146 -140q81 -50 193 -50q211 0 332 145q113 135 113 350q0 197 -109 340
q-119 156 -310 156q-66 0 -156 -27q-63 -19 -79 -19q-38 0 -48 46z" />
    <glyph glyph-name="thorn" unicode="&#xfe;" horiz-adv-x="1565" 
d="M616 516q21 194 128 315q118 132 306 132q205 0 327 -148q115 -139 115 -348t-113 -347q-121 -148 -325 -148q-201 0 -321 143q-111 132 -117 338h-160v-278q0 -131 100 -138v-37h-480v37q100 8 100 138v587q0 127 -100 136v37h480v-37q-100 -7 -100 -136v-246h160z
M1056 893q-108 0 -137 -171q-11 -62 -11 -248q0 -203 8 -255q28 -177 137 -177q111 0 138 191q7 49 7 270q0 178 -10 233q-28 157 -132 157z" />
    <glyph glyph-name="ydieresis" unicode="&#xff;" horiz-adv-x="1108" 
d="M1030 935v-37q-63 0 -84 -43q-14 -29 -14 -102v-533q0 -84 12 -118q20 -60 86 -65v-37h-477v37q99 5 99 168v217q-36 -2 -41 -2q-15 0 -47 2l-159 -422h-370v37q109 1 155 124l108 291q-212 66 -212 238q0 83 53 147t135 82q75 16 267 16h489zM652 858q-59 14 -99 14
q-82 0 -127 -49.5t-45 -131.5q0 -209 239 -209q11 0 32 1v375z" />
    <glyph glyph-name="Amacron" unicode="&#x100;" horiz-adv-x="1479" 
d="M852 386h-479l-57 -132q-28 -65 -28 -109q0 -57 46 -84q27 -16 133 -24v-37h-451v37q89 13 150 98q30 41 86 167l485 1082h19l489 -1112q69 -157 115 -199q34 -31 96 -36v-37h-656v37h27q133 0 133 68q0 16 -6 37q-4 14 -30 75zM818 460l-202 467l-208 -467h410z
M418 1671h642v-163h-642v163z" />
    <glyph glyph-name="amacron" unicode="&#x101;" 
d="M585 138q-171 -151 -307 -151q-80 0 -133 52t-53 132q0 141 187 265q70 47 306 155v94q0 83 -3 101q-10 54 -52 81q-32 20 -72 20q-65 0 -107 -29q-26 -18 -26 -42q0 -21 28 -52q38 -43 38 -83q0 -53 -38.5 -85.5t-93.5 -32.5q-58 0 -101 34q-47 37 -47 93q0 83 70 151
q58 57 146 87q102 35 212 35q103 0 185 -42q95 -48 126 -137q14 -41 14 -193v-363q0 -89 20 -105q10 -8 23 -8q26 0 53 37l30 -24q-95 -141 -225 -141q-160 0 -180 151zM585 211v313q-219 -129 -219 -261q0 -46 33 -81q25 -27 70 -27q50 0 116 56zM185 1254h642v-163h-642
v163z" />
    <glyph glyph-name="Abreve" unicode="&#x102;" horiz-adv-x="1479" 
d="M852 386h-479l-57 -132q-28 -65 -28 -109q0 -57 46 -84q27 -16 133 -24v-37h-451v37q89 13 150 98q30 41 86 167l485 1082h19l489 -1112q69 -157 115 -199q34 -31 96 -36v-37h-656v37h27q133 0 133 68q0 16 -6 37q-4 14 -30 75zM818 460l-202 467l-208 -467h410z
M974 1792h65q-6 -130 -87 -222q-86 -98 -214 -98q-127 0 -214 98q-82 92 -90 222h66q50 -127 230 -127q191 0 244 127z" />
    <glyph glyph-name="abreve" unicode="&#x103;" 
d="M585 138q-171 -151 -307 -151q-80 0 -133 52t-53 132q0 141 187 265q70 47 306 155v94q0 83 -3 101q-10 54 -52 81q-32 20 -72 20q-65 0 -107 -29q-26 -18 -26 -42q0 -21 28 -52q38 -43 38 -83q0 -53 -38.5 -85.5t-93.5 -32.5q-58 0 -101 34q-47 37 -47 93q0 83 70 151
q58 57 146 87q102 35 212 35q103 0 185 -42q95 -48 126 -137q14 -41 14 -193v-363q0 -89 20 -105q10 -8 23 -8q26 0 53 37l30 -24q-95 -141 -225 -141q-160 0 -180 151zM585 211v313q-219 -129 -219 -261q0 -46 33 -81q25 -27 70 -27q50 0 116 56zM758 1387h65
q-6 -130 -87 -222q-86 -98 -214 -98q-127 0 -214 98q-82 92 -90 222h66q50 -127 230 -127q191 0 244 127z" />
    <glyph glyph-name="Aogonek" unicode="&#x104;" horiz-adv-x="1479" 
d="M852 386h-479l-57 -132q-28 -65 -28 -109q0 -57 46 -84q27 -16 133 -24v-37h-451v37q89 13 150 98q30 41 86 167l485 1082h19l489 -1112q69 -157 115 -199q34 -31 96 -36v-37h-656v37h27q133 0 133 68q0 16 -6 37q-4 14 -30 75zM818 460l-202 467l-208 -467h410zM1139 17
h87q-95 -74 -95 -149q0 -59 39 -115t94 -82q59 -28 141 -29l29 -33q-51 -38 -84 -50q-56 -21 -116 -21q-106 0 -190 68q-89 72 -89 176q0 147 184 235z" />
    <glyph glyph-name="aogonek" unicode="&#x105;" 
d="M585 138q-171 -151 -307 -151q-80 0 -133 52t-53 132q0 141 187 265q70 47 306 155v94q0 83 -3 101q-10 54 -52 81q-32 20 -72 20q-65 0 -107 -29q-26 -18 -26 -42q0 -21 28 -52q38 -43 38 -83q0 -53 -38.5 -85.5t-93.5 -32.5q-58 0 -101 34q-47 37 -47 93q0 83 70 151
q58 57 146 87q102 35 212 35q103 0 185 -42q95 -48 126 -137q14 -41 14 -193v-363q0 -89 20 -105q10 -8 23 -8q26 0 53 37l30 -24q-95 -141 -225 -141q-160 0 -180 151zM585 211v313q-219 -129 -219 -261q0 -46 33 -81q25 -27 70 -27q50 0 116 56zM727 17h87
q-95 -74 -95 -149q0 -59 39 -115t94 -82q59 -28 141 -29l29 -33q-51 -38 -84 -50q-56 -21 -116 -21q-106 0 -190 68q-89 72 -89 176q0 147 184 235z" />
    <glyph glyph-name="Cacute" unicode="&#x106;" horiz-adv-x="1479" 
d="M1367 1387v-470h-39q-40 168 -151 270q-118 110 -285 110q-127 0 -233 -72.5t-155 -191.5q-63 -151 -63 -336q0 -409 190 -557q98 -77 254 -77q245 0 459 249v-117q-217 -226 -526 -226q-208 0 -371 80q-179 87 -274 257q-92 163 -92 347q0 196 102 369t274 269t366 96
q143 0 302 -62q92 -36 117 -36q73 0 86 98h39zM1111 1819l-331 -347h-86l116 347h301z" />
    <glyph glyph-name="cacute" unicode="&#x107;" horiz-adv-x="909" 
d="M832 241l31 -24q-130 -245 -374 -245q-191 0 -306 148q-105 136 -105 332q0 191 102 336q123 175 339 175q117 0 209 -58q107 -67 107 -178q0 -125 -125 -125q-129 0 -145 178q-10 113 -83 113q-48 0 -82 -51q-52 -77 -52 -236q0 -121 36 -234q42 -135 121 -198
q54 -43 130 -43q94 0 197 110zM797 1402l-331 -347h-86l116 347h301z" />
    <glyph glyph-name="Ccircumflex" unicode="&#x108;" horiz-adv-x="1479" 
d="M1367 1387v-470h-39q-40 168 -151 270q-118 110 -285 110q-127 0 -233 -72.5t-155 -191.5q-63 -151 -63 -336q0 -409 190 -557q98 -77 254 -77q245 0 459 249v-117q-217 -226 -526 -226q-208 0 -371 80q-179 87 -274 257q-92 163 -92 347q0 196 102 369t274 269t366 96
q143 0 302 -62q92 -36 117 -36q73 0 86 98h39zM904 1867l203 -382h-77l-238 206l-245 -200h-82l213 376h226z" />
    <glyph glyph-name="ccircumflex" unicode="&#x109;" horiz-adv-x="909" 
d="M832 241l31 -24q-130 -245 -374 -245q-191 0 -306 148q-105 136 -105 332q0 191 102 336q123 175 339 175q117 0 209 -58q107 -67 107 -178q0 -125 -125 -125q-129 0 -145 178q-10 113 -83 113q-48 0 -82 -51q-52 -77 -52 -236q0 -121 36 -234q42 -135 121 -198
q54 -43 130 -43q94 0 197 110zM587 1427l203 -382h-77l-238 206l-245 -200h-82l213 376h226z" />
    <glyph glyph-name="Cdot" unicode="&#x10a;" horiz-adv-x="1479" 
d="M1367 1387v-470h-39q-40 168 -151 270q-118 110 -285 110q-127 0 -233 -72.5t-155 -191.5q-63 -151 -63 -336q0 -409 190 -557q98 -77 254 -77q245 0 459 249v-117q-217 -226 -526 -226q-208 0 -371 80q-179 87 -274 257q-92 163 -92 347q0 196 102 369t274 269t366 96
q143 0 302 -62q92 -36 117 -36q73 0 86 98h39zM777 1784q61 0 104 -43t43 -104t-43 -104t-104 -43t-104 43t-43 104t43 104t104 43z" />
    <glyph glyph-name="cdot" unicode="&#x10b;" horiz-adv-x="909" 
d="M832 241l31 -24q-130 -245 -374 -245q-191 0 -306 148q-105 136 -105 332q0 191 102 336q123 175 339 175q117 0 209 -58q107 -67 107 -178q0 -125 -125 -125q-129 0 -145 178q-10 113 -83 113q-48 0 -82 -51q-52 -77 -52 -236q0 -121 36 -234q42 -135 121 -198
q54 -43 130 -43q94 0 197 110zM483 1368q61 0 104 -43t43 -104t-43 -104t-104 -43t-104 43t-43 104t43 104t104 43z" />
    <glyph glyph-name="Ccaron" unicode="&#x10c;" horiz-adv-x="1479" 
d="M1367 1387v-470h-39q-40 168 -151 270q-118 110 -285 110q-127 0 -233 -72.5t-155 -191.5q-63 -151 -63 -336q0 -409 190 -557q98 -77 254 -77q245 0 459 249v-117q-217 -226 -526 -226q-208 0 -371 80q-179 87 -274 257q-92 163 -92 347q0 196 102 369t274 269t366 96
q143 0 302 -62q92 -36 117 -36q73 0 86 98h39zM702 1443l-202 382h76l239 -206l245 200h82l-214 -376h-226z" />
    <glyph glyph-name="ccaron" unicode="&#x10d;" horiz-adv-x="909" 
d="M832 241l31 -24q-130 -245 -374 -245q-191 0 -306 148q-105 136 -105 332q0 191 102 336q123 175 339 175q117 0 209 -58q107 -67 107 -178q0 -125 -125 -125q-129 0 -145 178q-10 113 -83 113q-48 0 -82 -51q-52 -77 -52 -236q0 -121 36 -234q42 -135 121 -198
q54 -43 130 -43q94 0 197 110zM400 1045l-202 382h76l239 -206l245 200h82l-214 -376h-226z" />
    <glyph glyph-name="Dcaron" unicode="&#x10e;" horiz-adv-x="1479" 
d="M27 0v37h45q106 0 137 69q9 20 9 126v892q0 83 -3 99q-9 51 -52 77q-34 19 -91 19h-45v37h607q243 0 391 -66q182 -81 278 -250q90 -159 90 -366q0 -285 -165 -462q-139 -150 -402 -200q-63 -12 -192 -12h-607zM544 1279v-1058q0 -64 1 -73q6 -44 34 -59t78 -15
q167 0 255 114q120 155 120 478q0 476 -249 583q-72 31 -239 30zM591 1443l-202 382h76l239 -206l245 200h82l-214 -376h-226z" />
    <glyph glyph-name="dcaron" unicode="&#x10f;" horiz-adv-x="1502" 
d="M1135 721v44q221 95 221 293q0 33 -20 33q-7 0 -19 -7q-30 -17 -72 -17q-61 0 -103 46.5t-42 107.5q0 69 50.5 117.5t120.5 48.5q98 0 156 -78q52 -70 52 -171q0 -156 -98 -267q-89 -102 -246 -150zM982 1356v-1076q0 -106 6 -129q16 -62 109 -69v-33l-395 -77v148
q-122 -148 -252 -148q-179 0 -283 160q-84 130 -84 319q0 320 195 451q90 61 194 61q124 0 230 -117v282q0 107 -9 129q-23 57 -126 57v42h415zM702 722q-74 142 -181 142q-83 0 -121 -129q-24 -78 -24 -239q0 -304 97 -385q23 -19 63 -19q88 0 166 138v492z" />
    <glyph glyph-name="Dslash" unicode="&#x110;" horiz-adv-x="1479" 
d="M35 0v37h45q105 0 137 69q10 22 10 126v446h-192v74h192v372q0 82 -3 99q-10 51 -53 77q-34 19 -91 19h-45v37h608q243 0 391 -66q181 -81 277 -250q90 -159 90 -366q0 -287 -164 -462q-140 -150 -403 -200q-63 -12 -191 -12h-608zM553 1279l-1 -527h301v-74h-301l1 -457
q0 -114 34 -132q28 -15 78 -15q375 0 375 592q0 476 -248 583q-72 31 -239 30z" />
    <glyph glyph-name="dcroat" unicode="&#x111;" horiz-adv-x="1139" 
d="M978 1179h115v-84h-115v-815q0 -106 6 -129q16 -62 109 -69v-33l-395 -77v148q-122 -148 -252 -148q-179 0 -283 160q-84 130 -84 319q0 320 195 451q90 61 194 61q124 0 230 -117v249h-335v84h334q-1 60 -7 75q-24 60 -127 60v42h415v-177zM698 722q-74 142 -181 142
q-83 0 -121 -129q-24 -78 -24 -239q0 -304 97 -385q23 -19 63 -19q88 0 166 138v492z" />
    <glyph glyph-name="Emacron" unicode="&#x112;" horiz-adv-x="1366" 
d="M558 1278v-552h27q135 0 198 97q48 73 63 223h38v-710h-38q-24 231 -140 290q-51 25 -148 25v-382q0 -89 1 -97q7 -58 44 -81q26 -16 84 -16h81q370 0 469 356h37l-61 -431h-1172v37h45q105 0 135 69q11 26 11 126v892q0 94 -5 113q-9 34 -37 54q-39 28 -104 28h-45v37
h1135v-401h-38q-25 128 -68 191q-53 79 -162 114q-57 18 -210 18h-140zM362 1671h642v-163h-642v163z" />
    <glyph glyph-name="emacron" unicode="&#x113;" horiz-adv-x="909" 
d="M861 501h-513q9 -186 99 -294q69 -83 166 -83q115 0 214 154l34 -22q-139 -284 -381 -284q-208 0 -315 160q-86 129 -86 320q0 204 107 349q119 162 316 162q174 0 271 -150q81 -125 88 -312zM615 568q0 119 -6 165q-15 104 -66 147q-21 18 -56 18q-51 0 -85 -51
q-59 -90 -59 -244v-35h272zM133 1254h642v-163h-642v163z" />
    <glyph glyph-name="Ebreve" unicode="&#x114;" horiz-adv-x="1366" 
d="M558 1278v-552h27q135 0 198 97q48 73 63 223h38v-710h-38q-24 231 -140 290q-51 25 -148 25v-382q0 -89 1 -97q7 -58 44 -81q26 -16 84 -16h81q370 0 469 356h37l-61 -431h-1172v37h45q105 0 135 69q11 26 11 126v892q0 94 -5 113q-9 34 -37 54q-39 28 -104 28h-45v37
h1135v-401h-38q-25 128 -68 191q-53 79 -162 114q-57 18 -210 18h-140zM921 1810h65q-6 -130 -87 -222q-86 -98 -214 -98q-127 0 -214 98q-82 92 -90 222h66q50 -127 230 -127q191 0 244 127z" />
    <glyph glyph-name="ebreve" unicode="&#x115;" horiz-adv-x="909" 
d="M861 501h-513q9 -186 99 -294q69 -83 166 -83q115 0 214 154l34 -22q-139 -284 -381 -284q-208 0 -315 160q-86 129 -86 320q0 204 107 349q119 162 316 162q174 0 271 -150q81 -125 88 -312zM615 568q0 119 -6 165q-15 104 -66 147q-21 18 -56 18q-51 0 -85 -51
q-59 -90 -59 -244v-35h272zM703 1387h65q-6 -130 -87 -222q-86 -98 -214 -98q-127 0 -214 98q-82 92 -90 222h66q50 -127 230 -127q191 0 244 127z" />
    <glyph glyph-name="Edot" unicode="&#x116;" horiz-adv-x="1366" 
d="M558 1278v-552h27q135 0 198 97q48 73 63 223h38v-710h-38q-24 231 -140 290q-51 25 -148 25v-382q0 -89 1 -97q7 -58 44 -81q26 -16 84 -16h81q370 0 469 356h37l-61 -431h-1172v37h45q105 0 135 69q11 26 11 126v892q0 94 -5 113q-9 34 -37 54q-39 28 -104 28h-45v37
h1135v-401h-38q-25 128 -68 191q-53 79 -162 114q-57 18 -210 18h-140zM684 1784q61 0 104 -43t43 -104t-43 -104t-104 -43t-104 43t-43 104t43 104t104 43z" />
    <glyph glyph-name="edot" unicode="&#x117;" horiz-adv-x="909" 
d="M861 501h-513q9 -186 99 -294q69 -83 166 -83q115 0 214 154l34 -22q-139 -284 -381 -284q-208 0 -315 160q-86 129 -86 320q0 204 107 349q119 162 316 162q174 0 271 -150q81 -125 88 -312zM615 568q0 119 -6 165q-15 104 -66 147q-21 18 -56 18q-51 0 -85 -51
q-59 -90 -59 -244v-35h272zM474 1368q61 0 104 -43t43 -104t-43 -104t-104 -43t-104 43t-43 104t43 104t104 43z" />
    <glyph glyph-name="Eogonek" unicode="&#x118;" horiz-adv-x="1366" 
d="M558 1278v-552h27q135 0 198 97q48 73 63 223h38v-710h-38q-24 231 -140 290q-51 25 -148 25v-382q0 -89 1 -97q7 -58 44 -81q26 -16 84 -16h81q370 0 469 356h37l-61 -431h-1172v37h45q105 0 135 69q11 26 11 126v892q0 94 -5 113q-9 34 -37 54q-39 28 -104 28h-45v37
h1135v-401h-38q-25 128 -68 191q-53 79 -162 114q-57 18 -210 18h-140zM952 17h87q-95 -74 -95 -149q0 -59 39 -115t94 -82q59 -28 141 -29l29 -33q-51 -38 -84 -50q-56 -21 -116 -21q-106 0 -190 68q-89 72 -89 176q0 147 184 235z" />
    <glyph glyph-name="eogonek" unicode="&#x119;" horiz-adv-x="909" 
d="M861 501h-513q9 -186 99 -294q69 -83 166 -83q115 0 214 154l34 -22q-139 -284 -381 -284q-208 0 -315 160q-86 129 -86 320q0 204 107 349q119 162 316 162q174 0 271 -150q81 -125 88 -312zM615 568q0 119 -6 165q-15 104 -66 147q-21 18 -56 18q-51 0 -85 -51
q-59 -90 -59 -244v-35h272zM474 17h87q-95 -74 -95 -149q0 -59 39 -115t94 -82q59 -28 141 -29l29 -33q-51 -38 -84 -50q-56 -21 -116 -21q-106 0 -190 68q-89 72 -89 176q0 147 184 235z" />
    <glyph glyph-name="Ecaron" unicode="&#x11a;" horiz-adv-x="1366" 
d="M558 1278v-552h27q135 0 198 97q48 73 63 223h38v-710h-38q-24 231 -140 290q-51 25 -148 25v-382q0 -89 1 -97q7 -58 44 -81q26 -16 84 -16h81q370 0 469 356h37l-61 -431h-1172v37h45q105 0 135 69q11 26 11 126v892q0 94 -5 113q-9 34 -37 54q-39 28 -104 28h-45v37
h1135v-401h-38q-25 128 -68 191q-53 79 -162 114q-57 18 -210 18h-140zM539 1443l-202 382h76l239 -206l245 200h82l-214 -376h-226z" />
    <glyph glyph-name="ecaron" unicode="&#x11b;" horiz-adv-x="909" 
d="M861 501h-513q9 -186 99 -294q69 -83 166 -83q115 0 214 154l34 -22q-139 -284 -381 -284q-208 0 -315 160q-86 129 -86 320q0 204 107 349q119 162 316 162q174 0 271 -150q81 -125 88 -312zM615 568q0 119 -6 165q-15 104 -66 147q-21 18 -56 18q-51 0 -85 -51
q-59 -90 -59 -244v-35h272zM375 1045l-202 382h76l239 -206l245 200h82l-214 -376h-226z" />
    <glyph glyph-name="Gcircumflex" unicode="&#x11c;" horiz-adv-x="1593" 
d="M1413 1387v-478h-37q-60 177 -183 283q-134 117 -311 117q-307 0 -396 -324q-42 -153 -42 -314q0 -427 195 -558q102 -69 243 -69q95 0 206 41v282q0 66 -5 85q-10 38 -51 61q-35 19 -84 19h-35v37h659v-37q-62 -4 -88 -14q-43 -15 -62 -58q-9 -20 -9 -93v-282
q-262 -117 -562 -117q-328 0 -545 191q-223 195 -223 501q0 317 221 524q216 204 535 204q99 0 182 -16q31 -6 140 -46q101 -37 119 -37q62 0 96 98h37zM957 1844l203 -382h-77l-238 206l-245 -200h-82l213 376h226z" />
    <glyph glyph-name="gcircumflex" unicode="&#x11d;" 
d="M669 924h315v-110h-179q92 -92 92 -202q0 -199 -206 -288q-96 -42 -170 -42q1 0 -33 2q-41 2 -87 3q-43 1 -74.5 -28.5t-31.5 -71.5q0 -83 117 -82l173 2q205 2 289 -46q113 -65 113 -197q0 -87 -53 -156t-136 -101q-128 -49 -297 -49q-283 0 -379 92q-45 44 -45 92
q0 101 163 144q-130 64 -130 178q0 155 221 247q-254 93 -254 314q0 154 126 250q116 88 274 88q93 0 192 -39zM496 901q-138 0 -138 -301q0 -260 133 -260q140 0 140 269q0 292 -135 292zM437 -138q-103 0 -135 -17q-57 -30 -57 -84q0 -134 281 -134q298 0 298 141
q0 64 -96 83q-55 11 -291 11zM630 1427l203 -382h-77l-238 206l-245 -200h-82l213 376h226z" />
    <glyph glyph-name="Gbreve" unicode="&#x11e;" horiz-adv-x="1593" 
d="M1413 1387v-478h-37q-60 177 -183 283q-134 117 -311 117q-307 0 -396 -324q-42 -153 -42 -314q0 -427 195 -558q102 -69 243 -69q95 0 206 41v282q0 66 -5 85q-10 38 -51 61q-35 19 -84 19h-35v37h659v-37q-62 -4 -88 -14q-43 -15 -62 -58q-9 -20 -9 -93v-282
q-262 -117 -562 -117q-328 0 -545 191q-223 195 -223 501q0 317 221 524q216 204 535 204q99 0 182 -16q31 -6 140 -46q101 -37 119 -37q62 0 96 98h37zM1065 1792h65q-6 -130 -87 -222q-86 -98 -214 -98q-127 0 -214 98q-82 92 -90 222h66q50 -127 230 -127q191 0 244 127z
" />
    <glyph glyph-name="gbreve" unicode="&#x11f;" 
d="M669 924h315v-110h-179q92 -92 92 -202q0 -199 -206 -288q-96 -42 -170 -42q1 0 -33 2q-41 2 -87 3q-43 1 -74.5 -28.5t-31.5 -71.5q0 -83 117 -82l173 2q205 2 289 -46q113 -65 113 -197q0 -87 -53 -156t-136 -101q-128 -49 -297 -49q-283 0 -379 92q-45 44 -45 92
q0 101 163 144q-130 64 -130 178q0 155 221 247q-254 93 -254 314q0 154 126 250q116 88 274 88q93 0 192 -39zM496 901q-138 0 -138 -301q0 -260 133 -260q140 0 140 269q0 292 -135 292zM437 -138q-103 0 -135 -17q-57 -30 -57 -84q0 -134 281 -134q298 0 298 141
q0 64 -96 83q-55 11 -291 11zM769 1387h65q-6 -130 -87 -222q-86 -98 -214 -98q-127 0 -214 98q-82 92 -90 222h66q50 -127 230 -127q191 0 244 127z" />
    <glyph glyph-name="Gdot" unicode="&#x120;" horiz-adv-x="1593" 
d="M1413 1387v-478h-37q-60 177 -183 283q-134 117 -311 117q-307 0 -396 -324q-42 -153 -42 -314q0 -427 195 -558q102 -69 243 -69q95 0 206 41v282q0 66 -5 85q-10 38 -51 61q-35 19 -84 19h-35v37h659v-37q-62 -4 -88 -14q-43 -15 -62 -58q-9 -20 -9 -93v-282
q-262 -117 -562 -117q-328 0 -545 191q-223 195 -223 501q0 317 221 524q216 204 535 204q99 0 182 -16q31 -6 140 -46q101 -37 119 -37q62 0 96 98h37zM806 1784q61 0 104 -43t43 -104t-43 -104t-104 -43t-104 43t-43 104t43 104t104 43z" />
    <glyph glyph-name="gdot" unicode="&#x121;" 
d="M669 924h315v-110h-179q92 -92 92 -202q0 -199 -206 -288q-96 -42 -170 -42q1 0 -33 2q-41 2 -87 3q-43 1 -74.5 -28.5t-31.5 -71.5q0 -83 117 -82l173 2q205 2 289 -46q113 -65 113 -197q0 -87 -53 -156t-136 -101q-128 -49 -297 -49q-283 0 -379 92q-45 44 -45 92
q0 101 163 144q-130 64 -130 178q0 155 221 247q-254 93 -254 314q0 154 126 250q116 88 274 88q93 0 192 -39zM496 901q-138 0 -138 -301q0 -260 133 -260q140 0 140 269q0 292 -135 292zM437 -138q-103 0 -135 -17q-57 -30 -57 -84q0 -134 281 -134q298 0 298 141
q0 64 -96 83q-55 11 -291 11zM513 1368q61 0 104 -43t43 -104t-43 -104t-104 -43t-104 43t-43 104t43 104t104 43z" />
    <glyph glyph-name="Gcedilla" unicode="&#x122;" horiz-adv-x="1593" 
d="M848 -31l-19 -30q124 -22 124 -145q0 -179 -282 -179h-59v47q171 4 171 111q0 70 -91 70l89 127q-293 11 -493 203q-205 197 -205 487q0 317 221 525q217 203 536 203q162 0 332 -65q89 -34 108 -34q61 0 96 98h37v-478h-37q-58 176 -183 283q-136 117 -312 117
q-240 0 -351 -211q-86 -162 -86 -427q0 -627 438 -627q98 0 206 41v282q0 65 -4 82q-9 38 -48 62q-35 21 -88 21h-35v37h659v-37q-122 -7 -146 -63q-13 -29 -13 -102v-282q-251 -116 -565 -116z" />
    <glyph glyph-name="gcedilla" unicode="&#x123;" 
d="M610 1467v-28q-161 -57 -161 -165q0 -26 14 -26q6 1 14 5q21 11 51 11q41 0 73 -28.5t32 -68.5q0 -46 -40 -77q-36 -28 -83 -28q-67 0 -108.5 44.5t-41.5 112.5q0 186 250 248zM669 924h315v-110h-179q92 -86 92 -202q0 -141 -119 -239q-112 -91 -257 -91q3 0 -64 3
q-37 2 -56 2q-43 0 -74.5 -28.5t-31.5 -71.5q0 -84 117 -82l129 2q163 3 261 -18q84 -18 134.5 -78.5t50.5 -146.5q0 -169 -169 -248q-126 -58 -317 -58q-146 0 -254 29q-170 47 -170 155q0 104 163 144q-130 64 -130 176q0 157 221 249q-254 86 -254 314q0 153 127 249
q116 89 274 89q93 0 191 -39zM496 901q-138 0 -138 -306q0 -255 133 -255q140 0 140 277q0 284 -135 284zM437 -138q-192 0 -192 -101q0 -134 281 -134q105 0 182 24q116 35 116 117q0 77 -169 92q-16 2 -218 2z" />
    <glyph glyph-name="Hcircumflex" unicode="&#x124;" horiz-adv-x="1593" 
d="M560 652v-420q0 -82 3 -99q10 -51 54 -76q33 -20 90 -20h45v-37h-709v37h45q105 0 135 69q11 26 11 126v892q0 83 -3 99q-9 51 -52 77q-34 19 -91 19h-45v37h709v-37h-45q-105 0 -136 -69q-11 -25 -11 -126v-384h479v384q0 83 -3 99q-10 52 -53 77q-34 19 -91 19h-44v37
h708v-37h-44q-58 0 -95 -21q-26 -15 -41 -48q-11 -25 -11 -126v-892q0 -83 3 -99q10 -52 53 -76q34 -20 91 -20h44v-37h-708v37h44q58 0 95 21q26 15 41 48q11 25 11 126v420h-479zM915 1867l203 -382h-77l-238 206l-245 -200h-82l213 376h226z" />
    <glyph glyph-name="hcircumflex" unicode="&#x125;" horiz-adv-x="1139" 
d="M451 1356v-541q141 148 274 148q80 0 145.5 -46t88.5 -121q20 -68 20 -228v-365q0 -90 10 -114q19 -45 91 -53v-36h-474v36q51 7 75 40q18 25 18 127v417q0 88 -1 102q-7 65 -38 90q-22 16 -49 16q-81 0 -160 -124v-501q0 -99 15 -125q20 -34 78 -42v-36h-474v36
q59 6 84 38q17 22 17 129v950q0 90 -10 114q-19 43 -91 52v37h381zM688 1867l203 -382h-77l-238 206l-245 -200h-82l213 376h226z" />
    <glyph glyph-name="Hbar" unicode="&#x126;" horiz-adv-x="1593" 
d="M234 1095h-179v84h179q-2 140 -146 140h-45v37h709v-37h-45q-144 0 -146 -140h477q-2 140 -146 140h-44v37h708v-37h-44q-144 0 -146 -140h178v-84h-179v-863q0 -82 2 -96q9 -50 49 -76q34 -23 96 -23h44v-37h-708v37h44q114 0 138 72q9 29 9 123v420h-479v-420
q0 -81 3 -96q8 -50 49 -76q34 -23 95 -23h45v-37h-709v37h45q115 0 137 72q9 29 9 123v863zM560 1095v-355h479v355h-479z" />
    <glyph glyph-name="hbar" unicode="&#x127;" horiz-adv-x="1139" 
d="M451 1179h272v-84h-272v-280q135 148 274 148q85 0 152.5 -52t86.5 -134q15 -65 15 -209v-365q0 -91 10 -114q18 -44 91 -53v-36h-474v36q64 9 82 58q11 28 11 109v417q0 101 -6 130q-17 78 -82 78q-85 0 -160 -124v-501q0 -87 9 -111q17 -47 84 -56v-36h-474v36
q72 7 91 52q10 26 10 115v892h-101v84h101q-2 77 -15 99q-19 33 -86 41v37h381v-177z" />
    <glyph glyph-name="Itilde" unicode="&#x128;" horiz-adv-x="797" 
d="M750 37v-37h-709v37h45q105 0 135 69q11 26 11 126v892q0 83 -3 99q-9 51 -52 77q-34 19 -91 19h-45v37h709v-37h-45q-105 0 -136 -69q-11 -25 -11 -126v-892q0 -82 3 -99q10 -51 54 -76q33 -20 90 -20h45zM669 1767h53q1 -20 1 -34q0 -100 -55 -169q-59 -75 -157 -75
q-60 0 -162.5 47t-132.5 47q-64 0 -78 -92h-58q-3 112 49 190q59 88 167 88q29 0 50 -6q26 -7 96 -40q102 -47 147 -47q50 0 80 91z" />
    <glyph glyph-name="itilde" unicode="&#x129;" horiz-adv-x="569" 
d="M434 935v-741q0 -86 15 -114q22 -39 98 -44v-36h-505v36q62 2 92 36q20 23 20 122v546q0 86 -15 113q-22 40 -97 45v37h392zM551 1368h53q1 -20 1 -34q0 -100 -55 -169q-59 -75 -157 -75q-60 0 -162.5 47t-132.5 47q-64 0 -78 -92h-58q-3 112 49 190q59 88 167 88
q29 0 50 -6q26 -7 96 -40q102 -47 147 -47q50 0 80 91z" />
    <glyph glyph-name="Imacron" unicode="&#x12a;" horiz-adv-x="797" 
d="M750 37v-37h-709v37h45q105 0 135 69q11 26 11 126v892q0 83 -3 99q-9 51 -52 77q-34 19 -91 19h-45v37h709v-37h-45q-105 0 -136 -69q-11 -25 -11 -126v-892q0 -82 3 -99q10 -51 54 -76q33 -20 90 -20h45zM77 1671h642v-163h-642v163z" />
    <glyph glyph-name="imacron" unicode="&#x12b;" horiz-adv-x="569" 
d="M434 935v-741q0 -86 15 -114q22 -39 98 -44v-36h-505v36q62 2 92 36q20 23 20 122v546q0 86 -15 113q-22 40 -97 45v37h392zM-37 1254h642v-163h-642v163z" />
    <glyph glyph-name="Ibreve" unicode="&#x12c;" horiz-adv-x="797" 
d="M750 37v-37h-709v37h45q105 0 135 69q11 26 11 126v892q0 83 -3 99q-9 51 -52 77q-34 19 -91 19h-45v37h709v-37h-45q-105 0 -136 -69q-11 -25 -11 -126v-892q0 -82 3 -99q10 -51 54 -76q33 -20 90 -20h45zM636 1810h65q-6 -130 -87 -222q-86 -98 -214 -98
q-127 0 -214 98q-82 92 -90 222h66q50 -127 230 -127q191 0 244 127z" />
    <glyph glyph-name="ibreve" unicode="&#x12d;" horiz-adv-x="569" 
d="M434 935v-741q0 -86 15 -114q22 -39 98 -44v-36h-505v36q62 2 92 36q20 23 20 122v546q0 86 -15 113q-22 40 -97 45v37h392zM522 1387h65q-6 -130 -87 -222q-86 -98 -214 -98q-127 0 -214 98q-82 92 -90 222h66q50 -127 230 -127q191 0 244 127z" />
    <glyph glyph-name="Iogonek" unicode="&#x12e;" horiz-adv-x="797" 
d="M433 0q-74 -61 -74 -132q0 -103 88 -168q80 -58 186 -58l29 -33q-87 -71 -200 -71q-106 0 -190 68q-89 72 -89 176q0 138 150 218h-289v37h45q115 0 137 72q9 29 9 123v892q0 82 -2 96q-9 50 -48 77q-35 22 -96 22h-45v37h709v-37h-45q-114 0 -137 -71q-10 -30 -10 -124
v-892q0 -81 3 -96q8 -50 49 -76q34 -23 95 -23h45v-37h-320z" />
    <glyph glyph-name="iogonek" unicode="&#x12f;" horiz-adv-x="569" 
d="M291 1387q64 0 109.5 -45t45.5 -109t-45.5 -109t-109.5 -45t-109 45t-45 109t45 109t109 45zM326 0q-74 -61 -74 -132q0 -103 88 -168q80 -58 186 -58l29 -33q-87 -71 -200 -71q-106 0 -190 68q-89 72 -89 176q0 138 150 218h-187v37q76 8 97 45q15 26 15 112v546
q0 87 -15 113q-21 37 -97 45v37h392v-741q0 -88 15 -113q20 -35 98 -44v-37h-218z" />
    <glyph glyph-name="Idotaccent" unicode="&#x130;" horiz-adv-x="797" 
d="M750 37v-37h-709v37h45q105 0 135 69q11 26 11 126v892q0 83 -3 99q-9 51 -52 77q-34 19 -91 19h-45v37h709v-37h-45q-105 0 -136 -69q-11 -25 -11 -126v-892q0 -82 3 -99q10 -51 54 -76q33 -20 90 -20h45zM395 1755q61 0 104 -43t43 -104t-43 -104t-104 -43t-104 43
t-43 104t43 104t104 43z" />
    <glyph glyph-name="dotlessi" unicode="&#x131;" horiz-adv-x="569" 
d="M434 935v-741q0 -86 15 -114q22 -39 98 -44v-36h-505v36q62 2 92 36q20 23 20 122v546q0 86 -15 113q-22 40 -97 45v37h392z" />
    <glyph glyph-name="IJ" unicode="&#x132;" horiz-adv-x="1685" 
d="M750 37v-37h-709v37h45q105 0 135 69q11 26 11 126v892q0 83 -3 99q-9 51 -52 77q-34 19 -91 19h-45v37h709v-37h-45q-105 0 -136 -69q-11 -25 -11 -126v-892q0 -82 3 -99q10 -51 54 -76q33 -20 90 -20h45zM956 1319v37h721v-37h-44q-105 0 -136 -69q-11 -25 -11 -126
v-664q0 -166 -26 -246q-37 -117 -151 -185q-100 -60 -240 -60t-253 72q-129 83 -129 217q0 67 41 112t107 45q60 0 102 -38t42 -97q0 -29 -7 -49q-4 -11 -34 -54q-25 -36 -25 -54q0 -26 26 -45q38 -28 99 -28q88 0 111 91q11 46 11 258v725q0 82 -3 99q-10 51 -53 77
q-34 19 -91 19h-57z" />
    <glyph glyph-name="ij" unicode="&#x133;" horiz-adv-x="1131" 
d="M294 1388q65 0 110 -45t45 -110q0 -64 -45.5 -109t-109.5 -45t-109 45t-45 109t45 109.5t109 45.5zM434 935v-741q0 -86 15 -114q22 -39 98 -44v-36h-505v36q62 2 92 36q20 23 20 122v546q0 86 -15 113q-22 40 -97 45v37h392zM831 1387q64 0 108.5 -44t44.5 -108
t-44.5 -109t-108.5 -45t-108.5 45t-44.5 109t44.5 108t108.5 44zM971 935v-968q0 -137 -17 -201q-55 -208 -296 -208q-97 0 -161 36q-79 45 -79 135q0 43 29.5 76t72.5 33q82 0 82 -90q0 -10 -1.5 -29t-1.5 -28q0 -69 57 -69q56 0 56 77q0 16 -6 81q-11 116 -11 134l-3 237
l1 630q1 64 -23 87t-89 30v37h390z" />
    <glyph glyph-name="Jcircumflex" unicode="&#x134;" 
d="M291 1319v37h721v-37h-44q-105 0 -136 -69q-11 -25 -11 -126v-664q0 -166 -26 -246q-37 -117 -151 -185q-100 -60 -240 -60t-253 72q-129 83 -129 217q0 67 41 112t107 45q60 0 102 -38t42 -97q0 -29 -7 -49q-4 -11 -34 -54q-25 -36 -25 -54q0 -26 26 -45q38 -28 99 -28
q88 0 111 91q11 46 11 258v725q0 82 -3 99q-10 51 -53 77q-34 19 -91 19h-57zM773 1867l203 -382h-77l-238 206l-245 -200h-82l213 376h226z" />
    <glyph glyph-name="jcircumflex" unicode="&#x135;" horiz-adv-x="682" 
d="M454 1427l208 -376h-82l-239 200l-239 -200h-82l208 376h226zM496 935v-968q0 -132 -16 -195q-25 -102 -101.5 -158t-195.5 -56q-97 0 -161 36q-79 45 -79 135q0 43 30 76t72 33q82 0 82 -91q0 -9 -1.5 -28t-1.5 -28q0 -69 57 -69q56 0 56 77q0 19 -9 114
q-11 116 -11 338l1 630q1 64 -23.5 88.5t-88.5 28.5v37h390z" />
    <glyph glyph-name="Kcedilla" unicode="&#x136;" horiz-adv-x="1593" 
d="M853 837l477 -597q101 -126 174 -171q52 -32 112 -32v-37h-706v37q106 9 106 58q0 42 -92 158l-311 391l-50 -42v-370q0 -83 3 -100q10 -52 55 -76q34 -19 109 -19v-37h-684v37h45q105 0 135 69q11 26 11 126v892q0 83 -3 99q-9 51 -52 77q-34 19 -91 19h-45v37h675v-37
q-115 0 -146 -67q-12 -26 -12 -128v-422l503 407q105 85 105 136q0 38 -43 60q-22 11 -109 14v37h529v-37q-85 -6 -161 -56q-11 -7 -137 -108zM680 -60q40 5 76 5q184 0 184 -151q0 -179 -282 -179h-58v47q171 4 171 109q0 72 -91 72v97z" />
    <glyph glyph-name="kcedilla" unicode="&#x137;" horiz-adv-x="1139" 
d="M449 1356v-892l217 213q100 98 100 150q0 57 -108 71v37h419v-37q-78 -4 -155 -64q-24 -18 -126 -118l-102 -100l220 -322q135 -197 158 -220q35 -34 86 -38v-36h-483v36q61 0 61 38q0 23 -42 85l-185 271l-60 -59v-168q0 -90 11 -115q18 -44 91 -52v-36h-483v36
q59 6 84 38q17 22 17 129v950q0 90 -10 114q-19 43 -91 52v37h381zM453 -60q40 5 76 5q184 0 184 -151q0 -179 -282 -179h-58v47q171 4 171 109q0 72 -91 72v97z" />
    <glyph glyph-name="kgreenlandic" unicode="&#x138;" horiz-adv-x="1139" 
d="M453 733v-269l217 213q100 98 100 151q0 61 -108 71v36h420v-36q-79 -5 -156 -64q-24 -19 -126 -119l-102 -100l220 -322q51 -77 101 -154q75 -96 143 -103v-37h-483v37q61 1 61 39q0 21 -42 83l-185 271l-60 -59v-168q0 -90 10 -114q19 -43 92 -52v-37h-483v37
q102 9 102 110v586q0 90 -10 114q-19 43 -92 52v36h483v-36q-74 -10 -92 -52q-10 -23 -10 -114z" />
    <glyph glyph-name="Lacute" unicode="&#x139;" horiz-adv-x="1366" 
d="M1293 476l-51 -476h-1204v37h45q105 0 135 69q11 26 11 126v892q0 83 -3 99q-9 51 -52 77q-34 19 -91 19h-45v37h723v-37h-59q-105 0 -136 -69q-11 -25 -11 -126v-864q0 -82 3 -100q11 -58 56 -75q23 -9 121 -9h113q203 0 305 158q52 82 99 242h41zM762 1819l-331 -347
h-86l116 347h301z" />
    <glyph glyph-name="lacute" unicode="&#x13a;" horiz-adv-x="569" 
d="M435 1356v-1162q0 -86 15 -114q22 -39 98 -44v-36h-505v36q62 2 92 36q20 23 20 122v968q0 85 -15 113q-22 39 -97 44v37h392zM573 1819l-331 -347h-86l116 347h301z" />
    <glyph glyph-name="Lcedilla" unicode="&#x13b;" horiz-adv-x="1366" 
d="M1293 476l-51 -476h-1204v37h45q105 0 135 69q11 26 11 126v892q0 83 -3 99q-9 51 -52 77q-34 19 -91 19h-45v37h723v-37h-59q-105 0 -136 -69q-11 -25 -11 -126v-864q0 -82 3 -100q11 -58 56 -75q23 -9 121 -9h113q203 0 305 158q52 82 99 242h41zM566 -60q40 5 76 5
q184 0 184 -151q0 -179 -282 -179h-58v47q171 4 171 109q0 72 -91 72v97z" />
    <glyph glyph-name="lcedilla" unicode="&#x13c;" horiz-adv-x="569" 
d="M435 1356v-1162q0 -86 15 -114q22 -39 98 -44v-36h-505v36q62 2 92 36q20 23 20 122v968q0 85 -15 113q-22 39 -97 44v37h392zM168 -60q40 5 76 5q184 0 184 -151q0 -179 -282 -179h-58v47q171 4 171 109q0 72 -91 72v97z" />
    <glyph glyph-name="Lcaron" unicode="&#x13d;" horiz-adv-x="1366" 
d="M927 721v44q221 95 221 293q0 16 -6.5 24.5t-14.5 8.5q-6 0 -18 -7q-29 -17 -72 -17q-61 0 -103.5 46.5t-42.5 107.5q0 69 51 117.5t121 48.5q98 0 155 -78q52 -70 52 -171q0 -157 -97 -267q-89 -102 -246 -150zM1293 476l-51 -476h-1204v37h45q105 0 135 69
q11 26 11 126v892q0 83 -3 99q-9 51 -52 77q-34 19 -91 19h-45v37h723v-37h-59q-105 0 -136 -69q-11 -25 -11 -126v-864q0 -82 3 -100q11 -58 56 -75q23 -9 121 -9h113q203 0 305 158q52 82 99 242h41z" />
    <glyph glyph-name="lcaron" unicode="&#x13e;" horiz-adv-x="960" 
d="M589 721v44q221 95 221 293q0 16 -6.5 24.5t-14.5 8.5q-6 0 -18 -7q-30 -17 -72 -17q-61 0 -103 46.5t-42 107.5q0 69 50.5 117.5t120.5 48.5q98 0 156 -78q52 -70 52 -171q0 -156 -98 -267q-89 -102 -246 -150zM434 1356v-1162q0 -86 15 -114q22 -39 98 -44v-36h-505v36
q62 2 92 36q20 23 20 122v968q0 85 -15 113q-22 39 -97 44v37h392z" />
    <glyph glyph-name="Ldot" unicode="&#x13f;" horiz-adv-x="1366" 
d="M1293 476l-51 -476h-1204v37h45q105 0 135 69q11 26 11 126v892q0 83 -3 99q-9 51 -52 77q-34 19 -91 19h-45v37h723v-37h-59q-105 0 -136 -69q-11 -25 -11 -126v-864q0 -82 3 -100q11 -58 56 -75q23 -9 121 -9h113q203 0 305 158q52 82 99 242h41zM922 794
q55 0 93.5 -38t38.5 -93t-38.5 -93.5t-93.5 -38.5t-93.5 38.5t-38.5 93.5t38.5 93t93.5 38z" />
    <glyph glyph-name="ldot" unicode="&#x140;" horiz-adv-x="810" 
d="M435 1356v-1162q0 -86 15 -114q22 -39 98 -44v-36h-505v36q62 2 92 36q20 23 20 122v968q0 85 -15 113q-22 39 -97 44v37h392zM700 809q55 0 93.5 -38t38.5 -93t-38.5 -93.5t-93.5 -38.5t-93.5 38.5t-38.5 93.5t38.5 93t93.5 38z" />
    <glyph glyph-name="Lslash" unicode="&#x141;" horiz-adv-x="1366" 
d="M1291 475l-51 -475h-1198v37h45q105 0 133 67q10 24 10 138v253l-188 -151v94l188 153v518q0 112 -18 148q-28 55 -125 55h-45v44h720v-44h-65q-119 0 -139 -85q-3 -13 -3 -118v-263l232 181v-92l-232 -183v-492q0 -85 4 -103q11 -58 58 -76q16 -6 120 -6h110
q174 0 277 118q82 94 131 282h36z" />
    <glyph glyph-name="lslash" unicode="&#x142;" horiz-adv-x="569" 
d="M431 1356v-520l111 90v-84l-111 -90v-552q0 -89 14 -116q21 -43 97 -48v-36h-498v36q62 0 89 32q20 24 20 132v330l-115 -93v84l115 93v538q0 85 -14 113q-22 43 -95 45v46h387z" />
    <glyph glyph-name="Nacute" unicode="&#x143;" horiz-adv-x="1479" 
d="M510 1356l669 -841v583q0 122 -35 165q-48 58 -161 56v37h448v-37q-70 -9 -96 -19q-46 -19 -65 -66q-17 -40 -17 -136v-1129h-34l-917 1129v-862q0 -199 176 -199h32v-37h-481v37q110 1 155 45.5t45 153.5v957l-29 36q-42 52 -73 69q-35 19 -98 21v37h481zM1032 1819
l-331 -347h-86l116 347h301z" />
    <glyph glyph-name="nacute" unicode="&#x144;" horiz-adv-x="1139" 
d="M451 935v-121q138 149 280 149q183 0 231 -176q16 -59 16 -219v-364q0 -91 10 -115q18 -45 91 -53v-36h-473v36q53 7 76 44q16 25 16 124v416q0 87 -1 101q-7 67 -38 91q-22 16 -48 16q-86 0 -160 -123v-501q0 -85 9 -111q18 -48 83 -57v-36h-473v36q59 6 84 38
q17 22 17 130v528q0 90 -10 114q-19 43 -91 52v37h381zM853 1402l-331 -347h-86l116 347h301z" />
    <glyph glyph-name="Ncedilla" unicode="&#x145;" horiz-adv-x="1479" 
d="M510 1356l669 -841v583q0 122 -35 165q-48 58 -161 56v37h448v-37q-70 -9 -96 -19q-46 -19 -65 -66q-17 -40 -17 -136v-1129h-34l-917 1129v-862q0 -199 176 -199h32v-37h-481v37q110 1 155 45.5t45 153.5v957l-29 36q-42 52 -73 69q-35 19 -98 21v37h481zM623 -60
q40 5 76 5q184 0 184 -151q0 -179 -282 -179h-58v47q171 4 171 109q0 72 -91 72v97z" />
    <glyph glyph-name="ncedilla" unicode="&#x146;" horiz-adv-x="1139" 
d="M451 935v-121q138 149 280 149q183 0 231 -176q16 -59 16 -219v-364q0 -91 10 -115q18 -45 91 -53v-36h-473v36q53 7 76 44q16 25 16 124v416q0 87 -1 101q-7 67 -38 91q-22 16 -48 16q-86 0 -160 -123v-501q0 -85 9 -111q18 -48 83 -57v-36h-473v36q59 6 84 38
q17 22 17 130v528q0 90 -10 114q-19 43 -91 52v37h381zM453 -60q40 5 76 5q184 0 184 -151q0 -179 -282 -179h-58v47q171 4 171 109q0 72 -91 72v97z" />
    <glyph glyph-name="Ncaron" unicode="&#x147;" horiz-adv-x="1479" 
d="M510 1356l669 -841v583q0 122 -35 165q-48 58 -161 56v37h448v-37q-70 -9 -96 -19q-46 -19 -65 -66q-17 -40 -17 -136v-1129h-34l-917 1129v-862q0 -199 176 -199h32v-37h-481v37q110 1 155 45.5t45 153.5v957l-29 36q-42 52 -73 69q-35 19 -98 21v37h481zM635 1443
l-202 382h76l239 -206l245 200h82l-214 -376h-226z" />
    <glyph glyph-name="ncaron" unicode="&#x148;" horiz-adv-x="1139" 
d="M451 935v-121q138 149 280 149q183 0 231 -176q16 -59 16 -219v-364q0 -91 10 -115q18 -45 91 -53v-36h-473v36q53 7 76 44q16 25 16 124v416q0 87 -1 101q-7 67 -38 91q-22 16 -48 16q-86 0 -160 -123v-501q0 -85 9 -111q18 -48 83 -57v-36h-473v36q59 6 84 38
q17 22 17 130v528q0 90 -10 114q-19 43 -91 52v37h381zM456 1045l-202 382h76l239 -206l245 200h82l-214 -376h-226z" />
    <glyph glyph-name="napostrophe" unicode="&#x149;" horiz-adv-x="1493" 
d="M188 721v44q221 95 221 293q0 33 -21 33q-6 0 -18 -7q-29 -17 -72 -17q-61 0 -103.5 46.5t-42.5 107.5q0 69 51 117.5t120 48.5q99 0 156 -77q52 -70 52 -172q0 -156 -97 -267q-90 -102 -246 -150zM992 935v-121q138 149 280 149q183 0 231 -176q16 -59 16 -219v-364
q0 -91 10 -115q18 -45 91 -53v-36h-473v36q53 7 76 44q16 25 16 124v416q0 87 -1 101q-7 67 -38 91q-22 16 -48 16q-86 0 -160 -123v-501q0 -85 9 -111q18 -48 83 -57v-36h-473v36q59 6 84 38q17 22 17 130v528q0 90 -10 114q-19 43 -91 52v37h381z" />
    <glyph glyph-name="Eng" unicode="&#x14a;" horiz-adv-x="1575" 
d="M561 1104q158 283 391 283q275 0 441 -341q81 -167 81 -386q0 -247 -117 -450q-138 -241 -368 -241q-90 0 -156 56q-69 59 -69 147q0 55 34.5 93.5t89.5 38.5q62 0 97 -44q32 -41 32 -104v-46q0 -63 42 -63q53 0 64 86q3 18 3 123v630q0 408 -220 408q-192 0 -345 -338
v-724q0 -81 3 -96q8 -50 49 -76q34 -23 95 -23h45v-37h-709v37h45q115 0 137 72q9 29 9 123v892q0 82 -2 96q-9 50 -48 77q-35 22 -96 22h-45v37h517v-252z" />
    <glyph glyph-name="eng" unicode="&#x14b;" horiz-adv-x="1139" 
d="M456 705v-501q0 -84 9 -110q18 -49 83 -57v-37h-473v37q72 7 91 52q10 26 10 115v528q0 91 -10 114q-18 43 -91 52v37h381v-121q130 149 280 149q164 0 222 -148q25 -64 25 -247v-600q0 -133 -17 -197q-27 -102 -108 -157.5t-200 -55.5q-99 0 -165 36q-84 45 -84 136
q0 43 29.5 75.5t72.5 32.5q82 0 82 -88q0 -10 -1.5 -29.5t-1.5 -29.5q0 -69 57 -69q47 0 56 68v104v826q0 99 -6 129q-17 79 -81 79q-89 0 -160 -123z" />
    <glyph glyph-name="Omacron" unicode="&#x14c;" horiz-adv-x="1593" 
d="M791 1375q336 0 527 -189q202 -201 202 -503q0 -258 -151 -454q-200 -260 -565 -260q-366 0 -566 248q-158 196 -158 465q0 302 206 504q193 189 505 189zM803 1311q-211 0 -300 -230q-62 -158 -62 -408q0 -347 122 -513q85 -116 238 -116q220 0 309 255q49 140 49 366
q0 465 -177 591q-78 55 -179 55zM476 1671h642v-163h-642v163z" />
    <glyph glyph-name="omacron" unicode="&#x14d;" 
d="M510 963q126 0 229.5 -64.5t157.5 -177.5q54 -116 54 -254q0 -199 -101 -333q-122 -162 -337 -162q-203 0 -325 146q-114 138 -114 345q0 206 113 347q122 153 323 153zM514 892q-116 0 -135 -190q-12 -114 -12 -316q0 -108 14 -200q22 -145 129 -145q102 0 127 120
q20 95 20 384q0 266 -75 326q-26 21 -68 21zM191 1254h642v-163h-642v163z" />
    <glyph glyph-name="Obreve" unicode="&#x14e;" horiz-adv-x="1593" 
d="M791 1375q336 0 527 -189q202 -201 202 -503q0 -258 -151 -454q-200 -260 -565 -260q-366 0 -566 248q-158 196 -158 465q0 302 206 504q193 189 505 189zM803 1311q-211 0 -300 -230q-62 -158 -62 -408q0 -347 122 -513q85 -116 238 -116q220 0 309 255q49 140 49 366
q0 465 -177 591q-78 55 -179 55zM1034 1810h65q-6 -130 -87 -222q-86 -98 -214 -98q-127 0 -214 98q-82 92 -90 222h66q50 -127 230 -127q191 0 244 127z" />
    <glyph glyph-name="obreve" unicode="&#x14f;" 
d="M510 963q126 0 229.5 -64.5t157.5 -177.5q54 -116 54 -254q0 -199 -101 -333q-122 -162 -337 -162q-203 0 -325 146q-114 138 -114 345q0 206 113 347q122 153 323 153zM514 892q-116 0 -135 -190q-12 -114 -12 -316q0 -108 14 -200q22 -145 129 -145q102 0 127 120
q20 95 20 384q0 266 -75 326q-26 21 -68 21zM750 1387h65q-6 -130 -87 -222q-86 -98 -214 -98q-127 0 -214 98q-82 92 -90 222h66q50 -127 230 -127q191 0 244 127z" />
    <glyph glyph-name="Odblacute" unicode="&#x150;" horiz-adv-x="1593" 
d="M791 1375q336 0 527 -189q202 -201 202 -503q0 -258 -151 -454q-200 -260 -565 -260q-366 0 -566 248q-158 196 -158 465q0 302 206 504q193 189 505 189zM803 1311q-211 0 -300 -230q-62 -158 -62 -408q0 -347 122 -513q85 -116 238 -116q220 0 309 255q49 140 49 366
q0 465 -177 591q-78 55 -179 55zM895 1818l-244 -345h-80l116 345h208zM1213 1818l-241 -345h-79l114 345h206z" />
    <glyph glyph-name="odblacute" unicode="&#x151;" 
d="M510 963q126 0 229.5 -64.5t157.5 -177.5q54 -116 54 -254q0 -199 -101 -333q-122 -162 -337 -162q-203 0 -325 146q-114 138 -114 345q0 206 113 347q122 153 323 153zM514 892q-116 0 -135 -190q-12 -114 -12 -316q0 -108 14 -200q22 -145 129 -145q102 0 127 120
q20 95 20 384q0 266 -75 326q-26 21 -68 21zM607 1402l-244 -345h-80l116 345h208zM925 1402l-241 -345h-79l114 345h206z" />
    <glyph glyph-name="OE" unicode="&#x152;" horiz-adv-x="2048" 
d="M1852 1356v-404h-40q-36 226 -192 292q-75 31 -176 31h-161v-551h32q99 0 158.5 78.5t72.5 241.5h38v-709h-38q-52 314 -231 314h-32v-343q0 -121 0 -113q5 -84 36 -102q27 -16 99 -16h61q169 0 283 95q109 92 150 259h38l-62 -429h-753q-34 0 -105 -6q-141 -12 -263 -12
q-420 0 -601 336q-92 170 -92 360q0 264 160 462q190 235 506 235q116 0 249 -14q48 -5 136 -5h727zM957 1027q0 111 -5 137q-10 54 -48 85q-51 42 -129 42q-341 0 -341 -658q0 -225 59 -368q84 -204 276 -204q116 0 157 64q31 49 31 176v726z" />
    <glyph glyph-name="oe" unicode="&#x153;" horiz-adv-x="1479" 
d="M1422 495h-492q13 -141 61 -239q67 -136 187 -136q116 0 212 155l32 -23q-145 -280 -372 -280q-141 0 -255 123q-69 -67 -125 -93q-63 -30 -152 -30q-232 0 -355 172q-93 130 -93 315q0 305 220 439q107 65 228 65q166 0 290 -139q114 139 261 139q176 0 272 -152
q80 -129 81 -316zM520 893q-98 0 -135 -141q-22 -84 -22 -317q0 -309 77 -371q26 -21 71 -21q103 0 136 134q19 80 19 335q0 135 -7 188q-15 126 -69 170q-28 23 -70 23zM1177 564l1 76q0 252 -117 252q-77 0 -109 -106q-26 -85 -26 -222h251z" />
    <glyph glyph-name="Racute" unicode="&#x154;" horiz-adv-x="1479" 
d="M544 618v-380q0 -84 4 -104q11 -57 57 -80q34 -17 127 -17v-37h-694v37q144 0 175 63q13 28 13 138v880q0 84 -4 104q-11 57 -57 80q-34 17 -127 17v37h630q204 0 296 -18q165 -34 250 -141q72 -92 72 -215q0 -266 -301 -341l326 -459q64 -90 91 -111q40 -31 95 -34v-37
h-427l-437 618h-89zM544 1283v-594h57q118 0 178 16q93 25 139 102q39 66 39 173q0 303 -306 303h-107zM1034 1819l-331 -347h-86l116 347h301z" />
    <glyph glyph-name="racute" unicode="&#x155;" horiz-adv-x="909" 
d="M457 935v-212q154 240 298 240q123 0 123 -132q0 -57 -26 -96q-31 -45 -85 -45q-46 0 -77 24t-61 48q-10 6 -23 6q-29 0 -55 -22q-41 -35 -62 -97q-32 -97 -32 -214l1 -271q1 -60 7 -73q22 -50 115 -55v-36h-505v36q76 6 95 59q9 26 9 125v517q0 80 -8 102q-18 51 -96 59
v37h382zM755 1402l-331 -347h-86l116 347h301z" />
    <glyph glyph-name="Rcedilla" unicode="&#x156;" horiz-adv-x="1479" 
d="M544 618v-380q0 -84 4 -104q11 -57 57 -80q34 -17 127 -17v-37h-694v37q144 0 175 63q13 28 13 138v880q0 84 -4 104q-11 57 -57 80q-34 17 -127 17v37h630q204 0 296 -18q165 -34 250 -141q72 -92 72 -215q0 -266 -301 -341l326 -459q64 -90 91 -111q40 -31 95 -34v-37
h-427l-437 618h-89zM544 1283v-594h57q118 0 178 16q93 25 139 102q39 66 39 173q0 303 -306 303h-107zM642 -60q40 5 76 5q184 0 184 -151q0 -179 -282 -179h-58v47q171 4 171 109q0 72 -91 72v97z" />
    <glyph glyph-name="rcedilla" unicode="&#x157;" horiz-adv-x="909" 
d="M457 935v-212q154 240 298 240q123 0 123 -132q0 -57 -26 -96q-31 -45 -85 -45q-46 0 -77 24t-61 48q-10 6 -23 6q-29 0 -55 -22q-41 -35 -62 -97q-32 -97 -32 -214l1 -271q1 -60 7 -73q22 -50 115 -55v-36h-505v36q76 6 95 59q9 26 9 125v517q0 80 -8 102q-18 51 -96 59
v37h382zM338 -60q40 5 76 5q184 0 184 -151q0 -179 -282 -179h-58v47q171 4 171 109q0 72 -91 72v97z" />
    <glyph glyph-name="Rcaron" unicode="&#x158;" horiz-adv-x="1479" 
d="M544 618v-380q0 -84 4 -104q11 -57 57 -80q34 -17 127 -17v-37h-694v37q144 0 175 63q13 28 13 138v880q0 84 -4 104q-11 57 -57 80q-34 17 -127 17v37h630q204 0 296 -18q165 -34 250 -141q72 -92 72 -215q0 -266 -301 -341l326 -459q64 -90 91 -111q40 -31 95 -34v-37
h-427l-437 618h-89zM544 1283v-594h57q118 0 178 16q93 25 139 102q39 66 39 173q0 303 -306 303h-107zM625 1443l-202 382h76l239 -206l245 200h82l-214 -376h-226z" />
    <glyph glyph-name="rcaron" unicode="&#x159;" horiz-adv-x="909" 
d="M457 935v-212q154 240 298 240q123 0 123 -132q0 -57 -26 -96q-31 -45 -85 -45q-46 0 -77 24t-61 48q-10 6 -23 6q-29 0 -55 -22q-41 -35 -62 -97q-32 -97 -32 -214l1 -271q1 -60 7 -73q22 -50 115 -55v-36h-505v36q76 6 95 59q9 26 9 125v517q0 80 -8 102q-18 51 -96 59
v37h382zM358 1045l-202 382h76l239 -206l245 200h82l-214 -376h-226z" />
    <glyph glyph-name="Sacute" unicode="&#x15a;" horiz-adv-x="1139" 
d="M962 1387l11 -452h-41q-26 152 -128 260q-112 117 -260 117q-87 0 -150 -45q-71 -51 -71 -135q0 -92 114 -173q46 -33 217 -117q192 -95 275 -173q128 -120 128 -286q0 -185 -145 -304q-135 -111 -324 -111q-116 0 -264 62q-48 20 -79 20q-66 0 -102 -81h-37v512h37
q37 -182 144 -303q123 -140 296 -140q97 0 167 52q78 57 78 151q0 98 -103 179q-52 40 -184 105q-151 74 -219 121q-118 80 -171 177q-44 79 -44 174q0 171 125 283q121 107 294 107q66 0 128 -16q23 -6 111 -44q76 -33 98 -33q49 0 69 93h30zM859 1819l-331 -347h-86
l116 347h301z" />
    <glyph glyph-name="sacute" unicode="&#x15b;" horiz-adv-x="797" 
d="M660 961l15 -319h-34q-106 246 -257 246q-39 0 -69 -26.5t-30 -64.5q0 -27 20 -52q41 -52 187 -148q138 -91 185 -161t47 -156q0 -81 -40 -155t-110 -113.5t-156 -39.5q-66 0 -179 42q-29 11 -41 11q-33 0 -55 -50h-33l-16 336h34q34 -101 100 -174q80 -90 172 -90
q45 0 77 28t32 73q0 58 -58 112q-18 16 -106 77q-152 105 -198 162q-66 82 -66 181q0 125 82 204t208 79q77 0 147 -37q28 -15 44 -15q30 0 64 50h34zM681 1402l-331 -347h-86l116 347h301z" />
    <glyph glyph-name="Scircumflex" unicode="&#x15c;" horiz-adv-x="1139" 
d="M962 1387l11 -452h-41q-26 152 -128 260q-112 117 -260 117q-87 0 -150 -45q-71 -51 -71 -135q0 -92 114 -173q46 -33 217 -117q192 -95 275 -173q128 -120 128 -286q0 -185 -145 -304q-135 -111 -324 -111q-116 0 -264 62q-48 20 -79 20q-66 0 -102 -81h-37v512h37
q37 -182 144 -303q123 -140 296 -140q97 0 167 52q78 57 78 151q0 98 -103 179q-52 40 -184 105q-151 74 -219 121q-118 80 -171 177q-44 79 -44 174q0 171 125 283q121 107 294 107q66 0 128 -16q23 -6 111 -44q76 -33 98 -33q49 0 69 93h30zM687 1867l203 -382h-77
l-238 206l-245 -200h-82l213 376h226z" />
    <glyph glyph-name="scircumflex" unicode="&#x15d;" horiz-adv-x="797" 
d="M660 961l15 -319h-34q-106 246 -257 246q-39 0 -69 -26.5t-30 -64.5q0 -27 20 -52q41 -52 187 -148q138 -91 185 -161t47 -156q0 -81 -40 -155t-110 -113.5t-156 -39.5q-66 0 -179 42q-29 11 -41 11q-33 0 -55 -50h-33l-16 336h34q34 -101 100 -174q80 -90 172 -90
q45 0 77 28t32 73q0 58 -58 112q-18 16 -106 77q-152 105 -198 162q-66 82 -66 181q0 125 82 204t208 79q77 0 147 -37q28 -15 44 -15q30 0 64 50h34zM517 1427l203 -382h-77l-238 206l-245 -200h-82l213 376h226z" />
    <glyph glyph-name="Scedilla" unicode="&#x15e;" horiz-adv-x="1139" 
d="M962 1387l11 -452h-41q-26 152 -128 260q-112 117 -260 117q-87 0 -150 -45q-71 -51 -71 -135q0 -92 114 -173q46 -33 217 -117q192 -95 275 -173q128 -120 128 -286q0 -185 -145 -304q-135 -111 -324 -111q-116 0 -264 62q-48 20 -79 20q-66 0 -102 -81h-37v512h37
q37 -182 144 -303q123 -140 296 -140q97 0 167 52q78 57 78 151q0 98 -103 179q-52 40 -184 105q-151 74 -219 121q-118 80 -171 177q-44 79 -44 174q0 171 125 283q121 107 294 107q66 0 128 -16q23 -6 111 -44q76 -33 98 -33q49 0 69 93h30zM579 12h66l-47 -73
q123 -21 123 -145q0 -51 -31 -95t-79 -60q-74 -25 -230 -24v47q171 7 171 111q0 70 -91 70z" />
    <glyph glyph-name="scedilla" unicode="&#x15f;" horiz-adv-x="797" 
d="M660 961l15 -319h-34q-106 246 -257 246q-39 0 -69 -26.5t-30 -64.5q0 -27 20 -52q41 -52 187 -148q138 -91 185 -161t47 -156q0 -81 -40 -155t-110 -113.5t-156 -39.5q-66 0 -179 42q-29 11 -41 11q-33 0 -55 -50h-33l-16 336h34q34 -101 100 -174q80 -90 172 -90
q45 0 77 28t32 73q0 58 -58 112q-18 16 -106 77q-152 105 -198 162q-66 82 -66 181q0 125 82 204t208 79q77 0 147 -37q28 -15 44 -15q30 0 64 50h34zM394 13h66l-47 -73q123 -21 123 -145q0 -51 -31 -95t-79 -60q-74 -25 -230 -24v47q171 7 171 111q0 70 -91 70z" />
    <glyph glyph-name="Scaron" unicode="&#x160;" horiz-adv-x="1139" 
d="M962 1387l11 -452h-41q-26 152 -128 260q-112 117 -260 117q-87 0 -150 -45q-71 -51 -71 -135q0 -92 114 -173q46 -33 217 -117q192 -95 275 -173q128 -120 128 -286q0 -185 -145 -304q-135 -111 -324 -111q-116 0 -264 62q-48 20 -79 20q-66 0 -102 -81h-37v512h37
q37 -182 144 -303q123 -140 296 -140q97 0 167 52q78 57 78 151q0 98 -103 179q-52 40 -184 105q-151 74 -219 121q-118 80 -171 177q-44 79 -44 174q0 171 125 283q121 107 294 107q66 0 128 -16q23 -6 111 -44q76 -33 98 -33q49 0 69 93h30zM445 1443l-202 382h76
l239 -206l245 200h82l-214 -376h-226z" />
    <glyph glyph-name="scaron" unicode="&#x161;" horiz-adv-x="797" 
d="M660 961l15 -319h-34q-106 246 -257 246q-39 0 -69 -26.5t-30 -64.5q0 -27 20 -52q41 -52 187 -148q138 -91 185 -161t47 -156q0 -81 -40 -155t-110 -113.5t-156 -39.5q-66 0 -179 42q-29 11 -41 11q-33 0 -55 -50h-33l-16 336h34q34 -101 100 -174q80 -90 172 -90
q45 0 77 28t32 73q0 58 -58 112q-18 16 -106 77q-152 105 -198 162q-66 82 -66 181q0 125 82 204t208 79q77 0 147 -37q28 -15 44 -15q30 0 64 50h34zM271 1045l-202 382h76l239 -206l245 200h82l-214 -376h-226z" />
    <glyph glyph-name="Tcedilla" unicode="&#x162;" horiz-adv-x="1366" 
d="M1292 1356v-367h-36q-27 107 -57 159q-42 74 -121 112q-37 18 -133 18h-101v-1046q0 -82 3 -99q10 -51 54 -76q33 -20 91 -20h45v-37h-710v37h45q105 0 136 69q11 25 11 126v1046h-98q-137 0 -199 -58q-87 -81 -110 -231h-38v367h1218zM559 -494v29q161 60 161 165
q0 26 -14 26l-14 -5q-21 -11 -52 -11q-41 0 -72.5 28.5t-31.5 68.5q0 46 39 77q37 28 84 28q67 0 108.5 -45t41.5 -113q0 -184 -250 -248z" />
    <glyph glyph-name="tcedilla" unicode="&#x163;" horiz-adv-x="682" 
d="M440 1277v-342h222v-99h-222v-577q0 -117 34 -142q19 -15 35 -15q65 0 123 99l30 -22q-81 -192 -263 -192q-77 0 -141 43q-67 45 -88 117q-10 35 -10 184v505h-122v35q240 170 369 406h33zM250 -494v29q161 60 161 165q0 26 -14 26q-5 0 -14 -5q-21 -11 -52 -11
q-41 0 -72.5 28.5t-31.5 68.5q0 46 39 77q37 28 84 28q67 0 108.5 -45t41.5 -113q0 -184 -250 -248z" />
    <glyph glyph-name="Tcaron" unicode="&#x164;" horiz-adv-x="1366" 
d="M1292 1356v-367h-36q-27 107 -57 159q-42 74 -121 112q-37 18 -133 18h-101v-1046q0 -82 3 -99q10 -51 54 -76q33 -20 91 -20h45v-37h-710v37h45q105 0 136 69q11 25 11 126v1046h-98q-137 0 -199 -58q-87 -81 -110 -231h-38v367h1218zM564 1443l-202 382h76l239 -206
l245 200h82l-214 -376h-226z" />
    <glyph glyph-name="tcaron" unicode="&#x165;" horiz-adv-x="1067" 
d="M699 721v44q221 95 221 293q0 16 -6.5 24.5t-14.5 8.5q-6 0 -18 -7q-29 -17 -72 -17q-61 0 -103.5 46.5t-42.5 107.5q0 69 51 117.5t120 48.5q99 0 156 -77q52 -70 52 -172q0 -157 -97 -267q-89 -102 -246 -150zM439 1277v-342h222v-99h-222v-577q0 -117 34 -142
q19 -15 35 -15q65 0 123 99l30 -22q-81 -192 -263 -192q-77 0 -141 43q-67 45 -88 117q-10 35 -10 184v505h-122v35q240 170 369 406h33z" />
    <glyph glyph-name="Tbar" unicode="&#x166;" horiz-adv-x="1366" 
d="M519 674h-303v84h303v520h-98q-94 0 -148 -24q-63 -28 -105 -102t-56 -163h-38v367h1218v-367h-36q-51 211 -163 264q-53 25 -148 25h-101v-520h307v-84h-307v-427q0 -85 2 -101q9 -57 47 -85q33 -24 99 -24h45v-37h-710v37h45q119 0 139 75q8 29 8 120v442z" />
    <glyph glyph-name="tbar" unicode="&#x167;" horiz-adv-x="682" 
d="M159 526h-122v83h122v227h-122v35q244 168 369 406h33v-342h222v-99h-222v-227h222v-83h-222v-267q0 -157 72 -157q64 0 120 99l30 -22q-82 -192 -264 -192q-71 0 -136 38q-72 43 -89 107q-13 49 -13 199v195z" />
    <glyph glyph-name="Utilde" unicode="&#x168;" horiz-adv-x="1479" 
d="M48 1356h700v-37h-35q-124 0 -150 -62q-13 -29 -13 -145v-664q0 -140 12 -190q23 -98 106 -149q63 -39 159 -39q221 0 304 186q38 87 38 303v553q0 150 -67 184q-45 23 -127 23v37h469v-37h-28q-115 0 -150 -92q-13 -34 -13 -115v-515q0 -220 -20 -300
q-35 -145 -165 -240q-122 -89 -333 -89q-176 0 -272 47q-135 66 -191 175q-48 96 -48 258v664q0 89 -3 107q-10 60 -55 84q-32 17 -118 16v37zM1027 1767h53q1 -20 1 -34q0 -100 -55 -169q-59 -75 -157 -75q-60 0 -162.5 47t-132.5 47q-64 0 -78 -92h-58q-3 112 49 190
q59 88 167 88q29 0 50 -6q26 -7 96 -40q102 -47 147 -47q50 0 80 91z" />
    <glyph glyph-name="utilde" unicode="&#x169;" horiz-adv-x="1139" 
d="M972 935v-732q0 -90 10 -114q19 -45 91 -53v-36h-381v125q-128 -153 -284 -153q-74 0 -137 45.5t-86 116.5q-21 65 -21 227v371q0 90 -10 114q-19 43 -91 52v37h381v-639q0 -144 40 -173q20 -15 47 -15q73 0 161 124v500q0 90 -10 114q-19 43 -91 52v37h381zM840 1368h53
q1 -20 1 -34q0 -100 -55 -169q-59 -75 -157 -75q-60 0 -162.5 47t-132.5 47q-64 0 -78 -92h-58q-3 112 49 190q59 88 167 88q29 0 50 -6q26 -7 96 -40q102 -47 147 -47q50 0 80 91z" />
    <glyph glyph-name="Umacron" unicode="&#x16a;" horiz-adv-x="1479" 
d="M48 1356h700v-37h-35q-124 0 -150 -62q-13 -29 -13 -145v-664q0 -140 12 -190q23 -98 106 -149q63 -39 159 -39q221 0 304 186q38 87 38 303v553q0 150 -67 184q-45 23 -127 23v37h469v-37h-28q-115 0 -150 -92q-13 -34 -13 -115v-515q0 -220 -20 -300
q-35 -145 -165 -240q-122 -89 -333 -89q-176 0 -272 47q-135 66 -191 175q-48 96 -48 258v664q0 89 -3 107q-10 60 -55 84q-32 17 -118 16v37zM406 1671h642v-163h-642v163z" />
    <glyph glyph-name="umacron" unicode="&#x16b;" horiz-adv-x="1139" 
d="M972 935v-732q0 -90 10 -114q19 -45 91 -53v-36h-381v125q-128 -153 -284 -153q-74 0 -137 45.5t-86 116.5q-21 65 -21 227v371q0 90 -10 114q-19 43 -91 52v37h381v-639q0 -144 40 -173q20 -15 47 -15q73 0 161 124v500q0 90 -10 114q-19 43 -91 52v37h381zM249 1254
h642v-163h-642v163z" />
    <glyph glyph-name="Ubreve" unicode="&#x16c;" horiz-adv-x="1479" 
d="M48 1356h700v-37h-35q-124 0 -150 -62q-13 -29 -13 -145v-664q0 -140 12 -190q23 -98 106 -149q63 -39 159 -39q221 0 304 186q38 87 38 303v553q0 150 -67 184q-45 23 -127 23v37h469v-37h-28q-115 0 -150 -92q-13 -34 -13 -115v-515q0 -220 -20 -300
q-35 -145 -165 -240q-122 -89 -333 -89q-176 0 -272 47q-135 66 -191 175q-48 96 -48 258v664q0 89 -3 107q-10 60 -55 84q-32 17 -118 16v37zM977 1810h65q-6 -130 -87 -222q-86 -98 -214 -98q-127 0 -214 98q-82 92 -90 222h66q50 -127 230 -127q191 0 244 127z" />
    <glyph glyph-name="ubreve" unicode="&#x16d;" horiz-adv-x="1139" 
d="M972 935v-732q0 -90 10 -114q19 -45 91 -53v-36h-381v125q-128 -153 -284 -153q-74 0 -137 45.5t-86 116.5q-21 65 -21 227v371q0 90 -10 114q-19 43 -91 52v37h381v-639q0 -144 40 -173q20 -15 47 -15q73 0 161 124v500q0 90 -10 114q-19 43 -91 52v37h381zM807 1387h65
q-6 -130 -87 -222q-86 -98 -214 -98q-127 0 -214 98q-82 92 -90 222h66q50 -127 230 -127q191 0 244 127z" />
    <glyph glyph-name="Uring" unicode="&#x16e;" horiz-adv-x="1479" 
d="M48 1356h700v-37h-35q-124 0 -150 -62q-13 -29 -13 -145v-664q0 -140 12 -190q23 -98 106 -149q63 -39 159 -39q221 0 304 186q38 87 38 303v553q0 150 -67 184q-45 23 -127 23v37h469v-37h-28q-115 0 -150 -92q-13 -34 -13 -115v-515q0 -220 -20 -300
q-35 -145 -165 -240q-122 -89 -333 -89q-176 0 -272 47q-135 66 -191 175q-48 96 -48 258v664q0 89 -3 107q-10 60 -55 84q-32 17 -118 16v37zM761 1858q88 0 149 -60.5t61 -148.5t-61 -149t-149 -61q-87 0 -148 61.5t-61 148.5q0 88 60.5 148.5t148.5 60.5zM762 1781
q-56 0 -94.5 -38t-38.5 -94q0 -55 39 -93.5t94 -38.5t93.5 38.5t38.5 93.5t-38.5 93.5t-93.5 38.5z" />
    <glyph glyph-name="uring" unicode="&#x16f;" horiz-adv-x="1139" 
d="M972 935v-732q0 -90 10 -114q19 -45 91 -53v-36h-381v125q-128 -153 -284 -153q-74 0 -137 45.5t-86 116.5q-21 65 -21 227v371q0 90 -10 114q-19 43 -91 52v37h381v-639q0 -144 40 -173q20 -15 47 -15q73 0 161 124v500q0 90 -10 114q-19 43 -91 52v37h381zM568 1437
q88 0 149 -60.5t61 -148.5t-61 -149t-149 -61q-87 0 -148 61.5t-61 148.5q0 88 60.5 148.5t148.5 60.5zM569 1360q-56 0 -94.5 -38t-38.5 -94q0 -55 39 -93.5t94 -38.5t93.5 38.5t38.5 93.5t-38.5 93.5t-93.5 38.5z" />
    <glyph glyph-name="Udblacute" unicode="&#x170;" horiz-adv-x="1479" 
d="M48 1356h700v-37h-35q-124 0 -150 -62q-13 -29 -13 -145v-664q0 -140 12 -190q23 -98 106 -149q63 -39 159 -39q221 0 304 186q38 87 38 303v553q0 150 -67 184q-45 23 -127 23v37h469v-37h-28q-115 0 -150 -92q-13 -34 -13 -115v-515q0 -220 -20 -300
q-35 -145 -165 -240q-122 -89 -333 -89q-176 0 -272 47q-135 66 -191 175q-48 96 -48 258v664q0 89 -3 107q-10 60 -55 84q-32 17 -118 16v37zM818 1818l-244 -345h-80l116 345h208zM1136 1818l-241 -345h-79l114 345h206z" />
    <glyph glyph-name="udblacute" unicode="&#x171;" horiz-adv-x="1139" 
d="M972 935v-732q0 -90 10 -114q19 -45 91 -53v-36h-381v125q-128 -153 -284 -153q-74 0 -137 45.5t-86 116.5q-21 65 -21 227v371q0 90 -10 114q-19 43 -91 52v37h381v-639q0 -144 40 -173q20 -15 47 -15q73 0 161 124v500q0 90 -10 114q-19 43 -91 52v37h381zM663 1402
l-244 -345h-80l116 345h208zM981 1402l-241 -345h-79l114 345h206z" />
    <glyph glyph-name="Uogonek" unicode="&#x172;" horiz-adv-x="1479" 
d="M855 -23q-48 -51 -48 -110q0 -103 88 -167q79 -58 185 -58l29 -33q-87 -71 -200 -71q-106 0 -190 68q-89 72 -89 176q0 105 101 187q-504 0 -504 479v664q0 89 -3 108q-11 65 -56 84q-35 15 -117 15v37h700v-37h-35q-137 0 -155 -73q-8 -33 -8 -134v-664q0 -140 9 -183
q19 -92 96 -147q66 -48 171 -48q240 0 312 205q31 88 31 284v553q0 105 -32 151q-38 56 -137 56h-25v37h469v-37h-28q-96 0 -133 -58q-30 -46 -30 -149v-515q0 -205 -16 -281q-30 -146 -138 -235q-100 -83 -247 -104z" />
    <glyph glyph-name="uogonek" unicode="&#x173;" horiz-adv-x="1139" 
d="M849 0q-74 -61 -74 -132q0 -103 87 -168q80 -58 186 -58l29 -33q-87 -71 -200 -71q-105 0 -190 68q-89 73 -89 176q0 138 151 218h-53v125q-122 -153 -284 -153q-145 0 -216 139q-28 55 -28 250v371q0 91 -10 114q-18 43 -91 52v37h381v-639q0 -88 8 -119q18 -69 79 -69
q72 0 161 124v500q0 90 -10 114q-18 43 -91 52v37h381v-732q0 -90 10 -114q18 -43 91 -52v-37h-228z" />
    <glyph glyph-name="Wcircumflex" unicode="&#x174;" horiz-adv-x="2048" 
d="M2030 1356v-37q-73 -6 -110 -76q-15 -27 -63 -155l-425 -1119h-39l-336 874l-370 -874h-37l-446 1107q-59 147 -62 153q-47 83 -124 90v37h588v-37q-118 -3 -118 -70q0 -40 49 -161l266 -658l213 514l-56 144q-36 92 -49 118q-37 74 -79 96q-33 17 -96 17v37h657v-37
q-50 -1 -71 -4q-44 -7 -61 -30q-12 -17 -12 -38q0 -24 45 -141l247 -642l221 581q51 134 51 184q0 87 -135 90v37h352zM1142 1867l203 -382h-77l-238 206l-245 -200h-82l213 376h226z" />
    <glyph glyph-name="wcircumflex" unicode="&#x175;" horiz-adv-x="1479" 
d="M996 -28l-256 686l-251 -686h-52l-249 678q-57 155 -95 202q-26 32 -76 46v37h472v-37q-84 0 -84 -46q0 -17 32 -102l137 -365l132 365l-10 24q-27 66 -42 83q-26 32 -80 41v37h479v-37q-86 -5 -86 -51q0 -17 29 -97l132 -365l120 336q26 73 26 98q0 72 -93 79v37h277
v-37q-62 -8 -97 -66q-12 -21 -46 -117l-262 -743h-57zM857 1427l203 -382h-77l-238 206l-245 -200h-82l213 376h226z" />
    <glyph glyph-name="Ycircumflex" unicode="&#x176;" horiz-adv-x="1479" 
d="M1456 1356v-37q-67 -9 -103 -39q-42 -35 -158 -229l-294 -491v-328q0 -83 3 -99q9 -51 52 -76q32 -20 86 -20h76v-37h-761v37h71q58 0 95 21q26 15 41 48q11 25 11 126v272l-319 581q-74 135 -90 155q-61 78 -148 79v37h650v-37h-29q-106 0 -106 -53q0 -34 80 -181
l245 -449l244 409q91 153 91 199q0 67 -151 75v37h414zM891 1867l203 -382h-77l-238 206l-245 -200h-82l213 376h226z" />
    <glyph glyph-name="ycircumflex" unicode="&#x177;" 
d="M498 -38l-302 693q-53 121 -66 143q-47 80 -113 100v37h497v-37q-89 -4 -89 -60q0 -36 50 -150l160 -366l109 283q59 153 59 210q0 79 -111 83v37h313v-37q-68 -7 -114 -95q-4 -8 -58 -148l-267 -693q-100 -258 -150 -320q-69 -84 -173 -84q-76 0 -129 42q-57 46 -57 120
q0 56 34 95t89 39q110 0 112 -131q1 -60 32 -60q24 0 51 29q37 40 94 192zM631 1427l203 -382h-77l-238 206l-245 -200h-82l213 376h226z" />
    <glyph glyph-name="Ydieresis" unicode="&#x178;" horiz-adv-x="1479" 
d="M1456 1356v-37q-67 -9 -103 -39q-42 -35 -158 -229l-294 -491v-328q0 -83 3 -99q9 -51 52 -76q32 -20 86 -20h76v-37h-761v37h71q58 0 95 21q26 15 41 48q11 25 11 126v272l-319 581q-74 135 -90 155q-61 78 -148 79v37h650v-37h-29q-106 0 -106 -53q0 -34 80 -181
l245 -449l244 409q91 153 91 199q0 67 -151 75v37h414zM972 1756q56 0 94.5 -38.5t38.5 -94.5q0 -55 -39 -94t-94 -39t-94 39t-39 94t39 94t94 39zM598 1756q56 0 94.5 -38.5t38.5 -94.5q0 -55 -39 -94t-94 -39t-94 39t-39 94t39 94t94 39z" />
    <glyph glyph-name="Zacute" unicode="&#x179;" horiz-adv-x="1366" 
d="M1250 1356l-797 -1280h258q181 0 256 23q261 80 324 391h39l-55 -490h-1242l798 1282h-201q-117 0 -154 -7q-154 -29 -233 -154q-41 -64 -64 -162h-37l37 397h1071zM1008 1819l-331 -347h-86l116 347h301z" />
    <glyph glyph-name="zacute" unicode="&#x17a;" horiz-adv-x="909" 
d="M835 0h-814v22l514 852h-150q-157 0 -207 -73q-26 -39 -54 -138h-35v272h787v-27l-510 -844h64q177 0 259 45q100 55 146 211h28zM775 1402l-331 -347h-86l116 347h301z" />
    <glyph glyph-name="Zdot" unicode="&#x17b;" horiz-adv-x="1366" 
d="M1250 1356l-797 -1280h258q181 0 256 23q261 80 324 391h39l-55 -490h-1242l798 1282h-201q-117 0 -154 -7q-154 -29 -233 -154q-41 -64 -64 -162h-37l37 397h1071zM706 1755q61 0 104 -43t43 -104t-43 -104t-104 -43t-104 43t-43 104t43 104t104 43z" />
    <glyph glyph-name="zdot" unicode="&#x17c;" horiz-adv-x="909" 
d="M835 0h-814v22l514 852h-150q-157 0 -207 -73q-26 -39 -54 -138h-35v272h787v-27l-510 -844h64q177 0 259 45q100 55 146 211h28zM497 1368q61 0 104 -43t43 -104t-43 -104t-104 -43t-104 43t-43 104t43 104t104 43z" />
    <glyph glyph-name="Zcaron" unicode="&#x17d;" horiz-adv-x="1366" 
d="M1250 1356l-797 -1280h258q181 0 256 23q261 80 324 391h39l-55 -490h-1242l798 1282h-201q-117 0 -154 -7q-154 -29 -233 -154q-41 -64 -64 -162h-37l37 397h1071zM563 1443l-202 382h76l239 -206l245 200h82l-214 -376h-226z" />
    <glyph glyph-name="zcaron" unicode="&#x17e;" horiz-adv-x="909" 
d="M835 0h-814v22l514 852h-150q-157 0 -207 -73q-26 -39 -54 -138h-35v272h787v-27l-510 -844h64q177 0 259 45q100 55 146 211h28zM374 1045l-202 382h76l239 -206l245 200h82l-214 -376h-226z" />
    <glyph glyph-name="longs" unicode="&#x17f;" horiz-adv-x="569" 
d="M423 188q0 -91 23 -119q26 -33 114 -33v-36h-553v36q87 0 113 33q23 28 23 119v816q0 119 28 185q34 79 126 137q96 61 238 61q88 0 155 -30q88 -40 88 -118q0 -51 -44 -83q-39 -28 -92 -28q-44 0 -76 22q-36 25 -36 67q0 9 4.5 31.5t4.5 33.5q0 47 -50 47
q-69 0 -68 -107l2 -168v-866z" />
    <glyph glyph-name="florin" unicode="&#x192;" 
d="M711 784l-101 -500q-54 -267 -81 -352q-68 -207 -185 -301q-92 -73 -189 -73q-59 0 -104 27q-52 33 -52 89q0 41 31 70t72 29q93 0 93 -78q0 -13 -4 -24q-9 -24 -9 -30q0 -22 29 -22q39 0 60 45q17 34 17 78q0 22 -6 102q-3 40 -3 82q0 125 40 322l109 536h-142l25 122
q112 0 167 59q38 41 85 165q95 258 301 258q67 0 111 -30q50 -34 50 -98q0 -48 -30 -81t-78 -33q-36 0 -62 24t-26 59q0 21 27 75q5 10 5 16q0 21 -27 21q-48 0 -74 -48q-21 -39 -21 -91q0 -29 4.5 -86t4.5 -86q0 -46 -14 -124h154l-24 -122h-153z" />
    <glyph glyph-name="Aringacute" unicode="&#x1fa;" horiz-adv-x="1479" 
d="M557 1278v-552h27q135 0 198 97q48 73 63 223h38v-710h-38q-24 231 -140 290q-51 25 -148 25v-382q0 -89 1 -97q7 -58 44 -81q26 -16 84 -16h81q370 0 469 356h37l-61 -431h-1172v37h45q105 0 135 69q11 26 11 126v892q0 94 -5 113q-9 34 -37 54q-39 28 -104 28h-45v37
h1135v-401h-38q-25 128 -68 191q-53 79 -162 114q-57 18 -210 18h-140zM1043 2101l-331 -347h-86l116 347h301z" />
    <glyph glyph-name="aringacute" unicode="&#x1fb;" 
d="M861 501h-513q9 -186 99 -294q69 -83 166 -83q115 0 214 154l34 -22q-139 -284 -381 -284q-208 0 -315 160q-86 129 -86 320q0 204 107 349q119 162 316 162q174 0 271 -150q81 -125 88 -312zM615 568q0 119 -6 165q-15 104 -66 147q-21 18 -56 18q-51 0 -85 -51
q-59 -90 -59 -244v-35h272zM803 1838l-331 -347h-86l116 347h301z" />
    <glyph glyph-name="AEacute" unicode="&#x1fc;" horiz-adv-x="2048" 
d="M1359 1356v-37q-113 -1 -148 -28q-43 -32 -43 -139v-413q89 3 115 9q54 14 90 65q31 45 62 166q34 133 59 191q45 107 118 158q64 44 161 44q89 0 148 -49q64 -52 64 -139q0 -61 -36.5 -98t-97.5 -37q-115 0 -124 131q-5 66 -50 66q-76 0 -143 -233q-42 -147 -49 -165
q-39 -100 -97 -133q124 -40 183 -123q22 -31 114 -201l116 -213q44 -80 73 -105q42 -36 119 -36v-37h-422l-263 534q-35 70 -50 85q-26 24 -90 27v-438q0 -73 5 -92q11 -38 58 -63q28 -16 128 -16v-37h-693v37q142 0 173 53q17 29 17 111v445q-59 -1 -84 -21
q-18 -15 -48 -76l-271 -549h-422v37q113 0 194 127q57 114 114 227q85 161 114 199q69 89 183 125q-58 33 -96 134q-5 13 -49 164q-67 233 -144 233q-44 0 -49 -66q-10 -131 -124 -131q-61 0 -98 37.5t-37 98.5q0 86 64 138q60 49 148 49q182 0 263 -166q36 -74 75 -227
q37 -144 79 -187q52 -53 188 -53v413q0 104 -44 138q-37 29 -146 29v37h693zM1399 1838l-331 -347h-86l116 347h301z" />
    <glyph glyph-name="aeacute" unicode="&#x1fd;" horiz-adv-x="1479" 
d="M501 0v37q62 1 85 41q17 29 17 98v279q-37 0 -65 -56l-198 -399h-328v37q42 0 63 16q17 14 38 56l130 263q36 73 79 101q39 24 124 37q-54 61 -98 206q-40 133 -75 133q-25 0 -29 -64q-9 -126 -96 -126q-109 0 -109 132q0 70 47.5 115t118.5 45q82 0 134 -69
q34 -45 67 -144q43 -126 61 -153q44 -67 136 -67v247q0 129 -102 133v37h484v-37q-68 -4 -88 -41q-14 -26 -14 -103v-236q101 0 141 77q18 36 62 163q66 193 195 193q70 0 118 -45.5t48 -114.5q0 -54 -28 -90q-30 -41 -82 -41q-96 0 -97 134q-1 55 -25 55q-40 0 -81 -140
q-43 -145 -94 -199q91 -13 130 -42.5t81 -113.5l122 -245q21 -42 38.5 -56t61.5 -16v-37h-328l-198 399q-27 55 -64 56v-298q0 -68 18 -90t84 -30v-37h-484zM1043 1402l-331 -347h-86l116 347h301z" />
    <glyph glyph-name="Oslashacute" unicode="&#x1fe;" horiz-adv-x="1593" 
d="M86 1319v37h618v-37h-24q-85 0 -109 -58q-13 -33 -13 -136v-917q0 -84 24 -104q20 -16 108 -16h126q104 0 122 12q24 17 24 108v917q0 104 -14 136q-24 58 -109 58h-23v37h618v-37h-24q-85 0 -109 -58q-13 -32 -13 -136v-895q0 -105 13 -121q17 -21 119 -21h159
q84 0 101 24q12 17 12 106v907q0 102 -14 136q-24 58 -109 58h-23v37h617v-37h-23q-85 0 -109 -58q-14 -33 -14 -136v-895q0 -105 13 -136q24 -57 110 -57h23v-37h-2077v37h23q90 0 113 63q10 29 10 144v881q0 103 -14 136q-24 58 -109 58h-23zM1101 1838l-331 -347h-86
l116 347h301z" />
    <glyph glyph-name="oslashacute" unicode="&#x1ff;" 
d="M71 0v37q63 0 87 37q18 29 18 97v579q0 77 -15 105q-22 40 -90 43v37h471v-37q-56 -9 -74 -52q-12 -29 -12 -96v-589q0 -53 13 -73q16 -26 65 -26h102q54 0 72 23q16 19 16 76v574q0 77 -10 105q-18 48 -78 58v37h455v-37q-59 -9 -77 -55q-10 -27 -10 -101v-581
q0 -58 15 -77q17 -22 72 -22h95q54 0 71 21q15 18 15 74v585q0 75 -10 101q-17 45 -76 55v37h472v-37q-71 -2 -92 -45q-14 -28 -14 -111v-571q0 -69 19 -98q23 -36 87 -36v-37h-1587zM816 1402l-331 -347h-86l116 347h301z" />
    <glyph glyph-name="circumflex" unicode="&#x2c6;" horiz-adv-x="682" 
d="M460 1427l203 -382h-77l-238 206l-245 -200h-82l213 376h226z" />
    <glyph glyph-name="caron" unicode="&#x2c7;" horiz-adv-x="682" 
d="M223 1045l-202 382h76l239 -206l245 200h82l-214 -376h-226z" />
    <glyph glyph-name="macron" unicode="&#x2c9;" horiz-adv-x="682" 
d="M20 1254h642v-163h-642v163z" />
    <glyph glyph-name="breve" unicode="&#x2d8;" horiz-adv-x="682" 
d="M579 1387h65q-6 -130 -87 -222q-86 -98 -214 -98q-127 0 -214 98q-82 92 -90 222h66q50 -127 230 -127q191 0 244 127z" />
    <glyph glyph-name="dotaccent" unicode="&#x2d9;" horiz-adv-x="682" 
d="M342 1368q61 0 104 -43t43 -104t-43 -104t-104 -43t-104 43t-43 104t43 104t104 43z" />
    <glyph glyph-name="ring" unicode="&#x2da;" horiz-adv-x="682" 
d="M341 1437q88 0 149 -60.5t61 -148.5t-61 -149t-149 -61q-87 0 -148 61.5t-61 148.5q0 88 60.5 148.5t148.5 60.5zM342 1360q-56 0 -94.5 -38t-38.5 -94q0 -55 39 -93.5t94 -38.5t93.5 38.5t38.5 93.5t-38.5 93.5t-93.5 38.5z" />
    <glyph glyph-name="ogonek" unicode="&#x2db;" horiz-adv-x="682" 
d="M286 17h87q-95 -74 -95 -149q0 -59 39 -115t94 -82q59 -28 141 -29l29 -33q-51 -38 -84 -50q-56 -21 -116 -21q-106 0 -190 68q-89 72 -89 176q0 147 184 235z" />
    <glyph glyph-name="tilde" unicode="&#x2dc;" horiz-adv-x="682" 
d="M613 1368h53q1 -20 1 -34q0 -100 -55 -169q-59 -75 -157 -75q-60 0 -162.5 47t-132.5 47q-64 0 -78 -92h-58q-3 112 49 190q59 88 167 88q29 0 50 -6q26 -7 96 -40q102 -47 147 -47q50 0 80 91z" />
    <glyph glyph-name="hungarumlaut" unicode="&#x2dd;" horiz-adv-x="682" 
d="M436 1402l-244 -345h-80l116 345h208zM754 1402l-241 -345h-79l114 345h206z" />
    <glyph glyph-name="tonos" unicode="&#x384;" horiz-adv-x="682" 
d="M645 1402l-331 -347h-86l116 347h301z" />
    <glyph glyph-name="dieresistonos" unicode="&#x385;" horiz-adv-x="682" 
d="M593 1402l-332 -347h-85l116 347h301zM673 1322q56 0 94.5 -38.5t38.5 -94.5q0 -55 -39 -94.5t-94 -39.5t-94 39.5t-39 94.5t39 94t94 39zM9 1322q56 0 94.5 -38.5t38.5 -94.5q0 -55 -39 -94.5t-94 -39.5q-56 0 -94.5 39t-38.5 95q0 55 39 94t94 39z" />
    <glyph glyph-name="Alphatonos" unicode="&#x386;" horiz-adv-x="1479" 
d="M852 386h-479l-57 -132q-28 -65 -28 -109q0 -57 46 -84q27 -16 133 -24v-37h-451v37q89 13 150 98q30 41 86 167l485 1082h19l489 -1112q69 -157 115 -199q34 -31 96 -36v-37h-656v37h27q133 0 133 68q0 16 -6 37q-4 14 -30 75zM818 460l-202 467l-208 -467h410z
M613 1402l-331 -347h-86l116 347h301z" />
    <glyph glyph-name="anoteleia" unicode="&#x387;" horiz-adv-x="682" 
d="M341 963q69 0 118 -49t49 -118t-49 -117.5t-118 -48.5t-117.5 48.5t-48.5 117.5t48.5 118t117.5 49z" />
    <glyph glyph-name="Epsilontonos" unicode="&#x388;" horiz-adv-x="1636" 
d="M278 1402l-331 -347h-86l116 347h301zM828 1278v-552h27q135 0 198 97q48 72 64 223h38v-710h-38q-33 315 -262 315h-27v-382q0 -86 1 -96q8 -59 43 -81q28 -17 85 -17h81q376 0 469 356h37l-61 -431h-1172v37h45q114 0 138 72q9 29 9 123v892q0 78 -3 95q-8 50 -46 77
q-34 23 -98 23h-45v37h1135v-401h-37q-50 249 -211 300q-76 23 -230 23h-140z" />
    <glyph glyph-name="Etatonos" unicode="&#x389;" horiz-adv-x="1862" 
d="M278 1402l-331 -347h-86l116 347h301zM828 652v-420q0 -82 2 -96q9 -50 49 -76q34 -23 96 -23h44v-37h-708v37h44q114 0 138 72q9 29 9 123v892q0 82 -2 96q-9 50 -48 77q-35 22 -97 22h-44v37h708v-37h-44q-114 0 -137 -71q-10 -30 -10 -124v-384h479v384q0 81 -3 96
q-8 50 -48 77q-35 22 -96 22h-45v37h709v-37h-45q-114 0 -137 -71q-10 -30 -10 -124v-892q0 -81 3 -96q8 -50 49 -76q34 -23 95 -23h45v-37h-709v37h45q114 0 138 72q9 29 9 123v420h-479z" />
    <glyph glyph-name="Iotatonos" unicode="&#x38a;" horiz-adv-x="1069" 
d="M278 1402l-331 -347h-86l116 347h301zM1022 37v-37h-709v37h45q115 0 137 72q9 29 9 123v892q0 82 -2 96q-9 50 -48 77q-35 22 -96 22h-45v37h709v-37h-45q-114 0 -137 -71q-10 -30 -10 -124v-892q0 -82 2 -96q9 -50 49 -76q34 -23 96 -23h45z" />
    <glyph glyph-name="Omicrontonos" unicode="&#x38c;" horiz-adv-x="1593" 
d="M297 1402l-331 -347h-86l116 347h301zM800 1387q429 0 626 -347q91 -161 91 -357q0 -191 -86 -353q-88 -167 -248.5 -264t-382.5 -97q-318 0 -520.5 197.5t-202.5 515.5q0 200 93 361.5t267 255.5q164 88 363 88zM799 1311q-210 0 -300 -231q-62 -158 -62 -407
q0 -247 62 -403q90 -226 299 -226q358 0 358 621q0 646 -357 646z" />
    <glyph glyph-name="Upsilontonos" unicode="&#x38e;" horiz-adv-x="1771" 
d="M278 1402l-331 -347h-86l116 347h301zM1748 1356v-37q-75 -7 -137 -76q-34 -38 -90 -135l-33 -57l-295 -491v-328q0 -80 3 -98q10 -55 51 -78q33 -19 105 -19h59v-37h-761v37h51q129 0 155 66q12 30 12 129v272l-320 581q-77 140 -89 156q-61 78 -148 78v37h650v-37h-22
q-113 0 -113 -56q0 -34 79 -178l246 -449l244 409q90 151 90 196q0 69 -150 78v37h413z" />
    <glyph glyph-name="Omegatonos" unicode="&#x38f;" horiz-adv-x="1640" 
d="M279 1402l-331 -347h-86l116 347h301zM654 374l33 -374h-612v380h38q3 -77 59 -117q19 -14 98 -14h323l-7 81q-208 36 -333 164q-133 137 -133 342q0 268 224 420q195 131 476 131q283 0 477 -130q224 -151 224 -421q0 -205 -133 -341q-124 -129 -332 -165l-7 -81h322
q57 0 76 5q32 9 60 44q19 24 21 82h38v-380h-612l33 374q76 36 109 81q31 42 51 129q21 94 21 247q0 145 -25 231q-34 119 -125 189q-79 60 -198 60q-219 0 -307 -205q-40 -92 -40 -282q0 -172 23 -261q41 -154 158 -189z" />
    <glyph glyph-name="iotadieresistonos" unicode="&#x390;" horiz-adv-x="635" 
d="M44 935h398v-623q0 -85 5 -111q13 -75 63 -75q68 0 82 149h37q0 -127 -58 -209q-66 -94 -187 -94q-156 0 -198 121q-19 54 -19 177v466q0 87 -19 118q-25 41 -104 44v37zM560 1402l-332 -347h-85l116 347h301zM640 1322q56 0 94.5 -38.5t38.5 -94.5q0 -55 -39 -94.5
t-94 -39.5t-94 39.5t-39 94.5t39 94t94 39zM-24 1322q56 0 94.5 -38.5t38.5 -94.5q0 -55 -39 -94.5t-94 -39.5q-56 0 -94.5 39t-38.5 95q0 55 39 94t94 39z" />
    <glyph glyph-name="Alpha" unicode="&#x391;" horiz-adv-x="1479" 
d="M852 386h-479l-57 -132q-28 -65 -28 -109q0 -57 46 -84q27 -16 133 -24v-37h-451v37q89 13 150 98q30 41 86 167l485 1082h19l489 -1112q69 -157 115 -199q34 -31 96 -36v-37h-656v37h27q133 0 133 68q0 16 -6 37q-4 14 -30 75zM818 460l-202 467l-208 -467h410z" />
    <glyph glyph-name="Beta" unicode="&#x392;" horiz-adv-x="1366" 
d="M911 719q192 -45 271 -109q112 -91 112 -236q0 -154 -123 -253q-150 -121 -439 -121h-689v37q144 0 175 63q13 28 13 138v880q0 84 -4 104q-11 57 -57 80q-34 17 -127 17v37h650q178 0 267 -22q143 -36 216 -143q56 -83 56 -176q0 -215 -321 -296zM547 746q237 0 313 122
q36 58 36 148q0 173 -137 235q-66 30 -212 29v-534zM547 668l-1 -485q-2 -109 109 -109q177 0 251 139q36 67 36 150q0 91 -40 165q-45 80 -123.5 110.5t-231.5 29.5z" />
    <glyph glyph-name="Gamma" unicode="&#x393;" horiz-adv-x="1303" 
d="M41 1356h1196v-368h-37q-41 231 -153 264q-54 16 -214 16h-276v-1054q0 -103 27 -137q31 -40 129 -40h35v-37h-707v37h38q95 0 126 42q26 35 26 135v936q0 95 -26 129q-30 40 -121 40h-43v37z" />
    <glyph glyph-name="Delta" horiz-adv-x="1253" 
d="M1226 0h-1200l628 1387zM990 82l-399 967l-440 -967h839z" />
    <glyph glyph-name="Epsilon" unicode="&#x395;" horiz-adv-x="1366" 
d="M558 1278v-552h27q135 0 198 97q48 73 63 223h38v-710h-38q-24 231 -140 290q-51 25 -148 25v-382q0 -89 1 -97q7 -58 44 -81q26 -16 84 -16h81q370 0 469 356h37l-61 -431h-1172v37h45q105 0 135 69q11 26 11 126v892q0 94 -5 113q-9 34 -37 54q-39 28 -104 28h-45v37
h1135v-401h-38q-25 128 -68 191q-53 79 -162 114q-57 18 -210 18h-140z" />
    <glyph glyph-name="Zeta" unicode="&#x396;" horiz-adv-x="1366" 
d="M1250 1356l-797 -1280h258q181 0 256 23q261 80 324 391h39l-55 -490h-1242l798 1282h-201q-117 0 -154 -7q-154 -29 -233 -154q-41 -64 -64 -162h-37l37 397h1071z" />
    <glyph glyph-name="Eta" unicode="&#x397;" horiz-adv-x="1593" 
d="M560 652v-420q0 -82 3 -99q10 -51 54 -76q33 -20 90 -20h45v-37h-709v37h45q105 0 135 69q11 26 11 126v892q0 83 -3 99q-9 51 -52 77q-34 19 -91 19h-45v37h709v-37h-45q-105 0 -136 -69q-11 -25 -11 -126v-384h479v384q0 83 -3 99q-10 52 -53 77q-34 19 -91 19h-44v37
h708v-37h-44q-58 0 -95 -21q-26 -15 -41 -48q-11 -25 -11 -126v-892q0 -83 3 -99q10 -52 53 -76q34 -20 91 -20h44v-37h-708v37h44q58 0 95 21q26 15 41 48q11 25 11 126v420h-479z" />
    <glyph glyph-name="Theta" unicode="&#x398;" horiz-adv-x="1593" 
d="M801 1387q308 0 512 -198.5t204 -505.5q0 -313 -202 -513.5t-515 -200.5q-208 0 -371 87q-173 92 -265 269q-87 164 -87 357q0 200 92 360q94 164 268 257q164 88 364 88zM800 1311q-362 0 -362 -638q0 -247 62 -403q90 -226 298 -226q358 0 358 621q0 646 -356 646z
M624 420h-38v498h38q0 -81 48 -109q36 -21 125 -21t125 21q49 28 49 109h37v-498h-37q0 132 -155 132q-75 0 -97 -4q-56 -10 -77 -48q-18 -32 -18 -80z" />
    <glyph glyph-name="Theta" unicode="&#x472;" horiz-adv-x="1593" 
d="M801 1387q308 0 512 -198.5t204 -505.5q0 -313 -202 -513.5t-515 -200.5q-208 0 -371 87q-173 92 -265 269q-87 164 -87 357q0 200 92 360q94 164 268 257q164 88 364 88zM800 1311q-362 0 -362 -638q0 -247 62 -403q90 -226 298 -226q358 0 358 621q0 646 -356 646z
M624 420h-38v498h38q0 -81 48 -109q36 -21 125 -21t125 21q49 28 49 109h37v-498h-37q0 132 -155 132q-75 0 -97 -4q-56 -10 -77 -48q-18 -32 -18 -80z" />
    <glyph glyph-name="Iota" unicode="&#x399;" horiz-adv-x="797" 
d="M750 37v-37h-709v37h45q105 0 135 69q11 26 11 126v892q0 83 -3 99q-9 51 -52 77q-34 19 -91 19h-45v37h709v-37h-45q-105 0 -136 -69q-11 -25 -11 -126v-892q0 -82 3 -99q10 -51 54 -76q33 -20 90 -20h45z" />
    <glyph glyph-name="Kappa" unicode="&#x39a;" horiz-adv-x="1593" 
d="M853 837l477 -597q101 -126 174 -171q52 -32 112 -32v-37h-706v37q106 9 106 58q0 42 -92 158l-311 391l-50 -42v-370q0 -83 3 -100q10 -52 55 -76q34 -19 109 -19v-37h-684v37h45q105 0 135 69q11 26 11 126v892q0 83 -3 99q-9 51 -52 77q-34 19 -91 19h-45v37h675v-37
q-115 0 -146 -67q-12 -26 -12 -128v-422l503 407q105 85 105 136q0 38 -43 60q-22 11 -109 14v37h529v-37q-85 -6 -161 -56q-11 -7 -137 -108z" />
    <glyph glyph-name="Lambda" unicode="&#x39b;" horiz-adv-x="1468" 
d="M9 0v37q93 15 163 123q27 41 95 191l467 1033h33l465 -1075l74 -174q53 -89 145 -98v-37h-650v37q165 0 165 66q0 32 -61 174l-290 675l-267 -601q-71 -160 -71 -209q0 -105 177 -105v-37h-445z" />
    <glyph glyph-name="Mu" unicode="&#x39c;" horiz-adv-x="1933" 
d="M976 462l368 894h552v-37h-44q-105 0 -136 -68q-11 -24 -11 -125v-894q0 -83 3 -99q10 -52 53 -76q34 -20 91 -20h44v-37h-708v37h44q105 0 136 69q11 25 11 126v1005l-520 -1237h-24l-528 1228v-955q0 -103 5 -123q28 -113 193 -113v-37h-464v37h14q100 0 143 56
q21 27 31 73q2 9 2 102v858q0 82 -3 98q-10 51 -53 76q-34 19 -91 19h-43v37h554z" />
    <glyph glyph-name="Nu" unicode="&#x39d;" horiz-adv-x="1479" 
d="M510 1356l669 -841v583q0 122 -35 165q-48 58 -161 56v37h448v-37q-70 -9 -96 -19q-46 -19 -65 -66q-17 -40 -17 -136v-1129h-34l-917 1129v-862q0 -199 176 -199h32v-37h-481v37q110 1 155 45.5t45 153.5v957l-29 36q-42 52 -73 69q-35 19 -98 21v37h481z" />
    <glyph glyph-name="Xi" unicode="&#x39e;" horiz-adv-x="1387" 
d="M176 968h-37v388h1112v-388h-38q-9 121 -148 121h-742q-140 0 -147 -121zM369 443h-38v495h38q4 -77 44 -104q33 -22 116 -22h345q74 0 107.5 27t39.5 99h37v-495h-37q-4 73 -38.5 101t-108.5 28h-342q-84 0 -117 -23q-41 -27 -46 -106zM115 0v454h37q2 -81 7 -102
q13 -58 61 -73q36 -12 125 -12h728q129 0 151 68q10 31 13 119h37v-454h-1159z" />
    <glyph glyph-name="Omicron" unicode="&#x39f;" horiz-adv-x="1593" 
d="M791 1375q336 0 527 -189q202 -201 202 -503q0 -258 -151 -454q-200 -260 -565 -260q-366 0 -566 248q-158 196 -158 465q0 302 206 504q193 189 505 189zM803 1311q-211 0 -300 -230q-62 -158 -62 -408q0 -347 122 -513q85 -116 238 -116q220 0 309 255q49 140 49 366
q0 465 -177 591q-78 55 -179 55z" />
    <glyph glyph-name="Pi" unicode="&#x3a0;" horiz-adv-x="1593" 
d="M846 0v37h43q99 0 128 51q19 34 19 145v1035h-479v-1035q0 -113 21 -148q30 -48 131 -48h41v-37h-709v37h43q99 0 128 50q19 34 19 146v891q0 111 -20 145q-28 50 -127 50h-43v37h1513v-37h-36q-101 0 -132 -48q-24 -37 -24 -147v-891q0 -114 24 -150q31 -46 136 -46h32
v-37h-708z" />
    <glyph glyph-name="Rho" unicode="&#x3a1;" horiz-adv-x="1251" 
d="M553 614v-376q0 -84 4 -105q11 -56 58 -79q34 -17 126 -17v-37h-689v37q144 0 175 63q13 28 13 138v880q0 84 -4 104q-11 57 -57 80q-34 17 -127 17v37h591q224 0 363 -70q183 -92 183 -294q0 -138 -88 -233q-81 -88 -220 -121q-100 -24 -328 -24zM553 1278v-586
q33 -2 50 -2q254 0 254 297q0 291 -263 291h-41z" />
    <glyph glyph-name="Sigma" unicode="&#x3a3;" horiz-adv-x="1339" 
d="M20 1356h1154v-396h-42q-35 164 -100 235q-78 87 -233 87h-368l332 -470l-434 -547h619q131 0 192.5 43.5t94.5 167.5h38l-38 -476h-1223l519 650z" />
    <glyph glyph-name="Tau" unicode="&#x3a4;" horiz-adv-x="1366" 
d="M1292 1356v-367h-36q-27 107 -57 159q-42 74 -121 112q-37 18 -133 18h-101v-1046q0 -82 3 -99q10 -51 54 -76q33 -20 91 -20h45v-37h-710v37h45q105 0 136 69q11 25 11 126v1046h-98q-137 0 -199 -58q-87 -81 -110 -231h-38v367h1218z" />
    <glyph glyph-name="Upsilon" unicode="&#x3a5;" horiz-adv-x="1479" 
d="M1456 1356v-37q-67 -9 -103 -39q-42 -35 -158 -229l-294 -491v-328q0 -83 3 -99q9 -51 52 -76q32 -20 86 -20h76v-37h-761v37h71q58 0 95 21q26 15 41 48q11 25 11 126v272l-319 581q-74 135 -90 155q-61 78 -148 79v37h650v-37h-29q-106 0 -106 -53q0 -34 80 -181
l245 -449l244 409q91 153 91 199q0 67 -151 75v37h414z" />
    <glyph glyph-name="Phi" unicode="&#x3a6;" horiz-adv-x="1698" 
d="M1202 37v-37h-708v37q109 1 145 25q45 31 46 132q-252 12 -415 125q-192 133 -192 371q0 236 193 367q162 109 414 123q-2 89 -54 118q-37 21 -137 21v37h708v-37q-102 0 -137 -20q-49 -28 -54 -119q249 -8 415 -121q195 -133 195 -369q0 -238 -194 -372
q-164 -113 -416 -124q1 -100 47 -132q36 -25 144 -25zM685 1102q-281 -8 -281 -423q0 -390 281 -408v831zM1011 271q283 4 283 417q0 407 -283 414v-831z" />
    <glyph glyph-name="Chi" unicode="&#x3a7;" horiz-adv-x="1479" 
d="M865 795l374 -555q71 -105 92 -129q61 -66 134 -74v-37h-661v37q125 9 125 68q0 17 -7 32q-14 29 -70 112l-198 293l-207 -253q-93 -114 -93 -156q0 -66 95 -90q24 -6 86 -6v-37h-521v37q89 13 140 48q68 46 187 192l269 328l-345 507q-84 123 -97 139q-47 56 -125 68v37
h673v-37h-34q-104 0 -104 -65q0 -22 7 -38l69 -104l168 -256l143 175q110 135 110 189q0 59 -60 86q-29 13 -90 13v37h499v-37q-103 -2 -172 -65q-26 -24 -130 -149z" />
    <glyph glyph-name="Psi" unicode="&#x3a8;" horiz-adv-x="1597" 
d="M1154 37v-37h-708v37h29q127 0 151 65q11 30 11 130v351q-99 0 -205 36q-114 39 -178 102q-79 77 -104 184q-15 66 -17 214q-1 111 -4 127q-15 75 -79 75q-8 0 -19 -1v38q53 14 104 14q181 0 263 -130q39 -64 51 -159q3 -28 7 -168q8 -256 181 -258v467q0 78 -2 92
q-7 50 -42 78q-32 25 -121 25h-26v37h708v-37h-26q-140 0 -159 -79q-6 -25 -6 -116v-467q141 15 165 138q9 50 15 196q5 124 29 195q29 87 114 138q80 48 176 48q51 0 104 -14v-38l-18 1q-51 3 -67.5 -37t-16.5 -160q0 -131 -10 -189q-17 -96 -74 -172q-118 -159 -417 -180
v-351q0 -81 3 -97q8 -53 49 -77q34 -21 106 -21h33z" />
    <glyph glyph-name="Psi" unicode="&#x470;" horiz-adv-x="1597" 
d="M1154 37v-37h-708v37h29q127 0 151 65q11 30 11 130v351q-99 0 -205 36q-114 39 -178 102q-79 77 -104 184q-15 66 -17 214q-1 111 -4 127q-15 75 -79 75q-8 0 -19 -1v38q53 14 104 14q181 0 263 -130q39 -64 51 -159q3 -28 7 -168q8 -256 181 -258v467q0 78 -2 92
q-7 50 -42 78q-32 25 -121 25h-26v37h708v-37h-26q-140 0 -159 -79q-6 -25 -6 -116v-467q141 15 165 138q9 50 15 196q5 124 29 195q29 87 114 138q80 48 176 48q51 0 104 -14v-38l-18 1q-51 3 -67.5 -37t-16.5 -160q0 -131 -10 -189q-17 -96 -74 -172q-118 -159 -417 -180
v-351q0 -81 3 -97q8 -53 49 -77q34 -21 106 -21h33z" />
    <glyph glyph-name="Omega" unicode="&#x3a9;" horiz-adv-x="1640" 
d="M654 374l33 -374h-612v380h37q3 -78 60 -117q19 -14 97 -14h323l-7 81q-208 36 -332 164q-133 137 -133 342q0 268 224 420q195 131 476 131t476 -131q224 -152 224 -420q0 -207 -132 -342q-124 -126 -333 -164l-7 -81h323q57 0 76 5q32 9 60 44q19 24 21 82h37v-380
h-611l33 374q76 36 109 81q31 42 51 129q21 94 21 247q0 145 -25 231q-34 119 -126 189q-79 60 -197 60q-347 0 -347 -487q0 -173 23 -262q40 -156 158 -188z" />
    <glyph glyph-name="Iotadieresis" unicode="&#x3aa;" horiz-adv-x="797" 
d="M750 37v-37h-709v37h45q105 0 135 69q11 26 11 126v892q0 83 -3 99q-9 51 -52 77q-34 19 -91 19h-45v37h709v-37h-45q-105 0 -136 -69q-11 -25 -11 -126v-892q0 -82 3 -99q10 -51 54 -76q33 -20 90 -20h45zM585 1754q56 0 94.5 -38.5t38.5 -94.5q0 -55 -39 -94t-94 -39
t-94 39t-39 94t39 94t94 39zM211 1754q56 0 94.5 -38.5t38.5 -94.5q0 -55 -39 -94t-94 -39t-94 39t-39 94t39 94t94 39z" />
    <glyph glyph-name="Upsilondieresis" unicode="&#x3ab;" horiz-adv-x="1479" 
d="M1456 1356v-37q-67 -9 -103 -39q-42 -35 -158 -229l-294 -491v-328q0 -83 3 -99q9 -51 52 -76q32 -20 86 -20h76v-37h-761v37h71q58 0 95 21q26 15 41 48q11 25 11 126v272l-319 581q-74 135 -90 155q-61 78 -148 79v37h650v-37h-29q-106 0 -106 -53q0 -34 80 -181
l245 -449l244 409q91 153 91 199q0 67 -151 75v37h414zM926 1754q56 0 94.5 -38.5t38.5 -94.5q0 -55 -39 -94t-94 -39t-94 39t-39 94t39 94t94 39zM552 1754q56 0 94.5 -38.5t38.5 -94.5q0 -55 -39 -94t-94 -39t-94 39t-39 94t39 94t94 39z" />
    <glyph glyph-name="alphatonos" unicode="&#x3ac;" horiz-adv-x="1143" 
d="M767 935h274l-95 -442q-35 -162 -66 -245q7 -42 30 -78q29 -45 66 -45q81 0 86 148h37q-3 -301 -128 -301q-92 0 -130 201q-111 -201 -342 -201q-193 0 -306 137q-106 129 -106 326q0 190 95 346q111 182 290 182q92 0 159 -72q44 -49 93 -156zM697 611q-43 125 -67 168
q-57 104 -132 104q-92 0 -113 -210q-4 -40 -4 -265q0 -154 7 -208q20 -158 93 -158q70 0 116 126q16 43 44 178zM871 1402l-331 -347h-86l116 347h301z" />
    <glyph glyph-name="epsilontonos" unicode="&#x3ad;" horiz-adv-x="875" 
d="M415 486q-305 51 -305 235q0 137 144 198q103 44 261 44q313 0 313 -170q0 -97 -109 -97q-38 0 -70 18q-37 22 -37 58q0 12 6 36t6 36q0 49 -100 49q-142 0 -142 -190q0 -91 20 -126q27 -49 109 -49q21 0 80 5q12 1 29 1q55 0 55 -40q0 -37 -53 -37q-12 0 -69 4
q-14 1 -34 1q-142 0 -142 -211q0 -210 146 -210q36 0 70 16q42 21 42 53q0 12 -2 23q-6 34 -6 50q0 90 105 90q113 0 113 -108q0 -100 -128 -153q-96 -40 -212 -40q-161 0 -280 53q-160 70 -160 211q0 199 350 250zM751 1402l-331 -347h-86l116 347h301z" />
    <glyph glyph-name="etatonos" unicode="&#x3ae;" horiz-adv-x="1163" 
d="M474 801q134 162 292 162q77 0 139 -38q67 -42 88 -112q18 -61 18 -203v-613q0 -226 38 -435h-281q-37 168 -37 412v646q0 102 -6 130q-18 78 -84 78q-83 0 -157 -123v-705h-280v608q0 102 -3 119q-12 82 -65 82q-68 0 -81 -143h-37q0 126 59 207q67 90 188 90
q161 0 209 -162zM885 1402l-331 -347h-86l116 347h301z" />
    <glyph glyph-name="iotatonos" unicode="&#x3af;" horiz-adv-x="635" 
d="M44 935h398v-623q0 -85 5 -111q13 -75 63 -75q68 0 82 149h37q0 -127 -58 -209q-66 -94 -187 -94q-156 0 -198 121q-19 54 -19 177v466q0 87 -19 118q-25 41 -104 44v37zM616 1402l-331 -347h-86l116 347h301z" />
    <glyph glyph-name="upsilondieresistonos" unicode="&#x3b0;" horiz-adv-x="1063" 
d="M617 925v38q174 0 275 -154q89 -134 89 -316q0 -211 -100 -356q-113 -165 -315 -165q-99 0 -186 42q-95 47 -136 130q-34 67 -34 181v251q0 123 -1 134q-12 94 -68 94q-83 0 -94 -156h-37q6 134 62 216q66 99 191 99q227 0 227 -278v-376q0 -118 14 -167q27 -96 114 -96
q113 0 162 180q32 116 32 268q0 167 -30 251q-43 121 -165 180zM779 1402l-332 -347h-85l116 347h301zM859 1322q56 0 94.5 -38.5t38.5 -94.5q0 -55 -39 -94.5t-94 -39.5t-94 39.5t-39 94.5t39 94t94 39zM195 1322q56 0 94.5 -38.5t38.5 -94.5q0 -55 -39 -94.5t-94 -39.5
q-56 0 -94.5 39t-38.5 95q0 55 39 94t94 39z" />
    <glyph glyph-name="alpha" unicode="&#x3b1;" horiz-adv-x="1143" 
d="M767 935h274l-95 -442q-35 -162 -66 -245q7 -42 30 -78q29 -45 66 -45q81 0 86 148h37q-3 -301 -128 -301q-92 0 -130 201q-111 -201 -342 -201q-193 0 -306 137q-106 129 -106 326q0 190 95 346q111 182 290 182q92 0 159 -72q44 -49 93 -156zM697 611q-43 125 -67 168
q-57 104 -132 104q-92 0 -113 -210q-4 -40 -4 -265q0 -154 7 -208q20 -158 93 -158q70 0 116 126q16 43 44 178z" />
    <glyph glyph-name="beta" unicode="&#x3b2;" horiz-adv-x="1079" 
d="M380 -438h-278q36 131 36 370v1007q0 155 20 225q33 114 136 171q93 52 249 52q165 0 273 -67q129 -79 129 -234q0 -173 -211 -272q266 -131 266 -415q0 -177 -97 -297q-104 -130 -277 -130q-107 0 -208 79v-151q0 -198 -38 -338zM418 149q57 -81 137 -81q111 0 148 152
q18 77 18 237q0 246 -73 319q-43 -24 -89 -24q-83 0 -83 58q0 57 81 57q50 0 91 -22q30 82 30 225q0 123 -15 168q-29 86 -124 86q-88 0 -111 -98q-10 -40 -10 -169v-908z" />
    <glyph glyph-name="gamma" unicode="&#x3b3;" horiz-adv-x="958" 
d="M637 935h308v-11q-67 -123 -136 -266l-273 -563q25 -186 25 -289q0 -248 -141 -248q-57 0 -93 53q-31 47 -31 107q0 84 97 304l55 125l-62 247q-45 180 -59 217q-58 151 -141 151q-126 0 -146 -192h-37q0 393 195 393q116 0 180 -172q23 -60 64 -270q2 -12 12 -54
l42 -183z" />
    <glyph glyph-name="delta" unicode="&#x3b4;" horiz-adv-x="1063" 
d="M495 868l-150 119q-119 94 -119 199q0 106 92 159q75 42 189 42q120 0 213 -31q135 -46 135 -142q0 -93 -101 -93q-61 0 -151 95t-168 95q-55 0 -93 -27q-42 -30 -42 -83q0 -97 224 -192q173 -74 230 -111q107 -70 166 -185.5t59 -256.5q0 -201 -133 -341
q-135 -143 -335 -143q-191 0 -314 131t-123 323q0 339 421 442zM540 812q-112 -48 -149 -158q-25 -72 -25 -225q0 -170 12 -232q31 -153 137 -153q168 0 168 340q0 244 -143 428z" />
    <glyph glyph-name="epsilon" unicode="&#x3b5;" horiz-adv-x="875" 
d="M415 486q-305 51 -305 235q0 137 144 198q103 44 261 44q313 0 313 -170q0 -97 -109 -97q-38 0 -70 18q-37 22 -37 58q0 12 6 36t6 36q0 49 -100 49q-142 0 -142 -190q0 -91 20 -126q27 -49 109 -49q21 0 80 5q12 1 29 1q55 0 55 -40q0 -37 -53 -37q-12 0 -69 4
q-14 1 -34 1q-142 0 -142 -211q0 -210 146 -210q36 0 70 16q42 21 42 53q0 12 -2 23q-6 34 -6 50q0 90 105 90q113 0 113 -108q0 -100 -128 -153q-96 -40 -212 -40q-161 0 -280 53q-160 70 -160 211q0 199 350 250z" />
    <glyph glyph-name="zeta" unicode="&#x3b6;" horiz-adv-x="846" 
d="M397 1089q-242 -322 -242 -580q0 -253 221 -253q18 0 61 3q71 5 105 5q294 0 294 -347q0 -151 -83 -252q-89 -107 -237 -107q-54 0 -98 30q-49 34 -49 86q0 85 96 85q29 0 82 -16t81 -16q59 0 96 36t37 95q0 122 -123 122q-37 0 -112 -6.5t-113 -6.5q-347 0 -347 446
q0 348 254 676q-65 9 -108 47q-47 42 -47 104q0 134 180 170l11 -36q-81 -45 -81 -121q0 -95 95 -106q190 231 344 231q72 0 72 -71q0 -102 -151 -167q-119 -50 -238 -51z" />
    <glyph glyph-name="eta" unicode="&#x3b7;" horiz-adv-x="1163" 
d="M474 801q134 162 292 162q77 0 139 -38q67 -42 88 -112q18 -61 18 -203v-613q0 -226 38 -435h-281q-37 168 -37 412v646q0 102 -6 130q-18 78 -84 78q-83 0 -157 -123v-705h-280v608q0 102 -3 119q-12 82 -65 82q-68 0 -81 -143h-37q0 126 59 207q67 90 188 90
q161 0 209 -162z" />
    <glyph glyph-name="theta" unicode="&#x3b8;" horiz-adv-x="1069" 
d="M534 -28q-133 0 -241 94q-96 84 -148 218q-62 155 -62 382q0 276 88 467q118 254 363 254t363 -254q88 -191 88 -467q0 -446 -229 -615q-107 -79 -222 -79zM377 721h314v66q0 215 -13 303q-33 232 -145 232q-111 0 -143 -232q-13 -89 -13 -303v-66zM377 649v-68
q0 -235 10 -309q31 -234 149 -234q102 0 137 179q18 95 18 364v68h-314z" />
    <glyph glyph-name="theta" unicode="&#x473;" horiz-adv-x="1069" 
d="M534 -28q-133 0 -241 94q-96 84 -148 218q-62 155 -62 382q0 276 88 467q118 254 363 254t363 -254q88 -191 88 -467q0 -446 -229 -615q-107 -79 -222 -79zM377 721h314v66q0 215 -13 303q-33 232 -145 232q-111 0 -143 -232q-13 -89 -13 -303v-66zM377 649v-68
q0 -235 10 -309q31 -234 149 -234q102 0 137 179q18 95 18 364v68h-314z" />
    <glyph glyph-name="iota" unicode="&#x3b9;" horiz-adv-x="635" 
d="M44 935h398v-623q0 -85 5 -111q13 -75 63 -75q68 0 82 149h37q0 -127 -58 -209q-66 -94 -187 -94q-156 0 -198 121q-19 54 -19 177v466q0 87 -19 118q-25 41 -104 44v37z" />
    <glyph glyph-name="kappa" unicode="&#x3ba;" horiz-adv-x="1137" 
d="M437 935v-471l249 327q99 132 177 158q42 14 93 14q146 0 146 -116q0 -43 -26.5 -72t-69.5 -29q-21 0 -71 24t-83 24q-52 0 -104 -56q-14 -13 -76 -98l230 -346q51 -77 101 -154q75 -97 143 -103v-37h-366l-283 435l-60 -81v-354h-280v716q0 98 -14 130q-24 52 -107 52
v37h401z" />
    <glyph glyph-name="lambda" unicode="&#x3bb;" horiz-adv-x="1006" 
d="M319 0h-291l434 951l-14 53q-53 202 -167 202q-136 0 -157 -151h-37q18 332 194 332q141 0 197 -224l200 -794q24 -95 49 -135q42 -65 118 -65q66 0 105 40t41 106h37q2 -32 2 -47q0 -113 -38 -187q-49 -94 -152 -94q-93 0 -140 80q-23 40 -55 164l-84 329z" />
    <glyph glyph-name="mu" unicode="&#x3bc;" horiz-adv-x="1161" 
d="M1093 262h37q-1 -124 -53 -201q-61 -89 -179 -89q-159 0 -213 153q-122 -153 -281 -153q-62 0 -109 39q13 -80 44 -185q25 -84 25 -121q0 -147 -129 -147q-128 0 -128 128q0 39 21 134q30 136 30 314v801h280v-639q0 -90 8 -120q17 -68 80 -68q78 0 159 124v703h280v-698
q0 -112 59 -112q65 0 69 137z" />
    <glyph glyph-name="nu" unicode="&#x3bd;" horiz-adv-x="915" 
d="M324 963q67 -189 101 -266l168 -379l78 164q29 61 29 116q0 58 -44 140q-28 52 -28 100q0 125 127 125q116 0 116 -135q0 -104 -88 -266q-13 -23 -34 -64l-261 -526h-47l-322 752q-36 84 -40 91q-31 52 -75 52q-8 0 -24 -2v37z" />
    <glyph glyph-name="xi" unicode="&#x3be;" horiz-adv-x="913" 
d="M308 1410v-37q-77 -38 -77 -99q0 -60 71 -82q136 188 314 188q86 0 86 -66q0 -83 -119 -136q-96 -44 -190 -44q-17 0 -50 2q-80 -111 -80 -181q0 -77 102 -115q177 103 297 103q139 0 139 -80q0 -69 -98 -105q-72 -26 -155 -26q-97 0 -181 36q-87 -53 -147 -135
q-68 -94 -68 -185q0 -95 66 -145q60 -45 158 -45q48 0 148 5q60 3 88 3q143 0 222 -96q73 -90 73 -236q0 -228 -156 -326q-81 -50 -155 -50q-59 0 -105 29q-52 34 -52 90q0 36 28.5 60t65.5 24q20 0 61 -12q58 -17 104 -17q134 0 134 132q0 115 -111 115q-16 0 -64 -3
q-159 -10 -226 -10q-180 0 -278 113q-92 107 -92 291q0 258 239 431q-107 52 -107 147q0 87 74 196q-137 28 -137 129q0 65 59 103q51 33 119 34z" />
    <glyph glyph-name="omicron" unicode="&#x3bf;" 
d="M510 963q126 0 229.5 -64.5t157.5 -177.5q54 -116 54 -254q0 -199 -101 -333q-122 -162 -337 -162q-203 0 -325 146q-114 138 -114 345q0 206 113 347q122 153 323 153zM514 892q-116 0 -135 -190q-12 -114 -12 -316q0 -108 14 -200q22 -145 129 -145q102 0 127 120
q20 95 20 384q0 266 -75 326q-26 21 -68 21z" />
    <glyph glyph-name="pi" unicode="&#x3c0;" horiz-adv-x="1122" 
d="M459 699q-10 -125 -19 -249q-21 -204 -64 -320q-60 -158 -162 -158q-58 0 -99 34.5t-41 91.5q0 47 42 98q104 126 160 273q40 104 71 230h-82q-83 0 -126 -17q-56 -23 -90 -86l-34 15q78 265 203 307q50 17 187 17h667v-236h-224l-17 -293q-1 -17 -1 -47q0 -102 6 -138
q16 -97 73 -97q73 0 85 151h37q0 -125 -57 -208q-66 -95 -185 -95q-185 0 -185 241q0 92 18 221l37 265h-200z" />
    <glyph glyph-name="rho" unicode="&#x3c1;" horiz-adv-x="1096" 
d="M376 -438h-275q36 171 36 379v391q0 199 4 243q14 142 76 227q117 161 364 161q271 0 375 -223q51 -112 51 -264q0 -202 -93 -342q-107 -162 -299 -162q-129 0 -198 99q-4 -322 -41 -509zM417 171q68 -115 151 -115q152 0 152 409q0 429 -175 429q-87 0 -113 -77
q-15 -42 -15 -152v-494z" />
    <glyph glyph-name="sigma1" unicode="&#x3c2;" horiz-adv-x="864" 
d="M542 266q298 0 298 -351q0 -150 -89 -251q-93 -106 -241 -106q-54 0 -95 31q-46 35 -46 87q0 84 100 84q27 0 77.5 -16t77.5 -16q63 0 102.5 37t39.5 99q0 114 -129 114q-23 0 -118 -7q-41 -3 -76 -3q-183 0 -284.5 102.5t-101.5 286.5q0 244 154 421q161 185 401 185
q215 0 215 -141q0 -46 -28 -77t-73 -31q-47 0 -128 45q-69 38 -121 38q-134 0 -231.5 -100t-97.5 -235q0 -201 223 -201q24 0 46 1q88 4 125 4z" />
    <glyph glyph-name="sigma" unicode="&#x3c3;" horiz-adv-x="1114" 
d="M1069 935v-236h-344q262 -130 262 -349q0 -171 -131 -278q-122 -100 -297 -100q-214 0 -353 155q-133 150 -133 367q0 292 285 393q135 48 417 48h294zM630 699q-277 -4 -277 -305q0 -111 51 -221q63 -135 163 -135q144 0 144 323q0 177 -81 338z" />
    <glyph glyph-name="tau" unicode="&#x3c4;" horiz-adv-x="944" 
d="M583 699l-14 -266q-3 -57 -3 -106q0 -203 76 -203q75 0 87 151h37q-2 -129 -58 -209q-66 -94 -188 -94q-185 0 -185 239q0 93 20 234l36 254h-136q-85 0 -128 -17q-57 -22 -91 -86l-34 15q79 269 216 309q54 15 207 15h474v-236h-316z" />
    <glyph glyph-name="upsilon" unicode="&#x3c5;" horiz-adv-x="1063" 
d="M617 925v38q174 0 275 -154q89 -134 89 -316q0 -211 -100 -356q-113 -165 -315 -165q-99 0 -186 42q-95 47 -136 130q-34 67 -34 181v251q0 123 -1 134q-12 94 -68 94q-83 0 -94 -156h-37q6 134 62 216q66 99 191 99q227 0 227 -278v-376q0 -118 14 -167q27 -96 114 -96
q113 0 162 180q32 116 32 268q0 167 -30 251q-43 121 -165 180z" />
    <glyph glyph-name="phi" unicode="&#x3c6;" horiz-adv-x="1278" 
d="M720 -438h-167v412q-209 17 -341 156.5t-132 348.5q0 200 124 338q128 142 325 146v-38q-113 -34 -152 -191q-23 -91 -23 -260q0 -402 199 -437v596q0 221 103 290q60 40 137 40q174 0 293 -151q111 -140 111 -317q0 -134 -58 -251q-61 -122 -169 -193q-112 -74 -250 -77
v-412zM720 37q200 38 200 421q0 124 -22 225q-37 166 -122 166q-46 0 -55 -115q-1 -7 -1 -145v-552z" />
    <glyph glyph-name="chi" unicode="&#x3c7;" horiz-adv-x="946" 
d="M672 935h256l-366 -775l60 -217q27 -97 50 -134q41 -66 116 -66q131 0 142 150h37q-4 -335 -186 -335q-85 0 -138 96q-27 50 -60 171l-66 244l-240 -507h-261l406 848l-55 188q-25 87 -51 120q-39 51 -113 51q-136 0 -150 -151h-38q13 330 195 330q88 0 138 -81
q27 -45 59 -160l57 -206z" />
    <glyph glyph-name="psi" unicode="&#x3c8;" horiz-adv-x="1409" 
d="M621 -438v412q-254 40 -369 217q-63 98 -91 244q-14 75 -30 262q-9 101 -15 125q-22 73 -83 76v37q72 13 134 13q175 0 222 -162q22 -75 39 -266q16 -179 43 -275q50 -182 150 -208v911h167v-911q68 24 101 77q22 36 45 123q26 99 47 275q23 188 27 208q27 131 88 183
q52 45 149 45q59 0 131 -13v-37q-62 -3 -84 -82q-5 -20 -15 -131q-18 -195 -30 -261q-29 -145 -97 -240q-134 -188 -362 -210v-412h-167z" />
    <glyph glyph-name="psi" unicode="&#x471;" horiz-adv-x="1409" 
d="M621 -438v412q-254 40 -369 217q-63 98 -91 244q-14 75 -30 262q-9 101 -15 125q-22 73 -83 76v37q72 13 134 13q175 0 222 -162q22 -75 39 -266q16 -179 43 -275q50 -182 150 -208v911h167v-911q68 24 101 77q22 36 45 123q26 99 47 275q23 188 27 208q27 131 88 183
q52 45 149 45q59 0 131 -13v-37q-62 -3 -84 -82q-5 -20 -15 -131q-18 -195 -30 -261q-29 -145 -97 -240q-134 -188 -362 -210v-412h-167z" />
    <glyph glyph-name="omega" unicode="&#x3c9;" horiz-adv-x="1497" 
d="M636 962v-38q-266 0 -266 -451q0 -391 158 -391q84 0 193 163q-100 240 -100 375q0 73 27 122q34 62 101 62q128 0 128 -191q0 -113 -63 -275l-35 -91q115 -165 186 -165q163 0 163 398q0 432 -266 444v38q31 1 50 1q231 0 369 -141t138 -373q0 -175 -92 -316
q-106 -161 -272 -161q-161 0 -304 199q-76 -98 -127 -137q-79 -62 -172 -62q-172 0 -279 158q-94 139 -94 319q0 233 140.5 373.5t373.5 140.5q14 0 43 -1z" />
    <glyph glyph-name="iotadieresis" unicode="&#x3ca;" horiz-adv-x="635" 
d="M44 935h398v-623q0 -85 5 -111q13 -75 63 -75q68 0 82 149h37q0 -127 -58 -209q-66 -94 -187 -94q-156 0 -198 121q-19 54 -19 177v466q0 87 -19 118q-25 41 -104 44v37zM491 1368q56 0 94.5 -38.5t38.5 -94.5q0 -55 -39 -94t-94 -39t-94 39t-39 94t39 94t94 39z
M117 1368q56 0 94.5 -38.5t38.5 -94.5q0 -55 -39 -94t-94 -39t-94 39t-39 94t39 94t94 39z" />
    <glyph glyph-name="upsilondieresis" unicode="&#x3cb;" horiz-adv-x="1063" 
d="M617 925v38q174 0 275 -154q89 -134 89 -316q0 -211 -100 -356q-113 -165 -315 -165q-99 0 -186 42q-95 47 -136 130q-34 67 -34 181v251q0 123 -1 134q-12 94 -68 94q-83 0 -94 -156h-37q6 134 62 216q66 99 191 99q227 0 227 -278v-376q0 -118 14 -167q27 -96 114 -96
q113 0 162 180q32 116 32 268q0 167 -30 251q-43 121 -165 180zM715 1368q56 0 94.5 -38.5t38.5 -94.5q0 -55 -39 -94t-94 -39t-94 39t-39 94t39 94t94 39zM341 1368q56 0 94.5 -38.5t38.5 -94.5q0 -55 -39 -94t-94 -39t-94 39t-39 94t39 94t94 39z" />
    <glyph glyph-name="omicrontonos" unicode="&#x3cc;" 
d="M510 963q126 0 229.5 -64.5t157.5 -177.5q54 -116 54 -254q0 -199 -101 -333q-122 -162 -337 -162q-203 0 -325 146q-114 138 -114 345q0 206 113 347q122 153 323 153zM514 892q-116 0 -135 -190q-12 -114 -12 -316q0 -108 14 -200q22 -145 129 -145q102 0 127 120
q20 95 20 384q0 266 -75 326q-26 21 -68 21zM816 1402l-331 -347h-86l116 347h301z" />
    <glyph glyph-name="upsilontonos" unicode="&#x3cd;" horiz-adv-x="1063" 
d="M617 925v38q174 0 275 -154q89 -134 89 -316q0 -211 -100 -356q-113 -165 -315 -165q-99 0 -186 42q-95 47 -136 130q-34 67 -34 181v251q0 123 -1 134q-12 94 -68 94q-83 0 -94 -156h-37q6 134 62 216q66 99 191 99q227 0 227 -278v-376q0 -118 14 -167q27 -96 114 -96
q113 0 162 180q32 116 32 268q0 167 -30 251q-43 121 -165 180zM831 1402l-331 -347h-86l116 347h301z" />
    <glyph glyph-name="omegatonos" unicode="&#x3ce;" horiz-adv-x="1497" 
d="M636 962v-38q-266 0 -266 -451q0 -391 158 -391q84 0 193 163q-100 240 -100 375q0 73 27 122q34 62 101 62q128 0 128 -191q0 -113 -63 -275l-35 -91q115 -165 186 -165q163 0 163 398q0 432 -266 444v38q31 1 50 1q231 0 369 -141t138 -373q0 -175 -92 -316
q-106 -161 -272 -161q-161 0 -304 199q-76 -98 -127 -137q-79 -62 -172 -62q-172 0 -279 158q-94 139 -94 319q0 233 140.5 373.5t373.5 140.5q14 0 43 -1zM1053 1402l-331 -347h-86l116 347h301z" />
    <glyph glyph-name="afii10023" unicode="&#x401;" horiz-adv-x="1366" 
d="M558 1278v-552h27q135 0 198 97q48 73 63 223h38v-710h-38q-24 231 -140 290q-51 25 -148 25v-382q0 -89 1 -97q7 -58 44 -81q26 -16 84 -16h81q370 0 469 356h37l-61 -431h-1172v37h45q105 0 135 69q11 26 11 126v892q0 94 -5 113q-9 34 -37 54q-39 28 -104 28h-45v37
h1135v-401h-38q-25 128 -68 191q-53 79 -162 114q-57 18 -210 18h-140zM869 1754q56 0 94.5 -38.5t38.5 -94.5q0 -55 -39 -94t-94 -39t-94 39t-39 94t39 94t94 39zM495 1754q56 0 94.5 -38.5t38.5 -94.5q0 -55 -39 -94t-94 -39t-94 39t-39 94t39 94t94 39z" />
    <glyph glyph-name="afii10051" unicode="&#x402;" horiz-adv-x="1638" 
d="M65 1356h1145v-319h-38q-37 129 -110.5 180t-211.5 51h-79v-497q166 174 358 174q197 0 321 -145q118 -138 118 -338q0 -186 -103 -325q-113 -153 -293 -153q-94 0 -163 57v58q45 -52 98 -52q110 0 110 363q0 371 -220 371q-120 0 -226 -106v-472q0 -61 4 -78
q7 -32 39 -63q24 -25 104 -25v-37h-669v37q154 0 183 63q13 28 13 94v1074q-155 0 -223 -42q-78 -48 -120 -189h-37v319z" />
    <glyph glyph-name="afii10052" unicode="&#x403;" horiz-adv-x="1303" 
d="M41 1356h1196v-368h-37q-41 231 -153 264q-54 16 -214 16h-276v-1054q0 -103 27 -137q31 -40 129 -40h35v-37h-707v37h38q95 0 126 42q26 35 26 135v936q0 95 -26 129q-30 40 -121 40h-43v37zM955 1819l-331 -347h-86l116 347h301z" />
    <glyph glyph-name="afii10053" unicode="&#x404;" horiz-adv-x="1389" 
d="M1282 1387v-436h-36q-30 159 -138 255q-111 98 -270 98q-209 0 -314 -187q-83 -146 -90 -377h543v-88h-543q0 -594 413 -594q129 0 222 52q71 40 177 149l46 -40q-109 -134 -227 -192t-288 -58q-307 0 -504 200t-197 507q0 204 93 371q97 176 274 263q156 77 318 77
q133 0 297 -60q71 -26 100 -26q62 0 88 86h36z" />
    <glyph glyph-name="afii10054" unicode="&#x405;" horiz-adv-x="1139" 
d="M962 1387l11 -452h-41q-26 152 -128 260q-112 117 -260 117q-87 0 -150 -45q-71 -51 -71 -135q0 -92 114 -173q46 -33 217 -117q192 -95 275 -173q128 -120 128 -286q0 -185 -145 -304q-135 -111 -324 -111q-116 0 -264 62q-48 20 -79 20q-66 0 -102 -81h-37v512h37
q37 -182 144 -303q123 -140 296 -140q97 0 167 52q78 57 78 151q0 98 -103 179q-52 40 -184 105q-151 74 -219 121q-118 80 -171 177q-44 79 -44 174q0 171 125 283q121 107 294 107q66 0 128 -16q23 -6 111 -44q76 -33 98 -33q49 0 69 93h30z" />
    <glyph glyph-name="afii10055" unicode="&#x406;" horiz-adv-x="797" 
d="M750 37v-37h-709v37h45q105 0 135 69q11 26 11 126v892q0 83 -3 99q-9 51 -52 77q-34 19 -91 19h-45v37h709v-37h-45q-105 0 -136 -69q-11 -25 -11 -126v-892q0 -82 3 -99q10 -51 54 -76q33 -20 90 -20h45z" />
    <glyph glyph-name="afii10056" unicode="&#x407;" horiz-adv-x="797" 
d="M750 37v-37h-709v37h45q105 0 135 69q11 26 11 126v892q0 83 -3 99q-9 51 -52 77q-34 19 -91 19h-45v37h709v-37h-45q-105 0 -136 -69q-11 -25 -11 -126v-892q0 -82 3 -99q10 -51 54 -76q33 -20 90 -20h45zM585 1754q56 0 94.5 -38.5t38.5 -94.5q0 -55 -39 -94t-94 -39
t-94 39t-39 94t39 94t94 39zM211 1754q56 0 94.5 -38.5t38.5 -94.5q0 -55 -39 -94t-94 -39t-94 39t-39 94t39 94t94 39z" />
    <glyph glyph-name="afii10057" unicode="&#x408;" 
d="M291 1319v37h721v-37h-44q-105 0 -136 -69q-11 -25 -11 -126v-664q0 -166 -26 -246q-37 -117 -151 -185q-100 -60 -240 -60t-253 72q-129 83 -129 217q0 67 41 112t107 45q60 0 102 -38t42 -97q0 -29 -7 -49q-4 -11 -34 -54q-25 -36 -25 -54q0 -26 26 -45q38 -28 99 -28
q88 0 111 91q11 46 11 258v725q0 82 -3 99q-10 51 -53 77q-34 19 -91 19h-57z" />
    <glyph glyph-name="afii10058" unicode="&#x409;" horiz-adv-x="2054" 
d="M1257 740h180q551 0 551 -374q0 -229 -233 -325q-100 -41 -294 -41h-727v37q76 2 102 7q61 12 81 54q15 31 15 110v1060h-290v-411q0 -282 -18 -406q-36 -246 -157 -362q-108 -105 -247 -105q-89 0 -146 44q-62 48 -62 135q0 62 31 101q35 43 95 43q119 0 129 -141
q5 -66 50 -66q88 0 156 119q52 90 70 196q25 153 25 450v232q0 90 -4 115q-12 67 -60 89q-38 16 -139 18v37h1067v-37q-105 -2 -138 -32q-37 -32 -37 -134v-413zM1257 652v-409q0 -88 20 -125q28 -51 107 -51q143 0 208 130q29 59 29 146q0 94 -43 174q-49 90 -132 115
q-67 20 -189 20z" />
    <glyph glyph-name="afii10059" unicode="&#x40a;" horiz-adv-x="2052" 
d="M929 652h-372v-425q0 -101 24 -139q31 -51 123 -51v-37h-665v37q23 1 28 1q107 0 139 43q26 36 26 150v904q0 113 -40 149q-37 33 -153 35v37h665v-37q-82 -2 -114.5 -37t-32.5 -118v-424h372v369q0 134 -22 166q-29 42 -151 44v37h685v-37q-66 -1 -96 -8
q-55 -13 -76 -52q-14 -25 -14 -124v-395h180q551 0 551 -374q0 -230 -233 -325q-101 -41 -294 -41h-703v37q108 2 140.5 33t32.5 138v444zM1255 652v-409q0 -88 20 -125q28 -51 107 -51q144 0 207 130q29 59 29 146q0 94 -43 173q-49 91 -131 116q-67 20 -189 20z" />
    <glyph glyph-name="afii10060" unicode="&#x40b;" horiz-adv-x="1638" 
d="M65 1356h1069v-319h-37q-47 167 -162 211q-55 20 -164 20v-495q162 172 343 172q159 0 245 -96q82 -92 82 -253v-388q0 -131 51 -156q29 -15 95 -15v-37h-586v37q70 0 95 45q19 32 19 110v369q0 97 -21 141q-31 64 -116 64q-110 0 -207 -86v-467q0 -91 15 -124
q25 -52 103 -52v-37h-635v37q114 2 149 30q42 33 42 141v1060q-109 -2 -152 -12q-76 -18 -125 -78q-45 -55 -66 -141h-37v319z" />
    <glyph glyph-name="afii10061" unicode="&#x40c;" horiz-adv-x="1485" 
d="M42 1356h706v-37h-23q-99 0 -133 -37t-34 -138v-405q124 0 141 2q78 11 119 63q36 45 69 175q34 134 59 191q45 107 118 158q64 44 161 44q89 0 148 -49q64 -53 64 -140q0 -60 -38 -97t-98 -37q-114 0 -123 132q-4 66 -46 66q-81 0 -146 -234q-35 -124 -49 -161
q-36 -94 -87 -141q105 -26 161 -109q11 -17 120 -211l138 -246q61 -108 184 -108v-37h-454l-279 520q-43 80 -60 96q-30 29 -102 32v-459q0 -98 47 -129q36 -23 143 -23v-37h-706v37q113 2 149 32q41 34 41 142v907q0 114 -24 152q-32 49 -137 49h-29v37zM1046 1819
l-331 -347h-86l116 347h301z" />
    <glyph glyph-name="afii10062" unicode="&#x40e;" horiz-adv-x="1503" 
d="M827 1487q-389 0 -389 189q0 42 29 68.5t71 26.5q80 0 123.5 -104t159.5 -104q72 0 107.5 22t66.5 86q47 99 126 99q101 0 101 -101q0 -182 -395 -182zM1031 1356h454v-37q-83 -7 -143 -85q-28 -35 -87 -151l-422 -828q-76 -150 -129 -203q-83 -83 -215 -83
q-92 0 -153 49q-67 53 -67 142q0 58 39 97t97 39q59 0 85 -36q20 -27 29 -93q12 -86 71 -86q70 0 134 134l19 40l-485 881q-54 98 -93 131q-52 45 -147 52v37h676v-37h-26q-118 0 -118 -56q0 -22 22 -62l339 -618l257 506q53 104 53 149q0 55 -74 72q-31 7 -116 9v37z" />
    <glyph glyph-name="afii10145" unicode="&#x40f;" horiz-adv-x="1593" 
d="M1536 0h-351q-242 0 -317 -146q-42 -80 -53 -250h-37q-18 284 -154 357q-71 39 -225 39h-358v37h43q97 0 126 52q21 36 21 144v891q0 108 -21 144q-29 51 -126 51h-43v37h709v-37h-34q-105 0 -135 -46q-24 -35 -24 -149v-908q0 -96 17.5 -112t115.5 -16h200
q115 0 130.5 15.5t15.5 125.5v895q0 113 -23 148q-30 47 -133 47h-34v37h690v-37h-27q-97 0 -126 -51q-21 -36 -21 -144v-891q0 -109 20 -145q30 -51 127 -51h27v-37z" />
    <glyph glyph-name="afii10017" unicode="&#x410;" horiz-adv-x="1479" 
d="M852 386h-479l-57 -132q-28 -65 -28 -109q0 -57 46 -84q27 -16 133 -24v-37h-451v37q89 13 150 98q30 41 86 167l485 1082h19l489 -1112q69 -157 115 -199q34 -31 96 -36v-37h-656v37h27q133 0 133 68q0 16 -6 37q-4 14 -30 75zM818 460l-202 467l-208 -467h410z" />
    <glyph glyph-name="afii10018" unicode="&#x411;" horiz-adv-x="1354" 
d="M34 1356h1170v-368h-38q-38 203 -171 256q-62 24 -190 24h-248v-528h179q552 0 552 -374q0 -230 -233 -325q-101 -41 -294 -41h-727v37q118 2 153 28q44 33 44 143v928q0 117 -38.5 150t-158.5 33v37zM557 652v-409q0 -88 20 -125q28 -51 107 -51q116 0 179 82
q57 74 57 194q0 94 -43 173q-49 91 -131 116q-67 20 -189 20z" />
    <glyph glyph-name="afii10019" unicode="&#x412;" horiz-adv-x="1366" 
d="M911 719q192 -45 271 -109q112 -91 112 -236q0 -154 -123 -253q-150 -121 -439 -121h-689v37q144 0 175 63q13 28 13 138v880q0 84 -4 104q-11 57 -57 80q-34 17 -127 17v37h650q178 0 267 -22q143 -36 216 -143q56 -83 56 -176q0 -215 -321 -296zM547 746q237 0 313 122
q36 58 36 148q0 173 -137 235q-66 30 -212 29v-534zM547 668l-1 -485q-2 -109 109 -109q177 0 251 139q36 67 36 150q0 91 -40 165q-45 80 -123.5 110.5t-231.5 29.5z" />
    <glyph glyph-name="afii10020" unicode="&#x413;" horiz-adv-x="1303" 
d="M41 1356h1196v-368h-37q-41 231 -153 264q-54 16 -214 16h-276v-1054q0 -103 27 -137q31 -40 129 -40h35v-37h-707v37h38q95 0 126 42q26 35 26 135v936q0 95 -26 129q-30 40 -121 40h-43v37z" />
    <glyph glyph-name="afii10021" unicode="&#x414;" horiz-adv-x="1409" 
d="M250 1356h1121v-37q-118 -4 -153 -33q-40 -33 -40 -146v-906q0 -75 7 -102q14 -50 64 -73q44 -22 122 -22v-433h-37q-13 188 -136 294q-119 102 -310 102h-369q-203 0 -328 -96q-133 -103 -154 -300h-37v433q460 91 460 1095q0 118 -46 155q-40 31 -164 32v37zM888 1268
h-341v-116q0 -555 -123 -840q-57 -133 -152 -224h483q90 0 106 9q27 15 27 92v1079z" />
    <glyph glyph-name="afii10022" unicode="&#x415;" horiz-adv-x="1366" 
d="M558 1278v-552h27q135 0 198 97q48 73 63 223h38v-710h-38q-24 231 -140 290q-51 25 -148 25v-382q0 -89 1 -97q7 -58 44 -81q26 -16 84 -16h81q370 0 469 356h37l-61 -431h-1172v37h45q105 0 135 69q11 26 11 126v892q0 94 -5 113q-9 34 -37 54q-39 28 -104 28h-45v37
h1135v-401h-38q-25 128 -68 191q-53 79 -162 114q-57 18 -210 18h-140z" />
    <glyph glyph-name="afii10024" unicode="&#x416;" horiz-adv-x="2025" 
d="M1359 1356v-37q-113 -1 -148 -28q-43 -32 -43 -139v-413q89 3 115 9q54 14 90 65q31 45 62 166q34 133 59 191q45 107 118 158q64 44 161 44q89 0 148 -49q64 -52 64 -139q0 -61 -36.5 -98t-97.5 -37q-115 0 -124 131q-5 66 -50 66q-76 0 -143 -233q-42 -147 -49 -165
q-39 -100 -97 -133q124 -40 183 -123q22 -31 114 -201l116 -213q44 -80 73 -105q42 -36 119 -36v-37h-422l-263 534q-35 70 -50 85q-26 24 -90 27v-438q0 -73 5 -92q11 -38 58 -63q28 -16 128 -16v-37h-693v37q142 0 173 53q17 29 17 111v445q-59 -1 -84 -21
q-18 -15 -48 -76l-271 -549h-422v37q113 0 194 127q57 114 114 227q85 161 114 199q69 89 183 125q-58 33 -96 134q-5 13 -49 164q-67 233 -144 233q-44 0 -49 -66q-10 -131 -124 -131q-61 0 -98 37.5t-37 98.5q0 86 64 138q60 49 148 49q182 0 263 -166q36 -74 75 -227
q37 -144 79 -187q52 -53 188 -53v413q0 104 -44 138q-37 29 -146 29v37h693z" />
    <glyph glyph-name="afii10025" unicode="&#x417;" horiz-adv-x="1081" 
d="M107 970v417h37q11 -72 55 -72q19 0 70 20q132 52 254 52q171 0 294 -82q141 -94 141 -258q0 -148 -124 -244q-68 -53 -217 -92q169 -28 271 -108q122 -97 122 -254q0 -112 -66 -202q-63 -85 -169 -130q-115 -48 -290 -48q-155 0 -250 39q-110 44 -194 158l42 42
q139 -150 292 -150q128 0 201 84q70 80 70 210q0 87 -38 160q-44 83 -119 111q-65 23 -193 26v88q35 -1 58 -1q257 0 257 304q0 112 -44 182q-52 83 -158 83q-127 0 -196 -109q-55 -88 -62 -226h-44z" />
    <glyph glyph-name="afii10026" unicode="&#x418;" horiz-adv-x="1593" 
d="M1036 1132q-1 109 -23 143q-30 44 -131 44h-45v37h727v-37h-47q-101 0 -132 -47q-23 -36 -23 -147v-892q0 -112 23 -148q30 -48 132 -48h47v-37h-727v37h45q101 0 132 49q22 36 22 147v736l-478 -750q0 -105 24 -139q31 -43 130 -43h47v-37h-727v37h45q101 0 132 49
q23 36 23 147v892q0 119 -20 150q-27 44 -135 44h-45v37h727v-37h-47q-98 0 -130 -50q-24 -38 -24 -144v-743z" />
    <glyph glyph-name="afii10027" unicode="&#x419;" horiz-adv-x="1593" 
d="M794 1487q-389 0 -389 189q0 42 29 68.5t71 26.5q81 0 124 -104t160 -104q71 0 107.5 22.5t66.5 85.5q47 99 125 99q101 0 101 -101q0 -182 -395 -182zM1036 1132q-1 109 -23 143q-30 44 -131 44h-45v37h727v-37h-47q-101 0 -132 -47q-23 -36 -23 -147v-892
q0 -112 23 -148q30 -48 132 -48h47v-37h-727v37h45q101 0 132 49q22 36 22 147v736l-478 -750q0 -105 24 -139q31 -43 130 -43h47v-37h-727v37h45q101 0 132 49q23 36 23 147v892q0 119 -20 150q-27 44 -135 44h-45v37h727v-37h-47q-98 0 -130 -50q-24 -38 -24 -144v-743z
" />
    <glyph glyph-name="afii10028" unicode="&#x41a;" horiz-adv-x="1485" 
d="M42 1356h706v-37h-23q-99 0 -133 -37t-34 -138v-405q124 0 141 2q78 11 119 63q36 45 69 175q34 134 59 191q45 107 118 158q64 44 161 44q89 0 148 -49q64 -53 64 -140q0 -60 -38 -97t-98 -37q-114 0 -123 132q-4 66 -46 66q-81 0 -146 -234q-35 -124 -49 -161
q-36 -94 -87 -141q105 -26 161 -109q11 -17 120 -211l138 -246q61 -108 184 -108v-37h-454l-279 520q-43 80 -60 96q-30 29 -102 32v-459q0 -98 47 -129q36 -23 143 -23v-37h-706v37q113 2 149 32q41 34 41 142v907q0 114 -24 152q-32 49 -137 49h-29v37z" />
    <glyph glyph-name="afii10029" unicode="&#x41b;" horiz-adv-x="1526" 
d="M1468 1319q-103 0 -137 -31q-37 -34 -37 -134v-943q0 -109 34 -140.5t145 -33.5v-37h-684v37q136 0 164 58q15 31 15 110v1063h-326v-405q0 -252 -6 -326q-15 -185 -75 -313q-114 -240 -343 -240q-88 0 -144 45q-62 49 -62 134q0 144 128 144q115 0 127 -143
q5 -64 50 -64q88 0 158 120q54 93 70 197q23 148 23 429v256q0 87 -5 112q-12 66 -60 87q-39 16 -138 18v37h1103v-37z" />
    <glyph glyph-name="afii10030" unicode="&#x41c;" horiz-adv-x="1933" 
d="M976 462l368 894h552v-37h-44q-105 0 -136 -68q-11 -24 -11 -125v-894q0 -83 3 -99q10 -52 53 -76q34 -20 91 -20h44v-37h-708v37h44q105 0 136 69q11 25 11 126v1005l-520 -1237h-24l-528 1228v-955q0 -103 5 -123q28 -113 193 -113v-37h-464v37h14q100 0 143 56
q21 27 31 73q2 9 2 102v858q0 82 -3 98q-10 51 -53 76q-34 19 -91 19h-43v37h554z" />
    <glyph glyph-name="afii10031" unicode="&#x41d;" horiz-adv-x="1593" 
d="M560 652v-420q0 -82 3 -99q10 -51 54 -76q33 -20 90 -20h45v-37h-709v37h45q105 0 135 69q11 26 11 126v892q0 83 -3 99q-9 51 -52 77q-34 19 -91 19h-45v37h709v-37h-45q-105 0 -136 -69q-11 -25 -11 -126v-384h479v384q0 83 -3 99q-10 52 -53 77q-34 19 -91 19h-44v37
h708v-37h-44q-58 0 -95 -21q-26 -15 -41 -48q-11 -25 -11 -126v-892q0 -83 3 -99q10 -52 53 -76q34 -20 91 -20h44v-37h-708v37h44q58 0 95 21q26 15 41 48q11 25 11 126v420h-479z" />
    <glyph glyph-name="afii10032" unicode="&#x41e;" horiz-adv-x="1593" 
d="M791 1375q336 0 527 -189q202 -201 202 -503q0 -258 -151 -454q-200 -260 -565 -260q-366 0 -566 248q-158 196 -158 465q0 302 206 504q193 189 505 189zM803 1311q-211 0 -300 -230q-62 -158 -62 -408q0 -347 122 -513q85 -116 238 -116q220 0 309 255q49 140 49 366
q0 465 -177 591q-78 55 -179 55z" />
    <glyph glyph-name="afii10033" unicode="&#x41f;" horiz-adv-x="1593" 
d="M846 0v37h43q99 0 128 51q19 34 19 145v1035h-479v-1035q0 -113 21 -148q30 -48 131 -48h41v-37h-709v37h43q99 0 128 50q19 34 19 146v891q0 111 -20 145q-28 50 -127 50h-43v37h1513v-37h-36q-101 0 -132 -48q-24 -37 -24 -147v-891q0 -114 24 -150q31 -46 136 -46h32
v-37h-708z" />
    <glyph glyph-name="afii10034" unicode="&#x420;" horiz-adv-x="1251" 
d="M553 614v-376q0 -84 4 -105q11 -56 58 -79q34 -17 126 -17v-37h-689v37q144 0 175 63q13 28 13 138v880q0 84 -4 104q-11 57 -57 80q-34 17 -127 17v37h591q224 0 363 -70q183 -92 183 -294q0 -138 -88 -233q-81 -88 -220 -121q-100 -24 -328 -24zM553 1278v-586
q33 -2 50 -2q254 0 254 297q0 291 -263 291h-41z" />
    <glyph glyph-name="afii10035" unicode="&#x421;" horiz-adv-x="1479" 
d="M1367 1387v-470h-39q-40 168 -151 270q-118 110 -285 110q-127 0 -233 -72.5t-155 -191.5q-63 -151 -63 -336q0 -409 190 -557q98 -77 254 -77q245 0 459 249v-117q-217 -226 -526 -226q-208 0 -371 80q-179 87 -274 257q-92 163 -92 347q0 196 102 369t274 269t366 96
q143 0 302 -62q92 -36 117 -36q73 0 86 98h39z" />
    <glyph glyph-name="afii10036" unicode="&#x422;" horiz-adv-x="1366" 
d="M1292 1356v-367h-36q-27 107 -57 159q-42 74 -121 112q-37 18 -133 18h-101v-1046q0 -82 3 -99q10 -51 54 -76q33 -20 91 -20h45v-37h-710v37h45q105 0 136 69q11 25 11 126v1046h-98q-137 0 -199 -58q-87 -81 -110 -231h-38v367h1218z" />
    <glyph glyph-name="afii10037" unicode="&#x423;" horiz-adv-x="1503" 
d="M1031 1356h454v-37q-83 -7 -143 -85q-28 -35 -87 -151l-422 -828q-76 -150 -129 -203q-83 -83 -215 -83q-92 0 -153 49q-67 53 -67 142q0 58 39 97t97 39q59 0 85 -36q20 -27 29 -93q12 -86 71 -86q70 0 134 134l19 40l-485 881q-54 98 -93 131q-52 45 -147 52v37h676
v-37h-26q-118 0 -118 -56q0 -22 22 -62l339 -618l257 506q53 104 53 149q0 55 -74 72q-31 7 -116 9v37z" />
    <glyph glyph-name="afii10038" unicode="&#x424;" horiz-adv-x="1759" 
d="M529 1356h701v-37q-109 -2 -141 -25q-39 -29 -46 -130q193 0 307 -37q147 -48 249 -176q85 -107 85 -260q0 -258 -201 -383q-165 -103 -440 -103q0 -124 65 -149q32 -13 122 -19v-37h-701v37q111 3 146 31q42 33 42 137q-420 0 -572 242q-70 110 -70 244q0 141 83.5 260
t215.5 167q129 46 343 46q0 97 -47 129q-36 24 -141 26v37zM1043 279q106 0 164 31q65 35 105 127q42 96 42 265q0 280 -138 354q-62 33 -173 34v-811zM717 1090q-116 -4 -175 -38q-66 -40 -103 -142q-33 -91 -33 -233q0 -296 147 -365q66 -32 164 -33v811z" />
    <glyph glyph-name="afii10039" unicode="&#x425;" horiz-adv-x="1479" 
d="M865 795l374 -555q71 -105 92 -129q61 -66 134 -74v-37h-661v37q125 9 125 68q0 17 -7 32q-14 29 -70 112l-198 293l-207 -253q-93 -114 -93 -156q0 -66 95 -90q24 -6 86 -6v-37h-521v37q89 13 140 48q68 46 187 192l269 328l-345 507q-84 123 -97 139q-47 56 -125 68v37
h673v-37h-34q-104 0 -104 -65q0 -22 7 -38l69 -104l168 -256l143 175q110 135 110 189q0 59 -60 86q-29 13 -90 13v37h499v-37q-103 -2 -172 -65q-26 -24 -130 -149z" />
    <glyph glyph-name="afii10040" unicode="&#x426;" horiz-adv-x="1593" 
d="M41 0v37h36q103 0 133 48q21 35 21 148v892q0 108 -21 144q-29 50 -126 50h-43v37h709v-37h-27q-108 0 -140 -43q-26 -35 -26 -151v-902q0 -100 17 -117.5t116 -17.5h200q107 0 124 13q22 17 22 117v907q0 109 -20 144q-29 50 -126 50h-44v37h690v-37h-27q-98 0 -127 -49
q-20 -35 -20 -145v-892q0 -109 20 -145q30 -51 127 -51h27v-433h-37q-76 396 -448 396h-1010z" />
    <glyph glyph-name="afii10041" unicode="&#x427;" horiz-adv-x="1503" 
d="M807 1356h653v-37q-119 0 -149 -19q-40 -27 -40 -135v-957q0 -65 4 -86q10 -46 47 -66q31 -18 93 -18q11 0 45 -1v-37h-705v37q73 2 97 6q58 12 78 51q16 31 16 93v438q-238 -123 -430 -123q-221 0 -286 134q-32 64 -32 188v317q0 109 -38 143.5t-148 34.5v37h652v-37
q-76 0 -108 -32.5t-32 -109.5v-364q0 -60 7 -84q12 -39 51.5 -64t101.5 -25q126 0 262 70v417q0 77 -3 95q-8 55 -44 78q-30 19 -92 19v37z" />
    <glyph glyph-name="afii10042" unicode="&#x428;" horiz-adv-x="2249" 
d="M86 1319v37h618v-37h-24q-85 0 -109 -58q-13 -33 -13 -136v-917q0 -84 24 -104q20 -16 108 -16h126q104 0 122 12q24 17 24 108v917q0 104 -14 136q-24 58 -109 58h-23v37h618v-37h-24q-85 0 -109 -58q-13 -32 -13 -136v-895q0 -105 13 -121q17 -21 119 -21h159
q84 0 101 24q12 17 12 106v907q0 102 -14 136q-24 58 -109 58h-23v37h617v-37h-23q-85 0 -109 -58q-14 -33 -14 -136v-895q0 -105 13 -136q24 -57 110 -57h23v-37h-2077v37h23q90 0 113 63q10 29 10 144v881q0 103 -14 136q-24 58 -109 58h-23z" />
    <glyph glyph-name="afii10043" unicode="&#x429;" horiz-adv-x="2249" 
d="M86 0v37h23q90 0 113 63q10 29 10 144v881q0 103 -14 136q-24 58 -109 58h-23v37h618v-37h-24q-85 0 -109 -58q-13 -33 -13 -136v-917q0 -84 24 -104q20 -16 108 -16h126q104 0 122 12q24 17 24 108v917q0 104 -14 136q-24 58 -109 58h-23v37h618v-37h-24q-85 0 -109 -58
q-13 -32 -13 -136v-895q0 -105 13 -121q17 -21 119 -21h159q84 0 101 24q12 17 12 106v907q0 102 -14 136q-24 58 -109 58h-23v37h617v-37h-23q-85 0 -109 -58q-14 -33 -14 -136v-895q0 -105 13 -136q24 -57 110 -57h23v-433h-37q-21 117 -82 213q-70 112 -168 149
q-87 34 -222 34h-1568z" />
    <glyph glyph-name="afii10044" unicode="&#x42a;" horiz-adv-x="1567" 
d="M770 740h179q551 0 551 -374q0 -230 -232 -325q-101 -41 -294 -41h-727v37q118 2 153 28q44 33 44 143v1060q-106 0 -162 -19q-78 -25 -123 -96.5t-48 -164.5h-37v368h892v-37q-157 0 -183 -67q-13 -34 -13 -123v-389zM770 652v-409q0 -88 20 -125q27 -51 106 -51
q116 0 180 82q57 74 57 194q0 94 -43 174q-49 90 -132 115q-67 20 -188 20z" />
    <glyph glyph-name="afii10045" unicode="&#x42b;" horiz-adv-x="2011" 
d="M558 740h179q552 0 552 -374q0 -230 -233 -325q-101 -41 -294 -41h-727v37q118 2 153 28q44 33 44 143v901q0 137 -26 169q-31 39 -160 41v37h698v-37q-66 -1 -96 -8q-55 -13 -76 -52q-14 -25 -14 -124v-395zM558 652v-409q0 -88 20 -125q28 -51 107 -51q116 0 179 82
q57 74 57 194q0 94 -43 173q-49 91 -131 116q-67 20 -189 20zM1971 37v-37h-708v37h44q114 0 138 72q9 29 9 123v892q0 82 -2 96q-9 50 -48 77q-35 22 -97 22h-44v37h708v-37h-44q-114 0 -137 -71q-10 -30 -10 -124v-892q0 -82 2 -96q9 -50 49 -76q34 -23 96 -23h44z" />
    <glyph glyph-name="afii10046" unicode="&#x42c;" horiz-adv-x="1354" 
d="M557 740h179q552 0 552 -374q0 -230 -233 -325q-101 -41 -294 -41h-727v37q118 2 153 28q44 33 44 143v901q0 137 -26 169q-31 39 -160 41v37h698v-37q-66 -1 -96 -8q-55 -13 -76 -52q-14 -25 -14 -124v-395zM557 652v-409q0 -88 20 -125q28 -51 107 -51q116 0 179 82
q57 74 57 194q0 94 -43 173q-49 91 -131 116q-67 20 -189 20z" />
    <glyph glyph-name="afii10047" unicode="&#x42d;" horiz-adv-x="1389" 
d="M107 1387v-436h36q30 159 139.5 256t268.5 97q209 0 314 -187q83 -146 90 -377h-543v-88h543q0 -594 -413 -594q-129 0 -222 52q-71 40 -177 149l-46 -40q109 -134 227 -192t288 -58q307 0 504 200t197 507q0 204 -93 371q-97 176 -274 263q-156 77 -318 77
q-133 0 -297 -60q-71 -26 -100 -26q-62 0 -88 86h-36z" />
    <glyph glyph-name="afii10048" unicode="&#x42e;" horiz-adv-x="2306" 
d="M791 652h-234v-420q0 -81 3 -96q8 -50 49 -76q34 -23 95 -23h45v-37h-709v37h45q115 0 137 72q9 29 9 123v892q0 82 -2 96q-9 50 -48 77q-35 22 -96 22h-45v37h709v-37h-45q-114 0 -137 -71q-10 -30 -10 -124v-384h234q24 289 229 470q202 177 494 177q202 0 366 -89
q171 -94 264 -266q86 -160 86 -349q0 -313 -201.5 -513.5t-514.5 -200.5q-310 0 -509.5 187t-213.5 496zM1513 1311q-362 0 -362 -638q0 -247 62 -403q90 -226 298 -226q359 0 359 621q0 646 -357 646z" />
    <glyph glyph-name="afii10049" unicode="&#x42f;" horiz-adv-x="1479" 
d="M935 618v-380q0 -84 -4 -104q-11 -57 -57 -80q-34 -17 -127 -17v-37h694v37q-144 0 -175 63q-13 28 -13 138v880q0 84 4 104q11 57 57 80q34 17 127 17v37h-630q-204 0 -296 -18q-165 -34 -250 -141q-72 -92 -72 -215q0 -266 301 -341l-326 -459q-64 -90 -91 -111
q-40 -31 -95 -34v-37h427l437 618h89zM935 1283v-594h-57q-118 0 -178 16q-93 25 -139 102q-39 66 -39 173q0 303 306 303h107z" />
    <glyph glyph-name="afii10065" unicode="&#x430;" 
d="M585 138q-171 -151 -307 -151q-80 0 -133 52t-53 132q0 141 187 265q70 47 306 155v94q0 83 -3 101q-10 54 -52 81q-32 20 -72 20q-65 0 -107 -29q-26 -18 -26 -42q0 -21 28 -52q38 -43 38 -83q0 -53 -38.5 -85.5t-93.5 -32.5q-58 0 -101 34q-47 37 -47 93q0 83 70 151
q58 57 146 87q102 35 212 35q103 0 185 -42q95 -48 126 -137q14 -41 14 -193v-363q0 -89 20 -105q10 -8 23 -8q26 0 53 37l30 -24q-95 -141 -225 -141q-160 0 -180 151zM585 211v313q-219 -129 -219 -261q0 -46 33 -81q25 -27 70 -27q50 0 116 56z" />
    <glyph glyph-name="afii10066" unicode="&#x431;" 
d="M900 1387h34q-15 -112 -108 -193.5t-205 -81.5q-22 0 -66.5 3.5t-66.5 3.5q-161 0 -250 -125q-74 -104 -86 -276q129 245 358 245q202 0 325 -150q115 -140 115 -347q0 -212 -111 -348q-119 -146 -326 -146q-440 0 -440 591q0 203 50 384q64 230 191 328q112 87 337 87
q21 0 63 -2.5t63 -2.5q58 0 123 30zM512 893q-104 0 -133 -178q-11 -66 -11 -253q0 -200 8 -251q28 -170 138 -170q112 0 133 181q10 95 10 341q0 141 -16 204q-31 126 -129 126z" />
    <glyph glyph-name="afii10067" unicode="&#x432;" horiz-adv-x="1106" 
d="M73 935h516q144 0 240 -45q128 -60 128 -187q0 -155 -214 -209q289 -34 289 -242q0 -252 -438 -252h-521v37q68 7 87 35q15 22 15 95v557q0 97 -9 120q-18 48 -93 54v37zM469 518q238 7 238 177q0 174 -238 177v-354zM469 455v-307q0 -49 16 -67.5t64 -18.5
q88 0 145 60.5t57 148.5q0 111 -91 154q-64 30 -191 30z" />
    <glyph glyph-name="afii10068" unicode="&#x433;" horiz-adv-x="930" 
d="M72 37q65 4 86 39q18 27 18 97v594q0 67 -19 94q-22 32 -85 37v37h822v-244h-37q-23 112 -63 146.5t-153 34.5h-185v-705q0 -70 23.5 -99t92.5 -31v-37h-500v37z" />
    <glyph glyph-name="afii10069" unicode="&#x434;" horiz-adv-x="1036" 
d="M963 935v-37q-103 0 -103 -124v-605q0 -69 17 -96q22 -34 86 -36v-283h-37q-23 246 -311 246h-271q-278 0 -307 -246h-37v283q143 11 216 290q50 194 50 397q0 136 -42 161q-21 12 -75 13v37h814zM581 872h-247v-147q0 -431 -158 -663h308q97 0 97 119v691z" />
    <glyph glyph-name="afii10070" unicode="&#x435;" horiz-adv-x="909" 
d="M861 501h-513q9 -186 99 -294q69 -83 166 -83q115 0 214 154l34 -22q-139 -284 -381 -284q-208 0 -315 160q-86 129 -86 320q0 204 107 349q119 162 316 162q174 0 271 -150q81 -125 88 -312zM615 568q0 119 -6 165q-15 104 -66 147q-21 18 -56 18q-51 0 -85 -51
q-59 -90 -59 -244v-35h272z" />
    <glyph glyph-name="afii10072" unicode="&#x436;" horiz-adv-x="1485" 
d="M501 0v37q62 1 85 41q17 29 17 98v279q-37 0 -65 -56l-198 -399h-328v37q42 0 63 16q17 14 38 56l130 263q36 73 79 101q39 24 124 37q-54 61 -98 206q-40 133 -75 133q-25 0 -29 -64q-9 -126 -96 -126q-109 0 -109 132q0 70 47.5 115t118.5 45q82 0 134 -69
q34 -45 67 -144q43 -126 61 -153q44 -67 136 -67v247q0 129 -102 133v37h484v-37q-68 -4 -88 -41q-14 -26 -14 -103v-236q101 0 141 77q18 36 62 163q66 193 195 193q70 0 118 -45.5t48 -114.5q0 -54 -28 -90q-30 -41 -82 -41q-96 0 -97 134q-1 55 -25 55q-40 0 -81 -140
q-43 -145 -94 -199q91 -13 130 -42.5t81 -113.5l122 -245q21 -42 38.5 -56t61.5 -16v-37h-328l-198 399q-27 55 -64 56v-298q0 -68 18 -90t84 -30v-37h-484z" />
    <glyph glyph-name="afii10073" unicode="&#x437;" horiz-adv-x="823" 
d="M499 503q126 -32 187 -80q81 -64 81 -176q0 -140 -125 -214q-104 -61 -254 -61q-250 0 -361 194l31 18q115 -113 234 -113q91 0 143 55t52 146q0 174 -207 186v63q181 0 181 185q0 80 -36 130q-41 56 -118 56q-151 0 -193 -221h-38l14 292h38q17 -40 42 -40q12 0 49 10
q111 30 190 30q124 0 209 -53q101 -63 101 -180q0 -171 -220 -227z" />
    <glyph glyph-name="afii10074" unicode="&#x438;" horiz-adv-x="1180" 
d="M633 0v37q90 0 90 134v458l-268 -458q1 -131 91 -134v-37h-476v37q105 0 105 144v577q0 140 -105 140v37h476v-37q-60 -2 -79 -43q-12 -27 -12 -97v-456l268 464q-2 132 -90 132v37h476v-37q-106 -2 -106 -127v-595q0 -73 17 -101q23 -38 89 -38v-37h-476z" />
    <glyph glyph-name="afii10075" unicode="&#x439;" horiz-adv-x="1180" 
d="M597 1080q-125 0 -220 34q-135 48 -135 151q0 97 88 97q79 0 117 -124q31 -100 137 -100q70 0 95 16q30 17 49 79q41 129 120 129q89 0 89 -97q0 -104 -127 -151q-89 -34 -213 -34zM633 0v37q90 0 90 134v458l-268 -458q1 -131 91 -134v-37h-476v37q105 0 105 144v577
q0 140 -105 140v37h476v-37q-60 -2 -79 -43q-12 -27 -12 -97v-456l268 464q-2 132 -90 132v37h476v-37q-106 -2 -106 -127v-595q0 -73 17 -101q23 -38 89 -38v-37h-476z" />
    <glyph glyph-name="afii10076" unicode="&#x43a;" horiz-adv-x="1180" 
d="M71 935h476v-37q-63 -2 -81 -47q-10 -25 -10 -102v-230q107 0 154 37q40 33 79 139q46 126 87 176q63 80 169 80q78 0 134 -41q63 -46 63 -121q0 -56 -33 -95q-36 -40 -91 -40q-113 0 -115 116q-1 81 -35 81q-51 0 -103 -137q-37 -98 -43 -111q-27 -55 -70 -94
q101 -20 147 -54q43 -32 119 -155l89 -143q71 -114 147 -120v-37h-360l-278 455h-60v-260q0 -152 91 -158v-37h-476v37q66 1 89 43q16 30 16 104v552q0 80 -14 112q-23 50 -91 50v37z" />
    <glyph glyph-name="afii10077" unicode="&#x43b;" horiz-adv-x="1149" 
d="M579 0v37q115 2 115 130v705h-264v-409q0 -178 -8 -233q-20 -145 -99 -201q-63 -45 -134 -45q-72 0 -123 43q-54 46 -54 117q0 59 34.5 98.5t92.5 39.5q107 0 107 -130q0 -59 23 -59q92 0 92 370v272q0 79 -17 112q-24 48 -94 51v37h824v-37q-100 -2 -100 -126v-601
q0 -131 100 -134v-37h-495z" />
    <glyph glyph-name="afii10078" unicode="&#x43c;" horiz-adv-x="1395" 
d="M73 935h391l237 -580l237 580h381v-37q-61 -3 -84 -41q-17 -30 -17 -97v-581q0 -71 16 -100q22 -39 85 -42v-37h-493v37q66 1 92 40q20 31 20 102v599l-326 -778h-51l-316 767v-604q0 -65 22.5 -94t85.5 -32v-37h-280v37q103 4 103 133v597q0 126 -103 131v37z" />
    <glyph glyph-name="afii10079" unicode="&#x43d;" horiz-adv-x="1180" 
d="M70 0v37q65 0 88 40q17 30 17 102v574q0 76 -16 104q-22 41 -89 41v37h476v-37q-60 -2 -79 -40q-12 -25 -12 -95v-247h268v247q0 70 -11 95q-19 40 -79 40v37h475v-37q-105 0 -105 -124v-595q0 -76 16 -103q21 -37 89 -39v-37h-475v37q61 1 79 39q11 24 11 96v281h-268
v-274q0 -72 11 -99q19 -43 80 -43v-37h-476z" />
    <glyph glyph-name="afii10080" unicode="&#x43e;" 
d="M510 963q126 0 229.5 -64.5t157.5 -177.5q54 -116 54 -254q0 -199 -101 -333q-122 -162 -337 -162q-203 0 -325 146q-114 138 -114 345q0 206 113 347q122 153 323 153zM514 892q-116 0 -135 -190q-12 -114 -12 -316q0 -108 14 -200q22 -145 129 -145q102 0 127 120
q20 95 20 384q0 266 -75 326q-26 21 -68 21z" />
    <glyph glyph-name="afii10081" unicode="&#x43f;" horiz-adv-x="1180" 
d="M1109 935v-37q-72 -8 -92 -47q-14 -27 -14 -109v-557q0 -78 15 -106q22 -40 91 -42v-37h-476v37q62 0 80 42q10 24 10 99v694h-268v-687q0 -78 10 -103q18 -45 81 -45v-37h-476v37q71 1 92 47q13 29 13 112v559q0 76 -15 104q-22 39 -90 39v37h1039z" />
    <glyph glyph-name="afii10082" unicode="&#x440;" horiz-adv-x="1139" 
d="M431 95v-348q0 -113 47 -136q24 -12 94 -12v-37h-533v37q63 2 92 35q20 22 20 119v987q0 86 -15 113q-22 40 -97 45v37h392v-123q48 71 100 104q74 47 159 47q109 0 196 -71q79 -66 120 -173q44 -115 44 -247q0 -312 -177 -438q-87 -62 -193 -62q-142 0 -249 123z
M431 196q86 -122 184 -122q141 0 141 377q0 390 -159 390q-101 0 -166 -146v-499z" />
    <glyph glyph-name="afii10083" unicode="&#x441;" horiz-adv-x="909" 
d="M832 241l31 -24q-130 -245 -374 -245q-191 0 -306 148q-105 136 -105 332q0 191 102 336q123 175 339 175q117 0 209 -58q107 -67 107 -178q0 -125 -125 -125q-129 0 -145 178q-10 113 -83 113q-48 0 -82 -51q-52 -77 -52 -236q0 -121 36 -234q42 -135 121 -198
q54 -43 130 -43q94 0 197 110z" />
    <glyph glyph-name="afii10084" unicode="&#x442;" horiz-adv-x="1006" 
d="M258 0v37q68 0 90 45q15 30 15 109v681h-93q-101 0 -141 -41q-34 -35 -55 -140h-37v244h932v-244h-37q-19 104 -53 140q-40 41 -141 41h-95v-681q0 -80 14 -109q22 -44 91 -45v-37h-490z" />
    <glyph glyph-name="afii10085" unicode="&#x443;" 
d="M498 -38l-302 693q-53 121 -66 143q-47 80 -113 100v37h497v-37q-89 -4 -89 -60q0 -36 50 -150l160 -366l109 283q59 153 59 210q0 79 -111 83v37h313v-37q-68 -7 -114 -95q-4 -8 -58 -148l-267 -693q-100 -258 -150 -320q-69 -84 -173 -84q-76 0 -129 42q-57 46 -57 120
q0 56 34 95t89 39q110 0 112 -131q1 -60 32 -60q24 0 51 29q37 40 94 192z" />
    <glyph glyph-name="afii10086" unicode="&#x444;" horiz-adv-x="1417" 
d="M466 -438v37q74 2 93 47q10 24 10 116v291q-75 -81 -159 -81q-170 0 -258 172q-70 136 -70 323q0 180 72 321q90 175 254 175q95 0 161 -84v283q0 82 -12 109q-21 44 -91 48v37h383v-477q65 84 156 84q166 0 257 -174q74 -141 74 -322q0 -183 -71 -321
q-90 -174 -257 -174q-82 0 -159 81v-291q0 -88 11 -114q19 -47 91 -49v-37h-485zM569 135v663q-24 46 -67 46q-140 0 -140 -401q0 -360 137 -360q39 0 70 52zM849 798v-663q28 -52 72 -52q135 0 135 383q0 378 -144 378q-44 0 -63 -46z" />
    <glyph glyph-name="afii10087" unicode="&#x445;" 
d="M622 573l162 -308q86 -163 133 -204q26 -23 74 -25v-36h-521v36q90 7 90 46q0 28 -32 88l-81 152l-69 -101q-48 -70 -53 -82q-8 -18 -8 -34q0 -45 36 -61q16 -8 60 -8v-36h-366v36q92 0 171 78q39 38 118 156l77 114l-161 298q-58 108 -79 135q-57 75 -126 81v37h518v-37
l-27 -1l-52 -18q-8 -7 -8 -23q0 -15 5 -31q4 -9 28 -54l73 -136l38 54q80 114 80 154q0 46 -80 55v37h331v-37q-121 -4 -233 -175z" />
    <glyph glyph-name="afii10088" unicode="&#x446;" horiz-adv-x="1180" 
d="M1109 37v-283h-38q-12 141 -107 199q-77 47 -230 47h-664v37q69 0 91 47q14 30 14 111v554q0 81 -14 108q-21 40 -91 41v37h476v-37q-63 -2 -80 -41q-11 -23 -11 -98v-548q0 -87 14 -112q20 -37 97 -37h54q71 0 91 37q12 24 12 107v543q0 79 -9 103q-18 46 -81 46v37h476
v-37q-65 -2 -88 -40q-18 -29 -18 -99v-568q0 -82 14 -110q21 -43 92 -44z" />
    <glyph glyph-name="afii10089" unicode="&#x447;" horiz-adv-x="1155" 
d="M1077 935v-37q-63 -6 -83 -45q-15 -28 -15 -99v-553q0 -89 10 -112q17 -40 88 -52v-37h-478v37q74 11 91 50q9 21 9 114v235q-201 -64 -315 -64q-66 0 -127 30q-69 35 -89 92q-17 45 -17 124v126q0 84 -11 107q-18 38 -88 47v37h467v-37q-58 -9 -76 -48q-12 -26 -12 -96
v-136q0 -81 12 -108q21 -44 90 -44q58 0 166 31v247q0 77 -11 102q-17 41 -79 52v37h468z" />
    <glyph glyph-name="afii10090" unicode="&#x448;" horiz-adv-x="1729" 
d="M71 0v37q63 0 87 37q18 29 18 97v579q0 77 -15 105q-22 40 -90 43v37h471v-37q-56 -9 -74 -52q-12 -29 -12 -96v-589q0 -53 13 -73q16 -26 65 -26h102q54 0 72 23q16 19 16 76v574q0 77 -10 105q-18 48 -78 58v37h455v-37q-59 -9 -77 -55q-10 -27 -10 -101v-581
q0 -58 15 -77q17 -22 72 -22h95q54 0 71 21q15 18 15 74v585q0 75 -10 101q-17 45 -76 55v37h472v-37q-71 -2 -92 -45q-14 -28 -14 -111v-571q0 -69 19 -98q23 -36 87 -36v-37h-1587z" />
    <glyph glyph-name="afii10091" unicode="&#x449;" horiz-adv-x="1729" 
d="M71 0v37q64 0 87 38q18 29 18 97v578q0 77 -15 105q-22 40 -90 43v37h471v-37q-56 -9 -74 -52q-12 -29 -12 -96v-589q0 -53 13 -73q16 -26 65 -26h102q54 0 72 23q16 19 16 76v574q0 77 -10 105q-18 48 -78 58v37h455v-37q-59 -9 -77 -55q-10 -27 -10 -101v-581
q0 -58 15 -77q17 -22 72 -22h95q54 0 71 21q15 18 15 74v585q0 75 -10 101q-17 45 -76 55v37h472v-37q-71 -2 -92 -45q-14 -28 -14 -111v-562q0 -73 17 -103q23 -40 89 -40v-283h-38q-23 246 -327 246h-1222z" />
    <glyph glyph-name="afii10092" unicode="&#x44a;" horiz-adv-x="1194" 
d="M567 516h72q492 0 492 -262q0 -163 -203 -224q-97 -30 -234 -30h-506v37q64 9 84 49q15 29 15 102v684h-22q-91 0 -136 -46q-40 -41 -56 -135h-37v244h630v-37q-64 -10 -84 -52q-15 -29 -15 -103v-227zM567 453v-291q0 -100 77 -100q85 0 139 56.5t54 141.5
q0 193 -270 193z" />
    <glyph glyph-name="afii10093" unicode="&#x44b;" horiz-adv-x="1599" 
d="M1524 935v-37q-101 -7 -101 -136v-587q0 -131 101 -138v-37h-481v37q100 8 100 138v587q0 127 -100 136v37h481zM78 0v37q64 9 84 49q15 29 15 102v565q0 68 -17 98q-21 37 -82 47v37h478v-37q-65 -10 -85 -53q-14 -29 -14 -106v-223h72q492 0 492 -262q0 -144 -157 -208
q-111 -46 -279 -46h-507zM457 453v-291q0 -100 77 -100q85 0 139 56.5t54 141.5q0 193 -270 193z" />
    <glyph glyph-name="afii10094" unicode="&#x44c;" horiz-adv-x="1083" 
d="M77 0v37q64 9 84 49q15 29 15 102v565q0 68 -17 98q-21 37 -82 47v37h478v-37q-65 -10 -85 -53q-14 -29 -14 -106v-223h72q492 0 492 -262q0 -144 -157 -208q-111 -46 -279 -46h-507zM456 453v-291q0 -100 77 -100q85 0 139 56.5t54 141.5q0 193 -270 193z" />
    <glyph glyph-name="afii10095" unicode="&#x44d;" horiz-adv-x="885" 
d="M110 963h-37l-14 -297h37q80 216 240 216q64 0 111 -45q44 -43 57.5 -108.5t13.5 -209.5h-214v-69h214q-1 -135 -8 -189q-16 -121 -71 -168q-46 -40 -126 -40q-119 0 -254 127l-31 -18q81 -100 146 -140q81 -50 193 -50q211 0 332 145q113 135 113 350q0 197 -109 340
q-119 156 -310 156q-66 0 -156 -27q-63 -19 -79 -19q-38 0 -48 46z" />
    <glyph glyph-name="afii10096" unicode="&#x44e;" horiz-adv-x="1565" 
d="M616 516q21 194 128 315q118 132 306 132q205 0 327 -148q115 -139 115 -348t-113 -347q-121 -148 -325 -148q-201 0 -321 143q-111 132 -117 338h-160v-278q0 -131 100 -138v-37h-480v37q100 8 100 138v587q0 127 -100 136v37h480v-37q-100 -7 -100 -136v-246h160z
M1056 893q-108 0 -137 -171q-11 -62 -11 -248q0 -203 8 -255q28 -177 137 -177q111 0 138 191q7 49 7 270q0 178 -10 233q-28 157 -132 157z" />
    <glyph glyph-name="afii10097" unicode="&#x44f;" horiz-adv-x="1108" 
d="M1030 935v-37q-63 0 -84 -43q-14 -29 -14 -102v-533q0 -84 12 -118q20 -60 86 -65v-37h-477v37q99 5 99 168v217q-36 -2 -41 -2q-15 0 -47 2l-159 -422h-370v37q109 1 155 124l108 291q-212 66 -212 238q0 83 53 147t135 82q75 16 267 16h489zM652 858q-59 14 -99 14
q-82 0 -127 -49.5t-45 -131.5q0 -209 239 -209q11 0 32 1v375z" />
    <glyph glyph-name="afii10071" unicode="&#x451;" horiz-adv-x="909" 
d="M861 501h-513q9 -186 99 -294q69 -83 166 -83q115 0 214 154l34 -22q-139 -284 -381 -284q-208 0 -315 160q-86 129 -86 320q0 204 107 349q119 162 316 162q174 0 271 -150q81 -125 88 -312zM615 568q0 119 -6 165q-15 104 -66 147q-21 18 -56 18q-51 0 -85 -51
q-59 -90 -59 -244v-35h272zM669 1368q56 0 94.5 -38.5t38.5 -94.5q0 -55 -39 -94t-94 -39t-94 39t-39 94t39 94t94 39zM295 1368q56 0 94.5 -38.5t38.5 -94.5q0 -55 -39 -94t-94 -39t-94 39t-39 94t39 94t94 39z" />
    <glyph glyph-name="afii10099" unicode="&#x452;" horiz-adv-x="1100" 
d="M73 1320v37h383v-165h389v-63h-389v-280q94 114 226 114q205 0 278 -243q39 -132 39 -320q0 -743 -511 -842v38q108 36 152 127q29 61 45 201q20 177 20 428v278q0 97 -10 139q-21 87 -88 87q-80 0 -151 -111v-574q0 -63 15 -89q18 -32 74 -45v-37h-472v37q64 9 86 43
q17 27 17 97v952h-103v63h103q0 68 -18.5 92t-84.5 36z" />
    <glyph glyph-name="afii10100" unicode="&#x453;" horiz-adv-x="930" 
d="M72 37q65 4 86 39q18 27 18 97v594q0 67 -19 94q-22 32 -85 37v37h822v-244h-37q-23 112 -63 146.5t-153 34.5h-185v-705q0 -70 23.5 -99t92.5 -31v-37h-500v37zM768 1402l-331 -347h-86l116 347h301z" />
    <glyph glyph-name="afii10101" unicode="&#x454;" horiz-adv-x="885" 
d="M775 963h37l14 -297h-37q-80 216 -240 216q-64 0 -109.5 -44t-59 -109.5t-13.5 -209.5h214v-69h-214q1 -135 8 -189q16 -121 71 -168q46 -40 126 -40q119 0 254 127l31 -18q-81 -100 -146 -140q-81 -50 -193 -50q-211 0 -332 145q-113 135 -113 350q0 197 109 340
q119 156 310 156q66 0 156 -27q63 -19 79 -19q38 0 48 46z" />
    <glyph glyph-name="afii10102" unicode="&#x455;" horiz-adv-x="797" 
d="M660 961l15 -319h-34q-106 246 -257 246q-39 0 -69 -26.5t-30 -64.5q0 -27 20 -52q41 -52 187 -148q138 -91 185 -161t47 -156q0 -81 -40 -155t-110 -113.5t-156 -39.5q-66 0 -179 42q-29 11 -41 11q-33 0 -55 -50h-33l-16 336h34q34 -101 100 -174q80 -90 172 -90
q45 0 77 28t32 73q0 58 -58 112q-18 16 -106 77q-152 105 -198 162q-66 82 -66 181q0 125 82 204t208 79q77 0 147 -37q28 -15 44 -15q30 0 64 50h34z" />
    <glyph glyph-name="afii10103" unicode="&#x456;" horiz-adv-x="569" 
d="M294 1388q65 0 110 -45t45 -110q0 -64 -45.5 -109t-109.5 -45t-109 45t-45 109t45 109.5t109 45.5zM434 935v-741q0 -86 15 -114q22 -39 98 -44v-36h-505v36q62 2 92 36q20 23 20 122v546q0 86 -15 113q-22 40 -97 45v37h392z" />
    <glyph glyph-name="afii10104" unicode="&#x457;" horiz-adv-x="569" 
d="M434 935v-741q0 -86 15 -114q22 -39 98 -44v-36h-505v36q62 2 92 36q20 23 20 122v546q0 86 -15 113q-22 40 -97 45v37h392zM472 1368q56 0 94.5 -38.5t38.5 -94.5q0 -55 -39 -94t-94 -39t-94 39t-39 94t39 94t94 39zM98 1368q56 0 94.5 -38.5t38.5 -94.5q0 -55 -39 -94
t-94 -39t-94 39t-39 94t39 94t94 39z" />
    <glyph glyph-name="afii10105" unicode="&#x458;" horiz-adv-x="682" 
d="M356 1387q64 0 108.5 -44t44.5 -108t-44.5 -109t-108.5 -45t-108.5 45t-44.5 109t44.5 108t108.5 44zM496 935v-968q0 -137 -17 -201q-55 -208 -296 -208q-97 0 -161 36q-79 45 -79 135q0 43 29.5 76t72.5 33q82 0 82 -90q0 -10 -1.5 -29t-1.5 -28q0 -69 57 -69
q56 0 56 77q0 16 -6 81q-11 116 -11 134l-3 237l1 630q1 64 -23 87t-89 30v37h390z" />
    </font>
</defs>
</svg>
